<?xml version="1.0" encoding="UTF-8"?>
<svg xmlns="http://www.w3.org/2000/svg" xmlns:xlink="http://www.w3.org/1999/xlink" id="e7LrHWZ2mgp1" viewBox="0 0 1197 376" shape-rendering="geometricPrecision" text-rendering="geometricPrecision">
  <style><![CDATA[
#e7LrHWZ2mgp218_to {animation: e7LrHWZ2mgp218_to__to 3000ms linear infinite normal forwards}@keyframes e7LrHWZ2mgp218_to__to { 0% {transform: translate(56.500143px,53.04345px)} 26.666667% {transform: translate(56.500143px,61.04345px)} 50% {transform: translate(56.500143px,53.04345px)} 73.333333% {transform: translate(56.500143px,48.04345px)} 100% {transform: translate(56.500143px,53.04345px)}}
]]></style>
  <path d="M1152.45,367.962c2.67-.725,4.24-3.473,3.51-6.137-.72-2.665-3.47-4.237-6.14-3.512-2.66.725-4.23,3.473-3.51,6.138.73,2.664,3.48,4.236,6.14,3.511Z" fill="#8dd7ff"></path>
  <path d="M918.275,23.9447c5.82-1.5841,9.254-7.5864,7.67-13.4065s-7.587-9.25412-13.407-7.67006-9.254,7.58636-7.67,13.40646s7.587,9.2541,13.407,7.6701Z" fill="#8dd7ff"></path>
  <path d="M16.2746,193.945c5.8202-1.584,9.2542-7.587,7.6701-13.407s-7.5863-9.254-13.4064-7.67-9.25417,7.586-7.67011,13.407c1.58406,5.82,7.58631,9.254,13.40641,7.67Z" fill="#8dd7ff"></path>
  <path d="M95.8486,278.379h.0001c1.8931-.384,3.3717-.86,4.3313-1.344.32-.162.549-.308.706-.428-.166-.106-.406-.231-.739-.363-.9965-.396-2.5077-.734-4.4179-.942l-.0042-.001c-1.2922-.144-2.5053-.695-3.4647-1.573-.9594-.877-1.6156-2.037-1.8741-3.311l-.0001-.001c-.3833-1.893-.859-3.373-1.3437-4.333-.1592-.316-.3032-.543-.4223-.699-.1053.167-.2292.406-.3605.735-.3978.998-.7411,2.511-.9573,4.427-.1447,1.292-.6956,2.504-1.5732,3.463-.878.959-2.0376,1.615-3.312,1.873h-.0015c-1.89.38-3.3675.856-4.3267,1.342-.3188.161-.5472.307-.704.428.1664.105.4055.228.735.359c1.0002.398,2.5158.741,4.4314.957l13.2974-.589Zm0,0c-1.273.259-2.4311.914-3.3081,1.873-.8767.957-1.4273,2.169-1.5726,3.459-.2167,1.915-.56,3.428-.9578,4.426-.1311.329-.2548.567-.3598.733-.1195-.156-.264-.383-.4238-.699-.484-.959-.9586-2.435-1.3402-4.321l-.0004-.002m7.9627-5.469l-7.9627,5.469m0,0c-.2591-1.273-.915-2.431-1.8736-3.308m1.8736,3.308l-1.8736-3.308m0,0c-.9582-.876-2.1695-1.427-3.4601-1.572l3.4601,1.572Zm-8.8996-3.104c0,0,.001.001.0026.004-.0019-.003-.0027-.004-.0026-.004Zm.0244.451c-.0015.003-.0024.004-.0024.004s.0006-.001.0024-.004Zm11.6995-12.775c0,0-.0012.001-.0035.003.0023-.002.0035-.003.0035-.003Zm-.4528.022c-.0025-.002-.0037-.003-.0037-.003s.0012.001.0037.003Zm12.7672,11.685c0,0-.001-.001-.002-.003.001.002.002.003.002.003Zm-.02-.445c.001-.002.002-.004.002-.004s-.001.002-.002.004ZM89.4343,289.142c0,0,.0011-.001.0034-.002-.0023.001-.0034.002-.0034.002Zm.4514-.023c.0025.002.0038.003.0038.003s-.0013-.001-.0038-.003Z" fill="none" stroke="#ffd527" stroke-width="3"></path>
  <path d="M1003.77,361.45v0c-1.47-.597-2.59-1.207-3.3-1.748-.28-.219-.47-.401-.575-.537.155-.073.405-.155.755-.223.87-.17,2.15-.213,3.72-.091v.001c1.05.078,2.09-.178,2.98-.731.9-.553,1.59-1.375,1.99-2.347v0c.59-1.469,1.2-2.595,1.74-3.302.22-.282.4-.464.53-.573.08.158.16.401.23.751.17.872.21,2.149.1,3.728-.08,1.046.18,2.09.73,2.982s1.37,1.585,2.35,1.98v0c1.46.594,2.59,1.204,3.29,1.745.29.218.47.4.58.537-.16.073-.4.153-.75.221-.88.17-2.15.216-3.73.1-1.05-.078-2.09.178-2.98.73-.89.553-1.59,1.374-1.98,2.345v.001c-.6,1.464-1.21,2.587-1.75,3.292-.21.283-.39.465-.53.574-.07-.158-.15-.401-.22-.75-.17-.872-.22-2.149-.1-3.726l-3.08-4.959Zm0,0c.97.395,1.79,1.088,2.35,1.979m-2.35-1.979l2.35,1.979m0,0c.55.891.81,1.934.73,2.979l-.73-2.979Zm1.16,7.638c0,0,0-.001,0-.003c0,.003,0,.004,0,.003Zm-.28-.068c-.01,0-.01.001-.01.001s0,0,.01-.001Zm12.07-7.485c0,0,0,.001,0,.003c0-.002,0-.003,0-.003Zm-.07.282c0,.003,0,.004,0,.004s0-.001,0-.004Zm-7.49-12.08c0,0,0,.001,0,.003c0-.003,0-.004,0-.003Zm.28.068c0-.001,0-.001,0-.001c0-.001,0,0,0,.001Zm-12.073,7.488c.001,0,.002-.001.003-.003-.002.002-.003.003-.003.003Zm.067-.278c-.001-.003-.002-.005-.002-.005s.001.002.002.005Z" fill="none" stroke="#ffd527" stroke-width="2.31228"></path>
  <g display="none" clip-path="url(#e7LrHWZ2mgp216)">
    <g>
      <path d="M1114.99,190.706l-6.98,6.261-2.8,2.52c-8.05-6.981-10.19-14.49-9.11-20.717.5-2.899,1.71-5.628,3.52-7.946c5.6-7.182,14.38-9.843,16.96-2.923c2.79,7.459-2.67,10.077-4.41,12.017-2.45,2.728-2.24,8.316,2.82,10.788Z" fill="#fff"></path>
      <g opacity="0.35">
        <path d="M1108.01,196.967l-2.8,2.52c-8.05-6.981-10.19-14.49-9.11-20.717.77,4.729,3.36,13.951,11.91,18.197Z" opacity="0.35" fill="#371a45"></path>
      </g>
      <path d="M1105.08,200.385c.19.028.39-.008.56-.102s.31-.241.39-.419.1-.378.06-.569c-.04-.192-.14-.365-.29-.493-11.82-10.258-10.33-21.184-5.46-27.417c3.39-4.348,8.11-7.031,11.52-6.547l.05.009c1.81.276,3.1,1.413,3.83,3.375c2.08,5.564-.84,8.077-2.97,9.912-.48.411-.93.799-1.27,1.181-1.44,1.604-2.06,4.029-1.61,6.331.5,2.549,2.17,4.634,4.71,5.873.11.054.22.086.34.095.12.008.24-.007.36-.046.11-.038.21-.099.3-.178s.17-.176.22-.284c.05-.107.08-.225.09-.345s-.01-.24-.05-.353-.1-.217-.18-.307c-.08-.089-.18-.161-.29-.212-2.01-.984-3.34-2.614-3.72-4.59-.34-1.754.11-3.583,1.18-4.772.26-.295.65-.63,1.1-1.018c2.25-1.935,6.01-5.173,3.48-11.923-.96-2.587-2.78-4.154-5.24-4.532-4.09-.625-9.42,2.272-13.28,7.215-3.03,3.865-4.42,8.771-3.86,13.651.65,5.771,3.96,11.391,9.56,16.255.13.114.3.186.47.21Z" fill="#371a45"></path>
      <path d="M1102,187.635c.15.021.3.04.45.056c3.39.379,6.48-.435,8.71-2.293.08-.063.14-.14.19-.227.05-.088.07-.183.08-.281s0-.197-.03-.292c-.03-.094-.07-.181-.14-.257-.06-.076-.14-.139-.22-.185-.09-.045-.19-.074-.28-.083-.1-.009-.2.001-.3.03-.09.03-.18.077-.25.14-2.58,2.149-5.87,2.148-7.59,1.955-2.92-.325-5.28-1.536-6.03-2.51-.12-.158-.3-.261-.5-.287-.19-.027-.39.027-.55.148s-.26.3-.29.497c-.02.197.03.396.15.554c1.08,1.411,3.75,2.628,6.6,3.035Z" fill="#371a45"></path>
      <path d="M1149.33,202.109c2.38,4.744-.9,20.041-5.82,27.686-4.91,7.645-19.48,1.118-27.52-3.218-8.03-4.336,1.21-22.8,3.79-27.697c4.02-7.645,26.03-3.8,29.55,3.229Z" fill="#fff"></path>
      <g opacity="0.35">
        <path d="M1115.99,226.578c8.03,4.338,22.61,10.86,27.53,3.216.68-1.078,1.29-2.199,1.83-3.355-3.14.648-5.49-2.499-4.79-4.858c4.34-14.56,1.92-22.187.39-25.15-7.86-2.637-18.5-2.634-21.17,2.451-2.58,4.894-11.82,23.357-3.79,27.696Z" opacity="0.35" fill="#371a45"></path>
      </g>
      <path d="M1133.12,234.024c4.77.678,8.86-.165,11.16-3.739c5.19-8.085,8.37-23.578,5.86-28.583-2.4-4.799-11.97-7.849-19.45-7.923-5.94-.058-10.1,1.604-11.71,4.679-4.71,8.946-11.41,24.6-3.42,28.917c5.57,3.009,12.02,5.859,17.56,6.649Zm15.4-31.508c2.2,4.394-1.03,19.416-5.77,26.788-4.44,6.909-18.4.757-26.33-3.525-7.06-3.813,1.4-21.229,4.16-26.477c1.26-2.407,4.94-3.758,10.09-3.708c7.84.074,16.01,3.245,17.85,6.922Z" fill="#371a45"></path>
      <path d="M1141.77,215.272l4.34.363c.23.019.46.087.66.2s.38.267.52.454c.14.186.24.4.29.627s.05.462,0,.69c-.71,3.319-2.57,9.999-6.15,9.767-4.33-.276-3.54-5.044-1.34-11.038.13-.336.36-.622.66-.814s.66-.28,1.02-.249Z" fill="#fff"></path>
      <g opacity="0.35">
        <path d="M1140.1,216.329c-2.21,5.989-3.02,10.757,1.32,11.042c1.78.119,3.14-1.477,4.14-3.517-.59.434-1.24.671-1.97.619-3.87-.257-3.64-4.106-1.95-9.206-.33-.003-.66.098-.94.288-.27.19-.48.46-.6.774Z" opacity="0.35" fill="#371a45"></path>
      </g>
      <path d="M1140.91,228.072c.15.021.3.037.46.047c4.06.269,6.1-6.365,6.95-10.344.07-.332.07-.675,0-1.006s-.22-.644-.42-.916-.46-.499-.75-.664c-.3-.165-.62-.266-.96-.294l-4.35-.374c-.52-.044-1.04.083-1.48.362-.44.28-.78.696-.96,1.185-2.02,5.454-2.37,8.571-1.17,10.424.57.878,1.47,1.408,2.68,1.58Zm5.2-11.676c.12.017.24.059.34.123s.19.148.26.248.12.213.14.332c.03.119.03.242,0,.362-1.26,5.876-3.27,9.299-5.38,9.162-.96-.065-1.61-.373-1.98-.946-1.3-2.012.67-7.334,1.32-9.087.06-.182.19-.336.35-.44.17-.103.36-.15.56-.133l4.34.374c.02.001.03.003.05.005Z" fill="#371a45"></path>
      <path d="M1149.86,202.757c-.54-.021-1.06-.029-1.59-.032-.54-.003-1.06.001-1.59.014-1.05.024-2.1.076-3.15.189c1.03.187,2.04.433,3.04.705.5.137,1,.28,1.5.43.49.149.99.305,1.47.467.12.041.25.056.38.042.13-.013.26-.054.37-.12s.21-.155.28-.261c.08-.107.13-.228.15-.356.03-.128.02-.26-.01-.386s-.09-.245-.17-.347-.18-.185-.3-.244c-.11-.059-.24-.093-.37-.099l-.01-.002Z" fill="#371a45"></path>
      <path d="M1111.76,192.303l2.97-5.928c-.85,2.043-1.84,4.024-2.97,5.928Z" fill="#fff"></path>
      <path d="M1082.88,229.296c0,0,4.61-2.326,9.48-3.609c3.19-.841,6.48-1.232,8.66-.229c0,0,16.31,14.27,29.91-6.963c4.32-6.735,6.02-12.071,6.01-16.304c0-.575-.04-1.148-.11-1.719-.06-.566-.17-1.126-.31-1.678-.36-1.411-.97-2.745-1.81-3.938-.61-.87-1.32-1.667-2.12-2.375-7.35-6.58-21.44-6.486-21.44-6.486-.3,1.009-.61,1.982-.94,2.92-.61,1.778-1.28,3.424-1.98,4.946-.2.439-.4.866-.61,1.282-2.42,4.914-5.11,8.409-7.25,10.71-2.31,2.477-3.97,3.576-3.97,3.576-12.1-4.354-16.29,5.736-16.29,5.736s-7.98-7.268-9.28,1.033c-.97,6.141,6.63,15.483,12.05,13.098Z" fill="#fff"></path>
      <g opacity="0.35">
        <path d="M1082.88,229.296c0,0,12.64-6.376,18.15-3.838c0,0,16.3,14.271,29.9-6.962c4.32-6.736,6.03-12.072,6.01-16.305.01-1.145-.14-2.287-.42-3.397-.1-.405-.23-.804-.37-1.197.03.342.04.692.04,1.049.01,4.234-1.69,9.57-6.01,16.305-13.6,21.233-28.98,4.839-28.98,4.839-9.33-4.573-14.25,5.336-18.57,6.62-4.31,1.284-9.93-3.747-11.88-8.895.16,6.062,7.09,14,12.13,11.781Z" opacity="0.35" fill="#371a45"></path>
      </g>
      <path d="M1106.62,196.274c-.77,1.168-1.52,2.342-2.33,3.465l-.61.845c-.2.281-.42.55-.62.828-.41.56-.86,1.085-1.29,1.629-.88,1.06-1.8,2.081-2.76,3.063-.48.489-.98.961-1.49,1.414-.25.233-.51.453-.76.67-.26.217-.54.436-.77.613l.66-.079c-1.55-.558-3.18-.954-4.85-1.083-1.67-.139-3.39.025-5.02.559-1.62.52-3.11,1.435-4.36,2.581-.62.573-1.18,1.205-1.68,1.887-.26.338-.49.691-.71,1.053-.11.181-.22.366-.32.554s-.19.369-.29.602l1.19-.267c-.85-.751-1.78-1.414-2.76-1.979-.5-.289-1.03-.537-1.57-.741-.57-.22-1.17-.356-1.79-.405-.63-.044-1.33.045-1.95.359-.63.314-1.13.82-1.46,1.359-.33.52-.58,1.088-.73,1.683l-.12.428-.08.427c-.06.29-.1.583-.12.878-.1,1.193.07,2.359.36,3.467.31,1.095.75,2.152,1.29,3.152.53.995,1.17,1.934,1.89,2.804.71.88,1.53,1.679,2.42,2.383.91.69,1.91,1.305,3.05,1.668.58.191,1.19.301,1.79.327.63.022,1.26-.064,1.86-.255l.46-.17c.04-.014.07-.031.11-.051l.09-.043.18-.087.72-.34c.48-.222.97-.439,1.46-.649.98-.42,1.97-.814,2.97-1.182c2-.729,4.04-1.353,6.1-1.728c1.03-.184,2.06-.305,3.08-.3s2.01.158,2.85.526l.03.012c.18.079.39.083.57.01.19-.072.34-.216.42-.398s.08-.389.01-.574c-.08-.185-.22-.333-.4-.413-1.14-.497-2.33-.662-3.47-.663s-2.26.128-3.36.324c-2.18.399-4.29,1.047-6.35,1.795-1.02.377-2.04.781-3.04,1.212-.5.216-1,.439-1.5.667l-.74.351-.19.091-.09.046c-.03.013-.05.023-.07.03l-.31.11c-.43.136-.88.197-1.33.18-.47-.021-.94-.108-1.39-.257-.92-.29-1.79-.816-2.59-1.427-1.6-1.258-2.94-2.9-3.91-4.713-.49-.9-.88-1.851-1.16-2.836-.26-.976-.4-1.981-.32-2.944.02-.243.06-.486.1-.725l.07-.369.1-.355c.12-.452.3-.884.55-1.28.23-.372.52-.66.87-.828.34-.169.75-.235,1.19-.206.89.063,1.83.457,2.71.955.89.511,1.73,1.108,2.5,1.783l.78.683.41-.95c.06-.133.15-.315.24-.472.08-.158.18-.326.27-.486.2-.32.4-.635.63-.936.44-.604.95-1.163,1.5-1.67c1.1-1.012,2.39-1.807,3.81-2.259c1.41-.464,2.93-.614,4.43-.489c1.51.126,3.01.477,4.46.999l.35.127.32-.206c.34-.22.62-.426.92-.653.29-.227.57-.451.84-.687.27-.237.54-.478.8-.725.27-.246.52-.499.78-.753c1.01-1.02,1.95-2.105,2.82-3.247.42-.576.85-1.148,1.24-1.748.41-.588.78-1.198,1.14-1.812.19-.305.36-.616.53-.932l.5-.94c.17-.314.31-.643.46-.963.16-.319.3-.644.45-.969.03-.086.04-.184.01-.273s-.1-.164-.18-.209-.18-.058-.27-.035-.17.079-.22.157l-.01.005Z" fill="#371a45"></path>
      <path d="M1083.72,240.005c.99,4.126,6.08,7.356,11.18,5.813c3.36-1.018,5.64-3.383,7.03-5.454c1.63-2.422,2.87-4.963,5.33-5.849c2.81-1.009,6.89,4.421,16.49.632c2.99-1.18,6.69-4.09,9.82-8.735c1.07-1.597,2.01-3.281,2.8-5.034c1.83-4.015,3.18-8.877,3.62-14.587.2-2.634.21-5.279.02-7.913-.08-1.299-.22-2.632-.4-3.998-.24-1.837-.57-3.736-.99-5.697l-2.91,4.235-.99,1.439-.72,1.037-4.45,6.481-6.81,9.904-7.96,11.56-.55.802c-.56-.75-1.17-1.451-1.85-2.096-2.03-1.955-4.56-3.363-7.33-3.988-.06-.014-.12-.026-.17-.038-1.3-.277-2.67-.39-4.02-.196-3.84.552-7.29,4.076-8.5,7.366-.35.925-.52,1.831-.47,2.647.09,1.465.17,3.074.17,3.074-1.12.371-9.48,3.883-8.34,8.595Z" fill="#fff"></path>
      <g opacity="0.35">
        <path d="M1083.72,240.005c.99,4.126,6.08,7.356,11.18,5.813c3.36-1.018,5.64-3.383,7.03-5.454c1.63-2.422,2.87-4.963,5.33-5.849c2.81-1.009,6.89,4.421,16.49.632c2.99-1.18,6.69-4.09,9.82-8.735.14-.209.28-.422.42-.64.11-.17.21-.342.32-.517.06-.099.12-.198.19-.299.19-.329.39-.666.58-1.011.05-.085.09-.171.14-.257.05-.099.11-.196.16-.292.06-.112.12-.217.17-.326.17-.33.34-.665.5-1.007.11-.224.22-.453.32-.683c3.49-7.656,5.24-18.381,2.25-32.195l-.26.39c2.07,14.327-1.12,24.946-5.61,31.881-4.85-.619-9.39-3.756-10.66-4.703l.71-1.296c.26-.49.4-1.04.39-1.597s-.17-1.102-.45-1.581c-.19-.316-.42-.598-.7-.833-.17-.139-.35-.261-.54-.364l-13.16-7.152c-.75-.408-1.63-.5-2.45-.258-.82.243-1.51.801-1.92,1.552l-.73,1.342c-.09-.056-.18-.105-.27-.148-.68-.312-1.45-.344-2.15-.09-.7.255-1.28.775-1.6,1.449s-.36,1.447-.11,2.151c.24.704.76,1.283,1.43,1.611l-.38.691c-.4.753-.5,1.635-.25,2.454.24.82.8,1.51,1.54,1.921l3.6,1.949l7.33,3.989l2.23,1.213c.06.029.12.058.17.084.75.349,1.6.401,2.38.145s1.43-.801,1.83-1.523l.57-1.053c3.99,2.476,7.32,3.739,9.8,4.375-2.31,2.451-4.7,4.08-6.76,4.893-9.59,3.786-13.68-1.641-16.49-.632-2.46.885-3.7,3.427-5.32,5.85-1.39,2.07-3.67,4.434-7.04,5.453-3.98,1.207-7.96-.505-9.98-3.28-.19.63-.21,1.298-.05,1.937Z" opacity="0.35" fill="#371a45"></path>
      </g>
      <path d="M1114.47,224.461c-1.33-2.51-3.58-4.55-6.21-5.79-1.32-.628-2.73-1.058-4.17-1.276-.74-.108-1.49-.15-2.23-.126-.38.013-.75.047-1.13.103-.37.081-.76.15-1.12.253-1.47.434-2.79,1.199-3.94,2.122-1.14.931-2.13,2.03-2.94,3.26-.8,1.229-1.45,2.602-1.67,4.164-.08.382-.05.797-.06,1.2l.05,1.026.11,2.052.61-.894c-.33.115-.6.229-.89.353-.28.124-.56.248-.83.378-.55.263-1.09.546-1.63.848-1.06.606-2.09,1.286-3.04,2.123-.93.836-1.83,1.83-2.34,3.153-.26.678-.37,1.406-.31,2.129.04.352.11.699.22,1.035l.15.478c.06.155.13.305.19.458.54,1.215,1.36,2.266,2.34,3.115.98.847,2.11,1.5,3.33,1.922c1.22.426,2.52.61,3.81.543c1.29-.069,2.57-.401,3.72-.897c2.34-1.007,4.3-2.719,5.76-4.718.74-1.015,1.33-2.028,1.97-2.979.63-.95,1.3-1.825,2.1-2.44.39-.3.82-.536,1.28-.7.3-.106.73-.075,1.23.056c1,.271,2.12.772,3.28,1.141c1.16.38,2.39.67,3.63.785c1.25.118,2.5.086,3.73-.097c1.22-.179,2.43-.474,3.59-.881.29-.099.57-.211.86-.315.29-.105.58-.245.87-.367.28-.122.56-.28.83-.42.28-.14.54-.311.81-.466c2.1-1.305,3.92-2.961,5.52-4.791c1.58-1.832,2.96-3.835,4.1-5.971c1.14-2.124,2.08-4.349,2.81-6.647c1.47-4.584,2.12-9.394,2.18-14.176v-1.794c-.01-.6-.04-1.195-.06-1.793-.01-.599-.05-1.195-.09-1.791l-.08-.893c-.02-.298-.05-.595-.1-.89-.08-.592-.17-1.182-.27-1.771-.09-.59-.24-1.172-.38-1.75-.08-.289-.14-.58-.22-.867-.09-.287-.18-.572-.28-.855-.19-.567-.4-1.129-.65-1.68-.03-.064-.08-.116-.14-.148s-.13-.041-.2-.027-.13.051-.18.105c-.04.054-.07.121-.07.191v.006c-.03,2.402.29,4.695.49,7.008.07.577.1,1.153.16,1.732s.11,1.155.14,1.731.09,1.156.1,1.735l.03,1.733c-.05,4.627-.68,9.254-2.09,13.642-.69,2.191-1.59,4.312-2.68,6.337-1.08,2.02-2.38,3.914-3.88,5.647-1.49,1.718-3.2,3.259-5.1,4.437-.24.139-.47.288-.72.418-.24.131-.49.258-.74.374-.25.117-.49.224-.76.321-.26.098-.52.201-.79.292-1.06.37-2.15.638-3.26.801-2.2.336-4.42.101-6.55-.617-.54-.174-1.07-.374-1.63-.58-.55-.207-1.12-.423-1.76-.592-.34-.092-.69-.149-1.04-.171-.41-.027-.81.022-1.2.146-.65.227-1.26.559-1.81.983-1.07.829-1.83,1.866-2.5,2.867-.68,1-1.28,2.025-1.93,2.913-1.31,1.79-3.03,3.273-5.02,4.133-.26.097-.5.212-.76.291l-.39.129-.39.093c-.25.074-.51.126-.77.157-.27.03-.53.089-.79.081-1.07.056-2.13-.096-3.13-.445-2.01-.689-3.78-2.177-4.61-4.065-.05-.118-.11-.234-.16-.352l-.11-.365c-.07-.223-.12-.454-.15-.689-.03-.453.03-.91.2-1.334.33-.888,1.04-1.717,1.85-2.436.81-.718,1.76-1.348,2.74-1.908.49-.28,1-.542,1.51-.786.25-.12.51-.24.77-.349.26-.11.52-.22.75-.298l.65-.226-.04-.668-.11-2.069-.05-1.032c.02-.284-.01-.561.05-.856.06-.582.28-1.173.49-1.752.14-.28.26-.573.41-.85.17-.271.3-.557.49-.817.71-1.072,1.58-2.023,2.58-2.818c1-.792,2.12-1.404,3.3-1.723c1.16-.314,2.44-.327,3.7-.143c1.27.189,2.51.537,3.7,1.036c2.39,1.005,4.53,2.565,6.47,4.474.05.05.12.08.19.085.08.005.15-.017.21-.06.05-.043.09-.105.11-.176.02-.07.01-.144-.03-.208h.01Z" fill="#371a45"></path>
      <path d="M1106.21,235.709c.14.021.29-.001.43-.064.13-.063.24-.164.32-.29c2.73-4.51,1.3-9.84-1.32-13.121-2.39-2.981-5.68-4.223-8.59-3.245-.18.066-.33.202-.42.379-.08.177-.1.38-.03.566.06.186.19.34.37.429.17.089.37.106.56.048c2.33-.785,4.93.247,6.94,2.76c2.22,2.781,3.55,7.537,1.2,11.407-.06.106-.1.226-.1.35-.01.124.01.248.07.36.05.112.13.209.23.283.1.073.22.121.34.138Z" fill="#371a45"></path>
      <path d="M1091.44,231.702c.39.642.82,1.253,1.31,1.826.47.571.99,1.096,1.56,1.571.57.47,1.19.881,1.88,1.157.67.283,1.4.393,2.13.319-.7-.038-1.38-.253-1.98-.624-.59-.365-1.11-.817-1.56-1.342-.45-.52-.85-1.08-1.2-1.674-.35-.582-.66-1.19-.91-1.82l-.01-.014c-.06-.168-.19-.303-.36-.375s-.35-.075-.52-.008c-.17.066-.3.197-.38.363-.07.166-.07.354-.01.523.02.034.03.067.05.098Z" fill="#371a45"></path>
      <path d="M1089.6,227.226c.13.019.26.004.38-.043s.22-.123.31-.223c3-3.66,4.3-7.322,3.85-10.886-.65-5.109-4.65-8.087-4.82-8.211-.16-.111-.36-.155-.55-.122-.2.032-.37.139-.48.297-.12.157-.17.354-.14.547.03.194.13.369.28.489.04.026,3.66,2.742,4.22,7.205.39,3.133-.79,6.407-3.52,9.729-.09.103-.14.226-.17.357-.02.132,0,.266.05.39.04.124.12.233.23.316.1.083.23.136.36.155v0Z" fill="#371a45"></path>
      <path d="M1099.28,207.018c-.32-1.533.67-3.033,2.2-3.35s3.03.669,3.35,2.203c.31,1.533-.67,3.032-2.21,3.349-1.53.317-3.03-.669-3.34-2.202Z" fill="#fff"></path>
      <g opacity="0.35">
        <path d="M1099.49,205.238c-.16.337-.25.701-.27,1.073-.01.372.04.744.17,1.094s.32.672.57.947.55.498.89.656.7.248,1.07.265c.37.018.75-.039,1.1-.165.35-.127.67-.321.94-.572.28-.251.5-.553.66-.89.18-.379.27-.794.27-1.213-.42.342-.92.559-1.45.626-.53.068-1.07-.017-1.56-.245s-.9-.589-1.19-1.041c-.28-.453-.44-.978-.44-1.515-.32.266-.58.6-.76.98Z" opacity="0.35" fill="#371a45"></path>
      </g>
      <path d="M1101.55,209.989c.65.094,1.32.004,1.93-.261.61-.264,1.13-.693,1.51-1.238.38-.544.6-1.184.64-1.846.04-.663-.11-1.324-.42-1.908-.32-.584-.79-1.069-1.36-1.401-.58-.332-1.23-.497-1.9-.478-.66.019-1.31.222-1.86.586-.56.364-1,.875-1.28,1.477-.24.507-.35,1.063-.34,1.623.02.56.17,1.108.43,1.601.27.493.65.917,1.11,1.237.45.321.98.529,1.54.608Zm.8-5.612c.2.028.4.088.58.176.38.175.69.456.9.809.22.353.32.761.3,1.173s-.16.809-.4,1.141c-.25.332-.58.584-.97.724s-.81.163-1.21.064-.76-.314-1.04-.619c-.28-.304-.46-.684-.52-1.092s0-.824.17-1.198c.2-.404.51-.737.9-.949.4-.212.85-.292,1.29-.229v0Z" fill="#371a45"></path>
      <path d="M1101.74,214.062l13.16,7.152c.75.407,1.63.5,2.45.257.82-.242,1.51-.8,1.92-1.551l3.81-7.007c.35-.654.47-1.41.33-2.14s-.52-1.391-1.09-1.87c-.16-.14-.34-.263-.53-.366l-13.16-7.152c-.75-.408-1.63-.5-2.45-.258-.82.243-1.51.801-1.92,1.552l-3.02,5.549-.79,1.457c-.41.753-.5,1.636-.26,2.456.25.82.8,1.51,1.55,1.921Z" fill="#fff"></path>
      <g opacity="0.35">
        <path d="M1101.74,214.062l13.16,7.153c.75.407,1.63.499,2.45.256.82-.242,1.51-.8,1.92-1.55l3.81-7.008c.35-.654.47-1.41.33-2.14s-.52-1.39-1.09-1.87c-1.02.09-1.66.15-1.66.15-3.7,5.276-5.72,9.58-14.12,4.261-2.9-1.834-4.43-3.814-5.29-5.085l-.8,1.457c-.4.753-.49,1.635-.25,2.455.24.819.79,1.51,1.54,1.921Z" opacity="0.35" fill="#371a45"></path>
      </g>
      <path d="M1115.87,222.317c.8.112,1.62-.022,2.35-.387.72-.364,1.32-.94,1.71-1.651l3.8-7.008c.51-.927.62-2.015.32-3.026-.3-1.01-.98-1.861-1.91-2.367l-13.15-7.152c-.93-.502-2.02-.616-3.03-.317s-1.86.987-2.36,1.913l-3.81,7.007c-.5.927-.61,2.015-.32,3.026.3,1.011.99,1.862,1.92,2.366l13.15,7.154c.41.225.86.375,1.33.442Zm-8.43-20.549c.29.041.57.135.83.275l13.16,7.154c.57.315,1,.845,1.18,1.474.19.629.12,1.306-.19,1.884l-3.81,7.007c-.31.575-.84,1.003-1.47,1.189s-1.31.116-1.88-.195l-13.16-7.15c-.58-.314-1-.844-1.19-1.474-.19-.629-.11-1.307.2-1.885l3.8-7.007c.25-.444.62-.805,1.07-1.032.45-.228.96-.312,1.46-.241v.001Z" fill="#371a45"></path>
      <path d="M1101.24,213.723c.16.13.33.244.5.339l13.16,7.153c.54.294,1.16.426,1.78.379s1.21-.271,1.7-.644c.37-.276.67-.628.89-1.031l1.69-3.115.56-1.027l1.56-2.867c.4-.752.5-1.635.25-2.456-.24-.82-.8-1.511-1.55-1.922l-2.84-1.543c.58.475.98,1.139,1.12,1.875.15.737.03,1.502-.32,2.163l-2.06,3.786-1.75,3.225c-.41.751-1.1,1.308-1.92,1.551-.82.242-1.7.15-2.45-.257l-10.32-5.609Z" fill="#fff"></path>
      <g opacity="0.35">
        <path d="M1101.24,213.723c.16.13.33.244.5.339l13.16,7.153c.75.406,1.63.498,2.45.255s1.51-.8,1.92-1.55l2.25-4.139c-.73.552-1.81,1.126-2.81.703-.55-.231-.86-.886-1.03-1.667l-1.75,3.226c-.41.75-1.1,1.308-1.92,1.55-.82.243-1.7.151-2.45-.256l-10.32-5.614Z" opacity="0.35" fill="#371a45"></path>
      </g>
      <path d="M1115.87,222.317c.8.113,1.62-.022,2.35-.386.72-.365,1.32-.941,1.71-1.653l3.8-7.007c.51-.928.62-2.016.32-3.026-.3-1.011-.98-1.862-1.91-2.367l-2.84-1.543-.84,1.24c.45.364.76.872.87,1.437s.02,1.152-.25,1.659l-3.81,7.007c-.31.576-.84,1.003-1.47,1.19-.63.186-1.31.116-1.88-.195l-10.32-5.611-.84,1.234c.2.162.41.304.63.424l13.15,7.152c.41.227.86.377,1.33.445Zm4.96-13.447l.6.325c.57.316,1,.846,1.18,1.475.19.629.12,1.306-.19,1.883l-3.81,7.008c-.31.575-.84,1.002-1.47,1.188-.63.187-1.31.117-1.88-.194l-.68-.37c.86-.341,1.57-.975,2.01-1.79l3.81-7.007c.41-.769.56-1.654.43-2.518v0Z" fill="#371a45"></path>
      <path d="M1112.62,211.772c-.14.26-.9,2.554-.9,2.554l1.48.793c1.02.546,2.41-.066,3.11-1.369.69-1.302.43-2.801-.59-3.347l-1.48-.794c0,0-1.4,1.739-1.62,2.163Z" fill="#22a7f0"></path>
      <g opacity="0.35">
        <path d="M1112.62,211.772c-.14.26-.9,2.554-.9,2.554l1.48.793c1.02.546,2.41-.066,3.11-1.369.69-1.302.43-2.801-.59-3.347l-1.48-.794c0,0-1.4,1.739-1.62,2.163Z" opacity="0.35" fill="#371a45"></path>
      </g>
      <path d="M1113.69,215.748c.47.06.94-.012,1.36-.208.68-.299,1.27-.859,1.65-1.577.39-.718.53-1.516.4-2.247-.13-.772-.55-1.379-1.16-1.71l-1.81-.97-.24.29c-.14.182-1.43,1.785-1.67,2.233-.15.273-.75,2.079-.93,2.624l-.12.359l1.82.972c.22.12.46.199.7.234Zm.67-5.565l1.15.616c.37.198.62.578.71,1.071.09.534-.02,1.126-.31,1.668-.29.541-.72.96-1.22,1.178-.46.202-.91.204-1.28.006l-1.15-.614c.33-.987.68-1.977.75-2.125.13-.245.82-1.137,1.35-1.8Z" fill="#371a45"></path>
      <path d="M1111.71,214.312c-1.02-.546-1.28-2.045-.58-3.347s2.09-1.915,3.11-1.368c1.02.546,1.28,2.045.58,3.347s-2.09,1.915-3.11,1.368Z" fill="#22a7f0"></path>
      <g opacity="0.35">
        <path d="M1114.83,212.957c-.7,1.302-2.09,1.916-3.11,1.369-1.02-.546-1.28-2.046-.58-3.349.09-.172.2-.336.32-.489-.22,1.035.11,2.034.9,2.457.88.472,2.04.08,2.79-.878-.06.311-.17.61-.32.89Z" opacity="0.35" fill="#371a45"></path>
      </g>
      <path d="M1114.83,212.957c-.05.088-.1.173-.16.255.35-1.128.03-2.273-.83-2.732-.95-.509-2.23-.012-2.96,1.115.07-.214.15-.421.26-.618.69-1.301,2.09-1.915,3.1-1.369c1.02.546,1.29,2.046.59,3.349Z" fill="#fff"></path>
      <path d="M1112.21,214.951c1.1.157,2.35-.535,3.01-1.782.82-1.518.47-3.294-.76-3.957-1.24-.663-2.91.034-3.72,1.553s-.47,3.294.77,3.957c.21.117.45.194.7.229Zm1.41-5.08c.14.02.28.066.41.135.8.428.98,1.656.4,2.738s-1.7,1.615-2.5,1.185c-.8-.431-.98-1.657-.4-2.739.49-.905,1.35-1.424,2.09-1.319Z" fill="#371a45"></path>
      <path d="M1105.78,216.829c.12.017.25-.004.36-.062.11-.057.2-.148.25-.259l1.85-3.589c.25-.498.38-1.051.37-1.611-.01-.559-.16-1.107-.43-1.595-.19-.321-.28-.683-.29-1.052c0-.369.09-.733.27-1.057l2.69-5.008c.08-.141.1-.305.05-.458-.04-.152-.15-.28-.29-.356-.14-.075-.3-.092-.46-.047-.15.046-.28.151-.35.291l-2.7,5.008c-.27.502-.41,1.065-.41,1.637.01.571.16,1.132.44,1.629.18.315.27.669.28,1.03s-.08.719-.24,1.04l-1.84,3.59c-.05.085-.07.179-.07.275c0,.095.02.19.07.275.04.085.11.158.18.213.08.056.17.092.27.105v.001Z" fill="#371a45"></path>
      <path d="M1137.28,218.695c0,0,.91,1.621.06,3.184-.97,1.807-2.72,1.969-2.72,1.969s-6.03.7-15.6-5.503c0,0-1.02-4.048,3-4.405c0-.001,8.22,6.598,15.26,4.755Z" fill="#fff"></path>
      <g opacity="0.35">
        <path d="M1137.36,221.843c-.97,1.839-2.74,2.006-2.74,2.006s-6.03.699-15.6-5.503c0,0-.78-3.095,1.71-4.111c0,.012-.01.024-.01.035-.45,1.221.06,2.59,1.17,3.262c8.82,5.338,14.32,4.7,14.32,4.7.4-.058.79-.19,1.15-.389Z" opacity="0.35" fill="#371a45"></path>
      </g>
      <path d="M1131.87,224.458c1.74.248,2.73.146,2.83.134.07-.006,2.15-.222,3.3-2.357.41-.763.55-1.653.38-2.573-.17-.999-1.12-1.68-2.11-1.519-5.73.936-12.21-3.612-13.45-4.533-.2-.152-.43-.261-.68-.32-.25-.058-.5-.066-.75-.022-2.25.415-3.45,2.131-3.21,4.589.03.281.13.552.27.793.15.241.35.445.59.597c5.71,3.625,10.16,4.831,12.83,5.211Zm4.74-4.837c.07.012.14.048.2.101.05.054.08.123.1.198.1.592.03,1.13-.23,1.599-.76,1.41-2.08,1.574-2.14,1.58-.05.007-5.76.55-14.7-5.121-.04-.03-.08-.07-.11-.117-.03-.048-.05-.101-.05-.156-.17-1.693.5-2.689,1.98-2.964.05-.007.09-.004.14.008s.09.034.13.063c1.86,1.383,8.42,5.813,14.58,4.809.03-.004.07-.003.1.002v-.002Z" fill="#371a45"></path>
      <g opacity="0.35">
        <path d="M1104.32,217.813c.08-.197.47-1.143,1.08-2.652-.61,1.509-1,2.456-1.08,2.652Z" opacity="0.35" fill="#371a45"></path>
      </g>
      <g opacity="0.35">
        <path d="M1104.3,217.854c.01-.012.02-.024.02-.036c0,.012-.01.024-.02.036Z" opacity="0.35" fill="#371a45"></path>
      </g>
      <path d="M1079.59,215.597c.27.242.54.521.81.794.26.274.52.562.76.858.49.592.95,1.214,1.27,1.935-.1-.784-.37-1.55-.69-2.289-.15-.371-.33-.732-.51-1.092s-.37-.708-.59-1.071v-.004c-.1-.15-.25-.256-.43-.296-.17-.04-.35-.011-.51.083-.15.093-.26.242-.31.415-.04.173-.02.357.07.513.04.057.08.109.13.154Z" fill="#371a45"></path>
      <g opacity="0.35">
        <path d="M1142.32,222.345c-.02.085-.02.172-.01.257c0-.086,0-.171.01-.257Z" opacity="0.35" fill="#371a45"></path>
      </g>
      <path d="M1080.83,229.671c.39-.35.65-.93.67-1.851.07-4.443-5.81-15.326-10.2-13.435-.22.584-.38,1.192-.47,1.813-.85,5.395,4.91,13.261,10,13.473Z" fill="#848484"></path>
      <g opacity="0.35">
        <path d="M1072.42,223.043c1.96,3.524,5.31,6.499,8.41,6.628.39-.35.65-.93.67-1.851.03-2.027-1.17-5.395-2.91-8.278.51,1.731,1.22,6.011-.66,6.657s-3.88-1.902-5.51-3.156Z" opacity="0.35" fill="#371a45"></path>
      </g>
      <g opacity="0.7">
        <path d="M1071.66,221.454c-.34-1.257-.46-2.502-.28-3.634.01-.034.01-.068.02-.101.22-1.366,1.68-2.164,2.95-1.596c2.61,1.176,5.27,5.244,6.67,8.865-1.47-5.037-6.1-12.161-9.72-10.603-.23.585-.39,1.193-.47,1.814-.26,1.62.09,3.464.83,5.255Z" opacity="0.7" fill="#fff"></path>
      </g>
      <path d="M1080.21,230.217c.2.028.4.046.59.054l.24.01.18-.161c.57-.499.86-1.27.88-2.29.06-3.623-3.46-10.892-7.14-13.36-1.38-.92-2.72-1.14-3.89-.636l-.23.098-.09.227c-.25.627-.42,1.28-.51,1.946-.46,2.92.85,6.679,3.41,9.811c2.01,2.449,4.37,3.988,6.56,4.301Zm.37-1.165c-1.92-.198-4.15-1.634-6-3.897-2.32-2.831-3.56-6.311-3.16-8.863.07-.489.19-.971.35-1.439.74-.219,1.58-.014,2.52.613c3.34,2.242,6.66,9.072,6.61,12.344-.01.546-.12.963-.32,1.242Z" fill="#371a45"></path>
      <path d="M1072.33,217.578c1.87.265,4.15.009,4.49-.032.08-.01.16-.034.23-.073.06-.039.12-.09.17-.152s.09-.133.11-.209.03-.155.02-.233c-.01-.079-.04-.154-.08-.223-.03-.068-.09-.129-.15-.177-.06-.049-.13-.085-.21-.106-.07-.022-.15-.028-.23-.018-1.65.198-4.61.271-5.55-.379-.06-.046-.13-.08-.21-.098s-.16-.021-.24-.007c-.08.013-.15.042-.22.085-.07.042-.12.098-.17.163-.05.066-.08.14-.09.218-.02.078-.02.158-.01.237.02.078.05.153.09.219.05.067.1.124.17.168.46.321,1.14.511,1.88.617Z" fill="#371a45"></path>
      <path d="M1073.63,220.851c2.71.386,5.14-.527,5.28-.577.14-.056.26-.17.33-.315.06-.145.07-.31.01-.459-.05-.149-.17-.269-.31-.334-.15-.065-.31-.069-.46-.012-.04.015-4.09,1.521-7.19-.366-.14-.083-.3-.108-.46-.071-.15.038-.29.135-.37.271s-.11.3-.07.454c.04.155.14.289.27.372.91.544,1.92.897,2.97,1.037Z" fill="#371a45"></path>
      <path d="M1074.72,223.853c3.84.546,5.65-.906,5.74-.98.12-.102.19-.247.21-.404.01-.156-.04-.312-.14-.433s-.24-.199-.4-.216c-.15-.017-.31.028-.43.125-.04.032-2.32,1.756-7.31.125-.07-.024-.15-.034-.23-.028s-.15.028-.22.063c-.07.036-.14.085-.19.145s-.09.129-.11.204c-.03.075-.04.154-.03.232.01.079.03.155.06.226.04.07.09.133.15.184s.13.09.2.114c.88.293,1.78.508,2.7.643Z" fill="#371a45"></path>
      <path d="M1076.31,227.437c3.09.44,5.18-1.184,5.28-1.264.12-.101.2-.244.21-.399.02-.156-.03-.311-.13-.433-.09-.122-.23-.202-.39-.222-.15-.02-.31.02-.43.113-.11.081-2.42,1.842-5.69.688-.08-.027-.16-.039-.24-.035-.07.003-.15.022-.22.056-.08.034-.14.082-.19.141-.06.058-.1.127-.12.202-.03.075-.04.154-.04.233.01.079.03.157.06.228.04.071.08.135.14.188s.13.093.21.119c.5.179,1.02.308,1.55.385Z" fill="#371a45"></path>
      <path d="M1157.55,185.432c-.14-.051-.25-.155-.32-.29-.06-.135-.07-.291-.02-.432l5.45-15.344c.05-.142.15-.257.29-.322.13-.064.29-.072.43-.022c1.48.526,2.69,1.62,3.37,3.04.67,1.421.76,3.051.23,4.534l-1.86,5.233c-.52,1.482-1.62,2.694-3.04,3.369-1.42.676-3.04.76-4.53.234Z" fill="#fff"></path>
      <path d="M1158.69,185.89c1.39.195,2.81-.097,4.01-.827s2.12-1.853,2.59-3.178l1.86-5.233c.54-1.526.45-3.205-.24-4.667-.7-1.462-1.94-2.588-3.47-3.13-.09-.032-.19-.046-.28-.041-.1.005-.2.029-.28.07-.09.042-.17.101-.24.173-.06.072-.11.157-.14.248l-5.45,15.346c-.03.092-.05.189-.04.286c0,.097.03.192.07.28s.1.166.17.231.16.116.25.148c.38.138.78.236,1.19.294Zm4.56-16.726c.02.004.05.01.07.019.71.252,1.37.643,1.93,1.149s1.02,1.118,1.34,1.801c.33.682.51,1.422.55,2.178.04.755-.07,1.51-.32,2.222l-1.86,5.234c-.51,1.437-1.57,2.613-2.95,3.269s-2.96.739-4.4.23c-.09-.035-.17-.107-.22-.2-.04-.094-.05-.201-.01-.299l5.44-15.347c.03-.085.09-.157.17-.203.08-.047.17-.066.26-.053Z" fill="#371a45"></path>
      <g opacity="0.35">
        <path d="M1166.52,179.678l-.87,2.452c-.26.734-.67,1.41-1.19,1.988-.52.579-1.15,1.049-1.85,1.384-.7.334-1.47.527-2.24.568-.78.04-1.56-.074-2.29-.334-.14-.051-.26-.156-.32-.291-.07-.136-.08-.291-.03-.433l1.45-4.08c.01.109.05.213.12.299.06.087.15.152.25.189l.37.128c1.16.412,2.41.454,3.6.118c1.18-.335,2.23-1.03,3-1.988Z" opacity="0.35" fill="#371a45"></path>
      </g>
      <path d="M1158.57,186.675c1.57.222,3.18-.107,4.54-.932c1.36-.824,2.39-2.093,2.93-3.592l1.85-5.233c.62-1.725.52-3.623-.27-5.275-.78-1.653-2.19-2.925-3.91-3.538-.19-.067-.4-.096-.6-.086s-.4.06-.58.147-.34.209-.48.358c-.13.15-.24.325-.3.515l-5.45,15.346c-.07.19-.1.392-.09.593s.06.399.15.581.21.345.36.48.32.239.51.306c.43.155.88.265,1.34.33Zm4.86-16.591c1.14.511,2.04,1.432,2.53,2.578.49,1.147.53,2.435.11,3.61l-1.86,5.233c-.42,1.173-1.26,2.146-2.36,2.727s-2.38.726-3.58.409l5.16-14.557Z" fill="#371a45"></path>
      <path d="M1112.77,151.037c.14.05.26.154.32.29.06.135.07.29.02.432l-5.45,15.346c-.05.141-.15.256-.28.321-.14.064-.3.072-.44.022-1.48-.526-2.69-1.62-3.36-3.04-.68-1.42-.76-3.051-.24-4.534l1.86-5.233c.53-1.482,1.62-2.694,3.04-3.37s3.05-.76,4.53-.234Z" fill="#fff"></path>
      <path d="M1107.03,167.648c.14.021.29-.001.42-.065.09-.041.17-.099.23-.172.07-.072.12-.156.15-.248l5.45-15.346c.06-.185.05-.388-.03-.565-.09-.177-.24-.314-.42-.379-1.53-.541-3.2-.454-4.67.241-1.46.696-2.58,1.944-3.13,3.47l-1.85,5.232c-.27.756-.39,1.557-.35,2.357.04.801.24,1.586.59,2.31.34.724.82,1.373,1.42,1.91.59.537,1.29.951,2.04,1.219.05.017.1.029.15.036Zm5.68-16.446c.05.017.09.043.13.078.04.034.07.076.09.122.02.047.04.097.04.148c0,.052,0,.103-.02.152l-5.45,15.346c-.02.048-.04.093-.08.131-.03.038-.07.069-.12.091-.05.023-.1.036-.15.039s-.1-.005-.15-.022c-1.44-.511-2.62-1.572-3.27-2.951-.66-1.379-.74-2.961-.23-4.4l1.86-5.234c.51-1.437,1.57-2.613,2.95-3.269s2.96-.739,4.4-.23v-.001Z" fill="#371a45"></path>
      <g opacity="0.35">
        <path d="M1109.18,162.848l-1.51,4.257c-.06.142-.16.257-.3.321-.13.065-.29.073-.43.023-1.48-.527-2.69-1.62-3.36-3.04-.68-1.42-.76-3.051-.24-4.533l.79-2.205c.09,1.136.51,2.22,1.21,3.123.69.903,1.63,1.586,2.71,1.967l.56.2c.09.034.2.041.3.021s.19-.066.27-.134Z" opacity="0.35" fill="#371a45"></path>
      </g>
      <path d="M1106.92,168.437c.35.048.71-.025,1.01-.209.3-.183.53-.465.65-.798l5.44-15.347c.07-.19.1-.392.09-.593s-.06-.399-.14-.581c-.09-.182-.21-.345-.36-.48s-.33-.239-.52-.306c-1.72-.61-3.62-.511-5.27.276s-2.92,2.198-3.53,3.922l-1.86,5.232c-.3.854-.44,1.76-.39,2.665s.27,1.792.66,2.61c.39.819.93,1.552,1.61,2.159.67.607,1.45,1.076,2.31,1.379.1.033.2.057.3.071Zm5.14-16.606l-5.17,14.553c-1.13-.511-2.03-1.432-2.52-2.578s-.53-2.435-.11-3.609l1.85-5.233c.42-1.173,1.27-2.145,2.37-2.725s2.38-.726,3.58-.408Z" fill="#371a45"></path>
      <path d="M1112.99,184.898c-9.2-12.257-6.72-29.652,5.53-38.855c12.25-9.202,29.63-6.726,38.82,5.53c9.2,12.256,6.72,29.652-5.53,38.854s-29.63,6.727-38.82-5.529Z" fill="#fff"></path>
      <path d="M1131.27,195.9c4.75.673,9.6.1,14.06-1.663c6.95-2.72,12.41-7.982,15.4-14.816c2.99-6.835,3.14-14.424.42-21.369-2.72-6.946-7.97-12.416-14.8-15.404-14.1-6.167-30.58.293-36.75,14.402-2.99,6.834-3.14,14.423-.42,21.369s7.97,12.415,14.8,15.403c2.33,1.019,4.78,1.718,7.29,2.078Zm7.74-54.984c2.48.355,4.9,1.045,7.2,2.052c6.74,2.95,11.93,8.35,14.62,15.211c2.68,6.86,2.53,14.353-.42,21.102s-8.35,11.946-15.2,14.631c-6.86,2.686-14.34,2.541-21.09-.409-6.74-2.95-11.93-8.351-14.61-15.212-2.69-6.861-2.54-14.352.41-21.102c2.95-6.749,8.35-11.945,15.2-14.631c4.41-1.741,9.2-2.307,13.89-1.643v.001Z" fill="#371a45"></path>
      <g opacity="0.35">
        <path d="M1161.87,175.723c-.35,1.238-.78,2.45-1.3,3.627-6.14,14.042-22.49,20.449-36.52,14.312s-20.43-22.502-14.29-36.544c.18-.404.36-.804.55-1.193-3.69,13.126,2.75,27.299,15.59,32.917c13.63,5.962,29.44.092,35.97-13.119Z" opacity="0.35" fill="#371a45"></path>
      </g>
      <path d="M1131.16,196.688c4.89.693,9.87.104,14.46-1.709c7.14-2.797,12.77-8.209,15.84-15.24c3.07-7.03,3.22-14.834.43-21.977-2.8-7.143-8.2-12.769-15.23-15.842-7.02-3.073-14.82-3.225-21.95-.429-7.14,2.797-12.77,8.21-15.84,15.241-3.07,7.03-3.22,14.834-.43,21.977s8.2,12.77,15.23,15.843c2.38,1.048,4.9,1.766,7.49,2.136Zm7.74-54.984c2.41.345,4.76,1.015,6.99,1.993c6.55,2.865,11.59,8.111,14.19,14.772c2.61,6.661,2.47,13.939-.4,20.494s-8.1,11.6-14.76,14.209-13.93,2.467-20.48-.4-11.59-8.112-14.19-14.773c-2.61-6.661-2.47-13.938.4-20.493s8.11-11.601,14.76-14.21c4.29-1.689,8.93-2.238,13.49-1.592Z" fill="#371a45"></path>
      <path d="M1160.2,179.968c-2.1,5.009-5.67,8.976-10.06,11.657-3.29,2.01-13.97,3.463-24.58-.876-9.84-4.025-16.56-12.998-17.44-16.756-1.16-5.012-.84-10.344,1.26-15.352c5.56-13.252,19.23-13.973,33.27-8.083s23.11,16.157,17.55,29.41Z" fill="#371a45"></path>
      <g opacity="0.5">
        <path d="M1150.02,178.815c-1.64-1.071-1.78-3.783-.3-6.057c1.47-2.274,4.01-3.249,5.65-2.178c1.65,1.07,1.78,3.782.31,6.056-1.48,2.274-4.01,3.25-5.66,2.179Z" opacity="0.5" fill="#fff"></path>
      </g>
      <g opacity="0.5">
        <path d="M1143.45,183.69c-.81-.7-.8-2.03.01-2.97.82-.94,2.13-1.134,2.94-.434s.8,2.03-.02,2.97c-.81.94-2.13,1.135-2.93.434Z" opacity="0.5" fill="#fff"></path>
      </g>
      <g opacity="0.35">
        <path d="M1160.44,165.531c1.87,4.27,1.99,9.113-.24,14.437-2.1,5.009-5.67,8.976-10.06,11.657-3.29,2.01-13.97,3.463-24.58-.875-3.75-1.532-7.04-3.782-9.73-6.191c13.15,5.057,26.18,3.238,30.26.746c5.57-3.401,10.11-8.44,12.77-14.795.68-1.607,1.21-3.274,1.58-4.979Z" opacity="0.35" fill="#111a28"></path>
      </g>
      <path d="M1162.78,168.222c.13.018.27.003.39-.043.13-.047.24-.124.32-.225.09-.1.15-.221.18-.351.03-.131.03-.266-.01-.394-1.9-8.316-9.08-15.645-19.72-20.111-10.73-4.5-21.05-4.366-28.33.369-.17.111-.3.284-.35.485-.05.2-.02.411.08.59.11.179.27.312.47.371s.41.039.59-.054l.08-.042c6.82-4.446,16.61-4.533,26.84-.24c10.17,4.27,17.02,11.205,18.79,19.028l.02.101.05.091c.06.114.14.212.25.286.1.073.22.121.35.139Z" fill="#371a45"></path>
      <g opacity="0.5">
        <path d="M1111.78,168.92c0,0,1.38-14.795,10.61-17.05c9.22-2.256,19.34,2.015,18.83,2.566c0,0-12.35-1.988-20.46,5.042-6.25,5.422-8.98,9.442-8.98,9.442Z" opacity="0.5" fill="#fff"></path>
      </g>
      <path d="M1101.85,168.358c0,0,4.65-4.864,11.09-3.623c4.55.878,5.41,9.795-.21,13.72-2.64,1.845-4.83,2.198-6.12,6.784" fill="#fff"></path>
      <path d="M1106.48,186.137c.22.031.44-.018.62-.139.19-.12.32-.303.38-.514.93-3.307,2.29-4.127,4.17-5.263.51-.31,1.04-.63,1.6-1.023c3.81-2.66,4.8-7.194,4.1-10.508-.56-2.63-2.15-4.44-4.24-4.846-6.84-1.32-11.71,3.674-11.91,3.887-.16.175-.25.405-.24.642s.11.461.28.625c.17.163.4.254.63.252.24-.002.47-.097.63-.264.05-.045,4.41-4.491,10.26-3.361c1.36.263,2.42,1.55,2.82,3.442.56,2.64-.26,6.471-3.37,8.644-.51.358-1.01.663-1.5.957-1.98,1.197-3.85,2.328-4.97,6.326-.04.115-.04.235-.03.353s.05.232.11.336.14.195.23.269.2.128.31.16c.04.011.08.019.12.025Z" fill="#371a45"></path>
      <g opacity="0.35">
        <path d="M1136.94,199.849l-2.08,8.724c-21.58,11.316-26.32-9.887-27.8-14.045-.31-.858-1.34-3.422-2.11-4.1-.83-.735-1.44-2.942-1.33-4.467c0,0,1.35-5.38,3.44-6.76c2.15-1.412,6.38-.159,8.36,1.399c2.74,2.153,4.26,6.532,7.31,10.617c3.75,5.013,13.38,4.736,14.21,8.632Z" opacity="0.35" fill="#371a45"></path>
      </g>
      <path d="M1138.3,198.153l-3.31,10.002-.13.418c-19.38,3.897-25.11-12.711-27.78-17.403-.46-.791-1.94-1.954-2.71-2.633-.83-.734-1.11-2.069-1-3.594.22-2.949,1.92-6.607,4.01-7.987c2.15-1.412,6.38-.159,8.36,1.399c2.74,2.154,4.26,6.532,7.31,10.618c3.75,5.012,14.42,5.285,15.25,9.18Z" fill="#fff"></path>
      <g opacity="0.35">
        <path d="M1134.99,208.155l-.13.418c-19.38,3.897-25.11-12.711-27.79-17.404-.45-.79-1.93-1.953-2.7-2.632-.83-.734-1.11-2.069-1-3.594.41.785.99,1.495,1.79,1.688c2.01.489,4.87.814,5.53,2s1.39,6.762,6.02,12.042c4.68,5.327,13.62,8.118,18.28,7.482Z" opacity="0.35" fill="#371a45"></path>
      </g>
      <path d="M1138.67,198.075c-.06-.568-.34-1.105-.69-1.524s-.77-.764-1.19-1.063c-.86-.583-1.77-1.011-2.68-1.394-1.81-.758-3.65-1.349-5.38-2.11-1.72-.754-3.4-1.652-4.59-2.943-.15-.154-.27-.331-.41-.496-.14-.179-.28-.38-.42-.569-.27-.383-.53-.778-.79-1.175-.51-.793-1-1.621-1.48-2.454-.97-1.662-1.88-3.4-3.17-5.013-.64-.796-1.41-1.57-2.34-2.131-.9-.564-1.86-.956-2.86-1.253-.99-.297-2.03-.474-3.13-.436-.56.012-1.12.108-1.66.287l-.42.158-.4.221c-.25.145-.48.314-.7.503-.84.728-1.46,1.585-1.98,2.481-.51.893-.93,1.838-1.24,2.819-.31.98-.53,1.992-.59,3.05-.03.54-.01,1.082.06,1.618.08.581.27,1.143.56,1.655.07.138.16.269.26.391.1.13.2.251.32.361l.09.085.07.062.14.123.28.238c.37.312.74.619,1.08.931.34.313.67.639.89.934.08.105.2.339.31.537l.33.628c.87,1.712,1.75,3.48,2.77,5.167.5.847,1.05,1.672,1.63,2.482.58.803,1.19,1.589,1.85,2.332c1.32,1.509,2.84,2.834,4.51,3.941c1.67,1.114,3.54,1.927,5.47,2.465c1.93.51,3.92.752,5.91.718c1.97-.046,3.93-.3,5.85-.759.1-.018.18-.075.24-.157.06-.083.08-.184.06-.282s-.08-.185-.16-.241-.18-.077-.28-.058l-.01-.001c-1.89.287-3.8.455-5.69.39-1.88-.04-3.75-.341-5.55-.893-1.79-.543-3.49-1.352-5.03-2.401-.38-.273-.77-.526-1.13-.827l-.55-.437-.52-.466c-.36-.301-.68-.645-1.02-.966-.32-.345-.65-.676-.96-1.035-.62-.703-1.19-1.455-1.75-2.219-.54-.777-1.06-1.568-1.54-2.387-.98-1.637-1.82-3.344-2.69-5.092l-.34-.66c-.13-.222-.22-.428-.42-.715-.36-.487-.73-.83-1.1-1.181-.37-.35-.75-.664-1.12-.98l-.27-.233-.13-.116-.07-.057-.04-.043c-.06-.055-.11-.115-.16-.181-.05-.065-.1-.136-.14-.211-.35-.611-.44-1.502-.38-2.371.05-.879.25-1.774.53-2.641.27-.866.65-1.699,1.1-2.486.45-.779,1-1.498,1.63-2.035.15-.13.31-.246.48-.347.08-.041.16-.085.24-.13l.26-.097c.38-.127.78-.195,1.18-.202.85-.034,1.74.11,2.6.362.86.253,1.71.603,2.45,1.063.73.437,1.36,1.055,1.93,1.762c1.14,1.421,2.06,3.122,3.05,4.792.5.839,1,1.682,1.55,2.507.27.413.55.824.84,1.226.15.201.29.4.45.603.17.204.33.424.52.609.73.776,1.57,1.405,2.44,1.928.87.509,1.76.959,2.69,1.346c1.83.777,3.68,1.383,5.47,2.037.89.325,1.77.666,2.57,1.088.78.432,1.51.945,1.78,1.718v.011c.03.087.09.16.18.205.08.045.17.058.26.037s.17-.074.22-.15c.06-.075.08-.168.07-.26v.007Z" fill="#371a45"></path>
      <path d="M1115.72,204.9c.16.023.32-.006.46-.081c8.25-4.388,7.46-15.699,7.42-16.178-.02-.199-.11-.383-.26-.512s-.35-.193-.55-.177c-.19.015-.38.109-.51.261-.13.151-.19.347-.18.545.01.108.75,10.813-6.62,14.737-.14.074-.26.191-.33.333s-.09.303-.06.459.1.299.22.409c.11.111.26.182.41.204Z" fill="#371a45"></path>
      <path d="M1108.92,165.352c.2.028.4-.024.56-.143s.26-.297.29-.494l7.85-55.111c.02-.194-.03-.389-.15-.544-.12-.154-.3-.256-.49-.284-.19-.027-.39.022-.55.137-.15.115-.26.287-.29.479l-7.85,55.112c-.03.197.02.397.14.556s.3.264.49.292Z" fill="#371a45"></path>
      <path d="M1086.65,200.759c.05.008.11.01.17.005c2.23-.182,3.52-1.47,4.77-2.715c1.67-1.662,3.25-3.233,7.26-2.561c2.22.369,4-.011,5.27-1.139c2.05-1.834,1.93-4.932,1.92-5.062-.01-.199-.1-.386-.24-.519-.15-.134-.34-.204-.54-.194-.2.009-.39.098-.52.245s-.2.342-.2.54c.01.05.09,2.532-1.43,3.875-.91.808-2.26,1.069-4.01.774-4.77-.795-6.79,1.205-8.57,2.974-1.15,1.154-2.15,2.147-3.84,2.284-.18.014-.35.096-.48.23s-.2.31-.21.495c0,.185.06.366.18.507s.29.234.47.259v.002Z" fill="#371a45"></path>
      <path d="M1114.3,124.532c-5.24-.747-9.25-3.096-8.94-5.246s4.81-3.288,10.05-2.54c5.25.747,9.25,3.096,8.95,5.246-.31,2.15-4.81,3.287-10.06,2.54Z" fill="#e2e2e2"></path>
      <path d="M1114.29,124.648c5.3.755,9.87-.429,10.18-2.64.31-2.21-3.74-4.622-9.04-5.377s-9.87.429-10.19,2.639c-.31,2.21,3.75,4.623,9.05,5.378Zm1.11-7.787c5.17.737,9.14,3.031,8.84,5.115-.3,2.083-4.75,3.179-9.92,2.442-5.18-.737-9.14-3.032-8.85-5.115.3-2.084,4.75-3.182,9.93-2.445v.003Z" fill="#371a45"></path>
      <path d="M1114.3,124.532c-5.24-.747-9.25-3.096-8.94-5.246s4.81-3.288,10.05-2.54c5.25.747,9.25,3.096,8.95,5.246-.31,2.15-4.81,3.287-10.06,2.54Z" fill="#fff"></path>
      <path d="M1114.29,124.648c5.3.755,9.87-.429,10.18-2.64.31-2.21-3.74-4.622-9.04-5.377s-9.87.429-10.19,2.639c-.31,2.21,3.75,4.623,9.05,5.378Zm1.11-7.787c5.17.737,9.14,3.031,8.84,5.115-.3,2.083-4.75,3.179-9.92,2.442-5.18-.737-9.14-3.032-8.85-5.115.3-2.084,4.75-3.182,9.93-2.445v.003Z" fill="#371a45"></path>
      <g opacity="0.3">
        <path d="M1114.3,124.532c-5.24-.747-9.25-3.096-8.94-5.246s4.81-3.288,10.05-2.54c5.25.747,9.25,3.096,8.95,5.246-.31,2.15-4.81,3.287-10.06,2.54Z" opacity="0.3" fill="#371a45"></path>
      </g>
      <path d="M1114.2,125.245c5.82.829,10.49-.526,10.87-3.152.37-2.625-3.74-5.23-9.56-6.059s-10.49.526-10.86,3.151c-.38,2.625,3.73,5.231,9.55,6.06Zm1.11-7.788c5.03.717,8.55,2.932,8.33,4.434-.21,1.501-4.2,2.647-9.24,1.93-5.03-.716-8.54-2.931-8.33-4.434.21-1.502,4.21-2.646,9.24-1.93Z" fill="#371a45"></path>
      <path d="M1090.07,118.472c-5.06-1.554-8.65-4.497-8.02-6.573.64-2.077,5.26-2.501,10.33-.947c5.06,1.554,8.65,4.497,8.02,6.574-.64,2.076-5.26,2.5-10.33.946Z" fill="#fff"></path>
      <path d="M1093.43,119.357c1.25.178,2.43.223,3.48.128c2-.184,3.28-.865,3.6-1.917s-.36-2.333-1.91-3.607c-1.52-1.251-3.72-2.356-6.19-3.112-2.46-.756-4.9-1.072-6.86-.892-2.01.183-3.28.864-3.61,1.916-.32,1.053.36,2.334,1.91,3.607c1.53,1.251,3.73,2.356,6.19,3.112c1.11.342,2.24.598,3.39.765Zm-4.44-9.043c1.14.165,2.26.419,3.36.758c2.43.747,4.6,1.836,6.1,3.069c1.48,1.21,2.13,2.4,1.84,3.359s-1.5,1.579-3.4,1.753c-1.94.178-4.34-.139-6.78-.883s-4.61-1.837-6.11-3.069c-1.48-1.21-2.13-2.403-1.83-3.359.29-.957,1.5-1.579,3.4-1.754c1.03-.094,2.19-.05,3.42.126Z" fill="#371a45"></path>
      <path d="M1093.34,119.953c1.3.185,2.53.232,3.62.131c2.26-.207,3.73-1.038,4.13-2.339.4-1.302-.35-2.811-2.11-4.25-1.58-1.3-3.85-2.444-6.39-3.222-2.54-.777-5.06-1.103-7.1-.916-2.26.207-3.72,1.038-4.12,2.34s.35,2.811,2.1,4.25c1.59,1.299,3.86,2.443,6.39,3.221c1.14.351,2.3.614,3.48.785Zm-4.43-9.043c1.1.161,2.19.408,3.26.738c2.36.725,4.46,1.773,5.9,2.959c1.24,1.015,1.85,2.03,1.64,2.716-.21.687-1.28,1.184-2.88,1.328-1.86.17-4.18-.135-6.54-.86-2.37-.725-4.46-1.773-5.91-2.959-1.24-1.015-1.85-2.03-1.64-2.716.21-.687,1.29-1.184,2.88-1.328.99-.09,2.1-.046,3.29.122Z" fill="#371a45"></path>
      <path d="M1129.6,121.699c-.03-2.171,4.24-3.995,9.54-4.073s9.62,1.62,9.65,3.792c.03,2.171-4.24,3.995-9.54,4.073-5.3.077-9.62-1.62-9.65-3.792Z" fill="#fff"></path>
      <path d="M1135.79,125.391c1.15.16,2.31.231,3.47.211c2.58-.037,4.99-.487,6.81-1.26c1.85-.789,2.85-1.83,2.84-2.931-.02-1.101-1.06-2.111-2.92-2.845-1.84-.722-4.27-1.098-6.85-1.061s-4.99.487-6.81,1.26c-1.85.789-2.85,1.83-2.84,2.931.02,1.1,1.05,2.111,2.92,2.846.98.384,2.13.671,3.38.849Zm6.78-7.446c1.24.176,2.37.457,3.33.834c1.78.698,2.76,1.632,2.78,2.633.01,1-.95,1.962-2.7,2.714-1.79.764-4.18,1.202-6.72,1.241-2.55.039-4.95-.334-6.76-1.044-1.78-.699-2.76-1.633-2.78-2.634-.01-1,.95-1.962,2.7-2.713c1.79-.764,4.18-1.203,6.73-1.242c1.14-.018,2.29.052,3.42.211Z" fill="#371a45"></path>
      <g opacity="0.3">
        <path d="M1090.07,118.472c-5.06-1.554-8.65-4.497-8.02-6.573.64-2.077,5.26-2.501,10.33-.947c5.06,1.554,8.65,4.497,8.02,6.574-.64,2.076-5.26,2.5-10.33.946Z" opacity="0.3" fill="#371a45"></path>
      </g>
      <g opacity="0.3">
        <path d="M1129.6,121.699c-.03-2.171,4.24-3.995,9.54-4.073s9.62,1.62,9.65,3.792c.03,2.171-4.24,3.995-9.54,4.073-5.3.077-9.62-1.62-9.65-3.792Z" opacity="0.3" fill="#371a45"></path>
      </g>
      <path d="M1135.71,125.988c1.18.164,2.37.236,3.56.216c2.65-.041,5.15-.503,7.03-1.307c2.09-.892,3.23-2.133,3.21-3.494s-1.19-2.566-3.3-3.398c-1.91-.751-4.42-1.141-7.08-1.102-2.65.039-5.15.503-7.03,1.308-2.09.892-3.23,2.132-3.21,3.494.02,1.361,1.19,2.566,3.3,3.397c1.03.402,2.22.701,3.52.886Zm6.78-7.446c1.19.169,2.27.439,3.19.801c1.49.585,2.39,1.363,2.4,2.079s-.86,1.522-2.33,2.15c-1.73.733-4.03,1.158-6.5,1.193-2.47.036-4.79-.322-6.53-1.002-1.49-.585-2.38-1.363-2.39-2.079s.86-1.522,2.33-2.15c1.72-.734,4.03-1.157,6.5-1.194c1.11-.018,2.23.049,3.33.202Z" fill="#371a45"></path>
      <path d="M1114.86,120.639c-23.51-3.347-41.87-10.869-41.03-16.799.85-5.9309,20.58-8.0249,44.09-4.6773c23.5,3.3473,41.87,10.8693,41.02,16.7993-.84,5.931-20.58,8.025-44.08,4.677Z" fill="#999"></path>
      <path d="M1114.84,120.754c11.38,1.621,22.23,2.028,30.57,1.141c8.38-.889,13.23-2.99,13.65-5.917.41-2.926-3.66-6.297-11.46-9.492-7.75-3.177-18.29-5.818-29.67-7.4385-11.37-1.6203-22.23-2.0281-30.56-1.1411-8.39.8896-13.24,2.9906-13.65,5.9166-.42,2.927,3.65,6.298,11.45,9.493c7.76,3.176,18.29,5.818,29.67,7.438Zm3.06-21.4763c23.4,3.3333,41.76,10.8103,40.93,16.6683-.84,5.857-20.56,7.912-43.96,4.579-23.4-3.334-41.76-10.811-40.92-16.669.83-5.8579,20.55-7.9114,43.95-4.5783Z" fill="#371a45"></path>
      <path d="M1073.83,104.624c.12.891.64,1.813,1.52,2.744c4.84,5.123,20.49,10.563,39.51,13.272c19.01,2.708,35.57,1.853,41.64-1.713c1.1-.649,1.86-1.389,2.22-2.212-1.07-3.658-19.09-8.991-41.57-12.192-22.47-3.201-41.26-3.112-43.32.101Z" fill="#fff"></path>
      <path d="M1114.84,120.788c18.67,2.66,35.44,1.964,41.74-1.731c1.14-.675,1.91-1.442,2.28-2.281l.02-.05-.01-.053c-1.12-3.784-19.04-9.072-41.7-12.299-22.65-3.226-41.34-3.154-43.47.169l-.03.047.01.053c.12.91.65,1.861,1.56,2.829c5.01,5.305,20.92,10.657,39.6,13.316Zm43.72-4.082c-.35.761-1.07,1.465-2.14,2.092-6.24,3.665-22.93,4.343-41.54,1.692s-34.45-7.963-39.42-13.224c-.85-.9-1.35-1.778-1.47-2.606c2.18-3.133,21.07-3.132,43.14.011c22.07,3.144,40.21,8.417,41.43,12.035Z" fill="#371a45"></path>
      <g opacity="0.3">
        <path d="M1073.83,104.624c.12.891.64,1.813,1.52,2.745c5.07,3.456,20.9,7.69,39.92,10.399c19.01,2.709,35.39,3.064,41.23,1.159c1.1-.649,1.86-1.389,2.22-2.212-1.07-3.658-19.09-8.991-41.57-12.192-22.47-3.201-41.26-3.112-43.32.101Z" opacity="0.3" fill="#371a45"></path>
      </g>
      <path d="M1114.76,121.351c11.42,1.627,22.33,2.033,30.71,1.144c6.15-.652,13.59-2.297,14.18-6.429s-6.1-7.794-11.82-10.132c-7.8-3.195-18.39-5.85-29.81-7.4773-11.43-1.6271-22.34-2.0334-30.72-1.1437-6.14.6515-13.59,2.2965-14.18,6.428-.59,4.132,6.1,7.794,11.82,10.132c7.8,3.195,18.39,5.851,29.82,7.478Zm3.06-21.4767c25.03,3.5647,41.1,11.1437,40.41,15.9867-.69,4.842-18.24,7.631-43.27,4.066s-41.11-11.144-40.42-15.986c.69-4.8425,18.25-7.6317,43.28-4.0667Z" fill="#371a45"></path>
      <path d="M1048.17,87.2398l-.59,4.0918c-1.08,7.6148,29.39,18.2544,68.07,23.7624c38.67,5.509,70.9,3.801,71.99-3.814l.58-4.092" fill="#945cc6"></path>
      <path d="M1115.63,115.209c18.71,2.666,36.51,3.736,50.12,3.016c13.65-.724,21.47-3.185,22-6.928l.59-4.093-.23-.033-.59,4.093c-1.07,7.539-33.31,9.206-71.86,3.715s-69.04-16.0913-67.96-23.6309l.58-4.0925-.23-.0327-.58,4.0924c-.54,3.7437,6.28,8.2888,19.2,12.7977c12.86,4.49,30.25,8.431,48.96,11.096Z" fill="#371a45"></path>
      <g opacity="0.3">
        <path d="M1047.85,89.4337l-.27,1.8985c-1.08,7.6142,29.39,18.2538,68.07,23.7618c38.67,5.509,70.91,3.801,71.99-3.813l.27-1.899c-1.08,7.615-33.32,9.323-71.99,3.814-38.68-5.509-69.15-16.1476-68.07-23.7623Z" opacity="0.3" fill="#371a45"></path>
      </g>
      <path d="M1115.55,115.806c18.75,2.671,36.58,3.743,50.23,3.021c9.89-.524,21.83-2.241,22.57-7.445l.58-4.092c.03-.189-.02-.381-.13-.533-.12-.153-.29-.253-.48-.28s-.38.022-.53.137c-.15.114-.25.284-.28.473l-.58,4.093c-.9,6.315-29.72,9.109-71.18,3.203-41.47-5.905-68.35-16.6345-67.45-22.9496l.58-4.0925c.03-.1888-.02-.3805-.14-.5329-.11-.1525-.28-.2533-.47-.2801-.19-.0269-.38.0223-.53.1368-.16.1145-.26.2849-.28.4736l-.59,4.0925c-.74,5.2041,10.25,10.1872,19.6,13.4512c12.9,4.503,30.33,8.454,49.08,11.124Z" fill="#371a45"></path>
      <path d="M1116.31,111.014c-38.67-5.508-69.15-16.1474-68.06-23.7625c1.08-7.6151,33.31-9.3227,71.99-3.8141c38.67,5.5086,69.15,16.1475,68.06,23.7626-1.08,7.615-33.31,9.323-71.99,3.814Z" fill="#b8c5d3"></path>
      <g opacity="0.5">
        <path d="M1115.74,107.84c2.48.353,4.62-.784,4.88-2.589.25-1.804-1.49-3.495-3.96-3.847-2.48-.353-4.62.785-4.87,2.59-.26,1.805,1.48,3.494,3.95,3.846Zm.72-5.013c1.62.231,2.87,1.249,2.73,2.222s-1.62,1.6-3.24,1.369c-1.63-.232-2.88-1.249-2.74-2.222s1.62-1.6,3.25-1.369Z" opacity="0.5" fill="#fff"></path>
      </g>
      <g opacity="0.5">
        <path d="M1088.4,103.052c1.02.146,2.03.031,2.87-.33.99-.429,1.66-1.188,1.83-2.081.17-.8921-.18-1.8427-.94-2.6064-.71-.6997-1.72-1.2024-2.84-1.4178-2.45-.4656-4.64.5725-4.98,2.3635-.34,1.7907,1.32,3.5587,3.77,4.0247.1.018.19.034.29.047Zm.44-5.0588c.07.0104.14.0208.22.0361.83.1577,1.59.5309,2.08,1.0253.25.2476.66.7518.55,1.3194-.11.568-.67.889-.99,1.029-.64.278-1.49.346-2.32.19-1.61-.306-2.81-1.38-2.63-2.3451.17-.9218,1.56-1.4719,3.09-1.2547Z" opacity="0.5" fill="#fff"></path>
      </g>
      <g opacity="0.5">
        <path d="M1065.54,95.7336c2.34.3324,4.37-.6918,4.69-2.4104.17-.8931-.17-1.8431-.94-2.6073-.7-.6996-1.71-1.2059-2.83-1.4218s-2.24-.1138-3.15.2806c-1,.4294-1.66,1.1875-1.83,2.0805-.17.8932.17,1.8432.94,2.6074.7.6997,1.71,1.206,2.83,1.4218.1.0191.19.0352.29.0492Zm.43-5.0607c.08.0103.15.0207.22.0364.83.1577,1.59.5315,2.09,1.0259.25.2481.65.7517.54,1.3199-.18.9655-1.7,1.5237-3.3,1.2168-.84-.1578-1.6-.5315-2.09-1.0259-.25-.2482-.65-.7518-.54-1.3199.1-.5706.66-.889.98-1.0287.59-.2531,1.35-.3325,2.1-.2245Z" opacity="0.5" fill="#fff"></path>
      </g>
      <g opacity="0.5">
        <path d="M1142.65,110.779c.1.014.19.028.29.035c2.49.239,4.57-.996,4.75-2.81.18-1.815-1.64-3.425-4.13-3.662-1.13-.109-2.24.094-3.11.571-.95.518-1.55,1.337-1.64,2.239-.16,1.743,1.5,3.295,3.84,3.627Zm3.61-2.912c-.09.978-1.55,1.673-3.18,1.517s-2.93-1.115-2.83-2.094c.05-.578.58-.947.89-1.115.61-.336,1.45-.482,2.29-.402c1.63.158,2.93,1.115,2.83,2.094Z" opacity="0.5" fill="#fff"></path>
      </g>
      <g opacity="0.5">
        <path d="M1166.65,110.134c.09.014.19.028.29.035c1.14.109,2.25-.094,3.12-.575.95-.519,1.55-1.337,1.63-2.241.09-.903-.34-1.819-1.18-2.509-.76-.633-1.81-1.042-2.95-1.15-1.13-.108-2.24.095-3.11.575-.95.52-1.55,1.338-1.63,2.241-.17,1.741,1.49,3.291,3.83,3.624Zm1-4.98c.75.108,1.46.395,1.95.802.27.224.72.686.66,1.264-.05.578-.58.947-.89,1.116-.61.336-1.45.482-2.29.402-1.63-.156-2.93-1.113-2.83-2.092.05-.578.58-.947.88-1.116.62-.336,1.45-.482,2.3-.402.07.007.14.016.22.026Z" opacity="0.5" fill="#fff"></path>
      </g>
      <g opacity="0.5">
        <path d="M1078.05,85.2109c-.51,3.5598,16.99,11.2024,39.46,14.4024c22.46,3.1997,41.39.7437,41.9-2.8142.51-3.5581-17.29-9.0385-39.76-12.2385-22.47-3.1999-41.09-2.9066-41.6.6503Z" opacity="0.5" fill="#fff"></path>
      </g>
      <g opacity="0.3">
        <path d="M1089.89,88.9801c0,0-11.71,3.9494-14.12,6.4917-2.42,2.5423-6.66,5.0612-6.66,5.0612s-34.24-11.9411-15.04-17.4208c0,0-4.98,2.292-4.04,4.6403c1.36,3.3985,8.78,7.3336,13.79,9.1777c1.31.4876,2.73.6504,4.12.4746c1.39-.1757,2.72-.6849,3.88-1.4843c3.1-2.1568,8.36-5.2111,15.61-7.2924c2.49-.714,2.46.352,2.46.352Z" opacity="0.3" fill="#371a45"></path>
      </g>
      <g opacity="0.3">
        <path d="M1146.99,97.1136c0,0,10.14,7.0614,11.75,10.1764s4.98,6.718,4.98,6.718s36.22-1.905,19.31-12.529c0,0,4.24,3.674,2.58,5.585-2.78,3.213-10.14,4.54-15.46,4.938-1.5.111-3-.141-4.38-.733-1.38-.593-2.59-1.509-3.54-2.672-2.41-2.934-6.56-7.215-12.78-11.136-2.19-1.3801-2.46-.3474-2.46-.3474Z" opacity="0.3" fill="#371a45"></path>
      </g>
      <g opacity="0.3">
        <path d="M1147.34,97.5342c0,0,14.61,10.6018,16.22,16.6018c0,0-19.74.796-47.33-3.133-27.59-3.93-46.52-10.679-46.52-10.679s13.46-11.5534,21.24-11.0275c7.79.5259,2.15.8755,2.15.8755s-11.48,3.2389-17.86,7.8342c-.97.7001-.72,2.2128.43,2.5448c6.09,1.751,22.36,6.139,41.04,8.799c18.44,2.627,34.61,2.983,40.91,3.01c1.2.005,1.87-1.388,1.12-2.326-1.1-1.364-2.28-2.662-3.53-3.887-2.55-2.498-9.51-7.9861-9.51-7.9861l1.64-.6267Z" opacity="0.3" fill="#371a45"></path>
      </g>
      <path d="M1081.54,84.2843c-.59,4.103,15.83,9.8359,36.67,12.8041c20.84,2.9686,38.21,2.0478,38.79-2.0552.59-4.1031-37.12-9.6613-37.12-9.6613s-37.76-5.1912-38.34-1.0876Z" fill="#102770"></path>
      <path d="M1118.19,97.2371c21.24,3.0259,38.36,2.0666,38.96-2.1797.59-4.1318-33.37-9.2593-37.25-9.8304-3.88-.5336-37.92-5.0926-38.51-.9608-.61,4.2463,15.56,9.9454,36.8,12.9709Zm1.67-11.7166c10.45,1.54,37.46,6.2465,36.99,9.4916-.26,1.8791-4.51,3.172-11.66,3.5519-7.31.3873-16.89-.1893-26.96-1.6235s-19.42-3.5546-26.34-5.969c-6.75-2.3578-10.47-4.7869-10.21-6.6661.47-3.245,27.72-.2226,38.18,1.2152v-.0001Z" fill="#371a45"></path>
      <path d="M1122.43,97.7424c-.27-.0282-.54-.058-.81-.0894l-.02-.0028c-1.12-.1268-2.25-.2721-3.41-.4361-1.98-.282-3.89-.6036-5.72-.9544-10.51-2.015-18.1-5.0125-17.78-7.2528.27-1.8991,12.96-.6919,20,.1261l.27.0326c.58.0677,1.12.133,1.61.1929c1.65.203,2.69.3461,2.69.3461s.8.1179,2.11.3263l.25.0398c.73.118,1.6.2615,2.57.4264c7.05,1.199,19.14,3.534,18.87,5.3997-.31,2.1857-8.05,2.9627-18.32,2.0713-.04-.0057-.08-.0077-.12-.0108l-2.19-.2149Z" fill="#102770"></path>
      <path d="M1118.17,97.3621c1.14.1616,2.28.3086,3.41.4372.29.0342.57.0639.84.0924l2.18.2147c.05.0044.09.0066.12.0109c8.94.7758,18.12.3962,18.49-2.1994.21-1.5139-6.18-3.3874-18.99-5.569-.97-.1648-1.84-.3084-2.58-.4264l-.25-.04c-1.31-.2084-2.1-.3263-2.1-.3263-.02-.0017-1.07-.1462-2.71-.3468-.48-.0601-1.02-.1254-1.6-.1925l-.28-.0332c-9.05-1.0493-19.89-1.906-20.16.0037-.38,2.6825,8.71,5.6603,17.9,7.4214c1.87.3564,3.79.6772,5.73.9533Zm4.28.2317c-.27-.0285-.54-.0584-.81-.0896-3.1-.3546-6.19-.8254-9.14-1.3912-10.53-2.0189-17.96-4.9983-17.66-7.0848.18-1.2643,7.59-1.1693,19.83.2542l.28.0325c.58.0676,1.12.133,1.6.1928c1.63.2,2.69.3443,2.7.3458c0,0,.79.1176,2.09.3257l.26.0398c.73.1179,1.6.2614,2.57.4265c11.92,2.0279,18.92,3.9834,18.75,5.2313-.29,2.0142-7.93,2.8316-18.17,1.9427l-.1-.0095-2.2-.2162Z" fill="#371a45"></path>
      <path d="M1081.54,84.2837c-.07.4769.09.9756.46,1.4896c5.5-2.5197,37.55,1.8889,37.55,1.8889s32.02,4.7176,36.59,8.6714c.5-.3903.8-.8241.86-1.3009.59-4.1019-37.12-9.6613-37.12-9.6613s-37.76-5.1872-38.34-1.0877Z" fill="#7a7a7a"></path>
      <path d="M1156.14,96.5281l.09-.076c.54-.42.85-.8904.92-1.3984.59-4.1306-33.37-9.2587-37.25-9.8303-3.88-.5331-37.92-5.0916-38.51-.9609-.07.5079.09,1.0452.49,1.5989l.07.1001.11-.0517c5.4-2.4731,37.16,1.8573,37.47,1.901.32.0437,32.03,4.7557,36.52,8.6365l.09.0808Zm-36.56-9.0146c-1.31-.179-31.75-4.3287-37.53-1.9293-.3-.4515-.42-.8825-.37-1.2819.47-3.2439,27.72-.2222,38.18,1.2158c10.45,1.5399,37.46,6.247,37,9.4909-.06.3993-.3.7787-.72,1.1281-4.87-3.9169-35.26-8.4319-36.56-8.6236Z" fill="#371a45"></path>
      <path d="M1116.13,111.714c18.75,2.671,36.59,3.743,50.23,3.021c9.89-.524,21.83-2.241,22.57-7.445.74-5.205-10.24-10.1873-19.59-13.4512-12.9-4.5033-30.33-8.4537-49.08-11.1243s-36.59-3.7429-50.23-3.0204c-9.89.5238-21.83,2.2403-22.58,7.4444-.74,5.2041,10.25,10.1874,19.6,13.4515c12.9,4.503,30.33,8.454,49.08,11.124Zm3.93-27.5772c41.46,5.9058,68.35,16.6342,67.45,22.9492-.9,6.316-29.71,9.111-71.18,3.205s-68.35-16.6357-67.45-22.9503c.9-6.3145,29.71-9.1097,71.18-3.2039Z" fill="#371a45"></path>
      <path d="M1081.95,85.0196c-.58,4.0484,15.62,9.7045,36.18,12.6331c20.56,2.9283,37.7,2.0207,38.27-2.0278c2.03-14.1865-1.13-44.327-31.06-48.5892-29.92-4.2622-41.37,23.7973-43.39,37.9839Z" fill="#00c9ff"></path>
      <g opacity="0.5">
        <path d="M1154.83,96.8081c2.02-14.1866-1.14-44.3271-31.06-48.5893-10.53-1.4989-18.77,1.0024-25.11,5.4891c6.54-5.2175,15.26-8.2982,26.68-6.6722c29.93,4.2623,33.09,34.4027,31.06,48.5893-.1.7317-.75,1.3596-1.85,1.882.14-.2076.24-.447.28-.6989Z" opacity="0.5" fill="#fff"></path>
      </g>
      <path d="M1117.99,98.6129c15.36,2.1861,38.51,3.2321,39.37-2.8513.51-3.5698,1.75-16.1789-3.62-28.5403-5.19-11.9392-14.96-19.2514-28.26-21.1457-30.21-4.3025-42.31,23.5033-44.49,38.8073-.87,6.0832,21.65,11.5436,37,13.73Zm7.21-50.6171c28.69,4.0864,32.33,32.8526,30.25,47.4925-.12.8345-2.52,2.3634-10.74,2.7987-7.17.3799-16.56-.1862-26.44-1.5944-9.89-1.4081-19.06-3.4858-25.84-5.8518-7.77-2.7135-9.64-4.8489-9.53-5.6846c1.02-7.0938,4.44-17.4991,11.02-25.4271c7.98-9.6054,18.51-13.5533,31.28-11.7333Z" fill="#371a45"></path>
      <path d="M1116.8,107.03c-2.05-.292-3.55-1.65-3.35-3.035.2-1.384,2.02-2.27,4.06-1.979s3.54,1.65,3.35,3.034c-.2,1.385-2.02,2.271-4.06,1.98Z" fill="#ffce00"></path>
      <path d="M1116.77,107.178c2.13.303,4.03-.643,4.23-2.107.21-1.464-1.35-2.901-3.47-3.203s-4.02.642-4.23,2.106s1.35,2.902,3.47,3.204Zm.72-5.013c1.96.279,3.4,1.563,3.22,2.864-.19,1.302-1.93,2.131-3.89,1.852s-3.41-1.563-3.22-2.864c.18-1.302,1.93-2.132,3.89-1.852Z" fill="#371a45"></path>
      <g opacity="0.3">
        <path d="M1113.45,103.995c-.04.267-.01.538.07.794.62-.94,2.12-1.471,3.77-1.236s2.94,1.163,3.28,2.24c.15-.223.24-.477.28-.743.2-1.384-1.3-2.743-3.34-3.034-2.05-.292-3.86.595-4.06,1.979Z" opacity="0.3" fill="#102770"></path>
        <path d="M1113.47,105.134l.17-.261c.61-.923,2.07-1.393,3.63-1.171s2.83,1.08,3.15,2.137l.1.299.17-.261c.17-.242.27-.517.31-.806.21-1.464-1.35-2.901-3.47-3.203-2.12-.303-4.02.642-4.23,2.106-.04.289-.01.583.07.86l.1.3Zm4.02-2.97c1.96.28,3.4,1.564,3.22,2.865-.02.142-.06.281-.12.413-.49-1.021-1.76-1.821-3.28-2.038-1.52-.216-2.96.198-3.72,1.041-.02-.142-.01-.287,0-.429.19-1.3,1.94-2.131,3.9-1.852Z" opacity="0.3" fill="#371a45"></path>
      </g>
      <path d="M1116.69,107.742c2.48.352,4.62-.786,4.88-2.59.25-1.805-1.48-3.494-3.96-3.847s-4.61.785-4.87,2.589c-.26,1.805,1.48,3.495,3.95,3.848Zm.72-5.014c1.62.231,2.87,1.248,2.74,2.221-.14.973-1.63,1.6-3.25,1.369-1.63-.231-2.88-1.248-2.74-2.221s1.63-1.6,3.25-1.369Z" fill="#371a45"></path>
      <path d="M1089.2,102.191c-2.03-.385-3.47-1.811-3.21-3.1849.26-1.374,2.12-2.1759,4.15-1.7911c2.03.3849,3.46,1.8107,3.2,3.185-.26,1.374-2.11,2.176-4.14,1.791Z" fill="#ffce00"></path>
      <path d="M1089.43,102.391c.92.131,1.82.03,2.56-.29.83-.361,1.37-.949,1.5-1.665.14-.7149-.14-1.458-.78-2.097-.63-.6224-1.53-1.0707-2.54-1.2602-1.01-.1896-2.01-.107-2.82.2455-.83.3611-1.37.9498-1.5,1.6651-.14.7152.14,1.4586.78,2.0976.63.623,1.53,1.071,2.54,1.261.09.016.18.03.26.043Zm.43-5.0608c.09.0118.17.0237.25.0414.96.1806,1.8.5995,2.39,1.1783.56.5651.81,1.2146.7,1.8281-.12.614-.59,1.128-1.32,1.446-.76.326-1.7.407-2.65.226-.96-.181-1.8-.6-2.39-1.178-.56-.565-.81-1.2149-.7-1.8287.12-.6144.59-1.1275,1.32-1.445.69-.2984,1.54-.3915,2.4-.2681Z" fill="#371a45"></path>
      <g opacity="0.3">
        <path d="M1085.97,99.1942c-.1.5338.05,1.0748.4,1.5618c0-.025.01-.05.01-.075.26-1.3735,2.12-2.1743,4.15-1.7911c1.24.2365,2.26.861,2.8,1.6231.2-1.3503-1.22-2.7339-3.21-3.1119-2.03-.3835-3.89.4178-4.15,1.7931Z" opacity="0.3" fill="#102770"></path>
        <path d="M1086.47,101.148l.05-.371c0-.021,0-.043.01-.065.11-.617.58-1.1297,1.32-1.4479.75-.3261,1.69-.4061,2.65-.2266c1.15.2185,2.17.8024,2.71,1.5625l.22.304.05-.37c.21-1.4439-1.26-2.8851-3.34-3.2805-1.01-.1897-2.01-.1034-2.82.2467-.83.3612-1.36.9504-1.5,1.6657-.1.5572.04,1.1371.43,1.6781l.22.304Zm3.83-2.4494c-.92-.1314-1.83-.0304-2.57.2894-.72.3104-1.21.7953-1.42,1.384-.19-.351-.26-.7569-.19-1.1517.11-.6144.58-1.1281,1.32-1.4457.75-.3268,1.69-.4066,2.65-.2278c1.7.323,2.99,1.4215,3.1,2.5572-.62-.6626-1.57-1.1609-2.64-1.363-.08-.0143-.17-.029-.25-.0412v-.0012Z" opacity="0.3" fill="#371a45"></path>
      </g>
      <path d="M1089.35,102.954c1.03.145,2.03.03,2.87-.331.99-.429,1.66-1.188,1.83-2.081.17-.8932-.17-1.8432-.94-2.6069-.71-.6997-1.71-1.2025-2.83-1.4172-1.13-.2147-2.25-.1125-3.16.2824-.99.4294-1.66,1.1881-1.83,2.0813s.18,1.8434.94,2.6074c.71.7,1.72,1.203,2.84,1.417.09.018.19.034.28.048Zm.44-5.0597c.07.0102.15.0205.22.036.83.1572,1.59.531,2.09,1.0247.25.2483.65.7519.54,1.32-.11.567-.67.889-.99,1.028-.64.278-1.49.347-2.32.19s-1.59-.531-2.09-1.025c-.24-.248-.65-.7484-.54-1.319s.67-.8896.99-1.0288c.59-.2541,1.34-.3341,2.1-.2259Z" fill="#371a45"></path>
      <path d="M1066.33,94.8715c-2.03-.3859-3.46-1.8125-3.2-3.1864s2.12-2.1748,4.15-1.7889s3.46,1.8125,3.2,3.1864-2.12,2.1749-4.15,1.7889Z" fill="#ffce00"></path>
      <path d="M1066.57,95.0702c.92.1311,1.82.0309,2.56-.2879.83-.3611,1.36-.9491,1.5-1.6643.13-.7152-.15-1.4583-.79-2.0978-.62-.623-1.52-1.0713-2.53-1.2638-2.11-.4011-4.05.4555-4.33,1.9086-.13.7147.15,1.4584.79,2.0978.62.6224,1.52,1.0713,2.53,1.2638.09.0167.18.0311.27.0436Zm.43-5.0607c.08.0118.17.0237.25.0416.95.1812,1.8.6006,2.38,1.1817.57.5656.82,1.2151.7,1.829s-.59,1.1269-1.32,1.4444c-.76.3262-1.7.4074-2.65.2219-.96-.1856-1.8-.6006-2.38-1.1816-.57-.5651-.82-1.2153-.7-1.8289.23-1.2318,1.88-1.9709,3.72-1.7085v.0004Z" fill="#371a45"></path>
      <g opacity="0.3">
        <path d="M1063.13,91.6931c-.18.958.46,1.9429,1.56,2.5818-.24-.4223-.34-.8777-.25-1.3262.26-1.3732,2.12-2.1746,4.14-1.7892.58.1068,1.14.3121,1.65.607-.49-.8701-1.58-1.6041-2.95-1.8588-2.03-.3904-3.89.4104-4.15,1.7854Z" opacity="0.3" fill="#102770"></path>
        <path d="M1065.09,94.6841l-.27-.4829c-.23-.404-.31-.8271-.24-1.2243.25-1.29,2.03-2.0408,3.98-1.6698.56.1038,1.1.3024,1.6.5874l.47.2808-.27-.4838c-.52-.9352-1.69-1.6797-3.05-1.9333-1.01-.1924-2.02-.1071-2.83.2437-.83.3611-1.36.9491-1.5,1.6649-.19.9917.44,2.0428,1.63,2.7387l.48.2786Zm3.26-3.715c-2-.2856-3.8.559-4.06,1.9515-.06.317-.04.6436.06.9509-.81-.6089-1.21-1.4035-1.07-2.1501.12-.6143.58-1.128,1.32-1.4455.76-.3261,1.7-.4064,2.65-.2219c1.03.1953,1.93.6768,2.5,1.3053-.37-.1552-.75-.2708-1.14-.3449-.08-.019-.17-.0331-.26-.0453Z" opacity="0.3" fill="#371a45"></path>
      </g>
      <path d="M1066.49,95.6327c1.02.1456,2.03.0316,2.86-.3288c1-.4288,1.67-1.1874,1.83-2.0801.17-.8926-.17-1.8436-.94-2.6078-.7-.6997-1.71-1.2059-2.83-1.4189-2.45-.4693-4.64.57-4.98,2.361-.17.893.17,1.8436.94,2.6073.7.6996,1.71,1.2059,2.83,1.4218.09.0166.19.0317.29.0455Zm.43-5.0602c.08.0104.15.0227.22.0369.83.1577,1.59.5321,2.09,1.0264.25.2482.65.7518.54,1.3194-.1.5677-.66.8897-.99,1.0287-.64.2774-1.49.3455-2.31.1881-.83-.1575-1.59-.5315-2.09-1.0259-.25-.2482-.65-.7518-.54-1.3199.17-.92,1.56-1.4703,3.08-1.2531v-.0006Z" fill="#371a45"></path>
      <path d="M1140.48,107.126c.13-1.392,1.91-2.36,3.96-2.163c2.06.197,3.62,1.485,3.48,2.877-.13,1.392-1.9,2.361-3.96,2.164s-3.62-1.485-3.48-2.878Z" fill="#ffce00"></path>
      <path d="M1143.69,110.118c.08.013.17.025.26.031c1.02.099,2.01-.08,2.79-.501.79-.434,1.27-1.071,1.34-1.796.07-.724-.28-1.44-.98-2.016-.68-.563-1.62-.926-2.64-1.024-1.02-.099-2.01.08-2.79.501-.79.434-1.27,1.071-1.34,1.795s.28,1.441.97,2.017c.63.514,1.47.862,2.39.993Zm.99-4.98c.87.124,1.65.449,2.23.928.62.507.93,1.134.87,1.756s-.48,1.176-1.18,1.56c-.73.395-1.66.561-2.62.466-.96-.094-1.85-.432-2.48-.956-.62-.511-.93-1.135-.87-1.758.06-.622.48-1.176,1.19-1.559.72-.395,1.65-.561,2.61-.467.09.008.17.018.25.03Z" fill="#371a45"></path>
      <g opacity="0.3">
        <path d="M1140.48,107.122c-.06.65.25,1.276.8,1.777-.02-.138-.02-.277-.01-.416.13-1.392,1.91-2.361,3.96-2.164c1.1.105,2.06.521,2.69,1.097-.18-1.223-1.62-2.28-3.47-2.458-2.06-.197-3.83.772-3.97,2.164Z" opacity="0.3" fill="#102770"></path>
        <path d="M1141.49,109.293l-.06-.415c-.02-.127-.02-.255-.01-.382.12-1.306,1.83-2.216,3.8-2.028c1.02.097,1.97.484,2.6,1.059l.31.284-.06-.415c-.19-1.315-1.71-2.405-3.61-2.586-2.13-.204-3.98.827-4.13,2.299-.06.674.24,1.351.85,1.903l.31.281Zm4.01-3.093c-.08-.012-.17-.024-.25-.031-2.14-.204-3.99.827-4.13,2.299c0,.015-.01.03-.01.046-.36-.426-.53-.906-.48-1.378.13-1.308,1.83-2.217,3.8-2.028c1.52.143,2.8.93,3.22,1.902-.59-.41-1.34-.695-2.15-.81Z" opacity="0.3" fill="#371a45"></path>
      </g>
      <path d="M1143.61,110.682c.09.013.19.027.29.033c1.13.109,2.24-.093,3.11-.57.95-.518,1.55-1.337,1.63-2.24.09-.904-.34-1.819-1.17-2.509-.77-.635-1.82-1.043-2.95-1.152s-2.24.093-3.12.57c-.95.519-1.54,1.338-1.63,2.24-.09.903.34,1.82,1.18,2.51.7.579,1.63.971,2.66,1.118Zm.99-4.982c.76.108,1.46.396,1.95.804.27.224.72.686.66,1.264-.05.578-.58.947-.89,1.115-.61.336-1.45.482-2.29.401-.84-.08-1.63-.383-2.17-.829-.27-.224-.72-.686-.66-1.264.05-.578.58-.947.89-1.115.61-.336,1.45-.482,2.29-.401.07.006.14.015.22.025Z" fill="#371a45"></path>
      <path d="M1164.48,106.482c.13-1.392,1.91-2.362,3.96-2.166c2.06.196,3.62,1.483,3.49,2.876-.14,1.392-1.91,2.362-3.97,2.166-2.05-.196-3.61-1.484-3.48-2.876Z" fill="#fff5a4"></path>
      <path d="M1167.69,109.439c.09.012.18.025.26.031c1.02.097,2-.081,2.77-.501.79-.428,1.26-1.056,1.32-1.769.14-1.454-1.47-2.797-3.58-3.002-1.02-.097-2,.081-2.77.504-.79.427-1.26,1.056-1.32,1.769-.14,1.39,1.34,2.685,3.32,2.968Zm1-4.98c1.86.265,3.24,1.45,3.12,2.722-.06.633-.48,1.197-1.2,1.587-.73.398-1.66.566-2.63.474-1.99-.188-3.51-1.423-3.38-2.75.06-.633.48-1.197,1.2-1.587.72-.398,1.66-.566,2.63-.474.09.006.17.016.26.028v0Z" fill="#371a45"></path>
      <path d="M1167.6,110.033c.09.014.19.029.29.036c1.14.108,2.25-.095,3.12-.575.95-.519,1.55-1.338,1.63-2.241.17-1.815-1.64-3.425-4.13-3.659-1.13-.109-2.24.095-3.11.572-.95.519-1.55,1.337-1.63,2.241-.17,1.745,1.49,3.294,3.83,3.626Zm1-4.979c1.52.217,2.7,1.132,2.61,2.066-.05.578-.58.947-.89,1.115-.61.336-1.45.483-2.29.403-1.63-.156-2.93-1.114-2.83-2.092.05-.578.58-.947.88-1.115.62-.336,1.45-.483,2.3-.403.07.007.15.017.22.027v-.001Z" fill="#371a45"></path>
      <path d="M1164.48,106.482c.13-1.392,1.91-2.362,3.96-2.166c2.06.196,3.62,1.483,3.49,2.876-.14,1.392-1.91,2.362-3.97,2.166-2.05-.196-3.61-1.484-3.48-2.876Z" fill="#ffce00"></path>
      <path d="M1167.69,109.473c.08.012.17.025.26.031c1.02.098,2.02-.082,2.79-.505.79-.434,1.27-1.071,1.34-1.795.14-1.473-1.48-2.835-3.62-3.04-1.02-.097-2.01.082-2.79.505-.79.434-1.27,1.072-1.34,1.796-.13,1.411,1.35,2.722,3.36,3.008Zm.99-4.981c1.85.263,3.22,1.431,3.1,2.683-.06.622-.48,1.177-1.18,1.561-.72.395-1.65.562-2.62.47-1.97-.185-3.47-1.405-3.35-2.712.06-.623.48-1.177,1.18-1.562.73-.395,1.66-.561,2.62-.469.09.01.17.018.25.029v0Z" fill="#371a45"></path>
      <g opacity="0.3">
        <path d="M1164.48,106.479c-.1,1.016.71,1.975,1.95,2.495-.32-.422-.49-.901-.44-1.392.13-1.391,1.91-2.364,3.96-2.166.53.049,1.05.178,1.54.383-.59-.774-1.72-1.359-3.05-1.485-2.05-.197-3.83.772-3.96,2.165Z" opacity="0.3" fill="#102770"></path>
        <path d="M1166.89,109.33l-.34-.448c-.31-.404-.45-.849-.41-1.286.06-.622.48-1.176,1.18-1.561.72-.395,1.65-.562,2.62-.469.51.046,1.01.171,1.49.37l.52.223-.34-.451c-.64-.84-1.82-1.416-3.15-1.543-1.02-.098-2.01.081-2.79.501-.79.434-1.27,1.072-1.34,1.797-.1,1.046.7,2.085,2.04,2.646l.52.221Zm3.34-4.032c-.09-.012-.18-.025-.26-.031-1.03-.098-2.02.081-2.79.505-.8.434-1.27,1.071-1.34,1.795-.03.36.03.722.19,1.046-.94-.529-1.47-1.326-1.4-2.117.06-.622.48-1.176,1.18-1.561.72-.395,1.65-.561,2.62-.466c1,.094,1.9.45,2.52.987-.24-.069-.48-.122-.72-.158Z" opacity="0.3" fill="#371a45"></path>
      </g>
      <path d="M1167.6,110.033c.09.014.19.029.29.036c1.14.108,2.25-.095,3.12-.575.95-.519,1.55-1.338,1.63-2.241.17-1.815-1.64-3.425-4.13-3.659-1.13-.109-2.24.095-3.11.572-.95.519-1.55,1.337-1.63,2.241-.17,1.745,1.49,3.294,3.83,3.626Zm1-4.979c1.52.217,2.7,1.132,2.61,2.066-.05.578-.58.947-.89,1.115-.61.336-1.45.483-2.29.403-1.63-.156-2.93-1.114-2.83-2.092.05-.578.58-.947.88-1.115.62-.336,1.45-.483,2.3-.403.07.007.15.017.22.027v-.001Z" fill="#371a45"></path>
      <path d="M1069.32,101.35c.12.017.24.004.35-.036.11-.041.21-.108.29-.197c6.77-7.558,18.45-10.0733,18.57-10.0968.18-.0425.34-.1549.44-.3132s.14-.3499.1-.5338-.15-.3455-.3-.4502c-.16-.1047-.35-.1442-.53-.11-.5.1036-12.26,2.6278-19.35,10.546-.09.097-.14.215-.17.343-.02.128-.01.26.03.382.05.122.12.23.22.312s.23.136.35.154v0Z" fill="#371a45"></path>
      <path d="M1163.34,114.741c.13.018.26.001.38-.05s.22-.133.3-.238.13-.229.14-.358c.01-.13-.01-.26-.07-.378-4.21-8.778-13.55-14.3553-15.37-15.3839-.17-.0894-.36-.1102-.54-.0577-.19.0525-.34.1739-.43.3383s-.12.3583-.07.5402.17.3372.33.4324c1.76.9917,10.76,6.3637,14.78,14.7537.05.107.13.199.23.269.09.07.2.116.32.132Z" fill="#371a45"></path>
      <g opacity="0.5">
        <path d="M1151.41,86.5186c0,0,1.9-6.1023-2.4-14.003-3.67-6.7502-7.33-3.483-5.89.3842c1.97,5.3047,2.47,10.1727,2.73,15.3134.15,2.9409,4.36,4.8713,5.56-1.6946Z" opacity="0.5" fill="#fff"></path>
      </g>
      <g opacity="0.5">
        <path d="M1140.85,66.2863c1.01.6559,4.3,1.5261,4.16-2.1976s-3.92-5.3191-5.51-4.2655c-.93.6148-1.44,4.6466,1.35,6.4631Z" opacity="0.5" fill="#fff"></path>
      </g>
      <g opacity="0.5">
        <path d="M1177.49,100.783c-3.2-2.5471-8.48-4.721-13.53-5.187-4.56-.4213,3.48,2.3628,6.28,3.4609c2.03.7904,5.71,2.8361,7.5,3.4431c1.79.606,1.77-.106-.25-1.717Z" opacity="0.5" fill="#fff"></path>
      </g>
      <g opacity="0.3">
        <path d="M1084.67,86.0592c1.75-12.2932,10.69-35.1455,32.86-37.6416l.03-.0144c-.78.444-3.69,2.1711-7.29,5.0131-14.42,11.3574-9.53,34.3306,8.27,38.8048c10.81,2.7198,23.83,4.5265,36.93,2.8392.35-.0456.69-.0846,1.03-.1239-.02.1509-.04.3029-.06.4503-.57,3.9933-17.46,4.8863-37.73,1.9993-14.68-2.0906-27.1-5.5911-32.62-8.8786-1.03-.8563-1.53-1.6847-1.42-2.4482Z" opacity="0.3" fill="#371a45"></path>
      </g>
    </g>
    <clipPath id="e7LrHWZ2mgp216">
      <rect width="142.906" height="203.802" rx="0" ry="0" transform="matrix(-.990008-.141009-.141009 0.990008 1196.22 56.1511)" fill="#fff"></rect>
    </clipPath>
  </g>
  <g id="e7LrHWZ2mgp218_to" transform="translate(56.500143,53.04345)">
    <g transform="translate(-56.500143,-52.043449)">
      <path d="M57.6006,84.3033c17.8166,0,32.2598-14.4432,32.2598-32.2598s-14.4432-32.2598-32.2598-32.2598-32.2598,14.4432-32.2598,32.2598s14.4432,32.2598,32.2598,32.2598Z" fill="#ffd527"></path>
      <path d="M57.6011,86.0869c-18.7714,0-34.0435-15.2721-34.0435-34.0434s15.2721-34.0435,34.0435-34.0435c18.7713,0,34.0434,15.2734,34.0434,34.0435c0,18.77-15.2721,34.0434-34.0434,34.0434Zm0-64.5196c-16.8048,0-30.4762,13.6714-30.4762,30.4762s13.6714,30.4748,30.4762,30.4748c16.8047,0,30.4812-13.6726,30.4812-30.4748c0-16.8023-13.6765-30.4762-30.4812-30.4762Z" fill="#000072"></path>
      <g opacity="0.5">
        <path d="M62.464,32.7071c-6.1571,4.6181-12.2889.1955-12.5563,0-.3163-.2276-.7094-.322-1.0945-.2628-.3852.0592-.7318.2672-.9652.5793-.2334.312-.335.7033-.2829,1.0895s.2537.7365.5614.9756c1.6399,1.2299,4.7266,2.6692,8.2889,2.6692c2.4598,0,5.1479-.6875,7.7427-2.6036l11.6606-6.3311c.2829-.155.5075-.3982.6396-.6925-.7771-.6131-1.5827-1.1883-2.417-1.7257L62.6469,32.586c-.0637.0362-.1248.0767-.1829.1211Z" opacity="0.5" fill="#fff"></path>
      </g>
      <g opacity="0.5">
        <path d="M27.9117,54.8173c.281-.511.5936-1.0039.936-1.4759c2.0891-2.9278,5.0313-5.1391,8.4246-6.3317c3.3932-1.1925,7.072-1.3082,10.5334-.3311c5.4671,1.544,15.6241,3.3604,22.2163-1.8165.3101-.2434.5109-.6.5581-.9914s-.063-.7855-.3064-1.0956c-.2434-.3102-.6-.5109-.9914-.5581s-.7855.063-1.0957.3064c-5.5591,4.3646-14.6489,2.6831-19.5723,1.2942-3.8542-1.0861-7.9426-1.016-11.7573.2018s-7.1876,3.5294-9.6996,6.6478c-.0202.4566-.0353.9145-.0353,1.3762.0017,1.1296.0662,2.2582.193,3.3806.2537-.1398.4611-.3506.5966-.6067Z" opacity="0.5" fill="#fff"></path>
      </g>
      <g opacity="0.5">
        <path d="M73.7648,67.8365c-1.6803-.2612-3.1738-.2902-4.5639-.0921-6.1368.883-8.5941,4.8653-8.6963,5.0343-.1899.3375-.2407.7357-.1416,1.1101.0991.3743.3403.6952.6724.8945.332.1993.7286.2612,1.1056.1726s.7045-.3207.913-.647c.0176-.0303,1.8921-2.9531,6.567-3.6204c1.0949-.1576,2.3021-.1261,3.6884.0871c2.2594.3544,4.4457,1.0758,6.4724,2.1356.6938-.735,1.3497-1.5041,1.9678-2.3072-2.476-1.3896-5.1799-2.3268-7.9848-2.7675Z" opacity="0.5" fill="#fff"></path>
      </g>
      <g opacity="0.3">
        <path d="M38.9943,78.7947c4.6336,2.4508,9.797,3.7293,15.0388,3.7237c17.8164,0,32.2586-14.4434,32.2586-32.2598.0073-7.5387-2.6386-14.8395-7.474-20.6231-.1186,4.7796-2.4144,43.1409-45.554,44.2421c2.7428,2.9777,6.0199,5.4145,9.6613,7.1838-1.3617-.6626-2.6752-1.42-3.9307-2.2667Z" opacity="0.3" fill="#000072"></path>
      </g>
      <g opacity="0.5">
        <path d="M57.6009,21.5676c-5.3309-.0039-10.5683,1.3999-15.1826,4.0694-4.1632,2.4046-7.7033,5.7537-10.3349,9.7773-3.2391,4.941-4.9623,10.7215-4.9574,16.6295c0,10.2819,5.1239,19.3831,12.946,24.9056-5.4466-4.9449-8.9167-11.6962-9.7674-19.0035-.8507-7.3072.9755-14.6751,5.1405-20.739c1.6109-.3116,3.532-1.3965,5.2337-3.0943c1.6398-1.6399,2.7171-3.503,3.0665-5.0811c5.107-3.3967,11.1223-5.1683,17.2551-5.0818s12.0958,2.0269,17.105,5.5662c-5.6015-5.1186-12.9166-7.9542-20.5045-7.9483Z" opacity="0.5" fill="#fff"></path>
      </g>
      <path d="M55.8203,35.9717c-3.561,0-6.6465-1.4393-8.2876-2.6705-.3157-.236-.5246-.5878-.5809-.9779s.0446-.7865.2807-1.1022c.236-.3156.5877-.5246.9778-.5809s.7866.0447,1.1023.2807c.2724.2006,6.4004,4.6194,12.5575,0c.0574-.0438.1181-.083.1816-.1173l11.754-6.3828c.3465-.1882.7535-.2311,1.1315-.1192s.6961.3694.8843.7158.231.7534.1191,1.1315-.3693.6961-.7158.8843L63.5642,33.3656c-2.5948,1.9186-5.2829,2.6061-7.7439,2.6061Z" fill="#000072"></path>
      <path d="M25.9986,53.8348c-.2546-.0005-.5049-.0664-.7267-.1914s-.4079-.3049-.5403-.5224-.2068-.4653-.216-.7198.0471-.507.1636-.7335c.3442-.6338.7289-1.2447,1.1516-1.8291c2.445-3.4277,5.8887-6.0169,9.8606-7.4138c3.9718-1.3969,8.2782-1.5333,12.3305-.3906c4.9196,1.3875,14.0145,3.0728,19.5724-1.293.3109-.2329.7007-.3349,1.086-.2841.3852.0508.7352.2503.9752.5559s.3508.6929.3088,1.0792c-.0419.3863-.2334.7408-.5334.9877-6.5935,5.1718-16.7505,3.3604-22.2163,1.8152-3.4615-.9769-7.1401-.8611-10.5334.3314-3.3932,1.1926-6.3354,3.4038-8.4246,6.3314-.3418.4732-.6548.9664-.9373,1.4772-.126.2412-.3158.4433-.5486.5843-.2329.141-.4999.2155-.7721.2154Z" fill="#000072"></path>
      <path d="M82.91,73.2744c-.3376-.0002-.665-.1154-.9284-.3267-3.397-2.7222-7.262-3.6494-9.2626-3.9597-1.3876-.2144-2.5935-.2434-3.6897-.0857-4.6749.6673-6.5481,3.59-6.5595,3.6203-.0975.1732-.2287.3252-.3859.4468-.1573.1217-.3373.2106-.5295.2615s-.3926.0627-.5895.0348-.3861-.095-.5565-.1973c-.1705-.1024-.3187-.2378-.4359-.3984s-.201-.343-.2465-.5365c-.0455-.1936-.0517-.3943-.0183-.5903.0334-.1959.1058-.3832.2128-.5507.1022-.1691,2.5582-4.1628,8.695-5.0344c1.3876-.1981,2.8849-.1678,4.5651.0921c2.2933.3557,6.7298,1.4229,10.6667,4.5777.2417.1922.4175.4549.503.7516.0855.2968.0764.6128-.026.9041s-.293.5436-.5453.7216-.5538.273-.8626.2717l-.0064-.0025Z" fill="#000072"></path>
      <path d="M17.6844,67.2222c-.9176-.0065-1.8134-.2805-2.5776-.7883s-1.3639-1.2275-1.7253-2.0709c-.3615-.8435-.4692-1.774-.3098-2.6776.1593-.9037.5787-1.7413,1.2068-2.4102c3.0867-3.2798,9.1265-6.2832,9.3825-6.4094.4937-.2339,1.0596-.2644,1.5756-.0848s.9406.5548,1.1823,1.0447.2812,1.0553.1098,1.574-.5399.9493-1.026,1.1987c-.0555.0278-5.6234,2.7966-8.1917,5.5276-.0791.0836-.1301.1898-.1459.3038s.0044.23.0578.332c.0533.1019.1371.1847.2398.2367.1026.052.2189.0707.3327.0534c9.5667-1.4368,58.278-9.3573,77.7192-24.2195.1349-.0881.2368-.2185.2898-.3708.0529-.1522.0539-.3177.0028-.4705-.047-.1567-.1448-.2934-.2779-.3886s-.2939-.1435-.4575-.1375c-2.3273-.0946-5.0848.1893-8.1993.849-.5401.1142-1.1035.0092-1.5662-.2919-.4627-.3012-.7869-.7738-.9011-1.3139s-.0093-1.1035.2919-1.5663c.3011-.4627.7737-.7868,1.3139-.9011c3.4538-.7303,6.5594-1.0432,9.2311-.9347c1.0163.0314,1.9978.3776,2.809.9907.8111.6132,1.4118,1.4631,1.7192,2.4323.3077.9692.3067,2.01-.0033,2.9785-.3095.9686-.9121,1.8171-1.7245,2.4285-19.7477,15.0955-65.9412,22.977-79.629,25.0318-.2414.0361-.4851.0543-.7291.0543Z" fill="#000072"></path>
      <path d="M50.186,67.0451c3.8316-1.587,5.6511-5.9797,4.064-9.8113s-5.9798-5.6511-9.8113-4.064-5.6511,5.9798-4.064,9.8113c1.587,3.8316,5.9798,5.6511,9.8113,4.064Z" fill="#00bbfc"></path>
      <path d="M47.3117,69.0979c-1.7791,0-3.5183-.5275-4.9975-1.5159-1.4793-.9885-2.6322-2.3933-3.3131-4.037-.6808-1.6437-.8589-3.4523-.5118-5.1972s1.2037-3.3477,2.4618-4.6057s2.8608-2.1147,4.6057-2.4618s3.5535-.169,5.1972.5118c1.6437.6809,3.0485,1.8338,4.0369,3.3131.9885,1.4792,1.516,3.2184,1.516,4.9975-.0027,2.3848-.9512,4.6713-2.6376,6.3576s-3.9728,2.635-6.3576,2.6376Zm0-15.011c-1.1911,0-2.3554.3532-3.3457,1.0149s-1.7622,1.6023-2.218,2.7026-.5751,2.3113-.3427,3.4794.8059,2.2412,1.6481,3.0834s1.9153,1.4158,3.0834,1.6481c1.1682.2324,2.379.1131,3.4794-.3426c1.1004-.4558,2.0409-1.2277,2.7026-2.218.6617-.9904,1.0149-2.1547,1.0149-3.3457-.0016-1.5967-.6366-3.1274-1.7656-4.2564s-2.6598-1.764-4.2564-1.7657Z" fill="#000072"></path>
      <g opacity="0.5">
        <path d="M43.0729,61.2973c-.0004-.9974.2471-1.9793.7201-2.8573.4731-.8781,1.1569-1.6249,1.9901-2.1732s1.7894-.8811,2.783-.9683s1.9932.0738,2.9092.4687c-.6358-.6104-1.3979-1.0737-2.2324-1.3571-.8346-.2835-1.7212-.3802-2.5972-.2833s-1.7201.385-2.4725.844-1.3948,1.0776-1.8818,1.8122c-.4871.7346-.8068,1.5672-.9367,2.4389s-.0666,1.7613.1852,2.606c.2517.8446.686,1.6236,1.2719,2.282.586.6583,1.3094,1.1799,2.1192,1.5279-.5872-.5602-1.0546-1.2337-1.3739-1.9798-.3194-.7461-.4841-1.5492-.4842-2.3607Z" opacity="0.5" fill="#fff"></path>
      </g>
      <g opacity="0.3">
        <path d="M51.3235,54.2722c0,0,.5942,9.515-9.5149,10.7045c0,0,7.7313,4.7569,13.0823-1.7849c0,0,1.1895-7.1347-3.5674-8.9196Z" opacity="0.3" fill="#000072"></path>
      </g>
    </g>
  </g>
</svg>
