<?xml version="1.0" encoding="UTF-8"?>
<svg xmlns="http://www.w3.org/2000/svg" xmlns:xlink="http://www.w3.org/1999/xlink" id="eQ4AImLyorW1" viewBox="0 0 171 222" shape-rendering="geometricPrecision" text-rendering="geometricPrecision">
  <style><![CDATA[
#eQ4AImLyorW2_tr {animation: eQ4AImLyorW2_tr__tr 3000ms linear infinite normal forwards}@keyframes eQ4AImLyorW2_tr__tr { 0% {transform: translate(91.903286px,110.3661px) rotate(0deg)} 33.333333% {transform: translate(91.903286px,110.3661px) rotate(-3.54748deg)} 66.666667% {transform: translate(91.903286px,110.3661px) rotate(3.774216deg)} 100% {transform: translate(91.903286px,110.3661px) rotate(0deg)}}
]]></style>
  <g id="eQ4AImLyorW2_tr" transform="translate(91.903286,110.3661) rotate(0)">
    <g transform="translate(-91.903286,-110.3661)" clip-path="url(#eQ4AImLyorW211)">
      <g>
        <path d="M88.9939,154.706l-6.9797,6.261-2.8081,2.52c-8.0455-6.981-10.1867-14.49-9.1076-20.717.5031-2.899,1.7134-5.628,3.5235-7.946c5.6022-7.182,14.3738-9.843,16.9629-2.923c2.7895,7.459-2.6734,10.077-4.4145,12.017-2.448,2.728-2.2418,8.316,2.8235,10.788Z" fill="#fff"></path>
        <g opacity="0.35">
          <path d="M82.014,160.967l-2.8082,2.52c-8.0454-6.981-10.1866-14.49-9.1075-20.717.7728,4.729,3.3567,13.951,11.9157,18.197Z" opacity="0.35" fill="#371a45"></path>
        </g>
        <path d="M79.0776,164.385c.1938.028.3913-.008.5631-.102s.3086-.241.3899-.419.1028-.378.0613-.569c-.0416-.192-.144-.365-.2919-.493-11.8197-10.258-10.3331-21.184-5.4647-27.417c3.3923-4.348,8.1196-7.031,11.5205-6.547l.0587.009c1.8021.276,3.0914,1.413,3.823,3.375c2.0811,5.564-.8373,8.077-2.9682,9.912-.4777.411-.928.799-1.2709,1.181-1.4403,1.604-2.0569,4.029-1.6089,6.331.4967,2.549,2.1687,4.634,4.709,5.873.1071.054.2239.086.3436.095.1197.008.2399-.007.3536-.046.1137-.038.2186-.099.3088-.178.0901-.079.1636-.176.2161-.284.0526-.107.0833-.225.0902-.345.007-.12-.01-.24-.0498-.353s-.1016-.217-.182-.307c-.0804-.089-.1777-.161-.2862-.212-2.015-.984-3.3394-2.614-3.7236-4.59-.3417-1.754.1091-3.583,1.1771-4.772.2653-.295.6543-.63,1.1028-1.018c2.2512-1.935,6.01-5.173,3.4848-11.923-.9679-2.587-2.782-4.154-5.2455-4.532-4.0838-.625-9.4233,2.272-13.2812,7.215-3.0308,3.865-4.4159,8.771-3.8547,13.651.6502,5.771,3.9559,11.391,9.5605,16.255.1315.114.2928.186.4646.21Z" fill="#371a45"></path>
        <path d="M76.0039,151.635c.1478.021.296.04.4445.056c3.3902.379,6.4857-.435,8.7164-2.293.0758-.063.1385-.14.1844-.227.046-.088.0743-.183.0834-.281s-.0012-.197-.0303-.292c-.0291-.094-.0764-.181-.1393-.257s-.1402-.139-.2273-.185c-.0871-.045-.1824-.074-.2805-.083s-.197.001-.2911.03c-.0941.03-.1815.077-.2573.14-2.581,2.149-5.8646,2.148-7.5911,1.955-2.9136-.325-5.2783-1.536-6.0244-2.51-.1209-.158-.2995-.261-.4965-.287-.197-.027-.3964.027-.5541.148s-.261.3-.2871.497.0272.396.1481.554c1.076,1.411,3.7487,2.628,6.6022,3.035Z" fill="#371a45"></path>
        <path d="M123.333,166.109c2.377,4.744-.908,20.041-5.819,27.686s-19.4883,1.118-27.5221-3.218s1.212-22.8,3.7839-27.697c4.0218-7.645,26.0352-3.8,29.5572,3.229Z" fill="#fff"></path>
        <g opacity="0.35">
          <path d="M89.9916,190.578c8.0334,4.338,22.6114,10.86,27.5234,3.216.683-1.078,1.296-2.199,1.835-3.355-3.14.648-5.494-2.499-4.791-4.858c4.34-14.56,1.92-22.187.387-25.15-7.859-2.637-18.4965-2.634-21.1694,2.451-2.5764,4.894-11.8189,23.357-3.785,27.696Z" opacity="0.35" fill="#371a45"></path>
        </g>
        <path d="M107.121,198.024c4.765.678,8.86-.165,11.155-3.739c5.194-8.085,8.373-23.578,5.867-28.583-2.404-4.799-11.968-7.849-19.45-7.923-5.9395-.058-10.1011,1.604-11.7178,4.679-4.7064,8.946-11.4063,24.6-3.413,28.917c5.569,3.009,12.0168,5.859,17.5588,6.649Zm15.401-31.508c2.201,4.394-1.034,19.416-5.771,26.788-4.437,6.909-18.4009.757-26.3292-3.525-7.06-3.813,1.396-21.229,4.1555-26.477c1.2666-2.407,4.9463-3.758,10.0957-3.708c7.832.074,16.008,3.245,17.849,6.922Z" fill="#371a45"></path>
        <path d="M115.767,179.272l4.344.363c.231.019.456.087.659.2s.38.267.519.454c.139.186.237.4.286.627.05.227.051.462.003.69-.704,3.319-2.57,9.999-6.146,9.767-4.335-.276-3.542-5.044-1.339-11.038.125-.336.356-.622.658-.814s.659-.28,1.016-.249Z" fill="#fff"></path>
        <g opacity="0.35">
          <path d="M114.105,180.329c-2.218,5.989-3.021,10.757,1.313,11.042c1.779.119,3.14-1.477,4.143-3.517-.589.434-1.242.671-1.966.619-3.88-.257-3.643-4.106-1.955-9.206-.334-.003-.661.098-.936.288s-.484.46-.599.774Z" opacity="0.35" fill="#371a45"></path>
        </g>
        <path d="M114.911,192.072c.148.021.3.037.457.047c4.059.269,6.097-6.365,6.951-10.344.071-.332.07-.675-.001-1.006-.072-.331-.213-.644-.415-.916s-.459-.499-.755-.664c-.295-.165-.623-.266-.96-.294l-4.344-.374c-.52-.044-1.04.083-1.481.362-.441.28-.779.696-.961,1.185-2.02,5.454-2.369,8.571-1.169,10.424.568.878,1.467,1.408,2.678,1.58Zm5.2-11.676c.12.017.236.059.339.123.104.064.193.148.263.248.069.1.118.213.142.332s.024.242-.001.362c-1.262,5.876-3.275,9.299-5.387,9.162-.959-.065-1.605-.373-1.976-.946-1.303-2.012.667-7.334,1.316-9.087.068-.182.194-.336.358-.44.164-.103.357-.15.55-.133l4.344.374c.017.001.035.003.052.005Z" fill="#371a45"></path>
        <path d="M123.862,166.757c-.542-.021-1.065-.029-1.596-.032s-1.057.001-1.584.014c-1.055.024-2.107.076-3.149.189c1.029.187,2.039.433,3.04.705.499.137.998.28,1.495.43.493.149.993.305,1.47.467.124.041.254.056.384.042.129-.013.254-.054.366-.12.113-.066.209-.155.284-.261.075-.107.126-.228.15-.356s.02-.26-.011-.386c-.032-.126-.09-.245-.171-.347-.08-.102-.182-.185-.298-.244s-.243-.093-.373-.099l-.007-.002Z" fill="#371a45"></path>
        <path d="M85.7618,156.303l2.9726-5.928c-.851,2.043-1.8443,4.024-2.9726,5.928Z" fill="#fff"></path>
        <path d="M56.8799,193.296c0,0,4.6117-2.326,9.4766-3.609c3.1904-.841,6.488-1.232,8.6679-.229c0,0,16.3058,14.27,29.9076-6.963c4.315-6.735,6.021-12.071,6.008-16.304-.001-.575-.036-1.148-.105-1.719-.068-.566-.173-1.126-.316-1.678-.36-1.411-.973-2.745-1.807-3.938-.614-.87-1.325-1.667-2.121-2.375-7.3515-6.58-21.4444-6.486-21.4444-6.486-.2942,1.009-.6049,1.982-.932,2.92-.6173,1.778-1.2851,3.424-1.9838,4.946-.2014.439-.4047.866-.6101,1.282-2.4198,4.914-5.1135,8.409-7.2547,10.71-2.3026,2.477-3.9678,3.576-3.9678,3.576-12.1028-4.354-16.2871,5.736-16.2871,5.736s-7.9833-7.268-9.2835,1.033c-.9634,6.141,6.6335,15.483,12.0523,13.098Z" fill="#fff"></path>
        <g opacity="0.35">
          <path d="M56.8798,193.296c0,0,12.6421-6.376,18.1475-3.838c0,0,16.3058,14.271,29.9077-6.962c4.315-6.736,6.021-12.072,6.008-16.305.003-1.145-.138-2.287-.421-3.397-.104-.405-.228-.804-.372-1.197.025.342.038.692.039,1.049.014,4.234-1.692,9.57-6.008,16.305-13.6044,21.233-28.9816,4.839-28.9816,4.839-9.3261-4.573-14.248,5.336-18.5647,6.62s-9.9394-3.747-11.8876-8.895c.1585,6.062,7.0895,14,12.1327,11.781Z" opacity="0.35" fill="#371a45"></path>
        </g>
        <path d="M80.6233,160.274c-.7745,1.168-1.5201,2.342-2.3362,3.465l-.6053.845c-.2034.281-.4213.55-.6262.828-.4066.56-.8567,1.085-1.2809,1.629-.8833,1.06-1.8052,2.081-2.7656,3.063-.4803.489-.978.961-1.4862,1.414-.2493.233-.5087.453-.7665.67s-.532.436-.7698.613l.6656-.079c-1.5489-.558-3.1778-.954-4.8524-1.083-1.6697-.139-3.3939.025-5.0151.559-1.6263.52-3.1163,1.435-4.3607,2.581-.6226.573-1.1882,1.205-1.6889,1.887-.2534.338-.4857.691-.7055,1.053-.1102.181-.2149.366-.3183.554-.1035.188-.1921.369-.2936.602l1.1966-.267c-.8532-.751-1.7796-1.414-2.7654-1.979-.5026-.289-1.0279-.537-1.5707-.741-.5723-.22-1.1729-.356-1.7838-.405-.6326-.044-1.3314.045-1.9568.359s-1.1243.82-1.4621,1.359c-.3266.52-.5716,1.088-.7265,1.683l-.1154.428-.0829.427c-.0584.29-.1001.583-.1251.878-.0993,1.193.0747,2.359.367,3.467.3118,1.095.7435,2.152,1.2873,3.152.534.995,1.1657,1.934,1.8857,2.804.7194.88,1.5322,1.679,2.4241,2.383.911.69,1.9131,1.305,3.055,1.668.5787.191,1.1809.301,1.7896.327.6286.022,1.2563-.064,1.8556-.255l.4565-.17c.0397-.014.0783-.031.1156-.051l.087-.043.1782-.087.7207-.34c.4831-.222.9699-.439,1.4605-.649.9805-.42,1.9708-.814,2.9707-1.182c1.9992-.729,4.0391-1.353,6.1005-1.728c1.029-.184,2.0652-.305,3.0804-.3s2.0052.158,2.8508.526l.0287.012c.1822.079.3884.083.5734.01.1849-.072.3334-.216.4128-.398s.0832-.389.0106-.574c-.0727-.185-.2159-.333-.398-.413-1.1374-.497-2.328-.662-3.4677-.663s-2.2614.128-3.3561.324c-2.1888.399-4.2932,1.047-6.3496,1.795-1.0275.377-2.0429.781-3.0463,1.212-.5017.216-1.0011.439-1.4982.667l-.7439.351-.1865.091-.094.046c-.0221.013-.0456.023-.0701.03l-.303.11c-.4315.136-.883.197-1.335.18-.4709-.021-.9367-.108-1.384-.257-.9195-.29-1.7917-.816-2.5962-1.427-1.5933-1.258-2.934-2.9-3.9084-4.713-.4888-.9-.8774-1.851-1.1587-2.836-.2579-.976-.4003-1.981-.3194-2.944.0203-.243.0548-.486.1033-.725l.0705-.369.0966-.355c.1151-.452.2987-.884.5446-1.28.2326-.372.525-.66.8699-.828.3448-.169.7518-.235,1.1924-.206.8891.063,1.8357.457,2.7143.955.8882.511,1.7238,1.108,2.4945,1.783l.7805.683.4161-.95c.0578-.133.1472-.315.2324-.472.0853-.158.1787-.326.2763-.486.1941-.32.4012-.635.6272-.936.4448-.604.9469-1.163,1.4993-1.67c1.102-1.012,2.3952-1.807,3.8125-2.259c1.412-.464,2.9264-.614,4.4328-.489c1.5064.126,3.0093.477,4.4603.999l.346.127.3197-.206c.3426-.22.6221-.426.9149-.653s.5719-.451.8445-.687c.2726-.237.5427-.478.8042-.725.2614-.246.5188-.499.7741-.753c1.0089-1.02,1.9508-2.105,2.8201-3.247.4245-.576.8545-1.148,1.244-1.748.4058-.588.7765-1.198,1.1399-1.812.1841-.305.3572-.616.523-.932l.5058-.94c.1685-.314.3065-.643.461-.963.1544-.319.3001-.644.4433-.969.0382-.086.0426-.184.0124-.273-.0303-.089-.0929-.164-.1756-.209-.0826-.045-.1793-.058-.2707-.035s-.1711.079-.2231.157l-.0049.005Z" fill="#371a45"></path>
        <path d="M57.7157,204.005c.9958,4.126,6.089,7.356,11.1807,5.813c3.3653-1.018,5.6484-3.383,7.0383-5.454c1.6238-2.422,2.8621-4.963,5.3232-5.849c2.8078-1.009,6.8968,4.421,16.4931.632c2.992-1.18,6.689-4.09,9.816-8.735c1.072-1.597,2.01-3.281,2.803-5.034c1.829-4.015,3.18-8.877,3.622-14.587.196-2.634.203-5.279.021-7.913-.086-1.299-.219-2.632-.4-3.998-.242-1.837-.568-3.736-.993-5.697l-2.913,4.235-.99,1.439-.713,1.037-4.456,6.481-6.8127,9.904-7.957,11.56-.5512.802c-.554-.75-1.1703-1.451-1.8424-2.096-2.0396-1.955-4.5641-3.363-7.3343-3.988-.058-.014-.116-.026-.1742-.038-1.2993-.277-2.6691-.39-4.0161-.196-3.8395.552-7.2857,4.076-8.5032,7.366-.3444.925-.5123,1.831-.4627,2.647.0907,1.465.1608,3.074.1608,3.074-1.1119.371-9.4761,3.883-8.3393,8.595Z" fill="#fff"></path>
        <g opacity="0.35">
          <path d="M57.7157,204.005c.9958,4.126,6.089,7.356,11.1807,5.813c3.3653-1.018,5.6485-3.383,7.0383-5.454c1.6238-2.422,2.8621-4.963,5.3232-5.849c2.8078-1.009,6.8968,4.421,16.4931.632c2.992-1.18,6.689-4.09,9.816-8.735.141-.209.282-.422.42-.64.109-.17.218-.342.324-.517.062-.099.123-.198.184-.299.197-.329.392-.666.584-1.011.047-.085.094-.171.14-.257.054-.099.107-.196.162-.292.057-.112.114-.217.17-.326.171-.33.339-.665.503-1.007.109-.224.214-.453.32-.683c3.485-7.656,5.237-18.381,2.25-32.195l-.269.39c2.072,14.327-1.115,24.946-5.608,31.881-4.849-.619-9.3822-3.756-10.6542-4.703l.7036-1.296c.2655-.49.3997-1.04.3894-1.597-.0102-.557-.1646-1.102-.4479-1.581-.1838-.316-.4205-.598-.6998-.833-.165-.139-.3441-.261-.5343-.364L82.3443,167.93c-.7519-.408-1.6345-.5-2.4545-.258-.82.243-1.5106.801-1.9206,1.552l-.7299,1.342c-.0869-.056-.1775-.105-.2711-.148-.677-.312-1.4497-.344-2.1505-.09-.7008.255-1.2732.775-1.5931,1.449s-.3614,1.447-.1157,2.151.759,1.283,1.4285,1.611l-.3756.691c-.4055.753-.4972,1.635-.255,2.454.2422.82.7985,1.51,1.5476,1.921l3.5921,1.949l7.3344,3.989l2.2327,1.213c.0556.029.1115.058.1676.084.7447.349,1.5946.401,2.3763.145.7818-.256,1.4366-.801,1.8311-1.523l.569-1.053c3.9895,2.476,7.3204,3.739,9.8054,4.375-2.311,2.451-4.7027,4.08-6.7605,4.893-9.5936,3.786-13.6824-1.641-16.489-.632-2.4645.885-3.7023,3.427-5.3232,5.85-1.3899,2.07-3.6735,4.434-7.0382,5.453-3.9806,1.207-7.9641-.505-9.9868-3.28-.1872.63-.2043,1.298-.0496,1.937Z" opacity="0.35" fill="#371a45"></path>
        </g>
        <path d="M88.4685,188.461c-1.3254-2.51-3.5744-4.55-6.2049-5.79-1.3225-.628-2.7304-1.058-4.1783-1.276-.7368-.108-1.4817-.15-2.2259-.126-.3777.013-.7543.047-1.1281.103-.3757.081-.7578.15-1.1256.253-1.4705.434-2.7835,1.199-3.9309,2.122-1.141.931-2.1335,2.03-2.9434,3.26-.8048,1.229-1.4482,2.602-1.6707,4.164-.0759.382-.0537.797-.0631,1.2l.0532,1.026.1064,2.052.6134-.894c-.3313.115-.6025.229-.8883.353-.2859.124-.5598.248-.8358.378-.5499.263-1.0906.546-1.6221.848-1.0611.606-2.093,1.286-3.0407,2.123-.9352.836-1.8358,1.83-2.3458,3.153-.2608.678-.3645,1.406-.3032,2.129.0318.352.1039.699.2148,1.035l.148.478c.0594.155.1307.305.1958.458.5364,1.215,1.3583,2.266,2.3336,3.115.9782.847,2.1091,1.5,3.3319,1.922c1.2232.426,2.5172.61,3.8105.543c1.2927-.069,2.5668-.401,3.7197-.897c2.3376-1.007,4.2967-2.719,5.7608-4.718.739-1.015,1.3263-2.028,1.9682-2.979.6322-.95,1.3046-1.825,2.1041-2.44.3845-.3.8142-.536,1.2731-.7.3048-.106.738-.075,1.2366.056c1.0013.271,2.1177.772,3.2768,1.141c1.1624.38,2.3874.67,3.6335.785c1.2434.118,2.4966.086,3.7322-.097c1.2205-.179,2.4212-.474,3.5858-.881.2901-.099.5736-.211.8609-.315.2873-.105.5779-.245.8658-.367.288-.122.5584-.28.8381-.42.2798-.14.5371-.311.8061-.466c2.101-1.305,3.924-2.961,5.516-4.791c1.583-1.832,2.959-3.835,4.101-5.971c1.141-2.124,2.084-4.349,2.815-6.647c1.471-4.584,2.116-9.394,2.172-14.176v-1.794c-.006-.6-.038-1.195-.051-1.793-.012-.599-.049-1.195-.099-1.791l-.074-.893c-.022-.298-.056-.595-.102-.89-.08-.592-.173-1.182-.268-1.771-.095-.59-.237-1.172-.382-1.75-.075-.289-.139-.58-.223-.867s-.175-.572-.276-.855c-.192-.567-.403-1.129-.65-1.68-.029-.064-.078-.116-.141-.148-.062-.032-.133-.041-.201-.027-.069.014-.13.051-.174.105-.045.054-.07.121-.071.191v.006c-.031,2.402.285,4.695.484,7.008.071.577.099,1.153.159,1.732s.118,1.155.146,1.731.084,1.156.097,1.735l.032,1.733c-.053,4.627-.679,9.254-2.087,13.642-.698,2.191-1.597,4.312-2.686,6.337-1.079,2.02-2.379,3.914-3.875,5.647-1.494,1.718-3.2,3.259-5.0997,4.437-.2406.139-.4774.288-.7211.418-.2437.131-.4898.258-.7393.374-.2495.117-.4922.224-.7588.321-.2665.098-.529.201-.7958.292-1.0576.37-2.1481.638-3.2566.801-2.203.336-4.4193.101-6.5532-.617-.5373-.174-1.0734-.374-1.6258-.58-.5525-.207-1.121-.423-1.7614-.592-.3421-.092-.6926-.149-1.0462-.171-.4042-.027-.8101.022-1.1959.146-.6527.227-1.264.559-1.8097.983-1.0688.829-1.8325,1.866-2.5036,2.867-.6711,1-1.2734,2.025-1.923,2.913-1.3116,1.79-3.0292,3.273-5.0267,4.133-.2533.097-.5001.212-.7598.291l-.3854.129-.3869.093c-.2548.074-.5151.126-.7784.157-.2629.03-.5233.089-.7898.081-1.0623.056-2.1252-.096-3.1298-.445-2.0026-.689-3.7759-2.177-4.6092-4.065-.0502-.118-.1074-.234-.1533-.352l-.1109-.365c-.0774-.223-.1273-.454-.1486-.689-.0374-.453.0294-.91.1954-1.334.3348-.888,1.0391-1.717,1.8514-2.436.8123-.718,1.76-1.348,2.7396-1.908.4912-.28.9949-.542,1.5062-.786.2566-.12.513-.24.7717-.349.2588-.11.5265-.22.7513-.298l.6481-.226-.0346-.668-.1083-2.069-.0529-1.032c.0152-.284-.0136-.561.05-.856.0602-.582.2737-1.173.4891-1.752.138-.28.2581-.573.4119-.85.1662-.271.299-.557.4906-.817.7035-1.072,1.5739-2.023,2.5782-2.818.9945-.792,2.1217-1.404,3.2985-1.723c1.156-.314,2.4412-.327,3.6951-.143c1.2737.189,2.5188.537,3.7061,1.036c2.3891,1.005,4.5269,2.565,6.4713,4.474.0518.05.1198.08.1918.085s.1434-.017.2012-.06c.0579-.043.0984-.105.1145-.176.016-.07.0064-.144-.0271-.208h.0053Z" fill="#371a45"></path>
        <path d="M80.2088,199.709c.1455.021.2938-.001.4266-.064s.2441-.164.3201-.29c2.7318-4.51,1.3064-9.84-1.3184-13.121-2.3844-2.981-5.6731-4.223-8.583-3.245-.1846.066-.3358.202-.4213.379s-.0983.38-.0358.566.1953.34.37.429.3774.106.5646.048c2.3322-.785,4.9247.247,6.9357,2.76c2.2237,2.781,3.5501,7.537,1.2064,11.407-.0643.106-.1013.226-.1078.35-.0064.124.018.248.071.36.0531.112.1331.209.2329.283.0998.073.2163.121.339.138Z" fill="#371a45"></path>
        <path d="M65.4424,195.702c.386.642.8221,1.253,1.3042,1.826.4711.571.9937,1.096,1.561,1.571.5682.47,1.1951.881,1.8791,1.157.6731.283,1.4065.393,2.1331.319-.7026-.038-1.3842-.253-1.9819-.624-.5854-.365-1.1112-.817-1.5588-1.342-.4513-.52-.8538-1.08-1.2027-1.674-.3491-.582-.6526-1.19-.9075-1.82l-.0052-.014c-.0666-.168-.1972-.303-.3632-.375s-.3538-.075-.5221-.008c-.1683.066-.3032.197-.3752.363-.0719.166-.0749.354-.0084.523.0132.034.0292.067.0476.098Z" fill="#371a45"></path>
        <path d="M63.5996,191.226c.1275.019.2576.004.3776-.043s.2262-.123.3081-.223c3.0052-3.66,4.3003-7.322,3.8501-10.886-.6493-5.109-4.6464-8.087-4.8173-8.211-.1606-.111-.3582-.155-.5507-.122-.1924.032-.3646.139-.4799.297-.1154.157-.1647.354-.1376.547.0272.194.1286.369.2828.489.0363.026,3.66,2.742,4.2163,7.205.3918,3.133-.7928,6.407-3.523,9.729-.0844.103-.14.226-.161.357-.0211.132-.0068.266.0413.39.048.124.1282.233.2323.316s.2283.136.3599.155h.0011Z" fill="#371a45"></path>
        <path d="M73.2782,171.018c-.3164-1.533.6691-3.033,2.2011-3.35s3.0304.669,3.3468,2.203c.3164,1.533-.6691,3.032-2.2012,3.349-1.532.317-3.0304-.669-3.3467-2.202Z" fill="#fff"></path>
        <g opacity="0.35">
          <path d="M73.4897,169.238c-.1581.337-.2483.701-.2655,1.073-.0171.372.039.744.1654,1.094.1263.35.3203.672.5709.947s.5529.498.8896.656c.3368.158.7013.248,1.0729.265.3716.018.7429-.039,1.0928-.165.3499-.127.6714-.321.9463-.572s.4978-.553.6559-.89c.1789-.379.2705-.794.2679-1.213-.4136.342-.9157.559-1.4478.626-.5322.068-1.0725-.017-1.5581-.245s-.8967-.589-1.1853-1.041c-.2885-.453-.4427-.978-.4447-1.515-.3235.266-.5833.6-.7603.98Z" opacity="0.35" fill="#371a45"></path>
        </g>
        <path d="M75.5462,173.989c.6567.094,1.3266.004,1.9351-.261.6085-.264,1.1316-.693,1.5111-1.238.3794-.544.6003-1.184.6381-1.846.0377-.663-.1092-1.324-.4244-1.908-.3153-.584-.7864-1.069-1.3609-1.401s-1.2299-.497-1.893-.478-1.308.222-1.8627.586c-.5548.364-.9976.875-1.2792,1.477-.2374.507-.3528,1.063-.3368,1.623s.1628,1.108.4288,1.601.6437.917,1.1028,1.237c.4592.321.987.529,1.5411.608Zm.7994-5.612c.2041.028.4027.088.5892.176.3729.175.6857.456.8986.809.213.353.3166.761.2978,1.173-.0189.412-.1593.809-.4036,1.141s-.5815.584-.9689.724-.8076.163-1.2076.064-.7615-.314-1.0391-.619c-.2777-.304-.4588-.684-.5206-1.092s-.0013-.824.1736-1.198c.1901-.404.5048-.737.8978-.949.3931-.212.8437-.292,1.2858-.229h-.003Z" fill="#371a45"></path>
        <path d="M75.7436,178.062l13.1553,7.152c.7519.407,1.6344.5,2.4543.257.8199-.242,1.5105-.8,1.9207-1.551l3.8053-7.007c.3526-.654.4698-1.41.3316-2.14-.1381-.73-.523-1.391-1.0901-1.87-.1652-.14-.3443-.263-.5346-.366l-13.1537-7.152c-.7517-.408-1.6344-.5-2.4546-.258-.8201.243-1.5107.801-1.9204,1.552l-3.015,5.549-.7918,1.457c-.4061.753-.498,1.636-.2557,2.456s.7991,1.51,1.5487,1.921Z" fill="#fff"></path>
        <g opacity="0.35">
          <path d="M75.7436,178.062l13.1554,7.153c.7519.407,1.6343.499,2.4542.256.8199-.242,1.5105-.8,1.9208-1.55l3.8052-7.008c.3527-.654.4698-1.41.3317-2.14s-.523-1.39-1.0901-1.87c-1.0168.09-1.6636.15-1.6636.15-3.6951,5.276-5.7126,9.58-14.117,4.261-2.898-1.834-4.4312-3.814-5.2949-5.085l-.7918,1.457c-.4059.753-.4981,1.635-.2564,2.455.2417.819.7977,1.51,1.5465,1.921Z" opacity="0.35" fill="#371a45"></path>
        </g>
        <path d="M89.871,186.317c.803.112,1.6213-.022,2.346-.387.7248-.364,1.3218-.94,1.7117-1.651l3.8059-7.008c.5008-.927.6143-2.015.3156-3.026-.2986-1.01-.9851-1.861-1.9093-2.367l-13.1541-7.152c-.9262-.502-2.0137-.616-3.024-.317s-1.8608.987-2.3651,1.913l-3.8058,7.007c-.5021.927-.6162,2.015-.3175,3.026.2988,1.011.9862,1.862,1.9112,2.366l13.1541,7.154c.4139.225.8647.375,1.3313.442Zm-8.43-20.549c.2909.041.5721.135.8301.275l13.1541,7.154c.5745.315,1.0012.845,1.1871,1.474s.116,1.306-.1945,1.884l-3.8058,7.007c-.3153.575-.845,1.003-1.4738,1.189-.6287.186-1.3055.116-1.8827-.195l-13.1545-7.15c-.5761-.314-1.0043-.844-1.1904-1.474-.1861-.629-.1149-1.307.1978-1.885l3.8059-7.007c.2413-.444.6127-.805,1.0643-1.032.4517-.228.962-.312,1.4625-.241l-.0001.001Z" fill="#371a45"></path>
        <path d="M75.2434,177.723c.1544.13.322.244.5001.339l13.1553,7.153c.5446.294,1.1624.426,1.7797.379.6174-.047,1.2082-.271,1.7022-.644.3672-.276.6704-.628.8886-1.031l1.6918-3.115.5582-1.027l1.5572-2.867c.4066-.752.4989-1.635.2568-2.456-.2421-.82-.7991-1.511-1.549-1.922l-2.8436-1.543c.5807.475.9779,1.139,1.1234,1.875.1455.737.0304,1.502-.3258,2.163l-2.0544,3.786-1.752,3.225c-.4104.751-1.1011,1.308-1.9209,1.551-.8198.242-1.7021.15-2.4541-.257l-10.3135-5.609Z" fill="#fff"></path>
        <g opacity="0.35">
          <path d="M75.2436,177.723c.1544.13.322.244.5001.339l13.1553,7.153c.7514.406,1.633.498,2.452.255s1.5087-.8,1.9183-1.55l2.2496-4.139c-.7281.552-1.8103,1.126-2.8127.703-.5502-.231-.8598-.886-1.0234-1.667l-1.752,3.226c-.4104.75-1.1011,1.308-1.9209,1.55-.8198.243-1.7021.151-2.4541-.256l-10.3122-5.614Z" opacity="0.35" fill="#371a45"></path>
        </g>
        <path d="M89.8712,186.317c.8031.113,1.6215-.022,2.3463-.386.7248-.365,1.3216-.941,1.7109-1.653l3.8059-7.007c.5008-.928.6144-2.016.3158-3.026-.2985-1.011-.9849-1.862-1.9089-2.367l-2.8418-1.543-.8351,1.24c.446.364.7512.872.8631,1.437s.0236,1.152-.2499,1.659l-3.8058,7.007c-.3146.576-.8439,1.003-1.4723,1.19-.6284.186-1.3049.116-1.8819-.195l-10.3174-5.611-.8386,1.234c.1942.162.4043.304.627.424l13.1518,7.152c.4134.227.8642.377,1.3309.445ZM94.827,172.87l.5985.325c.5746.316,1.0012.846,1.187,1.475s.1158,1.306-.1949,1.883l-3.8058,7.008c-.315.575-.8444,1.002-1.4728,1.188-.6284.187-1.3049.117-1.8819-.194l-.6801-.37c.8605-.341,1.5733-.975,2.0132-1.79l3.8053-7.007c.4174-.769.5692-1.654.4316-2.518h-.0001Z" fill="#371a45"></path>
        <path d="M86.6167,175.772c-.1394.26-.8983,2.554-.8983,2.554l1.4794.793c1.019.546,2.4101-.066,3.1081-1.369.698-1.302.4373-2.801-.5816-3.347l-1.4795-.794c0,0-1.4013,1.739-1.6281,2.163Z" fill="#22a7f0"></path>
        <g opacity="0.35">
          <path d="M86.6167,175.772c-.1394.26-.8983,2.554-.8983,2.554l1.4794.793c1.019.546,2.4101-.066,3.1081-1.369.698-1.302.4373-2.801-.5816-3.347l-1.4795-.794c0,0-1.4013,1.739-1.6281,2.163Z" opacity="0.35" fill="#371a45"></path>
        </g>
        <path d="M87.6946,179.748c.4634.06.9343-.012,1.3587-.208.6784-.299,1.264-.859,1.6483-1.577s.5267-1.516.3996-2.247c-.1337-.772-.5472-1.379-1.1645-1.71l-1.8081-.97-.2341.29c-.1457.182-1.4348,1.785-1.6746,2.233-.1461.273-.7474,2.079-.9287,2.624l-.1188.359l1.8132.972c.2207.12.4607.199.709.234Zm.667-5.565l1.1502.616c.3682.198.6182.578.7036,1.071.0928.534-.0161,1.126-.3064,1.668-.2903.541-.7222.96-1.2179,1.178-.458.202-.9132.204-1.2808.006l-1.1458-.614c.3297-.987.6738-1.977.7487-2.125.1312-.245.8211-1.137,1.3484-1.8Z" fill="#371a45"></path>
        <path d="M85.7102,178.312c-1.0186-.546-1.2788-2.045-.5811-3.347s2.089-1.915,3.1076-1.368c1.0186.546,1.2788,2.045.5811,3.347s-2.089,1.915-3.1076,1.368Z" fill="#22a7f0"></path>
        <g opacity="0.35">
          <path d="M88.8258,176.957c-.6967,1.302-2.0886,1.916-3.1069,1.369-1.0184-.546-1.2801-2.046-.5815-3.349.0919-.172.199-.336.32-.489-.2169,1.035.1161,2.034.9071,2.457.88.472,2.0385.08,2.7868-.878-.0659.311-.1754.61-.3255.89Z" opacity="0.35" fill="#371a45"></path>
        </g>
        <path d="M88.8259,176.957c-.0462.088-.0972.173-.1526.255.344-1.128.0245-2.273-.8369-2.732-.9495-.509-2.2235-.012-2.9546,1.115.0646-.214.1502-.421.2556-.618.6967-1.301,2.0892-1.915,3.1076-1.369s1.2801,2.046.5809,3.349Z" fill="#fff"></path>
        <path d="M86.2052,178.951c1.1072.157,2.3511-.535,3.0172-1.782.815-1.518.4692-3.294-.7649-3.957-1.234-.663-2.903.034-3.7167,1.553s-.4693,3.294.7654,3.957c.2177.117.4543.194.699.229Zm1.4138-5.08c.1448.02.2848.066.4136.135.7981.428.977,1.656.3973,2.738s-1.6998,1.615-2.4988,1.185c-.7989-.431-.9769-1.657-.3978-2.739.4845-.905,1.3482-1.424,2.0857-1.319Z" fill="#371a45"></path>
        <path d="M79.7762,180.829c.1235.017.2494-.004.3601-.062.1108-.057.2009-.148.2579-.259l1.8409-3.589c.2559-.498.3843-1.051.3738-1.611-.0105-.559-.1595-1.107-.4339-1.595-.1813-.321-.2781-.683-.2812-1.052s.0874-.733.2632-1.057l2.6973-5.008c.0755-.141.0923-.305.0467-.458-.0456-.152-.15-.28-.29-.356-.1401-.075-.3045-.092-.4569-.047-.1525.046-.2806.151-.3561.291l-2.6967,5.008c-.2724.502-.4127,1.065-.4077,1.637.0049.571.1549,1.132.4358,1.629.1772.315.2734.669.2802,1.03s-.0763.719-.2416,1.04l-1.8409,3.59c-.0436.085-.0662.179-.0661.275.0002.095.0232.19.0671.275.0438.085.1073.158.1852.213.0778.056.1678.092.2624.105l.0005.001Z" fill="#371a45"></path>
        <path d="M111.282,182.695c0,0,.903,1.621.06,3.184-.976,1.807-2.727,1.969-2.727,1.969s-6.026.7-15.5948-5.503c0,0-1.0212-4.048,2.9981-4.405.0001-.001,8.2207,6.598,15.2637,4.755Z" fill="#fff"></path>
        <g opacity="0.35">
          <path d="M111.362,185.843c-.971,1.839-2.746,2.006-2.746,2.006s-6.027.699-15.5955-5.503c0,0-.7793-3.095,1.708-4.111-.0017.012-.0088.024-.0128.035-.4421,1.221.0657,2.59,1.1758,3.262c8.8225,5.338,14.3145,4.7,14.3145,4.7.406-.058.798-.19,1.156-.389Z" opacity="0.35" fill="#371a45"></path>
        </g>
        <path d="M105.871,188.458c1.743.248,2.733.146,2.831.134.07-.006,2.147-.222,3.299-2.357.412-.763.545-1.653.382-2.573-.175-.999-1.122-1.68-2.11-1.519-5.729.936-12.2105-3.612-13.4515-4.533-.203-.152-.435-.261-.6817-.32-.2467-.058-.5028-.066-.7525-.022-2.2515.415-3.4483,2.131-3.2027,4.589.0288.281.1207.552.2687.793.1481.241.3485.445.5863.597c5.7141,3.625,10.1584,4.831,12.8314,5.211Zm4.736-4.837c.075.012.144.048.198.101.054.054.09.123.103.198.104.592.028,1.13-.225,1.599-.761,1.41-2.087,1.574-2.141,1.58-.053.007-5.758.55-14.6972-5.121-.0464-.03-.0855-.07-.1142-.117-.0288-.048-.0464-.101-.0517-.156-.1695-1.693.4974-2.689,1.9787-2.964.0475-.007.0959-.004.1423.008s.0899.034.1278.063c1.8637,1.383,8.4213,5.813,14.5863,4.809.031-.004.062-.003.093.002v-.002Z" fill="#371a45"></path>
        <g opacity="0.35">
          <path d="M78.3197,181.813c.0783-.197.4687-1.143,1.0787-2.652-.61,1.509-.9982,2.456-1.0787,2.652Z" opacity="0.35" fill="#371a45"></path>
        </g>
        <g opacity="0.35">
          <path d="M78.3039,181.854c.0059-.012.0113-.024.0159-.036-.0044.012-.0097.024-.0159.036Z" opacity="0.35" fill="#371a45"></path>
        </g>
        <path d="M53.587,179.597c.2685.242.5461.521.8089.794.2627.274.5228.562.7669.858.4886.592.949,1.214,1.2623,1.935-.0943-.784-.3689-1.55-.6815-2.289-.1568-.371-.3321-.732-.5144-1.092s-.3715-.708-.5922-1.071l.0005-.004c-.0972-.15-.2492-.256-.4237-.296-.1744-.04-.3576-.011-.5105.083-.1529.093-.2636.242-.3085.415s-.0205.357.0681.513c.034.057.0758.109.1241.154Z" fill="#371a45"></path>
        <g opacity="0.35">
          <path d="M116.319,186.345c-.018.085-.02.172-.005.257-.004-.086-.002-.171.005-.257Z" opacity="0.35" fill="#371a45"></path>
        </g>
        <path d="M54.8272,193.671c.3946-.35.6569-.93.672-1.851.0725-4.443-5.8045-15.326-10.1957-13.435-.2274.584-.387,1.192-.4757,1.813-.8462,5.395,4.9146,13.261,9.9994,13.473Z" fill="#848484"></path>
        <g opacity="0.35">
          <path d="M46.4224,187.043c1.9526,3.524,5.3053,6.499,8.4047,6.628.3947-.35.657-.93.6721-1.851.033-2.027-1.172-5.395-2.9118-8.278.5163,1.731,1.2249,6.011-.6554,6.657s-3.8862-1.902-5.5096-3.156Z" opacity="0.35" fill="#371a45"></path>
        </g>
        <g opacity="0.7">
          <path d="M45.6573,185.454c-.3388-1.257-.4525-2.502-.275-3.634.0048-.034.0096-.068.0143-.101.2251-1.366,1.6852-2.164,2.9489-1.596c2.6139,1.176,5.2709,5.244,6.6793,8.865-1.4724-5.037-6.1039-12.161-9.7233-10.603-.2274.585-.387,1.193-.4756,1.814-.2517,1.62.0891,3.464.8314,5.255Z" opacity="0.7" fill="#fff"></path>
        </g>
        <path d="M54.2141,194.217c.1977.028.3934.046.5879.054l.2417.01.1809-.161c.5633-.499.8574-1.27.874-2.29.0593-3.623-3.4619-10.892-7.1436-13.36-1.3716-.92-2.7167-1.14-3.8888-.636l-.2259.098-.0921.227c-.2441.627-.416,1.28-.5126,1.946-.4578,2.92.8507,6.679,3.416,9.811c2.0051,2.449,4.3651,3.988,6.5625,4.301Zm.3682-1.165c-1.9252-.198-4.1507-1.634-6.004-3.897-2.3195-2.831-3.5588-6.311-3.1587-8.863.072-.489.1883-.971.3474-1.439.7394-.219,1.5854-.014,2.52.613c3.3438,2.242,6.6658,9.072,6.6123,12.344-.0083.546-.1149.963-.317,1.242Z" fill="#371a45"></path>
        <path d="M46.3338,181.578c1.863.265,4.1451.009,4.4898-.032.0782-.01.1537-.034.2223-.073s.129-.09.1776-.152.0846-.133.1059-.209.0273-.155.0179-.233c-.0094-.079-.034-.154-.0726-.223-.0386-.068-.0903-.129-.1522-.177-.0619-.049-.1327-.085-.2085-.106-.0758-.022-.1551-.028-.2332-.018-1.65.198-4.6155.271-5.5467-.379-.0645-.046-.1377-.08-.2153-.098s-.1581-.021-.2367-.007c-.0786.013-.1537.042-.221.085-.0674.042-.1255.098-.1711.163-.0455.066-.0776.14-.0943.218s-.0177.158-.003.237c.0148.078.045.153.0889.219.0439.067.1006.124.1668.168.4602.321,1.1391.511,1.8854.617Z" fill="#371a45"></path>
        <path d="M47.631,184.851c2.7102.386,5.1379-.527,5.2749-.577.1485-.056.2684-.17.3334-.315s.0695-.31.0128-.459-.1701-.269-.3152-.334c-.1452-.065-.3101-.069-.4587-.012-.0411.015-4.0901,1.521-7.1918-.366-.1359-.083-.2991-.108-.4538-.071-.1546.038-.2881.135-.3709.271-.0829.136-.1084.3-.071.454.0375.155.1348.289.2707.372.9091.544,1.9195.897,2.9696,1.037Z" fill="#371a45"></path>
        <path d="M48.7184,187.853c3.8375.546,5.6494-.906,5.7396-.98.1191-.102.1935-.247.2072-.404.0137-.156-.0344-.312-.134-.433s-.2427-.199-.3986-.216-.3124.028-.4357.125c-.0405.032-2.3131,1.756-7.303.125-.0748-.024-.1537-.034-.2322-.028s-.155.028-.2252.063c-.0702.036-.1328.085-.184.145s-.0902.129-.1146.204c-.0245.075-.034.154-.028.232.0061.079.0275.155.0631.226.0356.07.0847.133.1445.184.0597.051.129.09.2038.114.8787.293,1.7811.508,2.6971.643Z" fill="#371a45"></path>
        <path d="M50.3137,191.437c3.0887.44,5.1765-1.184,5.2771-1.264.1191-.101.1944-.244.2099-.399.0155-.156-.03-.311-.1268-.433-.0969-.122-.2375-.202-.392-.222-.1546-.02-.3109.02-.436.113-.1031.081-2.411,1.842-5.6883.688-.0745-.027-.1535-.039-.2326-.035-.0792.003-.1568.022-.2285.056s-.1359.082-.189.141c-.0532.058-.0942.127-.1206.202s-.0379.154-.0336.233.0243.157.0587.228.0826.135.1418.188.1282.093.2031.119c.505.179,1.0264.308,1.5568.385Z" fill="#371a45"></path>
        <path d="M131.555,149.432c-.141-.051-.257-.155-.321-.29s-.072-.291-.022-.432l5.447-15.344c.05-.142.154-.257.29-.322.135-.064.29-.072.432-.022c1.481.526,2.692,1.62,3.367,3.04.675,1.421.759,3.051.233,4.534l-1.858,5.233c-.527,1.482-1.62,2.694-3.039,3.369-1.419.676-3.048.76-4.529.234Z" fill="#fff"></path>
        <path d="M132.691,149.89c1.392.195,2.809-.097,4.011-.827s2.115-1.853,2.586-3.178l1.859-5.233c.541-1.526.455-3.205-.24-4.667s-1.942-2.588-3.467-3.13c-.091-.032-.188-.046-.285-.041s-.192.029-.28.07c-.087.042-.166.101-.231.173s-.115.157-.147.248l-5.447,15.346c-.033.092-.047.189-.043.286.005.097.029.192.071.28s.1.166.172.231.157.116.248.148c.387.138.786.236,1.193.294Zm4.555-16.726c.026.004.052.01.077.019.712.252,1.367.643,1.928,1.149s1.017,1.118,1.342,1.801c.324.682.511,1.422.55,2.178.039.755-.072,1.51-.325,2.222l-1.858,5.234c-.512,1.437-1.573,2.613-2.95,3.269-1.378.656-2.958.739-4.396.23-.098-.035-.178-.107-.222-.2-.045-.094-.05-.201-.016-.299l5.448-15.347c.03-.085.088-.157.165-.203.077-.047.168-.066.257-.053Z" fill="#371a45"></path>
        <g opacity="0.35">
          <path d="M140.518,143.678l-.871,2.452c-.26.734-.663,1.41-1.184,1.988-.522.579-1.152,1.049-1.855,1.384-.702.334-1.464.527-2.242.568-.777.04-1.555-.074-2.288-.334-.141-.051-.257-.156-.321-.291-.064-.136-.072-.291-.022-.433l1.447-4.08c.008.109.048.213.114.299.066.087.156.152.258.189l.364.128c1.158.412,2.415.454,3.598.118c1.182-.335,2.232-1.03,3.002-1.988Z" opacity="0.35" fill="#371a45"></path>
        </g>
        <path d="M132.568,150.675c1.575.222,3.178-.107,4.539-.932c1.361-.824,2.396-2.093,2.93-3.592l1.857-5.233c.612-1.725.515-3.623-.271-5.275-.785-1.653-2.195-2.925-3.918-3.538-.19-.067-.391-.096-.592-.086s-.399.06-.581.147-.345.209-.479.358c-.135.15-.24.325-.307.515l-5.447,15.346c-.068.19-.097.392-.087.593s.06.399.147.581c.086.182.208.345.357.48.15.135.325.239.515.306.433.155.881.265,1.337.33Zm4.864-16.591c1.135.511,2.037,1.432,2.526,2.578.488,1.147.527,2.435.109,3.61l-1.857,5.233c-.418,1.173-1.261,2.146-2.362,2.727s-2.379.726-3.582.409l5.166-14.557Z" fill="#371a45"></path>
        <path d="M86.769,115.037c.1412.05.2566.154.321.29.0643.135.0723.29.0222.432l-5.4473,15.346c-.0503.141-.1544.256-.2896.321-.1353.064-.2905.072-.4316.022-1.4812-.526-2.6927-1.62-3.3681-3.04-.6753-1.42-.7591-3.051-.233-4.534l1.8577-5.233c.5265-1.482,1.6196-2.694,3.0389-3.37c1.4194-.676,3.0488-.76,4.5298-.234Z" fill="#fff"></path>
        <path d="M81.03,131.648c.1433.021.2896-.001.4199-.065.0878-.041.1666-.099.2316-.172.065-.072.1151-.156.1474-.248l5.4474-15.346c.0655-.185.0549-.388-.0293-.565s-.2353-.314-.42-.379c-1.5248-.541-3.202-.454-4.6631.241-1.4611.696-2.5865,1.944-3.1291,3.47l-1.857,5.232c-.2683.756-.3853,1.557-.3442,2.357.041.801.2393,1.586.5834,2.31s.8274,1.373,1.4222,1.91s1.2895.951,2.0445,1.219c.0474.017.0965.029.1463.036Zm5.6801-16.446c.0485.017.093.043.1312.078.0381.034.0691.076.0912.122.0221.047.0348.097.0374.148.0026.052-.0049.103-.0221.152l-5.4473,15.346c-.017.048-.0435.093-.0779.131-.0345.038-.0761.069-.1226.091-.0467.023-.0974.036-.1492.039s-.1036-.005-.1526-.022c-1.4376-.511-2.6134-1.572-3.2688-2.951s-.7368-2.961-.2262-4.4l1.8577-5.234c.5122-1.437,1.5732-2.613,2.9504-3.269c1.3771-.656,2.9579-.739,4.3956-.23l.0032-.001Z" fill="#371a45"></path>
        <g opacity="0.35">
          <path d="M83.1775,126.848l-1.5122,4.257c-.0505.142-.1549.257-.2903.321-.1354.065-.2908.073-.4321.023-1.4807-.527-2.6917-1.62-3.3668-3.04s-.759-3.051-.2332-4.533l.7829-2.205c.0956,1.136.5164,2.22,1.2119,3.123s1.6364,1.586,2.7099,1.967l.5595.2c.0965.034.2002.041.3005.021s.1935-.066.2699-.134Z" opacity="0.35" fill="#371a45"></path>
        </g>
        <path d="M80.9189,132.437c.35.048.7062-.025,1.0085-.209.3022-.183.5321-.465.6507-.798l5.4469-15.347c.0675-.19.0971-.392.0868-.593s-.0601-.399-.1467-.581-.2081-.345-.3577-.48-.3245-.239-.5144-.306c-1.7238-.61-3.6192-.511-5.2702.276s-2.9227,2.198-3.5361,3.922l-1.8576,5.232c-.3033.854-.4355,1.76-.3891,2.665s.2705,1.792.6595,2.61c.389.819.9353,1.552,1.6077,2.159s1.4577,1.076,2.3111,1.379c.0976.033.1983.057.3006.071Zm5.1394-16.606l-5.1662,14.553c-1.1354-.511-2.0369-1.432-2.5253-2.578-.4883-1.146-.5278-2.435-.1106-3.609l1.8577-5.233c.4186-1.173,1.2618-2.145,2.3626-2.725s2.3791-.726,3.5818-.408Z" fill="#371a45"></path>
        <path d="M86.9871,148.898c-9.1924-12.257-6.7147-29.652,5.5341-38.855c12.2488-9.202,29.6308-6.726,38.8228,5.53s6.715,29.652-5.534,38.854-29.6305,6.727-38.8229-5.529Z" fill="#fff"></path>
        <path d="M105.268,159.9c4.754.673,9.6.1,14.067-1.663c6.94-2.72,12.408-7.982,15.394-14.816c2.987-6.835,3.137-14.424.42-21.369-2.717-6.946-7.973-12.416-14.802-15.404-14.096-6.167-30.5808.293-36.7468,14.402-2.9868,6.834-3.1355,14.423-.419,21.369c2.7164,6.946,7.9732,12.415,14.801,15.403c2.3238,1.019,4.7748,1.718,7.2858,2.078Zm7.746-54.984c2.48.355,4.9,1.045,7.194,2.052c6.744,2.95,11.935,8.35,14.618,15.211c2.682,6.86,2.534,14.353-.415,21.102s-8.347,11.946-15.203,14.631c-6.856,2.686-14.342,2.541-21.0851-.409-6.7435-2.95-11.9347-8.351-14.6171-15.212s-2.5355-14.352.414-21.102c2.9495-6.749,8.3467-11.945,15.2026-14.631c4.4096-1.741,9.1956-2.307,13.8886-1.643l.003.001Z" fill="#371a45"></path>
        <g opacity="0.35">
          <path d="M135.865,139.723c-.347,1.238-.779,2.45-1.295,3.627-6.139,14.042-22.489,20.449-36.5185,14.312-14.0298-6.137-20.4281-22.502-14.2925-36.544.1773-.404.3624-.804.5555-1.193-3.6968,13.126,2.7498,27.299,15.5867,32.917c13.6278,5.962,29.4388.092,35.9638-13.119Z" opacity="0.35" fill="#371a45"></path>
        </g>
        <path d="M105.157,160.688c4.889.693,9.873.104,14.467-1.709c7.138-2.797,12.762-8.209,15.834-15.24c3.072-7.03,3.225-14.834.431-21.977s-8.2-12.769-15.225-15.842c-7.024-3.073-14.821-3.225-21.9582-.429-7.1375,2.797-12.7613,8.21-15.8335,15.241-3.0722,7.03-3.2253,14.834-.4316,21.977s8.2,12.77,15.2247,15.843c2.3896,1.048,4.9096,1.766,7.4916,2.136Zm7.745-54.984c2.409.345,4.759,1.015,6.987,1.993c6.549,2.865,11.591,8.111,14.196,14.772s2.462,13.939-.405,20.494-8.105,11.6-14.762,14.209c-6.658,2.609-13.929,2.467-20.4776-.4-6.5488-2.867-11.5898-8.112-14.1953-14.773s-2.4617-13.938.4045-20.493c2.8661-6.555,8.1078-11.601,14.7642-14.21c4.2832-1.689,8.9302-2.238,13.4882-1.592Z" fill="#371a45"></path>
        <path d="M134.203,143.968c-2.099,5.009-5.672,8.976-10.062,11.657-3.292,2.01-13.968,3.463-24.5796-.876-9.8388-4.025-16.5648-12.998-17.4383-16.756-1.1653-5.012-.8406-10.344,1.2587-15.352c5.555-13.252,19.2322-13.973,33.2692-8.083c14.038,5.89,23.108,16.157,17.552,29.41Z" fill="#371a45"></path>
        <g opacity="0.5">
          <path d="M124.022,142.815c-1.646-1.071-1.783-3.783-.306-6.057s4.009-3.249,5.656-2.178c1.646,1.07,1.783,3.782.306,6.056-1.478,2.274-4.01,3.25-5.656,2.179Z" opacity="0.5" fill="#fff"></path>
        </g>
        <g opacity="0.5">
          <path d="M117.446,147.69c-.806-.7-.799-2.03.017-2.97s2.13-1.134,2.936-.434.798,2.03-.017,2.97c-.816.94-2.131,1.135-2.936.434Z" opacity="0.5" fill="#fff"></path>
        </g>
        <g opacity="0.35">
          <path d="M134.444,129.531c1.862,4.27,1.99,9.113-.241,14.437-2.099,5.009-5.673,8.976-10.062,11.657-3.291,2.01-13.969,3.463-24.5804-.875-3.7474-1.532-7.0411-3.782-9.7339-6.191c13.1583,5.057,26.1833,3.238,30.2653.746c5.573-3.401,10.108-8.44,12.77-14.795.681-1.607,1.21-3.274,1.582-4.979Z" opacity="0.35" fill="#111a28"></path>
        </g>
        <path d="M136.78,132.222c.132.018.266.003.391-.043.125-.047.236-.124.324-.225.087-.1.148-.221.178-.351.029-.131.025-.266-.011-.394-1.898-8.316-9.087-15.645-19.726-20.111-10.724-4.5-21.0495-4.366-28.3255.369-.1739.111-.2985.284-.348.485-.0496.2-.0202.411.0819.59s.2692.312.4666.371.4099.039.5934-.054l.0718-.042c6.8259-4.446,16.6088-4.533,26.8398-.24c10.176,4.27,17.023,11.205,18.792,19.028l.023.101.047.091c.059.114.145.212.249.286.105.073.226.121.353.139Z" fill="#371a45"></path>
        <g opacity="0.5">
          <path d="M85.7837,132.92c0,0,1.3793-14.795,10.6027-17.05c9.2236-2.256,19.3426,2.015,18.8336,2.566c0,0-12.348-1.988-20.4579,5.042-6.2506,5.422-8.9784,9.442-8.9784,9.442Z" opacity="0.5" fill="#fff"></path>
        </g>
        <path d="M75.8501,132.358c0,0,4.6489-4.864,11.0849-3.623c4.553.878,5.4148,9.795-.2036,13.72-2.6414,1.845-4.836,2.198-6.1226,6.784" fill="#fff"></path>
        <path d="M80.4812,150.137c.2174.031.4385-.018.6224-.139.1838-.12.3178-.303.3771-.514.9277-3.307,2.2857-4.127,4.165-5.263.5123-.31,1.0423-.63,1.604-1.023c3.8081-2.66,4.8024-7.194,4.0986-10.508-.5576-2.63-2.1437-4.44-4.2417-4.846-6.8409-1.32-11.7076,3.674-11.9116,3.887-.1594.175-.2443.405-.2363.642s.108.461.2788.625c.1708.163.3989.254.6355.252s.463-.097.6309-.264c.043-.045,4.4059-4.491,10.2592-3.361c1.3593.263,2.4135,1.55,2.8127,3.442.5602,2.64-.253,6.471-3.3631,8.644-.5132.358-1.0169.663-1.5037.957-1.9809,1.197-3.8516,2.328-4.9719,6.326-.0323.115-.0416.235-.0275.353s.0513.232.1096.336.1364.195.23.269.2007.128.3153.16c.0383.011.0773.019.1167.025Z" fill="#371a45"></path>
        <g opacity="0.35">
          <path d="M110.94,163.849l-2.083,8.724c-21.5754,11.316-26.3171-9.887-27.7992-14.045-.3054-.858-1.3398-3.422-2.1101-4.1-.8317-.735-1.4369-2.942-1.3238-4.467c0,0,1.3488-5.38,3.4401-6.76c2.1444-1.412,6.3757-.159,8.3558,1.399c2.7368,2.153,4.26,6.532,7.3103,10.617c3.7479,5.013,13.3799,4.736,14.2099,8.632Z" opacity="0.35" fill="#371a45"></path>
        </g>
        <path d="M112.305,162.153l-3.311,10.002-.137.418c-19.3722,3.897-25.1048-12.711-27.7819-17.403-.4502-.791-1.9368-1.954-2.7028-2.633-.8317-.734-1.1152-2.069-1.0009-3.594.2189-2.949,1.9228-6.607,4.0111-7.987c2.1445-1.412,6.3758-.159,8.3558,1.399c2.7369,2.154,4.2601,6.532,7.3103,10.618c3.7494,5.012,14.4264,5.285,15.2564,9.18Z" fill="#fff"></path>
        <g opacity="0.35">
          <path d="M108.994,172.155l-.138.418c-19.3714,3.897-25.104-12.711-27.7811-17.404-.4502-.79-1.9368-1.953-2.7028-2.632-.8317-.734-1.1152-2.069-1.0009-3.594.412.785.9933,1.495,1.7896,1.688c2.0108.489,4.871.814,5.5306,2s1.3849,6.762,6.0203,12.042c4.6789,5.327,13.6213,8.118,18.2823,7.482Z" opacity="0.35" fill="#371a45"></path>
        </g>
        <path d="M112.672,162.075c-.064-.568-.34-1.105-.691-1.524-.352-.419-.767-.764-1.192-1.063-.859-.583-1.772-1.011-2.675-1.394-1.819-.758-3.653-1.349-5.387-2.11-1.722-.754-3.3934-1.652-4.5829-2.943-.1577-.154-.2791-.331-.419-.496-.1363-.179-.274-.38-.4106-.569-.2747-.383-.5351-.778-.7904-1.175-.5169-.793-.9995-1.621-1.4825-2.454-.9707-1.662-1.8863-3.4-3.1701-5.013-.6409-.796-1.4083-1.57-2.3403-2.131-.9038-.564-1.8632-.956-2.8584-1.253s-2.0351-.474-3.1289-.436c-.5665.012-1.128.108-1.6657.287l-.417.158-.4044.221c-.2465.145-.479.314-.6943.503-.8401.728-1.4674,1.585-1.9842,2.481-.5123.893-.9278,1.838-1.2397,2.819-.3071.98-.5279,1.992-.5875,3.05-.0349.54-.0141,1.082.0622,1.618.0797.581.2671,1.143.5528,1.655.0761.138.164.269.2627.391.0967.13.2052.251.324.361l.0872.085.0714.062.1424.123.2798.238c.3698.312.7326.619,1.073.931.3404.313.6736.639.8891.934.0831.105.2019.339.3138.537l.3295.628c.8685,1.712,1.75,3.48,2.7699,5.167.5056.847,1.0544,1.672,1.6263,2.482.5861.803,1.1937,1.589,1.8596,2.332c1.3198,1.509,2.8353,2.834,4.5064,3.941c1.672,1.114,3.5396,1.927,5.4668,2.465c1.9284.51,3.918.752,5.913.718c1.97-.046,3.931-.3,5.848-.759.098-.018.185-.075.241-.157.056-.083.077-.184.058-.282-.018-.098-.075-.185-.157-.241-.083-.056-.184-.077-.282-.058l-.007-.001c-1.897.287-3.799.455-5.692.39-1.882-.04-3.7503-.341-5.5507-.893-1.7884-.543-3.4847-1.352-5.0317-2.401-.3802-.273-.7704-.526-1.1286-.827l-.5478-.437-.5246-.466c-.3582-.301-.6792-.645-1.0196-.966-.3202-.345-.6508-.676-.9554-1.035-.6241-.703-1.1953-1.455-1.7498-2.219-.5402-.777-1.0609-1.568-1.5434-2.387-.9756-1.637-1.8167-3.344-2.6908-5.092l-.3413-.66c-.1276-.222-.2174-.428-.4202-.715-.3574-.487-.7259-.83-1.0974-1.181-.3715-.35-.7465-.664-1.1176-.98l-.2721-.233-.132-.116-.0655-.057-.0405-.043c-.0591-.055-.1124-.115-.1593-.181-.0534-.065-.1002-.136-.1399-.211-.3518-.611-.4447-1.502-.3854-2.371.0539-.879.2527-1.774.5287-2.641.2798-.866.6512-1.699,1.1079-2.486.4509-.779,1.0011-1.498,1.6308-2.035.1489-.13.3095-.246.4798-.347.0784-.041.1552-.085.2316-.13l.263-.097c.3826-.127.782-.195,1.1848-.202.843-.034,1.7384.11,2.5987.362.8602.253,1.7101.603,2.4486,1.063.7334.437,1.3584,1.055,1.9312,1.762c1.1416,1.421,2.0566,3.122,3.0508,4.792.496.839.9985,1.682,1.5443,2.507.2723.413.5489.824.8431,1.226.1509.201.2866.4.4464.603.172.204.3323.424.5214.609.7277.776,1.5702,1.405,2.4422,1.928.8653.509,1.7653.959,2.6923,1.346c1.824.777,3.679,1.383,5.466,2.037.893.325,1.769.666,2.568,1.088.782.432,1.51.945,1.782,1.718l.004.011c.031.087.092.16.173.205s.176.058.266.037.17-.074.223-.15c.054-.075.078-.168.067-.26l.001.007Z" fill="#371a45"></path>
        <path d="M89.7223,168.9c.1568.023.3167-.006.4563-.081c8.2528-4.388,7.4589-15.699,7.4206-16.178-.0155-.199-.1092-.383-.2603-.512s-.3474-.193-.5455-.177c-.1982.015-.3821.109-.5112.261-.1291.151-.1929.347-.1773.545.0086.108.7493,10.813-6.629,14.737-.1397.074-.2524.191-.3218.333s-.0921.303-.0647.459c.0273.156.1033.299.217.409.1137.111.2593.182.4159.204Z" fill="#371a45"></path>
        <path d="M82.9229,129.352c.1967.028.3964-.024.5553-.143.159-.119.264-.297.292-.494l7.8496-55.1112c.0221-.1941-.0323-.3891-.1516-.5437s-.2943-.2564-.4875-.2839c-.1932-.0276-.3896.0214-.5474.1365s-.2644.2872-.2974.4797L82.2863,128.504c-.0279.197.0235.397.1429.556s.2969.264.4937.292Z" fill="#371a45"></path>
        <path d="M60.6494,164.759c.0553.008.1113.01.167.005c2.2337-.182,3.5259-1.47,4.7761-2.715c1.6681-1.662,3.2449-3.233,7.2597-2.561c2.2223.369,3.9958-.011,5.2634-1.139c2.0572-1.834,1.9327-4.932,1.9262-5.062-.0096-.199-.0976-.386-.2447-.519-.1472-.134-.3413-.204-.5398-.194-.1985.009-.3851.098-.5187.245s-.2032.342-.1936.54c.0019.05.0847,2.532-1.432,3.875-.9112.808-2.2614,1.069-4.013.774-4.7737-.795-6.7882,1.205-8.5655,2.974-1.1557,1.154-2.1538,2.147-3.8401,2.284-.1843.014-.357.096-.4847.23s-.2016.31-.2073.495.0571.366.1764.507c.1192.141.2865.234.4697.259l.0009.002Z" fill="#371a45"></path>
        <path d="M88.3026,88.5324c-5.2456-.7472-9.2497-3.096-8.9434-5.2463.3062-2.1502,4.8069-3.2877,10.0525-2.5405s9.2497,3.0959,8.9434,5.2462c-.3062,2.1502-4.8069,3.2877-10.0525,2.5406Z" fill="#e2e2e2"></path>
        <path d="M88.2861,88.6482c5.3008.755,9.8691-.4296,10.184-2.6399.3148-2.2104-3.7412-4.6227-9.042-5.3777-5.3009-.755-9.8691.4289-10.184,2.6393s3.7429,4.6235,9.042,5.3783Zm1.1092-7.7874c5.1741.7369,9.1415,3.0312,8.8448,5.1147-.2968,2.0835-4.7471,3.1794-9.9212,2.4425-5.1741-.737-9.1415-3.0318-8.8448-5.1154.2968-2.0835,4.7474-3.1811,9.9215-2.4442l-.0003.0024Z" fill="#371a45"></path>
        <path d="M88.3026,88.5324c-5.2456-.7472-9.2497-3.096-8.9434-5.2463.3062-2.1502,4.8069-3.2877,10.0525-2.5405s9.2497,3.0959,8.9434,5.2462c-.3062,2.1502-4.8069,3.2877-10.0525,2.5406Z" fill="#fff"></path>
        <path d="M88.2861,88.6482c5.3008.755,9.8691-.4296,10.184-2.6399.3148-2.2104-3.7412-4.6227-9.042-5.3777-5.3009-.755-9.8691.4289-10.184,2.6393s3.7429,4.6235,9.042,5.3783Zm1.1092-7.7874c5.1741.7369,9.1415,3.0312,8.8448,5.1147-.2968,2.0835-4.7471,3.1794-9.9212,2.4425-5.1741-.737-9.1415-3.0318-8.8448-5.1154.2968-2.0835,4.7474-3.1811,9.9215-2.4442l-.0003.0024Z" fill="#371a45"></path>
        <g opacity="0.3">
          <path d="M88.3026,88.5324c-5.2456-.7472-9.2497-3.096-8.9434-5.2463.3062-2.1502,4.8069-3.2877,10.0525-2.5405s9.2497,3.0959,8.9434,5.2462c-.3062,2.1502-4.8069,3.2877-10.0525,2.5406Z" opacity="0.3" fill="#371a45"></path>
        </g>
        <path d="M88.2015,89.2447c5.8201.829,10.4918-.526,10.8657-3.1515s-3.7331-5.2303-9.5538-6.0594c-5.8207-.829-10.4917.526-10.8656,3.151s3.7336,5.2309,9.5537,6.0599Zm1.1092-7.7874c5.0291.7163,8.5475,2.9316,8.3336,4.4332s-4.2085,2.6474-9.24,1.9307c-5.0316-.7166-8.5476-2.9316-8.3336-4.4337.2139-1.5022,4.2108-2.6465,9.24-1.9302Z" fill="#371a45"></path>
        <path d="M64.0724,82.472c-5.0656-1.5538-8.6563-4.4969-8.0198-6.5735s5.2589-2.5003,10.3245-.9464c5.0657,1.5539,8.6563,4.4969,8.0199,6.5735-.6365,2.0766-5.2589,2.5003-10.3246.9464Z" fill="#fff"></path>
        <path d="M67.4272,83.3573c1.2498.178,2.4335.2232,3.4817.1274c2.0017-.1834,3.2793-.8642,3.6016-1.9166.3223-1.0523-.3556-2.3334-1.9091-3.6068-1.5263-1.2509-3.724-2.356-6.1877-3.1119-2.4636-.756-4.9036-1.0723-6.8684-.892-2.0016.1828-3.2792.8636-3.6015,1.916-.3223,1.0523.3555,2.334,1.9091,3.6068c1.5263,1.2509,3.724,2.356,6.1876,3.1119c1.1075.3423,2.2397.5981,3.3867.7652Zm-4.4334-9.0436c1.1352.1656,2.2558.4189,3.3518.7578c2.4355.7472,4.6055,1.8369,6.1086,3.0696c1.4759,1.2096,2.1277,2.4001,1.8343,3.3589s-1.5007,1.5789-3.4006,1.7535c-1.9356.1772-4.3426-.1393-6.7792-.8835-2.4365-.7443-4.605-1.8369-6.1087-3.069-1.4758-1.2102-2.1273-2.403-1.8342-3.3595s1.5007-1.5789,3.4011-1.7534c1.0306-.0941,2.1959-.0497,3.4269.1256Z" fill="#371a45"></path>
        <path d="M67.3408,83.953c1.2979.1849,2.5293.2321,3.623.1314c2.2596-.2072,3.7237-1.0382,4.1228-2.3396.3991-1.3015-.3479-2.8111-2.1031-4.2498-1.5857-1.2995-3.8558-2.4437-6.3935-3.2215-2.5377-.7779-5.0584-1.1034-7.099-.9165-2.2595.2072-3.7237,1.0382-4.1223,2.3403s.3479,2.8111,2.1031,4.2498c1.5852,1.2988,3.8559,2.4431,6.393,3.2208c1.1366.3513,2.2988.6138,3.476.7851Zm-4.4329-9.0428c1.1046.161,2.1949.4076,3.2613.7377c2.3626.7248,4.4595,1.7735,5.9034,2.9594c1.2377,1.0151,1.8512,2.0294,1.6408,2.716-.2103.6866-1.2869,1.184-2.88,1.3273-1.8593.1708-4.1847-.1346-6.5474-.8594s-4.4595-1.7736-5.9035-2.9589c-1.2378-1.0151-1.8505-2.0298-1.6402-2.7165.2104-.6866,1.2869-1.1833,2.8795-1.3274.9857-.0903,2.102-.0469,3.2861.1218Z" fill="#371a45"></path>
        <path d="M103.602,85.6992c-.032-2.1717,4.238-3.9952,9.536-4.073c5.298-.0777,9.618,1.6197,9.65,3.7914.031,2.1717-4.239,3.9953-9.537,4.0731-5.298.0777-9.618-1.6198-9.649-3.7915Z" fill="#fff"></path>
        <path d="M109.793,89.3914c1.148.1598,2.306.2303,3.465.2108c2.58-.0376,4.996-.4867,6.811-1.2606c1.848-.7882,2.856-1.8293,2.84-2.9303-.016-1.1011-1.054-2.1112-2.923-2.8454-1.837-.7217-4.267-1.0984-6.844-1.061-2.577.0373-4.996.4866-6.811,1.2605-1.849.7888-2.856,1.8299-2.84,2.9304.015,1.1004,1.054,2.1111,2.923,2.8459.98.3846,2.128.6715,3.379.8497Zm6.782-7.4461c1.232.1755,2.362.4563,3.326.8333c1.776.6981,2.761,1.6329,2.776,2.6332s-.944,1.9626-2.699,2.7138c-1.785.7643-4.175,1.2027-6.723,1.2413-2.547.0386-4.947-.3337-6.756-1.0444-1.776-.698-2.761-1.6328-2.776-2.6331-.015-1.0004.944-1.9626,2.699-2.7132c1.786-.7643,4.176-1.2028,6.724-1.2419c1.147-.0185,2.293.0521,3.429.211Z" fill="#371a45"></path>
        <g opacity="0.3">
          <path d="M64.0724,82.472c-5.0656-1.5538-8.6563-4.4969-8.0198-6.5735s5.2589-2.5003,10.3245-.9464c5.0657,1.5539,8.6563,4.4969,8.0199,6.5735-.6365,2.0766-5.2589,2.5003-10.3246.9464Z" opacity="0.3" fill="#371a45"></path>
        </g>
        <g opacity="0.3">
          <path d="M103.602,85.6992c-.032-2.1717,4.238-3.9952,9.536-4.073c5.298-.0777,9.618,1.6197,9.65,3.7914.031,2.1717-4.239,3.9953-9.537,4.0731-5.298.0777-9.618-1.6198-9.649-3.7915Z" opacity="0.3" fill="#371a45"></path>
        </g>
        <path d="M109.71,89.9878c1.178.1642,2.367.2367,3.557.2167c2.654-.0415,5.153-.5033,7.038-1.3079c2.087-.8914,3.226-2.1325,3.206-3.4935-.019-1.3611-1.191-2.5663-3.305-3.3983-1.907-.7509-4.419-1.1411-7.073-1.102-2.653.039-5.153.5032-7.038,1.3084-2.087.8915-3.226,2.1319-3.206,3.4935.019,1.3617,1.191,2.5663,3.305,3.3977c1.022.4021,2.218.7006,3.516.8854Zm6.782-7.4455c1.183.1686,2.267.4386,3.189.8005c1.489.5854,2.384,1.3629,2.398,2.0791.013.7161-.863,1.5218-2.334,2.1505-1.721.7327-4.024,1.1572-6.495,1.1929s-4.789-.3226-6.527-1.0028c-1.489-.5847-2.384-1.3629-2.395-2.0786s.862-1.5219,2.334-2.1499c1.717-.7338,4.024-1.1572,6.495-1.1935c1.115-.0189,2.23.0486,3.335.2018Z" fill="#371a45"></path>
        <path d="M88.8571,84.6392C65.3545,81.2917,46.9867,73.7703,47.8314,67.8397s20.582-8.0246,44.0846-4.677c23.503,3.3475,41.87,10.8689,41.026,16.7994-.845,5.9306-20.582,8.0246-44.0849,4.6771Z" fill="#999"></path>
        <path d="M88.8407,84.7542c11.3763,1.6203,22.2313,2.0281,30.5673,1.1411c8.385-.8896,13.231-2.9907,13.648-5.9169s-3.653-6.2974-11.453-9.4923c-7.757-3.1767-18.294-5.8183-29.6705-7.4386-11.3763-1.6203-22.2313-2.0281-30.5672-1.1411-8.3848.8896-13.2315,2.9907-13.6483,5.9169s3.6529,6.2974,11.4535,9.4923c7.7571,3.1767,18.294,5.8183,29.6702,7.4386Zm3.059-21.4765c23.4013,3.3331,41.7613,10.8103,40.9273,16.668-.835,5.8577-20.552,7.912-43.9536,4.5789-23.4014-3.3331-41.7625-10.811-40.9282-16.6688.8344-5.8577,20.5531-7.9112,43.9545-4.5781Z" fill="#371a45"></path>
        <path d="M47.8309,68.6237c.1178.8916.6396,1.8137,1.5188,2.7448c4.838,5.1228,20.4907,10.5625,39.5077,13.2712c19.0176,2.7086,35.5696,1.8535,41.6416-1.7129c1.105-.6485,1.863-1.3884,2.225-2.2116-1.077-3.6584-19.096-8.9912-41.571-12.1923-22.4749-3.2012-41.2668-3.1115-43.3221.1008Z" fill="#fff"></path>
        <path d="M88.836,84.7883c18.673,2.6596,35.446,1.9636,41.739-1.7313c1.148-.6753,1.917-1.4418,2.286-2.2813l.022-.0496-.015-.0532c-1.114-3.7841-19.039-9.0716-41.6942-12.2985-22.6556-3.2269-41.3432-3.1541-43.4694.1686l-.03.0466.0073.0538c.1201.9092.645,1.8605,1.5589,2.8289c5.0108,5.305,20.9227,10.6564,39.5954,13.316Zm43.727-4.0821c-.352.7605-1.072,1.465-2.14,2.0918-6.239,3.6649-22.935,4.3426-41.5451,1.6919-18.6105-2.6507-34.4526-7.9628-39.4205-13.224-.8506-.9-1.3453-1.7775-1.4709-2.6061c2.1824-3.1331,21.0732-3.132,43.1444.0116s40.2111,8.417,41.4321,12.0348Z" fill="#371a45"></path>
        <g opacity="0.3">
          <path d="M47.8309,68.6237c.1178.8916.6396,1.8137,1.5188,2.7448c5.0753,3.4568,20.8997,7.6909,39.9167,10.3996c19.0176,2.7086,35.3966,3.0644,41.2326,1.1587c1.105-.6485,1.863-1.3884,2.225-2.2116-1.077-3.6584-19.096-8.9912-41.571-12.1923-22.4749-3.2012-41.2668-3.1115-43.3221.1008Z" opacity="0.3" fill="#371a45"></path>
        </g>
        <path d="M88.7561,85.3508c11.4239,1.6271,22.3319,2.0335,30.7159,1.1437c6.144-.6515,13.592-2.2965,14.18-6.4283.589-4.1318-6.103-7.7937-11.821-10.1318-7.802-3.1951-18.39-5.8506-29.814-7.4777-11.4238-1.6271-22.3323-2.0334-30.7159-1.1437-6.1442.6515-13.5918,2.2965-14.1803,6.4283-.5885,4.1319,6.1033,7.7938,11.8216,10.1319c7.8018,3.195,18.39,5.8505,29.8137,7.4776Zm3.059-21.4765c25.0299,3.5651,41.1059,11.1441,40.4159,15.9865s-18.242,7.6317-43.2721,4.0666c-25.0303-3.5651-41.1057-11.1441-40.416-15.9865s18.2425-7.6316,43.2722-4.0666Z" fill="#371a45"></path>
        <path d="M22.1654,51.2398l-.5828,4.0918c-1.0846,7.6148,29.3887,18.254,68.0642,23.7626c38.6752,5.5087,70.9072,3.8006,71.9922-3.8141l.583-4.0919" fill="#945cc6"></path>
        <path d="M89.6306,79.2094c18.7124,2.6653,36.5104,3.736,50.1154,3.0152c13.659-.7237,21.475-3.1844,22.008-6.928l.583-4.0925-.23-.0328-.583,4.0925c-1.074,7.5396-33.31,9.2063-71.8606,3.7154-38.5505-5.4908-69.0395-16.0915-67.9657-23.6311l.5829-4.0925-.23-.0327-.5829,4.0924c-.5332,3.7437,6.2854,8.2888,19.199,12.7973c12.8622,4.4905,30.2513,8.4316,48.9639,11.0968Z" fill="#371a45"></path>
        <g opacity="0.3">
          <path d="M21.8527,53.4337l-.2704,1.8985c-1.0845,7.6142,29.3888,18.2534,68.0649,23.7622c38.6758,5.5087,70.9078,3.8006,71.9928-3.8135l.27-1.8986c-1.084,7.6148-33.316,9.3223-71.9924,3.8135C51.2409,71.687,20.7681,61.0484,21.8527,53.4337Z" opacity="0.3" fill="#371a45"></path>
        </g>
        <path d="M89.5458,79.8062c18.7502,2.6706,36.5892,3.7429,50.2312,3.0204c9.889-.5238,21.832-2.2403,22.573-7.4444l.583-4.0925c.027-.1887-.022-.3804-.136-.5329-.115-.1525-.285-.2532-.474-.2801-.188-.0269-.38.0223-.532.1368-.153.1145-.253.2849-.28.4736l-.583,4.0925c-.899,6.3152-29.716,9.1095-71.1795,3.2037-41.4638-5.9058-68.3521-16.6348-67.4526-22.9499l.5829-4.0925c.0269-.1888-.0223-.3805-.1366-.5329s-.2846-.2533-.4732-.2801c-.1886-.0269-.3802.0223-.5326.1368s-.253.2849-.2799.4736l-.5829,4.0925c-.7413,5.2041,10.2476,10.1868,19.5967,13.4507c12.8964,4.5031,30.326,8.4541,49.0755,11.1247Z" fill="#371a45"></path>
        <path d="M90.3111,75.0141C51.6357,69.5055,21.1623,58.8666,22.2469,51.2515s33.3166-9.3227,71.992-3.8141C132.914,52.946,163.388,63.5849,162.303,71.2c-1.084,7.6151-33.316,9.3228-71.9919,3.8141Z" fill="#b8c5d3"></path>
        <g opacity="0.5">
          <path d="M89.7427,71.8405c2.475.3525,4.6156-.7848,4.8726-2.5894s-1.4808-3.4948-3.9558-3.8474-4.615.7849-4.8721,2.59s1.4803,3.4942,3.9553,3.8468Zm.714-5.0133c1.6219.231,2.8755,1.2484,2.7369,2.2214-.1386.9731-1.6258,1.6001-3.2482,1.369s-2.8754-1.2484-2.7369-2.2214c.1386-.9731,1.6258-1.6001,3.2482-1.369Z" opacity="0.5" fill="#fff"></path>
        </g>
        <g opacity="0.5">
          <path d="M62.3993,67.0524c1.0245.1459,2.031.0311,2.8691-.3301.9939-.4294,1.6612-1.1882,1.8302-2.0808s-.1739-1.8432-.9422-2.6069c-.7061-.6997-1.7115-1.2024-2.8327-1.4178-2.4529-.4656-4.6458.5725-4.9853,2.3635-.3395,1.7911,1.3191,3.5588,3.7749,4.0248.0956.0178.1909.0338.286.0473Zm.438-5.0592c.0728.0104.1461.0208.2194.0361.8294.1577,1.5905.5309,2.0876,1.0253.2491.2476.6508.7518.543,1.3194s-.6654.889-.9882,1.0288c-.6437.278-1.4862.3467-2.3182.1899-1.6094-.3054-2.8142-1.3793-2.6312-2.3448.175-.9218,1.5626-1.4719,3.0876-1.2547Z" opacity="0.5" fill="#fff"></path>
        </g>
        <g opacity="0.5">
          <path d="M39.5433,59.7336c2.3336.3324,4.3634-.6918,4.6902-2.4104.1698-.8931-.1733-1.8431-.9409-2.6073-.7055-.6996-1.711-1.2059-2.8315-1.4218-1.1205-.216-2.2414-.1138-3.153.2806-.9945.4294-1.6623,1.1875-1.8326,2.0805-.1691.8932.174,1.8432.9416,2.6074.7055.6997,1.711,1.206,2.8309,1.4218.1002.0191.1967.0352.2953.0492Zm.4311-5.0607c.0727.0103.1455.0207.2181.0364.8294.1577,1.5904.5315,2.0869,1.0259.249.2481.6508.7517.5424,1.3199-.1831.9655-1.703,1.5237-3.3068,1.2168-.83-.1578-1.5904-.5315-2.0875-1.0259-.249-.2482-.6508-.7518-.5423-1.3199.1082-.5706.6654-.889.9888-1.0287.5874-.2531,1.3423-.3325,2.1004-.2245Z" opacity="0.5" fill="#fff"></path>
        </g>
        <g opacity="0.5">
          <path d="M116.648,74.7791c.098.014.196.0279.295.0353c2.488.2382,4.572-.9964,4.748-2.8107.174-1.8146-1.641-3.4242-4.127-3.6615-1.136-.1091-2.243.0934-3.116.5706-.951.5182-1.547,1.3375-1.636,2.2396-.162,1.7427,1.501,3.2942,3.836,3.6267Zm3.615-2.9123c-.094.9782-1.551,1.673-3.181,1.5169s-2.929-1.1151-2.835-2.0934c.055-.578.581-.9472.89-1.1153.615-.3359,1.45-.4818,2.291-.4016c1.63.1579,2.928,1.1151,2.835,2.0934Z" opacity="0.5" fill="#fff"></path>
        </g>
        <g opacity="0.5">
          <path d="M140.646,74.1337c.098.0141.198.0282.299.0355c1.136.1084,2.242-.0947,3.116-.5748.95-.5195,1.545-1.3377,1.631-2.2409.086-.9033-.343-1.8194-1.178-2.5093-.767-.6336-1.816-1.0418-2.949-1.1499-1.134-.1081-2.243.0947-3.116.5748-.951.5195-1.545,1.3377-1.632,2.2409-.167,1.7406,1.496,3.2915,3.829,3.6237Zm.999-4.9797c.759.1079,1.461.395,1.955.802.271.2243.717.6858.662,1.2638s-.581.9472-.89,1.1159c-.615.3361-1.45.4825-2.29.4024-1.629-.1559-2.93-1.1135-2.836-2.0918.055-.5781.58-.9472.889-1.116.615-.3359,1.45-.4825,2.291-.4022.073.0068.147.0156.219.0259Z" opacity="0.5" fill="#fff"></path>
        </g>
        <g opacity="0.5">
          <path d="M52.0515,49.2109c-.5071,3.5598,16.9865,11.2024,39.4537,14.4024c22.4668,3.2001,41.3988.7439,41.9058-2.8142s-17.295-9.0385-39.7618-12.2385c-22.4667-3.1999-41.0911-2.9066-41.5977.6503Z" opacity="0.5" fill="#fff"></path>
        </g>
        <g opacity="0.3">
          <path d="M63.8886,52.9801c0,0-11.7085,3.9494-14.1222,6.4917s-6.6567,5.0608-6.6567,5.0608-34.2427-11.9407-15.0388-17.4204c0,0-4.9829,2.292-4.0434,4.6403c1.3598,3.3985,8.7832,7.3336,13.7883,9.1777c1.3162.4876,2.7306.6504,4.1232.4746s2.7225-.6849,3.8769-1.4843c3.1012-2.1568,8.3651-5.2111,15.6139-7.2924c2.4915-.714,2.4588.352,2.4588.352Z" opacity="0.3" fill="#371a45"></path>
        </g>
        <g opacity="0.3">
          <path d="M120.993,61.1136c0,0,10.141,7.0614,11.749,10.1765c1.607,3.1152,4.978,6.7181,4.978,6.7181s36.215-1.9052,19.305-12.5288c0,0,4.243,3.6733,2.587,5.5847-2.785,3.2133-10.146,4.5404-15.462,4.9384-1.497.1106-2.999-.1411-4.378-.7338s-2.596-1.5091-3.546-2.6716c-2.406-2.9341-6.556-7.2153-12.773-11.1361-2.193-1.3801-2.46-.3474-2.46-.3474Z" opacity="0.3" fill="#371a45"></path>
        </g>
        <g opacity="0.3">
          <path d="M121.338,61.5342c0,0,14.616,10.6018,16.22,16.6019c0,0-19.741.7958-47.3275-3.1335-27.5868-3.9292-46.5168-10.6787-46.5168-10.6787s13.4543-11.5533,21.2393-11.0274c7.7851.5259,2.1503.8755,2.1503.8755s-11.4846,3.2389-17.863,7.8342c-.9738.7001-.7211,2.213.4314,2.5444c6.0928,1.7515,22.3599,6.1392,41.039,8.7997c18.4433,2.6269,34.6053,2.9828,40.9043,3.0101c1.203.0047,1.874-1.388,1.124-2.3264-1.1-1.3639-2.28-2.6617-3.533-3.8867-2.542-2.4986-9.509-7.9864-9.509-7.9864l1.641-.6267Z" opacity="0.3" fill="#371a45"></path>
        </g>
        <path d="M55.5368,48.2843c-.5844,4.103,15.8353,9.8359,36.6749,12.8041c20.8393,2.9683,38.2073,2.0478,38.7923-2.0552.584-4.1031-37.1235-9.6613-37.1235-9.6613s-37.7592-5.1912-38.3437-1.0876Z" fill="#102770"></path>
        <path d="M92.1904,61.2371c21.2406,3.0254,38.3566,2.0666,38.9616-2.1797.588-4.1318-33.3757-9.2593-37.2504-9.8304-3.8812-.5336-37.9253-5.0926-38.5138-.9608-.6048,4.2463,15.5605,9.9454,36.8026,12.9709Zm1.6688-11.7166c10.4458,1.54,37.4578,6.2465,36.9948,9.4916-.267,1.8791-4.517,3.172-11.659,3.5519-7.318.3873-16.893-.1893-26.963-1.6235-10.0694-1.4342-19.4252-3.5546-26.3431-5.969-6.753-2.3578-10.4726-4.7869-10.205-6.6661.4628-3.245,27.7148-.2226,38.1759,1.2152l-.0006-.0001Z" fill="#371a45"></path>
        <path d="M96.4332,61.7424c-.2714-.0282-.5437-.058-.8171-.0894l-.0199-.0028c-1.1142-.1268-2.2484-.2721-3.4024-.4361-1.9797-.282-3.897-.6036-5.725-.9544-10.5124-2.015-18.1005-5.0125-17.7814-7.2528.2705-1.8991,12.9658-.6919,20.0004.1261l.2749.0326c.58.0677,1.1185.133,1.6027.1929c1.6563.203,2.6992.3461,2.6992.3461s.798.1179,2.1009.3263l.2542.0398c.7321.118,1.6049.2615,2.5734.4264c7.0469,1.199,19.1329,3.534,18.8669,5.3997-.311,2.1857-8.052,2.9627-18.323,2.0713-.0399-.0057-.0791-.0077-.1182-.0108l-2.1856-.2149Z" fill="#102770"></path>
        <path d="M92.1726,61.3621c1.1348.1616,2.2806.3086,3.4064.4372.2944.0342.5662.0639.8381.0924l2.1845.2147c.0515.0044.0841.0066.1182.0109c8.9382.7758,18.1192.3962,18.4892-2.1994.215-1.5139-6.174-3.3874-18.992-5.569-.9679-.1648-1.8413-.3084-2.5734-.4264l-.2553-.04c-1.3035-.2084-2.1015-.3263-2.1015-.3263-.0124-.0017-1.0646-.1462-2.7045-.3468-.4848-.0601-1.0232-.1254-1.604-.1925l-.2748-.0332c-9.0497-1.0493-19.8941-1.906-20.1661.0037-.3821,2.6825,8.7126,5.6603,17.9016,7.4214c1.8668.3564,3.7955.6772,5.7336.9533Zm4.2774.2317c-.2706-.0285-.5421-.0584-.8146-.0896-3.0949-.3546-6.1864-.8254-9.1363-1.3912-10.5316-2.0189-17.9594-4.9983-17.6622-7.0848.1801-1.2643,7.5948-1.1693,19.8348.2542l.2749.0325c.5795.0676,1.1186.133,1.6016.1928c1.6358.2,2.6868.3443,2.6974.3458c0,0,.7957.1176,2.0969.3257l.2547.0398c.7309.1179,1.6037.2614,2.5734.4265c11.9154,2.0279,18.9234,3.9834,18.7454,5.2313-.287,2.0142-7.925,2.8316-18.1622,1.9427l-.1046-.0095-2.1992-.2162Z" fill="#371a45"></path>
        <path d="M55.5362,48.2837c-.0679.4769.0939.9756.4632,1.4896c5.496-2.5197,37.5548,1.8889,37.5548,1.8889s32.0158,4.7176,36.5878,8.6714c.499-.3903.794-.8241.862-1.3009.584-4.1019-37.1235-9.6613-37.1235-9.6613s-37.7604-5.1872-38.3443-1.0877Z" fill="#7a7a7a"></path>
        <path d="M130.138,60.5281l.097-.076c.539-.42.845-.8904.918-1.3984.588-4.1306-33.3758-9.2587-37.2504-9.8303-3.8813-.5331-37.9261-5.0916-38.5144-.9609-.0724.5079.0906,1.0452.4906,1.5989l.072.1001.1121-.0517c5.3943-2.4731,37.1523,1.8573,37.4717,1.901.3195.0437,32.0224,4.7557,36.5114,8.6365l.092.0808ZM93.5758,51.5135c-1.303-.179-31.7457-4.3287-37.5228-1.9293-.3015-.4515-.4251-.8825-.3682-1.2819.4621-3.2439,27.7135-.2222,38.1752,1.2158c10.446,1.5399,37.457,6.247,36.995,9.4909-.057.3993-.296.7787-.711,1.1281-4.878-3.9169-35.2683-8.4319-36.5682-8.6236Z" fill="#371a45"></path>
        <path d="M90.1283,75.7141c18.7497,2.6706,36.5887,3.743,50.2317,3.0205c9.888-.5239,21.832-2.2403,22.573-7.445s-10.248-10.1869-19.597-13.4508c-12.898-4.5033-30.327-8.4537-49.0772-11.1243-18.7501-2.6706-36.5892-3.7429-50.2316-3.0204-9.8886.5238-21.8317,2.2403-22.573,7.4444s10.2476,10.1874,19.5968,13.4513c12.8981,4.5028,30.3278,8.4538,49.0773,11.1243Zm3.9279-27.5773C135.52,54.0426,162.41,64.7712,161.511,71.0864c-.9,6.3152-29.714,9.1104-71.18,3.2043-41.4661-5.9061-68.352-16.6354-67.4526-22.95.8994-6.3145,29.714-9.1097,71.1778-3.2039Z" fill="#371a45"></path>
        <path d="M55.9455,49.0196c-.5766,4.0484,15.6242,9.7045,36.1856,12.6331c20.5619,2.9287,37.6969,2.0207,38.2739-2.0278c2.021-14.1865-1.14-44.327-31.0644-48.5892C69.4161,6.77349,57.9661,34.833,55.9455,49.0196Z" fill="#00c9ff"></path>
        <g opacity="0.5">
          <path d="M128.83,60.8081c2.021-14.1866-1.14-44.3271-31.0642-48.5893-10.5236-1.4989-18.7614,1.0024-25.1069,5.4891c6.5406-5.2175,15.2656-8.29824,26.6817-6.6722C129.266,15.298,132.426,45.4384,130.405,59.625c-.104.7317-.752,1.3596-1.859,1.882.148-.2076.245-.447.284-.6989Z" opacity="0.5" fill="#fff"></path>
        </g>
        <path d="M91.9945,62.6129c15.3505,2.1865,38.5035,3.2319,39.3695-2.8513.509-3.5698,1.75-16.1789-3.623-28.5403-5.19-11.9392-14.963-19.2514-28.2636-21.1457C69.2702,5.77307,57.166,33.5789,54.9862,48.8829c-.8664,6.0832,21.6573,11.5436,37.0083,13.73Zm7.2094-50.6171c28.6901,4.0864,32.3271,32.8526,30.2421,47.4925-.119.8345-2.514,2.3634-10.735,2.7987-7.168.3799-16.557-.1862-26.443-1.5944-9.8865-1.4081-19.0597-3.4858-25.8367-5.8518-7.7727-2.7135-9.6454-4.8489-9.5263-5.6846c1.0104-7.0938,4.4363-17.4991,11.0194-25.4271c7.9768-9.6054,18.501-13.5533,31.2795-11.7333Z" fill="#371a45"></path>
        <path d="M90.7958,71.0297c-2.0448-.2913-3.5426-1.6498-3.3454-3.0343s2.0147-2.2708,4.0595-1.9795c2.0448.2912,3.5426,1.6497,3.3454,3.0342-.1972,1.3846-2.0147,2.2708-4.0595,1.9796Z" fill="#ffce00"></path>
        <path d="M90.7745,71.1784c2.1235.3025,4.0207-.643,4.2292-2.107s-1.3493-2.9009-3.4728-3.2034c-2.1235-.3024-4.0206.6424-4.2291,2.1064s1.3492,2.9016,3.4727,3.204Zm.7142-5.0138c1.9598.2791,3.404,1.5633,3.2187,2.8646-.1854,1.3013-1.9308,2.1312-3.8906,1.8521-1.9598-.2792-3.4034-1.5633-3.2181-2.8646.1854-1.3013,1.9302-2.1313,3.89-1.8521Z" fill="#371a45"></path>
        <g opacity="0.3">
          <path d="M87.4498,67.9955c-.0375.2662-.0148.5375.0665.7938.6237-.9405,2.1252-1.4708,3.7729-1.2361c1.6476.2346,2.9414,1.1631,3.2777,2.2403.1499-.2232.2474-.4774.2855-.7436.1972-1.3841-1.3017-2.7432-3.346-3.0344-2.0443-.2911-3.8595.5959-4.0566,1.98Z" opacity="0.3" fill="#102770"></path>
          <path d="M87.4694,69.1342l.1737-.2616c.6104-.9227,2.0686-1.3926,3.6265-1.1707c1.5578.2219,2.8257,1.0801,3.1554,2.1366l.0938.2998.1743-.2616c.1628-.2417.2691-.5169.3111-.8053.2085-1.464-1.3499-2.901-3.4734-3.2035s-4.0212.6424-4.2297,2.1064c-.04.2886-.0148.5825.0739.8601l.0944.2998Zm4.0192-2.9697c1.9598.2791,3.404,1.5633,3.2187,2.8646-.0211.1423-.061.281-.1187.4127-.4892-1.0205-1.7581-1.8208-3.2785-2.0373-1.5203-.2166-2.9616.1977-3.7169,1.041-.0186-.1426-.0182-.287.0013-.4295.1887-1.2996,1.9343-2.1307,3.8941-1.8515Z" opacity="0.3" fill="#371a45"></path>
        </g>
        <path d="M90.6945,71.7417c2.4749.3525,4.615-.7855,4.872-2.59.2571-1.8046-1.4779-3.4939-3.9553-3.8468-2.4773-.3528-4.6149.7849-4.872,2.5895-.257,1.8046,1.4803,3.4948,3.9553,3.8473Zm.7141-5.0139c1.6218.231,2.8754,1.2484,2.7368,2.2214-.1386.9731-1.6258,1.6001-3.2482,1.369s-2.8754-1.2484-2.7368-2.2214c.1386-.9731,1.6264-1.6,3.2482-1.369Z" fill="#371a45"></path>
        <path d="M63.1963,66.1908c-2.0293-.3848-3.4632-1.8107-3.2027-3.1847.2604-1.374,2.1167-2.1759,4.146-1.7911s3.4632,1.8107,3.2027,3.1848c-.2604,1.374-2.1167,2.1759-4.146,1.791Z" fill="#ffce00"></path>
        <path d="M63.432,66.3908c.9212.1312,1.8216.0305,2.5622-.2894.8297-.3611,1.3619-.9498,1.4973-1.6651s-.1431-1.4583-.7842-2.0973c-.6262-.6224-1.5274-1.0707-2.5385-1.2602s-2.013-.107-2.8235.2455c-.8297.3611-1.362.9498-1.4974,1.6651-.1354.7152.1431,1.4583.7842,2.0978.6261.6225,1.5273,1.0708,2.5384,1.2603.0875.0161.1746.0309.2615.0433Zm.4328-5.0606c.0827.0118.166.0237.2485.0414.9525.1806,1.7987.5995,2.3831,1.1783.5685.5651.8172,1.2146.7011,1.8284-.1162.6137-.5857,1.1275-1.3219,1.4456-.7558.3261-1.6965.4072-2.6489.2261-.9524-.1812-1.7986-.5995-2.3831-1.1783-.5685-.5651-.8172-1.2146-.7011-1.8284.1163-.6144.5857-1.1275,1.3218-1.445.6902-.2984,1.5338-.3915,2.4005-.2681Z" fill="#371a45"></path>
        <g opacity="0.3">
          <path d="M59.9703,63.1942c-.1012.5338.054,1.0747.3996,1.5613.0035-.0246.0071-.0499.0106-.0745.2591-1.3735,2.1165-2.1743,4.1465-1.7911c1.2396.2365,2.2588.861,2.8029,1.6227.1977-1.3499-1.2211-2.7335-3.2147-3.1115-2.0281-.3835-3.8856.4178-4.1449,1.7931Z" opacity="0.3" fill="#102770"></path>
          <path d="M60.4652,65.1485l.053-.3717c.003-.0212.0061-.0429.0092-.0646.1159-.6168.5854-1.1299,1.3215-1.4481.7559-.3261,1.6958-.4061,2.6491-.2266c1.1554.2185,2.1678.8024,2.711,1.5622l.2165.3041.0526-.3694c.2117-1.4443-1.2533-2.8855-3.3354-3.2809-1.0123-.1897-2.0136-.1034-2.8238.2467-.8297.3612-1.362.9504-1.4974,1.6657-.1051.5572.0416,1.1371.4249,1.6782l.2188.3044Zm3.8326-2.4499c-.9224-.1314-1.8246-.0304-2.5658.2894-.7189.3104-1.2142.7953-1.4213,1.3835-.194-.3503-.2629-.7564-.1953-1.1512.1157-.6144.5852-1.1281,1.3213-1.4457.7553-.3268,1.6965-.4066,2.6492-.2278c1.6997.323,2.9932,1.4215,3.1038,2.5577-.6174-.6631-1.5707-1.1614-2.6363-1.3635-.0836-.0143-.1701-.029-.2558-.0412l.0002-.0012Z" opacity="0.3" fill="#371a45"></path>
        </g>
        <path d="M63.3509,66.9535c1.0245.1459,2.0312.0305,2.8686-.3302.9945-.4293,1.6617-1.1881,1.8308-2.0813s-.1739-1.8432-.9422-2.6069c-.7061-.6997-1.7121-1.2025-2.8327-1.4172-1.1207-.2147-2.241-.1125-3.1533.2824-.9945.4294-1.6617,1.1881-1.8309,2.0813-.1691.8933.1739,1.8438.9421,2.6075.7062.6998,1.7122,1.2025,2.8328,1.4173.0939.0175.1898.0336.2848.0471Zm.4417-5.0592c.0715.0102.1437.0205.2151.036.8301.1572,1.5911.531,2.0877,1.0247.2496.2483.6514.7519.5436,1.3195-.1077.5676-.6655.8896-.9882,1.0288-.6437.278-1.4898.3468-2.3182.1899-.8283-.1569-1.591-.531-2.0876-1.0247-.2496-.2483-.6519-.7489-.5437-1.3195s.6655-.8896.9883-1.0288c.5882-.2541,1.3437-.3341,2.103-.2259Z" fill="#371a45"></path>
        <path d="M40.3308,58.8715c-2.0291-.3859-3.4623-1.8125-3.2011-3.1864s2.1179-2.1748,4.147-1.7889s3.4622,1.8125,3.2011,3.1864c-.2612,1.3739-2.1179,2.1749-4.147,1.7889Z" fill="#ffce00"></path>
        <path d="M40.569,59.0702c.92.1311,1.8197.0309,2.5596-.2879.8297-.3611,1.3624-.9491,1.4984-1.6643s-.1425-1.4583-.7836-2.0978c-.6254-.623-1.5266-1.0713-2.5373-1.2638-2.1053-.4011-4.046.4555-4.3224,1.9086-.1353.7147.1431,1.4584.7836,2.0978.6255.6224,1.5267,1.0713,2.5373,1.2638.088.0167.1764.0311.2644.0436Zm.4317-5.0607c.0827.0118.166.0237.2497.0416.9524.1812,1.7978.6006,2.382,1.1817.5678.5656.8165,1.2151.6973,1.829-.1192.614-.5861,1.1269-1.3222,1.4444-.7559.3262-1.6954.4074-2.649.2219s-1.7979-.6006-2.3814-1.1816c-.5685-.5651-.8171-1.2153-.7004-1.8289.2365-1.2318,1.8786-1.9709,3.721-1.7085l.003.0004Z" fill="#371a45"></path>
        <g opacity="0.3">
          <path d="M37.1305,55.6931c-.1814.958.4614,1.9429,1.557,2.5818-.2392-.4223-.336-.8777-.25-1.3262.2609-1.3732,2.1177-2.1746,4.1462-1.7892.5805.1068,1.1384.3121,1.6497.607-.4891-.8701-1.5867-1.6041-2.9543-1.8588-2.0301-.3904-3.8875.4104-4.1486,1.7854Z" opacity="0.3" fill="#102770"></path>
          <path d="M39.0905,58.6841l-.2731-.4829c-.2286-.404-.309-.8271-.2333-1.2243.2436-1.29,2.0269-2.0408,3.9718-1.6698.5626.1038,1.1036.3024,1.5998.5874l.4784.2808-.2717-.4838c-.5254-.9352-1.6969-1.6797-3.0569-1.9333-1.01-.1924-2.0136-.1071-2.8239.2437-.8297.3611-1.3624.9491-1.4985,1.6649-.1886.9917.4352,2.0428,1.628,2.7387l.4794.2786Zm3.2627-3.715c-2.005-.2856-3.7986.559-4.0634,1.9515-.0586.317-.0383.6436.0591.9509-.8083-.6089-1.2129-1.4035-1.0707-2.1501.1169-.6143.5864-1.128,1.323-1.4455.7559-.3261,1.6977-.4064,2.6484-.2219c1.0259.1953,1.9331.6768,2.501,1.3053-.366-.1552-.7475-.2708-1.1381-.3449-.0871-.019-.1737-.0331-.2593-.0453Z" opacity="0.3" fill="#371a45"></path>
        </g>
        <path d="M40.4874,59.6327c1.0228.1456,2.031.0316,2.866-.3288.9944-.4288,1.6622-1.1874,1.8312-2.0801.1691-.8926-.1726-1.8436-.9402-2.6078-.7062-.6997-1.7111-1.2059-2.832-1.4189-2.4535-.4693-4.6466.57-4.9867,2.361-.1703.893.1726,1.8436.9409,2.6073.7056.6996,1.711,1.2059,2.8309,1.4218.0971.0166.1937.0317.2899.0455Zm.4352-5.0602c.0731.0104.1468.0227.221.0369.8301.1577,1.5909.5321,2.0875,1.0264.249.2482.6508.7518.543,1.3194-.1078.5677-.6655.8897-.9894,1.0287-.6436.2774-1.4902.3455-2.3179.1881s-1.5904-.5315-2.0875-1.0259c-.2491-.2482-.6509-.7518-.5424-1.3199.1747-.92,1.5612-1.4703,3.0856-1.2531l.0001-.0006Z" fill="#371a45"></path>
        <path d="M114.478,71.1264c.134-1.3921,1.909-2.3609,3.965-2.1639s3.614,1.4853,3.481,2.8774c-.134,1.3922-1.909,2.361-3.965,2.1639-2.056-.197-3.614-1.4853-3.481-2.8774Z" fill="#ffce00"></path>
        <path d="M117.686,74.1182c.087.0124.176.0251.264.031c1.024.0985,2.014-.0804,2.789-.5015.794-.4334,1.27-1.0708,1.339-1.7954.07-.7247-.274-1.4399-.973-2.0165-.681-.5624-1.62-.9257-2.643-1.0241s-2.015.0804-2.789.5015c-.794.4334-1.27,1.0709-1.339,1.7949-.07.7241.274,1.4404.97,2.0165.625.5144,1.462.8625,2.382.9936Zm.998-4.9801c.866.1234,1.651.4485,2.23.9276.618.5075.925,1.1342.866,1.7566-.06.6219-.48,1.1761-1.184,1.56-.723.3949-1.653.5609-2.617.4661s-1.846-.4326-2.481-.9568c-.617-.5109-.925-1.1347-.866-1.7571.06-.6225.48-1.1761,1.185-1.5599.722-.395,1.652-.561,2.616-.4661.084.0077.168.0179.251.0296Z" fill="#371a45"></path>
        <g opacity="0.3">
          <path d="M114.483,71.1215c-.062.6503.244,1.2763.797,1.778-.021-.138-.025-.2779-.012-.4168.134-1.3914,1.909-2.3603,3.965-2.1639c1.096.1052,2.053.5213,2.683,1.0976-.175-1.2233-1.62-2.2806-3.467-2.4579-2.058-.1973-3.832.7718-3.966,2.163Z" opacity="0.3" fill="#102770"></path>
          <path d="M115.49,73.293l-.061-.4154c-.018-.1263-.022-.2543-.01-.3814.126-1.3061,1.831-2.216,3.801-2.0277c1.021.0963,1.966.4838,2.597,1.0589l.309.2837-.06-.4148c-.19-1.3158-1.705-2.4051-3.602-2.5861-2.135-.204-3.987.8269-4.13,2.2985-.064.6744.236,1.3517.845,1.9035l.311.2808Zm4.013-3.0928c-.085-.012-.17-.0241-.255-.0309-2.134-.2039-3.986.8271-4.129,2.2987-.002.0152-.004.0305-.006.0463-.359-.4261-.53-.9058-.484-1.3786.126-1.3073,1.833-2.217,3.803-2.0281c1.518.1438,2.801.9304,3.213,1.9028-.584-.4103-1.336-.6954-2.142-.8102Z" opacity="0.3" fill="#371a45"></path>
        </g>
        <path d="M117.607,74.6815c.096.0136.192.0273.289.0339c1.136.1091,2.242-.0934,3.115-.57.951-.5188,1.547-1.3375,1.633-2.2408.086-.9032-.34-1.8188-1.177-2.509-.767-.6341-1.816-1.043-2.949-1.1516s-2.242.0934-3.116.57c-.95.5189-1.546,1.3376-1.632,2.2401-.087.9026.339,1.8195,1.177,2.5097.7.5796,1.636.9713,2.66,1.1177Zm.989-4.9813c.759.1081,1.463.3959,1.956.8041.271.2237.718.6858.662,1.2638s-.582.9465-.89,1.1153c-.615.3353-1.45.4818-2.291.4011-.84-.0808-1.633-.383-2.173-.8296-.271-.2238-.717-.6858-.662-1.2639s.581-.9465.89-1.1152c.616-.3354,1.451-.4818,2.291-.4011.073.0068.145.0153.217.0255Z" fill="#371a45"></path>
        <path d="M138.48,70.482c.132-1.3922,1.907-2.3619,3.963-2.166s3.615,1.4834,3.482,2.8756c-.132,1.3922-1.907,2.3619-3.963,2.166-2.056-.196-3.615-1.4834-3.482-2.8756Z" fill="#fff5a4"></path>
        <path d="M141.692,73.4391c.087.0123.176.0251.262.0307c1.017.0975,2.001-.0805,2.769-.5007.784-.4276,1.253-1.0564,1.321-1.7693.139-1.4536-1.474-2.7971-3.587-3.0022-1.018-.097-2.001.0811-2.771.5041-.783.4277-1.252,1.0565-1.32,1.7688-.132,1.3903,1.34,2.6857,3.326,2.9686Zm.995-4.9804c1.864.2654,3.247,1.4498,3.126,2.7219-.061.6337-.488,1.1978-1.201,1.5875-.729.3983-1.665.5663-2.636.4735-1.987-.1871-3.505-1.4225-3.381-2.7492.061-.6337.487-1.1973,1.201-1.5869.729-.3984,1.665-.5664,2.637-.4741.087.0058.171.0154.255.0274l-.001-.0001Z" fill="#371a45"></path>
        <path d="M141.595,74.0334c.099.0141.198.0282.299.0354c1.136.1085,2.243-.0946,3.116-.5747.951-.5189,1.546-1.3377,1.632-2.241.173-1.8147-1.644-3.4252-4.129-3.6593-1.136-.1085-2.243.0952-3.116.5718-.95.5195-1.545,1.3377-1.631,2.2415-.165,1.7447,1.499,3.2944,3.829,3.6263Zm1.003-4.9793c1.526.2173,2.702,1.132,2.614,2.0654-.056.5781-.582.9471-.89,1.1159-.615.336-1.45.4825-2.291.4024-1.63-.1562-2.929-1.1135-2.836-2.0918.055-.5776.581-.9466.889-1.1154.616-.3359,1.45-.4831,2.291-.4028.077.0076.152.0167.225.0272l-.002-.0009Z" fill="#371a45"></path>
        <path d="M138.48,70.482c.132-1.3922,1.907-2.3619,3.963-2.166s3.615,1.4834,3.482,2.8756c-.132,1.3922-1.907,2.3619-3.963,2.166-2.056-.196-3.615-1.4834-3.482-2.8756Z" fill="#ffce00"></path>
        <path d="M141.688,73.4729c.087.0122.176.025.263.0314c1.024.0972,2.014-.0822,2.789-.5052.794-.4339,1.269-1.0714,1.338-1.7956.14-1.4725-1.482-2.8342-3.618-3.0395-1.024-.0973-2.014.0816-2.789.5051-.793.4334-1.269,1.0715-1.338,1.7956-.135,1.411,1.351,2.7227,3.355,3.0082Zm.995-4.9805c1.846.2628,3.216,1.431,3.097,2.6824-.06.6219-.48,1.1768-1.181,1.5611-.722.395-1.652.5621-2.617.4696-1.971-.1848-3.472-1.404-3.348-2.7116.06-.6225.48-1.1768,1.181-1.5617.722-.395,1.652-.5615,2.617-.4696.084.0102.169.018.252.0299l-.001-.0001Z" fill="#371a45"></path>
        <g opacity="0.3">
          <path d="M138.482,70.4793c-.098,1.0155.708,1.9744,1.948,2.4944-.324-.4218-.488-.9006-.442-1.3912.133-1.3916,1.907-2.3647,3.961-2.1663.529.0485,1.048.1775,1.538.3826-.59-.7736-1.713-1.3583-3.044-1.4844-2.054-.1973-3.828.7717-3.961,2.1649Z" opacity="0.3" fill="#102770"></path>
          <path d="M140.894,73.3298l-.345-.4481c-.31-.4038-.453-.8489-.412-1.2858.06-.6219.48-1.1761,1.184-1.5612.722-.395,1.652-.5616,2.616-.4691.514.0463,1.018.1713,1.494.3709l.522.2229-.344-.4516c-.641-.8402-1.818-1.4159-3.15-1.5433-1.023-.0978-2.014.0811-2.788.5016-.793.4341-1.269,1.0716-1.338,1.7969-.1,1.0462.7,2.0853,2.04,2.6463l.521.2205Zm3.335-4.0319c-.087-.0124-.177-.0251-.263-.0314-1.024-.0979-2.014.0816-2.789.505-.794.4341-1.269,1.0716-1.338,1.7957-.032.3599.035.7216.194,1.0461-.939-.5297-1.478-1.3266-1.402-2.1169.059-.6225.479-1.1767,1.18-1.5616.723-.395,1.652-.5611,2.616-.4662.999.0942,1.899.4501,2.522.9876-.236-.0689-.477-.1218-.72-.1583Z" opacity="0.3" fill="#371a45"></path>
        </g>
        <path d="M141.595,74.0334c.099.0141.198.0282.299.0354c1.136.1085,2.243-.0946,3.116-.5747.951-.5189,1.546-1.3377,1.632-2.241.173-1.8147-1.644-3.4252-4.129-3.6593-1.136-.1085-2.243.0952-3.116.5718-.95.5195-1.545,1.3377-1.631,2.2415-.165,1.7447,1.499,3.2944,3.829,3.6263Zm1.003-4.9793c1.526.2173,2.702,1.132,2.614,2.0654-.056.5781-.582.9471-.89,1.1159-.615.336-1.45.4825-2.291.4024-1.63-.1562-2.929-1.1135-2.836-2.0918.055-.5776.581-.9466.889-1.1154.616-.3359,1.45-.4831,2.291-.4028.077.0076.152.0167.225.0272l-.002-.0009Z" fill="#371a45"></path>
        <path d="M43.324,65.3497c.1171.0168.2366.0045.3477-.036s.2106-.1079.2895-.1962c6.7669-7.5585,18.4526-10.0738,18.5696-10.0973.1829-.0425.3419-.1549.4431-.3132s.1363-.3499.098-.5338-.147-.3455-.3029-.4502c-.1558-.1047-.3464-.1442-.531-.11-.4973.1036-12.2591,2.6278-19.3466,10.5456-.0866.097-.1454.2157-.17.3434-.0247.1277-.0142.2597.0301.382.0444.1222.1211.2302.2219.3123s.2219.1353.3506.1539v-.0005Z" fill="#371a45"></path>
        <path d="M137.342,78.7409c.128.0179.26.0007.379-.05.12-.0507.224-.1329.301-.2379.076-.105.123-.2289.135-.3584s-.011-.2599-.067-.3772c-4.211-8.7788-13.545-14.3557-15.374-15.3843-.166-.0894-.36-.1102-.541-.0577s-.334.1739-.426.3383c-.092.1643-.117.3583-.067.5402.049.1819.167.3372.33.4324c1.762.9916,10.759,6.3634,14.781,14.7535.051.107.128.1996.224.2696s.207.1152.325.1315Z" fill="#371a45"></path>
        <g opacity="0.5">
          <path d="M125.412,50.5186c0,0,1.898-6.1023-2.403-14.003-3.674-6.7502-7.325-3.483-5.889.3842c1.971,5.3047,2.472,10.1727,2.732,15.3134.149,2.9409,4.355,4.8713,5.56-1.6946Z" opacity="0.5" fill="#fff"></path>
        </g>
        <g opacity="0.5">
          <path d="M114.853,30.2863c1.009.6559,4.3,1.5261,4.157-2.1976-.142-3.7236-3.919-5.3191-5.511-4.2655-.93.6148-1.438,4.6466,1.354,6.4631Z" opacity="0.5" fill="#fff"></path>
        </g>
        <g opacity="0.5">
          <path d="M151.486,64.7827c-3.196-2.5468-8.481-4.7207-13.523-5.1867-4.565-.4213,3.473,2.3628,6.281,3.4609c2.024.7904,5.706,2.836,7.497,3.4428c1.79.6067,1.767-.1055-.255-1.717Z" opacity="0.5" fill="#fff"></path>
        </g>
        <g opacity="0.3">
          <path d="M58.6683,50.0592c1.751-12.2932,10.6902-35.1455,32.8625-37.6416l.0254-.0144c-.7739.444-3.6864,2.1711-7.2899,5.0131-14.4172,11.3574-9.5216,34.3306,8.2706,38.8048c10.8121,2.7198,23.8381,4.5265,36.9281,2.8392.353-.0456.693-.0846,1.036-.1239-.022.1509-.04.3029-.061.4503-.568,3.9933-17.458,4.8865-37.7294,1.9993-14.678-2.0906-27.1017-5.5911-32.6201-8.8786-1.0275-.8563-1.5309-1.6847-1.4222-2.4482Z" opacity="0.3" fill="#371a45"></path>
        </g>
      </g>
      <clipPath id="eQ4AImLyorW211">
        <rect width="142.906" height="203.802" rx="0" ry="0" transform="matrix(-.990008-.141009-.141009 0.990008 170.217 20.1511)" fill="#fff"></rect>
      </clipPath>
    </g>
  </g>
</svg>
