<svg width="40" height="40" viewBox="0 0 40 40" fill="none" xmlns="http://www.w3.org/2000/svg">
<g>
<path fill-rule="evenodd" clip-rule="evenodd" d="M6.43593 26.5887L16.8112 16.2134L23.7885 23.1908L13.4133 33.566C11.4865 35.4927 8.36267 35.4927 6.43593 33.566V33.566C4.5092 31.6393 4.5092 28.5154 6.43593 26.5887V26.5887Z" stroke-width="1.5" stroke-linecap="round" stroke-linejoin="round"/>
<path fill-rule="evenodd" clip-rule="evenodd" d="M32.3615 21.4772L23.7845 23.193L16.8066 16.2151L18.5224 7.63815C18.8642 5.92629 20.4841 4.77993 22.2122 5.02706L22.389 5.05207C25.5589 5.50563 28.4963 6.97465 30.7608 9.23882V9.23882C33.025 11.5033 34.494 14.4407 34.9475 17.6106L34.9725 17.7874C35.2197 19.5155 34.0733 21.1354 32.3615 21.4772V21.4772Z" stroke-width="1.5" stroke-linecap="round" stroke-linejoin="round"/>
<path d="M9.99609 30.0042L13.3308 26.6694" stroke-width="1.5" stroke-linecap="round" stroke-linejoin="round"/>
</g>
</svg>
