<svg width="27" height="27" viewBox="0 0 27 27" fill="none" xmlns="http://www.w3.org/2000/svg">
<path d="M6.71518 7.45312L5.9648 4.07812H3.79468" stroke="#323232" stroke-width="2" stroke-linecap="round" stroke-linejoin="round"/>
<path fill-rule="evenodd" clip-rule="evenodd" d="M8.69734 16.6894L6.71509 7.45312H20.9553C21.672 7.45312 22.2052 8.1135 22.0556 8.81438L20.3658 16.6894C20.2545 17.208 19.7966 17.5781 19.2656 17.5781H9.79646C9.26659 17.5781 8.80871 17.208 8.69734 16.6894Z" stroke="#323232" stroke-width="2" stroke-linecap="round" stroke-linejoin="round"/>
<path d="M19.6482 21.6562C19.4153 21.6562 19.2263 21.8452 19.2285 22.0781C19.2285 22.311 19.4175 22.5 19.6504 22.5C19.8833 22.5 20.0723 22.311 20.0723 22.0781C20.0712 21.8452 19.8822 21.6562 19.6482 21.6562" stroke="#323232" stroke-width="2" stroke-linecap="round" stroke-linejoin="round"/>
<path d="M9.96292 21.6562C9.73005 21.6562 9.54105 21.8452 9.5433 22.0781C9.54217 22.311 9.73117 22.5 9.96405 22.5C10.1969 22.5 10.3859 22.311 10.3859 22.0781C10.3859 21.8452 10.1969 21.6562 9.96292 21.6562" stroke="#323232" stroke-width="2" stroke-linecap="round" stroke-linejoin="round"/>
</svg>
