<svg width="20" height="20" viewBox="0 0 20 20" fill="none" xmlns="http://www.w3.org/2000/svg">
<g clip-path="url(#clip0_4402_3064)">
<path d="M6.66666 10.8333V10.8417" stroke="#59608B" stroke-width="1.3" stroke-linecap="round" stroke-linejoin="round"/>
<path d="M10 14.1667V14.175" stroke="#59608B" stroke-width="1.3" stroke-linecap="round" stroke-linejoin="round"/>
<path d="M10 10V10.0083" stroke="#59608B" stroke-width="1.3" stroke-linecap="round" stroke-linejoin="round"/>
<path d="M13.3333 11.6667V11.675" stroke="#59608B" stroke-width="1.3" stroke-linecap="round" stroke-linejoin="round"/>
<path d="M9.16666 6.66667V6.67501" stroke="#59608B" stroke-width="1.3" stroke-linecap="round" stroke-linejoin="round"/>
<path d="M10.9567 2.89667L13.1792 3.81667C12.7387 4.39619 12.5 5.10396 12.4996 5.83187C12.4992 6.55979 12.7371 7.26783 13.1769 7.84784C13.6167 8.42785 14.2343 8.84794 14.9354 9.04395C15.6364 9.23997 16.3823 9.20112 17.0592 8.93334L17.1033 9.04334C17.3571 9.65589 17.3571 10.3441 17.1033 10.9567C16.6895 11.6122 16.405 12.1267 16.25 12.5C16.0928 12.88 15.9095 13.4956 15.7 14.3467C15.4461 14.9591 14.9593 15.4456 14.3467 15.6992C13.4733 15.9181 12.8578 16.1017 12.5 16.25C12.1045 16.4139 11.59 16.6983 10.9567 17.1033C10.3441 17.3571 9.65589 17.3571 9.04334 17.1033C8.37501 16.6845 7.86056 16.4 7.50001 16.25C7.10723 16.0878 6.49167 15.9045 5.65334 15.7C5.04089 15.4461 4.55439 14.9593 4.30084 14.3467C4.08029 13.4706 3.89667 12.855 3.75001 12.5C3.58445 12.1011 3.30001 11.5867 2.89667 10.9567C2.64296 10.3441 2.64296 9.65589 2.89667 9.04334C3.29612 8.42334 3.58056 7.9089 3.75001 7.50001C3.89279 7.15556 4.07612 6.54001 4.30001 5.65334C4.55393 5.04089 5.04073 4.55439 5.65334 4.30084C6.51279 4.08751 7.12834 3.9039 7.50001 3.75001C7.88167 3.59167 8.39612 3.30723 9.04334 2.89667C9.65589 2.64296 10.3441 2.64296 10.9567 2.89667Z" stroke="#59608B" stroke-width="1.3" stroke-linecap="round" stroke-linejoin="round"/>
</g>
<defs>
<clipPath id="clip0_4402_3064">
<rect width="20" height="20" fill="white"/>
</clipPath>
</defs>
</svg>
