<svg width="23" height="23" viewBox="0 0 23 23" fill="none" xmlns="http://www.w3.org/2000/svg">
<path d="M17.2501 19.4062V3.59375C17.2501 2.79984 16.6065 2.15625 15.8126 2.15625L7.18756 2.15625C6.39365 2.15625 5.75006 2.79984 5.75006 3.59375L5.75006 19.4062C5.75006 20.2002 6.39365 20.8437 7.18756 20.8437H15.8126C16.6065 20.8437 17.2501 20.2002 17.2501 19.4062Z"/>
<path d="M11.4999 6.46875C12.0953 6.46875 12.578 5.98606 12.578 5.39062C12.578 4.79519 12.0953 4.3125 11.4999 4.3125C10.9044 4.3125 10.4218 4.79519 10.4218 5.39062C10.4218 5.98606 10.9044 6.46875 11.4999 6.46875Z"/>
</svg>
