<svg width="40" height="40" viewBox="0 0 40 40" fill="none" xmlns="http://www.w3.org/2000/svg">
<path d="M28.3333 32.5H31.6666" stroke-linecap="round" stroke-linejoin="round"/>
<path fill-rule="evenodd" clip-rule="evenodd" d="M33.3333 36.6667H26.6666C24.8333 36.6667 23.3333 35.1667 23.3333 33.3333V20C23.3333 18.1667 24.8333 16.6667 26.6666 16.6667H33.3333C35.1666 16.6667 36.6666 18.1667 36.6666 20V33.3333C36.6666 35.1667 35.1666 36.6667 33.3333 36.6667Z" stroke-linecap="round" stroke-linejoin="round"/>
<path d="M25 5H30C31.8333 5 33.3333 6.5 33.3333 8.33333V10" stroke-linecap="round" stroke-linejoin="round"/>
<path d="M16.6667 31.8333H9.50008C8.00008 31.8333 6.66675 30.5 6.66675 29V25" stroke-linecap="round" stroke-linejoin="round"/>
<path d="M18.1667 5H16.1667L14.5 13.3333H6.16667L5 7.5H15.6667" stroke-linecap="round" stroke-linejoin="round"/>
<path d="M7.00008 17.5C7.00008 17.3333 7.00008 17.3333 7.00008 17.5C7.16675 17.5 7.16675 17.5 7.00008 17.5C7.00008 17.6667 7.00008 17.6667 7.00008 17.5C6.83341 17.5 6.83341 17.5 7.00008 17.5" stroke-linecap="round" stroke-linejoin="round"/>
<path d="M13.6666 17.5C13.6666 17.3333 13.6666 17.3333 13.6666 17.5C13.8333 17.5 13.8333 17.5 13.6666 17.5C13.6666 17.6667 13.6666 17.6667 13.6666 17.5C13.4999 17.5 13.4999 17.5 13.6666 17.5" stroke-linecap="round" stroke-linejoin="round"/>
</svg>
