<svg width="22" height="22" viewBox="0 0 22 22" fill="none" xmlns="http://www.w3.org/2000/svg">
<path fill-rule="evenodd" clip-rule="evenodd" d="M8.225 14.496H6.843C6.534 14.496 6.284 14.246 6.284 13.937V9.55503C6.284 9.24603 6.534 8.99603 6.843 8.99603H8.225C8.534 8.99603 8.784 9.24603 8.784 9.59703V13.979C8.784 14.245 8.534 14.496 8.225 14.496Z" stroke="#FFE000" stroke-width="1.5" stroke-linecap="round" stroke-linejoin="round"/>
<path d="M8.784 13.311L9.866 14.208C10.09 14.394 10.373 14.496 10.664 14.496H14.247C14.696 14.496 15.091 14.198 15.215 13.766L15.947 11.204C16.058 10.817 15.993 10.4 15.77 10.065C15.518 9.68602 15.095 9.45902 14.642 9.45902H14.022H12.977L12.982 7.75702C12.986 6.49202 11.325 6.02202 10.665 7.10102L8.783 10.182" stroke="#FFE000" stroke-width="1.5" stroke-linecap="round" stroke-linejoin="round"/>
<path fill-rule="evenodd" clip-rule="evenodd" d="M11.607 2.27102L13.057 1.56202C13.726 1.23502 14.535 1.49702 14.884 2.15602L15.641 3.58202C15.841 3.95802 16.203 4.22102 16.623 4.29502L18.213 4.57402C18.947 4.70302 19.446 5.39002 19.342 6.12802L19.116 7.72602C19.056 8.14802 19.195 8.57402 19.491 8.88002L20.613 10.04C21.131 10.575 21.131 11.425 20.613 11.961L19.491 13.121C19.195 13.427 19.056 13.853 19.116 14.275L19.342 15.873C19.446 16.611 18.947 17.298 18.213 17.427L16.623 17.706C16.203 17.78 15.841 18.043 15.641 18.419L14.884 19.845C14.535 20.503 13.727 20.766 13.057 20.439L11.607 19.73C11.224 19.543 10.777 19.543 10.394 19.73L8.944 20.439C8.275 20.766 7.466 20.504 7.117 19.845L6.36 18.418C6.16 18.042 5.798 17.779 5.378 17.705L3.788 17.426C3.054 17.297 2.555 16.61 2.659 15.872L2.885 14.274C2.945 13.852 2.806 13.426 2.51 13.12L1.388 11.96C0.87 11.425 0.87 10.575 1.388 10.039L2.51 8.87902C2.806 8.57302 2.945 8.14702 2.885 7.72502L2.66 6.12702C2.555 5.39002 3.055 4.70202 3.789 4.57402L5.379 4.29502C5.798 4.22102 6.16 3.95802 6.36 3.58202L7.117 2.15602C7.466 1.49802 8.274 1.23502 8.944 1.56202L10.394 2.27102C10.776 2.45802 11.224 2.45802 11.607 2.27102Z" stroke="#FFE000" stroke-width="1.5" stroke-linecap="round" stroke-linejoin="round"/>
</svg>
