<svg width="14" height="15" viewBox="0 0 14 15" fill="none" xmlns="http://www.w3.org/2000/svg">
<path opacity="0.6" d="M13.623 5.81532L7.78969 0.311572C7.78683 0.309085 7.78415 0.306405 7.78167 0.303552C7.5669 0.108232 7.28702 0 6.99672 0C6.70642 0 6.42654 0.108232 6.21177 0.303552L6.20375 0.311572L0.376979 5.81532C0.258123 5.92462 0.163249 6.05739 0.0983584 6.20525C0.0334682 6.3531 -2.45312e-05 6.51281 1.34807e-08 6.67428V13.4154C1.34807e-08 13.7248 0.122916 14.0216 0.341709 14.2404C0.560501 14.4592 0.857247 14.5821 1.16667 14.5821H4.66667C4.97609 14.5821 5.27283 14.4592 5.49162 14.2404C5.71042 14.0216 5.83333 13.7248 5.83333 13.4154V9.91543H8.16667V13.4154C8.16667 13.7248 8.28958 14.0216 8.50838 14.2404C8.72717 14.4592 9.02391 14.5821 9.33333 14.5821H12.8333C13.1428 14.5821 13.4395 14.4592 13.6583 14.2404C13.8771 14.0216 14 13.7248 14 13.4154V6.67428C14 6.51281 13.9665 6.3531 13.9016 6.20525C13.8368 6.05739 13.7419 5.92462 13.623 5.81532ZM12.8333 13.4154H9.33333V9.91543C9.33333 9.60601 9.21042 9.30926 8.99162 9.09047C8.77283 8.87168 8.47609 8.74876 8.16667 8.74876H5.83333C5.52391 8.74876 5.22717 8.87168 5.00838 9.09047C4.78958 9.30926 4.66667 9.60601 4.66667 9.91543V13.4154H1.16667V6.67428L1.17469 6.66699L7 1.16543L12.826 6.66553L12.8341 6.67282L12.8333 13.4154Z" fill="#59608B"/>
</svg>
