<svg width="22" height="16" viewBox="0 0 22 16" fill="none" xmlns="http://www.w3.org/2000/svg">
<path d="M1 15C1 12.8 2.8 11 5 11H9C11.2 11 13 12.8 13 15" stroke="#FFD527" stroke-width="1.5" stroke-linecap="round" stroke-linejoin="round"/>
<path d="M9.5 2.00003C10.9 3.40003 10.9 5.60003 9.5 6.90003C8.1 8.20003 5.9 8.30003 4.6 6.90003C3.3 5.50003 3.2 3.40003 4.5 2.00003C5.8 0.60003 8.1 0.70003 9.5 2.00003" stroke="#FFD527" stroke-width="1.5" stroke-linecap="round" stroke-linejoin="round"/>
<path d="M15 10H18C19.7 10 21 11.3 21 13" stroke="#FFD527" stroke-width="1.5" stroke-linecap="round" stroke-linejoin="round"/>
<path d="M18.3 2.70002C19.3 3.70002 19.3 5.30002 18.3 6.20002C17.3 7.10002 15.7 7.20002 14.8 6.20002C13.9 5.20002 13.8 3.60002 14.8 2.70002C15.7 1.80002 17.3 1.80002 18.3 2.70002" stroke="#FFD527" stroke-width="1.5" stroke-linecap="round" stroke-linejoin="round"/>
</svg>
