<svg width="21" height="21" viewBox="0 0 21 21" fill="none" xmlns="http://www.w3.org/2000/svg">
<path d="M7.99917 19.0037H2.99708C1.89162 19.0037 0.99625 18.1084 0.99625 17.0029V2.99708C0.99625 1.89162 1.89162 0.996246 2.99708 0.996246H17.0029C18.1084 0.996246 19.0037 1.89162 19.0037 2.99708V7.99916" stroke="#FFD527" stroke-width="1.5" stroke-linecap="round" stroke-linejoin="round"/>
<path d="M0.99625 5.99832H19.0037" stroke="#FFD527" stroke-width="1.5" stroke-linecap="round" stroke-linejoin="round"/>
<path fill-rule="evenodd" clip-rule="evenodd" d="M20.0042 15.0021V15.0021C20.0042 17.7652 17.7652 20.0042 15.0021 20.0042V20.0042C12.2389 20.0042 10 17.7652 10 15.0021V15.0021C10 12.2389 12.2389 10 15.0021 10V10C17.7652 10 20.0042 12.2389 20.0042 15.0021Z" stroke="#FFD527" stroke-width="1.5" stroke-linecap="round" stroke-linejoin="round"/>
<path fill-rule="evenodd" clip-rule="evenodd" d="M14.2828 13.0033L16.9199 14.5629C17.253 14.76 17.253 15.2432 16.9199 15.4403L14.2828 16.9999C13.9426 17.201 13.5135 16.9559 13.5135 16.5607V13.4424C13.5135 13.0473 13.9426 12.8022 14.2828 13.0033Z" stroke="#FFD527" stroke-width="1.5" stroke-linecap="round" stroke-linejoin="round"/>
</svg>
