<svg width="20" height="18" viewBox="0 0 20 18" fill="none" xmlns="http://www.w3.org/2000/svg">
<path d="M15 10L14 11L13 10" stroke="#323232" stroke-width="1.5" stroke-linecap="round" stroke-linejoin="round"/>
<path d="M13.892 10.892C13.958 10.604 14 10.308 14 10C14 7.791 12.209 6 9.99999 6C9.15099 6 8.36699 6.268 7.71899 6.719" stroke="#323232" stroke-width="1.5" stroke-linecap="round" stroke-linejoin="round"/>
<path fill-rule="evenodd" clip-rule="evenodd" d="M19 6V15C19 16.105 18.105 17 17 17H3C1.895 17 1 16.105 1 15V6C1 4.895 1.895 4 3 4H5L6.462 1.496C6.641 1.189 6.97 1 7.326 1H12.63C12.981 1 13.306 1.184 13.487 1.484L15 4H17C18.105 4 19 4.895 19 6Z" stroke="#323232" stroke-width="1.5" stroke-linecap="round" stroke-linejoin="round"/>
<path d="M5 10L6 9L7 10" stroke="#323232" stroke-width="1.5" stroke-linecap="round" stroke-linejoin="round"/>
<path d="M6.108 9.10791C6.042 9.39591 6 9.69191 6 9.99991C6 12.2089 7.791 13.9999 10 13.9999C10.849 13.9999 11.633 13.7319 12.281 13.2809" stroke="#323232" stroke-width="1.5" stroke-linecap="round" stroke-linejoin="round"/>
</svg>
