<svg width="40" height="40" viewBox="0 0 40 40" fill="none" xmlns="http://www.w3.org/2000/svg">
<g>
<path fill-rule="evenodd" clip-rule="evenodd" d="M32.2217 30H12.7783C11.2433 30 10 28.7567 10 27.2217V7.77833C10 6.24333 11.2433 5 12.7783 5H32.2233C33.7567 5 35 6.24333 35 7.77833V27.2233C35 28.7567 33.7567 30 32.2217 30V30Z" stroke-width="1.5" stroke-linecap="round" stroke-linejoin="round"/>
<path d="M25.446 11.9433C27.0727 13.57 27.0727 16.2083 25.446 17.8367C23.8193 19.4633 21.181 19.4633 19.5527 17.8367C17.9243 16.21 17.926 13.5717 19.5527 11.9433C21.1793 10.315 23.8177 10.3167 25.446 11.9433" stroke-width="1.5" stroke-linecap="round" stroke-linejoin="round"/>
<path d="M30 25.7233C29.7817 25.175 29.4433 24.6817 29.01 24.28V24.28C28.2783 23.6 27.32 23.2233 26.32 23.2233C24.6533 23.2233 20.3467 23.2233 18.68 23.2233C17.68 23.2233 16.7233 23.6017 15.99 24.28V24.28C15.5567 24.6817 15.2183 25.175 15 25.7233" stroke-width="1.5" stroke-linecap="round" stroke-linejoin="round"/>
<path d="M30 30V32.2217C30 33.7567 28.7567 35 27.2217 35H7.77833C6.24333 35 5 33.7567 5 32.2217V12.7783C5 11.2433 6.24333 10 7.77833 10H10" stroke-width="1.5" stroke-linecap="round" stroke-linejoin="round"/>
</g>
</svg>
