<svg width="24" height="24" viewBox="0 0 24 24" fill="none" xmlns="http://www.w3.org/2000/svg">
<path d="M1.5 11.25L3 9.75L4.5 11.25" stroke="#FFE000" stroke-width="1.5" stroke-linecap="round" stroke-linejoin="round"/>
<path d="M22.5 12.75L21 14.25L19.5 12.75" stroke="#FFE000" stroke-width="1.5" stroke-linecap="round" stroke-linejoin="round"/>
<path d="M3.235 9.98499C3.086 10.634 3 11.306 3 12C3 16.971 7.029 21 12 21C15.052 21 17.744 19.478 19.371 17.155" stroke="#FFE000" stroke-width="1.5" stroke-linecap="round" stroke-linejoin="round"/>
<path d="M20.765 14.015C20.914 13.366 21 12.694 21 12C21 7.029 16.971 3 12 3C8.948 3 6.256 4.522 4.629 6.845" stroke="#FFE000" stroke-width="1.5" stroke-linecap="round" stroke-linejoin="round"/>
<path d="M9.05 10.25H15.45L14.75 13.75H9.75L8.75 8.75H7.5" stroke="#FFE000" stroke-width="1.5" stroke-linecap="round" stroke-linejoin="round"/>
<path d="M14.285 16.215C14.305 16.235 14.305 16.266 14.285 16.286C14.265 16.306 14.234 16.306 14.214 16.286C14.194 16.266 14.194 16.235 14.214 16.215C14.234 16.195 14.266 16.195 14.285 16.215" stroke="#FFE000" stroke-width="1.5" stroke-linecap="round" stroke-linejoin="round"/>
<path d="M10.285 16.215C10.305 16.235 10.305 16.266 10.285 16.286C10.265 16.306 10.234 16.306 10.214 16.286C10.194 16.266 10.194 16.235 10.214 16.215C10.234 16.195 10.266 16.195 10.285 16.215" stroke="#FFE000" stroke-width="1.5" stroke-linecap="round" stroke-linejoin="round"/>
</svg>
