<svg width="20" height="20" viewBox="0 0 20 20" fill="none" xmlns="http://www.w3.org/2000/svg">
<path fill-rule="evenodd" clip-rule="evenodd" d="M16.3889 17.1875H3.61111C2.72864 17.1875 2.01389 16.4727 2.01389 15.5903V4.40972C2.01389 3.52726 2.72864 2.8125 3.61111 2.8125H16.3889C17.2714 2.8125 17.9861 3.52726 17.9861 4.40972V15.5903C17.9861 16.4727 17.2714 17.1875 16.3889 17.1875Z" stroke-width="1.3" stroke-linecap="round" stroke-linejoin="round"/>
<path d="M2.01389 6.80556H17.9861" stroke-width="1.3" stroke-linecap="round" stroke-linejoin="round"/>
<path d="M4.23323 4.80104C4.23083 4.80104 4.22924 4.80264 4.22924 4.80504C4.22924 4.80743 4.23083 4.80903 4.23323 4.80903C4.23562 4.80903 4.23722 4.80743 4.23722 4.80504C4.23722 4.80264 4.23562 4.80104 4.23323 4.80104" stroke-width="1.3" stroke-linecap="round" stroke-linejoin="round"/>
<path d="M6.26408 4.80104C6.26169 4.80104 6.26009 4.80264 6.26009 4.80504C6.26009 4.80743 6.26248 4.80903 6.26408 4.80903C6.26648 4.80903 6.26808 4.80743 6.26808 4.80504C6.26808 4.80264 6.26648 4.80104 6.26408 4.80104" stroke-width="1.3" stroke-linecap="round" stroke-linejoin="round"/>
<path d="M8.29176 4.80104C8.28937 4.80104 8.28777 4.80264 8.28777 4.80504C8.28777 4.80743 8.28937 4.80903 8.29176 4.80903C8.29416 4.80903 8.29575 4.80743 8.29575 4.80504C8.29575 4.80264 8.29416 4.80104 8.29176 4.80104" stroke-width="1.3" stroke-linecap="round" stroke-linejoin="round"/>
</svg>
