<svg width="26" height="26" viewBox="0 0 26 26" fill="none" xmlns="http://www.w3.org/2000/svg">
<path fill-rule="evenodd" clip-rule="evenodd" d="M8.73122 21.8328C8.22415 22.0975 7.61071 22.0509 7.14944 21.7126C6.68817 21.3744 6.45931 20.8033 6.55932 20.2401L7.36866 15.6012L3.96124 12.3358C3.54474 11.9386 3.3921 11.3382 3.56833 10.7903C3.74457 10.2425 4.21862 9.84364 4.78858 9.76375L9.51955 9.08747L11.6554 4.8267C11.9087 4.31571 12.4297 3.99243 13 3.99243C13.5703 3.99243 14.0913 4.31571 14.3446 4.8267L16.4805 9.08747L21.2114 9.76375C21.7814 9.84364 22.2554 10.2425 22.4317 10.7903C22.6079 11.3382 22.4553 11.9386 22.0388 12.3358L18.6313 15.6012L19.4407 20.2411C19.5407 20.8043 19.3118 21.3754 18.8506 21.7136C18.3893 22.0519 17.7759 22.0985 17.2688 21.8338L13 19.6279L8.73122 21.8328Z" stroke="#323232" stroke-width="1.5" stroke-linecap="round" stroke-linejoin="round"/>
</svg>
