<svg width="22" height="22" viewBox="0 0 22 22" fill="none" xmlns="http://www.w3.org/2000/svg">
<path fill-rule="evenodd" clip-rule="evenodd" d="M7.66307 18.9547C7.22605 19.1828 6.69736 19.1426 6.29982 18.8511C5.90228 18.5596 5.70504 18.0674 5.79123 17.582L6.48875 13.584L3.55209 10.7698C3.19314 10.4275 3.06159 9.91001 3.21347 9.43783C3.36536 8.96564 3.77392 8.62192 4.26513 8.55307L8.34248 7.97022L10.1833 4.29811C10.4015 3.85771 10.8506 3.5791 11.3421 3.5791C11.8336 3.5791 12.2826 3.85771 12.5009 4.29811L14.3417 7.97022L18.419 8.55307C18.9102 8.62192 19.3188 8.96564 19.4707 9.43783C19.6226 9.91001 19.491 10.4275 19.1321 10.7698L16.1954 13.584L16.8929 17.5829C16.9791 18.0683 16.7819 18.5604 16.3843 18.852C15.9868 19.1435 15.4581 19.1836 15.0211 18.9555L11.3421 17.0544L7.66307 18.9547Z" fill="#FFE000"/>
</svg>
