<svg width="40" height="40" viewBox="0 0 40 40" fill="none" xmlns="http://www.w3.org/2000/svg">
<g>
<path d="M4.99414 31.6715V31.6715C4.99506 28.063 7.92007 25.138 11.5285 25.1371H18.0629C21.6714 25.138 24.5964 28.063 24.5973 31.6715V31.6715" stroke-width="1.5" stroke-linecap="round" stroke-linejoin="round"/>
<path d="M32.8203 8.32843C35.7348 11.243 35.7348 15.9683 32.8203 18.8828" stroke-width="1.5" stroke-linecap="round" stroke-linejoin="round"/>
<path d="M27.8634 10.9679C29.3206 12.4252 29.3206 14.7878 27.8634 16.2451" stroke-width="1.5" stroke-linecap="round" stroke-linejoin="round"/>
<path fill-rule="evenodd" clip-rule="evenodd" d="M14.7959 19.5831C17.7887 19.5831 20.2148 17.157 20.2148 14.1642C20.2148 11.1714 17.7887 8.7453 14.7959 8.7453C11.8031 8.7453 9.37695 11.1714 9.37695 14.1642C9.37695 17.157 11.8031 19.5831 14.7959 19.5831Z" stroke-width="1.5" stroke-linecap="round" stroke-linejoin="round"/>
</g>
</svg>
