<svg width="20" height="20" viewBox="0 0 20 20" fill="none" xmlns="http://www.w3.org/2000/svg">
<path fill-rule="evenodd" clip-rule="evenodd" d="M10.8984 12.2457C10.8984 11.5022 11.5014 10.8984 12.2457 10.8984C12.99 10.8984 13.593 11.5014 13.593 12.2457C13.593 12.99 12.99 13.593 12.2457 13.593C11.5038 13.5961 10.9008 12.998 10.8984 12.2561C10.8984 12.2529 10.8984 12.2497 10.8984 12.2457Z" stroke-width="1.3" stroke-linecap="round" stroke-linejoin="round"/>
<path d="M11.2937 11.2938L8.70624 8.70625" stroke-width="1.3" stroke-linecap="round" stroke-linejoin="round"/>
<path d="M13.2024 11.2938L15.7819 8.70625" stroke-width="1.3" stroke-linecap="round" stroke-linejoin="round"/>
<path fill-rule="evenodd" clip-rule="evenodd" d="M9.10156 7.75431C9.10156 8.49781 8.49861 9.10156 7.75431 9.10156C7.01 9.10156 6.40625 8.49861 6.40625 7.75431C6.40625 7.0092 7.0092 6.40625 7.75431 6.40625C8.49622 6.40306 9.09917 7.00122 9.10156 7.74313C9.10156 7.74712 9.10156 7.75031 9.10156 7.75431Z" stroke-width="1.3" stroke-linecap="round" stroke-linejoin="round"/>
<path d="M4.21805 11.2938L6.79756 8.70625" stroke-width="1.3" stroke-linecap="round" stroke-linejoin="round"/>
<path fill-rule="evenodd" clip-rule="evenodd" d="M18.0859 7.75431C18.0859 8.49781 17.483 9.10156 16.7387 9.10156C15.9944 9.10156 15.3906 8.49861 15.3906 7.75431C15.3906 7.01 15.9936 6.40705 16.7379 6.40705C17.4798 6.40385 18.0827 7.00201 18.0851 7.74392C18.0859 7.74712 18.0859 7.75031 18.0859 7.75431V7.75431Z" stroke-width="1.3" stroke-linecap="round" stroke-linejoin="round"/>
<path fill-rule="evenodd" clip-rule="evenodd" d="M1.91406 12.2457C1.91406 11.5022 2.51701 10.8984 3.26132 10.8984C4.00562 10.8984 4.60937 11.5014 4.60937 12.2457C4.60937 12.99 4.00642 13.593 3.26212 13.593C2.52021 13.5961 1.91726 12.998 1.91486 12.2561C1.91406 12.2529 1.91406 12.2497 1.91406 12.2457Z" stroke-width="1.3" stroke-linecap="round" stroke-linejoin="round"/>
<path d="M2.88358 10.9591C2.84205 10.6445 2.8125 10.3258 2.8125 10C2.8125 6.03011 6.0301 2.8125 10 2.8125C12.6953 2.8125 15.0416 4.29872 16.2715 6.4941" stroke-width="1.3" stroke-linecap="round" stroke-linejoin="round"/>
<path d="M3.72849 13.5059C4.95835 15.7013 7.30467 17.1875 9.99998 17.1875C13.9699 17.1875 17.1875 13.9699 17.1875 10C17.1875 9.67417 17.1579 9.35552 17.1164 9.04087" stroke-width="1.3" stroke-linecap="round" stroke-linejoin="round"/>
</svg>
