<?xml version="1.0" encoding="UTF-8"?>
<svg xmlns="http://www.w3.org/2000/svg" width="170" height="266" viewBox="0 0 170 266" fill="none">
  <g clip-path="url(#clip0_1901_2078)">
    <path opacity="0.2" d="M85.0215 258.328C61.5634 258.328 42.5468 255.822 42.5468 252.73C42.5468 249.638 61.5634 247.131 85.0215 247.131C108.48 247.131 127.496 249.638 127.496 252.73C127.496 255.822 108.48 258.328 85.0215 258.328Z" fill="#371A45"></path>
    <path d="M97.9729 48.5941L118.655 93.3243C119.843 95.8923 122.943 96.9354 125.442 95.6056L130.869 92.7226L143.462 86.0371C145.809 84.791 146.745 81.9081 145.573 79.5228L143.955 76.218C133.287 80.9286 132.502 66.6503 137.894 63.8468L132.897 53.642H132.892L124.42 36.3413C123.244 33.9445 120.371 32.9173 117.94 34.0276L100.394 42.0509C97.9114 43.1814 96.8277 46.1164 97.9715 48.5926L97.9729 48.5941Z" fill="#9B9FBA"></path>
    <path d="M123.135 97.5827C124.155 97.5827 125.166 97.3321 126.097 96.8365L144.116 87.2695C147.148 85.6601 148.338 81.9883 146.826 78.911L145.209 75.6077C144.879 74.9352 144.077 74.6433 143.392 74.9453C141.097 75.9587 138.065 76.5482 136.649 73.6024C135.267 70.7295 136.256 66.2718 138.538 65.085C139.209 64.7361 139.48 63.9155 139.147 63.2365L134.15 53.0316C134.136 53.002 134.12 52.9731 134.104 52.9442L125.675 35.731C124.153 32.6306 120.502 31.3282 117.362 32.7628L99.8153 40.7861C98.279 41.4861 97.107 42.7444 96.5185 44.3293C95.9286 45.9178 95.9951 47.6399 96.7065 49.1792L117.389 93.9095C118.126 95.5038 119.449 96.6899 121.113 97.249C121.777 97.4722 122.459 97.5827 123.135 97.5827ZM143.267 77.985L144.321 80.1369C145.166 81.8576 144.501 83.9084 142.807 84.8077L124.786 94.3761C123.92 94.837 122.932 94.9194 122.002 94.6073C121.071 94.2945 120.333 93.6321 119.92 92.7407L99.2383 48.0105C98.8407 47.1494 98.8038 46.1865 99.1335 45.2987C99.4617 44.4145 100.115 43.7124 100.973 43.3209L118.521 35.2968C120.278 34.4943 122.319 35.2239 123.168 36.9561L131.64 54.256C131.654 54.2856 131.669 54.3145 131.686 54.3434L136.112 63.3816C133.097 65.9562 132.481 71.3724 134.133 74.8095C134.768 76.1285 137.225 80.0358 143.267 77.985Z" fill="#371A45"></path>
    <path d="M154.578 104.135C154.578 104.135 154.711 112.583 150.393 117.096C146.076 121.609 138.073 111.19 138.073 111.19L141.161 102.829" fill="#9B9FBA"></path>
    <path d="M110.667 43.1041L115.789 40.9557C117.019 40.44 118.438 40.9753 119.019 42.1737L137.591 80.4525C138.186 81.6783 137.74 83.1548 136.566 83.8476L124.279 91.1045C123.3 91.6823 122.059 91.5509 121.224 90.7816L120.84 90.4276" fill="#3FB1EA"></path>
    <path d="M147.799 119.623C149.179 119.623 150.419 119.086 151.401 118.059C156.06 113.189 155.978 104.481 155.972 104.113C155.96 103.351 155.338 102.741 154.578 102.741C154.571 102.741 154.563 102.741 154.556 102.741C153.786 102.753 153.171 103.387 153.183 104.155C153.184 104.268 153.239 112.104 149.385 116.133C148.893 116.646 148.344 116.873 147.658 116.831C144.971 116.688 141.332 112.95 139.654 110.933L142.47 103.31C142.736 102.588 142.367 101.787 141.644 101.52C140.921 101.254 140.119 101.623 139.852 102.345L136.764 110.706C136.598 111.156 136.674 111.658 136.966 112.038C137.54 112.786 142.719 119.355 147.505 119.615C147.603 119.62 147.701 119.623 147.798 119.623L147.799 119.623Z" fill="#371A45"></path>
    <path d="M130.27 100.308L131.597 102.828L159.094 105.914C159.094 105.914 161.752 100.969 159.094 90.8675C156.436 80.766 150.196 70.7085 143.955 61.6977C137.826 52.8502 133.068 53.6109 132.896 53.6427L137.893 63.8475C132.502 66.6503 133.287 80.9293 143.955 76.2187L145.573 79.5235C146.744 81.9088 145.808 84.791 143.461 86.0378L130.868 92.7233L130.27 100.308H130.27Z" fill="#299ADF"></path>
    <g opacity="0.6">
      <path d="M132.895 53.6436L133.995 55.8851C135.999 56.5584 139.111 58.4495 142.69 63.6137C148.931 72.6245 155.171 82.682 157.829 92.7835C159.518 99.2017 159.06 103.538 158.502 105.847L159.092 105.915C159.092 105.915 161.75 100.97 159.092 90.8685C156.434 80.767 150.194 70.7095 143.953 61.6987C137.824 52.8512 133.066 53.6119 132.894 53.6436H132.895Z" fill="white"></path>
    </g>
    <path d="M159.093 107.308C159.602 107.308 160.076 107.029 160.321 106.574C160.44 106.352 163.207 101.025 160.441 90.5138C157.653 79.9153 151.121 69.5992 145.1 60.9055C138.572 51.4823 133.229 52.1664 132.641 52.2733C132.212 52.3527 131.845 52.628 131.649 53.0173C131.453 53.4067 131.45 53.8647 131.642 54.2562L136.11 63.3818C133.095 65.9563 132.479 71.3726 134.132 74.8096C134.766 76.1286 137.223 80.0359 143.265 77.9851L144.319 80.137C145.164 81.8577 144.499 83.9085 142.805 84.8079L130.212 91.4933C129.792 91.7165 129.514 92.1399 129.476 92.6144L128.878 100.199C128.857 100.461 128.912 100.724 129.035 100.958L130.361 103.478C130.577 103.887 130.98 104.163 131.44 104.214L158.937 107.3C158.989 107.306 159.041 107.309 159.093 107.309V107.308ZM135.36 55.5059C137.099 56.2448 139.737 58.0609 142.806 62.4911C148.689 70.9854 155.064 81.0414 157.744 91.2217C159.603 98.285 158.728 102.672 158.182 104.41L132.486 101.526L131.691 100.016L132.197 93.5947L144.114 87.2682C147.145 85.6588 148.335 81.987 146.823 78.9097L145.206 75.6064C144.876 74.9339 144.075 74.642 143.389 74.944C141.094 75.9574 138.062 76.5469 136.646 73.6011C135.264 70.7282 136.253 66.2705 138.536 65.0837C139.207 64.7348 139.477 63.9142 139.145 63.2352L135.36 55.5059Z" fill="#371A45"></path>
    <path d="M54.6875 192.683C54.6875 192.683 54.8032 193.105 55.0107 193.818C55.8718 196.773 58.3342 204.708 60.7967 207.814C63.1955 210.836 84.5037 214.021 101.974 210.561H101.979C105.732 209.816 109.311 208.765 112.487 207.34C114.193 206.576 115.531 205.17 116.253 203.45C117.528 200.4 119.342 194.889 119.513 187.906C119.776 177.02 54.6883 192.683 54.6883 192.683H54.6875Z" fill="#9B9FBA"></path>
    <path d="M114.66 116.666C114.66 116.666 125.32 129.506 126.217 129.455C127.113 129.403 159.093 132.692 150.426 117.661C146.552 110.944 142.232 106.592 138.642 103.836C134.199 100.42 130.867 99.4443 130.867 99.4443L117.186 104.553L116.947 105.707L114.659 116.665L114.66 116.666Z" fill="white"></path>
    <path d="M116.948 105.708L120.842 108.826L138.073 104.286C138.073 104.286 138.296 104.119 138.643 103.836C134.199 100.42 130.868 99.4443 130.868 99.4443L117.187 104.553L116.948 105.707L116.948 105.708Z" fill="#371A45"></path>
    <path d="M133.59 131.113C143.795 131.113 150.102 129.27 152.377 125.611C153.837 123.262 153.587 120.353 151.634 116.965C142.789 101.626 131.725 98.2435 131.259 98.107C130.97 98.0232 130.661 98.034 130.379 98.1388L116.698 103.247C115.977 103.517 115.61 104.319 115.88 105.04C116.149 105.761 116.953 106.128 117.674 105.858L130.884 100.926C132.891 101.683 141.899 105.667 149.217 118.356C150.617 120.785 150.883 122.731 150.008 124.14C149.033 125.708 144.848 129.233 127.077 128.103C126.876 128.09 126.723 128.081 126.603 128.074C125.296 126.999 120.179 121.13 115.733 115.775C115.241 115.183 114.362 115.101 113.769 115.593C113.176 116.084 113.094 116.962 113.586 117.554C113.612 117.587 116.292 120.813 119.047 123.991C124.958 130.811 125.481 130.891 126.26 130.847C126.367 130.85 126.586 130.865 126.899 130.886C129.289 131.037 131.52 131.113 133.59 131.113H133.59Z" fill="#371A45"></path>
    <g opacity="0.2">
      <path d="M109.58 193.818C109.58 193.818 111.34 201.707 105.96 205.424C100.581 209.14 97.5919 204.694 98.3886 200.845C99.1853 196.996 99.7832 194.939 99.7832 194.939" fill="white"></path>
    </g>
    <path d="M85.3587 213.459C93.0851 213.459 104.143 212.617 113.059 208.612C115.079 207.706 116.67 206.063 117.538 203.987C118.979 200.543 120.733 194.963 120.905 187.938C120.935 186.706 120.412 185.62 119.393 184.796C118.009 183.679 113.799 180.282 83.3069 185.435C68.4946 187.938 54.5007 191.294 54.3612 191.327C53.9947 191.415 53.6802 191.647 53.4879 191.971C53.2956 192.295 53.2428 192.683 53.3411 193.046C53.4691 193.518 56.5084 204.651 59.7054 208.679C61.8505 211.381 72.2215 213.003 80.95 213.367C82.2347 213.421 83.7233 213.459 85.3594 213.459H85.3587ZM108.972 185.436C114.502 185.436 116.743 186.242 117.64 186.965C118.07 187.311 118.123 187.605 118.117 187.87C117.956 194.462 116.314 199.688 114.965 202.912C114.371 204.332 113.288 205.454 111.916 206.07C93.688 214.256 64.0288 209.639 61.891 206.947C59.8262 204.345 57.5257 197.441 56.4275 193.704C60.3359 192.797 71.7928 190.207 83.7855 188.181C95.9878 186.119 103.877 185.435 108.973 185.435L108.972 185.436Z" fill="#371A45"></path>
    <path d="M37.3512 154.141C40.5634 167.181 47.1548 183.032 50.231 190.1C51.2511 192.441 53.4273 194.065 55.9577 194.4C83.8095 198.087 107.038 194.312 118.61 190.39C122.616 189.036 125.226 187.662 126.15 186.576C129.872 182.196 128.601 168.527 128.601 168.527C128.601 168.527 124.955 154.591 124.759 136.964C124.56 119.337 118.913 101.837 118.913 101.837L118.909 101.833L108.485 98.0508C108.485 98.0508 80.7404 102.419 59.1142 107.989C47.4461 110.996 37.5551 114.352 34.7616 117.561C32.4943 120.169 31.3781 122.849 31.0477 125.751C30.2112 133.046 34.2952 141.734 37.352 154.141H37.3512Z" fill="white"></path>
    <path d="M31.0476 125.751L31.55 125.978C46.5937 129.454 103.444 117.561 118.914 101.837L118.91 101.833L108.485 98.0508C108.485 98.0508 42.7323 108.403 34.7622 117.561C32.495 120.169 31.3787 122.849 31.0483 125.751H31.0476Z" fill="#695374"></path>
    <g opacity="0.3">
      <path d="M37.3502 154.141C40.5623 167.181 47.1537 183.032 50.2299 190.1C51.25 192.441 53.4262 194.065 55.9566 194.4C83.8084 198.087 107.037 194.313 118.609 190.39C69.5658 178.202 63.7835 123.621 63.7835 123.621C56.5465 116.94 72.4946 111.987 72.4946 111.987L59.1131 107.989C47.445 110.996 37.554 114.352 34.7605 117.561C32.4932 120.169 31.377 122.849 31.0466 125.751C30.2101 133.046 34.2942 141.734 37.3509 154.141H37.3502Z" fill="#371A45"></path>
    </g>
    <g opacity="0.2">
      <path d="M95.584 105.372L100.445 112.319C100.445 112.319 83.1778 119.155 83.1778 118.756V109.138" fill="white"></path>
    </g>
    <g opacity="0.6">
      <path d="M32.4331 121.014C32.6203 120.766 32.8235 120.524 33.0346 120.277C41.0046 111.119 106.758 100.766 106.758 100.766L117.182 104.549L117.186 104.552C117.186 104.552 122.833 122.052 123.032 139.679C123.228 157.306 126.874 171.242 126.874 171.242C126.874 171.242 127.823 181.423 125.686 187.025C125.87 186.874 126.025 186.723 126.148 186.575C129.87 182.196 128.599 168.526 128.599 168.526C128.599 168.526 124.953 154.59 124.757 136.963C124.558 119.336 118.911 101.837 118.911 101.837L118.907 101.833L108.483 98.0503C108.483 98.0503 42.7297 108.402 34.7596 117.561C33.7756 118.695 33.0064 119.838 32.4324 121.013L32.4331 121.014Z" fill="white"></path>
    </g>
    <path d="M78.6858 197.304C89.0634 197.304 97.6783 196.351 103.992 195.309C115.519 193.409 124.851 190.261 127.214 187.479C131.198 182.787 130.124 169.857 129.989 168.398C129.981 168.323 129.968 168.248 129.95 168.175C129.914 168.037 126.346 154.184 126.153 136.949C125.955 119.315 120.297 101.588 120.241 101.411C120.109 101.002 119.795 100.676 119.39 100.529L108.96 96.7411C108.738 96.6602 108.5 96.6378 108.267 96.6739C108.102 96.7 91.5909 99.3106 74.3191 103.009C50.5499 108.098 37.266 112.559 33.7083 116.647C27.0786 124.265 29.5309 132.367 32.9246 143.583C33.9042 146.821 35.0154 150.492 35.9965 154.475C39.2817 167.812 46.1514 184.22 48.9521 190.656C50.1544 193.419 52.7687 195.383 55.7741 195.781C64.0861 196.881 71.7764 197.304 78.6851 197.304H78.6858ZM127.221 168.763C127.553 172.493 127.797 182.485 125.088 185.676C123.722 187.284 116.134 190.482 103.538 192.559C93.2075 194.262 76.5986 195.725 56.1414 193.018C54.1004 192.748 52.3255 191.416 51.5107 189.544C48.7382 183.173 41.94 166.939 38.7055 153.809C37.707 149.755 36.585 146.048 35.5945 142.777C32.3426 132.031 30.1946 124.932 35.8128 118.476C42.0369 111.324 89.9273 102.402 108.346 99.4839L117.785 102.912C118.783 106.216 123.192 121.653 123.363 136.98C123.551 153.728 126.871 167.368 127.221 168.764V168.763Z" fill="#371A45"></path>
    <path d="M48.3111 171.811C48.3111 171.811 54.2887 181.168 65.447 182.661C76.6054 184.154 72.4208 169.621 72.4208 169.621C72.4208 169.621 68.9339 165.341 66.4433 161.857C63.9526 158.373 66.0449 155.822 59.4695 157.944C52.8941 160.066 45.9203 166.436 48.3111 171.811Z" fill="#9B9FBA"></path>
    <path d="M66.9847 184.163C69.3828 184.163 71.2618 183.392 72.5834 181.862C76.1513 177.731 73.8602 169.582 73.7604 169.236C73.7084 169.056 73.6202 168.887 73.5016 168.741C73.4669 168.699 70.0133 164.454 67.5769 161.047C66.9645 160.19 66.6739 159.384 66.4179 158.673C66.0405 157.625 65.6125 156.438 64.2382 155.964C63.132 155.584 61.6752 155.767 59.0393 156.617C53.8288 158.298 48.9639 162.214 47.2085 166.141C46.2419 168.302 46.1819 170.459 47.035 172.376C47.0632 172.44 47.0965 172.501 47.1341 172.56C47.3922 172.964 53.5946 182.48 65.2604 184.041C65.862 184.121 66.436 184.162 66.984 184.162L66.9847 184.163ZM71.1519 170.271C71.7137 172.421 72.5249 177.667 70.4687 180.044C69.4855 181.18 67.9036 181.583 65.6313 181.28C55.8264 179.968 50.1619 172.054 49.5416 171.144C49.0586 169.978 49.1309 168.678 49.7563 167.279C51.19 164.071 55.4548 160.703 59.8967 159.271C62.7698 158.343 63.2969 158.579 63.3475 158.608C63.4617 158.699 63.6612 159.252 63.7928 159.618C64.0784 160.411 64.4702 161.498 65.3067 162.668C67.4641 165.686 70.3907 169.33 71.1512 170.271L71.1519 170.271Z" fill="#371A45"></path>
    <path d="M8.85945 58.6319L16.7218 106.81C16.7218 106.81 19.6187 120.945 43.5289 118.158C64.4061 115.725 89.6914 108.43 103.065 102.641C103.113 102.621 103.144 102.609 103.165 102.602C103.173 102.602 103.176 102.597 103.185 102.594C105.078 101.774 106.728 100.981 108.087 100.24C119.046 94.2676 130.204 85.8983 121.835 66.5909C113.466 47.2836 103.105 27.1765 94.9358 20.2086C86.7662 13.2407 71.6236 13.0413 71.6236 13.0413C71.6236 13.0413 67.0407 7.26818 56.5482 8.59372C47.6021 9.72856 29.8806 17.6045 22.2887 22.4581C22.2887 22.4581 22.2843 22.4581 22.2807 22.4624C20.97 23.3025 19.9578 24.0509 19.3519 24.6562C16.5945 27.4113 15.9728 30.589 15.865 32.3848C15.8094 33.269 15.881 33.8144 15.881 33.8144C15.881 33.8144 14.5456 35.5307 13.0353 38.6405C10.959 42.9284 8.55219 49.8689 8.85873 58.6326L8.85945 58.6319Z" fill="white"></path>
    <g opacity="0.6">
      <path d="M16.7476 28.5464C17.1185 28.0248 17.5486 27.5069 18.0547 27.0012C22.1749 22.8881 44.7541 12.2693 55.2509 10.9431C65.7434 9.61683 70.3264 15.3907 70.3264 15.3907L77.1006 23.3938C77.1006 23.3938 82.2532 30.2584 73.211 36.5292C73.5255 36.4057 82.8388 32.5996 80.5875 25.9618C79.3042 22.1795 76.2359 18.2968 73.7887 15.6175C78.7497 16.1152 87.9076 17.6719 93.6379 22.5573C101.807 29.5252 112.168 49.6329 120.537 68.9396C124.287 77.5877 124.116 84.042 121.8 89.0668C125.251 83.735 126.191 76.6479 121.832 66.5904C113.463 47.2831 103.102 27.1761 94.9327 20.2081C86.7631 13.2402 71.6205 13.0408 71.6205 13.0408C71.6205 13.0408 67.0376 7.2677 56.5451 8.59324C46.0482 9.92311 23.4691 20.5383 19.3488 24.655C18.0815 25.9213 17.2645 27.275 16.7469 28.5449L16.7476 28.5464Z" fill="white"></path>
    </g>
    <path d="M116.584 54.9764C124.377 70.3144 115.259 79.1381 115.259 79.1381C102.905 94.4674 59.8667 106.214 46.3175 104.024C32.7683 101.833 33.9641 98.8471 26.9144 71.978C19.8646 45.1082 37.61 40.0372 37.61 40.0372C54.0735 46.2026 83.3785 38.7247 81.266 26.6468C96.588 21.3381 101.593 27.9448 101.593 27.9448L116.584 54.9764Z" fill="#695374"></path>
    <g opacity="0.3">
      <path d="M26.9148 71.9786C33.9645 98.847 32.7687 101.833 46.3179 104.023C59.8671 106.214 102.906 94.4673 115.259 79.138C115.259 79.138 115.837 78.5803 116.574 77.4975C103.117 92.2894 61.7997 103.426 48.5779 101.288C35.0287 99.0976 36.2245 96.1114 29.1748 69.243C25.8715 56.6493 28.0115 48.8449 31.223 44.1069C26.9791 48.3357 22.8741 56.5735 26.9155 71.9786H26.9148Z" fill="#371A45"></path>
    </g>
    <path d="M37.5153 119.921C39.4652 119.921 41.5235 119.795 43.6895 119.542C66.9092 116.836 97.1909 107.766 108.753 101.465C114.116 98.5419 120.051 94.7906 123.407 89.128C127.183 82.7589 127.087 75.2066 123.114 66.0391C117.047 52.0397 105.435 27.3326 95.8404 19.1497C88.2362 12.6643 75.2545 11.7845 72.252 11.6667C70.775 10.1707 65.7525 6.02796 56.3705 7.21336C45.528 8.58513 22.6662 19.3736 18.366 23.6703C14.6239 27.4092 14.3983 31.8207 14.4525 33.3991C12.9552 35.5127 6.97842 44.8558 7.46426 58.6818C7.46642 58.7403 7.47221 58.7996 7.48161 58.8573L15.3439 107.035C15.3468 107.054 15.3504 107.072 15.354 107.09C15.3873 107.254 16.2202 111.131 20.2493 114.587C24.3854 118.135 30.1772 119.921 37.5153 119.921ZM59.6274 9.78931C67.0806 9.78931 70.3824 13.7269 70.5349 13.9147C70.7952 14.2347 71.1907 14.4298 71.6035 14.4356C71.7502 14.4377 86.3463 14.7158 94.0294 21.2691C103.196 29.088 114.583 53.3688 120.554 67.1465C128.548 85.5913 117.965 93.2693 107.417 99.0179C96.0797 105.197 66.2788 114.104 43.3663 116.775C21.4118 119.333 18.2756 107.353 18.0912 106.549L10.2491 58.4969C9.77343 44.0893 16.9063 34.7636 16.9786 34.6704C17.2063 34.3779 17.309 34.0059 17.262 33.6382C17.2417 33.4648 16.7848 29.1927 20.3389 25.6423C24.3167 21.6679 46.5416 11.2673 56.7211 9.98001C57.7528 9.84999 58.7208 9.79148 59.6282 9.79148L59.6274 9.78931Z" fill="#371A45"></path>
    <path d="M51.4956 43.6934C56.9034 43.6934 62.0466 43.1098 66.4813 41.9663C74.3603 39.935 79.7117 36.2126 81.958 31.203C83.3468 28.1055 82.7988 24.3586 80.5627 21.657L72.696 12.1528C72.2051 11.5598 71.326 11.4767 70.7324 11.9672C70.1389 12.4577 70.0557 13.3361 70.5466 13.9291L78.4133 23.4326C79.9785 25.323 80.3704 27.9257 79.4124 30.0624C75.1953 39.4691 58.3031 42.0674 43.4323 40.4681C40.5216 40.1553 37.7663 38.8789 35.6748 36.8736L27.623 29.1559C27.5912 29.1255 27.5587 29.0966 27.524 29.0692C27.4661 29.0237 21.6824 24.6006 14.8018 32.9237C14.3109 33.5168 14.3948 34.3952 14.9891 34.8857C15.5826 35.3761 16.4625 35.2924 16.9527 34.6986C21.7894 28.8481 25.3073 30.9249 25.7614 31.2334L33.7444 38.8854C36.2792 41.3147 39.6135 42.8613 43.1344 43.2398C45.9504 43.5425 48.7577 43.692 51.4963 43.692L51.4956 43.6934Z" fill="#371A45"></path>
    <path d="M101.593 29.1324C101.848 29.1324 102.104 29.0515 102.321 28.8839C102.839 28.483 102.942 27.7462 102.546 27.2239C102.321 26.9256 96.8349 19.9887 80.8746 25.5177C80.2507 25.7337 79.9203 26.4142 80.1364 27.0376C80.3526 27.661 81.0329 27.9911 81.6576 27.7744C95.8293 22.8645 100.601 28.6167 100.648 28.6752C100.885 28.9742 101.238 29.131 101.594 29.131L101.593 29.1324Z" fill="#371A45"></path>
    <g opacity="0.2">
      <path d="M108.719 90.5548C110.823 89.7205 112.136 87.6047 112.111 85.343C112.082 82.7959 111.38 79.2267 107.985 77.6115C102.406 74.9568 99.5168 78.8063 100.713 82.9035C101.694 86.2698 104.29 92.3109 108.72 90.5548H108.719Z" fill="white"></path>
    </g>
    <path d="M50.1466 105.479C57.8058 105.479 69.7059 103.179 81.6075 99.2853C97.9214 93.9485 110.505 86.8989 116.148 79.9368C116.542 79.5366 118.704 77.2077 119.982 73.169C121.24 69.1945 121.857 62.7185 117.648 54.4359C117.35 53.8479 116.63 53.6131 116.041 53.9114C115.453 54.2098 115.218 54.9293 115.516 55.5173C122.788 69.8295 114.767 77.9445 114.422 78.2826C114.389 78.3151 114.355 78.3526 114.326 78.3888C108.984 85.0165 96.7877 91.806 80.8628 97.0149C67.1517 101.5 53.024 103.896 46.5072 102.844C35.4999 101.064 35.0228 99.1676 30.4586 81.0211C29.7704 78.2833 28.9895 75.18 28.0699 71.6744C25.3031 61.1279 26.1374 52.5151 30.4832 46.7673C33.7467 42.4504 37.9002 41.1964 37.9421 41.1841C38.5747 40.9992 38.9391 40.3375 38.7562 39.7054C38.5733 39.0734 37.9139 38.7078 37.2806 38.8884C37.0839 38.9448 32.4222 40.3209 28.67 45.2041C25.2633 49.6372 21.9933 57.9336 25.7571 72.2812C26.6739 75.7752 27.4525 78.872 28.1401 81.604C32.7367 99.8798 33.5652 103.173 46.1262 105.203C47.2779 105.389 48.6298 105.48 50.1466 105.48V105.479Z" fill="#371A45"></path>
    <path d="M100.015 36.6832C100.015 36.6832 95.6943 28.9683 91.4288 33.4152C87.1633 37.8614 81.5176 48.4129 63.851 50.8018C46.1837 53.1907 42.3317 48.28 37.0186 53.1907C31.7055 58.1013 33.8303 68.3213 36.0889 76.6827C38.3467 85.044 39.6756 95.5292 50.4348 95.6621C61.1941 95.795 100.912 87.2696 111.406 70.9601C111.406 70.9601 115.485 66.7827 109.209 53.2448C109.209 53.2448 104.399 43.2531 100.016 36.6832H100.015Z" fill="#371A45"></path>
    <g opacity="0.3">
      <path d="M36.0885 76.6812C38.3478 85.0426 39.6752 95.5306 50.4345 95.6621C61.0426 95.7936 99.8128 87.5037 110.947 71.6362C97.2708 85.4247 62.9997 92.5956 53.1246 92.4764C42.3654 92.345 41.038 81.857 38.7787 73.4956C36.8578 66.3767 35.033 57.9157 37.8106 52.5239C37.5518 52.7233 37.2887 52.9422 37.0219 53.1892C31.7059 58.1027 33.8336 68.3199 36.0892 76.6812H36.0885Z" fill="#371A45"></path>
    </g>
    <g opacity="0.3">
      <path d="M8.85701 58.632L16.7193 106.81C16.7193 106.81 19.6163 120.945 43.5264 118.158C64.4037 115.725 89.689 108.43 103.062 102.641C100.289 103.752 50.6116 123.33 33.6947 107.077C16.2957 90.3539 17.0931 62.7444 18.6873 53.4556C20.2814 44.166 19.3488 35.0085 13.1081 38.5922C13.0842 38.6081 13.0604 38.6204 13.0322 38.6399C10.9558 42.9278 8.54902 49.8683 8.85556 58.632H8.85701Z" fill="#371A45"></path>
    </g>
    <path d="M2.03167 86.2529C2.9925 96.0583 10.776 102.767 19.0201 101.733C27.2649 100.7 32.6011 92.4465 31.3735 82.6707C30.1466 72.895 22.9878 65.6973 14.7372 66.6819C5.86921 67.7395 0.987701 75.6038 2.03167 86.2529Z" fill="#299ADF"></path>
    <g opacity="0.3">
      <path d="M2.03172 86.2531C2.99183 96.0599 10.7746 102.769 19.0201 101.734C23.9139 101.121 27.7833 97.9633 29.8633 93.4565C27.9662 95.0096 25.6787 96.0368 23.1049 96.359C14.8602 97.3941 7.07735 90.6848 6.11652 80.878C5.6943 76.5539 6.24377 72.6878 7.64272 69.5542C3.39453 72.9349 1.31453 78.9348 2.03172 86.2531Z" fill="#371A45"></path>
    </g>
    <g opacity="0.48">
      <path d="M29.2499 77.678C26.4788 73.5533 21.7447 74.8247 22.3426 79.934C22.3426 79.934 23.4719 83.5176 23.4054 87.167C24.6012 91.4802 30.9713 90.9442 31.541 86.0401" fill="white"></path>
    </g>
    <path d="M17.3442 103.232C17.9595 103.232 18.5769 103.194 19.1943 103.117C23.5958 102.565 27.4051 100.122 29.9204 96.2384C32.385 92.4329 33.3928 87.5534 32.758 82.4983C31.4147 71.7979 23.4281 64.2448 14.5724 65.2988C5.11589 66.4271 -0.482094 74.9026 0.643574 86.3889C1.16918 91.7496 3.70827 96.6118 7.61087 99.7274C10.4803 102.018 13.8798 103.232 17.3442 103.232V103.232ZM16.2186 67.9881C22.9935 67.9881 28.9096 74.2387 29.9905 82.8457C30.5436 87.25 29.6868 91.4693 27.5786 94.7243C25.5182 97.9056 22.4181 99.9036 18.8473 100.351C15.5122 100.77 12.1388 99.775 9.3525 97.5509C6.03478 94.902 3.87238 90.7347 3.4198 86.118C2.43873 76.1017 6.94572 69.0161 14.9028 68.0669C15.3438 68.0141 15.7833 67.9881 16.2186 67.9881Z" fill="#371A45"></path>
    <path d="M13.1778 100.492C13.5675 100.492 13.9571 100.468 14.3454 100.419C20.8485 99.6039 24.9398 92.511 23.8611 83.9214C22.7745 75.2667 16.9495 69.0753 10.5961 69.828C3.70395 70.6443 -0.130703 77.2677 0.826513 86.7025C1.30223 91.3928 3.40246 95.5363 6.5886 98.0718C8.57533 99.6523 10.878 100.491 13.1778 100.491V100.492ZM11.6523 72.1548C16.3784 72.1548 20.6157 77.2619 21.4891 84.219C22.3978 91.4578 19.1987 97.4029 14.0482 98.0486C11.9856 98.3073 9.92079 97.6694 8.07866 96.2037C5.39354 94.067 3.61718 90.5166 3.20581 86.4626C2.39247 78.4473 5.40438 72.8497 10.878 72.2017C11.1368 72.1714 11.3956 72.1562 11.6523 72.1562V72.1548Z" fill="#371A45"></path>
    <path d="M50.6924 96.8584C62.3236 96.8591 101.647 88.1619 112.359 71.6884C113.114 70.8128 116.408 65.9289 110.294 52.7429C110.09 52.3167 105.408 42.6211 101.035 36.0577C100.664 35.4054 98.204 31.3075 94.8226 30.8762C93.7598 30.7411 92.1599 30.9282 90.5665 32.5882C89.8399 33.346 89.0735 34.2742 88.2624 35.2574C84.1805 40.2048 78.0113 47.6813 63.6907 49.618C55.6881 50.7001 50.5774 50.2609 46.8462 49.9401C42.3992 49.558 39.4617 49.3052 36.2069 52.3138C30.6241 57.4737 32.2963 67.2249 34.9345 76.9941C35.1767 77.8906 35.4037 78.795 35.6437 79.7521C37.6413 87.709 39.9063 96.7269 50.4198 96.8562C50.508 96.857 50.5998 96.8577 50.6916 96.8577L50.6924 96.8584ZM94.2587 33.2297C94.3454 33.2297 94.4322 33.2355 94.5197 33.2463C96.4544 33.4933 98.4324 36.3019 98.9725 37.267C98.9877 37.2937 99.0036 37.3204 99.0209 37.3464C103.309 43.7726 108.084 53.6639 108.132 53.7636C113.865 66.129 110.563 70.11 110.529 70.149C110.473 70.2068 110.444 70.2472 110.4 70.3144C100.396 85.8633 61.6591 94.4688 50.6938 94.4696C50.6107 94.4696 50.5297 94.4696 50.4502 94.4681C41.7781 94.3612 39.9251 86.983 37.9637 79.1713C37.7316 78.246 37.4909 77.2888 37.2436 76.3722C34.9178 67.7609 33.169 58.3773 37.8307 54.0684C40.3105 51.7771 42.2943 51.9476 46.6415 52.321C50.4841 52.6519 55.7467 53.1034 64.0117 51.9859C79.2599 49.9242 85.7876 42.0122 90.1074 36.7772C90.9229 35.789 91.6278 34.9352 92.2922 34.2417C92.9436 33.5627 93.5892 33.2297 94.258 33.2297H94.2587Z" fill="#371A45"></path>
    <path d="M104.995 55.3607C104.46 56.2159 103.286 56.3546 102.541 55.6727C98.3244 51.8139 92.0323 52.6085 91.613 60.0712C91.5617 60.9799 90.7556 61.6604 89.8497 61.5643L89.4426 61.521C88.5115 61.422 87.8854 60.6722 87.9367 59.8155C88.5939 48.7532 99.111 46.9104 104.865 53.4854C105.321 54.007 105.363 54.7734 104.995 55.3607H104.995Z" fill="#3FB1EA"></path>
    <path d="M62.9655 71.6017L62.7941 71.7685C62.1572 72.3876 61.1334 72.3811 60.5167 71.7425C56.8079 67.9025 51.0914 69.2468 50.7544 76.0457C50.7111 76.9176 50.0127 77.6125 49.1386 77.6125H48.2233C47.3131 77.6125 46.5713 76.8605 46.606 75.951C47.0203 65.0491 57.3053 63.0749 63.0399 69.3587C63.6255 70.0009 63.5887 70.9963 62.9662 71.6024L62.9655 71.6017Z" fill="#3FB1EA"></path>
    <g opacity="0.3">
      <path d="M15.8647 32.385C18.1442 30.3783 21.2248 28.5268 24.1333 29.5663C29.7125 31.5572 34.14 40.0782 43.2856 41.8581C52.4276 43.6337 69.2996 39.6599 69.2996 39.6599L73.2051 37.5773C73.2051 37.5773 52.1644 42.3074 42.3327 36.4664C32.5017 30.6289 30.7406 24.8515 26.261 24.5813C21.7779 24.3147 22.2883 22.459 22.2883 22.459C22.2883 22.459 22.2839 22.459 22.2803 22.4633C20.9696 23.3034 19.9574 24.0518 19.3516 24.6571C16.5942 27.4122 15.9724 30.5899 15.8647 32.3857V32.385Z" fill="#371A45"></path>
    </g>
    <path d="M64.3815 188.435C64.3815 188.435 82.8484 191.09 103.064 186.046C120.626 181.662 122.193 172.971 122.3 170.768C122.315 170.434 122.3 170.25 122.3 170.25L120.507 163.219L114.729 159.826C114.729 159.826 84.8409 158.572 73.5474 160.165C73.2683 160.205 73.0015 160.261 72.7384 160.329C62.3572 163.052 64.3815 188.435 64.3815 188.435Z" fill="#299ADF"></path>
    <path d="M76.7126 190.543C83.8657 190.543 93.3821 189.898 103.403 187.398C124.536 182.126 123.734 170.612 123.689 170.124C123.62 169.358 122.942 168.794 122.174 168.863C121.411 168.933 120.847 169.604 120.911 170.365C120.94 170.79 121.337 180.052 102.727 184.694C85.817 188.913 69.9614 187.647 65.6981 187.189C65.2672 179.462 65.962 162.643 73.7426 161.545C84.1324 160.08 110.957 161.074 114.322 161.206L119.8 164.419C120.463 164.809 121.319 164.587 121.708 163.923C122.099 163.259 121.876 162.405 121.212 162.015L115.434 158.625C115.237 158.509 115.014 158.444 114.786 158.434C113.56 158.384 84.6407 157.192 73.3522 158.785C60.9033 160.54 62.9016 187.402 62.9927 188.545C63.0448 189.194 63.5393 189.721 64.1842 189.814C64.5702 189.869 69.4098 190.541 76.7126 190.541V190.543Z" fill="#371A45"></path>
    <path d="M73.5458 154.324V160.165L89.4859 170.251C93.1484 164.25 96.4394 165.898 99.4484 173.237L100.513 175.164C100.513 175.164 102.366 171.987 105.064 168.921C107.805 165.811 111.416 162.817 114.859 163.351C116.469 163.601 117.732 164.115 118.725 164.756C121.949 166.839 122.299 170.251 122.299 170.251L150.004 162.67C151.685 162.209 152.849 160.684 152.849 158.944V154.99L153.85 154.6C154.045 154.524 154.232 154.432 154.412 154.325H154.416C155.417 153.752 156.142 152.785 156.404 151.646L164.175 118.139C164.833 115.312 162.282 112.788 159.46 113.469L112.692 124.749C109.763 125.454 107.575 127.902 107.204 130.897L105.404 145.482L73.5472 154.325L73.5458 154.324Z" fill="#B5B8C9"></path>
    <g opacity="0.6">
      <path d="M107.204 130.896L107.021 132.393C107.794 130.048 109.735 128.228 112.194 127.635L158.962 116.355C161.393 115.77 163.621 117.561 163.772 119.875L164.175 118.139C164.833 115.312 162.282 112.788 159.46 113.468L112.692 124.749C109.763 125.454 107.575 127.902 107.204 130.897V130.896Z" fill="white"></path>
    </g>
    <g opacity="0.6">
      <path d="M73.547 153.627V156.374L104.905 147.671L105.256 144.824L73.547 153.627Z" fill="white"></path>
    </g>
    <path d="M100.516 176.557C101.012 176.557 101.471 176.295 101.72 175.865C103.677 172.513 109.81 163.976 114.647 164.727C120.36 165.615 120.908 170.344 120.914 170.392C120.955 170.799 121.175 171.169 121.513 171.4C121.851 171.631 122.275 171.702 122.67 171.595L150.374 164.012C152.653 163.388 154.245 161.303 154.245 158.942V155.94L154.359 155.896C156.075 155.225 157.348 153.754 157.763 151.96L165.534 118.453C165.953 116.652 165.419 114.799 164.105 113.498C162.791 112.196 160.933 111.678 159.133 112.112L112.365 123.392C108.89 124.229 106.26 127.174 105.821 130.723L104.133 144.386L73.1742 152.98C72.5705 153.148 72.1526 153.697 72.1526 154.323V160.164C72.1526 160.642 72.3977 161.086 72.8011 161.342L88.7412 171.427C89.0572 171.627 89.4403 171.692 89.8047 171.607C90.1691 171.522 90.4836 171.294 90.6788 170.975C91.8977 168.978 93.0581 167.917 93.9409 167.988C94.5156 168.034 96.0787 168.688 98.1594 173.764C98.1796 173.813 98.2028 173.862 98.2288 173.909L99.293 175.836C99.5352 176.275 99.9957 176.55 100.497 176.556H100.514L100.516 176.557ZM102.606 169.657C101.821 170.655 101.147 171.604 100.614 172.399C98.6366 167.69 96.5826 165.403 94.1635 165.211C92.3771 165.064 90.7063 166.095 89.081 168.343L74.944 159.398V155.383L103.765 147.383L101.207 168.092C101.113 168.856 101.656 169.551 102.42 169.646C102.483 169.654 102.546 169.656 102.607 169.657H102.606ZM160.399 114.749C161.047 114.749 161.66 115.001 162.142 115.478C162.772 116.103 163.019 116.957 162.818 117.823L155.046 151.332C154.838 152.229 154.202 152.965 153.343 153.301L152.343 153.692C151.808 153.901 151.455 154.416 151.455 154.99V158.943C151.455 160.052 150.708 161.032 149.636 161.324L123.328 168.525C122.486 166.037 120.136 162.76 115.075 161.974C111.011 161.342 107.004 164.586 104.034 167.942L106.787 145.656C106.787 145.656 106.787 145.653 106.787 145.652L108.588 131.067C108.885 128.664 110.666 126.67 113.018 126.103L159.787 114.823C159.992 114.774 160.196 114.749 160.397 114.749H160.399Z" fill="#371A45"></path>
    <path d="M118.416 165.962C118.539 165.962 118.665 165.945 118.79 165.911L153.223 156.332C153.966 156.125 154.399 155.357 154.193 154.616C153.986 153.874 153.218 153.44 152.475 153.647L118.042 163.225C117.299 163.432 116.866 164.201 117.072 164.942C117.244 165.558 117.805 165.962 118.415 165.962H118.416Z" fill="#371A45"></path>
    <path d="M101.975 169.92C102.487 169.92 102.979 169.638 103.223 169.15C103.568 168.461 103.288 167.624 102.599 167.28L74.1715 153.077C73.4832 152.733 72.6446 153.012 72.3004 153.7C71.9556 154.389 72.2354 155.226 72.9243 155.57L101.352 169.773C101.553 169.873 101.765 169.92 101.975 169.92Z" fill="#371A45"></path>
    <g opacity="0.6">
      <path d="M141.819 134.681L142.414 130.522C142.425 130.363 142.387 130.206 142.307 130.069L140.897 127.788C140.778 127.585 140.543 127.477 140.311 127.52L132.892 129.006C132.708 129.041 132.551 129.161 132.471 129.33L130.976 131.933C130.905 132.083 130.863 132.244 130.853 132.409L130.274 137.146C130.249 137.531 130.602 137.83 130.977 137.745L141.196 135.412C141.543 135.333 141.796 135.035 141.819 134.68V134.681Z" fill="white"></path>
    </g>
    <path d="M142.415 133.885L143.01 129.726C143.02 129.568 142.983 129.41 142.903 129.274L141.493 126.992C141.373 126.789 141.139 126.681 140.906 126.724L133.488 128.21C133.303 128.245 133.147 128.366 133.066 128.535L131.571 131.137C131.5 131.287 131.458 131.448 131.448 131.613L130.869 136.351C130.845 136.735 131.197 137.034 131.573 136.949L141.792 134.616C142.139 134.537 142.392 134.239 142.415 133.884V133.885Z" fill="#371A45"></path>
    <path d="M103.136 164.807C103.513 164.807 103.873 164.592 104.041 164.229C104.272 163.73 104.054 163.138 103.555 162.908L96.9062 159.838L104.495 156.767C105.004 156.56 105.251 155.98 105.044 155.47C104.837 154.961 104.256 154.716 103.747 154.921L94.0274 158.855C93.6594 159.005 93.415 159.357 93.4056 159.754C93.3962 160.15 93.6232 160.515 93.984 160.681L102.719 164.714C102.854 164.776 102.997 164.806 103.136 164.806V164.807Z" fill="#371A45"></path>
    <path d="M98.4043 158.94C98.7701 158.94 99.1222 158.737 99.2965 158.388C99.5423 157.896 99.342 157.299 98.8504 157.053L94.3058 154.787L105.111 151.288C105.635 151.118 105.922 150.557 105.752 150.034C105.582 149.511 105.021 149.225 104.497 149.394L91.3741 153.644C90.9895 153.769 90.7184 154.113 90.688 154.517C90.6577 154.92 90.8746 155.301 91.2368 155.482L97.9611 158.835C98.1043 158.906 98.2561 158.94 98.405 158.94L98.4043 158.94Z" fill="#371A45"></path>
    <g opacity="0.3">
      <path d="M103.065 169.056L105.066 168.921C107.807 165.811 111.418 162.817 114.861 163.351C116.471 163.602 117.734 164.115 118.727 164.757L145.721 156.973L154.413 154.324H154.417L155.641 151.406C123.964 162.24 104.859 158.633 109.015 128.312L107.676 130.972L103.066 169.056H103.065Z" fill="#371A45"></path>
    </g>
    <g opacity="0.3">
      <path d="M124.524 162.853C128.321 164.961 136.127 164.845 152.85 159.778L149.929 161.961L123.03 169.056L120.506 164.876" fill="#371A45"></path>
    </g>
    <g opacity="0.3">
      <path d="M74.878 154.989C75.2221 155.161 103.443 169.031 103.443 169.031C103.443 169.031 100.58 174.3 100.514 174.101C100.447 173.901 97.1267 167.199 97.1267 167.199L93.1287 166.697L89.1603 169.721L73.8138 160.298" fill="#371A45"></path>
    </g>
    <g opacity="0.2">
      <path d="M150.632 137.996L154.349 137.203C155 137.064 155.506 136.552 155.638 135.901L157.985 123.104C158.256 121.774 157.049 120.616 155.729 120.934L152.322 121.758C151.605 121.93 151.059 122.511 150.927 123.236L148.894 136.318C148.714 137.335 149.621 138.212 150.632 137.996H150.632Z" fill="white"></path>
    </g>
    <g opacity="0.2">
      <path d="M149.113 149.283L151.99 148.272C152.607 148.053 153.066 147.527 153.194 146.886L153.907 143.348C154.069 142.546 153.352 141.842 152.553 142.017L148.821 142.831C147.956 143.02 147.29 143.711 147.135 144.582L146.666 147.208C146.419 148.606 147.774 149.757 149.113 149.283Z" fill="white"></path>
    </g>
    <path d="M88.1245 169.958L88.6299 174.246L90.8516 170.543L88.1245 169.958Z" fill="#371A45"></path>
    <g opacity="0.3">
      <path d="M64.3827 188.435C64.3827 188.435 82.8496 191.091 103.065 186.046C120.627 181.662 122.194 172.971 122.301 170.768C121.357 168.371 119.942 166.834 119.942 166.834C120.838 169.422 119.742 172.906 113.666 177.983C107.588 183.06 76.7043 186.842 70.4282 181.169C64.1521 175.495 72.0224 164.569 72.0224 164.569L89.0585 172.25L90.0548 169.622L72.7396 160.329C62.3584 163.052 64.3827 188.435 64.3827 188.435Z" fill="#371A45"></path>
    </g>
    <path opacity="0.4" d="M71.1474 177.584C70.8915 179.599 73.8853 181.637 77.8334 182.138C81.7816 182.639 85.1897 181.411 85.4456 179.396C85.7015 177.381 81.6139 174.745 77.6657 174.245C73.7175 173.744 71.4033 175.57 71.1474 177.584Z" fill="url(#paint0_linear_1901_2078)"></path>
    <g opacity="0.3">
      <path d="M64.9824 169.97L60.7978 167.5L66.7754 164.146L66.3105 165.939" fill="#371A45"></path>
    </g>
    <g opacity="0.3">
      <path d="M58.1438 167.956C58.1438 167.956 55.2837 175.428 63.7852 177.353V181.6C58.2363 181.22 53.6816 178.787 50.7008 173.106" fill="#371A45"></path>
    </g>
    <path d="M38.5688 127.784C47.6515 127.784 61.2159 125.801 75.3616 122.267C85.3798 119.764 109.762 112.844 119.767 102.676C120.229 102.206 120.223 101.45 119.752 100.987C119.281 100.525 118.524 100.531 118.062 101.002C111.417 107.755 95.2375 114.839 74.7818 119.949C56.6713 124.474 39.0047 126.476 31.8191 124.816C31.1764 124.667 30.5337 125.068 30.3855 125.711C30.2365 126.354 30.6378 126.995 31.2812 127.144C33.1501 127.575 35.6256 127.784 38.5695 127.784H38.5688Z" fill="#371A45"></path>
    <path d="M71.0293 161.039L45.5192 174.731C45.5192 174.731 35.4236 161.999 33.0327 144.823C30.6419 127.648 42.8623 125.126 50.9654 126.188C59.0684 127.249 64.2485 139.46 65.1783 143.574C66.108 147.689 71.0286 161.038 71.0286 161.038L71.0293 161.039Z" fill="white"></path>
    <g opacity="0.3">
      <path d="M33.0358 144.824C35.4266 162.001 45.5208 174.731 45.5208 174.731L48.9043 172.915C47.8083 171.474 38.7747 159.274 36.5306 143.153C35.3153 134.417 37.8819 129.472 41.7628 126.863C36.1077 128.679 31.4814 133.652 33.0358 144.825V144.824Z" fill="#371A45"></path>
    </g>
    <g opacity="0.6">
      <path d="M36.2283 130.267C39.9899 127.675 45.0233 127.32 49.0401 127.846C57.1453 128.909 62.3262 141.121 63.2544 145.234C64.0714 148.861 67.9964 159.668 68.9132 162.172L71.0293 161.037C71.0293 161.037 66.1116 147.691 65.179 143.573C64.2507 139.46 59.0699 127.249 50.9683 126.19C46.2104 125.565 40.0297 126.178 36.2276 130.267H36.2283Z" fill="white"></path>
    </g>
    <path d="M45.5214 176.125C45.7455 176.125 45.9718 176.071 46.1808 175.959L71.6909 162.266C72.3032 161.938 72.5801 161.209 72.3394 160.557C72.2902 160.424 67.4398 147.246 66.5404 143.267C65.7806 139.905 60.6532 126.051 51.1476 124.806C48.0952 124.405 40.4584 124.015 35.4916 129.016C31.9613 132.571 30.6694 137.954 31.6526 145.015C34.0681 162.367 44.0053 175.064 44.4276 175.595C44.7001 175.938 45.1064 176.123 45.5214 176.123V176.125ZM69.305 160.383L45.9241 172.933C43.641 169.73 36.3621 158.62 34.4151 144.633C33.5584 138.479 34.5872 133.886 37.4718 130.981C41.561 126.864 48.1451 127.224 50.7854 127.57C58.0469 128.522 62.9479 140.025 63.8199 143.882C64.6079 147.37 68.0876 157.039 69.3058 160.383H69.305Z" fill="#371A45"></path>
    <path d="M61.802 165.993L55.0856 148.684C55.0856 148.684 51.7982 139.56 45.2228 141.053C38.6474 142.546 42.234 151.605 44.7247 157.278C47.2153 162.953 51.8814 171.317 51.8814 171.317L61.8027 165.992L61.802 165.993Z" fill="#371A45"></path>
    <g opacity="0.3">
      <path d="M41.5787 144.875C42.0089 144.628 42.515 144.437 43.097 144.306C49.6724 142.813 52.9598 151.939 52.9598 151.939L58.9973 167.5L61.7988 165.995L55.0839 148.683C55.0839 148.683 51.7965 139.561 45.2211 141.054C42.9415 141.572 41.8853 142.997 41.5787 144.877V144.875Z" fill="#371A45"></path>
    </g>
    <path d="M51.8803 172.512C52.0711 172.512 52.2649 172.467 52.4449 172.37L62.3663 167.045C62.8976 166.759 63.1333 166.123 62.915 165.561L56.1986 148.252C56.0598 147.867 52.4745 138.181 44.9564 139.889C43.0868 140.313 41.7529 141.292 40.9923 142.8C39.1451 146.46 41.1673 152.152 43.6283 157.759C46.1131 163.419 50.7886 171.815 50.8356 171.9C51.0539 172.291 51.4609 172.513 51.881 172.513L51.8803 172.512ZM60.3036 165.439L52.356 169.705C51.0394 167.3 47.7463 161.191 45.8181 156.798C44.5356 153.877 41.5331 147.034 43.128 143.874C43.5581 143.022 44.3295 142.479 45.487 142.217C50.9447 140.979 53.9313 149.007 53.9602 149.089L60.3043 165.439L60.3036 165.439Z" fill="#371A45"></path>
    <path d="M67.2493 151.535C67.3751 151.535 67.5038 151.515 67.6296 151.473L81.502 146.823C81.9892 146.66 82.3175 146.204 82.3175 145.691V135.832C110.33 127.288 110.581 127.096 110.802 126.925C111.325 126.522 111.422 125.772 111.019 125.25C110.666 124.793 110.048 124.661 109.548 124.905C108.351 125.363 91.7421 130.46 80.7725 133.805C80.2693 133.958 79.9259 134.422 79.9259 134.948V144.832L66.869 149.208C66.2429 149.418 65.906 150.095 66.1157 150.72C66.2834 151.22 66.749 151.535 67.2493 151.535ZM109.344 125.032C109.344 125.032 109.343 125.032 109.342 125.033C109.342 125.033 109.344 125.032 109.344 125.032ZM109.347 125.03C109.347 125.03 109.345 125.031 109.345 125.032C109.345 125.032 109.346 125.032 109.347 125.03Z" fill="#371A45"></path>
    <path d="M82.863 205.758C89.5345 205.758 95.4326 205.147 100.142 204.403C111.159 202.662 118.054 199.91 118.342 199.794C118.954 199.547 119.249 198.851 119.003 198.239C118.756 197.627 118.059 197.332 117.447 197.578C117.173 197.689 89.6849 208.516 57.8517 200.256C57.2133 200.09 56.5598 200.473 56.3942 201.112C56.2279 201.75 56.6118 202.403 57.2509 202.568C66.3951 204.941 75.1467 205.758 82.8637 205.758H82.863Z" fill="#371A45"></path>
    <g opacity="0.3">
      <path d="M55.0091 193.818C55.8701 196.773 58.3326 204.708 60.795 207.814C63.1939 210.837 84.502 214.021 101.973 210.561C74.5438 213.771 76.1972 195.885 76.1972 195.885L55.0091 193.818Z" fill="#371A45"></path>
    </g>
    <path d="M120.839 110.021C120.939 110.021 121.042 110.008 121.144 109.981L138.377 105.442C139.015 105.274 139.396 104.621 139.228 103.983C139.06 103.345 138.405 102.964 137.767 103.133L120.535 107.671C119.896 107.84 119.515 108.493 119.684 109.131C119.825 109.667 120.309 110.021 120.839 110.021V110.021Z" fill="#371A45"></path>
    <g opacity="0.3">
      <path d="M120.04 105.915C122.529 116.262 131.018 118.789 146.664 111.987L148.871 115.783L124.064 122.004L122.73 115.869" fill="#371A45"></path>
    </g>
    <path d="M137.895 65.2424C138.101 65.2424 138.31 65.1969 138.507 65.1001C139.199 64.7614 139.486 63.927 139.146 63.2357L134.182 53.1046C133.971 52.6025 133.476 52.25 132.897 52.25H132.893C132.412 52.25 131.965 52.4978 131.71 52.9059C131.455 53.314 131.429 53.824 131.641 54.256L136.641 64.4608C136.884 64.9549 137.38 65.2417 137.895 65.2417V65.2424Z" fill="#371A45"></path>
    <path d="M137.534 64.807L141.559 64.4342L138.251 62.1133L137.534 64.807Z" fill="#371A45"></path>
    <path d="M122.965 92.6637C123.624 92.6637 124.287 92.4896 124.888 92.1342L137.176 84.8773C138.871 83.8761 139.527 81.7039 138.668 79.9327L120.096 41.6539C119.237 39.8841 117.143 39.0938 115.328 39.8552L110.206 42.0035C109.597 42.2592 109.311 42.9592 109.566 43.5674C109.821 44.1757 110.522 44.4617 111.131 44.2067L116.253 42.0584C116.897 41.7882 117.64 42.0685 117.944 42.6963L136.516 80.9743C136.837 81.6353 136.592 82.4465 135.959 82.82L123.672 90.0769C123.144 90.3882 122.487 90.3196 122.036 89.9042L121.652 89.5503C121.166 89.1038 120.41 89.1342 119.962 89.6189C119.515 90.1043 119.546 90.8599 120.031 91.3071L120.415 91.661C121.133 92.3227 122.044 92.6637 122.965 92.6637H122.965Z" fill="#371A45"></path>
    <path d="M135.393 67.1077C135.544 67.1077 135.696 67.073 135.84 67.0015C136.332 66.7545 136.529 66.1556 136.282 65.6644L122.686 38.6747C120.005 33.4585 115.653 34.0761 115.47 34.105C114.926 34.1903 114.555 34.6995 114.64 35.2427C114.724 35.7831 115.23 36.1536 115.77 36.0727C115.91 36.054 118.917 35.6993 120.909 39.5762L134.502 66.5587C134.677 66.9061 135.028 67.107 135.393 67.107V67.1077Z" fill="#371A45"></path>
    <path d="M141.335 88.1629C141.493 88.1629 141.653 88.1254 141.802 88.0466C145.029 86.3332 144.69 83.2826 144.06 81.9087L141.713 76.7134C141.487 76.2128 140.896 75.9896 140.395 76.2157C139.893 76.4418 139.67 77.0313 139.897 77.5326L142.246 82.7329C142.414 83.1136 143.138 85.082 140.867 86.2884C140.381 86.5463 140.197 87.1487 140.455 87.6342C140.634 87.9708 140.979 88.1629 141.335 88.1629Z" fill="#371A45"></path>
    <g opacity="0.3">
      <path d="M139.725 88.021C134.685 95.751 138.28 101.395 150.51 104.952H146.584C146.584 104.952 148.484 106.877 146.914 112.318C146.914 112.318 136.89 101.536 130.407 98.5495L130.866 92.7236" fill="#371A45"></path>
    </g>
    <g opacity="0.3">
      <path d="M126.152 80.7974C126.152 80.7974 124.78 93.118 142.137 85.6972L141.561 87.6988L125.441 95.6066L121.797 95.6636L118.914 92.9743L123.528 85.3092" fill="#371A45"></path>
    </g>
  </g>
  <defs>
    <linearGradient id="paint0_linear_1901_2078" x1="82.1561" y1="171.514" x2="77.4794" y2="179.878" gradientUnits="userSpaceOnUse">
      <stop stop-color="white"></stop>
      <stop offset="1" stop-color="#F1F2F2"></stop>
    </linearGradient>
    <clipPath id="clip0_1901_2078">
      <rect width="169" height="266" fill="white" transform="matrix(-1 0 0 1 169.5 0)"></rect>
    </clipPath>
  </defs>
</svg>
