<?xml version="1.0" encoding="utf-8"?>
<!-- Generator: Adobe Illustrator 25.1.0, SVG Export Plug-In . SVG Version: 6.00 Build 0)  -->
<svg version="1.1" id="Camada_1" xmlns="http://www.w3.org/2000/svg" xmlns:xlink="http://www.w3.org/1999/xlink" x="0px" y="0px"
	 viewBox="0 0 462 500" style="enable-background:new 0 0 462 500;" xml:space="preserve">
<style type="text/css">
	.st0{fill-rule:evenodd;clip-rule:evenodd;fill:#D7EEFD;}
	.st1{fill:#FFD527;}
	.st2{fill:#E0E0E0;}
	.st3{fill:#8DD7FF;}
	.st4{fill:none;stroke:#FFD527;stroke-width:1.93;}
	.st5{fill:#FFB200;}
	.st6{fill:#D66B09;}
	.st7{opacity:0.35;}
	.st8{opacity:0.35;fill:#371A45;enable-background:new    ;}
	.st9{fill:#232323;}
	.st10{fill:#FFC536;}
	.st11{fill:#FFEC90;}
	.st12{opacity:0.41;}
	.st13{opacity:0.41;fill:#FFFFFF;enable-background:new    ;}
	.st14{fill:#3ACE32;}
	.st15{opacity:0.3;}
	.st16{opacity:0.3;fill:#462B5B;enable-background:new    ;}
	.st17{opacity:0.3;fill:#232323;enable-background:new    ;}
	.st18{fill:#F3F3F3;}
	.st19{fill:#FFFFFF;}
	.st20{fill:#22A7F0;}
	.st21{fill:#BDB0D1;}
	.st22{fill:#FFDA00;}
	.st23{fill:#9C50FF;}
	.st24{opacity:0.55;}
	.st25{opacity:0.55;fill:#FFFFFF;enable-background:new    ;}
	.st26{opacity:0.6;}
	.st27{opacity:0.6;fill:#F7F7F7;enable-background:new    ;}
	.st28{fill:#A699B5;}
	.st29{fill:#020202;}
	.st30{opacity:0.5;}
	.st31{opacity:0.5;fill:#FFFFFF;enable-background:new    ;}
	.st32{opacity:0.5;fill:#232323;enable-background:new    ;}
	.st33{opacity:0.4;}
	.st34{opacity:0.4;fill:#FFFFFF;enable-background:new    ;}
	.st35{fill:#3185FF;}
	.st36{fill:#B9ABC6;}
	.st37{fill:#F1F1F1;}
</style>
<path class="st0" d="M394.2,276.6c1.9-10.4,2.9-21.1,2.9-32.1c0-97.1-78.7-175.8-175.8-175.8S45.5,147.4,45.5,244.5
	c0,10.6,0.9,21,2.7,31.1c6.4,2.7,12.1,6.6,16.6,11.4c6.4-11.5,18.4-20.2,33-23.1c-0.1-1.1-0.2-2.2-0.2-3.3
	c0-20.7,19.1-37.4,42.6-37.4c7.8,0,15.5,1.9,22.4,5.6c7-12.3,21.4-20.8,38.2-20.8c15.9,0,29.7,7.6,37.1,18.9c1.2,1.8,3,3.1,5,3.7
	l0.4,0.1c2.3,0.7,4.7,0.6,6.8-0.4c6.6-3.3,13.8-4.9,21.1-4.9c20.9,0,38.3,13.2,41.9,30.6c10,1,18.9,5,25.6,10.9
	c7-3.8,14.8-5.8,22.7-5.8C377,261.8,387.4,268.5,394.2,276.6z"/>
<path class="st1" d="M4.5,211.2c-0.1,0.9,1.8,1.9,4.6,2.5c0.7,0.2,1.3,0.5,1.8,1.1c0.5,0.5,0.8,1.2,0.8,1.9c0.3,2.9,1,4.9,1.9,4.9
	c0.9,0.1,1.9-1.8,2.5-4.6c0.2-0.7,0.5-1.3,1.1-1.8c0.5-0.5,1.2-0.8,1.9-0.8c2.9-0.3,4.9-1,4.9-1.9c0.1-0.9-1.8-1.9-4.6-2.5
	c-0.7-0.2-1.3-0.5-1.8-1.1c-0.5-0.5-0.8-1.2-0.8-1.9c-0.3-2.9-1-4.9-1.9-4.9c-0.9-0.1-1.9,1.8-2.5,4.6c-0.2,0.7-0.5,1.3-1.1,1.8
	c-0.5,0.5-1.2,0.8-1.9,0.8C6.5,209.6,4.5,210.3,4.5,211.2z"/>
<path class="st2" d="M331.7,52c0.1-1.9,1.7-3.4,3.6-3.3c1.9,0.1,3.4,1.7,3.4,3.6c-0.1,1.9-1.7,3.4-3.6,3.3
	C333.2,55.5,331.7,53.9,331.7,52z"/>
<path class="st3" d="M373.5,106.5c-1.7-0.8-2.5-2.9-1.6-4.7c0.8-1.7,2.9-2.5,4.7-1.6c1.7,0.8,2.5,2.9,1.6,4.7
	C377.3,106.6,375.2,107.3,373.5,106.5z"/>
<path class="st3" d="M66.4,55.9c-1.7-0.8-2.5-2.9-1.6-4.7c0.8-1.7,2.9-2.5,4.7-1.6c1.7,0.8,2.5,2.9,1.6,4.7
	C70.2,56,68.2,56.7,66.4,55.9z"/>
<path class="st3" d="M433.7,86.8c-0.9-0.3-1.4-1.3-1.1-2.3c0.3-0.9,1.3-1.4,2.3-1.1c0.9,0.3,1.4,1.3,1.1,2.3
	C435.7,86.6,434.7,87.1,433.7,86.8z"/>
<path class="st3" d="M112.5,83c-0.9-0.5-1.3-1.6-0.9-2.5c0.5-0.9,1.6-1.3,2.5-0.9c0.9,0.5,1.3,1.6,0.9,2.5
	C114.6,83,113.4,83.4,112.5,83z"/>
<path class="st4" d="M416.3,318L416.3,318c-1.5-0.6-2.6-1.2-3.4-1.8c-0.4-0.3-0.6-0.5-0.7-0.7c0,0,0-0.1,0-0.1c0,0,0,0,0.1,0
	c0.2-0.1,0.5-0.2,0.9-0.3c0.9-0.2,2.2-0.2,3.8-0.1h0c1,0.1,2-0.2,2.9-0.7c0.9-0.5,1.5-1.3,1.9-2.3l0,0c0.6-1.5,1.2-2.6,1.8-3.4
	c0.3-0.4,0.5-0.6,0.7-0.7c0,0,0.1,0,0.1,0c0,0,0,0,0,0.1c0.1,0.2,0.2,0.5,0.3,0.9c0.2,0.9,0.2,2.2,0.1,3.8L416.3,318z M416.3,318
	c0.9,0.4,1.7,1,2.3,1.9 M416.3,318l2.3,1.9 M422.3,323.5L422.3,323.5c-0.6,1.5-1.2,2.6-1.8,3.3c-0.3,0.4-0.5,0.6-0.7,0.7
	c0,0-0.1,0-0.1,0c0,0,0,0,0-0.1c-0.1-0.2-0.2-0.5-0.3-0.9c-0.2-0.9-0.2-2.2-0.1-3.8L422.3,323.5z M422.3,323.5
	c0.4-0.9,1-1.7,1.9-2.3 M422.3,323.5l1.9-2.3 M427.7,317.5L427.7,317.5c1.5,0.6,2.6,1.2,3.4,1.8c0.4,0.3,0.6,0.5,0.7,0.7
	c0,0,0,0.1,0,0.1c0,0,0,0-0.1,0c-0.2,0.1-0.5,0.2-0.9,0.3c-0.9,0.2-2.2,0.2-3.8,0.1L427.7,317.5z M427.7,317.5
	c-0.9-0.4-1.7-1-2.3-1.9 M427.7,317.5l-2.3-1.9 M418.6,319.9c0.5,0.9,0.8,1.9,0.7,2.9L418.6,319.9z M424.2,321.2
	c0.9-0.5,1.9-0.8,2.9-0.7L424.2,321.2z M425.5,315.6c-0.5-0.9-0.8-1.9-0.7-2.9L425.5,315.6z M424.3,307.9
	C424.3,307.9,424.3,307.9,424.3,307.9C424.3,307.9,424.3,307.9,424.3,307.9z M424.4,307.9C424.4,307.9,424.4,307.9,424.4,307.9
	C424.4,307.9,424.4,307.9,424.4,307.9z M412.2,315.5C412.2,315.5,412.2,315.5,412.2,315.5C412.2,315.5,412.2,315.5,412.2,315.5z
	 M412.2,315.4C412.2,315.4,412.2,315.4,412.2,315.4C412.2,315.4,412.2,315.4,412.2,315.4z M419.8,327.6
	C419.8,327.6,419.8,327.6,419.8,327.6C419.8,327.6,419.8,327.6,419.8,327.6z M419.7,327.6C419.7,327.6,419.7,327.6,419.7,327.6
	C419.7,327.6,419.7,327.6,419.7,327.6z M431.9,320C431.9,320,431.9,320,431.9,320C431.9,320,431.9,320,431.9,320z M431.9,320.1
	C431.9,320.1,431.9,320.1,431.9,320.1C431.9,320.1,431.9,320.1,431.9,320.1z"/>
<g>
	<g>
		<path class="st5" d="M320.8,378c-1.4,9.1-4.2,17.9-8.2,26.1c-10.1,20.9-27.9,38-51.3,46.8c-23.4,8.8-48.2,7.5-69.5-1.6
			c-8.4-3.6-16.2-8.4-23.2-14.2c23.2-4.2,50.3-11.8,78.4-22.3S300.5,390.1,320.8,378z"/>
		<path class="st6" d="M191.8,450.9l0-1.6l-0.6-1.4l0.3-0.1h0.3c12.7-0.1,37.2-6.2,62.5-15.7c25.5-9.5,47.4-20.7,57.3-29.1l2,2.4
			c-10.1,8.6-32.4,19.9-58.2,29.6C229.4,444.7,205,450.9,191.8,450.9z"/>
		<path class="st6" d="M247,412.8c28.2-10.6,53.5-22.7,73.8-34.7c-0.6,3.8-1.4,7.5-2.5,11.2c-15.7,9.9-40.4,21.7-69,32.4
			c-27.4,10.3-52.8,17.5-71,20.6c-3.4-2.2-6.6-4.5-9.7-7.1C191.8,430.9,218.8,423.4,247,412.8z"/>
		<g class="st7">
			<path class="st8" d="M317.8,370.8c-1.4,9.1-4.2,17.9-8.2,26.1c-10.1,20.9-27.9,38-51.3,46.8c-23.4,8.8-48.2,7.5-69.5-1.6
				c-8.4-3.6-16.2-8.4-23.2-14.2c23.2-4.2,50.3-11.8,78.4-22.3C272.2,395,297.5,382.9,317.8,370.8z"/>
		</g>
		<g class="st7">
			<path class="st8" d="M322.2,329.6c-0.7,0.5-1.4,1-2.2,1.5c0.7-0.6,1.4-1.3,2-2C322.1,329.2,322.2,329.4,322.2,329.6z"/>
		</g>
		<path class="st5" d="M316,330.6c1.4,3.6,2.5,7.4,3.4,11.1c-16,11.3-47,26.4-83.9,40.3c-36.8,13.8-70.2,22.8-89.7,24.8
			c-1.8-3.4-3.4-7-4.8-10.6c-0.1-0.2-0.1-0.3-0.2-0.5c-0.6-1.6-1.2-3.3-1.7-4.9c-1.2-3.8-2.1-7.7-2.8-11.6c0-0.2-0.1-0.3-0.1-0.5
			c-2.7-16.4-1-33.1,4.9-48.6c9.2-24.2,28.4-44.4,54.5-54.2c25.9-9.7,53.4-7.2,76.1,4.8c14.6,7.6,26.9,19,35.7,32.9
			c0.3,0.4,0.5,0.8,0.8,1.2c2.1,3.4,3.9,6.9,5.5,10.5c0.6,1.4,1.2,2.7,1.7,4.1C315.7,329.9,315.8,330.2,316,330.6z"/>
		<path class="st6" d="M315.5,329.5c0.1,0.4,0.3,0.8,0.4,1.2c1.4,3.6,2.5,7.4,3.4,11.1c-16,11.3-47,26.4-83.9,40.3
			c-36.8,13.8-70.2,22.8-89.7,24.8c-1.8-3.4-3.4-7-4.8-10.6c-0.1-0.2-0.1-0.3-0.2-0.5c18.4-0.8,52.3-9.4,89.9-23.5
			C269.8,357.6,302,341,315.5,329.5z"/>
		<path class="st6" d="M134.8,364.7l0.7-6.3c12.7,1.5,46.6-6.9,82.5-20.3c42.8-16.1,70.9-32.3,76.5-40.1l5.1,3.7
			c-7.4,10.3-39.3,27.3-79.4,42.3C182.9,358,148.5,366.3,134.8,364.7z"/>
		<path class="st6" d="M141.5,333.3L141,327c14.4-1.2,39.8-8,66.1-17.9c27.6-10.4,51.7-22.2,62.8-30.9l3.9,5
			c-11.6,9.1-36.3,21.3-64.5,31.8C182.5,325,156.5,332.1,141.5,333.3z"/>
		<path class="st6" d="M136.2,381.9l0.4-6.3c14.6,1,49.6-7.7,87.2-21.8c39.5-14.8,72.9-32.1,81.3-42.2l4.8,4
			c-9.2,11-42.9,28.7-83.9,44.1C187.1,374.3,151.8,383,136.2,381.9z"/>
		<path class="st9" d="M228.6,459.1c-22.1,0-44-7.7-61.4-22.3c-0.3-0.3-0.6-0.6-0.7-1c-0.1-0.4-0.1-0.8,0-1.2
			c0.1-0.4,0.3-0.8,0.6-1.1c0.3-0.3,0.7-0.5,1.1-0.5c23.9-4.4,50.9-12,78.1-22.2s52.5-22.1,73.4-34.6c0.4-0.2,0.8-0.3,1.2-0.3
			c0.4,0,0.8,0.1,1.2,0.4s0.6,0.6,0.8,0.9c0.2,0.4,0.2,0.8,0.2,1.2c-5.4,34-28.7,62.6-60.9,74.6C251.3,457,240,459.1,228.6,459.1z
			 M173.7,436.4c24.8,18.6,57.6,23.5,86.8,12.5c29.2-11,50.8-36.2,57.2-66.5c-20.3,11.7-44.4,22.9-70,32.5
			C222.2,424.4,196.7,431.8,173.7,436.4z"/>
		<path class="st10" d="M370.2,324.4c4.8,12.8-15.2,33.2-49.5,53.6c-20.3,12.1-45.6,24.2-73.8,34.7c-28.2,10.6-55.2,18.1-78.4,22.3
			c-39.2,7.2-67.7,4.9-72.5-7.9c-4.4-11.6,11.7-29.5,40.4-48c0.7,3.9,1.6,7.8,2.8,11.6c-8,5.7-12,10.3-10.9,13.3
			c1.1,3,7.4,3.8,17.5,2.8c19.4-2,52.8-11,89.7-24.8s67.9-29,83.9-40.3c8.3-5.8,12.5-10.6,11.4-13.6c-1.1-2.9-7.2-3.8-16.9-2.8
			c-1.6-3.6-3.5-7.1-5.5-10.5C342,309.9,365.9,312.8,370.2,324.4z"/>
		<path class="st11" d="M126,415.9c-4.5-1-7.6-3-8.8-6.1c-2.4-6.3,4-14.6,19.4-25.2l2.9,4.2c-14.5,10-18.6,16.5-17.5,19.3
			c1.7,4.6,19,6,53-1.9c19-4.4,40.5-11,62.4-19.2c21.8-8.2,42.5-17.4,59.7-26.5c30.7-16.4,42.9-28.8,41.2-33.4c-1-2.7-8.4-5-25.9-3
			l-0.6-5.1c18.6-2.1,28.8-0.1,31.2,6.3c4.2,11.3-21.3,27.8-43.5,39.7c-17.4,9.3-38.2,18.5-60.3,26.8s-43.8,15-63,19.4
			C158.3,415.2,137.7,418.6,126,415.9z"/>
		<path class="st11" d="M117.3,427.8c-6.3-1.5-11-4.2-12.7-8.8c-4.5-11.9,14.5-27.5,31.1-38.5l2.8,4.3
			c-24.4,16.1-31.1,27.3-29.1,32.4c2.4,6.3,19.9,10.6,61.6,2.1c21.6-4.4,46-11.6,70.6-20.9c24.6-9.2,47.8-19.8,66.9-30.7
			c37.1-21,47.5-35.8,45.1-42.1c-1.9-5.1-14.3-9.2-43.3-5.3l-0.7-5.1c19.8-2.7,44.2-3.4,48.7,8.5c5.8,15.5-27.2,36.9-47.4,48.3
			c-19.4,11-42.8,21.7-67.6,31c-24.9,9.3-49.5,16.6-71.4,21.1C156.1,427.6,132.2,431.2,117.3,427.8z"/>
		<g class="st7">
			<path class="st8" d="M177.1,431.1c22.8-4.1,49.2-11.4,76.7-21.7c-24.7,1.8-41.6-1.9-45.2-11.5c-0.7-1.9-0.9-4-0.5-6.3
				c-25.6,8.3-47.8,13.7-62.2,15.2c-10.1,1-16.4,0.2-17.5-2.8c-1.1-2.9,2.9-7.6,10.9-13.3c-1-3.3-1.8-6.7-2.5-10.1
				c-23.5,16.5-36.1,32-32.2,42.5C109.4,436,137.8,438.2,177.1,431.1z"/>
		</g>
		<path class="st9" d="M130,441.3c-20,0-32.6-4.5-35.9-13.4c-4.7-12.5,10-30.4,41.2-50.6c0.3-0.2,0.7-0.3,1-0.3c0.4,0,0.7,0,1.1,0.2
			c0.3,0.1,0.6,0.4,0.8,0.7c0.2,0.3,0.4,0.6,0.4,1c0.7,3.8,1.6,7.6,2.7,11.3c0.1,0.4,0.1,0.9,0,1.3c-0.1,0.4-0.4,0.8-0.8,1.1
			c-11,7.9-10.1,10.7-10.1,10.7c0,0,1.2,2.8,15.2,1.4c19.8-2.1,54-11.5,89.1-24.7c35.1-13.2,67.1-28.5,83.4-40
			c11.5-8.1,10.6-11,10.6-11c0,0-1.2-2.7-14.7-1.4c-0.5,0-0.9-0.1-1.3-0.3c-0.4-0.2-0.7-0.6-0.9-1c-1.6-3.5-3.4-7-5.4-10.3
			c-0.2-0.3-0.3-0.7-0.3-1c0-0.4,0.1-0.7,0.2-1.1c0.2-0.3,0.4-0.6,0.7-0.8c0.3-0.2,0.6-0.4,1-0.4c36.8-5.4,59.6-1.4,64.3,11
			c5.1,13.6-13.3,34.2-50.4,56.3c-21.1,12.6-46.8,24.7-74.1,34.9c-27.4,10.3-54.6,18-78.8,22.4C154,440,140.9,441.3,130,441.3z
			 M134.9,382.9c-26.7,17.7-40.4,33.9-36.8,43.6c4.2,11.1,31,13.6,70,6.5c23.9-4.4,50.9-12,78.1-22.2s52.5-22.1,73.4-34.6
			c34.1-20.3,52.7-39.8,48.5-51c-3.6-9.7-24.6-12.9-56.3-8.7c1.2,2.1,2.3,4.3,3.3,6.5c10.6-0.9,16.2,0.5,17.6,4.4
			c1.5,4.1-2.3,9.2-12.1,16.2c-16.8,11.9-48.4,27-84.4,40.5c-36,13.5-69.7,22.8-90.2,24.9c-12,1.2-18.2-0.1-19.8-4.2
			c-1.4-3.9,1.9-8.6,10.4-14.9C136,387.6,135.4,385.2,134.9,382.9z"/>
		<g class="st7">
			<path class="st8" d="M325.7,339.5c-16,11.3-47.1,26.4-83.9,40.3c-36.8,13.8-70.2,22.8-89.7,24.8c-1.8-3.4-3.4-7-4.8-10.6
				c-0.1-0.2-0.1-0.3-0.2-0.5c-0.6-1.6-1.2-3.3-1.6-4.9c-1.2-3.8-2.1-7.7-2.8-11.6c0-0.2-0.1-0.3-0.1-0.5
				c-2.7-16.4-1.1-33.1,4.9-48.6c7.5-19.6,21.4-36.5,40.3-47.5c-11.7,15.7-18.2,34.6-18.6,54.2c-0.1,5.8,0.3,11.5,1.3,17.2
				c0,0.2,0.1,0.3,0.1,0.5c0,0.2,0.1,0.5,0.2,0.8c3.6,16.4,20.4,24.3,37.1,23.9c31.9-0.6,103.2-32.9,118.4-40.4
				C327,339,325.1,337,325.7,339.5z"/>
		</g>
		<g class="st12">
			<path class="st13" d="M316.7,343.5c-1.9,1.3-3.9,2.7-6.2,4.1c-0.7-2.5-1.5-5-2.5-7.5c-0.1-0.4-0.3-0.8-0.4-1.1
				c-0.5-1.4-1.1-2.8-1.7-4.1c-1.6-3.6-3.5-7.1-5.5-10.5c-0.2-0.4-0.5-0.8-0.8-1.2c-3.1-4.9-6.6-9.5-10.5-13.7
				c-7.2-7.8-15.7-14.3-25.1-19.2c-22.7-11.9-50.2-14.5-76.1-4.8c-17.3,6.5-31.5,17.6-41.9,31.3c10.9-18,27.4-31.7,47.1-39.1
				c25.9-9.7,53.4-7.2,76.1,4.8c14.6,7.6,26.9,19,35.7,32.9c0.3,0.4,0.5,0.8,0.8,1.2c2.1,3.4,3.9,6.9,5.5,10.5
				c0.6,1.4,1.2,2.7,1.7,4.1c0.2,0.4,0.3,0.8,0.4,1.2C314.7,336,315.8,339.7,316.7,343.5z"/>
		</g>
		<path class="st9" d="M145.8,409.1c-0.4,0-0.8-0.1-1.1-0.3c-0.3-0.2-0.6-0.5-0.8-0.9c-1.8-3.5-3.5-7.2-4.9-10.9
			c-0.7-1.8-1.3-3.7-1.9-5.5c-1.2-3.9-2.1-7.8-2.8-11.8c-7.8-45.2,17.7-89.6,60.7-105.8c43-16.1,91.4,0.6,115.2,39.8
			c2.1,3.5,4,7.1,5.6,10.8c0.8,1.8,1.5,3.6,2.2,5.4c1.4,3.7,2.6,7.5,3.5,11.4c0.1,0.4,0.1,0.9-0.1,1.3c-0.2,0.4-0.4,0.8-0.8,1
			c-16.8,11.9-48.4,27-84.4,40.5c-36,13.5-69.7,22.8-90.2,24.9C146,409,145.9,409.1,145.8,409.1z M228.5,272.2
			c-10.9,0-21.7,2-32,5.8c-41,15.4-65.3,57.8-57.9,100.9c0.7,3.8,1.6,7.6,2.7,11.3c0.5,1.8,1.1,3.5,1.8,5.3c1.2,3.1,2.5,6.1,4,9.1
			c20-2.4,53.4-11.7,87.6-24.5s65.5-27.7,82.2-39.1c-0.8-3.2-1.8-6.3-3-9.4c-0.7-1.7-1.4-3.5-2.1-5.2c-1.6-3.5-3.4-7-5.4-10.3
			C289.5,288.1,259.6,272.2,228.5,272.2z"/>
		<path class="st14" d="M179.6,428.6L179,428c0,0,0.1,0.1,0.1,0.1C179.3,428.3,179.5,428.4,179.6,428.6z"/>
		<path class="st9" d="M179.5,428.8c-0.2-0.2-0.3-0.3-0.5-0.5l0,0c0,0-0.1-0.1-0.1-0.1l0.4-0.3l0.6,0.6L179.5,428.8z"/>
		<g class="st15">
			<path class="st16" d="M174.8,283.2c2.3-2.2,4.6-4.3,7.1-6.3c-2.4,1.6-4.7,3.3-7,5.1C174.8,282.4,174.8,282.8,174.8,283.2z"/>
			<path class="st17" d="M174.5,283.8l0-0.7c0-0.4,0.1-0.8,0.1-1.2l0-0.1l0.1-0.1c2.2-1.8,4.6-3.5,7-5.1l0.3,0.4
				c-2.5,2-4.8,4.1-7.1,6.3L174.5,283.8z M175.1,282.1c0,0.1,0,0.3-0.1,0.4c0.8-0.8,1.6-1.6,2.5-2.3
				C176.7,280.8,175.9,281.5,175.1,282.1L175.1,282.1z"/>
		</g>
		<path class="st18" d="M168.9,289.5c3.2,2.9,7.9,5.6,14,4.5c11.8-2.3,11.8-22.4,11.8-22.4l19.4-56.5l-0.4-0.4l-12.1-9.9H198
			c-2.3,0-4.6,0.8-6.3,2.4c-0.5,0.4-0.9,0.9-1.3,1.4c-16.1,20.6-25.3,43.7-26.1,69.8c-0.1,2.1,0.3,4.1,1.1,6
			C166.2,286.4,167.4,288.1,168.9,289.5z"/>
		<g class="st15">
			<path class="st17" d="M191.7,207.3l12.2,12.4c0,0,4.8-2.3,9.7-4.9l-12-9.9H198C195.7,204.9,193.5,205.8,191.7,207.3z"/>
		</g>
		<g class="st15">
			<path class="st17" d="M168.9,289.5c3.2,2.9,7.9,5.6,14,4.5c11.8-2.3,11.8-22.4,11.8-22.4l17.4-50.5c-4.9,1-9.5,2.2-12.5,4
				c-12.3,7.5-19.4-1.2-19.4-1.2c-9.7,16.6-15.2,34.7-15.8,54.6c-0.1,2.1,0.3,4.1,1.1,6C166.2,286.4,167.4,288.1,168.9,289.5z"/>
		</g>
		<path class="st9" d="M180,295.9c-4.3,0-8.5-1.8-12.2-5.2c-1.7-1.6-3-3.5-3.9-5.6c-0.9-2.1-1.3-4.4-1.2-6.7
			c0.8-25.5,9.7-49.3,26.5-70.8c1.1-1.4,2.4-2.5,4-3.2c1.5-0.8,3.2-1.2,5-1.1h3.5c0.4,0,0.7,0.1,1,0.4l12.5,10.2
			c0.3,0.3,0.6,0.7,0.6,1.1c0,0.4-0.1,0.9-0.4,1.2c-0.3,0.3-0.7,0.6-1.1,0.6c-0.4,0-0.9-0.1-1.2-0.4l-12-9.9h-3
			c-1.2,0-2.4,0.3-3.5,0.8c-1.1,0.5-2.1,1.3-2.8,2.3c-16.3,20.9-25,44.1-25.8,68.9c-0.1,1.8,0.3,3.7,1,5.4c0.7,1.7,1.8,3.2,3.1,4.5
			c3.9,3.6,8.1,4.9,12.6,4.1c10.3-2,10.4-20.6,10.4-20.8c0-0.2,0-0.4,0.1-0.6c0.1-0.2,0.2-0.4,0.4-0.5c0.2-0.2,0.3-0.3,0.5-0.4
			c0.2-0.1,0.4-0.1,0.6-0.1c0.4,0,0.9,0.2,1.2,0.5c0.3,0.3,0.5,0.7,0.5,1.2c0,0.9-0.1,21.5-13.1,24
			C182.2,295.8,181.1,295.9,180,295.9z"/>
		<path class="st19" d="M286.7,276.5c-6.7-2.6-9.7-7.8-11-11.1c-0.6-1.6-0.9-3.4-0.8-5.1l0.6-15.2l-8.1-1.9l-8.2,19.8l-5.1,23.8"/>
		<g class="st15">
			<path class="st17" d="M264.8,268c0,0,0.7,7.2,8.2,11.6c7.5,4.4-13.3,10-14.7,6.5c-1.4-3.5,2.9-11.2,2.9-11.2"/>
		</g>
		<path class="st18" d="M167.4,258.7c4,3.4,10.2,7.6,14.5,5.8l4.3-13.7l2.7-8.6l2.8-5.7l-11.7-7.2c-0.7-0.4-1.4-0.6-2.2-0.6
			c-0.8,0-1.6,0.2-2.3,0.6l-4.6,2.6c-0.5,0.3-0.9,0.7-1.3,1.1c-0.4,0.5-0.6,1-0.8,1.5l-1.9,7.1l-2.2,8.2c-0.4,1.6-0.4,3.3,0.1,4.8
			C165.2,256.2,166.1,257.6,167.4,258.7z"/>
		<path class="st9" d="M179.7,266.5c-4.5,0-9.6-3.4-13.4-6.6c-1.5-1.3-2.6-2.9-3.2-4.8s-0.6-3.9-0.1-5.8l4.2-15.2
			c0.2-0.8,0.6-1.5,1.1-2.1c0.5-0.6,1.1-1.2,1.8-1.5l4.6-2.6c0.9-0.5,2-0.8,3.1-0.8c1.1,0,2.1,0.3,3.1,0.9l11.7,7.2
			c0.3,0.2,0.6,0.6,0.7,0.9c0.1,0.4,0.1,0.8-0.1,1.2l-2.8,5.7c-0.1,0.2-0.2,0.4-0.4,0.5c-0.2,0.1-0.4,0.3-0.6,0.3
			c-0.2,0.1-0.4,0.1-0.6,0.1c-0.2,0-0.4-0.1-0.6-0.2c-0.2-0.1-0.4-0.2-0.5-0.4c-0.1-0.2-0.3-0.4-0.3-0.6c-0.1-0.2-0.1-0.4-0.1-0.6
			c0-0.2,0.1-0.4,0.2-0.6l2.2-4.4l-10.4-6.4c-0.4-0.3-0.9-0.4-1.4-0.4c-0.5,0-1,0.1-1.4,0.4l-4.6,2.6c-0.3,0.2-0.6,0.4-0.8,0.7
			c-0.2,0.3-0.4,0.6-0.5,1l-4.2,15.2c-0.3,1.3-0.3,2.6,0.1,3.9c0.4,1.3,1.1,2.4,2.2,3.3c5.5,4.6,10.1,6.6,12.8,5.6
			c0.2-0.1,0.4-0.1,0.6-0.1c0.2,0,0.4,0,0.6,0.1c0.2,0.1,0.4,0.2,0.5,0.4c0.2,0.2,0.3,0.3,0.4,0.5c0.1,0.2,0.1,0.4,0.1,0.6
			c0,0.2,0,0.4-0.1,0.6c-0.1,0.2-0.2,0.4-0.4,0.5c-0.2,0.2-0.3,0.3-0.5,0.3C181.6,266.4,180.7,266.5,179.7,266.5z"/>
		<path class="st9" d="M186.4,249c-0.2,0-0.4,0-0.6-0.1c-0.2-0.1-0.4-0.2-0.5-0.4c-0.1-0.2-0.2-0.4-0.3-0.6c0-0.2,0-0.4,0-0.6
			c0.1-0.3,0.1-0.6,0.1-0.9c0.1-1.8-0.9-3.5-2.5-4.5l-10.9-6.7c-0.4-0.1-0.8-0.1-1.1,0c-0.4,0.1-0.6,0.4-0.8,0.8
			c-0.2,0.3-0.4,0.6-0.8,0.7c-0.3,0.1-0.7,0.1-1,0c-0.3-0.1-0.6-0.4-0.7-0.8c-0.1-0.3-0.1-0.7,0-1c0.5-1,1.3-1.8,2.4-2.2
			s2.2-0.3,3.2,0.1c0,0,0.1,0,0.1,0.1l11,6.8c2.5,1.5,4,4.2,3.8,7c0,0.5-0.1,1-0.2,1.5c-0.1,0.3-0.3,0.5-0.5,0.7
			C187,248.9,186.7,249,186.4,249z"/>
		<g class="st15">
			<path class="st17" d="M167.4,258.7c4,3.4,10.2,7.6,14.5,5.8l4.3-13.7c-0.6,0.1-1.1,0.1-1.7,0.2c-17.4,3.3-17.6-9.4-17.6-9.4
				l-2.2,8.2c-0.4,1.6-0.4,3.3,0.1,4.8C165.2,256.2,166.1,257.6,167.4,258.7z"/>
		</g>
		<path class="st9" d="M262.7,287.8c-0.2,0-0.5-0.1-0.7-0.2c-0.2-0.1-0.4-0.3-0.6-0.5l-3.8-4.8c-0.1-0.2-0.2-0.4-0.3-0.6
			c-0.1-0.2-0.1-0.4,0-0.6c0-0.2,0.1-0.4,0.2-0.6c0.1-0.2,0.2-0.4,0.4-0.5c0.2-0.1,0.4-0.2,0.6-0.3c0.2-0.1,0.4-0.1,0.6-0.1
			c0.2,0,0.4,0.1,0.6,0.2c0.2,0.1,0.4,0.2,0.5,0.4l3.8,4.8c0.2,0.2,0.3,0.5,0.3,0.8c0,0.3,0,0.6-0.2,0.9c-0.1,0.3-0.3,0.5-0.6,0.7
			C263.3,287.7,263,287.8,262.7,287.8L262.7,287.8z"/>
		<path class="st9" d="M286.7,278.2c-0.2,0-0.4,0-0.6-0.1c-7.5-2.9-10.7-8.8-11.9-12.1c-0.7-1.8-1-3.8-0.9-5.8l0.6-15.2
			c0-0.4,0.2-0.8,0.5-1.1s0.7-0.4,1.2-0.4c0.4,0,0.8,0.2,1.1,0.5c0.3,0.3,0.5,0.7,0.4,1.2l-0.6,15.2c-0.1,1.5,0.2,3,0.7,4.5
			c1.3,3.4,4.1,7.9,10,10.2c0.4,0.1,0.7,0.4,0.8,0.7c0.2,0.3,0.2,0.7,0.2,1.1c-0.1,0.4-0.3,0.7-0.6,1
			C287.5,278,287.1,278.2,286.7,278.2z"/>
		<path class="st19" d="M213.2,245.1l45,17.2c3.5-4.9,6.3-11.4,8.1-16.1c1.4-3.7,2.2-6.4,2.2-6.4l-2.9-5.4l-42.1-6.4l-4.3,7.2
			L213.2,245.1z"/>
		<g class="st15">
			<path class="st17" d="M219.2,235.1c5.1,4,10.9,7.2,17.1,9.2c0,0,0,0,0,0c9.7,3.2,20,3.8,30,1.8c1.4-3.7,2.2-6.4,2.2-6.4l-2.9-5.4
				l-42.1-6.4L219.2,235.1z"/>
		</g>
		<path class="st9" d="M258.2,263.9c-0.3,0-0.6-0.1-0.9-0.2c-0.3-0.2-0.5-0.4-0.6-0.6s-0.2-0.6-0.2-0.9c0-0.3,0.1-0.6,0.3-0.8
			c6-8.5,10.1-21.9,10.1-22c0.1-0.2,0.2-0.4,0.3-0.6c0.1-0.2,0.3-0.3,0.5-0.4c0.2-0.1,0.4-0.2,0.6-0.2c0.2,0,0.4,0,0.6,0.1
			c0.2,0.1,0.4,0.2,0.6,0.3c0.2,0.1,0.3,0.3,0.4,0.5c0.1,0.2,0.2,0.4,0.2,0.6c0,0.2,0,0.4-0.1,0.6c-0.2,0.6-4.3,14-10.6,22.9
			c-0.2,0.2-0.4,0.4-0.6,0.5C258.7,263.8,258.5,263.9,258.2,263.9z"/>
		<path class="st19" d="M266.3,255.1l1.3,3.4c0.3,0.8,0.4,1.6,0.4,2.4c0,0.8-0.2,1.6-0.6,2.4l-10.7,22.4L218,274.4l9.8-31.2
			l34.2,8.1c1,0.2,1.9,0.7,2.6,1.4C265.4,253.3,266,254.2,266.3,255.1z"/>
		<path class="st20" d="M235.1,264.8c2.4,0,4.4-2.1,4.4-4.8s-2-4.8-4.4-4.8c-2.4,0-4.4,2.1-4.4,4.8S232.7,264.8,235.1,264.8z"/>
		<path class="st21" d="M307,317h3.9c0.4,0,0.8,0.1,1.1,0.2c0.4,0.2,0.7,0.4,0.9,0.7c0.3,0.3,0.5,0.6,0.6,1c0.1,0.4,0.2,0.8,0.1,1.1
			c-0.1,0.7-0.4,1.3-0.9,1.8c-0.5,0.5-1.2,0.7-1.9,0.8l-54,0.7c-1.2,0-2.4-0.2-3.5-0.7c-1.1-0.5-2.1-1.1-2.9-2l-24.6-25.5l4-7.2
			l42.2-3.3"/>
		<path class="st9" d="M257.8,309.6c-0.1,0-0.2,0-0.3-0.1c-0.1,0-0.2-0.1-0.3-0.2l-14.9-16.3c-0.1-0.1-0.1-0.2-0.2-0.3
			c0-0.1-0.1-0.2-0.1-0.3c0-0.1,0-0.2,0.1-0.3c0-0.1,0.1-0.2,0.2-0.3c0.1-0.1,0.2-0.1,0.3-0.2c0.1,0,0.2-0.1,0.3,0
			c0.1,0,0.2,0,0.3,0.1c0.1,0,0.2,0.1,0.3,0.2l14.9,16.3c0.1,0.1,0.2,0.3,0.2,0.4c0,0.2,0,0.3-0.1,0.5s-0.2,0.3-0.3,0.4
			C258.1,309.6,258,309.6,257.8,309.6z"/>
		<path class="st9" d="M265.7,308.3c-0.1,0-0.2,0-0.3-0.1c-0.1,0-0.2-0.1-0.3-0.2l-14.9-16.3c-0.1-0.2-0.2-0.4-0.2-0.6
			c0-0.2,0.1-0.4,0.3-0.6c0.2-0.1,0.4-0.2,0.6-0.2c0.2,0,0.4,0.1,0.6,0.3l14.9,16.3c0.1,0.1,0.2,0.3,0.2,0.4c0,0.2,0,0.3-0.1,0.5
			c-0.1,0.1-0.2,0.3-0.3,0.4C266,308.3,265.8,308.3,265.7,308.3z"/>
		<path class="st9" d="M238.6,294.6c-0.2,0-0.4-0.1-0.6-0.2s-0.2-0.3-0.2-0.6c0-0.2,0.1-0.4,0.2-0.6c0.1-0.2,0.3-0.3,0.5-0.3
			l34.3-3.2c0.2,0,0.4,0.1,0.6,0.2c0.2,0.1,0.3,0.3,0.3,0.5c0,0.2,0,0.4-0.2,0.6c-0.1,0.2-0.3,0.3-0.5,0.3L238.6,294.6
			C238.7,294.6,238.7,294.6,238.6,294.6z"/>
		<path class="st9" d="M242.9,303.9c-0.2,0-0.4-0.1-0.6-0.2c-0.2-0.1-0.2-0.3-0.3-0.6c0-0.2,0.1-0.4,0.2-0.6
			c0.1-0.2,0.3-0.3,0.5-0.3l28.8-2.4c0.1,0,0.2,0,0.3,0c0.1,0,0.2,0.1,0.3,0.2c0.1,0.1,0.2,0.2,0.2,0.3c0.1,0.1,0.1,0.2,0.1,0.3
			c0,0.1,0,0.2,0,0.3c0,0.1-0.1,0.2-0.2,0.3c-0.1,0.1-0.2,0.1-0.3,0.2c-0.1,0-0.2,0.1-0.3,0.1L242.9,303.9
			C242.9,303.9,242.9,303.9,242.9,303.9z"/>
		<path class="st9" d="M247.8,309.6c-0.2,0-0.4-0.1-0.6-0.2s-0.2-0.3-0.2-0.6c0-0.2,0.1-0.4,0.2-0.6c0.1-0.2,0.3-0.3,0.5-0.3
			c0.9-0.1,21.5-1.6,22.8-1.6h0c0.2,0,0.4,0.1,0.6,0.2c0.1,0.2,0.2,0.4,0.2,0.6c0,0.2-0.1,0.4-0.2,0.6c-0.1,0.2-0.3,0.2-0.6,0.3
			C269.6,308,255.3,309.1,247.8,309.6C247.9,309.6,247.9,309.6,247.8,309.6z"/>
		<path class="st9" d="M256.8,325c-1.4,0-2.8-0.3-4.1-0.8c-1.3-0.5-2.4-1.3-3.4-2.3l-24.6-25.5c-0.2-0.3-0.4-0.6-0.4-0.9
			c0-0.4,0-0.7,0.2-1l4-7.2c0.1-0.2,0.3-0.4,0.5-0.6c0.2-0.1,0.5-0.2,0.8-0.3l42.2-3.3c0.4,0,0.9,0.1,1.2,0.4
			c0.3,0.3,0.5,0.7,0.6,1.1c0,0.4-0.1,0.9-0.4,1.2c-0.3,0.3-0.7,0.5-1.1,0.6l-41.3,3.2l-3,5.4l23.8,24.6c0.7,0.7,1.5,1.2,2.4,1.6
			c0.9,0.4,1.9,0.6,2.8,0.5l54-0.7c0.2,0,0.4-0.1,0.6-0.2c0.2-0.1,0.3-0.3,0.4-0.5c0.1-0.2,0.1-0.4,0.1-0.7c0-0.2-0.1-0.4-0.3-0.6
			c-0.1-0.1-0.2-0.2-0.4-0.3c-0.1-0.1-0.3-0.1-0.5-0.1H307c-0.4,0-0.9-0.2-1.2-0.5c-0.3-0.3-0.5-0.7-0.5-1.2c0-0.4,0.2-0.9,0.5-1.2
			c0.3-0.3,0.7-0.5,1.2-0.5h3.9c1.2,0,2.3,0.5,3.1,1.3c0.8,0.8,1.3,2,1.3,3.1c0,1.2-0.4,2.3-1.3,3.1c-0.8,0.8-1.9,1.3-3.1,1.4
			l-54,0.7L256.8,325z"/>
		<path class="st9" d="M256.8,287.4c-0.2,0-0.3,0-0.5-0.1L217.6,276c-0.2-0.1-0.4-0.2-0.6-0.3c-0.2-0.1-0.3-0.3-0.4-0.5
			c-0.1-0.2-0.2-0.4-0.2-0.6c0-0.2,0-0.4,0.1-0.6l9.7-31.2c0.1-0.4,0.4-0.7,0.8-0.9c0.4-0.2,0.8-0.3,1.2-0.2l34.2,8.1
			c1.2,0.3,2.4,0.9,3.3,1.7c1,0.8,1.7,1.9,2.1,3.1l1.3,3.4c0.4,1,0.5,2,0.5,3.1c0,1.1-0.3,2.1-0.8,3l-10.7,22.4
			c-0.1,0.3-0.3,0.5-0.6,0.7C257.4,287.3,257.1,287.4,256.8,287.4z M220.1,273.3l35.8,10.5l10.1-21.1c0.3-0.6,0.4-1.1,0.4-1.8
			c0-0.6-0.1-1.2-0.3-1.8l-1.3-3.5c-0.3-0.7-0.7-1.3-1.2-1.8c-0.6-0.5-1.2-0.8-1.9-1l-32.7-7.8L220.1,273.3z"/>
		<path class="st9" d="M235.1,266.2c-3.2,0-5.8-2.7-5.8-6.1c0-3.4,2.6-6.1,5.8-6.1c3.2,0,5.8,2.8,5.8,6.1
			C240.9,263.4,238.3,266.2,235.1,266.2z M235.1,256.7c-1.7,0-3,1.5-3,3.4c0,1.9,1.4,3.4,3,3.4c1.7,0,3-1.5,3-3.4
			C238.2,258.2,236.8,256.7,235.1,256.7z"/>
		<path class="st19" d="M180.7,295c2.9,9.2,9.1,13.5,17.6,14.5c2.6,3.4,5.4,5.8,8.4,7.5c0,0,0,0,0,0l-1.2-3.6l-3-8.6
			c-0.1-0.4-0.1-0.7-0.2-1.1c-0.5-3.4,0.1-6.8,0.5-8.8c0.2-1.1,0.4-1.7,0.4-1.7s3-14.9,12-16.5c9-1.6,11.3,8,11.3,8
			c3.9,4.1,7.9,7.4,12.1,9.1c2.3,13.4,26.6,0.8,15-12.2c4.1-1.5,3.5-7.2-5.1-7.9c-0.3-0.2-6-4.3-9.7-7.1c-2.2-1.6-4-3.8-5.2-6.3
			c-3.2-6.9-5.6-14.1-6.6-21.7l-17.1-22.5c-16.8,10.4-26.4,34.1-29.4,57.2c-0.5,4.1-0.8,8.1-1,12.1
			C179.4,288.6,179.8,291.9,180.7,295z"/>
		<path class="st9" d="M267.9,260.9c-0.1,0-0.2,0-0.3,0l-38.3-9.4c-0.2,0-0.3-0.1-0.5-0.2c-0.1-0.1-0.3-0.2-0.4-0.4
			c-0.1-0.2-0.2-0.3-0.2-0.5c0-0.2,0-0.4,0-0.5s0.1-0.3,0.2-0.5c0.1-0.1,0.2-0.3,0.4-0.4c0.2-0.1,0.3-0.2,0.5-0.2c0.2,0,0.4,0,0.5,0
			l38.3,9.3c0.3,0.1,0.6,0.3,0.8,0.6c0.2,0.3,0.3,0.6,0.2,0.9c0,0.3-0.2,0.6-0.4,0.9C268.6,260.7,268.3,260.9,267.9,260.9
			L267.9,260.9z"/>
		<path class="st9" d="M240.9,269.6c-0.3,0-0.7-0.1-0.9-0.4c-0.3-0.2-0.4-0.5-0.4-0.9c0-0.3,0.1-0.7,0.3-1c0.2-0.3,0.5-0.5,0.8-0.5
			l7.4-1.3c0.5-0.1,1.1-0.3,1.5-0.7c0.4-0.4,0.8-0.8,0.9-1.3l2.9-7.8c0.1-0.2,0.2-0.3,0.3-0.5c0.1-0.1,0.3-0.2,0.4-0.3
			c0.2-0.1,0.3-0.1,0.5-0.1c0.2,0,0.4,0,0.5,0.1c0.2,0.1,0.3,0.2,0.5,0.3c0.1,0.1,0.2,0.3,0.3,0.4c0.1,0.2,0.1,0.3,0.1,0.5
			c0,0.2,0,0.4-0.1,0.5l-2.9,7.8c-0.4,1-1,1.8-1.8,2.5c-0.8,0.7-1.7,1.1-2.8,1.3l-7.4,1.3C241.1,269.6,241,269.6,240.9,269.6z"/>
		<path class="st21" d="M259.6,317.5h51.1c2.1,0,4.2-0.6,6-1.7c1.8-1.1,3.2-2.7,4.1-4.7l14.4-30.4c1.6-3.5-0.7-7.5-4.5-7.7
			l-47.7-2.8c-2.6-0.1-5.2,0.5-7.4,1.9c-2.2,1.4-4,3.4-5,5.8l-14.7,33.9c-0.3,0.6-0.4,1.3-0.3,2c0.1,0.7,0.3,1.3,0.7,1.9
			c0.4,0.6,0.9,1,1.5,1.4C258.3,317.3,258.9,317.5,259.6,317.5z"/>
		<path class="st22" d="M305,290.5c3.9,0.9,6.5,2.5,6.5,4.4c0,1.8-2.5,3.4-6.2,4.3c-2.1,0.5-4.5,0.8-7.1,0.8c-2.8,0-5.4-0.3-7.6-0.9
			c-3.5-0.9-5.8-2.5-5.8-4.2c0-1.8,2.4-3.4,6.1-4.3"/>
		<path class="st22" d="M305,290.5c0.8,1.3,1.3,2.8,1.3,4.3c0.1,1.5-0.3,3-1,4.4c3.7-0.9,6.2-2.5,6.2-4.3
			C311.5,293,308.9,291.4,305,290.5z"/>
		<path class="st23" d="M298,303.7c4.6,0,8.3-3.8,8.3-8.5c0-4.7-3.7-8.5-8.3-8.5c-4.6,0-8.3,3.8-8.3,8.5
			C289.7,299.8,293.4,303.7,298,303.7z"/>
		<g class="st24">
			<path class="st25" d="M292,289.3c1.3-0.8,2.8-1.3,4.4-1.3c4.6,0,8.3,3.8,8.3,8.5c0,2.2-0.8,4.3-2.3,5.9c1.2-0.8,2.2-1.9,2.9-3.1
				c0.7-1.3,1-2.7,1-4.1c0-4.7-3.7-8.5-8.3-8.5c-1.1,0-2.3,0.2-3.3,0.7C293.7,287.8,292.7,288.4,292,289.3z"/>
		</g>
		<path class="st9" d="M298,304.5c-5.1,0-9.2-4.2-9.2-9.4s4.1-9.4,9.2-9.4c5.1,0,9.2,4.2,9.2,9.4S303.1,304.5,298,304.5z M298,287.4
			c-4.1,0-7.5,3.4-7.5,7.7c0,4.2,3.4,7.7,7.5,7.7c4.1,0,7.5-3.4,7.5-7.7C305.5,290.9,302.1,287.4,298,287.4z"/>
		<path class="st22" d="M288,293.4c0,3.9,19.2,4.7,20.1,0l1.9,3.9c-7.3,3.2-15,3.2-23,0L288,293.4z"/>
		<path class="st9" d="M298.2,300.9c-2.8,0-5.5-0.3-7.8-0.9c-4.1-1.1-6.4-2.9-6.4-5c0-2.2,2.4-4,6.7-5.1c0.2,0,0.4,0,0.6,0.1
			c0.2,0.1,0.3,0.3,0.4,0.5c0.1,0.2,0,0.4-0.1,0.6c-0.1,0.2-0.3,0.3-0.5,0.4c-3.2,0.8-5.4,2.2-5.4,3.5c0,1.2,2,2.6,5.1,3.4
			c2.2,0.6,4.7,0.9,7.3,0.9c2.5,0,4.9-0.3,6.9-0.8c3.3-0.8,5.6-2.2,5.6-3.5c0-1.1-1.8-2.6-5.8-3.6c-0.2-0.1-0.4-0.2-0.5-0.4
			c-0.1-0.2-0.2-0.4-0.1-0.6c0-0.2,0.2-0.4,0.4-0.5c0.2-0.1,0.4-0.2,0.6-0.1c4.5,1,7.2,2.9,7.2,5.2c0,2.2-2.5,4.1-6.8,5.1
			C303.3,300.6,300.8,300.9,298.2,300.9z"/>
		<path class="st9" d="M308.4,293.4c0,0.3-0.1,0.5-0.2,0.8c-0.1,0.2-0.3,0.4-0.5,0.6c-0.4,0.4-0.8,0.7-1.2,0.9
			c-0.9,0.4-1.8,0.8-2.7,1c-1.9,0.4-3.8,0.6-5.7,0.6c-1.9,0-3.8-0.2-5.6-0.6c-0.9-0.2-1.9-0.5-2.7-0.9c-0.5-0.2-0.9-0.5-1.2-0.8
			c-0.2-0.2-0.4-0.4-0.5-0.6c-0.1-0.3-0.2-0.5-0.2-0.8c0-0.1,0-0.1,0.1-0.2c0,0,0.1-0.1,0.2-0.1c0.1,0,0.1,0,0.2,0.1
			c0.1,0,0.1,0.1,0.1,0.2v0c0.1,0.7,1,1.2,1.8,1.5c0.8,0.3,1.7,0.5,2.6,0.6c1.8,0.3,3.6,0.4,5.4,0.4c0.9,0,1.8,0,2.7-0.1
			c0.9-0.1,1.8-0.1,2.7-0.3c0.9-0.1,1.7-0.4,2.6-0.7c0.8-0.3,1.6-0.8,1.8-1.5v0c0-0.1,0.1-0.1,0.1-0.1c0.1,0,0.1,0,0.2,0
			s0.1,0.1,0.2,0.1C308.3,293.3,308.3,293.3,308.4,293.4L308.4,293.4z"/>
		<path class="st19" d="M298,285.7c3.1,0,5.9,1.6,7.6,4c4.4,1.1,6.9,3,6.9,5.2c0,2.2-2.4,4-6.5,5.1c-1.6,2.7-4.6,4.6-7.9,4.6
			c-3.4,0-6.4-1.9-8-4.7c-3.9-1.1-6.1-2.9-6.1-5c0-2.2,2.3-4,6.4-5.1C292,287.3,294.8,285.7,298,285.7L298,285.7z M298,285
			c-1.6,0-3.2,0.4-4.6,1.1c-1.4,0.7-2.6,1.8-3.5,3.1c-4.3,1.2-6.7,3.2-6.7,5.7c0,2.4,2.2,4.4,6.3,5.6c1.8,3,5,4.8,8.4,4.8
			c3.4,0,6.5-1.8,8.4-4.7c4.4-1.2,6.8-3.2,6.8-5.7c0-2.6-2.5-4.6-7.1-5.8c-0.9-1.3-2.1-2.3-3.5-3C301.1,285.4,299.6,285,298,285
			L298,285z"/>
		<g class="st26">
			<path class="st27" d="M273,274.1c1.5-0.5,3.1-0.7,4.6-0.6l51.4,3.1c0.5,0,0.9,0.2,1.3,0.4c0.4,0.2,0.7,0.6,1,1
				c0.2,0.4,0.4,0.9,0.4,1.3c0,0.5-0.1,0.9-0.3,1.4l-16,33.8c-0.5,1-1,1.8-1.7,2.6c1.5-0.4,3-1.2,4.2-2.2c1.2-1,2.2-2.3,2.9-3.8
				l14.4-30.4c1.6-3.5-0.7-7.5-4.5-7.7l-47.7-2.8c-1.8-0.1-3.7,0.2-5.4,0.9C275.8,271.7,274.2,272.7,273,274.1z"/>
		</g>
		<path class="st9" d="M261.1,285.5c-0.2,0-0.4,0-0.5-0.1c-0.3-0.1-0.6-0.4-0.7-0.8c-0.1-0.3-0.1-0.7,0-1
			c7.3-17,16.9-16.8,17.3-16.8c0.4,0,0.7,0.2,1,0.4c0.2,0.3,0.4,0.6,0.4,1c0,0.4-0.2,0.7-0.4,1c-0.3,0.2-0.6,0.4-1,0.4
			c-0.2,0-8.2,0.2-14.6,15.1c-0.1,0.2-0.3,0.5-0.5,0.6C261.7,285.4,261.4,285.5,261.1,285.5z"/>
		<path class="st28" d="M289.1,245c6-6,6-15.6,0-21.6c-6-6-15.6-6-21.6,0c-6,6-6,15.6,0,21.6C273.4,250.9,283.1,250.9,289.1,245z"/>
		<g class="st15">
			<path class="st17" d="M263,234.2c0,3.2,1,6.3,2.8,8.9c1.8,2.6,4.5,4.5,7.5,5.6c3,1,6.3,1.1,9.3,0.2c3-0.9,5.7-2.7,7.7-5.3
				c-3.1,0.9-6.4,0.7-9.4-0.4c-3-1.1-5.6-3.2-7.4-5.8c-1.8-2.7-2.7-5.8-2.6-9c0.1-3.2,1.2-6.3,3.2-8.8c-3.2,0.9-6,2.8-8.1,5.5
				C264.1,227.6,263,230.8,263,234.2z"/>
		</g>
		<path class="st9" d="M278.3,251.1c-9.4,0-17-7.6-17-17c0-9.4,7.6-17,17-17c9.4,0,17,7.6,17,17
			C295.2,243.5,287.6,251.1,278.3,251.1z M278.3,220.6c-2.7,0-5.3,0.8-7.5,2.3c-2.2,1.5-4,3.6-5,6.1c-1,2.5-1.3,5.2-0.8,7.8
			c0.5,2.6,1.8,5,3.7,6.9c1.9,1.9,4.3,3.2,6.9,3.7c2.6,0.5,5.4,0.3,7.8-0.8c2.5-1,4.6-2.8,6.1-5c1.5-2.2,2.3-4.9,2.3-7.5
			c0-3.6-1.4-7-4-9.6C285.3,222,281.9,220.6,278.3,220.6z"/>
		<path class="st9" d="M278.3,242.9c-1.7,0-3.4-0.5-4.9-1.5c-1.4-1-2.6-2.3-3.2-3.9c-0.7-1.6-0.8-3.4-0.5-5c0.3-1.7,1.2-3.3,2.4-4.5
			c1.2-1.2,2.8-2.1,4.5-2.4c1.7-0.3,3.4-0.2,5,0.5c1.6,0.7,3,1.8,3.9,3.2c1,1.4,1.5,3.1,1.5,4.9c0,2.3-0.9,4.5-2.6,6.2
			C282.8,242,280.6,242.9,278.3,242.9z M278.3,228.3c-1.2,0-2.3,0.3-3.3,1c-1,0.6-1.7,1.6-2.2,2.6c-0.4,1.1-0.6,2.3-0.3,3.4
			s0.8,2.2,1.6,3c0.8,0.8,1.9,1.4,3,1.6c1.1,0.2,2.3,0.1,3.4-0.3c1.1-0.4,2-1.2,2.6-2.2c0.6-1,1-2.1,1-3.3c0-1.6-0.6-3.1-1.7-4.2
			C281.3,228.9,279.8,228.3,278.3,228.3z"/>
		<path class="st19" d="M298.8,224.5c-7.6,6.6-16.7,11.2-26.5,13.2c-2.1,0.4-4.2,0.7-6.3,1c-1,0.1-2.1,0.2-3.1,0.2
			c-9,0.4-17.9-1.2-26.2-4.7c-1-0.4-2.1-0.9-3.1-1.4c-18.6-9.2-32-27.9-33.3-49.9c-1.9-32.5,23-60,55.6-61.5
			c6.1-0.3,12.3,0.4,18.2,2c0.7,0.2,1.4,0.4,2,0.6c1.8,0.5,3.6,1.2,5.3,1.9c7.9,3.3,15.1,8.2,20.9,14.4c0.9,1,1.8,2,2.7,3
			c1.3,1.6,2.5,3.2,3.6,4.9c5.8,8.7,9.2,18.8,9.8,29.3C319.6,196.1,311.8,213.1,298.8,224.5z"/>
		<path class="st9" d="M260.2,239.1c-8.1,0-16.1-1.6-23.5-4.8c-1-0.4-2.1-0.9-3.1-1.4c-19.3-9.6-32.1-28.8-33.3-50.1
			c-0.9-15.7,4.3-30.7,14.8-42.3c10.5-11.7,25.1-18.6,41-19.3c6.1-0.3,12.3,0.4,18.2,2c0.6,0.2,1.3,0.4,2,0.6
			c1.8,0.5,3.6,1.2,5.3,1.9c7.9,3.3,15.1,8.2,21,14.5c0.9,1,1.8,2,2.7,3.1c1.3,1.6,2.5,3.2,3.6,4.9c5.8,8.7,9.2,18.9,9.8,29.4
			c1.1,18.1-6.1,35.3-19.7,47.2c-7.6,6.6-16.7,11.2-26.6,13.2c-2.1,0.4-4.2,0.8-6.3,1c-1,0.1-2,0.2-3.2,0.2
			C262,239.1,261.1,239.1,260.2,239.1z M258.7,121.4c-0.9,0-1.8,0-2.7,0.1c-15.8,0.7-30.3,7.5-40.8,19.2
			c-10.4,11.6-15.6,26.5-14.7,42.1c1.2,21.2,14,40.3,33.2,49.8c1,0.5,2.1,1,3.1,1.4c8.3,3.5,17.2,5.1,26.1,4.7
			c1.2-0.1,2.2-0.1,3.1-0.2c2.1-0.2,4.2-0.5,6.3-1c9.8-2,18.9-6.6,26.4-13.2c13.5-11.9,20.7-29,19.6-47c-0.6-10.4-4-20.5-9.8-29.2
			c-1.1-1.7-2.3-3.3-3.6-4.9c-0.8-1-1.7-2-2.7-3c-5.9-6.2-13-11.1-20.9-14.4c-1.7-0.7-3.5-1.3-5.3-1.9c-0.7-0.2-1.4-0.4-2-0.6
			C269.1,122.1,263.9,121.4,258.7,121.4z"/>
		<g class="st15">
			<path class="st17" d="M200.3,182.8c1.3,22,14.6,40.7,33.3,49.9c1,0.5,2.1,1,3.1,1.4c8.3,3.5,17.2,5.1,26.2,4.7
				c1.1-0.1,2.1-0.1,3.1-0.2c2.1-0.2,4.2-0.5,6.3-1c7.5-1.6,14.7-4.6,21.1-9c6.4-4.4,11.8-9.9,16-16.4c-7.4,6.1-16.1,10.4-25.5,12.3
				c-2.1,0.4-4.2,0.8-6.3,1c-1,0.1-2.1,0.2-3.1,0.2c-9,0.4-17.9-1.2-26.2-4.7c-1.1-0.5-2.1-0.9-3.1-1.4c-18.6-9.2-32-27.9-33.3-49.9
				c-0.8-12.9,2.7-24.9,9.2-34.9C207.4,146.2,199.2,163.6,200.3,182.8z"/>
		</g>
		<path class="st9" d="M260.2,240.5c-8.3,0-16.5-1.7-24.1-4.9c-1.1-0.5-2.1-1-3.2-1.5c-19.8-9.8-32.8-29.4-34.1-51.2
			c-0.9-16.1,4.4-31.5,15.1-43.4c10.8-12,25.7-19,42-19.8c6.3-0.3,12.6,0.4,18.7,2c0.7,0.2,1.3,0.4,2.1,0.6c1.8,0.6,3.7,1.2,5.4,1.9
			c8.1,3.4,15.4,8.4,21.5,14.8c1,1,1.9,2.1,2.8,3.1c1.3,1.6,2.6,3.3,3.7,5c6,8.9,9.4,19.3,10.1,30c1.1,18.5-6.3,36.2-20.2,48.4
			c-7.8,6.8-17.1,11.4-27.2,13.5c-2.1,0.4-4.3,0.8-6.4,1c-1,0.1-2,0.2-3.2,0.2C262,240.5,261.1,240.5,260.2,240.5z M258.7,122.8
			c-0.9,0-1.8,0-2.7,0.1c-15.4,0.7-29.6,7.4-39.8,18.7c-10.2,11.3-15.2,25.9-14.3,41.1c1.2,20.7,13.6,39.3,32.4,48.6
			c1,0.5,2,1,3,1.4c8.1,3.4,16.8,5,25.5,4.6c1.1-0.1,2.1-0.1,3.1-0.2c2.1-0.2,4.1-0.5,6.1-0.9c9.6-2,18.5-6.4,25.8-12.8
			c13.2-11.6,20.2-28.3,19.1-45.8c-0.6-10.2-3.9-20-9.6-28.5c-1.1-1.7-2.3-3.2-3.5-4.8c-0.8-1-1.7-2-2.6-3
			c-5.7-6.1-12.7-10.9-20.4-14c-1.7-0.7-3.4-1.3-5.1-1.8c-0.7-0.2-1.3-0.4-2-0.6C268.8,123.5,263.8,122.8,258.7,122.8z"/>
		<path class="st9" d="M286.3,232.9c-40.8,10.5-79.4-22-67.6-61.8c8-27.1,41-39.8,66.8-30.2c18.8,7,34.1,22,31.4,53.8
			c0,0-3.4,13.9-10.2,21.4c-6.9,7.5-14.8,13.7-14.8,13.7L286.3,232.9z"/>
		<path class="st29" d="M218.7,171c-11.8,39.8,26.8,72.3,67.6,61.8l1.1-0.6c-38.2-6.9-66.3-41.5-55.1-81.9
			C226.1,155.7,221.2,162.7,218.7,171z"/>
		<path class="st9" d="M260.2,240.3c-2.3,0-4.6-0.1-6.9-0.4l-0.2,0c-16.2-4.5-29.9-14.9-37.5-28.6c-7.2-12.9-8.6-27.6-4.2-42.5
			c4.1-13.7,13.9-25,27.7-31.9c15.3-7.6,33.7-8.7,49.2-2.9c8.6,3.2,15.8,7.6,21.3,13.1l0.1,0.1l0.1,0.1c5.9,8.9,9.4,19.3,10,30
			c1.1,18.5-6.2,36.1-20.1,48.2c-7.7,6.8-17.1,11.4-27.1,13.5c-2.1,0.4-4.3,0.8-6.4,1c-1,0.1-2,0.2-3.2,0.2
			C262,240.3,261.1,240.3,260.2,240.3z M253.7,237.2c3,0.3,6.1,0.4,9.1,0.3c1.1-0.1,2.1-0.1,3.1-0.2c2.1-0.2,4.1-0.5,6.1-0.9
			c9.6-2,18.5-6.4,25.9-12.9c13.2-11.6,20.3-28.4,19.2-46c-0.6-10.2-3.9-20-9.5-28.5c-5.3-5.2-12.1-9.3-20.3-12.4
			c-14.8-5.5-32.3-4.5-47,2.8c-13.1,6.5-22.4,17.3-26.3,30.2c-4.2,14.2-2.8,28.1,4,40.3C225.3,223,238.3,232.9,253.7,237.2z"/>
		<path class="st9" d="M270.8,236.4c-16,0-31.2-6.1-42-17.3c-12.6-13.1-16.8-30.8-11.5-48.5c3.6-12.2,12.4-22.4,24.8-28.5
			c13.7-6.8,30.2-7.8,44-2.6c23.8,8.9,34.7,27.6,32.4,55.4l0,0.2c-0.1,0.6-3.5,14.3-10.6,22.1c-6.9,7.5-14.7,13.6-15,13.8l-0.2,0.1
			l-5.7,3.2l-0.2,0.1C281.5,235.7,276.1,236.4,270.8,236.4z M267.4,139.2c-8.2,0-16.5,1.9-24,5.6c-11.6,5.8-19.8,15.2-23.2,26.7
			c-4.9,16.7-1,33.2,10.8,45.5c13.5,14.1,34.5,19.6,54.7,14.5l5.3-3c0.9-0.7,8.2-6.5,14.6-13.4c6.2-6.8,9.5-19.3,9.8-20.6
			c2.1-26.2-8.1-43.7-30.5-52.1C279.5,140.2,273.5,139.2,267.4,139.2z"/>
		<path class="st19" d="M194.9,159.5c-4.6,10.6-2.1,22.3,5.5,26.1c7.7,3.8,17.6-1.7,22.2-12.3c0-0.1,0.1-0.1,0.1-0.2
			c4.5-10.5,2-22.1-5.6-25.9c-5.9-2.9-13.2-0.3-18.3,5.9C197.2,155,195.9,157.2,194.9,159.5z"/>
		<path class="st9" d="M205.6,187c-1.8,0-3.7-0.4-5.3-1.2c-7.8-3.9-10.3-15.7-5.6-26.5c1-2.3,2.3-4.5,3.9-6.5
			c5.3-6.5,12.8-8.9,18.7-6c7.7,3.8,10.3,15.6,5.7,26.3c0,0.1-0.1,0.1-0.1,0.2c-2.7,6.1-7.3,10.9-12.5,12.8
			C208.9,186.7,207.2,187,205.6,187z M195.2,159.6c-4.5,10.4-2.1,22,5.4,25.7c2.9,1.4,6.2,1.6,9.6,0.3c5-1.8,9.6-6.5,12.2-12.5
			c0-0.1,0.1-0.1,0.1-0.2c4.4-10.4,2-21.8-5.5-25.5c-5.6-2.8-12.8-0.4-18,5.8C197.5,155.2,196.2,157.3,195.2,159.6L195.2,159.6z"/>
		<g class="st15">
			<path class="st17" d="M194.9,159.5c-4.6,10.6-2.1,22.3,5.5,26.1c7.7,3.8,17.6-1.7,22.2-12.3c0-0.1,0.1-0.1,0.1-0.2
				c-1.3,0.7-3.1,1.1-4.7-0.2c-2.8-2.2-5.4-11.8-5.4-11.8s-5.9-3.5-13.8-8C197.2,155,195.9,157.2,194.9,159.5z"/>
		</g>
		<path class="st9" d="M205.6,188.3c-2,0-4-0.5-5.9-1.4c-8.4-4.2-11.2-16.8-6.2-28.1c2.8-6.5,7.7-11.5,13.2-13.5
			c3.9-1.4,7.7-1.3,11.1,0.4c8.4,4.2,11.2,16.8,6.2,28.1c-2.8,6.5-7.7,11.5-13.2,13.5C209.1,188,207.4,188.3,205.6,188.3z
			 M196.3,160.1c-4.3,9.8-2.1,20.6,4.8,24.1c2.6,1.3,5.6,1.4,8.6,0.3c4.7-1.7,9-6.1,11.5-11.8c4.3-9.8,2.1-20.6-4.8-24.1
			c-2.6-1.3-5.6-1.4-8.6-0.3C203.1,150,198.8,154.4,196.3,160.1z"/>
		<path class="st19" d="M215.5,169.8c2.8-8.7-0.2-17.6-6.8-19.7c-6.6-2.2-14.3,3.2-17.1,11.9c-2.8,8.7,0.2,17.6,6.8,19.7
			C205,183.9,212.6,178.6,215.5,169.8z"/>
		<path class="st9" d="M201.4,182.4c-2.7,0-5.2-1.1-7.1-3.1c-2.9-2.9-4.2-7.5-3.8-12.6c0.8-9.1,7.4-16.8,14.6-17.3
			c3-0.2,5.7,0.9,7.8,3.1c2.9,2.9,4.2,7.5,3.8,12.6c-0.8,9.1-7.4,16.8-14.6,17.3C201.8,182.4,201.6,182.4,201.4,182.4z M205.7,149.8
			c-0.2,0-0.4,0-0.7,0c-7.1,0.5-13.5,8.1-14.3,17c-0.5,5,0.9,9.4,3.7,12.3c2.1,2.1,4.7,3.1,7.6,3c7.1-0.5,13.5-8.1,14.3-17
			c0.5-5-0.9-9.4-3.7-12.3C210.7,150.8,208.3,149.8,205.7,149.8L205.7,149.8z"/>
		<g class="st15">
			<path class="st17" d="M211.6,177.2c1.9-2.5,3.2-5.5,3.7-8.6c-4.9,5.3-11.8,5.3-15.8-0.2c-2.6-3.6-3.5-8.6-2.6-13.4
				c-0.3,0.3-0.6,0.7-0.9,1.1c-4.9,6.3-5.4,16.2-1.1,22.1C199.2,183.9,206.7,183.5,211.6,177.2z"/>
		</g>
		<path class="st9" d="M200.6,183.5c-1.5,0-3-0.3-4.3-1c-6.4-3.2-8.3-13.4-4.3-22.7c2.4-5.5,6.5-9.8,10.9-11.4
			c2.9-1,5.7-0.9,8.2,0.3c6.4,3.2,8.3,13.4,4.3,22.7c-2.4,5.5-6.5,9.8-10.9,11.4C203.2,183.2,201.9,183.4,200.6,183.5z M194.5,160.8
			c-3.4,8-2.1,16.6,3,19.2c1.8,0.9,3.8,1,6,0.2c3.8-1.4,7.2-5.1,9.3-9.9c3.4-8,2.1-16.6-3-19.2c-1.8-0.9-3.8-1-6-0.2
			C200,152.3,196.6,156,194.5,160.8z"/>
		<g class="st30">
			<path class="st31" d="M267.6,147.3c0,0,23.8,10.7,32.1,29.6l0,0.1c1.7,4,2.4,8.3,1.9,12.6c-0.7,5.7-2,9.5-3.2,12.8
				c-3.9,10-7.6,14-7.6,14c7.8-3,13.4-7.8,16.7-16.1c0.3-0.8,0.6-1.7,0.9-2.6c0.1-0.2,0.1-0.4,0.2-0.6c0,0,0,0,0,0
				c0.6-2.3,1-4.7,1.3-7.1c1-8.5,0.5-20.3-7.5-28.8C287.4,145.3,267.2,146,267.6,147.3z"/>
			<path class="st32" d="M289.6,217l0.9-0.9c0,0,3.7-4,7.5-13.9c1.2-3.1,2.5-6.9,3.2-12.7c0.5-4.2-0.1-8.6-1.8-12.5l0-0.1
				c-8.1-18.6-31.7-29.3-31.9-29.4l-0.1-0.1l0-0.1c0-0.1-0.1-0.4,0.3-0.6c2.4-1.4,21-0.7,34.9,14.1c8,8.6,8.6,20.5,7.6,29
				c-0.3,2.4-0.7,4.7-1.3,7l0,0.1l-0.1,0.1c-0.1,0.2-0.1,0.4-0.2,0.6c-0.3,0.9-0.6,1.8-0.9,2.6c-3.2,7.9-8.4,12.9-16.9,16.2
				L289.6,217z M268.1,147.3c3.1,1.5,24.2,12.1,31.8,29.5l0,0.1c1.8,4,2.4,8.4,1.9,12.8c-0.7,5.8-2.1,9.7-3.3,12.8
				c-2.9,7.4-5.6,11.5-6.9,13.2c7.7-3.2,12.5-8,15.5-15.5c0.3-0.8,0.6-1.7,0.9-2.5c0.1-0.2,0.1-0.4,0.2-0.6l0,0
				c0.6-2.3,1-4.7,1.3-7.1c1-8.4,0.5-20.1-7.4-28.5c-10.8-11.5-24.9-14.5-31.5-14.4C269.2,147,268.5,147.1,268.1,147.3z"/>
		</g>
		<g class="st30">
			<path class="st31" d="M246.9,168.7c3-4,2.6-9.4-0.8-12c-3.5-2.6-8.8-1.5-11.8,2.6c-3,4-2.6,9.4,0.8,12
				C238.6,173.9,243.9,172.7,246.9,168.7z"/>
			<path class="st32" d="M239.4,172.9c-1.6,0-3.1-0.5-4.4-1.4c-1.6-1.2-2.6-3-3-5c-0.4-2.5,0.3-5.2,1.9-7.4
				c3.1-4.2,8.5-5.4,12.2-2.7c1.6,1.2,2.6,3,3,5c0.4,2.5-0.3,5.2-1.9,7.4C245.2,171.5,242.3,172.9,239.4,172.9z M241.8,155.5
				c-2.6,0-5.4,1.4-7.3,3.9c-1.5,2.1-2.2,4.6-1.8,7c0.3,1.9,1.3,3.6,2.7,4.7c3.4,2.5,8.5,1.3,11.4-2.6c1.5-2.1,2.2-4.6,1.8-7
				c-0.3-1.9-1.3-3.6-2.7-4.7C244.7,156,243.2,155.5,241.8,155.5z"/>
		</g>
		<g class="st30">
			<path class="st31" d="M233.1,179.5c1.4-1.5,1.4-3.8,0.1-5c-1.3-1.2-3.6-1-5,0.6c-1.4,1.5-1.4,3.8-0.1,5
				C229.5,181.3,231.7,181,233.1,179.5z"/>
			<path class="st32" d="M230.2,181.1c-0.8,0-1.7-0.3-2.3-0.9c-0.6-0.6-1-1.4-1-2.2c-0.1-1.1,0.3-2.2,1.1-3.1c1.5-1.7,3.9-2,5.4-0.7
				c0.3,0.3,0.6,0.6,0.8,1c0.2,0.4,0.3,0.8,0.3,1.3c0.1,1.1-0.3,2.2-1.1,3.1C232.6,180.6,231.4,181.1,230.2,181.1z M231.2,174
				c-1,0-2,0.5-2.7,1.3c-0.7,0.7-1,1.7-1,2.7c0,0.4,0.1,0.7,0.3,1c0.2,0.3,0.4,0.6,0.6,0.9c1.2,1.1,3.3,0.8,4.6-0.7
				c0.7-0.7,1-1.7,1-2.7c0-0.7-0.3-1.4-0.8-1.8C232.6,174.2,231.9,174,231.2,174z"/>
		</g>
		<g class="st33">
			<path class="st34" d="M291.1,177.4c0,2.7,0,3.5-3,3.5c3.1,0,3,0.7,3,3.6c0-2.9,0-3.6,3-3.6C291.1,180.9,291.1,180.1,291.1,177.4z
				"/>
			<path class="st34" d="M258.6,191.5c0,2.7,0,3.5-3,3.5c3.1,0,3,0.7,3,3.6c0-2.9,0-3.6,3-3.6C258.6,195,258.6,194.2,258.6,191.5z"
				/>
			<path class="st34" d="M263.4,158.1c0,0.2-0.1,0.4-0.2,0.5c-0.1,0.2-0.2,0.3-0.4,0.3c-0.2,0.1-0.4,0.1-0.5,0.1
				c-0.2,0-0.3-0.1-0.5-0.3c-0.1-0.1-0.2-0.3-0.3-0.5c0-0.2,0-0.4,0.1-0.5c0.1-0.2,0.2-0.3,0.3-0.4c0.2-0.1,0.3-0.2,0.5-0.2
				c0.2,0,0.5,0.1,0.7,0.3C263.3,157.6,263.4,157.9,263.4,158.1z"/>
			<path class="st34" d="M252.9,177.3c0.5,0,0.9-0.4,0.9-0.9s-0.4-0.9-0.9-0.9c-0.5,0-0.9,0.4-0.9,0.9S252.5,177.3,252.9,177.3z"/>
			<path class="st34" d="M278.5,166.7c0,0.2-0.1,0.4-0.2,0.6c-0.1,0.2-0.3,0.3-0.5,0.4c-0.2,0.1-0.4,0.1-0.6,0.1
				c-0.2,0-0.4-0.1-0.5-0.3c-0.1-0.1-0.3-0.3-0.3-0.5c0-0.2,0-0.4,0.1-0.6c0.1-0.2,0.2-0.4,0.4-0.5s0.4-0.2,0.6-0.2
				c0.3,0,0.6,0.1,0.8,0.3C278.4,166.1,278.5,166.4,278.5,166.7z"/>
			<path class="st34" d="M271.1,185.8c0.4,0,0.7-0.3,0.7-0.7c0-0.4-0.3-0.7-0.7-0.7c-0.4,0-0.7,0.3-0.7,0.7
				C270.4,185.4,270.7,185.8,271.1,185.8z"/>
			<path class="st34" d="M279.8,201.2c0.6,0,1.2-0.5,1.2-1.2c0-0.6-0.5-1.2-1.2-1.2c-0.6,0-1.2,0.5-1.2,1.2
				C278.7,200.7,279.2,201.2,279.8,201.2z"/>
			<path class="st34" d="M246,204c0,0.1,0,0.3-0.1,0.4c-0.1,0.1-0.2,0.2-0.3,0.3c-0.1,0.1-0.3,0.1-0.4,0c-0.1,0-0.3-0.1-0.4-0.2
				c-0.1-0.1-0.2-0.2-0.2-0.4c0-0.1,0-0.3,0-0.4s0.1-0.2,0.3-0.3c0.1-0.1,0.2-0.1,0.4-0.1c0.1,0,0.2,0,0.3,0.1
				c0.1,0,0.2,0.1,0.2,0.1c0.1,0.1,0.1,0.1,0.1,0.2C245.9,203.8,246,203.9,246,204z"/>
			<path class="st34" d="M295,208.2c0.4-0.4,0.4-1,0-1.3c-0.4-0.4-1-0.4-1.3,0c-0.4,0.4-0.4,1,0,1.3
				C294,208.5,294.6,208.5,295,208.2z"/>
			<path class="st34" d="M307.6,216.2c0,0.2-0.1,0.4-0.2,0.6c-0.1,0.2-0.3,0.3-0.5,0.4c-0.2,0.1-0.4,0.1-0.6,0.1
				c-0.2,0-0.4-0.1-0.5-0.3c-0.1-0.1-0.2-0.3-0.3-0.5c0-0.2,0-0.4,0.1-0.6c0.1-0.2,0.2-0.4,0.4-0.5c0.2-0.1,0.4-0.2,0.6-0.2
				c0.1,0,0.3,0,0.4,0.1c0.1,0.1,0.2,0.1,0.3,0.2c0.1,0.1,0.2,0.2,0.2,0.3C307.6,215.9,307.6,216.1,307.6,216.2z"/>
			<path class="st34" d="M270.1,219.8c0.5,0,0.9-0.4,0.9-0.9c0-0.5-0.4-0.9-0.9-0.9c-0.5,0-0.9,0.4-0.9,0.9
				C269.2,219.4,269.6,219.8,270.1,219.8z"/>
			<path class="st34" d="M310.9,202.4c0,0.1,0,0.2-0.1,0.2c0,0.1-0.1,0.1-0.2,0.1s-0.1,0-0.2,0c-0.1,0-0.1-0.1-0.2-0.1
				c-0.1-0.1-0.1-0.1-0.1-0.2c0-0.1,0-0.2,0-0.2c0-0.1,0.1-0.1,0.1-0.2c0.1,0,0.1-0.1,0.2-0.1c0.1,0,0.2,0,0.3,0.1
				C310.9,202.2,310.9,202.3,310.9,202.4z"/>
			<path class="st34" d="M252,212.6c0.1-0.5-0.3-1-0.7-1c-0.5-0.1-1,0.3-1,0.7c-0.1,0.5,0.3,1,0.7,1
				C251.4,213.4,251.9,213.1,252,212.6z"/>
		</g>
		<path class="st35" d="M211,223.1c0,4.4,1.7,8.7,4.8,11.9c3.1,3.2,7.2,5.1,11.7,5.3c4.4,0.2,8.8-1.3,12.1-4.3
			c3.3-2.9,5.4-7,5.8-11.5c0.4-4.4-1-8.8-3.8-12.3c-2.8-3.5-6.8-5.7-11.2-6.2c-4.4-0.6-8.8,0.6-12.4,3.3c-3.6,2.6-6,6.6-6.7,10.9
			C211,221.2,211,222.1,211,223.1z"/>
		<g class="st26">
			<path class="st27" d="M215.1,211.9c3.4-2.4,7.6-3.5,11.8-3c4.2,0.5,8,2.4,10.8,5.5c2.8,3.1,4.4,7.1,4.4,11.3
				c0.1,4.2-1.4,8.2-4.2,11.4c2-1.4,3.7-3.2,4.9-5.3c1.2-2.1,2-4.4,2.3-6.8c0.3-2.4,0-4.9-0.7-7.2c-0.7-2.3-2-4.4-3.6-6.2
				c-1.6-1.8-3.6-3.2-5.9-4.2c-2.2-1-4.6-1.5-7.1-1.4c-2.4,0-4.8,0.6-7,1.6C218.7,208.5,216.7,210,215.1,211.9z"/>
		</g>
		<path class="st9" d="M228.1,241.9c-10.4,0-18.9-8.5-18.9-18.9c0-10.4,8.5-18.9,18.9-18.9c10.4,0,18.9,8.5,18.9,18.9
			C247,233.5,238.5,241.9,228.1,241.9z M228.1,207.6c-8.5,0-15.4,6.9-15.4,15.4c0,8.5,6.9,15.5,15.4,15.5c8.5,0,15.4-6.9,15.4-15.5
			C243.6,214.5,236.6,207.6,228.1,207.6z"/>
		<path class="st36" d="M227.6,231.5c4.7,0,8.4-3.8,8.4-8.4c0-4.7-3.8-8.4-8.4-8.4c-4.7,0-8.4,3.8-8.4,8.4
			C219.1,227.7,222.9,231.5,227.6,231.5z"/>
		<path class="st9" d="M227.6,232.6c-1.9,0-3.7-0.6-5.3-1.6c-1.6-1-2.8-2.5-3.5-4.3c-0.7-1.7-0.9-3.7-0.5-5.5
			c0.4-1.8,1.3-3.5,2.6-4.9c1.3-1.3,3-2.2,4.9-2.6s3.8-0.2,5.5,0.5s3.2,1.9,4.3,3.5c1,1.6,1.6,3.4,1.6,5.3c0,2.5-1,4.9-2.8,6.7
			C232.5,231.6,230.1,232.6,227.6,232.6z M227.6,215.7c-1.5,0-2.9,0.4-4.1,1.2s-2.2,2-2.7,3.3c-0.6,1.3-0.7,2.8-0.4,4.3
			c0.3,1.4,1,2.7,2,3.8c1,1,2.3,1.7,3.8,2c1.4,0.3,2.9,0.1,4.3-0.4c1.3-0.6,2.5-1.5,3.3-2.7c0.8-1.2,1.2-2.6,1.2-4.1
			c0-2-0.8-3.8-2.2-5.2C231.4,216.5,229.5,215.7,227.6,215.7z"/>
		<path class="st35" d="M203.4,196.1c5.2,8.2,14.2,15.6,24.9,22.6c1.4,0.9,2.2,2.5,1.9,4.1c-0.5,3.1-4.2,4.1-10,1.7
			c-20.2-9.6-30.4-27.7-21.6-30.3C200.4,193.8,202.4,194.6,203.4,196.1z"/>
		<g class="st26">
			<path class="st27" d="M195.9,196.5C195.9,196.5,195.9,196.5,195.9,196.5c1.8-0.5,3.8,0.2,4.8,1.8c5.2,8.2,14.2,15.6,24.9,22.6
				c1.4,0.9,2.2,2.5,2,4.1c0,0.3-0.1,0.5-0.2,0.7c1.6-0.4,2.6-1.4,2.9-2.9c0.2-1.6-0.6-3.2-1.9-4.1c-10.7-7.1-19.7-14.5-24.9-22.6
				c-1-1.6-3-2.4-4.8-1.8C197.3,194.7,196.4,195.5,195.9,196.5z"/>
		</g>
		<path class="st9" d="M225.9,227.6c-1.8,0-4-0.5-6.3-1.5c0,0-0.1,0-0.1,0c-16.1-7.7-26.3-20.7-25.8-28.1c0.2-2.7,1.8-4.6,4.4-5.4
			c2.5-0.8,5.3,0.3,6.7,2.6c4.5,7,12.3,14.1,24.4,22.1c2,1.3,3,3.6,2.7,5.8c-0.2,1.6-1.1,2.9-2.5,3.7
			C228.4,227.3,227.2,227.6,225.9,227.6z M220.9,223c3,1.2,5.5,1.5,6.8,0.8c0.5-0.3,0.7-0.6,0.8-1.2c0.1-0.9-0.3-1.8-1.2-2.4
			c-12.5-8.3-20.6-15.7-25.4-23.1c-0.6-1-1.8-1.4-2.8-1.1c-1.2,0.4-1.8,1.1-1.9,2.4C196.7,203.7,205.6,215.7,220.9,223L220.9,223z"
			/>
		<g class="st15">
			<path class="st17" d="M211,223.1c0,3.9,1.3,7.7,3.8,10.8s5.9,5.2,9.7,6c3.8,0.8,7.8,0.3,11.3-1.4c3.5-1.7,6.3-4.6,7.9-8.2
				c-2.9,3.4-7,5.5-11.4,5.9c-4.4,0.4-8.9-0.9-12.3-3.7c6-0.6,8.8-7.2,8.8-7.2c-5.3,2.6-10.8,0.1-14.9-2.8c-1-0.7-1.9-1.4-2.7-2.1
				C211,221.2,211,222.1,211,223.1z"/>
		</g>
		<path class="st9" d="M245.1,301.2c-0.5,0-1.1,0-1.6-0.1c-3.2-0.5-5.5-2.7-6.4-6.1c-3.8-1.7-7.7-4.7-11.8-9.1
			c-0.1-0.2-0.3-0.3-0.3-0.5c-0.1-0.2-0.1-0.4-0.1-0.6c0-0.2,0.1-0.4,0.1-0.6c0.1-0.2,0.2-0.4,0.4-0.5c0.2-0.1,0.3-0.3,0.5-0.3
			c0.2-0.1,0.4-0.1,0.6-0.1c0.2,0,0.4,0.1,0.6,0.1c0.2,0.1,0.4,0.2,0.5,0.4c4.1,4.4,7.9,7.2,11.5,8.7c0.3,0.1,0.5,0.3,0.7,0.5
			c0.2,0.2,0.3,0.5,0.3,0.8c0.4,2.5,1.7,3.9,3.8,4.3c3.5,0.6,8.1-1.9,10.1-5.4c1.2-2.2,1.9-5.6-1.8-9.7c-0.2-0.2-0.3-0.4-0.4-0.7
			c-0.1-0.3-0.1-0.5,0-0.8c0.1-0.3,0.2-0.5,0.4-0.7c0.2-0.2,0.4-0.4,0.6-0.5c0.9-0.4,1.5-1,1.4-1.7c-0.2-1.3-2.1-2.7-6-3
			c-0.3,0-0.5-0.1-0.7-0.2c-0.1-0.1-0.4-0.3-9.8-7.1c-2.5-1.8-4.4-4.2-5.7-7c-3.3-7.2-5.4-13.8-6.5-20.3c-0.1-0.4,0-0.9,0.3-1.2
			c0.3-0.3,0.6-0.6,1.1-0.7c0.4-0.1,0.9,0,1.2,0.3c0.4,0.2,0.6,0.6,0.7,1c1.1,6.2,3.1,12.6,6.2,19.5c1,2.3,2.6,4.2,4.6,5.7
			c4.9,3.6,8.3,6.1,9.3,6.8c5.8,0.6,8.2,3.4,8.6,5.8c0.2,1.6-0.4,3.1-1.6,4.1c2.7,3.8,3.1,8.1,1,11.9
			C254.7,298.2,249.7,301.2,245.1,301.2z"/>
		<path class="st9" d="M222.1,279.7c-0.4,0-0.7-0.1-1-0.4c-0.3-0.3-0.4-0.6-0.4-1c0-6.6,5.8-15.1,14.1-16.7c0.4-0.1,0.7,0,1,0.2
			c0.3,0.2,0.5,0.5,0.6,0.9c0.1,0.4,0,0.7-0.2,1c-0.2,0.3-0.5,0.5-0.8,0.6c-7.4,1.4-11.9,9.1-11.9,14c0,0.2,0,0.4-0.1,0.5
			c-0.1,0.2-0.2,0.3-0.3,0.4c-0.1,0.1-0.3,0.2-0.4,0.3C222.5,279.7,222.3,279.7,222.1,279.7z"/>
		<path class="st9" d="M310.7,319.1h-51.1c-1,0-1.9-0.2-2.7-0.7c-0.8-0.5-1.6-1.1-2.1-1.9c-0.5-0.8-0.8-1.7-0.9-2.7
			c-0.1-1,0.1-1.9,0.5-2.8l14.7-33.9c1.2-2.7,3.2-5,5.7-6.5c2.5-1.5,5.4-2.3,8.4-2.1l47.7,2.8c1.1,0.1,2.3,0.4,3.2,1
			c1,0.6,1.8,1.4,2.4,2.4c0.6,1,0.9,2.1,1,3.3c0.1,1.1-0.2,2.3-0.7,3.3l-14.4,30.4c-1,2.2-2.7,4-4.7,5.3
			C315.5,318.4,313.1,319.1,310.7,319.1z M282.2,271.7c-2.2,0-4.3,0.6-6.1,1.8c-1.8,1.2-3.2,2.9-4.1,4.9l-14.7,33.9
			c-0.2,0.4-0.2,0.8-0.2,1.2c0,0.4,0.2,0.8,0.4,1.2c0.2,0.3,0.5,0.6,0.9,0.8c0.4,0.2,0.8,0.3,1.2,0.3h51.1c1.8,0,3.6-0.5,5.1-1.5
			c1.5-1,2.7-2.3,3.5-4l14.4-30.4c0.3-0.6,0.4-1.2,0.4-1.8c0-0.6-0.2-1.2-0.5-1.7c-0.3-0.5-0.7-1-1.3-1.3c-0.5-0.3-1.1-0.5-1.7-0.5
			l-47.7-2.8C282.6,271.7,282.4,271.7,282.2,271.7z"/>
		<g class="st15">
			<path class="st17" d="M259.6,317.5h51.1c2.7,0,5.2-1,7.3-2.7c-25.5-1.5-38.5-17-43.9-41l-0.7-0.1c-1.2,1.2-2.2,2.5-2.8,4.1
				l-14.7,33.9c-0.3,0.6-0.4,1.3-0.3,2c0.1,0.7,0.3,1.3,0.7,1.9s0.9,1,1.5,1.4C258.3,317.3,258.9,317.5,259.6,317.5z"/>
		</g>
		<path class="st9" d="M210.1,278.9c-0.8-1.5-1.9-2.9-3.2-4.1c-1.3-1.2-2.8-2.1-4.5-2.6c-1.7-0.5-3.5-0.6-5.2-0.4
			c-1.8,0.3-3.6,0.8-5.3,1.6c-0.1,0.1-0.3,0.1-0.4,0c-0.1,0-0.2-0.1-0.3-0.3c-0.1-0.1-0.1-0.3,0-0.4c0-0.1,0.1-0.2,0.2-0.3
			c1.7-1,3.5-1.8,5.5-2.3c2-0.5,4.1-0.5,6.1-0.1c2,0.4,4,1.4,5.6,2.6c1.7,1.2,3.1,2.8,4.3,4.5c0.2,0.4,0.3,0.8,0.2,1.2
			c-0.1,0.4-0.3,0.8-0.7,1c-0.4,0.2-0.8,0.3-1.2,0.3c-0.4-0.1-0.8-0.3-1-0.7C210.2,279,210.2,279,210.1,278.9L210.1,278.9z"/>
		<path class="st9" d="M206.7,318.6c-0.3,0-0.5-0.1-0.8-0.2c-3.3-1.8-6.1-4.2-8.6-7.4c-9.3-1.4-15.5-6.6-18.2-15.6
			c-1-3.2-1.4-6.6-1.3-10.1c0.7-22.9,8.7-54.7,28.9-69.2c0.2-0.1,0.4-0.2,0.6-0.3c0.2,0,0.4-0.1,0.6,0c0.2,0,0.4,0.1,0.6,0.2
			c0.2,0.1,0.3,0.3,0.5,0.4c0.1,0.2,0.2,0.4,0.3,0.6c0,0.2,0.1,0.4,0,0.6c0,0.2-0.1,0.4-0.2,0.6c-0.1,0.2-0.3,0.3-0.4,0.5
			c-19.3,13.8-26.9,44.5-27.5,66.6c-0.1,3.2,0.3,6.2,1.2,9.1c2.5,7.9,7.8,12.3,16.2,13.4c0.2,0,0.4,0.1,0.6,0.2
			c0.2,0.1,0.4,0.3,0.5,0.4c2.3,3,4.9,5.3,7.9,7c0.3,0.2,0.6,0.5,0.7,0.8c0.1,0.3,0.2,0.7,0.1,1.1c-0.1,0.4-0.3,0.7-0.6,0.9
			C207.4,318.5,207.1,318.6,206.7,318.6L206.7,318.6z"/>
		<path class="st37" d="M181.9,257.3c6.7,5.8,16.1,8.9,26.6,10.7l-5.5-14.1c-0.6-0.2-1.2-0.4-1.8-0.6c-4.7-1.8-9.1-4.1-13.2-6.9
			c-0.3-0.2-0.7-0.4-1.1-0.4c-0.4-0.1-0.8,0-1.2,0.1c-0.4,0.1-0.8,0.3-1.1,0.6c-0.3,0.3-0.5,0.6-0.7,1l-2.7,6.6
			c-0.2,0.5-0.3,1.1-0.1,1.7C181.2,256.4,181.5,256.9,181.9,257.3z"/>
		<path class="st9" d="M197.2,310.8c-1.4-2.1-2.4-4.5-2.9-7.1c-0.4-2.5-0.4-4.9-0.2-7.3c0-0.1,0.1-0.3,0.2-0.4
			c0.1-0.1,0.2-0.1,0.4-0.1c0.1,0,0.3,0.1,0.4,0.2c0.1,0.1,0.2,0.2,0.2,0.4v0c0.1,2.3,0.5,4.6,1.2,6.7c0.7,2.1,1.8,4,3.3,5.6
			c0.2,0.2,0.3,0.3,0.4,0.5c0.1,0.2,0.1,0.4,0.1,0.6c0,0.2-0.1,0.4-0.1,0.6c-0.1,0.2-0.2,0.4-0.4,0.5c-0.2,0.1-0.3,0.3-0.6,0.3
			c-0.2,0.1-0.4,0.1-0.6,0.1c-0.2,0-0.4-0.1-0.6-0.2c-0.2-0.1-0.4-0.2-0.5-0.4C197.3,310.9,197.2,310.9,197.2,310.8L197.2,310.8z"/>
		<path class="st9" d="M195.5,307.2c-0.2-13.7,8-20.3,8.4-20.6l1.7,2.2l-0.8-1.1l0.9,1.1c-0.3,0.2-7.5,6.1-7.3,18.4L195.5,307.2z"/>
		<path class="st9" d="M202.2,239.8c-0.1,3.3,0.2,6.6,0.8,9.9c0.6,3.3,1.5,6.4,2.8,9.5l0.5,1.1c0.2,0.4,0.3,0.8,0.5,1.1
			c0.4,0.7,0.7,1.5,1.1,2.2c0.8,1.4,1.6,2.9,2.5,4.2c1.8,2.8,4,5.2,6.2,7.5l0.1,0.1c0.3,0.3,0.5,0.7,0.5,1.2c0,0.4-0.2,0.9-0.5,1.2
			c-0.3,0.3-0.7,0.5-1.2,0.5c-0.4,0-0.9-0.2-1.2-0.5l-0.1-0.1c-2.3-2.6-4.5-5.3-6.2-8.3c-0.9-1.5-1.6-3-2.4-4.6
			c-0.4-0.8-0.7-1.6-1-2.4c-0.2-0.4-0.3-0.8-0.5-1.2l-0.4-1.2c-1.1-3.2-1.9-6.6-2.3-10c-0.4-3.4-0.6-6.8-0.3-10.2
			c0-0.1,0.1-0.3,0.2-0.4c0.1-0.1,0.2-0.1,0.4-0.1c0.1,0,0.3,0.1,0.4,0.2C202.1,239.5,202.2,239.6,202.2,239.8L202.2,239.8z"/>
		<path class="st19" d="M202.8,296c-1.6,12.7,2.7,23.8,9.6,24.6c6.9,0.9,13.8-8.8,15.4-21.5s-3-21.6-9.9-22.5
			C211,275.7,204.4,283.2,202.8,296z"/>
		<g class="st15">
			<path class="st17" d="M212.4,320.6c5.2,0.6,10.3-4.6,13.2-12.5c-2,1.5-4.1,2.2-6.2,1.9c-6.9-0.9-11.2-11.9-9.6-24.6
				c0.3-2.4,0.8-4.7,1.5-7c-4.2,2.9-7.5,9.1-8.6,17.6C201.2,308.7,205.5,319.7,212.4,320.6z"/>
		</g>
		<path class="st9" d="M213.3,322.3c-0.4,0-0.7,0-1.1-0.1c-4-0.5-7.3-3.7-9.3-8.9c-1.9-4.9-2.5-11.1-1.7-17.6
			c0.8-6.4,2.9-11.8,5.9-15.6c3.1-3.8,7-5.7,11-5.2c8.2,1,12.9,11.3,11.3,24.3C227.8,312.5,220.8,322.3,213.3,322.3z M216.8,278.2
			c-2.5,0-5.1,1.4-7.2,4c-2.6,3.3-4.5,8.2-5.2,13.9c-0.7,5.9-0.2,11.6,1.5,16c1.6,4.1,4,6.5,6.7,6.8c5.9,0.7,12.1-8.4,13.6-20.1
			c1.4-11.2-2.2-19.9-8.4-20.7C217.4,278.2,217.1,278.2,216.8,278.2z"/>
		<path class="st9" d="M227.2,288.2c0,0-0.1,0-0.1,0l-20.8-2.2c-0.4,0-0.7-0.2-0.9-0.5c-0.2-0.3-0.3-0.6-0.3-1
			c0-0.4,0.2-0.7,0.5-0.9s0.6-0.3,1-0.3l20.8,2.2c0.3,0,0.7,0.2,0.9,0.5c0.2,0.3,0.3,0.6,0.3,1s-0.2,0.7-0.4,0.9
			C227.9,288.1,227.6,288.2,227.2,288.2z"/>
		<path class="st9" d="M226.9,297.8c0,0-0.1,0-0.1,0l-23-2.4c-0.4,0-0.7-0.2-0.9-0.5c-0.2-0.3-0.3-0.6-0.3-1c0-0.4,0.2-0.7,0.5-0.9
			c0.3-0.2,0.6-0.3,1-0.3l23,2.4c0.4,0,0.7,0.2,0.9,0.5s0.3,0.6,0.3,1c0,0.4-0.2,0.7-0.4,0.9S227.2,297.8,226.9,297.8L226.9,297.8z"
			/>
		<path class="st9" d="M222.3,315.9c0,0-0.1,0-0.1,0L204,314c-0.2,0-0.4-0.1-0.5-0.2c-0.2-0.1-0.3-0.2-0.4-0.3
			c-0.1-0.1-0.2-0.3-0.3-0.5c-0.1-0.2-0.1-0.4,0-0.5c0-0.2,0.1-0.4,0.2-0.5c0.1-0.2,0.2-0.3,0.3-0.4c0.1-0.1,0.3-0.2,0.5-0.2
			c0.2-0.1,0.4-0.1,0.5,0l18.2,1.9c0.4,0,0.7,0.2,0.9,0.5c0.2,0.3,0.3,0.6,0.3,1c0,0.4-0.2,0.7-0.4,0.9
			C223,315.8,222.7,315.9,222.3,315.9L222.3,315.9z"/>
		<path class="st9" d="M225.9,307.3c0,0-0.1,0-0.1,0l-23-2.4c-0.2,0-0.4-0.1-0.5-0.2c-0.2-0.1-0.3-0.2-0.4-0.3
			c-0.1-0.1-0.2-0.3-0.3-0.5c-0.1-0.2-0.1-0.4-0.1-0.5c0-0.2,0.1-0.4,0.2-0.5c0.1-0.2,0.2-0.3,0.3-0.4c0.1-0.1,0.3-0.2,0.5-0.2
			c0.2-0.1,0.4-0.1,0.5,0l23,2.4c0.3,0,0.7,0.2,0.9,0.5c0.2,0.3,0.3,0.6,0.3,1c0,0.4-0.2,0.7-0.4,0.9S226.2,307.3,225.9,307.3
			L225.9,307.3z"/>
		<path class="st9" d="M257.8,318.4c-0.1,0-0.2,0-0.3,0c-2.3-0.5-4.3-1.7-5.9-3.3l-22.9-23.5c-0.3-0.3-0.4-0.6-0.4-1
			c0-0.4,0.2-0.7,0.4-1s0.6-0.4,1-0.4c0.4,0,0.7,0.2,1,0.4l22.9,23.5c1.2,1.3,2.8,2.2,4.6,2.6c0.3,0.1,0.6,0.3,0.8,0.5
			c0.2,0.3,0.3,0.6,0.2,0.9c0,0.3-0.2,0.6-0.4,0.9C258.5,318.3,258.1,318.4,257.8,318.4L257.8,318.4z"/>
		<path class="st9" d="M252.2,322.6c-0.2,0-0.4-0.1-0.6-0.2c-0.2-0.1-0.4-0.3-0.5-0.4c-0.1-0.2-0.2-0.4-0.2-0.6c0-0.2,0-0.4,0.1-0.7
			l1.9-4.9c0.1-0.3,0.4-0.6,0.7-0.7c0.3-0.1,0.7-0.1,1,0c0.3,0.1,0.6,0.4,0.7,0.7c0.1,0.3,0.2,0.7,0,1l-1.9,4.9
			c-0.1,0.3-0.3,0.5-0.5,0.6S252.5,322.6,252.2,322.6z"/>
		<path class="st9" d="M208.2,269.7c-12.4-2.2-21.1-5.7-27.4-11.1c-0.7-0.6-1.2-1.4-1.4-2.3s-0.1-1.8,0.2-2.7l2.7-6.6
			c0.2-0.6,0.6-1.1,1.1-1.6c0.5-0.4,1.1-0.8,1.7-0.9c0.6-0.2,1.3-0.2,1.9-0.1c0.6,0.1,1.3,0.3,1.8,0.7c4.5,3.1,9.5,5.5,14.7,7.3
			l-1.1,3.1c-5.5-1.9-10.7-4.5-15.4-7.7c-0.1-0.1-0.3-0.2-0.5-0.2c-0.2,0-0.3,0-0.5,0c-0.2,0-0.3,0.1-0.4,0.2
			c-0.1,0.1-0.2,0.2-0.3,0.4l-2.7,6.6c-0.1,0.2-0.1,0.4-0.1,0.6c0,0.2,0.2,0.4,0.3,0.6c5.8,5,14,8.3,25.8,10.4L208.2,269.7z"/>
		<g class="st15">
			<path class="st17" d="M194.2,250.1c0,0,2.8-12.5,13.1-16.4c0,0,4.2,31.3,32.2,44.6c0,0,6.4,2.5,5.9,10.2
				c-0.5,7.7,9.6,5.9,10.3,0.5c0,0-1,12.4-12.9,9.6c-2.3-1-4-2.1-3.1-4.3l-12.8-8.2c0,0-2.3-10-11.4-9.8
				c-6.1-6.1-10.8-13.4-12.8-23.1L194.2,250.1z"/>
		</g>
		<g class="st15">
			<path class="st17" d="M181.9,257.3c6.7,5.8,16.1,8.9,26.6,10.7l-5.5-14.1c-0.6-0.2-1.2-0.4-1.8-0.6c-2.4,8.9-15,6.2-17.3-5.7
				l-2.7,6.6c-0.2,0.5-0.3,1.1-0.1,1.7C181.2,256.4,181.5,256.9,181.9,257.3z"/>
		</g>
		<g class="st15">
			<path class="st17" d="M192.8,272.4c0,0,3.9-4.1,3.5-7.4l12.2,3l5.9,8.9l-2.8,0.5C211.6,277.4,203.9,267.5,192.8,272.4z"/>
		</g>
		<g class="st15">
			<path class="st17" d="M180.7,295c2.9,9.2,9.1,13.5,17.6,14.5c2.6,3.4,5.4,5.8,8.4,7.5c0,0,0,0,0,0c-0.2-1-0.7-2.2-1.2-3.6
				c-0.6-1.4-1.4-2.9-2.2-4.6c-1.2-2.3-1.2-3.5-1-5.1c0.3-1.8,0.9-4.1,0.5-8.8c-0.1-0.8-0.2-1.7-0.3-2.7c-1.7-11.5-8.9-7.5-8.9-7.5
				c-7.2,3.8-13.1,4-12.5-12.4l-0.5,0.9c-0.5,4.1-0.8,8.1-1,12.1C179.4,288.6,179.8,291.9,180.7,295z"/>
		</g>
		<path class="st17" d="M175.1,294.3c2.4-2.4,5-4.7,7.6-6.8c-2.6,1.7-5.1,3.5-7.5,5.5C175.2,293.5,175.1,293.9,175.1,294.3z"/>
	</g>
</g>
</svg>
