<?xml version="1.0" encoding="utf-8"?>
<!-- Generator: Adobe Illustrator 25.1.0, SVG Export Plug-In . SVG Version: 6.00 Build 0)  -->

<svg version="1.1" id="Camada_1" data-name="Camada 1" xmlns="http://www.w3.org/2000/svg" xmlns:xlink="http://www.w3.org/1999/xlink" x="0px" y="0px" viewBox="0 0 485.63 438.61" style="enable-background:new 0 0 523.13 428.52;" xml:space="preserve">
  <defs>
    <style>
      .cls-1 {
        fill: #d7eefd;
        fill-rule: evenodd;
      }

      .cls-11, .cls-15, .cls-2, .cls-8 {
        fill: #fff;
      }

      .cls-17, .cls-3, .cls-5 {
        fill: #371a45;
      }

      .cls-12, .cls-4, .cls-5 {
        opacity: 0.35;
      }

      .cls-11, .cls-12, .cls-15, .cls-17, .cls-5, .cls-8 {
        isolation: isolate;
      }

      .cls-6 {
        fill: #22a7f0;
      }

      .cls-7, .cls-8 {
        opacity: 0.7;
      }

      .cls-9 {
        fill: #afafb2;
      }

      .cls-10, .cls-11 {
        opacity: 0.5;
      }

      .cls-12 {
        fill: #111a28;
      }

      .cls-13 {
        fill: #1698f9;
      }

      .cls-14, .cls-15, .cls-17 {
        opacity: 0.3;
      }

      .cls-16 {
        fill: #ff66ac;
      }

      .cls-18, .cls-22 {
        fill: none;
      }

      .cls-18 {
        stroke: #323232;
        stroke-linecap: round;
        stroke-linejoin: round;
        stroke-width: 4px;
      }

      .cls-19 {
        fill: #ffd527;
      }

      .cls-20 {
        fill: #e0e0e0;
      }

      .cls-21 {
        fill: #8dd7ff;
      }

      .cls-22 {
        stroke: #ffd527;
        stroke-width: 2.34px;
      }
    </style>
  </defs>
  <path class="cls-1" d="M495.25,366.58a201.35,201.35,0,0,0,3.31-36.41C498.56,220,409.21,130.66,299,130.66S99.44,220,99.44,330.17a199.84,199.84,0,0,0,3.11,35.26,55.36,55.36,0,0,1,18.85,12.91c7.22-13.09,20.93-22.89,37.46-26.22-.12-1.22-.19-2.46-.19-3.71,0-23.45,21.66-42.46,48.39-42.46a53.21,53.21,0,0,1,25.4,6.32c7.92-14,24.34-23.55,43.32-23.55,18,0,33.74,8.65,42.07,21.49a10.3,10.3,0,0,0,5.73,4.14l.46.14a10.39,10.39,0,0,0,7.71-.5,53.47,53.47,0,0,1,24-5.58c23.72,0,43.44,15,47.58,34.74a51.05,51.05,0,0,1,29,12.43A53.16,53.16,0,0,1,458.12,349C475.76,349.84,487.55,357.37,495.25,366.58Z" transform="translate(-52.88 -108.57)"/>
  <g id="Camada_2" data-name="Camada 2">
    <path class="cls-2" d="M341.3,383H261.52a25.11,25.11,0,0,0-24.87,25.35v71.82a25.11,25.11,0,0,0,24.87,25.34H341.3a25.12,25.12,0,0,0,24.88-25.34V408.37A25.12,25.12,0,0,0,341.3,383Z" transform="translate(-52.88 -108.57)"/>
    <path class="cls-3" d="M341.3,383c13.69,0,24.88,11.41,24.88,25.35v71.82c0,13.94-11.19,25.34-24.88,25.34H261.52c-13.68,0-24.87-11.4-24.87-25.34V408.37c0-13.94,11.19-25.35,24.87-25.35Zm0-4H261.52a27.87,27.87,0,0,0-11.19,2.32,29.49,29.49,0,0,0-17.61,27v71.82a29.49,29.49,0,0,0,17.61,27,27.88,27.88,0,0,0,11.2,2.32h79.78a27.87,27.87,0,0,0,11.19-2.32,29.43,29.43,0,0,0,17.61-27V408.37a29.43,29.43,0,0,0-17.61-27A27.87,27.87,0,0,0,341.31,379Z" transform="translate(-52.88 -108.57)"/>
    <path class="cls-2" d="M364.4,461.12C352,462.61,339.6,463,339.6,463s-6.31-32-8.06-57.15c-1.29-18.61-.07-33.42,8.06-28.59,3.74,2.22,8,6.41,12.53,11.72,16.85,19.92,36.2,55.7,37.27,63.12C390.08,456.84,377.23,459.58,364.4,461.12Z" transform="translate(-52.88 -108.57)"/>
    <path class="cls-3" d="M337.93,465.11l-.33-1.72c0-.2-3.9-19.88-6.39-40.26a239.32,239.32,0,0,1-2.14-29.49c.07-10.31,1.54-16.16,4.63-18.4,1.35-1,3.65-1.75,6.93.2,10.82,6.43,24.54,26.9,31.76,38.54,4.82,7.76,9.43,15.92,13,23,2.51,5,5.59,11.57,6.06,14.82a4.86,4.86,0,0,1-1.16,3.84c-1.74,2.11-5.35,3.76-11.36,5.19a139.9,139.9,0,0,1-16.84,2.69c-11.46,1.24-22.3,1.57-22.41,1.57Zm-1.15-86.72a1.06,1.06,0,0,0-.71.23c-1.34,1-5.34,7-.81,44,2.05,16.74,5,33,6,38.24,3.48-.14,11.76-.55,20.38-1.49,20-2.16,24.5-5.2,25.48-6.41.28-.33.26-.48.25-.55-.58-4.05-8.13-19.55-18.45-36.17C357,397,345.92,383.4,338.57,379A3.74,3.74,0,0,0,336.78,378.39Z" transform="translate(-52.88 -108.57)"/>
    <path class="cls-2" d="M276.39,376.05l-2.51,19.37-1.43,11L269.4,430a62.72,62.72,0,0,1-14.86,6.92,73.29,73.29,0,0,1-11.85,2.85,68.68,68.68,0,0,1-24.55-.64c-23.2-4.84-37.12-22.4-43.15-31.23-11.65-17-13.44-21.64-10.2-28.82,2.47-5.49,6.7-6.5,6.7-6.5s-.2-4.39,3.21-6c10.22-4.68,23.4,7.82,23.4,7.82s.5-13.45,7.56-10.34c4.86,2.14,6,16.77,6,16.77s6.54,8.55,16.91,9.69c5.42.59,12.92-1,20.37-3.34l.26-.09c4-1.25,7.91-2.69,11.53-4.12,1.62-.64,3.17-1.28,4.63-1.9C271.83,378.33,276.39,376.05,276.39,376.05Z" transform="translate(-52.88 -108.57)"/>
    <g class="cls-4">
      <path class="cls-5" d="M175,407.86c6,8.83,20,26.39,43.16,31.23a70.12,70.12,0,0,0,36.4-2.21A62.54,62.54,0,0,0,269.39,430l.41-18.56s-6.32-6.2-12.2-3.67c-7.07,3-4.81,13.37-14.9,16.24-28.08,8-50.88-6.61-58.22-13-10.18-8.89-12.84-14.49-14.27-16.8-3-4.78-5.25-8.53-6.55-11.9C162.35,388,165.16,393.48,175,407.86Z" transform="translate(-52.88 -108.57)"/>
    </g>
    <path class="cls-3" d="M232.15,442.62a70.49,70.49,0,0,1-14.41-1.49,64.63,64.63,0,0,1-28.92-14.57,89.12,89.12,0,0,1-15.51-17.51c-5.67-8.3-9.28-14-10.92-18.58a15,15,0,0,1,.54-12.3,13.92,13.92,0,0,1,6.6-7.09,7.94,7.94,0,0,1,4.33-6.4c8.32-3.8,17.92,2.09,22.67,5.71q.08-.36.15-.75c.79-3.6,2.15-6,4-7.26a5.84,5.84,0,0,1,5.75-.23c2.68,1.19,4.64,4.66,6,10.64a60.44,60.44,0,0,1,1.15,7.21c1.44,1.66,7.09,7.57,15.14,8.45,14.7,1.6,46.42-14.11,46.74-14.27a2.07,2.07,0,0,1,1.07-.2,2,2,0,0,1,1,.38,2.09,2.09,0,0,1,.68.87,2,2,0,0,1,.15,1.09l-7,53.92a2.18,2.18,0,0,1-.29.82,2.09,2.09,0,0,1-.59.63,64.28,64.28,0,0,1-15.16,7.11,74.58,74.58,0,0,1-16.7,3.52Q235.43,442.62,232.15,442.62ZM172,374.56c-.26.08-3.39,1-5.33,5.35-2.62,5.81-2,9.2,10,26.76,11.28,16.51,25.77,27,41.89,30.38a68.61,68.61,0,0,0,35.55-2.21,64.64,64.64,0,0,0,13.38-6.12l6.38-49.17c-3.33,1.55-8.78,4-14.9,6.32-13.61,5.19-23.92,7.45-30.66,6.72-11.11-1.21-18-10.1-18.3-10.47a2.16,2.16,0,0,1-.42-1.12,58.43,58.43,0,0,0-1.12-7.33c-1.43-6.29-3.13-7.48-3.62-7.7-1.22-.53-1.75-.2-1.94-.07-1.72,1.1-2.65,5.68-2.77,8.58a2,2,0,0,1-1.26,1.84,1.94,1.94,0,0,1-1.14.12,2,2,0,0,1-1-.52c-.12-.11-12.31-11.5-21.17-7.44-2,.93-2,3.75-2,4a2,2,0,0,1-.39,1.36A1.9,1.9,0,0,1,172,374.56Z" transform="translate(-52.88 -108.57)"/>
    <path class="cls-3" d="M199.79,374.4a4.94,4.94,0,0,1-.15,1.58c-.06.24-.13.44-.2.66s-.16.4-.24.58a20.92,20.92,0,0,1-1,1.94c-.33.59-.65,1.15-.95,1.72l-.22.42c-.06.14-.14.28-.2.43l-.2.43-.18.43-.17.45-.15.44a4,4,0,0,0-.14.46c-.05.16-.09.31-.13.46a17.59,17.59,0,0,0-.37,1.92c-.08.67-.13,1.35-.15,2,0,.34,0,.68,0,1,0,.18,0,.35,0,.53s0,.35,0,.53v0a.28.28,0,0,1,0,.09.24.24,0,0,1-.06.08.16.16,0,0,1-.08.06l-.09,0a.28.28,0,0,1-.13,0,.22.22,0,0,1-.09-.1,14,14,0,0,1-1.36-8.82l.11-.58c0-.19.09-.37.14-.57s.1-.37.15-.56a5.05,5.05,0,0,1,.18-.55,17.17,17.17,0,0,1,.86-2.08c.32-.66.65-1.27.92-1.8a13.29,13.29,0,0,0,.54-1.22l.2-.5a1.63,1.63,0,0,1,.71-.82,1.58,1.58,0,0,1,1.06-.2,1.62,1.62,0,0,1,1,.51,1.72,1.72,0,0,1,.44,1Z" transform="translate(-52.88 -108.57)"/>
    <path class="cls-3" d="M215.9,440.52a1.36,1.36,0,0,1-.87-.31,1.42,1.42,0,0,1-.5-.79,1.46,1.46,0,0,1,.1-.94,1.43,1.43,0,0,1,.64-.67c5.67-2.87,9.54-11.83,11.19-25.92a140.91,140.91,0,0,0,.75-21.17,1.46,1.46,0,0,1,.36-1,1.41,1.41,0,0,1,.43-.34,1.39,1.39,0,0,1,1.08-.06,1.5,1.5,0,0,1,.47.28,1.45,1.45,0,0,1,.33.45,1.49,1.49,0,0,1,.14.54,144.85,144.85,0,0,1-.76,21.64,69.15,69.15,0,0,1-3.76,16.65c-2.22,5.76-5.24,9.64-9,11.53A1.38,1.38,0,0,1,215.9,440.52Z" transform="translate(-52.88 -108.57)"/>
    <g class="cls-4">
      <path class="cls-5" d="M397.15,532.62v-.29C394.9,532.43,397.15,532.62,397.15,532.62Z" transform="translate(-52.88 -108.57)"/>
    </g>
    <path class="cls-2" d="M368.8,497.47H233.88s.83-23.72,8.81-57.74a387.19,387.19,0,0,1,13.46-45q2.13-5.79,4.54-11.72a338.86,338.86,0,0,1,15.82-33.56h49.67c5,9.32,9.49,18.64,13.42,27.81q3.79,8.91,7,17.58a392.26,392.26,0,0,1,17.83,66.32C368.31,483.29,368.8,497.47,368.8,497.47Z" transform="translate(-52.88 -108.57)"/>
    <path class="cls-3" d="M350.28,412.5c2.61,3,3.8,6.42,4.9,9.88.55,1.74,1.1,3.47,1.62,5.22.26.87.53,1.74.76,2.62s.47,1.76.7,2.64l.69,2.65c.22.88.45,1.76.66,2.65l1.24,5.32c.2.89.43,1.77.62,2.66l.59,2.67.61,2.66c.21.89.42,1.78.61,2.67l1.17,5.33c.2.89.37,1.79.56,2.68l.55,2.68.27,1.33.14.67.13.68.51,2.68c.17.89.35,1.79.54,2.68s.35,1.79.54,2.68a72.88,72.88,0,0,1,1.59,10.83l.09,1.37.05,1.38c0,.91.06,1.83,0,2.76s0,1.84-.08,2.77-.13,1.85-.27,2.78a.31.31,0,0,1-.28.28.29.29,0,0,1-.2-.05.28.28,0,0,1-.14-.16c-.64-1.75-1.17-3.5-1.67-5.25-.24-.88-.48-1.76-.71-2.64l-.32-1.32c-.11-.44-.21-.88-.32-1.32-.42-1.76-.79-3.52-1.13-5.3-.15-.89-.3-1.78-.43-2.67s-.28-1.79-.41-2.68l-.42-2.68c-.14-.89-.31-1.77-.48-2.66l-.51-2.66-.13-.67-.14-.66-.27-1.33L361,463c-.19-.89-.36-1.77-.56-2.65l-1.16-5.3c-.19-.88-.4-1.76-.61-2.64l-.63-2.63-.66-2.63c-.1-.44-.22-.88-.33-1.31l-.35-1.31-1.4-5.23c-.49-1.74-1-3.48-1.46-5.22-.24-.87-.47-1.74-.7-2.61l-.17-.66-.18-.65-.36-1.31q-.7-2.61-1.37-5.24l-.32-1.31c-.12-.44-.23-.88-.35-1.32-.22-.87-.42-1.76-.56-2.66a23.08,23.08,0,0,1-.28-2.75c0-.47,0-.94,0-1.42a14.09,14.09,0,0,1,.13-1.47v0a.36.36,0,0,1,.14-.23.35.35,0,0,1,.26-.06A.31.31,0,0,1,350.28,412.5Z" transform="translate(-52.88 -108.57)"/>
    <path class="cls-3" d="M233.57,497.46a10.18,10.18,0,0,1-.48-1.41,14.37,14.37,0,0,1-.33-1.41,21.83,21.83,0,0,1-.33-2.8c0-.46-.05-.93,0-1.39s0-.93,0-1.39l.07-1.38.09-1.39c.14-1.84.28-3.68.49-5.51.1-.92.2-1.83.31-2.75.05-.46.12-.91.18-1.37l.19-1.38.4-2.73c.14-.92.3-1.82.45-2.73.31-1.82.6-3.64.95-5.44s.66-3.63,1-5.43.71-3.62,1.05-5.43c.09-.45.17-.9.26-1.35l.29-1.35.56-2.7.56-2.71c.05-.22.09-.45.14-.67l.16-.67.31-1.35,1.23-5.38c.1-.45.22-.89.33-1.34s.22-.89.32-1.34c.21-.9.41-1.79.61-2.69s.41-1.8.62-2.7.45-1.78.71-2.66.53-1.76.82-2.64.6-1.74.91-2.6l.48-1.3c.08-.21.17-.43.26-.64s.17-.43.26-.64c.37-.85.74-1.7,1.13-2.54s.78-1.67,1.21-2.5.86-1.65,1.35-2.45a.36.36,0,0,1,.16-.14.37.37,0,0,1,.21,0,.3.3,0,0,1,.17.12.39.39,0,0,1,.06.21,81.86,81.86,0,0,1-1.59,11c-.17.89-.35,1.79-.55,2.68s-.41,1.77-.64,2.65c-.47,1.76-1,3.51-1.45,5.27-.24.87-.49,1.75-.73,2.63-.12.44-.23.88-.35,1.32s-.22.88-.32,1.32l-1.23,5.33-.31,1.33-.15.66c0,.22-.09.45-.14.67l-.56,2.67-.56,2.68-.28,1.33c-.1.45-.18.9-.26,1.34-1.44,7.14-2.4,14.37-3.34,21.58l-.37,2.71c-.11.9-.22,1.8-.35,2.7l-.72,5.41c-.13.9-.24,1.8-.36,2.7-.06.45-.12.9-.21,1.35s-.16.9-.25,1.34c-.2.91-.45,1.8-.73,2.68-.15.45-.32.9-.5,1.34a10.72,10.72,0,0,1-.62,1.33.34.34,0,0,1-.47.14A.34.34,0,0,1,233.57,497.46Z" transform="translate(-52.88 -108.57)"/>
    <path class="cls-2" d="M272.74,467.54c-7.69,3.17-19.6,2.51-27.72,1.51a8.57,8.57,0,0,1-3.28-1.11,8.87,8.87,0,0,1-2.6-2.32,9,9,0,0,1-1.69-6.69,8.93,8.93,0,0,1,3.08-5.56,8.63,8.63,0,0,1,5.94-2c7.6.36,19,.53,26.2-1.1" transform="translate(-52.88 -108.57)"/>
    <g class="cls-4">
      <path class="cls-5" d="M272.74,467.54c-7.69,3.18-19.6,2.51-27.72,1.51a8.51,8.51,0,0,1-3.89-1.51,8.94,8.94,0,0,1-2.77-3.18,9,9,0,0,1,0-8.25,8.77,8.77,0,0,0,2.76,3.19,8.63,8.63,0,0,0,3.91,1.51c8.1,1,20,1.67,27.69-1.49Z" transform="translate(-52.88 -108.57)"/>
    </g>
    <path class="cls-3" d="M257.44,472a106.69,106.69,0,0,1-12.66-.84,10.75,10.75,0,0,1-7.05-4A11.12,11.12,0,0,1,239,452a10.6,10.6,0,0,1,7.59-2.72c11.19.53,20.3.16,25.66-1,1.08-.24,3.75-.25,5.33,4.92s1.43,14.08-4,16.33C269,471.33,263.2,472,257.44,472Zm-11.38-18.54a6.63,6.63,0,0,0-4.57,1.86,6.9,6.9,0,0,0-.54,9.31,6.63,6.63,0,0,0,4.32,2.39c11.61,1.43,21.1.95,26.71-1.37,1.67-.69,2.15-3.44,2.28-4.59.45-4-.76-7.76-1.51-8.66-7.32,1.57-18.34,1.45-26.37,1.07Z" transform="translate(-52.88 -108.57)"/>
    <path class="cls-2" d="M331.6,467.54c7.69,3.17,19.6,2.51,27.72,1.51a8.52,8.52,0,0,0,3.28-1.11,8.74,8.74,0,0,0,2.6-2.32,8.92,8.92,0,0,0,1.51-3.17,9.08,9.08,0,0,0,.18-3.52,8.88,8.88,0,0,0-3.08-5.56,8.61,8.61,0,0,0-5.94-2c-7.6.36-19,.53-26.2-1.1" transform="translate(-52.88 -108.57)"/>
    <g class="cls-4">
      <path class="cls-5" d="M359.32,469.05c-8.12,1-20,1.67-27.72-1.51l0-8.3c7.7,3.16,19.58,2.5,27.69,1.49a8.49,8.49,0,0,0,3.89-1.5,8.7,8.7,0,0,0,2.76-3.17,9,9,0,0,1,0,8.28,8.89,8.89,0,0,1-2.77,3.19,8.71,8.71,0,0,1-3.91,1.52Z" transform="translate(-52.88 -108.57)"/>
    </g>
    <path class="cls-3" d="M346.9,472c-5.76,0-11.55-.63-16.07-2.49-5.47-2.26-5.65-11.08-4-16.33s4.25-5.17,5.33-4.93c5.36,1.22,14.47,1.59,25.65,1.06a10.64,10.64,0,0,1,7.6,2.71,11.14,11.14,0,0,1,1.25,15.17,10.7,10.7,0,0,1-7.05,4A104.7,104.7,0,0,1,346.9,472Zm-15.3-19.59c-.75.9-2,4.62-1.51,8.65.13,1.15.61,3.9,2.28,4.59,5.61,2.32,15.1,2.8,26.71,1.37a6.62,6.62,0,0,0,4.37-2.46,6.89,6.89,0,0,0-.78-9.4,6.59,6.59,0,0,0-4.71-1.69C349.94,453.81,338.92,453.93,331.6,452.37Z" transform="translate(-52.88 -108.57)"/>
    <path class="cls-2" d="M334.57,444.54v27.71a9.43,9.43,0,0,1-2.69,6.6,9.09,9.09,0,0,1-6.48,2.74H275.32a9.28,9.28,0,0,1-9.17-9.34V444.54a9.41,9.41,0,0,1,2.69-6.6,9.09,9.09,0,0,1,6.48-2.74H325.4a9.09,9.09,0,0,1,6.48,2.74A9.41,9.41,0,0,1,334.57,444.54Z" transform="translate(-52.88 -108.57)"/>
    <g class="cls-4">
      <path class="cls-5" d="M334.57,444.54v27.71a9.43,9.43,0,0,1-2.69,6.6,9.13,9.13,0,0,1-6.48,2.74H275.32a9.13,9.13,0,0,1-6.48-2.74,9.48,9.48,0,0,1-2.7-6.6V461.88c7.53,7.82,22.32,12.72,35.89,12.79a8.31,8.31,0,0,0,8.18-7.92.62.62,0,0,1,0-.13,8,8,0,0,1,7.3-7.31,7.81,7.81,0,0,1,5.66,1.85,8.11,8.11,0,0,1,2.79,5.36c6.57-8.26,4.64-22.62,6.73-27.62A9.36,9.36,0,0,1,334.57,444.54Z" transform="translate(-52.88 -108.57)"/>
    </g>
    <path class="cls-3" d="M325.4,483.67H275.32a11.07,11.07,0,0,1-7.93-3.35,11.57,11.57,0,0,1-3.29-8.07V444.54a11.6,11.6,0,0,1,3.29-8.08,11.11,11.11,0,0,1,7.93-3.35H325.4a11.13,11.13,0,0,1,7.93,3.35,11.6,11.6,0,0,1,3.29,8.08v27.71a11.57,11.57,0,0,1-3.29,8.07A11.09,11.09,0,0,1,325.4,483.67Zm-50.08-46.39a7.07,7.07,0,0,0-5,2.12,7.34,7.34,0,0,0-2.09,5.14v27.71a7.32,7.32,0,0,0,2.09,5.13,7.08,7.08,0,0,0,5,2.13H325.4a7.08,7.08,0,0,0,5-2.13,7.36,7.36,0,0,0,2.09-5.13V444.54a7.38,7.38,0,0,0-2.09-5.14,7.07,7.07,0,0,0-5-2.12Z" transform="translate(-52.88 -108.57)"/>
    <path class="cls-6" d="M318.1,466.45a8.06,8.06,0,1,0-7.91-8.06A8,8,0,0,0,318.1,466.45Z" transform="translate(-52.88 -108.57)"/>
    <g class="cls-7">
      <path class="cls-8" d="M326,458.39a8.69,8.69,0,0,1-.15,1.61,8.11,8.11,0,0,0-2.75-4.63,7.81,7.81,0,0,0-10,0,8.11,8.11,0,0,0-2.75,4.63,8.69,8.69,0,0,1-.15-1.61,8.14,8.14,0,0,1,2.35-5.63,7.8,7.8,0,0,1,11.12,0A8.1,8.1,0,0,1,326,458.39Z" transform="translate(-52.88 -108.57)"/>
    </g>
    <g class="cls-4">
      <path class="cls-5" d="M326,458.39a8,8,0,0,1-.58,3.11,8.13,8.13,0,0,1-1.7,2.65,8,8,0,0,1-2.58,1.77,7.8,7.8,0,0,1-8.67-1.77,8,8,0,0,1-1.71-2.65,8.22,8.22,0,0,1-.58-3.11,8,8,0,0,1,.55-2.91,7.9,7.9,0,0,0,2.9,3.72,7.76,7.76,0,0,0,8.92,0,8,8,0,0,0,2.91-3.72A8,8,0,0,1,326,458.39Z" transform="translate(-52.88 -108.57)"/>
    </g>
    <path class="cls-3" d="M318.1,468a9.29,9.29,0,0,1-5.24-1.62,9.63,9.63,0,0,1-3.48-4.31,9.78,9.78,0,0,1-.53-5.56,9.63,9.63,0,0,1,2.58-4.92,9.33,9.33,0,0,1,10.28-2.09,9.45,9.45,0,0,1,4.24,3.55,9.73,9.73,0,0,1-1.18,12.13A9.36,9.36,0,0,1,318.1,468Zm0-16.11a6.32,6.32,0,0,0-3.54,1.09,6.48,6.48,0,0,0-2.35,2.92,6.61,6.61,0,0,0,1.38,7.08,6.42,6.42,0,0,0,3.27,1.77,6.19,6.19,0,0,0,3.68-.37A6.34,6.34,0,0,0,323.4,462a6.57,6.57,0,0,0-.79-8.2A6.32,6.32,0,0,0,318.1,451.9Z" transform="translate(-52.88 -108.57)"/>
    <path class="cls-3" d="M295.69,483.16a1.55,1.55,0,0,1-1.08-.46,1.58,1.58,0,0,1-.45-1.11v-19l-10-7.68V435.19a1.59,1.59,0,0,1,.46-1.07,1.51,1.51,0,0,1,1.07-.45,1.49,1.49,0,0,1,1.07.45,1.55,1.55,0,0,1,.47,1.07v18.18l10,7.68v20.54a1.58,1.58,0,0,1-.45,1.11A1.51,1.51,0,0,1,295.69,483.16Z" transform="translate(-52.88 -108.57)"/>
    <path class="cls-2" d="M301.34,496.51a36,36,0,0,0,24-9.31c9.22-8.25,24.74-18.1,41.86-11.79A29,29,0,0,1,382,487.73c8.23-19.42,25.49-20.59,33-9.58,0,0-12.56,61.05-16.65,62.4-5.86,2-20-.1-20-.1s-49-6.76-77-6.76-77,6.76-77,6.76-14.09,2-20,.1c-4.09-1.35-16.65-62.4-16.65-62.4,7.47-11,24.73-9.84,33,9.58a29,29,0,0,1,14.75-12.32c17.12-6.31,32.64,3.53,41.86,11.79A36,36,0,0,0,301.34,496.51Z" transform="translate(-52.88 -108.57)"/>
    <g class="cls-4">
      <path class="cls-5" d="M414.94,478.15s-12.56,61.05-16.65,62.41c-5.86,1.94-20-.1-20-.1s-49-6.76-77-6.76-77,6.76-77,6.76-14.09,2-20,.1c-4.09-1.36-16.65-62.41-16.65-62.41a16.67,16.67,0,0,1,4.4-4.42c4,17.9,9.74,41.27,12.25,42.1,5.86,1.95,20-.1,20-.1s49-13.52,77-13.52,77,13.52,77,13.52,14.09,2,20,.1c2.52-.83,8.23-24.2,12.25-42.1A16.52,16.52,0,0,1,414.94,478.15Z" transform="translate(-52.88 -108.57)"/>
    </g>
    <path class="cls-3" d="M212,543.47a28.1,28.1,0,0,1-8.19-.93c-1.44-.48-2.65-2.11-4.93-9.32-1.33-4.22-2.92-10.1-4.74-17.48-3.27-13.28-6.46-28.16-7.68-33.95a8.66,8.66,0,0,1,2.54-8.17,17.23,17.23,0,0,1,15.59-4.09,22,22,0,0,1,10,5.5,31.93,31.93,0,0,1,6.45,8.62,30.29,30.29,0,0,1,13.72-10.19A34.35,34.35,0,0,1,254,472.11,47.86,47.86,0,0,1,270.07,479a2.09,2.09,0,0,1,.9,1.3,2.12,2.12,0,0,1-.28,1.57,2,2,0,0,1-2.82.64c-11-7.13-21.67-8.87-31.72-5.16a27,27,0,0,0-13.72,11.47,2.08,2.08,0,0,1-.81.75,2,2,0,0,1-2.11-.17,2.11,2.11,0,0,1-.69-.87c-3.43-8.11-9-13.57-15.16-15a13.24,13.24,0,0,0-12,3.12,4.44,4.44,0,0,0-1.27,4.2c1.15,5.46,4.16,19.55,7.3,32.42,1.73,7.08,3.26,12.83,4.55,17.11,1.81,6,2.75,7.74,3.09,8.23,4.62,1.32,15,.25,18.7-.28h0c.5-.07,49.47-6.78,77.28-6.78s76.78,6.71,77.27,6.78h0c3.7.53,14.08,1.6,18.7.28.33-.48,1.25-2.19,3-7.93,1.26-4.14,2.75-9.72,4.44-16.59,3-12.25,5.88-25.56,7.33-32.41a5.82,5.82,0,0,0-2.1-5.86,13.16,13.16,0,0,0-11.68-2.11c-6,1.65-11.12,6.9-14.46,14.78a2.11,2.11,0,0,1-.69.87,2,2,0,0,1-1,.38,2,2,0,0,1-1.07-.21,2,2,0,0,1-.82-.75,26.89,26.89,0,0,0-13.71-11.47c-10.15-3.74-20.91-1.95-32,5.34a2,2,0,0,1-.75.29,1.91,1.91,0,0,1-.79,0,2,2,0,0,1-1.29-.91,2.21,2.21,0,0,1-.29-.75,2,2,0,0,1,0-.81,2.27,2.27,0,0,1,.32-.75,2,2,0,0,1,.57-.56,48.4,48.4,0,0,1,16.17-7.07,34.29,34.29,0,0,1,19.44,1.31,30.29,30.29,0,0,1,13.72,10.19c3.84-7.27,9.29-12.15,15.61-13.89a17.34,17.34,0,0,1,15.16,2.78,10,10,0,0,1,3.68,10.09c-1.54,7.25-4.58,21.31-7.71,33.94-1.78,7.15-3.33,12.86-4.63,16.94-2.22,7-3.41,8.56-4.83,9-6.22,2.06-20.16.08-20.87,0s-49.27-6.74-76.72-6.74-75.95,6.64-76.72,6.74A100.27,100.27,0,0,1,212,543.47Z" transform="translate(-52.88 -108.57)"/>
    <path class="cls-9" d="M394.65,540.56h3.64a10.67,10.67,0,0,0,5.89-1.78,10.89,10.89,0,0,0,4-4.75c5.45-12.43,15.38-39.75,6.08-56.42q-.4-.74-.87-1.41s-8.93-8.28-15.35,3.44C392,490.58,379.46,537.36,394.65,540.56Z" transform="translate(-52.88 -108.57)"/>
    <g class="cls-7">
      <path class="cls-8" d="M394.75,487.44c.16-.27.32-.51.48-.74,7.89-11.72,18.87-3.44,18.87-3.44a16.33,16.33,0,0,1,1.07,1.41,24.69,24.69,0,0,1,2.67,5.09,31.28,31.28,0,0,0-3.59-12.15c-.27-.49-.56-1-.86-1.41,0,0-8.94-8.28-15.36,3.44A57.63,57.63,0,0,0,394.75,487.44Z" transform="translate(-52.88 -108.57)"/>
    </g>
    <path class="cls-3" d="M417.8,491a1.27,1.27,0,0,1-.28,0l-22.33-3.8a1.56,1.56,0,0,1-.62-.23,1.75,1.75,0,0,1-.48-.46,1.7,1.7,0,0,1-.28-.61,1.89,1.89,0,0,1,0-.67,1.72,1.72,0,0,1,.24-.63,1.51,1.51,0,0,1,.45-.49,1.73,1.73,0,0,1,.6-.28,1.63,1.63,0,0,1,.66,0l22.33,3.79a1.69,1.69,0,0,1,1.06.64,1.77,1.77,0,0,1,.35,1.2,1.75,1.75,0,0,1-.54,1.12A1.68,1.68,0,0,1,417.8,491Z" transform="translate(-52.88 -108.57)"/>
    <path class="cls-3" d="M417.65,503.3l-.22,0-26.12-3.58a1.57,1.57,0,0,1-.63-.21,1.62,1.62,0,0,1-.5-.44,1.74,1.74,0,0,1-.3-.61,1.74,1.74,0,0,1,.18-1.31,1.62,1.62,0,0,1,.44-.5,1.52,1.52,0,0,1,.6-.29,1.63,1.63,0,0,1,.66,0l26.12,3.58a1.63,1.63,0,0,1,1.08.61,1.8,1.8,0,0,1,.38,1.2,1.69,1.69,0,0,1-.54,1.14,1.65,1.65,0,0,1-1.15.47Z" transform="translate(-52.88 -108.57)"/>
    <path class="cls-3" d="M415.35,515.34h-.21L388.63,512a1.66,1.66,0,0,1-1.12-.65,1.73,1.73,0,0,1-.35-1.26,1.7,1.7,0,0,1,.63-1.15,1.66,1.66,0,0,1,1.25-.35l26.51,3.31a1.66,1.66,0,0,1,1.09.6,1.71,1.71,0,0,1,.39,1.2,1.77,1.77,0,0,1-.53,1.15,1.65,1.65,0,0,1-1.15.47Z" transform="translate(-52.88 -108.57)"/>
    <path class="cls-3" d="M411.14,528.47H411l-23.7-2.17a1.7,1.7,0,0,1-1.53-1.87,1.7,1.7,0,0,1,.6-1.16,1.63,1.63,0,0,1,1.23-.4l23.7,2.18a1.69,1.69,0,0,1,1.12.58,1.71,1.71,0,0,1,.42,1.21,1.75,1.75,0,0,1-.52,1.16A1.67,1.67,0,0,1,411.14,528.47Z" transform="translate(-52.88 -108.57)"/>
    <g class="cls-4">
      <path class="cls-5" d="M394.65,540.56h3.64a10.67,10.67,0,0,0,5.89-1.78,10.89,10.89,0,0,0,4-4.75c1.41-3.22,3.12-7.44,4.72-12.21-2.18,3.69-6.63,6-11.5,6h-4.34c-6.17-1.09-8.49-7.25-8.59-15.34C386.39,526.16,387,538.94,394.65,540.56Z" transform="translate(-52.88 -108.57)"/>
    </g>
    <path class="cls-3" d="M398.29,542.28h-3.64a2.09,2.09,0,0,1-.34,0c-2.94-.62-5.16-2.56-6.61-5.78-3.4-7.58-1.74-20.78.24-30.53,2.43-11.9,6.18-22.66,8.63-27.13,2.25-4.11,5.09-6.47,8.43-7,5.12-.85,9.35,3,9.53,3.17a1.61,1.61,0,0,1,.24.28,17.18,17.18,0,0,1,1,1.54c4.26,7.62,5.16,18,2.69,31a131.53,131.53,0,0,1-8.69,27,12.62,12.62,0,0,1-4.62,5.49A12.35,12.35,0,0,1,398.29,542.28Zm-3.45-3.44h3.45a9,9,0,0,0,5-1.5,9.22,9.22,0,0,0,3.37-4,127.91,127.91,0,0,0,8.46-26.25c2.31-12.11,1.54-21.74-2.31-28.62-.21-.37-.43-.74-.66-1.09-.63-.53-3.5-2.73-6.61-2.2-2.27.38-4.29,2.17-6,5.31-2.27,4.14-5.94,14.71-8.27,26.16-2.66,13.06-2.83,23.14-.47,28.4A6,6,0,0,0,394.84,538.84Z" transform="translate(-52.88 -108.57)"/>
    <path class="cls-9" d="M208,540.56h-3.64a10.69,10.69,0,0,1-5.89-1.78,10.94,10.94,0,0,1-4-4.75c-5.45-12.43-15.39-39.75-6.08-56.42q.4-.74.87-1.41s8.93-8.28,15.35,3.44C210.64,490.58,223.22,537.36,208,540.56Z" transform="translate(-52.88 -108.57)"/>
    <g class="cls-7">
      <path class="cls-8" d="M207.93,487.44c-.16-.27-.32-.51-.48-.74-7.89-11.72-18.87-3.44-18.87-3.44a16.33,16.33,0,0,0-1.07,1.41,24.69,24.69,0,0,0-2.67,5.09,31.28,31.28,0,0,1,3.59-12.15c.27-.49.56-1,.86-1.41,0,0,8.94-8.28,15.36,3.44A56.37,56.37,0,0,1,207.93,487.44Z" transform="translate(-52.88 -108.57)"/>
    </g>
    <path class="cls-3" d="M184.89,491a1.63,1.63,0,0,1-1.14-.45,1.72,1.72,0,0,1,.86-3l22.33-3.79a1.63,1.63,0,0,1,1.26.3,1.68,1.68,0,0,1,.67,1.11,1.72,1.72,0,0,1-.28,1.27,1.67,1.67,0,0,1-1.09.7L185.17,491A1.32,1.32,0,0,1,184.89,491Z" transform="translate(-52.88 -108.57)"/>
    <path class="cls-3" d="M185,503.3a1.69,1.69,0,0,1-1.15-.46,1.73,1.73,0,0,1-.54-1.14,1.81,1.81,0,0,1,.38-1.21,1.72,1.72,0,0,1,1.08-.61l26.13-3.58a1.66,1.66,0,0,1,1.23.35,1.71,1.71,0,0,1,.64,1.13,1.77,1.77,0,0,1-.32,1.26,1.68,1.68,0,0,1-1.1.66l-26.13,3.58Z" transform="translate(-52.88 -108.57)"/>
    <path class="cls-3" d="M187.33,515.34a1.65,1.65,0,0,1-1.15-.47,1.77,1.77,0,0,1-.53-1.15,1.8,1.8,0,0,1,.39-1.2,1.66,1.66,0,0,1,1.09-.6l26.51-3.31a1.65,1.65,0,0,1,1.25.35,1.7,1.7,0,0,1,.63,1.14,1.74,1.74,0,0,1-.34,1.27,1.71,1.71,0,0,1-1.13.65l-26.51,3.3Z" transform="translate(-52.88 -108.57)"/>
    <path class="cls-3" d="M191.54,528.47a1.67,1.67,0,0,1-1.17-.48,1.76,1.76,0,0,1-.1-2.37,1.71,1.71,0,0,1,1.12-.58l23.7-2.18a1.66,1.66,0,0,1,1.24.4,1.72,1.72,0,0,1,.59,1.16,1.7,1.7,0,0,1-.38,1.25,1.74,1.74,0,0,1-1.14.62l-23.71,2.17Z" transform="translate(-52.88 -108.57)"/>
    <g class="cls-4">
      <path class="cls-5" d="M208,540.56h-3.64a10.69,10.69,0,0,1-5.89-1.78,10.94,10.94,0,0,1-4-4.75c-1.41-3.22-3.13-7.44-4.72-12.21,2.18,3.69,6.63,6,11.5,6h4.34c6.18-1.09,8.49-7.25,8.59-15.34C216.29,526.16,215.72,538.94,208,540.56Z" transform="translate(-52.88 -108.57)"/>
    </g>
    <path class="cls-3" d="M208,542.28h-3.64a12.38,12.38,0,0,1-6.81-2.06,12.75,12.75,0,0,1-4.62-5.49,131.58,131.58,0,0,1-8.68-27c-2.47-12.94-1.58-23.36,2.68-31,.3-.53.62-1.05.95-1.54a1.67,1.67,0,0,1,.25-.28c.18-.17,4.4-4,9.53-3.17,3.34.56,6.18,2.92,8.42,7,2.45,4.47,6.2,15.23,8.63,27.13,2,9.74,3.64,22.95.24,30.53-1.44,3.22-3.67,5.16-6.61,5.78Zm-17.47-64.91c-.24.35-.45.71-.67,1.09-3.85,6.88-4.62,16.51-2.3,28.62A128,128,0,0,0,196,533.33a9.24,9.24,0,0,0,3.38,4,9,9,0,0,0,5,1.5h3.46a6,6,0,0,0,4.07-3.81c2.36-5.25,2.19-15.33-.48-28.4-2.33-11.45-6-22-8.27-26.15-1.72-3.14-3.74-4.93-6-5.32-3.1-.52-6,1.67-6.61,2.21Z" transform="translate(-52.88 -108.57)"/>
    <path class="cls-3" d="M249.12,539a1.53,1.53,0,0,1-.75-.2,1.48,1.48,0,0,1-.56-.55,1.62,1.62,0,0,1-.05-1.54c6.41-12.46,6.5-26.47.28-41.65a77.86,77.86,0,0,0-11.46-19.35,1.55,1.55,0,0,1-.3-.53,1.53,1.53,0,0,1-.08-.6,1.47,1.47,0,0,1,.15-.59,1.47,1.47,0,0,1,.88-.79,1.32,1.32,0,0,1,.59-.08,1.47,1.47,0,0,1,.58.15,1.72,1.72,0,0,1,.48.37,80,80,0,0,1,12,20.13,61.61,61.61,0,0,1,4.78,20.65,46.77,46.77,0,0,1-5.14,23.74,1.52,1.52,0,0,1-.57.61A1.46,1.46,0,0,1,249.12,539Z" transform="translate(-52.88 -108.57)"/>
    <path class="cls-3" d="M354.18,539a1.57,1.57,0,0,1-.79-.22,1.55,1.55,0,0,1-.57-.62,47,47,0,0,1-5.14-23.73,61.33,61.33,0,0,1,4.79-20.65,79.65,79.65,0,0,1,12-20.14,1.54,1.54,0,0,1,1.05-.52,1.46,1.46,0,0,1,1.11.39,1.57,1.57,0,0,1,.52,1.07,1.6,1.6,0,0,1-.38,1.13,78,78,0,0,0-11.47,19.36c-6.21,15.17-6.12,29.19.28,41.64a1.75,1.75,0,0,1,.18.78,1.67,1.67,0,0,1-.22.76,1.53,1.53,0,0,1-1.32.75Z" transform="translate(-52.88 -108.57)"/>
    <g class="cls-4">
      <path class="cls-5" d="M352.13,389a76.84,76.84,0,0,1-5.56,5.85,71.76,71.76,0,0,1-15,11,61.89,61.89,0,0,1-59.09.62,71.57,71.57,0,0,1-16.29-11.75,81,81,0,0,1-7-7.59c4-1.25,7.91-2.7,11.52-4.13a343.44,343.44,0,0,1,15.82-33.56h49.67c5.05,9.32,9.5,18.64,13.42,27.81C343.34,379.46,347.64,383.64,352.13,389Z" transform="translate(-52.88 -108.57)"/>
    </g>
    <path class="cls-2" d="M377.19,338.67a1.4,1.4,0,0,1-.61-.05,1.61,1.61,0,0,1-.55-.29,1.65,1.65,0,0,1-.39-.48,1.6,1.6,0,0,1-.18-.6l-4.85-46a1.55,1.55,0,0,1,.34-1.17,1.53,1.53,0,0,1,.47-.41,1.5,1.5,0,0,1,.59-.18,16.22,16.22,0,0,1,6.42.58,16.52,16.52,0,0,1,5.71,3,16.69,16.69,0,0,1,4.14,5,17.21,17.21,0,0,1,1.93,6.27l1.65,15.67a17.24,17.24,0,0,1-.58,6.55,16.78,16.78,0,0,1-3,5.82,16.55,16.55,0,0,1-5,4.21A16.13,16.13,0,0,1,377.19,338.67Z" transform="translate(-52.88 -108.57)"/>
    <path class="cls-3" d="M377,339.08a2,2,0,0,1-1.31-.51,2,2,0,0,1-.64-1.28l-4.85-46a2,2,0,0,1,.43-1.47,2,2,0,0,1,1.31-.74,17,17,0,0,1,18.63,15.3l1.65,15.67a17.44,17.44,0,0,1-3.65,12.66,16.86,16.86,0,0,1-11.36,6.32l0-.4,0,.4Zm-3.24-49.26a16.56,16.56,0,0,0-1.73.09,1.22,1.22,0,0,0-1.06,1.33l4.85,46a1.47,1.47,0,0,0,.14.45,1.31,1.31,0,0,0,.3.36,1.25,1.25,0,0,0,.41.22,1.18,1.18,0,0,0,.46,0,15.81,15.81,0,0,0,6-1.92,16.15,16.15,0,0,0,4.83-4.11,16.54,16.54,0,0,0,2.92-5.69,16.77,16.77,0,0,0,.56-6.38l-1.65-15.68A16.28,16.28,0,0,0,373.78,289.82Z" transform="translate(-52.88 -108.57)"/>
    <g class="cls-4">
      <path class="cls-5" d="M391.08,312.78l.78,7.36a17.1,17.1,0,0,1-3.57,12.36,16.44,16.44,0,0,1-11.1,6.18,1.58,1.58,0,0,1-1.16-.35,1.66,1.66,0,0,1-.58-1.08L374.16,325a1.58,1.58,0,0,0,.65.63,1.5,1.5,0,0,0,.88.16l1.07-.11a16.34,16.34,0,0,0,9.18-4.13A16.91,16.91,0,0,0,391.08,312.78Z" transform="translate(-52.88 -108.57)"/>
    </g>
    <path class="cls-3" d="M377,340.88a3.69,3.69,0,0,1-2.5-1,3.83,3.83,0,0,1-1.21-2.42l-4.85-46a3.85,3.85,0,0,1,.81-2.8,3.78,3.78,0,0,1,1.12-1,3.59,3.59,0,0,1,1.39-.44,18.8,18.8,0,0,1,20.57,16.89L394,319.9a19.47,19.47,0,0,1-.65,7.4,19.15,19.15,0,0,1-3.38,6.58,18.55,18.55,0,0,1-5.6,4.76,18.27,18.27,0,0,1-7,2.22A2.68,2.68,0,0,1,377,340.88Zm-4.2-49.22,4.72,44.76a14.33,14.33,0,0,0,9.25-5.53,14.8,14.8,0,0,0,2.91-10.51l-1.65-15.68a14.74,14.74,0,0,0-5-9.64A14.19,14.19,0,0,0,372.82,291.66Z" transform="translate(-52.88 -108.57)"/>
    <path class="cls-2" d="M223.1,305.82a1.62,1.62,0,0,1,.62.06,1.49,1.49,0,0,1,.54.29,1.4,1.4,0,0,1,.39.48,1.57,1.57,0,0,1,.19.59l4.85,46a1.62,1.62,0,0,1-.06.62,1.64,1.64,0,0,1-.28.56,1.56,1.56,0,0,1-.48.4,1.72,1.72,0,0,1-.58.19,16.36,16.36,0,0,1-12.14-3.63A16.73,16.73,0,0,1,212,346.3a17,17,0,0,1-1.92-6.27l-1.65-15.67A17,17,0,0,1,212,312a16.41,16.41,0,0,1,11.1-6.18Z" transform="translate(-52.88 -108.57)"/>
    <path class="cls-3" d="M226.51,355.47a17.06,17.06,0,0,1-16.8-15.39l-1.66-15.68a17.18,17.18,0,0,1,15-19l0,.39,0-.39a1.92,1.92,0,0,1,1.44.43,2,2,0,0,1,.72,1.34l4.85,46a2.06,2.06,0,0,1-.42,1.47,2,2,0,0,1-1.32.73A15.86,15.86,0,0,1,226.51,355.47Zm-3.24-49.26h-.13a16.4,16.4,0,0,0-14.32,18.11L210.48,340a16.23,16.23,0,0,0,17.77,14.59,1.13,1.13,0,0,0,.79-.44,1.24,1.24,0,0,0,.26-.89l-4.85-46a1.2,1.2,0,0,0-.39-.77A1.15,1.15,0,0,0,223.27,306.21Z" transform="translate(-52.88 -108.57)"/>
    <g class="cls-4">
      <path class="cls-5" d="M228.34,340.46l1.35,12.75a1.62,1.62,0,0,1-.34,1.18,1.58,1.58,0,0,1-1.06.59,16.35,16.35,0,0,1-12.13-3.63,16.82,16.82,0,0,1-4.14-5A17,17,0,0,1,210.1,340l-.7-6.61a16.61,16.61,0,0,0,6.82,6.5,16.35,16.35,0,0,0,9.19,1.7l1.64-.18a1.73,1.73,0,0,0,.78-.32A1.6,1.6,0,0,0,228.34,340.46Z" transform="translate(-52.88 -108.57)"/>
    </g>
    <path class="cls-3" d="M226.51,357.28a18.85,18.85,0,0,1-18.57-17l-1.65-15.67a19,19,0,0,1,16.58-21,3.68,3.68,0,0,1,2.74.82A3.85,3.85,0,0,1,227,307l4.84,46a3.85,3.85,0,0,1-.8,2.8,3.72,3.72,0,0,1-2.51,1.4A19.34,19.34,0,0,1,226.51,357.28Zm-3.76-49.19a14.59,14.59,0,0,0-12.16,16l1.65,15.67a14.78,14.78,0,0,0,5,9.64,14.28,14.28,0,0,0,10.19,3.4Z" transform="translate(-52.88 -108.57)"/>
    <path class="cls-2" d="M300.15,401c42.71,0,77.32-35.27,77.32-78.77s-34.61-78.78-77.32-78.78-77.31,35.27-77.31,78.78S257.45,401,300.15,401Z" transform="translate(-52.88 -108.57)"/>
    <path class="cls-3" d="M300.08,401.42a77.37,77.37,0,0,1-54.95-23.07,80.63,80.63,0,0,1-1-112,77,77,0,0,1,109.9-2,80.61,80.61,0,0,1,3,111.94A77.44,77.44,0,0,1,303,401.37C302,401.4,301,401.42,300.08,401.42Zm.11-157.56c-.93,0-1.87,0-2.81.06-42.39,1.55-75.63,38-74.1,81.15a78.51,78.51,0,0,0,24.48,54.56,75.6,75.6,0,0,0,52.33,21c.94,0,1.89,0,2.84-.05a75.87,75.87,0,0,0,53.55-24.94A78.73,78.73,0,0,0,377,319.42C375.54,277.19,341.34,243.86,300.19,243.86Z" transform="translate(-52.88 -108.57)"/>
    <g class="cls-4">
      <path class="cls-5" d="M376.3,308.54a80.74,80.74,0,0,1,1.12,10.87c1.53,43.48-31.81,80-74.49,81.57s-78.49-32.42-80-75.9c0-1.25-.06-2.5,0-3.73,6.57,38.13,39.88,66.45,78.93,65C343.21,384.84,375.85,350.35,376.3,308.54Z" transform="translate(-52.88 -108.57)"/>
    </g>
    <path class="cls-3" d="M300.08,403.23a79.24,79.24,0,0,1-56.31-23.62,82.6,82.6,0,0,1-1-114.73,78.95,78.95,0,0,1,112.59-2.11,82.62,82.62,0,0,1,3.1,114.7A79.35,79.35,0,0,1,303,403.17Q301.55,403.23,300.08,403.23Zm.11-157.56c-.91,0-1.82,0-2.74.05-41.42,1.52-73.89,37.09-72.4,79.29A76.66,76.66,0,0,0,249,378.31a73.87,73.87,0,0,0,51.13,20.51c.92,0,1.85,0,2.78-.05a74.08,74.08,0,0,0,52.31-24.36,76.91,76.91,0,0,0,20.08-54.93C373.8,278.23,340.39,245.67,300.19,245.67Z" transform="translate(-52.88 -108.57)"/>
    <path class="cls-3" d="M377.25,321.44A71.75,71.75,0,0,1,366,363.65c-5.84,9.19-30.92,26.05-62.82,28-29.59,1.82-57.33-12.86-64.07-21.39a71.44,71.44,0,0,1-15.38-40.82c-2-40.75,31.46-59.43,73.84-61.64S375.2,280.7,377.25,321.44Z" transform="translate(-52.88 -108.57)"/>
    <path class="cls-3" d="M298.08,393.33a100.06,100.06,0,0,1-36-7.07C251.33,382,241.87,376.13,238,371.21a72.91,72.91,0,0,1-15.71-41.69c-.5-10.1,1.13-19.26,4.86-27.23a51,51,0,0,1,16-19.33c13-9.72,31.79-15.48,54.38-16.66s41.87,2.59,55.77,10.91a51,51,0,0,1,17.86,17.56c4.51,7.55,7.06,16.49,7.56,26.59a73.12,73.12,0,0,1-11.44,43.11c-3.43,5.39-11.94,12-22.22,17.25a107.07,107.07,0,0,1-41.76,11.45C301.54,393.28,299.8,393.33,298.08,393.33Zm7.43-124.22q-3.83,0-7.82.21c-22,1.15-40.25,6.71-52.78,16.08-14,10.46-20.59,25.25-19.65,44a69.88,69.88,0,0,0,15.05,39.95c2.72,3.43,10.32,9.2,22.84,14.11,9.21,3.62,23.62,7.73,40,6.72A104,104,0,0,0,343.74,379c11.76-6,18.69-12.47,21.05-16.19a70,70,0,0,0,11-41.31c-.94-18.71-9-32.73-24-41.69C340,272.77,324.13,269.11,305.51,269.11Z" transform="translate(-52.88 -108.57)"/>
    <g class="cls-10">
      <path class="cls-11" d="M362.2,319.36c1-7.62-2.62-14.39-8-15.11s-10.61,4.86-11.59,12.49,2.61,14.39,8,15.11S361.22,327,362.2,319.36Z" transform="translate(-52.88 -108.57)"/>
    </g>
    <g class="cls-10">
      <path class="cls-11" d="M344.71,347.46c.9-3.4-.69-6.78-3.55-7.57s-5.9,1.32-6.8,4.71.68,6.78,3.54,7.57S343.8,350.85,344.71,347.46Z" transform="translate(-52.88 -108.57)"/>
    </g>
    <g class="cls-4">
      <path class="cls-12" d="M360.41,284.21c9.84,8.63,16,20.86,16.84,37.22A71.77,71.77,0,0,1,366,363.65c-5.84,9.19-30.92,26.05-62.83,28a93.69,93.69,0,0,1-31.93-3.86c39.17-3.26,69.7-23.95,77-35.35a90.93,90.93,0,0,0,14.23-53.57A81.59,81.59,0,0,0,360.41,284.21Z" transform="translate(-52.88 -108.57)"/>
    </g>
    <path class="cls-3" d="M227.81,296.52a2,2,0,0,1-1.07-.3,2.14,2.14,0,0,1-1-1.91,2.25,2.25,0,0,1,.34-1.07,61.75,61.75,0,0,1,12.18-14.59,73.94,73.94,0,0,1,16.39-10.88,95.34,95.34,0,0,1,19.74-7.06,121.55,121.55,0,0,1,22.28-3.18,122.85,122.85,0,0,1,22.25.8,98.85,98.85,0,0,1,20.31,4.79,76.18,76.18,0,0,1,17.49,8.79,61,61,0,0,1,13.69,12.73,2.16,2.16,0,0,1,0,2.87,2.06,2.06,0,0,1-2.8.24l-.22-.17-.16-.21c-13.92-17.88-39.56-27.21-70.33-25.6-30.95,1.61-55.47,13.9-67.28,33.73l-.06.09-.07.09a2,2,0,0,1-.73.62A2,2,0,0,1,227.81,296.52Z" transform="translate(-52.88 -108.57)"/>
    <g class="cls-10">
      <path class="cls-11" d="M242.23,352.78s-14.41-39.54,6.05-56.66,51-18.66,50.42-16.63c0,0-33.44,10.12-45.31,38.09C244.23,339.14,242.23,352.78,242.23,352.78Z" transform="translate(-52.88 -108.57)"/>
    </g>
    <path class="cls-3" d="M383.6,488.21c0,.34-.11.72-.17,1.07s-.15.73-.23,1.09c-.16.72-.33,1.43-.51,2.15-.36,1.42-.77,2.84-1.17,4.27s-.77,2.85-1.14,4.29l-.27,1.08c-.1.36-.18.73-.26,1.09l-.13.55-.07.27-.06.28c-.07.36-.16.73-.25,1.1v0a.21.21,0,0,1-.11.15.19.19,0,0,1-.18,0,.24.24,0,0,1-.12-.07.22.22,0,0,1-.06-.13,19.59,19.59,0,0,1-.34-2.28l-.06-.58c0-.2,0-.39,0-.57,0-.39-.05-.78-.06-1.16,0-1.54,0-3.08.15-4.61a40.72,40.72,0,0,1,.59-4.55c.15-.75.32-1.49.52-2.23.1-.37.21-.74.32-1.1s.25-.72.4-1.1a1.74,1.74,0,0,1,.82-.89,1.69,1.69,0,0,1,2.16.6,1.77,1.77,0,0,1,.27,1.19Z" transform="translate(-52.88 -108.57)"/>
    <path class="cls-3" d="M222.47,487.26c.15.38.27.73.39,1.1s.23.73.33,1.1c.2.73.37,1.48.51,2.23a43.22,43.22,0,0,1,.6,4.55c.12,1.53.17,3.07.14,4.61,0,.39,0,.77-.05,1.16l0,.57-.06.58a22.18,22.18,0,0,1-.34,2.29.36.36,0,0,1,0,.09s0,0-.06.07l-.09,0h-.1a.29.29,0,0,1-.12-.07.24.24,0,0,1-.07-.12h0c-.09-.37-.17-.74-.25-1.11l-.06-.28-.06-.27-.13-.55c-.09-.36-.17-.72-.27-1.09l-.26-1.08c-.37-1.44-.76-2.87-1.15-4.29s-.81-2.84-1.17-4.27c-.18-.72-.35-1.43-.51-2.15-.07-.36-.15-.72-.22-1.08s-.13-.73-.18-1.08v-.05a1.78,1.78,0,0,1,.26-1.19,1.73,1.73,0,0,1,1-.71,1.64,1.64,0,0,1,1.19.12,1.66,1.66,0,0,1,.82.89Z" transform="translate(-52.88 -108.57)"/>
    <path class="cls-13" d="M229.69,532.18H373.63a4.62,4.62,0,0,1,3.28,1.38,4.77,4.77,0,0,1,1.35,3.34,8.24,8.24,0,0,1-2.35,5.79,8,8,0,0,1-5.69,2.4H233.1a7.93,7.93,0,0,1-5.68-2.4,8.25,8.25,0,0,1-2.36-5.79,4.78,4.78,0,0,1,1.36-3.34,4.59,4.59,0,0,1,3.27-1.38Z" transform="translate(-52.88 -108.57)"/>
    <g class="cls-14">
      <path class="cls-15" d="M378.26,536.9a8.2,8.2,0,0,1-.4,2.56,4.72,4.72,0,0,0-1.71-2,4.51,4.51,0,0,0-2.52-.75H229.7a4.58,4.58,0,0,0-2.53.76,4.7,4.7,0,0,0-1.71,2,8.51,8.51,0,0,1-.4-2.56,4.78,4.78,0,0,1,1.36-3.34,4.62,4.62,0,0,1,3.28-1.38H373.63a4.48,4.48,0,0,1,1.77.36,4.43,4.43,0,0,1,1.51,1,4.71,4.71,0,0,1,1,1.53A4.9,4.9,0,0,1,378.26,536.9Z" transform="translate(-52.88 -108.57)"/>
    </g>
    <g class="cls-4">
      <path class="cls-5" d="M378.26,536.9a8.26,8.26,0,0,1-2.35,5.79,8,8,0,0,1-5.68,2.4H233.1a7.93,7.93,0,0,1-5.68-2.4,8.27,8.27,0,0,1-1.75-2.65,8.44,8.44,0,0,1-.61-3.14,4.78,4.78,0,0,1,.64-2.39,8.25,8.25,0,0,0,3,3.64,8,8,0,0,0,4.44,1.36H370.23a8.06,8.06,0,0,0,7.39-5A4.78,4.78,0,0,1,378.26,536.9Z" transform="translate(-52.88 -108.57)"/>
    </g>
    <path class="cls-3" d="M370.23,547.17H233.1a10,10,0,0,1-7.13-3A10.38,10.38,0,0,1,223,536.9a6.89,6.89,0,0,1,1.95-4.81,6.65,6.65,0,0,1,4.72-2H373.63a6.63,6.63,0,0,1,4.72,2,6.92,6.92,0,0,1,2,4.81,10.43,10.43,0,0,1-3,7.26A10,10,0,0,1,370.23,547.17ZM229.69,534.26a2.53,2.53,0,0,0-1.82.78,2.62,2.62,0,0,0-.76,1.86,6.13,6.13,0,0,0,1.76,4.31A5.91,5.91,0,0,0,233.1,543H370.23a5.89,5.89,0,0,0,4.23-1.79,6.13,6.13,0,0,0,1.76-4.31,2.62,2.62,0,0,0-.76-1.86,2.53,2.53,0,0,0-1.82-.78Z" transform="translate(-52.88 -108.57)"/>
    <path class="cls-16" d="M386.27,440l-13.41,92.22H230.47l-.48-3.34L217.05,440a4.9,4.9,0,0,1,1.1-3.86,4.78,4.78,0,0,1,1.62-1.24,4.64,4.64,0,0,1,2-.44H381.58a4.64,4.64,0,0,1,2,.44,4.88,4.88,0,0,1,1.62,1.23,5,5,0,0,1,1,1.81A4.94,4.94,0,0,1,386.27,440Z" transform="translate(-52.88 -108.57)"/>
    <path class="cls-13" d="M386.27,440l-13.41,92.22H230.47l-.48-3.34L217.05,440a4.9,4.9,0,0,1,1.1-3.86,4.78,4.78,0,0,1,1.62-1.24,4.64,4.64,0,0,1,2-.44H381.58a4.64,4.64,0,0,1,2,.44,4.88,4.88,0,0,1,1.62,1.23,5,5,0,0,1,1,1.81A4.94,4.94,0,0,1,386.27,440Z" transform="translate(-52.88 -108.57)"/>
    <g class="cls-10">
      <path class="cls-11" d="M222.11,445.68a4.93,4.93,0,0,1,1.1-3.86,4.78,4.78,0,0,1,1.62-1.24,4.64,4.64,0,0,1,2-.44H386.24l0-.18a4.94,4.94,0,0,0-.14-2.06,5,5,0,0,0-1-1.81,4.88,4.88,0,0,0-1.62-1.23,4.64,4.64,0,0,0-2-.44H221.74a4.64,4.64,0,0,0-2,.44,4.78,4.78,0,0,0-1.62,1.24,4.9,4.9,0,0,0-1.1,3.86L230,528.84l.48,3.33h4.22Z" transform="translate(-52.88 -108.57)"/>
    </g>
    <g class="cls-4">
      <path class="cls-5" d="M377.08,434.42H365.86c4.26,15.89,1.91,51.76-25.55,70.51-34.46,23.53-96.57,23.38-109.76,23.91l.49,3.34H368.36L381.78,440a4.94,4.94,0,0,0-.14-2.06,5,5,0,0,0-1-1.81,4.88,4.88,0,0,0-1.62-1.23A4.65,4.65,0,0,0,377.08,434.42Z" transform="translate(-52.88 -108.57)"/>
    </g>
    <path class="cls-3" d="M374.62,534.26H228.7l-13.67-94a7,7,0,0,1,1.58-5.53,6.8,6.8,0,0,1,2.31-1.77,6.7,6.7,0,0,1,2.82-.62H381.58a6.74,6.74,0,0,1,2.83.62,6.94,6.94,0,0,1,3.88,7.3ZM232.23,530.1H371.09l13.16-90.45a2.72,2.72,0,0,0-.08-1.17,2.68,2.68,0,0,0-.54-1,2.72,2.72,0,0,0-.92-.7,2.62,2.62,0,0,0-1.13-.25H221.74a2.58,2.58,0,0,0-1.12.25,2.72,2.72,0,0,0-.92.7,2.68,2.68,0,0,0-.54,1,2.72,2.72,0,0,0-.08,1.17Z" transform="translate(-52.88 -108.57)"/>
    <g class="cls-14">
      <path class="cls-15" d="M241.8,510.64c-5.4-12.14-9.33-32.84-8.44-45s7.82-8.46,10,7.15C249.05,514.31,244.22,516.05,241.8,510.64Z" transform="translate(-52.88 -108.57)"/>
    </g>
    <path class="cls-2" d="M385.56,444.83s-11-5.34-21.4-.55c-9.92,4.57-16.94,37.21-4.08,45.48,7.93,5.1,13.33.59,17.82,1.91C384.56,493.64,398.22,460,385.56,444.83Z" transform="translate(-52.88 -108.57)"/>
    <g class="cls-4">
      <path class="cls-5" d="M390.54,466.06c-1.31,13.68-8.39,26.86-12.63,25.61-4.5-1.32-9.89,3.19-17.83-1.91-6.14-3.95-7.75-13.46-6.66-22.82.73,5.46,2.8,10.14,6.66,12.62,7.93,5.1,13.22,2.73,17.83,1.92C383.6,480.48,388.25,474.13,390.54,466.06Z" transform="translate(-52.88 -108.57)"/>
    </g>
    <path class="cls-3" d="M368.21,494.33a16.5,16.5,0,0,1-9.22-2.81c-3.09-2-5.33-5.21-6.63-9.56a36.93,36.93,0,0,1-1.19-12.88A51,51,0,0,1,355,452.76c1.6-3.72,4.34-8.54,8.32-10.38,11.1-5.13,22.63.33,23.11.56l.4.2.29.34c5.79,7,6.13,16.58,5.39,23.42-.84,7.71-3.51,15.89-7,21.34s-6.37,6-8.2,5.43a10.94,10.94,0,0,0-4.42.18A28.15,28.15,0,0,1,368.21,494.33Zm5.4-50a20.24,20.24,0,0,0-8.6,1.81c-2.16,1-4.44,4-6.27,8.26a47.47,47.47,0,0,0-3.5,14.94c-.61,9,1.55,15.81,5.92,18.62s7.82,2.29,11.11,1.75c2.13-.34,4.14-.68,6.2-.07.23.05,1.94-.62,4.33-4.86,5.6-9.87,9.15-28.52,1.49-38.28a28.79,28.79,0,0,0-6-1.74,26.06,26.06,0,0,0-4.66-.43Z" transform="translate(-52.88 -108.57)"/>
    <path class="cls-2" d="M416.42,326.05a27.4,27.4,0,0,1-7.34-15.76c-1.74-15,8.77-28.55,23.46-30.32a26.91,26.91,0,0,1,29.76,23.9c1.74,15-8.76,28.55-23.46,30.32A26.21,26.21,0,0,1,427.12,333l-11.49,5.53Z" transform="translate(-52.88 -108.57)"/>
    <g class="cls-10">
      <path class="cls-11" d="M433.15,285.18a27.13,27.13,0,0,0-23.64,27.39,28.24,28.24,0,0,1-.5-2.87c-1.74-15,8.77-28.55,23.46-30.32a26.9,26.9,0,0,1,29.76,23.9,28.44,28.44,0,0,1,.19,2.92A26.86,26.86,0,0,0,433.15,285.18Z" transform="translate(-52.88 -108.57)"/>
    </g>
    <path class="cls-3" d="M415.63,340.48a2,2,0,0,1-.79-.17,1.93,1.93,0,0,1-.65-.46,2.05,2.05,0,0,1-.41-.7,2,2,0,0,1-.12-.8l.74-11.57a29.68,29.68,0,0,1-.68-38.5,28.55,28.55,0,0,1,17.6-10.06,28.22,28.22,0,0,1,19.75,4.22,29.22,29.22,0,0,1,12.15,16.43,29.78,29.78,0,0,1-1.47,20.51,29,29,0,0,1-14.35,14.46,28.22,28.22,0,0,1-20.15,1.26l-10.78,5.19A1.88,1.88,0,0,1,415.63,340.48Zm20.08-58.7a24.17,24.17,0,0,0-2.94.18,24.56,24.56,0,0,0-12.56,5.34,25.34,25.34,0,0,0-7.91,11.29,25.66,25.66,0,0,0,5.53,26.07,2,2,0,0,1,.43.7,1.9,1.9,0,0,1,.12.82l-.58,9,8.47-4.07a2,2,0,0,1,1.47-.09,24.18,24.18,0,0,0,10.87,1.15c13.59-1.64,23.34-14.25,21.73-28.1A25,25,0,0,0,435.71,281.78Z" transform="translate(-52.88 -108.57)"/>
    <g class="cls-14">
      <path class="cls-17" d="M416.22,325.82a30.4,30.4,0,0,0,28.23.28,31.59,31.59,0,0,0,17.05-26.38,27.89,27.89,0,0,1,.8,4.15c1.74,15-8.76,28.55-23.46,30.32A26.21,26.21,0,0,1,427.12,333l-11.49,5.53.79-12.43Z" transform="translate(-52.88 -108.57)"/>
    </g>
  </g>
  <g>
    <path class="cls-18" d="M437.89,298l-3.78,17" transform="translate(-52.88 -108.57)"/>
    <path class="cls-18" d="M443.89,302.25l4.25,4.25-4.25,4.25" transform="translate(-52.88 -108.57)"/>
    <path class="cls-18" d="M428.11,310.75l-4.25-4.25,4.25-4.25" transform="translate(-52.88 -108.57)"/>
  </g>
  <path class="cls-19" d="M52.88,293.79c-.07,1.06,2,2.13,5.27,2.85a3.89,3.89,0,0,1,2.05,1.21,3.94,3.94,0,0,1,.94,2.18c.3,3.29,1.09,5.53,2.15,5.6s2.13-2.05,2.84-5.28a3.84,3.84,0,0,1,1.22-2,3.77,3.77,0,0,1,2.18-.94c3.29-.31,5.52-1.09,5.59-2.16s-2-2.13-5.27-2.84a3.91,3.91,0,0,1-2-1.22,3.77,3.77,0,0,1-.94-2.18c-.3-3.3-1.09-5.53-2.15-5.6s-2.13,2.05-2.85,5.28a3.83,3.83,0,0,1-1.21,2,3.88,3.88,0,0,1-2.19.95C55.18,291.94,53,292.72,52.88,293.79Z" transform="translate(-52.88 -108.57)"/>
  <path class="cls-20" d="M424.07,112.37a3.93,3.93,0,1,1,3.8,4.06A3.93,3.93,0,0,1,424.07,112.37Z" transform="translate(-52.88 -108.57)"/>
  <path class="cls-21" d="M123.28,118.05a3.94,3.94,0,1,1,5.27-1.83A3.93,3.93,0,0,1,123.28,118.05Z" transform="translate(-52.88 -108.57)"/>
  <path class="cls-21" d="M470.28,174.05a3.94,3.94,0,1,1,5.27-1.83A3.93,3.93,0,0,1,470.28,174.05Z" transform="translate(-52.88 -108.57)"/>
  <path class="cls-21" d="M175.34,147.41a2,2,0,1,1,2.57-1.25A2,2,0,0,1,175.34,147.41Z" transform="translate(-52.88 -108.57)"/>
  <path class="cls-21" d="M531.06,152.45a2.16,2.16,0,1,1,2.89-1A2.17,2.17,0,0,1,531.06,152.45Z" transform="translate(-52.88 -108.57)"/>
  <path class="cls-22" d="M519.42,414.81h0a16.85,16.85,0,0,1-3.79-2,3.62,3.62,0,0,1-.77-.75l0,0,0,0a3.31,3.31,0,0,1,1-.33,17.21,17.21,0,0,1,4.27-.1h0a5.5,5.5,0,0,0,5.5-3.42h0a17.08,17.08,0,0,1,2-3.79,3.4,3.4,0,0,1,.75-.77h0v0a3.44,3.44,0,0,1,.34,1,17.08,17.08,0,0,1,.12,4.28,5.39,5.39,0,0,0,.81,3.3,5.48,5.48,0,0,0,2.6,2.2h0a16.85,16.85,0,0,1,3.79,2,3.09,3.09,0,0,1,.76.75l0,0h0a3.41,3.41,0,0,1-1,.33,17.21,17.21,0,0,1-4.29.12,5.39,5.39,0,0,0-3.3.81,5.48,5.48,0,0,0-2.2,2.6h0a17.43,17.43,0,0,1-2,3.78,3.6,3.6,0,0,1-.76.77h0v0a3.41,3.41,0,0,1-.33-1,17.1,17.1,0,0,1-.12-4.28Zm0,0A5.55,5.55,0,0,1,522,417m-2.6-2.19L522,417m0,0a5.58,5.58,0,0,1,.81,3.31Zm1.35,8.73h0Zm-.18-.05h0ZM537,417.12Zm0,.18h0Zm-8.57-13.82h0Zm.18,0Zm-13.81,8.56Zm0-.18h0Z" transform="translate(-52.88 -108.57)"/>
</svg>
