<?xml version="1.0" encoding="utf-8"?>
<!-- Generator: Adobe Illustrator 25.1.0, SVG Export Plug-In . SVG Version: 6.00 Build 0)  -->
<svg version="1.1" id="Camada_1" xmlns="http://www.w3.org/2000/svg" xmlns:xlink="http://www.w3.org/1999/xlink" x="0px" y="0px"
	 viewBox="0 0 513 464" style="enable-background:new 0 0 513 464;" xml:space="preserve">
<style type="text/css">
	.st0{opacity:0.2;fill:#0084FF;enable-background:new    ;}
	.st1{fill:#002D54;}
	.st2{fill:#371A45;}
	.st3{fill:#FFFFFF;}
	.st4{opacity:0.35;}
	.st5{opacity:0.35;fill:#371A45;enable-background:new    ;}
	.st6{opacity:0.6;}
	.st7{opacity:0.6;fill:#FFFFFF;enable-background:new    ;}
	.st8{opacity:0.35;fill:#111A28;enable-background:new    ;}
	.st9{fill:#FFB200;}
	.st10{opacity:0.25;}
	.st11{opacity:0.25;fill:#371A45;enable-background:new    ;}
	.st12{fill:#D66B09;}
	.st13{fill:#FFCC4D;}
	.st14{fill:#FFEC90;}
	.st15{opacity:0.41;}
	.st16{opacity:0.41;fill:#FFFFFF;enable-background:new    ;}
	.st17{opacity:0.3;}
	.st18{opacity:0.3;fill:#293856;enable-background:new    ;}
	.st19{fill:#22A7F0;}
	.st20{fill:#FFD527;}
	.st21{fill:none;stroke:#FFD527;stroke-width:2.3123;}
	.st22{fill:#8DD7FF;}
	.st23{fill:#E0E0E0;}
</style>
<path class="st0" d="M382,384.7c39.3-32.1,64.3-81,64.3-135.7c0-96.8-78.5-175.2-175.3-175.2S95.7,152.3,95.7,249.1
	c0,54.7,25.1,103.5,64.3,135.7c32.7-0.6,70.6-1,111-1C311.4,383.7,349.3,384.1,382,384.7z"/>
<path class="st1" d="M454.5,358c2-4.4-3.7-45.6-43.7-47.4c-7.9,0-15.7,1.9-22.7,5.8c-6.6-5.9-15.5-9.9-25.5-10.9
	c-3.6-17.4-21-30.5-41.8-30.5c-7.3,0-14.5,1.6-21.1,4.9c-2.1,1-4.5,1.1-6.8,0.4l-0.4-0.1c-2.1-0.6-3.8-1.9-5-3.6
	c-7.3-11.3-21.1-18.9-37-18.9c-16.7,0-31.1,8.4-38.1,20.7c-6.9-3.7-14.5-5.6-22.3-5.6c-23.5,0-42.5,16.7-42.5,37.3
	c0,1.1,0.1,2.2,0.2,3.3c-14.5,2.9-26.6,11.5-32.9,23c-8.9-9.5-22.4-15.5-37.5-15.5c-26.1,0-47.4,18.1-48.6,40.8
	c-1.2-0.1-2.5-0.2-3.8-0.2c-16.7,0-30.2,11.9-30.2,26.5c0,0.7,0,1.5,0.1,2.2h523C512.4,371.7,487.8,348.2,454.5,358z"/>
<g>
	<g>
		<path class="st2" d="M276.2,313.5c-0.6,0-1.1-0.2-1.5-0.6c-0.4-0.4-0.6-0.9-0.6-1.5V197.1c0-0.6,0.2-1.1,0.6-1.5
			c0.4-0.4,0.9-0.6,1.5-0.6s1.1,0.2,1.5,0.6c0.4,0.4,0.6,0.9,0.6,1.5v114.3c0,0.6-0.2,1.1-0.6,1.5
			C277.3,313.2,276.8,313.5,276.2,313.5z"/>
		<path class="st3" d="M275.6,378.4c-18-0.1-49.5-2.5-50.8-20.4c-0.2-2.5-0.2-5,0-7.6c1-17.7,8.6-40.8,16-46
			c4.3-3,11.8-3.4,19.9-1.9c16.1,2.8,34.6,12.9,34.4,24.2C295,337.7,293.7,378.4,275.6,378.4z"/>
		<g class="st4">
			<path class="st5" d="M275.6,378.4c-18-0.1-49.5-2.5-50.8-20.4c-0.2-2.5-0.2-5,0-7.6c4.8,4.1,11.9,0.8,12.9-3.9
				c6.2-29.4,17.6-40.3,23-44c16.1,2.8,34.6,12.9,34.4,24.2C295,337.7,293.7,378.4,275.6,378.4z"/>
		</g>
		<path class="st2" d="M275.7,380.5L275.7,380.5c-23.4-0.1-51.6-4-52.9-22.3c-1.3-17.4,7-48.5,16.9-55.4c8.8-6.1,28.4-2.4,41.6,4.6
			c10.5,5.6,16.2,12.5,16.1,19.4C297,346.8,293.8,380.5,275.7,380.5z M252.2,303.9c-4.3,0-7.9,0.7-10.2,2.3
			c-7.9,5.5-16.4,34.5-15.1,51.7c1.2,15.9,31,18.4,48.7,18.5h0c15.6,0,17.3-37.9,17.4-49.6c0.1-5.3-5-11-13.9-15.7
			C270.5,306.4,260.2,303.9,252.2,303.9z"/>
		<path class="st3" d="M240.7,335.5l-7-3.1c-0.4-0.2-0.8-0.2-1.2-0.2c-0.4,0-0.8,0.1-1.2,0.3c-0.4,0.2-0.7,0.4-1,0.7
			c-0.3,0.3-0.5,0.7-0.6,1.1c-1.7,5.7-4.4,17.5,1.3,20.1c6.9,3.2,9.6-4.8,11.2-15.8c0.1-0.6,0-1.3-0.3-1.8
			C241.8,336.2,241.3,335.8,240.7,335.5z"/>
		<g class="st4">
			<path class="st5" d="M242.4,338.5c-1.6,11-4.3,19-11.2,15.8c-2.8-1.3-3.6-4.9-3.4-8.9c0.5,1.2,1.3,2.1,2.5,2.6
				c6.2,2.8,9-3.3,10.7-12.5c0.5,0.3,0.9,0.7,1.2,1.2C242.4,337.4,242.5,338,242.4,338.5z"/>
		</g>
		<path class="st2" d="M234,356.8c-1.1,0-2.3-0.3-3.6-0.9c-6.4-3-4.8-13.7-2.3-22.2c0.2-0.6,0.5-1.2,0.9-1.7c0.4-0.5,1-0.9,1.5-1.2
			c0.6-0.3,1.2-0.4,1.9-0.4c0.7,0,1.3,0.1,1.9,0.4l7,3.1c0.9,0.4,1.7,1.1,2.2,2c0.5,0.9,0.7,1.9,0.5,2.9
			c-1.5,10.2-3.6,15.4-7.1,17.3C236.1,356.6,235.1,356.8,234,356.8z M232.6,334c-0.2,0-0.3,0-0.5,0.1c-0.1,0.1-0.3,0.2-0.4,0.3
			c-0.1,0.1-0.2,0.3-0.2,0.4c-2.2,7.6-3.3,16.3,0.4,18c2.1,1,3.1,0.4,3.4,0.2c3.5-1.9,4.9-11.6,5.3-14.7c0-0.2,0-0.5-0.1-0.7
			c-0.1-0.2-0.3-0.4-0.5-0.5l-7-3.1C232.9,334,232.7,334,232.6,334z"/>
		<path class="st3" d="M301.5,420.4c0,0,8.5,8.8,1.1,15.6c-6.4,5.8-23.8,2.2-30-9.5c-4-7.5,0.1-14.1,0.8-25.8
			c0.3-5.8-0.1-12.9-2.9-22c-1.3-4.5-2.9-10.1-3.3-16.8l37.6,20.2c0,0,1.1,3.5,1.8,8.7C307.7,398.9,307.8,411.1,301.5,420.4z"/>
		<g class="st4">
			<path class="st5" d="M305,432.8c-0.5,1.1-1.2,2.1-2.3,3.2c-6.4,5.8-23.8,2.2-30-9.5c-4-7.5,0.1-14.1,0.8-25.8
				c0.3-5.8-0.1-12.9-2.9-22c-1.3-4.5-2.9-10.1-3.3-16.8l6.5,3.5l31.1,16.7c0,0,1.1,3.5,1.8,8.7c-4.3,5.4-10.3,9.5-18.3,10.6
				c-7.5,1.1-13.1,7.9-11.9,15.5c0.2,1.6,0.8,3.1,1.5,4.6C283.3,431.7,297.3,435.8,305,432.8z"/>
		</g>
		<path class="st2" d="M294.1,440.8c-1.4,0-2.9-0.1-4.3-0.4c-6.4-1.1-14.8-5.1-19-13c-3-5.6-2-10.7-0.9-16.7
			c1.4-7.4,3.1-16.7-1.4-31.5c-1.5-5-3-10.6-3.4-17.2l-0.3-3.9l41.7,22.5l0.3,0.8c0.3,0.9,6.9,22.8-2.6,38.7
			c1.4,1.9,3.8,5.6,3.6,9.7c-0.1,2.9-1.3,5.5-3.7,7.6S298.2,440.8,294.1,440.8z M269.7,365.7c0.6,4.5,1.7,8.6,2.9,12.4
			c4.7,15.8,2.8,26,1.5,33.5c-1,5.6-1.8,9.7,0.5,13.9c3.5,6.5,10.5,9.9,16,10.8c4.6,0.8,8.6,0.1,10.7-1.9c1.5-1.4,2.2-2.9,2.3-4.6
			c0.1-4-3.5-7.9-3.5-7.9l-1.2-1.2l1-1.4c8.6-12.7,4.3-31.5,3.2-35.6L269.7,365.7z"/>
		<path class="st2" d="M294.8,413.4c-11.8,0-22.1-6.3-22.7-6.6c-0.2-0.1-0.3-0.2-0.4-0.4c-0.1-0.1-0.2-0.3-0.2-0.5s-0.1-0.4,0-0.6
			c0-0.2,0.1-0.4,0.2-0.5c0.1-0.2,0.2-0.3,0.4-0.4c0.2-0.1,0.3-0.2,0.5-0.2c0.2,0,0.4,0,0.5,0c0.2,0,0.4,0.1,0.5,0.2
			c0.2,0.1,17.3,10.5,31.8,4c0.2-0.1,0.3-0.1,0.5-0.1c0.2,0,0.4,0,0.5,0.1c0.2,0.1,0.3,0.2,0.5,0.3c0.1,0.1,0.2,0.3,0.3,0.4
			c0.1,0.2,0.1,0.3,0.1,0.5c0,0.2,0,0.4-0.1,0.5c-0.1,0.2-0.2,0.3-0.3,0.5c-0.1,0.1-0.3,0.2-0.4,0.3
			C302.7,412.7,298.7,413.4,294.8,413.4z"/>
		<path class="st3" d="M333.8,322.9c0,0-2,2.2-4.7,6.3c-2.2,3.4-4.2,7-5.9,10.8c-3.4,7.3-5.7,15-7,22.9c-0.7,4.2-1.9,8.5-3.7,12.5
			c-5.4,12-16.1,21.3-34,18.7c-23.7-3.4-38.1-21.2-35.8-41c0.4-3.7,1.1-7.4,2.2-10.9c0.8-2.7,1.8-5.4,3-7.9c2.5-5.5,5.8-10.5,9.7-15
			c3.5-4,7.6-7.8,12.4-11.3c4.3-3.1,9.1-6,14.4-8.7c3.4-1.7,7-3.3,10.9-4.8C300.7,292.2,333.8,322.9,333.8,322.9z"/>
		<g class="st4">
			<path class="st5" d="M315,367.5c0.1-0.2,0.2-0.5,0.3-0.7c-0.7,2.9-1.7,5.7-2.9,8.5c-5.4,12-16.1,21.3-34,18.7
				c-23.7-3.4-38.1-21.2-35.8-41c0.6-5.7,2-11.4,4.2-16.7c-0.8,2.9-1.3,5.9-1.6,8.9c-2.2,19.8,12.1,37.6,35.9,41
				C298.9,388.9,309.6,379.5,315,367.5z"/>
		</g>
		<path class="st2" d="M284.3,396.6c-2.1,0-4.1-0.2-6.2-0.5c-24.3-3.5-40.1-21.8-37.7-43.3c3-27,21.7-47.9,53.9-60.4
			c1.6-0.6,4.6-1.8,23.5,13.8c8.9,7.4,17.3,15.1,17.3,15.2l1.5,1.4l-1.4,1.6c-0.1,0.1-13.1,14.6-17.1,38.9
			C315.4,379.9,305,396.6,284.3,396.6z M295.8,296.3c-31,12.1-48.2,31.3-51.1,56.9c-2.2,19.2,12.2,35.5,34,38.7
			c27.5,4,34-21.5,35.3-29.5c3.5-21,13.2-34.8,16.8-39.4c-2.7-2.4-8.7-7.8-15-13.1C300.1,296.9,296.4,296.3,295.8,296.3L295.8,296.3
			z"/>
		<path class="st3" d="M279.7,384.5c0,0,3.2,23.8-9.7,37.1c0,0,6.9,10.1-1.5,15.5c-7.3,4.7-23.8-1.9-28-14.4c-4-12,9.5-19.2,6-47.5
			c-0.6-4.7-1.1-10.5-0.5-17.1L279.7,384.5z"/>
		<g class="st4">
			<path class="st5" d="M271.2,434.6c-0.7,1-1.6,1.9-2.7,2.5c-7.3,4.7-23.8-1.9-28-14.4c-4-12,9.5-19.2,6-47.5
				c-0.2-1.9-0.5-4.1-0.6-6.4c14.4,26.9-1.9,38.5,1.9,49.9C251.2,429.1,263.1,435.4,271.2,434.6z"/>
		</g>
		<path class="st2" d="M280.4,384.4c1.5,3.2,1.8,6.7,1.8,10.1c0,3.4-0.5,6.8-1.3,10.1c-0.8,3.3-1.8,6.6-3.4,9.8
			c-0.8,1.6-1.6,3.1-2.6,4.6c-1,1.5-2.1,2.8-3.3,4.1l0.2-2.7c0.2,0.4,0.4,0.6,0.6,0.9c0.2,0.3,0.3,0.6,0.5,0.9
			c0.3,0.6,0.6,1.2,0.8,1.9c0.5,1.3,0.9,2.7,1,4.1c0.2,1.5,0.1,3-0.3,4.4c-0.4,1.5-1.1,2.9-2.2,4.1c-0.5,0.6-1,1.1-1.6,1.5
			c-0.3,0.2-0.6,0.4-0.9,0.6s-0.7,0.4-1,0.6c-1.3,0.7-2.8,1.1-4.2,1.2c-2.8,0.3-5.6-0.1-8.1-0.8c-5.1-1.5-9.7-4.4-13.2-8.4
			c-0.9-1-1.7-2.1-2.4-3.2c-0.7-1.2-1.3-2.4-1.8-3.6c-0.5-1.3-0.9-2.6-1.1-4c-0.2-1.4-0.2-2.8-0.1-4.2c0.3-2.8,1.1-5.3,2-7.6
			c0.8-2.3,1.7-4.6,2.4-6.9c1.5-4.5,2.4-9.1,2.7-13.9c0.2-2.4,0.2-4.7,0-7.1c-0.1-1.2-0.1-2.4-0.3-3.6l-0.2-1.8
			c0-0.3-0.1-0.5-0.1-0.7c0-0.2-0.1-0.5-0.2-0.7c-0.6-2-1.9-4.2-2.6-6.7c-0.4-1.3-0.6-2.6-0.6-4c0-1.4,0.4-2.8,1.1-4
			c0.1-0.1,0.2-0.2,0.3-0.3c0.1-0.1,0.3-0.1,0.4-0.1c0.1,0,0.3,0.1,0.4,0.1c0.1,0.1,0.2,0.2,0.3,0.3l0,0c0.5,1.2,0.9,2.3,1.2,3.3
			c0.4,1,0.8,2.1,1.2,3.1c0.4,1.1,0.8,2.1,1.2,3.3c0.4,1.2,0.9,2.4,1.2,3.7c0.1,0.3,0.2,0.7,0.2,1c0.1,0.4,0.1,0.7,0.2,1.1l0.2,1.9
			c0.1,1.2,0.2,2.5,0.3,3.8c0.1,2.5,0.1,5.1,0,7.6c-0.3,5.1-1.3,10.1-2.9,14.9c-0.8,2.4-1.7,4.7-2.5,7c-0.8,2.3-1.5,4.5-1.7,6.6
			c-0.2,2.1,0.1,4.2,0.9,6.2c0.4,1,0.9,2,1.5,2.9c0.6,0.9,1.3,1.8,2,2.7c2.9,3.3,7,5.9,11.3,7.1c2.1,0.6,4.4,0.9,6.4,0.7
			c1-0.1,1.9-0.4,2.8-0.8c0.2-0.1,0.4-0.2,0.6-0.3c0.2-0.1,0.4-0.3,0.6-0.4c0.4-0.3,0.7-0.6,1-1c1.2-1.4,1.7-3.2,1.4-5.2
			c-0.1-1-0.4-2.1-0.8-3c-0.2-0.5-0.4-1-0.7-1.5c-0.1-0.2-0.2-0.5-0.4-0.7c-0.1-0.2-0.3-0.5-0.4-0.6l-0.9-1.4l1.2-1.3
			c1-1.1,2-2.3,2.9-3.6c0.9-1.3,1.6-2.6,2.3-4c1.3-2.8,2.3-5.8,2.9-8.9c0.6-3.1,0.9-6.3,1.2-9.4c0.3-3.2,0.5-6.4,1.2-9.7l0,0
			c0-0.2,0.1-0.3,0.2-0.4c0.1-0.1,0.3-0.2,0.4-0.2c0.2,0,0.3,0,0.4,0.1C280.2,384.1,280.3,384.3,280.4,384.4L280.4,384.4z"/>
		<path class="st2" d="M269.8,414.1c-14.1,0-25.9-10.3-26.4-10.8c-0.3-0.2-0.4-0.6-0.5-1c0-0.4,0.1-0.7,0.3-1s0.6-0.4,1-0.5
			c0.4,0,0.7,0.1,1,0.3c0.2,0.1,15.3,13.3,30.7,9.4c0.4-0.1,0.7,0,1.1,0.1c0.3,0.2,0.5,0.5,0.6,0.9c0.1,0.4,0,0.7-0.1,1.1
			c-0.2,0.3-0.5,0.5-0.9,0.6C274.4,413.8,272.1,414.1,269.8,414.1z"/>
		<g class="st4">
			<path class="st5" d="M275.1,359.8c-22.3-6.1-29.5-15.9-29.5-15.9c-0.4-0.6-0.7-1.2-0.9-1.8c0.8-2.7,1.8-5.4,3-7.9
				c0.6-0.4,1.3-0.6,2-0.8c6.8,12.7,27.9,16.4,27.9,16.4C282.6,356.1,275.1,359.8,275.1,359.8z"/>
		</g>
		<path class="st3" d="M285.9,299.6l-14.5,11.8l-10.9,8.9c-1-0.3-2.1-0.7-3-1.2c-14.8-6.9-34.8-32.3-33.2-50.5
			c0.3-3.5,4.3-11.1,6.8-13.3c10.9-9.5,13.7,8.3,14.1,8.5c0.4,0.1,3.7-7.3,8-4.4c3.4,2.2,0.3,13.4,0.3,13.4s4.2,9.7,14.6,17.9
			c4.8,3.8,10.4,6.7,16.3,8.5C284.8,299.3,285.3,299.5,285.9,299.6z"/>
		<g class="st4">
			<path class="st5" d="M260.5,320.3c-1-0.3-2.1-0.7-3-1.2c-14.8-6.9-34.8-32.3-33.2-50.5c0.3-3.5,4.3-11.1,6.8-13.3
				c2-1.7,3.7-2.5,5.2-2.7c-2.4,3.1-5.1,8.8-5.4,11.7c-1.3,15.6,16.3,39.7,29.4,48.4C262.8,314.5,262.9,318.3,260.5,320.3z"/>
		</g>
		<path class="st2" d="M260.3,321c-1.4,0-2.8-0.3-4.2-0.7c-1.4-0.4-2.6-1-3.8-1.7c-2.4-1.4-4.6-3-6.7-4.8c-2.1-1.8-3.9-3.8-5.7-5.8
			c-1.8-2-3.6-4.1-5.2-6.3c-3.2-4.4-6.1-9-8.4-14c-2.2-5-4-10.4-4.2-16.1c0-0.4,0-0.7,0-1.1l0-1.1l0-0.5c0-0.2,0-0.4,0-0.6l0.1-0.6
			l0.1-0.6c0.4-1.4,0.8-2.8,1.4-4.1c1.2-2.6,2.4-5,4.2-7.3c0.5-0.6,1-1.2,1.6-1.8c0.6-0.5,1.2-0.9,1.8-1.4c1.3-0.8,2.7-1.6,4.5-1.9
			c1.8-0.2,3.9,0.3,5.2,1.4c0.7,0.5,1.3,1.1,1.8,1.8c0.5,0.6,0.9,1.2,1.3,1.9c0.7,1.3,1.3,2.6,1.8,4c0.2,0.7,0.4,1.3,0.6,2l0.3,1
			l0.1,0.3l0,0v0c0-0.1-0.1-0.2-0.1-0.2c-0.2-0.4-0.6-0.6-1-0.8c-0.3-0.1-0.7-0.2-1.1-0.1c-0.2,0-0.4,0.1-0.6,0.3
			c-0.1,0.1-0.2,0.1-0.3,0.2l-0.1,0.1l0,0l0,0c0.1-0.1,0.3-0.4,0.5-0.7s0.4-0.6,0.6-0.9c0.4-0.6,0.9-1.2,1.5-1.7
			c0.6-0.6,1.3-1.2,2-1.6c0.9-0.5,1.9-0.8,3-0.7c1,0.1,2.1,0.4,2.9,1c1.1,0.7,1.6,1.8,1.9,2.6c0.6,1.8,0.6,3.2,0.5,4.7
			c-0.1,1.4-0.2,2.8-0.5,4.2c-0.2,1.4-0.5,2.7-0.9,4.1l-0.1-1.4c0.3,0.7,0.7,1.5,1.2,2.2c0.4,0.8,0.9,1.5,1.3,2.2
			c0.5,0.7,1,1.4,1.5,2.2c0.5,0.7,1,1.4,1.6,2.1c2.2,2.7,4.6,5.2,7.3,7.4l1,0.8c0.3,0.3,0.7,0.5,1,0.8c0.7,0.5,1.4,1,2.1,1.5
			c1.5,0.9,3,1.8,4.6,2.5c0.8,0.4,1.5,0.8,2.3,1.2c0.8,0.3,1.6,0.7,2.3,1.2c0.8,0.5,1.5,0.8,2.3,1.3c0.8,0.5,1.6,1,2.3,1.6l0.1,0.1
			c0.1,0.1,0.2,0.2,0.2,0.4c0,0.1,0,0.3,0,0.4c0,0.1-0.1,0.3-0.2,0.3c-0.1,0.1-0.2,0.1-0.4,0.2c-3.9,0.4-7.6-0.8-10.9-2.6
			c-3.3-1.8-6.4-4-9.3-6.4c-2.9-2.4-5.5-5.1-7.9-8c-0.6-0.7-1.1-1.5-1.7-2.2c-0.5-0.8-1.1-1.5-1.6-2.3c-0.5-0.8-1-1.6-1.5-2.4
			c-0.5-0.8-0.9-1.6-1.3-2.6l-0.3-0.6l0.2-0.8c0.6-2.4,1.1-5,1.2-7.4c0-1.2,0-2.4-0.3-3.2c-0.1-0.2-0.2-0.4-0.3-0.6
			c-0.2-0.2-0.5-0.3-0.8-0.3c-0.3,0-0.6,0.1-0.8,0.2c-0.4,0.2-0.8,0.5-1.1,0.9c-0.4,0.4-0.8,0.8-1.1,1.3l-0.5,0.8
			c-0.2,0.3-0.3,0.5-0.7,0.9L247,265l-0.1,0.1c0,0.1-0.1,0.1-0.1,0.1c-0.1,0.1-0.3,0.2-0.4,0.3c-0.2,0.1-0.5,0.2-0.7,0.3
			c-0.4,0.1-0.8,0-1.1-0.1c-0.4-0.2-0.8-0.5-1.1-0.9c-0.1-0.1-0.1-0.2-0.2-0.3l0-0.1l-0.1-0.1l-0.1-0.1l0-0.1l0-0.2l-0.1-0.3l-0.3-1
			c-0.2-0.6-0.4-1.2-0.6-1.8c-0.4-1.1-0.9-2.2-1.5-3.3c-0.6-1-1.2-1.9-2-2.4c-0.3-0.3-0.7-0.4-1.1-0.6c-0.4-0.1-0.7-0.1-1.1-0.1
			c-0.8,0.1-1.8,0.5-2.7,1.2c-0.5,0.3-0.9,0.7-1.4,1.1c-0.4,0.4-0.7,0.8-1.1,1.2c-1.4,1.9-2.7,4.2-3.7,6.4c-0.5,1.1-0.9,2.2-1.2,3.4
			l-0.1,0.4l0,0.4c0,0.1,0,0.3,0,0.4l0,0.5l0,0.9c0,0.3,0,0.6,0,0.9c0.2,4.9,1.7,9.8,3.8,14.5c2.1,4.6,4.9,9.1,7.9,13.2
			c3.1,4.1,6.6,7.9,10.6,11.3c1.9,1.7,3.9,3.3,5.9,4.8l3.1,2.3c1,0.8,2.1,1.4,3.2,2.2l0,0c0.1,0.1,0.2,0.2,0.2,0.4
			c0,0.1,0,0.3,0,0.4c0,0.1-0.1,0.3-0.3,0.4C260.6,320.9,260.5,321,260.3,321z"/>
		<g class="st4">
			<path class="st5" d="M329.1,329.2c2.7-4.1,4.7-6.3,4.7-6.3s-33.1-30.7-38.6-28.6c-3.8,1.5-7.5,3.1-10.9,4.8
				c-5.9-1.8-11.4-4.7-16.3-8.5c-0.7,5.8-0.1,11.7,1.9,17.2c0.4,1.2,0.9,2.4,1.5,3.6c0.6,1.1,1.2,2.3,1.8,3.3
				c4.4,7.1,11.7,14.9,23.3,20.3c3,1.4,6.2,2.5,9.4,3.4c5.4,1.4,11,1.9,16.5,1.6c1.3-2.7,3.4-6.1,6.7-8.3
				C329.1,330.8,329,330,329.1,329.2z"/>
		</g>
		<path class="st3" d="M365.6,316.4c-0.3-0.1-0.5-0.3-0.6-0.6c-0.1-0.3-0.1-0.6,0-0.8l11.4-28.6c0.1-0.3,0.3-0.5,0.6-0.6
			c0.3-0.1,0.6-0.1,0.8,0c2.8,1.1,5,3.3,6.2,6c1.2,2.7,1.2,5.8,0.1,8.6l-3.9,9.8c-1.1,2.8-3.3,5-6,6.2
			C371.5,317.4,368.4,317.5,365.6,316.4z"/>
		<path class="st2" d="M369.7,317.4c-1.4,0-2.9-0.3-4.2-0.8c-0.2-0.1-0.3-0.2-0.4-0.3c-0.1-0.1-0.2-0.3-0.3-0.4
			c-0.1-0.2-0.1-0.3-0.1-0.5c0-0.2,0-0.3,0.1-0.5l11.4-28.6c0.1-0.2,0.2-0.3,0.3-0.4c0.1-0.1,0.3-0.2,0.4-0.3
			c0.2-0.1,0.3-0.1,0.5-0.1c0.2,0,0.3,0,0.5,0.1c1.4,0.6,2.7,1.4,3.8,2.4c1.1,1,1.9,2.3,2.5,3.7c0.6,1.4,0.9,2.9,0.9,4.4
			c0,1.5-0.3,3-0.8,4.4l-3.9,9.8c-0.9,2.1-2.3,4-4.2,5.3C374.3,316.7,372,317.4,369.7,317.4z M365.7,316.1c2.7,1.1,5.7,1,8.4-0.1
			c2.7-1.2,4.8-3.3,5.9-6l3.9-9.8c1.1-2.7,1-5.7-0.1-8.4c-1.2-2.7-3.3-4.8-6-5.9c-0.1,0-0.2-0.1-0.3-0.1c-0.1,0-0.2,0-0.3,0.1
			c-0.1,0-0.2,0.1-0.3,0.2c-0.1,0.1-0.1,0.2-0.2,0.3l-11.4,28.6c0,0.1-0.1,0.2-0.1,0.3c0,0.1,0,0.2,0.1,0.3c0,0.1,0.1,0.2,0.2,0.3
			C365.5,316,365.6,316.1,365.7,316.1L365.7,316.1z"/>
		<g class="st4">
			<path class="st5" d="M382,305.5l-1.8,4.6c-1.1,2.8-3.3,5-6,6.2c-2.7,1.2-5.8,1.2-8.6,0.1c-0.1-0.1-0.2-0.1-0.4-0.2
				c-0.1-0.1-0.2-0.2-0.2-0.3c-0.1-0.1-0.1-0.3-0.1-0.4c0-0.1,0-0.3,0.1-0.4l3-7.6c0,0.2,0.1,0.4,0.2,0.6c0.1,0.2,0.3,0.3,0.5,0.4
				l0.7,0.3c2.2,0.9,4.5,1,6.8,0.5C378.4,308.5,380.5,307.3,382,305.5z"/>
		</g>
		<path class="st2" d="M369.7,318.8c-1.6,0-3.2-0.3-4.8-0.9c-0.7-0.3-1.2-0.8-1.5-1.5c-0.3-0.7-0.3-1.4,0-2.1l11.4-28.6
			c0.1-0.3,0.3-0.6,0.6-0.9c0.3-0.3,0.6-0.5,0.9-0.6c0.3-0.1,0.7-0.2,1.1-0.2s0.7,0.1,1.1,0.2c1.6,0.6,3,1.6,4.2,2.7
			c1.2,1.2,2.2,2.6,2.9,4.1c0.7,1.6,1,3.2,1.1,4.9c0,1.7-0.3,3.4-0.9,5l-3.9,9.8c-1,2.4-2.6,4.5-4.8,5.9
			C374.9,318.1,372.3,318.8,369.7,318.8z M366.8,315c2.3,0.7,4.8,0.6,7-0.4c2.2-1,3.9-2.9,4.8-5.1l3.9-9.8c0.9-2.2,0.9-4.8,0-7
			c-0.9-2.3-2.6-4.1-4.8-5.1L366.8,315z"/>
		<path class="st3" d="M283.3,248.2c0.3,0.1,0.5,0.3,0.6,0.6c0.1,0.3,0.1,0.6,0,0.8l-11.4,28.6c-0.1,0.1-0.1,0.2-0.2,0.4
			c-0.1,0.1-0.2,0.2-0.3,0.2c-0.1,0.1-0.3,0.1-0.4,0.1c-0.1,0-0.3,0-0.4-0.1c-2.8-1.1-5-3.3-6.2-6c-1.2-2.7-1.2-5.8-0.1-8.6l3.9-9.8
			c1.1-2.8,3.3-5,6-6.2C277.5,247.2,280.6,247.1,283.3,248.2z"/>
		<path class="st2" d="M271.6,279.1c-0.2,0-0.3,0-0.5-0.1c-2.8-1.1-5.1-3.3-6.3-6.1c-1.2-2.8-1.2-5.9-0.1-8.8l3.9-9.8
			c1.1-2.8,3.3-5.1,6.1-6.3c2.8-1.2,5.9-1.2,8.8-0.1c0.2,0.1,0.3,0.2,0.4,0.3c0.1,0.1,0.2,0.3,0.3,0.4c0.1,0.2,0.1,0.3,0.1,0.5
			c0,0.2,0,0.3-0.1,0.5l-11.4,28.6c-0.1,0.2-0.3,0.5-0.5,0.6C272.1,279.1,271.8,279.1,271.6,279.1z M279.2,247.7
			c-2.2,0-4.3,0.7-6.2,1.9c-1.8,1.2-3.2,3-4,5l-3.9,9.8c-1.1,2.7-1,5.7,0.1,8.4c1.2,2.7,3.3,4.8,6,5.9c0.2,0.1,0.4,0.1,0.6,0
			c0.2-0.1,0.4-0.2,0.4-0.5l11.4-28.6c0.1-0.2,0.1-0.4,0-0.6s-0.2-0.4-0.4-0.4C282,247.9,280.6,247.7,279.2,247.7L279.2,247.7z"/>
		<g class="st4">
			<path class="st5" d="M275.7,270.3l-3.2,7.9c-0.1,0.3-0.3,0.5-0.6,0.6c-0.3,0.1-0.6,0.1-0.8,0c-2.8-1.1-5-3.3-6.2-6
				c-1.2-2.7-1.2-5.8-0.1-8.6l1.6-4.1c0.1,2.2,0.8,4.2,2.1,6c1.3,1.8,3,3.1,5,3.9l1,0.4c0.2,0.1,0.4,0.1,0.6,0.1
				C275.4,270.5,275.6,270.4,275.7,270.3z"/>
		</g>
		<path class="st2" d="M271.6,280.6c-0.3,0-0.7-0.1-1-0.2c-1.6-0.6-3-1.6-4.2-2.7s-2.2-2.6-2.9-4.1c-0.7-1.6-1-3.2-1.1-4.9
			c0-1.7,0.3-3.4,0.9-5l3.9-9.8c1.3-3.2,3.7-5.7,6.9-7.1c3.1-1.4,6.7-1.4,9.9-0.1c0.3,0.1,0.6,0.3,0.9,0.6c0.3,0.3,0.5,0.6,0.6,0.9
			c0.1,0.3,0.2,0.7,0.2,1.1c0,0.4-0.1,0.7-0.2,1.1l-11.4,28.6c-0.2,0.5-0.6,1-1,1.3C272.7,280.4,272.1,280.6,271.6,280.6z
			 M279.2,249.1c-1.9,0-3.8,0.6-5.4,1.6c-1.6,1.1-2.8,2.6-3.5,4.4l-3.9,9.8c-0.9,2.2-0.9,4.8,0,7c0.9,2.3,2.6,4.1,4.8,5.1l10.9-27.4
			C281.2,249.3,280.2,249.1,279.2,249.1z"/>
		<path class="st3" d="M324.5,334.8c29,0,52.5-23.5,52.5-52.5s-23.5-52.5-52.5-52.5c-29,0-52.5,23.5-52.5,52.5
			S295.5,334.8,324.5,334.8z"/>
		<path class="st2" d="M324.4,335c-7.9,0-15.7-1.8-22.9-5.3c-12.7-6.1-22.2-16.8-26.9-30.1c-4.6-13.3-3.8-27.6,2.3-40.3
			c6.1-12.7,16.8-22.2,30.1-26.9c13.3-4.6,27.6-3.8,40.3,2.3c26.2,12.6,37.2,44.2,24.6,70.4c-6.1,12.7-16.8,22.2-30.1,26.9
			C336.3,334,330.4,335,324.4,335z M324.5,230c-5.9,0-11.7,1-17.3,2.9c-13.2,4.6-23.8,14-29.8,26.6c-3,6.2-4.7,12.9-5.1,19.7
			s0.6,13.7,2.8,20.2c2.3,6.5,5.8,12.4,10.3,17.6c4.6,5.1,10.1,9.3,16.3,12.3c12.6,6.1,26.7,6.9,39.9,2.3
			c13.2-4.6,23.8-14,29.8-26.6l0.2,0.1l-0.2-0.1c12.5-25.9,1.6-57.2-24.3-69.7C340.1,231.8,332.4,230,324.5,230L324.5,230z"/>
		<g class="st4">
			<path class="st5" d="M374.4,298.3c-0.7,2.3-1.6,4.6-2.7,6.8c-12.6,26.1-44,37.1-70.1,24.5c-26.1-12.6-37-43.9-24.5-70
				c0.4-0.8,0.7-1.5,1.1-2.2c-7.9,24.5,3.3,51.8,27.2,63.3C330.9,332.8,361.2,322.8,374.4,298.3z"/>
		</g>
		<path class="st2" d="M324.4,336.9c-8.2,0-16.3-1.9-23.7-5.4c-13.1-6.3-23-17.4-27.8-31.1c-4.8-13.8-4-28.6,2.4-41.7
			c6.3-13.1,17.4-23,31.1-27.8c13.8-4.8,28.6-4,41.7,2.4c27.1,13.1,38.5,45.7,25.4,72.8c-6.3,13.1-17.4,23-31.1,27.8
			C336.7,335.8,330.6,336.9,324.4,336.9z M324.5,231.9c-11.4,0-22.5,3.9-31.4,11c-8.9,7.1-15.2,17-17.7,28.2
			c-2.5,11.1-1.2,22.8,3.7,33.1c4.9,10.3,13.2,18.6,23.5,23.6c25,12.1,55.2,1.5,67.3-23.5c12.1-25,1.5-55.2-23.5-67.3
			C339.6,233.6,332.1,231.9,324.5,231.9L324.5,231.9z"/>
		<path class="st2" d="M371,306.2c-4.3,9.3-11.3,16.6-19.8,21.3c-6.4,3.6-26.7,5.6-46.4-3.4c-18.3-8.3-30.4-25.7-31.8-32.9
			c-1.8-9.6-0.9-19.6,3.5-28.9c11.4-24.6,37.3-25,63.5-12.9C366,261.5,382.4,281.6,371,306.2z"/>
		<path class="st2" d="M334.2,332c-8.6,0-19.3-1.7-30-6.6c-19-8.6-31.1-26.4-32.6-33.9c-2-10.2-0.7-20.5,3.6-29.8
			c5.6-12.1,14.8-19.2,27.3-21c10.9-1.6,24,1,38,7.4c14,6.5,24.4,14.9,30.2,24.2c6.6,10.7,7.2,22.3,1.6,34.4
			c-4.3,9.3-11.4,16.9-20.4,21.9C348.8,330.5,342.4,332,334.2,332z M308.9,243c-12,0-24.1,4.6-31.2,19.9c-4.1,8.7-5.2,18.5-3.4,28.1
			c1.3,6.8,13.1,23.8,31,31.9c19.8,9,39.5,6.6,45.2,3.4c8.5-4.8,15.2-11.9,19.3-20.7c14.1-30.3-16.6-48.5-30.5-55
			C332.4,247.5,320.7,243,308.9,243L308.9,243z"/>
		<g class="st6">
			<path class="st7" d="M362.7,299.6c3-4.2,2.9-9.3-0.2-11.5c-3-2.1-7.9-0.5-10.8,3.7c-3,4.2-2.9,9.3,0.2,11.5
				C354.9,305.5,359.7,303.8,362.7,299.6z"/>
		</g>
		<g class="st6">
			<path class="st7" d="M344.6,311.5c1.6-1.7,1.7-4.2,0.2-5.6c-1.5-1.4-4-1.1-5.6,0.6c-1.6,1.7-1.7,4.2-0.2,5.6
				C340.5,313.5,343,313.2,344.6,311.5z"/>
		</g>
		<g class="st4">
			<path class="st8" d="M372.5,279c3.2,8.2,3.1,17.4-1.5,27.3c-4.3,9.3-11.4,16.6-19.8,21.3c-6.4,3.6-26.7,5.6-46.4-3.4
				c-7-3.2-13-7.6-18-12.4c24.5,10.5,49.3,8,57.2,3.5c10.8-6,19.7-15.2,25.2-27.1C370.5,285.3,371.7,282.2,372.5,279z"/>
		</g>
		<path class="st2" d="M377,284.5c-0.3,0-0.6-0.1-0.8-0.2c-0.3-0.1-0.5-0.3-0.6-0.6c-0.1-0.1-0.1-0.2-0.2-0.3l-0.1-0.2l0-0.2
			c-2.8-14.8-15.2-28.4-34.1-37.1c-19-8.8-37.4-9.3-50.6-1.5l-0.2,0.1c-0.4,0.2-0.9,0.2-1.3,0.1c-0.4-0.1-0.8-0.4-1-0.8
			c-0.2-0.4-0.2-0.9-0.1-1.3c0.1-0.4,0.4-0.8,0.8-1l0,0c14.2-8.5,33.8-8,53.8,1.3c19.9,9.2,33,23.6,36,39.5c0.1,0.3,0.1,0.5,0,0.8
			c-0.1,0.3-0.2,0.5-0.3,0.7c-0.2,0.2-0.4,0.4-0.6,0.5C377.5,284.4,377.2,284.5,377,284.5L377,284.5z"/>
		<g class="st6">
			<path class="st7" d="M280.2,281.9c0,0,3.6-27.9,21.2-31.5c17.6-3.6,36.4,5.2,35.4,6.2c0,0-23.2-4.6-39,8.1
				C285.7,274.5,280.2,281.9,280.2,281.9z"/>
		</g>
		<path class="st2" d="M234.2,297.8c-0.6,0-1,0-1,0c-0.5,0-0.9-0.3-1.2-0.6c-0.3-0.3-0.4-0.8-0.4-1.3c0-0.5,0.2-0.9,0.6-1.2
			c0.3-0.3,0.8-0.5,1.3-0.4c0.7,0.1,18,1.1,23-14.3c0.2-0.4,0.5-0.7,0.9-0.9c0.4-0.2,0.9-0.2,1.3-0.1c0.4,0.1,0.8,0.4,1,0.8
			c0.2,0.4,0.3,0.8,0.2,1.3C254.7,296.8,238.5,297.8,234.2,297.8z"/>
		<path class="st9" d="M271.4,174.2l-7.1,12.4c-2.7,4.7,0.7,10.5,6.1,10.5h12.5c5.4,0,8.8-5.8,6.1-10.5l-7.1-12.4
			C279.4,170.2,273.7,170.2,271.4,174.2z"/>
		<g class="st10">
			<path class="st11" d="M271.4,174.2l-7.1,12.4c-2.7,4.7,0.7,10.5,6.1,10.5h12.5c5.4,0,8.8-5.8,6.1-10.5l-7.1-12.4
				C279.4,170.2,273.7,170.2,271.4,174.2z"/>
		</g>
		<path class="st2" d="M282.8,199.2h-12.5c-1.6,0-3.2-0.4-4.6-1.2c-1.4-0.8-2.5-2-3.3-3.4c-0.8-1.4-1.2-3-1.2-4.6
			c0-1.6,0.4-3.2,1.2-4.6l7.1-12.4c0.7-1.2,1.7-2.3,3-3c1.2-0.7,2.6-1.1,4-1.1c1.4,0,2.8,0.4,4,1.1c1.2,0.7,2.3,1.7,3,3l7.1,12.4
			c0.8,1.4,1.2,3,1.2,4.6s-0.4,3.2-1.2,4.6c-0.8,1.4-2,2.5-3.3,3.4C286,198.8,284.4,199.2,282.8,199.2L282.8,199.2z M276.6,173.3
			c-0.7,0-1.3,0.2-1.9,0.5c-0.6,0.3-1.1,0.8-1.4,1.4l-7.1,12.4c-0.4,0.7-0.7,1.6-0.7,2.4s0.2,1.7,0.7,2.4c0.4,0.7,1,1.4,1.8,1.8
			c0.7,0.4,1.6,0.7,2.4,0.7h12.5c0.9,0,1.7-0.2,2.4-0.7c0.7-0.4,1.4-1,1.8-1.8c0.4-0.7,0.7-1.6,0.7-2.4c0-0.9-0.2-1.7-0.7-2.4
			l-7.1-12.4c-0.3-0.6-0.8-1.1-1.4-1.4C277.9,173.5,277.2,173.3,276.6,173.3z"/>
		<path class="st9" d="M363.1,98.7c-0.8,8.3-2.8,16.5-5.9,24.3c-7.9,19.6-23.1,36.3-43.9,45.7c-20.8,9.4-43.4,9.8-63.4,2.8
			c-7.8-2.8-15.3-6.7-22-11.6c20.9-5.3,45.1-13.7,70.1-25C323,123.4,345.3,110.9,363.1,98.7z"/>
		<path class="st12" d="M298,134.7c25-11.3,47.3-23.8,65.1-36.1c-0.3,3.5-0.8,6.9-1.6,10.3c-13.7,9.9-35.5,22.2-60.9,33.7
			c-24.3,11-47,19.1-63.4,23c-3.2-1.8-6.3-3.7-9.3-5.9C248.8,154.5,273,146,298,134.7z"/>
		<path class="st9" d="M359.6,65.7c-13.9,11.2-41.2,26.9-74,41.7c-32.7,14.8-62.6,25-80.1,28c-1.8-3-3.5-6.2-5-9.4
			c-0.1-0.2-0.1-0.3-0.2-0.5c-0.6-1.4-1.2-2.9-1.8-4.4c-1.3-3.4-2.4-6.8-3.2-10.4c0-0.1-0.1-0.3-0.1-0.4c-3.5-14.7-3-30.1,1.5-44.5
			c2.1-6.9,5.1-13.6,8.9-19.7c8.9-14.5,21.9-25.9,37.4-32.9c1.6-0.7,3.2-1.4,4.8-2c21.7-8.3,44.9-7.1,64.8,1.7
			c0.1,0.1,0.3,0.1,0.4,0.2c8.7,3.9,16.7,9.2,23.7,15.8c3.5,3.3,6.6,6.8,9.5,10.6c0.3,0.4,0.6,0.8,0.9,1.3c0.3,0.3,0.5,0.7,0.8,1
			c2.1,3,4,6.1,5.7,9.3c0.6,1.2,1.2,2.4,1.8,3.7c0.2,0.3,0.3,0.7,0.5,1C357.3,59,358.5,62.4,359.6,65.7z"/>
		<path class="st12" d="M355.4,54.8c0.2,0.3,0.3,0.7,0.5,1c1.5,3.2,2.7,6.5,3.8,9.9c-13.9,11.2-41.2,26.9-74,41.7
			c-32.7,14.8-62.6,25-80.1,28c-1.9-3-3.5-6.2-5-9.4c-0.1-0.2-0.1-0.3-0.2-0.5c16.7-1.8,47.1-11.7,80.4-26.8
			C315.4,83.1,343.7,66.1,355.4,54.8z"/>
		<path class="st12" d="M194.2,97.1c-0.4,0-0.9,0-1.3,0l0.2-4.4c11.7,0.6,42.2-9.1,74.2-23.5c38.2-17.3,62.8-33.9,67.5-41.4l3.7,2.3
			c-5.9,9.5-34.5,27.2-69.4,43C237.1,87.6,207.4,97.1,194.2,97.1z"/>
		<path class="st12" d="M197,68.1l-0.6-4.3c13.1-1.9,35.8-9.7,59.3-20.4c24.6-11.1,45.8-23.4,55.5-32l2.9,3.3
			c-10,8.9-31.7,21.5-56.6,32.8C233.7,58.1,210.5,66.1,197,68.1z"/>
		<path class="st12" d="M195.3,112.6h-0.1l0-4.4h0.1c13.5,0,44.9-10.1,78.3-25.2c35.1-15.9,64.6-33.8,71.7-43.5l3.5,2.6
			c-7.6,10.5-37.2,28.5-73.5,44.9C241.5,102.4,209.4,112.6,195.3,112.6z"/>
		<path class="st12" d="M250,172.4l-0.1-1.1l-0.5-1l0.2-0.1l0.2,0c11.6-0.8,33.6-7.9,56.1-18.1c22.6-10.2,42-21.7,50.5-30l1.5,1.6
			c-8.7,8.4-28.2,20.1-51.1,30.4C283.8,164.5,262,171.5,250,172.4z"/>
		<path class="st2" d="M278.2,178.2c-18.5,0-36.6-5.9-51.6-16.8l-3.7-2.7l4.4-1.1c21.5-5.4,45.6-14,69.7-24.9
			c24.1-10.9,46.5-23.3,64.7-35.9l3.7-2.6l-0.4,4.5c-2.9,31.3-22.4,58.7-51,71.7C302.9,175.6,290.6,178.2,278.2,178.2z M233,160.7
			c23.6,15.3,53.7,17.6,79.4,6c25.8-11.7,43.9-35.8,48-63.6c-17.7,11.8-38.9,23.4-61.5,33.6C276.2,146.9,253.6,155.1,233,160.7z"/>
		<path class="st12" d="M360.8,44.7c0.1,0.2,0.1,0.4,0.2,0.6L360.8,44.7z"/>
		<path class="st13" d="M404.9,46.9C410,58.3,393,78,363.1,98.7c-17.8,12.2-40.1,24.8-65.1,36.1c-25,11.3-49.2,19.8-70.1,25
			c-35.3,8.9-61.3,8.6-66.5-2.8c-4.7-10.3,8.9-27.6,33.9-46.1c0.9,3.5,1.9,7,3.2,10.4c-6.9,5.6-10.3,10.1-9.1,12.7
			c1.2,2.7,7,3,16.1,1.5c17.6-3,47.4-13.2,80.1-28c32.7-14.8,60.1-30.5,73.9-41.7c7.2-5.8,10.7-10.4,9.5-13.1
			c-1.2-2.6-6.8-3-15.6-1.6c-1.7-3.2-3.6-6.3-5.7-9.3C378.3,35.4,400.2,36.6,404.9,46.9z"/>
		<path class="st14" d="M193.4,144.5c-6.6,0-11.6-1.4-13.2-5c-2.4-5.2,3-13.1,16-23.3l2,2.6c-16.2,12.9-15.6,18.1-15,19.4
			c2,4.5,17.9,4.8,48.9-4.6c17-5.2,36.3-12.5,55.7-21.3c19.4-8.8,37.7-18.4,52.8-27.8c27.5-17.1,37.8-29.2,35.7-33.7
			c-0.6-1.3-4.1-5.2-24.5-1.5l-0.6-3.2c16.3-2.9,25.7-1.8,28.1,3.4c4.6,10.1-21.2,28.1-37,37.9c-15.2,9.5-33.6,19.1-53.2,28
			s-39,16.3-56.1,21.5C221.7,140.2,205.1,144.5,193.4,144.5z"/>
		<path class="st14" d="M188.7,156c-9.3,0-16.9-1.9-19.3-7.4c-4.6-10.1,11.5-25.2,25.8-36l2,2.6c-18.3,13.9-27.6,25.9-24.8,32.1
			c1.7,3.7,7.9,5.6,17.6,5.4c10.1-0.2,23.7-2.5,39.5-6.9c19.4-5.3,41.2-13.4,63.1-23.3s42.3-21,59.2-32c13.7-9,24.5-17.6,31.2-25.1
			c6.5-7.2,9.2-13.1,7.5-16.8c-2.8-6.2-17.9-7.1-40.5-2.6l-0.7-3.2c17.6-3.6,39.5-5.7,44.1,4.4c6.2,13.7-25.9,36.8-40,46
			c-17,11.1-37.6,22.3-59.6,32.3c-22,10-44,18.1-63.6,23.5C220.5,151.7,202.7,156,188.7,156z"/>
		<path class="st2" d="M186.3,168.1c-14.4,0-23.7-3.5-26.8-10.3c-6.8-15,18.7-37,34.5-48.7l2.6-1.9l0.8,3.1
			c0.8,3.4,1.9,6.8,3.1,10.1l0.5,1.4l-1.2,1c-7.9,6.4-8.8,9.6-8.5,10.2c0.3,0.7,3.4,2,13.8,0.3c17.9-3.1,48.4-13.7,79.6-27.8
			c31.2-14.1,59.3-30,73.5-41.4c8.2-6.7,9.2-9.9,8.9-10.5c-0.3-0.7-3.3-2-13.3-0.3l-1.5,0.2l-0.7-1.4c-1.6-3.1-3.5-6.1-5.5-9
			l-1.8-2.6l3.1-0.7c19.3-4.1,52.6-8.8,59.4,6.2c5.5,12.2-10,32-42.5,54.4c-18.5,12.7-41.1,25.3-65.4,36.3s-48.6,19.7-70.4,25.2
			C211.7,166,197.4,168.1,186.3,168.1z M194.1,114.5c-23.1,17.6-34.5,33.1-30.7,41.6c4.4,9.8,29,10.4,64,1.6
			c21.5-5.4,45.6-14,69.7-24.9c24.1-10.9,46.5-23.3,64.7-35.9c29.8-20.5,45.5-39.3,41.1-49.1c-3.9-8.5-23-10.2-51.5-4.5
			c1.2,1.8,2.3,3.6,3.3,5.5c9.6-1.4,14.8-0.4,16.4,3c1.7,3.7-1.5,8.7-10.1,15.6c-14.6,11.8-42.4,27.5-74.4,42
			c-32,14.5-62.1,25-80.7,28.1c-10.9,1.9-16.7,1-18.4-2.7c-1.6-3.5,1.1-8,8.5-14.3C195.3,118.6,194.6,116.5,194.1,114.5L194.1,114.5
			z"/>
		<g class="st15">
			<path class="st16" d="M359.6,65.7c-1.6,1.3-3.4,2.7-5.4,4.1c-0.8-2.2-1.7-4.5-2.7-6.7c-0.2-0.3-0.3-0.7-0.5-1
				c-0.6-1.2-1.2-2.5-1.8-3.7c-1.7-3.2-3.6-6.3-5.6-9.3c-0.2-0.4-0.5-0.7-0.8-1c-3.1-4.3-6.6-8.2-10.4-11.9c-7-6.6-15.2-12-24-16
				c-21.4-9.5-46.6-10.1-69.6,0.3c-14.8,6.7-27.4,17.4-36.2,31c8.8-17,23.1-30.5,40.5-38.4c23-10.4,48.2-9.7,69.6-0.3
				c13.7,6.1,25.6,15.7,34.5,27.8c0.3,0.3,0.5,0.7,0.8,1.1c2.1,3,4,6,5.6,9.3c0.6,1.2,1.2,2.4,1.8,3.7c0.2,0.3,0.3,0.7,0.5,1
				C357.3,59,358.5,62.4,359.6,65.7z"/>
		</g>
		<path class="st2" d="M204.4,137.8l-0.8-1.2c-1.9-3.1-3.6-6.3-5.1-9.6c-0.7-1.6-1.4-3.3-2.1-4.9c-1.3-3.5-2.4-7-3.3-10.6
			c-9.8-40.7,10.7-82.7,48.9-100c38.2-17.3,83.4-5,107.4,29.3c2.1,3,4.1,6.2,5.8,9.5c0.8,1.6,1.6,3.2,2.4,4.8
			c1.5,3.3,2.8,6.7,3.9,10.2l0.4,1.4l-1.1,0.9c-14.6,11.8-42.4,27.5-74.4,42c-32,14.5-62.1,25-80.7,28.2L204.4,137.8z M278.1,7.8
			c-11.8,0-23.5,2.5-34.2,7.4c-36.3,16.4-55.9,56.5-46.6,95.1c0.8,3.4,1.9,6.8,3.1,10.1c0.6,1.6,1.3,3.1,2,4.7
			c1.2,2.7,2.6,5.4,4.1,7.9c18.1-3.4,47.8-13.8,78.2-27.6c30.4-13.7,57.9-29.1,72.4-40.5c-0.9-2.8-2-5.6-3.2-8.3
			c-0.7-1.6-1.5-3.1-2.2-4.6c-1.6-3.1-3.5-6.1-5.5-9C330.2,20.4,304.5,7.8,278.1,7.8z"/>
		<g class="st10">
			<path class="st11" d="M296.4,135.4c-24.5,11-48.1,19.2-68.5,24.3c-35.3,8.9-61.3,8.6-66.5-2.8c-4.7-10.3,8.9-27.6,33.9-46.1
				c0.9,3.5,1.9,7,3.2,10.4c-6.9,5.6-10.3,10.1-9.1,12.7c1.2,2.7,7,3,16.1,1.5c11.7-2,28.7-7.2,48.5-14.7c-0.5,2.6-0.3,4.9,0.7,7
				C258.5,136.2,274,138.5,296.4,135.4z"/>
		</g>
		<g class="st17">
			<path class="st18" d="M209.6,40.3c0.3-0.4,0.6-0.9,1-1.3C210.2,39.5,209.9,39.9,209.6,40.3z"/>
		</g>
		<g class="st17">
			<path class="st18" d="M211.7,37.6c0.7-0.9,1.5-1.9,2.3-2.8C213.3,35.7,212.5,36.6,211.7,37.6z"/>
		</g>
		<g class="st17">
			<path class="st18" d="M219.1,29.5c-0.8,0.8-1.6,1.6-2.4,2.5C217.4,31.1,218.2,30.3,219.1,29.5z"/>
		</g>
		<g class="st17">
			<path class="st18" d="M220.4,28.3c0.9-0.8,1.8-1.6,2.8-2.4C222.2,26.6,221.3,27.4,220.4,28.3z"/>
		</g>
		<g class="st17">
			<path class="st18" d="M226,23.5c-1,0.8-1.9,1.5-2.9,2.3C224.1,25,225,24.3,226,23.5z"/>
		</g>
		<g class="st10">
			<path class="st11" d="M363.1,98.7c-0.8,8.3-2.8,16.5-5.9,24.3c-7.9,19.6-23.1,36.3-43.9,45.7c-20.8,9.4-43.4,9.8-63.4,2.8
				c-7.8-2.8-15.3-6.7-22-11.6c20.9-5.3,45.1-13.7,70.1-25C323,123.4,345.3,110.9,363.1,98.7z"/>
		</g>
		<g class="st10">
			<path class="st11" d="M359.6,65.7c-13.9,11.2-41.2,26.9-74,41.7c-32.7,14.8-62.6,25-80.1,28c-1.9-3-3.5-6.2-5-9.4
				c-0.1-0.2-0.1-0.3-0.2-0.5c-0.6-1.4-1.3-2.9-1.8-4.4c-1.3-3.4-2.4-6.8-3.2-10.4c0-0.1-0.1-0.3-0.1-0.4
				c-1.2-5.1-1.9-10.3-2.2-15.6c-0.6-13.1,1.8-26.2,7.1-38.2c5.3-12,13.3-22.7,23.4-31.1c-2.1,2.6-3.9,5.3-5.7,8.1
				c-9,14.6-13.4,31.6-12.6,48.7c0.2,5.2,1,10.5,2.2,15.6c0,0.1,0.1,0.3,0.1,0.4l0.1,0.2c3.8,14.6,19,22.9,33.4,18.4
				c16.1-5,35.9-12.6,56.9-22.1c24.3-11,45.7-22.5,60.7-32.3C358.9,63.7,359.3,64.7,359.6,65.7z"/>
		</g>
		<path class="st2" d="M280.4,182.2L284,196c0.1,0.3,0.1,0.6,0,0.8c0,0.3-0.1,0.5-0.3,0.8c-0.1,0.2-0.3,0.5-0.6,0.6
			c-0.2,0.2-0.5,0.3-0.8,0.4c-0.3,0.1-0.6,0.1-0.8,0c-0.3,0-0.5-0.1-0.8-0.3c-0.2-0.1-0.5-0.3-0.6-0.6c-0.2-0.2-0.3-0.5-0.4-0.8
			c0-0.2-0.1-0.3-0.1-0.5l-0.3-14.3c0-0.1,0-0.2,0.1-0.3c0.1-0.1,0.2-0.2,0.3-0.2c0.1,0,0.2,0,0.3,0.1
			C280.3,181.9,280.3,182,280.4,182.2z"/>
		<path class="st2" d="M274.7,182.3l-0.3,14.3c0,0.3-0.1,0.6-0.2,0.8c-0.1,0.3-0.3,0.5-0.5,0.7c-0.2,0.2-0.4,0.3-0.7,0.5
			c-0.3,0.1-0.5,0.2-0.8,0.1c-0.3,0-0.6-0.1-0.8-0.2c-0.3-0.1-0.5-0.3-0.7-0.5c-0.2-0.2-0.3-0.4-0.4-0.7c-0.1-0.3-0.1-0.5-0.1-0.8
			c0-0.2,0-0.3,0.1-0.5l3.6-13.8c0-0.1,0.1-0.2,0.2-0.3c0.1-0.1,0.2-0.1,0.3-0.1c0.1,0,0.2,0.1,0.3,0.2
			C274.6,182.1,274.7,182.2,274.7,182.3z"/>
		<g class="st4">
			<path class="st5" d="M316.1,362.8c1-5.9,2.6-11.7,4.7-17.4c-0.9,3.2-1.6,6.4-2.1,9.6c-0.7,4-1.8,8-3.4,11.8
				C315.6,365.5,315.9,364.1,316.1,362.8z"/>
		</g>
		<path class="st3" d="M321.6,364.2c2.2-2.2,2.2-5.9,0-8.1c-2.2-2.2-5.9-2.2-8.1,0c-2.2,2.2-2.2,5.9,0,8.1
			C315.7,366.5,319.3,366.5,321.6,364.2z"/>
		<g class="st4">
			<path class="st5" d="M323,362c-0.2,0.7-0.6,1.4-1.1,1.9s-1.1,1-1.8,1.4c-0.7,0.3-1.4,0.5-2.2,0.6c-0.8,0.1-1.5,0-2.2-0.3
				c-0.7-0.2-1.4-0.6-1.9-1.1s-1-1.1-1.4-1.8c-0.3-0.7-0.5-1.4-0.6-2.2c-0.1-0.8,0-1.5,0.3-2.2c0.3-0.8,0.7-1.5,1.3-2.2
				c0.1,1.1,0.6,2.1,1.2,2.9c0.7,0.8,1.6,1.5,2.6,1.8c1,0.3,2.1,0.4,3.2,0.1c1.1-0.3,2-0.8,2.8-1.6C323.3,360.3,323.2,361.2,323,362
				z"/>
		</g>
		<path class="st2" d="M317.5,367.7c-1.8,0-3.6-0.7-5-1.9c-1.4-1.2-2.3-2.9-2.5-4.7c-0.2-1.8,0.2-3.7,1.3-5.2c1.1-1.5,2.6-2.6,4.4-3
			c1.8-0.4,3.7-0.2,5.3,0.7c1.6,0.9,2.9,2.3,3.5,4s0.6,3.6-0.1,5.3c-0.7,1.7-2,3.1-3.6,3.9C319.8,367.4,318.7,367.7,317.5,367.7z
			 M317.5,356.2c-1,0-2,0.4-2.7,1.1c-0.7,0.7-1.2,1.6-1.3,2.6c-0.1,1,0.2,2,0.8,2.8c0.6,0.8,1.5,1.3,2.5,1.5c1,0.2,2-0.1,2.9-0.6
			c0.8-0.6,1.5-1.4,1.7-2.4c0.2-1,0.1-2-0.4-2.9c-0.5-0.9-1.3-1.6-2.2-1.9C318.4,356.2,317.9,356.2,317.5,356.2z"/>
		<path class="st3" d="M307.3,371.8l-29.3-7.9c-1.7-0.5-3.1-1.6-4-3.1c-0.9-1.5-1.1-3.3-0.6-5l4.2-15.6c0.4-1.5,1.3-2.7,2.5-3.6
			c1.2-0.9,2.7-1.3,4.2-1.2c0.4,0,0.9,0.1,1.3,0.2l29.3,7.9c1.7,0.5,3.1,1.6,4,3.1c0.9,1.5,1.1,3.3,0.6,5l-3.3,12.4l-0.9,3.2
			c-0.5,1.7-1.6,3.1-3.1,4S309,372.2,307.3,371.8z"/>
		<g class="st4">
			<path class="st5" d="M307.3,371.8l-29.3-7.9c-1.7-0.5-3.1-1.6-4-3.1c-0.9-1.5-1.1-3.3-0.6-5l4.2-15.6c0.4-1.5,1.3-2.7,2.5-3.6
				c1.2-0.9,2.7-1.3,4.2-1.2c1.4,1.6,2.2,2.6,2.2,2.6c-2,12.9-0.1,20.1,15.4,24.6c6.7,1.9,11.2,2.1,14.3,1.4l-0.9,3.2
				c-0.5,1.7-1.6,3.1-3.1,4C310.7,372,309,372.2,307.3,371.8z"/>
		</g>
		<path class="st2" d="M309,373.8c-0.7,0-1.5-0.1-2.2-0.3l-29.3-7.9c-2.1-0.6-3.9-2-5-3.9c-1.1-1.9-1.4-4.2-0.8-6.3l4.2-15.6
			c0.6-2.1,2-3.9,3.9-5c1.9-1.1,4.2-1.4,6.3-0.8l29.3,7.9c2.1,0.6,3.9,2,5,3.9c1.1,1.9,1.4,4.2,0.8,6.3l-4.2,15.6
			c-0.5,1.8-1.5,3.3-3,4.4C312.6,373.1,310.8,373.7,309,373.8z M278.4,362.2l29.3,7.9c1.2,0.3,2.5,0.2,3.6-0.5
			c1.1-0.6,1.9-1.7,2.2-2.9l4.2-15.6c0.3-1.2,0.2-2.5-0.5-3.6c-0.6-1.1-1.7-1.9-2.9-2.2l-29.3-7.9c-1.2-0.3-2.5-0.2-3.6,0.5
			c-1.1,0.6-1.9,1.7-2.2,2.9l-4.2,15.6c-0.3,1.2-0.2,2.5,0.5,3.6C276.1,361,277.2,361.8,278.4,362.2z"/>
		<path class="st3" d="M308.5,372c-0.4,0-0.8-0.1-1.2-0.2l-29.3-7.9c-1.2-0.3-2.3-1-3.1-1.9c-0.8-0.9-1.4-2.1-1.6-3.3
			c-0.2-0.9-0.1-1.9,0.1-2.8l1.9-6.9l0.6-2.3l1.7-6.4c0.5-1.7,1.6-3.1,3.1-4c1.5-0.9,3.3-1.1,5-0.6l6.3,1.7c-1.5-0.1-3,0.3-4.3,1.2
			c-1.2,0.9-2.1,2.2-2.6,3.6l-2.3,8.4l-1.9,7.2c-0.4,1.7-0.2,3.5,0.6,5c0.9,1.5,2.3,2.6,4,3.1L308.5,372z"/>
		<g class="st4">
			<path class="st5" d="M308.5,372c-0.4,0-0.8-0.1-1.2-0.2l-29.3-7.9c-1.7-0.5-3.1-1.6-4-3.1c-0.9-1.5-1.1-3.3-0.6-5l2.5-9.2
				c0.3,1.8,1.1,4.2,3.1,5c1.1,0.4,2.5-0.1,3.8-1l-1.9,7.2c-0.4,1.7-0.2,3.5,0.6,5c0.9,1.5,2.3,2.6,4,3.1L308.5,372z"/>
		</g>
		<path class="st2" d="M308.4,373.7c-0.5,0-1-0.1-1.6-0.3l-29.3-7.9c-2.1-0.6-3.9-2-5-3.9c-1.1-1.9-1.4-4.2-0.8-6.3l4.2-15.6
			c0.6-2.1,2-3.9,3.9-5c1.9-1.1,4.2-1.4,6.3-0.8l6.3,1.7l-0.6,3.4c-1.1-0.1-2.2,0.2-3.1,0.9c-0.9,0.6-1.6,1.6-1.9,2.7l-4.2,15.6
			c-0.3,1.2-0.2,2.5,0.5,3.6c0.6,1.1,1.7,1.9,2.9,2.3l23,6.2L308.4,373.7z M283.9,337.1c-1.1,0-2.1,0.3-2.9,1
			c-0.8,0.6-1.4,1.5-1.7,2.6l-4.2,15.6c-0.3,1.2-0.2,2.5,0.5,3.6c0.6,1.1,1.7,1.9,2.9,2.3l1.1,0.3c-0.7-1.6-0.8-3.5-0.3-5.2
			l4.2-15.6c0.4-1.6,1.4-3.1,2.6-4.1l-0.9-0.3C284.7,337.1,284.3,337.1,283.9,337.1z"/>
		<path class="st2" d="M298.2,370.2c-0.1,0-0.2,0-0.3,0c-0.1,0-0.3-0.1-0.4-0.2c-0.1-0.1-0.2-0.2-0.3-0.3c-0.1-0.1-0.1-0.3-0.1-0.4
			c0-0.1,0-0.3,0-0.4l2.8-9.6c0.2-0.5,0.4-1,0.8-1.4c0.4-0.4,0.9-0.7,1.4-0.8l3.5-1.1c0.2-0.1,0.4-0.2,0.5-0.3
			c0.1-0.2,0.3-0.3,0.3-0.5l3.5-12.9c0.1-0.3,0.2-0.5,0.5-0.6c0.2-0.1,0.5-0.2,0.8-0.1c0.3,0.1,0.5,0.2,0.6,0.5
			c0.1,0.2,0.2,0.5,0.1,0.8l-3.5,12.9c-0.1,0.5-0.4,1-0.8,1.4c-0.4,0.4-0.9,0.7-1.4,0.9l-3.5,1.1c-0.2,0.1-0.4,0.2-0.5,0.3
			c-0.1,0.1-0.3,0.3-0.3,0.5l-2.8,9.6c-0.1,0.2-0.2,0.4-0.4,0.5C298.6,370.2,298.4,370.2,298.2,370.2z"/>
		<path class="st3" d="M250.3,327.6c0,0-3.7,0.8-4.9,4c-0.4,1.1-0.6,2.2-0.4,3.4c0.1,1.1,0.5,2.2,1.2,3.2c0,0,7.2,9.8,29.5,15.9
			c0,0,7.5-3.7,2.5-10.1C278.2,343.9,257.1,340.3,250.3,327.6z"/>
		<g class="st4">
			<path class="st5" d="M275.6,354c-22.3-6.1-29.5-15.9-29.5-15.9s-2.2-2.9-0.7-6.8h0c0.2,0.8,0.5,1.6,1,2.3c0,0,6.5,8.9,26.6,15.1
				c2.4,0.7,5.1-0.2,6.4-2.4c0,0,0,0,0-0.1C281.3,351.2,275.6,354,275.6,354z"/>
		</g>
		<path class="st2" d="M274.9,355.3c-0.6,0-1.2-0.1-1.7-0.2c-21.1-6.2-28.1-15.6-28.4-16c-0.1-0.1-2.7-3.6-1-8.2
			c1.5-4.1,5.9-5.1,6.1-5.1l1.3-0.3l0.6,1.1c5.4,10.1,20.8,14.2,25.4,15.2c0.7,0.1,1.4,0.4,2,0.9s1.1,1,1.4,1.6
			c1.8,3.3,1.2,6.7-1.7,9.4C277.8,354.8,276.4,355.3,274.9,355.3z M249.5,329.7c-0.9,0.4-2,1.2-2.4,2.5c-0.3,0.8-0.4,1.7-0.3,2.5
			c0.1,0.9,0.4,1.7,0.8,2.4c0.1,0.1,6.8,8.8,26.6,14.7c0.4,0.1,0.8,0.1,1.2,0.1s0.8-0.3,1.1-0.6c2.3-2.1,1.7-4,1-5.2
			c-0.1-0.2-0.3-0.4-0.4-0.5s-0.4-0.2-0.6-0.3C271.7,344.3,256.1,340.2,249.5,329.7z"/>
		<path class="st19" d="M294,353c-0.1,0.3-0.9,2.2-1.5,3.2c-0.1,0.2-0.3,0.4-0.5,0.5c-0.2,0.1-0.5,0.1-0.7,0.1l-1.8-0.5
			c-1.8-0.5-2.8-2.8-2.1-5.1c0.6-2.3,2.6-3.8,4.4-3.3l1.8,0.5c0.2,0.1,0.4,0.2,0.5,0.4c0.1,0.2,0.2,0.4,0.2,0.6
			C294.4,350.6,294.2,352.5,294,353z"/>
		<path class="st2" d="M292.4,357.9c-0.2,0-0.4,0-0.5-0.1l-1.8-0.5c-2.4-0.7-3.6-3.5-2.8-6.4c0.3-1.3,1.1-2.4,2.2-3.2
			c1.1-0.8,2.4-1.1,3.5-0.7l1.8,0.5c0.5,0.1,0.9,0.4,1.1,0.8c0.3,0.4,0.4,0.9,0.4,1.3c-0.3,3-0.4,3.5-0.5,3.7c0,0.1-0.1,0.5-1.5,3.4
			c-0.2,0.3-0.4,0.6-0.7,0.9C293.2,357.8,292.8,357.9,292.4,357.9z M291.9,348.9c-0.5,0-0.9,0.2-1.3,0.5c-0.7,0.5-1.2,1.3-1.4,2.1
			c-0.5,1.7,0.2,3.5,1.4,3.8l1.8,0.5c0.9-1.9,1.3-2.9,1.4-3c0.1-0.3,0.2-1.3,0.4-3.3l-1.8-0.5C292.2,348.9,292,348.9,291.9,348.9z"
			/>
		<path class="st19" d="M297.4,353.8c0.6-2.3-0.3-4.6-2.1-5.1c-1.8-0.5-3.8,1-4.4,3.3s0.3,4.6,2.1,5.1
			C294.7,357.6,296.7,356.1,297.4,353.8z"/>
		<path class="st2" d="M293.7,358.2c-0.3,0-0.7,0-1-0.1c-1.2-0.3-2.1-1.2-2.7-2.5c-0.5-1.2-0.6-2.6-0.2-3.9c0.8-2.9,3.4-4.6,5.7-4
			c1.2,0.3,2.1,1.2,2.7,2.5c0.5,1.2,0.6,2.6,0.2,3.9c-0.3,1.3-1.1,2.4-2.2,3.2C295.5,357.9,294.6,358.2,293.7,358.2z M294.5,349.6
			c-1.1,0-2.3,1.1-2.7,2.6c-0.2,0.8-0.2,1.7,0.1,2.5c0.3,0.7,0.7,1.1,1.3,1.3c0.6,0.2,1.2,0,1.8-0.4c0.7-0.5,1.2-1.3,1.4-2.1
			c0.2-0.8,0.2-1.7-0.1-2.5c-0.3-0.7-0.7-1.1-1.3-1.3C294.8,349.7,294.7,349.6,294.5,349.6z"/>
	</g>
</g>
<path class="st20" d="M56.7,262.3c-0.1,0.9,1.8,1.9,4.6,2.5c0.7,0.2,1.3,0.5,1.8,1.1s0.8,1.2,0.8,1.9c0.3,2.9,1,4.9,1.9,4.9
	c0.9,0.1,1.9-1.8,2.5-4.6c0.2-0.7,0.5-1.3,1.1-1.8c0.5-0.5,1.2-0.8,1.9-0.8c2.9-0.3,4.9-1,4.9-1.9c0.1-0.9-1.8-1.9-4.6-2.5
	c-0.7-0.2-1.3-0.5-1.8-1.1c-0.5-0.5-0.8-1.2-0.8-1.9c-0.3-2.9-1-4.9-1.9-4.9c-0.9-0.1-1.9,1.8-2.5,4.6c-0.2,0.7-0.5,1.3-1.1,1.8
	c-0.5,0.5-1.2,0.8-1.9,0.8C58.8,260.7,56.8,261.4,56.7,262.3z"/>
<path class="st21" d="M467.9,281L467.9,281c-1.5-0.6-2.6-1.2-3.3-1.7c-0.3-0.2-0.5-0.4-0.6-0.5c0.2-0.1,0.4-0.2,0.8-0.2
	c0.9-0.2,2.1-0.2,3.7-0.1l0,0c1,0.1,2.1-0.2,3-0.7s1.6-1.4,2-2.3l0,0c0.6-1.5,1.2-2.6,1.7-3.3c0.2-0.3,0.4-0.5,0.5-0.6
	c0.1,0.2,0.2,0.4,0.2,0.8c0.2,0.9,0.2,2.1,0.1,3.7c-0.1,1,0.2,2.1,0.7,3c0.6,0.9,1.4,1.6,2.3,2l0,0c1.5,0.6,2.6,1.2,3.3,1.7
	c0.3,0.2,0.5,0.4,0.6,0.5c-0.2,0.1-0.4,0.2-0.8,0.2c-0.9,0.2-2.2,0.2-3.7,0.1c-1-0.1-2.1,0.2-3,0.7c-0.9,0.6-1.6,1.4-2,2.3l0,0
	c-0.6,1.5-1.2,2.6-1.7,3.3c-0.2,0.3-0.4,0.5-0.5,0.6c-0.1-0.2-0.2-0.4-0.2-0.7c-0.2-0.9-0.2-2.1-0.1-3.7L467.9,281z M467.9,281
	c1,0.4,1.8,1.1,2.3,2 M467.9,281l2.3,2 M470.2,283c0.6,0.9,0.8,1.9,0.7,3L470.2,283z M471.4,290.6
	C471.4,290.6,471.4,290.6,471.4,290.6C471.4,290.6,471.4,290.6,471.4,290.6z M471.1,290.6C471.1,290.6,471.1,290.6,471.1,290.6
	C471.1,290.6,471.1,290.6,471.1,290.6z M483.2,283.1C483.2,283.1,483.2,283.1,483.2,283.1C483.2,283.1,483.2,283.1,483.2,283.1z
	 M483.1,283.4C483.1,283.4,483.1,283.4,483.1,283.4C483.1,283.4,483.1,283.4,483.1,283.4z M475.6,271.3
	C475.6,271.3,475.6,271.3,475.6,271.3C475.6,271.3,475.6,271.3,475.6,271.3z M475.9,271.3C475.9,271.3,475.9,271.3,475.9,271.3
	C475.9,271.3,475.9,271.3,475.9,271.3z M463.8,278.8C463.8,278.8,463.8,278.8,463.8,278.8C463.8,278.8,463.8,278.8,463.8,278.8z
	 M463.9,278.5C463.9,278.5,463.9,278.5,463.9,278.5C463.9,278.5,463.9,278.5,463.9,278.5z"/>
<path class="st22" d="M119,106.1c-1.7-0.8-2.4-2.9-1.6-4.6c0.8-1.7,2.9-2.4,4.6-1.6s2.4,2.9,1.6,4.6
	C122.8,106.2,120.7,106.9,119,106.1z"/>
<path class="st22" d="M415,88.1c-1.7-0.8-2.4-2.9-1.6-4.6c0.8-1.7,2.9-2.4,4.6-1.6s2.4,2.9,1.6,4.6C418.8,88.2,416.7,88.9,415,88.1z
	"/>
<path class="st22" d="M446.8,170.2c-1.1-0.5-1.6-1.9-1-3c0.5-1.1,1.9-1.6,3-1c1.1,0.5,1.6,1.9,1,3
	C449.2,170.3,447.9,170.7,446.8,170.2z"/>
<path class="st22" d="M67.8,201.3c-0.7-0.4-1-1.2-0.7-2s1.2-1,2-0.7c0.7,0.4,1,1.2,0.7,2C69.5,201.4,68.6,201.7,67.8,201.3z"/>
<path class="st23" d="M383,146.9c0.1-1.9,1.7-3.4,3.6-3.3c1.9,0.1,3.4,1.7,3.3,3.6c-0.1,1.9-1.7,3.4-3.6,3.3
	C384.5,150.4,383,148.8,383,146.9z"/>
</svg>
