<?xml version="1.0" encoding="utf-8"?>
<svg width="28" height="28" viewBox="0 0 28 28" style="enable-background:new 0 0 28 28;" xml:space="preserve" fill="none" xmlns="http://www.w3.org/2000/svg">
<path d="M20.8486 15.3794L20.8487 15.3794C22.7418 14.9952 24.2204 14.5194 25.1802 14.0347C25.5004 13.873 25.7292 13.7269 25.8858 13.6065C25.7199 13.5008 25.4799 13.376 25.1474 13.2439C24.1505 12.8481 22.6393 12.5097 20.7291 12.3017L20.7249 12.3012C19.4327 12.1568 18.2196 11.6062 17.2602 10.7285C16.3008 9.8508 15.6446 8.69136 15.3861 7.41702L15.386 7.41642C15.0027 5.52332 14.527 4.04313 14.0423 3.08254C13.8831 2.76701 13.7391 2.54037 13.62 2.38424C13.5147 2.55052 13.3908 2.78954 13.2595 3.11891C12.8617 4.11684 12.5184 5.62981 12.3022 7.54618C12.1575 8.83782 11.6066 10.0503 10.729 11.009C9.85103 11.9681 8.69138 12.6238 7.41698 12.8816L7.41548 12.8819C5.52555 13.2624 4.04799 13.7384 3.08879 14.2239C2.77 14.3853 2.54161 14.5312 2.38483 14.6519C2.55116 14.7569 2.79028 14.8804 3.11979 15.0114C4.12002 15.409 5.63562 15.7517 7.55118 15.9681L20.8486 15.3794ZM20.8486 15.3794C19.5756 15.638 18.4175 16.2935 17.5405 17.2516C16.6638 18.2095 16.1132 19.4206 15.9679 20.711C15.7512 22.6257 15.4079 24.1388 15.0101 25.1369C14.879 25.4657 14.7553 25.7043 14.6503 25.8703C14.5308 25.7142 14.3863 25.4872 14.2265 25.1708C13.7425 24.2124 13.2679 22.7364 12.8863 20.8497L12.8859 20.8478M20.8486 15.3794L12.8859 20.8478M12.8859 20.8478C12.6268 19.5749 11.9709 18.4169 11.0123 17.5402M12.8859 20.8478L11.0123 17.5402M11.0123 17.5402C10.0541 16.6637 8.84276 16.1134 7.55224 15.9683L11.0123 17.5402ZM2.11267 14.4363C2.11273 14.4363 2.11366 14.4374 2.11525 14.4397C2.1134 14.4374 2.1126 14.4363 2.11267 14.4363ZM2.13708 14.8874C2.13562 14.89 2.13474 14.8913 2.13466 14.8913C2.13459 14.8913 2.13532 14.89 2.13708 14.8874ZM13.8366 2.11195C13.8366 2.11202 13.8354 2.11298 13.8331 2.11461C13.8354 2.1127 13.8366 2.11188 13.8366 2.11195ZM13.3838 2.1336C13.3813 2.13222 13.3801 2.13139 13.3801 2.13132C13.3801 2.13125 13.3813 2.13195 13.3838 2.1336ZM26.1511 13.8188C26.151 13.8188 26.1502 13.8177 26.1488 13.8157C26.1504 13.8177 26.1511 13.8188 26.1511 13.8188ZM26.1306 13.3741C26.132 13.3716 26.1329 13.3704 26.133 13.3704C26.133 13.3703 26.1323 13.3716 26.1306 13.3741ZM14.4343 26.1421C14.4343 26.142 14.4354 26.1411 14.4377 26.1395C14.4354 26.1414 14.4343 26.1422 14.4343 26.1421ZM14.8857 26.1193C14.8882 26.1207 14.8895 26.1216 14.8895 26.1216C14.8895 26.1217 14.8882 26.121 14.8857 26.1193Z" stroke="#FFD527" stroke-width="3"/>
</svg>
