<?xml version="1.0" encoding="UTF-8"?>
<svg xmlns="http://www.w3.org/2000/svg" width="502" height="384" viewBox="0 0 502 384" fill="none">
  <path fill-rule="evenodd" clip-rule="evenodd" d="M80.077 304.826C93.8782 305.443 106.132 311.218 114.404 320.004C120.626 308.687 132.447 300.21 146.699 297.334C146.594 296.276 146.53 295.209 146.53 294.128C146.53 273.85 165.206 257.411 188.242 257.411C195.88 257.378 203.405 259.257 210.136 262.878C216.964 250.807 231.121 242.512 247.483 242.512C263.023 242.512 276.564 249.996 283.745 261.092C284.915 262.837 286.665 264.107 288.683 264.676L289.077 264.794C291.281 265.476 293.676 265.394 295.728 264.365C302.149 261.165 309.227 259.513 316.397 259.541C336.842 259.541 353.838 272.492 357.406 289.582C367.157 290.547 375.884 294.481 382.409 300.323C389.226 296.575 396.881 294.628 404.655 294.663C407.15 294.779 409.509 295.051 411.74 295.459C427.148 267.742 435.926 235.828 435.926 201.862C435.926 95.3336 349.606 8.97485 243.129 8.97485C136.652 8.97485 50.3323 95.3352 50.3323 201.862C50.3323 239.723 61.2378 275.034 80.077 304.826Z" fill="#299ADF" fill-opacity="0.1"></path>
  <path d="M386.41 50.7848C384.685 49.948 383.966 47.8717 384.802 46.1471C385.639 44.4226 387.715 43.7029 389.44 44.5396C391.164 45.3764 391.884 47.4527 391.047 49.1773C390.211 50.9018 388.134 51.6215 386.41 50.7848Z" fill="#8DD7FF"></path>
  <path d="M90.529 69.7508C88.8044 68.9141 88.0847 66.8378 88.9214 65.1132C89.7582 63.3887 91.8345 62.669 93.5591 63.5057C95.2836 64.3424 96.0033 66.4188 95.1666 68.1433C94.3298 69.8679 92.2535 70.5876 90.529 69.7508Z" fill="#8DD7FF"></path>
  <path d="M329.143 15.8434C328.13 15.4412 327.635 14.294 328.037 13.2811C328.439 12.2681 329.587 11.7731 330.6 12.1753C331.612 12.5775 332.108 13.7247 331.705 14.7376C331.303 15.7505 330.156 16.2456 329.143 15.8434Z" fill="#E0E0E0"></path>
  <path d="M97.6009 3.9916C96.7138 3.5612 96.3436 2.4932 96.774 1.60615C97.2044 0.719097 98.2724 0.348905 99.1595 0.779298C100.047 1.20969 100.417 2.27769 99.9863 3.16474C99.5559 4.05179 98.4879 4.42199 97.6009 3.9916Z" fill="#8DD7FF"></path>
  <path d="M355.063 109.664C355.126 107.757 356.722 106.262 358.629 106.324C360.536 106.387 362.031 107.983 361.969 109.89C361.906 111.797 360.31 113.293 358.403 113.23C356.496 113.168 355 111.571 355.063 109.664Z" fill="#E0E0E0"></path>
  <path d="M161.4 96.5625C160.011 96.4737 158.956 95.2756 159.045 93.8865C159.134 92.4974 160.332 91.4433 161.721 91.5321C163.11 91.6209 164.164 92.819 164.076 94.2081C163.987 95.5972 162.789 96.6513 161.4 96.5625Z" fill="#FFD527"></path>
  <path d="M40.3319 124.298C39.6174 124.253 39.0751 123.636 39.1208 122.922C39.1665 122.207 39.7827 121.665 40.4973 121.711C41.2118 121.756 41.754 122.373 41.7083 123.087C41.6626 123.802 41.0464 124.344 40.3319 124.298Z" fill="#8DD7FF"></path>
  <path d="M419.833 132.359C418.905 132.037 418.414 131.025 418.735 130.098C419.057 129.17 420.069 128.679 420.997 129C421.924 129.322 422.415 130.334 422.094 131.262C421.772 132.189 420.76 132.68 419.833 132.359Z" fill="#8DD7FF"></path>
  <path opacity="0.6" d="M257.043 383.736C392.329 383.736 502 380.925 502 377.457C502 373.988 392.329 371.177 257.043 371.177C121.756 371.177 12.0852 373.988 12.0852 377.457C12.0852 380.925 121.756 383.736 257.043 383.736Z" fill="#371A45"></path>
  <path d="M223.143 288.93H97.9924C86.7006 252.044 105.588 246.989 105.588 246.989H215.549C215.549 246.989 234.436 252.044 223.145 288.93H223.143Z" fill="white"></path>
  <g opacity="0.25">
    <path d="M223.143 288.93H207.534C191.25 284.839 177.568 278.538 197.324 278.544C224.451 278.557 218.889 256.079 215.535 246.989H215.548C215.548 246.989 234.435 252.044 223.143 288.93Z" fill="#371A45"></path>
  </g>
  <path d="M223.145 290.808H97.9949C97.1704 290.808 96.4418 290.27 96.1998 289.48C91.3868 273.762 91.2678 261.602 95.8464 253.339C99.5032 246.739 104.875 245.236 105.102 245.176C106.104 244.911 107.132 245.503 107.401 246.504C107.667 247.5 107.079 248.524 106.086 248.798C105.895 248.853 101.9 250.058 99.0577 255.289C96.3816 260.213 94.3189 269.697 99.3919 287.054H221.748C226.821 269.697 224.757 260.214 222.082 255.289C219.232 250.043 215.221 248.846 215.052 248.797C214.061 248.514 213.476 247.483 213.752 246.49C214.027 245.496 215.041 244.911 216.038 245.175C216.265 245.235 221.636 246.738 225.294 253.337C229.873 261.6 229.754 273.76 224.941 289.479C224.699 290.268 223.972 290.807 223.146 290.807L223.145 290.808Z" fill="#371A45"></path>
  <path d="M238.709 369.863C236.782 371.897 234.098 373.048 231.296 373.048H87.2012C84.3984 373.048 81.7147 371.897 79.7878 369.863C71.5548 361.162 66.8122 353.623 64.5357 347.392C64.5293 347.392 64.5293 347.386 64.5293 347.386C56.8277 326.359 77.0848 320.135 85.7249 333.873C85.7249 333.873 94.6403 324.407 112.782 319.403H205.715C223.856 324.408 232.772 333.873 232.772 333.873C243.97 316.063 274.706 331.809 238.709 369.863Z" fill="white"></path>
  <g opacity="0.25">
    <path d="M123.73 372.803C123.699 372.879 123.667 372.959 123.648 373.048H87.1998C84.3971 373.048 81.7134 371.897 79.7864 369.863C71.5534 361.162 66.8108 353.623 64.5343 347.392C79.3113 373.043 98.1293 364.972 88.5135 338.277C88.7453 338.809 96.2586 355.875 99.7989 357.878C103.396 359.911 107.306 354.437 107.306 354.437C107.306 354.437 125.761 367.869 123.728 372.804L123.73 372.803Z" fill="#371A45"></path>
  </g>
  <g opacity="0.25">
    <path d="M193.816 372.803C193.846 372.879 193.878 372.959 193.898 373.048H230.345C233.148 373.048 235.832 371.897 237.759 369.863C245.992 361.162 250.734 353.623 253.011 347.392C238.234 373.043 219.416 364.972 229.032 338.277C228.8 338.809 221.287 355.875 217.746 357.878C214.15 359.911 210.239 354.437 210.239 354.437C210.239 354.437 191.784 367.869 193.817 372.804L193.816 372.803Z" fill="#371A45"></path>
  </g>
  <path d="M85.6007 374.368C85.0527 374.368 84.4343 374.285 83.7377 374.09C82.9055 373.859 82.4189 372.996 82.652 372.163C82.8837 371.332 83.748 370.846 84.579 371.077C86.1897 371.527 86.4522 370.967 86.6084 370.632C89.0795 365.366 77.7301 339.788 68.9133 333.689C66.5548 332.057 65.7572 332.876 65.4575 333.184C64.8545 333.803 63.8647 333.817 63.245 333.214C62.6266 332.611 62.6125 331.621 63.2156 331.001C64.3154 329.873 66.7469 328.385 70.6931 331.115C79.5611 337.251 93.0142 364.341 89.4393 371.96C89.0616 372.765 88.0053 374.366 85.5994 374.366L85.6007 374.368Z" fill="#371A45"></path>
  <path d="M87.2716 332.811C90.9489 339.103 94.0411 345.668 96.6185 352.463C96.8848 353.19 95.8349 353.664 95.4738 352.967C92.2088 346.673 88.4291 340.586 84.1756 334.933C82.6187 332.809 85.8414 330.586 87.2703 332.81L87.2716 332.811Z" fill="#371A45"></path>
  <path d="M231.294 374.925H87.2012C83.8926 374.925 80.6929 373.548 78.4253 371.15C64.4153 356.338 58.4 342.395 61.9223 332.893C63.6291 328.291 67.5151 325.247 72.3191 324.75C77.3844 324.227 82.4637 326.6 86.0066 331.033C89.4111 328.052 98.0781 321.51 112.282 317.592C113.284 317.317 114.315 317.905 114.59 318.902C114.865 319.901 114.279 320.934 113.28 321.211C95.9258 325.998 87.1743 335.07 87.0885 335.161C86.689 335.582 86.1167 335.797 85.5405 335.738C84.963 335.682 84.4445 335.362 84.1359 334.871C81.3792 330.487 77.0003 328.039 72.7058 328.484C69.3064 328.836 66.6585 330.918 65.4421 334.198C64.0196 338.035 62.7021 349.065 81.1526 368.57C82.7147 370.223 84.9195 371.171 87.2012 371.171H231.294C233.576 371.171 235.781 370.223 237.344 368.57C255.795 349.066 254.477 338.035 253.055 334.198C251.838 330.918 249.19 328.836 245.791 328.484C241.496 328.043 237.117 330.487 234.361 334.871C234.052 335.363 233.532 335.684 232.954 335.741C232.375 335.795 231.804 335.582 231.406 335.159C231.321 335.071 222.57 326 205.215 321.212C204.216 320.937 203.629 319.904 203.905 318.904C204.182 317.905 205.214 317.317 206.214 317.594C220.417 321.512 229.084 328.052 232.489 331.034C236.032 326.601 241.11 324.233 246.176 324.751C250.98 325.248 254.866 328.293 256.573 332.894C260.095 342.395 254.08 356.34 240.07 371.151C237.801 373.55 234.603 374.926 231.293 374.926L231.294 374.925Z" fill="#371A45"></path>
  <path d="M232.895 374.368C230.488 374.368 229.432 372.767 229.055 371.962C225.48 364.343 238.933 337.254 247.801 331.117C251.747 328.386 254.18 329.874 255.279 331.003C255.88 331.622 255.867 332.613 255.249 333.216C254.631 333.819 253.64 333.805 253.037 333.186C252.737 332.876 251.939 332.061 249.581 333.691C240.765 339.791 229.415 365.368 231.886 370.634C232.042 370.968 232.303 371.528 233.915 371.08C234.746 370.847 235.609 371.333 235.842 372.165C236.074 372.998 235.589 373.861 234.756 374.092C234.06 374.287 233.441 374.37 232.893 374.37L232.895 374.368Z" fill="#371A45"></path>
  <path d="M234.32 334.934C230.066 340.588 226.285 346.675 223.02 352.971C222.671 353.655 221.599 353.188 221.877 352.463C223.789 347.389 226.037 342.423 228.558 337.613C229.407 335.997 230.263 334.423 231.224 332.81C231.755 331.918 232.909 331.624 233.801 332.156C234.772 332.724 235.018 334.055 234.319 334.933L234.32 334.934Z" fill="#371A45"></path>
  <path d="M284.352 305.314C276.376 316.562 247.442 309.862 247.442 309.862C232.897 314.553 217.676 312.127 217.676 312.127C217.676 312.127 205.526 316.807 189.5 322.812C159.677 333.991 116.436 349.763 113.045 348.542C107.827 346.665 88.6467 333.741 90.1038 308.091C91.5609 282.441 121.915 262.016 121.915 262.016H192.908C195.893 264.118 198.945 266.169 202.092 268.122C215.005 276.142 229.406 282.479 246.266 283.512C250.645 281.323 257.063 276.55 261.518 277.488C265.972 278.427 262.925 288.279 262.925 288.279C272.272 287.003 280.141 288.823 284.101 292.558C287.429 295.693 287.993 300.178 284.351 305.315L284.352 305.314Z" fill="white"></path>
  <g opacity="0.25">
    <path d="M202.092 268.122C156.848 293.421 123.729 264.712 123.729 264.712L126.951 262.016H192.908C195.893 264.118 198.945 266.169 202.092 268.122Z" fill="#371A45"></path>
  </g>
  <g opacity="0.25">
    <path d="M123.219 277.181C123.219 277.181 119.741 294.17 134.521 293.649L121.304 295.63L109.731 296.125C109.731 296.125 113.402 284.773 123.219 277.181Z" fill="#371A45"></path>
  </g>
  <g opacity="0.25">
    <path d="M284.352 305.313C276.376 316.562 247.443 309.861 247.443 309.861C232.897 314.553 217.676 312.126 217.676 312.126C217.676 312.126 205.526 316.806 189.5 322.811C171.501 316.518 157.275 308.791 171.588 308.611C196.456 308.298 193.922 277.181 193.922 277.181L196.688 285.62C208.387 303.812 246.71 300.753 246.71 300.753C280.717 309.443 283.952 296.892 284.103 292.557C287.431 295.691 287.994 300.177 284.352 305.313Z" fill="#371A45"></path>
  </g>
  <path d="M113.516 350.499C112.928 350.499 112.649 350.398 112.407 350.31C107.238 348.45 86.689 335.069 88.2305 307.982C89.726 281.706 119.599 261.315 120.87 260.46C121.73 259.881 122.896 260.109 123.475 260.97C124.053 261.829 123.826 262.995 122.966 263.574C122.671 263.774 93.3675 283.789 91.9783 308.196C90.5788 332.79 108.745 344.916 113.568 346.738C113.612 346.741 113.659 346.742 113.709 346.742C120.167 346.742 180.201 324.549 217.004 310.374C217.312 310.255 217.648 310.221 217.973 310.271C218.12 310.296 232.943 312.568 246.866 308.077C247.189 307.973 247.536 307.959 247.865 308.034C255.576 309.818 276.884 312.605 282.821 304.23C284.439 301.947 285.977 298.58 284.11 295.501C281.404 291.032 272.794 288.83 263.179 290.14C262.545 290.229 261.908 289.982 261.494 289.494C261.079 289.005 260.943 288.338 261.132 287.726C261.878 285.305 262.529 281.218 261.643 279.713C261.487 279.448 261.331 279.369 261.131 279.327C258.427 278.754 254.076 281.26 250.582 283.272C249.35 283.981 248.188 284.651 247.108 285.19C246.813 285.337 246.486 285.405 246.154 285.384C223.511 283.999 205.228 272.99 191.83 263.555C190.982 262.958 190.779 261.788 191.377 260.94C191.973 260.093 193.145 259.892 193.991 260.487C206.882 269.566 224.403 280.145 245.874 281.606C246.742 281.153 247.702 280.599 248.709 280.019C252.967 277.566 257.793 274.79 261.905 275.653C263.179 275.921 264.208 276.667 264.88 277.812C266.219 280.09 265.885 283.633 265.394 286.131C275.6 285.336 284.04 288.142 287.322 293.557C289.601 297.319 289.09 301.881 285.884 306.403C277.793 317.814 251.652 312.698 247.528 311.808C234.208 315.961 220.705 314.442 217.892 314.056C214.375 315.407 191.304 324.257 167.959 332.805C125.499 348.353 116.226 350.503 113.514 350.503L113.516 350.499Z" fill="#371A45"></path>
  <path d="M235.243 198.011C235.243 225.419 220.492 249.379 198.489 262.379C187.36 268.96 174.378 272.739 160.509 272.739C119.238 272.739 85.7749 239.282 85.7749 198.011C85.7749 156.74 119.238 123.277 160.509 123.277C196.018 123.277 225.74 148.039 233.353 181.233V181.239C234.591 186.632 235.243 192.243 235.243 198.011Z" fill="white"></path>
  <g opacity="0.25">
    <path d="M235.243 198.011C235.243 225.42 220.492 249.38 198.489 262.379C187.36 268.961 174.378 272.739 160.509 272.739C119.238 272.739 85.7749 239.282 85.7749 198.011C85.7749 197.036 85.7941 196.06 85.8376 195.096C87.3639 235.015 120.215 266.902 160.509 266.902C174.378 266.902 187.36 263.123 198.489 256.542C219.709 244.005 234.18 221.278 235.187 195.09C235.224 196.059 235.243 197.036 235.243 198.011Z" fill="#371A45"></path>
  </g>
  <path d="M235.243 198.012C235.243 225.42 220.492 249.38 198.489 262.38L193.122 258.457L160.509 259.92L154.121 264.713C109.497 252.413 98.4431 218.005 98.4431 218.005L102.666 186.112C148.485 140.224 216.688 157.171 233.353 181.232V181.239C234.591 186.632 235.243 192.242 235.243 198.01V198.012Z" fill="#371A45"></path>
  <g opacity="0.35">
    <path d="M235.243 198.011C235.243 225.42 220.492 249.38 198.489 262.379L193.122 258.456L160.509 259.92L154.121 264.712C109.497 252.413 98.4431 218.005 98.4431 218.005L99.2254 212.087C111.575 235.277 135.548 251.006 163.093 251.006C198.94 251.006 228.731 224.362 234.742 189.302C235.074 192.161 235.243 195.064 235.243 198.01V198.011Z" fill="#101928"></path>
  </g>
  <path d="M160.509 274.619C118.266 274.619 83.899 240.252 83.899 198.009C83.899 155.766 118.267 121.399 160.509 121.399C202.75 121.399 237.119 155.766 237.119 198.009C237.119 240.252 202.752 274.619 160.509 274.619ZM160.509 125.152C120.337 125.152 87.6532 157.835 87.6532 198.008C87.6532 238.18 120.337 270.865 160.509 270.865C200.681 270.865 233.365 238.181 233.365 198.008C233.365 157.834 200.683 125.153 160.509 125.153V125.152Z" fill="#371A45"></path>
  <path d="M88.7736 221.809C98.059 221.809 105.586 211.586 105.586 198.974C105.586 186.363 98.059 176.14 88.7736 176.14C79.4881 176.14 71.9607 186.363 71.9607 198.974C71.9607 211.586 79.4881 221.809 88.7736 221.809Z" fill="white"></path>
  <g opacity="0.25">
    <path d="M105.588 198.974C105.588 211.586 98.0616 221.809 88.7774 221.809C82.2333 221.809 76.5599 216.734 73.7878 209.322C76.8288 213.439 81.0195 215.972 85.6494 215.972C94.9336 215.972 102.46 205.75 102.46 193.138C102.46 189.409 101.803 185.893 100.633 182.785C103.691 186.92 105.588 192.644 105.588 198.975V198.974Z" fill="#371A45"></path>
  </g>
  <path d="M88.7735 223.686C78.4676 223.686 70.0836 212.6 70.0836 198.974C70.0836 185.348 78.4676 174.263 88.7735 174.263C99.0794 174.263 107.463 185.348 107.463 198.974C107.463 212.6 99.0794 223.686 88.7735 223.686ZM88.7735 178.017C80.538 178.017 73.8377 187.419 73.8377 198.974C73.8377 210.53 80.538 219.932 88.7735 219.932C97.009 219.932 103.709 210.53 103.709 198.974C103.709 187.419 97.009 178.017 88.7735 178.017Z" fill="#371A45"></path>
  <path d="M82.4022 215.517C76.0643 215.517 70.9069 208.5 70.9069 199.877C70.9069 191.253 76.0643 184.237 82.4022 184.237C88.7402 184.237 93.8976 191.252 93.8976 199.877C93.8976 208.502 88.7402 215.517 82.4022 215.517ZM82.4022 187.991C78.2051 187.991 74.661 193.434 74.661 199.877C74.661 206.32 78.2064 211.763 82.4022 211.763C86.5981 211.763 90.1435 206.32 90.1435 199.877C90.1435 193.434 86.5981 187.991 82.4022 187.991Z" fill="#371A45"></path>
  <path d="M103.995 187.44L101.338 184.789C130.24 155.844 164.358 154.201 182.124 155.798C205.027 157.857 226.234 167.651 234.896 180.169L231.809 182.305C223.745 170.652 203.643 161.502 181.788 159.537C164.675 157.996 131.817 159.578 103.994 187.44H103.995Z" fill="#371A45"></path>
  <path d="M154.124 266.592C153.957 266.592 153.789 266.568 153.624 266.524C130.098 260.038 115.882 247.398 108.1 237.938C99.6274 227.639 96.7747 218.943 96.6582 218.577C96.3407 217.59 96.8848 216.533 97.8707 216.216C98.8566 215.898 99.913 216.441 100.232 217.427C100.27 217.543 103.058 225.945 111.114 235.691C118.448 244.564 131.772 256.387 153.738 262.656L159.383 258.416C159.686 258.19 160.049 258.059 160.427 258.042L193.036 256.583C193.46 256.566 193.882 256.69 194.227 256.941L199.601 260.864C200.438 261.476 200.621 262.65 200.01 263.487C199.4 264.324 198.226 264.507 197.388 263.896L192.546 260.361L161.175 261.764L155.253 266.213C154.924 266.46 154.528 266.589 154.126 266.589L154.124 266.592Z" fill="#371A45"></path>
  <path d="M95.9796 180.218C95.5276 180.218 95.0743 180.055 94.7146 179.726C93.9489 179.027 93.8951 177.84 94.5942 177.075C95.735 175.826 123.01 146.453 165.172 142.834C165.815 142.778 166.45 143.062 166.838 143.583L169.001 146.488C173.643 146.834 195.021 148.719 209.271 154.97L211.323 152.679C211.912 152.022 212.878 151.862 213.645 152.298C214.056 152.531 223.777 158.081 229.763 165.355C230.421 166.155 230.307 167.338 229.507 167.997C228.707 168.655 227.523 168.541 226.865 167.74C222.553 162.5 215.872 158.067 213.084 156.339L211.149 158.501C210.594 159.12 209.699 159.3 208.949 158.945C193.975 151.87 168.153 150.189 167.894 150.173C167.344 150.139 166.835 149.864 166.505 149.421L164.455 146.668C124.32 150.564 97.6326 179.313 97.3663 179.606C96.9962 180.012 96.4892 180.217 95.9796 180.217V180.218Z" fill="#371A45"></path>
  <g opacity="0.5">
    <path d="M163.09 185.055C168.33 185.055 172.578 181.11 172.578 176.244C172.578 171.379 168.33 167.434 163.09 167.434C157.85 167.434 153.603 171.379 153.603 176.244C153.603 181.11 157.85 185.055 163.09 185.055Z" fill="#FFFDF9"></path>
  </g>
  <g opacity="0.5">
    <path d="M218.077 192.525C213.898 189.234 208.574 187.895 203.275 188.365C184.345 190.053 170.595 168.14 190.2 166.393C190.2 166.393 235.431 168.933 228.317 205.28C228.317 205.28 225.159 198.111 218.077 192.523V192.525Z" fill="#FFFDF9"></path>
  </g>
  <path d="M263.258 290.125L255.846 290.506C254.746 290.558 254.473 288.986 255.514 288.658L262.595 286.431C265.323 285.718 266.067 289.842 263.259 290.125H263.258Z" fill="#371A45"></path>
  <path d="M221.79 314.119C221.589 314.119 221.384 314.08 221.187 313.997C220.39 313.663 220.014 312.747 220.348 311.95C228.68 292.038 219.945 278.854 219.856 278.723C219.37 278.01 219.554 277.037 220.267 276.551C220.982 276.064 221.955 276.248 222.44 276.962C222.844 277.553 232.214 291.696 223.233 313.158C222.982 313.758 222.401 314.119 221.79 314.119Z" fill="#371A45"></path>
  <path d="M92.5264 327.051C92.4035 327.051 92.278 327.035 92.1525 327.005C91.319 326.799 90.8055 325.965 91.0053 325.129C91.077 324.828 92.8874 317.705 102.973 314.383C103.793 314.112 104.679 314.559 104.947 315.379C105.218 316.199 104.772 317.084 103.951 317.353C95.6108 320.101 94.1051 325.635 94.0449 325.868C93.8631 326.574 93.2255 327.049 92.5264 327.049V327.051Z" fill="#371A45"></path>
  <path d="M117.797 295.362C117.751 290.184 119.015 285.08 120.974 280.329C121.608 278.771 122.374 277.276 123.166 275.808C123.33 275.503 123.71 275.391 124.015 275.555C124.303 275.71 124.418 276.058 124.294 276.351C123.71 277.866 123.162 279.387 122.749 280.944C121.517 285.479 120.927 290.297 121.53 294.959C121.89 297.583 118.013 298.012 117.799 295.362H117.797Z" fill="#371A45"></path>
  <path d="M195.615 294.959C196.4 288.678 195.158 282.219 192.85 276.351C192.552 275.63 193.597 275.117 193.977 275.808C197.245 281.773 199.379 288.502 199.346 295.363C199.135 298.003 195.257 297.592 195.613 294.959H195.615Z" fill="#371A45"></path>
  <path d="M183.318 296.725H136.61C136.023 296.725 135.484 296.394 135.217 295.871C134.95 295.347 135 294.718 135.344 294.242L141.131 286.265C141.426 285.859 141.896 285.62 142.398 285.62H177.532C178.032 285.62 178.504 285.861 178.798 286.265L184.585 294.242C184.931 294.718 184.98 295.347 184.712 295.871C184.446 296.394 183.907 296.725 183.319 296.725H183.318ZM139.677 293.597H180.251L176.734 288.749H143.194L139.677 293.597Z" fill="#371A45"></path>
  <path d="M176.332 297.376H143.674C143.192 297.376 142.751 297.098 142.544 296.662C142.336 296.225 142.399 295.708 142.705 295.334L146.751 290.382C146.989 290.091 147.344 289.922 147.72 289.922H172.286C172.661 289.922 173.017 290.091 173.255 290.382L177.301 295.334C177.607 295.708 177.67 296.225 177.463 296.662C177.255 297.098 176.816 297.376 176.332 297.376ZM146.312 294.874H173.694L171.693 292.424H148.314L146.313 294.874H146.312Z" fill="#371A45"></path>
  <path d="M218.515 305.489L212.259 355.073C211.689 359.559 207.88 362.918 203.362 362.918H117.304C113.207 362.918 109.685 360.153 108.653 356.294H108.646C108.54 355.899 108.458 355.493 108.408 355.073L102.152 305.489C101.458 300.009 105.731 295.16 111.261 295.16H209.405C212.025 295.16 214.366 296.248 216.018 297.975C217.869 299.896 218.877 302.605 218.515 305.489Z" fill="#C2C2C8"></path>
  <g opacity="0.25">
    <path d="M218.515 305.489L212.259 355.073C211.689 359.558 207.88 362.918 203.362 362.918H117.305C113.207 362.918 109.685 360.153 108.653 356.293C155.061 356.909 183.09 355.205 198.124 343.651C209.648 334.794 212.595 319.741 216.019 297.975C217.871 299.896 218.878 302.605 218.516 305.489H218.515Z" fill="#371A45"></path>
  </g>
  <g opacity="0.6">
    <path d="M218.515 305.489L218.408 306.345C217.557 302.21 213.897 299.019 209.406 299.019H111.262C106.771 299.019 103.111 302.21 102.26 306.345L102.154 305.489C101.46 300.009 105.732 295.16 111.262 295.16H209.406C214.936 295.16 219.209 300.009 218.515 305.489Z" fill="#FFFDF9"></path>
  </g>
  <path d="M203.771 373.048H116.895C113.563 373.048 110.662 370.776 109.863 367.542L109.433 365.801C109.07 364.336 110.179 362.921 111.687 362.921H208.978C210.486 362.921 211.595 364.336 211.233 365.801L210.803 367.542C210.004 370.776 207.102 373.048 203.771 373.048Z" fill="#C2C2C8"></path>
  <g opacity="0.25">
    <path d="M211.232 365.803L210.8 367.542C210.005 370.776 207.102 373.048 203.768 373.048H116.897C114.314 373.048 111.986 371.684 110.704 369.557C111.161 369.651 111.623 369.696 112.1 369.696H198.977C202.305 369.696 205.207 367.418 206.009 364.184L206.321 362.92H208.981C210.488 362.92 211.595 364.333 211.233 365.803H211.232Z" fill="#371A45"></path>
  </g>
  <path d="M203.36 364.797H117.306C111.854 364.797 107.229 360.717 106.547 355.31L100.289 305.722C99.8925 302.575 100.868 299.406 102.965 297.027C105.063 294.648 108.086 293.283 111.257 293.283H209.407C212.579 293.283 215.602 294.648 217.699 297.027C219.796 299.406 220.772 302.575 220.375 305.722L214.119 355.31C213.437 360.719 208.81 364.797 203.36 364.797ZM111.259 297.037C109.164 297.037 107.168 297.938 105.782 299.51C104.397 301.081 103.753 303.174 104.015 305.252L110.273 354.84C110.718 358.377 113.742 361.044 117.307 361.044H203.361C206.926 361.044 209.95 358.377 210.397 354.84L216.653 305.252C216.915 303.174 216.271 301.081 214.886 299.51C213.501 297.937 211.504 297.037 209.41 297.037H111.26H111.259Z" fill="#371A45"></path>
  <path d="M203.771 374.925H116.895C112.69 374.925 109.05 372.074 108.041 367.992L107.611 366.25C107.3 364.989 107.58 363.678 108.382 362.654C109.183 361.631 110.388 361.043 111.688 361.043H208.98C210.279 361.043 211.484 361.629 212.286 362.654C213.087 363.677 213.367 364.988 213.056 366.25L212.626 367.992C211.618 372.074 207.977 374.925 203.772 374.925H203.771ZM111.688 364.798C111.508 364.798 111.398 364.892 111.337 364.969C111.275 365.047 111.212 365.176 111.255 365.35L111.685 367.092C112.279 369.494 114.421 371.171 116.895 371.171H203.771C206.245 371.171 208.388 369.494 208.981 367.092L209.411 365.35C209.453 365.176 209.391 365.047 209.329 364.969C209.268 364.891 209.158 364.798 208.978 364.798H111.686H111.688Z" fill="#371A45"></path>
  <path d="M134.68 366.277H127.806C125.819 366.277 124.1 364.897 123.668 362.958L123.385 361.683C123.143 360.596 123.97 359.565 125.084 359.565H137.403C138.516 359.565 139.343 360.596 139.102 361.683L138.819 362.958C138.388 364.898 136.668 366.277 134.681 366.277H134.68Z" fill="#C2C2C8"></path>
  <path d="M192.859 366.277H185.986C183.999 366.277 182.279 364.897 181.848 362.958L181.565 361.683C181.323 360.596 182.15 359.565 183.264 359.565H195.583C196.695 359.565 197.523 360.596 197.282 361.683L196.999 362.958C196.567 364.898 194.848 366.277 192.861 366.277H192.859Z" fill="#C2C2C8"></path>
  <path d="M134.68 367.842H127.806C125.066 367.842 122.737 365.974 122.142 363.297L121.859 362.022C121.64 361.038 121.877 360.024 122.507 359.237C123.137 358.451 124.077 358 125.084 358H137.403C138.411 358 139.35 358.451 139.98 359.237C140.61 360.024 140.847 361.038 140.628 362.021L140.345 363.296C139.751 365.971 137.422 367.84 134.681 367.84L134.68 367.842ZM125.084 361.128C125.064 361.128 125 361.128 124.947 361.194C124.895 361.26 124.908 361.322 124.913 361.342L125.196 362.618C125.47 363.851 126.544 364.712 127.806 364.712H134.68C135.943 364.712 137.016 363.851 137.29 362.618L137.573 361.341C137.578 361.321 137.591 361.259 137.539 361.193C137.486 361.126 137.422 361.127 137.402 361.127H125.083L125.084 361.128Z" fill="#371A45"></path>
  <path d="M192.859 367.842H185.986C183.246 367.842 180.917 365.974 180.322 363.297L180.039 362.022C179.82 361.038 180.057 360.024 180.687 359.237C181.317 358.451 182.256 358 183.264 358H195.583C196.59 358 197.53 358.451 198.16 359.237C198.79 360.024 199.027 361.038 198.808 362.021L198.525 363.296C197.931 365.971 195.602 367.84 192.861 367.84L192.859 367.842ZM183.264 361.128C183.244 361.128 183.18 361.128 183.127 361.194C183.075 361.26 183.087 361.322 183.092 361.342L183.375 362.618C183.649 363.851 184.724 364.712 185.986 364.712H192.859C194.123 364.712 195.196 363.851 195.47 362.618L195.753 361.341C195.758 361.321 195.771 361.259 195.718 361.193C195.666 361.126 195.602 361.127 195.581 361.127H183.263L183.264 361.128Z" fill="#371A45"></path>
  <path d="M170.365 331.898H168.774C168.575 331.256 168.286 330.65 167.911 330.087L169.036 329.109C169.514 328.694 169.514 328.019 169.036 327.604L167.552 326.315C167.07 325.896 166.299 325.896 165.816 326.315L164.691 327.293C164.048 326.966 163.345 326.71 162.611 326.539V325.161C162.611 324.57 162.065 324.094 161.383 324.094H159.282C158.607 324.094 158.061 324.57 158.061 325.161V326.539C157.321 326.712 156.624 326.968 155.976 327.293L154.851 326.315C154.375 325.896 153.597 325.896 153.12 326.315L151.636 327.604C151.159 328.019 151.159 328.694 151.636 329.109L152.761 330.087C152.386 330.65 152.097 331.256 151.893 331.898H150.307C149.632 331.898 149.08 332.374 149.08 332.96V334.786C149.08 335.372 149.632 335.852 150.307 335.852H151.893C152.097 336.49 152.386 337.096 152.761 337.659L151.636 338.637C151.159 339.052 151.159 339.727 151.636 340.142L153.12 341.436C153.597 341.851 154.373 341.851 154.851 341.436L155.976 340.458C156.624 340.779 157.322 341.035 158.061 341.207V342.59C158.061 343.176 158.607 343.651 159.282 343.651H161.383C162.065 343.651 162.611 343.176 162.611 342.59V341.207C163.345 341.034 164.048 340.778 164.691 340.458L165.816 341.436C166.299 341.851 167.07 341.851 167.552 341.436L169.036 340.142C169.514 339.727 169.514 339.052 169.036 338.637L167.911 337.659C168.286 337.096 168.575 336.49 168.774 335.852H170.365C171.04 335.852 171.587 335.372 171.587 334.786V332.96C171.587 332.374 171.04 331.898 170.365 331.898ZM162.84 336.052C162.198 336.61 161.308 336.956 160.332 336.956C158.381 336.956 156.784 335.568 156.784 333.874C156.784 333.027 157.181 332.253 157.824 331.695C158.467 331.137 159.357 330.791 160.332 330.791C161.308 330.791 162.198 331.135 162.84 331.695C163.483 332.253 163.88 333.027 163.88 333.874C163.88 334.722 163.483 335.495 162.84 336.053V336.052Z" fill="white"></path>
  <g opacity="0.2">
    <path d="M119.006 306.347H123.672C127.471 306.347 130.66 309.208 131.07 312.986L133.626 336.547C134.103 340.949 130.655 344.792 126.228 344.792H121.589C117.792 344.792 114.604 341.934 114.191 338.161L111.608 314.599C111.125 310.194 114.575 306.345 119.006 306.345V306.347Z" fill="white"></path>
  </g>
  <path d="M367.805 198.193H324.951V229.025H367.805V198.193Z" fill="#22A7F0"></path>
  <path d="M367.805 230.901H324.951C323.914 230.901 323.074 230.061 323.074 229.024V198.192C323.074 197.155 323.914 196.315 324.951 196.315H367.805C368.842 196.315 369.682 197.155 369.682 198.192V229.024C369.682 230.061 368.842 230.901 367.805 230.901ZM326.828 227.147H365.928V200.069H326.828V227.147Z" fill="#371A45"></path>
  <path d="M322.709 289.374C321.499 289.374 320.52 288.393 320.52 287.184V198.193C320.52 196.983 321.501 196.004 322.709 196.004C323.918 196.004 324.899 196.984 324.899 198.193V287.184C324.899 288.393 323.918 289.374 322.709 289.374Z" fill="#371A45"></path>
  <path d="M322.709 233.695C319.497 233.695 316.883 231.081 316.883 227.869V199.795C316.883 196.582 319.497 193.969 322.709 193.969C325.922 193.969 328.535 196.582 328.535 199.795V227.869C328.535 231.081 325.922 233.695 322.709 233.695ZM322.709 198.349C321.912 198.349 321.262 198.998 321.262 199.796V227.87C321.262 228.668 321.912 229.317 322.709 229.317C323.507 229.317 324.156 228.668 324.156 227.87V199.796C324.156 198.998 323.507 198.349 322.709 198.349Z" fill="#371A45"></path>
  <path d="M338.158 281.548C338.002 281.548 337.846 281.539 337.687 281.521C335.457 281.264 333.856 279.246 334.115 277.015C335.536 264.707 325.133 253.373 314.122 248.538C302.606 243.483 291.587 245.26 284.646 253.296C283.178 254.996 280.61 255.183 278.911 253.715C277.212 252.246 277.023 249.679 278.492 247.98C287.752 237.262 302.66 234.623 317.393 241.093C333.676 248.242 343.875 263.398 342.196 277.949C341.956 280.022 340.198 281.549 338.161 281.549L338.158 281.548Z" fill="#B0B9BB"></path>
  <g opacity="0.6">
    <path d="M326.189 246.442C328.244 250.551 324.625 252.999 320.883 252.4C317.845 248.739 308.594 246.442 308.594 246.442C305.31 244.643 304.45 241.985 305.857 239.874C307.264 237.762 312.347 239.874 312.347 239.874C312.347 239.874 319.542 241.673 326.188 246.442H326.189Z" fill="#FFFDF9"></path>
  </g>
  <path d="M338.158 283.425C337.929 283.425 337.7 283.412 337.467 283.384C335.895 283.204 334.484 282.419 333.497 281.173C332.511 279.93 332.068 278.375 332.249 276.798C333.566 265.395 323.746 254.813 313.366 250.255C302.644 245.547 292.438 247.142 286.064 254.521C285.027 255.722 283.584 256.448 282 256.564C280.42 256.68 278.884 256.172 277.682 255.133C276.481 254.095 275.755 252.652 275.639 251.069C275.524 249.486 276.031 247.953 277.07 246.751C286.889 235.385 302.628 232.558 318.146 239.372C335.176 246.849 345.832 262.8 344.059 278.161C343.712 281.161 341.175 283.424 338.16 283.424L338.158 283.425ZM301.505 243.812C305.762 243.812 310.284 244.803 314.874 246.819C326.516 251.931 337.503 264.018 335.978 277.229C335.911 277.81 336.074 278.383 336.438 278.841C336.801 279.3 337.321 279.589 337.901 279.656C337.991 279.666 338.075 279.671 338.158 279.671C339.267 279.671 340.201 278.837 340.329 277.731C341.915 263.991 332.173 249.63 316.636 242.81C302.685 236.683 288.612 239.134 279.911 249.205C279.528 249.648 279.341 250.213 279.385 250.795C279.427 251.379 279.694 251.911 280.136 252.292C280.579 252.675 281.146 252.861 281.728 252.82C282.312 252.777 282.843 252.51 283.224 252.068C287.934 246.618 294.345 243.812 301.506 243.812H301.505Z" fill="#371A45"></path>
  <path d="M291.825 249.053C291.204 249.053 290.665 248.591 290.585 247.958C290.113 244.225 286.579 242.905 286.429 242.851C285.781 242.616 285.442 241.902 285.674 241.253C285.906 240.604 286.615 240.264 287.264 240.492C287.474 240.567 292.398 242.355 293.068 247.645C293.155 248.33 292.67 248.956 291.984 249.043C291.93 249.049 291.877 249.053 291.825 249.053Z" fill="#371A45"></path>
  <path d="M299.602 245.988C299.485 245.988 299.368 245.971 299.25 245.936C298.587 245.742 298.206 245.047 298.401 244.385C299.237 241.529 298.092 239.255 297.716 238.509C297.642 238.362 297.589 238.252 297.562 238.184C297.306 237.542 297.619 236.814 298.26 236.558C298.898 236.302 299.62 236.609 299.881 237.243C299.896 237.277 299.921 237.325 299.951 237.383C301.255 239.972 301.542 242.564 300.803 245.088C300.643 245.633 300.145 245.988 299.603 245.988H299.602Z" fill="#371A45"></path>
  <path d="M309.936 247.693C309.77 247.693 309.601 247.66 309.438 247.588C308.804 247.313 308.514 246.576 308.789 245.942C310.234 242.618 308.902 240.117 308.844 240.012C308.514 239.409 308.729 238.649 309.329 238.314C309.93 237.978 310.685 238.186 311.024 238.784C311.108 238.932 313.045 242.431 311.085 246.94C310.88 247.412 310.419 247.693 309.936 247.693Z" fill="#371A45"></path>
  <path d="M319.073 251.888C318.77 251.888 318.466 251.779 318.225 251.556C317.717 251.087 317.685 250.296 318.154 249.788C320.781 246.94 319.987 243.911 319.978 243.88C319.795 243.213 320.187 242.524 320.853 242.341C321.52 242.159 322.207 242.55 322.39 243.215C322.439 243.395 323.551 247.626 319.992 251.484C319.745 251.752 319.41 251.886 319.072 251.886L319.073 251.888Z" fill="#371A45"></path>
  <path d="M327.206 258.25C326.85 258.25 326.497 258.099 326.25 257.806C325.804 257.278 325.871 256.488 326.398 256.042C329.369 253.534 328.668 250.254 328.661 250.222C328.443 249.566 328.805 248.885 329.461 248.667C330.116 248.454 330.833 248.831 331.051 249.488C331.375 250.461 331.808 254.751 328.011 257.955C327.777 258.154 327.49 258.25 327.205 258.25H327.206Z" fill="#371A45"></path>
  <path d="M333.07 267.009C332.556 267.009 332.074 266.689 331.892 266.178C331.661 265.528 332 264.812 332.65 264.579C335.853 263.437 336.771 262.269 337.032 261.674C337.243 261.194 337.123 260.88 337.109 260.845L338.233 260.296L339.334 259.701C339.402 259.827 339.983 260.976 339.401 262.494C338.712 264.29 336.725 265.784 333.493 266.936C333.355 266.986 333.212 267.009 333.073 267.009H333.07Z" fill="#371A45"></path>
  <path d="M342.22 375.659C350.815 375.659 357.783 368.306 357.783 359.236C357.783 350.166 350.815 342.814 342.22 342.814C333.625 342.814 326.657 350.166 326.657 359.236C326.657 368.306 333.625 375.659 342.22 375.659Z" fill="#6D6C80"></path>
  <g opacity="0.25">
    <path d="M358.229 359.004C358.229 368.076 351.26 375.427 342.664 375.427C336.014 375.427 330.34 371.022 328.113 364.829C330.922 369.095 335.595 371.885 340.893 371.885C349.489 371.885 356.458 364.528 356.458 355.463C356.458 353.417 356.101 351.459 355.45 349.651C357.208 352.304 358.227 355.532 358.227 359.004H358.229Z" fill="#371A45"></path>
  </g>
  <g opacity="0.3">
    <path d="M330.171 348.842C330.171 348.842 337.312 345.755 338.657 351.934C338.657 351.934 340.115 357.45 336.014 360.303C335.672 360.541 328.037 363.509 327.412 357.957" fill="white"></path>
  </g>
  <path d="M342.22 377.536C332.604 377.536 324.78 369.327 324.78 359.237C324.78 349.148 332.603 340.938 342.22 340.938C351.837 340.938 359.66 349.147 359.66 359.237C359.66 369.328 351.837 377.536 342.22 377.536ZM342.22 344.692C334.673 344.692 328.534 351.217 328.534 359.237C328.534 367.258 334.673 373.783 342.22 373.783C349.767 373.783 355.906 367.258 355.906 359.237C355.906 351.217 349.767 344.692 342.22 344.692Z" fill="#371A45"></path>
  <path d="M344.293 368.821C349.099 368.821 352.996 364.53 352.996 359.236C352.996 353.942 349.099 349.651 344.293 349.651C339.486 349.651 335.59 353.942 335.59 359.236C335.59 364.53 339.486 368.821 344.293 368.821Z" fill="#22A7F0"></path>
  <path d="M344.293 370.072C338.804 370.072 334.339 365.212 334.339 359.236C334.339 353.261 338.805 348.4 344.293 348.4C349.781 348.4 354.247 353.261 354.247 359.236C354.247 365.212 349.781 370.072 344.293 370.072ZM344.293 350.902C340.184 350.902 336.841 354.641 336.841 359.236C336.841 363.831 340.184 367.57 344.293 367.57C348.402 367.57 351.745 363.831 351.745 359.236C351.745 354.641 348.402 350.902 344.293 350.902Z" fill="#371A45"></path>
  <path d="M310.137 375.659C318.732 375.659 325.7 368.306 325.7 359.236C325.7 350.166 318.732 342.814 310.137 342.814C301.542 342.814 294.574 350.166 294.574 359.236C294.574 368.306 301.542 375.659 310.137 375.659Z" fill="#6D6C80"></path>
  <g opacity="0.25">
    <path d="M326.146 359.004C326.146 368.076 319.177 375.427 310.581 375.427C303.931 375.427 298.258 371.022 296.03 364.829C298.839 369.095 303.512 371.885 308.811 371.885C317.406 371.885 324.375 364.528 324.375 355.463C324.375 353.417 324.018 351.459 323.367 349.651C325.125 352.304 326.145 355.532 326.145 359.004H326.146Z" fill="#371A45"></path>
  </g>
  <g opacity="0.3">
    <path d="M298.088 348.842C298.088 348.842 305.229 345.755 306.574 351.934C306.574 351.934 308.032 357.45 303.931 360.303C303.589 360.541 295.954 363.509 295.329 357.957" fill="white"></path>
  </g>
  <path d="M310.137 377.536C300.521 377.536 292.697 369.327 292.697 359.237C292.697 349.148 300.52 340.938 310.137 340.938C319.754 340.938 327.577 349.147 327.577 359.237C327.577 369.328 319.754 377.536 310.137 377.536ZM310.137 344.692C302.59 344.692 296.451 351.217 296.451 359.237C296.451 367.258 302.59 373.783 310.137 373.783C317.684 373.783 323.823 367.258 323.823 359.237C323.823 351.217 317.684 344.692 310.137 344.692Z" fill="#371A45"></path>
  <path d="M312.21 368.821C317.016 368.821 320.913 364.53 320.913 359.236C320.913 353.942 317.016 349.651 312.21 349.651C307.404 349.651 303.507 353.942 303.507 359.236C303.507 364.53 307.404 368.821 312.21 368.821Z" fill="#22A7F0"></path>
  <path d="M312.21 370.072C306.721 370.072 302.256 365.212 302.256 359.236C302.256 353.261 306.722 348.4 312.21 348.4C317.698 348.4 322.164 353.261 322.164 359.236C322.164 365.212 317.698 370.072 312.21 370.072ZM312.21 350.902C308.101 350.902 304.758 354.641 304.758 359.236C304.758 363.831 308.101 367.57 312.21 367.57C316.319 367.57 319.662 363.831 319.662 359.236C319.662 354.641 316.319 350.902 312.21 350.902Z" fill="#371A45"></path>
  <path d="M445.132 291.095V364.29H319.855C313.43 363.927 308.694 361.849 306.505 357.152C305.566 355.149 305.091 352.673 305.154 349.651V327.38C304.841 318.152 306.561 305.315 306.561 305.315C311.252 275.298 338.467 276.081 338.467 276.081H434.027C439.595 277.182 442.385 280.542 443.773 283.813L443.78 283.819C445.349 287.522 445.13 291.095 445.13 291.095H445.132Z" fill="#B7C6D7"></path>
  <g opacity="0.25">
    <path d="M367.331 364.29H319.854C313.429 363.928 308.693 361.849 306.503 357.152C357.208 369.564 366.592 336.244 366.592 336.244L366.343 344.271C366.343 344.271 367.725 354.7 367.331 364.29Z" fill="#371A45"></path>
  </g>
  <path d="M382.988 276.078C382.988 276.078 384.344 264.299 396.856 264.299H379.86C379.86 264.299 368.599 265.025 365.471 276.078" fill="#B7C6D7"></path>
  <path d="M360.793 352.106C352.518 352.106 348.185 345.276 346.923 342.881H313.852C311.369 349.046 305.437 349.379 305.173 349.391C304.437 349.414 303.826 348.857 303.794 348.127C303.762 347.4 304.324 346.783 305.05 346.748C305.256 346.736 309.996 346.413 311.659 341.158C311.834 340.608 312.343 340.235 312.921 340.235H347.746C348.28 340.235 348.763 340.556 348.968 341.05C349.124 341.423 352.932 350.233 361.971 349.405C362.702 349.342 363.343 349.875 363.409 350.602C363.476 351.329 362.939 351.973 362.212 352.04C361.727 352.085 361.253 352.105 360.792 352.105L360.793 352.106Z" fill="#371A45"></path>
  <path d="M345.035 365.281C344.665 365.281 344.309 365.072 344.139 364.716L341.057 358.266C340.307 356.695 338.697 355.679 336.955 355.679H321.139C319.512 355.679 317.999 356.558 317.192 357.971L314.024 363.519C313.753 363.996 313.147 364.161 312.671 363.889C312.195 363.618 312.029 363.011 312.301 362.536L315.469 356.988C316.629 354.957 318.801 353.696 321.139 353.696H336.955C339.457 353.696 341.769 355.154 342.847 357.41L345.929 363.861C346.166 364.355 345.956 364.948 345.462 365.184C345.324 365.249 345.179 365.281 345.035 365.281Z" fill="#371A45"></path>
  <path d="M418.649 276.08C415.935 281.503 406.92 281.241 406.92 281.241L372.093 282.179C360.519 283.118 357.235 299.07 356.609 309.705C356.384 313.553 355.683 316.712 354.888 319.165C353.481 323.481 349.77 326.641 345.298 327.417C338.266 328.637 328.212 328.956 320.612 327.56C314.894 326.516 310.684 321.673 310.428 315.868C309.764 300.735 314.225 287.222 314.225 287.222V287.215C323.878 275.661 338.467 276.08 338.467 276.08H418.651H418.649Z" fill="#371A45"></path>
  <path d="M434.027 276.08C434.941 270.485 432.721 267.51 430.439 265.949C428.803 264.83 426.835 264.297 424.851 264.297H405.562C405.562 264.297 420.232 263.88 419.283 275.35" fill="#B7C6D7"></path>
  <path d="M364.416 346.107C365.061 336.174 366.061 326.32 367.591 316.49C368.372 311.585 369.287 306.69 370.573 301.864C371.574 298.246 372.688 294.572 374.665 291.323C375.118 290.6 377.331 287.388 378.189 288.552C378.385 288.84 378.305 289.23 378.02 289.422C376.191 290.808 375.166 293.157 374.317 295.283C370.285 306.872 369.39 319.334 368.323 331.495C367.965 336.408 367.691 341.349 367.54 346.252C367.43 348.319 364.344 348.221 364.416 346.106V346.107Z" fill="#371A45"></path>
  <g opacity="0.6">
    <path d="M445.132 291.095V293.848C445.032 290.807 443.874 281.773 434.027 279.834H338.467C338.467 279.834 311.254 279.051 306.561 309.068C306.561 309.068 305.316 318.358 305.141 326.816C304.909 317.639 306.561 305.315 306.561 305.315C311.252 275.298 338.467 276.081 338.467 276.081H434.027C445.913 278.426 445.132 291.095 445.132 291.095Z" fill="#FFFDF9"></path>
  </g>
  <g opacity="0.6">
    <path d="M305.141 326.816C305.141 327.005 305.147 327.192 305.154 327.38V331.134C305.11 329.757 305.104 328.3 305.141 326.818V326.816Z" fill="#FFFDF9"></path>
  </g>
  <g opacity="0.6">
    <path d="M445.132 294.847V293.846C445.157 294.472 445.132 294.847 445.132 294.847Z" fill="#FFFDF9"></path>
  </g>
  <path d="M331.952 330.352C327.97 330.352 323.906 330.076 320.273 329.411C313.668 328.199 308.849 322.663 308.553 315.948C307.878 300.648 312.254 287.197 312.439 286.633C312.763 285.648 313.825 285.114 314.809 285.439C315.794 285.763 316.329 286.825 316.004 287.809C315.96 287.941 311.659 301.196 312.302 315.785C312.52 320.741 316.076 324.827 320.949 325.719C328.719 327.144 338.616 326.669 344.977 325.568C348.804 324.905 351.916 322.23 353.101 318.587C353.996 315.832 354.546 312.808 354.734 309.598C355.23 301.171 357.898 281.45 371.942 280.311C371.975 280.309 372.008 280.307 372.043 280.306L406.871 279.368C406.907 279.368 406.941 279.368 406.976 279.368C409.159 279.439 415.195 278.791 416.968 275.243C417.622 273.936 417.543 272.567 416.734 271.177C415.127 268.418 411.228 266.413 407.023 266.177H378.784C377.875 266.253 367.91 267.283 366.681 276.336C366.541 277.364 365.595 278.078 364.568 277.943C363.541 277.803 362.821 276.857 362.961 275.83C364.302 265.953 373.77 262.744 378.59 262.427C378.63 262.424 378.671 262.423 378.712 262.423H407.073C407.106 262.423 407.138 262.423 407.172 262.425C412.693 262.716 417.72 265.41 419.977 269.287C421.423 271.768 421.545 274.479 420.325 276.921C417.207 283.156 407.841 283.137 406.925 283.12L372.195 284.056C361.13 285.004 358.918 302.381 358.481 309.818C358.273 313.348 357.664 316.689 356.669 319.749C355.053 324.718 350.819 328.366 345.617 329.267C341.883 329.914 336.982 330.354 331.951 330.354L331.952 330.352Z" fill="#371A45"></path>
  <path d="M434.029 277.956C433.929 277.956 433.827 277.949 433.725 277.932C432.702 277.764 432.008 276.8 432.175 275.777C432.796 271.977 431.855 269.191 429.38 267.498C428.114 266.631 426.548 266.174 424.853 266.174H405.564C404.526 266.174 403.687 265.334 403.687 264.297C403.687 263.26 404.526 262.42 405.564 262.42H424.853C427.307 262.42 429.606 263.105 431.499 264.4C434.1 266.178 436.972 269.7 435.881 276.382C435.731 277.302 434.935 277.956 434.031 277.956H434.029Z" fill="#371A45"></path>
  <path d="M352.464 357.72H348.45C347.313 357.72 346.391 356.798 346.391 355.661C346.391 354.524 347.313 353.602 348.45 353.602H352.464C353.601 353.602 354.523 354.524 354.523 355.661C354.523 356.798 353.601 357.72 352.464 357.72Z" fill="#22A7F0"></path>
  <path d="M391.121 264.297H405.875V262.199C405.875 258.938 403.232 256.295 399.971 256.295H397.026C393.765 256.295 391.122 258.938 391.122 262.199V264.297H391.121Z" fill="#22A7F0"></path>
  <path d="M306.786 357.72H310.102C310.666 357.72 311.184 357.488 311.554 357.12C311.93 356.745 312.161 356.231 312.161 355.663C312.161 354.524 311.236 353.605 310.104 353.605H306.087C305.862 353.605 305.643 353.642 305.443 353.711" fill="#22A7F0"></path>
  <path d="M405.875 266.174H391.121C390.084 266.174 389.244 265.334 389.244 264.297V262.199C389.244 257.908 392.734 254.418 397.025 254.418H399.971C404.261 254.418 407.752 257.908 407.752 262.199V264.297C407.752 265.334 406.912 266.174 405.875 266.174ZM392.998 262.42H403.998V262.199C403.998 259.978 402.191 258.171 399.971 258.171H397.025C394.804 258.171 392.998 259.977 392.998 262.199V262.42Z" fill="#371A45"></path>
  <path d="M382.99 277.95C382.916 277.95 382.842 277.946 382.767 277.937C381.741 277.816 381.006 276.89 381.125 275.863C381.66 271.214 385.637 262.42 396.857 262.42C397.894 262.42 398.734 263.26 398.734 264.297C398.734 265.334 397.894 266.174 396.857 266.174C386.219 266.174 384.904 275.885 384.853 276.298C384.737 277.25 383.926 277.95 382.992 277.95H382.99Z" fill="#371A45"></path>
  <path d="M346.384 307.718C347.197 307.558 347.772 306.825 347.772 305.997V301.183C347.772 292.919 337.699 293.616 337.215 300.219C337.215 300.219 336.631 307.144 338.262 311.366C338.498 311.976 339.313 312.081 339.727 311.574C340.746 310.326 342.823 308.421 346.385 307.719L346.384 307.718Z" fill="#22A7F0"></path>
  <path d="M318.046 305.89C317.36 305.718 316.876 305.1 316.854 304.393C316.768 301.568 317.11 295.088 321.992 294.64C327.883 294.1 328.088 303.498 325.264 309.951C325.037 310.468 324.338 310.54 323.992 310.094C322.983 308.79 320.931 306.614 318.046 305.891V305.89Z" fill="#22A7F0"></path>
  <path d="M445.102 289.52H408.028C404.56 289.52 401.39 291.512 399.916 294.652C397.489 299.824 394.233 308.262 393.857 316.927C393.634 322.049 397.702 326.335 402.829 326.335H445.102" fill="#22A7F0"></path>
  <path d="M445.142 336.241H400.857C398.739 336.241 396.807 337.418 395.816 339.289C394.436 341.894 392.859 346.197 392.816 352.296H445.143" fill="#22A7F0"></path>
  <path d="M445.102 327.901H402.829C399.93 327.901 397.23 326.747 395.224 324.653C393.208 322.546 392.168 319.779 392.294 316.86C392.675 308.075 395.879 299.574 398.5 293.988C400.219 290.324 403.959 287.957 408.028 287.957H445.102C445.966 287.957 446.666 288.657 446.666 289.521C446.666 290.385 445.965 291.086 445.102 291.086H408.028C405.167 291.086 402.538 292.746 401.332 295.319C398.833 300.645 395.779 308.731 395.419 316.998C395.329 319.057 396.063 321.009 397.483 322.493C398.893 323.965 400.79 324.776 402.827 324.776H445.101C445.965 324.776 446.664 325.476 446.664 326.34C446.664 327.204 445.964 327.905 445.101 327.905L445.102 327.901Z" fill="#371A45"></path>
  <path d="M392.816 354.174H392.802C391.765 354.167 390.931 353.322 390.939 352.285C390.985 345.752 392.715 341.135 394.158 338.412C395.479 335.916 398.046 334.365 400.858 334.365H445.143C446.18 334.365 447.02 335.205 447.02 336.243C447.02 337.28 446.18 338.12 445.143 338.12H400.858C399.441 338.12 398.145 338.904 397.475 340.168C396.228 342.522 394.734 346.539 394.693 352.311C394.685 353.343 393.847 354.176 392.816 354.176V354.174Z" fill="#371A45"></path>
  <path d="M352.464 358.382H348.45C346.95 358.382 345.729 357.162 345.729 355.661C345.729 354.16 346.95 352.94 348.45 352.94H352.464C353.965 352.94 355.185 354.16 355.185 355.661C355.185 357.162 353.965 358.382 352.464 358.382ZM348.45 354.264C347.679 354.264 347.052 354.892 347.052 355.662C347.052 356.433 347.679 357.059 348.45 357.059H352.464C353.235 357.059 353.862 356.432 353.862 355.662C353.862 354.893 353.235 354.264 352.464 354.264H348.45Z" fill="#371A45"></path>
  <path d="M310.101 358.382H306.785C306.42 358.382 306.123 358.087 306.123 357.72C306.123 357.354 306.419 357.058 306.785 357.058H310.101C310.467 357.058 310.826 356.91 311.085 356.652C311.351 356.386 311.498 356.034 311.498 355.663C311.498 354.892 310.872 354.266 310.101 354.266H306.085C305.937 354.266 305.789 354.29 305.656 354.336C305.31 354.454 304.935 354.271 304.814 353.925C304.695 353.58 304.88 353.203 305.225 353.084C305.499 352.991 305.789 352.942 306.085 352.942H310.101C311.6 352.942 312.821 354.162 312.821 355.661C312.821 356.386 312.536 357.071 312.02 357.587C311.515 358.092 310.816 358.381 310.101 358.381V358.382Z" fill="#371A45"></path>
  <path d="M445.132 366.166H319.855C319.821 366.166 319.785 366.166 319.75 366.163C308.612 365.537 303.069 359.97 303.278 349.614V327.38C302.964 318.165 304.631 305.595 304.702 305.064C309.599 273.735 338.242 274.205 338.522 274.204H434.029C434.151 274.204 434.273 274.215 434.393 274.238C445.027 276.337 447.294 286.181 447.011 291.15V364.29C447.011 365.327 446.171 366.167 445.134 366.167L445.132 366.166ZM319.908 362.412H443.255V291.094C443.255 291.055 443.255 291.017 443.258 290.978C443.283 290.535 443.754 280.036 433.839 277.957H338.467C337.374 277.929 312.788 277.635 308.416 305.603C308.405 305.689 306.726 318.354 307.03 327.316V349.651C306.864 357.963 310.836 361.889 319.909 362.413L319.908 362.412Z" fill="#371A45"></path>
  <g opacity="0.25">
    <path d="M445.132 291.095V364.29H366.344V336.957C456.462 353.614 434.238 302.502 443.774 283.813L443.781 283.82C445.35 287.523 445.132 291.095 445.132 291.095Z" fill="#371A45"></path>
  </g>
  <path d="M406.922 375.659C415.517 375.659 422.485 368.306 422.485 359.236C422.485 350.166 415.517 342.814 406.922 342.814C398.327 342.814 391.359 350.166 391.359 359.236C391.359 368.306 398.327 375.659 406.922 375.659Z" fill="#6D6C80"></path>
  <g opacity="0.25">
    <path d="M422.931 359.004C422.931 368.076 415.962 375.427 407.366 375.427C400.716 375.427 395.043 371.022 392.815 364.829C395.624 369.095 400.297 371.885 405.596 371.885C414.191 371.885 421.16 364.528 421.16 355.463C421.16 353.417 420.803 351.459 420.152 349.651C421.91 352.304 422.93 355.532 422.93 359.004H422.931Z" fill="#371A45"></path>
  </g>
  <g opacity="0.3">
    <path d="M394.874 348.842C394.874 348.842 402.014 345.755 403.359 351.934C403.359 351.934 404.817 357.45 400.716 360.303C400.374 360.541 392.739 363.509 392.114 357.957" fill="white"></path>
  </g>
  <path d="M406.922 377.536C397.306 377.536 389.482 369.327 389.482 359.237C389.482 349.148 397.305 340.938 406.922 340.938C416.539 340.938 424.362 349.147 424.362 359.237C424.362 369.328 416.539 377.536 406.922 377.536ZM406.922 344.692C399.375 344.692 393.236 351.217 393.236 359.237C393.236 367.258 399.375 373.783 406.922 373.783C414.469 373.783 420.608 367.258 420.608 359.237C420.608 351.217 414.469 344.692 406.922 344.692Z" fill="#371A45"></path>
  <path d="M408.995 368.821C413.802 368.821 417.698 364.53 417.698 359.236C417.698 353.942 413.802 349.651 408.995 349.651C404.189 349.651 400.292 353.942 400.292 359.236C400.292 364.53 404.189 368.821 408.995 368.821Z" fill="#22A7F0"></path>
  <path d="M408.995 370.072C403.506 370.072 399.041 365.212 399.041 359.236C399.041 353.261 403.507 348.4 408.995 348.4C414.483 348.4 418.949 353.261 418.949 359.236C418.949 365.212 414.483 370.072 408.995 370.072ZM408.995 350.902C404.886 350.902 401.543 354.641 401.543 359.236C401.543 363.831 404.886 367.57 408.995 367.57C413.104 367.57 416.447 363.831 416.447 359.236C416.447 354.641 413.104 350.902 408.995 350.902Z" fill="#371A45"></path>
  <path d="M439.196 375.659C447.791 375.659 454.759 368.306 454.759 359.236C454.759 350.166 447.791 342.814 439.196 342.814C430.6 342.814 423.632 350.166 423.632 359.236C423.632 368.306 430.6 375.659 439.196 375.659Z" fill="#6D6C80"></path>
  <g opacity="0.25">
    <path d="M455.204 359.004C455.204 368.076 448.235 375.427 439.64 375.427C432.99 375.427 427.316 371.022 425.088 364.829C427.897 369.095 432.571 371.885 437.869 371.885C446.464 371.885 453.434 364.528 453.434 355.463C453.434 353.417 453.076 351.459 452.426 349.651C454.184 352.304 455.203 355.532 455.203 359.004H455.204Z" fill="#371A45"></path>
  </g>
  <g opacity="0.3">
    <path d="M427.147 348.842C427.147 348.842 434.288 345.755 435.632 351.934C435.632 351.934 437.091 357.45 432.99 360.303C432.648 360.541 425.013 363.509 424.388 357.957" fill="white"></path>
  </g>
  <path d="M439.196 377.536C429.58 377.536 421.755 369.327 421.755 359.237C421.755 349.148 429.579 340.938 439.196 340.938C448.813 340.938 456.636 349.147 456.636 359.237C456.636 369.328 448.813 377.536 439.196 377.536ZM439.196 344.692C431.649 344.692 425.509 351.217 425.509 359.237C425.509 367.258 431.649 373.783 439.196 373.783C446.742 373.783 452.882 367.258 452.882 359.237C452.882 351.217 446.742 344.692 439.196 344.692Z" fill="#371A45"></path>
  <path d="M441.269 368.821C446.075 368.821 449.971 364.53 449.971 359.236C449.971 353.942 446.075 349.651 441.269 349.651C436.462 349.651 432.566 353.942 432.566 359.236C432.566 364.53 436.462 368.821 441.269 368.821Z" fill="#22A7F0"></path>
  <path d="M441.269 370.072C435.78 370.072 431.315 365.212 431.315 359.236C431.315 353.261 435.781 348.4 441.269 348.4C446.756 348.4 451.222 353.261 451.222 359.236C451.222 365.212 446.756 370.072 441.269 370.072ZM441.269 350.902C437.16 350.902 433.817 354.641 433.817 359.236C433.817 363.831 437.16 367.57 441.269 367.57C445.377 367.57 448.72 363.831 448.72 359.236C448.72 354.641 445.377 350.902 441.269 350.902Z" fill="#371A45"></path>
  <path d="M375.404 375.659C383.999 375.659 390.967 368.306 390.967 359.236C390.967 350.166 383.999 342.814 375.404 342.814C366.809 342.814 359.841 350.166 359.841 359.236C359.841 368.306 366.809 375.659 375.404 375.659Z" fill="#6D6C80"></path>
  <g opacity="0.25">
    <path d="M391.414 359.004C391.414 368.076 384.445 375.427 375.85 375.427C369.199 375.427 363.526 371.022 361.298 364.829C364.107 369.095 368.78 371.885 374.079 371.885C382.674 371.885 389.643 364.528 389.643 355.463C389.643 353.417 389.286 351.459 388.636 349.651C390.394 352.304 391.413 355.532 391.413 359.004H391.414Z" fill="#371A45"></path>
  </g>
  <g opacity="0.3">
    <path d="M363.357 348.842C363.357 348.842 370.497 345.755 371.842 351.934C371.842 351.934 373.3 357.45 369.199 360.303C368.857 360.541 361.222 363.509 360.597 357.957" fill="white"></path>
  </g>
  <path d="M375.404 377.536C365.788 377.536 357.964 369.327 357.964 359.237C357.964 349.148 365.787 340.938 375.404 340.938C385.021 340.938 392.844 349.147 392.844 359.237C392.844 369.328 385.021 377.536 375.404 377.536ZM375.404 344.692C367.857 344.692 361.718 351.217 361.718 359.237C361.718 367.258 367.857 373.783 375.404 373.783C382.951 373.783 389.09 367.258 389.09 359.237C389.09 351.217 382.951 344.692 375.404 344.692Z" fill="#371A45"></path>
  <path d="M377.477 368.821C382.283 368.821 386.18 364.53 386.18 359.236C386.18 353.942 382.283 349.651 377.477 349.651C372.67 349.651 368.774 353.942 368.774 359.236C368.774 364.53 372.67 368.821 377.477 368.821Z" fill="#22A7F0"></path>
  <path d="M377.477 370.072C371.988 370.072 367.523 365.212 367.523 359.236C367.523 353.261 371.989 348.4 377.477 348.4C382.965 348.4 387.431 353.261 387.431 359.236C387.431 365.212 382.965 370.072 377.477 370.072ZM377.477 350.902C373.368 350.902 370.025 354.641 370.025 359.236C370.025 363.831 373.368 367.57 377.477 367.57C381.586 367.57 384.929 363.831 384.929 359.236C384.929 354.641 381.586 350.902 377.477 350.902Z" fill="#371A45"></path>
  <g opacity="0.2" filter="url(#filter0_f_3820_6838)">
    <path d="M322.709 321.123C328.525 321.123 333.24 312.658 333.24 302.218C333.24 291.777 328.525 283.312 322.709 283.312C316.893 283.312 312.178 291.777 312.178 302.218C312.178 312.658 316.893 321.123 322.709 321.123Z" fill="url(#paint0_radial_3820_6838)"></path>
  </g>
  <g opacity="0.2" filter="url(#filter1_f_3820_6838)">
    <path d="M342.443 321.407C348.259 321.407 352.974 312.943 352.974 302.502C352.974 292.061 348.259 283.597 342.443 283.597C336.626 283.597 331.911 292.061 331.911 302.502C331.911 312.943 336.626 321.407 342.443 321.407Z" fill="url(#paint1_radial_3820_6838)"></path>
  </g>
  <path d="M260.371 251.994L289.879 270.187C289.879 270.187 296.16 264.192 300.54 267.164C304.919 270.136 307.031 274.918 306.796 277.18C306.562 279.441 298.977 274.593 298.977 274.593C298.977 274.593 293.816 276.939 294.754 282.961L300.017 286.493C300.434 286.774 300.74 287.191 300.881 287.672C301.272 289.005 300.319 290.339 298.934 290.432C291.738 290.916 283.338 288.341 286.126 277.18L257.061 259.656C257.061 259.656 250.336 264.349 245.644 260.047C240.952 255.746 239.544 251.679 241.108 250.819C242.115 250.266 244.612 251.558 246.263 252.55C247.417 253.243 248.884 253.177 249.939 252.344C250.627 251.801 251.358 251.05 251.921 250.044C252.628 248.78 252.332 247.188 251.291 246.181L246.683 241.724C245.946 241.011 246.186 239.793 247.124 239.378C254.34 236.186 264.648 242.185 260.372 251.99L260.371 251.994Z" fill="#BFCBCD"></path>
  <path d="M297.318 292.365C293.839 292.365 288.957 291.646 286 288.113C283.907 285.609 283.239 282.243 284.007 278.096L257.063 261.85C254.699 263.156 248.92 265.598 244.376 261.433C240.536 257.913 238.343 254.14 238.649 251.587C238.778 250.514 239.33 249.658 240.203 249.178C241.697 248.356 243.799 248.885 247.229 250.944C247.724 251.242 248.346 251.213 248.775 250.874C249.408 250.374 249.915 249.788 250.282 249.131C250.559 248.638 250.434 247.966 249.985 247.533L245.377 243.077C244.587 242.314 244.231 241.213 244.423 240.134C244.618 239.04 245.344 238.118 246.364 237.666C250.96 235.634 256.646 236.676 260.19 240.201C263.1 243.096 263.969 247.041 262.668 251.205L289.703 267.875C291.977 266.081 297.261 262.672 301.594 265.612C306.378 268.858 308.987 274.245 308.663 277.375C308.57 278.27 308.065 279.002 307.277 279.381C306.702 279.659 305.009 280.476 298.953 276.791C297.94 277.527 296.387 279.119 296.528 281.891L301.063 284.935C301.843 285.458 302.418 286.242 302.683 287.145C303.028 288.321 302.825 289.572 302.123 290.579C301.416 291.593 300.3 292.223 299.06 292.307C298.541 292.342 297.953 292.366 297.319 292.366L297.318 292.365ZM257.061 257.781C257.395 257.781 257.731 257.871 258.03 258.05L287.095 275.574C287.802 276 288.146 276.836 287.947 277.635C287.059 281.188 287.373 283.903 288.88 285.703C290.653 287.823 294.27 288.864 298.808 288.559C298.934 288.55 299.007 288.484 299.044 288.429C299.117 288.324 299.09 288.23 299.081 288.2C299.063 288.139 299.025 288.086 298.971 288.05L293.708 284.518C293.273 284.227 292.981 283.767 292.9 283.248C291.985 277.371 295.967 273.899 298.201 272.883C298.78 272.62 299.453 272.668 299.989 273.01C301.647 274.069 303.483 275.037 304.722 275.54C304.15 273.618 302.441 270.72 299.488 268.716C296.468 266.668 291.226 271.496 291.174 271.545C290.557 272.131 289.62 272.23 288.895 271.784L259.389 253.591C258.593 253.1 258.28 252.099 258.654 251.244C260.081 247.97 259.688 244.993 257.546 242.862C255.264 240.593 251.551 239.799 248.489 240.861L252.597 244.835C254.276 246.459 254.672 248.979 253.56 250.964C252.952 252.053 252.125 253.013 251.104 253.82C249.458 255.121 247.125 255.258 245.299 254.163C243.952 253.354 243.056 252.954 242.498 252.758C242.857 253.884 244.053 256.045 246.914 258.667C250.457 261.914 255.934 258.159 255.989 258.121C256.311 257.896 256.687 257.783 257.063 257.783L257.061 257.781Z" fill="#371A45"></path>
  <path d="M285.246 267.334L281.943 265.295C281.943 265.295 276.901 266.695 278.071 272.327L280.173 273.59C277.408 281.472 264.089 276.25 260.679 267.96H260.673C259.841 265.959 259.597 263.781 260.216 261.561C260.216 261.561 263.5 251.37 272.153 250.638L277.915 253.941L284.145 257.52C284.145 257.52 287.229 259.209 285.246 267.336V267.334Z" fill="white"></path>
  <path d="M274.312 279.352C273.061 279.352 271.715 279.138 270.308 278.694C262.839 276.343 256.276 268.694 258.412 261.057C258.418 261.032 258.425 261.009 258.432 260.986C258.582 260.521 262.208 249.594 271.995 248.769C272.377 248.737 272.756 248.821 273.088 249.011L285.078 255.893C285.771 256.27 289.282 258.712 287.068 267.776C286.926 268.36 286.513 268.84 285.957 269.067C285.401 269.296 284.77 269.243 284.259 268.928L281.761 267.388C280.888 267.85 279.61 268.919 279.796 271.174L281.14 271.985C281.902 272.443 282.236 273.374 281.942 274.213C280.779 277.529 277.951 279.352 274.309 279.352H274.312ZM262.015 262.11C260.389 268.063 266.542 273.574 271.435 275.114C272.866 275.566 276.006 276.248 277.674 274.277L277.104 273.933C276.657 273.663 276.342 273.219 276.236 272.708C275.027 266.894 279.112 264.133 281.441 263.487C281.945 263.346 282.483 263.423 282.929 263.698L283.913 264.305C284.408 260.429 283.291 259.247 283.144 259.11L271.755 252.574C265.083 253.551 262.207 261.557 262.016 262.112L262.015 262.11ZM283.157 259.117C283.21 259.155 283.245 259.168 283.245 259.168L283.157 259.117Z" fill="#371A45"></path>
  <path d="M262.752 273.474C262.83 269.256 264.054 264.973 266.67 261.632C267.509 260.518 268.586 259.614 269.678 258.803C269.954 258.597 270.346 258.656 270.552 258.932C270.737 259.181 270.709 259.523 270.501 259.738C269.625 260.644 268.799 261.583 268.225 262.685C266.488 265.826 266.011 269.616 266.492 273.137C266.898 275.857 262.844 276.228 262.753 273.473L262.752 273.474Z" fill="#371A45"></path>
  <path d="M269.444 276.567C269.718 272.832 270.531 269.259 272.19 265.918C272.765 264.83 273.452 263.798 274.263 262.875C274.491 262.615 274.888 262.589 275.148 262.817C275.387 263.027 275.427 263.379 275.257 263.635C273.029 267.43 272.782 272.174 273.196 276.44C273.419 279.147 269.405 279.291 269.444 276.566V276.567Z" fill="#371A45"></path>
  <g opacity="0.25">
    <path d="M285.246 267.335L281.943 265.295C281.943 265.295 276.901 266.696 278.071 272.327L280.173 273.591C277.408 281.473 264.089 276.25 260.679 267.961C278.365 276.3 278.283 258.971 277.915 253.942L284.145 257.52C284.145 257.52 287.23 259.209 285.246 267.336V267.335Z" fill="#371A45"></path>
  </g>
  <path d="M284.145 257.517L276.094 252.9L272.153 250.635C272.153 250.635 271.709 245.975 275.437 245.975C277.514 245.975 280.18 247.106 282.394 248.476C284.164 249.565 285.641 250.809 286.304 251.742C287.799 253.855 286.986 257.096 284.145 257.516V257.517Z" fill="white"></path>
  <path d="M284.145 259.395C283.818 259.395 283.497 259.31 283.212 259.146L271.219 252.267C270.691 251.963 270.342 251.423 270.285 250.816C270.254 250.487 270.03 247.546 271.774 245.628C272.685 244.625 273.952 244.095 275.437 244.095C279.868 244.095 286.017 248.08 287.84 250.662C289.007 252.315 289.247 254.474 288.466 256.295C287.744 257.979 286.269 259.101 284.419 259.374C284.328 259.387 284.236 259.395 284.145 259.395ZM274.049 249.562L284.397 255.498C284.678 255.354 284.885 255.126 285.017 254.817C285.283 254.195 285.188 253.415 284.774 252.828C283.647 251.231 278.505 247.849 275.437 247.849C274.826 247.849 274.633 248.062 274.55 248.154C274.253 248.479 274.109 249.054 274.049 249.562Z" fill="#371A45"></path>
  <g opacity="0.25">
    <path d="M284.145 257.518L276.094 252.901C276.619 252.901 277.163 252.957 277.709 253.089C284.114 254.571 282.395 248.478 282.395 248.478C284.166 249.566 285.642 250.811 286.305 251.743C287.801 253.857 286.988 257.098 284.146 257.518H284.145Z" fill="#371A45"></path>
  </g>
  <path d="M447.611 75.4231L447.611 75.4231C449.478 75.0442 450.936 74.575 451.883 74.097C452.199 73.9375 452.424 73.7935 452.579 73.6747C452.415 73.5704 452.178 73.4474 451.85 73.3172C450.867 72.9268 449.377 72.5931 447.493 72.3879L447.489 72.3875C446.215 72.2451 445.018 71.702 444.072 70.8365L445.071 69.7451L444.072 70.8365C443.126 69.9709 442.479 68.8275 442.224 67.5708L442.224 67.5702C441.846 65.7033 441.377 64.2436 440.899 63.2962C440.742 62.9851 440.6 62.7616 440.482 62.6076C440.379 62.7716 440.256 63.0073 440.127 63.3321C439.735 64.316 439.396 65.8076 439.183 67.6968L447.611 75.4231ZM447.611 75.4231C446.356 75.6781 445.214 76.3245 444.349 77.2694M447.611 75.4231L444.349 77.2694M439.758 80.8159L439.759 80.8178C440.135 82.6784 440.603 84.1339 441.08 85.0791C441.238 85.3911 441.381 85.615 441.498 85.7689C441.602 85.6053 441.724 85.3699 441.853 85.0456C442.246 84.0616 442.584 82.5698 442.798 80.6821L439.758 80.8159ZM439.758 80.8159C439.503 79.5606 438.856 78.4186 437.911 77.554C436.966 76.6896 435.771 76.1469 434.499 76.0038C432.609 75.7903 431.114 75.4523 430.127 75.0602C429.802 74.931 429.567 74.8092 429.403 74.7056C429.557 74.5867 429.782 74.4427 430.097 74.2836C431.043 73.8048 432.5 73.3353 434.364 72.9602L434.365 72.9599M439.758 80.8159L434.365 72.9599M434.365 72.9599C435.622 72.7056 436.766 72.059 437.631 71.1132M434.365 72.9599L437.631 71.1132M444.349 77.2694C443.484 78.2141 442.941 79.4084 442.798 80.681L444.349 77.2694ZM437.631 71.1132C438.497 70.1677 439.04 68.972 439.183 67.6982L437.631 71.1132ZM440.696 62.3391C440.696 62.3391 440.695 62.3401 440.693 62.3417C440.695 62.3398 440.696 62.339 440.696 62.3391ZM440.249 62.3604C440.247 62.3591 440.246 62.3582 440.246 62.3582C440.246 62.3581 440.247 62.3588 440.249 62.3604ZM452.84 73.8841C452.84 73.8841 452.839 73.883 452.838 73.881C452.84 73.883 452.84 73.8841 452.84 73.8841ZM452.82 73.4455C452.821 73.4431 452.822 73.4418 452.822 73.4418C452.822 73.4418 452.822 73.443 452.82 73.4455ZM441.285 86.037C441.285 86.0369 441.287 86.036 441.289 86.0344C441.287 86.0363 441.285 86.037 441.285 86.037ZM441.731 86.0145C441.733 86.0159 441.734 86.0167 441.734 86.0168C441.734 86.0169 441.733 86.0162 441.731 86.0145ZM429.134 74.493C429.134 74.493 429.135 74.4941 429.137 74.4964C429.135 74.4941 429.134 74.493 429.134 74.493ZM429.158 74.9379C429.157 74.9405 429.156 74.9418 429.156 74.9418C429.156 74.9418 429.157 74.9405 429.158 74.9379Z" stroke="#FFD527" stroke-width="2.95852"></path>
  <path d="M17.4035 65.8242L17.4037 65.8242C18.8366 65.5334 19.9348 65.177 20.6315 64.8252C19.9083 64.5384 18.7867 64.2845 17.3423 64.1272L17.3382 64.1267C16.2803 64.0085 15.2871 63.5577 14.5017 62.8392C13.7163 62.1206 13.1791 61.1714 12.9674 60.1281L12.9673 60.1275C12.6783 58.7001 12.3236 57.6035 11.9731 56.9059C11.6855 57.6305 11.4287 58.752 11.2656 60.198C11.147 61.2554 10.6961 62.248 9.97756 63.0329C9.25878 63.8181 8.30936 64.3548 7.266 64.566L7.26452 64.5663C5.83569 64.8539 4.73912 65.21 4.043 65.562C4.76953 65.8498 5.89397 66.1064 7.34082 66.2699C8.39728 66.3887 9.38892 66.8392 10.1734 67.5568C10.9581 68.2745 11.4951 69.2226 11.7073 70.2647L11.7077 70.2666C11.9956 71.6901 12.3497 72.784 12.6999 73.4798C12.9874 72.7553 13.2441 71.6342 13.4076 70.1902L17.4035 65.8242ZM17.4035 65.8242C16.3613 66.0359 15.4132 66.5726 14.6952 67.357M17.4035 65.8242L14.6952 67.357M14.6952 67.357C13.9775 68.1412 13.5267 69.1327 13.4077 70.1891L14.6952 67.357Z" stroke="#FFD527" stroke-width="2.95852"></path>
  <path d="M264.626 156.021C258.629 149.894 254.836 141.983 253.835 133.51C251.274 112.118 266.721 92.7216 288.33 90.1882C309.939 87.6549 329.534 102.945 332.093 124.337C334.652 145.729 319.207 165.125 297.596 167.66C291.788 168.347 285.898 167.741 280.357 165.886L263.457 173.778L264.626 156.021Z" fill="white"></path>
  <path d="M293.424 113.592C293.093 113.592 292.767 113.595 292.448 113.599L291.512 113.625L291.057 113.645L290.177 113.696L289.336 113.766C282.061 114.472 279.101 117.432 278.396 124.707L278.326 125.548L278.274 126.428C278.266 126.577 278.259 126.729 278.254 126.882L278.228 127.819L278.222 128.302L278.221 128.795C278.221 129.127 278.224 129.452 278.228 129.771L278.254 130.708L278.274 131.162L278.326 132.043L278.396 132.883C279.101 140.158 282.061 143.118 289.336 143.824L290.177 143.894L291.057 143.945C291.206 143.953 291.358 143.961 291.512 143.965L292.448 143.991L293.424 143.999L294.4 143.991L295.337 143.965L295.791 143.945L296.672 143.894L297.512 143.824C304.787 143.118 307.747 140.158 308.453 132.883L308.523 132.043L308.575 131.162C308.582 131.013 308.59 130.861 308.594 130.708L308.62 129.771L308.628 128.795L308.62 127.819L308.594 126.882L308.575 126.428L308.523 125.548L308.453 124.707C307.747 117.432 304.787 114.472 297.512 113.766L296.672 113.696L295.791 113.645C295.64 113.637 295.488 113.631 295.337 113.625L294.4 113.599L293.917 113.593L293.424 113.592ZM293.424 119.673C294.588 119.673 295.707 120.117 296.553 120.916C297.4 121.714 297.909 122.805 297.978 123.966L297.985 124.234V125.754C298.752 125.754 299.491 126.044 300.054 126.565C300.616 127.087 300.961 127.802 301.018 128.567L301.026 128.795V133.356C301.026 134.123 300.736 134.862 300.215 135.425C299.693 135.987 298.978 136.332 298.213 136.389L297.985 136.397H288.863C288.096 136.397 287.357 136.107 286.795 135.586C286.232 135.064 285.888 134.349 285.83 133.584L285.822 133.356V128.795C285.822 128.028 286.112 127.289 286.634 126.727C287.155 126.164 287.87 125.82 288.635 125.762L288.863 125.754V124.234C288.863 123.024 289.344 121.864 290.199 121.009C291.054 120.153 292.215 119.673 293.424 119.673ZM297.985 128.795H288.863V133.356H297.985V128.795ZM293.424 122.714C293.052 122.714 292.692 122.85 292.414 123.098C292.136 123.345 291.958 123.686 291.915 124.056L291.904 124.234V125.754H294.945V124.234C294.945 123.831 294.784 123.444 294.499 123.159C294.214 122.874 293.827 122.714 293.424 122.714Z" fill="#371A45"></path>
  <g opacity="0.5">
    <path opacity="0.5" d="M289.137 97.1652C268.875 99.5647 254.017 116.885 254.242 136.838C253.927 135.465 253.684 134.076 253.516 132.677C250.947 110.985 266.451 91.3181 288.141 88.7494C309.831 86.1808 329.5 101.684 332.068 123.374C332.234 124.78 332.325 126.194 332.34 127.609C327.905 108.145 309.408 94.7706 289.137 97.1652Z" fill="white"></path>
  </g>
  <path d="M263.179 176.81C262.786 176.81 262.397 176.729 262.037 176.573C261.676 176.416 261.352 176.187 261.083 175.9C260.815 175.613 260.608 175.273 260.475 174.902C260.343 174.532 260.288 174.138 260.314 173.745L261.394 157.137C254.576 149.602 250.717 139.843 250.533 129.673C250.348 119.502 253.85 109.61 260.39 101.831C266.929 94.0516 276.062 88.9135 286.094 87.3697C296.126 85.8259 306.376 87.9812 314.943 93.4358C323.51 98.8904 329.812 107.274 332.681 117.031C335.549 126.789 334.789 137.258 330.542 146.496C326.294 155.735 318.847 163.116 309.583 167.27C300.318 171.424 289.865 172.07 280.161 169.087L264.411 176.537C264.025 176.718 263.604 176.812 263.179 176.81ZM292.509 92.4923C291.075 92.4921 289.641 92.5767 288.217 92.7455C281.509 93.5408 275.156 96.1981 269.875 100.418C264.593 104.638 260.593 110.252 258.324 116.629C256.055 123.005 255.609 129.89 257.035 136.506C258.462 143.123 261.704 149.21 266.396 154.079C266.674 154.367 266.889 154.711 267.027 155.088C267.165 155.464 267.223 155.865 267.197 156.266L266.352 169.256L278.729 163.404C279.402 163.086 280.171 163.042 280.875 163.28C285.973 165.013 291.395 165.575 296.739 164.925C316.591 162.568 330.833 144.461 328.482 124.562C326.31 106.107 310.612 92.4923 292.509 92.4923Z" fill="#371A45"></path>
  <g opacity="0.3">
    <path opacity="0.3" d="M264.15 156.039C276.723 162.616 292.164 163.271 305.821 156.436C320.966 148.854 330.05 133.994 330.982 118.221C331.533 120.193 331.93 122.204 332.171 124.237C334.74 145.929 319.237 165.594 297.545 168.165C291.715 168.861 285.803 168.247 280.241 166.365L263.276 174.368L264.451 156.363C264.348 156.257 264.252 156.147 264.15 156.039Z" fill="#371A45"></path>
  </g>
  <defs>
    <filter id="filter0_f_3820_6838" x="298.907" y="270.042" width="47.6044" height="64.352" color-interpolation-filters="sRGB">
      <feFlood flood-opacity="0" result="BackgroundImageFix"></feFlood>
      <feBlend mode="normal" in="SourceGraphic" in2="BackgroundImageFix" result="shape"></feBlend>
      <feGaussianBlur stdDeviation="6.63549" result="effect1_foregroundBlur_3820_6838"></feGaussianBlur>
    </filter>
    <filter id="filter1_f_3820_6838" x="318.64" y="270.326" width="47.6044" height="64.352" color-interpolation-filters="sRGB">
      <feFlood flood-opacity="0" result="BackgroundImageFix"></feFlood>
      <feBlend mode="normal" in="SourceGraphic" in2="BackgroundImageFix" result="shape"></feBlend>
      <feGaussianBlur stdDeviation="6.63549" result="effect1_foregroundBlur_3820_6838"></feGaussianBlur>
    </filter>
    <radialGradient id="paint0_radial_3820_6838" cx="0" cy="0" r="1" gradientUnits="userSpaceOnUse" gradientTransform="translate(321.636 302.985) scale(11.1068 18.0006)">
      <stop stop-color="#02BAF3"></stop>
      <stop offset="0.93" stop-color="#02BAF3"></stop>
    </radialGradient>
    <radialGradient id="paint1_radial_3820_6838" cx="0" cy="0" r="1" gradientUnits="userSpaceOnUse" gradientTransform="translate(341.241 303.272) scale(11.1068 18.0006)">
      <stop stop-color="#02BAF3"></stop>
      <stop offset="0.93" stop-color="#02BAF3"></stop>
    </radialGradient>
  </defs>
</svg>
