<?xml version="1.0" encoding="UTF-8"?>
<svg xmlns="http://www.w3.org/2000/svg" width="41" height="40" viewBox="0 0 41 40" fill="none">
  <g>
    <path d="M11.01 14.5183C6.67337 15.7233 3.83337 17.7283 3.83337 20C3.83337 23.6833 11.295 26.6666 20.5 26.6666C21.7884 26.6666 23.0434 26.6083 24.2467 26.4966M29.9867 25.4816C34.325 24.2783 37.1667 22.2716 37.1667 20C37.1667 16.3166 29.705 13.3333 20.5 13.3333C19.2117 13.3333 17.9567 13.3916 16.75 13.5033M11.0084 25.4783C9.88171 29.8366 10.2 33.3 12.1667 34.4333C15.355 36.275 21.6717 31.305 26.2734 23.3333C26.9184 22.2166 27.495 21.1016 28 20M29.99 14.5266C31.1184 10.1666 30.8017 6.69996 28.8334 5.56663C25.645 3.72496 19.3284 8.69496 14.7267 16.6666C14.0817 17.7833 13.505 18.9 12.9984 20M20.5 9.03999C17.2917 5.88666 14.1334 4.42999 12.1667 5.56666C8.97837 7.40666 10.1234 15.3617 14.7267 23.3333C15.37 24.45 16.0484 25.5067 16.7467 26.4933M20.5 30.9566C23.71 34.1116 26.8684 35.57 28.8334 34.4333C32.0217 32.5933 30.8767 24.6383 26.2734 16.6666C25.6484 15.5833 24.9734 14.5283 24.2534 13.505M19.6667 21.4433C19.8563 21.5545 20.0661 21.6271 20.2838 21.6568C20.5016 21.6866 20.7231 21.673 20.9356 21.6168C21.1481 21.5606 21.3474 21.463 21.522 21.3295C21.6966 21.196 21.8431 21.0292 21.953 20.8389C22.0629 20.6485 22.134 20.4383 22.1624 20.2204C22.1907 20.0024 22.1756 19.781 22.1181 19.5688C22.0605 19.3567 21.9615 19.1581 21.8268 18.9844C21.6921 18.8107 21.5244 18.6653 21.3334 18.5567C20.9508 18.3391 20.4977 18.2818 20.0729 18.3971C19.6482 18.5124 19.2863 18.791 19.0662 19.1722C18.8462 19.5533 18.7858 20.006 18.8983 20.4315C19.0108 20.857 19.287 21.2207 19.6667 21.4433Z" stroke="#371A45" stroke-width="2" stroke-linecap="round" stroke-linejoin="round"></path>
  </g>
</svg>
