<svg width="293" height="239" viewBox="0 0 293 239" fill="none" xmlns="http://www.w3.org/2000/svg">
<g clip-path="url(#clip0_2892_2936)">
<path d="M224.481 97.5418C224.472 97.9793 224.501 98.4168 224.564 98.8345C224.773 100.258 225.992 101.313 227.431 101.313H290.051C291.48 101.313 292.7 100.268 292.914 98.8543C293.001 98.2953 293.025 97.7166 292.976 97.119C292.714 93.6251 289.968 90.7238 286.493 90.2717C284.34 89.9944 282.329 90.6316 280.807 91.8511C281.215 90.2665 281.405 88.5898 281.351 86.8648C281.059 77.4856 273.333 69.8503 263.948 69.6557C260.177 69.5782 256.668 70.6762 253.757 72.6104C249.859 75.1914 247.046 79.2734 246.117 84.0263C245.826 84.0022 245.529 83.9876 245.228 83.9876C240.645 83.9876 236.743 86.8838 235.251 90.952C234.157 90.4224 232.918 90.1554 231.606 90.2183C227.729 90.4129 224.574 93.6587 224.482 97.5418H224.481Z" fill="white"/>
<path d="M55.8471 131.112C55.8471 131.561 55.8169 132.006 55.7584 132.443C55.6671 133.125 55.0617 133.621 54.3736 133.621H1.3038C0.378886 133.621 -0.236002 132.693 0.0878045 131.826C1.06525 129.205 3.59197 127.335 6.55532 127.335C6.65866 127.335 6.762 127.335 6.85674 127.343C6.63024 126.161 6.5269 124.933 6.56135 123.673C6.79129 115.143 13.5215 107.96 22.0231 107.222C31.5719 106.391 39.6619 113.468 40.4637 122.644C42.0156 121.652 43.8525 121.083 45.828 121.083C51.3646 121.083 55.8488 125.576 55.8488 131.113L55.8471 131.112Z" fill="white"/>
<path d="M87.6333 67.0067C88.4899 67.0067 89.1843 66.3123 89.1843 65.4557C89.1843 64.5991 88.4899 63.9047 87.6333 63.9047C86.7767 63.9047 86.0823 64.5991 86.0823 65.4557C86.0823 66.3123 86.7767 67.0067 87.6333 67.0067Z" fill="#000072"/>
<path d="M177.577 93.1003C178.369 92.7725 178.744 91.8652 178.417 91.0739C178.089 90.2825 177.182 89.9067 176.39 90.2345C175.599 90.5623 175.223 91.4696 175.551 92.2609C175.879 93.0523 176.786 93.4281 177.577 93.1003Z" fill="#000072"/>
<path d="M78.5254 158.418C79.382 158.418 80.0764 157.724 80.0764 156.867C80.0764 156.011 79.382 155.316 78.5254 155.316C77.6688 155.316 76.9744 156.011 76.9744 156.867C76.9744 157.724 77.6688 158.418 78.5254 158.418Z" fill="#000072"/>
<path d="M240.592 169.417C240.729 168.571 240.155 167.775 239.309 167.637C238.464 167.5 237.667 168.074 237.53 168.92C237.393 169.765 237.967 170.562 238.812 170.699C239.658 170.837 240.454 170.262 240.592 169.417Z" fill="#000072"/>
<path d="M170.783 98.7152C171.103 97.3603 170.264 96.0027 168.909 95.6829C167.554 95.3631 166.197 96.2022 165.877 97.5571C165.557 98.9121 166.396 100.27 167.751 100.589C169.106 100.909 170.464 100.07 170.783 98.7152Z" fill="#000072"/>
<path d="M81.2808 78.3703C82.567 77.8376 83.1777 76.363 82.645 75.0769C82.1122 73.7907 80.6377 73.1799 79.3515 73.7127C78.0654 74.2454 77.4546 75.72 77.9873 77.0061C78.5201 78.2923 79.9946 78.9031 81.2808 78.3703Z" fill="#000072"/>
<path d="M91.3263 131.949C91.0197 132.255 90.2352 132.009 89.3042 131.386C88.8306 131.07 88.2028 131.07 87.7291 131.386C86.799 132.009 86.0162 132.255 85.7105 131.949C85.4039 131.642 85.6485 130.859 86.272 129.929C86.5898 129.456 86.5898 128.828 86.272 128.353C85.6485 127.422 85.4039 126.638 85.7105 126.332C86.0171 126.026 86.7999 126.272 87.7308 126.895C88.2045 127.213 88.8323 127.213 89.3059 126.895C90.236 126.273 91.0188 126.027 91.3254 126.334C91.632 126.64 91.3857 127.423 90.7631 128.353C90.4462 128.827 90.4462 129.455 90.7631 129.928C91.3866 130.859 91.6329 131.643 91.3271 131.949H91.3263Z" fill="#000072"/>
<path d="M234.97 160.032C234.97 160.399 234.352 160.722 233.422 160.907C232.947 161.001 232.572 161.377 232.478 161.852C232.293 162.782 231.971 163.399 231.604 163.399C231.238 163.399 230.915 162.783 230.731 161.853C230.637 161.378 230.262 161.002 229.787 160.908C228.855 160.724 228.24 160.401 228.24 160.033C228.24 159.665 228.856 159.344 229.787 159.16C230.262 159.066 230.637 158.69 230.731 158.216C230.915 157.286 231.238 156.669 231.605 156.669C231.973 156.669 232.294 157.286 232.479 158.216C232.572 158.69 232.949 159.066 233.422 159.16C234.353 159.344 234.971 159.666 234.971 160.033L234.97 160.032Z" fill="#000072"/>
<path d="M71.2055 151.931C71.2055 152.298 70.588 152.621 69.6571 152.806C69.1826 152.9 68.8071 153.276 68.7132 153.751C68.529 154.681 68.2069 155.297 67.84 155.297C67.4731 155.297 67.1502 154.682 66.9668 153.752C66.8729 153.277 66.4974 152.901 66.0229 152.807C65.0911 152.623 64.4753 152.3 64.4753 151.932C64.4753 151.564 65.092 151.243 66.0229 151.059C66.4974 150.965 66.8729 150.588 66.9668 150.115C67.1502 149.185 67.4731 148.568 67.8409 148.568C68.2086 148.568 68.5298 149.185 68.7141 150.115C68.808 150.588 69.1843 150.965 69.658 151.059C70.5889 151.243 71.2064 151.565 71.2064 151.932L71.2055 151.931Z" fill="#000072"/>
<path d="M196.185 206.597C196.657 206.722 197.135 206.796 197.607 206.814C200.445 206.916 203.088 205.062 203.862 202.196L224.708 125.395C225.613 122.063 223.645 118.628 220.307 117.719C219.761 117.57 219.21 117.496 218.669 117.496C218.584 117.496 218.498 117.496 218.413 117.508C215.763 117.61 213.369 119.419 212.635 122.119L191.789 198.92C190.879 202.252 192.852 205.692 196.184 206.597L196.185 206.597Z" fill="#526A88"/>
<path d="M197.839 207.037C197.759 207.037 197.679 207.036 197.599 207.033C197.117 207.016 196.623 206.941 196.129 206.81H196.128C194.457 206.356 193.063 205.279 192.204 203.775C191.344 202.273 191.122 200.529 191.577 198.862L212.423 122.062C213.169 119.315 215.573 117.397 218.405 117.287C218.479 117.276 218.574 117.275 218.669 117.275C219.233 117.275 219.803 117.353 220.365 117.505C223.812 118.445 225.856 122.009 224.923 125.453L204.076 202.254C203.308 205.1 200.764 207.038 197.839 207.038V207.037ZM196.243 206.384C196.706 206.506 197.167 206.576 197.615 206.592C200.43 206.704 202.914 204.862 203.65 202.138L224.496 125.338C225.367 122.129 223.462 118.806 220.25 117.931C219.717 117.787 219.163 117.723 218.645 117.717C218.577 117.717 218.51 117.717 218.443 117.726C215.785 117.831 213.545 119.618 212.85 122.177L192.003 198.978C191.578 200.531 191.786 202.156 192.586 203.556C193.388 204.957 194.686 205.961 196.242 206.384H196.243Z" fill="#000072"/>
<path d="M196.185 206.597C196.657 206.722 197.135 206.796 197.607 206.814C200.445 206.916 203.088 205.062 203.862 202.196L224.708 125.395C225.613 122.063 223.645 118.628 220.307 117.719C219.761 117.57 219.21 117.496 218.669 117.496C218.584 117.496 218.498 117.496 218.413 117.508C215.763 117.61 213.369 119.419 212.635 122.119L191.789 198.92C190.879 202.252 192.852 205.692 196.184 206.597L196.185 206.597Z" fill="#D2E7F9"/>
<path d="M197.839 207.037C197.759 207.037 197.679 207.036 197.599 207.033C197.117 207.016 196.623 206.941 196.129 206.81H196.128C194.457 206.356 193.063 205.279 192.204 203.775C191.344 202.273 191.122 200.529 191.577 198.862L212.423 122.062C213.169 119.315 215.573 117.397 218.405 117.287C218.479 117.276 218.574 117.275 218.669 117.275C219.233 117.275 219.803 117.353 220.365 117.505C223.812 118.445 225.856 122.009 224.923 125.453L204.076 202.254C203.308 205.1 200.764 207.038 197.839 207.038V207.037ZM196.243 206.384C196.706 206.506 197.167 206.576 197.615 206.592C200.43 206.704 202.914 204.862 203.65 202.138L224.496 125.338C225.367 122.129 223.462 118.806 220.25 117.931C219.717 117.787 219.163 117.723 218.645 117.717C218.577 117.717 218.51 117.717 218.443 117.726C215.785 117.831 213.545 119.618 212.85 122.177L192.003 198.978C191.578 200.531 191.786 202.156 192.586 203.556C193.388 204.957 194.686 205.961 196.242 206.384H196.243Z" fill="#000072"/>
<g opacity="0.3">
<path d="M196.185 206.597C196.657 206.722 197.135 206.796 197.607 206.814C200.444 206.916 203.088 205.062 203.861 202.196L224.708 125.395C225.612 122.063 223.645 118.628 220.307 117.719C219.761 117.57 219.21 117.496 218.669 117.496C218.583 117.496 218.498 117.496 218.413 117.508C215.763 117.61 213.369 119.419 212.635 122.119L191.788 198.92C190.879 202.252 192.852 205.692 196.184 206.597L196.185 206.597Z" fill="#000072"/>
</g>
<path d="M197.84 208.087C197.748 208.087 197.655 208.086 197.561 208.082C197.002 208.062 196.43 207.975 195.86 207.825C195.857 207.825 195.855 207.824 195.852 207.823C193.911 207.296 192.291 206.044 191.292 204.296C190.294 202.552 190.036 200.524 190.565 198.586L211.411 121.787C212.273 118.612 215.044 116.388 218.316 116.241C218.434 116.229 218.551 116.226 218.669 116.226C219.325 116.226 219.988 116.316 220.64 116.492C224.645 117.584 227.02 121.727 225.934 125.728L205.088 202.528C204.195 205.834 201.238 208.087 197.839 208.087H197.84ZM196.514 205.371C196.899 205.473 197.283 205.531 197.652 205.544C199.961 205.627 202.03 204.116 202.636 201.865L223.483 125.063C224.202 122.412 222.627 119.668 219.973 118.944C219.523 118.822 219.069 118.763 218.62 118.766C218.604 118.766 218.589 118.766 218.572 118.768C218.533 118.773 218.502 118.775 218.463 118.777C216.285 118.861 214.436 120.338 213.861 122.453L193.016 199.253C192.665 200.537 192.836 201.88 193.497 203.036C194.158 204.192 195.23 205.021 196.514 205.371Z" fill="#000072"/>
<path d="M133.526 206.597C134.044 206.733 134.555 206.808 135.062 206.814H197.606C197.134 206.796 196.656 206.722 196.184 206.597C192.853 205.693 190.879 202.253 191.789 198.921L212.636 122.12C213.369 119.419 215.764 117.611 218.413 117.508L156.221 117.502C156.153 117.496 156.085 117.496 156.016 117.496C153.259 117.496 150.734 119.333 149.977 122.119L129.131 198.92C128.226 202.252 130.194 205.692 133.526 206.597V206.597Z" fill="#526A88"/>
<path d="M197.606 207.034H135.062C134.546 207.029 134.011 206.953 133.47 206.811H133.469C130.024 205.876 127.983 202.31 128.918 198.863L149.765 122.062C150.53 119.245 153.101 117.276 156.017 117.276C156.091 117.276 156.166 117.276 156.241 117.283L218.414 117.287L218.423 117.728C215.785 117.831 213.545 119.618 212.85 122.178L192.003 198.978C191.579 200.532 191.786 202.157 192.587 203.557C193.388 204.958 194.687 205.962 196.243 206.385C196.705 206.507 197.166 206.577 197.615 206.593L197.607 207.035L197.606 207.034ZM133.585 206.385C134.09 206.517 134.588 206.588 135.064 206.593H195.465C194.088 206.057 192.946 205.076 192.202 203.776C191.343 202.274 191.121 200.53 191.576 198.863L212.422 122.062C212.973 120.035 214.426 118.459 216.288 117.729L156.22 117.724C156.14 117.718 156.078 117.718 156.015 117.718C153.297 117.718 150.902 119.551 150.189 122.178L129.343 198.978C128.471 202.191 130.373 205.513 133.583 206.385H133.585Z" fill="#000072"/>
<g opacity="0.55">
<path d="M218.411 117.827C216.475 117.905 214.672 118.892 213.554 120.477L155.254 120.472C155.187 120.467 155.119 120.467 155.052 120.467C152.859 120.467 150.812 121.633 149.689 123.512L149.979 122.442C150.735 119.653 153.26 117.817 156.016 117.817C156.083 117.817 156.151 117.817 156.218 117.822L218.411 117.827Z" fill="white"/>
</g>
<path d="M197.606 208.083H135.061C134.448 208.076 133.827 207.99 133.203 207.825C133.2 207.825 133.197 207.824 133.194 207.823C129.191 206.736 126.818 202.594 127.905 198.588L148.752 121.788C149.641 118.514 152.627 116.227 156.017 116.227C156.099 116.227 156.183 116.227 156.266 116.233L218.414 116.238C219.106 116.238 219.671 116.792 219.683 117.484C219.697 118.175 219.155 118.75 218.463 118.777C216.285 118.861 214.436 120.338 213.862 122.453L193.016 199.253C192.665 200.537 192.837 201.88 193.497 203.036C194.16 204.193 195.233 205.023 196.518 205.372C196.897 205.473 197.281 205.531 197.653 205.544C198.344 205.569 198.889 206.144 198.877 206.836C198.864 207.528 198.3 208.083 197.607 208.083H197.606ZM133.855 205.371C134.275 205.481 134.686 205.539 135.075 205.543H192.181C191.847 205.164 191.549 204.746 191.292 204.296C190.294 202.552 190.035 200.524 190.564 198.586L211.41 121.787C211.721 120.642 212.28 119.622 213.02 118.777L156.221 118.772C156.185 118.772 156.148 118.77 156.111 118.768C156.08 118.765 156.047 118.768 156.016 118.767C153.771 118.767 151.792 120.282 151.203 122.453L130.356 199.253C129.636 201.906 131.205 204.649 133.854 205.371H133.855Z" fill="#000072"/>
<path d="M62.4497 213.084H140.428C144.107 213.084 147.091 210.101 147.091 206.421C147.091 202.741 144.107 199.758 140.428 199.758H62.4497C58.7698 199.758 55.7867 202.741 55.7867 206.421C55.7867 210.101 58.7698 213.084 62.4497 213.084Z" fill="#D2E7F9"/>
<path d="M140.428 213.305H62.4499C58.6546 213.305 55.5664 210.217 55.5664 206.421C55.5664 202.625 58.6546 199.537 62.4499 199.537H140.428C144.223 199.537 147.311 202.626 147.311 206.421C147.311 210.216 144.223 213.305 140.428 213.305ZM62.4499 199.979C58.8975 199.979 56.0082 202.868 56.0082 206.421C56.0082 209.973 58.8975 212.863 62.4499 212.863H140.428C143.98 212.863 146.869 209.973 146.869 206.421C146.869 202.868 143.98 199.979 140.428 199.979H62.4499Z" fill="#000072"/>
<g opacity="0.3">
<path d="M55.7869 206.421C55.7869 208.26 56.537 209.922 57.7435 211.128C58.95 212.335 60.6121 213.085 62.4507 213.085H140.428C144.105 213.085 147.092 210.099 147.092 206.421C147.092 205.45 146.886 204.531 146.503 203.707C145.473 206.032 143.135 207.65 140.429 207.65H62.4516C60.613 207.65 58.9509 206.907 57.7443 205.701C57.1708 205.127 56.7075 204.458 56.3759 203.708C55.9936 204.532 55.7877 205.451 55.7877 206.422L55.7869 206.421Z" fill="#000072"/>
</g>
<path d="M140.428 214.355H62.45C58.076 214.355 54.5176 210.797 54.5176 206.422C54.5176 202.047 58.076 198.489 62.45 198.489H140.428C144.802 198.489 148.36 202.048 148.36 206.422C148.36 210.796 144.802 214.355 140.428 214.355ZM62.45 201.029C59.4763 201.029 57.0572 203.448 57.0572 206.422C57.0572 209.395 59.4763 211.815 62.45 211.815H140.428C143.402 211.815 145.821 209.395 145.821 206.422C145.821 203.448 143.402 201.029 140.428 201.029H62.45Z" fill="#000072"/>
<path d="M143.22 213.084H186.402C190.082 213.084 193.065 210.101 193.065 206.421C193.065 202.741 190.082 199.758 186.402 199.758H143.22C139.54 199.758 136.557 202.741 136.557 206.421C136.557 210.101 139.54 213.084 143.22 213.084Z" fill="#FDF5CF"/>
<path d="M186.401 213.305H143.22C139.424 213.305 136.336 210.217 136.336 206.421C136.336 202.625 139.424 199.537 143.22 199.537H186.401C190.197 199.537 193.286 202.626 193.286 206.421C193.286 210.216 190.197 213.305 186.401 213.305ZM143.22 199.979C139.667 199.979 136.778 202.868 136.778 206.421C136.778 209.973 139.667 212.863 143.22 212.863H186.401C189.954 212.863 192.844 209.973 192.844 206.421C192.844 202.868 189.954 199.979 186.401 199.979H143.22Z" fill="#000072"/>
<path d="M143.22 213.084H186.402C190.082 213.084 193.065 210.101 193.065 206.421C193.065 202.741 190.082 199.758 186.402 199.758H143.22C139.54 199.758 136.557 202.741 136.557 206.421C136.557 210.101 139.54 213.084 143.22 213.084Z" fill="#D2E7F9"/>
<path d="M186.401 213.305H143.22C139.424 213.305 136.336 210.217 136.336 206.421C136.336 202.625 139.424 199.537 143.22 199.537H186.401C190.197 199.537 193.286 202.626 193.286 206.421C193.286 210.216 190.197 213.305 186.401 213.305ZM143.22 199.979C139.667 199.979 136.778 202.868 136.778 206.421C136.778 209.973 139.667 212.863 143.22 212.863H186.401C189.954 212.863 192.844 209.973 192.844 206.421C192.844 202.868 189.954 199.979 186.401 199.979H143.22Z" fill="#000072"/>
<g opacity="0.3">
<path d="M186.401 208.228H143.22C140.398 208.228 137.991 206.471 137.02 203.993C136.725 204.746 136.557 205.563 136.557 206.421C136.557 210.101 139.54 213.084 143.22 213.084H186.401C190.081 213.084 193.064 210.101 193.064 206.421C193.064 205.563 192.896 204.746 192.601 203.993C191.63 206.471 189.223 208.228 186.401 208.228Z" fill="#000072"/>
</g>
<path d="M186.401 214.355H143.22C138.846 214.355 135.287 210.797 135.287 206.422C135.287 202.047 138.846 198.489 143.22 198.489H186.401C190.776 198.489 194.335 202.048 194.335 206.422C194.335 210.796 190.776 214.355 186.401 214.355ZM143.22 201.029C140.246 201.029 137.827 203.448 137.827 206.422C137.827 209.395 140.246 211.815 143.22 211.815H186.401C189.375 211.815 191.795 209.395 191.795 206.422C191.795 203.448 189.375 201.029 186.401 201.029H143.22Z" fill="#000072"/>
<path d="M204.139 132.482L203.609 134.424V134.432L195.57 164.043L189.193 187.549C189.075 187.968 188.848 188.328 188.546 188.6C188.155 188.96 187.634 189.167 187.082 189.167H139.759C138.318 189.167 137.266 187.799 137.648 186.409L138.538 183.128L149.666 142.117L150.387 139.447L152.594 131.335C152.807 130.555 153.432 129.966 154.197 129.783C154.359 129.746 154.528 129.724 154.704 129.724H202.027C203.468 129.724 204.513 131.093 204.137 132.483L204.139 132.482Z" fill="#11E2F7"/>
<g opacity="0.55">
<path d="M187.946 188.984L187.667 190.014C187.551 190.434 187.319 190.795 187.021 191.065C186.631 191.427 186.11 191.633 185.556 191.633H138.236C136.791 191.633 135.74 190.265 136.121 188.873L137.012 185.597L148.142 144.584L148.861 141.915L151.067 133.8C151.25 133.15 151.713 132.629 152.31 132.374L150.387 139.447L149.665 142.117L138.54 183.129L137.649 186.405C137.268 187.798 138.319 189.166 139.76 189.166H187.083C187.382 189.166 187.676 189.103 187.946 188.983L187.946 188.984Z" fill="white"/>
</g>
<g opacity="0.47">
<path d="M188.794 156.426H153.543C153.103 156.426 152.786 156.005 152.905 155.582L157.567 139.092C157.725 138.533 158.236 138.147 158.817 138.147H193.717C194.192 138.147 194.539 138.597 194.416 139.056L190.045 155.464C189.894 156.03 189.381 156.425 188.794 156.425L188.794 156.426Z" fill="white"/>
<path d="M186.263 164.382H151.87C151.299 164.382 150.894 163.827 151.068 163.283L152.135 159.94C152.229 159.643 152.505 159.441 152.817 159.441H188.085C188.608 159.441 188.99 159.935 188.859 160.441L188.234 162.858C188.001 163.755 187.192 164.382 186.264 164.382H186.263Z" fill="white"/>
<path d="M182.408 179.441H148.015C147.444 179.441 147.039 178.885 147.213 178.342L148.28 174.999C148.374 174.702 148.65 174.5 148.962 174.5H184.23C184.753 174.5 185.135 174.994 185.004 175.5L184.379 177.916C184.146 178.814 183.337 179.441 182.409 179.441H182.408Z" fill="white"/>
<path d="M172.955 170.98H155.713C155.427 170.98 155.224 170.701 155.311 170.428L155.846 168.753C155.893 168.604 156.032 168.503 156.188 168.503H173.869C174.131 168.503 174.323 168.75 174.257 169.004L173.944 170.216C173.827 170.666 173.421 170.98 172.957 170.98H172.955Z" fill="white"/>
<path d="M153.738 170.133C154.223 168.787 153.779 167.395 152.746 167.023C151.714 166.65 150.483 167.439 149.998 168.785C149.513 170.13 149.958 171.523 150.99 171.895C152.023 172.267 153.253 171.478 153.738 170.133Z" fill="white"/>
</g>
<path opacity="0.29" d="M181.478 129.724L138.54 183.128L149.668 142.117L150.389 139.447L158.215 129.724H181.478Z" fill="url(#paint0_linear_2892_2936)"/>
<path opacity="0.29" d="M204.139 132.482L203.609 134.424V134.432L159.598 189.167H144.321L192.121 129.724H202.028C203.47 129.724 204.515 131.093 204.139 132.483V132.482Z" fill="url(#paint1_linear_2892_2936)"/>
<g opacity="0.3">
<path d="M139.597 189.159L154.756 133.305C154.895 132.79 155.366 132.437 155.896 132.437H204.145C204.49 131.062 203.453 129.724 202.026 129.724H154.704C153.719 129.724 152.851 130.386 152.593 131.334L137.648 186.408C137.28 187.746 138.236 189.063 139.597 189.158V189.159Z" fill="#000072"/>
</g>
<path d="M187.079 190.435H139.757C138.672 190.435 137.671 189.94 137.012 189.077C136.352 188.215 136.137 187.12 136.421 186.073L151.369 131.004C151.777 129.502 153.148 128.453 154.705 128.453H202.027C203.113 128.453 204.114 128.948 204.773 129.811C205.433 130.673 205.647 131.768 205.363 132.816L190.416 187.885C190.008 189.387 188.637 190.436 187.08 190.436L187.079 190.435ZM154.705 130.993C154.291 130.993 153.928 131.271 153.82 131.67L138.873 186.738C138.797 187.016 138.855 187.307 139.029 187.535C139.204 187.764 139.47 187.895 139.758 187.895H187.08C187.493 187.895 187.857 187.617 187.965 187.218L202.912 132.15C202.988 131.871 202.93 131.581 202.756 131.353C202.582 131.124 202.315 130.993 202.028 130.993H154.706H154.705Z" fill="#000072"/>
<path d="M99.5611 205.184H87.5932C84.6014 205.184 82.1677 202.751 82.1677 199.759C82.1677 199.149 82.662 198.656 83.2709 198.656C83.8798 198.656 84.3741 199.15 84.3741 199.759C84.3741 201.534 85.8183 202.978 87.5932 202.978H99.5611C101.336 202.978 102.78 201.534 102.78 199.759C102.78 199.149 103.275 198.656 103.883 198.656C104.492 198.656 104.987 199.15 104.987 199.759C104.987 202.751 102.553 205.184 99.5603 205.184H99.5611Z" fill="#000072"/>
<path d="M153.366 205.084H147.781C147.495 205.084 147.264 205.316 147.264 205.601V207.241C147.264 207.526 147.495 207.757 147.781 207.757H153.366C153.652 207.757 153.883 207.526 153.883 207.241V205.601C153.883 205.316 153.652 205.084 153.366 205.084Z" fill="#000072"/>
<path d="M162.632 205.084H157.046C156.761 205.084 156.53 205.316 156.53 205.601V207.241C156.53 207.526 156.761 207.757 157.046 207.757H162.632C162.918 207.757 163.149 207.526 163.149 207.241V205.601C163.149 205.316 162.918 205.084 162.632 205.084Z" fill="#000072"/>
<path d="M185.363 209.764H186.417C186.658 209.764 186.854 209.569 186.854 209.327V204.298C186.854 204.057 186.658 203.861 186.417 203.861H185.363C185.122 203.861 184.926 204.057 184.926 204.298V209.327C184.926 209.569 185.122 209.764 185.363 209.764Z" fill="#000072"/>
<path d="M182.275 209.764H183.329C183.57 209.764 183.766 209.569 183.766 209.327V204.298C183.766 204.057 183.57 203.861 183.329 203.861H182.275C182.034 203.861 181.839 204.057 181.839 204.298V209.327C181.839 209.569 182.034 209.764 182.275 209.764Z" fill="#000072"/>
<path d="M179.325 209.764H180.379C180.62 209.764 180.816 209.569 180.816 209.327V204.298C180.816 204.057 180.62 203.861 180.379 203.861H179.325C179.084 203.861 178.889 204.057 178.889 204.298V209.327C178.889 209.569 179.084 209.764 179.325 209.764Z" fill="#000072"/>
<path d="M39.8163 213.085H128.357V223.881H39.8163C38.0638 223.881 36.6411 222.458 36.6411 220.705V216.261C36.6411 214.508 38.0638 213.086 39.8163 213.086V213.085Z" fill="#F2A549"/>
<path d="M128.577 224.101H39.8158C37.9436 224.101 36.4202 222.578 36.4202 220.705V216.261C36.4202 214.388 37.9436 212.864 39.8158 212.864H128.577V224.101ZM39.8158 213.305C38.1865 213.305 36.8611 214.631 36.8611 216.26V220.705C36.8611 222.334 38.1865 223.659 39.8158 223.659H128.135V213.305H39.8158Z" fill="#000072"/>
<path d="M128.356 225.15H39.8161C37.3651 225.15 35.3706 223.156 35.3706 220.704V216.26C35.3706 213.809 37.3643 211.814 39.8161 211.814H128.356C129.057 211.814 129.627 212.383 129.627 213.085V223.881C129.627 224.582 129.058 225.151 128.356 225.151V225.15ZM39.8161 214.354C38.7654 214.354 37.9111 215.209 37.9111 216.26V220.704C37.9111 221.755 38.7663 222.609 39.8161 222.609H127.086V214.354H39.8161Z" fill="#000072"/>
<path d="M128.357 213.085H241.766C243.888 213.085 245.611 214.808 245.611 216.93V220.035C245.611 222.157 243.888 223.88 241.766 223.88H128.357V213.084V213.085Z" fill="#F2A549"/>
<path d="M241.765 224.101H128.135V212.864H241.765C244.008 212.864 245.832 214.688 245.832 216.931V220.035C245.832 222.278 244.008 224.102 241.765 224.102V224.101ZM128.577 223.659H241.765C243.764 223.659 245.39 222.033 245.39 220.035V216.93C245.39 214.931 243.764 213.305 241.765 213.305H128.577V223.659Z" fill="#000072"/>
<g opacity="0.55">
<path d="M245.188 216.932V220.035C245.188 222.16 243.465 223.879 241.345 223.879H238.17C240.292 223.879 242.014 222.16 242.014 220.035V216.932C242.014 214.808 240.291 213.085 238.17 213.085H241.345C243.466 213.085 245.188 214.808 245.188 216.932Z" fill="white"/>
</g>
<path d="M241.766 225.15H128.357C127.656 225.15 127.086 224.582 127.086 223.88V213.084C127.086 212.383 127.655 211.814 128.357 211.814H241.766C244.586 211.814 246.881 214.109 246.881 216.929V220.034C246.881 222.854 244.586 225.149 241.766 225.149V225.15ZM129.626 222.61H241.766C243.186 222.61 244.341 221.455 244.341 220.035V216.93C244.341 215.51 243.186 214.354 241.766 214.354H129.626V222.61V222.61Z" fill="#000072"/>
<path d="M46.6589 223.881H120.314V229.877H49.8867C48.1049 229.877 46.6589 228.431 46.6589 226.649V223.881Z" fill="#F2A549"/>
<path d="M120.534 230.098H49.8869C47.9854 230.098 46.4387 228.551 46.4387 226.649V223.659H120.535V230.098H120.534ZM46.8796 224.101V226.649C46.8796 228.307 48.2283 229.657 49.8869 229.657H120.093V224.101H46.8796Z" fill="#000072"/>
<g opacity="0.3">
<path d="M128.357 213.085V216.175H39.8163C38.0621 216.175 36.6411 217.596 36.6411 219.35V216.26C36.6411 214.507 38.0629 213.085 39.8163 213.085C38.0621 213.085 36.6411 214.507 36.6411 216.26V220.705C36.6411 222.458 38.0629 223.88 39.8163 223.88H128.356V213.085H128.357Z" fill="#000072"/>
</g>
<g opacity="0.3">
<path d="M46.6589 223.881H120.314V229.877H49.8867C48.1049 229.877 46.6589 228.431 46.6589 226.649V223.881Z" fill="#000072"/>
</g>
<path d="M120.314 223.881H236.722V225.468C236.722 227.902 234.747 229.877 232.313 229.877H120.315V223.881H120.314Z" fill="#F2A549"/>
<path d="M232.313 230.098H120.093V223.659H236.942V225.468C236.942 228.02 234.865 230.098 232.313 230.098ZM120.535 229.656H232.313C234.622 229.656 236.501 227.777 236.501 225.467V224.1H120.535V229.656Z" fill="#000072"/>
<g opacity="0.55">
<path d="M236.722 223.879V225.466C236.722 227.904 234.749 229.877 232.311 229.877H229.03C231.468 229.877 233.441 227.904 233.441 225.466V223.879H236.722Z" fill="white"/>
</g>
<path d="M120.314 231.147H49.8869C47.4067 231.147 45.3889 229.13 45.3889 226.649V223.881C45.3889 223.18 45.9573 222.61 46.6592 222.61H120.314C121.015 222.61 121.584 223.179 121.584 223.881V229.877C121.584 230.578 121.016 231.147 120.314 231.147ZM47.9294 225.151V226.65C47.9294 227.729 48.8078 228.608 49.8869 228.608H119.044V225.151H47.9286H47.9294Z" fill="#000072"/>
<path d="M232.312 231.147H120.314C119.613 231.147 119.043 230.579 119.043 229.877V223.881C119.043 223.18 119.612 222.61 120.314 222.61H236.721C237.422 222.61 237.992 223.179 237.992 223.881V225.468C237.992 228.599 235.444 231.147 232.312 231.147ZM121.583 228.608H232.312C234.043 228.608 235.452 227.2 235.452 225.468V225.15H121.584V228.607L121.583 228.608Z" fill="#000072"/>
<path d="M163.986 191.918C163.748 191.918 163.507 191.868 163.277 191.762C162.433 191.37 162.066 190.367 162.458 189.522C162.842 188.693 163.153 187.832 163.383 186.963C163.62 186.062 164.544 185.525 165.444 185.764C166.344 186.001 166.881 186.924 166.644 187.824C166.364 188.885 165.985 189.933 165.517 190.942C165.231 191.557 164.623 191.918 163.986 191.918Z" fill="#000072"/>
<path d="M138.259 172.713C137.78 172.713 137.304 172.51 136.97 172.115C136.369 171.404 136.459 170.34 137.17 169.739C137.951 169.079 138.771 168.474 139.607 167.942C140.393 167.441 141.436 167.673 141.936 168.458C142.436 169.243 142.205 170.286 141.42 170.787C140.71 171.239 140.013 171.753 139.347 172.315C139.03 172.583 138.644 172.713 138.259 172.713Z" fill="#000072"/>
<path d="M166.849 199.757H89.1123C85.0794 199.757 81.2781 197.763 79.0709 194.385C74.3731 187.191 76.6957 178.071 83.6533 174.081V174.076C86.2403 172.592 89.474 171.816 93.2271 172.12C94.133 169.075 98.0256 166.868 101.148 169.677C106.121 163.013 112.5 162.618 116.248 166.179V102.756L128.708 102.525V168.086C131.888 163.788 138.518 164.131 140.512 169.363C153.82 160.868 168.559 173.931 165.013 187.393C168.111 187.538 170.799 189.682 171.778 192.698C171.783 192.707 171.787 192.722 171.797 192.746C171.859 192.949 171.917 193.156 171.965 193.368C172.727 196.64 170.202 199.757 166.848 199.757H166.849Z" fill="white"/>
<path d="M166.849 199.978H89.1126C84.9487 199.978 81.1259 197.933 78.8869 194.506C76.5866 190.984 75.8434 186.865 76.7942 182.907C77.7087 179.1 80.0641 175.925 83.4322 173.955L83.5433 173.886C86.2655 172.325 89.5561 171.637 93.0697 171.888C93.6373 170.197 95.0625 168.815 96.7462 168.341C98.2696 167.912 99.812 168.274 101.114 169.357C103.666 166.018 106.801 164.035 109.965 163.765C112.204 163.575 114.335 164.255 116.028 165.687V102.542L128.93 102.302V167.463C130.57 165.587 132.998 164.641 135.408 164.97C137.781 165.296 139.667 166.773 140.619 169.038C146.498 165.398 153.23 165.587 158.676 169.56C164.253 173.628 166.891 180.683 165.292 187.192C168.337 187.448 171.006 189.604 171.988 192.632L172.008 192.683C172.072 192.891 172.132 193.103 172.181 193.321C172.556 194.931 172.178 196.602 171.143 197.904C170.096 199.223 168.53 199.98 166.849 199.98V199.978ZM83.8619 174.212L83.7629 174.273C80.4422 176.177 78.1195 179.28 77.2239 183.01C76.3016 186.849 77.0232 190.845 79.2563 194.264C81.4127 197.566 85.0977 199.537 89.1126 199.537H166.849C168.395 199.537 169.834 198.841 170.798 197.627C171.748 196.431 172.095 194.896 171.751 193.418C171.704 193.21 171.648 193.008 171.587 192.812L171.569 192.766C170.614 189.823 167.976 187.752 165.003 187.613L164.73 187.601L164.8 187.336C166.487 180.931 163.921 173.929 158.416 169.913C153.051 166.001 146.403 165.865 140.631 169.548L140.403 169.694L140.307 169.441C139.449 167.19 137.641 165.719 135.348 165.404C132.891 165.066 130.418 166.146 128.887 168.216L128.489 168.754V102.749L116.47 102.972V166.691L116.097 166.337C114.443 164.766 112.279 164.009 110.003 164.201C106.908 164.465 103.826 166.456 101.326 169.807L101.181 170L101.001 169.839C99.7775 168.738 98.3083 168.356 96.8667 168.762C95.2692 169.212 93.924 170.554 93.4401 172.181L93.3892 172.352L93.211 172.338C89.7611 172.06 86.5333 172.706 83.8628 174.209L83.8619 174.212Z" fill="#000072"/>
<path d="M166.849 201.027H89.112C84.5916 201.027 80.4407 198.804 78.0079 195.08C74.6423 189.928 74.4494 183.537 77.5041 178.4C80.4924 173.375 85.9962 170.577 92.3836 170.8C93.1914 169.138 94.7089 167.823 96.4614 167.33C97.996 166.899 99.5384 167.114 100.913 167.931C103.53 164.83 106.676 162.992 109.875 162.719C111.684 162.565 113.43 162.916 114.978 163.723V102.758C114.978 102.066 115.532 101.502 116.224 101.489L128.684 101.257C129.018 101.25 129.354 101.382 129.597 101.621C129.84 101.859 129.977 102.185 129.977 102.526V165.184C131.624 164.126 133.59 163.662 135.549 163.93C137.871 164.249 139.845 165.577 141.048 167.574C147.06 164.303 153.788 164.696 159.293 168.71C164.895 172.796 167.7 179.729 166.544 186.326C169.773 187.062 172.41 189.672 173.201 193.081C173.649 195.004 173.197 197 171.963 198.554C170.715 200.126 168.85 201.027 166.847 201.027H166.849ZM91.6249 173.325C86.4216 173.325 82.1235 175.599 79.6872 179.697C77.132 183.995 77.3034 189.357 80.1341 193.691C82.0968 196.695 85.4528 198.488 89.112 198.488H166.849C168.073 198.488 169.213 197.937 169.976 196.975C170.726 196.031 171 194.822 170.729 193.656C170.077 190.843 167.701 188.79 164.954 188.662C164.571 188.644 164.217 188.455 163.99 188.146C163.762 187.837 163.687 187.441 163.786 187.07C165.364 181.079 162.957 174.525 157.798 170.762C152.796 167.115 146.589 166.991 141.197 170.434C140.875 170.639 140.477 170.689 140.115 170.569C139.752 170.449 139.463 170.173 139.327 169.815C138.61 167.935 137.108 166.706 135.206 166.445C133.132 166.162 131.035 167.078 129.731 168.841C129.405 169.283 128.833 169.464 128.312 169.292C127.791 169.12 127.44 168.634 127.44 168.086V103.819L117.52 104.003V166.179C117.52 166.686 117.218 167.146 116.751 167.345C116.285 167.547 115.744 167.448 115.376 167.099C113.942 165.737 112.063 165.081 110.094 165.248C107.301 165.486 104.487 167.329 102.168 170.435C101.954 170.722 101.63 170.905 101.275 170.939C100.923 170.975 100.566 170.858 100.301 170.62C99.088 169.529 97.9194 169.557 97.152 169.773C95.9119 170.123 94.8243 171.21 94.4462 172.482C94.2748 173.057 93.7245 173.434 93.126 173.385C92.6188 173.344 92.1193 173.324 91.6267 173.324L91.6249 173.325Z" fill="#000072"/>
<path d="M165.013 189.08H165.008C164.076 189.08 163.322 188.326 163.322 187.394C163.322 186.462 164.076 185.708 165.008 185.708C165.94 185.708 166.697 186.462 166.697 187.394C166.697 188.326 165.944 189.08 165.013 189.08Z" fill="#000072"/>
<path d="M117.123 165.259C118.042 165.954 118.742 166.9 119.247 167.906C119.757 168.915 120.036 170.011 120.176 171.089C120.315 172.171 120.292 173.251 120.149 174.294C119.998 175.338 119.734 176.348 119.337 177.301C119.298 177.396 119.188 177.44 119.093 177.401C119.027 177.373 118.985 177.311 118.979 177.244V177.24C118.895 176.229 118.804 175.253 118.636 174.308C118.477 173.364 118.247 172.455 117.943 171.598C117.642 170.739 117.242 169.946 116.816 169.202C116.385 168.455 115.889 167.783 115.373 167.1L115.333 167.047C114.907 166.484 115.019 165.683 115.582 165.258C116.048 164.906 116.679 164.923 117.122 165.258L117.123 165.259Z" fill="#000072"/>
<path d="M94.5724 176.988C93.6354 176.693 92.7949 175.988 92.285 175.01C92.0344 174.524 91.8631 173.974 91.8381 173.414C91.8114 172.857 91.9061 172.29 92.1688 171.806C92.465 171.261 93.1462 171.059 93.6922 171.354C94.0513 171.549 94.2615 171.91 94.2795 172.29L94.2856 172.433C94.3019 172.79 94.264 173.099 94.2373 173.418C94.2115 173.734 94.1736 174.06 94.1874 174.41C94.1969 174.758 94.252 175.128 94.3562 175.516C94.4544 175.909 94.6085 176.31 94.7842 176.754L94.7868 176.76C94.8221 176.849 94.7782 176.949 94.6895 176.985C94.6516 177 94.6102 177 94.5741 176.989L94.5724 176.988Z" fill="#000072"/>
<path d="M132.164 185.042C131.871 184.642 131.628 184.174 131.509 183.649C131.384 183.128 131.38 182.556 131.516 182.014C131.775 180.915 132.524 179.995 133.456 179.399C134.39 178.804 135.58 178.516 136.79 178.754C137.391 178.872 137.973 179.151 138.46 179.528C138.952 179.904 139.335 180.382 139.631 180.876L137.357 181.329C137.464 180.324 137.672 179.309 138.05 178.327C138.419 177.344 138.987 176.403 139.734 175.601C140.476 174.796 141.416 174.138 142.466 173.748C143.516 173.364 144.658 173.239 145.76 173.386C147.971 173.698 149.916 175.198 150.8 177.105C151.267 178.046 151.5 179.063 151.565 180.054C151.623 181.05 151.522 182.025 151.314 182.96C151.262 183.19 151.035 183.334 150.806 183.283C150.61 183.239 150.476 183.066 150.473 182.874V182.861C150.444 181.076 150.126 179.322 149.23 177.981C148.797 177.309 148.225 176.767 147.586 176.37C146.944 175.971 146.218 175.758 145.491 175.682C144.76 175.627 144.026 175.751 143.361 176.037C142.691 176.31 142.08 176.738 141.585 177.298C140.581 178.414 140.031 179.972 139.776 181.611L139.765 181.682C139.663 182.341 139.044 182.793 138.385 182.691C137.995 182.631 137.676 182.385 137.503 182.063C137.201 181.496 136.8 181.11 136.258 180.933C135.718 180.743 135.025 180.814 134.397 181.088C133.77 181.365 133.225 181.858 132.93 182.473C132.634 183.09 132.623 183.854 132.902 184.629L132.908 184.645C132.988 184.866 132.872 185.111 132.651 185.191C132.469 185.256 132.272 185.191 132.163 185.043L132.164 185.042Z" fill="#000072"/>
<path d="M108.281 151.847C108.768 149.782 107.489 147.712 105.424 147.225C103.358 146.737 101.289 148.016 100.801 150.082C100.314 152.147 101.593 154.217 103.658 154.704C105.724 155.192 107.793 153.913 108.281 151.847Z" fill="white"/>
<path d="M104.544 155.036C102.303 155.036 100.48 153.212 100.48 150.972C100.48 148.731 102.303 146.908 104.544 146.908C106.784 146.908 108.608 148.731 108.608 150.972C108.608 153.212 106.784 155.036 104.544 155.036ZM104.544 147.35C102.547 147.35 100.922 148.975 100.922 150.972C100.922 152.969 102.547 154.594 104.544 154.594C106.541 154.594 108.166 152.969 108.166 150.972C108.166 148.975 106.541 147.35 104.544 147.35Z" fill="#000072"/>
<g opacity="0.3">
<path d="M108.1 152.425C107.531 153.827 106.148 154.815 104.544 154.815C102.423 154.815 100.698 153.095 100.698 150.97C100.698 149.216 101.879 147.737 103.488 147.279C103.112 147.843 102.895 148.517 102.895 149.245C102.895 151.22 104.495 152.82 106.47 152.82C107.058 152.82 107.612 152.68 108.099 152.424L108.1 152.425Z" fill="#000072"/>
</g>
<path d="M104.544 155.931C101.808 155.931 99.584 153.706 99.584 150.972C99.584 148.237 101.808 146.012 104.544 146.012C107.279 146.012 109.503 148.237 109.503 150.972C109.503 153.707 107.279 155.931 104.544 155.931ZM104.544 148.245C103.04 148.245 101.817 149.468 101.817 150.972C101.817 152.475 103.04 153.698 104.544 153.698C106.047 153.698 107.27 152.475 107.27 150.972C107.27 149.468 106.047 148.245 104.544 148.245Z" fill="#000072"/>
<path d="M142.787 158.419C146.027 158.419 148.653 155.793 148.653 152.553C148.653 149.313 146.027 146.686 142.787 146.686C139.547 146.686 136.92 149.313 136.92 152.553C136.92 155.793 139.547 158.419 142.787 158.419Z" fill="white"/>
<path d="M142.787 158.633C139.433 158.633 136.706 155.905 136.706 152.552C136.706 149.198 139.433 146.471 142.787 146.471C146.14 146.471 148.868 149.198 148.868 152.552C148.868 155.905 146.14 158.633 142.787 158.633ZM142.787 146.899C139.67 146.899 137.134 149.434 137.134 152.551C137.134 155.668 139.67 158.204 142.787 158.204C145.904 158.204 148.439 155.668 148.439 152.551C148.439 149.434 145.904 146.899 142.787 146.899Z" fill="#000072"/>
<g opacity="0.3">
<path d="M148.654 152.554C148.654 155.794 146.026 158.417 142.786 158.417C139.547 158.417 136.919 155.794 136.919 152.554C136.919 149.315 139.547 146.687 142.786 146.687C142.838 146.687 142.889 146.687 142.941 146.692C141.449 147.36 140.407 148.861 140.407 150.605C140.407 152.97 142.324 154.887 144.69 154.887C146.471 154.887 148 153.802 148.645 152.26C148.649 152.358 148.655 152.456 148.655 152.554H148.654Z" fill="#000072"/>
</g>
<path d="M142.786 159.503C138.954 159.503 135.836 156.384 135.836 152.552C135.836 148.72 138.954 145.602 142.786 145.602C146.619 145.602 149.736 148.72 149.736 152.552C149.736 156.384 146.619 159.503 142.786 159.503ZM142.786 147.769C140.149 147.769 138.003 149.915 138.003 152.552C138.003 155.189 140.149 157.335 142.786 157.335C145.423 157.335 147.569 155.189 147.569 152.552C147.569 149.915 145.423 147.769 142.786 147.769Z" fill="#000072"/>
<path d="M136.622 141.188C138.203 141.188 139.485 139.906 139.485 138.325C139.485 136.744 138.203 135.463 136.622 135.463C135.041 135.463 133.76 136.744 133.76 138.325C133.76 139.906 135.041 141.188 136.622 141.188Z" fill="white"/>
<path d="M136.622 141.407C134.922 141.407 133.539 140.024 133.539 138.324C133.539 136.624 134.922 135.241 136.622 135.241C138.322 135.241 139.705 136.624 139.705 138.324C139.705 140.024 138.322 141.407 136.622 141.407ZM136.622 135.683C135.166 135.683 133.981 136.868 133.981 138.324C133.981 139.781 135.166 140.966 136.622 140.966C138.078 140.966 139.263 139.781 139.263 138.324C139.263 136.868 138.078 135.683 136.622 135.683Z" fill="#000072"/>
<g opacity="0.3">
<path d="M139.174 139.615C138.706 140.549 137.738 141.186 136.625 141.186C135.039 141.186 133.758 139.904 133.758 138.324C133.758 136.961 134.712 135.823 135.988 135.535C135.795 135.921 135.685 136.359 135.685 136.821C135.685 138.402 136.967 139.683 138.552 139.683C138.764 139.683 138.971 139.659 139.174 139.616V139.615Z" fill="#000072"/>
</g>
<path d="M136.622 142.245C134.46 142.245 132.701 140.487 132.701 138.324C132.701 136.162 134.459 134.404 136.622 134.404C138.784 134.404 140.543 136.163 140.543 138.324C140.543 140.486 138.784 142.245 136.622 142.245ZM136.622 136.521C135.627 136.521 134.818 137.33 134.818 138.324C134.818 139.319 135.626 140.128 136.622 140.128C137.617 140.128 138.426 139.32 138.426 138.324C138.426 137.329 137.617 136.521 136.622 136.521Z" fill="#000072"/>
<g opacity="0.3">
<path d="M165.414 199.111C165.414 199.111 165.631 199.367 165.987 199.757H89.1133C85.0804 199.757 81.2791 197.763 79.0719 194.385C74.3741 187.191 76.6967 178.071 83.6542 174.081C80.4067 183.23 91.1414 189.248 97.8242 181.896C98.4012 181.261 99.4441 181.431 99.767 182.226C101.073 185.442 103.433 185.585 104.82 183.09C105.066 182.647 105.717 182.652 105.914 183.124C108.371 189.027 115.522 188.26 118.649 184.3C119.154 183.663 120.132 183.765 120.494 184.492C121.491 186.487 123.554 187.133 125.645 186.502C126.473 186.251 126.811 186.545 126.724 187.861L126.69 187.914C126.666 192.092 130.28 193.72 132.472 191.238C132.892 190.766 133.638 190.8 134.048 191.281C136.409 194.085 143.318 193.261 144.836 187.976C145.015 187.35 145.776 187.133 146.248 187.581C147.583 188.853 149.973 190.197 152.723 187.532C153.229 187.041 154.058 187.33 154.183 188.024C154.857 191.775 159.676 194.221 164.037 192.073C165.811 191.199 167.962 192.17 168.472 194.079C168.994 196.038 168.271 198.273 165.414 199.11L165.414 199.111Z" fill="#000072"/>
</g>
<g opacity="0.3">
<path d="M148.237 175.54C143.866 175.342 142.093 177.801 142.057 181.902C142.036 184.231 138.607 184.486 138.27 182.181C138.266 182.151 138.261 182.12 138.257 182.089L135.78 180.644C135.78 180.644 134.221 181.211 135.246 184.02C135.778 185.474 134.263 186.87 132.889 186.156C132.869 186.146 132.849 186.136 132.829 186.124C132.829 186.124 129.899 180.828 136.875 179.953L138.257 180.463C140.108 175.292 142.897 172.367 148.236 175.541L148.237 175.54Z" fill="#000072"/>
</g>
<g opacity="0.3">
<path d="M122.29 102.526L122.027 165.144C122.027 165.144 125.18 172.168 120.363 175.032L116.248 165.51V102.759L122.29 102.527V102.526Z" fill="#000072"/>
</g>
<path d="M203.723 186.046H232.019C233.228 186.046 234.209 187.027 234.209 188.236V204.685C234.209 209.328 230.44 213.098 225.797 213.098H209.946C205.303 213.098 201.533 209.328 201.533 204.685V188.236C201.533 187.028 202.514 186.046 203.723 186.046H203.723Z" fill="white"/>
<path d="M225.798 213.318H209.946C205.185 213.318 201.312 209.445 201.312 204.686V188.236C201.312 186.907 202.393 185.826 203.723 185.826H232.02C233.349 185.826 234.43 186.907 234.43 188.236V204.686C234.43 209.445 230.558 213.318 225.797 213.318H225.798ZM203.723 186.267C202.637 186.267 201.754 187.15 201.754 188.236V204.686C201.754 209.203 205.429 212.877 209.946 212.877H225.798C230.315 212.877 233.989 209.203 233.989 204.686V188.236C233.989 187.15 233.106 186.267 232.02 186.267H203.723Z" fill="#000072"/>
<g opacity="0.3">
<path d="M232.598 209.632C231.073 211.735 228.594 213.096 225.799 213.096H209.943C205.296 213.096 201.531 209.33 201.531 204.684V188.235C201.531 187.028 202.511 186.048 203.724 186.048H209.142V201.22C209.142 205.867 212.908 209.632 217.555 209.632H232.598Z" fill="#000072"/>
</g>
<path d="M225.798 214.37H209.946C204.608 214.37 200.265 210.025 200.265 204.684V188.234C200.265 186.328 201.816 184.776 203.724 184.776H232.021C233.928 184.776 235.48 186.328 235.48 188.234V204.684C235.48 205.852 235.272 206.999 234.861 208.091C233.454 211.845 229.812 214.37 225.799 214.37H225.798ZM203.724 187.316C203.217 187.316 202.806 187.729 202.806 188.235V204.685C202.806 208.625 206.009 211.83 209.947 211.83H225.799C228.76 211.83 231.446 209.968 232.484 207.198C232.788 206.392 232.941 205.547 232.941 204.685V188.235C232.941 187.729 232.529 187.316 232.022 187.316H203.725H203.724Z" fill="#000072"/>
<path d="M245.546 198.5C245.546 201.467 244.128 204.104 241.931 205.776C240.394 206.949 238.477 207.643 236.399 207.643H233.673C234.02 206.72 234.21 205.725 234.21 204.684V202.14H236.399C237.203 202.14 237.943 201.877 238.545 201.442C239.451 200.777 240.043 199.706 240.043 198.5C240.043 197.581 239.696 196.739 239.128 196.095C239.048 196.002 238.963 195.914 238.87 195.828C238.866 195.82 238.862 195.811 238.849 195.807C238.201 195.219 237.342 194.859 236.398 194.859H234.209V189.356H236.398C238.154 189.356 239.797 189.851 241.189 190.71C241.194 190.715 241.194 190.719 241.194 190.719C243.806 192.328 245.545 195.214 245.545 198.499L245.546 198.5Z" fill="white"/>
<path d="M236.399 207.863H233.354L233.466 207.565C233.813 206.641 233.989 205.672 233.989 204.683V201.919H236.398C237.125 201.919 237.822 201.691 238.415 201.262C239.295 200.616 239.822 199.583 239.822 198.5C239.822 197.672 239.517 196.869 238.963 196.241C238.887 196.153 238.808 196.07 238.722 195.991L238.689 195.96C238.058 195.392 237.245 195.08 236.397 195.08H233.988V189.135H236.397C238.137 189.135 239.833 189.615 241.305 190.522L241.342 190.552C244.113 192.273 245.766 195.241 245.766 198.5C245.766 201.445 244.417 204.161 242.064 205.952C240.425 207.203 238.465 207.864 236.397 207.864L236.399 207.863ZM233.986 207.422H236.399C238.369 207.422 240.236 206.792 241.798 205.6C244.04 203.893 245.326 201.305 245.326 198.499C245.326 195.382 243.739 192.544 241.079 190.907L240.974 190.837C239.597 190.012 238.017 189.576 236.4 189.576H234.432V194.637H236.4C237.346 194.637 238.255 194.983 238.964 195.611L239.007 195.626L239.044 195.684C239.134 195.769 239.218 195.858 239.298 195.95C239.921 196.657 240.266 197.563 240.266 198.498C240.266 199.722 239.672 200.888 238.677 201.618C238.008 202.103 237.221 202.36 236.4 202.36H234.432V204.683C234.432 205.619 234.282 206.538 233.986 207.422Z" fill="#000072"/>
<path d="M236.398 208.913H233.672C233.255 208.913 232.865 208.709 232.628 208.366C232.391 208.024 232.337 207.586 232.484 207.196C232.787 206.391 232.94 205.546 232.94 204.685V202.141C232.94 201.44 233.509 200.87 234.211 200.87H236.399C237.709 200.87 238.773 199.807 238.773 198.501C238.773 197.194 237.708 196.131 236.399 196.131H234.211C233.51 196.131 232.94 195.562 232.94 194.86V189.357C232.94 188.656 233.509 188.087 234.211 188.087H236.399C242.143 188.087 246.817 192.758 246.817 198.501C246.817 204.243 242.143 208.914 236.399 208.914L236.398 208.913ZM235.332 206.373H236.398C240.742 206.373 244.275 202.841 244.275 198.5C244.275 194.158 240.741 190.626 236.398 190.626H235.48V193.589H236.398C239.107 193.589 241.313 195.792 241.313 198.5C241.313 201.207 239.108 203.41 236.398 203.41H235.48V204.684C235.48 205.254 235.43 205.818 235.332 206.373V206.373Z" fill="#000072"/>
<g opacity="0.3">
<path d="M238.848 195.808C238.201 195.219 237.341 194.86 236.397 194.86H234.209V189.357H236.397C238.154 189.357 239.797 189.852 241.189 190.711C241.193 190.715 241.193 190.72 241.193 190.72C238.095 190.351 236.961 193.624 238.848 195.808Z" fill="#000072"/>
</g>
<g opacity="0.3">
<path d="M241.931 205.776C240.395 206.949 238.477 207.643 236.399 207.643H233.673C234.02 206.72 234.21 205.725 234.21 204.684V202.14H236.399C237.203 202.14 237.944 201.877 238.545 201.441C236.636 204.307 238.82 206.348 241.931 205.776Z" fill="#000072"/>
</g>
<path d="M138.913 105.38C138.219 109.076 134.997 111.756 131.232 111.756H114.702C110.943 111.756 107.721 109.077 107.021 105.38C102.294 80.288 102.658 57.265 111.226 39.4359C114.139 33.3482 118.014 27.8727 122.967 23.125C127.921 27.8796 131.803 33.3619 134.716 39.4497C143.277 57.2719 143.64 80.2949 138.914 105.38H138.913Z" fill="white"/>
<path d="M131.231 111.976H114.701C110.844 111.976 107.523 109.219 106.803 105.421C101.658 78.11 103.078 55.8776 111.025 39.3402C114.003 33.1173 117.97 27.6074 122.813 22.9656L122.966 22.8192L123.118 22.9656C127.969 27.6212 131.937 33.1354 134.913 39.354C142.855 55.8888 144.274 78.1169 139.129 105.42C138.415 109.219 135.094 111.976 131.231 111.976ZM122.966 23.4315C118.229 28.0061 114.347 33.4213 111.422 39.5314C103.517 55.9827 102.108 78.1229 107.236 105.339C107.916 108.929 111.055 111.535 114.7 111.535H131.23C134.881 111.535 138.021 108.929 138.694 105.339C143.822 78.1298 142.415 55.9939 134.514 39.5452C131.592 33.4394 127.707 28.0191 122.965 23.4315H122.966Z" fill="#000072"/>
<path d="M141.904 78.7791C158.707 104.198 158.676 122.592 137.093 109.101L141.904 78.7791Z" fill="#EC1C24"/>
<g opacity="0.55">
<path d="M147.713 113.589C152.242 110.511 149.665 99.0575 140.988 84.5198L141.901 78.7757C155.251 98.968 157.979 114.729 147.713 113.589Z" fill="white"/>
</g>
<path d="M108.895 109.103C103.845 112.257 99.9775 113.672 97.2217 113.651C90.4269 113.61 90.4683 104.843 96.4449 92.1672C97.84 89.1918 99.571 86.0045 101.618 82.6579C102.395 81.3868 103.219 80.0881 104.084 78.7757L104.538 81.634L104.813 83.3589L105.335 86.6633L108.894 109.102L108.895 109.103Z" fill="#EC1C24"/>
<path d="M134.715 39.4487C134.687 47.3087 111.224 47.3019 111.224 39.4349C114.138 33.3472 118.012 27.8717 122.966 23.124C127.919 27.8786 131.802 33.361 134.714 39.4487H134.715Z" fill="#EC1C24"/>
<g opacity="0.55">
<path d="M134.715 39.4487C134.708 41.7644 132.661 43.399 129.782 44.3471C130.283 43.7563 130.592 43.0622 130.675 42.2656C128.414 36.0823 125.179 30.3726 120.856 25.2606C121.537 24.5321 122.238 23.8181 122.965 23.124C127.919 27.8786 131.801 33.361 134.714 39.4487H134.715Z" fill="white"/>
</g>
<g opacity="0.3">
<path d="M138.535 106.719C137.402 109.707 134.523 111.755 131.231 111.755H114.701C110.943 111.755 107.72 109.076 107.02 105.379C102.293 80.2871 102.657 57.2641 111.225 39.4349C114.138 33.3472 118.013 27.8717 122.966 23.124C123.667 23.7975 124.341 24.4778 125.001 25.178C122.871 28.0638 121.043 31.1417 119.484 34.3987C115.451 42.7806 113.238 52.3174 112.517 62.6784C113.843 61.7715 115.437 61.2359 117.154 61.2083C115.457 62.7472 114.392 64.9665 114.392 67.4399C114.392 72.0911 118.164 75.8562 122.809 75.8562C122.857 75.8562 122.898 75.8562 122.947 75.8494C121.456 77.21 119.47 78.0342 117.285 78.0342C117.259 78.0342 117.234 78.0342 117.208 78.0342C114.64 78.0109 112.575 80.1174 112.799 82.6751C113.301 88.4158 114.14 94.3166 115.279 100.343C115.98 104.039 119.201 106.719 122.96 106.719H138.535V106.719Z" fill="#000072"/>
</g>
<path d="M133.67 122.061C126.501 124.373 119.26 124.329 111.952 122.061L114.7 111.755H130.921L133.669 122.061H133.67Z" fill="#00AAFF"/>
<path d="M122.915 123.989C119.265 123.989 115.581 123.415 111.888 122.269C111.776 122.234 111.711 122.118 111.742 122.004L114.49 111.698C114.515 111.603 114.602 111.536 114.701 111.536H130.922C131.021 111.536 131.107 111.603 131.133 111.698L133.881 122.004C133.911 122.116 133.847 122.232 133.737 122.268C130.181 123.415 126.564 123.989 122.915 123.989ZM112.218 121.914C119.382 124.098 126.507 124.098 133.406 121.916L130.755 111.974H114.868L112.218 121.914Z" fill="#390075"/>
<g opacity="0.3">
<path d="M126.367 123.606C121.592 124.087 116.79 123.558 111.952 122.061L114.7 111.755H121.303L118.562 122.033C121.173 122.843 123.77 123.373 126.367 123.606Z" fill="#000072"/>
</g>
<g opacity="0.55">
<path d="M124.718 123.73C126.422 123.449 128.119 123.036 129.809 122.487L127.061 112.188H114.584L114.702 111.755H130.923L133.671 122.061C130.702 123.023 127.714 123.572 124.719 123.73H124.718Z" fill="white"/>
</g>
<path d="M131.234 113.27H114.701C110.22 113.27 106.365 110.069 105.534 105.659C98.3392 67.4924 103.852 39.3566 121.918 22.0321C122.505 21.4706 123.429 21.4706 124.015 22.0321C142.082 39.3566 147.596 67.4933 140.401 105.659C139.57 110.07 135.715 113.27 131.234 113.27ZM122.967 25.2503C106.526 41.9091 101.661 68.761 108.51 105.098C109.071 108.078 111.675 110.24 114.7 110.24H131.233C134.258 110.24 136.863 108.078 137.424 105.098C144.273 68.7618 139.409 41.9091 122.967 25.2503H122.967Z" fill="#000072"/>
<g opacity="0.3">
<path d="M96.4453 92.1672C97.8404 89.1918 99.5714 86.0045 101.618 82.658C102.752 82.211 103.803 81.8476 104.539 81.634C105.15 81.4489 105.556 81.3662 105.618 81.4075C105.762 81.5109 105.26 82.3695 104.814 83.359C104.217 84.6783 103.735 86.2379 105.041 86.5609C105.13 86.5815 105.226 86.616 105.336 86.6642L108.895 109.103C103.845 112.257 99.9779 113.672 97.2221 113.651C104.526 107.007 102.327 99.7112 96.4453 92.1672Z" fill="#000072"/>
</g>
<path d="M122.915 125.287C119.136 125.287 115.324 124.694 111.503 123.508C110.727 123.266 110.28 122.456 110.489 121.671L113.237 111.365C113.413 110.702 114.014 110.24 114.7 110.24H130.921C131.608 110.24 132.208 110.702 132.385 111.365L135.133 121.671C135.34 122.449 134.901 123.254 134.135 123.502C130.447 124.692 126.697 125.287 122.914 125.287H122.915ZM113.798 121.02C119.89 122.662 125.943 122.667 131.829 121.032L129.759 113.27H115.864L113.798 121.02H113.798Z" fill="#000072"/>
<path d="M148.742 115.188C145.572 115.188 141.408 113.585 136.289 110.385C135.579 109.941 135.364 109.007 135.808 108.298C136.251 107.589 137.185 107.374 137.894 107.817C144.506 111.949 149.391 113.197 151.296 111.242C154.332 108.128 151.646 96.2639 140.64 79.6145C140.179 78.917 140.371 77.9774 141.069 77.5158C141.765 77.0551 142.706 77.2463 143.167 77.9438C154.169 94.5871 158.211 108.488 153.465 113.357C152.275 114.578 150.697 115.188 148.743 115.188H148.742Z" fill="#000072"/>
<path d="M97.2748 115.188C95.319 115.188 93.7413 114.577 92.5503 113.356C87.8198 108.503 91.8295 94.6508 102.766 78.0661C103.226 77.3677 104.165 77.1748 104.864 77.6355C105.563 78.0962 105.756 79.0349 105.295 79.7333C94.3571 96.3207 91.6952 108.14 94.7196 111.242C96.6203 113.191 101.485 111.955 108.066 107.852C108.775 107.408 109.71 107.625 110.152 108.336C110.595 109.046 110.378 109.98 109.668 110.422C104.576 113.596 100.432 115.187 97.2739 115.187L97.2748 115.188Z" fill="#000072"/>
<path d="M128.763 73.3915C132.05 70.1047 132.05 64.7757 128.763 61.4889C125.476 58.2021 120.147 58.2021 116.86 61.4889C113.573 64.7757 113.573 70.1047 116.86 73.3915C120.147 76.6783 125.476 76.6783 128.763 73.3915Z" fill="#00AAFF"/>
<path d="M122.811 76.0741C118.05 76.0741 114.177 72.2005 114.177 67.439C114.177 62.6774 118.051 58.8047 122.811 58.8047C127.572 58.8047 131.446 62.6783 131.446 67.439C131.446 72.1996 127.572 76.0741 122.811 76.0741ZM122.811 59.2413C118.291 59.2413 114.613 62.9194 114.613 67.4398C114.613 71.9602 118.291 75.6383 122.811 75.6383C127.332 75.6383 131.01 71.961 131.01 67.4398C131.01 62.9186 127.333 59.2413 122.811 59.2413Z" fill="#390075"/>
<g opacity="0.55">
<path d="M131.224 67.4399C131.224 71.5073 128.338 74.9012 124.504 75.6849C126.655 74.1597 128.057 71.652 128.057 68.8143C128.057 68.3467 128.022 67.8937 127.946 67.4537C125.967 67.9075 124.663 64.7814 126.29 63.661C124.751 61.6751 122.347 60.3971 119.639 60.3971C119.062 60.3971 118.499 60.4522 117.949 60.5685C119.323 59.5928 120.999 59.0226 122.806 59.0226C127.457 59.0226 131.222 62.7878 131.222 67.439L131.224 67.4399Z" fill="white"/>
</g>
<g opacity="0.3">
<path d="M127.92 74.1253C126.505 75.2113 124.739 75.8563 122.808 75.8563C118.163 75.8563 114.391 72.0912 114.391 67.4399C114.391 62.7886 117.958 59.2362 122.423 59.0373C120.409 60.5762 119.118 62.9944 119.118 65.7227C119.118 70.374 122.884 74.1391 127.535 74.1391C127.666 74.1391 127.796 74.1391 127.92 74.1253Z" fill="#000072"/>
</g>
<path d="M122.811 77.3711C117.336 77.3711 112.88 72.9162 112.88 67.4399C112.88 61.9636 117.335 57.5095 122.811 57.5095C128.287 57.5095 132.742 61.9644 132.742 67.4399C132.742 72.9153 128.287 77.3711 122.811 77.3711ZM122.811 60.5383C119.006 60.5383 115.91 63.6343 115.91 67.4399C115.91 71.2455 119.006 74.3423 122.811 74.3423C126.617 74.3423 129.713 71.2463 129.713 67.4399C129.713 63.6334 126.617 60.5383 122.811 60.5383Z" fill="#000072"/>
<path d="M122.968 46.8542C119.683 46.8542 116.595 46.2832 114.275 45.2472C111.329 43.9313 109.707 41.8679 109.707 39.4376C109.707 38.6014 110.385 37.9228 111.222 37.9228C112.058 37.9228 112.736 38.6005 112.736 39.4376C112.736 42.1848 117.939 43.8254 122.968 43.8254C127.998 43.8254 133.2 42.1839 133.2 39.4376C133.2 38.6014 133.879 37.9228 134.715 37.9228C135.551 37.9228 136.23 38.6005 136.23 39.4376C136.23 44.5617 129.569 46.855 122.968 46.855V46.8542Z" fill="#000072"/>
<path d="M262.151 231.052C257.204 231.809 252.257 231.991 247.31 232.084C244.836 232.136 242.362 232.145 239.889 232.132C237.415 232.136 234.941 232.101 232.468 232.076L225.047 232.031L217.626 232.028H54.3642L46.9433 232.031L43.2325 232.066L39.5216 232.126C37.0483 232.158 34.5741 232.109 32.1008 231.986C29.6274 231.828 27.1532 231.605 24.6799 231.052C24.4104 230.991 24.2407 230.724 24.301 230.455C24.3449 230.26 24.4973 230.117 24.6799 230.076C27.1541 229.523 29.6274 229.3 32.1008 229.142C34.5749 229.018 37.0483 228.97 39.5216 229.001L43.2325 229.061L46.9433 229.097L54.3642 229.099H217.625L225.046 229.097L232.467 229.051C234.94 229.026 237.415 228.992 239.888 228.995C242.361 228.982 244.835 228.992 247.309 229.043C252.256 229.136 257.204 229.318 262.151 230.076C262.42 230.117 262.605 230.369 262.564 230.638C262.53 230.857 262.358 231.02 262.151 231.052H262.151Z" fill="#000072"/>
<g opacity="0.3">
<path d="M277.022 232.921C277.022 235.749 217.26 238.041 143.546 238.041C69.8329 238.041 10.0708 235.749 10.0708 232.921C10.0708 232.072 15.4696 231.269 25.0193 230.563H262.073C271.623 231.269 277.022 232.071 277.022 232.921Z" fill="#000072"/>
</g>
<path d="M209.612 52.941C209.612 53.3035 209.587 53.6618 209.54 54.0132C209.467 54.5626 208.979 54.963 208.424 54.963H165.66C164.914 54.963 164.419 54.2147 164.68 53.5162C165.468 51.4046 167.504 49.8975 169.891 49.8975C169.975 49.8975 170.058 49.8975 170.134 49.9044C169.952 48.9511 169.869 47.9616 169.896 46.9463C170.082 40.0723 175.505 34.2851 182.355 33.69C190.05 33.0209 196.568 38.7236 197.215 46.1169C198.465 45.3177 199.946 44.8587 201.537 44.8587C205.998 44.8587 209.612 48.4792 209.612 52.9401V52.941Z" fill="white"/>
</g>
<defs>
<linearGradient id="paint0_linear_2892_2936" x1="147.173" y1="157.799" x2="173.466" y2="127.828" gradientUnits="userSpaceOnUse">
<stop stop-color="white"/>
<stop offset="0.12" stop-color="white"/>
<stop offset="1" stop-color="white"/>
</linearGradient>
<linearGradient id="paint1_linear_2892_2936" x1="164.065" y1="172.89" x2="190.358" y2="142.918" gradientUnits="userSpaceOnUse">
<stop stop-color="#1B75BB"/>
<stop offset="0.05" stop-color="#3A87C4"/>
<stop offset="0.14" stop-color="#68A3D1"/>
<stop offset="0.23" stop-color="#90BCDE"/>
<stop offset="0.32" stop-color="#B2D0E8"/>
<stop offset="0.42" stop-color="#CEE1F0"/>
<stop offset="0.53" stop-color="#E4EEF6"/>
<stop offset="0.65" stop-color="#F3F7FB"/>
<stop offset="0.79" stop-color="#FCFDFE"/>
<stop offset="1" stop-color="white"/>
</linearGradient>
<clipPath id="clip0_2892_2936">
<rect width="293" height="237.688" fill="white" transform="translate(0 0.353455)"/>
</clipPath>
</defs>
</svg>
