<svg data-name="Camada 1" xmlns="http://www.w3.org/2000/svg" viewBox="0 0 96 76" width="96" height="76" fill="none"><path d="M49.168 73.093c19.64 0 35.563-15.922 35.563-35.563 0-19.641-15.922-35.563-35.563-35.563-19.641 0-35.563 15.922-35.563 35.563 0 19.64 15.922 35.563 35.563 35.563z" fill="#002D54"/><path d="M49.168 75.059c-20.694 0-37.53-16.836-37.53-37.53C11.639 16.836 28.476 0 49.169 0s37.53 16.837 37.53 37.53c0 20.691-16.837 37.529-37.53 37.529zm0-71.126c-18.526 0-33.597 15.07-33.597 33.596 0 18.526 15.071 33.596 33.597 33.596 18.525 0 33.602-15.073 33.602-33.596 0-18.522-15.077-33.596-33.602-33.596z" fill="#2F5679"/><path opacity=".5" d="M54.529 16.213c-6.788 5.091-13.548.216-13.842 0a1.64 1.64 0 0 0-1.964 2.625c1.808 1.356 5.21 2.943 9.138 2.943 2.711 0 5.675-.758 8.535-2.87l12.855-6.98c.312-.17.56-.439.705-.763a34.21 34.21 0 0 0-2.665-1.902l-12.56 6.813a1.79 1.79 0 0 0-.202.134zM16.439 40.587c.31-.563.654-1.106 1.032-1.627a19.25 19.25 0 0 1 20.899-7.345c6.027 1.702 17.224 3.705 24.491-2.002a1.638 1.638 0 1 0-2.023-2.578c-6.129 4.811-16.15 2.957-21.577 1.426a22.528 22.528 0 0 0-23.654 7.551 34.225 34.225 0 0 0-.039 1.517c.002 1.246.073 2.49.213 3.727a1.64 1.64 0 0 0 .658-.669zM66.987 54.94c-1.852-.288-3.499-.32-5.031-.102-6.766.974-9.474 5.364-9.587 5.55a1.64 1.64 0 0 0 2.81 1.687c.02-.034 2.086-3.256 7.24-3.991 1.207-.174 2.538-.14 4.066.096 2.49.39 4.9 1.186 7.135 2.354a33.204 33.204 0 0 0 2.17-2.543 26.338 26.338 0 0 0-8.803-3.051z" fill="#002D54"/><path opacity=".3" d="M28.657 67.02a35.377 35.377 0 0 0 16.578 4.105c19.641 0 35.562-15.923 35.562-35.563a35.39 35.39 0 0 0-8.24-22.735c-.13 5.269-2.66 47.558-50.218 48.772a35.685 35.685 0 0 0 10.65 7.92 35.652 35.652 0 0 1-4.332-2.5z" fill="#2F5679"/><path opacity=".5" d="M49.168 3.933A33.374 33.374 0 0 0 32.43 8.419a33.833 33.833 0 0 0-11.393 10.778 33.387 33.387 0 0 0-5.465 18.332c0 11.335 5.648 21.368 14.271 27.456a33.533 33.533 0 0 1-5.1-43.812c1.775-.343 3.893-1.54 5.77-3.41 1.807-1.809 2.994-3.863 3.38-5.602a33.495 33.495 0 0 1 37.878.534 33.47 33.47 0 0 0-22.604-8.762z" fill="#002D54"/><path d="M47.204 19.812c-3.925 0-7.327-1.587-9.136-2.944a1.638 1.638 0 0 1 1.962-2.624c.3.221 7.056 5.092 13.844 0 .063-.048.13-.092.2-.13L67.03 7.079a1.639 1.639 0 1 1 1.565 2.88l-12.855 6.98c-2.86 2.116-5.824 2.874-8.537 2.874zM14.33 39.504a1.64 1.64 0 0 1-1.455-2.389 18.54 18.54 0 0 1 1.27-2.016 22.535 22.535 0 0 1 24.463-8.604c5.423 1.53 15.45 3.388 21.576-1.425a1.64 1.64 0 0 1 2.025 2.578c-7.269 5.701-18.466 3.705-24.491 2.001a19.252 19.252 0 0 0-20.9 7.345 16.01 16.01 0 0 0-1.033 1.629 1.642 1.642 0 0 1-1.456.881zM77.069 60.934c-.372 0-.733-.127-1.024-.36-3.744-3.001-8.005-4.023-10.21-4.365-1.53-.237-2.86-.269-4.068-.095-5.154.736-7.219 3.958-7.231 3.991a1.638 1.638 0 1 1-2.81-1.687c.112-.186 2.82-4.589 9.585-5.55 1.53-.218 3.18-.184 5.032.102 2.528.392 7.42 1.569 11.76 5.047a1.637 1.637 0 0 1-1.027 2.92l-.007-.003z" fill="#2F5679"/><path d="M5.164 54.263a5.202 5.202 0 0 1-3.755-8.761c3.403-3.616 10.061-6.927 10.344-7.066a2.294 2.294 0 0 1 2.03 4.115c-.061.03-6.2 3.083-9.03 6.094a.609.609 0 0 0 .533 1.02c10.547-1.584 64.246-10.315 85.678-26.7a.804.804 0 0 0 .322-.927.815.815 0 0 0-.81-.58c-2.566-.104-5.606.21-9.04.936a2.295 2.295 0 1 1-.95-4.49c3.808-.805 7.232-1.15 10.177-1.03a5.411 5.411 0 0 1 3.087 9.734C71.98 43.249 21.057 51.938 5.968 54.203c-.266.04-.535.06-.804.06z" fill="#2F5679"/><path d="M40.993 54.067a8.278 8.278 0 1 0-6.336-15.296 8.278 8.278 0 0 0 6.336 15.296z" fill="#FFE000"/><path d="M37.825 56.33a9.917 9.917 0 1 1 9.916-9.916 9.927 9.927 0 0 1-9.916 9.916zm0-16.548a6.638 6.638 0 1 0 6.639 6.639 6.645 6.645 0 0 0-6.64-6.639z" fill="#2F5679"/><path opacity=".5" d="M33.152 47.73a6.636 6.636 0 0 1 9.263-6.096 6.635 6.635 0 1 0-7.214 10.882 6.616 6.616 0 0 1-2.049-4.785z" fill="#002D54"/><path opacity=".3" d="M42.248 39.987s.655 10.49-10.489 11.8c0 0 8.523 5.244 14.422-1.967 0 0 1.311-7.865-3.932-9.833z" fill="#2F5679"/></svg>