<svg width="28" height="28" viewBox="0 0 28 28" fill="none" xmlns="http://www.w3.org/2000/svg"><path d="M20.849 15.38c1.893-.385 3.371-.86 4.331-1.345.32-.162.55-.308.706-.428a4.447 4.447 0 0 0-.739-.363c-.996-.396-2.508-.734-4.418-.942h-.004a6.144 6.144 0 0 1-5.339-4.885c-.383-1.894-.859-3.374-1.344-4.334a4.521 4.521 0 0 0-.422-.699c-.105.167-.23.406-.36.735-.398.998-.742 2.51-.958 4.427a6.141 6.141 0 0 1-4.885 5.336h-.002c-1.89.38-3.367.856-4.326 1.342a4.494 4.494 0 0 0-.704.428c.166.105.405.228.735.36 1 .397 2.516.74 4.431.956l13.298-.589zm0 0a6.142 6.142 0 0 0-4.881 5.331c-.217 1.915-.56 3.428-.958 4.426a4.521 4.521 0 0 1-.36.733 4.501 4.501 0 0 1-.424-.7c-.484-.958-.958-2.434-1.34-4.32v-.002m7.963-5.469l-7.963 5.469m0 0a6.143 6.143 0 0 0-1.874-3.308m1.874 3.308l-1.874-3.308m0 0a6.143 6.143 0 0 0-3.46-1.572l3.46 1.572zm-8.9-3.104zm.025.451a.027.027 0 0 1-.002.004l.002-.004zm11.7-12.775zm-.453.022a.03.03 0 0 1 0 0zM26.15 13.819l-.002-.003.002.003zm-.02-.445a.019.019 0 0 1 .002-.004l-.002.004zM14.434 26.142l.004-.002a.023.023 0 0 1-.004.002zm.452-.023z" stroke="#FFD527" stroke-width="3"/></svg>