<svg width="1074" height="461" viewBox="0 0 1074 461" fill="none" xmlns="http://www.w3.org/2000/svg">
<g clip-path="url(#clip0_4601_2449)">
<path d="M1027.03 439.987L974.428 422.078C969.751 420.486 966.737 415.857 967.121 410.85L972.688 337.805C973.229 330.701 980.184 326.005 986.818 328.264L1039.42 346.173C1044.09 347.766 1047.11 352.394 1046.72 357.401L1041.16 430.447C1040.62 437.55 1033.66 442.246 1027.03 439.987Z" fill="#F7F7F7"/>
<path d="M1030.34 442.561C1028.99 442.548 1027.66 442.319 1026.38 441.883L973.782 423.974C968.232 422.085 964.672 416.626 965.123 410.698L970.691 337.653C971 333.6 973.102 330.004 976.46 327.788C978.062 326.723 979.888 326.04 981.796 325.794C983.705 325.548 985.644 325.745 987.464 326.37L1040.06 344.279C1045.61 346.168 1049.17 351.627 1048.72 357.555L1043.15 430.601C1042.84 434.654 1040.74 438.249 1037.38 440.465C1035.3 441.85 1032.85 442.58 1030.34 442.561ZM1027.67 438.087C1028.91 438.513 1030.24 438.647 1031.54 438.479C1032.84 438.311 1034.08 437.844 1035.18 437.117C1037.49 435.588 1038.94 433.1 1039.16 430.29L1044.73 357.246C1045.04 353.141 1042.59 349.365 1038.77 348.066L986.176 330.16C984.935 329.734 983.612 329.601 982.31 329.769C981.008 329.938 979.763 330.404 978.671 331.131C977.527 331.886 976.573 332.895 975.883 334.079C975.192 335.263 974.784 336.59 974.689 337.957L969.122 411.002C968.809 415.106 971.258 418.882 975.077 420.181L1027.67 438.087Z" fill="#371A45"/>
<g opacity="0.3">
<path opacity="0.3" d="M1020.57 442.815L967.972 424.907C963.296 423.315 960.282 418.686 960.666 413.678L966.237 340.634C966.779 333.529 973.733 328.834 980.368 331.094L1032.97 349.002C1037.64 350.594 1040.66 355.223 1040.27 360.23L1034.71 433.275C1034.16 440.379 1027.21 445.074 1020.57 442.815Z" fill="#371A45"/>
</g>
<path d="M1030.34 442.561C1028.99 442.548 1027.66 442.319 1026.38 441.883L973.782 423.974C968.232 422.085 964.672 416.626 965.123 410.698L970.691 337.653C971 333.6 973.102 330.004 976.46 327.788C978.062 326.723 979.888 326.04 981.796 325.794C983.705 325.548 985.644 325.745 987.464 326.37L1040.06 344.279C1045.61 346.168 1049.17 351.627 1048.72 357.555L1043.15 430.601C1042.84 434.654 1040.74 438.249 1037.38 440.465C1035.3 441.85 1032.85 442.58 1030.34 442.561ZM1027.67 438.087C1028.91 438.513 1030.24 438.647 1031.54 438.479C1032.84 438.311 1034.08 437.844 1035.18 437.117C1037.49 435.588 1038.94 433.1 1039.16 430.29L1044.73 357.246C1045.04 353.141 1042.59 349.365 1038.77 348.066L986.176 330.16C984.935 329.734 983.612 329.601 982.31 329.769C981.008 329.938 979.763 330.404 978.671 331.131C977.527 331.886 976.573 332.895 975.883 334.079C975.192 335.263 974.784 336.59 974.689 337.957L969.122 411.002C968.809 415.106 971.258 418.882 975.077 420.181L1027.67 438.087Z" fill="#371A45"/>
<path d="M1022.97 445.097C1020.24 445.086 1017.54 444.513 1015.05 443.412C1017.94 464.673 1017.37 491.319 1017.03 501.222C1016.91 504.523 1014.9 507.515 1011.83 508.714C1010.15 509.367 1008.04 509.839 1005.42 509.816L975.51 509.559C974.258 509.552 973.045 509.127 972.064 508.351C971.082 507.575 970.388 506.493 970.092 505.278C969.662 503.494 969.505 501.038 970.042 497.717C970.54 494.655 972.195 492.327 974.464 490.713C974.464 490.713 974.641 476.325 970.885 466.702C970.007 464.462 968.986 462.186 967.934 460.014C967.748 460.248 962.395 467.216 962.296 478.664L962.074 504.408C962.074 504.408 960.181 507.269 954.283 507.218L918.86 506.913C917.643 506.907 916.468 506.465 915.549 505.668C914.629 504.871 914.025 503.77 913.846 502.566C913.184 497.969 913.55 490.948 920.876 487.922C914.88 431.233 919.576 397.093 925.528 377.323L925.39 377.281C898.195 378.63 883.649 342.062 889.139 322.548C891.245 315.052 894.706 310.646 898.17 308.064C904.412 303.405 913.572 306.562 915.308 314.155C916.317 318.576 914.84 322.384 912.766 325.329C912.806 325.508 914.666 333.21 918.746 339.868C919.169 339.463 940.607 319.424 1010.6 343.345C1039.35 350.739 1042.43 399.238 1042.43 399.238C1048.01 441.475 1032.36 445.177 1022.97 445.097Z" fill="#F7F7F7"/>
<g opacity="0.3">
<path opacity="0.3" d="M1043.17 406.058C1042.25 417.392 1039.32 426.432 1036.41 430.062C1036.27 430.239 1036.13 430.407 1035.98 430.567C1030.35 436.927 1019.82 432.539 1020.02 424.043C1020.89 387.884 1000.62 369.152 1000.62 369.152C1000.62 369.152 1002.91 425.146 977.691 436.974C952.472 448.801 935.024 435.226 935.024 435.226C935.024 435.226 936.671 443.504 945.049 449.384C950.413 453.149 953.428 459.441 952.699 465.953C951.928 472.848 951.258 481.808 951.58 490.549C951.761 495.446 947.796 499.491 942.896 499.449L913.621 499.196C913.605 500.324 913.68 501.45 913.844 502.566C914.022 503.77 914.626 504.87 915.546 505.667C916.466 506.464 917.64 506.906 918.858 506.912L954.28 507.217C960.178 507.268 962.073 504.408 962.073 504.408L962.294 478.664C962.393 467.215 967.745 460.248 967.932 460.013C968.981 462.185 970.005 464.461 970.883 466.701C974.638 476.324 974.462 490.712 974.462 490.712C972.193 492.327 970.539 494.654 970.04 497.716C969.5 501.037 969.657 503.498 970.091 505.277C970.387 506.493 971.081 507.574 972.062 508.35C973.044 509.126 974.257 509.551 975.508 509.558L1005.42 509.816C1008.04 509.838 1010.15 509.368 1011.83 508.714C1014.91 507.514 1016.92 504.522 1017.03 501.221C1017.37 491.317 1017.94 464.672 1015.05 443.411C1017.55 444.512 1020.24 445.086 1022.97 445.096C1031.83 445.173 1046.25 441.878 1043.17 406.058ZM988.305 500.322L979.868 500.25C976.473 500.22 974.196 496.691 975.629 493.612C977.19 490.257 979.741 488.428 979.741 488.428C980.267 475.289 977.803 465.502 975.592 459.528C974.375 456.232 976.418 452.663 979.856 451.933L980.138 451.872C988.417 450.051 996.729 455.083 998.625 463.343C1000.83 472.946 1000.67 482.653 1000.03 489.722C999.758 492.638 998.405 495.346 996.233 497.309C994.062 499.273 991.232 500.348 988.305 500.322Z" fill="#371A45"/>
</g>
<g opacity="0.3">
<path opacity="0.3" d="M930.387 364.655L925.526 377.322L925.389 377.28C907.039 378.19 894.448 361.842 889.891 345.109C894.321 353.044 906.956 370.391 930.387 364.655Z" fill="#371A45"/>
</g>
<path d="M1010.71 345.503C1010.48 345.501 1010.25 345.462 1010.03 345.387C974.323 333.182 951.795 332.78 939.185 334.592C925.65 336.538 920.411 341.373 920.359 341.425C919.945 341.803 919.4 342.004 918.84 341.987C918.28 341.969 917.749 341.735 917.359 341.333C916.969 340.93 916.751 340.392 916.751 339.832C916.751 339.272 916.969 338.734 917.359 338.331C918.261 337.449 940.288 316.989 1011.43 341.308C1011.91 341.474 1012.32 341.807 1012.58 342.247C1012.85 342.687 1012.94 343.205 1012.86 343.71C1012.77 344.214 1012.51 344.672 1012.11 345.001C1011.72 345.329 1011.23 345.507 1010.71 345.503L1010.71 345.503Z" fill="#371A45"/>
<path d="M1005.53 511.972L975.618 511.715C973.885 511.705 972.206 511.115 970.848 510.04C969.489 508.965 968.53 507.466 968.124 505.782C967.55 503.401 967.523 500.571 968.044 497.371C968.584 494.047 970.322 491.203 973.071 489.147C973.297 488.972 973.556 488.845 973.832 488.771C974.108 488.698 974.395 488.68 974.678 488.719C974.961 488.758 975.234 488.852 975.48 488.997C975.726 489.142 975.941 489.334 976.112 489.563C976.283 489.792 976.407 490.052 976.477 490.329C976.546 490.606 976.56 490.894 976.517 491.177C976.475 491.459 976.376 491.73 976.228 491.974C976.08 492.218 975.884 492.43 975.653 492.598C973.791 493.992 972.661 495.831 972.299 498.063C971.871 500.694 971.876 502.955 972.316 504.772C972.498 505.521 972.926 506.186 973.531 506.663C974.137 507.14 974.884 507.401 975.655 507.403L1005.57 507.661C1007.62 507.679 1009.5 507.357 1011.17 506.708C1013.41 505.833 1014.92 503.651 1015 501.148C1015.37 490.538 1015.9 463.578 1012.87 442.458C1012.82 442.175 1012.83 441.886 1012.9 441.608C1012.97 441.329 1013.09 441.067 1013.26 440.836C1013.43 440.605 1013.64 440.411 1013.89 440.263C1014.13 440.116 1014.41 440.019 1014.69 439.979C1014.97 439.938 1015.26 439.954 1015.54 440.026C1015.82 440.099 1016.08 440.225 1016.3 440.399C1016.53 440.573 1016.72 440.79 1016.87 441.039C1017.01 441.287 1017.1 441.562 1017.14 441.846C1020.22 463.308 1019.68 490.573 1019.31 501.299C1019.17 505.523 1016.58 509.223 1012.73 510.724C1010.56 511.575 1008.13 511.995 1005.53 511.972Z" fill="#371A45"/>
<path d="M1001.09 368.923C1002.44 370.782 1003.46 372.779 1004.38 374.826C1004.61 375.337 1004.83 375.852 1005.04 376.368C1005.24 376.889 1005.45 377.409 1005.64 377.935C1006.04 378.979 1006.38 380.043 1006.71 381.108C1007.04 382.174 1007.32 383.254 1007.59 384.335C1007.73 384.877 1007.87 385.415 1008 385.958L1008.37 387.587C1008.89 389.754 1009.34 391.933 1009.8 394.109C1010.2 396.298 1010.65 398.478 1010.97 400.68C1011.14 401.779 1011.33 402.874 1011.48 403.978L1011.9 407.285L1012.11 408.936L1012.28 410.596L1012.6 413.914C1012.78 416.129 1012.9 418.348 1013.05 420.565C1013.08 420.974 1012.94 421.376 1012.67 421.683C1012.4 421.991 1012.02 422.18 1011.61 422.208C1011.2 422.237 1010.8 422.103 1010.49 421.836C1010.17 421.569 1009.98 421.19 1009.95 420.782L1009.94 420.721C1009.79 418.54 1009.68 416.357 1009.49 414.179L1009.18 410.916L1009.02 409.284L1008.81 407.658L1008.4 404.408C1008.25 403.325 1008.06 402.249 1007.9 401.17C1007.59 399.007 1007.15 396.868 1006.75 394.72C1006.29 392.587 1005.87 390.44 1005.3 388.338C1005.03 387.28 1004.75 386.228 1004.43 385.185C1004.12 384.142 1003.85 383.087 1003.53 382.047C1002.35 377.858 1001.19 373.665 1000.16 369.378L1000.15 369.355C1000.13 369.237 1000.14 369.112 1000.19 369.003C1000.25 368.893 1000.34 368.806 1000.45 368.755C1000.56 368.704 1000.68 368.693 1000.8 368.723C1000.92 368.754 1001.02 368.824 1001.09 368.923L1001.09 368.923Z" fill="#371A45"/>
<path d="M1023.09 447.1C1012.61 447.01 1004.15 439.759 1004.23 430.936C1004.26 426.818 1006.61 422.179 1010.2 419.118C1010.6 418.773 1011.13 418.604 1011.66 418.646C1012.19 418.688 1012.68 418.939 1013.02 419.343C1013.36 419.748 1013.53 420.272 1013.49 420.802C1013.45 421.331 1013.2 421.822 1012.8 422.167C1010.13 424.435 1008.26 428.055 1008.23 430.97C1008.18 437.585 1014.85 443.024 1023.12 443.095C1026.67 443.126 1031.83 442.654 1035.75 438.219C1041.49 431.731 1043.11 418.705 1040.57 399.501C1040.57 399.457 1040.56 399.412 1040.56 399.366C1040.53 398.895 1037.23 352.23 1010.24 345.288C1009.98 345.222 1009.74 345.107 1009.53 344.949C1009.32 344.791 1009.14 344.593 1009.01 344.367C1008.88 344.141 1008.79 343.89 1008.75 343.63C1008.71 343.369 1008.73 343.104 1008.79 342.849C1008.86 342.595 1008.97 342.355 1009.13 342.145C1009.29 341.935 1009.49 341.758 1009.71 341.624C1009.94 341.49 1010.19 341.402 1010.45 341.365C1010.71 341.328 1010.98 341.343 1011.23 341.408C1023.67 344.608 1033.39 355.681 1039.32 373.427C1043.59 386.201 1044.47 397.922 1044.55 399.038C1047.24 419.408 1045.28 433.482 1038.75 440.868C1034.99 445.122 1029.87 447.159 1023.09 447.1Z" fill="#371A45"/>
<path d="M947.795 326.558C947.795 326.558 948.383 338.746 961.086 346.326C987.499 362.086 1010.73 343.348 1010.73 343.348L947.795 326.558Z" fill="#F6F6F6"/>
<path d="M982.844 354.615C976.004 354.556 968.18 352.886 960.06 348.045C946.589 340.007 945.82 327.195 945.794 326.654C945.779 326.339 945.838 326.025 945.967 325.738C946.096 325.45 946.291 325.197 946.537 324.999C946.782 324.801 947.07 324.664 947.379 324.599C947.687 324.533 948.006 324.541 948.311 324.622L1011.25 341.412C1011.6 341.507 1011.93 341.7 1012.18 341.968C1012.44 342.236 1012.61 342.57 1012.69 342.931C1012.77 343.293 1012.74 343.669 1012.62 344.018C1012.49 344.366 1012.27 344.674 1011.99 344.906C1011.74 345.108 1005.76 349.871 996.384 352.666C991.993 353.985 987.429 354.642 982.844 354.615ZM950.286 329.294C951.244 333.064 954.034 339.785 962.112 344.605C972.519 350.815 983.618 352.25 995.098 348.87C998.891 347.743 1002.53 346.154 1005.94 344.141L950.286 329.294Z" fill="#371A45"/>
<path d="M930.488 292.788C932.06 303.574 936.397 313.769 943.079 322.381C944.489 324.201 945.994 325.944 947.588 327.603C948.37 328.421 949.186 329.219 950.023 330.015C957.146 336.696 965.682 341.686 974.998 344.616C976.181 344.982 977.371 345.319 978.567 345.626C1000.47 351.155 1024.62 345.179 1041.24 327.919C1065.72 302.495 1064.57 262.214 1038.68 237.949C1033.82 233.389 1028.28 229.605 1022.27 226.731C1021.58 226.396 1020.89 226.081 1020.19 225.78C1018.31 224.963 1016.41 224.237 1014.49 223.604C1005.64 220.714 996.286 219.732 987.034 220.723C985.575 220.879 984.121 221.085 982.673 221.339C980.497 221.723 978.342 222.217 976.216 222.822C965.27 225.902 955.344 231.847 947.463 240.045C933.379 254.669 927.781 274.206 930.488 292.788Z" fill="white"/>
<path d="M994.026 347.78C988.798 347.734 983.594 347.065 978.524 345.786C977.328 345.481 976.126 345.142 974.945 344.776C965.609 341.834 957.053 336.832 949.908 330.141C948.988 329.269 948.19 328.477 947.468 327.722C945.87 326.058 944.361 324.31 942.948 322.487C936.257 313.847 931.908 303.627 930.323 292.815C927.491 273.374 933.693 254.097 947.345 239.929C956.837 230.108 969.195 223.544 982.647 221.176C984.073 220.921 985.545 220.715 987.019 220.557C996.295 219.564 1005.68 220.548 1014.54 223.445C1016.47 224.076 1018.39 224.809 1020.25 225.623C1021 225.945 1021.69 226.259 1022.34 226.577C1028.37 229.458 1033.92 233.252 1038.79 237.823C1051.39 249.637 1058.58 265.564 1059.01 282.671C1059.45 299.643 1053.18 315.751 1041.36 328.03C1028.93 340.938 1011.7 347.932 994.026 347.78ZM930.653 292.76C932.232 303.516 936.56 313.682 943.217 322.276C944.622 324.09 946.122 325.828 947.711 327.484C948.43 328.237 949.224 329.024 950.14 329.891C957.244 336.553 965.756 341.53 975.046 344.453C976.219 344.819 977.418 345.157 978.608 345.463C1001.19 351.161 1025.14 344.394 1041.12 327.801C1052.88 315.587 1059.12 299.562 1058.68 282.683C1058.25 265.666 1051.1 249.823 1038.56 238.071C1033.71 233.52 1028.19 229.746 1022.19 226.88C1021.54 226.562 1020.86 226.253 1020.12 225.933C1018.26 225.122 1016.35 224.393 1014.44 223.765C1005.61 220.882 996.281 219.903 987.053 220.891C985.586 221.049 984.123 221.255 982.703 221.506C980.533 221.89 978.383 222.383 976.263 222.984C965.35 226.067 955.452 231.995 947.583 240.161C934.009 254.257 927.838 273.43 930.653 292.762L930.653 292.76Z" fill="#371A45"/>
<g opacity="0.3">
<path opacity="0.3" d="M1041.23 327.914C1024.62 345.179 1000.47 351.15 978.564 345.621C977.367 345.318 976.178 344.982 974.996 344.611C965.683 341.677 957.148 336.688 950.021 330.013C949.188 329.217 948.371 328.418 947.586 327.602C945.994 325.94 944.49 324.196 943.08 322.377C937.951 315.764 934.187 308.198 932.007 300.119C929.827 292.039 929.274 283.606 930.381 275.311C932.118 285.568 936.365 295.236 942.743 303.455C944.151 305.276 945.655 307.02 947.25 308.68C948.03 309.496 948.847 310.296 949.684 311.091C956.806 317.772 965.342 322.762 974.659 325.69C975.843 326.056 977.033 326.392 978.231 326.699C1000.13 332.229 1024.28 326.256 1040.9 308.992C1050.6 298.924 1056.27 286.523 1057.98 273.714C1061.2 292.726 1055.69 312.909 1041.23 327.914Z" fill="#371A45"/>
</g>
<path d="M994.008 349.615C988.635 349.569 983.286 348.881 978.075 347.566C976.844 347.252 975.609 346.903 974.4 346.527C964.799 343.502 956 338.358 948.653 331.475C947.704 330.577 946.888 329.764 946.141 328.985C944.499 327.275 942.949 325.479 941.497 323.605C934.612 314.714 930.138 304.198 928.507 293.073C925.593 273.075 931.977 253.239 946.021 238.656C954.155 230.212 964.388 224.083 975.671 220.895C977.861 220.273 980.082 219.763 982.324 219.368C983.793 219.108 985.306 218.895 986.821 218.733C996.356 217.711 1006 218.722 1015.11 221.701C1017.09 222.35 1019.07 223.104 1020.98 223.941C1021.75 224.271 1022.46 224.595 1023.14 224.927C1029.34 227.888 1035.04 231.787 1040.04 236.485C1053.01 248.638 1060.4 265.024 1060.85 282.626C1061.3 300.091 1054.84 316.664 1042.68 329.305C1029.9 342.579 1012.18 349.772 994.008 349.615ZM932.472 292.497C934.004 302.939 938.204 312.81 944.666 321.154C946.032 322.916 947.49 324.606 949.035 326.214C949.741 326.948 950.51 327.714 951.403 328.56C958.305 335.031 966.574 339.865 975.599 342.704C976.735 343.058 977.902 343.388 979.062 343.683C1001.01 349.219 1024.28 342.648 1039.79 326.526C1051.21 314.669 1057.27 299.114 1056.85 282.728C1056.42 266.206 1049.48 250.822 1037.3 239.407C1032.59 234.987 1027.23 231.32 1021.4 228.535C1020.76 228.223 1020.11 227.926 1019.39 227.618C1017.58 226.825 1015.72 226.117 1013.86 225.507C1005.29 222.706 996.218 221.754 987.249 222.715C985.823 222.868 984.398 223.068 983.022 223.313C970.022 225.6 958.079 231.944 948.905 241.435C935.732 255.118 929.736 273.734 932.472 292.498L932.472 292.497Z" fill="#371A45"/>
<path d="M934.92 308.517C961.234 345.99 1015.99 346.385 1034.33 305.214C1046.8 277.205 1028.56 243.402 1000.46 233.181C980.01 225.742 956.786 227.287 936.554 255.383C936.554 255.383 929.551 269.195 929.921 280.249C930.29 291.302 932.543 301.995 932.543 301.995L934.92 308.517Z" fill="#371A45"/>
<path d="M1034.33 305.215C1015.99 346.385 961.233 345.989 934.919 308.519L934.438 307.196C970.886 328.441 1018.39 319.78 1037.71 278.497C1039.1 287.377 1038.17 296.57 1034.33 305.215Z" fill="#291134"/>
<path d="M986.292 344.434C976.558 344.351 966.646 342.114 957.39 337.777L957.187 337.661C954.288 335.699 951.549 333.51 948.994 331.116C948.053 330.224 947.24 329.418 946.501 328.646C944.872 326.948 943.333 325.166 941.891 323.307C935.057 314.483 930.616 304.046 928.997 293.004C926.106 273.156 932.44 253.473 946.374 239.003C954.449 230.621 964.608 224.538 975.809 221.376L975.958 221.334L976.112 221.323C984.584 220.722 993.63 222.147 1003 225.555C1019.86 231.686 1034.26 245.574 1041.53 262.706C1048.08 278.128 1048.22 294.408 1041.92 308.549C1035.06 323.944 1023.51 335.035 1008.5 340.624C1001.48 343.237 993.941 344.5 986.292 344.434ZM958.774 335.1C974.546 342.466 992.281 343.454 1007.45 337.804C1021.68 332.503 1032.65 321.964 1039.17 307.324C1045.12 293.955 1044.98 278.527 1038.76 263.884C1031.81 247.506 1018.05 234.234 1001.97 228.383C993.057 225.142 984.48 223.773 976.476 224.315C965.849 227.345 956.213 233.133 948.546 241.091C935.259 254.888 929.218 273.652 931.976 292.574C933.52 303.101 937.754 313.051 944.268 321.463C945.646 323.24 947.117 324.942 948.675 326.563C949.381 327.303 950.161 328.075 951.058 328.926C953.466 331.182 956.046 333.246 958.774 335.1Z" fill="#371A45"/>
<path d="M985.951 338.033C965.714 337.859 946.068 327.284 933.56 309.473L933.434 309.293L930.913 302.334C930.82 301.888 928.628 291.367 928.254 280.302C927.875 268.956 934.772 255.213 935.062 254.637L935.196 254.418C952.902 229.839 975.049 222.17 1001.03 231.624C1016.11 237.109 1029 249.531 1035.5 264.855C1041.36 278.659 1041.49 293.234 1035.84 305.897C1027.68 324.251 1011.73 335.863 992.116 337.767C990.067 337.964 988.009 338.052 985.951 338.033ZM936.405 307.742C949.508 326.268 970.714 336.502 991.795 334.454C1010.19 332.671 1025.14 321.768 1032.81 304.54C1038.07 292.728 1037.94 279.094 1032.44 266.148C1026.29 251.659 1014.12 239.919 999.895 234.744C975.521 225.879 954.692 233.113 937.981 256.247C937.334 257.559 931.247 270.21 931.582 280.191C931.923 290.364 933.908 300.372 934.145 301.538L936.405 307.742Z" fill="#371A45"/>
<path d="M1062.15 312.492C1058.48 324.494 1048.21 332.385 1039.21 330.116C1030.21 327.846 1025.89 316.276 1029.56 304.273C1029.58 304.198 1029.6 304.119 1029.63 304.043C1033.36 292.17 1043.56 284.394 1052.5 286.649C1059.45 288.4 1063.61 295.706 1063.46 304.471C1063.4 307.192 1062.96 309.891 1062.15 312.492Z" fill="white"/>
<path d="M1042.23 330.819C1041.19 330.811 1040.15 330.678 1039.13 330.423C1035.53 329.515 1032.56 327.148 1030.55 323.585C1027.61 318.38 1027.13 311.128 1029.25 304.185C1029.27 304.109 1029.3 304.024 1029.33 303.944C1033.09 291.96 1043.52 284.065 1052.57 286.343C1059.43 288.072 1063.93 295.359 1063.77 304.477C1063.71 307.227 1063.27 309.956 1062.46 312.585C1059.16 323.369 1050.53 330.89 1042.23 330.819ZM1049.47 286.581C1041.52 286.513 1033.19 293.756 1029.93 304.138C1029.9 304.216 1029.88 304.29 1029.86 304.36C1027.78 311.146 1028.25 318.213 1031.1 323.269C1033.02 326.682 1035.86 328.943 1039.29 329.808C1048.11 332.034 1058.23 324.224 1061.85 312.399C1062.64 309.827 1063.08 307.157 1063.14 304.465C1063.29 295.648 1058.99 288.612 1052.42 286.956C1051.45 286.714 1050.46 286.588 1049.47 286.581L1049.47 286.581Z" fill="#371A45"/>
<g opacity="0.3">
<path opacity="0.3" d="M1062.15 312.492C1058.48 324.494 1048.21 332.385 1039.21 330.116C1030.21 327.846 1025.89 316.276 1029.56 304.273C1029.58 304.198 1029.6 304.119 1029.63 304.043C1030.24 305.525 1031.41 307.126 1033.62 307.244C1037.5 307.447 1046.42 301.383 1046.42 301.383C1046.42 301.383 1053.81 302.674 1063.46 304.467C1063.4 307.19 1062.96 309.89 1062.15 312.492Z" fill="#371A45"/>
</g>
<path d="M1042.2 332.185C1041.05 332.176 1039.91 332.03 1038.8 331.75C1034.82 330.749 1031.56 328.155 1029.36 324.253C1026.19 318.646 1025.68 311.182 1027.94 303.778C1031.86 290.948 1043.06 282.529 1052.91 285.013C1056.88 286.016 1060.15 288.608 1062.35 292.511C1065.51 298.119 1066.03 305.581 1063.77 312.985C1060.29 324.356 1051.1 332.261 1042.2 332.185ZM1049.41 287.945C1041.99 287.881 1034.2 294.833 1031.17 304.765C1029.2 311.194 1029.62 317.859 1032.3 322.595C1034.03 325.673 1036.57 327.705 1039.62 328.478C1047.75 330.53 1057.13 323.136 1060.54 311.999C1062.5 305.571 1062.08 298.905 1059.41 294.169C1057.67 291.091 1055.14 289.059 1052.08 288.286C1051.21 288.066 1050.31 287.952 1049.41 287.945Z" fill="#371A45"/>
<path d="M1063.08 316.969C1066.9 307.75 1064.34 297.938 1057.37 295.052C1050.4 292.166 1041.66 297.3 1037.84 306.519C1034.03 315.738 1036.58 325.55 1043.55 328.436C1050.52 331.321 1059.26 326.187 1063.08 316.969Z" fill="white"/>
<path d="M1047.51 329.423C1044.69 329.399 1042.15 328.353 1040.1 326.36C1034.48 320.892 1034.54 309.894 1040.24 301.844C1043.42 297.357 1047.79 294.549 1052.23 294.142C1055.53 293.837 1058.51 294.88 1060.85 297.153C1066.47 302.62 1066.41 313.619 1060.71 321.669C1057.53 326.157 1053.16 328.965 1048.71 329.372C1048.31 329.41 1047.91 329.427 1047.51 329.423ZM1053.43 294.438C1053.05 294.434 1052.66 294.451 1052.26 294.487C1047.92 294.886 1043.64 297.64 1040.52 302.041C1034.92 309.957 1034.84 320.753 1040.34 326.106C1042.6 328.308 1045.49 329.318 1048.69 329.027C1053.03 328.629 1057.3 325.873 1060.42 321.473C1066.03 313.556 1066.11 302.76 1060.61 297.407C1058.62 295.474 1056.16 294.461 1053.43 294.438L1053.43 294.438Z" fill="#371A45"/>
<g opacity="0.3">
<path opacity="0.3" d="M1035.88 315.344C1036.04 311.927 1037.15 308.545 1038.91 305.585C1039.21 313.41 1044.87 318.275 1052.11 316.602C1056.79 315.524 1061.05 311.961 1063.77 307.379C1063.79 307.873 1063.78 308.383 1063.76 308.901C1063.35 317.603 1056.77 326.1 1049.07 327.879C1041.38 329.658 1035.47 324.045 1035.88 315.344Z" fill="#371A45"/>
</g>
<path d="M1047.21 330.778C1046.41 330.774 1045.61 330.678 1044.84 330.491C1041.92 329.78 1039.52 327.876 1037.88 324.984C1035.34 320.504 1034.98 314.109 1036.91 307.879C1040.16 297.376 1048.96 290.329 1056.52 292.174C1059.44 292.885 1061.84 294.788 1063.48 297.68C1066.02 302.16 1066.38 308.555 1064.45 314.786C1061.53 324.2 1054.15 330.838 1047.21 330.778ZM1054.04 294.877C1048.42 294.829 1042.31 300.622 1039.78 308.77C1038.09 314.222 1038.36 319.73 1040.49 323.503C1041.71 325.649 1043.46 327.06 1045.55 327.569C1051.59 329.037 1058.78 322.909 1061.58 313.895C1063.27 308.442 1063 302.934 1060.86 299.162C1059.64 297.016 1057.9 295.605 1055.81 295.095C1055.23 294.954 1054.64 294.879 1054.04 294.873L1054.04 294.877Z" fill="#371A45"/>
<g opacity="0.5">
<path opacity="0.5" d="M1010.7 251.187C1010.7 251.187 983.527 243.196 963.355 252.934L963.291 252.965C959.063 255.014 955.459 258.155 952.851 262.063C949.414 267.211 947.812 271.259 946.542 274.876C942.684 285.88 942.967 291.757 942.967 291.757C938.649 283.748 937.382 275.911 940.503 266.714C940.813 265.808 941.166 264.886 941.561 263.95C941.652 263.734 941.742 263.522 941.842 263.31C941.842 263.306 941.842 263.302 941.85 263.298C943.033 260.966 944.357 258.709 945.814 256.538C950.978 248.839 959.72 239.499 972.283 238.099C995.776 235.483 1012.02 250.355 1010.7 251.187Z" fill="white"/>
<path opacity="0.5" d="M943.348 293.133L942.686 291.908C937.988 283.193 937.221 275.394 940.202 266.613C940.509 265.713 940.868 264.776 941.267 263.827C941.351 263.627 941.438 263.428 941.529 263.23L941.545 263.098L941.613 263.063C942.79 260.752 944.104 258.515 945.549 256.362C950.712 248.669 959.535 239.201 972.248 237.785C984.029 236.471 993.621 239.571 999.592 242.403C1006.4 245.631 1010.6 249.501 1011.04 250.761C1011.19 251.195 1010.97 251.391 1010.87 251.455L1010.75 251.531L1010.61 251.491C1010.34 251.411 983.319 243.645 963.492 253.221L963.291 252.966L963.429 253.252C959.252 255.277 955.691 258.38 953.115 262.242C949.613 267.487 948.041 271.569 946.842 274.984C943.055 285.784 943.281 291.687 943.284 291.745L943.348 293.133ZM942.111 263.482C942.02 263.677 941.935 263.872 941.852 264.071C941.458 265.008 941.105 265.934 940.802 266.816C938.01 275.043 938.578 282.396 942.669 290.502C942.785 288.223 943.387 282.913 946.242 274.77C947.454 271.318 949.043 267.193 952.583 261.886C955.224 257.931 958.872 254.752 963.151 252.678L963.214 252.647C981.848 243.652 1006.69 249.781 1010.34 250.758C1010.13 250.412 1009.61 249.762 1008.47 248.762C1003.05 244.027 989.346 236.521 972.318 238.415C959.845 239.804 951.164 249.133 946.076 256.715C944.626 258.876 943.308 261.124 942.131 263.446L942.111 263.482Z" fill="#371A45"/>
</g>
<g opacity="0.5">
<path opacity="0.5" d="M1029.82 284.477C1030.17 279.015 1026.63 274.342 1021.9 274.04C1017.18 273.737 1013.07 277.92 1012.72 283.381C1012.37 288.843 1015.91 293.515 1020.64 293.818C1025.36 294.12 1029.47 289.938 1029.82 284.477Z" fill="white"/>
<path opacity="0.5" d="M1021.05 294.153C1020.88 294.151 1020.71 294.144 1020.54 294.131C1015.65 293.764 1012.01 288.895 1012.41 283.269C1012.63 280.314 1013.94 277.591 1016.02 275.796C1017.75 274.306 1019.88 273.577 1022.01 273.733C1026.9 274.099 1030.55 278.969 1030.14 284.596C1029.93 287.551 1028.61 290.279 1026.53 292.068C1024.95 293.439 1023.02 294.17 1021.05 294.153ZM1021.5 274.346C1019.69 274.33 1017.91 275.006 1016.43 276.276C1014.48 277.962 1013.25 280.527 1013.05 283.316C1012.66 288.593 1016.05 293.163 1020.59 293.502C1022.56 293.65 1024.52 292.971 1026.12 291.592C1028.08 289.906 1029.31 287.341 1029.51 284.552C1029.89 279.275 1026.51 274.706 1021.97 274.366C1021.81 274.348 1021.65 274.347 1021.5 274.346Z" fill="#371A45"/>
</g>
<g opacity="0.5">
<path opacity="0.5" d="M1020.17 305.966C1022.13 305.908 1023.67 304.029 1023.61 301.769C1023.54 299.51 1021.89 297.725 1019.92 297.783C1017.96 297.841 1016.42 299.721 1016.49 301.98C1016.55 304.24 1018.2 306.025 1020.17 305.966Z" fill="white"/>
<path opacity="0.5" d="M1020.04 306.304C1017.92 306.286 1016.19 304.338 1016.16 301.929C1016.14 300.661 1016.6 299.449 1017.43 298.604C1017.76 298.258 1018.15 297.981 1018.59 297.788C1019.03 297.596 1019.5 297.493 1019.98 297.485C1022.11 297.483 1023.88 299.43 1023.91 301.86C1023.93 303.128 1023.47 304.34 1022.64 305.186C1022.31 305.532 1021.92 305.809 1021.48 306.001C1021.04 306.193 1020.57 306.296 1020.09 306.304L1020.04 306.304ZM1020.03 298.116L1019.98 298.115C1019.59 298.123 1019.2 298.21 1018.84 298.369C1018.48 298.528 1018.16 298.758 1017.88 299.044C1017.18 299.769 1016.78 300.815 1016.79 301.917C1016.82 303.981 1018.27 305.651 1020.04 305.667L1020.09 305.668C1020.48 305.66 1020.87 305.573 1021.23 305.414C1021.59 305.255 1021.92 305.025 1022.19 304.739C1022.9 304.014 1023.29 302.969 1023.28 301.866C1023.25 299.804 1021.8 298.133 1020.03 298.118L1020.03 298.116Z" fill="#371A45"/>
</g>
<path d="M920.98 489.921C920.489 489.916 920.017 489.731 919.653 489.401C919.29 489.07 919.06 488.618 919.008 488.13C914.745 447.806 915.347 414.229 920.799 388.332C920.85 388.071 920.952 387.823 921.099 387.603C921.247 387.382 921.436 387.192 921.658 387.046C921.879 386.899 922.127 386.798 922.388 386.748C922.649 386.698 922.917 386.7 923.177 386.755C923.437 386.809 923.683 386.915 923.902 387.066C924.12 387.217 924.307 387.409 924.45 387.633C924.593 387.856 924.691 388.106 924.737 388.368C924.783 388.629 924.777 388.897 924.718 389.156C919.353 414.644 918.772 447.802 922.991 487.709C923.021 487.99 922.991 488.273 922.903 488.541C922.815 488.809 922.671 489.056 922.481 489.264C922.291 489.473 922.059 489.639 921.801 489.751C921.542 489.864 921.262 489.92 920.98 489.917L920.98 489.921Z" fill="#371A45"/>
<path d="M938.209 353.23C937.22 354.415 936.313 355.795 935.521 357.183C935.114 357.876 934.726 358.583 934.351 359.294C933.998 360.021 933.613 360.723 933.289 361.464C931.924 364.384 930.731 367.381 929.715 370.44C929.162 371.952 928.731 373.513 928.245 375.048C927.993 375.813 927.805 376.602 927.588 377.379L926.936 379.711L925.785 384.418C925.43 385.997 925.097 387.58 924.719 389.154L924.704 389.218C924.576 389.726 924.255 390.163 923.809 390.437C923.362 390.71 922.827 390.798 922.317 390.682C921.807 390.566 921.362 390.255 921.079 389.815C920.795 389.375 920.695 388.842 920.799 388.329C921.15 386.705 921.545 385.09 921.918 383.473C922.352 381.866 922.817 380.268 923.272 378.669C924.271 375.491 925.366 372.342 926.697 369.277C927.322 367.731 928.079 366.234 928.797 364.73L929.985 362.515C930.381 361.78 930.827 361.067 931.258 360.351C933.05 357.518 934.966 354.767 937.6 352.534C937.688 352.46 937.8 352.421 937.914 352.426C938.029 352.431 938.138 352.478 938.219 352.559C938.3 352.64 938.348 352.748 938.354 352.863C938.359 352.977 938.321 353.09 938.248 353.178L938.209 353.23Z" fill="#371A45"/>
<path d="M898.559 359.029C897.184 359.017 895.814 358.869 894.469 358.588C894.074 358.506 893.728 358.27 893.507 357.933C893.285 357.595 893.208 357.184 893.29 356.789C893.372 356.394 893.608 356.048 893.946 355.827C894.283 355.606 894.695 355.528 895.09 355.61C908.718 358.45 920.299 343.935 920.413 343.787C920.662 343.47 921.027 343.264 921.428 343.216C921.828 343.168 922.231 343.281 922.549 343.53C922.866 343.779 923.072 344.144 923.12 344.544C923.168 344.945 923.055 345.348 922.806 345.665C922.333 346.267 912.055 359.145 898.559 359.029Z" fill="#371A45"/>
<path d="M914.984 324.826C915.351 325.808 915.733 326.912 916.097 327.962L916.654 329.554L917.224 331.14C917.996 333.248 918.759 335.363 919.687 337.399C920.155 338.414 920.634 339.424 921.174 340.397C921.437 340.889 921.73 341.361 922.007 341.847C922.306 342.314 922.598 342.793 922.924 343.242C924.181 345.086 925.694 346.742 927.572 348.106L927.579 348.106C927.639 348.149 927.682 348.212 927.7 348.284C927.718 348.356 927.71 348.432 927.677 348.498C927.645 348.564 927.59 348.617 927.522 348.646C927.454 348.676 927.378 348.681 927.307 348.659C924.967 347.994 922.813 346.605 920.998 344.94C920.086 344.107 919.237 343.207 918.459 342.247C917.676 341.301 916.948 340.309 916.281 339.277C914.937 337.241 913.789 335.082 912.85 332.831C912.614 332.271 912.404 331.703 912.197 331.134C911.99 330.565 911.798 329.99 911.625 329.408C911.258 328.233 910.976 327.033 910.783 325.817C910.701 325.287 910.818 324.746 911.112 324.299C911.407 323.851 911.856 323.529 912.375 323.394C912.893 323.259 913.443 323.321 913.918 323.569C914.393 323.816 914.759 324.231 914.945 324.733L914.984 324.826Z" fill="#371A45"/>
<path d="M896.145 291.684L915.903 285.526L940.209 285.735C940.209 285.735 935.312 300.508 935.322 308.994C935.333 317.48 936.039 318.781 936.039 318.781C936.039 318.781 940.746 323.28 939.775 335.93C939.775 335.93 936.155 338.774 930.848 337.003L930.828 339.304L905.661 339.088C905.661 339.088 908.08 308.759 896.145 291.684Z" fill="#4ED31C"/>
<g opacity="0.3">
<path opacity="0.3" d="M939.777 335.93C939.777 335.93 936.156 338.774 930.85 337.003L930.83 339.304L905.661 339.087C905.661 339.087 908.08 308.756 896.145 291.684L897.662 291.207C900.359 298.388 905.709 308.79 914.979 312.685C920.894 315.169 928.55 316.069 935.598 316.257C935.799 318.336 936.043 318.781 936.043 318.781C936.043 318.781 940.752 323.28 939.777 335.93Z" fill="#371A45"/>
</g>
<g opacity="0.6">
<path opacity="0.6" d="M917.951 289.833L938.656 290.011C939.521 286.944 940.213 284.847 940.213 284.847L915.907 284.637L896.149 290.796C897.235 292.364 898.203 294.012 899.044 295.724L917.951 289.833Z" fill="white"/>
</g>
<path d="M913.536 333.403L907.056 333.348C906.98 333.347 906.904 333.329 906.834 333.297C906.765 333.264 906.703 333.218 906.653 333.159C906.603 333.101 906.566 333.033 906.544 332.959C906.522 332.885 906.517 332.808 906.528 332.732C908.197 321.165 905.039 307.47 903.009 300.337C902.981 300.24 902.981 300.138 903.009 300.042C903.036 299.946 903.09 299.859 903.164 299.791C903.724 299.278 904.066 298.404 904.074 297.452C904.081 296.635 903.839 295.859 903.411 295.324C903.357 295.258 903.321 295.18 903.304 295.097C903.286 295.014 903.289 294.928 903.311 294.846C903.334 294.764 903.375 294.689 903.432 294.626C903.489 294.563 903.56 294.515 903.639 294.484L910.298 291.951C910.386 291.917 910.481 291.907 910.574 291.922C910.667 291.937 910.754 291.976 910.828 292.035C910.901 292.094 910.957 292.171 910.992 292.259C911.026 292.346 911.036 292.442 911.023 292.535C910.995 292.709 910.981 292.885 910.979 293.062C910.963 294.957 912.373 296.511 914.119 296.526C914.372 296.528 914.624 296.497 914.869 296.433C915.002 296.398 915.143 296.415 915.264 296.481C915.384 296.546 915.475 296.656 915.518 296.786C920.228 311.079 918.255 325.058 917.187 330.406C917.166 330.508 917.116 330.603 917.043 330.677C916.97 330.752 916.877 330.803 916.775 330.826C916.673 330.849 916.566 330.841 916.469 330.804C916.371 330.768 916.286 330.703 916.224 330.619C916.098 330.441 915.932 330.296 915.74 330.194C915.548 330.092 915.334 330.037 915.116 330.033C914.328 330.026 913.68 330.718 913.673 331.575C913.666 331.923 913.773 332.264 913.977 332.546C914.036 332.626 914.071 332.722 914.079 332.822C914.087 332.921 914.067 333.021 914.021 333.11C913.976 333.199 913.906 333.274 913.821 333.325C913.735 333.377 913.637 333.404 913.537 333.403L913.536 333.403ZM907.678 332.275L912.69 332.318C912.624 332.073 912.592 331.82 912.595 331.566C912.607 330.114 913.742 328.943 915.125 328.955C915.539 328.958 915.945 329.068 916.305 329.274C917.357 323.518 918.839 310.711 914.638 297.572C914.461 297.594 914.283 297.604 914.104 297.603C911.826 297.583 909.977 295.651 909.898 293.254L904.64 295.256C904.988 295.939 905.162 296.696 905.147 297.462C905.137 298.574 904.761 299.624 904.128 300.343C906.15 307.509 909.161 320.807 907.678 332.275Z" fill="#371A45"/>
<path d="M930.811 341.46L905.642 341.243C905.346 341.241 905.054 341.177 904.784 341.057C904.514 340.936 904.271 340.762 904.071 340.543C903.871 340.325 903.718 340.068 903.622 339.788C903.526 339.508 903.489 339.212 903.512 338.917C903.535 338.622 905.727 309.15 894.378 292.918C894.184 292.641 894.058 292.321 894.011 291.985C893.963 291.65 893.996 291.307 894.105 290.987C894.215 290.666 894.398 290.376 894.641 290.139C894.884 289.903 895.179 289.727 895.503 289.626L915.261 283.467C915.475 283.401 915.697 283.368 915.921 283.37L940.228 283.579C940.567 283.583 940.901 283.666 941.202 283.823C941.503 283.98 941.762 284.206 941.959 284.482C942.156 284.758 942.286 285.077 942.336 285.413C942.387 285.748 942.357 286.091 942.251 286.413C942.203 286.557 937.464 300.955 937.474 308.991C937.481 314.814 937.821 317.031 937.967 317.718C939.251 319.292 942.794 324.741 941.921 336.098C941.899 336.395 941.815 336.685 941.675 336.948C941.535 337.212 941.341 337.443 941.107 337.628C940.95 337.751 937.77 340.2 932.953 339.669C932.867 340.173 932.604 340.63 932.211 340.958C931.819 341.286 931.323 341.464 930.811 341.46ZM907.94 336.951L928.693 337.13L928.694 336.984C928.697 336.644 928.781 336.31 928.938 336.009C929.095 335.707 929.321 335.448 929.598 335.25C929.875 335.053 930.194 334.924 930.531 334.874C930.867 334.824 931.21 334.854 931.532 334.961C934.393 335.916 936.604 335.206 937.699 334.67C938.243 324.189 934.59 320.379 934.552 320.342C934.391 320.188 934.254 320.01 934.148 319.814C933.346 318.342 933.172 313.12 933.167 308.999C933.159 302.464 935.845 292.654 937.284 287.867L916.225 287.686L899.489 292.903C908.333 307.88 908.239 329.803 907.94 336.951Z" fill="#371A45"/>
<path d="M920.048 341.367C919.919 341.366 919.79 341.353 919.663 341.329C919.385 341.276 919.12 341.169 918.883 341.014C918.646 340.859 918.442 340.659 918.283 340.425C918.123 340.191 918.011 339.928 917.954 339.65C917.896 339.373 917.893 339.087 917.946 338.809C924.946 301.872 914.288 286.965 914.179 286.819C913.844 286.362 913.702 285.791 913.784 285.231C913.867 284.67 914.166 284.164 914.618 283.823C915.07 283.482 915.639 283.332 916.201 283.406C916.762 283.481 917.272 283.773 917.62 284.221C918.112 284.869 929.584 300.539 922.182 339.613C922.088 340.109 921.823 340.556 921.433 340.876C921.043 341.197 920.553 341.37 920.048 341.367Z" fill="#371A45"/>
<path d="M930.838 338.56C930.768 338.56 930.698 338.555 930.629 338.545C930.22 338.486 929.852 338.267 929.604 337.937C929.357 337.606 929.251 337.191 929.309 336.782C929.361 336.415 934.439 299.934 923.794 286.574C923.555 286.25 923.452 285.845 923.505 285.445C923.558 285.046 923.764 284.683 924.079 284.432C924.395 284.181 924.795 284.062 925.197 284.1C925.598 284.139 925.969 284.331 926.231 284.637C937.712 299.046 932.615 335.676 932.392 337.229C932.338 337.601 932.15 337.941 931.865 338.185C931.579 338.43 931.214 338.563 930.838 338.56Z" fill="#371A45"/>
<path d="M914.783 321.871L921.85 318.802L938.198 318.943L938.308 306.169L921.337 306.023L913.387 309.912" fill="#FCCE00"/>
<path d="M914.871 322.076L914.694 321.668L921.851 318.579L937.977 318.718L938.083 306.39L921.387 306.246L913.484 310.111L913.289 309.712L921.285 305.8L938.532 305.949L938.418 319.167L921.895 319.025L914.871 322.076Z" fill="#371A45"/>
<path d="M914.766 324.028C914.272 324.023 913.794 323.849 913.413 323.535C913.032 323.221 912.77 322.785 912.672 322.301C912.573 321.817 912.643 321.314 912.871 320.876C913.099 320.438 913.471 320.091 913.924 319.894L920.991 316.824C921.267 316.704 921.566 316.644 921.868 316.646L936.06 316.768L936.133 308.306L921.826 308.182L914.334 311.847C914.079 311.977 913.801 312.055 913.515 312.077C913.23 312.098 912.943 312.063 912.672 311.972C912.4 311.882 912.15 311.738 911.934 311.549C911.719 311.361 911.543 311.132 911.418 310.875C911.292 310.618 911.219 310.338 911.202 310.052C911.185 309.767 911.226 309.481 911.321 309.211C911.416 308.941 911.564 308.693 911.756 308.481C911.948 308.268 912.18 308.097 912.439 307.975L920.388 304.086C920.689 303.939 921.019 303.864 921.354 303.867L938.326 304.013C938.898 304.018 939.444 304.25 939.845 304.658C940.245 305.065 940.468 305.616 940.463 306.187L940.353 318.961C940.348 319.533 940.116 320.079 939.708 320.48C939.301 320.88 938.751 321.103 938.179 321.098L922.288 320.961L915.641 323.848C915.365 323.969 915.067 324.03 914.766 324.028Z" fill="#371A45"/>
<path d="M915.431 314.156C913.695 306.563 904.536 303.404 898.295 308.062C894.831 310.648 891.371 315.055 889.262 322.549C889.084 323.182 888.927 323.834 888.791 324.503C893.508 328.222 899.643 330.487 905.876 331.888C906.225 331.676 917.827 324.641 915.431 314.156Z" fill="#F9F9F9"/>
<path d="M923.769 379.318C913.963 379.234 905.097 374.546 898.027 365.679C888.34 353.532 883.747 334.758 887.335 322.006C889.288 315.066 892.572 309.835 897.097 306.457C898.836 305.159 900.872 304.317 903.019 304.008C905.167 303.699 907.358 303.932 909.391 304.688C913.445 306.179 916.434 309.555 917.384 313.708C920.111 325.643 907.424 333.299 906.879 333.619C906.422 333.89 905.876 333.968 905.361 333.836C904.847 333.704 904.406 333.373 904.135 332.916C903.864 332.459 903.786 331.913 903.918 331.398C904.05 330.884 904.381 330.443 904.838 330.172C904.945 330.108 915.552 323.672 913.48 314.601C912.823 311.727 910.829 309.484 908.014 308.447C906.606 307.922 905.088 307.759 903.601 307.972C902.113 308.185 900.702 308.768 899.498 309.667C895.696 312.504 892.903 317.02 891.193 323.091C887.924 334.715 892.209 351.95 901.163 363.181C905.815 369.019 913.797 375.854 925.419 375.28C925.684 375.264 925.949 375.3 926.2 375.387C926.45 375.473 926.681 375.609 926.879 375.786C927.076 375.962 927.237 376.177 927.351 376.416C927.465 376.655 927.531 376.915 927.544 377.179C927.557 377.444 927.518 377.709 927.428 377.958C927.338 378.208 927.199 378.437 927.02 378.632C926.841 378.828 926.625 378.986 926.384 379.097C926.143 379.208 925.883 379.27 925.618 379.28C924.996 379.311 924.379 379.324 923.769 379.318Z" fill="#371A45"/>
<path d="M1009.76 404.563C1009.43 404.56 1009.12 404.456 1008.85 404.265C1008.59 404.073 1008.39 403.804 1008.29 403.496C1008.19 403.187 1008.18 402.854 1008.28 402.543C1008.38 402.233 1008.57 401.96 1008.83 401.764C1009.39 401.34 1022.78 391.47 1043.02 397.751C1043.41 397.873 1043.74 398.148 1043.93 398.513C1044.12 398.879 1044.16 399.306 1044.04 399.701C1043.92 400.095 1043.64 400.425 1043.28 400.617C1042.91 400.81 1042.49 400.849 1042.09 400.727C1023.45 394.94 1010.83 404.157 1010.7 404.252C1010.43 404.457 1010.1 404.566 1009.76 404.563Z" fill="#371A45"/>
<path d="M922.046 389.048L943.965 393.622C944.471 393.728 944.994 393.733 945.502 393.637C946.011 393.541 946.496 393.345 946.929 393.062C947.362 392.778 947.735 392.412 948.026 391.985C948.318 391.557 948.522 391.076 948.628 390.569L950.373 382.218C950.586 381.194 950.384 380.128 949.812 379.253C949.239 378.379 948.342 377.767 947.319 377.554L925.401 372.979C924.377 372.766 923.311 372.968 922.437 373.54C921.562 374.113 920.951 375.009 920.737 376.033L918.992 384.384C918.779 385.408 918.981 386.474 919.554 387.349C920.126 388.223 921.023 388.834 922.046 389.048Z" fill="white"/>
<path d="M944.733 395.486C944.352 395.483 943.973 395.441 943.601 395.363L921.684 390.79C920.199 390.478 918.899 389.59 918.068 388.321C917.237 387.052 916.944 385.505 917.251 384.02L918.995 375.668C919.306 374.183 920.194 372.882 921.463 372.051C922.733 371.22 924.28 370.926 925.766 371.235L947.688 375.803C949.172 376.115 950.472 377.003 951.303 378.273C952.134 379.542 952.427 381.089 952.12 382.574L950.376 390.926C950.106 392.219 949.397 393.379 948.369 394.209C947.342 395.039 946.058 395.488 944.737 395.481L944.733 395.486ZM922.41 387.304L944.328 391.878C944.606 391.936 944.892 391.939 945.171 391.886C945.45 391.834 945.716 391.727 945.954 391.571C946.192 391.416 946.396 391.215 946.556 390.981C946.716 390.746 946.828 390.482 946.886 390.204L948.63 381.852C948.746 381.291 948.635 380.707 948.321 380.227C948.007 379.747 947.516 379.412 946.955 379.294L925.038 374.718C924.477 374.601 923.892 374.712 923.412 375.026C922.933 375.34 922.597 375.831 922.48 376.392L920.736 384.744C920.62 385.305 920.73 385.89 921.044 386.37C921.358 386.849 921.85 387.185 922.41 387.303L922.41 387.304Z" fill="#371A45"/>
<path d="M950.561 367.741L992.683 377.141C997.311 378.174 1000.25 382.803 999.219 387.434L994.505 408.553C993.472 413.18 988.842 416.12 984.212 415.087L942.09 405.684C937.463 404.652 934.521 400.021 935.555 395.392L940.268 374.272C941.302 369.647 945.931 366.71 950.561 367.741Z" fill="white"/>
<path d="M986.008 417.078C985.274 417.072 984.542 416.987 983.826 416.827L941.702 407.422C939.014 406.815 936.675 405.168 935.198 402.841C933.72 400.514 933.225 397.697 933.819 395.006L938.531 373.887C939.136 371.197 940.782 368.856 943.11 367.378C945.438 365.9 948.257 365.405 950.948 366.003L993.071 375.403C995.761 376.008 998.102 377.654 999.581 379.981C1001.06 382.309 1001.55 385.128 1000.96 387.82L996.242 408.939C995.718 411.258 994.418 413.33 992.557 414.81C990.696 416.29 988.386 417.09 986.008 417.078ZM948.74 369.315C947.175 369.304 945.654 369.829 944.429 370.802C943.204 371.776 942.349 373.139 942.006 374.665L937.293 395.785C936.905 397.554 937.231 399.405 938.202 400.935C939.172 402.464 940.708 403.548 942.475 403.95L984.597 413.351C986.367 413.739 988.218 413.413 989.748 412.442C991.278 411.472 992.362 409.936 992.764 408.169L997.478 387.05C997.87 385.28 997.544 383.427 996.572 381.896C995.6 380.366 994.061 379.283 992.293 378.884L950.169 369.482C949.7 369.377 949.221 369.321 948.74 369.315Z" fill="#371A45"/>
<g opacity="0.3">
<path opacity="0.3" d="M950.561 367.741L992.683 377.141C997.311 378.174 1000.25 382.803 999.219 387.434L994.505 408.553C993.472 413.18 988.842 416.12 984.212 415.087L942.09 405.684C937.463 404.652 934.521 400.021 935.555 395.392L940.268 374.272C941.302 369.647 945.931 366.71 950.561 367.741Z" fill="#371A45"/>
</g>
<path d="M939.802 365.362L981.925 374.764C986.552 375.796 989.492 380.426 988.46 385.056L983.746 406.175C982.714 410.802 978.082 413.741 973.454 412.709L931.33 403.307C926.702 402.274 923.761 397.644 924.796 393.015L929.509 371.896C930.543 367.269 935.173 364.329 939.802 365.362Z" fill="white"/>
<path d="M974.33 391.366C977.121 391.39 979.405 389.017 979.43 386.065C979.456 383.113 977.214 380.7 974.422 380.676C971.631 380.652 969.348 383.026 969.322 385.978C969.297 388.93 971.539 391.342 974.33 391.366Z" fill="#22A7F0"/>
<g opacity="0.5">
<path opacity="0.5" d="M970.639 388.215C970.664 385.263 972.948 382.889 975.739 382.914C976.385 382.921 977.024 383.058 977.618 383.314C978.212 383.571 978.748 383.942 979.198 384.408C978.556 382.261 976.67 380.696 974.423 380.677C971.632 380.653 969.348 383.027 969.323 385.978C969.313 386.697 969.445 387.412 969.711 388.08C969.978 388.748 970.373 389.357 970.875 389.873C970.713 389.335 970.634 388.776 970.639 388.215Z" fill="white"/>
</g>
<path d="M974.32 392.48C970.92 392.451 968.179 389.53 968.21 385.969C968.24 382.408 971.032 379.536 974.431 379.565C977.831 379.594 980.573 382.515 980.542 386.075C980.511 389.635 977.717 392.509 974.32 392.48ZM974.412 381.79C972.24 381.771 970.455 383.654 970.435 385.988C970.415 388.322 972.167 390.236 974.339 390.255C976.512 390.274 978.297 388.39 978.317 386.056C978.337 383.722 976.585 381.809 974.412 381.79Z" fill="#371A45"/>
<g opacity="0.3">
<path opacity="0.3" d="M985.197 376.278C985.369 377.342 985.337 378.429 985.104 379.481L980.389 400.6C979.357 405.228 974.726 408.166 970.097 407.134L927.973 397.733C926.787 397.467 925.672 396.95 924.701 396.217C925.237 399.613 927.785 402.517 931.33 403.306L973.454 412.708C978.08 413.74 982.712 410.801 983.746 406.174L988.463 385.056C988.819 383.433 988.701 381.743 988.121 380.186C987.542 378.63 986.527 377.273 985.197 376.278Z" fill="#371A45"/>
</g>
<path d="M975.248 414.696C974.515 414.69 973.783 414.606 973.067 414.445L930.944 405.044C928.256 404.436 925.918 402.789 924.442 400.462C922.965 398.136 922.47 395.319 923.065 392.628L927.777 371.51C928.384 368.821 930.031 366.482 932.358 365.004C934.685 363.526 937.503 363.03 940.194 363.625L982.317 373.027C985.007 373.631 987.348 375.277 988.826 377.605C990.304 379.932 990.799 382.751 990.202 385.442L985.487 406.563C984.962 408.881 983.662 410.951 981.801 412.43C979.94 413.909 977.63 414.709 975.253 414.696L975.248 414.696ZM937.983 366.934C936.419 366.926 934.9 367.453 933.675 368.425C932.451 369.398 931.594 370.759 931.247 372.284L926.535 393.403C926.146 395.172 926.473 397.024 927.443 398.553C928.414 400.083 929.95 401.166 931.716 401.568L973.84 410.969C975.609 411.357 977.46 411.031 978.989 410.06C980.519 409.09 981.602 407.554 982.004 405.788L986.719 384.668C987.112 382.899 986.787 381.045 985.816 379.514C984.845 377.983 983.306 376.9 981.538 376.502L939.414 367.099C938.944 366.994 938.465 366.94 937.983 366.935L937.983 366.934Z" fill="#371A45"/>
<path d="M949.926 409.312C949.806 409.311 949.687 409.3 949.57 409.278C949.048 409.18 948.586 408.88 948.286 408.442C947.985 408.003 947.871 407.464 947.968 406.942L951.002 390.667L939.349 383.001C939.008 382.776 938.744 382.453 938.592 382.074C938.439 381.695 938.407 381.279 938.498 380.88L941.768 366.608C941.887 366.09 942.206 365.641 942.656 365.358C943.105 365.076 943.649 364.984 944.167 365.103C944.684 365.221 945.134 365.54 945.416 365.99C945.698 366.44 945.79 366.983 945.672 367.501L942.712 380.418L954.314 388.048C954.644 388.265 954.903 388.574 955.058 388.937C955.213 389.3 955.258 389.701 955.186 390.089L951.909 407.672C951.823 408.135 951.578 408.553 951.215 408.852C950.853 409.152 950.396 409.315 949.926 409.312Z" fill="#371A45"/>
<path d="M1010.41 407.846L993.305 404.275C992.798 404.169 992.318 403.964 991.89 403.673C991.463 403.381 991.097 403.008 990.813 402.575C990.53 402.142 990.335 401.657 990.239 401.149C990.143 400.64 990.148 400.118 990.255 399.611L991.995 391.259C992.101 390.752 992.305 390.271 992.596 389.843C992.888 389.414 993.261 389.048 993.694 388.764C994.127 388.48 994.612 388.285 995.121 388.189C995.63 388.092 996.152 388.097 996.659 388.203L1007.43 390.448C1008.73 396.191 1009.72 401.998 1010.41 407.846Z" fill="white"/>
<path d="M1012.47 410.098L992.941 406.022C991.457 405.71 990.157 404.821 989.327 403.552C988.497 402.283 988.204 400.737 988.512 399.252L990.252 390.9C990.405 390.164 990.702 389.465 991.125 388.844C991.548 388.223 992.09 387.692 992.718 387.28C993.347 386.868 994.051 386.584 994.789 386.444C995.528 386.305 996.287 386.312 997.022 386.466L1008.91 388.944L1009.17 390.058C1010.48 395.861 1011.49 401.729 1012.18 407.638L1012.47 410.098ZM995.868 389.906C995.368 389.902 994.883 390.072 994.495 390.385C994.107 390.699 993.839 391.138 993.738 391.627L991.998 399.979C991.881 400.539 991.991 401.123 992.304 401.603C992.616 402.082 993.107 402.418 993.667 402.537L1008.33 405.601C1007.71 400.958 1006.91 396.386 1005.94 391.961L996.295 389.951C996.155 389.92 996.011 389.904 995.868 389.902L995.868 389.906Z" fill="#371A45"/>
<g opacity="0.3">
<path opacity="0.3" d="M1007.43 390.449L1001.65 389.243C1001.84 390.185 1002.02 391.143 1002.2 392.132C1003.05 396.92 998.798 401.06 994.037 400.067L990.321 399.291L990.256 399.608C990.149 400.114 990.144 400.637 990.24 401.145C990.336 401.654 990.531 402.138 990.814 402.572C991.098 403.005 991.464 403.378 991.891 403.669C992.318 403.961 992.799 404.166 993.306 404.271L1010.41 407.842C1009.72 401.996 1008.73 396.191 1007.43 390.449Z" fill="#371A45"/>
</g>
<path d="M985.406 443.625C981.419 445.917 976.99 447.538 972.39 448.433C967.8 449.291 962.998 449.666 958.34 448.773C956.017 448.33 953.747 447.665 951.531 446.888L949.884 446.264L948.27 445.566C947.729 445.343 947.206 445.066 946.684 444.814L945.899 444.428L945.132 444.004C941.021 441.796 937.343 438.863 934.257 435.501C934.193 435.431 934.157 435.339 934.157 435.244C934.157 435.149 934.192 435.057 934.256 434.986C934.319 434.915 934.407 434.871 934.502 434.861C934.597 434.852 934.692 434.878 934.768 434.934L934.774 434.934C936.558 436.277 938.431 437.495 940.382 438.581C942.302 439.661 944.301 440.596 946.36 441.377C950.441 442.971 954.716 443.921 959 444.368C961.146 444.564 963.278 444.786 965.436 444.946C967.603 445.089 969.777 445.098 971.945 444.972C976.356 444.7 980.718 443.886 984.931 442.548C985.07 442.503 985.222 442.512 985.355 442.572C985.489 442.632 985.596 442.74 985.655 442.874C985.714 443.009 985.721 443.16 985.675 443.299C985.629 443.439 985.533 443.556 985.405 443.629L985.406 443.625Z" fill="#371A45"/>
<path d="M974.574 492.866L974.567 492.866C974.284 492.863 974.004 492.804 973.744 492.693C973.484 492.581 973.248 492.42 973.05 492.217C972.853 492.015 972.697 491.775 972.591 491.513C972.486 491.25 972.434 490.969 972.437 490.686C972.438 490.546 972.559 476.597 969.005 467.487C965.374 458.178 959.032 448.091 958.968 447.99C958.674 447.507 958.58 446.927 958.709 446.376C958.838 445.824 959.179 445.346 959.658 445.044C960.136 444.742 960.715 444.64 961.268 444.76C961.821 444.881 962.304 445.214 962.614 445.688C962.882 446.113 969.237 456.218 973.022 465.921C976.882 475.819 976.755 490.133 976.748 490.737C976.741 491.308 976.509 491.852 976.101 492.251C975.694 492.65 975.145 492.871 974.574 492.866Z" fill="#371A45"/>
<path d="M968.623 460.454C968.195 461.257 967.809 462.081 967.465 462.922C967.102 463.762 966.801 464.633 966.499 465.495C965.925 467.219 965.481 468.983 965.17 470.773C964.847 472.543 964.651 474.333 964.583 476.131C964.547 476.575 964.551 477.025 964.555 477.474L964.56 478.823L964.61 481.672C964.666 485.467 964.657 489.261 964.583 493.054C964.507 496.847 964.423 500.641 964.377 504.434L964.376 504.475C964.371 504.883 964.243 505.281 964.01 505.616C963.901 505.776 963.88 505.793 963.818 505.876L963.674 506.046C963.577 506.161 963.494 506.245 963.397 506.343C963.221 506.519 963.036 506.687 962.843 506.844C962.481 507.142 962.097 507.411 961.693 507.65C960.929 508.094 960.116 508.45 959.272 508.711C957.687 509.186 956.038 509.412 954.385 509.381L918.946 509.076L918.758 509.068L918.379 509.046C918.128 509.023 917.877 508.983 917.628 508.942C916.631 508.742 915.686 508.34 914.851 507.761C914.015 507.178 913.312 506.425 912.788 505.551C912.526 505.112 912.309 504.649 912.141 504.166C912.07 503.922 911.991 503.678 911.938 503.429L911.866 503.055L911.833 502.87L911.815 502.725C911.595 501.159 911.54 499.575 911.651 497.997C911.765 496.348 912.134 494.727 912.747 493.191C913.393 491.598 914.356 490.153 915.577 488.943C916.801 487.733 918.246 486.813 919.739 486.122C920.257 485.88 920.849 485.854 921.387 486.049C921.924 486.245 922.361 486.645 922.603 487.163C922.845 487.681 922.871 488.274 922.676 488.811C922.48 489.348 922.08 489.786 921.562 490.027L921.5 490.056C920.408 490.57 919.42 491.208 918.613 492.005C917.801 492.807 917.162 493.768 916.736 494.827C915.853 496.981 915.739 499.58 916.086 502.141L916.101 502.261L916.117 502.339L916.145 502.49C916.165 502.59 916.203 502.685 916.225 502.784C916.294 502.975 916.382 503.159 916.487 503.333C916.698 503.689 916.983 503.995 917.322 504.231C917.663 504.462 918.046 504.623 918.45 504.705C918.552 504.717 918.655 504.737 918.758 504.747L918.913 504.754L918.991 504.76L954.423 505.065C955.628 505.093 956.83 504.934 957.987 504.594C958.508 504.438 959.007 504.218 959.474 503.939C959.683 503.812 959.881 503.669 960.069 503.512C960.152 503.444 960.231 503.371 960.305 503.294C960.333 503.261 960.376 503.222 960.395 503.199L960.423 503.164C960.416 503.175 960.451 503.125 960.392 503.211L960.031 504.393C960.049 500.599 960.03 496.805 960.02 493.011C960.01 489.217 960.067 485.423 960.189 481.63L960.288 478.783L960.39 477.288C960.423 476.788 960.458 476.288 960.533 475.792L960.73 474.302L961.025 472.83C961.119 472.337 961.246 471.853 961.371 471.37C961.495 470.888 961.608 470.401 961.774 469.929C961.94 469.457 962.075 468.979 962.25 468.509L962.785 467.116C962.981 466.659 963.191 466.207 963.394 465.756L964.064 464.427C964.538 463.557 965.055 462.712 965.614 461.894C966.178 461.067 966.807 460.285 967.496 459.558C967.616 459.432 967.779 459.355 967.952 459.339C968.126 459.324 968.299 459.372 968.44 459.474C968.581 459.577 968.68 459.727 968.719 459.897C968.758 460.067 968.733 460.245 968.651 460.399L968.623 460.454Z" fill="#371A45"/>
<path d="M1044.27 352.473L1029.78 350.896C1029.61 350.878 1029.45 350.795 1029.33 350.664C1029.21 350.533 1029.15 350.363 1029.15 350.188C1029.15 350.012 1029.22 349.843 1029.34 349.714C1029.46 349.585 1029.62 349.506 1029.79 349.491L1044.31 348.163C1044.59 348.132 1044.88 348.158 1045.16 348.239C1045.43 348.321 1045.69 348.457 1045.91 348.639C1046.14 348.821 1046.32 349.046 1046.46 349.3C1046.59 349.554 1046.67 349.833 1046.7 350.119C1046.73 350.406 1046.7 350.695 1046.61 350.969C1046.52 351.243 1046.38 351.498 1046.2 351.717C1046.01 351.937 1045.78 352.117 1045.52 352.248C1045.27 352.378 1044.99 352.456 1044.7 352.477C1044.56 352.49 1044.41 352.488 1044.27 352.473Z" fill="#371A45"/>
<g opacity="0.3">
<path opacity="0.3" d="M938.302 306.821L938.307 306.169L937.607 306.163L938.302 306.821Z" fill="#371A45"/>
</g>
<g opacity="0.3">
<path opacity="0.3" d="M922.556 306.106L922.551 306.033L921.336 306.023L913.387 309.909L914.782 321.869L921.85 318.799L938.198 318.94L938.239 314.119L930.915 314.056C926.47 314.02 922.857 310.541 922.556 306.106Z" fill="#371A45"/>
</g>
</g>
<path d="M66.2139 63.2707C71.1896 57.4608 74.0963 50.1927 74.4849 42.5897C75.4949 23.3932 60.5918 7.04173 41.2037 6.06896C21.8155 5.09619 5.27816 19.8715 4.26963 39.0679C3.26111 58.2644 18.1627 74.6159 37.5524 75.5901C42.7641 75.857 47.9716 74.9677 52.7946 72.9871L68.3092 79.0106L66.2139 63.2707Z" fill="white"/>
<path d="M48.0654 45.5121C48.0654 48.8155 45.5189 51.362 42.0967 52.1579V56.1373H37.6399V52.0789C34.1777 51.1632 31.4725 48.418 31.1938 48.1394L34.3774 44.9558C34.6161 45.2344 37.0836 47.8209 39.9486 47.8209C42.0976 47.8209 43.4906 46.7473 43.4906 45.553C43.4906 41.971 31.712 41.2949 31.712 34.4505C31.712 31.148 34.2195 28.6006 37.6408 27.8447V23.8652H42.0976V27.9237C45.5598 28.8393 48.2651 31.5446 48.5437 31.8232L45.4 35.0068C45.1214 34.6882 42.6149 32.2216 39.7898 32.2216C37.6408 32.2216 36.2487 33.2163 36.2487 34.4105C36.2487 37.9916 48.0672 38.6686 48.0672 45.5121H48.0654Z" fill="#00B48F"/>
<g opacity="0.5">
<path opacity="0.5" d="M40.8991 12.3288C59.0806 13.2624 73.3364 27.8006 74.3199 45.577C74.5196 44.3359 74.653 43.0851 74.7196 41.8298C75.7189 22.3657 60.7495 5.77678 41.2868 4.77739C21.8242 3.77799 5.23379 18.7475 4.2344 38.2102C4.17015 39.4716 4.17321 40.7357 4.24365 41.9968C7.03747 24.4045 22.7105 11.4002 40.8991 12.3288Z" fill="white"/>
</g>
<path d="M68.7353 81.6934C69.0851 81.6703 69.4263 81.5754 69.7379 81.4147C70.0496 81.2539 70.3249 81.0308 70.547 80.759C70.769 80.4873 70.933 80.1727 71.0287 79.8348C71.1245 79.497 71.15 79.1429 71.1037 78.7947L69.1569 64.0734C74.779 56.9599 77.6353 48.0435 77.196 38.978C76.7566 29.9126 73.0515 21.3136 66.7678 14.7761C60.4842 8.23862 52.0485 4.2064 43.0257 3.42745C34.0029 2.6485 25.0054 5.1757 17.7022 10.5402C10.399 15.9048 5.28593 23.7425 3.31139 32.5995C1.33685 41.4566 2.6349 50.7317 6.96474 58.7043C11.2946 66.677 18.3624 72.806 26.8569 75.9545C35.3515 79.103 44.6962 79.0571 53.1578 75.8255L67.6222 81.5236C67.9761 81.6621 68.3563 81.7201 68.7353 81.6934ZM37.6187 8.36868C38.8957 8.2834 40.1767 8.27362 41.4548 8.33937C47.4738 8.64927 53.2871 10.6379 58.2397 14.0812C63.1923 17.5245 67.0871 22.2855 69.4852 27.8275C71.8833 33.3695 72.6893 39.4722 71.8123 45.4477C70.9354 51.4233 68.4103 57.034 64.5218 61.6475C64.2914 61.9209 64.1204 62.2395 64.02 62.583C63.9197 62.9264 63.892 63.2872 63.9388 63.642L65.4621 75.1567L54.0956 70.6813C53.478 70.4387 52.7907 70.445 52.1778 70.6989C47.7419 72.544 42.9486 73.3661 38.1524 73.1043C20.3387 72.1849 6.58414 56.9099 7.49611 39.0542C8.33465 22.496 21.502 9.44319 37.6187 8.36868Z" fill="#1A1F47"/>
<g opacity="0.3">
<path opacity="0.3" d="M66.6381 63.2598C55.835 69.8611 42.1279 71.3607 29.5633 66.086C15.6301 60.2352 6.66084 47.5451 4.89491 33.5577C4.52194 35.3459 4.28744 37.1601 4.1935 38.9843C3.1942 58.4485 18.1635 75.0359 37.6278 76.0367C42.8594 76.3109 48.0862 75.4127 52.9263 73.4078L68.504 79.5256L66.3901 63.5655C66.4753 63.4649 66.5544 63.3617 66.6381 63.2598Z" fill="#371A45"/>
</g>
<path d="M947.579 40.29C947.524 41.1545 949.245 42.0221 951.872 42.6076C952.518 42.7523 953.102 43.098 953.539 43.5949C953.976 44.0918 954.245 44.7145 954.306 45.3736C954.553 48.048 955.194 49.8719 956.058 49.9272C956.923 49.9824 957.79 48.2613 958.376 45.6337C958.52 44.9877 958.866 44.4042 959.363 43.967C959.86 43.5297 960.483 43.2612 961.142 43.2001C963.822 42.9539 965.64 42.3125 965.695 41.448C965.751 40.5835 964.03 39.7096 961.402 39.1279C960.755 38.9835 960.171 38.6377 959.733 38.1402C959.295 37.6427 959.026 37.0191 958.965 36.3591C958.719 33.6784 958.077 31.8608 957.213 31.8055C956.348 31.7503 955.481 33.4715 954.895 36.099C954.75 36.7457 954.404 37.3297 953.906 37.7672C953.409 38.2047 952.785 38.473 952.125 38.5336C949.455 38.7779 947.635 39.4204 947.579 40.29Z" fill="#FFD527"/>
<path d="M1029.24 95.1944C1027.64 94.4186 1026.97 92.4936 1027.75 90.8948C1028.52 89.296 1030.45 88.6287 1032.05 89.4045C1033.65 90.1802 1034.31 92.1052 1033.54 93.704C1032.76 95.3029 1030.84 95.9701 1029.24 95.1944Z" fill="#8DD7FF"/>
<path d="M30.1374 261.386L30.1373 261.386C28.7764 260.833 27.7347 260.268 27.081 259.767C26.8248 259.571 26.6581 259.407 26.557 259.283C26.702 259.217 26.9235 259.144 27.2398 259.083C28.0462 258.926 29.2269 258.886 30.6841 258.999L30.687 258.999C31.6599 259.072 32.6308 258.835 33.46 258.321C34.2892 257.807 34.9339 257.043 35.3013 256.139L35.3015 256.139C35.8542 254.777 36.4193 253.735 36.9201 253.08C37.1138 252.827 37.2758 252.662 37.3989 252.56C37.4645 252.706 37.5364 252.927 37.5978 253.24C37.7558 254.048 37.7993 255.23 37.6914 256.692L30.1374 261.386ZM30.1374 261.386C31.0402 261.753 31.8032 262.397 32.3169 263.225C32.8304 264.053 33.0683 265.023 32.9964 265.994C32.8891 267.456 32.9325 268.639 33.0906 269.446C33.1519 269.76 33.2236 269.98 33.289 270.125C33.4124 270.024 33.5749 269.858 33.7692 269.605C34.2692 268.952 34.8328 267.912 35.3834 266.556L35.3839 266.554M30.1374 261.386L35.3839 266.554M35.3839 266.554C35.7516 265.652 36.3959 264.889 37.2244 264.375M35.3839 266.554L37.2244 264.375M40.5531 261.305L40.5541 261.306C41.9134 261.856 42.9542 262.421 43.6074 262.922C43.8626 263.118 44.0291 263.282 44.1304 263.406C43.9849 263.471 43.7641 263.543 43.4505 263.604C42.6414 263.762 41.4568 263.804 39.9945 263.697L40.5531 261.305ZM40.5531 261.305C39.6492 260.938 38.8851 260.294 38.3709 259.465M40.5531 261.305L38.3709 259.465M37.2244 264.375C38.0525 263.862 39.0221 263.624 39.9938 263.697L37.2244 264.375ZM38.3709 259.465C37.8567 258.636 37.6188 257.666 37.6913 256.693L38.3709 259.465ZM37.294 252.38C37.294 252.38 37.2949 252.381 37.2967 252.383C37.2949 252.381 37.294 252.38 37.294 252.38ZM37.5695 252.446C37.5719 252.446 37.5731 252.445 37.5731 252.445C37.5731 252.445 37.5719 252.445 37.5695 252.446ZM26.382 259.386C26.3821 259.386 26.383 259.385 26.3846 259.383C26.3827 259.385 26.3819 259.386 26.382 259.386ZM26.4462 259.116C26.4455 259.113 26.445 259.112 26.4449 259.112C26.4448 259.112 26.4452 259.113 26.4462 259.116ZM33.3936 270.305C33.3936 270.305 33.3927 270.304 33.3909 270.302C33.3926 270.304 33.3936 270.305 33.3936 270.305ZM33.1192 270.238C33.1168 270.239 33.1155 270.24 33.1155 270.24C33.1155 270.24 33.1167 270.239 33.1192 270.238ZM44.3105 263.302C44.3104 263.302 44.3094 263.303 44.3077 263.305C44.3097 263.303 44.3105 263.302 44.3105 263.302ZM44.2428 263.576C44.2435 263.578 44.244 263.58 44.2441 263.58C44.2442 263.58 44.2438 263.578 44.2428 263.576Z" stroke="#FFD527" stroke-width="2.16689"/>
<defs>
<clipPath id="clip0_4601_2449">
<rect width="186.138" height="251.033" fill="white" transform="matrix(1 0 -0.016272 0.999868 886.946 210)"/>
</clipPath>
</defs>
</svg>
