<svg width="504" height="399" viewBox="0 0 504 399" fill="none" xmlns="http://www.w3.org/2000/svg">
<path opacity="0.4" d="M367.969 372C412.544 335.511 441 280.067 441 217.973C441 108.084 351.903 19 242 19C132.097 19 43 108.085 43 217.973C43 280.067 71.4527 335.511 116.03 372C153.132 371.268 196.143 370.849 242.003 370.849C287.863 370.849 330.868 371.268 367.969 372Z" fill="#22A7F0"/>
<path d="M442.752 354.043C444.724 349.823 439.192 309.987 400.616 308.202C392.984 308.167 385.468 310.079 378.775 313.758C372.369 308.022 363.8 304.16 354.227 303.213C350.724 286.434 334.038 273.719 313.964 273.719C306.925 273.691 299.976 275.313 293.672 278.455C291.657 279.465 289.305 279.546 287.142 278.876L286.755 278.76C284.774 278.202 283.056 276.955 281.908 275.242C274.857 264.348 261.562 257 246.306 257C230.241 257 216.341 265.143 209.638 276.995C203.03 273.44 195.641 271.595 188.142 271.627C165.526 271.627 147.19 287.767 147.19 307.676C147.19 308.737 147.253 309.785 147.356 310.823C133.363 313.647 121.758 321.97 115.649 333.081C107.048 323.945 94.0624 318.126 79.531 318.126C54.351 318.126 33.8193 335.594 32.6962 357.514C31.4955 357.38 30.2884 357.312 29.0804 357.309C13.0206 357.309 0 368.771 0 382.909C0 383.613 0.0402966 384.31 0.103247 385H504C498.523 367.243 474.801 344.518 442.752 354.043Z" fill="white"/>
<path d="M368.603 94.2256C388.817 94.2256 405.204 77.8388 405.204 57.6246C405.204 37.4105 388.817 21.0237 368.603 21.0237C348.389 21.0237 332.002 37.4105 332.002 57.6246C332.002 77.8388 348.389 94.2256 368.603 94.2256Z" fill="#FFD527"/>
<path d="M368.603 96.2493C347.306 96.2493 329.979 78.922 329.979 57.6246C329.979 36.3273 347.306 19 368.603 19C389.901 19 407.228 36.3287 407.228 57.6246C407.228 78.9206 389.901 96.2493 368.603 96.2493ZM368.603 23.0474C349.537 23.0474 334.026 38.5585 334.026 57.6246C334.026 76.6908 349.537 92.2004 368.603 92.2004C387.669 92.2004 403.186 76.6879 403.186 57.6246C403.186 38.5613 387.669 23.0474 368.603 23.0474Z" fill="#000072"/>
<g opacity="0.5">
<path opacity="0.5" d="M374.12 35.6863C367.135 40.9258 360.178 35.9081 359.874 35.6863C359.515 35.428 359.069 35.321 358.632 35.3881C358.195 35.4552 357.802 35.6912 357.537 36.0453C357.272 36.3994 357.157 36.8433 357.216 37.2814C357.275 37.7196 357.504 38.1171 357.853 38.3884C359.714 39.7838 363.216 41.4167 367.258 41.4167C370.048 41.4167 373.098 40.6367 376.042 38.4628L389.272 31.2797C389.593 31.1038 389.848 30.8279 389.998 30.494C389.116 29.7984 388.202 29.1458 387.255 28.5361L374.328 35.5489C374.255 35.5899 374.186 35.6358 374.12 35.6863Z" fill="white"/>
</g>
<g opacity="0.5">
<path opacity="0.5" d="M334.918 60.7719C335.237 60.1922 335.592 59.6329 335.98 59.0974C338.351 55.7756 341.689 53.2668 345.539 51.9137C349.388 50.5607 353.562 50.4294 357.489 51.538C363.692 53.2897 375.216 55.3506 382.695 49.4771C383.047 49.2009 383.275 48.7963 383.329 48.3522C383.382 47.9082 383.257 47.461 382.981 47.1092C382.705 46.7573 382.3 46.5295 381.856 46.476C381.412 46.4225 380.965 46.5475 380.613 46.8236C374.306 51.7755 363.993 49.8678 358.407 48.292C354.034 47.0597 349.395 47.1393 345.067 48.5209C340.739 49.9025 336.913 52.5253 334.063 56.0633C334.04 56.5814 334.022 57.1009 334.022 57.6248C334.024 58.9063 334.098 60.1868 334.241 61.4603C334.529 61.3017 334.765 61.0624 334.918 60.7719Z" fill="white"/>
</g>
<g opacity="0.5">
<path opacity="0.5" d="M386.942 75.543C385.036 75.2467 383.341 75.2138 381.764 75.4385C374.801 76.4403 372.013 80.9586 371.898 81.1503C371.682 81.5332 371.624 81.985 371.737 82.4097C371.849 82.8344 372.123 83.1985 372.5 83.4246C372.876 83.6507 373.326 83.721 373.754 83.6205C374.182 83.5199 374.553 83.2566 374.79 82.8864C374.81 82.852 376.937 79.536 382.241 78.7789C383.483 78.6 384.853 78.6358 386.425 78.8776C388.989 79.2797 391.469 80.0982 393.769 81.3006C394.556 80.4667 395.3 79.5942 396.001 78.683C393.192 77.1063 390.124 76.043 386.942 75.543Z" fill="white"/>
</g>
<g opacity="0.3">
<path opacity="0.3" d="M347.493 87.9756C352.75 90.7563 358.608 92.2068 364.556 92.2004C384.769 92.2004 401.155 75.8135 401.155 55.5995C401.163 47.0464 398.161 38.7631 392.675 32.2012C392.541 37.6239 389.936 81.1475 340.991 82.3969C344.103 85.7753 347.821 88.5399 351.953 90.5474C350.408 89.7956 348.917 88.9362 347.493 87.9756Z" fill="#000072"/>
</g>
<g opacity="0.5">
<path opacity="0.5" d="M368.603 23.0479C362.555 23.0434 356.613 24.6361 351.378 27.6648C346.654 30.3931 342.638 34.1928 339.652 38.7579C335.977 44.3637 334.022 50.9221 334.027 57.6251C334.027 69.2907 339.841 79.6166 348.716 85.8823C342.536 80.2719 338.599 72.6121 337.634 64.3215C336.668 56.031 338.74 47.6716 343.466 40.7916C345.294 40.4381 347.473 39.2073 349.404 37.2809C351.264 35.4204 352.487 33.3065 352.883 31.5161C358.677 27.6624 365.502 25.6524 372.46 25.7505C379.418 25.8486 386.184 28.0501 391.867 32.0657C385.512 26.2583 377.212 23.0411 368.603 23.0479Z" fill="white"/>
</g>
<path d="M366.582 39.3902C362.542 39.3902 359.041 37.7572 357.179 36.3603C356.821 36.0926 356.584 35.6935 356.52 35.2509C356.456 34.8083 356.571 34.3585 356.839 34.0003C357.106 33.6422 357.506 33.4051 357.948 33.3412C358.391 33.2774 358.841 33.3919 359.199 33.6597C359.508 33.8873 366.46 38.9007 373.446 33.6597C373.511 33.6101 373.58 33.5656 373.652 33.5266L386.988 26.2849C387.381 26.0713 387.843 26.0227 388.272 26.1497C388.701 26.2766 389.061 26.5688 389.275 26.9618C389.488 27.3549 389.537 27.8166 389.41 28.2455C389.283 28.6744 388.991 29.0353 388.598 29.2488L375.368 36.4333C372.424 38.6102 369.374 39.3902 366.582 39.3902Z" fill="#000072"/>
<path d="M332.748 59.657C332.459 59.6564 332.175 59.5816 331.924 59.4398C331.672 59.298 331.461 59.0939 331.311 58.8472C331.16 58.6004 331.076 58.3192 331.066 58.0305C331.055 57.7418 331.119 57.4552 331.251 57.1983C331.642 56.4792 332.078 55.786 332.558 55.1231C335.332 51.234 339.239 48.2964 343.745 46.7115C348.252 45.1267 353.137 44.9719 357.735 46.2684C363.317 47.8427 373.635 49.7547 379.941 44.8014C380.294 44.5371 380.736 44.4215 381.173 44.4791C381.61 44.5367 382.008 44.7631 382.28 45.1098C382.552 45.4565 382.678 45.896 382.63 46.3342C382.583 46.7725 382.365 47.1747 382.025 47.4548C374.544 53.3226 363.02 51.2675 356.819 49.5143C352.892 48.406 348.718 48.5373 344.868 49.8903C341.018 51.2434 337.68 53.7521 335.31 57.0738C334.922 57.6105 334.567 58.1702 334.247 58.7497C334.104 59.0234 333.888 59.2527 333.624 59.4126C333.36 59.5726 333.057 59.6571 332.748 59.657Z" fill="#000072"/>
<path d="M397.318 81.7128C396.935 81.7126 396.564 81.5818 396.265 81.3421C392.411 78.2536 388.026 77.2017 385.756 76.8496C384.182 76.6063 382.813 76.5734 381.57 76.7523C376.266 77.5094 374.14 80.8254 374.128 80.8598C374.017 81.0564 373.868 81.2287 373.69 81.3668C373.511 81.5048 373.307 81.6057 373.089 81.6634C372.871 81.7211 372.644 81.7346 372.42 81.7029C372.197 81.6712 371.982 81.5951 371.789 81.479C371.595 81.3629 371.427 81.2093 371.294 81.0271C371.161 80.8449 371.066 80.6379 371.014 80.4183C370.963 80.1987 370.956 79.971 370.994 79.7487C371.032 79.5263 371.114 79.3138 371.235 79.1238C371.351 78.932 374.138 74.4009 381.1 73.4119C382.675 73.1872 384.373 73.2216 386.28 73.5164C388.882 73.92 393.915 75.1308 398.382 78.7102C398.656 78.9282 398.855 79.2263 398.952 79.563C399.049 79.8996 399.039 80.2581 398.923 80.5887C398.807 80.9192 398.591 81.2054 398.304 81.4073C398.018 81.6093 397.676 81.7171 397.326 81.7156L397.318 81.7128Z" fill="#000072"/>
<path d="M323.315 74.8459C322.274 74.8385 321.257 74.5277 320.39 73.9515C319.523 73.3754 318.843 72.5588 318.433 71.6019C318.023 70.645 317.901 69.5893 318.081 68.564C318.262 67.5387 318.738 66.5884 319.451 65.8295C322.953 62.1084 329.805 58.7008 330.096 58.5577C330.656 58.2922 331.298 58.2576 331.883 58.4614C332.469 58.6651 332.95 59.0909 333.225 59.6467C333.499 60.2026 333.544 60.844 333.349 61.4325C333.155 62.021 332.737 62.5095 332.185 62.7925C332.122 62.824 325.805 65.9654 322.891 69.0639C322.801 69.1588 322.744 69.2793 322.726 69.4086C322.708 69.5379 322.731 69.6696 322.791 69.7853C322.852 69.9009 322.947 69.9948 323.063 70.0538C323.18 70.1129 323.312 70.134 323.441 70.1144C334.295 68.4843 389.561 59.4979 411.618 42.6358C411.772 42.5358 411.887 42.3878 411.947 42.2151C412.007 42.0424 412.008 41.8547 411.95 41.6812C411.897 41.5034 411.786 41.3484 411.635 41.2404C411.484 41.1324 411.302 41.0775 411.116 41.0844C408.476 40.9771 405.347 41.2991 401.813 42.0476C401.201 42.1772 400.561 42.0581 400.036 41.7164C399.511 41.3747 399.144 40.8385 399.014 40.2257C398.884 39.6129 399.004 38.9737 399.345 38.4487C399.687 37.9237 400.223 37.556 400.836 37.4263C404.755 36.5977 408.278 36.2427 411.309 36.3658C412.462 36.4014 413.576 36.7942 414.496 37.4899C415.417 38.1855 416.098 39.1498 416.447 40.2494C416.796 41.3491 416.794 42.5299 416.443 43.6288C416.092 44.7277 415.408 45.6904 414.487 46.3841C392.081 63.511 339.672 72.453 324.142 74.7843C323.868 74.8253 323.592 74.8459 323.315 74.8459Z" fill="#000072"/>
<path d="M360.19 74.645C364.537 72.8443 366.601 67.8605 364.801 63.5133C363 59.1662 358.016 57.1018 353.669 58.9025C349.322 60.7031 347.258 65.6869 349.058 70.0341C350.859 74.3813 355.843 76.4457 360.19 74.645Z" fill="#00BBFC"/>
<path d="M356.928 76.9742C354.91 76.9742 352.937 76.3756 351.258 75.2542C349.58 74.1328 348.272 72.5389 347.5 70.674C346.727 68.8092 346.525 66.7571 346.919 64.7774C347.313 62.7977 348.285 60.9792 349.712 59.5519C351.139 58.1246 352.958 57.1526 354.937 56.7589C356.917 56.3651 358.969 56.5672 360.834 57.3396C362.699 58.1121 364.293 59.4201 365.414 61.0985C366.536 62.7768 367.134 64.75 367.134 66.7685C367.131 69.4743 366.055 72.0684 364.142 73.9817C362.228 75.895 359.634 76.9712 356.928 76.9742ZM356.928 59.9432C355.577 59.9432 354.256 60.3439 353.132 61.0947C352.009 61.8454 351.133 62.9125 350.616 64.161C350.099 65.4094 349.964 66.7832 350.227 68.1086C350.491 69.4339 351.142 70.6514 352.097 71.6069C353.053 72.5624 354.27 73.2132 355.595 73.4768C356.921 73.7404 358.295 73.6051 359.543 73.088C360.792 72.5709 361.859 71.6951 362.609 70.5715C363.36 69.4479 363.761 68.127 363.761 66.7756C363.759 64.9641 363.038 63.2274 361.758 61.9465C360.477 60.6655 358.74 59.9451 356.928 59.9432Z" fill="#000072"/>
<g opacity="0.5">
<path opacity="0.5" d="M352.121 68.1238C352.12 66.9922 352.401 65.8782 352.938 64.882C353.474 63.8857 354.25 63.0385 355.195 62.4164C356.141 61.7942 357.226 61.4167 358.353 61.3178C359.48 61.2188 360.614 61.4016 361.654 61.8495C360.932 61.157 360.068 60.6314 359.121 60.3098C358.174 59.9882 357.168 59.8785 356.174 59.9884C355.18 60.0983 354.223 60.4252 353.369 60.946C352.515 61.4667 351.786 62.1686 351.234 63.002C350.681 63.8355 350.319 64.7801 350.171 65.7691C350.024 66.7582 350.096 67.7675 350.381 68.7258C350.667 69.6841 351.16 70.5679 351.824 71.3149C352.489 72.0618 353.31 72.6536 354.229 73.0485C353.563 72.4128 353.032 71.6487 352.67 70.8022C352.308 69.9557 352.121 69.0446 352.121 68.1238Z" fill="white"/>
</g>
<g opacity="0.3">
<path opacity="0.3" d="M361.481 60.1536C361.481 60.1536 362.155 70.9489 350.686 72.2985C350.686 72.2985 359.457 77.6955 365.528 70.2734C365.528 70.2734 366.878 62.1787 361.481 60.1536Z" fill="#000072"/>
</g>
<path d="M253.871 398.13C318.969 398.13 371.741 392.281 371.741 385.065C371.741 377.849 318.969 372 253.871 372C188.772 372 136 377.849 136 385.065C136 392.281 188.772 398.13 253.871 398.13Z" fill="#371A45" fill-opacity="0.2"/>
<path d="M124.747 70.1073C130.828 63.8952 134.674 55.8733 135.689 47.2812C138.286 25.5894 122.623 5.92085 100.711 3.352C78.7989 0.783147 58.9292 16.2875 56.3343 37.9792C53.7394 59.671 69.401 79.3396 91.3145 81.9101C97.2041 82.6068 103.177 81.992 108.795 80.1107L125.933 88.1142L124.747 70.1073Z" fill="white"/>
<g opacity="0.5">
<path opacity="0.5" d="M99.892 10.427C120.438 12.8601 135.505 30.4236 135.276 50.6557C135.596 49.2635 135.842 47.8552 136.013 46.4368C138.617 24.4408 122.897 4.49791 100.903 1.89323C78.9082 -0.711446 58.9637 15.0091 56.359 37.0034C56.1908 38.429 56.0987 39.8626 56.0832 41.298C60.5813 21.5603 79.337 7.99883 99.892 10.427Z" fill="white"/>
</g>
<path d="M126.21 91.1879C126.608 91.1881 127.002 91.1063 127.368 90.9476C127.733 90.7889 128.062 90.5567 128.335 90.2653C128.607 89.9739 128.817 89.6296 128.951 89.2537C129.085 88.8778 129.141 88.4783 129.114 88.0799L128.02 71.2394C134.933 63.598 138.846 53.703 139.033 43.39C139.22 33.077 135.669 23.0459 129.038 15.1576C122.406 7.2693 113.146 2.05917 102.973 0.49374C92.8004 -1.07169 82.4065 1.11382 73.7194 6.64485C65.0323 12.1759 58.6417 20.677 55.7331 30.5712C52.8244 40.4655 53.5951 51.0812 57.9023 60.4492C62.2094 69.8173 69.7606 77.3017 79.1551 81.5141C88.5495 85.7265 99.1496 86.3811 108.989 83.3562L124.96 90.9111C125.351 91.0949 125.778 91.1895 126.21 91.1879ZM96.4681 5.68811C97.9226 5.68796 99.3759 5.77371 100.82 5.9449C107.622 6.75135 114.064 9.44591 119.42 13.7249C124.775 18.0038 128.832 23.697 131.132 30.1628C133.433 36.6285 133.885 43.6097 132.439 50.3194C130.993 57.0291 127.705 63.2005 122.947 68.1381C122.665 68.4306 122.447 68.779 122.307 69.1609C122.168 69.5428 122.109 69.9498 122.135 70.3557L122.992 83.528L110.441 77.5938C109.759 77.272 108.98 77.2271 108.265 77.4687C103.096 79.2257 97.5981 79.7955 92.1792 79.1361C72.0487 76.7467 57.6064 58.3856 59.9904 38.207C62.1931 19.494 78.1111 5.68811 96.4681 5.68811Z" fill="#371A45"/>
<g opacity="0.3">
<path opacity="0.3" d="M125.225 70.1264C112.476 76.7953 96.8192 77.4595 82.9702 70.5283C67.6128 62.8404 58.4014 47.7722 57.4564 31.7776C56.8983 33.7771 56.4952 35.8166 56.2508 37.8781C53.6461 59.8741 69.3667 79.8153 91.3627 82.4217C97.2744 83.1281 103.269 82.5048 108.909 80.5972L126.111 88.7123L124.921 70.4543C125.025 70.3467 125.123 70.2357 125.225 70.1264Z" fill="#371A45"/>
</g>
<g clip-path="url(#clip0_1505_953)">
<path d="M200.03 229.092V250.406H239.538L234.902 237.693L225.23 211.177C225.23 211.177 222.944 214.437 218.96 218.223C216.482 220.588 213.328 223.156 209.666 225.264C206.758 226.936 203.524 228.324 200.03 229.092Z" fill="white"/>
<path d="M242.61 252.552H197.876V227.368L199.566 226.998C213.526 223.933 223.366 210.088 223.464 209.949L225.836 206.564L242.61 252.552ZM202.182 248.262H236.465L224.524 215.518C220.702 219.954 212.71 227.85 202.184 230.768L202.182 248.262Z" fill="#371A45"/>
<path d="M279.307 215.259C279.307 215.259 302.864 211.532 310.228 215.778C323.498 223.428 330.843 270.047 322.436 287.458C316.266 300.239 271.855 297.489 271.855 297.489" fill="white"/>
<g opacity="0.35">
<path opacity="0.35" d="M322.432 287.458C316.263 300.239 271.852 297.488 271.852 297.488L273.891 274.972C283.531 275.325 316.574 275.712 321.833 264.82C323.473 261.424 324.514 256.917 325.025 251.806C326.826 265.453 326.276 279.505 322.432 287.458Z" fill="#371A45"/>
</g>
<path d="M282.2 299.925C276.961 299.925 272.997 299.708 271.723 299.629C271.161 299.584 270.639 299.321 270.269 298.896C269.9 298.472 269.712 297.919 269.747 297.358C269.782 296.797 270.037 296.273 270.456 295.897C270.876 295.521 271.426 295.324 271.99 295.349C288.606 296.373 316.461 294.886 320.495 286.528C324.186 278.881 324.908 263.878 322.335 248.306C319.776 232.817 314.6 220.776 309.149 217.635C303.65 214.464 285.985 216.373 279.645 217.377C279.081 217.466 278.504 217.328 278.042 216.994C277.58 216.66 277.27 216.157 277.18 215.595C277.091 215.033 277.229 214.459 277.564 213.998C277.9 213.538 278.405 213.229 278.969 213.14C281.457 212.747 303.507 209.425 311.3 213.925C321.259 219.666 325.512 241.162 326.578 247.613C328.732 260.651 329.281 278.21 324.37 288.391C319.561 298.363 296.283 299.923 282.2 299.925Z" fill="#371A45"/>
<path d="M322.873 254.436L309.674 256.532C309.101 256.622 308.574 256.9 308.177 257.32C307.779 257.741 307.533 258.281 307.477 258.857C307.059 263.19 306.615 273.25 311.058 276.19C314.747 278.631 320.336 277.844 323.396 274.794C326.817 271.385 326.36 261.593 325.896 256.765C325.862 256.409 325.755 256.065 325.582 255.752C325.409 255.44 325.174 255.166 324.891 254.948C324.607 254.73 324.282 254.572 323.935 254.483C323.588 254.395 323.227 254.379 322.873 254.436Z" fill="white"/>
<g opacity="0.35">
<path opacity="0.35" d="M307.478 258.858C307.058 263.19 306.615 273.25 311.06 276.19C314.748 278.631 320.336 277.844 323.397 274.794C325.5 272.694 326.138 268.184 326.208 263.898C325.788 266.071 324.992 267.874 323.919 269.102C317.766 276.139 312.129 268.913 312.129 268.913C312.129 268.913 311.417 270.84 310.734 271.003C307.88 271.676 307.724 262.618 307.752 257.925C307.601 258.215 307.508 258.532 307.478 258.858Z" fill="#371A45"/>
</g>
<path d="M316.167 279.313C314.007 279.313 311.877 278.752 310.124 277.593C305.094 274.264 305.253 264.324 305.795 258.696C305.887 257.75 306.292 256.861 306.946 256.168C307.6 255.476 308.466 255.019 309.409 254.87L322.608 252.772C323.19 252.68 323.784 252.707 324.355 252.852C324.925 252.997 325.46 253.258 325.926 253.617C326.392 253.976 326.779 254.427 327.063 254.94C327.347 255.454 327.522 256.021 327.578 256.605C328.235 263.433 328.254 272.339 324.592 275.985C322.403 278.172 319.254 279.313 316.167 279.313ZM323.14 256.098L309.94 258.193C309.737 258.225 309.55 258.323 309.409 258.472C309.268 258.621 309.18 258.813 309.16 259.017C308.384 267.072 309.47 273.115 311.994 274.787C314.933 276.732 319.607 276.19 322.2 273.604C324.268 271.543 325.017 265.308 324.215 256.924C324.203 256.797 324.165 256.675 324.103 256.564C324.042 256.452 323.958 256.355 323.857 256.277C323.756 256.2 323.64 256.144 323.517 256.113C323.393 256.082 323.265 256.076 323.139 256.097L323.14 256.098Z" fill="#371A45"/>
<path d="M317.281 278.807C317.046 278.693 316.82 278.562 316.605 278.414C316.416 278.285 316.231 278.152 316.061 278.011C315.719 277.74 315.397 277.444 315.096 277.128C314.509 276.518 313.993 275.844 313.558 275.119C312.717 273.724 312.126 272.194 311.811 270.598C311.495 269.038 311.404 267.475 311.391 265.946C311.391 264.412 311.431 262.853 311.834 261.375C311.664 262.888 311.866 264.406 312.091 265.887C312.338 267.382 312.655 268.844 313.164 270.212C313.65 271.555 314.366 272.804 315.282 273.902C315.716 274.426 316.21 274.899 316.753 275.311C317.012 275.51 317.284 275.691 317.568 275.853C317.707 275.935 317.847 276.003 317.984 276.068C318.092 276.123 318.206 276.167 318.322 276.2C318.538 276.21 318.748 276.268 318.939 276.368C319.129 276.469 319.295 276.61 319.424 276.782C319.554 276.954 319.643 277.153 319.687 277.363C319.73 277.574 319.726 277.791 319.676 278C319.625 278.209 319.529 278.404 319.393 278.571C319.258 278.739 319.088 278.875 318.894 278.969C318.7 279.063 318.488 279.113 318.272 279.116C318.056 279.119 317.843 279.074 317.646 278.985L317.281 278.807Z" fill="#371A45"/>
<path d="M310.96 218.092C310.831 218.054 310.699 218.026 310.565 218.009C310.413 217.979 310.241 217.964 310.078 217.94C309.74 217.906 309.402 217.874 309.054 217.863C308.36 217.826 307.651 217.845 306.938 217.877C305.489 217.967 304.05 218.162 302.63 218.461C301.182 218.764 299.752 219.15 298.349 219.617C297.64 219.841 296.948 220.12 296.241 220.371L294.164 221.23L296.052 219.995C296.701 219.616 297.343 219.209 298.008 218.848C299.341 218.105 300.715 217.439 302.125 216.854C303.561 216.257 305.038 215.765 306.544 215.382C307.312 215.199 308.088 215.032 308.889 214.922C309.286 214.86 309.694 214.821 310.108 214.785C310.318 214.774 310.521 214.755 310.742 214.752C310.983 214.742 311.224 214.746 311.465 214.764L311.793 214.788C312.252 214.823 312.678 215.039 312.978 215.387C313.277 215.735 313.426 216.187 313.391 216.644C313.356 217.101 313.14 217.526 312.79 217.825C312.441 218.123 311.987 218.271 311.528 218.236C311.332 218.22 311.14 218.171 310.96 218.092Z" fill="#371A45"/>
<path d="M185.214 310.982L301.921 333.503C302.696 312.29 301.384 292.381 299.193 274.986C296.319 252.24 291.949 233.795 288.785 222.308C286.491 214.003 284.834 209.333 284.834 209.333C284.834 209.333 221.524 176.447 219.122 215.81C219.074 216.619 219.02 217.423 218.96 218.223C218.638 222.582 218.191 226.799 217.62 230.872C216.709 237.443 215.451 243.962 213.852 250.402C212.38 256.333 210.611 262.187 208.552 267.941C198.515 295.93 185.214 310.982 185.214 310.982Z" fill="white"/>
<g opacity="0.35">
<path opacity="0.35" d="M185.214 310.982L301.921 333.503C302.696 312.29 301.384 292.381 299.193 274.986C294.285 276.627 286.801 278.45 277.149 278.782C253.684 279.587 223.11 276.284 208.552 267.946C198.515 295.93 185.214 310.982 185.214 310.982Z" fill="#371A45"/>
</g>
<path d="M303.979 336.087L181.112 312.376L183.597 309.57C183.671 309.487 191.117 300.958 198.918 285.183C206.105 270.638 215.072 246.774 216.973 215.686C217.502 207.027 220.864 200.893 226.965 197.455C245.77 186.86 284.207 206.588 285.833 207.433L286.584 207.823L286.868 208.619C287.065 209.173 306.582 264.922 304.075 333.584L303.979 336.087ZM189.122 309.552L299.85 330.917C301.652 268.667 285.409 217.797 283.079 210.851C277.641 208.157 244.524 192.478 229.078 201.186C224.262 203.9 221.706 208.728 221.266 215.942C219.317 247.826 210.092 272.308 202.696 287.234C197.226 298.273 192.002 305.772 189.122 309.552Z" fill="#371A45"/>
<g opacity="0.35">
<path opacity="0.35" d="M249.261 294.446C249.01 295.269 248.773 296.076 248.549 296.866C248.77 296.069 249.006 295.265 249.261 294.446Z" fill="#371A45"/>
</g>
<g opacity="0.35">
<path opacity="0.35" d="M215.042 253.509C213.179 261.833 211.831 269.077 211.052 275.158C211.519 269.464 212.876 262.202 215.042 253.509Z" fill="#371A45"/>
</g>
<path d="M214.197 270.484C217.024 267.666 217.024 263.099 214.197 260.282C211.369 257.465 206.785 257.465 203.957 260.282C201.13 263.099 201.13 267.666 203.957 270.484C206.785 273.301 211.369 273.301 214.197 270.484Z" fill="white"/>
<g opacity="0.35">
<path opacity="0.35" d="M201.864 264.786C201.785 265.73 201.894 266.68 202.184 267.583C202.474 268.485 202.939 269.321 203.554 270.044C204.168 270.767 204.919 271.362 205.765 271.796C206.61 272.23 207.533 272.493 208.48 272.571C209.428 272.65 210.382 272.541 211.287 272.253C212.193 271.964 213.032 271.5 213.758 270.888C214.483 270.276 215.081 269.527 215.516 268.685C215.951 267.843 216.216 266.923 216.294 265.979C216.385 264.916 216.235 263.847 215.856 262.849C215.169 264.031 214.159 264.994 212.944 265.627C211.729 266.259 210.358 266.535 208.992 266.422C207.626 266.309 206.32 265.812 205.226 264.989C204.132 264.165 203.295 263.049 202.813 261.77C202.274 262.692 201.95 263.723 201.864 264.786Z" fill="#371A45"/>
</g>
<path d="M209.092 274.742C208.829 274.742 208.565 274.731 208.304 274.709C205.86 274.505 203.593 273.355 201.99 271.506C200.387 269.657 199.575 267.256 199.728 264.817C199.881 262.378 200.987 260.096 202.809 258.46C204.631 256.825 207.024 255.965 209.474 256.066C211.924 256.168 214.238 257.221 215.917 259.002C217.597 260.782 218.51 263.147 218.46 265.59C218.41 268.033 217.401 270.359 215.65 272.07C213.899 273.781 211.545 274.74 209.092 274.742ZM209.068 260.314C207.735 260.315 206.456 260.835 205.504 261.764C204.552 262.693 204.004 263.957 203.976 265.284C203.948 266.611 204.443 267.896 205.355 268.864C206.267 269.832 207.524 270.405 208.855 270.461C210.186 270.517 211.486 270.05 212.477 269.162C213.467 268.274 214.069 267.035 214.153 265.71C214.237 264.385 213.796 263.08 212.926 262.075C212.056 261.069 210.825 260.444 209.497 260.332C209.354 260.326 209.216 260.314 209.068 260.314Z" fill="#371A45"/>
<g opacity="0.35">
<path opacity="0.35" d="M211.799 272.751C213.725 265.543 214.914 258.16 215.35 250.715C214.736 254.733 213.904 258.715 212.856 262.644C211.569 267.479 210.776 272.587 210.682 277.677C210.994 276.014 211.37 274.367 211.799 272.751Z" fill="#371A45"/>
</g>
<path d="M217.203 287.391L254.577 293.406C256.711 293.743 258.892 293.226 260.644 291.966C262.396 290.706 263.576 288.807 263.927 286.683L267.139 266.867C267.432 265.019 267.079 263.127 266.139 261.508C265.198 259.889 263.727 258.642 261.972 257.976C261.463 257.782 260.934 257.641 260.395 257.555L223.028 251.54C220.893 251.2 218.711 251.717 216.959 252.977C215.206 254.237 214.026 256.138 213.677 258.263L211.131 273.956L210.461 278.077C210.123 280.202 210.642 282.374 211.906 284.119C213.169 285.864 215.073 287.04 217.203 287.391Z" fill="white"/>
<g opacity="0.35">
<path opacity="0.35" d="M217.204 287.391L254.578 293.406C256.711 293.743 258.893 293.226 260.645 291.966C262.397 290.706 263.577 288.807 263.928 286.683L267.139 266.867C267.433 265.019 267.08 263.127 266.139 261.508C265.199 259.889 263.728 258.642 261.973 257.976C259.623 259.038 258.129 259.72 258.129 259.72C253.73 275.332 247.898 282.532 228.022 279.664C219.444 278.424 214.253 276.255 211.124 273.956L210.454 278.077C210.116 280.203 210.637 282.376 211.901 284.121C213.166 285.866 215.072 287.042 217.204 287.391Z" fill="#371A45"/>
</g>
<path d="M255.884 295.196C255.355 295.196 254.828 295.153 254.306 295.069L216.934 289.059C214.359 288.641 212.055 287.223 210.528 285.115C209.001 283.007 208.375 280.381 208.788 277.815L212.002 257.997C212.421 255.431 213.845 253.135 215.961 251.614C218.076 250.092 220.711 249.469 223.288 249.881L260.659 255.897C263.234 256.314 265.538 257.731 267.066 259.837C268.593 261.944 269.22 264.569 268.809 267.135L265.595 286.953C265.216 289.248 264.033 291.336 262.256 292.845C260.479 294.353 258.223 295.186 255.888 295.196H255.884ZM221.721 253.117C220.187 253.119 218.703 253.665 217.535 254.656C216.368 255.648 215.591 257.02 215.345 258.529L212.131 278.347C211.86 280.032 212.271 281.756 213.273 283.14C214.276 284.524 215.789 285.455 217.479 285.73L254.849 291.746C256.54 292.012 258.268 291.601 259.657 290.602C261.045 289.604 261.981 288.099 262.26 286.417L265.474 266.598C265.745 264.912 265.334 263.188 264.331 261.804C263.329 260.42 261.816 259.489 260.125 259.215L222.755 253.2C222.413 253.144 222.067 253.117 221.721 253.117Z" fill="#371A45"/>
<path d="M215.729 287.003C216.205 287.183 216.7 287.314 217.204 287.391L254.578 293.406C256.124 293.65 257.707 293.447 259.141 292.821C260.574 292.195 261.797 291.171 262.664 289.872C263.309 288.912 263.738 287.823 263.92 286.682L265.351 277.88L265.823 274.975L267.137 266.867C267.476 264.741 266.957 262.568 265.692 260.822C264.428 259.076 262.521 257.9 260.389 257.551L252.313 256.252C254.097 256.898 255.599 258.142 256.563 259.771C257.527 261.399 257.892 263.311 257.596 265.179L255.863 275.883L254.384 285C254.032 287.124 252.852 289.022 251.1 290.282C249.348 291.542 247.167 292.06 245.034 291.723L215.729 287.003Z" fill="white"/>
<g opacity="0.35">
<path opacity="0.35" d="M215.729 287.002C216.205 287.183 216.7 287.314 217.204 287.391L254.578 293.406C256.711 293.743 258.891 293.225 260.642 291.965C262.393 290.705 263.571 288.805 263.92 286.681L265.823 274.975C264.546 276.892 262.443 279.159 259.701 278.991C258.194 278.902 256.907 277.605 255.863 275.886L254.384 285.003C254.032 287.127 252.851 289.026 251.1 290.285C249.348 291.545 247.167 292.063 245.034 291.726L215.729 287.002Z" fill="#371A45"/>
</g>
<path d="M255.888 295.196C255.359 295.196 254.832 295.153 254.31 295.069L216.938 289.052C216.323 288.956 215.719 288.799 215.136 288.582L215.998 285.343L245.309 290.063C247 290.329 248.727 289.918 250.115 288.919C251.502 287.921 252.437 286.417 252.715 284.734L255.928 264.916C256.167 263.435 255.879 261.918 255.115 260.625C254.351 259.333 253.159 258.347 251.743 257.836L252.587 254.591L260.659 255.89C263.234 256.31 265.536 257.73 267.063 259.837C268.589 261.945 269.216 264.569 268.805 267.136L265.592 286.951C265.215 289.246 264.033 291.334 262.256 292.844C260.48 294.353 258.224 295.187 255.89 295.196H255.888ZM252.475 291.362L254.851 291.745C256.542 292.01 258.269 291.599 259.656 290.601C261.044 289.603 261.979 288.099 262.258 286.417L265.471 266.599C265.738 264.914 265.325 263.192 264.323 261.809C263.322 260.425 261.811 259.493 260.122 259.214L258.002 258.878C259.188 260.854 259.636 263.184 259.267 265.457L256.054 285.275C255.669 287.679 254.391 289.851 252.475 291.362Z" fill="#371A45"/>
<path d="M241.227 272.882C241.114 273.616 241.227 279.697 241.227 279.697L245.421 280.347C248.309 280.796 251.115 278.179 251.69 274.504C252.264 270.828 250.388 267.487 247.5 267.039L243.306 266.388C243.306 266.388 241.414 271.688 241.227 272.882Z" fill="#22A7F0"/>
<g opacity="0.35">
<path opacity="0.35" d="M241.227 272.882C241.114 273.616 241.227 279.697 241.227 279.697L245.421 280.347C248.309 280.796 251.115 278.179 251.69 274.504C252.264 270.828 250.388 267.487 247.5 267.039L243.306 266.388C243.306 266.388 241.414 271.688 241.227 272.882Z" fill="#371A45"/>
</g>
<path d="M246.076 282.007C245.772 282.007 245.468 281.983 245.167 281.937L242.254 281.488C241.518 281.376 240.846 281.007 240.358 280.447C239.869 279.887 239.596 279.173 239.587 278.431C239.517 273.367 239.597 272.856 239.631 272.638C239.674 272.366 239.802 271.538 241.35 267.076C241.591 266.379 242.07 265.79 242.704 265.409C243.337 265.029 244.084 264.882 244.814 264.995L247.743 265.45C251.507 266.033 253.991 270.206 253.28 274.752C252.942 276.884 251.967 278.792 250.521 280.147C249.215 281.364 247.665 282.007 246.076 282.007ZM242.815 278.317L245.665 278.758C246.554 278.896 247.5 278.556 248.316 277.797C249.236 276.938 249.867 275.68 250.09 274.257C250.519 271.512 249.217 268.933 247.247 268.628L244.382 268.179C243.335 271.199 242.891 272.705 242.824 273.118C242.787 273.424 242.77 274.962 242.815 278.317Z" fill="#371A45"/>
<path d="M247.497 273.861C248.071 270.186 246.195 266.844 243.307 266.396C240.419 265.948 237.612 268.564 237.038 272.239C236.464 275.914 238.339 279.256 241.227 279.704C244.116 280.152 246.922 277.536 247.497 273.861Z" fill="#22A7F0"/>
<path d="M247.493 273.853C247.379 274.588 247.168 275.306 246.863 275.985C247.331 272.399 245.474 269.185 242.644 268.744C240.356 268.389 238.12 269.96 237.005 272.458C237.01 272.382 237.02 272.307 237.033 272.233C237.609 268.558 240.413 265.948 243.302 266.397C246.192 266.846 248.064 270.177 247.493 273.853Z" fill="white"/>
<g opacity="0.35">
<path opacity="0.35" d="M247.492 273.853C246.917 277.528 244.113 280.146 241.223 279.698C238.334 279.25 236.457 275.905 237.033 272.23C237.14 271.54 237.334 270.867 237.609 270.225C238.076 272.644 239.645 274.516 241.755 274.844C244.081 275.202 246.356 273.577 247.447 271.007C247.629 271.946 247.644 272.909 247.492 273.853Z" fill="#371A45"/>
</g>
<path d="M241.886 281.357C241.582 281.357 241.278 281.333 240.977 281.286C239.079 280.992 237.462 279.81 236.424 277.959C235.457 276.237 235.108 274.115 235.441 271.984C236.151 267.438 239.792 264.218 243.552 264.801C247.313 265.383 249.799 269.557 249.089 274.103C248.751 276.236 247.777 278.15 246.329 279.498C245.022 280.713 243.471 281.357 241.886 281.357ZM238.632 272.479C238.406 273.903 238.632 275.292 239.242 276.389C239.785 277.358 240.578 277.968 241.474 278.108C242.37 278.247 243.311 277.906 244.125 277.147C245.047 276.287 245.677 275.03 245.9 273.606C246.328 270.86 245.027 268.283 243.057 267.978C241.086 267.673 239.061 269.734 238.632 272.479Z" fill="#371A45"/>
<path d="M228.847 290.726C228.772 290.726 228.697 290.721 228.622 290.711C228.412 290.682 228.209 290.613 228.026 290.506C227.843 290.399 227.683 290.258 227.555 290.09C227.427 289.921 227.333 289.729 227.279 289.525C227.226 289.321 227.213 289.108 227.242 288.898L229.026 275.958L223.261 270.908L226.246 252.08C226.279 251.871 226.353 251.671 226.464 251.491C226.574 251.311 226.72 251.154 226.891 251.03C227.063 250.906 227.257 250.816 227.463 250.767C227.669 250.717 227.883 250.709 228.092 250.742C228.302 250.775 228.503 250.848 228.683 250.959C228.864 251.069 229.022 251.214 229.146 251.385C229.271 251.555 229.361 251.749 229.41 251.954C229.46 252.16 229.468 252.373 229.435 252.581L226.732 269.661L232.467 274.687L230.446 289.338C230.392 289.723 230.201 290.075 229.907 290.33C229.613 290.585 229.237 290.725 228.847 290.726Z" fill="#371A45"/>
<path d="M299.804 270.079C299.804 270.079 302.979 273.216 302.665 277.487C302.303 282.425 298.995 284.084 298.995 284.084C298.995 284.084 284.722 289.509 263.538 282.567C263.538 282.567 258.036 273.834 265.643 270.071C265.643 270.071 288.186 275.694 299.804 270.079Z" fill="white"/>
<g opacity="0.35">
<path opacity="0.35" d="M302.664 277.49C302.301 282.429 298.996 284.082 298.996 284.082C298.996 284.082 284.724 289.509 263.535 282.565C263.535 282.565 261.733 279.686 261.62 276.529C261.664 276.616 261.712 276.7 261.764 276.781C277.248 281.859 289.04 280.323 294.263 279.131C297.891 278.302 300.572 275.395 300.88 271.855C300.88 271.805 300.888 271.756 300.892 271.708C300.901 271.626 300.904 271.544 300.9 271.462C301.783 272.784 302.853 274.931 302.664 277.49Z" fill="#371A45"/>
</g>
<path d="M284.774 287.803C278.896 287.803 271.501 286.949 263.009 284.166L262.43 283.977L262.105 283.461C261.977 283.257 258.951 278.386 260.247 273.824C260.893 271.537 262.456 269.767 264.891 268.563L265.455 268.287L266.058 268.438C266.278 268.492 288.147 273.847 299.065 268.565L300.142 268.044L300.993 268.884C301.145 269.034 304.71 272.624 304.35 277.611C303.923 283.433 299.925 285.503 299.755 285.588L299.597 285.658C299.225 285.797 293.784 287.803 284.774 287.803ZM264.687 281.168C283.818 287.254 297.018 282.99 298.293 282.548C298.67 282.323 300.719 280.917 300.979 277.365C301.145 275.111 300.07 273.189 299.313 272.136C288.095 276.637 269.622 272.727 265.876 271.858C264.621 272.595 263.842 273.536 263.502 274.726C262.805 277.168 264.088 280.028 264.687 281.168Z" fill="#371A45"/>
<g opacity="0.35">
<path opacity="0.35" d="M209.668 225.264C210.794 226.206 211.966 227.119 213.182 227.987C214.608 229.012 216.089 229.974 217.622 230.872C217.913 231.048 218.208 231.22 218.504 231.386C219.406 231.901 220.329 232.39 221.271 232.867C224.067 234.261 226.97 235.432 229.952 236.369C231.593 236.889 233.243 237.33 234.903 237.693C235.804 237.896 236.709 238.075 237.616 238.228C240.691 238.76 243.805 239.045 246.926 239.081C248.053 239.087 249.179 239.066 250.306 239.017C264.756 238.342 278.453 232.395 288.787 222.308C286.493 214.003 284.836 209.333 284.836 209.333C284.836 209.333 221.526 176.447 219.124 215.81C219.076 216.619 219.022 217.423 218.962 218.223C216.478 220.593 213.329 223.156 209.668 225.264Z" fill="#371A45"/>
</g>
<path d="M192.248 182.797C195.675 193.053 201.694 202.257 209.725 209.524C211.411 211.052 213.179 212.49 215.019 213.83C215.92 214.49 216.855 215.129 217.809 215.755C220.641 217.597 223.617 219.211 226.708 220.581C232.396 223.113 238.428 224.793 244.61 225.567C245.823 225.716 247.036 225.832 248.248 225.912C270.459 227.387 292.793 217.193 305.813 197.292C325 167.983 316.702 128.728 287.29 109.611C281.778 106.022 275.738 103.31 269.388 101.571C268.667 101.367 267.938 101.18 267.203 101.01C265.244 100.546 263.275 100.178 261.298 99.9058C252.212 98.6655 242.964 99.3871 234.182 102.022C232.797 102.437 231.425 102.9 230.066 103.41C217.437 108.161 206.655 116.798 199.285 128.068C188.252 144.934 186.312 165.081 192.248 182.797Z" fill="white"/>
<path d="M252.49 226.288C251.077 226.288 249.66 226.241 248.239 226.147C247.023 226.064 245.794 225.946 244.586 225.799C238.382 225.023 232.326 223.337 226.617 220.795C223.516 219.418 220.53 217.798 217.686 215.95C216.642 215.263 215.726 214.631 214.887 214.017C213.039 212.672 211.263 211.231 209.569 209.698C201.516 202.398 195.476 193.162 192.025 182.873C185.81 164.323 188.387 144.303 199.094 127.949C206.493 116.639 217.314 107.971 229.989 103.2C231.326 102.696 232.716 102.228 234.121 101.807C242.935 99.1619 252.217 98.4376 261.337 99.6836C263.311 99.9552 265.305 100.329 267.262 100.793C268.051 100.972 268.765 101.155 269.459 101.354C275.831 103.098 281.892 105.82 287.423 109.423C316.901 128.58 325.241 168.059 306.011 197.426C294.198 215.482 273.976 226.288 252.49 226.288ZM192.47 182.723C195.894 192.936 201.889 202.105 209.883 209.352C211.566 210.873 213.328 212.305 215.163 213.641C215.998 214.251 216.907 214.876 217.944 215.559C220.766 217.394 223.73 219.002 226.808 220.369C232.475 222.891 238.485 224.564 244.644 225.335C245.842 225.482 247.064 225.598 248.27 225.681C271.146 227.2 293.12 216.274 305.623 197.173C324.708 168.014 316.428 128.826 287.172 109.814C281.681 106.238 275.664 103.536 269.338 101.805C268.649 101.61 267.938 101.429 267.161 101.25C265.216 100.79 263.237 100.42 261.277 100.149C252.224 98.9133 243.01 99.6321 234.261 102.257C232.866 102.675 231.487 103.141 230.16 103.64C217.577 108.375 206.835 116.979 199.492 128.207C188.863 144.442 186.305 164.314 192.475 182.729L192.47 182.723Z" fill="#371A45"/>
<g opacity="0.35">
<path opacity="0.35" d="M305.819 197.293C292.8 217.195 270.461 227.39 248.254 225.913C247.04 225.831 245.828 225.716 244.618 225.568C235.053 224.36 225.889 221.005 217.814 215.757C216.866 215.128 215.932 214.492 215.026 213.833C213.187 212.491 211.419 211.052 209.732 209.524C201.699 202.257 195.68 193.053 192.254 182.796C190.402 177.27 189.319 171.518 189.035 165.699C193.327 177.581 201.092 187.909 211.33 195.353C212.231 196.013 213.165 196.65 214.118 197.278C222.186 202.536 231.352 205.891 240.917 207.089C242.132 207.239 243.346 207.353 244.558 207.433C266.767 208.912 289.102 198.717 302.123 178.813C309.446 167.663 313.034 154.488 312.374 141.179C318.893 159.227 317.145 179.993 305.819 197.293Z" fill="#371A45"/>
</g>
<path d="M252.49 227.853C251.043 227.853 249.591 227.805 248.134 227.708C246.887 227.623 245.631 227.503 244.395 227.352C238.035 226.557 231.828 224.828 225.975 222.223C222.8 220.813 219.741 219.154 216.829 217.261C215.754 216.555 214.818 215.914 213.958 215.279C212.065 213.902 210.248 212.426 208.513 210.857C200.26 203.375 194.071 193.91 190.536 183.366C184.169 164.36 186.809 143.848 197.78 127.092C205.361 115.505 216.448 106.623 229.435 101.734C230.807 101.218 232.231 100.738 233.671 100.307C242.701 97.5977 252.21 96.8558 261.553 98.1314C263.581 98.4109 265.621 98.7925 267.627 99.2672C268.426 99.4513 269.169 99.6399 269.888 99.8441C276.412 101.631 282.618 104.418 288.282 108.106C318.485 127.736 327.034 168.186 307.332 198.277C295.222 216.777 274.503 227.853 252.49 227.853ZM193.96 182.227C197.298 192.187 203.144 201.127 210.939 208.194C212.58 209.678 214.299 211.075 216.089 212.378C216.905 212.974 217.793 213.586 218.808 214.254C221.559 216.041 224.447 217.608 227.447 218.939C232.973 221.4 238.834 223.032 244.84 223.783C246.006 223.926 247.199 224.039 248.378 224.12C270.678 225.601 292.114 214.947 304.308 196.312C322.919 167.882 314.845 129.665 286.31 111.123C280.957 107.634 275.091 104.996 268.923 103.304C268.247 103.113 267.558 102.939 266.807 102.766C264.901 102.317 262.971 101.953 261.062 101.69C252.231 100.487 243.243 101.191 234.709 103.753C233.348 104.161 232.006 104.614 230.711 105.1C218.44 109.718 207.964 118.11 200.802 129.059C190.438 144.891 187.943 164.271 193.96 182.229V182.227Z" fill="#371A45"/>
<path d="M252.49 228.374C251.03 228.374 249.566 228.325 248.096 228.228C246.839 228.141 245.573 228.021 244.329 227.87C234.412 226.619 224.91 223.141 216.539 217.698C215.455 216.985 214.511 216.334 213.644 215.7C211.737 214.312 209.906 212.824 208.158 211.243C199.838 203.701 193.599 194.16 190.035 183.531C183.614 164.373 186.278 143.698 197.337 126.807C204.978 115.127 216.154 106.175 229.244 101.247C230.627 100.726 232.06 100.237 233.514 99.8071C242.617 97.0754 252.202 96.3278 261.62 97.6151C263.661 97.8957 265.721 98.2818 267.743 98.7599C268.546 98.9451 269.298 99.1359 270.026 99.3425C276.601 101.143 282.855 103.952 288.563 107.669C319.007 127.457 327.622 168.231 307.766 198.561C295.563 217.214 274.679 228.374 252.49 228.374ZM194.459 182.062C197.769 191.937 203.565 200.801 211.294 207.808C212.921 209.282 214.626 210.668 216.4 211.961C217.21 212.554 218.09 213.162 219.104 213.824C221.83 215.596 224.693 217.149 227.666 218.469C233.145 220.908 238.957 222.526 244.911 223.271C246.067 223.413 247.25 223.525 248.419 223.608C270.533 225.067 291.79 214.517 303.876 196.036C322.319 167.841 314.321 129.945 286.024 111.556C280.714 108.099 274.897 105.486 268.78 103.812C268.104 103.622 267.428 103.449 266.685 103.279C264.792 102.83 262.879 102.473 260.985 102.211C252.231 101.016 243.321 101.712 234.861 104.251C233.509 104.655 232.176 105.105 230.895 105.587C218.728 110.166 208.341 118.487 201.241 129.344C190.967 145.039 188.489 164.255 194.459 182.062Z" fill="#371A45"/>
<path d="M199.348 197.412C231.527 229.39 284.655 219.929 295.079 176.297C302.169 146.613 278.473 116.777 249.421 111.818C228.278 108.208 206.05 113.9 191.455 145.064C191.455 145.064 187.134 159.853 189.462 170.612C191.791 181.372 195.883 191.445 195.883 191.445L199.348 197.412Z" fill="#371A45"/>
<path d="M295.077 176.297C284.655 219.929 231.524 229.386 199.346 197.413L198.645 196.203C237.749 210.457 282.232 193.433 293.595 149.512C296.522 157.964 297.263 167.136 295.077 176.297Z" fill="#220F2D"/>
<path d="M244.032 224.576C238.034 224.571 232.062 223.786 226.268 222.242L226.012 222.153C222.839 220.743 219.782 219.085 216.872 217.194C215.8 216.489 214.864 215.847 214.005 215.215C212.115 213.84 210.3 212.365 208.567 210.797C200.324 203.325 194.142 193.872 190.612 183.34C184.252 164.358 186.895 143.872 197.847 127.136C204.164 117.469 212.951 109.653 223.306 104.493L223.466 104.413L223.639 104.368C231.779 102.247 240.836 102.011 250.556 103.674C267.873 106.63 284.271 117.537 294.423 132.856C303.753 146.93 306.891 163.048 303.261 178.247C299.318 194.761 289.947 207.82 276.171 216.013C266.669 221.663 255.503 224.576 244.032 224.576ZM227.289 218.957C243.671 223.276 260.838 221.129 274.408 213.058C287.363 205.35 296.185 193.037 299.91 177.446C303.318 163.182 300.349 148.018 291.549 134.744C281.914 120.208 266.373 109.858 249.981 107.06C240.815 105.495 232.309 105.693 224.692 107.647C214.953 112.536 206.688 119.908 200.737 129.013C190.358 144.865 187.861 164.271 193.885 182.253C197.228 192.225 203.081 201.177 210.886 208.253C212.53 209.739 214.251 211.137 216.043 212.442C216.86 213.039 217.749 213.653 218.766 214.321C221.481 216.085 224.331 217.636 227.289 218.957Z" fill="#371A45"/>
<path d="M243.914 218.093C227.402 218.093 210.814 211.232 198.131 198.627L197.971 198.468L194.281 192.085C194.112 191.669 190.113 181.751 187.777 170.971C185.383 159.913 189.619 145.2 189.805 144.579L189.897 144.332C202.68 117.037 222.804 105.525 249.715 110.12C265.172 112.759 279.81 122.493 288.87 136.159C297.199 148.73 300.001 163.119 296.755 176.692C292.074 196.285 278.572 210.581 259.711 215.914C254.571 217.364 249.255 218.097 243.914 218.093ZM200.724 196.35C216.6 212.021 238.821 218.25 258.77 212.61C276.396 207.627 289.018 194.246 293.402 175.897C296.421 163.259 293.788 149.818 285.988 138.053C277.444 125.165 263.666 115.99 249.13 113.508C223.984 109.216 205.124 120.034 193.076 145.661C192.68 147.082 189.048 160.547 191.147 170.248C193.288 180.151 196.991 189.576 197.435 190.69L200.724 196.35Z" fill="#371A45"/>
<path d="M323.114 180.041C325.182 167.699 319.562 156.479 310.56 154.981C301.558 153.484 292.584 162.275 290.515 174.618C288.446 186.96 294.067 198.18 303.069 199.678C312.071 201.175 321.045 192.384 323.114 180.041Z" fill="white"/>
<g opacity="0.35">
<path opacity="0.35" d="M304.249 199.813C295.735 199.251 289.717 190.022 290.104 178.705C291.646 179.54 293.352 180.033 295.103 180.151C304.228 180.755 316.903 172.687 318.319 160.27C318.414 159.436 314.35 157.104 314.377 156.289C320.66 159.656 324.478 168.441 323.343 178.421C321.922 190.841 313.376 200.416 304.249 199.813Z" fill="#371A45"/>
</g>
<path d="M305.052 202.159C304.733 202.159 304.415 202.148 304.095 202.127C299.92 201.851 296.161 199.853 293.225 196.35C288.987 191.291 287.072 183.863 287.971 175.97C289.523 162.359 299.187 151.839 309.527 152.527C313.702 152.803 317.46 154.8 320.396 158.305C324.635 163.362 326.55 170.79 325.651 178.684L323.337 178.422L325.651 178.684C324.148 191.874 315.02 202.159 305.052 202.159ZM308.544 157.133C300.908 157.133 293.839 165.628 292.601 176.494C291.857 183.035 293.427 189.347 296.803 193.377C298.903 195.882 301.535 197.305 304.407 197.498C312.281 198.012 319.754 189.346 321.028 178.161C321.773 171.618 320.202 165.307 316.826 161.278C314.725 158.771 312.095 157.349 309.222 157.155C308.994 157.141 308.767 157.134 308.54 157.133H308.544Z" fill="#371A45"/>
<path d="M325.076 182.454C327.053 172.72 322.747 163.638 315.459 162.168C308.171 160.699 300.66 167.399 298.682 177.133C296.705 186.867 301.011 195.95 308.299 197.419C315.588 198.889 323.099 192.189 325.076 182.454Z" fill="white"/>
<path d="M310.29 197.88C308.209 197.88 306.211 197.258 304.398 196.032C297.948 191.669 296.038 180.844 300.14 171.901C302.438 166.892 306.206 163.336 310.478 162.147C313.632 161.269 316.706 161.762 319.377 163.571C325.828 167.935 327.737 178.758 323.635 187.702C321.336 192.71 317.569 196.266 313.299 197.457C312.32 197.734 311.308 197.876 310.29 197.88ZM313.486 162.212C312.513 162.215 311.545 162.351 310.609 162.616C306.475 163.767 302.822 167.226 300.583 172.105C296.575 180.841 298.41 191.394 304.672 195.631C307.225 197.358 310.164 197.828 313.17 196.989C317.304 195.837 320.957 192.379 323.196 187.5L323.422 187.601L323.196 187.5C327.203 178.765 325.369 168.211 319.107 163.975C317.457 162.832 315.496 162.217 313.486 162.212Z" fill="#371A45"/>
<g opacity="0.35">
<path opacity="0.35" d="M298.389 185.942C297.939 182.565 298.409 179.052 299.584 175.841C301.273 183.454 307.619 187.2 314.341 184.258C318.683 182.361 322.178 178.104 323.993 173.127C324.106 173.606 324.188 174.107 324.259 174.618C325.411 183.218 320.556 192.725 313.413 195.853C306.269 198.981 299.543 194.536 298.389 185.942Z" fill="#371A45"/>
</g>
<path d="M310.379 199.402C310.171 199.402 309.965 199.402 309.757 199.384C306.768 199.21 304.06 197.776 301.924 195.231C298.58 191.257 297.044 184.969 297.818 178.41C299.136 167.232 306.38 158.838 314.279 159.3C317.267 159.474 319.976 160.907 322.111 163.446C325.456 167.421 326.992 173.709 326.218 180.267C324.93 191.157 318.039 199.402 310.379 199.402ZM313.681 162.723C307.927 162.723 302.287 169.959 301.243 178.817C300.578 184.453 301.821 189.767 304.566 193.03C306.078 194.826 307.945 195.836 309.957 195.955C315.853 196.292 321.725 188.934 322.793 179.873C323.458 174.236 322.215 168.922 319.469 165.66C317.958 163.864 316.089 162.854 314.078 162.735C313.941 162.727 313.808 162.723 313.676 162.723H313.681Z" fill="#371A45"/>
<g opacity="0.5">
<path opacity="0.5" d="M262.417 127.852C262.417 127.852 235.519 125 218.258 137.763L218.204 137.803C214.576 140.499 211.734 144.109 209.971 148.261C207.634 153.748 206.829 157.87 206.261 161.526C204.54 172.645 205.821 178.176 205.821 178.176C200.382 171.33 197.838 164.106 199.174 154.831C199.309 153.917 199.482 152.979 199.689 152.025C199.737 151.8 199.788 151.587 199.844 151.368C199.844 151.368 199.844 151.36 199.844 151.355C200.552 148.937 201.405 146.563 202.399 144.247C205.918 136.04 212.511 125.644 224.068 122.126C245.689 115.544 263.515 126.832 262.417 127.852Z" fill="white"/>
</g>
<g opacity="0.5">
<path opacity="0.5" d="M280.207 167.655C284.874 167.149 288.178 162.347 287.586 156.928C286.995 151.51 282.731 147.527 278.064 148.033C273.397 148.539 270.093 153.342 270.685 158.76C271.277 164.179 275.54 168.161 280.207 167.655Z" fill="white"/>
</g>
<g opacity="0.5">
<path opacity="0.5" d="M281.863 179.678C283.766 179.307 284.957 177.217 284.524 175.008C284.091 172.799 282.198 171.308 280.295 171.678C278.392 172.048 277.201 174.139 277.634 176.348C278.067 178.557 279.96 180.048 281.863 179.678Z" fill="white"/>
</g>
<path d="M222.799 288.262C200 219.066 154.017 161.03 93.0983 121.746C92.7151 121.501 92.4027 121.16 92.1921 120.758C91.9815 120.356 91.8799 119.906 91.8974 119.452C91.915 118.999 92.051 118.558 92.292 118.173C92.5331 117.788 92.8708 117.472 93.2718 117.257L93.3247 117.228C93.7335 117.008 94.1934 116.901 94.6575 116.916C95.1215 116.931 95.5732 117.069 95.9664 117.315C158.696 156.736 208.44 214.752 230.37 285.876C230.524 286.376 230.576 286.903 230.522 287.424C230.468 287.945 230.31 288.449 230.057 288.908C229.804 289.367 229.461 289.771 229.049 290.096C228.637 290.421 228.163 290.66 227.656 290.799L227.589 290.819C226.614 291.086 225.573 290.969 224.681 290.494C223.79 290.018 223.116 289.219 222.799 288.262Z" fill="#F0835C"/>
<path d="M93.0973 121.746C142.61 153.671 182.258 197.995 207.612 250.624C208.758 253.01 209.877 255.41 210.971 257.825C214.328 265.29 217.4 272.908 220.184 280.679C220.824 282.448 221.443 284.221 222.041 285.998C222.3 286.746 222.553 287.5 222.8 288.261C223.116 289.218 223.788 290.017 224.679 290.494C225.569 290.971 226.609 291.089 227.585 290.824C227.607 290.815 227.63 290.808 227.654 290.803C228.266 290.634 228.828 290.321 229.292 289.889C229.756 289.458 230.108 288.921 230.319 288.325C230.601 287.537 230.619 286.679 230.373 285.88C229.888 284.303 229.39 282.738 228.877 281.183C226.11 272.758 222.959 264.524 219.425 256.479C218.387 254.104 217.314 251.747 216.207 249.408C190.444 194.816 147.602 149.763 95.9711 117.312C95.5771 117.067 95.1252 116.93 94.6612 116.915C94.1971 116.9 93.7373 117.008 93.3283 117.226L93.2742 117.253C92.873 117.469 92.5351 117.784 92.2939 118.17C92.0526 118.555 91.9164 118.996 91.8985 119.449C91.8806 119.903 91.9818 120.354 92.1921 120.756C92.4023 121.159 92.7143 121.5 93.0973 121.746Z" fill="#FC442B"/>
<g opacity="0.7">
<path opacity="0.7" d="M91.9737 120.16C92.0555 120.1 92.1417 120.047 92.2317 120L92.2858 119.973C92.6946 119.754 93.1542 119.647 93.6181 119.662C94.082 119.677 94.5337 119.814 94.9274 120.058C146.561 152.51 189.401 197.562 215.164 252.154C216.273 254.491 217.346 256.848 218.383 259.225C221.907 267.262 225.057 275.496 227.833 283.928C228.35 285.483 228.847 287.049 229.329 288.626C229.439 288.971 229.497 289.33 229.501 289.692C229.861 289.296 230.139 288.833 230.319 288.33C230.601 287.542 230.62 286.685 230.373 285.885C229.889 284.313 229.394 282.742 228.877 281.188C226.111 272.764 222.96 264.53 219.427 256.485C218.388 254.109 217.315 251.752 216.208 249.414C190.445 194.822 147.603 149.77 95.9717 117.319C95.5779 117.074 95.1263 116.937 94.6624 116.922C94.1985 116.907 93.7389 117.014 93.33 117.233L93.276 117.259C92.7664 117.53 92.3618 117.962 92.126 118.488C91.8902 119.013 91.8367 119.601 91.9737 120.16Z" fill="white"/>
</g>
<path d="M226.529 292.931C225.285 292.929 224.074 292.535 223.068 291.807C222.062 291.079 221.313 290.052 220.927 288.875C198.707 221.439 152.93 162.671 92.0269 123.395C91.357 122.964 90.8112 122.367 90.4436 121.662C90.0759 120.957 89.899 120.168 89.9303 119.374C89.9616 118.58 90.1999 117.808 90.6219 117.134C91.0439 116.46 91.6349 115.907 92.3367 115.529L92.3863 115.502C93.1029 115.118 93.9091 114.929 94.7227 114.956C95.5363 114.983 96.3281 115.225 97.0174 115.656C129.298 135.942 157.216 160.439 180 188.473C203.949 217.939 221.529 250.517 232.255 285.301C232.486 286.053 232.564 286.843 232.483 287.626C232.403 288.408 232.165 289.166 231.786 289.855C231.406 290.545 230.891 291.151 230.272 291.639C229.653 292.127 228.942 292.486 228.181 292.695L228.099 292.718C227.588 292.859 227.059 292.93 226.529 292.931ZM224.672 287.649C224.829 288.128 225.165 288.528 225.61 288.766C226.055 289.004 226.576 289.062 227.063 288.927L227.133 288.908C227.385 288.839 227.62 288.719 227.826 288.557C228.031 288.395 228.201 288.194 228.327 287.965C228.453 287.737 228.532 287.485 228.559 287.226C228.586 286.966 228.561 286.704 228.484 286.455C207.881 219.639 160.443 160.162 94.912 118.98C94.8146 118.918 94.7025 118.884 94.5875 118.881C94.4724 118.877 94.3584 118.904 94.2575 118.959L94.209 118.986C94.1093 119.037 94.0252 119.114 93.9657 119.209C93.9062 119.303 93.8735 119.412 93.8711 119.524C93.8646 119.637 93.8891 119.751 93.9418 119.851C93.9946 119.952 94.0736 120.037 94.1707 120.096C124.866 139.892 151.657 164.279 173.799 192.58C196.144 221.101 213.357 253.266 224.673 287.646L224.672 287.649Z" fill="#371A45"/>
<path d="M191.762 223.427C191.62 223.428 191.478 223.41 191.34 223.375C162.69 216.032 162.288 193.183 162.847 186.361C162.853 186.257 162.82 186.154 162.754 186.073C162.688 185.991 162.594 185.938 162.491 185.922C132.67 180.534 129.95 159.479 129.822 153.154C129.821 153.099 129.809 153.045 129.786 152.995C129.763 152.946 129.729 152.901 129.688 152.865C129.644 152.825 129.592 152.793 129.535 152.774C129.479 152.755 129.419 152.748 129.359 152.753C128.09 152.871 126.864 152.93 125.679 152.928C103.195 152.928 95.7391 132.518 93.9344 125.984C93.9185 125.922 93.8882 125.864 93.8457 125.816C93.8032 125.767 93.7498 125.729 93.6899 125.705C93.6314 125.68 93.5677 125.668 93.504 125.673C93.4403 125.677 93.3785 125.696 93.3238 125.729C92.934 125.949 92.4724 126.006 92.0403 125.887C91.6083 125.769 91.2413 125.484 91.0201 125.096C90.7988 124.707 90.7415 124.247 90.8606 123.817C90.9798 123.386 91.2657 123.021 91.6554 122.8C92.1584 122.515 92.72 122.349 93.2974 122.313C93.8749 122.278 94.4528 122.374 94.9871 122.595C95.5214 122.816 95.998 123.156 96.3803 123.589C96.7627 124.021 97.0408 124.535 97.1934 125.091C99.4002 133.087 106.919 151.467 129.045 149.401C129.564 149.351 130.089 149.409 130.585 149.57C131.081 149.732 131.538 149.993 131.929 150.339C132.319 150.685 132.633 151.107 132.852 151.579C133.071 152.051 133.189 152.563 133.2 153.083C133.342 160.361 136.538 177.805 163.088 182.602C164.018 182.764 164.854 183.267 165.432 184.012C166.009 184.756 166.287 185.689 166.211 186.627C165.705 192.791 166.086 213.42 192.176 220.106C192.574 220.208 192.922 220.451 193.153 220.79C193.385 221.129 193.484 221.541 193.433 221.948C193.381 222.354 193.183 222.728 192.874 223C192.565 223.271 192.168 223.421 191.757 223.421L191.762 223.427Z" fill="#371A45"/>
<path d="M70.9246 308.872C69.1526 308.868 67.3822 308.764 65.6221 308.56C65.1841 308.501 64.7868 308.273 64.5154 307.926C64.2439 307.578 64.12 307.138 64.1701 306.701C64.2202 306.263 64.4404 305.863 64.7834 305.585C65.1264 305.307 65.565 305.175 66.0051 305.215C76.7521 306.435 84.9306 303.762 90.3165 297.27C108.204 275.696 92.333 219.082 87.0428 202.245C75.1017 164.236 77.1666 132.468 92.1843 123.192C92.3729 123.075 92.5827 122.997 92.8017 122.961C93.0207 122.926 93.2446 122.933 93.4607 122.984C93.6768 123.034 93.8808 123.127 94.061 123.256C94.2412 123.385 94.3941 123.548 94.5111 123.736C94.628 123.924 94.7067 124.133 94.7425 124.351C94.7784 124.569 94.7708 124.792 94.7201 125.007C94.6694 125.223 94.5767 125.426 94.4472 125.606C94.3176 125.785 94.1539 125.937 93.9653 126.054C82.9457 132.86 77.0878 159.291 90.268 201.239C97.213 223.343 111.376 277.158 92.9221 299.415C87.7086 305.702 80.3243 308.872 70.9246 308.872Z" fill="#371A45"/>
<path d="M200.029 265.308C206.075 265.308 210.976 260.425 210.976 254.402C210.976 248.378 206.075 243.496 200.029 243.496C193.984 243.496 189.083 248.378 189.083 254.402C189.083 260.425 193.984 265.308 200.029 265.308Z" fill="white"/>
<g opacity="0.35">
<path opacity="0.35" d="M189.084 254.4C189.078 257.137 190.105 259.778 191.963 261.795C193.82 263.813 196.371 265.061 199.109 265.292C201.847 265.522 204.572 264.718 206.743 263.039C208.914 261.36 210.371 258.929 210.826 256.229C209.291 257.743 207.34 258.77 205.22 259.181C203.099 259.593 200.904 259.369 198.911 258.539C196.918 257.71 195.216 256.311 194.02 254.519C192.824 252.727 192.186 250.622 192.189 248.47C192.189 247.859 192.239 247.249 192.339 246.646C191.307 247.659 190.488 248.866 189.929 250.197C189.37 251.528 189.083 252.957 189.084 254.4Z" fill="#371A45"/>
</g>
<path d="M200.029 267.454C197.438 267.454 194.905 266.689 192.751 265.255C190.596 263.821 188.917 261.782 187.925 259.397C186.934 257.012 186.674 254.388 187.179 251.856C187.685 249.324 188.932 246.998 190.764 245.173C192.596 243.347 194.931 242.104 197.472 241.6C200.013 241.097 202.647 241.355 205.041 242.343C207.435 243.331 209.481 245.004 210.921 247.15C212.36 249.297 213.128 251.82 213.128 254.402C213.125 257.862 211.743 261.179 209.288 263.626C206.832 266.073 203.502 267.45 200.029 267.454ZM200.029 245.64C198.29 245.64 196.589 246.154 195.143 247.117C193.696 248.079 192.569 249.448 191.903 251.049C191.237 252.65 191.063 254.412 191.402 256.112C191.742 257.812 192.579 259.373 193.809 260.599C195.039 261.824 196.606 262.659 198.313 262.997C200.019 263.335 201.787 263.161 203.394 262.498C205.001 261.835 206.375 260.711 207.341 259.27C208.307 257.829 208.823 256.135 208.823 254.402C208.82 252.079 207.893 249.852 206.244 248.21C204.596 246.567 202.361 245.643 200.029 245.64Z" fill="#371A45"/>
<path d="M200.029 257.491C201.741 257.491 203.129 256.108 203.129 254.402C203.129 252.696 201.741 251.313 200.029 251.313C198.317 251.313 196.929 252.696 196.929 254.402C196.929 256.108 198.317 257.491 200.029 257.491Z" fill="#371A45"/>
<g opacity="0.35">
<path opacity="0.35" d="M210.971 257.825C214.328 265.29 217.4 272.908 220.185 280.679C220.824 282.448 221.443 284.221 222.041 285.998C222.849 286.341 223.667 286.647 224.506 286.915C226.409 287.517 228.351 287.988 230.319 288.325C230.601 287.537 230.62 286.679 230.373 285.88C229.888 284.303 229.39 282.738 228.877 281.183C226.11 272.758 222.96 264.524 219.425 256.479C215.809 256.035 213.145 256.018 210.971 257.825Z" fill="#371A45"/>
</g>
<path d="M267.938 233.389C267.938 233.389 262.002 247.867 244.506 252.275C227.01 256.683 206.175 249.798 206.945 262.571C207.714 275.343 216.069 281.947 225.97 284.457C235.755 286.934 266.605 290.987 278.698 264.207" fill="white"/>
<g opacity="0.35">
<path opacity="0.35" d="M206.946 262.57C207.71 275.338 216.071 281.944 225.971 284.457C235.756 286.934 266.604 290.982 278.697 264.204L278.329 263.15C263.538 282.574 235.265 277.395 225.971 275.047C217.522 272.914 210.199 267.786 207.758 258.403C207.134 259.474 206.843 260.841 206.946 262.57Z" fill="#371A45"/>
</g>
<path d="M268.602 233.66C268.506 234.644 268.264 235.511 267.968 236.397C267.811 236.828 267.65 237.26 267.471 237.685C267.292 238.11 267.084 238.516 266.874 238.92C266.012 240.542 264.957 242.055 263.732 243.426C261.337 246.223 258.362 248.517 255.137 250.294C251.917 252.072 248.488 253.444 244.927 254.377C241.383 255.249 237.802 255.693 234.261 255.928C230.721 256.164 227.205 256.199 223.757 256.265C222.034 256.3 220.325 256.345 218.652 256.45C216.979 256.556 215.342 256.728 213.84 257.07C213.125 257.225 212.426 257.443 211.751 257.723C211.152 258.014 210.599 258.327 210.212 258.713C209.83 259.089 209.538 259.547 209.357 260.051C209.164 260.646 209.073 261.269 209.087 261.895V262.411L209.145 263.005L209.257 264.2C209.296 264.597 209.358 264.99 209.442 265.38L209.655 266.552C210.051 268.077 210.495 269.593 211.205 270.981C212.521 273.81 214.609 276.202 217.116 278.098C218.404 279.028 219.777 279.835 221.216 280.51C222.683 281.187 224.204 281.741 225.764 282.165C228.918 283.041 232.287 283.558 235.618 283.861C238.954 284.16 242.31 284.18 245.649 283.92C252.279 283.374 258.824 281.577 264.298 278.036L265.312 277.362C265.65 277.138 265.964 276.878 266.291 276.638C266.617 276.399 266.946 276.16 267.255 275.897L268.173 275.1C268.804 274.587 269.333 273.966 269.898 273.388C270.462 272.81 270.928 272.137 271.459 271.529C271.955 270.888 272.43 270.234 272.964 269.621C273.435 268.96 273.95 268.327 274.471 267.689C274.975 267.017 275.52 266.377 276.103 265.772C276.683 265.089 277.328 264.463 278.029 263.903L278.069 263.871C278.234 263.745 278.442 263.688 278.649 263.714C278.855 263.74 279.043 263.845 279.171 264.008C279.28 264.145 279.338 264.315 279.337 264.49C279.337 265.453 279.171 266.368 278.979 267.28C278.726 268.164 278.411 269.029 278.037 269.869C277.838 270.284 277.605 270.677 277.378 271.077C277.15 271.477 276.927 271.875 276.675 272.263C276.411 272.641 276.14 273.013 275.857 273.377C275.574 273.74 275.303 274.113 274.993 274.455C274.683 274.798 274.362 275.129 274.045 275.466C273.729 275.802 273.42 276.139 273.072 276.448L272.058 277.393C271.733 277.718 271.382 278.019 271.029 278.313L269.98 279.211C269.63 279.51 269.251 279.772 268.886 280.055C268.521 280.338 268.158 280.616 267.775 280.874L266.623 281.635C263.536 283.648 260.14 285.125 256.659 286.194C253.178 287.264 249.583 287.878 245.994 288.189C242.411 288.468 238.812 288.448 235.232 288.128C231.658 287.798 228.135 287.267 224.6 286.291C222.812 285.802 221.069 285.166 219.387 284.389C217.685 283.591 216.063 282.635 214.543 281.533L213.434 280.644C213.252 280.494 213.064 280.349 212.886 280.195L212.369 279.704C212.031 279.367 211.671 279.056 211.348 278.706L210.402 277.633C209.195 276.159 208.115 274.561 207.32 272.832C206.459 271.13 205.915 269.309 205.452 267.491L205.197 266.113C205.102 265.656 205.03 265.195 204.982 264.731L204.843 263.346L204.779 262.65L204.77 261.87C204.757 260.764 204.931 259.663 205.286 258.615C205.689 257.487 206.344 256.464 207.201 255.625C208.059 254.791 209.036 254.246 209.997 253.792C210.922 253.402 211.881 253.098 212.862 252.882C214.746 252.457 216.568 252.282 218.359 252.163C220.151 252.044 221.911 252.006 223.654 251.97C227.146 251.903 230.572 251.87 233.956 251.643C237.34 251.416 240.667 250.998 243.869 250.211C247.034 249.375 250.105 248.191 252.868 246.471C255.631 244.752 258.112 242.664 260.437 240.397C261.613 239.274 262.676 238.04 263.817 236.833C264.088 236.522 264.38 236.223 264.663 235.915C264.945 235.607 265.226 235.298 265.518 234.988C266.071 234.365 266.67 233.72 267.257 233.114L267.303 233.065C267.411 232.954 267.551 232.879 267.704 232.85C267.856 232.821 268.014 232.841 268.155 232.906C268.296 232.97 268.413 233.077 268.491 233.211C268.568 233.346 268.601 233.501 268.586 233.655L268.602 233.66Z" fill="#371A45"/>
<path d="M40.8113 336.212L63.7236 337.943L75.2794 357.731C77.5967 361.702 83.4782 361.296 85.23 357.052L93.9627 335.876L116.426 331.036C120.932 330.068 122.359 324.372 118.849 321.4L108.918 313L108.913 312.995L101.332 306.578L103.655 283.803C104.125 279.238 99.1301 276.119 95.2064 278.527L75.6489 290.547L54.6213 281.305C50.4093 279.454 45.8897 283.22 46.9779 287.68L52.4055 309.935L39.8301 323.942L37.0848 326.995C34.0173 330.416 36.2129 335.862 40.8113 336.212Z" fill="#FFDA22"/>
<g opacity="0.7">
<path opacity="0.7" d="M54.6212 287.608L75.6488 296.848L95.213 284.83C98.3064 282.931 102.07 284.473 103.29 287.449L103.66 283.804C104.129 279.239 99.1344 276.12 95.2108 278.529L75.6488 290.547L54.6212 281.305C50.4091 279.455 45.8895 283.22 46.9777 287.68L47.532 289.953C48.8568 287.643 51.8082 286.371 54.6212 287.608Z" fill="white"/>
</g>
<g opacity="0.35">
<path opacity="0.35" d="M40.8113 336.212L63.7236 337.943L75.2794 357.731C77.5967 361.702 83.4782 361.296 85.23 357.052L93.9627 335.876L116.426 331.036C120.932 330.068 122.359 324.372 118.849 321.4L108.918 313C112.328 317.655 115.105 323.451 109.895 325.514C106.476 326.861 99.9299 326.736 95.0577 326.394C93.2983 326.271 91.5441 326.695 90.0363 327.607C88.5286 328.519 87.3414 329.873 86.6381 331.485C84.3851 336.648 80.9131 343.457 78.2354 343.457C75.1938 343.457 71.9269 336.596 69.8079 331.132C69.1086 329.32 67.8109 327.8 66.1284 326.82C64.446 325.841 62.479 325.462 60.5513 325.745C53.0802 326.847 41.9829 327.765 39.829 323.93L37.0848 326.995C34.0173 330.416 36.2129 335.862 40.8113 336.212Z" fill="#371A45"/>
</g>
<path d="M80.0703 363.136C78.6322 363.14 77.2186 362.765 75.9724 362.05C74.7262 361.335 73.6916 360.304 72.9733 359.063L62.1204 340.48L40.6039 338.853C39.0738 338.738 37.6068 338.198 36.3688 337.295C35.1307 336.391 34.1708 335.161 33.5978 333.743C33.0248 332.325 32.8615 330.775 33.1263 329.269C33.3911 327.764 34.0735 326.362 35.0963 325.222L49.4808 309.195L44.3845 288.304C44.0229 286.819 44.0855 285.263 44.5652 283.811C45.045 282.359 45.9228 281.07 47.0994 280.089C48.2759 279.108 49.7044 278.475 51.2234 278.261C52.7423 278.046 54.2911 278.26 55.6947 278.876L75.437 287.555L93.7992 276.27C95.1053 275.468 96.6106 275.046 98.1448 275.052C99.6791 275.058 101.181 275.491 102.481 276.302C103.781 277.114 104.827 278.272 105.502 279.645C106.176 281.019 106.451 282.552 106.296 284.073L104.114 305.462L120.561 319.38C121.731 320.37 122.599 321.666 123.068 323.121C123.537 324.577 123.588 326.135 123.215 327.618C122.841 329.101 122.059 330.45 120.956 331.514C119.853 332.577 118.474 333.311 116.974 333.634L95.8889 338.174L87.6867 358.06C87.1085 359.477 86.1411 360.703 84.8954 361.598C83.6498 362.493 82.1762 363.02 80.6437 363.119C80.4556 363.136 80.2618 363.136 80.0703 363.136ZM52.358 283.476C51.9208 283.481 51.4904 283.583 51.0986 283.777C50.7069 283.97 50.3638 284.249 50.0951 284.592C49.8263 284.936 49.6387 285.335 49.5462 285.761C49.4537 286.186 49.4587 286.627 49.5608 287.051L55.3173 310.655L39.0718 328.764C38.7116 329.165 38.4713 329.659 38.378 330.189C38.2848 330.72 38.3423 331.265 38.5442 331.765C38.746 332.264 39.0841 332.697 39.5202 333.015C39.9562 333.333 40.4729 333.523 41.0117 333.563L65.3208 335.402L77.583 356.402C77.8545 356.868 78.2514 357.248 78.7288 357.501C79.2062 357.753 79.7451 357.868 80.2844 357.831C80.8236 357.794 81.3418 357.608 81.7802 357.293C82.2186 356.978 82.5598 356.546 82.765 356.048L92.0328 333.58L115.861 328.45C116.389 328.336 116.875 328.078 117.264 327.703C117.652 327.329 117.928 326.854 118.059 326.332C118.19 325.809 118.173 325.261 118.007 324.748C117.842 324.235 117.536 323.779 117.124 323.431L98.5362 307.707L101.001 283.541C101.056 283.006 100.959 282.465 100.722 281.982C100.485 281.498 100.116 281.09 99.6583 280.804C99.2005 280.518 98.6715 280.366 98.1311 280.364C97.5908 280.362 97.0607 280.511 96.6009 280.793L75.8538 293.537L53.5487 283.733C53.1756 283.567 52.772 283.481 52.3636 283.479L52.358 283.476Z" fill="#371A45"/>
<path d="M194.381 226.367C194.381 226.367 201.784 220.906 207.87 226.513C212.055 230.367 218.774 241.416 216.34 248.474C214.274 254.463 208.082 257.396 208.082 257.396C208.082 257.396 184.124 252.388 194.381 226.367Z" fill="white"/>
<g opacity="0.35">
<path opacity="0.35" d="M208.081 257.399C208.081 257.399 214.277 254.465 216.342 248.476C217.365 245.51 216.773 241.838 215.427 238.298C215.352 238.676 215.252 239.049 215.126 239.414C215.051 239.628 214.972 239.838 214.89 240.044C212.299 246.414 204.264 248.549 198.626 244.587C196.008 242.747 193.406 240.086 191.909 236.303C190.498 253.725 208.081 257.399 208.081 257.399Z" fill="#371A45"/>
</g>
<path d="M208.351 259.644L207.641 259.495C207.205 259.404 196.927 257.165 192.088 248.233C188.771 242.108 188.869 234.487 192.378 225.583L192.603 225.01L193.1 224.643C196.157 222.388 203.482 219.55 209.333 224.937C214.072 229.303 221.148 241.135 218.376 249.171C216.043 255.936 209.292 259.198 209.007 259.333L208.351 259.644ZM196.149 227.777C193.363 235.159 193.267 241.342 195.864 246.165C199.071 252.12 205.622 254.47 207.805 255.107C209.291 254.235 212.933 251.759 214.307 247.779C216.323 241.932 210.341 231.707 206.412 228.089C202.458 224.443 197.675 226.841 196.149 227.777Z" fill="#371A45"/>
<path d="M260.699 284.569C260.366 284.569 260.037 284.492 259.739 284.343C259.441 284.195 259.182 283.98 258.981 283.715C258.78 283.451 258.644 283.143 258.582 282.817C258.521 282.491 258.536 282.155 258.627 281.835C263.778 263.845 251.839 251.062 251.329 250.521C250.934 250.11 250.719 249.559 250.732 248.99C250.745 248.422 250.984 247.881 251.396 247.488C251.809 247.095 252.361 246.881 252.932 246.894C253.503 246.906 254.045 247.144 254.44 247.555C255.021 248.16 268.609 262.595 262.768 283.007C262.641 283.456 262.37 283.852 261.996 284.134C261.623 284.415 261.167 284.568 260.699 284.569Z" fill="#371A45"/>
<path d="M148.091 298.397C148.992 301.819 150.231 306.123 151.771 310.993C153.64 316.916 155.952 323.676 158.643 330.727C170.843 362.673 198.522 383.394 229.184 383.394H281.961C310.218 383.394 335 361.956 342.498 331.011C343.254 327.887 343.996 324.679 344.725 321.388C345.615 317.353 346.467 313.217 347.282 308.98C331.557 314.492 291.209 322.369 202.25 309.416C174.803 305.421 157.374 301.091 148.091 298.397Z" fill="#E25439"/>
<g opacity="0.3">
<path opacity="0.3" d="M285.674 331.81C276.698 331.81 267.039 331.505 256.948 330.734C196.409 326.107 152.632 315.981 152.193 315.879C152.048 315.847 151.91 315.786 151.789 315.7C151.667 315.614 151.564 315.506 151.485 315.38C151.406 315.254 151.353 315.114 151.329 314.968C151.304 314.822 151.309 314.672 151.343 314.528C151.377 314.383 151.44 314.247 151.527 314.127C151.614 314.007 151.724 313.905 151.851 313.828C151.978 313.75 152.119 313.698 152.266 313.675C152.413 313.652 152.563 313.659 152.708 313.694C153.14 313.796 196.765 323.883 257.121 328.496C305.224 332.173 343.433 325.211 343.814 325.141C344.106 325.089 344.408 325.154 344.653 325.322C344.898 325.49 345.066 325.748 345.121 326.04C345.175 326.331 345.112 326.632 344.945 326.877C344.777 327.122 344.519 327.291 344.227 327.348C343.92 327.404 319.748 331.81 285.674 331.81Z" fill="white"/>
<path opacity="0.3" d="M281.379 346.539C273.67 346.539 265.495 346.365 256.974 345.947C208.861 343.581 175.327 339.008 159.62 336.494C159.324 336.447 159.06 336.284 158.885 336.043C158.71 335.802 158.639 335.501 158.686 335.207C158.734 334.913 158.896 334.65 159.139 334.476C159.381 334.301 159.683 334.23 159.978 334.277C172.586 336.298 207.292 341.255 257.084 343.705C296.196 345.63 328.106 342.358 340.011 340.869C340.305 340.837 340.599 340.922 340.831 341.104C341.062 341.287 341.213 341.553 341.25 341.845C341.287 342.137 341.207 342.431 341.028 342.665C340.849 342.899 340.585 343.054 340.293 343.096C330.926 344.27 309.223 346.539 281.379 346.539Z" fill="white"/>
<path opacity="0.3" d="M270.442 360.523C266.054 360.523 261.562 360.455 256.993 360.304C222.868 359.173 187.419 355.763 169.325 353.83C169.175 353.818 169.029 353.776 168.896 353.707C168.762 353.638 168.644 353.543 168.549 353.427C168.453 353.312 168.381 353.178 168.338 353.035C168.294 352.892 168.28 352.741 168.296 352.592C168.312 352.443 168.358 352.299 168.431 352.168C168.504 352.037 168.602 351.922 168.72 351.829C168.839 351.737 168.974 351.669 169.119 351.629C169.264 351.59 169.415 351.579 169.564 351.599C187.628 353.527 223.016 356.932 257.068 358.061C289.908 359.149 318.754 355.928 333.027 353.908C333.322 353.867 333.621 353.945 333.859 354.124C334.097 354.302 334.254 354.568 334.296 354.861C334.338 355.155 334.262 355.454 334.083 355.692C333.905 355.929 333.639 356.087 333.345 356.13C320.983 357.878 297.748 360.523 270.442 360.523Z" fill="white"/>
<path opacity="0.3" d="M262.369 374.618C259.947 374.618 257.531 374.604 255.12 374.575C232.241 374.307 208.509 372.803 184.587 370.105C184.437 370.091 184.292 370.048 184.16 369.978C184.028 369.907 183.911 369.812 183.816 369.696C183.722 369.58 183.651 369.447 183.609 369.303C183.567 369.16 183.554 369.01 183.571 368.862C183.587 368.713 183.634 368.57 183.707 368.439C183.78 368.309 183.879 368.195 183.997 368.103C184.115 368.011 184.25 367.943 184.395 367.904C184.539 367.865 184.69 367.855 184.839 367.875C208.687 370.568 232.342 372.063 255.146 372.331C276.615 372.577 298.082 371.719 319.462 369.758C319.76 369.731 320.056 369.822 320.286 370.013C320.516 370.203 320.66 370.477 320.688 370.773C320.715 371.07 320.623 371.365 320.432 371.594C320.241 371.823 319.966 371.967 319.669 371.994C300.621 373.738 281.379 374.618 262.369 374.618Z" fill="white"/>
</g>
<g opacity="0.35">
<path opacity="0.35" d="M281.96 383.394H277.454C305.712 383.394 330.493 361.956 337.99 331.012C338.749 327.89 339.494 324.673 340.219 321.388C341.007 317.837 341.76 314.197 342.481 310.491H342.492C341.929 310.649 341.354 310.808 340.754 310.967C340.429 311.052 340.098 311.137 339.762 311.224L338.455 311.549C338.028 311.652 337.592 311.754 337.146 311.858C336.357 312.037 335.539 312.212 334.687 312.393C313.46 316.813 273.405 319.781 202.252 309.42C174.803 305.424 157.374 301.094 148.091 298.4C148.992 301.823 150.231 306.127 151.771 310.996C161.685 313.689 178.083 317.464 202.252 320.985C252.72 328.332 287.536 328.976 311.093 327.152C320.803 326.4 326.468 339.274 320.176 347.707C308.518 363.336 291.164 372.938 272.249 372.938H219.468C201.733 372.938 184.997 366.004 171.669 353.969C186.009 372.356 206.802 383.394 229.182 383.394H281.955C297.85 383.394 312.646 376.611 323.883 365.169C312.65 376.611 297.855 383.394 281.96 383.394Z" fill="#371A45"/>
</g>
<g opacity="0.3">
<path opacity="0.3" d="M145.646 297.726C146.635 301.16 147.991 305.481 149.684 310.373C151.743 316.321 154.294 323.118 157.271 330.2C170.789 362.316 202.084 383.424 237.036 383.85L245.13 383.95C210.178 383.519 178.88 362.41 165.372 330.3C162.395 323.216 159.843 316.421 157.785 310.473C156.418 306.528 155.273 302.953 154.36 299.914C150.95 299.11 148.057 298.375 145.646 297.726Z" fill="white"/>
</g>
<path d="M285.676 330.127C276.7 330.127 267.039 329.821 256.943 329.05C196.404 324.423 152.627 314.298 152.188 314.197C152.044 314.163 151.908 314.101 151.788 314.015C151.667 313.929 151.565 313.821 151.487 313.695C151.33 313.442 151.28 313.137 151.348 312.847C151.416 312.557 151.597 312.306 151.852 312.149C152.106 311.992 152.412 311.942 152.703 312.01C153.135 312.113 196.76 322.199 257.117 326.812C305.227 330.489 343.428 323.528 343.809 323.458C344.102 323.405 344.404 323.47 344.649 323.638C344.893 323.807 345.062 324.065 345.116 324.356C345.171 324.648 345.107 324.949 344.94 325.194C344.773 325.439 344.515 325.608 344.222 325.664C343.919 325.72 319.75 330.127 285.676 330.127Z" fill="#371A45"/>
<path d="M281.386 344.856C273.675 344.856 265.502 344.682 256.974 344.263C208.865 341.897 175.329 337.324 159.62 334.81C159.473 334.787 159.333 334.735 159.207 334.658C159.081 334.58 158.972 334.479 158.885 334.359C158.799 334.24 158.737 334.105 158.702 333.961C158.668 333.818 158.663 333.669 158.686 333.524C158.71 333.378 158.762 333.238 158.839 333.113C158.917 332.987 159.019 332.878 159.139 332.792C159.259 332.706 159.394 332.644 159.538 332.61C159.682 332.576 159.832 332.57 159.978 332.594C172.587 334.614 207.292 339.573 257.084 342.022C296.202 343.946 328.109 340.675 340.011 339.185C340.305 339.154 340.599 339.238 340.831 339.421C341.062 339.603 341.213 339.869 341.25 340.161C341.287 340.453 341.207 340.748 341.028 340.982C340.849 341.216 340.585 341.37 340.293 341.412C330.928 342.587 309.229 344.856 281.386 344.856Z" fill="#371A45"/>
<path d="M270.439 358.84C266.052 358.84 261.562 358.771 256.992 358.621C222.876 357.489 187.422 354.08 169.325 352.147C169.175 352.135 169.029 352.093 168.896 352.023C168.762 351.954 168.644 351.859 168.549 351.744C168.453 351.628 168.381 351.495 168.338 351.351C168.294 351.208 168.28 351.057 168.296 350.909C168.312 350.76 168.358 350.615 168.431 350.484C168.504 350.353 168.602 350.238 168.72 350.146C168.839 350.053 168.974 349.985 169.119 349.946C169.264 349.906 169.415 349.896 169.564 349.915C187.63 351.844 223.022 355.248 257.068 356.377C289.899 357.462 318.752 354.245 333.028 352.224C333.175 352.202 333.326 352.208 333.47 352.244C333.615 352.279 333.751 352.343 333.871 352.432C333.991 352.52 334.092 352.632 334.168 352.759C334.245 352.887 334.295 353.029 334.316 353.176C334.337 353.323 334.328 353.473 334.29 353.616C334.253 353.76 334.187 353.895 334.097 354.013C334.006 354.132 333.893 354.231 333.764 354.305C333.635 354.38 333.492 354.428 333.344 354.447C320.982 356.194 297.743 358.84 270.439 358.84Z" fill="#371A45"/>
<path d="M262.369 372.934C259.949 372.934 257.533 372.92 255.12 372.892C232.24 372.622 208.508 371.119 184.587 368.422C184.29 368.389 184.018 368.24 183.832 368.007C183.645 367.774 183.56 367.477 183.593 367.181C183.626 366.885 183.777 366.615 184.01 366.429C184.244 366.243 184.542 366.158 184.839 366.191C208.686 368.885 232.341 370.379 255.147 370.647C276.616 370.894 298.083 370.035 319.463 368.074C319.76 368.047 320.056 368.139 320.286 368.329C320.516 368.52 320.66 368.793 320.688 369.09C320.715 369.386 320.623 369.681 320.432 369.91C320.241 370.139 319.966 370.283 319.669 370.31C300.62 372.053 281.378 372.934 262.369 372.934Z" fill="#371A45"/>
<path d="M281.962 385H229.187C197.913 385 169.675 364.033 157.25 331.585C151.279 315.991 147.765 303.467 146.532 298.811L145.807 296.069L148.54 296.863C158.375 299.716 175.719 303.934 202.485 307.834C290.526 320.654 330.659 313.109 346.747 307.474L349.386 306.549L348.863 309.287C347.492 316.477 345.875 323.921 344.061 331.412C336.413 362.961 310.877 385 281.962 385ZM150.385 300.716C152.919 309.824 156.531 320.714 160.257 330.441C172.198 361.634 199.258 381.79 229.185 381.79H281.96C309.382 381.79 333.63 360.762 340.927 330.652C342.504 324.142 343.931 317.667 345.176 311.366C327.264 316.948 286.311 323.278 202.018 311.004C177.401 307.419 160.67 303.554 150.387 300.716H150.385Z" fill="#371A45"/>
<path d="M353.734 306.266C352.36 306.98 350.263 307.938 347.281 308.982C331.558 314.491 291.21 322.369 202.253 309.417C174.804 305.419 157.375 301.092 148.089 298.397C144.172 297.259 141.702 296.41 140.541 296C140.05 295.826 139.651 295.299 139.478 294.6C138.421 290.36 137.691 286.954 137.225 284.65C136.913 283.088 137.81 281.579 138.902 281.828C154.987 285.497 251.667 306.755 312.844 302.144C331.188 300.762 344.222 297.037 351.381 294.457C354.394 293.377 355.059 305.577 353.734 306.266Z" fill="#F4C99F"/>
<g opacity="0.7">
<path opacity="0.7" d="M137.591 286.414C137.913 285.921 138.387 285.639 138.906 285.757C154.991 289.426 251.671 310.684 312.847 306.072C331.191 304.69 344.225 300.965 351.384 298.385C353.056 297.783 354.004 301.283 354.289 304.63C354.691 301.175 353.784 293.592 351.384 294.456C344.225 297.038 331.191 300.762 312.847 302.144C251.677 306.751 154.991 285.493 138.906 281.828C137.815 281.579 136.917 283.088 137.229 284.65C137.335 285.179 137.457 285.772 137.591 286.414Z" fill="white"/>
</g>
<g opacity="0.35">
<path opacity="0.35" d="M137.232 285.214C137.693 287.513 138.424 290.923 139.476 295.163C139.653 295.862 140.05 296.388 140.543 296.56C141.704 296.971 144.175 297.818 148.091 298.958C157.374 301.652 174.803 305.982 202.25 309.978C291.209 322.93 331.557 315.053 347.282 309.541C350.264 308.501 352.36 307.541 353.733 306.826C354.439 306.461 354.582 302.813 354.099 299.656C354.005 299.985 353.874 300.204 353.733 300.282C352.36 300.992 350.264 301.952 347.282 302.997C331.557 308.504 291.209 316.381 202.25 303.43C174.803 299.433 157.374 295.107 148.091 292.414C144.173 291.274 141.702 290.426 140.543 290.015C140.05 289.839 139.653 289.313 139.476 288.614C138.913 286.344 138.443 284.31 138.055 282.562C137.408 282.998 137.007 284.091 137.232 285.214Z" fill="#371A45"/>
</g>
<path d="M287.24 318.058C265.561 318.058 237.668 316.195 202.019 311.004C175.07 307.075 157.571 302.82 147.638 299.938C144.744 299.096 142.174 298.28 140 297.512C138.999 297.157 138.219 296.214 137.913 294.987C136.823 290.61 136.081 287.12 135.649 284.963C135.354 283.485 135.777 281.933 136.727 281.012C137.052 280.683 137.455 280.442 137.899 280.311C138.343 280.181 138.814 280.165 139.266 280.265C157.622 284.457 252.25 305.101 312.726 300.549C330.525 299.202 343.276 295.678 350.836 292.952C351.422 292.74 353.436 292.279 354.729 295.211C355.814 297.671 357.052 306.349 354.479 307.688C352.624 308.653 350.382 309.596 347.814 310.494C338.024 313.926 319.52 318.058 287.24 318.058ZM141.165 294.518C143.262 295.258 145.743 296.045 148.54 296.857C158.375 299.71 175.719 303.928 202.485 307.828C290.525 320.648 330.659 313.104 346.747 307.468C348.749 306.783 350.706 305.971 352.604 305.036C353.087 303.293 352.538 297.47 351.591 296.093C343.802 298.867 330.863 302.399 312.969 303.749C252.376 308.311 158.094 287.84 138.88 283.469C138.771 283.745 138.746 284.047 138.808 284.337C139.233 286.461 139.964 289.897 141.039 294.214C141.063 294.322 141.105 294.425 141.165 294.518Z" fill="#371A45"/>
</g>
<path d="M81.6318 52.776C84.9238 57.148 90.1378 60 95.9998 60C105.9 60 114 51.9 114 42C114 32.1 105.9 24 95.9998 24" stroke="#323232" stroke-width="4" stroke-linecap="round" stroke-linejoin="round"/>
<path d="M81.632 52.776C79.364 49.764 78 46.038 78 42C78 32.1 86.1 24 96 24" stroke="#323232" stroke-width="4" stroke-linecap="round" stroke-linejoin="round" stroke-dasharray="0"/>
<path d="M95.5 32V34.5" stroke="#323232" stroke-width="4" stroke-linecap="round" stroke-linejoin="round"/>
<path d="M95.5 52V49.5" stroke="#323232" stroke-width="4" stroke-linecap="round" stroke-linejoin="round"/>
<path d="M100.474 38C100.344 36.048 98.734 34.5 96.75 34.5H94.01C92.07 34.5 90.5 36.072 90.5 38.01C90.5 39.62 91.596 41.024 93.156 41.416L97.842 42.592C99.404 42.984 100.498 44.388 100.498 45.998C100.498 47.938 98.926 49.508 96.988 49.508H94.248C92.26 49.508 90.65 47.956 90.522 46" stroke="#323232" stroke-width="4" stroke-linecap="round" stroke-linejoin="round"/>
<defs>
<clipPath id="clip0_1505_953">
<rect width="323" height="288" fill="white" transform="translate(33 97)"/>
</clipPath>
</defs>
</svg>
