<svg width="22" height="19" viewBox="0 0 22 19" fill="none" xmlns="http://www.w3.org/2000/svg">
<path d="M21.2 15.6335L13.0016 1.39569C12.7967 1.04687 12.5042 0.757642 12.1532 0.556681C11.8021 0.35572 11.4046 0.25 11 0.25C10.5955 0.25 10.198 0.35572 9.8469 0.556681C9.49581 0.757642 9.20334 1.04687 8.99847 1.39569L0.800029 15.6335C0.602907 15.9709 0.499023 16.3546 0.499023 16.7454C0.499023 17.1361 0.602907 17.5199 0.800029 17.8572C1.00228 18.2082 1.29425 18.499 1.64599 18.6998C1.99773 18.9006 2.39658 19.0043 2.80159 19.0001H19.1985C19.6032 19.0039 20.0016 18.9001 20.353 18.6993C20.7044 18.4985 20.9961 18.2079 21.1982 17.8572C21.3956 17.52 21.4998 17.1364 21.5001 16.7456C21.5004 16.3549 21.3969 15.9711 21.2 15.6335ZM10.25 7.75006C10.25 7.55115 10.329 7.36038 10.4697 7.21973C10.6104 7.07908 10.8011 7.00006 11 7.00006C11.1989 7.00006 11.3897 7.07908 11.5304 7.21973C11.671 7.36038 11.75 7.55115 11.75 7.75006V11.5001C11.75 11.699 11.671 11.8897 11.5304 12.0304C11.3897 12.171 11.1989 12.2501 11 12.2501C10.8011 12.2501 10.6104 12.171 10.4697 12.0304C10.329 11.8897 10.25 11.699 10.25 11.5001V7.75006ZM11 16.0001C10.7775 16.0001 10.56 15.9341 10.375 15.8105C10.19 15.6868 10.0458 15.5111 9.96066 15.3056C9.87552 15.1 9.85324 14.8738 9.89665 14.6556C9.94005 14.4374 10.0472 14.2369 10.2045 14.0796C10.3619 13.9222 10.5623 13.8151 10.7806 13.7717C10.9988 13.7283 11.225 13.7505 11.4305 13.8357C11.6361 13.9208 11.8118 14.065 11.9354 14.25C12.059 14.4351 12.125 14.6526 12.125 14.8751C12.125 15.1734 12.0065 15.4596 11.7955 15.6706C11.5845 15.8815 11.2984 16.0001 11 16.0001Z" fill="#FF7201"/>
</svg>
