<?xml version="1.0" encoding="UTF-8"?>
<svg xmlns="http://www.w3.org/2000/svg" id="Camada_1" viewBox="0 0 462 500">
  <style>.st0{fill-rule:evenodd;clip-rule:evenodd;fill:#d7eefd}.st1{fill:#ffd527}.st2{fill:#e0e0e0}.st3{fill:#8dd7ff}.st4{fill:none;stroke:#ffd527;stroke-width:1.93}.st5{fill:#ffb200}.st6{fill:#d66b09}.st7,.st8{opacity:.35}.st8{fill:#371a45;enable-background:new}.st9{fill:#232323}.st10{fill:#ffc536}.st11{fill:#ffec90}.st12,.st13{opacity:.41}.st13{fill:#fff;enable-background:new}.st14{fill:#3ace32}.st15{opacity:.3}.st16,.st17{opacity:.3;fill:#462b5b;enable-background:new}.st17{fill:#232323}.st18{fill:#f3f3f3}.st19{fill:#fff}.st20{fill:#22a7f0}.st21{fill:#bdb0d1}.st22{fill:#ffda00}.st23{fill:#9c50ff}.st24,.st25{opacity:.55}.st25{fill:#fff;enable-background:new}.st26,.st27{opacity:.6}.st27{fill:#f7f7f7;enable-background:new}.st28{fill:#a699b5}.st29{fill:#020202}.st30{opacity:.5}.st31,.st32{opacity:.5;fill:#fff;enable-background:new}.st32{fill:#232323}.st33,.st34{opacity:.4}.st34{fill:#fff;enable-background:new}.st35{fill:#3185ff}.st36{fill:#b9abc6}.st37{fill:#f1f1f1}</style>
  <path class="st0" d="M394.2 276.6c1.9-10.4 2.9-21.1 2.9-32.1 0-97.1-78.7-175.8-175.8-175.8S45.5 147.4 45.5 244.5c0 10.6.9 21 2.7 31.1 6.4 2.7 12.1 6.6 16.6 11.4 6.4-11.5 18.4-20.2 33-23.1-.1-1.1-.2-2.2-.2-3.3 0-20.7 19.1-37.4 42.6-37.4 7.8 0 15.5 1.9 22.4 5.6 7-12.3 21.4-20.8 38.2-20.8 15.9 0 29.7 7.6 37.1 18.9 1.2 1.8 3 3.1 5 3.7l.4.1c2.3.7 4.7.6 6.8-.4 6.6-3.3 13.8-4.9 21.1-4.9 20.9 0 38.3 13.2 41.9 30.6 10 1 18.9 5 25.6 10.9 7-3.8 14.8-5.8 22.7-5.8 15.6.7 26 7.4 32.8 15.5z"></path>
  <path class="st1" d="M4.5 211.2c-.1.9 1.8 1.9 4.6 2.5.7.2 1.3.5 1.8 1.1.5.5.8 1.2.8 1.9.3 2.9 1 4.9 1.9 4.9.9.1 1.9-1.8 2.5-4.6.2-.7.5-1.3 1.1-1.8.5-.5 1.2-.8 1.9-.8 2.9-.3 4.9-1 4.9-1.9.1-.9-1.8-1.9-4.6-2.5-.7-.2-1.3-.5-1.8-1.1-.5-.5-.8-1.2-.8-1.9-.3-2.9-1-4.9-1.9-4.9-.9-.1-1.9 1.8-2.5 4.6-.2.7-.5 1.3-1.1 1.8-.5.5-1.2.8-1.9.8-2.9.3-4.9 1-4.9 1.9z"></path>
  <path class="st2" d="M331.7 52c.1-1.9 1.7-3.4 3.6-3.3 1.9.1 3.4 1.7 3.4 3.6-.1 1.9-1.7 3.4-3.6 3.3-1.9-.1-3.4-1.7-3.4-3.6z"></path>
  <path class="st3" d="M373.5 106.5c-1.7-.8-2.5-2.9-1.6-4.7.8-1.7 2.9-2.5 4.7-1.6 1.7.8 2.5 2.9 1.6 4.7-.9 1.7-3 2.4-4.7 1.6zM66.4 55.9c-1.7-.8-2.5-2.9-1.6-4.7.8-1.7 2.9-2.5 4.7-1.6 1.7.8 2.5 2.9 1.6 4.7-.9 1.7-2.9 2.4-4.7 1.6zM433.7 86.8c-.9-.3-1.4-1.3-1.1-2.3.3-.9 1.3-1.4 2.3-1.1.9.3 1.4 1.3 1.1 2.3-.3.9-1.3 1.4-2.3 1.1zM112.5 83c-.9-.5-1.3-1.6-.9-2.5.5-.9 1.6-1.3 2.5-.9.9.5 1.3 1.6.9 2.5-.4.9-1.6 1.3-2.5.9z"></path>
  <path class="st4" d="M416.3 318c-1.5-.6-2.6-1.2-3.4-1.8-.4-.3-.6-.5-.7-.7v-.1h.1c.2-.1.5-.2.9-.3.9-.2 2.2-.2 3.8-.1 1 .1 2-.2 2.9-.7.9-.5 1.5-1.3 1.9-2.3.6-1.5 1.2-2.6 1.8-3.4.3-.4.5-.6.7-.7h.1v.1c.1.2.2.5.3.9.2.9.2 2.2.1 3.8l-8.5 5.3zm0 0c.9.4 1.7 1 2.3 1.9m-2.3-1.9l2.3 1.9m3.7 3.6c-.6 1.5-1.2 2.6-1.8 3.3-.3.4-.5.6-.7.7h-.1v-.1c-.1-.2-.2-.5-.3-.9-.2-.9-.2-2.2-.1-3.8l3 .8zm0 0c.4-.9 1-1.7 1.9-2.3m-1.9 2.3l1.9-2.3m3.5-3.7c1.5.6 2.6 1.2 3.4 1.8.4.3.6.5.7.7v.1h-.1c-.2.1-.5.2-.9.3-.9.2-2.2.2-3.8.1l.7-3zm0 0c-.9-.4-1.7-1-2.3-1.9m2.3 1.9l-2.3-1.9m-6.8 4.3c.5.9.8 1.9.7 2.9l-.7-2.9zm5.6 1.3c.9-.5 1.9-.8 2.9-.7l-2.9.7zm1.3-5.6c-.5-.9-.8-1.9-.7-2.9l.7 2.9zm-1.2-7.7zm.1 0zm-12.2 7.6zm0-.1zm7.6 12.2zm-.1 0zm12.2-7.6zm0 .1z"></path>
  <path class="st5" d="M320.8 378c-1.4 9.1-4.2 17.9-8.2 26.1-10.1 20.9-27.9 38-51.3 46.8-23.4 8.8-48.2 7.5-69.5-1.6-8.4-3.6-16.2-8.4-23.2-14.2 23.2-4.2 50.3-11.8 78.4-22.3s53.5-22.7 73.8-34.8z"></path>
  <path class="st6" d="M191.8 450.9v-1.6l-.6-1.4.3-.1h.3c12.7-.1 37.2-6.2 62.5-15.7 25.5-9.5 47.4-20.7 57.3-29.1l2 2.4c-10.1 8.6-32.4 19.9-58.2 29.6-26 9.7-50.4 15.9-63.6 15.9zM247 412.8c28.2-10.6 53.5-22.7 73.8-34.7-.6 3.8-1.4 7.5-2.5 11.2-15.7 9.9-40.4 21.7-69 32.4-27.4 10.3-52.8 17.5-71 20.6-3.4-2.2-6.6-4.5-9.7-7.1 23.2-4.3 50.2-11.8 78.4-22.4z"></path>
  <g class="st7">
    <path class="st8" d="M317.8 370.8c-1.4 9.1-4.2 17.9-8.2 26.1-10.1 20.9-27.9 38-51.3 46.8-23.4 8.8-48.2 7.5-69.5-1.6-8.4-3.6-16.2-8.4-23.2-14.2 23.2-4.2 50.3-11.8 78.4-22.3 28.2-10.6 53.5-22.7 73.8-34.8z"></path>
  </g>
  <g class="st7">
    <path class="st8" d="M322.2 329.6c-.7.5-1.4 1-2.2 1.5.7-.6 1.4-1.3 2-2 .1.1.2.3.2.5z"></path>
  </g>
  <path class="st5" d="M316 330.6c1.4 3.6 2.5 7.4 3.4 11.1-16 11.3-47 26.4-83.9 40.3-36.8 13.8-70.2 22.8-89.7 24.8-1.8-3.4-3.4-7-4.8-10.6-.1-.2-.1-.3-.2-.5-.6-1.6-1.2-3.3-1.7-4.9-1.2-3.8-2.1-7.7-2.8-11.6 0-.2-.1-.3-.1-.5a93.6 93.6 0 0 1 4.9-48.6c9.2-24.2 28.4-44.4 54.5-54.2 25.9-9.7 53.4-7.2 76.1 4.8 14.6 7.6 26.9 19 35.7 32.9.3.4.5.8.8 1.2 2.1 3.4 3.9 6.9 5.5 10.5.6 1.4 1.2 2.7 1.7 4.1.3.5.4.8.6 1.2z"></path>
  <path class="st6" d="M315.5 329.5c.1.4.3.8.4 1.2 1.4 3.6 2.5 7.4 3.4 11.1-16 11.3-47 26.4-83.9 40.3-36.8 13.8-70.2 22.8-89.7 24.8-1.8-3.4-3.4-7-4.8-10.6-.1-.2-.1-.3-.2-.5 18.4-.8 52.3-9.4 89.9-23.5 39.2-14.7 71.4-31.3 84.9-42.8zM134.8 364.7l.7-6.3c12.7 1.5 46.6-6.9 82.5-20.3 42.8-16.1 70.9-32.3 76.5-40.1l5.1 3.7c-7.4 10.3-39.3 27.3-79.4 42.3-37.3 14-71.7 22.3-85.4 20.7zM141.5 333.3l-.5-6.3c14.4-1.2 39.8-8 66.1-17.9 27.6-10.4 51.7-22.2 62.8-30.9l3.9 5c-11.6 9.1-36.3 21.3-64.5 31.8-26.8 10-52.8 17.1-67.8 18.3z"></path>
  <path class="st6" d="M136.2 381.9l.4-6.3c14.6 1 49.6-7.7 87.2-21.8 39.5-14.8 72.9-32.1 81.3-42.2l4.8 4c-9.2 11-42.9 28.7-83.9 44.1-38.9 14.6-74.2 23.3-89.8 22.2z"></path>
  <path class="st9" d="M228.6 459.1c-22.1 0-44-7.7-61.4-22.3-.3-.3-.6-.6-.7-1-.1-.4-.1-.8 0-1.2.1-.4.3-.8.6-1.1.3-.3.7-.5 1.1-.5 23.9-4.4 50.9-12 78.1-22.2s52.5-22.1 73.4-34.6c.4-.2.8-.3 1.2-.3.4 0 .8.1 1.2.4s.6.6.8.9c.2.4.2.8.2 1.2-5.4 34-28.7 62.6-60.9 74.6-10.9 4-22.2 6.1-33.6 6.1zm-54.9-22.7c24.8 18.6 57.6 23.5 86.8 12.5 29.2-11 50.8-36.2 57.2-66.5-20.3 11.7-44.4 22.9-70 32.5-25.5 9.5-51 16.9-74 21.5z"></path>
  <path class="st10" d="M370.2 324.4c4.8 12.8-15.2 33.2-49.5 53.6-20.3 12.1-45.6 24.2-73.8 34.7-28.2 10.6-55.2 18.1-78.4 22.3-39.2 7.2-67.7 4.9-72.5-7.9-4.4-11.6 11.7-29.5 40.4-48 .7 3.9 1.6 7.8 2.8 11.6-8 5.7-12 10.3-10.9 13.3 1.1 3 7.4 3.8 17.5 2.8 19.4-2 52.8-11 89.7-24.8s67.9-29 83.9-40.3c8.3-5.8 12.5-10.6 11.4-13.6-1.1-2.9-7.2-3.8-16.9-2.8-1.6-3.6-3.5-7.1-5.5-10.5 33.6-4.9 57.5-2 61.8 9.6z"></path>
  <path class="st11" d="M126 415.9c-4.5-1-7.6-3-8.8-6.1-2.4-6.3 4-14.6 19.4-25.2l2.9 4.2c-14.5 10-18.6 16.5-17.5 19.3 1.7 4.6 19 6 53-1.9 19-4.4 40.5-11 62.4-19.2 21.8-8.2 42.5-17.4 59.7-26.5 30.7-16.4 42.9-28.8 41.2-33.4-1-2.7-8.4-5-25.9-3l-.6-5.1c18.6-2.1 28.8-.1 31.2 6.3 4.2 11.3-21.3 27.8-43.5 39.7-17.4 9.3-38.2 18.5-60.3 26.8s-43.8 15-63 19.4c-17.9 4-38.5 7.4-50.2 4.7z"></path>
  <path class="st11" d="M117.3 427.8c-6.3-1.5-11-4.2-12.7-8.8-4.5-11.9 14.5-27.5 31.1-38.5l2.8 4.3c-24.4 16.1-31.1 27.3-29.1 32.4 2.4 6.3 19.9 10.6 61.6 2.1 21.6-4.4 46-11.6 70.6-20.9 24.6-9.2 47.8-19.8 66.9-30.7 37.1-21 47.5-35.8 45.1-42.1-1.9-5.1-14.3-9.2-43.3-5.3l-.7-5.1c19.8-2.7 44.2-3.4 48.7 8.5 5.8 15.5-27.2 36.9-47.4 48.3-19.4 11-42.8 21.7-67.6 31-24.9 9.3-49.5 16.6-71.4 21.1-15.8 3.5-39.7 7.1-54.6 3.7z"></path>
  <g class="st7">
    <path class="st8" d="M177.1 431.1c22.8-4.1 49.2-11.4 76.7-21.7-24.7 1.8-41.6-1.9-45.2-11.5-.7-1.9-.9-4-.5-6.3-25.6 8.3-47.8 13.7-62.2 15.2-10.1 1-16.4.2-17.5-2.8-1.1-2.9 2.9-7.6 10.9-13.3-1-3.3-1.8-6.7-2.5-10.1-23.5 16.5-36.1 32-32.2 42.5 4.8 12.9 33.2 15.1 72.5 8z"></path>
  </g>
  <path class="st9" d="M130 441.3c-20 0-32.6-4.5-35.9-13.4-4.7-12.5 10-30.4 41.2-50.6.3-.2.7-.3 1-.3.4 0 .7 0 1.1.2.3.1.6.4.8.7.2.3.4.6.4 1 .7 3.8 1.6 7.6 2.7 11.3.1.4.1.9 0 1.3s-.4.8-.8 1.1c-11 7.9-10.1 10.7-10.1 10.7s1.2 2.8 15.2 1.4c19.8-2.1 54-11.5 89.1-24.7 35.1-13.2 67.1-28.5 83.4-40 11.5-8.1 10.6-11 10.6-11s-1.2-2.7-14.7-1.4c-.5 0-.9-.1-1.3-.3-.4-.2-.7-.6-.9-1-1.6-3.5-3.4-7-5.4-10.3-.2-.3-.3-.7-.3-1 0-.4.1-.7.2-1.1.2-.3.4-.6.7-.8.3-.2.6-.4 1-.4 36.8-5.4 59.6-1.4 64.3 11 5.1 13.6-13.3 34.2-50.4 56.3-21.1 12.6-46.8 24.7-74.1 34.9-27.4 10.3-54.6 18-78.8 22.4-15 2.7-28.1 4-39 4zm4.9-58.4c-26.7 17.7-40.4 33.9-36.8 43.6 4.2 11.1 31 13.6 70 6.5 23.9-4.4 50.9-12 78.1-22.2s52.5-22.1 73.4-34.6c34.1-20.3 52.7-39.8 48.5-51-3.6-9.7-24.6-12.9-56.3-8.7 1.2 2.1 2.3 4.3 3.3 6.5 10.6-.9 16.2.5 17.6 4.4 1.5 4.1-2.3 9.2-12.1 16.2-16.8 11.9-48.4 27-84.4 40.5-36 13.5-69.7 22.8-90.2 24.9-12 1.2-18.2-.1-19.8-4.2-1.4-3.9 1.9-8.6 10.4-14.9-.6-2.3-1.2-4.7-1.7-7z"></path>
  <g class="st7">
    <path class="st8" d="M325.7 339.5c-16 11.3-47.1 26.4-83.9 40.3-36.8 13.8-70.2 22.8-89.7 24.8-1.8-3.4-3.4-7-4.8-10.6-.1-.2-.1-.3-.2-.5-.6-1.6-1.2-3.3-1.6-4.9-1.2-3.8-2.1-7.7-2.8-11.6 0-.2-.1-.3-.1-.5-2.7-16.4-1.1-33.1 4.9-48.6 7.5-19.6 21.4-36.5 40.3-47.5a93.803 93.803 0 0 0-18.6 54.2c-.1 5.8.3 11.5 1.3 17.2 0 .2.1.3.1.5s.1.5.2.8c3.6 16.4 20.4 24.3 37.1 23.9 31.9-.6 103.2-32.9 118.4-40.4.7 2.4-1.2.4-.6 2.9z"></path>
  </g>
  <g class="st12">
    <path class="st13" d="M316.7 343.5c-1.9 1.3-3.9 2.7-6.2 4.1-.7-2.5-1.5-5-2.5-7.5-.1-.4-.3-.8-.4-1.1-.5-1.4-1.1-2.8-1.7-4.1-1.6-3.6-3.5-7.1-5.5-10.5-.2-.4-.5-.8-.8-1.2-3.1-4.9-6.6-9.5-10.5-13.7-7.2-7.8-15.7-14.3-25.1-19.2-22.7-11.9-50.2-14.5-76.1-4.8-17.3 6.5-31.5 17.6-41.9 31.3 10.9-18 27.4-31.7 47.1-39.1 25.9-9.7 53.4-7.2 76.1 4.8 14.6 7.6 26.9 19 35.7 32.9.3.4.5.8.8 1.2 2.1 3.4 3.9 6.9 5.5 10.5.6 1.4 1.2 2.7 1.7 4.1.2.4.3.8.4 1.2 1.4 3.6 2.5 7.3 3.4 11.1z"></path>
  </g>
  <path class="st9" d="M145.8 409.1c-.4 0-.8-.1-1.1-.3-.3-.2-.6-.5-.8-.9-1.8-3.5-3.5-7.2-4.9-10.9-.7-1.8-1.3-3.7-1.9-5.5-1.2-3.9-2.1-7.8-2.8-11.8-7.8-45.2 17.7-89.6 60.7-105.8 43-16.1 91.4.6 115.2 39.8 2.1 3.5 4 7.1 5.6 10.8.8 1.8 1.5 3.6 2.2 5.4 1.4 3.7 2.6 7.5 3.5 11.4.1.4.1.9-.1 1.3s-.4.8-.8 1c-16.8 11.9-48.4 27-84.4 40.5-36 13.5-69.7 22.8-90.2 24.9 0 0-.1.1-.2.1zm82.7-136.9c-10.9 0-21.7 2-32 5.8-41 15.4-65.3 57.8-57.9 100.9.7 3.8 1.6 7.6 2.7 11.3.5 1.8 1.1 3.5 1.8 5.3 1.2 3.1 2.5 6.1 4 9.1 20-2.4 53.4-11.7 87.6-24.5s65.5-27.7 82.2-39.1c-.8-3.2-1.8-6.3-3-9.4-.7-1.7-1.4-3.5-2.1-5.2-1.6-3.5-3.4-7-5.4-10.3-16.9-28-46.8-43.9-77.9-43.9z"></path>
  <path class="st14" d="M179.6 428.6l-.6-.6.1.1c.2.2.4.3.5.5z"></path>
  <path class="st9" d="M179.5 428.8l-.5-.5-.1-.1.4-.3.6.6-.4.3z"></path>
  <g class="st15">
    <path class="st16" d="M174.8 283.2c2.3-2.2 4.6-4.3 7.1-6.3-2.4 1.6-4.7 3.3-7 5.1-.1.4-.1.8-.1 1.2z"></path>
    <path class="st17" d="M174.5 283.8v-.7c0-.4.1-.8.1-1.2v-.1l.1-.1c2.2-1.8 4.6-3.5 7-5.1l.3.4c-2.5 2-4.8 4.1-7.1 6.3l-.4.5zm.6-1.7c0 .1 0 .3-.1.4.8-.8 1.6-1.6 2.5-2.3-.8.6-1.6 1.3-2.4 1.9z"></path>
  </g>
  <path class="st18" d="M168.9 289.5c3.2 2.9 7.9 5.6 14 4.5 11.8-2.3 11.8-22.4 11.8-22.4l19.4-56.5-.4-.4-12.1-9.9H198c-2.3 0-4.6.8-6.3 2.4-.5.4-.9.9-1.3 1.4-16.1 20.6-25.3 43.7-26.1 69.8-.1 2.1.3 4.1 1.1 6 .8 2 2 3.7 3.5 5.1z"></path>
  <g class="st15">
    <path class="st17" d="M191.7 207.3l12.2 12.4s4.8-2.3 9.7-4.9l-12-9.9H198c-2.3 0-4.5.9-6.3 2.4z"></path>
  </g>
  <g class="st15">
    <path class="st17" d="M168.9 289.5c3.2 2.9 7.9 5.6 14 4.5 11.8-2.3 11.8-22.4 11.8-22.4l17.4-50.5c-4.9 1-9.5 2.2-12.5 4-12.3 7.5-19.4-1.2-19.4-1.2-9.7 16.6-15.2 34.7-15.8 54.6-.1 2.1.3 4.1 1.1 6 .7 1.9 1.9 3.6 3.4 5z"></path>
  </g>
  <path class="st9" d="M180 295.9c-4.3 0-8.5-1.8-12.2-5.2-1.7-1.6-3-3.5-3.9-5.6-.9-2.1-1.3-4.4-1.2-6.7.8-25.5 9.7-49.3 26.5-70.8 1.1-1.4 2.4-2.5 4-3.2 1.5-.8 3.2-1.2 5-1.1h3.5c.4 0 .7.1 1 .4l12.5 10.2c.3.3.6.7.6 1.1 0 .4-.1.9-.4 1.2-.3.3-.7.6-1.1.6-.4 0-.9-.1-1.2-.4l-12-9.9h-3c-1.2 0-2.4.3-3.5.8s-2.1 1.3-2.8 2.3c-16.3 20.9-25 44.1-25.8 68.9-.1 1.8.3 3.7 1 5.4.7 1.7 1.8 3.2 3.1 4.5 3.9 3.6 8.1 4.9 12.6 4.1 10.3-2 10.4-20.6 10.4-20.8 0-.2 0-.4.1-.6.1-.2.2-.4.4-.5.2-.2.3-.3.5-.4.2-.1.4-.1.6-.1.4 0 .9.2 1.2.5.3.3.5.7.5 1.2 0 .9-.1 21.5-13.1 24-1.1 0-2.2.1-3.3.1z"></path>
  <path class="st19" d="M286.7 276.5c-6.7-2.6-9.7-7.8-11-11.1-.6-1.6-.9-3.4-.8-5.1l.6-15.2-8.1-1.9-8.2 19.8-5.1 23.8"></path>
  <g class="st15">
    <path class="st17" d="M264.8 268s.7 7.2 8.2 11.6c7.5 4.4-13.3 10-14.7 6.5-1.4-3.5 2.9-11.2 2.9-11.2"></path>
  </g>
  <path class="st18" d="M167.4 258.7c4 3.4 10.2 7.6 14.5 5.8l4.3-13.7 2.7-8.6 2.8-5.7-11.7-7.2c-.7-.4-1.4-.6-2.2-.6-.8 0-1.6.2-2.3.6l-4.6 2.6c-.5.3-.9.7-1.3 1.1-.4.5-.6 1-.8 1.5l-1.9 7.1-2.2 8.2c-.4 1.6-.4 3.3.1 4.8.4 1.6 1.3 3 2.6 4.1z"></path>
  <path class="st9" d="M179.7 266.5c-4.5 0-9.6-3.4-13.4-6.6-1.5-1.3-2.6-2.9-3.2-4.8s-.6-3.9-.1-5.8l4.2-15.2c.2-.8.6-1.5 1.1-2.1.5-.6 1.1-1.2 1.8-1.5l4.6-2.6c.9-.5 2-.8 3.1-.8s2.1.3 3.1.9l11.7 7.2c.3.2.6.6.7.9.1.4.1.8-.1 1.2l-2.8 5.7c-.1.2-.2.4-.4.5-.2.1-.4.3-.6.3-.2.1-.4.1-.6.1-.2 0-.4-.1-.6-.2-.2-.1-.4-.2-.5-.4-.1-.2-.3-.4-.3-.6-.1-.2-.1-.4-.1-.6 0-.2.1-.4.2-.6l2.2-4.4-10.4-6.4c-.4-.3-.9-.4-1.4-.4-.5 0-1 .1-1.4.4l-4.6 2.6c-.3.2-.6.4-.8.7-.2.3-.4.6-.5 1l-4.2 15.2c-.3 1.3-.3 2.6.1 3.9.4 1.3 1.1 2.4 2.2 3.3 5.5 4.6 10.1 6.6 12.8 5.6.2-.1.4-.1.6-.1.2 0 .4 0 .6.1.2.1.4.2.5.4.2.2.3.3.4.5.1.2.1.4.1.6 0 .2 0 .4-.1.6-.1.2-.2.4-.4.5-.2.2-.3.3-.5.3-1.1.5-2 .6-3 .6z"></path>
  <path class="st9" d="M186.4 249c-.2 0-.4 0-.6-.1-.2-.1-.4-.2-.5-.4l-.3-.6v-.6c.1-.3.1-.6.1-.9.1-1.8-.9-3.5-2.5-4.5l-10.9-6.7c-.4-.1-.8-.1-1.1 0-.4.1-.6.4-.8.8-.2.3-.4.6-.8.7-.3.1-.7.1-1 0-.3-.1-.6-.4-.7-.8-.1-.3-.1-.7 0-1 .5-1 1.3-1.8 2.4-2.2s2.2-.3 3.2.1c0 0 .1 0 .1.1l11 6.8c2.5 1.5 4 4.2 3.8 7 0 .5-.1 1-.2 1.5-.1.3-.3.5-.5.7-.1 0-.4.1-.7.1z"></path>
  <g class="st15">
    <path class="st17" d="M167.4 258.7c4 3.4 10.2 7.6 14.5 5.8l4.3-13.7c-.6.1-1.1.1-1.7.2-17.4 3.3-17.6-9.4-17.6-9.4l-2.2 8.2c-.4 1.6-.4 3.3.1 4.8.4 1.6 1.3 3 2.6 4.1z"></path>
  </g>
  <path class="st9" d="M262.7 287.8c-.2 0-.5-.1-.7-.2-.2-.1-.4-.3-.6-.5l-3.8-4.8-.3-.6c-.1-.2-.1-.4 0-.6 0-.2.1-.4.2-.6.1-.2.2-.4.4-.5l.6-.3c.2-.1.4-.1.6-.1.2 0 .4.1.6.2.2.1.4.2.5.4l3.8 4.8c.2.2.3.5.3.8 0 .3 0 .6-.2.9-.1.3-.3.5-.6.7-.2.3-.5.4-.8.4zM286.7 278.2c-.2 0-.4 0-.6-.1-7.5-2.9-10.7-8.8-11.9-12.1-.7-1.8-1-3.8-.9-5.8l.6-15.2c0-.4.2-.8.5-1.1s.7-.4 1.2-.4c.4 0 .8.2 1.1.5.3.3.5.7.4 1.2l-.6 15.2c-.1 1.5.2 3 .7 4.5 1.3 3.4 4.1 7.9 10 10.2.4.1.7.4.8.7.2.3.2.7.2 1.1-.1.4-.3.7-.6 1-.1.1-.5.3-.9.3z"></path>
  <path class="st19" d="M213.2 245.1l45 17.2c3.5-4.9 6.3-11.4 8.1-16.1 1.4-3.7 2.2-6.4 2.2-6.4l-2.9-5.4-42.1-6.4-4.3 7.2-6 9.9z"></path>
  <g class="st15">
    <path class="st17" d="M219.2 235.1c5.1 4 10.9 7.2 17.1 9.2 9.7 3.2 20 3.8 30 1.8 1.4-3.7 2.2-6.4 2.2-6.4l-2.9-5.4-42.1-6.4-4.3 7.2z"></path>
  </g>
  <path class="st9" d="M258.2 263.9c-.3 0-.6-.1-.9-.2-.3-.2-.5-.4-.6-.6s-.2-.6-.2-.9c0-.3.1-.6.3-.8 6-8.5 10.1-21.9 10.1-22l.3-.6c.1-.2.3-.3.5-.4.2-.1.4-.2.6-.2.2 0 .4 0 .6.1l.6.3c.2.1.3.3.4.5.1.2.2.4.2.6 0 .2 0 .4-.1.6-.2.6-4.3 14-10.6 22.9-.2.2-.4.4-.6.5-.1.1-.3.2-.6.2z"></path>
  <path class="st19" d="M266.3 255.1l1.3 3.4c.3.8.4 1.6.4 2.4 0 .8-.2 1.6-.6 2.4l-10.7 22.4-38.7-11.3 9.8-31.2 34.2 8.1c1 .2 1.9.7 2.6 1.4.8.6 1.4 1.5 1.7 2.4z"></path>
  <path class="st20" d="M235.1 264.8c2.4 0 4.4-2.1 4.4-4.8s-2-4.8-4.4-4.8c-2.4 0-4.4 2.1-4.4 4.8s2 4.8 4.4 4.8z"></path>
  <path class="st21" d="M307 317h3.9c.4 0 .8.1 1.1.2.4.2.7.4.9.7.3.3.5.6.6 1 .1.4.2.8.1 1.1-.1.7-.4 1.3-.9 1.8s-1.2.7-1.9.8l-54 .7c-1.2 0-2.4-.2-3.5-.7-1.1-.5-2.1-1.1-2.9-2l-24.6-25.5 4-7.2 42.2-3.3"></path>
  <path class="st9" d="M257.8 309.6c-.1 0-.2 0-.3-.1-.1 0-.2-.1-.3-.2L242.3 293c-.1-.1-.1-.2-.2-.3 0-.1-.1-.2-.1-.3 0-.1 0-.2.1-.3 0-.1.1-.2.2-.3.1-.1.2-.1.3-.2.1 0 .2-.1.3 0 .1 0 .2 0 .3.1.1 0 .2.1.3.2l14.9 16.3c.1.1.2.3.2.4 0 .2 0 .3-.1.5s-.2.3-.3.4c-.1.1-.2.1-.4.1zM265.7 308.3c-.1 0-.2 0-.3-.1-.1 0-.2-.1-.3-.2l-14.9-16.3c-.1-.2-.2-.4-.2-.6 0-.2.1-.4.3-.6.2-.1.4-.2.6-.2.2 0 .4.1.6.3l14.9 16.3c.1.1.2.3.2.4 0 .2 0 .3-.1.5-.1.1-.2.3-.3.4-.2.1-.4.1-.5.1z"></path>
  <path class="st9" d="M238.6 294.6c-.2 0-.4-.1-.6-.2s-.2-.3-.2-.6c0-.2.1-.4.2-.6.1-.2.3-.3.5-.3l34.3-3.2c.2 0 .4.1.6.2.2.1.3.3.3.5s0 .4-.2.6c-.1.2-.3.3-.5.3l-34.4 3.3c.1 0 .1 0 0 0zM242.9 303.9c-.2 0-.4-.1-.6-.2-.2-.1-.2-.3-.3-.6 0-.2.1-.4.2-.6.1-.2.3-.3.5-.3l28.8-2.4h.3c.1 0 .2.1.3.2.1.1.2.2.2.3.1.1.1.2.1.3v.3c0 .1-.1.2-.2.3-.1.1-.2.1-.3.2-.1 0-.2.1-.3.1l-28.7 2.4zM247.8 309.6c-.2 0-.4-.1-.6-.2s-.2-.3-.2-.6c0-.2.1-.4.2-.6.1-.2.3-.3.5-.3.9-.1 21.5-1.6 22.8-1.6.2 0 .4.1.6.2.1.2.2.4.2.6 0 .2-.1.4-.2.6-.1.2-.3.2-.6.3-.9 0-15.2 1.1-22.7 1.6.1 0 .1 0 0 0z"></path>
  <path class="st9" d="M256.8 325c-1.4 0-2.8-.3-4.1-.8-1.3-.5-2.4-1.3-3.4-2.3l-24.6-25.5c-.2-.3-.4-.6-.4-.9 0-.4 0-.7.2-1l4-7.2c.1-.2.3-.4.5-.6.2-.1.5-.2.8-.3l42.2-3.3c.4 0 .9.1 1.2.4.3.3.5.7.6 1.1 0 .4-.1.9-.4 1.2-.3.3-.7.5-1.1.6l-41.3 3.2-3 5.4 23.8 24.6c.7.7 1.5 1.2 2.4 1.6.9.4 1.9.6 2.8.5l54-.7c.2 0 .4-.1.6-.2.2-.1.3-.3.4-.5.1-.2.1-.4.1-.7 0-.2-.1-.4-.3-.6-.1-.1-.2-.2-.4-.3-.1-.1-.3-.1-.5-.1H307c-.4 0-.9-.2-1.2-.5-.3-.3-.5-.7-.5-1.2 0-.4.2-.9.5-1.2.3-.3.7-.5 1.2-.5h3.9c1.2 0 2.3.5 3.1 1.3.8.8 1.3 2 1.3 3.1 0 1.2-.4 2.3-1.3 3.1-.8.8-1.9 1.3-3.1 1.4l-54 .7-.1.2z"></path>
  <path class="st9" d="M256.8 287.4c-.2 0-.3 0-.5-.1L217.6 276l-.6-.3c-.2-.1-.3-.3-.4-.5-.1-.2-.2-.4-.2-.6 0-.2 0-.4.1-.6l9.7-31.2c.1-.4.4-.7.8-.9.4-.2.8-.3 1.2-.2l34.2 8.1c1.2.3 2.4.9 3.3 1.7 1 .8 1.7 1.9 2.1 3.1l1.3 3.4c.4 1 .5 2 .5 3.1s-.3 2.1-.8 3l-10.7 22.4c-.1.3-.3.5-.6.7-.1.1-.4.2-.7.2zm-36.7-14.1l35.8 10.5 10.1-21.1c.3-.6.4-1.1.4-1.8 0-.6-.1-1.2-.3-1.8l-1.3-3.5c-.3-.7-.7-1.3-1.2-1.8-.6-.5-1.2-.8-1.9-1L229 245l-8.9 28.3z"></path>
  <path class="st9" d="M235.1 266.2c-3.2 0-5.8-2.7-5.8-6.1 0-3.4 2.6-6.1 5.8-6.1 3.2 0 5.8 2.8 5.8 6.1s-2.6 6.1-5.8 6.1zm0-9.5c-1.7 0-3 1.5-3 3.4s1.4 3.4 3 3.4c1.7 0 3-1.5 3-3.4.1-1.9-1.3-3.4-3-3.4z"></path>
  <path class="st19" d="M180.7 295c2.9 9.2 9.1 13.5 17.6 14.5 2.6 3.4 5.4 5.8 8.4 7.5l-1.2-3.6-3-8.6c-.1-.4-.1-.7-.2-1.1-.5-3.4.1-6.8.5-8.8.2-1.1.4-1.7.4-1.7s3-14.9 12-16.5c9-1.6 11.3 8 11.3 8 3.9 4.1 7.9 7.4 12.1 9.1 2.3 13.4 26.6.8 15-12.2 4.1-1.5 3.5-7.2-5.1-7.9-.3-.2-6-4.3-9.7-7.1-2.2-1.6-4-3.8-5.2-6.3-3.2-6.9-5.6-14.1-6.6-21.7l-17.1-22.5c-16.8 10.4-26.4 34.1-29.4 57.2-.5 4.1-.8 8.1-1 12.1-.1 3.2.3 6.5 1.2 9.6z"></path>
  <path class="st9" d="M267.9 260.9h-.3l-38.3-9.4c-.2 0-.3-.1-.5-.2-.1-.1-.3-.2-.4-.4-.1-.2-.2-.3-.2-.5v-.5c0-.1.1-.3.2-.5.1-.1.2-.3.4-.4.2-.1.3-.2.5-.2h.5l38.3 9.3c.3.1.6.3.8.6.2.3.3.6.2.9 0 .3-.2.6-.4.9-.1.2-.4.4-.8.4z"></path>
  <path class="st9" d="M240.9 269.6c-.3 0-.7-.1-.9-.4-.3-.2-.4-.5-.4-.9 0-.3.1-.7.3-1 .2-.3.5-.5.8-.5l7.4-1.3c.5-.1 1.1-.3 1.5-.7.4-.4.8-.8.9-1.3l2.9-7.8c.1-.2.2-.3.3-.5.1-.1.3-.2.4-.3.2-.1.3-.1.5-.1s.4 0 .5.1c.2.1.3.2.5.3.1.1.2.3.3.4.1.2.1.3.1.5s0 .4-.1.5l-2.9 7.8c-.4 1-1 1.8-1.8 2.5s-1.7 1.1-2.8 1.3l-7.4 1.3c.1.1 0 .1-.1.1z"></path>
  <path class="st21" d="M259.6 317.5h51.1c2.1 0 4.2-.6 6-1.7 1.8-1.1 3.2-2.7 4.1-4.7l14.4-30.4c1.6-3.5-.7-7.5-4.5-7.7l-47.7-2.8c-2.6-.1-5.2.5-7.4 1.9s-4 3.4-5 5.8l-14.7 33.9c-.3.6-.4 1.3-.3 2 .1.7.3 1.3.7 1.9.4.6.9 1 1.5 1.4.5.2 1.1.4 1.8.4z"></path>
  <path class="st22" d="M305 290.5c3.9.9 6.5 2.5 6.5 4.4 0 1.8-2.5 3.4-6.2 4.3-2.1.5-4.5.8-7.1.8-2.8 0-5.4-.3-7.6-.9-3.5-.9-5.8-2.5-5.8-4.2 0-1.8 2.4-3.4 6.1-4.3"></path>
  <path class="st22" d="M305 290.5c.8 1.3 1.3 2.8 1.3 4.3.1 1.5-.3 3-1 4.4 3.7-.9 6.2-2.5 6.2-4.3 0-1.9-2.6-3.5-6.5-4.4z"></path>
  <path class="st23" d="M298 303.7c4.6 0 8.3-3.8 8.3-8.5s-3.7-8.5-8.3-8.5c-4.6 0-8.3 3.8-8.3 8.5 0 4.6 3.7 8.5 8.3 8.5z"></path>
  <g class="st24">
    <path class="st25" d="M292 289.3c1.3-.8 2.8-1.3 4.4-1.3 4.6 0 8.3 3.8 8.3 8.5 0 2.2-.8 4.3-2.3 5.9 1.2-.8 2.2-1.9 2.9-3.1.7-1.3 1-2.7 1-4.1 0-4.7-3.7-8.5-8.3-8.5-1.1 0-2.3.2-3.3.7-1 .4-2 1-2.7 1.9z"></path>
  </g>
  <path class="st9" d="M298 304.5c-5.1 0-9.2-4.2-9.2-9.4s4.1-9.4 9.2-9.4 9.2 4.2 9.2 9.4-4.1 9.4-9.2 9.4zm0-17.1c-4.1 0-7.5 3.4-7.5 7.7 0 4.2 3.4 7.7 7.5 7.7s7.5-3.4 7.5-7.7c0-4.2-3.4-7.7-7.5-7.7z"></path>
  <path class="st22" d="M288 293.4c0 3.9 19.2 4.7 20.1 0l1.9 3.9c-7.3 3.2-15 3.2-23 0l1-3.9z"></path>
  <path class="st9" d="M298.2 300.9c-2.8 0-5.5-.3-7.8-.9-4.1-1.1-6.4-2.9-6.4-5 0-2.2 2.4-4 6.7-5.1.2 0 .4 0 .6.1.2.1.3.3.4.5.1.2 0 .4-.1.6-.1.2-.3.3-.5.4-3.2.8-5.4 2.2-5.4 3.5 0 1.2 2 2.6 5.1 3.4 2.2.6 4.7.9 7.3.9 2.5 0 4.9-.3 6.9-.8 3.3-.8 5.6-2.2 5.6-3.5 0-1.1-1.8-2.6-5.8-3.6-.2-.1-.4-.2-.5-.4-.1-.2-.2-.4-.1-.6 0-.2.2-.4.4-.5.2-.1.4-.2.6-.1 4.5 1 7.2 2.9 7.2 5.2 0 2.2-2.5 4.1-6.8 5.1-2.3.5-4.8.8-7.4.8z"></path>
  <path class="st9" d="M308.4 293.4c0 .3-.1.5-.2.8-.1.2-.3.4-.5.6-.4.4-.8.7-1.2.9-.9.4-1.8.8-2.7 1-1.9.4-3.8.6-5.7.6-1.9 0-3.8-.2-5.6-.6-.9-.2-1.9-.5-2.7-.9-.5-.2-.9-.5-1.2-.8-.2-.2-.4-.4-.5-.6-.1-.3-.2-.5-.2-.8 0-.1 0-.1.1-.2 0 0 .1-.1.2-.1s.1 0 .2.1c.1 0 .1.1.1.2.1.7 1 1.2 1.8 1.5.8.3 1.7.5 2.6.6 1.8.3 3.6.4 5.4.4.9 0 1.8 0 2.7-.1.9-.1 1.8-.1 2.7-.3.9-.1 1.7-.4 2.6-.7.8-.3 1.6-.8 1.8-1.5 0-.1.1-.1.1-.1h.2c.1 0 .1.1.2.1-.3-.2-.3-.2-.2-.1z"></path>
  <path class="st19" d="M298 285.7c3.1 0 5.9 1.6 7.6 4 4.4 1.1 6.9 3 6.9 5.2s-2.4 4-6.5 5.1c-1.6 2.7-4.6 4.6-7.9 4.6-3.4 0-6.4-1.9-8-4.7-3.9-1.1-6.1-2.9-6.1-5 0-2.2 2.3-4 6.4-5.1 1.6-2.5 4.4-4.1 7.6-4.1zm0-.7c-1.6 0-3.2.4-4.6 1.1-1.4.7-2.6 1.8-3.5 3.1-4.3 1.2-6.7 3.2-6.7 5.7 0 2.4 2.2 4.4 6.3 5.6 1.8 3 5 4.8 8.4 4.8 3.4 0 6.5-1.8 8.4-4.7 4.4-1.2 6.8-3.2 6.8-5.7 0-2.6-2.5-4.6-7.1-5.8-.9-1.3-2.1-2.3-3.5-3-1.4-.7-2.9-1.1-4.5-1.1z"></path>
  <g class="st26">
    <path class="st27" d="M273 274.1c1.5-.5 3.1-.7 4.6-.6l51.4 3.1c.5 0 .9.2 1.3.4s.7.6 1 1c.2.4.4.9.4 1.3 0 .5-.1.9-.3 1.4l-16 33.8c-.5 1-1 1.8-1.7 2.6 1.5-.4 3-1.2 4.2-2.2 1.2-1 2.2-2.3 2.9-3.8l14.4-30.4c1.6-3.5-.7-7.5-4.5-7.7l-47.7-2.8c-1.8-.1-3.7.2-5.4.9-1.8.6-3.4 1.6-4.6 3z"></path>
  </g>
  <path class="st9" d="M261.1 285.5c-.2 0-.4 0-.5-.1-.3-.1-.6-.4-.7-.8-.1-.3-.1-.7 0-1 7.3-17 16.9-16.8 17.3-16.8.4 0 .7.2 1 .4.2.3.4.6.4 1s-.2.7-.4 1c-.3.2-.6.4-1 .4-.2 0-8.2.2-14.6 15.1-.1.2-.3.5-.5.6-.4.1-.7.2-1 .2z"></path>
  <path class="st28" d="M289.1 245c6-6 6-15.6 0-21.6-6-6-15.6-6-21.6 0-6 6-6 15.6 0 21.6 5.9 5.9 15.6 5.9 21.6 0z"></path>
  <g class="st15">
    <path class="st17" d="M263 234.2c0 3.2 1 6.3 2.8 8.9 1.8 2.6 4.5 4.5 7.5 5.6 3 1 6.3 1.1 9.3.2 3-.9 5.7-2.7 7.7-5.3-3.1.9-6.4.7-9.4-.4s-5.6-3.2-7.4-5.8c-1.8-2.7-2.7-5.8-2.6-9 .1-3.2 1.2-6.3 3.2-8.8-3.2.9-6 2.8-8.1 5.5-1.9 2.5-3 5.7-3 9.1z"></path>
  </g>
  <path class="st9" d="M278.3 251.1c-9.4 0-17-7.6-17-17s7.6-17 17-17 17 7.6 17 17c-.1 9.4-7.7 17-17 17zm0-30.5c-2.7 0-5.3.8-7.5 2.3-2.2 1.5-4 3.6-5 6.1-1 2.5-1.3 5.2-.8 7.8.5 2.6 1.8 5 3.7 6.9 1.9 1.9 4.3 3.2 6.9 3.7 2.6.5 5.4.3 7.8-.8 2.5-1 4.6-2.8 6.1-5s2.3-4.9 2.3-7.5c0-3.6-1.4-7-4-9.6-2.5-2.5-5.9-3.9-9.5-3.9z"></path>
  <path class="st9" d="M278.3 242.9c-1.7 0-3.4-.5-4.9-1.5-1.4-1-2.6-2.3-3.2-3.9-.7-1.6-.8-3.4-.5-5 .3-1.7 1.2-3.3 2.4-4.5 1.2-1.2 2.8-2.1 4.5-2.4 1.7-.3 3.4-.2 5 .5s3 1.8 3.9 3.2c1 1.4 1.5 3.1 1.5 4.9 0 2.3-.9 4.5-2.6 6.2-1.6 1.6-3.8 2.5-6.1 2.5zm0-14.6c-1.2 0-2.3.3-3.3 1-1 .6-1.7 1.6-2.2 2.6-.4 1.1-.6 2.3-.3 3.4s.8 2.2 1.6 3c.8.8 1.9 1.4 3 1.6 1.1.2 2.3.1 3.4-.3s2-1.2 2.6-2.2c.6-1 1-2.1 1-3.3 0-1.6-.6-3.1-1.7-4.2-1.1-1-2.6-1.6-4.1-1.6z"></path>
  <path class="st19" d="M298.8 224.5c-7.6 6.6-16.7 11.2-26.5 13.2-2.1.4-4.2.7-6.3 1-1 .1-2.1.2-3.1.2-9 .4-17.9-1.2-26.2-4.7-1-.4-2.1-.9-3.1-1.4-18.6-9.2-32-27.9-33.3-49.9-1.9-32.5 23-60 55.6-61.5 6.1-.3 12.3.4 18.2 2 .7.2 1.4.4 2 .6 1.8.5 3.6 1.2 5.3 1.9 7.9 3.3 15.1 8.2 20.9 14.4l2.7 3c1.3 1.6 2.5 3.2 3.6 4.9 5.8 8.7 9.2 18.8 9.8 29.3 1.2 18.6-6.6 35.6-19.6 47z"></path>
  <path class="st9" d="M260.2 239.1c-8.1 0-16.1-1.6-23.5-4.8-1-.4-2.1-.9-3.1-1.4-19.3-9.6-32.1-28.8-33.3-50.1-.9-15.7 4.3-30.7 14.8-42.3 10.5-11.7 25.1-18.6 41-19.3 6.1-.3 12.3.4 18.2 2 .6.2 1.3.4 2 .6 1.8.5 3.6 1.2 5.3 1.9 7.9 3.3 15.1 8.2 21 14.5.9 1 1.8 2 2.7 3.1 1.3 1.6 2.5 3.2 3.6 4.9 5.8 8.7 9.2 18.9 9.8 29.4 1.1 18.1-6.1 35.3-19.7 47.2-7.6 6.6-16.7 11.2-26.6 13.2-2.1.4-4.2.8-6.3 1-1 .1-2 .2-3.2.2-.9-.1-1.8-.1-2.7-.1zm-1.5-117.7c-.9 0-1.8 0-2.7.1-15.8.7-30.3 7.5-40.8 19.2-10.4 11.6-15.6 26.5-14.7 42.1 1.2 21.2 14 40.3 33.2 49.8 1 .5 2.1 1 3.1 1.4 8.3 3.5 17.2 5.1 26.1 4.7 1.2-.1 2.2-.1 3.1-.2 2.1-.2 4.2-.5 6.3-1 9.8-2 18.9-6.6 26.4-13.2 13.5-11.9 20.7-29 19.6-47-.6-10.4-4-20.5-9.8-29.2-1.1-1.7-2.3-3.3-3.6-4.9-.8-1-1.7-2-2.7-3-5.9-6.2-13-11.1-20.9-14.4-1.7-.7-3.5-1.3-5.3-1.9-.7-.2-1.4-.4-2-.6-4.9-1.2-10.1-1.9-15.3-1.9z"></path>
  <g class="st15">
    <path class="st17" d="M200.3 182.8c1.3 22 14.6 40.7 33.3 49.9 1 .5 2.1 1 3.1 1.4 8.3 3.5 17.2 5.1 26.2 4.7 1.1-.1 2.1-.1 3.1-.2 2.1-.2 4.2-.5 6.3-1 7.5-1.6 14.7-4.6 21.1-9 6.4-4.4 11.8-9.9 16-16.4-7.4 6.1-16.1 10.4-25.5 12.3-2.1.4-4.2.8-6.3 1-1 .1-2.1.2-3.1.2-9 .4-17.9-1.2-26.2-4.7-1.1-.5-2.1-.9-3.1-1.4-18.6-9.2-32-27.9-33.3-49.9-.8-12.9 2.7-24.9 9.2-34.9-13.7 11.4-21.9 28.8-20.8 48z"></path>
  </g>
  <path class="st9" d="M260.2 240.5c-8.3 0-16.5-1.7-24.1-4.9-1.1-.5-2.1-1-3.2-1.5-19.8-9.8-32.8-29.4-34.1-51.2-.9-16.1 4.4-31.5 15.1-43.4 10.8-12 25.7-19 42-19.8 6.3-.3 12.6.4 18.7 2 .7.2 1.3.4 2.1.6 1.8.6 3.7 1.2 5.4 1.9 8.1 3.4 15.4 8.4 21.5 14.8 1 1 1.9 2.1 2.8 3.1 1.3 1.6 2.6 3.3 3.7 5 6 8.9 9.4 19.3 10.1 30 1.1 18.5-6.3 36.2-20.2 48.4-7.8 6.8-17.1 11.4-27.2 13.5-2.1.4-4.3.8-6.4 1-1 .1-2 .2-3.2.2-1.2.3-2.1.3-3 .3zm-1.5-117.7c-.9 0-1.8 0-2.7.1-15.4.7-29.6 7.4-39.8 18.7-10.2 11.3-15.2 25.9-14.3 41.1 1.2 20.7 13.6 39.3 32.4 48.6 1 .5 2 1 3 1.4 8.1 3.4 16.8 5 25.5 4.6 1.1-.1 2.1-.1 3.1-.2 2.1-.2 4.1-.5 6.1-.9 9.6-2 18.5-6.4 25.8-12.8 13.2-11.6 20.2-28.3 19.1-45.8-.6-10.2-3.9-20-9.6-28.5-1.1-1.7-2.3-3.2-3.5-4.8-.8-1-1.7-2-2.6-3-5.7-6.1-12.7-10.9-20.4-14-1.7-.7-3.4-1.3-5.1-1.8-.7-.2-1.3-.4-2-.6-4.9-1.4-9.9-2.1-15-2.1z"></path>
  <path class="st9" d="M286.3 232.9c-40.8 10.5-79.4-22-67.6-61.8 8-27.1 41-39.8 66.8-30.2 18.8 7 34.1 22 31.4 53.8 0 0-3.4 13.9-10.2 21.4-6.9 7.5-14.8 13.7-14.8 13.7l-5.6 3.1z"></path>
  <path class="st29" d="M218.7 171c-11.8 39.8 26.8 72.3 67.6 61.8l1.1-.6c-38.2-6.9-66.3-41.5-55.1-81.9-6.2 5.4-11.1 12.4-13.6 20.7z"></path>
  <path class="st9" d="M260.2 240.3c-2.3 0-4.6-.1-6.9-.4h-.2c-16.2-4.5-29.9-14.9-37.5-28.6-7.2-12.9-8.6-27.6-4.2-42.5 4.1-13.7 13.9-25 27.7-31.9 15.3-7.6 33.7-8.7 49.2-2.9 8.6 3.2 15.8 7.6 21.3 13.1l.1.1.1.1c5.9 8.9 9.4 19.3 10 30 1.1 18.5-6.2 36.1-20.1 48.2-7.7 6.8-17.1 11.4-27.1 13.5-2.1.4-4.3.8-6.4 1-1 .1-2 .2-3.2.2-1 .1-1.9.1-2.8.1zm-6.5-3.1c3 .3 6.1.4 9.1.3 1.1-.1 2.1-.1 3.1-.2 2.1-.2 4.1-.5 6.1-.9 9.6-2 18.5-6.4 25.9-12.9 13.2-11.6 20.3-28.4 19.2-46-.6-10.2-3.9-20-9.5-28.5-5.3-5.2-12.1-9.3-20.3-12.4-14.8-5.5-32.3-4.5-47 2.8-13.1 6.5-22.4 17.3-26.3 30.2-4.2 14.2-2.8 28.1 4 40.3 7.3 13.1 20.3 23 35.7 27.3z"></path>
  <path class="st9" d="M270.8 236.4c-16 0-31.2-6.1-42-17.3-12.6-13.1-16.8-30.8-11.5-48.5 3.6-12.2 12.4-22.4 24.8-28.5 13.7-6.8 30.2-7.8 44-2.6 23.8 8.9 34.7 27.6 32.4 55.4v.2c-.1.6-3.5 14.3-10.6 22.1-6.9 7.5-14.7 13.6-15 13.8l-.2.1-5.7 3.2-.2.1c-5.3 1.3-10.7 2-16 2zm-3.4-97.2c-8.2 0-16.5 1.9-24 5.6-11.6 5.8-19.8 15.2-23.2 26.7-4.9 16.7-1 33.2 10.8 45.5 13.5 14.1 34.5 19.6 54.7 14.5l5.3-3c.9-.7 8.2-6.5 14.6-13.4 6.2-6.8 9.5-19.3 9.8-20.6 2.1-26.2-8.1-43.7-30.5-52.1-5.4-2.2-11.4-3.2-17.5-3.2z"></path>
  <path class="st19" d="M194.9 159.5c-4.6 10.6-2.1 22.3 5.5 26.1 7.7 3.8 17.6-1.7 22.2-12.3 0-.1.1-.1.1-.2 4.5-10.5 2-22.1-5.6-25.9-5.9-2.9-13.2-.3-18.3 5.9-1.6 1.9-2.9 4.1-3.9 6.4z"></path>
  <path class="st9" d="M205.6 187c-1.8 0-3.7-.4-5.3-1.2-7.8-3.9-10.3-15.7-5.6-26.5 1-2.3 2.3-4.5 3.9-6.5 5.3-6.5 12.8-8.9 18.7-6 7.7 3.8 10.3 15.6 5.7 26.3 0 .1-.1.1-.1.2-2.7 6.1-7.3 10.9-12.5 12.8-1.5.6-3.2.9-4.8.9zm-10.4-27.4c-4.5 10.4-2.1 22 5.4 25.7 2.9 1.4 6.2 1.6 9.6.3 5-1.8 9.6-6.5 12.2-12.5 0-.1.1-.1.1-.2 4.4-10.4 2-21.8-5.5-25.5-5.6-2.8-12.8-.4-18 5.8-1.5 2-2.8 4.1-3.8 6.4z"></path>
  <g class="st15">
    <path class="st17" d="M194.9 159.5c-4.6 10.6-2.1 22.3 5.5 26.1 7.7 3.8 17.6-1.7 22.2-12.3 0-.1.1-.1.1-.2-1.3.7-3.1 1.1-4.7-.2-2.8-2.2-5.4-11.8-5.4-11.8s-5.9-3.5-13.8-8c-1.6 1.9-2.9 4.1-3.9 6.4z"></path>
  </g>
  <path class="st9" d="M205.6 188.3c-2 0-4-.5-5.9-1.4-8.4-4.2-11.2-16.8-6.2-28.1 2.8-6.5 7.7-11.5 13.2-13.5 3.9-1.4 7.7-1.3 11.1.4 8.4 4.2 11.2 16.8 6.2 28.1-2.8 6.5-7.7 11.5-13.2 13.5-1.7.7-3.4 1-5.2 1zm-9.3-28.2c-4.3 9.8-2.1 20.6 4.8 24.1 2.6 1.3 5.6 1.4 8.6.3 4.7-1.7 9-6.1 11.5-11.8 4.3-9.8 2.1-20.6-4.8-24.1-2.6-1.3-5.6-1.4-8.6-.3-4.7 1.7-9 6.1-11.5 11.8z"></path>
  <path class="st19" d="M215.5 169.8c2.8-8.7-.2-17.6-6.8-19.7-6.6-2.2-14.3 3.2-17.1 11.9-2.8 8.7.2 17.6 6.8 19.7 6.6 2.2 14.2-3.1 17.1-11.9z"></path>
  <path class="st9" d="M201.4 182.4c-2.7 0-5.2-1.1-7.1-3.1-2.9-2.9-4.2-7.5-3.8-12.6.8-9.1 7.4-16.8 14.6-17.3 3-.2 5.7.9 7.8 3.1 2.9 2.9 4.2 7.5 3.8 12.6-.8 9.1-7.4 16.8-14.6 17.3h-.7zm4.3-32.6h-.7c-7.1.5-13.5 8.1-14.3 17-.5 5 .9 9.4 3.7 12.3 2.1 2.1 4.7 3.1 7.6 3 7.1-.5 13.5-8.1 14.3-17 .5-5-.9-9.4-3.7-12.3-1.9-2-4.3-3-6.9-3z"></path>
  <g class="st15">
    <path class="st17" d="M211.6 177.2c1.9-2.5 3.2-5.5 3.7-8.6-4.9 5.3-11.8 5.3-15.8-.2-2.6-3.6-3.5-8.6-2.6-13.4-.3.3-.6.7-.9 1.1-4.9 6.3-5.4 16.2-1.1 22.1 4.3 5.7 11.8 5.3 16.7-1z"></path>
  </g>
  <path class="st9" d="M200.6 183.5c-1.5 0-3-.3-4.3-1-6.4-3.2-8.3-13.4-4.3-22.7 2.4-5.5 6.5-9.8 10.9-11.4 2.9-1 5.7-.9 8.2.3 6.4 3.2 8.3 13.4 4.3 22.7-2.4 5.5-6.5 9.8-10.9 11.4-1.3.4-2.6.6-3.9.7zm-6.1-22.7c-3.4 8-2.1 16.6 3 19.2 1.8.9 3.8 1 6 .2 3.8-1.4 7.2-5.1 9.3-9.9 3.4-8 2.1-16.6-3-19.2-1.8-.9-3.8-1-6-.2-3.8 1.4-7.2 5.1-9.3 9.9z"></path>
  <g class="st30">
    <path class="st31" d="M267.6 147.3s23.8 10.7 32.1 29.6v.1c1.7 4 2.4 8.3 1.9 12.6-.7 5.7-2 9.5-3.2 12.8-3.9 10-7.6 14-7.6 14 7.8-3 13.4-7.8 16.7-16.1.3-.8.6-1.7.9-2.6.1-.2.1-.4.2-.6.6-2.3 1-4.7 1.3-7.1 1-8.5.5-20.3-7.5-28.8-15-15.9-35.2-15.2-34.8-13.9z"></path>
    <path class="st32" d="M289.6 217l.9-.9s3.7-4 7.5-13.9c1.2-3.1 2.5-6.9 3.2-12.7.5-4.2-.1-8.6-1.8-12.5v-.1c-8.1-18.6-31.7-29.3-31.9-29.4l-.1-.1v-.1c0-.1-.1-.4.3-.6 2.4-1.4 21-.7 34.9 14.1 8 8.6 8.6 20.5 7.6 29-.3 2.4-.7 4.7-1.3 7v.1l-.1.1c-.1.2-.1.4-.2.6-.3.9-.6 1.8-.9 2.6-3.2 7.9-8.4 12.9-16.9 16.2l-1.2.6zm-21.5-69.7c3.1 1.5 24.2 12.1 31.8 29.5v.1c1.8 4 2.4 8.4 1.9 12.8-.7 5.8-2.1 9.7-3.3 12.8-2.9 7.4-5.6 11.5-6.9 13.2 7.7-3.2 12.5-8 15.5-15.5.3-.8.6-1.7.9-2.5.1-.2.1-.4.2-.6.6-2.3 1-4.7 1.3-7.1 1-8.4.5-20.1-7.4-28.5-10.8-11.5-24.9-14.5-31.5-14.4-1.4-.1-2.1 0-2.5.2z"></path>
  </g>
  <g class="st30">
    <path class="st31" d="M246.9 168.7c3-4 2.6-9.4-.8-12-3.5-2.6-8.8-1.5-11.8 2.6-3 4-2.6 9.4.8 12 3.5 2.6 8.8 1.4 11.8-2.6z"></path>
    <path class="st32" d="M239.4 172.9c-1.6 0-3.1-.5-4.4-1.4-1.6-1.2-2.6-3-3-5-.4-2.5.3-5.2 1.9-7.4 3.1-4.2 8.5-5.4 12.2-2.7 1.6 1.2 2.6 3 3 5 .4 2.5-.3 5.2-1.9 7.4-2 2.7-4.9 4.1-7.8 4.1zm2.4-17.4c-2.6 0-5.4 1.4-7.3 3.9-1.5 2.1-2.2 4.6-1.8 7 .3 1.9 1.3 3.6 2.7 4.7 3.4 2.5 8.5 1.3 11.4-2.6 1.5-2.1 2.2-4.6 1.8-7-.3-1.9-1.3-3.6-2.7-4.7-1.2-.8-2.7-1.3-4.1-1.3z"></path>
  </g>
  <g class="st30">
    <path class="st31" d="M233.1 179.5c1.4-1.5 1.4-3.8.1-5-1.3-1.2-3.6-1-5 .6-1.4 1.5-1.4 3.8-.1 5 1.4 1.2 3.6.9 5-.6z"></path>
    <path class="st32" d="M230.2 181.1c-.8 0-1.7-.3-2.3-.9-.6-.6-1-1.4-1-2.2-.1-1.1.3-2.2 1.1-3.1 1.5-1.7 3.9-2 5.4-.7.3.3.6.6.8 1 .2.4.3.8.3 1.3.1 1.1-.3 2.2-1.1 3.1-.8 1-2 1.5-3.2 1.5zm1-7.1c-1 0-2 .5-2.7 1.3-.7.7-1 1.7-1 2.7 0 .4.1.7.3 1l.6.9c1.2 1.1 3.3.8 4.6-.7.7-.7 1-1.7 1-2.7 0-.7-.3-1.4-.8-1.8-.6-.5-1.3-.7-2-.7z"></path>
  </g>
  <g class="st33">
    <path class="st34" d="M291.1 177.4c0 2.7 0 3.5-3 3.5 3.1 0 3 .7 3 3.6 0-2.9 0-3.6 3-3.6-3 0-3-.8-3-3.5zM258.6 191.5c0 2.7 0 3.5-3 3.5 3.1 0 3 .7 3 3.6 0-2.9 0-3.6 3-3.6-3 0-3-.8-3-3.5zM263.4 158.1c0 .2-.1.4-.2.5-.1.2-.2.3-.4.3-.2.1-.4.1-.5.1-.2 0-.3-.1-.5-.3-.1-.1-.2-.3-.3-.5 0-.2 0-.4.1-.5.1-.2.2-.3.3-.4.2-.1.3-.2.5-.2s.5.1.7.3c.2.2.3.5.3.7zM252.9 177.3c.5 0 .9-.4.9-.9s-.4-.9-.9-.9-.9.4-.9.9.5.9.9.9zM278.5 166.7c0 .2-.1.4-.2.6-.1.2-.3.3-.5.4-.2.1-.4.1-.6.1-.2 0-.4-.1-.5-.3-.1-.1-.3-.3-.3-.5s0-.4.1-.6c.1-.2.2-.4.4-.5s.4-.2.6-.2c.3 0 .6.1.8.3.1.1.2.4.2.7zM271.1 185.8c.4 0 .7-.3.7-.7 0-.4-.3-.7-.7-.7-.4 0-.7.3-.7.7 0 .3.3.7.7.7zM279.8 201.2c.6 0 1.2-.5 1.2-1.2 0-.6-.5-1.2-1.2-1.2-.6 0-1.2.5-1.2 1.2.1.7.6 1.2 1.2 1.2zM246 204c0 .1 0 .3-.1.4l-.3.3c-.1.1-.3.1-.4 0-.1 0-.3-.1-.4-.2-.1-.1-.2-.2-.2-.4v-.4c0-.1.1-.2.3-.3.1-.1.2-.1.4-.1.1 0 .2 0 .3.1.1 0 .2.1.2.1.1.1.1.1.1.2s.1.2.1.3zM295 208.2c.4-.4.4-1 0-1.3-.4-.4-1-.4-1.3 0-.4.4-.4 1 0 1.3.3.3.9.3 1.3 0zM307.6 216.2c0 .2-.1.4-.2.6-.1.2-.3.3-.5.4-.2.1-.4.1-.6.1-.2 0-.4-.1-.5-.3-.1-.1-.2-.3-.3-.5 0-.2 0-.4.1-.6.1-.2.2-.4.4-.5.2-.1.4-.2.6-.2.1 0 .3 0 .4.1.1.1.2.1.3.2.1.1.2.2.2.3.1.1.1.3.1.4zM270.1 219.8c.5 0 .9-.4.9-.9s-.4-.9-.9-.9-.9.4-.9.9.4.9.9.9zM310.9 202.4c0 .1 0 .2-.1.2 0 .1-.1.1-.2.1h-.2c-.1 0-.1-.1-.2-.1-.1-.1-.1-.1-.1-.2v-.2c0-.1.1-.1.1-.2.1 0 .1-.1.2-.1s.2 0 .3.1c.2.2.2.3.2.4zM252 212.6c.1-.5-.3-1-.7-1-.5-.1-1 .3-1 .7-.1.5.3 1 .7 1 .4.1.9-.2 1-.7z"></path>
  </g>
  <path class="st35" d="M211 223.1c0 4.4 1.7 8.7 4.8 11.9 3.1 3.2 7.2 5.1 11.7 5.3 4.4.2 8.8-1.3 12.1-4.3 3.3-2.9 5.4-7 5.8-11.5.4-4.4-1-8.8-3.8-12.3s-6.8-5.7-11.2-6.2c-4.4-.6-8.8.6-12.4 3.3-3.6 2.6-6 6.6-6.7 10.9-.3 1-.3 1.9-.3 2.9z"></path>
  <g class="st26">
    <path class="st27" d="M215.1 211.9c3.4-2.4 7.6-3.5 11.8-3 4.2.5 8 2.4 10.8 5.5 2.8 3.1 4.4 7.1 4.4 11.3.1 4.2-1.4 8.2-4.2 11.4 2-1.4 3.7-3.2 4.9-5.3 1.2-2.1 2-4.4 2.3-6.8.3-2.4 0-4.9-.7-7.2s-2-4.4-3.6-6.2c-1.6-1.8-3.6-3.2-5.9-4.2-2.2-1-4.6-1.5-7.1-1.4-2.4 0-4.8.6-7 1.6-2.1.9-4.1 2.4-5.7 4.3z"></path>
  </g>
  <path class="st9" d="M228.1 241.9c-10.4 0-18.9-8.5-18.9-18.9 0-10.4 8.5-18.9 18.9-18.9 10.4 0 18.9 8.5 18.9 18.9 0 10.5-8.5 18.9-18.9 18.9zm0-34.3c-8.5 0-15.4 6.9-15.4 15.4s6.9 15.5 15.4 15.5 15.4-6.9 15.4-15.5c.1-8.5-6.9-15.4-15.4-15.4z"></path>
  <path class="st36" d="M227.6 231.5c4.7 0 8.4-3.8 8.4-8.4 0-4.7-3.8-8.4-8.4-8.4-4.7 0-8.4 3.8-8.4 8.4-.1 4.6 3.7 8.4 8.4 8.4z"></path>
  <path class="st9" d="M227.6 232.6c-1.9 0-3.7-.6-5.3-1.6-1.6-1-2.8-2.5-3.5-4.3-.7-1.7-.9-3.7-.5-5.5.4-1.8 1.3-3.5 2.6-4.9 1.3-1.3 3-2.2 4.9-2.6s3.8-.2 5.5.5 3.2 1.9 4.3 3.5c1 1.6 1.6 3.4 1.6 5.3 0 2.5-1 4.9-2.8 6.7-1.9 1.9-4.3 2.9-6.8 2.9zm0-16.9c-1.5 0-2.9.4-4.1 1.2s-2.2 2-2.7 3.3c-.6 1.3-.7 2.8-.4 4.3.3 1.4 1 2.7 2 3.8 1 1 2.3 1.7 3.8 2 1.4.3 2.9.1 4.3-.4 1.3-.6 2.5-1.5 3.3-2.7.8-1.2 1.2-2.6 1.2-4.1 0-2-.8-3.8-2.2-5.2-1.4-1.4-3.3-2.2-5.2-2.2z"></path>
  <path class="st35" d="M203.4 196.1c5.2 8.2 14.2 15.6 24.9 22.6 1.4.9 2.2 2.5 1.9 4.1-.5 3.1-4.2 4.1-10 1.7-20.2-9.6-30.4-27.7-21.6-30.3 1.8-.4 3.8.4 4.8 1.9z"></path>
  <g class="st26">
    <path class="st27" d="M195.9 196.5c1.8-.5 3.8.2 4.8 1.8 5.2 8.2 14.2 15.6 24.9 22.6 1.4.9 2.2 2.5 2 4.1 0 .3-.1.5-.2.7 1.6-.4 2.6-1.4 2.9-2.9.2-1.6-.6-3.2-1.9-4.1-10.7-7.1-19.7-14.5-24.9-22.6-1-1.6-3-2.4-4.8-1.8-1.4.4-2.3 1.2-2.8 2.2z"></path>
  </g>
  <path class="st9" d="M225.9 227.6c-1.8 0-4-.5-6.3-1.5h-.1c-16.1-7.7-26.3-20.7-25.8-28.1.2-2.7 1.8-4.6 4.4-5.4 2.5-.8 5.3.3 6.7 2.6 4.5 7 12.3 14.1 24.4 22.1 2 1.3 3 3.6 2.7 5.8-.2 1.6-1.1 2.9-2.5 3.7-1 .5-2.2.8-3.5.8zm-5-4.6c3 1.2 5.5 1.5 6.8.8.5-.3.7-.6.8-1.2.1-.9-.3-1.8-1.2-2.4-12.5-8.3-20.6-15.7-25.4-23.1-.6-1-1.8-1.4-2.8-1.1-1.2.4-1.8 1.1-1.9 2.4-.5 5.3 8.4 17.3 23.7 24.6z"></path>
  <g class="st15">
    <path class="st17" d="M211 223.1c0 3.9 1.3 7.7 3.8 10.8s5.9 5.2 9.7 6c3.8.8 7.8.3 11.3-1.4 3.5-1.7 6.3-4.6 7.9-8.2-2.9 3.4-7 5.5-11.4 5.9-4.4.4-8.9-.9-12.3-3.7 6-.6 8.8-7.2 8.8-7.2-5.3 2.6-10.8.1-14.9-2.8-1-.7-1.9-1.4-2.7-2.1-.2.8-.2 1.7-.2 2.7z"></path>
  </g>
  <path class="st9" d="M245.1 301.2c-.5 0-1.1 0-1.6-.1-3.2-.5-5.5-2.7-6.4-6.1-3.8-1.7-7.7-4.7-11.8-9.1-.1-.2-.3-.3-.3-.5-.1-.2-.1-.4-.1-.6 0-.2.1-.4.1-.6.1-.2.2-.4.4-.5.2-.1.3-.3.5-.3.2-.1.4-.1.6-.1.2 0 .4.1.6.1.2.1.4.2.5.4 4.1 4.4 7.9 7.2 11.5 8.7.3.1.5.3.7.5.2.2.3.5.3.8.4 2.5 1.7 3.9 3.8 4.3 3.5.6 8.1-1.9 10.1-5.4 1.2-2.2 1.9-5.6-1.8-9.7-.2-.2-.3-.4-.4-.7-.1-.3-.1-.5 0-.8.1-.3.2-.5.4-.7.2-.2.4-.4.6-.5.9-.4 1.5-1 1.4-1.7-.2-1.3-2.1-2.7-6-3-.3 0-.5-.1-.7-.2-.1-.1-.4-.3-9.8-7.1-2.5-1.8-4.4-4.2-5.7-7-3.3-7.2-5.4-13.8-6.5-20.3-.1-.4 0-.9.3-1.2.3-.3.6-.6 1.1-.7.4-.1.9 0 1.2.3.4.2.6.6.7 1 1.1 6.2 3.1 12.6 6.2 19.5 1 2.3 2.6 4.2 4.6 5.7 4.9 3.6 8.3 6.1 9.3 6.8 5.8.6 8.2 3.4 8.6 5.8.2 1.6-.4 3.1-1.6 4.1 2.7 3.8 3.1 8.1 1 11.9-2.2 4-7.2 7-11.8 7z"></path>
  <path class="st9" d="M222.1 279.7c-.4 0-.7-.1-1-.4-.3-.3-.4-.6-.4-1 0-6.6 5.8-15.1 14.1-16.7.4-.1.7 0 1 .2.3.2.5.5.6.9.1.4 0 .7-.2 1-.2.3-.5.5-.8.6-7.4 1.4-11.9 9.1-11.9 14 0 .2 0 .4-.1.5-.1.2-.2.3-.3.4-.1.1-.3.2-.4.3-.2.2-.4.2-.6.2zM310.7 319.1h-51.1c-1 0-1.9-.2-2.7-.7-.8-.5-1.6-1.1-2.1-1.9-.5-.8-.8-1.7-.9-2.7-.1-1 .1-1.9.5-2.8l14.7-33.9c1.2-2.7 3.2-5 5.7-6.5s5.4-2.3 8.4-2.1l47.7 2.8c1.1.1 2.3.4 3.2 1 1 .6 1.8 1.4 2.4 2.4.6 1 .9 2.1 1 3.3.1 1.1-.2 2.3-.7 3.3l-14.4 30.4c-1 2.2-2.7 4-4.7 5.3-2.2 1.4-4.6 2.1-7 2.1zm-28.5-47.4c-2.2 0-4.3.6-6.1 1.8-1.8 1.2-3.2 2.9-4.1 4.9l-14.7 33.9c-.2.4-.2.8-.2 1.2 0 .4.2.8.4 1.2.2.3.5.6.9.8.4.2.8.3 1.2.3h51.1c1.8 0 3.6-.5 5.1-1.5 1.5-1 2.7-2.3 3.5-4l14.4-30.4c.3-.6.4-1.2.4-1.8 0-.6-.2-1.2-.5-1.7s-.7-1-1.3-1.3c-.5-.3-1.1-.5-1.7-.5l-47.7-2.8c-.3-.1-.5-.1-.7-.1z"></path>
  <g class="st15">
    <path class="st17" d="M259.6 317.5h51.1c2.7 0 5.2-1 7.3-2.7-25.5-1.5-38.5-17-43.9-41l-.7-.1c-1.2 1.2-2.2 2.5-2.8 4.1l-14.7 33.9c-.3.6-.4 1.3-.3 2 .1.7.3 1.3.7 1.9s.9 1 1.5 1.4c.5.3 1.1.5 1.8.5z"></path>
  </g>
  <path class="st9" d="M210.1 278.9c-.8-1.5-1.9-2.9-3.2-4.1-1.3-1.2-2.8-2.1-4.5-2.6-1.7-.5-3.5-.6-5.2-.4-1.8.3-3.6.8-5.3 1.6-.1.1-.3.1-.4 0-.1 0-.2-.1-.3-.3-.1-.1-.1-.3 0-.4 0-.1.1-.2.2-.3 1.7-1 3.5-1.8 5.5-2.3 2-.5 4.1-.5 6.1-.1s4 1.4 5.6 2.6c1.7 1.2 3.1 2.8 4.3 4.5.2.4.3.8.2 1.2-.1.4-.3.8-.7 1-.4.2-.8.3-1.2.3-.4-.1-.8-.3-1-.7 0 .1 0 .1-.1 0z"></path>
  <path class="st9" d="M206.7 318.6c-.3 0-.5-.1-.8-.2-3.3-1.8-6.1-4.2-8.6-7.4-9.3-1.4-15.5-6.6-18.2-15.6-1-3.2-1.4-6.6-1.3-10.1.7-22.9 8.7-54.7 28.9-69.2l.6-.3c.2 0 .4-.1.6 0 .2 0 .4.1.6.2.2.1.3.3.5.4l.3.6c0 .2.1.4 0 .6 0 .2-.1.4-.2.6-.1.2-.3.3-.4.5-19.3 13.8-26.9 44.5-27.5 66.6-.1 3.2.3 6.2 1.2 9.1 2.5 7.9 7.8 12.3 16.2 13.4.2 0 .4.1.6.2.2.1.4.3.5.4 2.3 3 4.9 5.3 7.9 7 .3.2.6.5.7.8.1.3.2.7.1 1.1-.1.4-.3.7-.6.9-.4.3-.7.4-1.1.4z"></path>
  <path class="st37" d="M181.9 257.3c6.7 5.8 16.1 8.9 26.6 10.7l-5.5-14.1-1.8-.6c-4.7-1.8-9.1-4.1-13.2-6.9-.3-.2-.7-.4-1.1-.4-.4-.1-.8 0-1.2.1-.4.1-.8.3-1.1.6-.3.3-.5.6-.7 1l-2.7 6.6c-.2.5-.3 1.1-.1 1.7.1.4.4.9.8 1.3z"></path>
  <path class="st9" d="M197.2 310.8c-1.4-2.1-2.4-4.5-2.9-7.1-.4-2.5-.4-4.9-.2-7.3 0-.1.1-.3.2-.4.1-.1.2-.1.4-.1.1 0 .3.1.4.2.1.1.2.2.2.4.1 2.3.5 4.6 1.2 6.7.7 2.1 1.8 4 3.3 5.6.2.2.3.3.4.5.1.2.1.4.1.6 0 .2-.1.4-.1.6-.1.2-.2.4-.4.5-.2.1-.3.3-.6.3-.2.1-.4.1-.6.1-.2 0-.4-.1-.6-.2-.2-.1-.4-.2-.5-.4-.2.1-.3.1-.3 0z"></path>
  <path class="st9" d="M195.5 307.2c-.2-13.7 8-20.3 8.4-20.6l1.7 2.2-.8-1.1.9 1.1c-.3.2-7.5 6.1-7.3 18.4h-2.9zM202.2 239.8c-.1 3.3.2 6.6.8 9.9.6 3.3 1.5 6.4 2.8 9.5l.5 1.1c.2.4.3.8.5 1.1.4.7.7 1.5 1.1 2.2.8 1.4 1.6 2.9 2.5 4.2 1.8 2.8 4 5.2 6.2 7.5l.1.1c.3.3.5.7.5 1.2 0 .4-.2.9-.5 1.2-.3.3-.7.5-1.2.5-.4 0-.9-.2-1.2-.5l-.1-.1c-2.3-2.6-4.5-5.3-6.2-8.3-.9-1.5-1.6-3-2.4-4.6-.4-.8-.7-1.6-1-2.4-.2-.4-.3-.8-.5-1.2l-.4-1.2c-1.1-3.2-1.9-6.6-2.3-10-.4-3.4-.6-6.8-.3-10.2 0-.1.1-.3.2-.4.1-.1.2-.1.4-.1.1 0 .3.1.4.2 0 0 .1.1.1.3z"></path>
  <path class="st19" d="M202.8 296c-1.6 12.7 2.7 23.8 9.6 24.6 6.9.9 13.8-8.8 15.4-21.5s-3-21.6-9.9-22.5c-6.9-.9-13.5 6.6-15.1 19.4z"></path>
  <g class="st15">
    <path class="st17" d="M212.4 320.6c5.2.6 10.3-4.6 13.2-12.5-2 1.5-4.1 2.2-6.2 1.9-6.9-.9-11.2-11.9-9.6-24.6.3-2.4.8-4.7 1.5-7-4.2 2.9-7.5 9.1-8.6 17.6-1.5 12.7 2.8 23.7 9.7 24.6z"></path>
  </g>
  <path class="st9" d="M213.3 322.3c-.4 0-.7 0-1.1-.1-4-.5-7.3-3.7-9.3-8.9-1.9-4.9-2.5-11.1-1.7-17.6.8-6.4 2.9-11.8 5.9-15.6 3.1-3.8 7-5.7 11-5.2 8.2 1 12.9 11.3 11.3 24.3-1.6 13.3-8.6 23.1-16.1 23.1zm3.5-44.1c-2.5 0-5.1 1.4-7.2 4-2.6 3.3-4.5 8.2-5.2 13.9-.7 5.9-.2 11.6 1.5 16 1.6 4.1 4 6.5 6.7 6.8 5.9.7 12.1-8.4 13.6-20.1 1.4-11.2-2.2-19.9-8.4-20.7-.4.1-.7.1-1 .1z"></path>
  <path class="st9" d="M227.2 288.2h-.1l-20.8-2.2c-.4 0-.7-.2-.9-.5-.2-.3-.3-.6-.3-1s.2-.7.5-.9.6-.3 1-.3l20.8 2.2c.3 0 .7.2.9.5.2.3.3.6.3 1s-.2.7-.4.9c-.3.2-.6.3-1 .3zM226.9 297.8h-.1l-23-2.4c-.4 0-.7-.2-.9-.5-.2-.3-.3-.6-.3-1s.2-.7.5-.9c.3-.2.6-.3 1-.3l23 2.4c.4 0 .7.2.9.5s.3.6.3 1-.2.7-.4.9-.7.3-1 .3zM222.3 315.9h-.1L204 314c-.2 0-.4-.1-.5-.2-.2-.1-.3-.2-.4-.3-.1-.1-.2-.3-.3-.5-.1-.2-.1-.4 0-.5 0-.2.1-.4.2-.5.1-.2.2-.3.3-.4.1-.1.3-.2.5-.2.2-.1.4-.1.5 0l18.2 1.9c.4 0 .7.2.9.5.2.3.3.6.3 1s-.2.7-.4.9c-.3.1-.6.2-1 .2zM225.9 307.3h-.1l-23-2.4c-.2 0-.4-.1-.5-.2-.2-.1-.3-.2-.4-.3-.1-.1-.2-.3-.3-.5-.1-.2-.1-.4-.1-.5 0-.2.1-.4.2-.5.1-.2.2-.3.3-.4.1-.1.3-.2.5-.2.2-.1.4-.1.5 0l23 2.4c.3 0 .7.2.9.5.2.3.3.6.3 1s-.2.7-.4.9-.6.2-.9.2zM257.8 318.4h-.3c-2.3-.5-4.3-1.7-5.9-3.3l-22.9-23.5c-.3-.3-.4-.6-.4-1s.2-.7.4-1 .6-.4 1-.4.7.2 1 .4l22.9 23.5c1.2 1.3 2.8 2.2 4.6 2.6.3.1.6.3.8.5.2.3.3.6.2.9 0 .3-.2.6-.4.9-.3.3-.7.4-1 .4z"></path>
  <path class="st9" d="M252.2 322.6c-.2 0-.4-.1-.6-.2-.2-.1-.4-.3-.5-.4-.1-.2-.2-.4-.2-.6 0-.2 0-.4.1-.7l1.9-4.9c.1-.3.4-.6.7-.7.3-.1.7-.1 1 0 .3.1.6.4.7.7.1.3.2.7 0 1l-1.9 4.9c-.1.3-.3.5-.5.6s-.4.3-.7.3zM208.2 269.7c-12.4-2.2-21.1-5.7-27.4-11.1-.7-.6-1.2-1.4-1.4-2.3s-.1-1.8.2-2.7l2.7-6.6c.2-.6.6-1.1 1.1-1.6.5-.4 1.1-.8 1.7-.9.6-.2 1.3-.2 1.9-.1.6.1 1.3.3 1.8.7 4.5 3.1 9.5 5.5 14.7 7.3l-1.1 3.1c-5.5-1.9-10.7-4.5-15.4-7.7-.1-.1-.3-.2-.5-.2h-.5c-.2 0-.3.1-.4.2-.1.1-.2.2-.3.4l-2.7 6.6c-.1.2-.1.4-.1.6 0 .2.2.4.3.6 5.8 5 14 8.3 25.8 10.4l-.4 3.3z"></path>
  <g class="st15">
    <path class="st17" d="M194.2 250.1s2.8-12.5 13.1-16.4c0 0 4.2 31.3 32.2 44.6 0 0 6.4 2.5 5.9 10.2-.5 7.7 9.6 5.9 10.3.5 0 0-1 12.4-12.9 9.6-2.3-1-4-2.1-3.1-4.3l-12.8-8.2s-2.3-10-11.4-9.8c-6.1-6.1-10.8-13.4-12.8-23.1l-8.5-3.1z"></path>
  </g>
  <g class="st15">
    <path class="st17" d="M181.9 257.3c6.7 5.8 16.1 8.9 26.6 10.7l-5.5-14.1-1.8-.6c-2.4 8.9-15 6.2-17.3-5.7l-2.7 6.6c-.2.5-.3 1.1-.1 1.7.1.5.4 1 .8 1.4z"></path>
  </g>
  <g class="st15">
    <path class="st17" d="M192.8 272.4s3.9-4.1 3.5-7.4l12.2 3 5.9 8.9-2.8.5s-7.7-9.9-18.8-5z"></path>
  </g>
  <g class="st15">
    <path class="st17" d="M180.7 295c2.9 9.2 9.1 13.5 17.6 14.5 2.6 3.4 5.4 5.8 8.4 7.5-.2-1-.7-2.2-1.2-3.6-.6-1.4-1.4-2.9-2.2-4.6-1.2-2.3-1.2-3.5-1-5.1.3-1.8.9-4.1.5-8.8-.1-.8-.2-1.7-.3-2.7-1.7-11.5-8.9-7.5-8.9-7.5-7.2 3.8-13.1 4-12.5-12.4l-.5.9c-.5 4.1-.8 8.1-1 12.1-.2 3.3.2 6.6 1.1 9.7z"></path>
  </g>
  <path class="st17" d="M175.1 294.3c2.4-2.4 5-4.7 7.6-6.8-2.6 1.7-5.1 3.5-7.5 5.5 0 .5-.1.9-.1 1.3z"></path>
</svg>
