<?xml version="1.0" encoding="UTF-8"?>
<svg xmlns="http://www.w3.org/2000/svg" id="Camada_1" viewBox="0 0 575 524">
  <style>.st0{fill-rule:evenodd;clip-rule:evenodd;fill:#024f91}.st1{fill:#fff}.st2,.st3{opacity:.25}.st3{enable-background:new}.st3,.st4{fill:#371a45}.st5,.st6{opacity:.35}.st6{fill:#371a45;enable-background:new}.st7{fill:#22a7f0}.st8{opacity:.5}.st10,.st9{opacity:.5;fill:#fff;enable-background:new}.st10{opacity:.35;fill:#111a28}.st11{fill:#ffd527}.st12{fill:#8dd7ff}.st13{fill:none;stroke:#ffd527;stroke-width:2.3376}</style>
  <path class="st0" d="M501.6 310.4c6-18.7 9.3-38.6 9.3-59.2C510.9 144.5 424.4 58 317.7 58 211 58 124.5 144.5 124.5 251.2c0 24.4 4.5 47.8 12.8 69.3 2.7 1.9 5.1 4.1 7.3 6.4 7-12.7 20.3-22.2 36.3-25.4-.1-1.2-.2-2.4-.2-3.6 0-22.7 21-41.1 46.9-41.1 8.6 0 17 2.1 24.6 6.1 7.7-13.5 23.6-22.8 41.9-22.8 17.5 0 32.7 8.4 40.7 20.8 1.3 2 3.3 3.4 5.5 4l.4.1c2.5.8 5.2.7 7.5-.5 7.2-3.6 15.2-5.4 23.2-5.4 23 0 42.1 14.5 46.1 33.6 11 1.1 20.8 5.5 28.1 12 7.7-4.2 16.3-6.4 25-6.3 13.7.7 23.7 5.5 31 12z"></path>
  <g id="Camada_2">
    <path class="st1" d="M348.3 394.7c-3.8-1.2-7.5-3.3-11-6.3-11.2-9.6-13.6-55.3-13.6-55.3l.1-.1 20.5-27.5s1.6 2.2 4 5.8c2.5 3.7 6 8.9 9.8 14.7 8.7 13.6 18.8 30.8 21.6 41.4 5.1 19.4-13.3 33.1-31.4 27.3z"></path>
    <g class="st2">
      <path class="st3" d="M380.5 375.5c-1 14.9-16.7 24.2-32.2 19.2-3.8-1.2-7.5-3.3-11-6.3-11.2-9.6-13.6-55.3-13.6-55.3l.1-.1 4.3-5.8c1 12.3 4.4 42.5 13.2 50.1 3.5 3 18.8 7.1 22.7 7.5 9.7 1.1 10.7-1.3 16.5-9.3z"></path>
    </g>
    <path class="st4" d="M356.8 397.9c-6.7 0-14.1-2.3-20.7-8-11.7-10-14.2-54.8-14.3-56.7 0-.2 0-.5.1-.7.1-.2.2-.5.4-.6.2-.2.4-.3.6-.4s.5-.2.7-.2c.2 0 .5 0 .7.1.2.1.4.2.6.4.2.2.3.4.4.6.1.2.2.5.2.7.7 12.5 4.3 46.6 12.9 54 11.5 9.8 23.8 8.1 30.8 3.7 7.7-4.8 10.9-13.5 8.5-22.6-5.1-19.2-34.8-60.9-35.1-61.4-.2-.2-.3-.4-.3-.7-.1-.2-.1-.5 0-.7s.1-.5.3-.7c.1-.2.3-.4.5-.5.2-.1.4-.3.7-.3.2-.1.5-.1.7 0 .2 0 .5.1.7.3.2.1.4.3.5.5 1.2 1.7 30.4 42.7 35.7 62.6 2.9 10.8-1 21.1-10.1 26.8-3.9 2.2-9 3.8-14.5 3.8z"></path>
    <path class="st4" d="M343.2 360.1c-.4 0-.8-.1-1.2-.4-.3-.3-.6-.6-.7-1.1-.1-.4 0-.9.2-1.2.2-.4.5-.7.9-.9.8-.4 19.9-9.1 32.4-4.2.2.1.4.2.6.4.2.2.3.4.4.6.1.2.2.5.2.7 0 .2 0 .5-.1.7-.1.2-.2.4-.4.6-.2.2-.4.3-.6.4-.2.1-.5.2-.7.2-.2 0-.5 0-.7-.1-11-4.3-29.3 4.1-29.4 4.1-.3.1-.6.2-.9.2z"></path>
    <path class="st1" d="M361 372.3c3.2-3.2 3.2-8.5 0-11.7-3.2-3.2-8.5-3.2-11.7 0-3.2 3.2-3.2 8.5 0 11.7 3.3 3.2 8.5 3.2 11.7 0z"></path>
    <g class="st5">
      <path class="st6" d="M363.5 366.6c0 1.2-.3 2.5-.9 3.6-.6 1.1-1.4 2.1-2.4 2.8-1 .8-2.1 1.3-3.3 1.5-1.2.2-2.5.2-3.7-.1-1.2-.3-2.3-.9-3.3-1.7-1-.8-1.7-1.8-2.2-2.9-.5-1.1-.8-2.4-.8-3.6 0-1.2.3-2.5.9-3.6.6 1.4 1.7 2.7 3 3.5 1.3.9 2.8 1.4 4.4 1.4 1.6 0 3.1-.4 4.4-1.2 1.3-.8 2.4-2 3.1-3.4.6 1.3.8 2.5.8 3.7z"></path>
    </g>
    <path class="st4" d="M355.2 376.6h-.3c-2.7 0-5.2-1.1-7.1-3-1.9-1.9-2.9-4.5-2.9-7.2s1.1-5.2 3-7.1c1.9-1.9 4.5-2.9 7.1-2.9 2.7 0 5.2 1.1 7.1 2.9s3 4.5 3 7.1c0 2.7-1 5.3-2.9 7.2-1.8 1.9-4.3 3-7 3zm0-16.5c-1.7 0-3.3.7-4.5 1.8-1.2 1.2-1.9 2.8-1.9 4.4 0 1.7.6 3.3 1.8 4.5 1.2 1.2 2.8 1.9 4.4 1.9h.2c1.7 0 3.3-.7 4.5-1.8 1.2-1.2 1.9-2.8 1.9-4.4 0-1.7-.6-3.3-1.8-4.5-1.2-1.2-2.8-1.9-4.4-1.9h-.2z"></path>
    <path class="st1" d="M367.6 380.8l-3.7 4.1-7.4 8.2c-4.1 0-6.3-4.8-7.5-10.7-1.7-8.4-1.2-19.2-.8-22 .6-3.6 6.1-8.2 12.1-4.7 8.7 5.1 7.3 25.1 7.3 25.1z"></path>
    <g class="st2">
      <path class="st3" d="M363.9 384.9l-7.4 8.2c-4.1 0-6.3-4.8-7.5-10.7 2.7 1.9 7.6 4 14.9 2.5z"></path>
    </g>
    <path class="st4" d="M367.3 380.8c-.5-3.3-1-6.5-1.6-9.6-.6-3.1-1.4-6.2-2.6-8.9-.6-1.3-1.3-2.6-2.2-3.5l-.7-.7c-.1-.1-.2-.2-.4-.3l-.4-.3c-.3-.2-.6-.3-.8-.5-.1-.1-.3-.1-.4-.2l-.4-.2c-1.2-.4-2.5-.4-3.6 0-1.2.4-2.3 1.2-3.1 2.2-.4.5-.6 1-.8 1.5 0 .1-.1.2-.1.4l-.1.5c0 .4-.1.8-.1 1.1-.1 1.6-.1 3.2-.1 4.8 0 3.2.1 6.4.4 9.6.1 1.6.3 3.2.6 4.7s.6 3.1.9 4.5c.4 1.5.9 2.9 1.6 4.1.3.6.8 1.2 1.3 1.6.5.5 1.2.8 1.9 1 .1 0 .1.1.2.1s.1.1.1.2 0 .1-.1.2c0 .1-.1.1-.2.1-.2 0-.4.1-.7.1h-.6c-.2 0-.5 0-.7-.1l-.7-.2c-.9-.3-1.7-.9-2.4-1.6-1.4-1.3-2.2-2.9-2.9-4.5-.7-1.6-1.1-3.3-1.5-5-.4-1.7-.6-3.3-.8-5-.4-3.3-.5-6.7-.4-10 .1-1.7.1-3.3.3-5 0-.4.1-.9.1-1.3 0-.2.1-.5.1-.7.1-.3.1-.6.2-.8.3-1 .8-1.9 1.5-2.8.6-.8 1.4-1.5 2.2-2 .4-.3.8-.5 1.3-.8.5-.2.9-.5 1.4-.6.2-.1.5-.2.7-.2l.8-.2c.5-.1 1-.1 1.5-.2.5 0 1 0 1.5.1l1.5.3.7.2c.2.1.5.2.7.3.4.2.9.4 1.3.7l.6.4c.2.1.4.3.6.5.4.3.7.6 1.1 1 1.4 1.4 2.3 3.1 3 4.7.3.8.6 1.7.9 2.5.2.8.4 1.7.6 2.5.3 1.7.5 3.4.6 5.1.1 1.7 0 3.4-.1 5-.1 1.7-.4 3.3-.8 5 0 .1-.1.1-.1.2-.1 0-.1.1-.2.1s-.1 0-.2-.1c-.3.2-.4.1-.4 0z"></path>
    <path class="st1" d="M292.5 308.9l-6.3 70.5-2.6 29.1s-32.2 1.1-41.4-11.6c-3.4-4.7-5-18.1-4.9-32.7.1-17.8 2.6-37.4 7.1-45.5 7.3-12.9 37.1-11.5 48.1-9.8z"></path>
    <g class="st2">
      <path class="st3" d="M286.3 379.4l-2.6 29.1s-32.2 1.1-41.4-11.6c-3.4-4.7-5-18.1-4.9-32.7l20-3.1s7 .3 6.8 22.4c0 6.2 9.3 8.8 16.5 4 2.6-1.7 4.3-4.6 5.6-8.1z"></path>
    </g>
    <path class="st4" d="M281.7 410.4c-7.5 0-32.5-.9-40.9-12.4-4.4-6.1-5.6-24-5.2-38.7.4-14.6 2.5-33.1 7.2-41.5 7.9-14.1 38.8-12.5 50-10.7.5.1.9.4 1.2.8.3.4.4.9.3 1.4-.1.5-.4.9-.8 1.2-.4.3-.9.4-1.4.3-12.3-2-39.8-2.4-46.1 8.9-3.6 6.4-6.3 22.1-6.7 39.8-.5 17.4 1.3 32 4.5 36.3 8.5 11.7 39.5 10.9 39.8 10.9.5 0 1 .2 1.3.5.4.3.6.8.6 1.3s-.2 1-.5 1.4c-.3.4-.8.6-1.3.6-.1-.1-.9-.1-2-.1z"></path>
    <path class="st1" d="M239.3 361.2l16.9 1.7c.7.1 1.4.4 2 .9.5.5.9 1.2 1 1.9.8 5.5 2.1 18.3-3.3 22.3-4.5 3.4-11.7 2.8-15.7-.9-4.6-4.1-4.7-16.6-4.4-22.8 0-.5.1-.9.3-1.3.2-.4.5-.8.8-1.1.3-.3.7-.5 1.2-.7s.7 0 1.2 0z"></path>
    <g class="st2">
      <path class="st3" d="M259.1 365.7c.8 5.5 2.1 18.3-3.3 22.3-4.5 3.4-11.7 2.8-15.8-.9-2.8-2.5-3.9-8.2-4.3-13.7.7 2.7 1.8 5 3.3 6.5 8.3 8.5 14.9-1.1 14.9-1.1s1 2.4 1.9 2.6c3.7.7 3.2-10.9 2.9-16.9.2.4.4.8.4 1.2z"></path>
    </g>
    <path class="st4" d="M248.7 392.2c-3.6 0-7.2-1.2-9.9-3.6-4.8-4.3-5.4-15.6-5.1-24.3 0-.7.2-1.4.5-2.1.3-.6.7-1.2 1.3-1.7.5-.5 1.2-.8 1.8-1 .7-.2 1.4-.3 2.1-.2l16.9 1.7c1.1.1 2.2.6 3.1 1.4.8.8 1.4 1.8 1.6 3 1.1 7.1 2 19.6-4.1 24.1-2.3 1.8-5.3 2.7-8.2 2.7zm-9.8-29.1c-.4 0-.7.1-1 .4-.3.3-.4.6-.4 1-.4 10.8 1 18.8 3.8 21.3 3.6 3.2 9.7 3.6 13.4.8 3.2-2.4 4.2-10.1 2.6-20.5 0-.3-.2-.6-.4-.8-.2-.2-.5-.4-.8-.4l-16.9-1.7c-.2-.1-.2-.1-.3-.1z"></path>
    <path class="st4" d="M253.6 368.9c0 2 .1 4.1.1 6.2s-.1 4.1-.5 6.2c-.4 2.1-1.1 4.2-2.5 6-.7.9-1.6 1.7-2.5 2.4-1 .6-2 1.1-3.2 1.5-.4.1-.8.1-1.2-.1-.4-.2-.6-.5-.8-.9-.1-.4-.1-.8.1-1.2.2-.4.5-.6.9-.8h.2c1.8-.3 3.4-1.1 4.7-2.3 1.3-1.3 2.2-3 2.8-4.9.6-1.9 1-3.9 1.2-5.9.3-2.1.4-4.1.7-6.2zM254.2 316.7c2.3 0 4.6.1 7 .3 2.3.1 4.6.3 7 .5 2.3.2 4.6.5 7 .8 2.3.4 4.7.8 7.1 1.6.2.1.5.2.7.4.2.2.3.4.5.6.1.2.2.5.2.7 0 .2 0 .5-.1.7-.1.2-.2.5-.4.6-.2.2-.4.3-.6.5-.2.1-.5.2-.7.2-.3 0-.5 0-.7-.1 0 0-.1 0-.1-.1-2-.8-4.2-1.4-6.3-1.9-2.2-.5-4.5-1-6.7-1.3-2.3-.4-4.5-.7-6.8-1-2.3-.3-4.6-.6-6.9-.8-.2 0-.4-.1-.5-.3-.1-.2-.2-.4-.2-.6 0-.2.1-.4.2-.5-.1-.2.1-.3.3-.3z"></path>
    <path class="st1" d="M372 307.2c.1-.1.1-.1 0 0zM372 307.2c.1-.1.1-.1 0 0zM372 307.1c.1 0 .1 0 0 0zM375.5 471.9c.1 12.1-13 12.8-29.1 12.8-11.5 0-20.1-1.9-24.4-5.6-7-6.1-5.2-40.3-12.9-102.6l40.1-3.6s2.3 12.5 4.8 30.3c2.2 15.8 4.5 35.8 5.5 54.9 0 0 14.4 3.9 15.8 12.6.1.3.2.8.2 1.2z"></path>
    <g class="st2">
      <path class="st3" d="M375.5 471.9c.1 12.1-13 12.8-29.1 12.8-11.5 0-20.1-1.9-24.4-5.6-7-6.1-5.2-40.3-12.9-102.6l40.1-3.6s2.3 12.5 4.8 30.3c-8.8 6.4-16.7 9.3-24.9 18.9-9.9 11.4-7.7 50.4 11.4 53 15.1 2 28.6 1.6 34.8-4.3.1.2.2.7.2 1.1z"></path>
    </g>
    <path class="st4" d="M346.3 486.6c-12.1 0-21-2.1-25.6-6.1-4.8-4.1-5.8-17-7.7-42.6-1.2-16.2-2.7-36.3-5.8-61.2-.1-.5.1-1 .4-1.4.3-.4.8-.7 1.3-.7.5-.1 1 .1 1.4.4.4.3.7.8.7 1.3 3.1 25 4.6 45.2 5.8 61.4 1.7 22.2 2.8 36.9 6.4 40 3.9 3.3 12.1 5.2 23.2 5.2h.1c10.8 0 20.8-.4 25-4.6 1.5-1.6 2.3-3.6 2.2-6.4-.1-6.7-10.5-11-14.6-12.1l-1.3-.4-.1-1.4c-1.9-40-10.2-84.5-10.3-85-.1-.5 0-1 .3-1.4.3-.4.7-.7 1.2-.8.5-.1 1 0 1.4.3.4.3.7.7.8 1.2.1.4 8.2 44.2 10.3 84.1 4.1 1.3 15.9 6.1 16 15.3 0 3.7-1.1 6.8-3.3 9.1-5.3 5.4-15.7 5.8-27.8 5.8z"></path>
    <g class="st5">
      <path class="st6" d="M308.1 380.3c-.1-.9-.2-1.8-.3-2.8.1 1 .2 1.9.3 2.8z"></path>
    </g>
    <g class="st5">
      <path class="st6" d="M300.9 379.9c-.1-1.1-.2-2.2-.3-3.4 0 1.1.2 2.3.3 3.4z"></path>
    </g>
    <path class="st1" d="M355.7 377.2c-.3 2.5-.8 4.9-1.6 7.2-1.5 4.2-3.8 8.1-6.9 11.5-22.9 25.2-82.5 18-84.3-13.7-.1-1.1-.1-2.2 0-3.4.3-4.1.7-8.4 1.1-12.8 2.6-26.9 7.3-59.7 3.5-82.1 8 8 62.1 11.6 62.5 6.5.3-5-42.9-26.3-24.1-23.4 13.9 2.9 34.2 5.6 38.1 16.9.2 2.5 1.4 5.7 2.2 8l3.6 35.3c2.3 16.9 7.6 35.7 5.9 50z"></path>
    <path class="st4" d="M350.8 327c1.7 5.5 2.8 11 3.8 16.6 1 5.6 2 11.2 2.7 16.9.3 2.9.6 5.7.7 8.6.1 2.9 0 5.8-.3 8.8-.2 1.5-.4 3-.8 4.4l-.3 1.1c-.1.4-.2.7-.3 1.1-.2.7-.5 1.4-.8 2.1-1.1 2.8-2.6 5.4-4.4 7.8-3.6 4.8-8.4 8.6-13.5 11.5-5.2 2.8-10.8 4.7-16.6 5.8-5.7 1.1-11.6 1.5-17.4 1.2-5.8-.3-11.6-1.3-17.2-3.1s-11-4.5-15.6-8.5c-2.3-2-4.3-4.3-6-6.9-1.6-2.6-2.8-5.5-3.4-8.6-.3-1.5-.5-3-.5-4.6v-2.3c0-.8.1-1.4.1-2.2.2-2.8.4-5.7.7-8.5.5-5.7 1.1-11.3 1.7-17 1.2-11.3 2.4-22.5 3-33.8.3-5.6.5-11.2.4-16.8-.1-5.6-.5-11.2-1.4-16.6l-1.1-6.5 4.6 4.7c.4.4.9.8 1.4 1 .6.3 1.2.6 1.9.9 1.4.6 2.8 1 4.2 1.5 2.9.8 5.9 1.5 8.9 2 6.1 1.1 12.2 1.8 18.4 2.3 3.1.2 6.2.4 9.3.5 3.1.1 6.2.1 9.2-.1 1.5-.1 3-.3 4.4-.5.3-.1.7-.2.9-.2.2-.1.4-.1.6-.3l-.1.1c-.1.1-.1.2-.2.3 0 .1-.1.2-.1.3v.5c0-.1-.1-.1-.1-.2-.3-.4-.8-.9-1.3-1.4s-1.1-.9-1.7-1.4c-1.2-.9-2.4-1.8-3.7-2.7-5.1-3.5-10.4-6.8-15.6-10.5-1.3-.9-2.6-1.9-3.9-3-.3-.3-.6-.6-1-.9-.4-.4-.7-.8-1-1.2-.2-.3-.4-.7-.5-1.1 0-.1-.1-.3-.1-.4v-.6c0-.5.2-.9.4-1.3.1-.2.3-.3.4-.5.1-.1.3-.2.4-.3.2-.1.4-.2.7-.3.3-.1.7-.2 1-.2 1.1-.1 1.9 0 2.8.1.4.1.8.1 1.3.2.4.1.8.2 1.2.2l4.6.9c6.1 1.2 12.4 2.5 18.5 4.6 3 1.1 6.1 2.4 8.9 4.3 1.4 1 2.7 2.1 3.9 3.4 1.2 1.4 2.1 2.9 2.7 4.6l.1.2v.2c.1 1.2.4 2.4.8 3.7.4 1.3.8 2.5 1.3 3.8.1.2.1.5.1.7 0 .2-.1.5-.2.7-.1.2-.3.4-.4.6-.2.2-.4.3-.6.4s-.5.1-.7.1c-.2 0-.5-.1-.7-.2-.2-.1-.4-.3-.6-.4-.2-.2-.3-.4-.4-.6-.5-1.3-1-2.6-1.4-4-.4-1.4-.8-2.8-1-4.4l.1.5c-.9-2.5-2.8-4.6-5.2-6.2-2.4-1.6-5.1-2.8-8-3.8-5.7-2-11.8-3.2-17.9-4.4l-4.6-.9c-.4-.1-.8-.2-1.1-.2-.3 0-.7-.1-1-.1-.7-.1-1.4-.1-1.9-.1h-.2c.1 0 .1 0 .2-.1.2-.1.3-.2.4-.4.1-.2.2-.5.2-.7v-.3-.1c0-.1 0-.1 0 0 .2.2.3.4.5.6.2.2.5.5.8.7 1.1.9 2.3 1.8 3.6 2.7 5 3.5 10.4 6.8 15.6 10.4 1.3.9 2.6 1.8 3.9 2.8.6.5 1.3 1 1.9 1.6.6.6 1.3 1.2 1.9 2.1.2.3.3.5.5.8.2.4.3.9.3 1.4 0 .2 0 .4-.1.5-.1.5-.3 1-.6 1.3-.3.3-.6.6-1 .8-.5.3-1 .5-1.5.7-.5.1-.9.3-1.3.4-1.7.4-3.3.5-5 .6-3.2.2-6.4.2-9.6.1-3.2-.1-6.3-.2-9.5-.5-6.3-.5-12.6-1.2-18.8-2.3-3.1-.6-6.2-1.2-9.4-2.1-1.6-.4-3.1-1-4.7-1.6-.8-.3-1.6-.7-2.3-1.1-.9-.5-1.6-1-2.3-1.7l3.6-1.8c1 5.7 1.3 11.5 1.4 17.3.1 5.7-.1 11.5-.4 17.2-.7 11.4-1.8 22.7-3 34-.6 5.6-1.2 11.3-1.7 16.9-.3 2.8-.5 5.6-.7 8.4 0 .7-.1 1.4-.1 2.1v2c0 1.3.2 2.6.4 3.9.5 2.5 1.5 5 2.8 7.2 1.4 2.2 3.1 4.2 5.1 5.9 4 3.5 8.9 6 14.1 7.7 5.2 1.7 10.7 2.6 16.2 2.9 5.5.3 11-.1 16.4-1.1 5.4-1.1 10.6-2.8 15.4-5.4 4.8-2.6 9.1-6 12.3-10.3 1.6-2.1 2.9-4.5 3.9-6.9.2-.6.5-1.2.7-1.9l.3-.9.3-1c.3-1.3.6-2.6.7-3.9.4-2.7.4-5.4.3-8.2-.1-2.8-.3-5.5-.6-8.3-.7-5.6-1.6-11.1-2.6-16.7s-2-11.2-1.9-17c0-.2.1-.4.2-.6.2-.2.4-.3.6-.3.2 0 .5 0 .6.1.4.3.6.5.7.7zM320.6 436.2c-3.6 0-5.9-.2-6.2-.2-.5 0-1-.3-1.3-.7-.3-.4-.5-.9-.4-1.4 0-.5.3-1 .7-1.3.4-.3.9-.5 1.4-.4.2 0 24 2 41.3-7.6.4-.2 1-.3 1.4-.2.5.1.9.5 1.1.9.2.4.3 1 .2 1.4-.1.5-.5.9-.9 1.1-12.9 7.3-28.7 8.4-37.3 8.4zM359.1 459.9c-.7-.2-1.5-.3-2.2-.4-.7-.1-1.5-.2-2.3-.3-1.5-.1-3.1-.2-4.6-.1-1.5 0-3.1.2-4.6.5-1.5.2-3 .7-4.5 1.2h-.1c-.2.1-.5.1-.7 0-.2-.1-.4-.3-.5-.5-.1-.2-.1-.5 0-.7.1-.2.3-.4.5-.5 1.5-.7 3.1-1.3 4.7-1.8s3.3-.8 4.9-1c1.7-.2 3.3-.3 5-.3.8 0 1.7 0 2.5.1.4 0 .8.1 1.3.1.4 0 .8.1 1.3.2.2 0 .5.1.7.2.2.1.4.3.6.5.2.2.3.4.3.7.1.2.1.5 0 .7 0 .2-.1.5-.2.7-.1.2-.3.4-.5.6-.2.1-.4.3-.7.3-.2.1-.5.1-.7 0 0-.2-.1-.2-.2-.2z"></path>
    <path class="st1" d="M311.4 398.5l-13.2 67.9c-3.6 18.5-16.2 19.7-43.8 18.6-9.7-.4-17.1-3.7-16.4-11.7 1-10.7 16.1-14.7 16.1-14.7s5.4-53.8 9.1-83.2l48.2 23.1z"></path>
    <g class="st2">
      <path class="st3" d="M294.2 455.3c3.1-19.3 14.4-48.1 16.8-54.3-1.9 9.7-9.1 46.8-12.7 65.5-3.6 18.5-16.2 19.7-43.8 18.6-9.7-.4-17.1-3.7-16.4-11.7.1-.8.2-1.6.5-2.3 2.2 3 7.1 4.4 11.8 4.7 29.9 1.7 40.9-2.2 43.8-20.5z"></path>
    </g>
    <path class="st4" d="M312.4 398.7c-.5 7-1.8 14-3.1 20.8l-3.9 20.7-3.9 20.7-1 5.2c-.2.8-.3 1.8-.6 2.7-.2.9-.5 1.8-.8 2.7-.6 1.8-1.4 3.6-2.3 5.2-1 1.7-2.3 3.2-3.8 4.5-1.5 1.3-3.2 2.3-5 3.1-1.7.8-3.5 1.4-5.4 1.8-3.6.8-7.2 1.1-10.8 1.3-3.6.2-7.1.1-10.7 0-1.8 0-3.5-.1-5.3-.2h-1.3c-.4 0-.9 0-1.4-.1-.9-.1-1.8-.2-2.8-.3-1.9-.2-3.7-.7-5.5-1.3-1.8-.6-3.7-1.5-5.3-2.9-.8-.7-1.5-1.5-2.1-2.5-.6-.9-1-2-1.2-3-.2-1-.3-2.1-.3-3.2 0-1 .2-2.1.5-3 .5-2 1.6-3.8 2.8-5.3 1.2-1.5 2.7-2.8 4.2-3.9s3.2-2 4.9-2.8c.8-.4 1.7-.7 2.6-1.1.4-.2.9-.3 1.3-.5.4-.1.9-.3 1.4-.4l-1.4 1.6c1.4-13.9 2.9-27.8 4.4-41.6 1.5-13.9 3-27.8 4.8-41.6.1-.5.3-.9.7-1.3.4-.3.9-.4 1.4-.4.5.1.9.3 1.3.7.3.4.4.9.4 1.4-1.7 13.8-3.3 27.7-4.8 41.6-1.5 13.9-2.9 27.7-4.4 41.6l-.1 1.3-1.3.4c-.3.1-.8.2-1.1.4-.4.1-.8.3-1.2.4-.8.3-1.5.6-2.3 1-1.5.7-2.9 1.5-4.2 2.5-2.6 1.9-4.7 4.3-5.5 7.1-.4 1.4-.4 2.9-.1 4.2.3 1.3 1 2.4 2.1 3.3 1.1.9 2.4 1.6 3.9 2.1s3.1.9 4.7 1.1c.8.1 1.6.2 2.5.2.4 0 .8 0 1.3.1h1.3c1.7.1 3.5.1 5.2.1 3.5.1 7 .1 10.4-.1 3.4-.1 6.8-.5 10-1.2s6.2-2 8.5-4 3.9-4.8 4.9-7.9c.3-.8.5-1.6.7-2.4.2-.8.4-1.6.5-2.5l1-5.2 4.1-20.7 4.1-20.7c1.4-6.9 2.8-13.7 4.9-20.5.1-.2.2-.4.4-.5.2-.1.4-.2.7-.1.2 0 .4.2.6.4.3.5.4.8.4 1z"></path>
    <path class="st4" d="M288.6 435.2c-22.6 0-31.7-5.1-32.2-5.4-.4-.3-.7-.7-.9-1.1-.1-.5-.1-1 .2-1.4s.7-.7 1.1-.9c.5-.1 1-.1 1.4.2.1.1 13 7.1 46.4 4.1.5 0 1 .1 1.4.4.4.3.6.8.7 1.3 0 .5-.1 1-.4 1.4-.3.4-.8.6-1.3.7-6.1.5-11.6.7-16.4.7zM253.3 456.9c1.4-.2 2.6-.3 3.9-.4 1.3-.1 2.6-.1 3.9-.1 2.6 0 5.2.1 7.7.5 2.6.4 5.1 1 7.5 1.8 1.2.4 2.4.9 3.6 1.5 1.2.6 2.3 1.3 3.3 2 .2.1.3.4.4.6 0 .2 0 .5-.1.7-.1.2-.3.3-.6.4-.2.1-.5 0-.7-.1-1-.6-2.1-1.2-3.2-1.7s-2.2-.9-3.4-1.2c-2.3-.6-4.7-1.1-7.1-1.2-2.4-.2-4.9-.2-7.3 0-1.2.1-2.4.2-3.6.4-1.2.2-2.4.4-3.5.6-.2.1-.5.1-.7 0-.2 0-.5-.1-.7-.3-.2-.1-.4-.3-.5-.5-.1-.2-.2-.4-.3-.7-.1-.2-.1-.5 0-.7 0-.2.1-.5.3-.7.1-.2.3-.4.5-.5.2-.1.4-.2.7-.3-.2-.1-.2-.1-.1-.1z"></path>
    <g class="st2">
      <path class="st3" d="M355.7 377.2c-.1 1.3-.4 2.5-.6 3.8-.1.3-.1.6-.2.9-.2.9-.5 1.7-.7 2.5-.3.7-.5 1.4-.8 2.1-.1.2-.1.3-.2.5s-.2.4-.2.5c-.1.2-.2.5-.3.7-.6 1.3-1.4 2.5-2.2 3.7-.1.2-.3.4-.4.6-.1.2-.3.4-.4.6-.2.3-.4.5-.6.8-.2.2-.3.4-.5.6-.1.1-.2.2-.2.3-.2.2-.3.4-.5.6-.1.1-.2.2-.3.4-9 9.9-23.6 14.8-38.1 15.2l2.7-13.3c3.3-.2 6.6-.5 9.8-1l-18.4.6c-5.2.2-9.5-3.9-9.7-9.1l-.1-3.5c-18.1 2.1-27.9-1.5-30.6-2.7-.1-1.1-.1-2.2 0-3.4.3-4.1.7-8.4 1.1-12.8 10 4.6 22.9 4.1 28.9 3.6l-.2-4.4c-.2-4.5 2.9-8.4 7.2-9.5.6-.1 1.2-.2 1.9-.3l43.6-1.5c5.2-.2 9.5 3.9 9.7 9.1l.3 14.4z"></path>
    </g>
    <path class="st1" d="M348.1 387.8l-43.6 1.5c-5.2.2-9.5-3.9-9.7-9.1L294 357c-.2-4.5 2.9-8.4 7.2-9.5.6-.2 1.2-.2 1.9-.3l43.6-1.5c5.2-.2 9.5 3.9 9.7 9.1l.6 18.4.2 4.8c.1 5.2-4 9.6-9.1 9.8z"></path>
    <g class="st2">
      <path class="st3" d="M348.1 387.8l-43.6 1.5c-5.2.2-9.5-3.9-9.7-9.1L294 357c-.2-4.5 2.9-8.4 7.2-9.5 2.5 1.6 4.1 2.6 4.1 2.6 2.8 18.6 2.4 32.4 31.3 29.5 9.9-1 16.5-4.2 20.4-6.4l.2 4.8c.1 5.2-4 9.6-9.1 9.8z"></path>
    </g>
    <path class="st4" d="M304.9 391.2c-3.1 0-6.2-1.2-8.4-3.4-2.3-2.2-3.6-5.2-3.7-8.3L292 358c-.1-3.2 1.1-6.3 3.3-8.7 2.2-2.4 5.2-3.7 8.5-3.9l41.9-1.5c3.2-.1 6.3 1.1 8.7 3.3 2.4 2.2 3.7 5.2 3.9 8.4l.8 21.5c.1 3.2-1.1 6.3-3.3 8.7-2.2 2.4-5.2 3.7-8.5 3.9l-41.9 1.5h-.5zm41.2-43.5h-.3l-41.9 1.5c-2.2.1-4.3 1-5.8 2.7-1.5 1.6-2.3 3.8-2.2 6l.8 21.5c.1 2.2 1 4.3 2.7 5.8 1.6 1.5 3.8 2.3 6 2.3l41.9-1.5c2.2-.1 4.3-1 5.8-2.7 1.5-1.6 2.3-3.8 2.2-6l-.8-21.5c-.1-2.2-1-4.2-2.6-5.7-1.5-1.6-3.6-2.4-5.8-2.4z"></path>
    <path class="st1" d="M349.8 387.5c-.6.1-1.2.2-1.7.2l-43.6 1.5c-1.8.1-3.6-.4-5.1-1.3-1.5-.9-2.8-2.3-3.6-3.9-.6-1.2-.9-2.5-1-3.8l-.4-10.3-.1-3.4-.3-9.5c-.2-5.2 3.9-9.5 9.1-9.7l9.4-.3c-4.3 1-7.5 4.9-7.3 9.5l.4 12.5.4 10.7c.2 5.2 4.6 9.2 9.7 9.1l34.1-1.3z"></path>
    <g class="st2">
      <path class="st3" d="M349.8 387.5c-.6.1-1.2.2-1.7.2l-43.6 1.5c-5.2.2-9.5-3.9-9.7-9.1l-.5-13.7c1.2 2.4 3.3 5.3 6.4 5.5 1.7.1 3.4-1.2 4.8-3l.4 10.7c.2 5.2 4.6 9.2 9.7 9.1l34.2-1.2z"></path>
    </g>
    <path class="st4" d="M304.1 391.2c-2.9 0-5.7-1.1-7.8-3.2-2.1-2-3.3-4.8-3.4-7.7l-.8-23.2c-.2-6.2 4.7-11.5 10.9-11.7l9.4-.3.5 3.7c-1.7.4-3.2 1.4-4.3 2.7-1.1 1.4-1.6 3.1-1.6 4.8l.8 23.2c.1 2 .9 3.9 2.4 5.2 1.5 1.4 3.4 2.1 5.4 2l34.2-1.2.5 3.7c-.7.2-1.4.3-2.1.3l-43.6 1.5c-.2.2-.4.2-.5.2zm1.5-42.1l-2.6.1c-2 .1-3.9.9-5.2 2.4-1.4 1.5-2.1 3.4-2 5.4l.8 23.2c.1 2 .9 3.9 2.4 5.2 1.5 1.4 3.4 2.1 5.4 2l2.9-.1c-2-2-3.2-4.7-3.3-7.6l-.8-23.2c-.1-2.7.8-5.3 2.4-7.4z"></path>
    <path class="st7" d="M322.7 367.6c0 .9-1 7.8-1 7.8l-4.9.2c-3.4.1-6.2-3.3-6.3-7.6-.1-4.3 2.5-7.9 5.9-8l4.9-.1s1.3 6.3 1.4 7.7z"></path>
    <g class="st5">
      <path class="st6" d="M322.7 367.6c0 .9-1 7.8-1 7.8l-4.9.2c-3.4.1-6.2-3.3-6.3-7.6-.1-4.3 2.5-7.9 5.9-8l4.9-.1s1.3 6.3 1.4 7.7z"></path>
    </g>
    <path class="st4" d="M316.7 377c-4.1 0-7.5-4-7.6-9-.2-5.1 3.1-9.3 7.2-9.4l6.1-.2.3 1.1c.2 1.1 1.4 6.6 1.5 8 0 .9-.8 6.4-1 8.1l-.2 1.2-6.1.2h-.2zm3.4-15.7l-3.7.1c-2.6.1-4.6 3-4.5 6.5.1 3.5 2.3 6.3 4.9 6.2l3.7-.1c.4-3 .8-5.9.8-6.4-.1-.7-.7-3.9-1.2-6.3z"></path>
    <path class="st7" d="M321.7 375.5c3.4-.1 6-3.7 5.9-8-.1-4.3-3-7.7-6.3-7.6-3.4.1-6 3.7-5.9 8 .1 4.3 2.9 7.7 6.3 7.6z"></path>
    <g class="st5">
      <path class="st6" d="M315.4 367.9c.1 4.3 3 7.7 6.3 7.6 3.4-.1 6-3.7 5.9-8 0-.6-.1-1.1-.2-1.7-.8 3-2.9 5.2-5.6 5.2-2.9.1-5.4-2.4-6.1-5.9-.2.9-.3 1.8-.3 2.8z"></path>
    </g>
    <path class="st1" d="M315.4 367.9c0 .3 0 .6.1.9.6-3.4 2.9-6 5.7-6 3.1-.1 5.8 2.9 6.3 6.7.1-.6.2-1.3.1-1.9-.1-4.3-3-7.7-6.3-7.6-3.4 0-6 3.5-5.9 7.9z"></path>
    <path class="st4" d="M321.6 376.9c-4.1 0-7.5-4-7.6-9-.1-2.4.6-4.7 1.9-6.4 1.4-1.9 3.3-2.9 5.3-3 2.1-.1 4 .9 5.5 2.7 1.4 1.7 2.2 3.9 2.3 6.3.1 2.4-.6 4.7-1.9 6.4-1.4 1.9-3.3 2.9-5.3 3h-.2zm-.2-15.6h-.1c-1.2 0-2.3.7-3.1 1.8-.9 1.3-1.4 2.9-1.3 4.7.1 3.5 2.3 6.3 4.9 6.2 1.2 0 2.3-.7 3.1-1.8.9-1.3 1.4-2.9 1.4-4.7-.1-1.8-.6-3.4-1.6-4.6-1-1-2.2-1.6-3.3-1.6zM334.5 389.5c-.4 0-.7-.1-1-.4-.3-.3-.4-.6-.4-1l-.1-11.8c0-1.6.4-3.1 1.1-4.5.7-1.4 1.8-2.6 3.1-3.5.9-.6 1.7-1.5 2.2-2.5.5-1 .8-2.1.7-3.3l-.5-16.6c0-.2 0-.4.1-.5s.2-.3.3-.5c.1-.1.3-.2.5-.3.2-.1.4-.1.5-.1.2 0 .4 0 .5.1.2.1.3.2.5.3.1.1.2.3.3.5.1.2.1.4.1.5l.5 16.6c.1 1.6-.3 3.2-1 4.6-.7 1.4-1.8 2.7-3.1 3.6-.9.6-1.7 1.5-2.2 2.4-.5 1-.8 2.1-.8 3.2l.1 11.8c0 .4-.1.7-.4 1-.2.2-.6.4-1 .4z"></path>
    <path class="st1" d="M264.6 357.6s-5.7.8-5.9 7.4c-.2 7.2 4.5 8.6 4.5 8.6s11.2 6.4 36.3 2.4c0 0 6.4-9.7-2.2-15 .1.1-19.2 3.1-32.7-3.4z"></path>
    <g class="st2">
      <path class="st3" d="M299.6 376.1c-25.1 4-36.3-2.4-36.3-2.4s-4.7-1.4-4.5-8.6c0-.5.1-1 .2-1.6 1.3 2.4 3.4 3 3.4 3s10 5.7 32.3 3c2.9-.4 5.4-2.5 6-5.4v-.1c3.2 5.4-1.1 12.1-1.1 12.1z"></path>
    </g>
    <path class="st4" d="M283.9 379.2c-13.5 0-20.2-3.3-21.4-3.9-1.1-.4-5.8-2.7-5.6-10.3.1-5.4 3.4-7.6 5.3-8.5.7-.3 1.4-.4 2.1-.4.7 0 1.4.1 2.1.4 10.8 4.7 25.2 3.4 29.4 2.9.7-.1 1.4 0 2.1.2.7.2 1.3.5 1.9 1 4.1 3.4 4.9 8.6 2.3 14.4-.4.8-.9 1.5-1.7 2.1-.7.5-1.6.9-2.4 1-5.3.8-10 1.1-14.1 1.1zm-19.5-19.5c-.2 0-.4 0-.6.1-2 .9-3.1 2.7-3.2 5.3-.2 5.8 3.2 6.8 3.2 6.8.1 0 .3.1.4.2.1.1 10.6 5.8 33.4 2.4.3 0 .6-.2.8-.3.2-.2.4-.4.5-.7 1.4-3 2.2-7.2-1.3-10.2l-.6-.3c-.2-.1-.5-.1-.7-.1-4.4.5-19.6 1.8-31.2-3.2h-.7z"></path>
    <path class="st1" d="M289.7 305.7l-5.9 10-15.1 25.5-.5.8c-.6-.5-1.3-1-1.9-1.5-28.8-22.6-54.5-51.7-57.7-53.3-9.5-4.8-17.2-13.5-17.8-18.9-1.2-10.1 12.5-25.7 14.7-28.1l.3-.3s-11.9-16.6-4.1-22.1c8-5.6 27 21.2 28.3 22.8 2.4 3 8.3-11 16.6-10.2 9.9 1-3.1 22.3-2.3 24.6.9 2.7 7.8 12 19.8 25.1 1.1 1.2 2.3 2.5 3.5 3.7 6.2 6.6 13.6 14 22.1 21.9z"></path>
    <g class="st2">
      <path class="st3" d="M268.7 341.2l-.5.8c-.6-.5-1.3-1-1.9-1.5-28.8-22.6-54.5-51.7-57.7-53.3-9.5-4.8-17.2-13.5-17.8-18.9-1.2-10.1 12.5-25.7 14.7-28.1 7.1 5.7 23.7 18.9 23.7 18.9s-.2 46.3 39.5 82.1z"></path>
    </g>
    <path class="st4" d="M268.3 343.9c-.4 0-.8-.1-1.2-.4-20-15.4-38.6-34.2-49.8-45.4-4.5-4.5-8.7-8.7-9.6-9.3-9.6-4.9-18.1-14-18.8-20.3-1.2-10.2 10.9-24.7 14.5-28.9-2.1-3.2-7.2-11.8-6.1-18.1.4-2.3 1.5-4.1 3.3-5.3 5.9-4.1 15.8 3.2 30.2 22.3l.2.3c.7-.5 1.7-1.7 2.5-2.6 3.2-3.5 7.6-8.3 13.2-7.7 2.6.3 3.8 1.6 4.5 2.7 2.4 4-.1 10.9-3.4 18.8-.7 1.8-1.6 3.9-1.8 4.7 1.6 3.9 16.9 23.8 44.8 49.6.4.3.6.8.6 1.3s-.2 1-.5 1.4c-.3.4-.8.6-1.3.6s-1-.2-1.4-.5c-27.8-25.7-44.4-46.9-45.9-51.5-.4-1.3.2-2.8 1.9-7.1 1.8-4.4 5.2-12.7 3.6-15.4-.2-.3-.6-.7-1.6-.8-3.8-.4-7.2 3.4-10 6.5-2.2 2.4-3.8 4.1-5.7 4.1-.4 0-.8-.1-1.2-.3-.4-.2-.7-.5-1-.8-.1-.1-.4-.5-.7-.9-1.9-2.5-6.8-9.1-12.3-14.5-6-5.9-10.6-8.5-12.7-7-1 .7-1.5 1.6-1.7 2.9-.9 5.1 4.2 13.7 6.3 16.6.3.4.4.8.3 1.2 0 .4-.2.8-.5 1.2-4.4 4.7-15.5 18.7-14.5 27 .5 4.5 7.6 12.7 16.8 17.4 1.3.7 4 3.4 10.6 10 11.1 11.1 29.6 29.8 49.4 45 .3.2.5.6.7 1 .1.4.1.8 0 1.2-.1.4-.4.7-.7.9-.3 0-.6.1-1 .1z"></path>
    <path class="st1" d="M204.1 284.6c-2.3-1.5-4.4-3.1-6.3-5-3.8-3.6-7.7-8.8-7-14.6 1.4-10.6 15-25.2 15-25.2 4-.4 9.3 2.5 13.9 6.5 5.3 4.6 9.7 10.7 10 15 .3 5.8-11.5 25.9-25.6 23.3z"></path>
    <g class="st2">
      <path class="st3" d="M204.1 284.6c-2.3-1.5-4.4-3.1-6.3-5 3-.6 7-2.4 11.3-7.2 9-9.9 13.3-17.2 10.5-26.1 5.3 4.6 9.7 10.7 10 15 .4 5.8-11.4 25.9-25.5 23.3z"></path>
    </g>
    <path class="st4" d="M204.8 282.8h3.1l.5-.1c1.3-.2 2.6-.5 3.8-1.1 2.5-1.1 4.7-2.8 6.7-4.7 2-2 3.8-4.2 5.3-6.7.8-1.2 1.4-2.4 2-3.7.6-1.3 1.1-2.6 1.4-3.8l.1-.5c0-.1 0-.3.1-.4v-.4-.4c0-.5-.2-1.2-.4-1.8-.4-1.2-1.1-2.4-1.8-3.6-1.5-2.4-3.4-4.5-5.4-6.5s-4.3-3.8-6.7-5.2c-1.2-.7-2.4-1.3-3.7-1.7-1.3-.4-2.5-.6-3.6-.6l1.2-.6c-1.5 1.6-2.9 3.3-4.3 5.1-1.4 1.7-2.7 3.6-3.9 5.4-1.2 1.8-2.4 3.7-3.4 5.7-.3.5-.5 1-.7 1.5l-.3.7c-.1.2-.2.5-.3.7l-.6 1.5-.5 1.5c-.1.2-.1.5-.2.7l-.1.7c0 .2-.1.5-.1.7l-.1.7c0 1 .1 1.9.3 2.8.5 1.9 1.5 3.7 2.7 5.4 1.2 1.7 2.7 3.3 4.3 4.7.8.7 1.6 1.4 2.5 2.1.4.3.9.7 1.3 1l.7.5.1.4h.2l.1.1c-.1 0-.2-.1-.3-.1zm-1.3 3.5c-.1-.1-.3-.1-.4-.2h-.1l-.1-.1-.2-.1-.4-.2-.7-.5c-.5-.3-1-.7-1.4-1-.9-.7-1.9-1.5-2.7-2.3a35.4 35.4 0 0 1-4.9-5.3c-1.4-2-2.7-4.2-3.3-6.7-.3-1.3-.5-2.6-.4-3.9l.1-1c0-.3.1-.6.2-.9l.2-.9c.1-.3.1-.6.2-.9 1.3-4.8 3.8-8.8 6.3-12.7 2.6-3.8 5.5-7.5 8.6-10.9.3-.3.7-.6 1.2-.6 1.9-.1 3.6.2 5.2.7 1.5.5 3 1.2 4.4 2.1 2.7 1.6 5.2 3.6 7.4 5.7 2.3 2.2 4.3 4.5 6 7.2.9 1.4 1.6 2.8 2.2 4.4.3.8.5 1.7.6 2.6.1.5.1 1 0 1.5 0 .2 0 .5-.1.7l-.1.6c-.4 1.7-1 3.2-1.6 4.6-.7 1.4-1.4 2.8-2.2 4.2-1.7 2.7-3.6 5.1-5.9 7.4-2.2 2.2-4.9 4.2-7.9 5.5-1.5.7-3.1 1.1-4.8 1.4l-.6.1h-2.5c-.2 0-.5 0-.7-.1-.6-.2-1.1-.2-1.6-.4zM234.5 314.3c-.4 0-.8-.1-1.2-.4-.3-.3-.6-.6-.7-1-.1-.4-.1-.8.1-1.2.2-.4.5-.7.9-.9.2-.1 22-11.1 29.4-30.1.2-.5.5-.8 1-1 .5-.2 1-.2 1.4 0 .5.2.8.5 1 1 .2.5.2 1 0 1.4-8 20.4-30.3 31.7-31.2 32.1-.1 0-.4.1-.7.1z"></path>
    <path class="st1" d="M257.5 244.8l3.3 1.3c.3.1.6.1.9 0 .3-.1.5-.4.6-.6l15.2-39.9c.1-.3.1-.6 0-.9-.1-.3-.4-.5-.6-.6l-3.3-1.3c-1.5-.6-3.1-.8-4.7-.8s-3.2.4-4.6 1.1c-1.4.7-2.8 1.6-3.8 2.7-1.1 1.2-1.9 2.5-2.5 4l-7.4 19.5c-.6 1.5-.8 3.1-.8 4.7s.4 3.2 1.1 4.6c.7 1.4 1.6 2.8 2.7 3.8s2.5 1.8 3.9 2.4z"></path>
    <path class="st4" d="M261.3 246.5c-.2 0-.4 0-.5-.1l-3.3-1.3c-3.1-1.2-5.6-3.5-6.9-6.5s-1.5-6.4-.3-9.5l7.4-19.5c.6-1.5 1.5-2.9 2.6-4.1 1.1-1.2 2.5-2.1 4-2.8 1.5-.7 3.1-1 4.7-1.1 1.6 0 3.3.2 4.8.8l3.3 1.3c.4.1.7.4.8.8.2.4.2.8 0 1.1l-15.2 39.9c-.1.3-.3.5-.6.7-.2.2-.5.3-.8.3zm-3.6-2.1l3.3 1.3c.2.1.4.1.6 0 .2-.1.3-.2.4-.4l15.2-39.9c.1-.2.1-.4 0-.6-.1-.2-.2-.3-.4-.4l-3.3-1.3c-2.9-1.1-6.1-1-9 .3-2.8 1.3-5.1 3.6-6.2 6.5l-7.4 19.5c-1.1 2.9-1 6.1.3 9s3.6 4.9 6.5 6z"></path>
    <g class="st2">
      <path class="st3" d="M254.1 219.9l-2.4 6.3c-1.4 3.8-1.3 8 .4 11.7 1.7 3.7 4.7 6.6 8.5 8 .4.1.8.1 1.1 0 .4-.2.6-.5.8-.8l4-10.5c-.2.2-.5.3-.7.4-.3.1-.6 0-.8-.1l-.9-.4c-3-1.1-5.5-3.2-7.3-5.8-1.9-2.5-2.8-5.7-2.7-8.8z"></path>
    </g>
    <path class="st4" d="M261.3 248c-.4 0-.7-.1-1.1-.2l-3.3-1.3c-7.2-2.7-10.9-10.9-8.1-18.1l7.4-19.5c2.7-7.2 10.9-10.9 18.1-8.1l3.3 1.3c.8.3 1.4.9 1.7 1.6.3.7.4 1.6.1 2.4L264.2 246c-.2.6-.6 1.1-1.1 1.4-.6.5-1.2.6-1.8.6zm-3.1-5l2.6 1 14.6-38.5-2.6-1c-2.5-1-5.3-.9-7.8.2s-4.4 3.1-5.3 5.7l-7.4 19.5c-1 2.5-.9 5.3.2 7.8 1.2 2.4 3.2 4.3 5.7 5.3z"></path>
    <path class="st1" d="M409.5 254.3l-3.3-1.3c-.1-.1-.3-.1-.4-.1-.2 0-.3 0-.4.1s-.3.2-.4.3c-.1.1-.2.2-.2.4l-15.2 39.9c-.1.3-.1.6 0 .9.1.3.4.5.6.6l3.3 1.3c1.5.6 3.1.8 4.7.8s3.2-.4 4.6-1.1c1.4-.7 2.8-1.6 3.8-2.7 1.1-1.2 1.9-2.5 2.5-4l7.4-19.5c.6-1.5.8-3.1.8-4.7s-.4-3.2-1.1-4.6c-.7-1.4-1.6-2.8-2.7-3.8-1.2-1.1-2.5-1.9-4-2.5z"></path>
    <path class="st4" d="M397.8 297.5c-1.5 0-3-.3-4.4-.8l-3.3-1.3c-.4-.1-.7-.4-.8-.8-.2-.4-.2-.8 0-1.1l15.2-39.9c.1-.4.4-.7.8-.8.4-.2.8-.2 1.1 0l3.3 1.3c3.1 1.2 5.6 3.5 6.9 6.5s1.5 6.4.3 9.5l-7.4 19.5c-.9 2.4-2.5 4.4-4.6 5.8-2.1 1.3-4.6 2.1-7.1 2.1zm7.9-44.2c-.2 0-.3.1-.5.1-.1.1-.2.2-.3.4l-15.2 39.9c-.1.2-.1.4 0 .6s.2.3.4.4l3.3 1.3c1.4.5 3 .8 4.5.8s3.1-.4 4.5-1 2.7-1.5 3.7-2.7c1.1-1.1 1.9-2.4 2.4-3.9l7.4-19.5c1.1-2.9 1-6.1-.3-9-1.3-2.8-3.6-5.1-6.5-6.2l-3.3-1.3c.1.1 0 .1-.1.1z"></path>
    <g class="st2">
      <path class="st3" d="M393.8 282.4l-4.1 10.9c-.1.4-.1.8 0 1.1.2.4.5.6.8.8 1.9.7 3.9 1.1 5.9 1 2-.1 4-.5 5.8-1.3 1.8-.8 3.5-2 4.9-3.5s2.5-3.2 3.2-5.1l2.1-5.7c-2.1 2.1-4.7 3.5-7.6 4.1-2.9.6-5.9.4-8.6-.7l-1.4-.5c-.2-.1-.5-.3-.6-.5-.3-.1-.4-.3-.4-.6z"></path>
    </g>
    <path class="st4" d="M397.8 299.1c-1.7 0-3.4-.3-5-.9l-3.3-1.3c-.4-.1-.7-.4-1-.6-.3-.3-.5-.6-.7-1-.2-.4-.3-.8-.3-1.2 0-.4.1-.8.2-1.2l15.2-39.9c.1-.4.4-.7.6-1 .3-.3.6-.5 1-.7.4-.2.8-.3 1.2-.3.4 0 .8.1 1.2.2l3.3 1.3c3.5 1.3 6.3 4 7.8 7.4 1.5 3.4 1.6 7.3.3 10.7l-7.4 19.5c-1 2.7-2.8 5-5.1 6.6-2.4 1.5-5.2 2.4-8 2.4zm-6.2-5.5l2.6 1c2.5 1 5.3.9 7.8-.2s4.4-3.1 5.3-5.7l7.4-19.5c1-2.5.9-5.3-.2-7.8s-3.1-4.4-5.7-5.3l-2.6-1-14.6 38.5z"></path>
    <g class="st2">
      <path class="st3" d="M358 326.1c-9 4.6-19 7-29.2 7.1-10.1.1-20.2-2.2-29.3-6.7-9.1-4.5-17.1-11-23.2-19-6.2-8-10.4-17.4-12.3-27.4 1.1 1.2 2.3 2.5 3.5 3.7-.2-1.5-.4-3-.6-4.4-.9-5 .7-5.1 1-10.2.3-5 19.1-5.2 38-2.2 13.9 2.9 34.2 5.6 38.1 16.9.2 2.5 1.4 5.7 2.2 8l2 19.5c2.6 3.6 6 8.8 9.8 14.7z"></path>
    </g>
    <path class="st1" d="M333.5 321.3c39.6 0 71.7-32.1 71.7-71.7s-32.1-71.7-71.7-71.7-71.7 32.1-71.7 71.7c0 39.5 32.1 71.7 71.7 71.7z"></path>
    <path class="st4" d="M333.5 321.6c-7 0-14-1-20.7-3.1-18.4-5.5-33.6-17.9-42.7-34.9-9.1-17-11.1-36.4-5.6-54.9 5.5-18.4 17.9-33.6 34.9-42.7 17-9.1 36.4-11.1 54.9-5.6 38.1 11.4 59.7 51.7 48.3 89.8-9.4 31.2-38.1 51.4-69.1 51.4zm-.1-143.5c-11.6 0-23.2 2.9-33.7 8.6-16.8 9-29.1 24.1-34.5 42.3-5.5 18.3-3.5 37.6 5.5 54.4 9 16.8 24.1 29.1 42.3 34.5 6.6 2 13.6 3 20.5 3 30.7 0 59.1-20 68.4-50.9 11.3-37.7-10.1-77.6-47.8-88.9-6.8-2-13.7-3-20.7-3z"></path>
    <g class="st2">
      <path class="st3" d="M268.3 219.6c-1.4 3-2.6 6.1-3.5 9.3-11.4 37.9 10.1 77.9 48.1 89.3 37.9 11.4 77.9-10.1 89.3-48.1l.9-3.3c-14.7 32.1-51.1 49.2-85.8 38.7-36.9-10.9-58.2-49-49-85.9z"></path>
    </g>
    <path class="st4" d="M333.5 323.2c-7.2 0-14.3-1.1-21.2-3.1-18.8-5.7-34.4-18.3-43.7-35.7-9.3-17.3-11.3-37.3-5.7-56.1 11.7-38.9 52.8-61 91.7-49.4 38.9 11.7 61 52.8 49.4 91.7-9.5 32-38.9 52.6-70.5 52.6zm0-143.5c-30 0-57.8 19.5-66.9 49.7-5.4 17.9-3.5 36.7 5.4 53.1 8.8 16.4 23.5 28.4 41.4 33.8 6.5 2 13.3 3 20 3 30 0 57.8-19.5 66.9-49.7 11.1-36.9-9.9-75.9-46.8-86.9-6.4-2-13.2-3-20-3z"></path>
    <path class="st4" d="M264.5 230.7c-4.2 13.4-3.8 27.2.3 39.8 3.1 9.5 21.7 30.2 49.9 39.4 26.1 8.5 54.4 2.1 62.4-3.8 10.7-7.9 19-19 23.2-32.4 11.2-35.4-14.5-59.7-52.1-71.6-37.4-11.8-72.5-6.8-83.7 28.6z"></path>
    <path class="st4" d="M342 316.1c-8.9 0-18.4-1.2-27.8-4.3-29.9-9.8-48.1-31.3-51.2-40.7-4.5-13.5-4.6-27.7-.3-41 5.5-17.4 16.7-28.6 33.4-33.3 14.5-4.1 32.8-2.9 52.9 3.5s35.8 15.9 45.2 27.6c10.9 13.4 13.6 29 8.1 46.4-4.2 13.3-12.5 24.9-23.9 33.3-5.6 4.2-19.7 8.5-36.4 8.5zm-27.5-117.8c-6.3 0-12.1.7-17.4 2.2-15.3 4.3-25.6 14.7-30.7 30.7-4 12.6-3.9 25.9.3 38.6 2.8 8.4 20.5 29 48.7 38.2 25.5 8.3 53 2.1 60.7-3.5 10.7-8 18.5-18.8 22.5-31.4 13.8-43.5-30.9-62.9-50.8-69.2-12-3.7-23.2-5.6-33.3-5.6z"></path>
    <g class="st8">
      <path class="st9" d="M297.2 234.1c.9-7-2.5-13.1-7.5-13.8-5-.6-9.8 4.5-10.7 11.4-.9 7 2.5 13.1 7.5 13.8 5 .7 9.8-4.5 10.7-11.4z"></path>
    </g>
    <g class="st8">
      <path class="st9" d="M291.3 266.1c2.8 0 5-2.7 4.9-5.9 0-3.2-2.3-5.8-5.1-5.8s-5 2.7-4.9 5.9c.1 3.3 2.4 5.8 5.1 5.8z"></path>
    </g>
    <g class="st5">
      <path class="st10" d="M288.2 201.9c-10.8 5.3-19.2 14.6-23.7 28.8-4.2 13.4-3.8 27.2.3 39.8 3.1 9.5 21.7 30.2 49.9 39.4 10 3.3 20.2 4.3 29.6 4.1-34.4-12.1-57-37.5-60.9-49.2-5.3-16-5.8-33.5-.4-50.5 1.3-4.3 3.1-8.4 5.2-12.4z"></path>
    </g>
    <path class="st4" d="M404.8 243.9c-.4 0-.8-.1-1.1-.3-.3-.2-.6-.5-.7-.9v-.1l-.1-.2c-6-20.2-25.2-36.8-52.6-45.5-27.3-8.6-52.4-6.4-69 6l-.2.2-.2.1c-.4.2-.9.2-1.4 0-.4-.2-.8-.5-1-.9-.2-.4-.3-.9-.2-1.4.1-.5.4-.9.8-1.1 17.6-13.2 44-15.6 72.4-6.6 28.6 9.1 48.7 26.6 55.2 48.1.1.3.1.6.1.9-.1.3-.2.6-.4.8-.2.2-.4.4-.7.6-.3.2-.6.3-.9.3z"></path>
    <g class="st8">
      <path class="st9" d="M378.5 290s22-31.5 7.6-51.3c-14.4-19.9-41.5-28.4-41.4-26.5 0 0 27.7 16.8 31.9 44.2 3.2 21.1 1.9 33.6 1.9 33.6z"></path>
    </g>
  </g>
  <path class="st11" d="M90.9 223.8c-.1.9 1.8 1.9 4.6 2.5.7.2 1.3.5 1.8 1.1.5.5.8 1.2.8 1.9.3 2.9 1 4.9 1.9 4.9.9.1 1.9-1.8 2.5-4.6.2-.7.5-1.3 1.1-1.8.5-.5 1.2-.8 1.9-.8 2.9-.3 4.9-1 4.9-1.9s-1.8-1.9-4.6-2.5c-.7-.2-1.3-.5-1.8-1.1-.5-.5-.8-1.2-.8-1.9-.3-2.9-1-4.9-1.9-4.9-.9-.1-1.9 1.8-2.5 4.6-.2.7-.5 1.3-1.1 1.8-.5.5-1.2.8-1.9.8-2.9.3-4.9.9-4.9 1.9z"></path>
  <path class="st12" d="M152.1 68.5c-1.7-.8-2.4-2.9-1.6-4.6.8-1.7 2.9-2.4 4.6-1.6 1.7.8 2.4 2.9 1.6 4.6s-2.8 2.5-4.6 1.6zM448.1 49.5c-1.7-.8-2.4-2.9-1.6-4.6s2.9-2.4 4.6-1.6c1.7.8 2.4 2.9 1.6 4.6-.8 1.7-2.8 2.5-4.6 1.6zM56.8 95.1c-.9-.5-1.3-1.6-.9-2.5.5-.9 1.6-1.3 2.5-.9.9.5 1.3 1.6.9 2.5-.4 1-1.5 1.4-2.5.9z"></path>
  <path class="st13" d="M502 330.5c1 .4 1.8 1.1 2.4 2 .6.9.8 1.9.7 3-.1 1.6-.1 2.9.1 3.7.1.3.1.6.2.7.1-.1.3-.3.5-.6.5-.7 1.1-1.8 1.7-3.3.4-1 1.1-1.8 2-2.4.9-.6 1.9-.8 3-.7 1.6.1 2.9.1 3.7-.1.3-.1.6-.1.7-.2-.1-.1-.3-.3-.6-.5-.7-.5-1.8-1.2-3.3-1.7-1-.4-1.8-1.1-2.4-2-.6-.9-.8-1.9-.7-3 .1-1.6.1-2.9-.1-3.7-.1-.3-.1-.6-.2-.7-.1.1-.3.3-.5.6-.5.7-1.1 1.8-1.7 3.3-.4 1-1.1 1.8-2 2.4l-.6-1 .6 1c-.9.6-1.9.8-3 .7-1.6-.1-2.8-.1-3.7.1-.3.1-.6.1-.7.2.1.1.3.3.6.5.7.5 1.9 1.1 3.3 1.7zm3.5 9.6zm-.3-.1zm12.1-7.5zm-.1.3zm-7.4-12.1zm.2.1c.1 0 .1 0 0 0 .1 0 .1 0 0 0zm-12 7.5zm0-.3z"></path>
</svg>
