<?xml version="1.0" encoding="UTF-8"?>
<svg xmlns="http://www.w3.org/2000/svg" xmlns:xlink="http://www.w3.org/1999/xlink" id="Camada_1" viewBox="0 0 513 420">
  <style>.st0{opacity:.1;fill:#22a7f0;enable-background:new}.st1{fill:#fff}.st2{clip-path:url(#SVGID_2_)}.st3{fill:#371a45}.st4,.st5{opacity:.35}.st5{fill:#371a45;enable-background:new}.st6,.st7,.st8{opacity:.5}.st7,.st8{fill:#fff;enable-background:new}.st8{opacity:.35;fill:#111a28}.st9{fill:#d66b09}.st10{fill:#22a7f0}.st11{fill:#ffda22}.st12,.st13{opacity:.7}.st13{fill:#fff;enable-background:new}.st14{fill:#8dd7ff}.st15{fill:#ffd527}.st16{fill:#e0e0e0}.st17{fill:none;stroke:#ffd527;stroke-width:2.3123}</style>
  <path class="st0" d="M382.7 345.1C422 313 447 264.1 447 209.4c0-96.8-78.5-175.2-175.3-175.2S96.4 112.7 96.4 209.5c0 54.7 25.1 103.5 64.3 135.7 32.7-.6 70.6-1 111-1s78.3.3 111 .9z"></path>
  <path class="st1" d="M455.2 318.4c2-4.4-3.7-45.6-43.7-47.4-7.9 0-15.7 1.9-22.7 5.8-6.6-5.9-15.5-9.9-25.5-10.9-3.6-17.4-21-30.5-41.8-30.5-7.3 0-14.5 1.6-21.1 4.9-2.1 1-4.5 1.1-6.8.4l-.4-.1c-2.1-.6-3.8-1.9-5-3.6-7.3-11.3-21.1-18.9-37-18.9-16.7 0-31.1 8.4-38.1 20.7-6.9-3.7-14.5-5.6-22.3-5.6-23.5 0-42.5 16.7-42.5 37.3 0 1.1.1 2.2.2 3.3-14.5 2.9-26.6 11.5-32.9 23-8.9-9.5-22.4-15.5-37.5-15.5-26.1 0-47.4 18.1-48.6 40.8-1.2-.1-2.5-.2-3.8-.2-16.7 0-30.2 11.9-30.2 26.5 0 .7 0 1.5.1 2.2h523c-5.5-18.5-30.1-42.1-63.4-32.2z"></path>
  <defs>
    <path id="SVGID_1_" d="M170.8 98.6h202.6v288H170.8z"></path>
  </defs>
  <clipPath id="SVGID_2_">
    <use xlink:href="#SVGID_1_" overflow="visible"></use>
  </clipPath>
  <g class="st2">
    <path class="st1" d="M328.1 295.4c-.9 10.1-9.3 18.1-19.8 18.1h-73.1c-10.1 0-18.3-7.5-19.7-17.1-.2-1.4-.2-2.9-.1-4.3l2.1-27.2 3.1-40.3c0-.6.1-1.1.2-1.7.8-4.6 3.2-8.9 6.7-11.9 3.6-3 8.1-4.7 12.8-4.7h62.6c4.6 0 9.1 1.6 12.6 4.5 3.6 2.9 6 7 6.9 11.5.1.7.2 1.5.3 2.2l3.1 39.9 2.1 27.5c.3 1.3.3 2.4.2 3.5z"></path>
    <path class="st3" d="M308.4 315.1h-73.1c-3 0-5.9-.6-8.6-1.8-2.7-1.2-5.1-2.9-7.1-5.1-2-2.2-3.5-4.7-4.5-7.5s-1.4-5.8-1.1-8.7l5.2-67.4c.9-11.1 10.3-19.8 21.4-19.8h62.6c11.1 0 20.5 8.7 21.4 19.8l5.2 67.4c.2 2.9-.2 5.9-1.1 8.7-1 2.8-2.5 5.4-4.5 7.5-2 2.2-4.4 3.9-7.1 5.1-2.9 1.2-5.8 1.8-8.7 1.8zM240.5 208c-9.5 0-17.5 7.4-18.2 16.8l-5.2 67.4c-.2 2.5.1 5 1 7.4.8 2.4 2.1 4.6 3.8 6.4 1.7 1.8 3.8 3.3 6.1 4.3s4.8 1.5 7.3 1.5h73.1c2.5 0 5-.5 7.3-1.5s4.4-2.5 6.1-4.3c1.7-1.8 3-4 3.8-6.4.8-2.4 1.2-4.9 1-7.4l-5.2-67.4c-.7-9.4-8.7-16.8-18.2-16.8h-62.7z"></path>
    <path class="st1" d="M371.7 255.4c-.4 4.7-2 9.3-6.1 12.7-16.3 13.8-43.1-2.3-53.3-16.7-.3-.5-3.9-7-7.5-14.9-5.7-12.7-11.5-28.8-4.1-28.8 12.1 0 35.4 36.4 56.6 28.7 8.7-3.2 9-3.5 9-3.5.1.1 6.2 11.7 5.4 22.5z"></path>
    <g class="st4">
      <path class="st5" d="M371.7 255.4c-.4 4.7-2 9.3-6.1 12.7-16.3 13.8-43.1-2.3-53.3-16.7-.3-.5-3.9-7-7.5-14.9.7-.1 1.5-.1 2.2-.1 14.2 0 20.1 30.9 46.5 29.2 9.2-.6 14.8-4.9 18.2-10.2z"></path>
    </g>
    <path class="st3" d="M350.7 275c-1.3 0-2.7-.1-4-.3-14.3-1.8-28.8-12.6-35.7-22.4-.2-.3-19.2-34.6-14.6-43.7.6-1.1 1.8-2.5 4.3-2.5 5.3 0 11.8 5.6 19.4 12.1 11 9.4 24.6 21.1 36.7 16.7 4-1.5 6.2-2.3 7.3-2.8l-1.5-2.8 5.3 2.5v.6c1.7 3.4 12.2 25.4-1.3 36.8-4.5 3.9-9.8 5.8-15.9 5.8zm-50-65.7c-1 0-1.3.4-1.5.8-.7 1.3-1.5 5.9 5.3 22 4 9.4 8.6 17.9 9 18.5 6.4 9 20.3 19.4 33.5 21.1 6.9.9 12.8-.7 17.5-4.7 10.6-9 3.4-26.9 1-31.9-1.5.6-4.1 1.6-7.7 2.9-13.8 5-28.3-7.3-39.8-17.3-6.8-5.9-13.2-11.4-17.3-11.4z"></path>
    <path class="st3" d="M342.2 273.9c-.2 0-.4 0-.6-.1-7.6-3-10-13-10.7-18.7-1.1-8.9.1-20.2 4.1-23.1l.6-.3c.2-.1.4-.1.6 0 .2 0 .4.1.6.2.2.1.3.3.5.4l.3.6c0 .2.1.4 0 .6 0 .2-.1.4-.2.6-.1.2-.3.3-.4.5-1.9 1.4-4 10.1-2.8 20.1 1.1 8.5 4.2 14.4 8.7 16.1.3.1.6.4.8.7.2.3.2.7.2 1.1s-.3.7-.5.9c-.4.2-.8.4-1.2.4z"></path>
    <path class="st1" d="M360.2 247.7c-9.8 4.7-13.5-.5-23.4-2-5.9-.9-15.6-.4-14.1-7.5.3-1.6 1.5-2.4 2.9-2.9 3.7-1.2 9.6-.3 11.2-2.8 2.3-3.3-1.6-8.8-5.7-12.3-4.3-3.7-7.9-7-5.9-10.4.7-1.1 1.5-1.8 2.4-2 .3-.1.7-.2 1.1-.2 1-.1 2.1.2 3.1.7 2.9 1.3 5.7 4.1 6.7 5l.1.1.2.2c-.2-.8-.3-1.6-.3-2.4 0-1.5.2-3.3 1.5-4.1 4.5-2.8 8.4 2.5 10.6 6.7.3.6.5 1.1.8 1.6 1.3 2.9 1.4 4.9 1.4 4.9s.3.1.7.2c2.2.7 8.7 3.2 11.4 8.1.3.5.5 1 .7 1.5 2.3 7 .9 14.6-5.4 17.6z"></path>
    <g class="st4">
      <path class="st5" d="M343.4 227s-6.5-14.7-15-18.9c-.3-.1-.5-.3-.7-.4.3-.1.7-.2 1.1-.2.8.1 2 .4 3.1.7 2.9 1.3 5.7 4.1 6.7 5 2.1 3.8 5 9.6 4.8 13.8z"></path>
    </g>
    <g class="st4">
      <path class="st5" d="M353.5 220.5l-3.2 3.9-4.6 3s-2.3 1-2.3-.8c0-5.5-2.9-10.3-4.9-13.2l.2.2c-.2-.8-.3-1.6-.3-2.4 4.7 3.2 4.6 10.3 7.5 8.4 2.9-1.9 3.1-4 5.4-4.2 1.3 2.9 1.4 4.9 1.4 4.9s.3 0 .8.2z"></path>
    </g>
    <g class="st4">
      <path class="st5" d="M360.2 247.7c-9.8 4.7-13.5-.5-23.4-2-5.9-.9-15.6-.4-14.1-7.5.3-1.6 1.5-2.4 2.9-2.9 0 2.1-1.9 4.5 3.9 6 9.5 2.4 14.6 2.4 17.7 1 5.4-2.4-2.5-8.6-2.1-13.9.4-4.9 15.5 1 15.5 1l4.3-.9c.3.5.5 1 .7 1.5 2.3 7.1.9 14.7-5.4 17.7z"></path>
    </g>
    <path class="st3" d="M351.4 251.2h-.1c-2.4-.2-4.6-1-6.9-1.8-2.3-.8-4.8-1.6-7.8-2.1-1-.2-2.1-.3-3.2-.4-4.3-.4-9.1-1-11.3-3.9-1-1.4-1.3-3.1-.9-5.1.9-4.2 5.5-4.6 9.2-5 2.2-.2 4.6-.4 5.2-1.3 1.6-2.3-1.6-7-5.4-10.3-4.4-3.8-9-7.8-6.2-12.4 1.3-2.2 3.1-2.9 4.4-3 3-.3 6.3 1.8 8.7 3.7.2-1.5.8-3.1 2.2-4 1.6-1 3.2-1.3 4.9-.8 2.8.8 5.5 3.5 7.9 8.1 1.4 2.6 1.9 4.7 2.2 6 2.8.9 10.7 4.1 12.9 10.5 1.3 3.8 1.5 7.8.6 11.2-1 3.8-3.4 6.7-6.8 8.4-.4.2-.8.2-1.2.1-.4-.1-.7-.4-.9-.8-.2-.4-.2-.8-.1-1.2.1-.4.4-.7.8-.9 2.6-1.2 4.3-3.4 5.1-6.3.8-2.8.6-6.1-.5-9.4-2.1-6.1-11.6-8.8-11.7-8.8-.3-.1-.6-.3-.8-.5-.2-.3-.3-.6-.4-.9 0 0-.2-2.5-2-5.8-2-3.7-4.1-6.1-5.9-6.6-.8-.2-1.6-.1-2.4.4-1 .6-.9 3.2-.6 4.8.1.3 0 .7-.1 1-.1.3-.4.6-.7.7-.3.2-.7.2-1 .2-.3-.1-.7-.2-.9-.5-2.1-2.3-6.3-5.8-9-5.5-.5.1-1.3.3-2 1.5-1.3 2.2 1.2 4.6 5.6 8.4 4.6 4 8.9 10.1 6 14.4-1.4 2.2-4.5 2.5-7.6 2.7-3.6.3-6 .7-6.4 2.5-.2 1.1-.1 2 .3 2.6 1.3 1.8 5.6 2.2 9 2.6 1.2.1 2.3.2 3.4.4 3.3.5 6 1.4 8.4 2.3 2.2.8 4.1 1.4 6.2 1.6.4 0 .8.2 1 .5.3.3.4.7.4 1.1s-.2.8-.5 1.1c-.4.3-.7.5-1.1.5z"></path>
    <path class="st3" d="M342.6 227v-.8c0-.3-.1-.6-.1-.8-.1-.6-.2-1.1-.4-1.7-.3-1.1-.7-2.2-1.1-3.3-.5-1.1-1-2.1-1.6-3.1l-.9-1.5-1-1.4v-.1l-.3-.6c0-.2-.1-.4 0-.6 0-.2.1-.4.2-.6.1-.2.3-.3.4-.4l.6-.3c.2 0 .4-.1.6 0 .2 0 .4.1.6.2.2.1.3.3.5.4l.1.1c.3.6.6 1.1.9 1.7.3.6.6 1.1.8 1.7.5 1.1 1 2.3 1.4 3.5.4 1.2.7 2.4.9 3.7.1.6.2 1.3.2 1.9v2c0 .2-.1.4-.3.5-.2.1-.4.2-.6.2-.2 0-.4-.1-.5-.2-.3-.1-.4-.3-.4-.5z"></path>
    <path class="st1" d="M359.7 224.3s-2.2 1.3-3.9 3.4c-1.7 2.1-2.5 5.8-6.4 5.1-2.7-.5-4.4-4.4-2.7-8.5.8-1.8 2.2-3.7 4.5-5.4 0 0 3.2-1.8 5.8-.2 1.7 1.1 2.3 2.5 2.6 3.7.2.6.2 1.3.1 1.9z"></path>
    <g class="st4">
      <path class="st5" d="M359.7 224.3s-2.2 1.3-3.9 3.4c-1.7 2.1-2.5 5.8-6.4 5.1-2.7-.5-4.4-4.4-2.7-8.5.7 1.3.6 4.3 2.6 4.5 2.8.3 4.6-7.6 10.3-6.4.2.6.2 1.3.1 1.9z"></path>
    </g>
    <path class="st3" d="M350.4 234.5c-.4 0-.8 0-1.2-.1-2.1-.4-3.8-2.2-4.4-4.8-.7-3.3.3-8.2 5.6-12l.1-.1c.2-.1 4-2.2 7.4-.1 4.2 2.6 3.3 7.1 3.3 7.3 0 .2-.1.4-.3.6-.1.2-.3.3-.5.4 0 0-2 1.2-3.4 3-.3.4-.6 1-1 1.5-.9 1.7-2.4 4.3-5.6 4.3zm1.7-14.3c-4 2.9-4.8 6.4-4.3 8.6.3 1.3 1 2.2 1.9 2.4 1.7.3 2.4-.5 3.7-2.7.4-.6.7-1.3 1.2-1.8 1.2-1.6 2.7-2.7 3.6-3.3 0-.8-.3-2.3-1.9-3.4-1.7-1-3.8 0-4.2.2z"></path>
    <path class="st1" d="M365.5 229.6c-.1.5-.1 1-.3 1.5 0 0-1.2-.4-2.9 1.7s-1.8 3.8-5 3.6c-2.1-.1-4.3-2.6-3.8-5.7.3-1.9 1.6-4 4.4-6 0 0 3.2-1.9 5.8-.2 1.8 1.2 1.9 3.6 1.8 5.1z"></path>
    <g class="st4">
      <path class="st5" d="M365.5 229.6c-.1.5-.1 1-.3 1.5 0 0-1.2-.4-2.9 1.7s-1.8 3.8-5 3.6c-2.1-.1-4.3-2.6-3.8-5.7 1.9.7.9 3.2 3.9 3 2.6-.2 3.4-8.4 8.1-4.1z"></path>
    </g>
    <path class="st3" d="M357.7 238h-.5c-2.2-.1-4.3-1.9-5.1-4.4-.5-1.7-1-6 4.8-10.2l.1-.1c.2-.1 4.1-2.3 7.5-.1 3.8 2.5 2.2 8.1 2.1 8.3-.1.4-.4.7-.7.9-.3.2-.7.3-1.1.2-.2 0-.7.3-1.4 1.1l-.9 1.2c-.8 1.6-1.8 3.1-4.8 3.1zm1.1-12c-2.9 2.1-4.2 4.5-3.5 6.7.4 1.3 1.4 2.1 2.2 2.1 1.6.1 1.8-.2 2.7-1.6.3-.4.6-.9 1-1.5 1-1.3 2-1.9 2.8-2.2.2-1.2.2-3-1-3.8-1.7-.9-3.9.1-4.2.3z"></path>
    <path class="st1" d="M172.5 255.4c.4 4.7 2 9.3 6.1 12.7 16.3 13.8 43-2.3 53.3-16.7.3-.5 3.9-7 7.5-14.9 5.7-12.7 11.5-28.8 4.1-28.8-12.1 0-35.4 36.4-56.6 28.7-8.7-3.2-9-3.5-9-3.5-.1.1-6.2 11.7-5.4 22.5z"></path>
    <g class="st4">
      <path class="st5" d="M172.5 255.4c.4 4.7 2 9.3 6.1 12.7 16.3 13.8 43-2.3 53.3-16.7.3-.5 3.9-7 7.5-14.9-.7-.1-1.5-.1-2.2-.1-14.2 0-20.1 30.9-46.5 29.2-9.3-.6-14.9-4.9-18.2-10.2z"></path>
    </g>
    <path class="st3" d="M193.5 275c-6.1 0-11.4-1.9-15.9-5.7-13.5-11.4-3-33.5-1.3-36.8v-.6l5.3-2.5-1.5 2.8c1.2.5 3.3 1.3 7.3 2.8 12.1 4.4 25.7-7.3 36.7-16.7 7.6-6.5 14.1-12.1 19.4-12.1 2.5 0 3.7 1.4 4.3 2.5 4.7 9.1-14.4 43.4-14.6 43.7-7 9.8-21.5 20.6-35.7 22.4-1.3.1-2.7.2-4 .2zm-14.9-40c-2.3 5.1-9.6 23 1 31.9 4.7 4 10.6 5.5 17.5 4.7 13.2-1.7 27.1-12.1 33.5-21.1.4-.6 5-9.1 9-18.5 6.8-16.1 6-20.7 5.3-22-.2-.4-.5-.8-1.5-.8-4.1 0-10.5 5.5-17.3 11.3-9.7 8.4-21.5 18.4-33.2 18.4-2.3 0-4.5-.4-6.6-1.2-3.6-1.1-6.2-2.1-7.7-2.7z"></path>
    <path class="st3" d="M201.9 273.9c-.4 0-.7-.1-1-.4-.3-.2-.5-.6-.5-.9s0-.7.2-1.1c.2-.3.5-.6.8-.7 4.5-1.8 7.7-7.6 8.7-16.1 1.3-10-.8-18.7-2.8-20.1-.2-.1-.3-.3-.4-.5-.1-.2-.2-.4-.2-.6v-.6c0-.2.1-.4.3-.6.1-.2.3-.3.5-.4.2-.1.4-.2.6-.2h.6c.2 0 .4.1.6.3 3.9 2.9 5.2 14.2 4.1 23.1-.7 5.7-3.1 15.7-10.7 18.7-.4 0-.6.1-.8.1z"></path>
    <path class="st1" d="M184 247.7c9.8 4.7 13.5-.5 23.4-2 5.9-.9 15.6-.4 14.1-7.5-.3-1.6-1.5-2.4-2.9-2.9-3.7-1.2-9.6-.3-11.2-2.8-2.3-3.3 1.6-8.8 5.7-12.3 4.3-3.7 7.9-7 5.9-10.4-.7-1.1-1.5-1.8-2.4-2-.3-.1-.7-.2-1.1-.2-1-.1-2.1.2-3.1.7-2.9 1.3-5.7 4.1-6.7 5l-.1.1-.2.2c.2-.8.3-1.6.3-2.4 0-1.5-.2-3.3-1.5-4.1-4.5-2.8-8.4 2.5-10.6 6.7-.3.6-.5 1.1-.8 1.6-1.3 2.9-1.4 4.9-1.4 4.9s-.3.1-.7.2c-2.2.7-8.7 3.2-11.4 8.1-.3.5-.5 1-.7 1.5-2.4 7-.9 14.6 5.4 17.6z"></path>
    <g class="st4">
      <path class="st5" d="M200.8 227s6.5-14.7 15-18.9c.3-.1.5-.3.7-.4-.3-.1-.7-.2-1.1-.2-.8.1-2 .4-3.1.7-2.9 1.3-5.7 4.1-6.7 5-2.2 3.8-5.1 9.6-4.8 13.8z"></path>
    </g>
    <g class="st4">
      <path class="st5" d="M190.7 220.5l3.1 3.9 4.6 3s2.3 1 2.3-.8c0-5.5 2.9-10.3 4.9-13.2l-.2.2c.2-.8.3-1.6.3-2.4-4.7 3.2-4.6 10.3-7.5 8.4-2.9-1.9-3.1-4-5.4-4.2-1.3 2.9-1.4 4.9-1.4 4.9s-.3 0-.7.2z"></path>
    </g>
    <g class="st4">
      <path class="st5" d="M184 247.7c9.8 4.7 13.5-.5 23.4-2 5.9-.9 15.6-.4 14.1-7.5-.3-1.6-1.5-2.4-2.9-2.9 0 2.1 1.9 4.5-3.9 6-9.5 2.4-14.6 2.4-17.7 1-5.4-2.4 2.5-8.6 2.1-13.9-.4-4.9-15.5 1-15.5 1l-4.3-.9c-.3.5-.5 1-.7 1.5-2.4 7.1-.9 14.7 5.4 17.7z"></path>
    </g>
    <path class="st3" d="M192.8 251.2c-.4 0-.8-.2-1.1-.4-.3-.3-.5-.7-.5-1.1 0-.4.1-.8.4-1.1s.6-.5 1-.5c2-.2 3.9-.9 6.2-1.6 2.4-.8 5-1.7 8.4-2.3 1.1-.2 2.2-.3 3.4-.4 3.4-.4 7.7-.8 9-2.6.5-.6.6-1.5.3-2.6-.4-1.8-2.8-2.1-6.4-2.5-3-.3-6.1-.6-7.6-2.8-2.9-4.3 1.4-10.4 6-14.4 4.3-3.8 6.9-6.2 5.6-8.4-.7-1.2-1.5-1.4-2-1.5-2.7-.3-6.9 3.2-9 5.5-.2.3-.6.4-.9.5-.3.1-.7 0-1-.2-.3-.2-.6-.4-.7-.7-.1-.3-.2-.7-.1-1 .4-1.6.4-4.2-.6-4.8-.8-.5-1.6-.7-2.4-.4-1.9.5-4 2.8-5.9 6.6-1.8 3.3-2 5.8-2 5.8 0 .3-.2.6-.4.9-.2.2-.5.4-.8.5-.1 0-9.6 2.7-11.7 8.8-1.1 3.3-1.3 6.6-.5 9.4.8 2.9 2.6 5.1 5.1 6.3.2.1.4.2.5.4.1.2.2.3.3.5.1.2.1.4.1.6 0 .2-.1.4-.2.6-.1.2-.2.4-.4.5-.2.1-.3.2-.5.3-.2.1-.4.1-.6.1-.2 0-.4-.1-.6-.2-3.4-1.7-5.8-4.5-6.8-8.4-.9-3.4-.7-7.4.6-11.2 2.2-6.4 10-9.6 12.9-10.5.2-1.2.8-3.4 2.2-6 2.5-4.6 5.1-7.4 7.9-8.1 1.7-.5 3.3-.2 4.9.8 1.4.9 2 2.4 2.2 4 2.3-1.9 5.6-4 8.7-3.7 1.3.1 3.1.7 4.4 3 2.8 4.6-1.8 8.6-6.2 12.4-3.8 3.3-7 8-5.4 10.2.6.9 3.1 1.2 5.2 1.4 3.7.3 8.3.8 9.2 5 .4 2 .1 3.7-.9 5.1-2.1 2.9-7 3.5-11.3 3.9-1.2.1-2.3.2-3.2.4-3.1.5-5.5 1.3-7.8 2.1s-4.5 1.6-6.9 1.8h-.1z"></path>
    <path class="st3" d="M200 227.1c-.1-.7-.1-1.3 0-2 0-.6.1-1.3.2-1.9.2-1.2.5-2.5.9-3.7.4-1.2.8-2.4 1.4-3.5.3-.6.6-1.1.8-1.7.3-.6.6-1.1.9-1.7.2-.4.5-.6 1-.8.4-.1.8-.1 1.2.1.4.2.6.5.8 1 .1.4.1.8-.1 1.2 0 .1-.1.1-.1.1v.1l-1 1.4-.9 1.5c-.6 1-1.1 2-1.6 3.1s-.8 2.1-1.1 3.3c-.1.6-.3 1.1-.4 1.7-.1.3-.1.6-.1.8v.9c0 .2-.1.4-.2.5-.1.1-.3.2-.5.2s-.4-.1-.6-.2c-.5 0-.6-.2-.6-.4z"></path>
    <path class="st1" d="M184.4 224.3s2.2 1.3 3.9 3.4c1.7 2.1 2.5 5.8 6.4 5.1 2.7-.5 4.4-4.4 2.7-8.5-.8-1.8-2.2-3.7-4.5-5.4 0 0-3.2-1.8-5.8-.2-1.7 1.1-2.3 2.5-2.6 3.7-.1.6-.2 1.3-.1 1.9z"></path>
    <g class="st4">
      <path class="st5" d="M184.4 224.3s2.2 1.3 3.9 3.4c1.7 2.1 2.5 5.8 6.4 5.1 2.7-.5 4.4-4.4 2.7-8.5-.7 1.3-.6 4.3-2.6 4.5-2.8.3-4.6-7.6-10.3-6.4-.1.6-.2 1.3-.1 1.9z"></path>
    </g>
    <path class="st3" d="M193.8 234.5c-3.2 0-4.7-2.5-5.7-4.3-.3-.6-.6-1.1-1-1.5-1.4-1.8-3.4-3-3.4-3-.2-.1-.4-.3-.5-.4l-.3-.6c0-.2-.9-4.7 3.3-7.3 3.4-2.1 7.3 0 7.4.1.1 0 .1.1.1.1 5.3 3.8 6.4 8.7 5.6 12-.6 2.6-2.3 4.4-4.4 4.8-.3 0-.7.1-1.1.1zm-7.8-11.1c.9.6 2.4 1.7 3.6 3.3l1.2 1.8c1.3 2.2 1.9 3 3.7 2.7.9-.2 1.6-1.1 1.9-2.4.5-2.3-.3-5.8-4.3-8.6-.4-.2-2.5-1.2-4.1-.2-1.8 1.1-2 2.6-2 3.4z"></path>
    <path class="st1" d="M178.7 229.6c0 .5.1 1 .3 1.5 0 0 1.2-.4 2.9 1.7s1.8 3.8 5 3.6c2.1-.1 4.3-2.6 3.8-5.7-.3-1.9-1.6-4-4.4-6 0 0-3.2-1.9-5.8-.2-1.9 1.2-2 3.6-1.8 5.1z"></path>
    <g class="st4">
      <path class="st5" d="M178.7 229.6c0 .5.1 1 .3 1.5 0 0 1.2-.4 2.9 1.7s1.8 3.8 5 3.6c2.1-.1 4.3-2.6 3.8-5.7-1.9.7-.9 3.2-3.9 3-2.6-.2-3.5-8.4-8.1-4.1z"></path>
    </g>
    <path class="st3" d="M186.5 238c-3.1 0-4.1-1.5-5-3-.3-.4-.5-.8-.9-1.2-.4-.5-1.2-1.2-1.2-1.2-.2.1-.4.1-.6.1-.2 0-.4-.1-.6-.2-.2-.1-.4-.2-.5-.4l-.3-.6c-.1-.2-1.6-5.8 2.1-8.3 3.4-2.2 7.3 0 7.5.1l.1.1c5.8 4.2 5.3 8.5 4.8 10.2-.7 2.5-2.8 4.3-5.1 4.4h-.3zm-6.2-8.4c.8.3 1.8.9 2.8 2.2.4.5.7 1 1 1.5.9 1.3 1.1 1.6 2.7 1.6.8 0 1.8-.8 2.2-2.1.6-2.2-.7-4.6-3.5-6.7-.4-.2-2.5-1.2-4.1-.2-1.3.7-1.3 2.6-1.1 3.7z"></path>
    <path class="st1" d="M214.6 296.6c2.6-16 8.3-46.4 17.3-70.7 3.6-9.6 13.3-16.1 24.2-16.1h31.7c10.9 0 20.6 6.5 24.2 16.1 9 24.3 14.7 54.7 17.3 70.7 1.2 7.2-3.2 14.2-10.6 16.7-9.3 3.2-24.3 6.5-46.8 6.5s-37.5-3.3-46.7-6.5c-7.3-2.5-11.7-9.5-10.6-16.7z"></path>
    <path class="st3" d="M316.2 236.8c2.4 5 4 10.2 5.5 15.4 1.5 5.2 2.7 10.6 3.8 15.9.6 2.7 1.1 5.3 1.6 8s1 5.3 1.5 8 1 5.4 1.4 8l.7 4c.2 1.4.3 3 .1 4.5-.2 1.5-.5 3-1.1 4.3-.6 1.4-1.3 2.7-2.2 3.9-.9 1.2-2 2.2-3.1 3.1-1.2.9-2.5 1.6-3.8 2.3-1.4.6-2.7 1-4 1.4-1.3.4-2.6.8-4 1.1-2.7.7-5.3 1.3-8 1.8-5.4 1-10.8 1.7-16.3 2.2-5.5.5-10.9.6-16.4.6-5.5 0-10.9-.2-16.4-.6-5.5-.4-10.9-1.1-16.3-2.2-2.7-.5-5.4-1.1-8-1.8-1.3-.4-2.7-.7-4-1.1-1.3-.4-2.6-.8-4-1.4-1.4-.6-2.6-1.4-3.8-2.3-1.2-.9-2.2-2-3.1-3.2-.9-1.2-1.6-2.5-2.2-3.9-.5-1.4-.9-2.9-1.1-4.4-.2-1.5 0-3 .2-4.5l.7-4c.5-2.7.9-5.4 1.4-8 1-5.3 2.1-10.7 3.2-16 .6-2.7 1.2-5.3 1.8-8 .3-1.3.6-2.7.9-4 .3-1.3.6-2.7.9-4 .6-2.6 1.4-5.3 2.3-7.9.2-.6.5-1.3.7-1.9.2-.6.5-1.3.8-1.9.5-1.3 1.1-2.5 1.8-3.7.1-.1.1-.2.3-.2s.2-.1.4 0 .2.1.3.2c.1.1.1.2.1.3-.1 1.4-.3 2.7-.6 4.1-.1.7-.2 1.3-.4 2-.1.7-.3 1.3-.4 2-.6 2.6-1.3 5.3-2 7.9-.7 2.6-1.4 5.2-2 7.8-.6 2.6-1.2 5.3-1.8 7.9-1.2 5.3-2.2 10.6-3.2 15.9-.5 2.7-1 5.3-1.4 8l-.7 4c-.1.3-.1.6-.1.9 0 .3-.1.6-.1.9v.9l.1.9c.1 1.2.4 2.4.9 3.5s1.1 2.2 1.8 3.2c.8 1 1.6 1.8 2.6 2.6 1 .7 2 1.4 3.2 1.9 1.1.5 2.4.9 3.7 1.3 1.3.4 2.6.8 3.8 1.1 2.6.7 5.2 1.3 7.8 1.8 5.3 1 10.6 1.7 16 2.1a216.533 216.533 0 0 0 32.2 0c5.4-.4 10.7-1.1 16-2.1 2.6-.5 5.2-1.1 7.8-1.8 1.3-.3 2.6-.7 3.8-1.1 1.3-.4 2.6-.8 3.7-1.3s2.2-1.1 3.2-1.9c1-.8 1.8-1.6 2.6-2.6.7-1 1.3-2 1.8-3.2.4-1.1.7-2.3.9-3.5.1-1.2.1-2.4-.1-3.6l-.7-4c-.5-2.7-.9-5.3-1.4-8-.5-2.7-1-5.3-1.5-8s-1.1-5.3-1.7-7.9c-1.2-5.3-2.5-10.5-3.7-15.8-1.3-5.3-2.5-10.5-3.4-15.9 0-.1 0-.2.1-.3.1-.1.2-.2.3-.2h.4c-.2.3-.1.4-.1.5z"></path>
    <path class="st1" d="M332.7 179.1c-.2 0-.3 0-.5-.1s-.3-.1-.4-.3c-.1-.1-.2-.2-.3-.4-.1-.2-.1-.3-.1-.5l-1.7-36.4c0-.2 0-.3.1-.5s.1-.3.3-.4c.1-.1.2-.2.4-.3.2-.1.3-.1.5-.1 3.5-.2 7 1.1 9.6 3.5 2.6 2.4 4.2 5.7 4.3 9.2l.6 12.4c.1 1.7-.2 3.5-.8 5.1-.6 1.6-1.5 3.2-2.7 4.4-1.2 1.3-2.6 2.3-4.2 3.1-1.6.8-3.4 1.3-5.1 1.3z"></path>
    <path class="st3" d="M332.6 179.4c-.4 0-.8-.2-1.1-.4-.3-.3-.5-.7-.5-1.1l-1.7-36.4c0-.2 0-.4.1-.6.1-.2.2-.4.3-.5.1-.2.3-.3.5-.4s.4-.1.6-.1c1.8-.1 3.6.2 5.2.8 1.7.6 3.2 1.5 4.5 2.7 1.3 1.2 2.4 2.7 3.1 4.3.8 1.6 1.2 3.4 1.3 5.1l.6 12.4c.5 7.5-5.3 13.9-12.9 14.2.1 0 .1 0 0 0zm-1.1-38.9h-.6c-.3 0-.5.1-.7.3-.2.2-.3.4-.3.7l1.7 36.4c0 .3.1.5.3.7.2.2.4.3.7.3 7.2-.3 12.7-6.4 12.4-13.6l-.6-12.4c-.2-3.3-1.6-6.5-4-8.8-2.3-2.3-5.5-3.6-8.9-3.6z"></path>
    <g class="st4">
      <path class="st5" d="M345.1 159.4l.3 5.8c.2 3.5-1.1 7-3.5 9.6-2.4 2.6-5.7 4.2-9.2 4.3-.3 0-.7-.1-.9-.3-.2-.2-.4-.5-.4-.9l-.4-9.7c.1.2.3.4.5.5s.5.2.7.2h.9c2.8-.1 5.4-1.1 7.6-2.8 2-1.7 3.6-4 4.4-6.7z"></path>
    </g>
    <path class="st3" d="M332.6 180.8c-.8 0-1.5-.3-2-.8s-.9-1.2-.9-2l-1.7-36.4c0-.4 0-.8.2-1.1.1-.4.3-.7.6-1 .3-.3.6-.5.9-.7.3-.2.7-.3 1.1-.3 4-.2 7.8 1.2 10.8 3.9 2.9 2.7 4.7 6.4 4.9 10.4l.6 12.4c.4 8.2-6 15.2-14.2 15.6h-.3zm-1.2-39l1.6 35.6c6.2-.5 11-5.8 10.7-12.1l-.6-12.4c-.1-3-1.4-5.8-3.6-7.9-2.2-2.1-5.1-3.2-8.1-3.2z"></path>
    <path class="st1" d="M210.7 145.7c.2 0 .3 0 .5.1s.3.1.4.3c.1.1.2.2.3.4.1.2.1.3.1.5l1.7 36.4c0 .2 0 .3-.1.5s-.1.3-.3.4c-.1.1-.2.2-.4.3-.2.1-.3.1-.5.1-3.5.2-7-1.1-9.6-3.5-2.6-2.4-4.2-5.7-4.3-9.2l-.6-12.4c-.1-1.7.2-3.5.8-5.1.6-1.6 1.5-3.1 2.7-4.4 1.2-1.3 2.6-2.3 4.2-3.1 1.6-.8 3.3-1.2 5.1-1.3z"></path>
    <path class="st3" d="M211.8 185c-3.5 0-6.8-1.4-9.4-3.8-2.5-2.4-4-5.7-4.2-9.2l-.6-12.4c-.3-7.5 5.5-13.8 12.9-14.2.4 0 .8.1 1.1.4.3.3.5.7.5 1.1l1.7 36.4c0 .4-.1.8-.4 1.1-.3.3-.7.5-1.1.5-.1.1-.3.1-.5.1zm-1.1-39c-7.2.3-12.7 6.4-12.4 13.6l.6 12.4c.2 3.4 1.7 6.7 4.2 9s5.9 3.5 9.3 3.4c.3 0 .5-.1.7-.3.2-.2.3-.4.3-.7l-1.7-36.4c0-.2-.1-.5-.3-.7-.2-.2-.4-.3-.7-.3z"></path>
    <g class="st4">
      <path class="st5" d="M213.2 173.2l.5 10.1c0 .3-.1.7-.3.9-.2.2-.5.4-.9.4-1.7.1-3.5-.2-5.1-.8-1.6-.6-3.1-1.5-4.4-2.7-1.3-1.2-2.3-2.6-3.1-4.2-.7-1.6-1.2-3.3-1.2-5l-.2-5.2c1.2 2.3 3 4.2 5.2 5.5 2.2 1.3 4.7 1.9 7.3 1.8l1.3-.1c.2 0 .5-.1.6-.2 0-.1.2-.3.3-.5z"></path>
    </g>
    <path class="st3" d="M211.8 186.3c-3.8 0-7.5-1.5-10.3-4.1-2.8-2.7-4.4-6.3-4.6-10.1l-.6-12.4c-.4-8.2 6-15.2 14.2-15.6.4 0 .8 0 1.1.2.4.1.7.3 1 .6.3.3.5.6.7.9.2.3.3.7.3 1.1l1.7 36.4c0 .4 0 .8-.2 1.1-.1.4-.3.7-.6 1-.3.3-.6.5-.9.7-.3.2-.7.3-1.1.3-.2-.1-.4-.1-.7-.1zm-1.5-38.9c-6.2.5-11 5.8-10.7 12.1l.6 12.4c.1 3 1.4 5.9 3.6 7.9 2.2 2.1 5.1 3.2 8.1 3.2l-1.6-35.6z"></path>
    <g class="st4">
      <path class="st5" d="M318.6 210.6c-1 1.2-2 2.3-3.1 3.3-1.5 1.5-3.1 2.9-4.8 4.3-11.8 9.6-26.8 14.4-42 13.7-15.2-.7-29.6-7-40.5-17.7-1.2-1.1-2.3-2.3-3.4-3.6 3.8-3.6 8.9-5.6 14.1-5.5h65.6c5.3.1 10.3 2 14.1 5.5z"></path>
    </g>
    <path class="st1" d="M271.7 224.6c34.3 0 62.2-27.8 62.2-62.1s-27.8-62.1-62.2-62.1c-34.3 0-62.2 27.8-62.2 62.1 0 34.2 27.9 62.1 62.2 62.1z"></path>
    <path class="st3" d="M271.7 224.9h-1.6c-16.7-.4-32.2-7.3-43.7-19.4-11.5-12.1-17.6-27.9-17.2-44.6.4-16.7 7.3-32.2 19.4-43.7 12.1-11.5 27.9-17.6 44.6-17.2 16.7.4 32.2 7.3 43.7 19.4s17.6 27.9 17.2 44.6c-.8 33.9-28.7 60.9-62.4 60.9zm-.1-124.3c-15.9 0-31 6-42.6 17-12 11.4-18.8 26.7-19.2 43.3-.9 34.1 26.2 62.5 60.3 63.4h1.6c33.4 0 61-26.7 61.8-60.3h.3-.3c.4-16.5-5.6-32.2-17-44.2s-26.8-18.8-43.3-19.2h-1.6z"></path>
    <g class="st4">
      <path class="st5" d="M333.4 155.4c.3 2.9.5 5.7.4 8.6-.9 34.3-29.4 61.4-63.7 60.6s-61.4-29.4-60.6-63.7c0-1 .1-2 .1-2.9 3.4 30.3 28.8 54.3 60.2 55.1 33.4.7 61.3-24.8 63.6-57.7z"></path>
    </g>
    <path class="st3" d="M271.7 226.2h-1.6c-17-.4-32.9-7.5-44.6-19.8-11.7-12.3-18-28.5-17.6-45.6.4-17 7.5-32.9 19.8-44.6 12.4-11.7 28.5-18 45.6-17.6 17 .4 32.9 7.5 44.6 19.8s18 28.5 17.6 45.6c-.9 34.7-29.3 62.2-63.8 62.2zm-.1-124.3c-15.6 0-30.3 5.9-41.6 16.7-11.7 11.1-18.4 26.2-18.8 42.3-.8 33.3 25.6 61.1 59 62 33.3.8 61.2-25.6 62-58.9h1.7-1.7c.8-33.3-25.6-61.1-59-62-.5-.1-1-.1-1.6-.1z"></path>
    <path class="st3" d="M333.6 165.6c-.1 12.2-4.2 23.4-11 32.7-5.1 7-26.1 19-51.8 19-23.8 0-45.4-12.9-50.4-20-6.7-9.4-10.5-20.7-10.4-32.9.3-32.2 28.1-45.2 62.2-44.9 34.2.3 61.7 13.9 61.4 46.1z"></path>
    <path class="st3" d="M270.9 218.9c-24.8 0-46.6-13.3-51.8-20.7-7.1-10-10.8-21.8-10.7-33.9.2-15.8 6.6-27.9 19.2-36 11-7.1 26.4-10.7 44.7-10.5 18.3.2 33.6 4.1 44.5 11.4 12.4 8.4 18.6 20.6 18.5 36.4-.1 12.1-4 23.8-11.4 33.7-5.1 6.8-25.8 19.6-53 19.6zm.2-97.8c-18.6 0-59 4.5-59.4 43.3-.1 11.4 3.4 22.5 10.1 31.9 4.8 6.7 25.8 19.3 49 19.3h.1c25.7 0 45.8-12.1 50.3-18.3 6.9-9.3 10.6-20.3 10.7-31.7.1-14.6-5.6-25.9-17-33.6-10.3-6.9-25-10.7-42.7-10.8-.3-.1-.7-.1-1.1-.1z"></path>
    <g class="st6">
      <path class="st7" d="M321.4 162.5c1.1-6-1.4-11.5-5.8-12.3-4.3-.8-8.8 3.3-9.9 9.3-1.1 6 1.4 11.5 5.8 12.3 4.3.8 8.7-3.3 9.9-9.3z"></path>
    </g>
    <g class="st6">
      <path class="st7" d="M307.7 184.1c.9-2.6-.2-5.4-2.5-6.2-2.3-.8-4.8.7-5.7 3.4-.9 2.6.2 5.4 2.5 6.2 2.2.7 4.8-.8 5.7-3.4z"></path>
    </g>
    <g class="st4">
      <path class="st8" d="M321.9 135.4c7.5 7.3 11.8 17.2 11.7 30.1-.1 12.2-4.2 23.4-11 32.7-5.1 7-26.1 19-51.8 19-9.1 0-17.8-1.9-25.4-4.6 31.6-.6 57.1-15.4 63.4-24.1 8.7-11.8 13.8-26.1 14-41.5 0-3.8-.3-7.7-.9-11.6z"></path>
    </g>
    <path class="st3" d="M328.6 139c-.4 0-.8-.1-1.1-.4l-.1-.1-.1-.2c-10.3-14.8-30.4-23.4-55.2-23.6H271c-24.4 0-44.3 8.4-54.6 23.3l-.1.1c-.3.3-.7.5-1.1.6-.4 0-.9-.1-1.2-.3-.3-.3-.6-.7-.6-1.1-.1-.4.1-.9.3-1.2 11.1-15.9 32.3-24.9 58.4-24.6 25.8.3 46.9 9.3 57.8 24.9.2.2.3.5.4.9 0 .3 0 .6-.1.9-.1.3-.3.5-.6.7-.4 0-.7.1-1 .1z"></path>
    <g class="st6">
      <path class="st7" d="M223.7 183.6s-9.7-31.8 7.6-44.3c17.2-12.5 41.9-12.2 41.3-10.6 0 0-27.3 6.3-38.2 27.8-8.4 16.5-10.7 27.1-10.7 27.1z"></path>
    </g>
    <path class="st1" d="M297.9 252c11-.5 16.8 1 22.6 4 3.6 1.9 6.6 4.3 6.7 11 .1 4.9-2.9 7.4-2.9 7.4s-12.9-6.8-28.7-6.2c-3.5.1-3.8-15.9 2.3-16.2z"></path>
    <g class="st4">
      <path class="st5" d="M327.2 267c.1 4.9-2.9 7.4-2.9 7.4s-12.9-6.8-28.7-6.2c-2 .1-3-5.4-2.2-10 .4 2.1 1.1 3.5 2.2 3.5 11-.4 20.7 2.8 25.5 4.8 2.4 1 5.1-.3 5.8-2.8v-.1c.2 1.1.3 2.3.3 3.4z"></path>
    </g>
    <path class="st3" d="M324.4 276.3l-.9-.5c-.1-.1-12.8-6.6-27.9-6h-.1c-2.3 0-3.8-2.8-4-7.4-.2-5.6 1.6-11.7 6.3-12 11.8-.5 17.7 1.2 23.4 4.2 4.4 2.3 7.4 5.3 7.5 12.4.1 5.6-3.4 8.5-3.5 8.6l-.8.7zm-26.9-9.7c12.7 0 23.1 4.4 26.5 5.9.7-.9 1.8-2.7 1.7-5.4-.1-6.2-2.7-8.1-5.8-9.7-5.2-2.7-10.7-4.3-21.8-3.8-1.4.1-2.2 1.9-2.6 3.1-1.2 3.9-.5 9 .3 10 .5-.1 1.1-.1 1.7-.1z"></path>
    <path class="st1" d="M246 252c-11-.5-16.8 1-22.6 4-3.6 1.9-6.6 4.3-6.7 11-.1 4.9 2.9 7.4 2.9 7.4s12.9-6.8 28.7-6.2c3.5.1 3.9-15.9-2.3-16.2z"></path>
    <path class="st3" d="M219.5 276.3l-.8-.7c-.1-.1-3.6-3-3.5-8.6.1-7.1 3.1-10.1 7.5-12.4 5.7-3 11.6-4.7 23.4-4.2 4.6.2 6.5 6.3 6.3 12-.2 4.7-1.7 7.5-4.1 7.4-15.1-.5-27.8 6-27.9 6l-.9.5zm22.6-22.8c-8.6 0-13.4 1.5-18 3.9-3.1 1.6-5.7 3.5-5.8 9.7-.1 2.7 1 4.5 1.7 5.4 3.5-1.6 14.7-6.3 28.2-5.9.9-.9 1.6-6 .3-10-.4-1.1-1.2-3-2.6-3.1h-3.8z"></path>
    <path class="st9" d="M307.3 329.3c-.1.1-.1.3-.1.4l.1-.4z"></path>
    <g class="st4">
      <path class="st5" d="M216.6 267c-.1 4.9 2.9 7.4 2.9 7.4s12.9-6.8 28.7-6.2c2 .1 3-5.4 2.2-10-.4 2.1-1.1 3.5-2.2 3.5-11-.4-20.7 2.8-25.5 4.8-2.4 1-5.1-.3-5.8-2.8v-.1c-.2 1.1-.3 2.3-.3 3.4z"></path>
    </g>
    <path class="st1" d="M289.4 278.3h-35c-1.8 0-3.6-.6-5-1.6s-2.6-2.5-3.1-4.2l-1.7-5.1h54.7l-1.7 5.1c-.6 1.7-1.7 3.2-3.1 4.2-1.5 1-3.3 1.6-5.1 1.6z"></path>
    <g class="st4">
      <path class="st5" d="M289.4 278.3h-35c-1.8 0-3.6-.6-5-1.6s-2.6-2.5-3.1-4.2l-1.7-5.1h54.7l-1.7 5.1c-.6 1.7-1.7 3.2-3.1 4.2-1.5 1-3.3 1.6-5.1 1.6z"></path>
    </g>
    <path class="st3" d="M289.4 279.8h-35c-2.1 0-4.2-.7-5.9-1.9-1.7-1.2-3-3-3.7-5l-1.7-5.1c-.1-.2-.1-.5-.1-.7 0-.2.1-.5.3-.7.1-.2.3-.4.6-.5s.5-.2.7-.2h54.7c.3 0 .5.1.7.2.2.1.4.3.6.5.1.2.2.4.3.7 0 .2 0 .5-.1.7l-1.7 5.1c-.7 2-2 3.8-3.7 5-1.8 1.3-3.8 1.9-6 1.9zm-42.6-10.9l1 3c.5 1.4 1.4 2.6 2.6 3.5 1.2.9 2.6 1.3 4.1 1.3h35c1.5 0 2.9-.5 4.1-1.3 1.2-.9 2.1-2.1 2.6-3.5l1-3h-50.4z"></path>
    <path class="st1" d="M292.2 272.7h-40.6c-.9 0-1.8-.2-2.7-.6-.8-.4-1.6-.9-2.2-1.6s-1.1-1.5-1.4-2.4c-.3-.9-.4-1.8-.3-2.7l2.4-23.5c.2-1.6.9-3.2 2.2-4.3 1.2-1.1 2.8-1.7 4.5-1.7h35.8c1.6 0 3.2.6 4.5 1.7 1.2 1.1 2 2.6 2.2 4.3l2.4 23.5c.1.9 0 1.9-.3 2.7-.3.9-.8 1.7-1.4 2.4-.6.7-1.4 1.2-2.2 1.6-1 .4-1.9.6-2.9.6z"></path>
    <path class="st3" d="M292.2 274.3h-40.6c-1.2 0-2.3-.2-3.3-.7-1.1-.5-2-1.1-2.8-2-.8-.9-1.4-1.9-1.7-3-.4-1.1-.5-2.2-.4-3.4l2.4-23.5c.2-2 1.2-3.9 2.7-5.3s3.5-2.1 5.5-2.1h35.8c2 0 4 .8 5.5 2.1 1.5 1.4 2.5 3.3 2.7 5.3l2.4 23.5c.1 1.1 0 2.3-.4 3.4s-.9 2.1-1.7 3c-.8.9-1.7 1.5-2.8 2-1 .4-2.1.7-3.3.7zM254 237.5c-1.3 0-2.5.5-3.4 1.3-.9.8-1.5 2-1.6 3.2l-2.4 23.5c-.1.7 0 1.4.2 2.1.2.7.6 1.3 1.1 1.8.5.5 1.1.9 1.7 1.2.6.3 1.3.4 2.1.4h40.6c.7 0 1.4-.1 2.1-.4.6-.3 1.2-.7 1.7-1.2s.8-1.1 1.1-1.8.3-1.4.2-2.1L295 242c-.1-1.2-.7-2.4-1.6-3.2-.9-.8-2.1-1.3-3.4-1.3h-36z"></path>
    <path class="st3" d="M268.2 274.3c-.4 0-.8-.2-1.1-.5-.3-.3-.5-.7-.5-1.1v-13.4c0-.5-.1-.9-.3-1.3-.2-.4-.5-.8-.9-1l-4.5-3.4c-.8-.6-1.4-1.3-1.8-2.2-.4-.8-.6-1.8-.6-2.7v-12.8c0-.4.2-.8.5-1.1.3-.3.7-.5 1.1-.5.4 0 .8.2 1.1.5.3.3.5.7.5 1.1v12.8c0 .5.1.9.3 1.3.2.4.5.8.9 1l4.5 3.4c.8.6 1.4 1.3 1.8 2.2.4.8.6 1.8.6 2.7v13.4c0 .4-.2.8-.5 1.1-.3.3-.7.5-1.1.5z"></path>
    <g class="st4">
      <path class="st5" d="M296.8 245.3l2.8 20c0 2-.8 3.8-2.2 5.2-1.4 1.4-3.3 2.2-5.2 2.2h-40.5c-4.1 0-7.4-3.3-7.4-7.4v-8.2c2.9 14.1 33.5 11.6 34.8-2.8.5-5.1 13.5-3.8 14.1.4.7 5.6 4.5 9.2 2.9-14.1.9 1.2.7 3 .7 4.7z"></path>
    </g>
    <path class="st10" d="M292.7 252.7c0 1.7-.7 3.3-1.9 4.5-1.2 1.2-2.8 1.9-4.5 1.9-1.7 0-3.3-.7-4.5-1.9-1.2-1.2-1.9-2.8-1.9-4.5v-3.4s3.8-3 6.4-3c2.6 0 6.4 3.4 6.4 3.4v3z"></path>
    <g class="st4">
      <path class="st5" d="M292.7 252.7c0 1.7-.7 3.3-1.9 4.5-1.2 1.2-2.8 1.9-4.5 1.9-1.7 0-3.3-.7-4.5-1.9-1.2-1.2-1.9-2.8-1.9-4.5v-3.4s3.8-3 6.4-3c2.6 0 6.4 3.4 6.4 3.4v3z"></path>
    </g>
    <path class="st3" d="M286.3 260.3c-2 0-3.9-.8-5.4-2.2-1.4-1.4-2.2-3.3-2.2-5.4v-4l.5-.4c.4-.3 4.2-3.2 7.1-3.2 2.9 0 6.8 3.3 7.2 3.7l.4.4v3.5c0 2-.8 3.9-2.2 5.4-1.5 1.4-3.4 2.2-5.4 2.2zm-5.2-10.5v2.8c0 1.4.5 2.7 1.5 3.7s2.3 1.5 3.7 1.5c1.4 0 2.7-.5 3.7-1.5s1.5-2.3 1.5-3.7v-2.5c-1.4-1.2-3.8-2.7-5.2-2.7-1.4.1-3.8 1.4-5.2 2.4z"></path>
    <path class="st10" d="M290.8 254.2c2.5-2.5 2.5-6.5 0-9s-6.5-2.5-9 0-2.5 6.5 0 9c2.4 2.5 6.5 2.5 9 0z"></path>
    <g class="st6">
      <path class="st7" d="M292.7 249.7c0 .4 0 .7-.1 1.1-.3-1.5-1-2.8-2.2-3.8-1.2-1-2.6-1.5-4.1-1.5-1.5 0-3 .5-4.1 1.5-1.1 1-1.9 2.3-2.2 3.8-.1-.4-.1-.7-.1-1.1 0-1.7.7-3.3 1.9-4.5 1.2-1.2 2.8-1.9 4.5-1.9 1.7 0 3.3.7 4.5 1.9 1.2 1.2 1.9 2.8 1.9 4.5z"></path>
    </g>
    <g class="st4">
      <path class="st5" d="M292.7 249.7c0 1.7-.7 3.3-1.9 4.5-1.2 1.2-2.8 1.9-4.5 1.9-1.7 0-3.3-.7-4.5-1.9-1.2-1.2-1.9-2.8-1.9-4.5 0-.8.1-1.6.4-2.3.5 1.2 1.3 2.2 2.3 3 1.1.7 2.3 1.1 3.6 1.1 1.3 0 2.5-.4 3.6-1.1 1.1-.7 1.9-1.8 2.3-3 .4.7.6 1.5.6 2.3z"></path>
    </g>
    <path class="st3" d="M286.3 257.3c-1.5 0-3-.4-4.2-1.3-1.2-.8-2.2-2-2.8-3.4s-.7-2.9-.4-4.4c.3-1.5 1-2.8 2.1-3.9s2.4-1.8 3.9-2.1c1.5-.3 3-.1 4.4.4 1.4.6 2.6 1.5 3.4 2.8.8 1.2 1.3 2.7 1.3 4.2 0 2-.8 3.9-2.2 5.4-1.6 1.4-3.5 2.2-5.5 2.3zm0-12.8c-1 0-2 .3-2.9.9-.9.6-1.5 1.4-1.9 2.3-.4 1-.5 2-.3 3s.7 1.9 1.4 2.7c.7.7 1.7 1.2 2.7 1.4 1 .2 2.1.1 3-.3 1-.4 1.8-1.1 2.3-1.9.6-.9.9-1.9.9-2.9 0-1.4-.6-2.7-1.5-3.7-1-1-2.4-1.5-3.7-1.5z"></path>
    <path class="st11" d="M315.5 374l-36.4-13.4-31.7 22.4c-6.4 4.5-15.1-.2-14.8-8l1.5-38.8L203 313c-6.2-4.6-4.4-14.4 3.1-16.6l21.2-6 16.2-4.6 12.4-36.7c2.5-7.4 12.4-8.7 16.7-2.2l21.6 32.2 38.8.5c7.8.1 12.1 9.1 7.3 15.2l-24 30.5 9.5 30.4 2.1 6.6c2.1 7.5-5.1 14.3-12.4 11.7z"></path>
    <g class="st12">
      <path class="st13" d="M206.9 301l21.2-6 16.2-4.6 12.4-36.8c2.5-7.4 12.4-8.7 16.7-2.2l21.6 32.2 38.8.5c3.9 0 7 2.4 8.4 5.5.3-5-3.6-9.9-9.3-9.9l-38.8-.5-21.6-32.2c-4.3-6.5-14.2-5.1-16.7 2.2l-12.4 36.7-16.2 4.6-21.2 6c-5.9 1.7-8.3 8.1-6 13 .3-3.7 2.7-7.4 6.9-8.5zM326.5 360.2l1.6 5.2c0-1-.1-2.1-.4-3.1l-2.1-6.6-8.2-26.4-.4.5 9.5 30.4zM234.9 340.7l-1-.8-1.3 35c-.1 1.5.2 3 .9 4.3l1.4-38.5z"></path>
    </g>
    <g class="st4">
      <path class="st5" d="M332.9 279.6h-.6c3.5 4.4 4.3 7.6-3 15.5-5.4 5.8-13.6 14.8-19.3 21-1.8 2-3.1 4.4-3.6 7.1-.5 2.6-.3 5.4.6 7.9 3.7 10 7.2 26.2 5 29.3-3.3 4.7-36.3-14.3-36.3-14.3s-28.9 24.8-33 20.9c-2.7-2.6-2.4-18.4-.7-29 .5-2.8.1-5.7-1.1-8.3-1.2-2.6-3.1-4.8-5.5-6.4-7.1-4.5-17.1-11.1-23.2-15.9-4.1-3.2-6.1-7.8-4.6-11.5l-1.8.5c-7.5 2.1-9.3 11.9-3.1 16.6l31.1 23.2-1.5 38.8v0-1.2c1.9 5.6 9 8.4 14.3 4.6l31.7-22.4 36.4 13.4c5.9 2.1 11.7-1.8 12.5-7.3l.1.4-2.1-6.6-9.5-30.4 24-30.5c5.3-6.3 1-15.3-6.8-15.4z"></path>
    </g>
    <path class="st3" d="M242 386.6c-1.5 0-3-.3-4.4-.9-1.4-.6-2.6-1.5-3.7-2.5-1-1.1-1.9-2.4-2.4-3.8s-.8-2.9-.7-4.4l1.4-37.8-30.3-22.6c-1.7-1.3-3-3-3.7-4.9-.8-2-1-4.1-.6-6.1.4-2.1 1.3-4 2.7-5.5 1.4-1.6 3.2-2.7 5.2-3.2l36.4-10.3 12.1-35.8c.7-2 1.9-3.7 3.5-5.1 1.6-1.3 3.6-2.2 5.7-2.5s4.2 0 6.1.9c1.9.9 3.5 2.2 4.7 4l21.1 31.4 37.8.5c2.1 0 4.1.6 5.9 1.8 1.8 1.1 3.2 2.7 4.1 4.6.9 1.9 1.3 4 1 6.1-.2 2.1-1 4.1-2.3 5.7l-23.4 29.7 11.2 36.1c.6 2 .7 4.1.1 6.2-.5 2-1.6 3.9-3.1 5.3s-3.4 2.4-5.5 2.9c-2.1.4-4.2.3-6.1-.5l-35.5-13-30.9 21.9c-1.8 1.1-4.1 1.8-6.4 1.8zm22.7-142c-.4 0-.7 0-1.1.1-2.9.4-5.2 2.3-6.2 5.1l-12.8 37.7-38.3 10.9c-2.8.8-4.8 3-5.4 5.9-.5 2.9.6 5.7 2.9 7.4l31.9 23.8-1.5 39.7c-.1 2.9 1.4 5.5 3.9 6.9 2.6 1.4 5.6 1.2 7.9-.5l32.5-23 37.3 13.7c2.8 1 5.7.4 7.8-1.6 2.1-2 2.9-4.9 2-7.7l-11.8-38 24.6-31.3c1.8-2.3 2.1-5.3.9-7.9-1.3-2.6-3.8-4.2-6.7-4.3l-39.8-.5-21.8-33c-1.5-2.2-3.8-3.4-6.3-3.4z"></path>
  </g>
  <path class="st14" d="M118.7 67c-1.7-.8-2.4-2.9-1.6-4.6.8-1.7 2.9-2.4 4.6-1.6 1.7.8 2.4 2.9 1.6 4.6-.8 1.7-2.9 2.4-4.6 1.6zM414.7 48c-1.7-.8-2.4-2.9-1.6-4.6.8-1.7 2.9-2.4 4.6-1.6 1.7.8 2.4 2.9 1.6 4.6-.8 1.7-2.9 2.4-4.6 1.6zM447.6 130.1c-1.1-.5-1.5-1.8-1-2.9.5-1.1 1.8-1.5 2.9-1s1.5 1.8 1 2.9c-.5 1.1-1.8 1.5-2.9 1zM67.9 161.6c-.8-.4-1.1-1.4-.7-2.2s1.4-1.1 2.2-.7c.8.4 1.1 1.4.7 2.2s-1.4 1.1-2.2.7z"></path>
  <path class="st15" d="M56.6 222.3c-.1.9 1.8 1.9 4.6 2.5.7.2 1.3.5 1.8 1.1.5.5.8 1.2.8 1.9.3 2.9 1 4.9 1.9 4.9.9.1 1.9-1.8 2.5-4.6.2-.7.5-1.3 1.1-1.8.5-.5 1.2-.8 1.9-.8 2.9-.3 4.9-1 4.9-1.9.1-.9-1.8-1.9-4.6-2.5-.7-.2-1.3-.5-1.8-1.1-.5-.5-.8-1.2-.8-1.9-.3-2.9-1-4.9-1.9-4.9-.9-.1-1.9 1.8-2.5 4.6-.2.7-.5 1.3-1.1 1.8-.5.5-1.2.8-1.9.8-2.8.3-4.8 1-4.9 1.9z"></path>
  <path class="st16" d="M383.9 106.8c.1-1.9 1.7-3.4 3.6-3.3 1.9.1 3.4 1.7 3.3 3.6-.1 1.9-1.7 3.4-3.6 3.3-1.8-.1-3.3-1.6-3.3-3.6z"></path>
  <path class="st15" d="M189.1 94.5c-1.4-.1-2.4-1.3-2.4-2.7.1-1.4 1.3-2.4 2.7-2.4s2.4 1.3 2.4 2.7c-.1 1.4-1.3 2.5-2.7 2.4z"></path>
  <path class="st17" d="M466.7 241c-1.5-.6-2.6-1.2-3.3-1.7-.3-.2-.5-.4-.6-.5.2-.1.4-.2.8-.2.9-.2 2.1-.2 3.7-.1 1 .1 2.1-.2 3-.7.9-.6 1.6-1.4 2-2.3.6-1.5 1.2-2.6 1.7-3.3.2-.3.4-.5.5-.6.1.2.2.4.2.8.2.9.2 2.1.1 3.7-.1 1 .2 2.1.7 3 .6.9 1.4 1.6 2.3 2 1.5.6 2.6 1.2 3.3 1.7.3.2.5.4.6.5-.2.1-.4.2-.8.2-.9.2-2.2.2-3.7.1-1-.1-2.1.2-3 .7-.9.6-1.6 1.4-2 2.3-.6 1.5-1.2 2.6-1.7 3.3-.2.3-.4.5-.5.6-.1-.2-.2-.4-.2-.7-.2-.9-.2-2.1-.1-3.7l-3-5.1zm0 0c1 .4 1.8 1.1 2.3 2m-2.3-2l2.3 2m0 0c.6.9.8 1.9.7 3l-.7-3zm1.2 7.6zm-.3 0zm12.1-7.5zm-.1.3zm-7.5-12.1zm.3.1s0-.1 0 0c0-.1 0-.1 0 0zm-12.1 7.4zm.1-.2z"></path>
</svg>
