<?xml version="1.0" encoding="UTF-8"?>
<svg xmlns="http://www.w3.org/2000/svg" id="Camada_1" data-name="Camada 1" viewBox="0 0 523.13 428.52">
  <defs>
    <style>.cls-1,.cls-25{fill:none}.cls-19,.cls-2{fill:#22a7f0}.cls-2{opacity:.1}.cls-13,.cls-15,.cls-2,.cls-21,.cls-8{isolation:isolate}.cls-3{fill:#002d54}.cls-4{clip-path:url(#clip-path)}.cls-5,.cls-8{fill:#371a45}.cls-13,.cls-15,.cls-6{fill:#fff}.cls-21,.cls-7,.cls-8{opacity:.35}.cls-9{fill:#d66b09}.cls-10{fill:#e25a5a}.cls-11{fill:#00d7ed}.cls-12,.cls-13{opacity:.7}.cls-14,.cls-15{opacity:.5}.cls-16{fill:#f22}.cls-17{fill:#3bd8e0}.cls-18{fill:#068fff}.cls-20{fill:#ffe000}.cls-21{fill:#111a28}.cls-22{fill:#8dd7ff}.cls-23{fill:#e0e0e0}.cls-24{fill:#ffd527}.cls-25{stroke:#ffd527;stroke-width:2.31px}</style>
    <clipPath id="clip-path" transform="translate(52.78 -52.92)">
      <path class="cls-1" d="M129.91 87.06h228.57v394.38H129.91z"></path>
    </clipPath>
  </defs>
  <path id="lua" class="cls-2" d="M334.24 399.5a174.89 174.89 0 0 0 64.33-135.66c0-96.79-78.49-175.25-175.3-175.25S48 167.05 48 263.84a174.86 174.86 0 0 0 64.3 135.66c32.69-.65 70.58-1 111-1s78.26.35 110.94 1z" transform="translate(52.78 -52.92)"></path>
  <path id="nuvem" class="cls-3" d="M406.78 372.78c2.05-4.36-3.69-45.58-43.73-47.43a46.68 46.68 0 0 0-22.68 5.75 44.77 44.77 0 0 0-25.47-10.91c-3.64-17.36-21-30.52-41.8-30.52a47 47 0 0 0-21.06 4.9 9.19 9.19 0 0 1-6.78.44l-.4-.12a9 9 0 0 1-5-3.65c-7.32-11.27-21.12-18.87-37-18.87-16.68 0-31.1 8.43-38.06 20.69a46.82 46.82 0 0 0-22.31-5.56C119 287.5 100 304.21 100 324.81a31.86 31.86 0 0 0 .17 3.25c-14.52 2.92-26.57 11.54-32.91 23-8.93-9.45-22.41-15.47-37.49-15.47-26.13 0-47.45 18.07-48.61 40.75q-1.87-.19-3.75-.21c-16.67 0-30.19 11.86-30.19 26.49 0 .73 0 1.45.11 2.17h523c-5.66-18.35-30.28-41.86-63.55-32.01z" transform="translate(52.78 -52.92)"></path>
  <g class="cls-4" id="astronauta">
    <path class="cls-5" d="M291.77 284.16a1.14 1.14 0 0 1-.8-.33 1.15 1.15 0 0 1-.33-.8v-48.24a1.13 1.13 0 0 1 2.26 0V283a1.13 1.13 0 0 1-1.13 1.13zM287.19 282.15a1.12 1.12 0 0 1-1.11-.95l-11.6-70.34a1.15 1.15 0 0 1 .2-.84 1.09 1.09 0 0 1 .73-.45 1.11 1.11 0 0 1 1.3.93l11.6 70.33a1.09 1.09 0 0 1-.2.84 1.11 1.11 0 0 1-.73.46zM294.85 287.1h-.21a1.18 1.18 0 0 1-.72-.47 1.12 1.12 0 0 1-.18-.85l15.9-85.35a1.23 1.23 0 0 1 .47-.73 1.23 1.23 0 0 1 .41-.17.94.94 0 0 1 .44 0 1.13 1.13 0 0 1 .41.16 1.35 1.35 0 0 1 .32.31 1.32 1.32 0 0 1 .17.41 1.09 1.09 0 0 1 0 .44L296 286.17a1.13 1.13 0 0 1-1.11.93z" transform="translate(52.78 -52.92)"></path>
    <path class="cls-6" d="M201 342.5l-.35 7.33-.17 3.75-3.08 64.5s-4.38-.46-10.21-1.55c-1.15-.21-2.34-.45-3.57-.71-9.16-1.95-20.17-5.3-23.87-10.57-5.53-7.89-2.41-42.79 5-55.89 3.37-6 17-7.16 26.53-7.2h3c3.93.1 6.72.34 6.72.34z" transform="translate(52.78 -52.92)"></path>
    <g class="cls-7">
      <path class="cls-8" d="M200.6 349.84l-.18 3.74L198 404.8l-.63 13.29h-1.34l-.35-.05H195.1l-.4-.06-.89-.12-.86-.13-1.09-.16c-1.39-.22-3-.48-4.71-.8l-1-.2-.73-.14c-.6-.11-1.21-.24-1.82-.37-9.17-1.95-20.17-5.3-23.86-10.58-4.56-6.49-3.25-31.3 1.46-47.17-2.17 14-2.06 29.32 1.37 34.21 1.69 2.42 5.17 4.45 9.35 6.12a2.45 2.45 0 0 0 3.3-2.71 43.23 43.23 0 0 1-.24-11.89c1.07-9.69 4-23.48 15.75-33.58.27-.52 4.6-.58 9.87-.62z" transform="translate(52.78 -52.92)"></path>
    </g>
    <path class="cls-5" d="M199.07 420.08l-1.9-.2c-1.3-.13-31.83-3.44-38.95-13.59-4.2-6-3.11-22.32-2.68-27.19.87-9.88 3.31-23.12 7.53-30.62 5.74-10.22 34.74-8.06 38-7.79l1.74.15zM191.76 344c-9.89 0-22.67 1.2-25.54 6.3-7.48 13.32-9.74 47.25-5 54s25 10.65 34.46 11.85l3.43-71.89c-2.11-.26-4.6-.26-7.35-.26z" transform="translate(52.78 -52.92)"></path>
    <path class="cls-6" d="M163 379.52l12.51 2.12a2.47 2.47 0 0 1 1.42.77 2.5 2.5 0 0 1 .65 1.47c.35 4.14.67 13.73-3.57 16.49a9.79 9.79 0 0 1-11.71-1.45c-3.22-3.28-2.69-12.61-2.2-17.21a2.57 2.57 0 0 1 .31-1 2.43 2.43 0 0 1 1.58-1.19 2.45 2.45 0 0 1 1.01 0z" transform="translate(52.78 -52.92)"></path>
    <g class="cls-7">
      <path class="cls-8" d="M177.59 383.88c.36 4.14.68 13.73-3.57 16.49a9.79 9.79 0 0 1-11.71-1.45c-2-2-2.54-6.33-2.56-10.41a10.63 10.63 0 0 0 2.12 5c5.78 6.77 11.2-.07 11.2-.07s.66 1.85 1.31 2c2.71.68 2.94-8 3-12.44a2.52 2.52 0 0 1 .21.88z" transform="translate(52.78 -52.92)"></path>
    </g>
    <path class="cls-5" d="M169.26 403.5a11.66 11.66 0 0 1-8.24-3.31c-3.5-3.57-3.4-12.13-2.71-18.67a4.2 4.2 0 0 1 .53-1.66 4.41 4.41 0 0 1 1.15-1.32 4.2 4.2 0 0 1 1.57-.74 4.25 4.25 0 0 1 1.74-.07l12.52 2.13a4.31 4.31 0 0 1 3.56 3.87c.47 5.42.51 15-4.39 18.16a10.52 10.52 0 0 1-5.73 1.61zm-6.67-22.21a.66.66 0 0 0-.41.14.61.61 0 0 0-.19.2.92.92 0 0 0-.08.27c-.83 7.81-.18 13.84 1.69 15.76a8.06 8.06 0 0 0 9.43 1.2c2.36-1.53 3.41-7.21 2.76-14.82a.7.7 0 0 0-.18-.41.64.64 0 0 0-.39-.2l-12.51-2.13z" transform="translate(52.78 -52.92)"></path>
    <path class="cls-5" d="M167.19 400.51a2.17 2.17 0 0 0 .35-.15 3.84 3.84 0 0 0 .4-.21 6.12 6.12 0 0 0 .79-.54 8.37 8.37 0 0 0 1.42-1.37 11.64 11.64 0 0 0 2-3.56 22.37 22.37 0 0 0 1-4.14 16.29 16.29 0 0 0 .23-4.3 16.33 16.33 0 0 1 .33 4.36 22.9 22.9 0 0 1-.49 4.4 13.49 13.49 0 0 1-1.73 4.23 10.61 10.61 0 0 1-1.48 1.86 7.66 7.66 0 0 1-.91.8c-.16.13-.34.25-.51.37a5.45 5.45 0 0 1-.62.35h-.1a1.1 1.1 0 0 1-.87 0 1.14 1.14 0 0 1-.38-.23 1.36 1.36 0 0 1-.27-.36 1.08 1.08 0 0 1-.1-.43 1.1 1.1 0 0 1 .07-.44 1.14 1.14 0 0 1 .23-.38 1.22 1.22 0 0 1 .36-.27 1 1 0 0 1 .28.01zM183.61 351.1c-1.51-.23-3.06-.42-4.59-.58s-3.07-.31-4.6-.4-3.06-.17-4.57-.15a29.61 29.61 0 0 0-4.39.29 1.74 1.74 0 0 1-1.35-.32 1.83 1.83 0 0 1-.48-.52 1.75 1.75 0 0 1-.24-.66 1.89 1.89 0 0 1 0-.71 1.84 1.84 0 0 1 .82-1.12 1.94 1.94 0 0 1 .66-.24h.17a35.07 35.07 0 0 1 4.94.12c1.6.14 3.17.36 4.74.6s3.11.54 4.65.85 3.07.65 4.61 1a.95.95 0 0 1 .7 1.08 1 1 0 0 1-.38.59 1 1 0 0 1-.68.16z" transform="translate(52.78 -52.92)"></path>
    <path class="cls-9" d="M301.71 137.35a2.17 2.17 0 0 0-.12.36z" transform="translate(52.78 -52.92)"></path>
    <path class="cls-10" d="M304 176.94l5 6.15a3 3 0 0 1 .63 1.39 2.95 2.95 0 0 1-1.05 2.74 2.86 2.86 0 0 1-1.38.63l-7.83 1.26a2.92 2.92 0 0 1-2.75-1 2.88 2.88 0 0 1-.62-1.39 2.92 2.92 0 0 1 .15-1.52l2.82-7.41a3 3 0 0 1 2.28-1.85 2.88 2.88 0 0 1 1.51.16 2.94 2.94 0 0 1 1.24.84z" transform="translate(52.78 -52.92)"></path>
    <g class="cls-7">
      <path class="cls-8" d="M304.21 176.87l5.05 6.12a2.86 2.86 0 0 1 .63 1.38 2.91 2.91 0 0 1-.14 1.52 3 3 0 0 1-.89 1.24 2.82 2.82 0 0 1-1.38.63l-7.82 1.31a2.92 2.92 0 0 1-1.52-.14 3 3 0 0 1-1.24-.88 3 3 0 0 1-.63-1.39 3 3 0 0 1 .15-1.52l2.77-7.42a2.94 2.94 0 0 1 5-.85z" transform="translate(52.78 -52.92)"></path>
    </g>
    <path class="cls-5" d="M298.86 191.11a5 5 0 0 1-2.26-.57 5 5 0 0 1-1.75-1.56 4.91 4.91 0 0 1-.82-2.19 4.84 4.84 0 0 1 .28-2.32l2.83-7.41a4.8 4.8 0 0 1 1.48-2.05 4.73 4.73 0 0 1 2.31-1 4.84 4.84 0 0 1 4.57 1.74l5 6.14a4.91 4.91 0 0 1-.7 6.89 4.89 4.89 0 0 1-2.31 1l-7.82 1.22a7 7 0 0 1-.81.11zm2.85-13.3h-.16a1 1 0 0 0-.47.21.91.91 0 0 0-.3.42l-2.78 7.42a1 1 0 0 0 0 .51 1.05 1.05 0 0 0 .21.47 1.12 1.12 0 0 0 .41.3 1 1 0 0 0 .52.05l7.82-1.27a1 1 0 0 0 .47-.21 1 1 0 0 0 .3-.41 1 1 0 0 0 .05-.51 1 1 0 0 0-.21-.47l-5-6.15a1 1 0 0 0-.34-.27 1 1 0 0 0-.52-.09z" transform="translate(52.78 -52.92)"></path>
    <path class="cls-11" d="M255.82 137.44c4.71 22.17 32.25 45.05 46.26 42.07s29.85-35.08 25.14-57.24S302.71 85.53 283 89.72s-31.89 25.56-27.18 47.72z" transform="translate(52.78 -52.92)"></path>
    <g class="cls-12">
      <path class="cls-13" d="M255.82 137.44c0 .07 0 .13.05.2-2.2-20.41 9.59-39.13 27.91-43 19.52-4.15 39.13 10.09 44.09 31.89a37.9 37.9 0 0 0-.65-4.25c-4.71-22.16-24.51-36.73-44.23-32.54s-31.88 25.54-27.17 47.7z" transform="translate(52.78 -52.92)"></path>
    </g>
    <g class="cls-7">
      <path class="cls-8" d="M255.82 137.44c4.72 22.17 32.25 45.05 46.26 42.07s29.85-35.08 25.14-57.24c0-.21-.09-.41-.13-.61-.35 17.77-15 39.76-27.51 42.41-14 3-40.55-15.23-44.46-33.62q-.17-.81-.3-1.62a46.2 46.2 0 0 0 1 8.61z" transform="translate(52.78 -52.92)"></path>
    </g>
    <path class="cls-5" d="M299.54 181.72c-7.08 0-16.47-4.52-25.36-12.35-10.45-9.19-18-21-20.27-31.52-4.92-23.18 7.94-45.63 28.67-50s41.62 10.87 46.55 34.05c2.24 10.54.11 24.38-5.69 37-5.66 12.35-13.69 21-21 22.53a14.52 14.52 0 0 1-2.9.29zM289.79 91a31.33 31.33 0 0 0-6.4.67c-18.62 4-30.14 24.34-25.66 45.41 4.23 19.89 28.17 40.79 41.64 40.8a11 11 0 0 0 2.3-.23c12.84-2.73 28.12-33.86 23.64-54.93C321.35 104 306.15 91 289.79 91z" transform="translate(52.78 -52.92)"></path>
    <g class="cls-14">
      <path class="cls-15" d="M286 100.56c-9.72.87-15.93 4.85-20.14 11.48-4.46 7-2.08 12.76 3.32 11.89s6.21-9.58 18.28-15.44c7.83-3.79 6.25-8.62-1.46-7.93z" transform="translate(52.78 -52.92)"></path>
    </g>
    <path class="cls-9" d="M273.92 174.4a1.6 1.6 0 0 0-.12.37z" transform="translate(52.78 -52.92)"></path>
    <path class="cls-16" d="M228 174.5c4.72 22.16 32.25 45.05 46.26 42.07s29.85-35.08 25.14-57.25-24.52-36.73-44.23-32.54-31.85 25.56-27.17 47.72z" transform="translate(52.78 -52.92)"></path>
    <g class="cls-12">
      <path class="cls-13" d="M228 174.5c0 .07 0 .13.05.2-2.2-20.41 9.59-39.13 27.91-43 19.53-4.15 39.14 10.1 44.09 31.9a35.74 35.74 0 0 0-.65-4.25c-4.71-22.17-24.51-36.74-44.23-32.55s-31.85 25.54-27.17 47.7z" transform="translate(52.78 -52.92)"></path>
    </g>
    <g class="cls-7">
      <path class="cls-8" d="M228.6 170c4.71 22.17 32.25 45.05 46.25 42.08S304.71 177 300 154.81c-.05-.21-.09-.41-.14-.61-.34 17.77-15 39.76-27.5 42.41-14 3-40.55-15.23-44.46-33.62q-.17-.81-.3-1.62a45.28 45.28 0 0 0 1 8.63z" transform="translate(52.78 -52.92)"></path>
    </g>
    <path class="cls-5" d="M271.74 218.77c-7.07 0-16.46-4.51-25.36-12.34-10.44-9.2-18-21-20.26-31.52a45.41 45.41 0 0 1 4.64-32c5.41-9.5 14-15.92 24-18.06s20.5.24 29.31 6.73a45.4 45.4 0 0 1 17.24 27.32c2.24 10.54.11 24.38-5.69 37-5.66 12.35-13.7 21-21 22.53a13.92 13.92 0 0 1-2.88.34zM262.05 128a30.39 30.39 0 0 0-6.45.68c-9 1.9-16.6 7.65-21.45 16.17a41.54 41.54 0 0 0-4.21 29.23c4.23 19.89 28.17 40.79 41.65 40.8a11 11 0 0 0 2.29-.23c12.84-2.73 28.12-33.86 23.64-54.93a41.5 41.5 0 0 0-15.73-25 33.28 33.28 0 0 0-19.74-6.72z" transform="translate(52.78 -52.92)"></path>
    <g class="cls-14">
      <path class="cls-15" d="M258.25 136.49c-9.72.87-15.93 4.86-20.14 11.48-4.47 7-2.08 12.75 3.32 11.89s6.21-9.58 18.27-15.44c7.8-3.79 6.22-8.62-1.45-7.93z" transform="translate(52.78 -52.92)"></path>
    </g>
    <path class="cls-9" d="M325 175.1a1.42 1.42 0 0 0-.29.26z" transform="translate(52.78 -52.92)"></path>
    <path class="cls-17" d="M307.89 210.9l1.44 7.79a3 3 0 0 1-.12 1.52 3.08 3.08 0 0 1-.87 1.26 3 3 0 0 1-1.37.65 3 3 0 0 1-1.52-.12l-7.45-2.66a2.94 2.94 0 0 1-1.79-3.75 2.9 2.9 0 0 1 .87-1.26l6-5.14a3 3 0 0 1 2.9-.53 2.87 2.87 0 0 1 1.25.87 3 3 0 0 1 .66 1.37z" transform="translate(52.78 -52.92)"></path>
    <g class="cls-7">
      <path class="cls-8" d="M308.13 211l1.48 7.79a3 3 0 0 1-.11 1.51 2.9 2.9 0 0 1-.86 1.26 2.94 2.94 0 0 1-1.37.67 3 3 0 0 1-1.52-.12l-7.49-2.61a3 3 0 0 1-1.26-.85 3.07 3.07 0 0 1-.66-1.37 2.93 2.93 0 0 1 1-2.78l6-5.18a3 3 0 0 1 4.15.3 3 3 0 0 1 .64 1.38z" transform="translate(52.78 -52.92)"></path>
    </g>
    <path class="cls-5" d="M306.45 224.13a5 5 0 0 1-1.66-.29l-7.47-2.65a5 5 0 0 1-2.08-1.44 4.88 4.88 0 0 1-1.09-2.29 4.89 4.89 0 0 1 1.64-4.61l6-5.14a4.87 4.87 0 0 1 4.82-.88 4.78 4.78 0 0 1 2.08 1.43 4.87 4.87 0 0 1 1.09 2.29l1.44 7.8a4.9 4.9 0 0 1-1.05 4 5 5 0 0 1-1.68 1.3 4.79 4.79 0 0 1-2.04.48zM305 210.44a1 1 0 0 0-.63.24l-6 5.14a1 1 0 0 0-.29.43 1 1 0 0 0 .6 1.27l7.47 2.65a1 1 0 0 0 1-.18.87.87 0 0 0 .29-.42 1 1 0 0 0 .05-.51l-1.49-7.79a1 1 0 0 0-.22-.47 1 1 0 0 0-.42-.29 1.37 1.37 0 0 0-.34-.07z" transform="translate(52.78 -52.92)"></path>
    <path class="cls-18" d="M284.67 153.11c-6.53 21.7 6.6 55 20.32 59.13s43.05-16.4 49.58-38.09-3.83-44-23.13-49.81-40.24 7.07-46.77 28.77z" transform="translate(52.78 -52.92)"></path>
    <g class="cls-12">
      <path class="cls-13" d="M284.67 153.11l-.06.19c7.89-19 27.24-29.68 45.17-24.28 19.11 5.75 29.45 27.67 23.31 49.16a38 38 0 0 0 1.47-4c6.53-21.7-3.82-44-23.12-49.81s-40.24 7.04-46.77 28.74z" transform="translate(52.78 -52.92)"></path>
    </g>
    <g class="cls-7">
      <path class="cls-8" d="M284.67 148c-6.53 21.7 6.6 55 20.31 59.13s43-16.4 49.58-38.09l.18-.6c-8.85 15.41-32.32 27.62-44.52 23.95-13.71-4.13-28.22-32.85-22.8-50.86.16-.53.34-1.05.52-1.57a44.88 44.88 0 0 0-3.27 8.04z" transform="translate(52.78 -52.92)"></path>
    </g>
    <path class="cls-5" d="M308.82 214.71a15.57 15.57 0 0 1-4.4-.6c-7.11-2.15-14.4-11.4-19-24.18-4.74-13.09-5.71-27.06-2.6-37.38a45.42 45.42 0 0 1 19.44-25.8c9.32-5.73 19.89-7.25 29.76-4.28s17.85 10.07 22.46 20a45.4 45.4 0 0 1 2 32.25c-3.1 10.32-11.63 21.44-22.8 29.73-8.91 6.55-17.96 10.26-24.86 10.26zm-22.28-61c-6.21 20.63 6.44 52.92 19 56.7s40.94-16.16 47.15-36.79a41.53 41.53 0 0 0-1.78-29.47 32.44 32.44 0 0 0-20-17.9c-8.8-2.65-18.24-1.28-26.59 3.86a41.5 41.5 0 0 0-17.75 23.6z" transform="translate(52.78 -52.92)"></path>
    <g class="cls-14">
      <path class="cls-15" d="M329.45 134.32c-8.94-3.91-16.31-3.4-23.18.37-7.3 4-8 10.19-2.81 12s10.05-5.41 23.45-4.74c8.65.45 9.59-4.55 2.54-7.63z" transform="translate(52.78 -52.92)"></path>
    </g>
    <path class="cls-6" d="M289 315.12a18.5 18.5 0 0 1-6.32.26l-.3.52c-11.94 21.19-22.29 33.37-29.83 40.31a11.78 11.78 0 0 1-4 2.37c-9.15 3.29-23-2.2-23-2.2l1.63-7.49 3.95-18.26a51.78 51.78 0 0 0 5.55-3.62c.37-.27.76-.55 1.16-.86a118.75 118.75 0 0 0 11.64-10 183.26 183.26 0 0 0 25.09-30.7s3.75-6.7 12.68-4.43c4.75 1.21 7.23 3.21 8 5.92 0 0 4.49-.49 4.61 5.87.14 5.4-2.27 20.57-10.86 22.31z" transform="translate(52.78 -52.92)"></path>
    <g class="cls-7">
      <path class="cls-8" d="M282.39 315.91c-11.95 21.18-22.29 33.36-29.83 40.3-8.27 7.61-27.07.18-27.07.18l2-9.21c6.22 1.43 13.94-.78 20.14-3.57 24.53-11 26.61-27.72 28.08-36.06.19 2.63 1.58 6.02 6.68 8.36z" transform="translate(52.78 -52.92)"></path>
    </g>
    <g class="cls-7">
      <path class="cls-8" d="M285.49 315.52s-7.59.66-9.37-11c0 0 2.29 2 8.93 3.47s12.67-3.58 12.67-3.58-2.58 11.36-12.23 11.11z" transform="translate(52.78 -52.92)"></path>
    </g>
    <path class="cls-5" d="M232.49 331a1.8 1.8 0 0 1-1.64-2.58 1.82 1.82 0 0 1 .84-.85c.19-.09 19.28-9.8 41.28-43 1.57-2.75 6.6-7.29 14.67-5.25 4.56 1.16 7.44 3.08 8.8 5.85s1.13 6.51-1 11.33-6.27 7.28-9.85 5.94c-3.29-1.23-5.75-5.85-2.82-15.16a1.77 1.77 0 0 1 .89-1.06 1.81 1.81 0 0 1 2.56 2.15c-2 6.42-1.09 10 .63 10.68 1.47.55 3.9-.82 5.27-4 1.61-3.73 1.95-6.44 1-8.3s-3-3.06-6.45-3.94c-7.49-1.9-10.63 3.51-10.65 3.56l-.07.12c-22.63 34.2-41.93 43.94-42.74 44.33a1.7 1.7 0 0 1-.72.18z" transform="translate(52.78 -52.92)"></path>
    <path class="cls-5" d="M239.37 367a1.83 1.83 0 0 1-1.8-1.57 1.8 1.8 0 0 1 1.34-2c.16 0 17.85-5.52 42.2-48.89l.63-1.12 1.27.22a17.21 17.21 0 0 0 5.64-.25c7.35-1.49 9.49-15.76 9.38-20.5a4.92 4.92 0 0 0-1.12-3.55 2.24 2.24 0 0 0-1.53-.56 2.08 2.08 0 0 1-.7-.06 1.86 1.86 0 0 1-.62-.33 1.8 1.8 0 0 1-.45-.54 2 2 0 0 1-.21-.67 1.82 1.82 0 0 1 .4-1.33 1.79 1.79 0 0 1 1.22-.67 5.8 5.8 0 0 1 4.24 1.41c1.53 1.34 2.33 3.43 2.39 6.22.13 6.75-2.77 22.19-12.28 24.12a22.16 22.16 0 0 1-5.69.41c-25 44.08-43.07 49.37-43.84 49.58a2.42 2.42 0 0 1-.47.08z" transform="translate(52.78 -52.92)"></path>
    <path class="cls-5" d="M282.69 317.19h-.25a9 9 0 0 1-6.9-4.2c-2.22-3.77-1.83-9.65 1.17-17.47 2.92-7.61 6.73-7.9 7.45-7.88l-.09 3.62h.13s-2.11.34-4.11 5.55c-2.51 6.56-3 11.65-1.43 14.34a5.43 5.43 0 0 0 4.28 2.46 1.8 1.8 0 0 1 1.57 1.92 1.77 1.77 0 0 1-.57 1.2 1.81 1.81 0 0 1-1.25.48z" transform="translate(52.78 -52.92)"></path>
    <path class="cls-6" d="M248.62 409.31c-1.87 9.6-6.25 32.07-19.46 45 0 0 1 17.25-6.12 23.46-4.88 4.24-19.11 1.22-22.12-8.46-2.59-8.35 1.2-21.21 3.35-25.06 4.79-8.59 8.22-19.47 8.19-24.38l-5.83-.28c-3.54 9.23-12.42 22.91-19.41 29.14 0 0-.33 15.48-10.27 21.73-7.2 4.53-21.13 1.93-23.86-10.1-1.9-8.42 3.18-20.27 6.09-24.82 4.6-7.18 13-24.11 16.38-36.77.22-.87.43-1.72.61-2.55.76-3.46 1.51-7 2.23-10.46.67-3.18 1.32-6.32 1.94-9.33 1.76-8.56 3.29-16.06 4.32-20.4 0 0 .47-3.11 1.27-7.32.62-3.27 1.44-7.2 2.41-10.88 1.66-6.28 3.74-11.78 5.95-11.78h36.78a15.08 15.08 0 0 1 5.55 1 13.84 13.84 0 0 1 6.95 6.16 24.19 24.19 0 0 1 3 9.64c.52 4.45 1.28 9.81 2 15.77 1.79 15 3.35 33.75.05 50.69z" transform="translate(52.78 -52.92)"></path>
    <g class="cls-7">
      <path class="cls-8" d="M182.72 386.25c-.11.5-.21 1-.32 1.5a16.76 16.76 0 0 1-4-2v-.1z" transform="translate(52.78 -52.92)"></path>
    </g>
    <g class="cls-7">
      <path class="cls-8" d="M209.07 442.44c-2.15 3.84-5.95 16.71-3.35 25.05 2.3 7.38 11.11 10.89 17.33 10.26-4.87 4.25-19.11 1.23-22.12-8.45-2.6-8.35 1.2-21.21 3.34-25.06 4.79-8.59 8.22-19.47 8.19-24.38l-5.83-.28a51.97 51.97 0 0 1-1.78 4.09 8.14 8.14 0 0 0-1.38-7.58 1.81 1.81 0 0 1 2.24-2.66 33.71 33.71 0 0 0 12.07 2.65 42.84 42.84 0 0 0 17.61-2.95 1.81 1.81 0 0 1 2.19 2.64c-4.93 7.72-24.52 19.5-28.51 26.67z" transform="translate(52.78 -52.92)"></path>
    </g>
    <path class="cls-5" d="M185.25 356.15c-1.66 13.68-4.27 27.19-7.23 40.67a78.59 78.59 0 0 1-3.08 10.09c-1.2 3.28-2.53 6.5-3.93 9.68s-2.89 6.31-4.46 9.41-3.2 6.17-5 9.18l-1.33 2.16-.6 1.07-.56 1.1c-.73 1.48-1.38 3-2 4.57s-1.08 3.14-1.51 4.73a37.41 37.41 0 0 0-.91 4.81 22.9 22.9 0 0 0-.05 4.75 14.91 14.91 0 0 0 1.21 4.4 13.12 13.12 0 0 0 2.55 3.71 13.51 13.51 0 0 0 3.69 2.63 15.9 15.9 0 0 0 9 1.48 13 13 0 0 0 4.29-1.31c.32-.18.64-.37.94-.58l.48-.32.45-.35a17.86 17.86 0 0 0 1.7-1.55 19.5 19.5 0 0 0 2.75-3.82 27.14 27.14 0 0 0 1.93-4.42 35.49 35.49 0 0 0 1.23-4.74c.16-.81.28-1.62.38-2.44s.18-1.66.2-2.39v-.79l.58-.52a53.7 53.7 0 0 0 5.74-6.26c1.79-2.24 3.47-4.59 5.06-7s3.08-4.9 4.45-7.43a66.43 66.43 0 0 0 3.66-7.74l.48-1.22 1.3.06 5.83.28 1.75.08v1.71a29.94 29.94 0 0 1-1 6.82c-.54 2.18-1.2 4.27-1.94 6.35a83 83 0 0 1-5.4 12.06 30.87 30.87 0 0 0-2.16 5.64 48.69 48.69 0 0 0-1.36 6.09 39.38 39.38 0 0 0-.49 6.13 20.79 20.79 0 0 0 .79 5.86 11.21 11.21 0 0 0 2.95 4.64 15.69 15.69 0 0 0 4.85 3.09 17.36 17.36 0 0 0 5.68 1.27 12.6 12.6 0 0 0 2.81-.16 6.92 6.92 0 0 0 2.39-.87 2.83 2.83 0 0 0 .45-.32c.15-.12.32-.3.48-.44a8.77 8.77 0 0 0 .89-1 13.75 13.75 0 0 0 1.47-2.44 26.34 26.34 0 0 0 1.82-5.74 45.78 45.78 0 0 0 .82-6.16 54 54 0 0 0 .09-6.23v-.83l.58-.57a48.54 48.54 0 0 0 8.32-11.25 81.43 81.43 0 0 0 5.64-13.06 130.71 130.71 0 0 0 3.79-13.85c.25-1.18.5-2.36.74-3.54s.48-2.38.66-3.55.41-2.34.58-3.52l.44-3.56a142.94 142.94 0 0 0 .67-14.34c0-4.81-.32-9.62-.75-14.42l-1.4-14.42c-.21-2.41-.41-4.83-.54-7.26s-.2-4.88-.11-7.34a.62.62 0 0 1 .16-.39.56.56 0 0 1 .38-.19.6.6 0 0 1 .41.09.61.61 0 0 1 .25.34c.67 2.36 1.21 4.73 1.71 7.11s.93 4.78 1.31 7.19c.76 4.82 1.31 9.68 1.62 14.56s.53 9.79.57 14.7a145.34 145.34 0 0 1-.69 14.75l-.46 3.67c-.17 1.23-.4 2.45-.6 3.67s-.44 2.41-.68 3.61-.48 2.4-.75 3.6a132.61 132.61 0 0 1-3.89 14.24 84.72 84.72 0 0 1-5.9 13.65 52.1 52.1 0 0 1-9 12.09l.54-1.4a57.41 57.41 0 0 1-.09 6.69 51.08 51.08 0 0 1-.89 6.65 29.51 29.51 0 0 1-2.09 6.55 18.15 18.15 0 0 1-1.86 3.08 11.72 11.72 0 0 1-1.23 1.41 9.2 9.2 0 0 1-.71.66 8.72 8.72 0 0 1-.85.61 10.19 10.19 0 0 1-3.65 1.35 16.3 16.3 0 0 1-3.63.23 20.79 20.79 0 0 1-6.87-1.54 19.12 19.12 0 0 1-6-3.83 15 15 0 0 1-3.89-6.16 23.66 23.66 0 0 1-1-6.91 42.25 42.25 0 0 1 .54-6.74 52 52 0 0 1 1.45-6.52 34 34 0 0 1 2.47-6.4 78.67 78.67 0 0 0 5.16-11.52c.7-2 1.33-4 1.84-6a27.53 27.53 0 0 0 .94-5.92l1.72 1.79-5.83-.28 1.78-1.15a72.79 72.79 0 0 1-3.86 8.17q-2.15 4-4.61 7.69a103.16 103.16 0 0 1-5.26 7.27 55.41 55.41 0 0 1-6.16 6.71l.6-1.31c0 1-.12 1.84-.22 2.75s-.25 1.78-.42 2.66a39.36 39.36 0 0 1-1.36 5.2 30.79 30.79 0 0 1-2.2 5 23.4 23.4 0 0 1-3.27 4.53 18.4 18.4 0 0 1-4.52 3.52 16.42 16.42 0 0 1-5.51 1.7 19.48 19.48 0 0 1-11.07-1.82 17.12 17.12 0 0 1-4.63-3.33 16.86 16.86 0 0 1-3.27-4.74 18.59 18.59 0 0 1-1.51-5.5 26.45 26.45 0 0 1 0-5.56 40.05 40.05 0 0 1 1-5.31 53 53 0 0 1 1.62-5.1c.63-1.66 1.33-3.3 2.12-4.9l.61-1.2.66-1.18 1.37-2.23c1.74-2.88 3.35-5.89 4.89-8.92s3-6.13 4.33-9.26 2.62-6.28 3.75-9.48a84.85 84.85 0 0 0 2.83-9.66c1.44-6.7 2.87-13.43 4.4-20.13.77-3.36 1.57-6.71 2.46-10s1.82-6.66 3-9.93a.61.61 0 0 1 .28-.33.61.61 0 0 1 .79.18.65.65 0 0 1 .11.42zM273.94 373.4a15.78 15.78 0 0 1-6.77-1.47 1.17 1.17 0 0 1-.55-.67 1.13 1.13 0 0 1 1.62-1.32c.45.24 11.21 5.74 19.94-8.25 5-8 2.1-16.13-.94-24.76-2.46-7-5-14.22-3.34-21.65a1.11 1.11 0 0 1 .5-.68 1.09 1.09 0 0 1 .84-.14 1.12 1.12 0 0 1 .86 1.32c-1.52 6.79.92 13.71 3.27 20.4 3.08 8.75 6.27 17.8.72 26.7-5.33 8.54-11.54 10.52-16.15 10.52z" transform="translate(52.78 -52.92)"></path>
    <path class="cls-6" d="M237.14 407.93c-2.13.19-4.53.35-7.1.47 1.54 0 3 .06 4.22.06a8.12 8.12 0 0 0 2.88-.53zM256.52 385.82a6.33 6.33 0 1 0-6.76 5.87 6.33 6.33 0 0 0 6.76-5.87z" transform="translate(52.78 -52.92)"></path>
    <g class="cls-7">
      <path class="cls-8" d="M256.54 385.49a6.28 6.28 0 0 1-1.91 4.44 6.44 6.44 0 0 1-2.07 1.35 6.53 6.53 0 0 1-2.43.44 6.42 6.42 0 0 1-2.41-.51 6.25 6.25 0 0 1-2-1.4 6.38 6.38 0 0 1-1.35-2.08 6.45 6.45 0 0 1-.44-2.42 6.3 6.3 0 0 1 .64-2.7 6.32 6.32 0 0 0 9.07 2.77 6.33 6.33 0 0 0 2.37-2.6 6.19 6.19 0 0 1 .53 2.71z" transform="translate(52.78 -52.92)"></path>
    </g>
    <path class="cls-5" d="M250.22 393.14h-.11a7.86 7.86 0 1 1 .11 0zm0-12.65a4.92 4.92 0 0 0-4.8 4.88 4.92 4.92 0 0 0 4.73 4.94h.08a4.87 4.87 0 0 0 3.42-1.45 4.92 4.92 0 0 0 1.42-3.42 4.92 4.92 0 0 0-4.77-4.95z" transform="translate(52.78 -52.92)"></path>
    <g class="cls-7">
      <path class="cls-8" d="M245 400.46a6.44 6.44 0 0 1-6.14 6.72L209 408.52a6.46 6.46 0 0 1-6.72-6.14l-.08-1.91c-11.29 2.12-18.82 1-22.79-.12A165.13 165.13 0 0 1 164 433.73c-2.91 4.54-8 16.39-6.09 24.81 2.2 9.71 11.69 13.28 19.06 11.91-7.21 4.53-21.13 1.93-23.85-10.1-1.91-8.42 3.18-20.27 6.08-24.82 4.61-7.18 13-24.11 16.38-36.77.23-.87.44-1.72.62-2.55.76-3.46 1.5-7 2.23-10.46a17 17 0 0 0 4 2c7.09 2.53 16.61 1.83 19.25 1.57l-.12-2.83a6.44 6.44 0 0 1 6.14-6.72l29.86-1.34a6.44 6.44 0 0 1 6.72 6.14l.56 12.58z" transform="translate(52.78 -52.92)"></path>
    </g>
    <path class="cls-6" d="M241.07 402.14l-29.86 1.34a6.46 6.46 0 0 1-6.72-6.14l-.71-15.89a6.45 6.45 0 0 1 4.86-6.53 6.19 6.19 0 0 1 1.28-.19l29.86-1.35a6.48 6.48 0 0 1 6.72 6.14l.56 12.59.15 3.31a6.46 6.46 0 0 1-6.14 6.72z" transform="translate(52.78 -52.92)"></path>
    <g class="cls-7">
      <path class="cls-8" d="M241.07 402.14l-29.86 1.34a6.46 6.46 0 0 1-6.72-6.14l-.71-15.89a6.45 6.45 0 0 1 4.86-6.53l2.86 1.72c2 12.69 5.94 18.89 21.8 18.43 6.84-.19 11.11-1.43 13.77-3l.15 3.31a6.46 6.46 0 0 1-6.15 6.72z" transform="translate(52.78 -52.92)"></path>
    </g>
    <path class="cls-5" d="M210.91 404.9a7.86 7.86 0 0 1-7.83-7.49l-.72-15.9a7.86 7.86 0 0 1 7.49-8.19l29.86-1.32a7.86 7.86 0 0 1 8.2 7.49l.71 15.89a7.86 7.86 0 0 1-7.48 8.2l-29.87 1.34zm29.16-30.11h-.23L210 376.13a5 5 0 0 0-4.79 5.25l.71 15.89a5.06 5.06 0 0 0 5.25 4.8l29.83-1.35a5 5 0 0 0 4.8-5.24l-.72-15.9a5 5 0 0 0-1.55-3.4 5.11 5.11 0 0 0-3.47-1.4z" transform="translate(52.78 -52.92)"></path>
    <path class="cls-6" d="M242.27 402a6 6 0 0 1-1.2.17l-29.86 1.34a6.43 6.43 0 0 1-6.71-6.14l-.32-7.06-.11-2.33-.29-6.5a6.44 6.44 0 0 1 6.14-6.72l6.45-.29a6.46 6.46 0 0 0-5 6.55l.39 8.58.33 7.31a6.44 6.44 0 0 0 6.72 6.14z" transform="translate(52.78 -52.92)"></path>
    <g class="cls-7">
      <path class="cls-8" d="M242.27 402a6 6 0 0 1-1.2.17l-29.86 1.34a6.44 6.44 0 0 1-6.71-6.14l-.43-9.38c.82 1.62 2.26 3.6 4.43 3.71 1.19.07 2.32-.83 3.3-2.09l.33 7.31a6.44 6.44 0 0 0 6.72 6.14z" transform="translate(52.78 -52.92)"></path>
    </g>
    <path class="cls-5" d="M210.91 404.9a7.86 7.86 0 0 1-7.83-7.49l-.72-15.9a7.88 7.88 0 0 1 7.49-8.19l6.45-.29.39 2.78a5 5 0 0 0-3.87 5.12l.72 15.89a5 5 0 0 0 5.24 4.8l23.42-1.06.4 2.78a7.24 7.24 0 0 1-1.47.21l-29.86 1.34zm.6-28.83l-1.53.07a5 5 0 0 0-4.8 5.24l.72 15.9a5 5 0 0 0 5.24 4.79l1.73-.07a7.77 7.77 0 0 1-2.15-5.05l-.72-15.9a7.81 7.81 0 0 1 1.51-4.98z" transform="translate(52.78 -52.92)"></path>
    <path class="cls-19" d="M224.68 388.54c0 .58-.62 5.36-.62 5.36l-3.35.13c-2.3.09-4.27-2.22-4.38-5.17s1.66-5.4 4-5.49l3.35-.14s.96 4.35 1 5.31z" transform="translate(52.78 -52.92)"></path>
    <g class="cls-7">
      <path class="cls-8" d="M225.24 388.54c0 .58-.61 5.36-.61 5.36l-3.35.13c-2.31.09-4.27-2.22-4.39-5.17s1.66-5.4 4-5.49l3.35-.14s.97 4.35 1 5.31z" transform="translate(52.78 -52.92)"></path>
    </g>
    <path class="cls-5" d="M221.15 395.17c-2.85 0-5.25-2.77-5.39-6.26s2.13-6.56 5.05-6.67l2.34-.09a2.32 2.32 0 0 1 2.38 1.83 38.57 38.57 0 0 1 .84 4.51 42.3 42.3 0 0 1-.49 4.54 2.32 2.32 0 0 1-.74 1.43 2.36 2.36 0 0 1-1.49.61l-2.33.09zm2.09-10.77l-2.33.09c-1.66.07-3 2.05-2.89 4.33s1.51 4.09 3.13 4.09h.09l2.32-.09h.06a.08.08 0 0 0 0-.05c.35-2.7.48-3.93.48-4.16a41.83 41.83 0 0 0-.79-4.11v-.05h-.06z" transform="translate(52.78 -52.92)"></path>
    <path class="cls-19" d="M224.62 393.91c2.31-.09 4.08-2.55 4-5.5s-2.08-5.26-4.39-5.17-4.08 2.55-4 5.5 2.08 5.26 4.39 5.17z" transform="translate(52.78 -52.92)"></path>
    <g class="cls-12">
      <path class="cls-13" d="M228.59 388.41a6.27 6.27 0 0 1 0 1.06c-.56-2.24-2.26-3.84-4.18-3.77s-3.63 2-3.93 4.43a7.17 7.17 0 0 1-.2-1.39c-.11-2.95 1.67-5.41 4-5.5s4.2 2.22 4.31 5.17z" transform="translate(52.78 -52.92)"></path>
    </g>
    <g class="cls-7">
      <path class="cls-8" d="M228.59 388.41c.11 2.94-1.66 5.41-4 5.5s-4.27-2.23-4.39-5.17a6.83 6.83 0 0 1 .09-1.43c.66 2.06 2.27 3.48 4.09 3.41s3.47-1.8 3.87-4.07a6.56 6.56 0 0 1 .34 1.76z" transform="translate(52.78 -52.92)"></path>
    </g>
    <path class="cls-5" d="M224.5 395c-2.85 0-5.25-2.76-5.39-6.25s2.13-6.56 5-6.67h.18c2.85 0 5.24 2.76 5.38 6.25s-2.12 6.55-5.05 6.67zm-.17-10.67h-.08c-1.65.07-3 2.05-2.88 4.33s1.54 4.15 3.21 4.08 3-2 2.89-4.32-1.47-4.06-3.14-4.06zM232.91 403.57a1.12 1.12 0 0 1-.79-.32 1.16 1.16 0 0 1-.34-.78l-.17-8.05a6.79 6.79 0 0 1 .73-3.19 6.7 6.7 0 0 1 2.15-2.46 4.47 4.47 0 0 0 1.45-1.66 4.38 4.38 0 0 0 .45-2.16l-.47-11.33a1.11 1.11 0 0 1 .3-.81 1.11 1.11 0 0 1 1.59-.07 1 1 0 0 1 .26.36 1.05 1.05 0 0 1 .11.43l.47 11.33a6.67 6.67 0 0 1-2.87 5.78 4.42 4.42 0 0 0-1.43 1.63 4.51 4.51 0 0 0-.48 2.11l.17 8a1.1 1.1 0 0 1-.07.44 1.47 1.47 0 0 1-.24.37 1 1 0 0 1-.36.25 1.28 1.28 0 0 1-.43.1z" transform="translate(52.78 -52.92)"></path>
    <path class="cls-6" d="M179.88 380.12a7 7 0 0 0-5.32 7c-.14 4.34 3.7 6.92 3.7 6.92s8.66 4.8 26.79 1.24c0 0 5.41-6.95-.45-11.1 0 .03-17.19 2.19-24.72-4.06z" transform="translate(52.78 -52.92)"></path>
    <g class="cls-7">
      <path class="cls-8" d="M205.05 395.31c-18.13 3.56-26.79-1.24-26.79-1.24s-3.83-2.58-3.7-6.92a9 9 0 0 1 .09-1 9.62 9.62 0 0 0 3 3.54s7.55 4.18 23.31 1.84a6.69 6.69 0 0 0 5.59-5.18v-.08c2.45 4.03-1.5 9.04-1.5 9.04z" transform="translate(52.78 -52.92)"></path>
    </g>
    <path class="cls-5" d="M192.36 398c-9.7 0-14.51-2.58-14.78-2.73l-.11-.07c-.18-.12-4.48-3.08-4.32-8.13a8.45 8.45 0 0 1 6.46-8.37l.66-.13.51.43c7 5.78 23.48 3.79 23.65 3.77l.54-.07.45.32a7.33 7.33 0 0 1 3.24 5c.6 4.06-2.37 7.93-2.5 8.1l-.32.41-.52.1a67 67 0 0 1-12.96 1.37zM179 392.87c.75.37 9 4.22 25.22 1.16.61-.93 2-3.3 1.64-5.55a4.44 4.44 0 0 0-1.66-2.81c-3.09.32-17.23 1.44-24.62-4-1.14.42-3.49 1.75-3.61 5.52-.1 3.22 2.62 5.36 3 5.67zM275.6 328.71a1.55 1.55 0 0 1-.31 0c-19.29-4.31-17.82-22.54-17.8-22.71a1.43 1.43 0 0 1 .51-1 1.4 1.4 0 0 1 1-.32 1.38 1.38 0 0 1 1 .5 1.43 1.43 0 0 1 .32 1c-.06.65-1.22 15.94 15.6 19.68a1.38 1.38 0 0 1 .84.55 1.47 1.47 0 0 1 .26 1 1.41 1.41 0 0 1-.46.89 1.43 1.43 0 0 1-.94.36z" transform="translate(52.78 -52.92)"></path>
    <path class="cls-20" d="M294.21 235.13l4 6.86a2.92 2.92 0 0 1 0 2.95 2.85 2.85 0 0 1-1.08 1.07 2.9 2.9 0 0 1-1.47.4h-7.96a3 3 0 0 1-2.55-1.47 2.92 2.92 0 0 1 0-2.95l4-6.86a2.94 2.94 0 0 1 1.08-1.08 3 3 0 0 1 2.94 0 2.94 2.94 0 0 1 1.04 1.08z" transform="translate(52.78 -52.92)"></path>
    <g class="cls-7">
      <path class="cls-8" d="M284.84 242.75a2.81 2.81 0 0 0 0 1.32 2.92 2.92 0 0 0 1.59 2 2.88 2.88 0 0 0 1.29.3 3 3 0 0 1-2.32-1.13 2.91 2.91 0 0 1-.56-1.21 2.81 2.81 0 0 1 0-1.28z" transform="translate(52.78 -52.92)"></path>
    </g>
    <g class="cls-7">
      <path class="cls-8" d="M287.7 243h7.92a2.85 2.85 0 0 0 2.41-1.27l-3.82-6.62a2.93 2.93 0 0 0-2.55-1.47 2.89 2.89 0 0 0-1.47.39 2.94 2.94 0 0 0-1.08 1.08l-3.83 6.62a2.87 2.87 0 0 0 1.05.94 3 3 0 0 0 1.37.33z" transform="translate(52.78 -52.92)"></path>
    </g>
    <g class="cls-7">
      <path class="cls-8" d="M296 246.38a2.93 2.93 0 0 0 2.42-2.12 2.93 2.93 0 0 1-2.42 2.12z" transform="translate(52.78 -52.92)"></path>
    </g>
    <g class="cls-7">
      <path class="cls-8" d="M298.46 244.25a2.65 2.65 0 0 0 .11-.74 2.65 2.65 0 0 1-.11.74z" transform="translate(52.78 -52.92)"></path>
    </g>
    <path class="cls-5" d="M295.62 248.36h-7.92a4.89 4.89 0 0 1-4.24-7.34l4-6.86a4.83 4.83 0 0 1 1.79-1.8 4.94 4.94 0 0 1 4.9 0 4.83 4.83 0 0 1 1.79 1.8l4 6.86a4.92 4.92 0 0 1 .66 2.45 4.91 4.91 0 0 1-2.45 4.23 4.92 4.92 0 0 1-2.45.66zm-4-12.75a1 1 0 0 0-.86.5l-4 6.86a1 1 0 0 0-.13.5 1 1 0 0 0 .13.49 1 1 0 0 0 .86.5h7.92a1 1 0 0 0 .5-.14.89.89 0 0 0 .36-.36.95.95 0 0 0 0-1l-4-6.86a1 1 0 0 0-.86-.5z" transform="translate(52.78 -52.92)"></path>
    <path class="cls-20" d="M253 188.45c1.12 22.64 24.65 49.62 39 48.91s35.07-29.87 34-52.49-18.34-40.18-38.47-39.19-35.68 20.14-34.53 42.77z" transform="translate(52.78 -52.92)"></path>
    <g class="cls-12">
      <path class="cls-13" d="M253 188.45v.21c1.09-20.5 15.72-37.1 34.43-38 19.93-1 37 16.21 38.43 38.52a38.56 38.56 0 0 0 0-4.3c-1.12-22.63-18.34-40.17-38.47-39.18s-35.54 20.12-34.39 42.75z" transform="translate(52.78 -52.92)"></path>
    </g>
    <g class="cls-7">
      <path class="cls-8" d="M253 183.37c1.12 22.64 24.65 49.62 39 48.92s35.08-29.88 34-52.51v-.62c-3.17 17.49-21.19 36.85-33.92 37.48-14.3.71-37.6-21.5-38.52-40.28v-1.65a46.46 46.46 0 0 0-.56 8.66z" transform="translate(52.78 -52.92)"></path>
    </g>
    <path class="cls-5" d="M291.39 239.33c-7.34 0-17-6.23-25.4-16.43-8.85-10.74-14.44-23.58-15-34.35a45.38 45.38 0 0 1 9.67-30.82c6.86-8.52 16.31-13.49 26.61-14 21.16-1 39.35 17.36 40.52 41 .53 10.77-3.78 24.1-11.52 35.66-7.54 11.32-16.84 18.61-24.27 18.92zM289 147.59h-1.52c-9.17.45-17.61 4.91-23.76 12.55a41.44 41.44 0 0 0-8.82 28.18c.49 10 5.76 21.94 14.09 32.06 7.74 9.41 16.73 15.3 22.81 15 13.12-.65 33.17-28.94 32.11-50.46-1-21-16.55-37.37-34.91-37.37z" transform="translate(52.78 -52.92)"></path>
    <g class="cls-12">
      <path class="cls-13" d="M288.86 156.88c-9.73-.69-16.5 2.25-21.71 8.12-5.53 6.22-4.09 12.26 1.38 12.26s7.66-8.46 20.5-12.32c8.3-2.49 7.51-7.52-.17-8.06z" transform="translate(52.78 -52.92)"></path>
    </g>
    <path class="cls-6" d="M192.78 336.15l-3.64 14.15-6.49 25.28c-.72.26-1.49.53-2.31.84-4.41 1.61-10.39 4.14-18.29 11.89-2.77 2.72-5.87 4.74-10.72 7.71-10.43 6.39-28.85-4-14.17-23.91 12.69-17.2 27.38-25.08 39.74-30.05 4.13-1.66 8-3 11.45-4.24q2.36-.82 4.43-1.67z" transform="translate(52.78 -52.92)"></path>
    <g class="cls-7">
      <path class="cls-8" d="M182.65 375.58c-4.55 1.69-11.22 3.53-20.6 12.73-2.77 2.72-5.86 4.74-10.71 7.71-8.65 5.29-22.78-.93-19-14.54 3.33 23.43 23.59 8.21 30.7.6 11.32-12.08 24.64-15.76 25.96-13.44s-6.35 6.94-6.35 6.94z" transform="translate(52.78 -52.92)"></path>
    </g>
    <path class="cls-5" d="M144.49 399.7a15.18 15.18 0 0 1-11.14-4.7c-5.31-5.8-4.43-14.76 2.36-24 16.36-22.18 35.7-29.08 49.81-34.12 2.37-.85 4.6-1.65 6.58-2.44a1.79 1.79 0 0 1 1.39 0 1.88 1.88 0 0 1 .58.4 1.93 1.93 0 0 1 .38.59 1.83 1.83 0 0 1 0 1.38 1.82 1.82 0 0 1-.4.58 1.79 1.79 0 0 1-.59.39c-2 .81-4.31 1.62-6.71 2.48-13.68 4.88-32.41 11.57-48.12 32.86-5.77 7.82-6.72 14.88-2.6 19.38a11.74 11.74 0 0 0 14.38 1.92c5-3.07 7.86-5 10.39-7.45 8.84-8.68 15.57-11.1 20-12.7l1.22-.44a1.79 1.79 0 0 1 .69-.12 1.84 1.84 0 0 1 .69.17 1.93 1.93 0 0 1 .57.41 1.77 1.77 0 0 1 .37.6 1.84 1.84 0 0 1 .11.7 1.78 1.78 0 0 1-.16.68 1.69 1.69 0 0 1-.42.57 1.55 1.55 0 0 1-.6.37l-1.25.46c-4.4 1.58-10.43 3.75-18.71 11.87-2.78 2.73-5.78 4.74-11 8a14.91 14.91 0 0 1-7.82 2.16z" transform="translate(52.78 -52.92)"></path>
    <path class="cls-6" d="M258 296.16a1 1 0 0 1-.42 0 1.17 1.17 0 0 1-.4-.13 1.22 1.22 0 0 1-.32-.28 1 1 0 0 1-.18-.38l-8.17-30.14a1 1 0 0 1 0-.43 1.17 1.17 0 0 1 .13-.4 1.22 1.22 0 0 1 .28-.32 1 1 0 0 1 .38-.18 11.31 11.31 0 0 1 8.64 1.11 11.25 11.25 0 0 1 3.34 2.92 11.37 11.37 0 0 1 2 4l2.72 10.28a11.36 11.36 0 0 1-8 14z" transform="translate(52.78 -52.92)"></path>
    <path class="cls-5" d="M257.74 296.59a1.5 1.5 0 0 1-.89-.31 1.46 1.46 0 0 1-.53-.78l-8.16-30.14a1.41 1.41 0 0 1 0-.58 1.33 1.33 0 0 1 .18-.54 1.28 1.28 0 0 1 .37-.43 1.5 1.5 0 0 1 .52-.26 11.76 11.76 0 0 1 14.42 8.28l2.79 10.28a11.74 11.74 0 0 1 .31 4.57 11.55 11.55 0 0 1-1.46 4.35 11.72 11.72 0 0 1-7.12 5.5 1.76 1.76 0 0 1-.43.06zm-5.48-32.68a11.14 11.14 0 0 0-2.87.38.9.9 0 0 0-.24.12.76.76 0 0 0-.19.21.79.79 0 0 0-.08.26.62.62 0 0 0 0 .27l8.16 30.15a.8.8 0 0 0 .13.24.58.58 0 0 0 .2.18.62.62 0 0 0 .26.09.8.8 0 0 0 .27 0 11 11 0 0 0 8-9.21 10.86 10.86 0 0 0-.29-4.28L262.88 272a11 11 0 0 0-10.62-8.11z" transform="translate(52.78 -52.92)"></path>
    <g class="cls-7">
      <path class="cls-8" d="M264.73 277.39l1.3 4.82a11.36 11.36 0 0 1-8 14 1 1 0 0 1-.82-.11 1.1 1.1 0 0 1-.51-.65l-2.17-8a1.14 1.14 0 0 0 .51.35 1.06 1.06 0 0 0 .61 0l.72-.19a11.4 11.4 0 0 0 8.37-10.17z" transform="translate(52.78 -52.92)"></path>
    </g>
    <path class="cls-5" d="M257.74 298a2.89 2.89 0 0 1-2.79-2.14l-8.17-30.14a2.89 2.89 0 0 1 2-3.55 13.21 13.21 0 0 1 16.22 9.29l2.78 10.28a13.18 13.18 0 0 1-9.28 16.17 2.71 2.71 0 0 1-.76.09zm-7.27-32.51l7.77 28.7a9.58 9.58 0 0 0 6.05-11.52l-2.79-10.27a9.59 9.59 0 0 0-11-6.9z" transform="translate(52.78 -52.92)"></path>
    <path class="cls-6" d="M149.78 290.89a1 1 0 0 1 .42 0 .94.94 0 0 1 .4.13 1 1 0 0 1 .32.28 1 1 0 0 1 .19.38l8.17 30.15a1 1 0 0 1 0 .42 1.12 1.12 0 0 1-.14.4 1 1 0 0 1-.27.32 1.23 1.23 0 0 1-.38.19 11.37 11.37 0 0 1-14-8l-2.78-10.28a11.37 11.37 0 0 1 8-13.95z" transform="translate(52.78 -52.92)"></path>
    <path class="cls-5" d="M155.54 323.91a11.8 11.8 0 0 1-11.35-8.69l-2.79-10.28a11.79 11.79 0 0 1 8.28-14.43 1.47 1.47 0 0 1 1.8 1l8.17 30.14a1.38 1.38 0 0 1 0 .57 1.32 1.32 0 0 1-.18.55 1.3 1.3 0 0 1-.38.43 1.37 1.37 0 0 1-.51.26 11.84 11.84 0 0 1-3.04.45zm-5.66-32.66a11 11 0 0 0-7.74 13.49l2.79 10.26a11 11 0 0 0 13.48 7.74.72.72 0 0 0 .43-.33.7.7 0 0 0 .07-.53l-8.17-30.14a.72.72 0 0 0-.12-.25.91.91 0 0 0-.21-.18 1.14 1.14 0 0 0-.26-.09.82.82 0 0 0-.27 0z" transform="translate(52.78 -52.92)"></path>
    <g class="cls-7">
      <path class="cls-8" d="M157 313.43l2.27 8.37a1.07 1.07 0 0 1-.11.82 1.1 1.1 0 0 1-.65.51 11.43 11.43 0 0 1-8.64-1.11 11.46 11.46 0 0 1-5.32-6.89l-1.17-4.34a11.37 11.37 0 0 0 11.75 3.74l1.1-.3a1 1 0 0 0 .77-.8z" transform="translate(52.78 -52.92)"></path>
    </g>
    <path class="cls-5" d="M155.54 325.33a13.19 13.19 0 0 1-12.72-9.74L140 305.32a13.19 13.19 0 0 1 9.28-16.18 2.88 2.88 0 0 1 3.54 2l8.18 30.18a2.9 2.9 0 0 1-2 3.55 13.34 13.34 0 0 1-3.46.46zm-6-32.49a9.57 9.57 0 0 0-6 11.53l2.78 10.28a9.57 9.57 0 0 0 11 6.89z" transform="translate(52.78 -52.92)"></path>
    <g class="cls-7">
      <path class="cls-8" d="M249.43 316.15a43 43 0 0 1-60.29 34.15c-1.1-.48-2.17-1-3.21-1.6a42.66 42.66 0 0 1-9-6.64c4.12-1.65 8-3 11.44-4.23 1.66-6.29 3.74-11.79 5.95-11.79h36.78a15.08 15.08 0 0 1 5.55 1c.37-.27.76-.55 1.16-.86a120.08 120.08 0 0 0 11.62-10.03z" transform="translate(52.78 -52.92)"></path>
    </g>
    <path class="cls-6" d="M203.91 346.75a53.23 53.23 0 1 0-53.23-53.23 53.23 53.23 0 0 0 53.23 53.23z" transform="translate(52.78 -52.92)"></path>
    <path class="cls-5" d="M203.8 347.15a53.7 53.7 0 1 1 10.42-1 53.26 53.26 0 0 1-10.42 1zm.2-106.49a53.61 53.61 0 0 0-10.27 1 52.48 52.48 0 1 0 10.27-1z" transform="translate(52.78 -52.92)"></path>
    <g class="cls-7">
      <path class="cls-8" d="M254.23 276.15a54.74 54.74 0 0 1 1.92 7.13 53.23 53.23 0 0 1-104.48 20.48c-.16-.83-.3-1.66-.42-2.48a53.23 53.23 0 0 0 103-25.13z" transform="translate(52.78 -52.92)"></path>
    </g>
    <path class="cls-5" d="M203.79 348.57a55.08 55.08 0 1 1 10.71-1 55.78 55.78 0 0 1-10.71 1zm.21-106.48a52.39 52.39 0 0 0-10 1 51.25 51.25 0 1 0 10-1z" transform="translate(52.78 -52.92)"></path>
    <path class="cls-5" d="M256.24 284.66a47.78 47.78 0 0 1-3.15 29.34c-3 6.77-18.26 20.73-39.74 25.48-19.92 4.4-40.34-2.39-45.82-7.36a47.74 47.74 0 0 1-14.79-25.58c-5.71-27 15.09-43 43.67-49.1s54.12.25 59.83 27.22z" transform="translate(52.78 -52.92)"></path>
    <g class="cls-14">
      <path class="cls-15" d="M238.93 295.09c3.77-.11 6.7-4.42 6.54-9.62s-3.33-9.32-7.1-9.21-6.7 4.42-6.54 9.62 3.33 9.32 7.1 9.21z" transform="translate(52.78 -52.92)"></path>
    </g>
    <g class="cls-14">
      <path class="cls-15" d="M238 306.05c.26-2.37-1.18-4.48-3.22-4.7s-3.89 1.52-4.15 3.89 1.18 4.48 3.21 4.71 3.9-1.52 4.16-3.9z" transform="translate(52.78 -52.92)"></path>
    </g>
    <g class="cls-7">
      <path class="cls-21" d="M240.84 261.63c7.61 4.7 13.1 12.19 15.4 23a47.8 47.8 0 0 1-3.15 29.37c-3 6.77-18.26 20.73-39.74 25.48a65.5 65.5 0 0 1-22.12.88c26.29-6.41 44.86-23.51 48.57-31.9a60.54 60.54 0 0 0 4-37.28 53.59 53.59 0 0 0-2.96-9.55z" transform="translate(52.78 -52.92)"></path>
    </g>
    <path class="cls-5" d="M151.77 284.45a1.91 1.91 0 0 1-.81-.21 1.84 1.84 0 0 1-.61-.57 1.65 1.65 0 0 1-.26-.78 1.52 1.52 0 0 1 .14-.82c6.33-15.46 22.51-27 44.39-31.62 21.72-4.6 41.11-.88 53.23 10.19a1.64 1.64 0 0 1 .59 1 1.75 1.75 0 0 1-.25 1.18 1.69 1.69 0 0 1-1 .71 1.71 1.71 0 0 1-1.2-.11h-.08l-.17-.09-.15-.13c-11.29-10.37-29.62-13.81-50.3-9.43s-36.08 15.2-42 29.62l-.07.16a1.71 1.71 0 0 1-1.5.91z" transform="translate(52.78 -52.92)"></path>
    <g class="cls-14">
      <path class="cls-15" d="M167.76 320.15s-14-24.83-1.89-38.46 32.72-18 32.52-16.54c0 0-21.66 10.36-26.78 30.31-3.94 15.38-3.85 24.69-3.85 24.69z" transform="translate(52.78 -52.92)"></path>
    </g>
    <path class="cls-5" d="M212.55 418.1c1.95-.12 4-.19 6-.29s4-.17 6-.35 4-.41 6-.77a37.65 37.65 0 0 0 5.84-1.5.22.22 0 0 1 .14 0 .22.22 0 0 1 .11.1.17.17 0 0 1 0 .14.2.2 0 0 1-.08.12 26.63 26.63 0 0 1-5.58 2.77 46.36 46.36 0 0 1-6 1.66 51.05 51.05 0 0 1-6.16.89 39.34 39.34 0 0 1-6.24.06 1.41 1.41 0 0 1-.94-.46 1.39 1.39 0 0 1-.38-1 1.46 1.46 0 0 1 .4-1 1.42 1.42 0 0 1 .95-.43zM227.45 442.32c-10.65 0-19.23-7.24-19.35-7.34a1.47 1.47 0 0 1-.47-1 1.45 1.45 0 0 1 .34-1 1.42 1.42 0 0 1 2-.16c.65.55 15.93 13.37 30.2 2.06a1.37 1.37 0 0 1 .49-.26 1.32 1.32 0 0 1 .56-.05 1.21 1.21 0 0 1 .53.16 1.5 1.5 0 0 1 .43.36 1.59 1.59 0 0 1 .26.5 1.5 1.5 0 0 1 0 .56 1.58 1.58 0 0 1-.18.53 1.64 1.64 0 0 1-.37.42 22.78 22.78 0 0 1-14.44 5.22zM190.37 437.71c-4.75 0-9.66-1.84-14.54-5.5a47.64 47.64 0 0 1-10-10.41 1.4 1.4 0 0 1-.21-1.05 1.38 1.38 0 0 1 .6-.9 1.39 1.39 0 0 1 2 .38c.15.22 14.61 21.34 30.26 12.45a1.43 1.43 0 0 1 1.07-.13 1.46 1.46 0 0 1 .86.66 1.43 1.43 0 0 1 .13 1.07 1.46 1.46 0 0 1-.66.86 19 19 0 0 1-9.51 2.57zM174.24 380.51a1.44 1.44 0 0 1-1.4-1.21c-2.1-14.26-14.77-26.87-14.9-27a1.38 1.38 0 0 1-.42-1 1.41 1.41 0 0 1 2.4-1c.55.54 13.47 13.39 15.72 28.6a1.41 1.41 0 0 1-.27 1.05 1.37 1.37 0 0 1-.92.55zM165.94 442.86a19.5 19.5 0 0 0 4.25 4.49 14.09 14.09 0 0 0 5.35 2.6 11.39 11.39 0 0 0 5.65-.19 17.1 17.1 0 0 0 5.09-2.58 1.8 1.8 0 0 1 1.35-.33 1.83 1.83 0 0 1 1.18.73 1.82 1.82 0 0 1-.4 2.53l-.21.13a20.32 20.32 0 0 1-6.44 2.16 14.58 14.58 0 0 1-3.43.05 13.81 13.81 0 0 1-3.3-.79 15.27 15.27 0 0 1-5.4-3.65 20 20 0 0 1-3.69-5.15zM209.6 448.94a16.52 16.52 0 0 0 4 3.89 12.93 12.93 0 0 0 4.91 2.1 11.7 11.7 0 0 0 5.13-.18 17 17 0 0 0 4.72-2.06 2 2 0 0 1 .7-.26 1.84 1.84 0 0 1 .74.05 1.8 1.8 0 0 1 .66.34 1.91 1.91 0 0 1 .47.58 1.93 1.93 0 0 1 .2.71 1.8 1.8 0 0 1-.1.73 2 2 0 0 1-.39.64 1.85 1.85 0 0 1-.61.42 20 20 0 0 1-5.93 1.52 13.82 13.82 0 0 1-6.05-.76 14.35 14.35 0 0 1-5-3.14 17.22 17.22 0 0 1-3.45-4.58z" transform="translate(52.78 -52.92)"></path>
  </g>
  <path id="bola_01" data-name="bola 01" class="cls-22" d="M68.27 121.82a3.47 3.47 0 1 1 4.64-1.6 3.47 3.47 0 0 1-4.64 1.6z" transform="translate(52.78 -52.92)"></path>
  <path id="bola_02" data-name="bola 02" class="cls-22" d="M365.27 102.82a3.47 3.47 0 1 1 4.64-1.6 3.47 3.47 0 0 1-4.64 1.6z" transform="translate(52.78 -52.92)"></path>
  <path id="bola_03" data-name="bola 03" class="cls-23" d="M307.06 67.54a2 2 0 1 1 2.56-1.11 2 2 0 0 1-2.56 1.11z" transform="translate(52.78 -52.92)"></path>
  <path id="bola_04" data-name="bola 04" class="cls-22" d="M76 56.31a1.78 1.78 0 1 1 2.38-.83 1.79 1.79 0 0 1-2.38.83z" transform="translate(52.78 -52.92)"></path>
  <path id="star_01" data-name="star 01" class="cls-24" d="M7 277.08c-.06.93 1.79 1.87 4.63 2.5a3.45 3.45 0 0 1 1.8 1.07 3.3 3.3 0 0 1 .82 1.91c.27 2.89 1 4.86 1.89 4.92s1.87-1.8 2.5-4.64a3.38 3.38 0 0 1 1.07-1.79 3.34 3.34 0 0 1 1.92-.83c2.89-.27 4.85-1 4.91-1.89s-1.8-1.88-4.63-2.5a3.37 3.37 0 0 1-1.8-1.07 3.28 3.28 0 0 1-.83-1.92c-.27-2.89-1-4.85-1.89-4.91s-1.87 1.8-2.5 4.63a3.4 3.4 0 0 1-3 2.63c-2.89.26-4.81.95-4.89 1.89z" transform="translate(52.78 -52.92)"></path>
  <path id="bola_06" data-name="bola 06" class="cls-24" d="M139.63 148.22a2.52 2.52 0 1 1 2.67-2.36 2.53 2.53 0 0 1-2.67 2.36z" transform="translate(52.78 -52.92)"></path>
  <path id="bola_07" data-name="bola 07" class="cls-22" d="M18.7 216a1.31 1.31 0 0 1-1.21-1.38A1.3 1.3 0 1 1 18.7 216z" transform="translate(52.78 -52.92)"></path>
  <path id="bola_08" data-name="bola 08" class="cls-22" d="M398.21 183.64a1.78 1.78 0 1 1 2.26-1.1 1.78 1.78 0 0 1-2.26 1.1z" transform="translate(52.78 -52.92)"></path>
  <path id="star_02" data-name="star 02" class="cls-25" d="M418.16 296a15.35 15.35 0 0 1-3.3-1.75 3.4 3.4 0 0 1-.57-.54 3.51 3.51 0 0 1 .75-.22 14.81 14.81 0 0 1 3.72-.09 5 5 0 0 0 5-3.08 14.29 14.29 0 0 1 1.75-3.3 2.76 2.76 0 0 1 .53-.57 3.51 3.51 0 0 1 .22.75 14.72 14.72 0 0 1 .1 3.72 5 5 0 0 0 3.08 5 14.72 14.72 0 0 1 3.3 1.74 3.4 3.4 0 0 1 .57.54 3.7 3.7 0 0 1-.75.22 14.78 14.78 0 0 1-3.73.1 5 5 0 0 0-5 3.07 15.27 15.27 0 0 1-1.74 3.29 3.4 3.4 0 0 1-.54.57 3.7 3.7 0 0 1-.22-.75 14.72 14.72 0 0 1-.1-3.72zm0 0a4.84 4.84 0 0 1 2.35 2m-2.35-2l2.35 2m0 0a4.94 4.94 0 0 1 .73 3zm1.16 7.63zm-.28-.06zm12.08-7.49zm-.07.28zm-7.5-12.08zm.28.07zm-12.07 7.49zm.07-.28z" transform="translate(52.78 -52.92)"></path>
</svg>
