<?xml version="1.0" encoding="UTF-8"?>
<svg xmlns="http://www.w3.org/2000/svg" width="24" height="24" viewBox="0 0 24 24" fill="none">
  <path d="M13.5006 9.74872C13.9148 9.74872 14.2506 9.41293 14.2506 8.99872C14.2506 8.5845 13.9148 8.24872 13.5006 8.24872V9.74872ZM6.99791 8.24872C6.5837 8.24872 6.24791 8.5845 6.24791 8.99872C6.24791 9.41293 6.5837 9.74872 6.99791 9.74872V8.24872ZM10.4994 14.2512C10.0852 14.2512 9.74937 14.587 9.74937 15.0012C9.74937 15.4154 10.0852 15.7512 10.4994 15.7512V14.2512ZM17.0021 15.7512C17.4163 15.7512 17.7521 15.4154 17.7521 15.0012C17.7521 14.587 17.4163 14.2512 17.0021 14.2512V15.7512ZM16.0017 20.2537H7.99833V21.7537H16.0017V20.2537ZM7.99833 20.2537C5.64997 20.2537 3.74625 18.35 3.74625 16.0016H2.24625C2.24625 19.1784 4.82154 21.7537 7.99833 21.7537V20.2537ZM3.74625 16.0016V7.9983H2.24625V16.0016H3.74625ZM3.74625 7.9983C3.74625 5.64994 5.64997 3.74622 7.99833 3.74622V2.24622C4.82154 2.24622 2.24625 4.82151 2.24625 7.9983H3.74625ZM7.99833 3.74622H16.0017V2.24622H7.99833V3.74622ZM16.0017 3.74622C18.35 3.74622 20.2537 5.64994 20.2537 7.9983H21.7537C21.7537 4.82151 19.1785 2.24622 16.0017 2.24622V3.74622ZM20.2537 7.9983V16.0016H21.7537V7.9983H20.2537ZM20.2537 16.0016C20.2537 18.35 18.35 20.2537 16.0017 20.2537V21.7537C19.1785 21.7537 21.7537 19.1784 21.7537 16.0016H20.2537ZM13.5006 8.24872H6.99791V9.74872H13.5006V8.24872ZM16.0017 9.99944H14.501V11.4994H16.0017V9.99944ZM14.501 9.99944C14.3627 9.99944 14.2506 9.88733 14.2506 9.74903H12.7506C12.7506 10.7158 13.5343 11.4994 14.501 11.4994V9.99944ZM14.2506 9.74903V8.2484H12.7506V9.74903H14.2506ZM14.2506 8.2484C14.2506 8.1101 14.3627 7.99799 14.501 7.99799V6.49799C13.5343 6.49799 12.7506 7.28167 12.7506 8.2484H14.2506ZM14.501 7.99799H16.0017V6.49799H14.501V7.99799ZM16.0017 7.99799C16.14 7.99799 16.2521 8.1101 16.2521 8.2484H17.7521C17.7521 7.28167 16.9684 6.49799 16.0017 6.49799V7.99799ZM16.2521 8.2484V9.74903H17.7521V8.2484H16.2521ZM16.2521 9.74903C16.2521 9.88733 16.14 9.99944 16.0017 9.99944V11.4994C16.9684 11.4994 17.7521 10.7158 17.7521 9.74903H16.2521ZM10.4994 15.7512H17.0021V14.2512H10.4994V15.7512ZM7.99833 14.0005H9.49895V12.5005H7.99833V14.0005ZM9.49895 14.0005C9.63726 14.0005 9.74937 14.1126 9.74937 14.2509H11.2494C11.2494 13.2842 10.4657 12.5005 9.49895 12.5005V14.0005ZM9.74937 14.2509V15.7515H11.2494V14.2509H9.74937ZM9.74937 15.7515C9.74937 15.8898 9.63726 16.0019 9.49895 16.0019V17.5019C10.4657 17.5019 11.2494 16.7183 11.2494 15.7515H9.74937ZM9.49895 16.0019H7.99833V17.5019H9.49895V16.0019ZM7.99833 16.0019C7.86003 16.0019 7.74791 15.8898 7.74791 15.7515H6.24791C6.24791 16.7183 7.0316 17.5019 7.99833 17.5019V16.0019ZM7.74791 15.7515V14.2509H6.24791V15.7515H7.74791ZM7.74791 14.2509C7.74791 14.1126 7.86003 14.0005 7.99833 14.0005V12.5005C7.0316 12.5005 6.24791 13.2842 6.24791 14.2509H7.74791Z" fill="#323232"></path>
</svg>
