<svg width="20" height="20" viewBox="0 0 20 20" fill="none" xmlns="http://www.w3.org/2000/svg">
<path d="M11.5006 7.74872C11.9148 7.74872 12.2506 7.41293 12.2506 6.99872C12.2506 6.5845 11.9148 6.24872 11.5006 6.24872V7.74872ZM4.99791 6.24872C4.5837 6.24872 4.24791 6.5845 4.24791 6.99872C4.24791 7.41293 4.5837 7.74872 4.99791 7.74872V6.24872ZM8.49937 12.2512C8.08516 12.2512 7.74937 12.587 7.74937 13.0012C7.74937 13.4154 8.08516 13.7512 8.49937 13.7512V12.2512ZM15.0021 13.7512C15.4163 13.7512 15.7521 13.4154 15.7521 13.0012C15.7521 12.587 15.4163 12.2512 15.0021 12.2512V13.7512ZM14.0017 18.2537H5.99833V19.7537H14.0017V18.2537ZM5.99833 18.2537C3.64997 18.2537 1.74625 16.35 1.74625 14.0016H0.246246C0.246246 17.1784 2.82154 19.7537 5.99833 19.7537V18.2537ZM1.74625 14.0016V5.9983H0.246246V14.0016H1.74625ZM1.74625 5.9983C1.74625 3.64994 3.64997 1.74622 5.99833 1.74622V0.246216C2.82154 0.246216 0.246246 2.82151 0.246246 5.9983H1.74625ZM5.99833 1.74622H14.0017V0.246216H5.99833V1.74622ZM14.0017 1.74622C16.35 1.74622 18.2537 3.64994 18.2537 5.9983H19.7537C19.7537 2.82151 17.1785 0.246216 14.0017 0.246216V1.74622ZM18.2537 5.9983V14.0016H19.7537V5.9983H18.2537ZM18.2537 14.0016C18.2537 16.35 16.35 18.2537 14.0017 18.2537V19.7537C17.1785 19.7537 19.7537 17.1784 19.7537 14.0016H18.2537ZM11.5006 6.24872H4.99791V7.74872H11.5006V6.24872ZM14.0017 7.99944H12.501V9.49944H14.0017V7.99944ZM12.501 7.99944C12.3627 7.99944 12.2506 7.88733 12.2506 7.74903H10.7506C10.7506 8.71576 11.5343 9.49944 12.501 9.49944V7.99944ZM12.2506 7.74903V6.2484H10.7506V7.74903H12.2506ZM12.2506 6.2484C12.2506 6.1101 12.3627 5.99799 12.501 5.99799V4.49799C11.5343 4.49799 10.7506 5.28167 10.7506 6.2484H12.2506ZM12.501 5.99799H14.0017V4.49799H12.501V5.99799ZM14.0017 5.99799C14.14 5.99799 14.2521 6.1101 14.2521 6.2484H15.7521C15.7521 5.28167 14.9684 4.49799 14.0017 4.49799V5.99799ZM14.2521 6.2484V7.74903H15.7521V6.2484H14.2521ZM14.2521 7.74903C14.2521 7.88733 14.14 7.99944 14.0017 7.99944V9.49944C14.9684 9.49944 15.7521 8.71576 15.7521 7.74903H14.2521ZM8.49937 13.7512H15.0021V12.2512H8.49937V13.7512ZM5.99833 12.0005H7.49895V10.5005H5.99833V12.0005ZM7.49895 12.0005C7.63726 12.0005 7.74937 12.1126 7.74937 12.2509H9.24937C9.24937 11.2842 8.46568 10.5005 7.49895 10.5005V12.0005ZM7.74937 12.2509V13.7515H9.24937V12.2509H7.74937ZM7.74937 13.7515C7.74937 13.8898 7.63726 14.0019 7.49895 14.0019V15.5019C8.46568 15.5019 9.24937 14.7183 9.24937 13.7515H7.74937ZM7.49895 14.0019H5.99833V15.5019H7.49895V14.0019ZM5.99833 14.0019C5.86003 14.0019 5.74791 13.8898 5.74791 13.7515H4.24791C4.24791 14.7183 5.0316 15.5019 5.99833 15.5019V14.0019ZM5.74791 13.7515V12.2509H4.24791V13.7515H5.74791ZM5.74791 12.2509C5.74791 12.1126 5.86003 12.0005 5.99833 12.0005V10.5005C5.0316 10.5005 4.24791 11.2842 4.24791 12.2509H5.74791Z" fill="#323232"/>
</svg>
