<svg width="20" height="20" viewBox="0 0 20 20" fill="none" xmlns="http://www.w3.org/2000/svg">
<path d="M15.625 3.75H10.625V1.25C10.625 1.08424 10.5592 0.925268 10.4419 0.808058C10.3247 0.690848 10.1658 0.625 10 0.625C9.83424 0.625 9.67527 0.690848 9.55806 0.808058C9.44085 0.925268 9.375 1.08424 9.375 1.25V3.75H4.375C3.71196 3.75 3.07607 4.01339 2.60723 4.48223C2.13839 4.95107 1.875 5.58696 1.875 6.25V15C1.875 15.663 2.13839 16.2989 2.60723 16.7678C3.07607 17.2366 3.71196 17.5 4.375 17.5H15.625C16.288 17.5 16.9239 17.2366 17.3928 16.7678C17.8616 16.2989 18.125 15.663 18.125 15V6.25C18.125 5.58696 17.8616 4.95107 17.3928 4.48223C16.9239 4.01339 16.288 3.75 15.625 3.75ZM16.875 15C16.875 15.3315 16.7433 15.6495 16.5089 15.8839C16.2745 16.1183 15.9565 16.25 15.625 16.25H4.375C4.04348 16.25 3.72554 16.1183 3.49112 15.8839C3.2567 15.6495 3.125 15.3315 3.125 15V6.25C3.125 5.91848 3.2567 5.60054 3.49112 5.36612C3.72554 5.1317 4.04348 5 4.375 5H15.625C15.9565 5 16.2745 5.1317 16.5089 5.36612C16.7433 5.60054 16.875 5.91848 16.875 6.25V15ZM12.8125 10.625H7.1875C6.60734 10.625 6.05094 10.8555 5.6407 11.2657C5.23047 11.6759 5 12.2323 5 12.8125C5 13.3927 5.23047 13.9491 5.6407 14.3593C6.05094 14.7695 6.60734 15 7.1875 15H12.8125C13.3927 15 13.9491 14.7695 14.3593 14.3593C14.7695 13.9491 15 13.3927 15 12.8125C15 12.2323 14.7695 11.6759 14.3593 11.2657C13.9491 10.8555 13.3927 10.625 12.8125 10.625ZM10.625 11.875V13.75H9.375V11.875H10.625ZM6.25 12.8125C6.25 12.5639 6.34877 12.3254 6.52459 12.1496C6.7004 11.9738 6.93886 11.875 7.1875 11.875H8.125V13.75H7.1875C6.93886 13.75 6.7004 13.6512 6.52459 13.4754C6.34877 13.2996 6.25 13.0611 6.25 12.8125ZM12.8125 13.75H11.875V11.875H12.8125C13.0611 11.875 13.2996 11.9738 13.4754 12.1496C13.6512 12.3254 13.75 12.5639 13.75 12.8125C13.75 13.0611 13.6512 13.2996 13.4754 13.4754C13.2996 13.6512 13.0611 13.75 12.8125 13.75ZM5.625 8.4375C5.625 8.25208 5.67998 8.07082 5.783 7.91665C5.88601 7.76248 6.03243 7.64232 6.20373 7.57136C6.37504 7.50041 6.56354 7.48184 6.7454 7.51801C6.92725 7.55419 7.0943 7.64348 7.22541 7.77459C7.35652 7.9057 7.44581 8.07275 7.48199 8.2546C7.51816 8.43646 7.49959 8.62496 7.42864 8.79627C7.35768 8.96757 7.23752 9.11399 7.08335 9.217C6.92918 9.32002 6.74792 9.375 6.5625 9.375C6.31386 9.375 6.0754 9.27623 5.89959 9.10041C5.72377 8.9246 5.625 8.68614 5.625 8.4375ZM12.5 8.4375C12.5 8.25208 12.555 8.07082 12.658 7.91665C12.761 7.76248 12.9074 7.64232 13.0787 7.57136C13.25 7.50041 13.4385 7.48184 13.6204 7.51801C13.8023 7.55419 13.9693 7.64348 14.1004 7.77459C14.2315 7.9057 14.3208 8.07275 14.357 8.2546C14.3932 8.43646 14.3746 8.62496 14.3036 8.79627C14.2327 8.96757 14.1125 9.11399 13.9583 9.217C13.8042 9.32002 13.6229 9.375 13.4375 9.375C13.1889 9.375 12.9504 9.27623 12.7746 9.10041C12.5988 8.9246 12.5 8.68614 12.5 8.4375Z" fill="#59608B"/>
</svg>
