<svg width="41" height="42" viewBox="0 0 41 42" fill="none" xmlns="http://www.w3.org/2000/svg">
<path d="M13.8307 36.0063H8.35175C6.77378 36.0053 5.49482 34.7264 5.4939 33.1484V27.6694" stroke-linecap="round" stroke-linejoin="round"/>
<path d="M27.1694 7.66111H32.6484C34.2264 7.66203 35.5053 8.941 35.5062 10.519V15.9979" stroke-linecap="round" stroke-linejoin="round"/>
<path fill-rule="evenodd" clip-rule="evenodd" d="M23.001 35.1726V34.4956C23.0065 32.5696 24.5664 31.0097 26.4924 31.0042H32.0147C33.9407 31.0097 35.5007 32.5696 35.5062 34.4956V35.1726C35.5062 35.633 35.1329 36.0063 34.6725 36.0063H23.8347C23.3742 36.0063 23.001 35.633 23.001 35.1726Z" stroke-linecap="round" stroke-linejoin="round"/>
<path fill-rule="evenodd" clip-rule="evenodd" d="M25.919 23.4877C25.9264 21.6477 27.4226 20.1614 29.2626 20.1663C31.1025 20.1712 32.5909 21.6655 32.5884 23.5055C32.586 25.3454 31.0937 26.8358 29.2537 26.8358C28.367 26.8358 27.5168 26.4826 26.891 25.8543C26.2652 25.2261 25.9155 24.3744 25.919 23.4877V23.4877Z" stroke-linecap="round" stroke-linejoin="round"/>
<path d="M6.49408 11.2426V19.3326" stroke-linecap="round" stroke-linejoin="round"/>
<path d="M19.6931 14.3306V11.2426" stroke-linecap="round" stroke-linejoin="round"/>
<path fill-rule="evenodd" clip-rule="evenodd" d="M10.1625 9.32847H10.2575C10.6001 10.5955 11.7814 11.4509 13.092 11.381C14.4002 11.4476 15.5778 10.5929 15.9199 9.32847H16.0149C16.3501 10.6008 17.536 11.4602 18.8494 11.3827C19.7105 11.4133 20.5252 10.9926 20.9988 10.2727C21.4723 9.55287 21.5361 8.63814 21.167 7.85953L20.0682 5.69196C19.64 4.85158 18.7755 4.32357 17.8323 4.32638H8.32835C7.38624 4.32609 6.52389 4.85523 6.09743 5.6953L5.0003 7.86287C4.63164 8.64261 4.69715 9.55831 5.17306 10.2776C5.64897 10.997 6.46612 11.4154 7.32794 11.381C8.6405 11.4574 9.82548 10.5993 10.1625 9.32847Z" stroke-linecap="round" stroke-linejoin="round"/>
<path d="M19.6931 19.3326V11.2426" stroke-linecap="round" stroke-linejoin="round"/>
<path d="M13.0903 19.3326V15.9979" stroke-linecap="round" stroke-linejoin="round"/>
<path d="M5.4939 19.3326H20.6869" stroke-linecap="round" stroke-linejoin="round"/>
</svg>
