<svg width="35" height="34" viewBox="0 0 35 34" fill="none" xmlns="http://www.w3.org/2000/svg">
<path d="M30.8333 31.3333V14.3" stroke-linecap="round" stroke-linejoin="round"/>
<path fill-rule="evenodd" clip-rule="evenodd" d="M5.73817 33H3.43484C2.91984 33 2.50317 32.5833 2.50317 32.0683V24.765C2.50317 24.25 2.91984 23.8333 3.43484 23.8333H5.73817C6.25317 23.8333 6.66984 24.25 6.66984 24.835V32.1383C6.66984 32.5833 6.25317 33 5.73817 33V33Z" stroke-linecap="round" stroke-linejoin="round"/>
<path d="M6.66992 31.025L8.47326 32.52C8.84659 32.83 9.31825 33 9.80325 33H15.7749C16.5233 33 17.1816 32.5033 17.3883 31.7833L18.6083 27.5133C18.7933 26.8683 18.6849 26.1733 18.3133 25.615C17.8933 24.9833 17.1883 24.605 16.4333 24.605H15.3999H13.9166" stroke-linecap="round" stroke-linejoin="round"/>
<path fill-rule="evenodd" clip-rule="evenodd" d="M4.66829 14.2967C1.83829 14.2767 -0.00670604 11.475 1.21996 9.06L4.07996 3.43167C4.72996 2.14834 6.09996 1.33334 7.60329 1.33334H27.3966C28.9 1.33334 30.27 2.14834 30.9216 3.43167L33.7816 9.06C35.0083 11.475 33.1633 14.2767 30.3333 14.2967C27.9716 14.2967 26.0566 12.6833 26.0566 10.6917V10.6117C26.0566 12.6467 24.1416 14.2967 21.78 14.2967C19.415 14.2967 17.5 12.6467 17.5 10.6117C17.5 12.6467 15.585 14.2967 13.2233 14.2967C10.8616 14.2967 8.94663 12.6467 8.94663 10.6117V10.6917C8.94496 12.6833 7.02996 14.2967 4.66829 14.2967Z" stroke-linecap="round" stroke-linejoin="round"/>
<path d="M24.1667 31.3333H32.5001" stroke-linecap="round" stroke-linejoin="round"/>
<path d="M13.9166 24.605V21.9467C13.9166 19.6733 10.9316 18.835 9.74659 20.7733L6.66992 25.8083" stroke-linecap="round" stroke-linejoin="round"/>
</svg>
