<svg width="34" height="32" viewBox="0 0 34 32" fill="none" xmlns="http://www.w3.org/2000/svg">
<path d="M33.0062 31.0063L29.7048 27.7049" stroke-linecap="round" stroke-linejoin="round"/>
<path d="M24.3925 14.8895C28.5359 14.8895 31.8957 18.2493 31.8957 22.3927C31.8957 26.4494 28.4492 29.8975 24.3925 29.8958C20.2491 29.8958 16.8894 26.5361 16.8894 22.3927C16.8894 18.2493 20.2491 14.8895 24.3925 14.8895" stroke-linecap="round" stroke-linejoin="round"/>
<path d="M27.3103 20.9337L23.6621 24.5819L21.4729 22.3927" stroke-linecap="round" stroke-linejoin="round"/>
<path d="M2.99365 22.6694V26.0042C2.99365 27.8466 4.48594 29.3389 6.32837 29.3389H12.9978" stroke-linecap="round" stroke-linejoin="round"/>
<path d="M33.0061 12.6653V4.32847C33.0061 2.48604 31.5138 0.993752 29.6714 0.993752H23.002" stroke-linecap="round" stroke-linejoin="round"/>
<path d="M9.66327 16V12.6653" stroke-linecap="round" stroke-linejoin="round"/>
<path fill-rule="evenodd" clip-rule="evenodd" d="M6.74199 5.99584H6.83703C7.07212 7.16132 8.24428 8.04836 9.66487 8.04836C11.0855 8.04836 12.2576 7.16132 12.4927 5.99584H12.5878C12.8012 7.15799 13.9833 8.05002 15.4206 8.05002C17.3247 8.03669 18.5669 6.1509 17.7416 4.52689L16.6428 2.36266C16.2143 1.52231 15.3522 0.993752 14.4118 0.993752H4.91456C3.9725 0.993752 3.11047 1.52231 2.6853 2.36266L1.58651 4.52522C0.761163 6.1509 2.00335 8.03502 3.90747 8.04836C5.34307 8.05002 6.52523 7.15799 6.74199 5.99584Z" stroke-linecap="round" stroke-linejoin="round"/>
<path d="M2.06665 16H12.9979" stroke-linecap="round" stroke-linejoin="round"/>
<path d="M3.06049 7.90997V16" stroke-linecap="round" stroke-linejoin="round"/>
<path d="M16.2661 10.9979V7.90997" stroke-linecap="round" stroke-linejoin="round"/>
</svg>
