<svg width="40" height="40" viewBox="0 0 40 40" fill="none" xmlns="http://www.w3.org/2000/svg">
<g>
<path d="M31.6719 13.3305V8.32844C31.6719 6.48672 30.1789 4.99371 28.3372 4.99371H8.32886C6.48715 4.99371 4.99414 6.48672 4.99414 8.32844V30.0041" stroke-width="1.5" stroke-linecap="round" stroke-linejoin="round"/>
<path d="M11.6638 4.99371V26.6694" stroke-width="1.5" stroke-linecap="round" stroke-linejoin="round"/>
<path d="M18.333 26.6694H8.32886C6.48715 26.6694 4.99414 28.1624 4.99414 30.0042V30.0042C4.99414 31.8459 6.48715 33.3389 8.32886 33.3389H16.6657" stroke-width="1.5" stroke-linecap="round" stroke-linejoin="round"/>
<path d="M33.091 18.3326H25.5879" stroke-width="1.5" stroke-linecap="round" stroke-linejoin="round"/>
<path d="M31.8396 18.3326V24.6386L36.163 31.5748C36.8033 32.6019 36.8368 33.8952 36.2506 34.9541C35.6644 36.0129 34.5505 36.671 33.3402 36.6736H25.3452C24.1328 36.6753 23.015 36.0188 22.426 34.9592C21.8369 33.8995 21.8693 32.6037 22.5107 31.5748L26.8341 24.6386V18.3326" stroke-width="1.5" stroke-linecap="round" stroke-linejoin="round"/>
<path d="M32.0669 25.0021H26.6113" stroke-width="1.5" stroke-linecap="round" stroke-linejoin="round"/>
</g>
</svg>
