<svg width="40" height="40" viewBox="0 0 40 40" fill="none" xmlns="http://www.w3.org/2000/svg">
<g>
<path d="M38.75 19.375H36.875V13.75C36.875 13.2527 36.6775 12.7758 36.3258 12.4242C35.9742 12.0725 35.4973 11.875 35 11.875H31.875V10C31.875 9.50272 31.6775 9.02581 31.3258 8.67417C30.9742 8.32254 30.4973 8.125 30 8.125H26.25C25.7527 8.125 25.2758 8.32254 24.9242 8.67417C24.5725 9.02581 24.375 9.50272 24.375 10V19.375H15.625V10C15.625 9.50272 15.4275 9.02581 15.0758 8.67417C14.7242 8.32254 14.2473 8.125 13.75 8.125H10C9.50272 8.125 9.02581 8.32254 8.67417 8.67417C8.32254 9.02581 8.125 9.50272 8.125 10V11.875H5C4.50272 11.875 4.02581 12.0725 3.67417 12.4242C3.32254 12.7758 3.125 13.2527 3.125 13.75V19.375H1.25C1.08424 19.375 0.925268 19.4408 0.808058 19.5581C0.690848 19.6753 0.625 19.8342 0.625 20C0.625 20.1658 0.690848 20.3247 0.808058 20.4419C0.925268 20.5592 1.08424 20.625 1.25 20.625H3.125V26.25C3.125 26.7473 3.32254 27.2242 3.67417 27.5758C4.02581 27.9275 4.50272 28.125 5 28.125H8.125V30C8.125 30.4973 8.32254 30.9742 8.67417 31.3258C9.02581 31.6775 9.50272 31.875 10 31.875H13.75C14.2473 31.875 14.7242 31.6775 15.0758 31.3258C15.4275 30.9742 15.625 30.4973 15.625 30V20.625H24.375V30C24.375 30.4973 24.5725 30.9742 24.9242 31.3258C25.2758 31.6775 25.7527 31.875 26.25 31.875H30C30.4973 31.875 30.9742 31.6775 31.3258 31.3258C31.6775 30.9742 31.875 30.4973 31.875 30V28.125H35C35.4973 28.125 35.9742 27.9275 36.3258 27.5758C36.6775 27.2242 36.875 26.7473 36.875 26.25V20.625H38.75C38.9158 20.625 39.0747 20.5592 39.1919 20.4419C39.3092 20.3247 39.375 20.1658 39.375 20C39.375 19.8342 39.3092 19.6753 39.1919 19.5581C39.0747 19.4408 38.9158 19.375 38.75 19.375ZM5 26.875C4.83424 26.875 4.67527 26.8092 4.55806 26.6919C4.44085 26.5747 4.375 26.4158 4.375 26.25V13.75C4.375 13.5842 4.44085 13.4253 4.55806 13.3081C4.67527 13.1908 4.83424 13.125 5 13.125H8.125V26.875H5ZM14.375 30C14.375 30.1658 14.3092 30.3247 14.1919 30.4419C14.0747 30.5592 13.9158 30.625 13.75 30.625H10C9.83424 30.625 9.67527 30.5592 9.55806 30.4419C9.44085 30.3247 9.375 30.1658 9.375 30V10C9.375 9.83424 9.44085 9.67527 9.55806 9.55806C9.67527 9.44085 9.83424 9.375 10 9.375H13.75C13.9158 9.375 14.0747 9.44085 14.1919 9.55806C14.3092 9.67527 14.375 9.83424 14.375 10V30ZM30.625 30C30.625 30.1658 30.5592 30.3247 30.4419 30.4419C30.3247 30.5592 30.1658 30.625 30 30.625H26.25C26.0842 30.625 25.9253 30.5592 25.8081 30.4419C25.6908 30.3247 25.625 30.1658 25.625 30V10C25.625 9.83424 25.6908 9.67527 25.8081 9.55806C25.9253 9.44085 26.0842 9.375 26.25 9.375H30C30.1658 9.375 30.3247 9.44085 30.4419 9.55806C30.5592 9.67527 30.625 9.83424 30.625 10V30ZM35.625 26.25C35.625 26.4158 35.5592 26.5747 35.4419 26.6919C35.3247 26.8092 35.1658 26.875 35 26.875H31.875V13.125H35C35.1658 13.125 35.3247 13.1908 35.4419 13.3081C35.5592 13.4253 35.625 13.5842 35.625 13.75V26.25Z" />
</g>
</svg>
