<svg width="20" height="20" viewBox="0 0 20 20" fill="none" xmlns="http://www.w3.org/2000/svg">
<path d="M9.99916 6.14746C8.97719 6.14746 7.99708 6.55344 7.27444 7.27608C6.5518 7.99872 6.14583 8.97883 6.14583 10.0008C6.14583 11.0228 6.5518 12.0029 7.27444 12.7255C7.99708 13.4482 8.97719 13.8541 9.99916 13.8541C11.0211 13.8541 12.0012 13.4482 12.7239 12.7255C13.4465 12.0029 13.8525 11.0228 13.8525 10.0008C13.8525 8.97883 13.4465 7.99872 12.7239 7.27608C12.0012 6.55344 11.0211 6.14746 9.99916 6.14746ZM9.99916 12.5033C9.33524 12.5033 8.6985 12.2396 8.22904 11.7701C7.75957 11.3006 7.49583 10.6639 7.49583 9.99996C7.49583 9.33604 7.75957 8.6993 8.22904 8.22984C8.6985 7.76037 9.33524 7.49663 9.99916 7.49663C10.6631 7.49663 11.2998 7.76037 11.7693 8.22984C12.2388 8.6993 12.5025 9.33604 12.5025 9.99996C12.5025 10.6639 12.2388 11.3006 11.7693 11.7701C11.2998 12.2396 10.6631 12.5033 9.99916 12.5033Z" fill="#00B48F"/>
<path d="M14.005 6.90409C14.5011 6.90409 14.9033 6.50189 14.9033 6.00575C14.9033 5.50962 14.5011 5.10742 14.005 5.10742C13.5089 5.10742 13.1067 5.50962 13.1067 6.00575C13.1067 6.50189 13.5089 6.90409 14.005 6.90409Z" fill="#00B48F"/>
<path d="M17.1108 5.09224C16.9179 4.59406 16.6231 4.14164 16.2453 3.76396C15.8675 3.38627 15.4149 3.09163 14.9167 2.89891C14.3336 2.68004 13.7177 2.56169 13.095 2.54891C12.2925 2.51391 12.0383 2.50391 10.0033 2.50391C7.96835 2.50391 7.70751 2.50391 6.91168 2.54891C6.2895 2.56104 5.67398 2.67941 5.09168 2.89891C4.59329 3.09141 4.14065 3.38596 3.76279 3.76368C3.38493 4.14139 3.0902 4.59393 2.89751 5.09224C2.6786 5.67525 2.56052 6.29127 2.54835 6.91391C2.51251 7.71557 2.50168 7.96974 2.50168 10.0056C2.50168 12.0406 2.50168 12.2997 2.54835 13.0972C2.56085 13.7206 2.67835 14.3356 2.89751 14.9197C3.09074 15.4179 3.38576 15.8702 3.76371 16.2479C4.14166 16.6255 4.59423 16.9202 5.09251 17.1131C5.67371 17.3407 6.28949 17.4676 6.91334 17.4881C7.71585 17.5231 7.97001 17.5339 10.005 17.5339C12.04 17.5339 12.3008 17.5339 13.0967 17.4881C13.7193 17.4754 14.3352 17.3574 14.9183 17.1389C15.4165 16.9457 15.8689 16.6508 16.2467 16.273C16.6244 15.8953 16.9193 15.4429 17.1125 14.9447C17.3317 14.3614 17.4492 13.7464 17.4617 13.1231C17.4975 12.3214 17.5083 12.0672 17.5083 10.0314C17.5083 7.99557 17.5083 7.73724 17.4617 6.93974C17.452 6.3083 17.3333 5.68328 17.1108 5.09224ZM16.0958 13.0356C16.0905 13.5158 16.0028 13.9916 15.8367 14.4422C15.7115 14.7663 15.5199 15.0606 15.2742 15.3061C15.0285 15.5517 14.7341 15.7431 14.41 15.8681C13.9644 16.0334 13.4936 16.1211 13.0183 16.1272C12.2267 16.1639 12.0033 16.1731 9.97335 16.1731C7.94168 16.1731 7.73418 16.1731 6.92751 16.1272C6.45245 16.1214 5.98195 16.0338 5.53668 15.8681C5.21142 15.7439 4.91585 15.5528 4.66909 15.3072C4.42233 15.0616 4.22987 14.7669 4.10418 14.4422C3.94038 13.9964 3.85277 13.5263 3.84501 13.0514C3.80918 12.2597 3.80085 12.0364 3.80085 10.0064C3.80085 7.97557 3.80085 7.76807 3.84501 6.96057C3.8504 6.48059 3.93806 6.00509 4.10418 5.55474C4.35835 4.89724 4.87918 4.37974 5.53668 4.12807C5.98217 3.96319 6.45253 3.87554 6.92751 3.86891C7.72001 3.83307 7.94251 3.82307 9.97335 3.82307C12.0042 3.82307 12.2125 3.82307 13.0183 3.86891C13.4937 3.87462 13.9645 3.9623 14.41 4.12807C14.7341 4.2533 15.0285 4.44491 15.2742 4.6906C15.5198 4.93629 15.7115 5.23063 15.8367 5.55474C16.0005 6.00053 16.0881 6.47071 16.0958 6.94557C16.1317 7.73807 16.1408 7.96057 16.1408 9.99141C16.1408 12.0214 16.1408 12.2397 16.105 13.0364H16.0958V13.0356Z" fill="#00B48F"/>
</svg>
