<svg width="20" height="20" viewBox="0 0 20 20" fill="none" xmlns="http://www.w3.org/2000/svg">
<path d="M4.1525 5.99725C5.1595 5.99725 5.97583 5.18092 5.97583 4.17392C5.97583 3.16692 5.1595 2.35059 4.1525 2.35059C3.1455 2.35059 2.32916 3.16692 2.32916 4.17392C2.32916 5.18092 3.1455 5.99725 4.1525 5.99725Z" fill="#00B48F"/>
<path d="M7.6975 7.37891V17.4947H10.8383V12.4922C10.8383 11.1722 11.0867 9.89391 12.7233 9.89391C14.3375 9.89391 14.3575 11.4031 14.3575 12.5756V17.4956H17.5V11.9481C17.5 9.22307 16.9133 7.12891 13.7283 7.12891C12.1992 7.12891 11.1742 7.96807 10.755 8.76224H10.7125V7.37891H7.6975ZM2.57916 7.37891H5.725V17.4947H2.57916V7.37891Z" fill="#00B48F"/>
</svg>
