<svg width="24" height="24" viewBox="0 0 24 24" fill="none" xmlns="http://www.w3.org/2000/svg">
<path fill-rule="evenodd" clip-rule="evenodd" d="M14.601 7.505L17.159 4.947C17.193 4.913 17.182 4.853 17.138 4.834C15.686 4.213 13.902 4.473 12.705 5.67C11.543 6.832 11.237 8.484 11.788 9.89L7.95497 13.723C7.32197 14.356 7.32197 15.383 7.95497 16.017V16.017C8.58797 16.65 9.61497 16.65 10.249 16.017L14.113 12.153C15.52 12.703 17.171 12.398 18.333 11.236C19.532 10.037 19.85 8.25 19.171 6.798C19.151 6.756 19.093 6.745 19.059 6.778L16.436 9.34V9.34L15.519 8.423L14.601 7.505Z" stroke="#323232" stroke-width="1.5" stroke-linecap="round" stroke-linejoin="round"/>
<path d="M11 2.55298C6.224 3.05298 2.5 7.09098 2.5 12C2.5 17.247 6.753 21.5 12 21.5C16.909 21.5 20.947 17.776 21.447 13" stroke="#323232" stroke-width="1.5" stroke-linecap="round" stroke-linejoin="round"/>
</svg>
