<svg width="24" height="24" viewBox="0 0 24 24" fill="none" xmlns="http://www.w3.org/2000/svg">
<path d="M12.001 9.375V8.5" stroke="#323232" stroke-width="1.5" stroke-linecap="round" stroke-linejoin="round"/>
<path d="M12.001 14.625V15.5" stroke="#323232" stroke-width="1.5" stroke-linecap="round" stroke-linejoin="round"/>
<path d="M10.483 14C10.71 14.371 11.097 14.628 11.564 14.628H12.002H12.523C13.202 14.628 13.751 14.078 13.751 13.4C13.751 12.836 13.367 12.345 12.821 12.207L11.181 11.795C10.636 11.658 10.251 11.166 10.251 10.602C10.251 9.92302 10.801 9.37402 11.479 9.37402H12H12.438C12.905 9.37402 13.291 9.62902 13.518 9.99902" stroke="#323232" stroke-width="1.5" stroke-linecap="round" stroke-linejoin="round"/>
<path fill-rule="evenodd" clip-rule="evenodd" d="M19.804 18.2129V18.2129C17.299 17.7119 14.715 17.7739 12.237 18.3929L12 18.4529C9.366 19.1109 6.619 19.1769 3.957 18.6439L3.804 18.6129C3.336 18.5199 3 18.1089 3 17.6329V6.7939C3 6.1629 3.577 5.6899 4.196 5.8129V5.8129C6.701 6.3139 9.285 6.2519 11.763 5.6329L12.236 5.5149C14.714 4.8959 17.299 4.8339 19.803 5.3349L20.195 5.4129C20.664 5.5069 21 5.9169 21 6.3939V17.2329C21 17.8639 20.423 18.3369 19.804 18.2129V18.2129Z" stroke="#323232" stroke-width="1.5" stroke-linecap="round" stroke-linejoin="round"/>
</svg>
