<?xml version="1.0" encoding="utf-8"?>
<!-- Generator: Adobe Illustrator 25.1.0, SVG Export Plug-In . SVG Version: 6.00 Build 0)  -->
<svg version="1.1" id="Camada_1" xmlns="http://www.w3.org/2000/svg" xmlns:xlink="http://www.w3.org/1999/xlink" x="0px" y="0px"
	 viewBox="0 0 20 20" style="enable-background:new 0 0 20 20;" xml:space="preserve">
<path fill-rule="evenodd" clip-rule="evenodd" d="M8.13099 11.869C6.96099 10.699 6.07899 9.38897 5.49299 8.05997C5.36999 7.77897 5.44199 7.44997 5.65899 7.23297L6.47799 6.41397C7.14899 5.74297 7.14899 4.79397 6.56299 4.20797L5.38999 3.03497C4.60899 2.25397 3.34299 2.25397 2.56199 3.03497L1.90999 3.68597C1.16899 4.42697 0.859994 5.49597 1.05999 6.55597C1.55399 9.16897 3.07199 12.03 5.52099 14.479C7.96999 16.928 10.831 18.446 13.444 18.94C14.504 19.14 15.573 18.831 16.314 18.09L16.965 17.439C17.746 16.658 17.746 15.392 16.965 14.611L15.792 13.438C15.206 12.852 14.256 12.852 13.671 13.438L12.768 14.342C12.551 14.559 12.222 14.632 11.941 14.508C10.612 13.921 9.30099 13.038 8.13099 11.869Z" stroke="#00B48F" stroke-width="1.5" stroke-linecap="round" stroke-linejoin="round"/>
<path d="M19 7V1H13" stroke="#00B48F" stroke-width="1.5" stroke-linecap="round" stroke-linejoin="round"/>
<path d="M13 7L19 1" stroke="#00B48F" stroke-width="1.5" stroke-linecap="round" stroke-linejoin="round"/>
</svg>
