<svg width="20" height="20" viewBox="0 0 20 20" fill="none" xmlns="http://www.w3.org/2000/svg">
<path fill-rule="evenodd" clip-rule="evenodd" d="M5.60764 8.40278V8.40278C4.06392 8.40278 2.8125 7.15135 2.8125 5.60764V5.60764C2.8125 4.06392 4.06392 2.8125 5.60764 2.8125V2.8125C7.15135 2.8125 8.40278 4.06392 8.40278 5.60764V5.60764C8.40278 7.15135 7.15135 8.40278 5.60764 8.40278Z" stroke-width="1.3" stroke-linecap="round" stroke-linejoin="round"/>
<path fill-rule="evenodd" clip-rule="evenodd" d="M14.3923 8.40278V8.40278C12.8486 8.40278 11.5972 7.15135 11.5972 5.60764V5.60764C11.5972 4.06392 12.8486 2.8125 14.3923 2.8125V2.8125C15.9361 2.8125 17.1875 4.06392 17.1875 5.60764V5.60764C17.1875 7.15135 15.9361 8.40278 14.3923 8.40278Z" stroke-width="1.3" stroke-linecap="round" stroke-linejoin="round"/>
<path fill-rule="evenodd" clip-rule="evenodd" d="M5.60764 17.1875V17.1875C4.06392 17.1875 2.8125 15.9361 2.8125 14.3924V14.3924C2.8125 12.8486 4.06392 11.5972 5.60764 11.5972V11.5972C7.15135 11.5972 8.40278 12.8486 8.40278 14.3924V14.3924C8.40278 15.9361 7.15135 17.1875 5.60764 17.1875Z" stroke-width="1.3" stroke-linecap="round" stroke-linejoin="round"/>
<path fill-rule="evenodd" clip-rule="evenodd" d="M17.1875 14.3924V14.3924C17.1875 12.8486 15.9361 11.5972 14.3923 11.5972V11.5972C12.8486 11.5972 11.5972 12.8486 11.5972 14.3924V14.3924C11.5972 15.9361 12.8486 17.1875 14.3923 17.1875V17.1875C15.9361 17.1875 17.1875 15.9361 17.1875 14.3924Z" stroke-width="1.3" stroke-linecap="round" stroke-linejoin="round"/>
</svg>
