<svg width="26" height="26" viewBox="0 0 26 26" fill="none" xmlns="http://www.w3.org/2000/svg">
<path d="M7.99792 22.0037H5.49688C4.39185 22.0037 3.49604 21.1079 3.49604 20.0029V5.99705C3.49604 4.89202 4.39185 3.99622 5.49688 3.99622H20.5031C21.6082 3.99622 22.504 4.89202 22.504 5.99705V14.0004" stroke="#FFE000" stroke-width="1.5" stroke-linecap="round" stroke-linejoin="round"/>
<path d="M3.49604 8.99832H22.504" stroke="#FFE000" stroke-width="1.5" stroke-linecap="round" stroke-linejoin="round"/>
<path d="M18.0021 22.0037H19.0025C20.66 22.0037 22.0037 20.66 22.0037 19.0025C22.0037 17.3449 20.66 16.0012 19.0025 16.0012H18.0021" stroke="#FFE000" stroke-width="1.5" stroke-linecap="round" stroke-linejoin="round"/>
<path d="M15.0008 16.0012H14.0004C12.3429 16.0012 10.9992 17.3449 10.9992 19.0025C10.9992 20.66 12.3429 22.0037 14.0004 22.0037H15.0008" stroke="#FFE000" stroke-width="1.5" stroke-linecap="round" stroke-linejoin="round"/>
<path d="M14.0004 19.0025H19.0025" stroke="#FFE000" stroke-width="1.5" stroke-linecap="round" stroke-linejoin="round"/>
<path d="M11.6374 6.49728C11.6374 6.46965 11.615 6.44726 11.5874 6.44726C11.5741 6.44726 11.5614 6.45253 11.552 6.46191C11.5427 6.47129 11.5374 6.48401 11.5374 6.49728C11.5374 6.5249 11.5598 6.5473 11.5874 6.5473C11.615 6.5473 11.6374 6.5249 11.6374 6.49728" stroke="#FFE000" stroke-width="1.5" stroke-linecap="round" stroke-linejoin="round"/>
<path d="M9.09838 6.49728C9.09838 6.48401 9.09311 6.47129 9.08373 6.46191C9.07434 6.45253 9.06162 6.44726 9.04836 6.44726C9.02073 6.44726 8.99833 6.46965 8.99833 6.49728C8.99833 6.5249 9.02073 6.5473 9.04836 6.5473C9.07598 6.5473 9.09838 6.5249 9.09838 6.49728" stroke="#FFE000" stroke-width="1.5" stroke-linecap="round" stroke-linejoin="round"/>
<path d="M6.55232 6.49728C6.55232 6.46965 6.52992 6.44726 6.50229 6.44726C6.47467 6.44726 6.45227 6.46965 6.45227 6.49728C6.45227 6.5249 6.47467 6.5473 6.50229 6.5473C6.52992 6.5473 6.55232 6.5249 6.55232 6.49728" stroke="#FFE000" stroke-width="1.5" stroke-linecap="round" stroke-linejoin="round"/>
</svg>
