<svg width="22" height="20" viewBox="0 0 22 20" fill="none" xmlns="http://www.w3.org/2000/svg">
<path d="M14 12.889H3.184C1.978 12.889 1 11.911 1 10.705V3.184C1 1.978 1.978 1 3.184 1H13.817C15.022 1 16 1.978 16 3.184V8" stroke="#FFE000" stroke-width="1.5" stroke-linecap="round" stroke-linejoin="round"/>
<path d="M10.2 12.89L10.59 16" stroke="#FFE000" stroke-width="1.5" stroke-linecap="round" stroke-linejoin="round"/>
<path d="M7.09 12.89L6.7 16" stroke="#FFE000" stroke-width="1.5" stroke-linecap="round" stroke-linejoin="round"/>
<path d="M5.64 16H11.64" stroke="#FFE000" stroke-width="1.5" stroke-linecap="round" stroke-linejoin="round"/>
<path fill-rule="evenodd" clip-rule="evenodd" d="M16 8H19C20.105 8 21 8.895 21 10V17C21 18.105 20.105 19 19 19H16C14.895 19 14 18.105 14 17V10C14 8.895 14.895 8 16 8Z" stroke="#FFE000" stroke-width="1.5" stroke-linecap="round" stroke-linejoin="round"/>
<path d="M16.75 16.75H18.25" stroke="#FFE000" stroke-width="1.5" stroke-linecap="round" stroke-linejoin="round"/>
</svg>
