<svg width="24" height="24" viewBox="0 0 24 24" fill="none" xmlns="http://www.w3.org/2000/svg">
<path d="M7.5 3H5C3.895 3 3 3.895 3 5V7.5" stroke="#FFE000" stroke-width="1.5" stroke-linecap="round" stroke-linejoin="round"/>
<path d="M3 16.5V19C3 20.105 3.895 21 5 21H7.5" stroke="#FFE000" stroke-width="1.5" stroke-linecap="round" stroke-linejoin="round"/>
<path d="M16.5 21H19C20.105 21 21 20.105 21 19V16.5" stroke="#FFE000" stroke-width="1.5" stroke-linecap="round" stroke-linejoin="round"/>
<path d="M21 7.5V5C21 3.895 20.105 3 19 3H16.5" stroke="#FFE000" stroke-width="1.5" stroke-linecap="round" stroke-linejoin="round"/>
<path d="M12 7V8.67" stroke="#FFE000" stroke-width="1.5" stroke-linecap="round" stroke-linejoin="round"/>
<path d="M12 15.33V17" stroke="#FFE000" stroke-width="1.5" stroke-linecap="round" stroke-linejoin="round"/>
<path d="M9.64 14.36L8.46 15.54" stroke="#FFE000" stroke-width="1.5" stroke-linecap="round" stroke-linejoin="round"/>
<path d="M15.54 8.45996L14.36 9.63996" stroke="#FFE000" stroke-width="1.5" stroke-linecap="round" stroke-linejoin="round"/>
<path d="M8.67 12H7" stroke="#FFE000" stroke-width="1.5" stroke-linecap="round" stroke-linejoin="round"/>
<path d="M17 12H15.33" stroke="#FFE000" stroke-width="1.5" stroke-linecap="round" stroke-linejoin="round"/>
<path d="M8.46 8.45996L9.64 9.63996" stroke="#FFE000" stroke-width="1.5" stroke-linecap="round" stroke-linejoin="round"/>
<path d="M14.36 14.36L15.54 15.54" stroke="#FFE000" stroke-width="1.5" stroke-linecap="round" stroke-linejoin="round"/>
<path d="M14.3568 9.64321C15.6584 10.9448 15.6584 13.0552 14.3568 14.3568C13.0552 15.6584 10.9448 15.6584 9.64323 14.3568C8.34161 13.0552 8.34161 10.9448 9.64323 9.64321C10.9449 8.34159 13.0552 8.34159 14.3568 9.64321" stroke="#FFE000" stroke-width="1.5" stroke-linecap="round" stroke-linejoin="round"/>
</svg>
