<svg width="24" height="24" viewBox="0 0 24 24" fill="none" xmlns="http://www.w3.org/2000/svg">
<path fill-rule="evenodd" clip-rule="evenodd" d="M14 20H19C20.105 20 21 19.105 21 18V6C21 4.895 20.105 4 19 4H5C3.895 4 3 4.895 3 6V18C3 19.105 3.895 20 5 20H10L12 22L14 20Z" stroke="#323232" stroke-width="1.5" stroke-linecap="round" stroke-linejoin="round"/>
<path d="M12.177 12.073C12.275 12.171 12.275 12.329 12.177 12.427C12.079 12.525 11.921 12.525 11.823 12.427C11.725 12.329 11.725 12.171 11.823 12.073C11.921 11.976 12.079 11.976 12.177 12.073" stroke="#323232" stroke-width="1.5" stroke-linecap="round" stroke-linejoin="round"/>
<path d="M16.177 12.073C16.275 12.171 16.275 12.329 16.177 12.427C16.079 12.525 15.921 12.525 15.823 12.427C15.725 12.329 15.725 12.171 15.823 12.073C15.921 11.976 16.079 11.976 16.177 12.073" stroke="#323232" stroke-width="1.5" stroke-linecap="round" stroke-linejoin="round"/>
<path d="M8.177 12.073C8.275 12.171 8.275 12.329 8.177 12.427C8.079 12.525 7.921 12.525 7.823 12.427C7.725 12.329 7.725 12.171 7.823 12.073C7.921 11.976 8.079 11.976 8.177 12.073" stroke="#323232" stroke-width="1.5" stroke-linecap="round" stroke-linejoin="round"/>
</svg>
