<svg width="20" height="20" viewBox="0 0 20 20" fill="none" xmlns="http://www.w3.org/2000/svg">
<path d="M0.99625 11.0004V3.9975C0.99625 2.33981 2.33981 0.99625 3.9975 0.99625H16.0025C17.6602 0.99625 19.0037 2.33981 19.0037 3.9975V16.0025C19.0037 17.6602 17.6602 19.0037 16.0025 19.0037H10" stroke="#FFE000" stroke-width="1.5" stroke-linecap="round" stroke-linejoin="round"/>
<path fill-rule="evenodd" clip-rule="evenodd" d="M8.68645 9.2817L10.6683 11.2635V11.2635L13.5015 8.49638C13.5385 8.46036 13.6005 8.47237 13.6225 8.51838C14.3558 10.086 14.0127 12.0168 12.7171 13.3114C11.4626 14.5659 9.67887 14.896 8.15923 14.3018L3.98649 18.4745C3.30221 19.1578 2.19275 19.1578 1.50946 18.4745V18.4745C0.826179 17.7902 0.826179 16.6808 1.50946 15.9975L5.64919 11.8578C5.05394 10.3391 5.38508 8.5554 6.6396 7.29988C7.93214 6.00734 9.85894 5.72622 11.4276 6.3975C11.4746 6.41851 11.4866 6.48254 11.4506 6.51955L8.68645 9.2817Z" stroke="#FFE000" stroke-width="1.5" stroke-linecap="round" stroke-linejoin="round"/>
</svg>
