<svg width="40" height="40" viewBox="0 0 40 40" fill="none" xmlns="http://www.w3.org/2000/svg">
<path d="M31.6667 15C27.985 15 25 12.015 25 8.33333C25 4.65166 27.985 1.66666 31.6667 1.66666C35.35 1.66666 38.3333 4.65166 38.3333 8.33333C38.3333 12.015 35.35 15 31.6667 15" stroke-linecap="round" stroke-linejoin="round"/>
<path d="M34.63 6.85167L30.9267 10.555L28.7034 8.33334" stroke-linecap="round" stroke-linejoin="round"/>
<path d="M25.21 6.66666H11.6667C7.985 6.66666 5 9.65166 5 13.3333V28.3333C5 32.015 7.985 35 11.6667 35H26.6667C30.3483 35 33.3333 32.015 33.3333 28.3333V14.79" stroke-linecap="round" stroke-linejoin="round"/>
<path d="M14.2916 18.3333H24.9583L23.7916 24.1667H15.4583L13.7916 15.8333H11.7083" stroke-linecap="round" stroke-linejoin="round"/>
<path d="M23.0168 28.275C23.0501 28.3083 23.0501 28.36 23.0168 28.3933C22.9834 28.4267 22.9318 28.4267 22.8984 28.3933C22.8651 28.36 22.8651 28.3083 22.8984 28.275C22.9318 28.2417 22.9851 28.2417 23.0168 28.275" stroke-linecap="round" stroke-linejoin="round"/>
<path d="M16.35 28.275C16.3834 28.3083 16.3834 28.36 16.35 28.3933C16.3167 28.4267 16.265 28.4267 16.2317 28.3933C16.1984 28.36 16.1984 28.3083 16.2317 28.275C16.265 28.2417 16.3184 28.2417 16.35 28.275" stroke-linecap="round" stroke-linejoin="round"/>
</svg>
