<svg id="Camada_1" xmlns="http://www.w3.org/2000/svg" xmlns:xlink="http://www.w3.org/1999/xlink" viewBox="0 0 586 580"><style>.st0{opacity:.4;fill:#22a7f0;enable-background:new}.st1{fill:#fff}.st2{clip-path:url(#SVGID_2_)}.st3,.st4,.st5,.st6{fill-rule:evenodd;clip-rule:evenodd;fill:#02a9fd}.st4,.st5,.st6{fill:#ea1c24}.st5,.st6{fill:#381a46}.st6{fill:#fff}.st10,.st11,.st12,.st13,.st7,.st8,.st9{fill-rule:evenodd;clip-rule:evenodd;fill:#e78c12}.st10,.st11,.st12,.st13,.st8,.st9{fill:#d43d30}.st10,.st11,.st12,.st13,.st9{fill:#fcfe01}.st10,.st11,.st12,.st13{fill:#5c0502}.st11,.st12,.st13{fill:#cbc3cf}.st12,.st13{fill:#ad1b2f}.st13{fill:#1176bb}.st14,.st15{opacity:.25}.st15{fill-rule:evenodd;clip-rule:evenodd;fill:#5c0502;enable-background:new}.st16{opacity:.56}.st17,.st18,.st19{fill-rule:evenodd;clip-rule:evenodd}.st17{opacity:.56;enable-background:new;fill:#fff}.st18,.st19{fill:#9addff}.st19{fill:#f68a8e}.st20{opacity:.29}.st21,.st22,.st23{fill-rule:evenodd;clip-rule:evenodd}.st21{opacity:.29;enable-background:new;fill:#fff}.st22,.st23{fill:#250c30}.st23{fill:#c3b9c8}.st24{fill:#ffd527}.st25{fill:#000072}.st26,.st27{opacity:.5}.st27{fill:#fff;enable-background:new}.st28,.st29{opacity:.3}.st29{fill:#000072;enable-background:new}.st30{fill:#00bbfc}.st31,.st32{fill:#371a45}.st32{opacity:.3;enable-background:new}.st33{fill:none;stroke:#323232;stroke-width:6.3144;stroke-linecap:round;stroke-linejoin:round}.st34{fill:#8dd7ff}.st35{fill:none;stroke:#ffd527;stroke-width:3}</style><path id="bola_grande" class="st0" d="M483 405.5c44.6-36.5 73-91.9 73-154 0-109.9-89.1-199-199-199s-199 89.1-199 199c0 62.1 28.5 117.5 73 154 37.1-.7 80.1-1.2 126-1.2s88.9.5 126 1.2z"/><path id="nuvem" class="st1" d="M555.8 387c2-4.2-3.6-44.1-42.1-45.8-7.6 0-15.1 1.9-21.8 5.6-6.4-5.7-15-9.6-24.5-10.5-3.5-16.8-20.2-29.5-40.3-29.5-7 0-14 1.6-20.3 4.7-2 1-4.4 1.1-6.5.4l-.4-.1c-2-.6-3.7-1.8-4.8-3.5-7.1-10.9-20.3-18.2-35.6-18.2-16.1 0-30 8.1-36.7 20-6.6-3.6-14-5.4-21.5-5.4-22.6 0-41 16.1-41 36 0 1.1.1 2.1.2 3.1-14 2.8-25.6 11.1-31.7 22.3-8.6-9.1-21.6-15-36.1-15-25.2 0-45.7 17.5-46.8 39.4-1.2-.1-2.4-.2-3.6-.2-16.1 0-29.1 11.5-29.1 25.6 0 .7 0 1.4.1 2.1H617c-5.5-17.8-29.2-40.5-61.2-31z"/><g id="foguete"><defs><path id="SVGID_1_" d="M81.1 97.1H498v372.2H81.1z"/></defs><clipPath id="SVGID_2_"><use xlink:href="#SVGID_1_" overflow="visible"/></clipPath><g class="st2"><path class="st3" d="M363.7 397.3c11.8 1 23.5 3.2 34.5 6.8 8.7 2.9 16.9 6.6 24.7 11.4-16 .9-43.1 1.1-59.6-1.6-7.5-1.2-14.3-2.5-14.7-9.1-.4-8.5 10.5-7.9 15.1-7.5z"/><path class="st4" d="M364.7 434.8c-.3 17.5 15.2 23 31.2 24.1-24.5 6.3-57.6 10.7-64.4-15.4 10.9-2.3 21.9-5.2 33.2-8.7zM267.9 403.5c-20.5 21-56.7 6.6-56.7-23 0-29.9 36.7-44.2 57-22.6-.6 1.1-5 4-6.6 5.4-2.3-2.3-5-4.1-8-5.4-3-1.2-6.2-1.9-9.4-1.9-21.8 0-32.8 26.5-17.4 41.9 4.1 4.1 9.5 6.6 15.3 7.1 5.8.5 11.5-1.1 16.2-4.4 3.1 1.6 5.9 2.3 9.6 2.9zM164.5 322.1c20.9 28.7 14.4 68.8-14.2 89.6l-.3.3c-17.1-12-32.6-27.3-46.2-45.9-1.4-1.9-2-7-.5-8.7 15.4-17.9 35.6-29.6 61-35.8l.2.5zM239.6 232.1c-4.1-.4-8.2.5-11.8 2.4l1-5.2c3.7.3 7.5.7 11.2 1.1l-.4 1.7z"/><path class="st3" d="M229.7 275.4c-1.5 5.4-3 3.4-4.9 2.3-4.7-2.6-5.2-6.8-3.9-11.6l8.8 9.3z"/><path class="st4" d="M204.5 191.5c.1 11-1.6 18-8.7 27.4-1.4-4.7-5.1-8.3-9.7-11.1 4-4.9 4.5-9.5 3.7-14.3l14.7-2z"/><path class="st4" d="M179.9 210.6c4.3 2 7.3 4.3 9.1 6.8 1.5 2.1 2.2 4.3 1.9 6.8l-4.3 2.9c-3.3 1.7-6.8 2.2-10 1.2-16.5-5-15.6-39.8 1.8-54.1 12.1-10 23.1-2.2 25.5 11.9-6.4 2-12.9 2.5-19.6 1.7-5.1-1.3-9.6 3.4-11.2 8.4-1.8 5.8-.2 13 4.9 14.2l1.9.2zM386.1 369.5L370 356.3l-5.5-3.9c14.9-6.4 40.4 6.7 56.5 16.3-10.9-3-28.4-7-34.9.8z"/><path class="st5" d="M254.6 397.9c-13.2 7.8-30.3-1.7-30.3-17.4 0-17.9 21.9-27 34.5-14.1-7.2 8.5-12.6 22-4.2 31.5zM302.1 244c-10.7 1.4-27.5.1-43.8-4.6-3-3-6-7.6-8.3-11.1l-1.1-3.8c6.1-6.5 7.8-15.4 1-21.8l-11.9-9.1c0-15.6 7.4-30.3 18.6-41.5 13.8-13.8 40.4-4.1 53.9 6.2 11.8 9.4 22.5 26.7 25.2 42.6-11.4 2.3-20.3 17.8-14.8 29.1-5.3 6.3-9.2 12.7-18.8 14z"/><path class="st6" d="M338.5 200.8c-4.8-30.7-29.6-54.1-60-57.7 35.8 3.5 58.6 22.2 63.4 58.4-1-.3-2.2-.6-3.4-.7zm-10.3 10.6c-1.7 1.7-3 3.8-3.7 6.1-.7 2.3-.9 4.7-.5 7.1-1-2.4-1.3-5.1-.8-7.7.5-2.6 1.8-4.9 3.6-6.8 1.9-1.9 4.2-3.1 6.8-3.6 2.6-.5 5.2-.3 7.7.8-2.4-.4-4.8-.2-7 .6-2.4.5-4.4 1.8-6.1 3.5zm18.5 5.1l-17.2 8.2c-.6-2.2-.4-4.5.5-6.6.9-2.1 2.6-3.7 4.6-4.7 2.1-1 4.4-1.2 6.6-.6 2.3.5 4.2 1.8 5.5 3.7zm1.8 5.2c.3 7.1-8.9 13.8-16 7.6l16-7.6zm-32.8 28.5c5.8-3 11.1-7.2 15.9-12.6l5.8.5c-6.1 5.5-13.4 9.7-21.2 12.2l-.5-.1zm-60.3 134.6c2-19 18.5-15.5 19.9-31.8.4-4.6.3-10.7 6-18 5.2-1.1 10.4-.3 15.5 2.3 5.2 2.6 10.4 7.2 15.7 13.6-4.1 5.7-5.5 13.6-5.8 24.5-.1 4.8-4.6 12.3-9.9 16-20.4 12.7-42.7 5.7-41.4-6.6zm-49.7-4.3c0 28.8 30.6 47.3 56 34.3 5-2.6 9.4-6.2 12.8-10.6 10.6.2 19.2-3.4 25.5-8.4 6.9-5.5 11.8-13.4 12-20.2.9-28.7 10-27.9 23.8-33.1 7.8 3.9 16.1 6.7 22.6 10.8 13.7 11.5 34.8 25.7 37.5 44.1l.1.4c-13.2-3.8-26.1-5.8-40.1-6.4-7 .9-11.4 4.2-12.7 11.4-1.7 11.1 8.8 15 19.1 16.6l23.7 2.1c-5.8 3.5-32.5 10.9-39.2 12.6-65.5 16.7-133.7 19.5-192.3-18.8 29.6-22.5 36.4-64.4 15.2-95 31.8-6.6 70.8-4.8 115.6 2.9-14 11.5-15.5 21.2-16.1 28.2-24.5-21.4-63.5-4-63.5 29.1zM346 328.9c1.9-3.8 3.5-8 4.8-12.8 8.7-2.2 21.4-7.6 19.5-17.9-.3-4.6-6-10.2-11.5-7.3-3 1.6-6 3-8.9 4.2-.5-7.2-1.8-14.2-4-21.1-1-15.6 15.3-28.6 25.4-18.8 15.2 14.8 16.3 45 12.7 68.7-3.1 20.7-24.5 14.1-38 5zm-4.1-65.3c-2.4-5.4-5.3-10.6-8.5-15.6 1.1-.7 2.1-1.4 3.1-2.2l17.5 3c-5.5 3.1-9.9 8.6-12.1 14.8zm2.7 33.6c-12.6 4.4-25.6 5.6-37.8 1.1l-.4-6.2c5.8-3 13-8.1 17.4-12.1-6.3 2.5-11.8 4.5-16.7 6.1-11.4 3.4-26.3 8.2-38 4.7-17.2-5-31.3-13.5-42.7-26.6l-.2-.2c-10.6-10.8-1.1-29 13.9-26.4 11.3 2 10 9.2 13.7 14.9 9 11.5 31 15.3 50.7 1.6l5.5 1.5c7.6-1.4 12.4 3.1 16.8 11.4-1.4-5.9-3.8-10.1-7.2-12.4 3.1-1.1 6-2.4 8.9-3.9 9.4 14.3 15.4 29.8 16.1 46.5zm20.4 1.9c2.3 13.1-45.8 20-66.7 7.3-2.6-1.8.2-6.4 3.2-4.4l2 .9c21.4 8.7 54.8-4.7 57.5-6.9 1.8-1.2 3.5.7 4 3.1zm-48.7 47.8c-7.6-9.2-16.8-16.6-27.4-17.7 2.7-6.7 8.3-10.9 14.7-14.5 12.1 4.1 28.1 4.8 41.3 2.6-1.6 5.2-3.6 9.7-6.2 13.4-8.2 11.9-13.7 9-22.4 16.2zM286 297c1.1 6.4.4 12.8-1.8 19.2-12.4-1-24.4-3.7-35.3-8.8.4-5.8 1.6-11.5 3.6-17 11.2 5.3 20.5 8.4 33.5 6.6zm3.4 21.3c1.5-7.5 2.5-15.2 2-22.2l4.1-.9c1.9-.4 3.7-.8 5.5-1.3l.1 2.3c-8.3-1.1-12.8 9.6-6.1 14.7l2.8 1.6-6.7 6.2-1.7-.4zM247.6 288c-2.3 6.2-3.9 12.6-4.1 19-4.9 1-9.1.2-12.5-2.2-4.1-2.9-7.3-8.3-9.6-16.1-.9-3-5.3-1.4-9.9-8-1.3-1.9-2.2-4-2.7-6.3s-.4-4.6.1-6.9c.5-2.3 1.5-4.4 2.8-6.2 1.4-1.9 3.1-3.4 5.1-4.6.2 1 .4 1.9.7 2.8-.1 1.2-8.3 15.3 4.6 22.9 5.5 3.5 9.7 2.3 12.1-3.3l13.4 8.9zm-6.8-63c-13.6-1.6-28.9-2.5-42.3-.6 8.7-10 13.4-27.6 10.6-40.8 12 8.5 22.5 13.4 35.6 19.5 4 1.6 5.7 3.8 5.8 8.5.1 5.7-3.6 14.1-9.7 13.4zm107-20.9c-3.9-37.6-25.7-59.8-61.7-65.5 43.7-9.7 81.4 31.9 67.6 74.3l-6-8.2c.1-.2.1-.4.1-.6z"/><path class="st7" d="M397.9 414.7c.1-.3.3-.5.4-.8-.1.3-.3.6-.4.8zm3-20.8c-.6-2.2-1.3-4.2-2.3-7.3 28.4-7.8 64.8 16.6 90.4 37.7-9 1.8-17.8 4.6-25.4 9.4-24.1 15-55.1 12.5-75.9-6.7 4.3-3.2 7.6-7 9.9-11.4-.1.3-.3.5-.4.8 9.5.1 18.7-.2 25.8-.6-7-4.3-14.4-7.8-22.1-10.6l-.1.7c.5-3.8.6-7.8.1-12z"/><path class="st8" d="M469 423c-20.8-21.7-43.6-31.8-68.4-30.3-.5-1.8-1.2-3.6-2-6.1 28.4-7.8 64.8 16.6 90.4 37.7-9 1.8-17.8 4.6-25.4 9.4-24.1 15-55.1 12.5-75.9-6.7 1-.6 2-1.3 3-2 23.4 12.6 49.5 12 78.3-2"/><path class="st9" d="M401.7 399c15.4-3.1 40.4 11.4 46.8 17 1.4 1.3 3 2.4 4.6 3.5-17.6 4.5-34 12.3-51.4 2.1l29.6-1.2c5-1.1 1.2-5.1-2.2-7.3-8-5.4-18.2-10.4-27.4-13.5v-.6z"/><path class="st10" d="M173.2 196.1c1.6-5 6-9.7 11.2-8.4 6.7.8 13.2.3 19.6-1.7-1.2-7-4.8-13.8-11-15.8-4.8-1.5-9.8 0-14.5 3.9-17.4 14.3-18.3 49.1-1.8 54.1 3.2.9 6.6.4 10-1.2l4.3-2.9c.2-2.5-.4-4.7-1.9-6.8-1.8-2.5-4.9-4.7-9.1-6.8l-1.8-.3c-5.3-1.7-6.5-8.5-5-13.8v-.3zm11.1 4.3c.8-2.5.9-6.6-1.4-7.4-1.8-.4-3.8 2.6-4.5 4.7l-.1.3c-.7 2.5-.5 6.4 1.3 7.1 2 .6 4.1-2.6 4.7-4.7zm11.6 18.5c7-9.4 8.8-16.4 8.7-27.4l-14.7 2c.8 4.7.3 9.3-3.7 14.3 4.5 2.8 8.2 6.4 9.7 11.1zm48.8-15.8c1.2.5 2.4 1 3.4 1.9l.4.4.1.2.1.1V206c.9 1.4 1.3 3.1 1.5 4.9v.6c0 2.4-.4 4.7-1.3 6.9s-2.3 4.1-4 5.3c-1.3.8-2.7 1.3-4.3 1.1-4.6-.6-9.3-1-14-1.3-9.1-.6-19.4-.6-28.2.7 8.7-10 13.4-27.6 10.6-40.8 12 8.7 22.5 13.6 35.7 19.7zm-7.6-22.9c1.7 1.2 3.4 2.3 4.9 3.5-.7 3.7-1.1 7.5-1.1 11.3v.4c3.2 1.5 8.5 3.4 10.3 5h.1l.1.1.1.1.1.1.1.1h.1v.1l.1.1.1.1.1.1.1.1v.1l.1.1v.1l.1.1.1.1.1.1v.5l.1.1c1.7 2.4 2.5 5.5 2.6 8.7.1 5.3-1.8 11-5.5 15l-.1.1-.1.1.4.6c-1.2 1.2-2.6 2.4-4.1 3.7-.3-.4-.5-.8-.8-1.2 0 0-.1 0-.1.1l-.2 1.2c-1.8.1-3.7.2-5.6.4l.2-1c-3.7-.4-7.4-.8-11.2-1.1l-.7 3.3c-1.9.2-3.9.5-5.9.8l1-4.4c-3.6-.2-7.1-.3-10.6-.2-8.7.1-17 1.1-24 3.3-4.4 2.1-9.1 2.8-13.7 1.5l-.4-.1c-6.6-2.1-11.4-8-13.8-15.7-7.7-25.4 12.3-59.1 33.6-52.7 3.4 1.1 30 22.5 40.9 27.9v-.2c1-4.1 1.5-8.3 2.5-12.4z"/><path class="st11" d="M266.1 348.8c.2-1.2.5-2.6.6-4 .8-6.9.5-11 5.9-16.6.2-.1.3-.3.5-.5 2-2.3-.7-2.7-7.5-4.2l-28.8-6.5c15.3 1.1 31.6 3.1 48.7 6.1-14 11.5-15.5 21.2-16.1 28.2-1.1-.8-2.1-1.7-3.3-2.5zm-9.2 29.6c9.7 11.9 33.4 16.5 36.5-4.1 3.1-15.8 7.8-25.5 14.1-29 1.4 1.4 2.9 3 4.3 4.8-1.6 2.7-2.6 5.7-3 8.8l.5-.4c-.6 2.4-1 5.2-2.1 9.1-1.6 16.4-9.8 23.8-21.3 26.8-16.9 4.5-29.1-.7-30.4-9.6-.1-1.6 1-5.8 1.4-6.4zm69.9-52c2-3.1.1-4.1-5.6-3.1-7.9.4-14.7-1.6-20.2-6l2.6-2.5c11.8 4 27.3 4.7 40.3 2.7-4.8 12.9-11.5 19.9-17.9 22.1-6.3 2.2-8.1 3.6-10.8 6-1.1-1.2-2.1-2.4-3.2-3.6 5.4-4.4 10.3-9.7 14.8-15.6zm30.8-71.1c.2-.1.5-.2.7-.3-.2.1-.5.2-.7.3zm13.5.4c-16.9 1.2-23.4 10.9-19.5 29.1 1.1 2 2.7 2.8 4.8 2.2 3.5-1.6 6.5-2.1 9-1.4 3.1 1.2 5.8 3.3 7.8 5.9 2 2.7 3.2 5.8 3.5 9.1.3 3.3-.3 6.6-1.7 9.6-1.5 3-3.7 5.5-6.5 7.3-2.4 1-4 1.9-4.7 2.8-.3.4-.5.8-.4 1.2-2.5 8.4 3.8 11.3 18.8 8.7-6.2 12.8-24.3 6.8-36.1-1.3 1.9-3.8 3.5-8 4.8-12.8 8.7-2.2 21.4-7.6 19.5-17.9-.3-4.6-6-10.2-11.5-7.3-3 1.6-6 3-8.9 4.2-.5-7.2-1.8-14.2-4-21.1-1-15.6 15.3-28.6 25.4-18.8l.8.8c-.4-.1-.8-.2-1.1-.3zm-49.3-2.8c-.3.4-.5.9-.7 1.4-.4.2-.8.3-1.2.5.3.2.7.4 1 .6-.2 1.5.2 3 1.2 4.6 3.2 3.1 10 15.1 12.6 24.1 2.6 9-1.9 7.9-5.5 9.7-7.4 2.9-13.1 1.8-11.3-2 1.8-3.8 13.6-11.2 12.4-16.1-1.5-6.2-11.6.5-16.1 2.6-54.3 25.2-107.1-26.6-73.9-40.3-15-2.6-24.5 15.6-13.9 26.4l.2.2c11.3 13.1 25.4 21.6 42.7 26.6 11.7 3.4 26.6-1.3 38-4.8 4.9-1.6 10.4-3.6 16.7-6.1-4.4 4-11.6 9.1-17.4 12.1l.4 6.2c12.2 4.5 25.2 3.3 37.8-1.1-.7-16.7-6.7-32.2-15.8-46.4-1.9 1-3.9 2-5.9 2.8-.6-.6-.9-.8-1.3-1zm-34 6.5c-.3.1-.7.2-1 .2l1-.2zm27.9-9.2c5.8-3 11.1-7.2 15.9-12.6l5.8.5c-6.1 5.5-13.4 9.7-21.2 12.2l-.5-.1zm22.2-20.7c2 0 3.9-.7 5.4-1.9 1.5-1.2 2.6-2.9 3.1-4.8l2.2-1c.3 7.1-8.9 13.8-16 7.6l1.5-.7c1.1.5 2.4.8 3.8.8zm7.8-12.5c-.9-1.9-2.4-3.4-4.3-4.2 2.1.6 4 1.9 5.3 3.7l-1 .5zm-4.3-19.4c.2 1.3.4 2.6.6 4-1.1-.4-2.3-.6-3.5-.8-.2-1.1-.4-2.3-.6-3.4 1.2-.2 2.3-.1 3.5.2zm11.6 3.8v-.2c.5-8.7-.9-17.5-4.1-25.6-3.2-8.1-8.2-15.4-14.6-21.4-6.4-6-14-10.5-22.3-13.2-8.3-2.7-17.1-3.6-25.8-2.5 43.6-9.6 81.3 32 67.5 74.4l-6-8.2v-.6c-.1-1.1-.2-2.1-.4-3.2 3.6 3 5.4 3.2 5.7.5zm-16.4 44.4c4.7 1.4 8.6 2.7 11.8 4-3.8 4-6.4 7.6-7.5 11.5-2.2-4.6-4.7-9.1-7.4-13.3 1-.7 2.1-1.5 3.1-2.2zM240.1 219c4.8-.5 6.3-5.8 4.6-15.9 4.1 1.6 5.7 3.8 5.8 8.5.1 2.3-.5 5-1.6 7.4-1.7 3.2-4.9 4.5-9.6 4-19.5-1.5-33-1-40.6 1.3h-.1c6.2-7.2 10.4-18.2 11.2-28.7.3 5.9-.1 11-1.2 15.4-.1.2-.1.4-.2.7-.4 2 .6 3.2 3.1 3.6.9.1 1.8.2 2.7.2 6.4.3 22 3.9 25.9 3.5zm61.7 86.7c11.1 4.6 28.2 4.3 51.3-.8 5.7-1.7 9.2-4.5 10.6-8.5.6.6 1.1 1.6 1.3 2.7 2.3 13.1-45.8 20-66.7 7.3-1.7-1.2-1.1-3.6.4-4.5-.4 1.9.7 3.2 3.1 3.8zm-4 6.7l-6.7 6.2-1.7-.3c1.5-7.5 2.5-15.2 2-22.2l4.1-.9c1.9-.4 3.7-.8 5.5-1.3l.1 2.3c-8.3-1.1-12.8 9.6-6.1 14.7l2.8 1.5zm-46.3-18.8c.3-1 .7-2.1 1-3.1 11.2 5.2 20.5 8.3 33.5 6.5 1.1 6.4.4 12.8-1.8 19.2-12.4-1-24.4-3.7-35.3-8.8 9.8 3.4 19.2 4.9 27.9 4.3 3.5.6 4-1.7 4.4-4.2.1-.4.2-.8.2-1.1.2-2.2-.7-3.6-2.7-4.3h-.1c-.4-.1-.9-.2-1.3-.3-3.4-.6-6.8-1.5-10.1-2.6-6-1.8-11.2-3.6-15.7-5.6zm-34-34c-.1 1.1-6.9 12.9 1.6 20.8.9.8 1.9 1.5 2.9 2.1 5.5 3.5 9.7 2.3 12.1-3.3l13.5 8.8c-.4 1.1-.8 2.1-1.1 3.2-4.6-2.4-8.3-4.9-10.8-7.5-4.4 3.9-9 3.7-13.8-.6-2.2-.2-1.4 2.1 2.3 6.9 3.2 8.7 9.7 13.9 19.5 15.5 0 .5-.1 1-.1 1.5-4.9 1-9.1.2-12.5-2.2-4.1-2.9-7.3-8.3-9.6-16.1-.6-2.1-2.9-1.9-5.8-3.8-1.8-1.7-3.1-3.7-4-6-.9-2.3-1.2-4.7-1-7.1.2-2.4.9-4.8 2.1-6.9 1-2.1 2.7-3.9 4.7-5.3zm73.5-1.2c-.4.1-.7.2-1.1.4l-.5.2-.5.2-.5.1-.5.1c-.3.1-.7.2-1 .2l-.5.1-.5.1c-.3.1-.7.1-1 .2l-.5.1-.5.1h-.5c-.3 0-.7.1-1 .1h-4l-.5-.1-.5-.1-.5-.1-.5-.1-.5-.1-.5-.1-.5-.1-.5-.1-.5-.1-.5-.1-.5-.2-.5-.2-.5-.2-.5-.2-.5-.2-.5-.2-.5-.2-.5-.2-.5-.2-.5-.2-.5-.3-.5-.3-.5-.3-.5-.3-.5-.3-.5-.3-.5-.3-.5-.3-.5-.3-.5-.3-.5-.3-.5-.4-.5-.4-.5-.4-.5-.4-.5-.4-.5-.4c1.2-.7 2.7-1.6 4.3-2.7l.4.2.4.2.4.2.4.2.4.2.4.2.4.2.4.2.4.2.4.2.4.2.4.2.4.2.4.2.4.2.4.2.4.2.4.2.4.2.4.2.4.2.4.2.4.2.4.2.4.2.4.2.4.2.4.2.4.2.4.2.4.1.4.1.4.1.4.1.4.1.4.1.4.1.4.1.4.1.4.1.4.1.4.1.4.1.4.1.4.1.4.1.4.1.4.1.4.1.4.1.4.1.4.1.4.1.4.1.4.1.4.1.4.1.4.1.4.1.4.1.5.1.5.1.5.1h.5l-.6.2h1.4zm-10.6-11.9c.6.1 1.3.1 1.9.2l1 .1 1 .1 1 .1c.6 0 1.3.1 1.9.1H294.9l.9-.1.9-.1.9-.1.9-.1.9-.1.9-.1.9-.1.9-.2.9-.2.9-.2.9-.2.9-.2.9-.2.9-.2.9-.3.8-.3.8-.3.8-.3.8-.3c.3-.1.5-.2.8-.4l.8-.4c.3-.1.5-.3.8-.4l.8-.4.8-.4.8-.5.8-.5c.2-.2.5-.3.7-.5l.7-.5c.2-.2.5-.3.7-.5.2-.2.5-.4.7-.5.2-.2.5-.4.7-.6l.7-.6c.2-.2.4-.4.7-.6.2-.2.4-.4.7-.6.2-.2.4-.4.6-.7.2-.2.4-.5.6-.7.2-.2.4-.5.6-.7.6.5 1.2.9 1.8 1.3-6.2 6.5-13.1 10.9-21.1 13.1l-.5.1-.5.1-.5.1-.5.1-.5.1-.5.1-.5.1-.5.1-.5.1-.6.1-.6.1-.6.1-.6.1-.6.1H287.5l-.6-.1-.6-.1-.6-.1-.6-.1-.6-.1-.6-.1-.6-.1-.6-.1-.6-.1-.6-.1-.6-.1-.6-.1-.6-.1-.6-.1-.6-.1-.6-.1-.6-.2-.6-.2-.6-.2-.6-.2-.5-.2-.5-.2-.5-.2-.5-.2-.5-.2-.5-.2-.5-.2-.5-.2-.5-.2-.5-.2-.5-.3-.5-.3-.5-.3.9.2 1 .2 1 .2 1 .2 1 .2 1 .2 1 .2 1 .2 1 .1 1 .1 1 .1.5.1zM178 201c0-1 .1-2 .4-3 .7-2.4 2.9-5.5 4.6-5 .4.2.8.5 1.1.8v.1l.1.1V200c-.7 2.1-2.7 5.3-4.7 4.7h-.2V201.3l-1.3-.3zm203.6 222.5c-90.9 30.2-165.6 26.7-224.1-10.6 4.9-4.1 9.2-8.9 12.8-14.2 14.1 6.3 28.6 11.4 43.4 15.4-7.4-7-11.8-16.6-12.2-26.8s3.2-20.1 10.1-27.6c-4.5 8.3-5.8 18.1-3.6 27.3 2.2 9.2 7.7 17.3 15.4 22.8 7.8 5.5 17.2 7.9 26.7 6.8 9.4-1.1 18.1-5.5 24.5-12.6 10.6.2 19.2-3.4 25.5-8.4 6.9-5.5 11.8-13.4 12-20.2.9-28.7 10.2-24.3 23.8-33.1 1.4.7 2.7 1.3 4.1 2 6.4 3.1 12.5 6.2 17.6 10.1-12.1-5.8-19.5-7.8-22.1-5.9-2.8 2.2-6.4 4.5-10.5 7.3-4 2.7-4.8 10.4-6.3 21.2-2.2 16-14.3 26.4-33.6 30.6-5.3 1.2-10.1 1.7-14.2 2.1-4.4 5.6-10.2 9.8-16.8 12.3 31.4 4.2 64.6 4.1 99.7-.5-2-.7-3.9-1.6-5.7-2.7-2.9-1.8-5.2-4-6.8-6.6-1.9-4.2-.7-9.4 3.7-15.5-1 1.6-1.5 3.5-1.6 5.8-.1.7-.2 1.4-.2 2-.3 9.4 7.2 12.2 15.8 13.9 1.2.2 2.3.5 3.5.6l5 .4 18.7 1.6c-1 1-2.6 1.7-4.6 2.5z"/><path class="st5" d="M173.2 196.1c1.6-5 6-9.7 11.2-8.4 6.7.8 13.2.3 19.6-1.7-1.2-7-4.8-13.8-11-15.8-4.8-1.5-9.8 0-14.5 3.9-17.4 14.3-18.3 49.1-1.8 54.1 3.2.9 6.6.4 10-1.2l4.3-2.9c.2-2.5-.4-4.7-1.9-6.8-2.4-3.2-6.9-6.4-10.9-7.1-5.6-1.6-6.5-8.5-5-13.8v-.3zm11.1 4.3c.8-2.5.9-6.6-1.4-7.4-1.8-.4-3.8 2.6-4.5 4.7l-.1.3c-.7 2.5-.5 6.4 1.3 7.1 2 .6 4.1-2.6 4.7-4.7zm11.6 18.5c7-9.4 8.8-16.4 8.7-27.4l-14.7 2c.8 4.7.3 9.3-3.7 14.3 4.5 2.8 8.2 6.4 9.7 11.1zm28.9 58.9c1.9 1 3.4 3.1 4.9-2.3l-8.7-9.3c-1.3 4.8-.9 9 3.8 11.6zm126 38.3c-1.2 4.8-2.8 9-4.8 12.8 13.5 9.1 34.9 15.7 38-5 3.6-23.7 2.4-53.8-12.7-68.7-10-9.8-26.4 3.2-25.4 18.8 2.2 6.8 3.5 13.9 4 21.1 2.9-1.2 5.9-2.6 8.9-4.2 5.5-2.9 11.2 2.7 11.5 7.3 1.9 10.3-10.8 15.7-19.5 17.9zm-200.6 95.6c28.7-20.8 35.1-60.9 14.2-89.6l-.3-.6c-25.4 6.2-45.6 17.9-61 35.8-1.5 1.7-.9 6.8.5 8.7 13.6 18.6 29.1 33.9 46.2 45.9l.4-.2zm107.6-44.6c-7.4-7.5-19.6-7.6-27.1-.1-1.8 1.8-3.2 3.9-4.1 6.2-1 2.3-1.4 4.8-1.4 7.3 0 14.9 16.2 23.8 28.7 16.5-8-9-2.9-21.8 3.9-29.9zm-18.2-135l.4-1.7c-3.7-.4-7.4-.8-11.2-1.1l-1 5.2c3.6-1.9 7.7-2.8 11.8-2.4zm9.3 75.3c10.9 5.1 22.9 7.8 35.3 8.8 2.1-6.4 2.9-12.8 1.8-19.2-13 1.8-22.3-1.3-33.5-6.5-1.9 5.4-3.1 11.2-3.6 16.9zm-17.9-2.6c3.4 2.5 7.6 3.2 12.5 2.2.2-6.4 1.8-12.8 4.1-19l-13.5-8.8c-2.4 5.6-6.5 6.8-12.1 3.3-4-2.3-6.4-5.5-7-9.8-.6-3.7.3-8.1 2.5-13.1-.3-.9-.5-1.9-.7-2.8-8.4 4.9-11 16-5.3 24 4.6 6.6 9 5 9.9 8 2.3 7.7 5.5 13.1 9.6 16zm14.1 7.4l1.5.1-.7-.3-.8.2zm16.5 51c1.6-1.4 6-4.2 6.6-5.4-20.3-21.6-57-7.3-57 22.6 0 29.7 36.2 44.1 56.7 23-3.6-.6-6.5-1.3-9.5-3-4.7 3.3-10.5 4.9-16.2 4.4-5.8-.5-11.2-3-15.3-7.1-15.4-15.4-4.4-41.9 17.3-41.9 3.2 0 6.5.6 9.4 1.9 3 1.4 5.8 3.2 8 5.5zm108.3-6.9l16.1 13.2c6.5-7.8 24.1-3.8 34.8-.7-16-9.6-41.6-22.7-56.5-16.3l5.6 3.8zm-5.2 78.5c-11.3 3.5-22.4 6.4-33.3 8.8 6.8 26.1 39.9 21.7 64.4 15.4-15.9-1.2-31.3-6.7-31.1-24.2zm66.6-14.4l-29.6 1.2 2.1-.1c-3.3 0-6.3 0-9-.1-.4.4-.8.8-1.3 1.1l-5.8 4.2c20.8 19.3 51.8 21.7 75.9 6.7 7.6-4.7 16.4-7.6 25.4-9.4-25.7-21.1-62.1-45.5-90.4-37.7l2.3 7.1c.4 1.8.7 3.6.8 5.4v.6c9.2 3.1 19.4 8.1 27.4 13.5 3.4 2.4 7.8 6 2.2 7.5zm-33.1-16.2c-11-3.6-22.7-5.8-34.5-6.8-4.7-.4-15.5-1-15.1 7.6.4 6.5 7.2 7.8 14.7 9.1 16.5 2.7 43.5 2.6 59.6 1.6-7.7-4.9-16-8.7-24.7-11.5zm-86.1-28.7c-.2 6.8-5.1 14.7-12 20.2-6.3 5-14.9 8.6-25.5 8.4-3.5 4.4-7.8 8.1-12.8 10.6-25.4 13.1-56-5.4-56-34.3 0-33.1 39-50.5 63.7-29.1.6-7 2.1-16.7 16.1-28.2-44.8-7.7-83.8-9.5-115.6-2.9 21.2 30.6 14.5 72.5-15.2 95 58.6 38.3 126.8 35.5 192.3 18.8 6.7-1.7 33.4-9.1 39.2-12.6l-15.9-1-7.9-1c-10.6-1.8-20.8-4.1-19.1-16.6.8-20.7 39.9-8.8 52.8-5l-.1-.4c-2.7-18.4-24.3-31.9-38.5-42.8-6.2-4.8-13.8-8.2-21.6-12.1-8 5.2-16 5.8-20.3 13.7-2.2 4.1-3.3 10.1-3.6 19.3zm-13.9-69.1c11.2 6.8 31 8.2 46.5 5.4 6-1.1 21.5-5 20.2-12.7-.4-2.4-2.2-4.3-4-3.1-2.6 2.2-36 15.6-57.5 6.9l-2-.9c-2.9-2-5.7 2.5-3.2 4.4zm-9.4 22.8c10.7 1.2 19.8 8.5 27.4 17.7 8.8-7.2 14.2-4.4 22.3-16.2 2.5-3.7 4.6-8.1 6.2-13.4-13.2 2.2-29.2 1.5-41.3-2.6l-9.5 8.7c-1.8 2-3.5 4-5.1 5.8zm44.7-81.2c1.1-.7 2.1-1.4 3.1-2.2.3.1.5.2.8.2l16.7 2.8c-5.6 3.1-10 8.5-12.2 14.7-2.4-5.3-5.2-10.5-8.4-15.5zm-82-10.7c-2-1.7-4.2-3-6.6-3.9l.7-3.5s.1 0 .1-.1c1.8 2.6 3.7 5.1 5.8 7.5zm-6.8-34.2c1.2.5 2.4 1 3.4 1.9l.4.4.1.2.1.1V206c.9 1.4 1.3 3.1 1.5 4.9V211.5c0 2.4-.4 4.7-1.3 6.9s-2.3 4.1-4 5.3c-1.3.8-2.7 1.3-4.3 1.1-4.6-.6-9.3-1-14-1.3-9.1-.6-19.4-.6-28.2.7 8.7-10 13.4-27.6 10.6-40.8 12 8.7 22.5 13.6 35.7 19.7zm104.9 29.7c1.4-1.4 2.5-3 3.2-4.8 8-13.2 11-29 8.2-44.2-2.8-15.2-11-28.9-23.2-38.5-12.2-9.6-27.4-14.3-42.9-13.4-15.5.9-30 7.5-41 18.4-11.1 11.1-18.1 26.6-18.5 42.4v.2c-10.9-5.4-37.4-26.8-40.9-27.9-21.3-6.4-41.3 27.3-33.6 52.7 2.3 7.7 7.1 13.7 13.8 15.7l.4.1c4.5 1.3 9.2.7 13.7-1.5 7-2.2 15.2-3.1 24-3.3 3.5-.1 7 0 10.6.2l-2.8 11.8c-2.1 2.9-3.5 6.4-3.9 10-18 7.5-18.1 33.2-.1 40.8 2.7 8.3 6.4 14.2 11.3 17.7 1.1.8 2.2 1.4 3.4 2-50.5-2.7-99.8 5-132.2 42.6-3.4 3.9-2.4 11.9.2 15.5 55.4 75.8 137.7 93.5 226.8 75.4 3.3 13.3 12.3 21.2 27 23.7 15 2.5 36-.7 63-9.8 3.3-1 2.3-5.6-.9-5.4-20.6 1.6-46.7.8-45-20.2 3.9-1.3 7.9-2.6 11.9-4 22.5 22.5 57.4 25.9 84.3 9.1 8.6-5.4 18.9-8 29.2-9.6 2.3-.3 3.2-3.3 1.4-4.8-28.8-24.3-69-52-101.1-42.2-1.8-2.9-3.8-5.6-6-8.1 5.6-8.4 35.9 2.1 50 7.5 3 1.1 5.3-3.1 2.4-4.9-20.5-14.1-37.6-23.3-51.4-27.7-13.6-4.3-24.1-4.1-31.7.7-6-3.8-12.5-7.4-19.5-10.9l3.6-4.6c12.6 8.4 32.6 15.5 42.3 1.6 1.9-2.8 3.3-6.2 3.9-10.4 3.9-25.6 2.3-57.1-14.3-73.4-5.8-5.7-22.1-8.6-33-10.2 2.6-2.5 5.1-5.3 7.4-8.3zM326.8 210c1.9-1.8 4.2-3.1 6.8-3.6 2.6-.5 5.2-.3 7.7.7-2.4-.4-4.8-.2-7 .6-2.3.7-4.3 2-6 3.7-1.7 1.7-3 3.8-3.7 6.1-.7 2.3-.9 4.7-.5 7.1-1-2.4-1.3-5.1-.8-7.7.4-2.7 1.6-5 3.5-6.9zm15.2-8.4c-1.1-.4-2.3-.6-3.5-.8-2.7-17-11.6-32.4-25.1-43.1l-.2-.1c-10-7.9-22-12.9-34.7-14.4 18 1.7 32.7 7.4 43.3 17 10.9 9.6 17.8 23.4 20.2 41.4zm11.7 11.3c-.9-2.6-2.4-4.9-4.3-6.8l-.2-.2c-.5-.4-.9-.9-1.4-1.3v-.6c-2.2-20.9-9.8-36.9-22.2-48-10.1-9.1-23.4-14.9-39.4-17.5 10-2.2 20.3-1.7 30 1.3 9.7 3.1 18.5 8.7 25.3 16.2 6.9 7.5 11.6 16.8 13.8 26.7 2.1 10.2 1.6 20.5-1.6 30.2zm-97.1 31c-.7-1.4-1.5-2.6-2.4-3.8l2.4 3.8zm8.8 5c-1.7 1.1-3.1 2-4.3 2.7 6.5 5.4 12.2 8.2 18 8.7 4.1.3 8.3-.4 13-2.2-8.7-.9-17-3.6-24.6-7.9-.7-.5-1.4-.9-2.1-1.3zm55.4-18.9c-5.1 6.2-12.5 10-22.1 11.2-10.7 1.4-24.2-.3-40.5-5-2.9-2.9-5.6-6.1-7.8-9.6l.1-.1.1-.1c3.7-3.9 5.6-9.6 5.5-15-.1-3.2-.9-6.3-2.6-8.7l-.1-.1v-.5l-.1-.1-.1-.1-.1-.1v-.1l-.1-.1v-.1l-.1-.1-.1-.1-.1-.1-.1-.1v-.1h-.1l-.1-.1-.1-.1-.1-.1-.1-.1h-.1c-1.8-1.6-7.1-3.5-10.3-5v-.4c0-15.4 5.9-29.9 16.9-40.9 13.6-13.6 39.1-2.5 52.1 7.7l.1.1c12.2 9.7 20.4 23.6 23 38.9-3.8.6-7.4 2.5-10.1 5.2-3.1 3.1-5 7.2-5.4 11.6-1.2 4.3 0 8.6 2.5 12.2zm-5.1 20.2c5.8-3 11.1-7.2 15.9-12.6 1.5.4 3 .6 4.5.6h1.3c-6.1 5.5-13.4 9.7-21.2 12.2l-.5-.2zm10.6-14.9c-6.2 6.5-13.1 10.9-21.1 13.1-9.5 2.5-26.3 2-35-3-.5-.3-.9-.5-1.4-.8 11.7 2.5 21.9 3.2 30.5 2.1 10.8-1.4 19.2-5.6 25.2-12.6l1.8 1.2zm-19.1 50.9c4.8-1.6 10.4-3.6 16.7-6.1-4.4 4-11.6 9.1-17.4 12.1l.4 6.2c12.2 4.5 25.2 3.3 37.8-1.1-.7-16.7-6.7-32.2-15.8-46.4-2.9 1.5-5.8 2.9-8.9 3.9 3.4 2.3 5.9 6.5 7.2 12.4-3.4-6.4-7.1-10.2-11.3-11.4-3.6-.7-7.4 0-10.5 1.9-.1.1-.3.2-.4.3-19.8 13.7-41.9 6.3-50.9-5.2l-.5-.9c-3.4-6.6-2.9-12.2-13.2-14-15-2.6-24.5 15.6-13.9 26.4l.2.2c11.3 13.1 25.4 21.6 42.7 26.6 11.5 3.2 26.4-1.5 37.8-4.9zm-11.7 8.9c-1.4.3-2.7.6-4.1.9.5 7-.5 14.8-2 22.2l1.7.3 6.7-6.2-2.8-1.6c-6.7-5.1-2.2-15.8 6.1-14.7l-.1-2.3c-1.7.6-3.6 1-5.5 1.4zm37-65.8l16-7.6v.4c0 1.2-.2 2.4-.7 3.5-.4.7-.9 1.4-1.3 2-.3.4-.7.8-1 1.2-.9.9-2 1.7-3.1 2.3-1.7.6-3.5.8-5.2.5-1.7-.3-3.4-1.1-4.7-2.3zm14.2-12.8l-17.2 8.2c-.5-1.6-.5-3.4 0-5 .4-1.7 1.3-3.2 2.5-4.4 1.8-1.8 4.2-2.8 6.7-2.8s5 .9 6.8 2.7l.1.1c.5.3.8.7 1.1 1.2zM275.3 353c-1.4 16.4-17.9 12.9-19.9 31.8-1.3 12.4 21 19.3 41.3 6.6 5.3-3.7 9.8-11.2 9.9-16 .3-10.9 1.7-18.8 5.8-24.5-5.2-6.4-10.4-11-15.7-13.6-5.1-2.6-10.3-3.4-15.5-2.3-5.6 7.3-5.5 13.4-5.9 18z"/><path class="st12" d="M237.3 404c3.5 1 7.3 1.3 10.9.7 3.6-.6 7.1-2 10.1-4.2 2.7 1.5 5.2 2.2 8.3 2.8h-.1c-5.9 5.4-13.6 8.3-21.6 8.4-8 0-15.7-2.8-21.7-8.1s-9.9-12.6-10.9-20.5 1-16 5.5-22.5c4.4-5.7 10.7-9.8 17.5-11.7-6.1 1.8-11.3 5.6-15 10.7-3.7 5.1-5.6 11.4-5.3 17.7.2 6.3 2.5 12.4 6.6 17.2 4 4.8 9.5 8.1 15.7 9.5M365.8 448.2c-6.7-8.6-18.4 4.6-29.9 4.8-1.5-1.6-4.2-6.9-4.4-9.4 10.9-2.4 22-5.3 33.3-8.8-.2 14.5 10.4 20.8 23.1 23.1-10 0-16-4.2-22.1-9.7z"/><path class="st13" d="M357.2 397.2c-17.3 8 4.6 14.1 65.7 18.3-7.1.4-16.3.7-25.8.6-12.1-.1-24.6-.7-33.8-2.2-7.5-1.2-14.3-2.5-14.7-9.1-.2-5.4 4.2-7.2 8.6-7.6z"/><path class="st12" d="M394.8 362.4c1.1.8 20.4 4.2 26.1 6.4-6.6-1.9-15.9-4.2-23.5-3.8-4.7.2-8.8 1.5-11.3 4.5L370 356.3l-5.5-3.9c3.3-1.4 7.2-1.9 11.4-1.6 7.3 2.8 13.6 6.6 18.9 11.6zM259.1 361c1.7-3.4 3-3.2 4.6-5.4.3-.4.5-.8.7-1.2 1.4 1.1 2.7 2.3 3.9 3.5-.6 1.1-5 4-6.6 5.4-.9-.9-1.7-1.6-2.6-2.3z"/><path class="st13" d="M229.7 275.4c-1.5 5.4-3 3.4-4.9 2.3-1.6-.9-2.7-1.9-3.4-3.1l1.6-6.3 6.7 7.1zM239.6 232.1c-4.1-.4-8.2.5-11.8 2.4l.4-1.9.7-3.3c3.7.3 7.5.7 11.2 1.1l-.2 1-.3.7z"/><path class="st12" d="M191.6 204.7c-.9 5.5 2.6 7.4 7.4 3.4 3.1-2.7 4.4-8.8 5.6-16.5.1 11-1.6 18-8.7 27.4-1.4-4.7-5.1-8.3-9.7-11.1 4-4.9 4.5-9.5 3.7-14.3 2.4 2.8 2.4 6.4 1.7 11.1zM173.6 206.2zM179.9 210.6c4.3 2 7.3 4.3 9.1 6.8 1.5 2.1 2.2 4.3 1.9 6.8l-4.3 2.9c-3.3 1.7-6.8 2.2-10 1.2-7.1-2.2-10.9-9.8-11.7-18.9 4.3 16.4 19 21 18 13.1-.7-5-2.4-8.1-6.3-12.7.5.3.9.4 1.4.6l1.9.2zM165.3 396.4c-3.5 5-7.7 9.5-12.5 13.4-18.5-12.5-35.3-28.6-50.4-48-.2-1.8.1-3.5.8-4.4 19.5 15.7 40.2 28.7 62.1 39z"/><g class="st14"><path class="st15" d="M438.8 437.8c21.3-5.2 34.8-14.3 50.2-13.6-9 1.8-17.8 4.6-25.4 9.4-24.1 15-55.1 12.5-75.9-6.7l5.8-4.2 1.3-1.1 9 .1 27.5-1.2c.6-.1 1.1-.3 1.6-.6 2.9-1.7-.9-4.7-3.8-6.7-8-5.4-18.2-10.4-27.4-13.5 12.3 1.2 38.6 12.9 38.2 23.7-.1 2.7-1.7 4.8-4.6 6.3-10.4 5.2-15.3-1.6-21.3.3-1.9.6-1.8 2 0 3.2 3.2 2 14.5 7.1 24.8 4.6"/></g><g class="st16"><path class="st17" d="M486.6 422.2c-30.6-22.1-59.9-34-88-35.7 27.5-7.6 62.5 15.1 88 35.7"/></g><path class="st18" d="M422.9 415.6c-22.8-10.6-44.1-16.8-63.9-18.4 1.6 0 3.1 0 4.7.2 11.8 1 23.5 3.2 34.5 6.8.9.3 1.7.6 2.6.9 7.7 2.6 15.2 6.2 22.1 10.5z"/><path class="st19" d="M335.9 453c13.2 9.8 33.2 11.8 60 6-21 5.4-48.3 9.4-60-6zM420.9 368.8c-19.2-10-34.2-16-45.1-17.9 14.5.9 32.6 10.4 45.1 17.9zM202.7 181c-13.7-16.1-26.2-9.6-37.5 19.5 1.2-9.9 5.7-20.1 13.3-26.4 10.5-8.7 20.3-3.9 24.2 6.9zM166.9 325.6c-25 4.7-46.3 15.3-63.7 31.7 15.4-17.9 35.6-29.6 61-35.8l.3.6c.8 1.2 1.6 2.3 2.4 3.5z"/><g class="st20"><path class="st21" d="M148.9 350.4c-1.1-.3-2.2-1-2.9-1.9-.8-.9-1.2-2-1.3-3.2-.1-1.2.1-2.4.7-3.4s1.5-1.9 2.5-2.4c.6-.2 1.3-.4 1.9-.6 4-1.2 8.1-2.1 12.2-2.7 1.5.1 2.9.8 3.9 1.9 1 1.1 1.6 2.6 1.6 4.1 0 1.5-.6 3-1.6 4.1-1 1.1-2.4 1.8-3.9 1.9-3.9.3-8.3 1-13.1 2.2zm-8.7-5.4c.6.5 1.1 1.2 1.4 1.9.3.8.4 1.6.3 2.4-.1.8-.4 1.6-.9 2.2-.5.7-1.1 1.2-1.8 1.5-.4.1-.8.3-1.3.4-.2.1-.4.1-.7.2-1.1.3-2.3.2-3.4-.3-1-.5-1.9-1.4-2.3-2.5-.4-1.1-.5-2.3-.1-3.4s1.2-2 2.2-2.6c.4-.2.8-.4 1.3-.6l.3-.1c.8-.3 1.7-.4 2.6-.3.9.3 1.7.6 2.4 1.2z"/></g><path class="st19" d="M244.2 355.9c-17.7 0-28.2 17.4-23.4 32.2-2.4-5.1-2.9-10.8-1.5-16.2 1.4-5.4 4.7-10.2 9.2-13.4 4.6-3.3 10.1-4.8 15.7-4.4 5.6.4 10.8 2.8 14.8 6.7v.1c-4.2-3.2-9.4-5-14.8-5z"/><path class="st6" d="M178.4 198c.5-1.8 1.9-4 3.3-4.8.9-.4 1.7-.2 2.3.5 0 0 0 .1.1.1v.1c.8 1 1.1 2.9.5 5.5V200.3c-.9 2.8-2.2 4.2-3.4 4.6-.9.3-1.7-.1-2.3-.8v-.2c-1.1-1.1-1.3-3.1-.5-5.9 0 .1 0 0 0 0M148 193c-7.4-2.1-14.2-3.9-20.5-5.5-6.2-1.5-12-2.7-17.4-3.6-.5-.1-1-.3-1.4-.7-.4-.3-.7-.8-.8-1.3-.1-.5-.1-1 0-1.5s.4-.9.8-1.3c1.8-1.6 3.7-3.1 5.8-4.3l2.5-1.3c-11.6-7.9-23.6-15.4-36-22.5 8.7 2.9 16.7 6.2 23.9 9.6 7.2 3.5 13.7 7.2 19.4 11.2.4.3.7.7.9 1.1.2.5.3 1 .2 1.5-.1.5-.3 1-.6 1.4-.3.4-.7.7-1.2.9-2.2.8-4.4 1.8-6.4 3l-.1.1c3.6.7 7.5 1.6 11.5 2.5 6.4 1.5 13.3 3.4 20.7 5.5.3.1.7.3.9.5.3.2.5.5.7.8.3.6.4 1.4.2 2.1-.2.7-.7 1.3-1.3 1.6-.3.3-1.1.3-1.8.2zm-22.7 49.6c-.2-3.1 0-6.1.7-9.1.3-1.6.7-3.1 1.2-4.7-8.5 1-17.5 2.9-27.1 5.7 6-3.1 11.5-5.7 16.6-7.7 5.2-2.1 9.9-3.7 14.2-4.8.5-.1 1-.1 1.5 0 .5.2.9.4 1.2.8.3.4.5.9.6 1.4s0 1-.2 1.5c-1.2 2.8-2.1 5.8-2.7 8.8-.2 1.1-.4 2.3-.5 3.3 3.1-1.6 6.1-3.2 9.2-4.6 4.2-1.9 8.5-3.6 12.9-5.1.7-.2 1.4-.2 2.1.2.6.3 1.1.9 1.4 1.6.2.7.2 1.4-.2 2.1-.3.6-.9 1.1-1.6 1.4-4.2 1.4-8.3 3-12.4 4.9-4.2 1.9-8.5 4.1-12.9 6.7-.3.2-.7.3-1 .3-.4 0-.7 0-1.1-.1-.3-.1-.7-.3-1-.5-.3-.2-.5-.5-.7-.8 0-.4-.1-.9-.2-1.3zm38.3-86.2c-7.2-4.8-13.7-9.6-19.4-14.2-5.7-4.7-10.5-9.2-14.5-13.6-.4-.4-.6-1-.7-1.5s.1-1.1.3-1.6c.3-.5.7-.9 1.2-1.1.5-.2 1.1-.3 1.7-.2 3.1.4 6.2.6 9.3.5 1 0 2.1-.1 3-.2-5.9-9.9-13-19.1-21.2-27.3 5.2 4 10.2 8.4 14.9 12.9 4.7 4.5 9.2 9.3 13.5 14.4.3.3.4.7.5 1 .2.7.1 1.4-.3 2.1-.4.6-1 1.1-1.6 1.3-2.6.7-5.5 1.1-8.7 1.3h-3c2.7 2.6 5.7 5.3 9 8 5.5 4.5 11.8 9.1 18.9 13.9.6.4 1 1 1.1 1.7.1.7 0 1.4-.4 2-.4.6-1 1-1.7 1.2-.6-.1-1.3-.2-1.9-.6z"/><path class="st22" d="M320.8 230c-5.1 6.2-12.5 10-22.1 11.2-10.7 1.4-24.2-.3-40.5-5 28.9 7.3 44.3 2.6 46.3-14 .4-3.6 1.7-7.4 3.9-11.4 1.2-1.7 2.3-3.4 3.3-5.2 6.5-11.9 7.2-25.5 1.9-40.8 10.4 9.5 17.3 22.2 19.6 36.1-11.7 5.9-15.4 15-12.4 29.1"/><path class="st23" d="M241 367.6c-2.3 0-4.2 2-4.2 4.5s1.9 4.5 4.2 4.5c2.3 0 4.2-2 4.2-4.5s-1.9-4.5-4.2-4.5zm71.1-182.4c3.1-1.4 7.3 1 9.2 5.5 2 4.4 1 9.1-2.1 10.5-3.1 1.4-7.3-1-9.2-5.5-2-4.4-1.1-9.1 2.1-10.5zm-.2 23.1c-1.4-.6-3.2.5-4.1 2.4-.9 1.9-.5 4 .9 4.6 1.4.6 3.2-.5 4.1-2.4.9-1.9.5-4-.9-4.6zm-20.5-52.2c-21.4 1-37 11.6-46.7 31.8 8.2-29.4 23.8-40 46.7-31.8zm-59.9 212.3c-11.4 17.1 2.5 36.5 23.1 29.9-12.5 7.4-28.7-1.6-28.7-16.5 0-5.4 2.2-10.1 5.6-13.4z"/></g></g><g id="planeta"><path class="st24" d="M435.7 138.8c27 0 48.8-21.9 48.8-48.8s-21.9-48.8-48.8-48.8S386.8 63 386.8 90s21.9 48.8 48.9 48.8z"/><path class="st25" d="M435.7 141.5c-28.4 0-51.5-23.1-51.5-51.5s23.1-51.5 51.5-51.5 51.5 23.1 51.5 51.5-23.1 51.5-51.5 51.5zm0-97.6c-25.4 0-46.1 20.7-46.1 46.1 0 25.4 20.7 46.1 46.1 46.1 25.4 0 46.1-20.7 46.1-46.1 0-25.4-20.7-46.1-46.1-46.1z"/><g class="st26"><path class="st27" d="M443 60.7c-9.3 7-18.6.3-19 0-.5-.3-1.1-.5-1.7-.4-.6.1-1.1.4-1.5.9-.4.5-.5 1.1-.4 1.6.1.6.4 1.1.8 1.5 2.5 1.9 7.2 4 12.5 4 3.7 0 7.8-1 11.7-3.9l17.6-9.6c.4-.2.8-.6 1-1-1.2-.9-2.4-1.8-3.7-2.6l-17.2 9.4c.1 0 0 .1-.1.1z"/></g><g class="st26"><path class="st27" d="M390.7 94.2c.4-.8.9-1.5 1.4-2.2 3.2-4.4 7.6-7.8 12.8-9.6 5.1-1.8 10.7-2 15.9-.5 8.3 2.3 23.6 5.1 33.6-2.7.5-.4.8-.9.8-1.5.1-.6-.1-1.2-.5-1.7s-.9-.8-1.5-.8c-.6-.1-1.2.1-1.7.5-8.4 6.6-22.2 4.1-29.6 2-5.8-1.6-12-1.5-17.8.3-5.8 1.8-10.9 5.3-14.7 10.1 0 .7-.1 1.4-.1 2.1 0 1.7.1 3.4.3 5.1.6-.4.9-.7 1.1-1.1z"/></g><g class="st26"><path class="st27" d="M460.1 113.9c-2.5-.4-4.8-.4-6.9-.1-9.3 1.3-13 7.4-13.2 7.6-.3.5-.4 1.1-.2 1.7.1.6.5 1.1 1 1.4.5.3 1.1.4 1.7.3.6-.1 1.1-.5 1.4-1 0 0 2.9-4.5 9.9-5.5 1.7-.2 3.5-.2 5.6.1 3.4.5 6.7 1.6 9.8 3.2 1.1-1.1 2-2.3 3-3.5-3.7-2.1-7.8-3.5-12.1-4.2z"/></g><g class="st28"><path class="st29" d="M407.5 130.5c7 3.7 14.8 5.6 22.8 5.6 27 0 48.8-21.9 48.8-48.8 0-11.4-4-22.5-11.3-31.2-.2 7.2-3.7 65.3-69 67 4.2 4.5 9.1 8.2 14.6 10.9-2-1.1-4-2.2-5.9-3.5z"/></g><g class="st26"><path class="st27" d="M435.7 43.9c-8.1 0-16 2.1-23 6.2-6.3 3.6-11.7 8.7-15.6 14.8-4.9 7.5-7.5 16.2-7.5 25.2 0 15.6 7.8 29.3 19.6 37.7-8.2-7.5-13.5-17.7-14.8-28.8-1.3-11.1 1.5-22.2 7.8-31.4 2.4-.5 5.3-2.1 7.9-4.7 2.5-2.5 4.1-5.3 4.6-7.7 7.7-5.1 16.8-7.8 26.1-7.7 9.3.1 18.3 3.1 25.9 8.4-8.5-7.7-19.5-12-31-12z"/></g><path class="st25" d="M433 65.7c-5.4 0-10.1-2.2-12.5-4-.5-.4-.8-.9-.9-1.5-.1-.6.1-1.2.4-1.7.4-.5.9-.8 1.5-.9.6-.1 1.2.1 1.7.4.4.3 9.7 7 19 0 .1-.1.2-.1.3-.2l17.8-9.7c.5-.3 1.1-.3 1.7-.2.6.2 1.1.6 1.3 1.1.3.5.3 1.1.2 1.7-.2.6-.6 1.1-1.1 1.3l-17.6 9.6c-4 3-8.1 4.1-11.8 4.1zM387.8 92.7c-.4 0-.8-.1-1.1-.3-.3-.2-.6-.5-.8-.8-.2-.3-.3-.7-.3-1.1 0-.4.1-.8.2-1.1.5-1 1.1-1.9 1.7-2.8 3.7-5.2 8.9-9.1 14.9-11.2 6-2.1 12.5-2.3 18.7-.6 7.4 2.1 21.2 4.7 29.6-2 .5-.4 1.1-.5 1.6-.4.6.1 1.1.4 1.5.8.4.5.5 1 .5 1.6s-.4 1.1-.8 1.5c-10 7.8-25.4 5.1-33.6 2.7-5.2-1.5-10.8-1.3-15.9.5s-9.6 5.2-12.8 9.6c-.5.7-1 1.5-1.4 2.2-.2.4-.5.7-.8.9-.3.4-.7.5-1.2.5zM474 122.1c-.5 0-1-.2-1.4-.5-5.1-4.1-11-5.5-14-6-2.1-.3-3.9-.4-5.6-.1-7.1 1-9.9 5.4-9.9 5.5-.1.3-.3.5-.6.7-.2.2-.5.3-.8.4-.3.1-.6.1-.9.1-.3 0-.6-.1-.8-.3-.3-.2-.5-.4-.7-.6-.2-.2-.3-.5-.4-.8-.1-.3-.1-.6 0-.9.1-.3.2-.6.3-.8.2-.3 3.9-6.3 13.2-7.6 2.1-.3 4.4-.3 6.9.1 3.5.5 10.2 2.2 16.1 6.9.4.3.6.7.8 1.1.1.4.1.9 0 1.4-.2.4-.4.8-.8 1.1-.5.2-.9.3-1.4.3z"/><path class="st25" d="M375.3 113c-1.4 0-2.7-.4-3.9-1.2-1.2-.8-2.1-1.9-2.6-3.1-.5-1.3-.7-2.7-.5-4.1.2-1.4.9-2.6 1.8-3.6 4.7-5 13.8-9.5 14.2-9.7.7-.4 1.6-.4 2.4-.1.8.3 1.4.8 1.8 1.6.4.7.4 1.6.2 2.4-.3.8-.8 1.4-1.6 1.8-.1 0-8.5 4.2-12.4 8.4-.1.1-.2.3-.2.5s0 .3.1.5.2.3.4.4c.2.1.3.1.5.1 14.5-2.2 88.2-14.2 117.6-36.7.2-.1.4-.3.4-.6.1-.2.1-.5 0-.7-.1-.2-.2-.4-.4-.6-.2-.1-.4-.2-.7-.2-3.5-.1-7.7.3-12.4 1.3-.8.2-1.7 0-2.4-.4-.7-.5-1.2-1.2-1.4-2-.2-.8 0-1.7.4-2.4.5-.7 1.2-1.2 2-1.4 5.2-1.1 9.9-1.6 14-1.4 1.5 0 3 .6 4.3 1.5 1.2.9 2.1 2.2 2.6 3.7s.5 3 0 4.5-1.4 2.8-2.6 3.7C467 98 397.1 110 376.4 113.1c-.4-.2-.8-.1-1.1-.1z"/><path class="st30" d="M424.5 112.7c5.8-2.4 8.6-9.1 6.2-14.9-2.4-5.8-9.1-8.6-14.9-6.2-5.8 2.4-8.6 9.1-6.2 14.9 2.4 5.9 9.1 8.6 14.9 6.2z"/><path class="st25" d="M420.1 115.8c-2.7 0-5.3-.8-7.6-2.3-2.2-1.5-4-3.6-5-6.1-1-2.5-1.3-5.2-.8-7.9.5-2.6 1.8-5.1 3.7-7 1.9-1.9 4.3-3.2 7-3.7 2.6-.5 5.4-.3 7.9.8 2.5 1 4.6 2.8 6.1 5s2.3 4.9 2.3 7.6c0 3.6-1.4 7.1-4 9.6-2.5 2.6-6 4-9.6 4zm0-22.7c-1.8 0-3.6.5-5.1 1.5s-2.7 2.4-3.4 4.1c-.7 1.7-.9 3.5-.5 5.3.4 1.8 1.2 3.4 2.5 4.7 1.3 1.3 2.9 2.1 4.7 2.5 1.8.4 3.6.2 5.3-.5 1.7-.7 3.1-1.9 4.1-3.4 1-1.5 1.5-3.3 1.5-5.1 0-2.4-1-4.7-2.7-6.4s-4-2.7-6.4-2.7z"/><g class="st26"><path class="st27" d="M413.7 104c0-1.5.4-3 1.1-4.3.7-1.3 1.8-2.5 3-3.3 1.3-.8 2.7-1.3 4.2-1.5 1.5-.1 3 .1 4.4.7-1-.9-2.1-1.6-3.4-2.1-1.3-.4-2.6-.6-3.9-.4-1.3.1-2.6.6-3.7 1.3-1.1.7-2.1 1.6-2.8 2.7-.7 1.1-1.2 2.4-1.4 3.7-.2 1.3-.1 2.7.3 3.9.4 1.3 1 2.5 1.9 3.5.9 1 2 1.8 3.2 2.3-.9-.8-1.6-1.9-2.1-3-.6-1-.8-2.3-.8-3.5z"/></g><g class="st28"><path class="st29" d="M426.2 93.4s.9 14.4-14.4 16.2c0 0 11.7 7.2 19.8-2.7 0 0 1.8-10.8-5.4-13.5z"/></g></g><g id="balao"><path class="st1" d="M138.7 155c6.1-6.2 9.9-14.2 10.9-22.8 2.6-21.7-13.1-41.4-35-43.9-21.9-2.6-41.8 12.9-44.4 34.6-2.6 21.7 13.1 41.4 35 43.9 5.9.7 11.9.1 17.5-1.8l17.1 8-1.1-18z"/><g class="st26"><path class="st27" d="M113.9 95.4c20.5 2.4 35.6 20 35.4 40.2.3-1.4.6-2.8.7-4.2 2.6-22-13.1-41.9-35.1-44.5s-42 13.1-44.6 35c-.2 1.4-.3 2.9-.3 4.3 4.6-19.7 23.3-33.3 43.9-30.8z"/></g><path class="st31" d="M140.2 176.1c.4 0 .8-.1 1.2-.2.4-.2.7-.4 1-.7.3-.3.5-.6.6-1 .1-.4.2-.8.2-1.2l-1.1-16.8c6.9-7.6 10.8-17.5 11-27.8.2-10.3-3.4-20.3-10-28.2-6.6-7.9-15.9-13.1-26.1-14.7-10.2-1.6-20.6.6-29.3 6.2-8.7 5.5-15.1 14-18 23.9-2.9 9.9-2.1 20.5 2.2 29.9 4.3 9.4 11.9 16.9 21.3 21.1s20 4.9 29.8 1.8l16 7.6c.3 0 .8.1 1.2.1zm-29.8-85.5c1.5 0 2.9.1 4.4.3 6.8.8 13.2 3.5 18.6 7.8 5.4 4.3 9.4 10 11.7 16.4 2.3 6.5 2.8 13.4 1.3 20.2s-4.7 12.9-9.5 17.8c-.3.3-.5.6-.6 1-.1.4-.2.8-.2 1.2l.9 13.2-12.6-5.9c-.7-.3-1.5-.4-2.2-.1-5.2 1.8-10.7 2.3-16.1 1.7-20.1-2.5-34.5-20.9-32.1-41.1 2.2-18.7 18.1-32.5 36.4-32.5z"/><g class="st28"><path class="st32" d="M139.2 155.1c-12.7 6.7-28.4 7.3-42.3.4-15.4-7.7-24.6-22.8-25.5-38.8-.6 2-1 4-1.2 6.1-2.6 22 13.1 41.9 35.1 44.5 5.9.7 11.9.1 17.5-1.8l17.2 8.1-1.2-18.3c.2 0 .3-.1.4-.2z"/></g><path class="st33" d="M114.1 114.8l-6.6 29.5M124.5 122.2l7.4 7.4-7.4 7.4M97.1 136.9l-7.4-7.4 7.4-7.4"/></g><path id="bola_pequena" class="st34" d="M554.8 98.9c1-.3 1.7-1.4 1.4-2.4-.3-1-1.4-1.7-2.4-1.4s-1.7 1.4-1.4 2.4c.3 1.1 1.4 1.7 2.4 1.4z"/><path id="bola_media" class="st34" d="M580.6 376.8c2.7-.7 4.2-3.5 3.5-6.1s-3.5-4.2-6.1-3.5c-2.7.7-4.2 3.5-3.5 6.1.7 2.7 3.5 4.2 6.1 3.5z"/><path id="estrela" class="st35" d="M76 263.3c1.9-.4 3.4-.9 4.3-1.3.3-.2.5-.3.7-.4-.2-.1-.4-.2-.7-.4-1-.4-2.5-.7-4.4-.9-1.3-.1-2.5-.7-3.5-1.6-1-.9-1.6-2-1.9-3.3-.4-1.9-.9-3.4-1.3-4.3-.2-.3-.3-.5-.4-.7-.1.2-.2.4-.4.7-.4 1-.7 2.5-1 4.4-.1 1.3-.7 2.5-1.6 3.5-.9 1-2 1.6-3.3 1.9-1.9.4-3.4.9-4.3 1.3-.3.2-.5.3-.7.4.2.1.4.2.7.4 1 .4 2.5.7 4.4 1l13.4-.7zm0 0c-1.3.3-2.4.9-3.3 1.9-.9 1-1.4 2.2-1.6 3.5-.2 1.9-.6 3.4-1 4.4-.1.3-.3.6-.4.7-.1-.2-.3-.4-.4-.7-.5-1-1-2.4-1.3-4.3m8-5.5l-8 5.5m.1-.1c-.3-1.3-.9-2.4-1.9-3.3m1.9 3.3l-1.9-3.3m-.2 0c-.6-.9-1.4-1.4-2.2-1.6l2.2 1.6zm-8.7-3.1zm0 .5zM69 250zm-.4 0zm12.8 11.7zm-.1-.5zM69.6 274zm.5 0z"/></svg>