<svg id="Camada_1" xmlns="http://www.w3.org/2000/svg" viewBox="0 0 586 580"><style>.st0{fill:#0085ff;fill-opacity:.3}.st1{fill:#8dd7ff}.st2{fill:#002d54}.st3{fill:#ffd527}.st4,.st5{opacity:.5}.st5{fill:#fff;enable-background:new}.st6,.st7{opacity:.3}.st7{fill:#002d54;enable-background:new}.st8{fill:#00bbfc}.st9{fill:#fff}.st10,.st11{fill:#371a45}.st11{opacity:.3;enable-background:new}.st12{fill:none;stroke:#323232;stroke-width:4;stroke-linecap:round;stroke-linejoin:round}.st13{opacity:.2;fill:#fff;enable-background:new}.st14{fill:#f91c1c}.st15,.st16{opacity:.2}.st16{fill:#371a45;enable-background:new}.st17{opacity:.35}.st18,.st19{opacity:.35;fill:#371a45;enable-background:new}.st19{fill:#fff}.st20{opacity:.7}.st21,.st22{opacity:.7;fill:#fff;enable-background:new}.st22{opacity:.35;fill:#111a28}.st23{fill:#22a7f0}.st24{fill:none;stroke:#ffd527;stroke-width:3}</style><path class="st0" d="M463 396.5c44.6-36.5 73-91.9 73-154 0-109.9-89.1-199-199-199s-199 89.1-199 199c0 62.1 28.5 117.5 73 154 37.1-.7 80.1-1.2 126-1.2s88.9.5 126 1.2z"/><path class="st1" d="M559.3 369.8c2.7-.7 4.2-3.5 3.5-6.1-.7-2.7-3.5-4.2-6.1-3.5s-4.2 3.5-3.5 6.1c.7 2.7 3.4 4.2 6.1 3.5z"/><path class="st2" d="M533.8 369c2-4.2-3.6-44.1-42.1-45.8-7.6 0-15.1 1.9-21.8 5.6-6.4-5.7-15-9.6-24.5-10.5-3.5-16.8-20.2-29.5-40.3-29.5-7 0-14 1.6-20.3 4.7-2 1-4.4 1.1-6.5.4l-.4-.1c-2-.6-3.7-1.8-4.8-3.5-7.1-10.9-20.3-18.2-35.6-18.2-16.1 0-30 8.1-36.7 20-6.6-3.6-14-5.4-21.5-5.4-22.6 0-41 16.1-41 36 0 1.1.1 2.1.2 3.1-14 2.8-25.6 11.1-31.7 22.3-8.6-9.1-21.6-15-36.1-15-25.2 0-45.7 17.5-46.8 39.4-1.2-.1-2.4-.2-3.6-.2-16.1 0-29.1 11.5-29.1 25.6 0 .7 0 1.4.1 2.1H595c-5.5-17.8-29.2-40.5-61.2-31z"/><g id="Camada_2"><path class="st3" d="M527.7 247.8c27 0 48.8-21.9 48.8-48.8s-21.9-48.8-48.8-48.8c-27 0-48.8 21.9-48.8 48.8s21.8 48.8 48.8 48.8z"/><path class="st2" d="M527.7 250.5c-28.4 0-51.5-23.1-51.5-51.5s23.1-51.5 51.5-51.5 51.5 23.1 51.5 51.5-23.1 51.5-51.5 51.5zm0-97.6c-25.4 0-46.1 20.7-46.1 46.1 0 25.4 20.7 46.1 46.1 46.1 25.4 0 46.1-20.7 46.1-46.1 0-25.4-20.7-46.1-46.1-46.1z"/><g class="st4"><path class="st5" d="M535 169.7c-9.3 7-18.6.3-19 0-.5-.3-1.1-.5-1.7-.4-.6.1-1.1.4-1.5.9-.4.5-.5 1.1-.4 1.6.1.6.4 1.1.8 1.5 2.5 1.9 7.2 4 12.5 4 3.7 0 7.8-1 11.7-3.9l17.7-9.6c.4-.2.8-.6 1-1-1.2-.9-2.4-1.8-3.7-2.6l-17.2 9.4s-.1.1-.2.1z"/></g><g class="st4"><path class="st5" d="M482.7 203.2c.4-.8.9-1.5 1.4-2.2 3.2-4.4 7.6-7.8 12.8-9.6 5.1-1.8 10.7-2 15.9-.5 8.3 2.3 23.6 5.1 33.6-2.7.5-.4.8-.9.8-1.5.1-.6-.1-1.2-.5-1.7s-.9-.8-1.5-.8c-.6-.1-1.2.1-1.7.5-8.4 6.6-22.2 4.1-29.6 2-5.8-1.6-12-1.5-17.8.3-5.8 1.8-10.9 5.3-14.7 10.1 0 .7-.1 1.4-.1 2.1 0 1.7.1 3.4.3 5.1.6-.4.9-.7 1.1-1.1z"/></g><g class="st4"><path class="st5" d="M552.1 222.9c-2.5-.4-4.8-.4-6.9-.1-9.3 1.3-13 7.4-13.2 7.6-.3.5-.4 1.1-.2 1.7.1.6.5 1.1 1 1.4.5.3 1.1.4 1.7.3.6-.1 1.1-.5 1.4-1 0 0 2.9-4.5 9.9-5.5 1.7-.2 3.5-.2 5.6.1 3.4.5 6.7 1.6 9.8 3.2 1-1.1 2-2.3 3-3.5-3.7-2.1-7.8-3.5-12.1-4.2z"/></g><g class="st6"><path class="st7" d="M499.5 239.5c7 3.7 14.8 5.6 22.8 5.6 27 0 48.8-21.9 48.8-48.8 0-11.4-4-22.5-11.3-31.2-.2 7.2-3.7 65.3-69 67 4.2 4.5 9.1 8.2 14.6 10.9-2-1.1-4-2.2-5.9-3.5z"/></g><g class="st4"><path class="st5" d="M527.7 152.9c-8.1 0-16 2.1-23 6.2-6.3 3.6-11.7 8.7-15.6 14.8-4.9 7.5-7.5 16.2-7.5 25.2 0 15.6 7.8 29.3 19.6 37.7-8.2-7.5-13.5-17.7-14.8-28.8-1.3-11.1 1.5-22.2 7.8-31.4 2.4-.5 5.3-2.1 7.9-4.7 2.5-2.5 4.1-5.3 4.6-7.7 7.7-5.1 16.8-7.8 26.1-7.7 9.3.1 18.3 3.1 25.9 8.4-8.5-7.7-19.5-12-31-12z"/></g><path class="st2" d="M525 174.7c-5.4 0-10.1-2.2-12.5-4-.5-.4-.8-.9-.9-1.5s.1-1.2.4-1.7c.4-.5.9-.8 1.5-.9.6-.1 1.2.1 1.7.4.4.3 9.7 7 19 0 .1-.1.2-.1.3-.2l17.8-9.7c.5-.3 1.1-.3 1.7-.2.6.2 1.1.6 1.3 1.1.3.5.3 1.1.2 1.7-.2.6-.6 1.1-1.1 1.3l-17.6 9.6c-4 3-8.1 4.1-11.8 4.1zM479.8 201.7c-.4 0-.8-.1-1.1-.3-.3-.2-.6-.5-.8-.8-.2-.3-.3-.7-.3-1.1 0-.4.1-.8.2-1.1.5-1 1.1-1.9 1.7-2.8 3.7-5.2 8.9-9.1 14.9-11.2 6-2.1 12.5-2.3 18.7-.6 7.4 2.1 21.2 4.7 29.6-2 .5-.4 1.1-.5 1.6-.4.6.1 1.1.4 1.5.8.4.5.5 1 .5 1.6-.1.6-.4 1.1-.8 1.5-10 7.8-25.4 5.1-33.6 2.7-5.2-1.5-10.8-1.3-15.9.5s-9.6 5.2-12.8 9.6c-.5.7-1 1.5-1.4 2.2-.2.4-.5.7-.8.9-.3.4-.7.5-1.2.5zM566 231.1c-.5 0-1-.2-1.4-.5-5.1-4.1-11-5.5-14-6-2.1-.3-3.9-.4-5.6-.1-7.1 1-9.9 5.4-9.9 5.5-.1.3-.3.5-.6.7-.2.2-.5.3-.8.4-.3.1-.6.1-.9.1-.3 0-.6-.1-.8-.3-.3-.2-.5-.4-.7-.6-.2-.2-.3-.5-.4-.8-.1-.3-.1-.6 0-.9s.2-.6.3-.8c.2-.3 3.9-6.3 13.2-7.6 2.1-.3 4.4-.3 6.9.1 3.5.5 10.2 2.2 16.1 6.9.4.3.6.7.8 1.1.1.4.1.9 0 1.4-.2.4-.4.8-.8 1.1s-.9.3-1.4.3z"/><path class="st2" d="M467.3 222c-1.4 0-2.7-.4-3.9-1.2-1.2-.8-2.1-1.9-2.6-3.1-.5-1.3-.7-2.7-.5-4.1.2-1.4.9-2.6 1.8-3.6 4.7-5 13.8-9.5 14.2-9.7.7-.4 1.6-.4 2.4-.1.8.3 1.4.8 1.8 1.6s.4 1.6.2 2.4c-.3.8-.8 1.4-1.6 1.8-.1 0-8.5 4.2-12.4 8.4-.1.1-.2.3-.2.5s0 .3.1.5.2.3.4.4c.2.1.3.1.5.1 14.5-2.2 88.2-14.2 117.6-36.7.2-.1.4-.3.4-.6.1-.2.1-.5 0-.7-.1-.2-.2-.4-.4-.6-.2-.1-.4-.2-.7-.2-3.5-.1-7.7.3-12.4 1.3-.8.2-1.7 0-2.4-.4-.7-.5-1.2-1.2-1.4-2-.2-.8 0-1.7.4-2.4.5-.7 1.2-1.2 2-1.4 5.2-1.1 9.9-1.6 14-1.4 1.5 0 3 .6 4.3 1.5 1.2.9 2.1 2.2 2.6 3.7s.5 3 0 4.5-1.4 2.8-2.6 3.7C559 207 489.1 219 468.4 222.1c-.4-.2-.8-.1-1.1-.1z"/><path class="st8" d="M516.4 221.7c5.8-2.4 8.6-9.1 6.2-14.9-2.4-5.8-9.1-8.6-14.9-6.2-5.8 2.4-8.6 9.1-6.2 14.9 2.5 5.9 9.2 8.6 14.9 6.2z"/><path class="st2" d="M512.1 224.8c-2.7 0-5.3-.8-7.6-2.3-2.2-1.5-4-3.6-5-6.1-1-2.5-1.3-5.2-.8-7.9.5-2.6 1.8-5.1 3.7-7 1.9-1.9 4.3-3.2 7-3.7 2.6-.5 5.4-.3 7.9.8 2.5 1 4.6 2.8 6.1 5s2.3 4.9 2.3 7.6c0 3.6-1.4 7.1-4 9.6-2.5 2.6-6 4-9.6 4zm0-22.7c-1.8 0-3.6.5-5.1 1.5s-2.7 2.4-3.4 4.1c-.7 1.7-.9 3.5-.5 5.3.4 1.8 1.2 3.4 2.5 4.7 1.3 1.3 2.9 2.1 4.7 2.5 1.8.4 3.6.2 5.3-.5 1.7-.7 3.1-1.9 4.1-3.4 1-1.5 1.5-3.3 1.5-5.1 0-2.4-1-4.7-2.7-6.4-1.7-1.7-4-2.7-6.4-2.7z"/><g class="st4"><path class="st5" d="M505.7 213c0-1.5.4-3 1.1-4.3.7-1.3 1.8-2.5 3-3.3 1.3-.8 2.7-1.3 4.2-1.5 1.5-.1 3 .1 4.4.7-1-.9-2.1-1.6-3.4-2.1-1.3-.4-2.6-.6-3.9-.4-1.3.1-2.6.6-3.7 1.3-1.1.7-2.1 1.6-2.8 2.7-.7 1.1-1.2 2.4-1.4 3.7-.2 1.3-.1 2.7.3 3.9s1 2.5 1.9 3.5c.9 1 2 1.8 3.2 2.3-.9-.8-1.6-1.9-2.1-3-.6-1-.8-2.3-.8-3.5z"/></g><g class="st6"><path class="st7" d="M518.2 202.4s.9 14.4-14.4 16.2c0 0 11.7 7.2 19.8-2.7 0 0 1.8-10.8-5.4-13.5z"/></g></g><g id="Camada_3"><path class="st9" d="M328.6 129c-5.7-6.6-9-14.9-9.4-23.5C318.1 83.6 335 65.1 357 64c22-1.1 40.8 15.7 42 37.5 1.1 21.8-15.8 40.4-37.8 41.5-5.9.3-11.8-.7-17.3-3l-17.6 6.8 2.3-17.8z"/><g class="st4"><path class="st5" d="M357.4 71.1c-20.7 1.1-36.9 17.6-38 37.8-.2-1.4-.4-2.8-.5-4.3-1.1-22.1 15.9-41 38-42.1 22.1-1.1 41 15.9 42.1 38 .1 1.4.1 2.9 0 4.3-3.1-20-20.9-34.8-41.6-33.7z"/></g><path class="st10" d="M325.8 149.9c-.4 0-.8-.1-1.1-.3-.4-.2-.7-.4-.9-.7-.3-.3-.4-.7-.5-1.1-.1-.4-.1-.8-.1-1.2l2.2-16.7c-6.4-8.1-9.6-18.2-9.1-28.5s4.7-20.1 11.9-27.5c7.1-7.4 16.7-12 27-12.9 10.3-.9 20.5 2 28.8 8.1s14.1 15 16.4 25.1c2.2 10.1.8 20.6-4.2 29.7-4.9 9.1-13 16-22.6 19.6-9.7 3.6-20.3 3.5-29.9-.1l-16.4 6.5h-1.5zm35.3-83.3c-1.5-.1-2.9-.1-4.4 0-6.8.4-13.4 2.6-19.1 6.5-5.6 3.9-10.1 9.3-12.8 15.6-2.7 6.3-3.6 13.2-2.6 20 1 6.8 3.9 13.2 8.3 18.4.3.3.5.7.6 1.1.1.4.1.8.1 1.2l-1.7 13.1 12.9-5.1c.7-.3 1.5-.3 2.2 0 5 2.1 10.5 3 15.9 2.7 20.2-1 35.9-18.4 34.8-38.7-.9-18.8-15.9-33.6-34.2-34.8z"/><g class="st6"><path class="st11" d="M328.1 129c12.3 7.5 27.9 9.2 42.1 3.2 15.8-6.6 26-21.1 28-37 .4 2 .7 4.1.8 6.2 1.1 22.1-15.9 41-38 42.1-5.9.3-11.9-.7-17.4-3l-17.7 7 2.4-18.1c0-.2-.1-.3-.2-.4z"/></g><path class="st12" d="M367.2 115.7l3.1 6c.3.5.1 1.2-.5 1.5l-3.3 1.7c-.5.3-1.2.1-1.5-.5l-3.1-6-5.3 3.3v-18.3c0-.9 1-1.4 1.8-.9l14.5 10.9-5.7 2.3zM344 103h-4M376 103h-4M348.1 112.9l-2.8 2.8M370.7 90.3l-2.8 2.8M358 85v4M345.3 90.3l2.8 2.8"/></g><g id="astronauta"><path class="st5" d="M406 345l-.5-5.5 83 95L406 345zM234.8 381l-.5-5.5 55.5 69-55-63.5z"/><path class="st13" d="M337.5 423.8l-.5-5.5 24 35.5-23.5-30z"/><path class="st14" d="M430.6 313.3c-1.9-.4-6-1.2-10.5-1.4-4.8-.3-10.1.1-13.9 2.1-3.8 2.1-5.6 5.3-9.3 8.1-1.7 1.3-3.8 2.5-6.7 3.4-2.6.8-4.9 1.1-7.2 1.2-6 .3-11.6-.3-20.6 5.8-1 .7-2.1 1.2-3.2 1.7-.3.2-.7.3-1 .5h-.1c-8.4 3.5-21.3 5.5-21.3 5.5L271 235.9l146.3 54.8 13.8 21.8c.1.1.1.2.1.3 0 .1 0 .2-.1.3l-.2.2h-.3z"/><g class="st15"><path class="st16" d="M430.6 313.3c-1.9-.4-6-1.2-10.5-1.4-4.8-.3-10.1.1-13.9 2.1-3.8 2.1-5.6 5.3-9.3 8.1-1.7 1.3-3.8 2.5-6.7 3.4-2.6.8-4.9 1.1-7.2 1.2-6 .3-11.6-.3-20.6 5.8-1 .7-2.1 1.2-3.2 1.7-.3.2-.7.3-1 .5h-.1c-8.4 3.5-21.3 5.5-21.3 5.5L271 235.9l146.3 54.8 13.8 21.8c.1.1.1.2.1.3 0 .1 0 .2-.1.3l-.2.2h-.3z"/></g><g class="st17"><path class="st18" d="M420.2 311.8c-4.8-.3-10.1.1-13.9 2.1-3.8 2.1-5.6 5.3-9.3 8.1 1.1-2.6 2.3-7-1.1-10.7-6.4-7-19.6-11.8-19.5-13 .3-3.8 28 7.9 43.8 13.5z"/></g><g class="st17"><path class="st18" d="M383.1 326.6c-6 .3-11.6-.3-20.6 5.8-1 .7-2.1 1.2-3.2 1.7-.4.1-.7.3-1 .5h-.1c1.6-2.4 6.1-4.4 3.7-11.7-2.9-9-16.3-18.8-16-20 .8-3.2 22 13.7 37.2 23.7z"/></g><path class="st10" d="M335.9 342.3l-69.8-110.4 152.5 57.2 14.2 22.4c.3.4.4.9.4 1.4 0 .5-.2 1-.4 1.4-.3.4-.7.7-1.1.9-.5.2-1 .2-1.4.1-7.7-1.7-17.7-2.4-23 .5-1.9 1-3.2 2.4-4.8 4-2.6 2.7-5.5 5.7-11.6 7.6-3.7 1.1-6.9 1.3-10 1.4-5.1.2-9.9.3-17.3 5.4-7.4 5-25.6 7.9-26.4 8l-1.3.1zm-60-102.5l62 98.1c4.3-.7 17.9-3.4 23.5-7.2 8.3-5.7 14-5.9 19.4-6.1 2.9-.1 5.7-.2 8.9-1.2 5.1-1.6 7.4-4 9.9-6.6 1.6-1.7 3.3-3.4 5.8-4.8 6.2-3.4 16.1-2.6 22.3-1.5L416 292.4l-140.1-52.6zm153.6 73.8z"/><path class="st14" d="M290 246.3s79.3 27.2 141.8 67.2c0 0 10.2-17-4.8-31.6 0 0-28.8-3.1-69.4-19.7-39.5-16.1-70.1-34.4-70.1-34.4l2.5 18.5z"/><g class="st17"><path class="st19" d="M432.8 311.5c.1-.2.1-.5.2-.7 2.7-11.9-5.2-23.7-17.2-26-11.7-2.2-33.2-7.3-59.7-18.1-33-13.5-59.9-28.5-67.8-33l-.8-5.9s30.6 18.3 70.1 34.4c40.6 16.6 69.4 19.7 69.4 19.7 11.9 11.6 7.9 24.7 5.8 29.6z"/></g><path class="st10" d="M431.6 315.3c-.5 0-.9-.1-1.3-.4-61.5-39.3-140.1-66.5-140.9-66.7l-1.2-.4-3.3-23.9 3.6 2.1c.3.2 31 18.4 69.8 34.3 39.9 16.3 68.6 19.6 68.9 19.6l.7.1.5.5c14.5 14.2 7.1 30.4 5.4 33.5-.2.4-.5.7-.9 1-.4.2-.9.3-1.3.3zm-139.8-70.5c10 3.5 81.6 29.4 139.1 65.8 2-4.5 5.4-16.3-4.9-26.9-4.7-.6-32.3-4.7-69.2-19.8-31.5-12.8-57.6-27.2-66.8-32.5l1.8 13.4z"/><path class="st9" d="M238.6 316.2c4.1 15.9 8.4 23.4 8.4 23.4s6.9 15.3 21.8 23c9.6 4.9 21.8 4 21.8 4s6.1 19.9 14.4 24 22.3-1.4 20.2-16c-1.4-9.7-7.5-24.2-11.5-28.9-5-5.9-25.9-30.2-28.3-39.6"/><g class="st17"><path class="st18" d="M238.6 316.2c4.1 15.9 8.4 23.4 8.4 23.4s6.9 15.3 21.8 23c9.6 4.9 21.8 4 21.8 4s6.1 19.9 14.4 24 22.3-1.4 20.2-16c-1.4-9.7-7.5-24.2-11.5-28.9-5-5.9-25.9-30.2-28.3-39.6"/></g><path class="st10" d="M310.8 393.9c-2.3 0-4.6-.5-6.7-1.5-7.7-3.8-13.3-18.7-15-23.7-3.7.1-13.3-.2-21.3-4.3-14.9-7.7-22-22.4-22.6-23.8-.5-.9-4.6-8.5-8.5-23.8-.1-.5 0-1 .3-1.5s.7-.8 1.2-.9c.5-.1 1-.1 1.5.2.4.3.8.7.9 1.2 4 15.4 8.1 22.8 8.2 22.9l.1.2c.1.1 6.8 14.8 20.9 22 9 4.6 20.6 3.8 20.7 3.8l1.6-.1.5 1.5c1.6 5.3 7.2 19.8 13.4 22.8 3.8 1.9 9.1 1.3 12.8-1.4 3.7-2.7 5.3-7.2 4.5-12.5-1.4-9.6-7.4-23.6-11-27.9-17.4-20.3-27-33.8-28.7-40.4-.1-.5 0-1 .2-1.5.3-.4.7-.8 1.2-.9.5-.1 1-.1 1.5.2.5.3.8.7.9 1.2.9 3.3 5.7 12.8 27.9 38.8 4.5 5.3 10.5 20.3 11.9 29.9 1.4 9.3-3.3 14.2-6.1 16.3-3 2-6.6 3.2-10.3 3.2z"/><path class="st9" d="M241.1 241.1l-93.9-91.9s-13.5-18.8-31-5.2c-17.1 13.3-7.9 26.9-1.9 33.3l88 72.4s6.7 62.3 43.9 84.8c25.3 15.2 49.9 3.3 49.9 3.3s6.9 15.3 21.8 23c9.6 4.9 21.8 4 21.8 4s6.1 19.9 14.4 24c8.3 4.1 22.3-1.4 20.2-16-1.4-9.7-7.4-24.2-11.5-28.9-5-5.9-25.9-30.2-28.3-39.6-13.3-50.8-51-73.6-51-73.6l-42.4 10.4z"/><path class="st9" d="M374.5 375.6c0 12.4-12.7 16.9-20.4 13.1-8.3-4.1-14.4-24-14.4-24s-12.2.9-21.8-4c-14.9-7.7-21.8-23-21.8-23s-24.6 12-49.9-3.3c-.4-.2-.8-.5-1.1-.7-24.2-15.4-35.2-47.8-39.8-67.6-2.3-9.8-3-16.5-3-16.5l-13.2-10.8-12.7-10.5-62.2-51.1-.3-.3c-6-6.5-14.7-19.9 2.2-33 17.5-13.6 31 5.2 31 5.2l31.4 30.7 62.5 61.1 42.4-10.4s4.8 2.9 11.6 8.9c2.1 1.9 4.4 4.1 6.8 6.5 12.3 12.8 21.9 27.9 28.3 44.5 1.7 4.5 3.1 9 4.4 13.6 2.5 9.4 23.3 33.7 28.3 39.6 4 4.7 10.1 19.2 11.5 28.9.2 1.1.2 2.1.2 3.1z"/><g class="st17"><path class="st18" d="M374.5 375.6c0 12.4-12.7 16.9-20.4 13.1-8.3-4.1-14.4-24-14.4-24s-12.2.9-21.8-4c-14.9-7.7-21.8-23-21.8-23s-24.6 12-49.9-3.3c-.4-.2-.8-.5-1.1-.7 8.5 2.1 21.1 3.9 32.2 1 18.8-5.1 18.9-11.2 26-10.1 7.1 1.2.4 15.3 16.3 26.6 17.2 12.2 34.3 1.1 37 4 2.8 3-8.6 7.9-7.4 18.8 1.1 9.6 20.5 14.8 25.3 1.6z"/></g><g class="st17"><path class="st18" d="M189.2 238.9l-74.9-61.6-.3-.3 15.7-22s9.9 39.6 28.2 46.2c14.6 5.2 16.8-19.7 16.8-19.7l14.5 57.4z"/></g><path class="st10" d="M360 392c-2.3 0-4.6-.5-6.7-1.5-7.7-3.8-13.3-18.7-15-23.7-3.7.1-13.3-.2-21.3-4.3-12.5-6.4-19.4-17.8-21.8-22.1-6.3 2.5-27.7 9.3-50-4.1-19.7-11.9-30.9-34.8-36.8-51.8-5.6-16.2-7.6-30.1-8-33.6l-87.5-72-.1-.1c-6-6.4-8.9-13.1-8.4-19.4.5-6.1 4-11.7 10.5-16.8 5.5-4.2 11.1-6 16.9-5.2 9.5 1.4 15.9 9.4 16.8 10.6l93 91 42.1-10.4.7.4c.4.2 9.8 6 20.9 18.1 10.3 11.2 24 30 31 56.7.9 3.3 5.7 12.8 27.9 38.8 4.5 5.3 10.5 20.3 11.9 29.9 1.4 9.3-3.3 14.2-6.1 16.3-2.8 2-6.4 3.2-10 3.2zm-18.9-29.4l.5 1.5c1.6 5.3 7.2 19.8 13.4 22.8 3.8 1.9 9.1 1.3 12.8-1.4 3.7-2.7 5.3-7.2 4.5-12.5-1.4-9.6-7.4-23.6-11-27.9-17.4-20.2-27-33.8-28.7-40.4-12-45.7-44.3-68.6-49.4-71.9l-42.6 10.5-94.8-92.8-.1-.1c-.1-.1-5.8-7.9-14.3-9.1-4.6-.7-9.3.8-13.8 4.4-5.6 4.3-8.6 9-9 13.9-.5 6.5 3.6 12.4 7.2 16.3l88.6 72.8.1.8c.1.6 7.1 61.6 43 83.3 24 14.5 47.7 3.3 48 3.2l1.8-.9.8 1.9c.1.1 6.8 14.8 20.8 22 8.9 4.6 20.6 3.8 20.7 3.8l1.5-.2z"/><path class="st9" d="M285.9 313.9c0 4.8-2.5 9.4-6.6 11-10.2 4-27.3 8.5-45.6 4.3-4.3-1-8.1-3.7-10.9-7.7-3.4-4.9-7.8-12.8-11.4-24.4-1.3-4.2 1.5-8.6 5.3-8.2 9.2 1.1 26.3 1 49.7-7.3 4.6-1.6 9.4 1.1 11.2 6.4l4.6 13.3 2.9 8.3c.6 1.3.8 2.8.8 4.3z"/><g class="st17"><path class="st18" d="M285.9 313.9c0 4.8-2.5 9.4-6.6 11-10.2 4-27.3 8.5-45.6 4.3-4.3-1-8.1-3.7-10.9-7.7l-.6-.9c1.5.9 3.1 1.5 4.7 1.9 18.3 4.2 35.4-.4 45.6-4.3 1.8-.7 3.2-1.9 4.3-3.5-1.9-.5-3.6-2.2-4.3-4.4l-.1-.4c-1.1-3.7.8-7.4 4-7.7.5-.1 1.1-.1 1.6-.2l-7.2-20.6c2.9.7 5.5 3.1 6.7 6.6l4.6 13.3 2.9 8.3c.1.2.1.4.2.5 0 .1.1.3.1.4.1.3.1.6.2.9 0 .1 0 .3.1.4 0 .2 0 .3.1.5 0 .2 0 .4.1.5v.5c.1.2.1.4.1.6z"/></g><path class="st10" d="M248.5 332.8c-5.1 0-10.2-.6-15.2-1.7-4.8-1.1-9-4.1-12.1-8.5-3.3-4.8-8-12.9-11.7-25-.9-2.9-.3-6.1 1.6-8.3 1.5-1.8 3.6-2.7 5.8-2.5 9.9 1.1 26.4.8 48.8-7.2 1.2-.4 2.5-.6 3.8-.6 1.3.1 2.6.4 3.8 1 2.8 1.4 5 3.9 6.2 7.2l7.5 21.6c2.5 7.2-.7 15.4-7 17.8-7.9 3.2-19.1 6.3-31.5 6.2zm-32.2-42c-1 0-1.7.7-2 1.1-1 1.2-1.3 3-.8 4.6 3.5 11.5 8 19.4 11.1 23.9 2.5 3.6 5.9 6 9.7 6.9 17.4 4 33.8-.1 44.4-4.2 4.3-1.7 6.5-7.7 4.7-12.8l-7.5-21.6c-.8-2.3-2.3-4-4.1-4.9-.7-.3-1.5-.5-2.2-.6-.8 0-1.6.1-2.3.3-23.2 8.2-40.3 8.6-50.6 7.4-.3-.1-.3-.1-.4-.1z"/><g class="st17"><path class="st18" d="M326.5 285.6c-9.2 4.6-30.3 14.1-50 16.4-3.2.4-5.2 4-4 7.7l.1.4c.9 2.9 3.4 4.8 5.9 4.6 20.5-1.9 43.9-10.7 53.7-14.7 2.6-1.1 3.8-4.5 2.6-7.7l-1.3-3.4c-1.2-3-4.4-4.5-7-3.3z"/></g><path class="st9" d="M327 280.7c-9.2 4.6-30.3 14.1-50 16.4-3.2.4-5.2 4-4 7.7l.1.4c.9 2.9 3.4 4.8 5.9 4.6 20.5-1.9 43.9-10.7 53.7-14.7 2.6-1.1 3.8-4.5 2.6-7.7L334 284c-1.2-3.1-4.4-4.6-7-3.3z"/><path class="st10" d="M278.7 311.8c-3.2 0-6.3-2.4-7.4-6l-.1-.4c-.8-2.5-.5-5.2.9-7.3 1.1-1.7 2.8-2.8 4.8-3 19.6-2.3 41-12.1 49.3-16.2.8-.4 1.7-.6 2.6-.7.9 0 1.8.1 2.6.5 2 .8 3.7 2.5 4.6 4.7l1.3 3.4c1.6 4.2 0 8.8-3.7 10.2-9.3 3.8-33.3 12.9-54.3 14.8h-.6zm49.2-29.3c-8.5 4.2-30.4 14.3-50.6 16.6-1 .1-1.6.7-1.9 1.3-.7 1-.8 2.5-.4 3.9l.1.4c.6 1.9 2.2 3.3 3.8 3.2 20.4-1.9 44-10.8 53.2-14.5 1.6-.7 2.3-3 1.5-5.1l-1.3-3.4c-.5-1.2-1.3-2.1-2.3-2.5-.3-.1-.7-.2-1-.2-.4 0-.8.1-1.1.3z"/><g class="st17"><path class="st18" d="M273.1 304.8l.1.4c.9 2.9 3.4 4.8 5.9 4.6 20.5-1.9 43.9-10.7 53.7-14.7 2.6-1.1 3.8-4.5 2.5-7.7L334 284c0-.1-.1-.2-.1-.3-.1 2.1-1.2 3.9-3 4.7-9.8 4-33.2 12.8-53.7 14.7-1.6.1-3.2-.6-4.3-1.8-.3 1.2-.2 2.4.2 3.5z"/></g><path class="st9" d="M110.2 172s4.2 5.4 10.3 4.5c10.1-1.5 24.2-12.2 21.3-19.8-2.4-6.3-9.2-6.4-6.8-11.3"/><g class="st17"><path class="st18" d="M120.5 176.5c-6.1.9-10.3-4.5-10.3-4.5 1.6.8 3.6 1.3 5.9 1 10.1-1.5 24.2-12.2 21.4-19.8-1-2.7-2.9-4.3-4.4-5.5l2.1-2.2c-2.5 4.9 4.4 5 6.8 11.3 2.7 7.5-11.4 18.2-21.5 19.7z"/></g><path class="st10" d="M111.8 170.8l.2.2.3.3c.2.2.4.4.6.5.4.4.8.7 1.2 1 .8.6 1.7 1.1 2.7 1.4.9.3 1.9.4 2.8.4l.7-.1.8-.1c.5-.1 1.1-.2 1.6-.4 2.2-.6 4.3-1.5 6.2-2.6 2-1.1 3.9-2.4 5.6-3.8 1.7-1.4 3.3-3.1 4.4-4.9.5-.8.9-1.8 1.1-2.7.2-.8.2-1.6-.1-2.4-.1-.2-.1-.4-.2-.6l-.3-.6c-.2-.4-.5-.9-.7-1.2-.6-.8-1.3-1.6-2.1-2.4-.4-.4-.9-.8-1.3-1.3s-.9-1-1.3-1.8c-.2-.4-.3-.8-.4-1.2-.1-.4-.1-.9 0-1.3.2-.8.6-1.4 1-1.9.1-.1.2-.2.4-.2h.4c.1.1.3.2.3.3.1.1.1.3.1.4-.1.6-.2 1.1-.1 1.5.1.4.3.7.5.9.6.6 1.6 1.1 2.6 1.8 1.1.7 2.2 1.6 3 2.6.5.5.9 1.1 1.3 1.7.2.3.3.6.5 1 .2.3.3.7.4 1.1.5 1.5.5 3.2.1 4.7s-1 2.7-1.8 3.9c-1.5 2.3-3.3 4.1-5.2 5.8-1.9 1.6-4.1 3.1-6.3 4.3-2.2 1.2-4.6 2.2-7.1 2.9-.6.2-1.3.3-1.9.5l-1 .2-1.1.1c-1.5.1-2.9-.1-4.3-.6-1.3-.5-2.6-1.1-3.7-1.9-.6-.4-1.1-.8-1.6-1.3-.3-.2-.5-.5-.7-.7l-.4-.4-.4-.4c-.3-.4-.5-.9-.4-1.4 0-.5.3-1 .7-1.3.4-.3.9-.5 1.4-.5.5 0 1 .3 1.3.7l.2-.2z"/><path class="st9" d="M153 158.9c-5.8-9.7-12.4-10.3-20.3-5.9-5.7 3.2-8.7 8.8-6.8 12.1 2.2 4 13.2-2.5 13.6-2.2.4.3-2.4 5.7-1 10.4"/><path class="st10" d="M152.7 159.1c-.5-.5-1-.9-1.5-1.4l-.7-.7-.7-.7c-1-.8-2-1.6-3-2.2-.5-.3-1-.5-1.5-.8-.5-.2-1-.4-1.6-.5-1.1-.3-2.1-.3-3.2-.2-.5 0-1.1.2-1.7.3-.6.2-1.1.3-1.7.5-1.1.4-2.3.9-3.4 1.5-2.1 1.1-4 2.7-5.2 4.7-.6 1-1 2-1.1 2.9 0 .5 0 .9.1 1.2 0 .2.1.3.2.5h.1c.2.1.5.1.7.1.5 0 1-.1 1.5-.2 1.1-.2 2.3-.6 3.5-1.1 1.2-.4 2.4-.9 3.7-1.5.3-.1.6-.3 1-.4.1 0 .2-.1.4-.1H138.9c.1 0 .2 0 .3-.1h.4c.2 0 .3 0 .4.1l.6.3.3.3c.1.1.2.2.2.3.1.2.2.4.2.6 0 .2.1.3.1.5v.4c0 .1-.1.3-.1.4-.1.4-.2.7-.4 1l-.4.9c-.9 2.4-1.7 4.6-1.8 7.4 0 .1 0 .1-.1.2 0 .1-.1.1-.2.1h-.2c-.1 0-.1-.1-.2-.1-.8-1.2-1.2-2.7-1.4-4.2-.1-1.5 0-2.9.3-4.4l.4-1.9v-.1.8l.3.6.3.3c.2.1.4.3.6.3.1 0 .3.1.4.1H139.6l-.1.1-.8.4c-1.2.6-2.5 1.2-3.8 1.7-1.4.6-2.8 1-4.2 1.3-.8.2-1.7.2-2.5.2-.9 0-2-.2-3.1-1-.5-.4-1-.9-1.3-1.5-.2-.5-.4-.9-.5-1.4-.3-1-.2-1.9-.2-2.8.2-1.8.9-3.2 1.8-4.6 1.7-2.6 4-4.6 6.6-6.2 1.3-.7 2.5-1.4 3.9-1.9.7-.3 1.4-.5 2.2-.7.4-.1.8-.1 1.1-.2.2 0 .4-.1.6-.1h.6c.8-.1 1.6 0 2.4.1.8.2 1.6.3 2.3.6.4.1.8.3 1.1.5.3.2.7.4 1 .6.6.5 1.3.9 1.8 1.4 1.1 1 2 2.2 2.7 3.4.4.6.7 1.3 1 1.9.3.7.5 1.3.7 2v.2c0 .1-.1.1-.1.2-.1 0-.1.1-.2.1.3.1.2 0 .1 0zM290.5 364.8c.5-.1 1.2-.3 1.7-.4l1.8-.4c1.2-.3 2.4-.5 3.6-.9 1.2-.4 2.3-.8 3.4-1.4 1.1-.6 2.2-1.3 3.2-2.1 0 0 .1-.1.2-.1s.1 0 .2.1l.1.1v.2c-.6 1.3-1.4 2.5-2.4 3.5s-2.2 1.9-3.4 2.6c-1.2.7-2.6 1.3-3.9 1.7-.7.2-1.4.4-2.1.5-.7.1-1.5.2-2.2.1-.4 0-.8-.2-1.1-.5-.3-.3-.5-.7-.6-1.1 0-.4.1-.8.3-1.2.2-.3.6-.6 1-.7h.2zM339.6 362.9c.5-.1 1.2-.3 1.7-.4l1.8-.4c1.2-.3 2.4-.5 3.6-.9 1.2-.4 2.3-.8 3.4-1.4 1.1-.6 2.2-1.3 3.2-2.1 0 0 .1-.1.2-.1s.1 0 .2.1l.1.1v.2c-.6 1.3-1.4 2.5-2.4 3.5s-2.2 1.9-3.4 2.6c-1.2.7-2.6 1.3-3.9 1.7-.7.2-1.4.4-2.1.5-.7.1-1.5.2-2.2.1-.4 0-.8-.2-1.1-.5-.3-.3-.5-.7-.6-1.1 0-.4.1-.8.3-1.2.2-.3.6-.6 1-.7h.2z"/><path class="st9" d="M368.7 305.7c-7 2-15.7.4-15.7.4s-.4 10.3-6.2 8.3c-1.9-.7-3.4-4.5-4.5-8.2-1.6-5.5-4.9-10.3-9.5-13.7-.9-.6-1.8-1.3-2.7-1.9-15.2-10.2-31.3-14.3-31.3-14.3l-2.4-23.1-1.4-13.6-.1-.6c2.7.5 5.8 1.7 9.3 3.3 17.4 8 42.4 27.1 47.9 32.1 6.6 6 26.5 3.7 28.6 15.9 1.6 8.3-2.6 12.7-12 15.4z"/><g class="st17"><path class="st18" d="M368.7 305.7c-7 2-15.7.4-15.7.4s-.4 10.3-6.2 8.3c-1.9-.7-3.4-4.5-4.5-8.2-1.6-5.5-4.9-10.3-9.5-13.7-.9-.6-1.8-1.3-2.7-1.9-15.2-10.2-31.3-14.3-31.3-14.3 1.7-1.2 3.6-1.9 5.6-2.3 2-.3 4.1-.2 6 .4 4.3 1.3 10 3.6 17.7 8.7.9.6 1.8 1.2 2.7 1.9 4.6 3.4 7.9 8.2 9.5 13.7 1.1 3.7 2.6 7.5 4.5 8.2 3.3 1.2 4.6-1.8 5-4.6.2-1 .7-1.9 1.5-2.5.8-.6 1.8-.9 2.8-.8 3.5.3 8.5.4 12.7-.7 8-2.3 12.3-5.8 12.4-12.1.9 1.2 1.4 2.6 1.7 4.1 1.4 8.3-2.8 12.7-12.2 15.4z"/></g><path class="st10" d="M299 275.6c1.7 0 3.3.3 4.9.6 1.6.3 3.2.7 4.7 1.2 3.1 1 6.1 2.2 9 3.6 1.5.7 2.9 1.4 4.3 2.2l2.1 1.2 1.1.6 1 .6 2.1 1.3 2 1.3 1 .7 1 .7 2 1.4a25.45 25.45 0 0 1 9.2 12.3c.1.4.3.8.4 1.2l.3 1.2c.2.7.5 1.5.7 2.2.5 1.4 1.1 2.8 1.8 3.8l.3.3.1.1.1.1c.1.1.1.1.2.1h.1c.5.1.8.1 1.1 0 .2-.1.6-.3.9-.8.3-.5.6-1.1.8-1.7.2-.7.4-1.3.5-2l.3-2.1.1-2.3 2.2.4c1.3.2 2.7.4 4.1.5 1.4.1 2.8.1 4.2.1 1.4 0 2.7-.2 4.1-.4 1.3-.2 2.6-.6 3.9-1 2.6-.9 5.1-2 6.9-3.7.8-.8 1.5-1.8 1.9-2.9.4-1.1.6-2.3.6-3.5 0-.6 0-1.3-.2-1.9-.1-.6-.2-1.2-.4-1.8-.4-1.1-1-2.1-1.8-3-1.6-1.7-4.1-2.9-6.7-3.8-2.6-.9-5.4-1.5-8.3-2.2-1.4-.4-2.9-.7-4.3-1.2-1.5-.5-2.9-1-4.4-1.8l-.5-.3-.5-.4c-.4-.2-.7-.5-1.1-.8l-.8-.7-.8-.7c-1.1-.9-2.2-1.8-3.4-2.7-2.3-1.8-4.6-3.5-6.9-5.3-4.7-3.5-9.4-6.8-14.2-10-4.8-3.2-9.7-6.3-14.8-9-2.6-1.3-5.2-2.5-7.7-3.8-2.6-1.3-5-2.5-7.6-4.1l-.3-.3c-.1-.1-.1-.3 0-.4 0-.1.1-.3.2-.4.1-.1.2-.2.4-.2.8-.1 1.6-.1 2.3 0 .4 0 .8.1 1.2.1.4.1.8.1 1.1.2 1.5.3 2.9.7 4.3 1.3 2.8 1.1 5.4 2.5 8 4 2.6 1.5 5.1 2.9 7.6 4.5s5 3.1 7.4 4.8c4.9 3.2 9.7 6.6 14.4 10.1 2.4 1.8 4.7 3.5 7 5.3 1.2.9 2.3 1.8 3.4 2.8l.9.7.8.7c.4.4.9.7 1.4 1 2.2 1.2 5 1.9 7.8 2.6 2.8.7 5.7 1.4 8.6 2.3 1.5.5 2.9 1.1 4.3 1.9 1.4.8 2.8 1.7 4 3 1.2 1.3 2.1 2.8 2.6 4.5.3.8.4 1.6.5 2.5.1.8.2 1.6.2 2.4 0 1.7-.2 3.4-.9 5-.6 1.6-1.6 3.1-2.9 4.3-2.5 2.4-5.5 3.6-8.4 4.6-.7.2-1.4.5-2.2.7-.8.2-1.5.4-2.3.5-1.5.2-3.1.4-4.6.4-3.1.1-6.1-.1-9.1-.7l2.4-1.9c-.1.9-.2 1.8-.3 2.6-.2.9-.4 1.8-.7 2.6-.3.9-.7 1.8-1.3 2.6-.6.9-1.5 1.8-2.7 2.3-.6.2-1.3.3-1.9.3-.3 0-.6 0-.9-.1-.3 0-.6-.1-.8-.2-.3-.1-.7-.2-1-.4-.3-.2-.6-.4-.8-.6l-.3-.3-.3-.3c-.2-.2-.3-.4-.5-.6-.5-.8-1-1.6-1.4-2.4-.4-.8-.7-1.6-1-2.4-.3-.8-.5-1.6-.8-2.4l-.3-1.1c-.1-.4-.2-.7-.3-1-.5-1.4-1.1-2.7-1.9-4-1.5-2.5-3.5-4.7-5.9-6.4-5-3.7-10.5-6.7-16.2-9.4-5.6-2.7-11.5-5-17.1-8l-.3-.3c-.1-.1-.1-.3 0-.4 0-.1.1-.3.3-.4.4.3.5.2.7.2z"/><g class="st17"><path class="st18" d="M304.3 242.2c-.4.7-.9 1.4-1.3 2.1-.4.6-.7 1.2-1.1 1.7-1.6 2.5-3.5 4.8-5.4 7.1-14.4 16.6-35.4 25.1-56.5 24.1-1.3-.1-2.7-.2-4-.3-3.7-.4-7.4-1.1-11-2.1-6.6-1.8-13-4.6-18.8-8.3-.3-.2-.5-.3-.8-.5-2.3-9.8-3-16.5-3-16.5l-13.2-10.8-12.7-10.5c-4.9-15.6-4.5-32.8 2.1-48.5l62.5 61.1 42.4-10.4s4.8 2.9 11.6 8.9l-.1-.6c2.6.7 5.8 1.9 9.3 3.5z"/></g><g class="st20"><path class="st21" d="M179.2 177.7c-1.1 2.8-2.1 5.6-2.9 8.5.7-2.9 1.7-5.8 2.9-8.5z"/></g><path class="st9" d="M172.4 219.3c3.5 11.5 10 21.8 18.7 30 1.8 1.7 3.8 3.4 5.8 4.9 1 .8 2 1.5 3 2.2 3.1 2.1 6.3 4 9.7 5.6 6.2 2.9 12.8 4.9 19.7 5.9 1.3.2 2.7.3 4 .5 24.5 2.2 49.4-8.6 64.2-30.4 21.9-32.1 13.6-75.8-18.4-97.6-6-4.1-12.6-7.3-19.6-9.3-.8-.2-1.6-.5-2.4-.7-2.2-.6-4.3-1-6.5-1.4-10-1.6-20.2-1-30 1.7-1.5.4-3.1.9-4.6 1.4-14.1 5-26.2 14.3-34.6 26.6-12.5 18.5-15.1 40.8-9 60.6z"/><g class="st17"><path class="st18" d="M297.5 238c-14.8 21.8-39.8 32.6-64.2 30.4-1.3-.1-2.7-.3-4-.5-10.5-1.6-20.6-5.5-29.4-11.5-1-.7-2.1-1.4-3-2.2-2-1.5-3.9-3.2-5.8-4.9-8.7-8.2-15.1-18.6-18.7-30-1.9-6.2-3-12.6-3.2-19 4.5 13.3 12.8 24.9 23.9 33.4 1 .8 2 1.5 3 2.2 8.8 6 18.8 9.9 29.4 11.5 1.3.2 2.7.3 4 .5 24.5 2.2 49.4-8.6 64.2-30.4 8.3-12.2 12.6-26.7 12.2-41.5 6.9 20.1 4.5 43.1-8.4 62z"/></g><path class="st10" d="M239 270.6c-2 0-3.9-.1-5.9-.3-1.4-.1-2.8-.3-4.1-.5-7-1-13.8-3.1-20.2-6.1-3.5-1.6-6.8-3.5-10-5.7-1.2-.8-2.2-1.6-3.1-2.3-2.1-1.6-4-3.2-5.9-5-8.9-8.5-15.6-19.1-19.2-30.9-6.6-21.2-3.2-43.9 9.3-62.2 8.6-12.7 21.1-22.3 35.6-27.4 1.5-.5 3.1-1 4.7-1.5 10-2.8 20.6-3.4 30.8-1.8 2.2.4 4.5.8 6.7 1.4.9.2 1.7.4 2.5.7 7.2 2.1 14 5.4 20.1 9.6 32.9 22.5 41.4 67.5 18.9 100.4-13.6 20-36.3 31.8-60.2 31.6zm-64.7-51.9c3.5 11.1 9.7 21.2 18.2 29.2 1.8 1.7 3.6 3.3 5.6 4.8.9.7 1.8 1.4 3 2.1 8.5 5.8 18.3 9.7 28.5 11.2 1.3.2 2.6.3 3.9.5 24.6 2.2 48.5-9.2 62.4-29.5 21.2-31.1 13.2-73.7-17.9-94.9-5.8-4-12.3-7-19-9.1-.7-.2-1.5-.4-2.3-.6-2.1-.5-4.2-1-6.3-1.3-9.7-1.5-19.7-1-29.1 1.7-1.5.4-3 .9-4.4 1.4-13.7 4.8-25.4 13.9-33.6 25.9-12 17.1-15.2 38.5-9 58.6z"/><path class="st10" d="M239 270.6c-2 0-3.9-.1-5.9-.3-1.4-.1-2.8-.3-4.1-.5-7-1-13.8-3.1-20.2-6.1-3.5-1.6-6.8-3.5-10-5.7-1.2-.8-2.2-1.6-3.1-2.3-2.1-1.6-4-3.2-5.9-5-8.9-8.5-15.6-19.1-19.2-30.9-6.6-21.2-3.2-43.9 9.3-62.2 8.6-12.7 21.1-22.3 35.6-27.4 1.5-.5 3.1-1 4.7-1.5 10-2.8 20.6-3.4 30.8-1.8 2.2.4 4.5.8 6.7 1.4.9.2 1.7.4 2.5.7 7.2 2.1 14 5.4 20.1 9.6 32.9 22.5 41.4 67.5 18.9 100.4-13.6 20-36.3 31.8-60.2 31.6zm-64.7-51.9c3.5 11.1 9.7 21.2 18.2 29.2 1.8 1.7 3.6 3.3 5.6 4.8.9.7 1.8 1.4 3 2.1 8.5 5.8 18.3 9.7 28.5 11.2 1.3.2 2.6.3 3.9.5 24.6 2.2 48.5-9.2 62.4-29.5 21.2-31.1 13.2-73.7-17.9-94.9-5.8-4-12.3-7-19-9.1-.7-.2-1.5-.4-2.3-.6-2.1-.5-4.2-1-6.3-1.3-9.7-1.5-19.7-1-29.1 1.7-1.5.4-3 .9-4.4 1.4-13.7 4.8-25.4 13.9-33.6 25.9-12 17.1-15.2 38.5-9 58.6z"/><path class="st10" d="M179.9 235.6c34.8 36.2 93.7 26.9 106.2-21.2 8.5-32.7-17-66.4-48.9-72.5-23.3-4.5-48 1.3-64.8 35.5 0 0-5.1 16.3-2.8 28.3s6.6 23.2 6.6 23.2l3.7 6.7z"/><g class="st17"><path class="st22" d="M286.1 214.5c-12.5 48.1-71.4 57.4-106.2 21.2l-.7-1.4c42.9 16.7 92.4-1.1 106-49.6 3 9.5 3.6 19.6.9 29.8z"/></g><path class="st10" d="M229.8 266.9c-7 0-14-1.1-20.7-3l-.3-.1c-3.5-1.6-6.8-3.5-10-5.7-1.2-.8-2.2-1.5-3.1-2.3-2.1-1.6-4-3.2-5.9-5-8.9-8.5-15.6-19.1-19.2-30.9-6.6-21.2-3.2-43.9 9.3-62.2 7.2-10.6 17.1-19.1 28.7-24.5l.2-.1h.2c9.1-2.2 19.1-2.2 29.8-.1 19.1 3.7 37 16.2 47.8 33.4 10 15.8 13.1 33.8 8.7 50.6-4.8 18.2-15.4 32.5-30.8 41.3-10.4 5.7-22.4 8.7-34.7 8.6zm-19.5-6.8c18 5.2 37 3.2 52.1-5.4 14.5-8.2 24.5-21.7 29-38.8 4.1-15.7 1.2-32.6-8.2-47.5-10.3-16.3-27.2-28.1-45.2-31.6-10.1-1.9-19.5-1.9-27.9.1-10.9 5.2-20.1 13.2-26.9 23.1-11.8 17.3-15 38.7-8.8 58.8 3.5 11.1 9.7 21.2 18.2 29.2 1.8 1.7 3.6 3.3 5.6 4.8.9.7 1.8 1.4 3 2.1 2.8 1.9 5.9 3.7 9.1 5.2z"/><path class="st10" d="M229.7 259.7c-18.6-.1-37.2-8.1-51.2-22.7l-.2-.2-3.9-7.2c-.2-.5-4.4-11.6-6.7-23.6-2.4-12.3 2.6-28.6 2.9-29.3l.1-.3c14.8-30 37.3-42.3 67-36.6 17 3.3 33 14.4 42.7 29.8 8.9 14.1 11.7 30.2 7.8 45.2-5.6 21.6-20.9 37.2-41.9 42.7-5.5 1.6-11.1 2.3-16.6 2.2zm-48.2-25.2c17.1 17.7 41.5 25.1 63.6 19.3 19.6-5.1 33.8-19.6 39-39.8 3.6-13.9 1-28.9-7.3-42.1-9.1-14.5-24.1-24.9-40.1-28-27.6-5.3-48.7 6.2-62.6 34.3-.5 1.6-4.8 16.4-2.7 27.2 2.1 11 6 21.5 6.5 22.8l3.6 6.3z"/><path class="st9" d="M317 219.3c2.6-13.6-3.4-26.2-13.3-28.1-9.9-1.9-20 7.7-22.6 21.3-2.6 13.6 3.4 26.2 13.3 28.1 9.9 1.8 20.1-7.7 22.6-21.3z"/><path class="st10" d="M296.8 242.8c-.4 0-.8 0-1.3-.1-4.4-.4-8.4-2.6-11.5-6.4-4.5-5.6-6.4-13.7-5.2-22.3 2-14.8 12.6-26 23.7-25 4.4.4 8.4 2.6 11.5 6.4 4.5 5.6 6.4 13.7 5.2 22.3-1.8 14.2-11.8 25.1-22.4 25.1zm4.5-49.9c-8.7-.1-16.8 9.4-18.5 21.6-1 7.4.6 14.6 4.4 19.3 2.4 3 5.4 4.7 8.7 5 9 .8 17.7-8.9 19.4-21.6 1-7.4-.6-14.6-4.4-19.3-2.4-3-5.4-4.7-8.7-5-.3.1-.6 0-.9 0z"/><path class="st9" d="M319.5 220.6c2.2-10-2.5-19.5-10.5-21.3-8-1.8-16.3 4.8-18.6 14.8-2.2 10 2.5 19.5 10.5 21.3 8 1.7 16.3-4.9 18.6-14.8z"/><g class="st17"><path class="st18" d="M289.6 225.2c-.4-3.8.2-7.6 1.6-11.2 1.7 8.5 8.6 12.8 16.1 9.7 4.8-2 8.8-6.6 10.9-12.1.1.5.2 1.1.3 1.7 1.1 9.6-4.5 20-12.5 23.3-8 3.3-15.3-1.8-16.4-11.4z"/></g><path class="st10" d="M302.7 240.5h-.9c-3.3-.3-6.3-1.9-8.6-4.8-3.6-4.5-5.2-11.5-4.2-18.8 1.7-12.4 10-21.6 18.7-20.9 3.3.3 6.3 1.9 8.6 4.8 3.6 4.5 5.2 11.5 4.2 18.8-1.6 12-9.4 21-17.8 20.9zm4.2-40.6c-6.3 0-12.6 7.8-13.9 17.5-.9 6.2.4 12.1 3.3 15.8 1.6 2 3.6 3.2 5.8 3.3 6.4.5 13.1-7.5 14.5-17.5.9-6.2-.4-12.1-3.3-15.8-1.6-2-3.6-3.2-5.8-3.3h-.6z"/><g class="st20"><path class="st21" d="M251.3 157.2s-31.7-4-52.3 10.6h-.1c-4.3 3.1-7.8 7.3-10 12.2-2.9 6.4-3.9 11.3-4.7 15.6-2.3 13.1-.9 19.7-.9 19.7-6.2-8.2-9.1-16.9-7.3-27.8.2-1.1.4-2.2.7-3.3.1-.3.1-.5.2-.8.9-2.8 2-5.6 3.2-8.4 4.4-9.6 12.4-21.8 26.1-25.7 25.7-7.1 46.4 6.7 45.1 7.9z"/></g><g class="st20"><path class="st21" d="M269.9 204.5c5.2-.5 8.9-5.7 8.4-11.7-.5-6-5.1-10.5-10.3-10.1-5.2.5-8.9 5.7-8.4 11.7.5 6.1 5.1 10.6 10.3 10.1z"/></g><g class="st20"><path class="st21" d="M271.5 217.9c2.1-.4 3.5-2.7 3-5.1-.4-2.5-2.5-4.2-4.6-3.8-2.1.4-3.5 2.7-3 5.1.4 2.5 2.5 4.2 4.6 3.8z"/></g><path class="st23" d="M250.4 307.6c.2.8 2.7 7.1 2.7 7.1l4.6-1c3.2-.7 5-4.5 4.1-8.5-.9-4-4.1-6.7-7.3-6.1l-4.6 1c0-.1.2 6.2.5 7.5z"/><g class="st17"><path class="st18" d="M250.4 307.6c.2.8 2.7 7.1 2.7 7.1l4.6-1c3.2-.7 5-4.5 4.1-8.5-.9-4-4.1-6.7-7.3-6.1l-4.6 1c0-.1.2 6.2.5 7.5z"/></g><path class="st10" d="M253.1 315.8c-.2 0-.5-.1-.6-.2-.2-.1-.3-.3-.4-.5-.6-1.5-2.6-6.4-2.8-7.2-.3-1.4-.5-7.1-.5-7.8 0-.3.1-.5.2-.8s.4-.4.7-.4l4.6-1c3.8-.8 7.7 2.3 8.7 6.9.5 2.2.2 4.4-.6 6.3-.9 1.9-2.5 3.2-4.4 3.6l-4.6 1c-.2.1-.3.1-.3.1zm-1.6-8.5c.1.4 1.2 3.2 2.3 6l3.6-.8c1.2-.3 2.2-1.1 2.8-2.4.7-1.4.8-3.1.5-4.8-.7-3.4-3.4-5.7-5.9-5.2l-3.6.8c0 2.4.1 5.7.3 6.4z"/><path class="st23" d="M253.1 314.6c3.2-.7 5-4.5 4.1-8.5-.9-4-4.1-6.7-7.3-6.1-3.2.7-5 4.5-4.1 8.5.8 4.1 4.1 6.8 7.3 6.1z"/><g class="st17"><path class="st18" d="M257.2 306.1c.9 4-1 7.8-4.1 8.5-3.2.7-6.4-2-7.3-6.1-.1-.5-.2-1.1-.2-1.6 1.4 2.6 3.9 4.1 6.4 3.6 2.7-.6 4.5-3.5 4.3-6.9.4.8.7 1.6.9 2.5z"/></g><path class="st9" d="M257.2 306.1c.1.3.1.5.1.8-1.3-3-4.1-4.9-6.7-4.3-2.9.6-4.7 4-4.3 7.7l-.6-1.8c-.9-4 1-7.9 4.1-8.5 3.3-.7 6.5 2.1 7.4 6.1z"/><path class="st10" d="M252 315.9c-1.5 0-2.9-.6-4.2-1.6-1.6-1.3-2.7-3.2-3.2-5.4-1-4.7 1.2-9.1 5-9.9 3.8-.8 7.7 2.3 8.7 6.9.5 2.2.2 4.4-.6 6.3-.9 1.9-2.5 3.2-4.4 3.6-.4.1-.8.1-1.3.1zm-1.1-14.8c-.3 0-.5 0-.8.1-2.5.5-4 3.8-3.2 7.1.4 1.7 1.2 3.2 2.4 4.1 1.1.9 2.3 1.3 3.5 1 1.2-.3 2.2-1.1 2.8-2.4.7-1.4.8-3.1.5-4.8-.7-2.9-2.9-5.1-5.2-5.1zM243.8 331.3c-.3 0-.6-.1-.9-.3-.3-.2-.4-.5-.5-.8l-3.8-13.8c-.1-.4-.3-.7-.5-1-.3-.3-.6-.5-.9-.6l-5.4-1.8c-.6-.2-1.2-.6-1.6-1-.4-.5-.7-1.1-.9-1.7l-4.9-19.5c-.1-.4 0-.8.2-1.1.2-.3.5-.6.9-.7.4-.1.8 0 1.1.2.3.2.6.5.7.9l4.9 19.5c0 .1.1.3.2.4.1.1.2.2.4.2l5.4 1.8c.8.3 1.6.8 2.2 1.4.6.6 1 1.4 1.2 2.2l3.8 13.8c.1.2.1.5 0 .7 0 .2-.1.4-.3.6-.1.2-.3.3-.5.4-.4.2-.6.2-.8.2z"/></g><path class="st1" d="M534.5 92.9c1-.3 1.7-1.4 1.4-2.4-.3-1-1.4-1.7-2.4-1.4-1 .3-1.7 1.4-1.4 2.4.3 1.1 1.4 1.7 2.4 1.4z"/><path class="st24" d="M65.7 298.3c1.9-.4 3.4-.9 4.3-1.3.3-.2.5-.3.7-.4-.2-.1-.4-.2-.7-.4-1-.4-2.5-.7-4.4-.9-1.3-.1-2.5-.7-3.5-1.6-1-.9-1.6-2-1.9-3.3-.4-1.9-.9-3.4-1.3-4.3-.2-.3-.3-.5-.4-.7-.1.2-.2.4-.4.7-.4 1-.7 2.5-1 4.4-.1 1.3-.7 2.5-1.6 3.5-.9 1-2 1.6-3.3 1.9-1.9.4-3.4.9-4.3 1.3-.3.2-.5.3-.7.4.2.1.4.2.7.4 1 .4 2.5.7 4.4 1l13.4-.7zm0 0c-1.3.3-2.4.9-3.3 1.9-.9 1-1.4 2.2-1.6 3.5-.2 1.9-.6 3.4-1 4.4-.1.3-.3.6-.4.7-.1-.2-.3-.4-.4-.7-.5-1-1-2.4-1.3-4.3m8-5.5l-8 5.5m.1-.1c-.3-1.3-.9-2.4-1.9-3.3m1.9 3.3l-1.9-3.3m0 0c-1-.9-2.2-1.4-3.5-1.6l3.5 1.6zm-8.9-3.1zm0 .5zM58.7 285zm-.4 0c-.1 0-.1 0 0 0-.1 0-.1 0 0 0zM71 296.7zm0-.5zM59.3 309zm.5 0z"/></svg>