<svg id="Camada_1" xmlns="http://www.w3.org/2000/svg" viewBox="0 0 586 480"><style>.st0{fill:#0084ff;fill-opacity:.3}.st1{fill:#002d54}.st2{fill:#00191d}.st3{fill:#ffd527}.st4,.st5{opacity:.5}.st5{fill:#fff;enable-background:new}.st6,.st7{opacity:.3}.st7{fill:#002d54;enable-background:new}.st8{fill:#00bbfc}.st9{fill:#fff}.st10{fill:none;stroke:#323232;stroke-width:4;stroke-linecap:round;stroke-linejoin:round}.st11,.st12{fill:#371a45}.st12{opacity:.3;enable-background:new}.st13,.st14{opacity:.35}.st14{fill:#371a45;enable-background:new}.st15{fill:#22a7f0}.st16{fill:#220f2d}.st17,.st18{opacity:.7}.st18{fill:#fff;enable-background:new}.st19{fill:#e2e2e2}.st20{fill:#4089ff}.st21,.st22{opacity:.4}.st22{fill:#fff;enable-background:new}.st23{fill:#fcd629}.st24{fill:#a0a0a0}.st25{fill:#ec0411}.st26{fill:#8dd7ff}.st27{fill:none;stroke:#ffd527;stroke-width:3}</style><path class="st0" d="M460.3 400.4c44.6-36.5 73-91.9 73-154 0-109.9-89.1-199-199-199s-199 89.1-199 199c0 62.1 28.5 117.5 73 154 37.1-.7 80.1-1.2 126-1.2s88.9.5 126 1.2z"/><path class="st1" d="M534.1 369c2-4.2-3.6-44.1-42.1-45.8-7.6 0-15.1 1.9-21.8 5.6-6.4-5.7-15-9.6-24.5-10.5-3.5-16.8-20.2-29.5-40.3-29.5-7 0-14 1.6-20.3 4.7-2 1-4.4 1.1-6.5.4l-.4-.1c-2-.6-3.7-1.8-4.8-3.5-7.1-10.9-20.3-18.2-35.6-18.2-16.1 0-30 8.1-36.7 20-6.6-3.6-14-5.4-21.5-5.4-22.6 0-41 16.1-41 36 0 1.1.1 2.1.2 3.1-14 2.8-25.6 11.1-31.7 22.3-8.6-9.1-21.6-15-36.1-15-25.2 0-45.7 17.5-46.8 39.4-1.2-.1-2.4-.2-3.6-.2-16.1 0-29.1 11.5-29.1 25.6 0 .7 0 1.4.1 2.1h503.9c-5.7-17.8-29.4-40.5-61.4-31z"/><ellipse class="st2" cx="312.3" cy="408.9" rx="141.5" ry="16.5"/><g id="Camada_2"><path class="st3" d="M521 182.7c27 0 48.8-21.9 48.8-48.8S548 85.1 521 85.1c-27 0-48.8 21.9-48.8 48.8s21.8 48.8 48.8 48.8z"/><path class="st1" d="M521 185.4c-28.4 0-51.5-23.1-51.5-51.5s23.1-51.5 51.5-51.5 51.5 23.1 51.5 51.5-23.1 51.5-51.5 51.5zm0-97.6c-25.4 0-46.1 20.7-46.1 46.1 0 25.4 20.7 46.1 46.1 46.1 25.4 0 46.1-20.7 46.1-46.1 0-25.4-20.7-46.1-46.1-46.1z"/><g class="st4"><path class="st5" d="M528.3 104.6c-9.3 7-18.6.3-19 0-.5-.3-1.1-.5-1.7-.4-.6.1-1.1.4-1.5.9-.4.5-.5 1.1-.4 1.6.1.6.4 1.1.8 1.5 2.5 1.9 7.2 4 12.5 4 3.7 0 7.8-1 11.7-3.9l17.6-9.6c.4-.2.8-.6 1-1-1.2-.9-2.4-1.8-3.7-2.6l-17.2 9.4c.1 0 0 .1-.1.1z"/></g><g class="st4"><path class="st5" d="M476 138.1c.4-.8.9-1.5 1.4-2.2 3.2-4.4 7.6-7.8 12.8-9.6 5.1-1.8 10.7-2 15.9-.5 8.3 2.3 23.6 5.1 33.6-2.7.5-.4.8-.9.8-1.5.1-.6-.1-1.2-.5-1.7s-.9-.8-1.5-.8c-.6-.1-1.2.1-1.7.5-8.4 6.6-22.2 4.1-29.6 2-5.8-1.6-12-1.5-17.8.3-5.8 1.8-10.9 5.3-14.7 10.1 0 .7-.1 1.4-.1 2.1 0 1.7.1 3.4.3 5.1.6-.4.9-.7 1.1-1.1z"/></g><g class="st4"><path class="st5" d="M545.4 157.8c-2.5-.4-4.8-.4-6.9-.1-9.3 1.3-13 7.4-13.2 7.6-.3.5-.4 1.1-.2 1.7.1.6.5 1.1 1 1.4.5.3 1.1.4 1.7.3s1.1-.5 1.4-1c0 0 2.9-4.5 9.9-5.5 1.7-.2 3.5-.2 5.6.1 3.4.5 6.7 1.6 9.8 3.2 1-1.1 2-2.3 3-3.5-3.7-2.1-7.8-3.5-12.1-4.2z"/></g><g class="st6"><path class="st7" d="M492.8 174.4c7 3.7 14.8 5.6 22.8 5.6 27 0 48.8-21.9 48.8-48.8 0-11.4-4-22.5-11.3-31.2-.2 7.2-3.7 65.3-69 67 4.2 4.5 9.1 8.2 14.6 10.9-2-1.1-4-2.2-5.9-3.5z"/></g><g class="st4"><path class="st5" d="M521 87.8c-8.1 0-16 2.1-23 6.2-6.3 3.6-11.7 8.7-15.6 14.8-4.9 7.5-7.5 16.2-7.5 25.2 0 15.6 7.8 29.3 19.6 37.7-8.2-7.5-13.5-17.7-14.8-28.8-1.3-11.1 1.5-22.2 7.8-31.4 2.4-.5 5.3-2.1 7.9-4.7 2.5-2.5 4.1-5.3 4.6-7.7 7.7-5.1 16.8-7.8 26.1-7.7 9.3.1 18.3 3.1 25.9 8.4-8.5-7.7-19.5-12-31-12z"/></g><path class="st1" d="M518.3 109.6c-5.4 0-10.1-2.2-12.5-4-.5-.4-.8-.9-.9-1.5s.1-1.2.4-1.7c.4-.5.9-.8 1.5-.9.6-.1 1.2.1 1.7.4.4.3 9.7 7 19 0 .1-.1.2-.1.3-.2l17.8-9.7c.5-.3 1.1-.3 1.7-.2s1.1.6 1.3 1.1c.3.5.3 1.1.2 1.7-.2.6-.6 1.1-1.1 1.3l-17.6 9.6c-4 3-8.1 4.1-11.8 4.1zM473.1 136.6c-.4 0-.8-.1-1.1-.3-.3-.2-.6-.5-.8-.8-.2-.3-.3-.7-.3-1.1 0-.4.1-.8.2-1.1.5-1 1.1-1.9 1.7-2.8 3.7-5.2 8.9-9.1 14.9-11.2 6-2.1 12.5-2.3 18.7-.6 7.4 2.1 21.2 4.7 29.6-2 .5-.4 1.1-.5 1.6-.4.6.1 1.1.4 1.5.8.4.5.5 1 .5 1.6-.1.6-.4 1.1-.8 1.5-10 7.8-25.4 5.1-33.6 2.7-5.2-1.5-10.8-1.3-15.9.5s-9.6 5.2-12.8 9.6c-.5.7-1 1.5-1.4 2.2-.2.4-.5.7-.8.9-.3.4-.7.5-1.2.5zM559.3 166c-.5 0-1-.2-1.4-.5-5.1-4.1-11-5.5-14-6-2.1-.3-3.9-.4-5.6-.1-7.1 1-9.9 5.4-9.9 5.5-.1.3-.3.5-.6.7-.2.2-.5.3-.8.4-.3.1-.6.1-.9.1-.3 0-.6-.1-.8-.3-.3-.2-.5-.4-.7-.6-.2-.2-.3-.5-.4-.8-.1-.3-.1-.6 0-.9s.2-.6.3-.8c.2-.3 3.9-6.3 13.2-7.6 2.1-.3 4.4-.3 6.9.1 3.5.5 10.2 2.2 16.1 6.9.4.3.6.7.8 1.1.1.4.1.9 0 1.4-.2.4-.4.8-.8 1.1-.5.2-.9.3-1.4.3z"/><path class="st1" d="M460.6 156.9c-1.4 0-2.7-.4-3.9-1.2-1.2-.8-2.1-1.9-2.6-3.1s-.7-2.7-.5-4.1.9-2.6 1.8-3.6c4.7-5 13.8-9.5 14.2-9.7.7-.4 1.6-.4 2.4-.1.8.3 1.4.8 1.8 1.6.4.7.4 1.6.2 2.4-.3.8-.8 1.4-1.6 1.8-.1 0-8.5 4.2-12.4 8.4-.1.1-.2.3-.2.5s0 .3.1.5.2.3.4.4c.2.1.3.1.5.1 14.5-2.2 88.2-14.2 117.6-36.7.2-.1.4-.3.4-.6.1-.2.1-.5 0-.7-.1-.2-.2-.4-.4-.6-.2-.1-.4-.2-.7-.2-3.5-.1-7.7.3-12.4 1.3-.8.2-1.7 0-2.4-.4-.7-.5-1.2-1.2-1.4-2-.2-.8 0-1.7.4-2.4.5-.7 1.2-1.2 2-1.4 5.2-1.1 9.9-1.6 14-1.4 1.5 0 3 .6 4.3 1.5 1.2.9 2.1 2.2 2.6 3.7s.5 3 0 4.5-1.4 2.8-2.6 3.7c-29.9 22.8-99.8 34.8-120.5 37.9-.4-.2-.8-.1-1.1-.1z"/><path class="st8" d="M509.8 156.6c5.8-2.4 8.6-9.1 6.2-14.9-2.4-5.8-9.1-8.6-14.9-6.2-5.8 2.4-8.6 9.1-6.2 14.9 2.4 5.9 9.1 8.6 14.9 6.2z"/><path class="st1" d="M505.4 159.7c-2.7 0-5.3-.8-7.6-2.3-2.2-1.5-4-3.6-5-6.1-1-2.5-1.3-5.2-.8-7.9.5-2.6 1.8-5.1 3.7-7 1.9-1.9 4.3-3.2 7-3.7 2.6-.5 5.4-.3 7.9.8 2.5 1 4.6 2.8 6.1 5s2.3 4.9 2.3 7.6c0 3.6-1.4 7.1-4 9.6-2.5 2.6-6 4-9.6 4zm0-22.7c-1.8 0-3.6.5-5.1 1.5-1.5 1-2.7 2.4-3.4 4.1-.7 1.7-.9 3.5-.5 5.3.4 1.8 1.2 3.4 2.5 4.7 1.3 1.3 2.9 2.1 4.7 2.5 1.8.4 3.6.2 5.3-.5 1.7-.7 3.1-1.9 4.1-3.4 1-1.5 1.5-3.3 1.5-5.1 0-2.4-1-4.7-2.7-6.4-1.7-1.7-4-2.7-6.4-2.7z"/><g class="st4"><path class="st5" d="M499 147.9c0-1.5.4-3 1.1-4.3.7-1.3 1.8-2.5 3-3.3 1.3-.8 2.7-1.3 4.2-1.5s3 .1 4.4.7c-1-.9-2.1-1.6-3.4-2.1-1.3-.4-2.6-.6-3.9-.4-1.3.1-2.6.6-3.7 1.3-1.1.7-2.1 1.6-2.8 2.7-.7 1.1-1.2 2.4-1.4 3.7s-.1 2.7.3 3.9c.4 1.3 1 2.5 1.9 3.5.9 1 2 1.8 3.2 2.3-.9-.8-1.6-1.9-2.1-3s-.8-2.3-.8-3.5z"/></g><g class="st6"><path class="st7" d="M511.5 137.3s.9 14.4-14.4 16.2c0 0 11.7 7.2 19.8-2.7 0 0 1.8-10.8-5.4-13.5z"/></g></g><g id="Camada_3"><path class="st9" d="M195.7 149.9c5.7-6.6 9-14.9 9.4-23.5 1.1-21.8-15.8-40.4-37.8-41.5-22-1.1-40.8 15.7-42 37.5-1.1 21.8 15.8 40.4 37.8 41.5 5.9.3 11.8-.7 17.3-3l17.6 6.8-2.3-17.8z"/><path class="st10" d="M154.9 118.6l-1.2-5.2h-3.4M158 132.9l-3.1-14.4H177c1.1 0 1.9 1 1.7 2.1l-2.6 12.3c-.2.8-.9 1.4-1.7 1.4h-14.7c-.9 0-1.6-.6-1.7-1.4zM175 140.6c-.4 0-.7.3-.7.7 0 .4.3.7.7.7.4 0 .7-.3.7-.7 0-.4-.3-.7-.7-.7M159.9 140.6c-.4 0-.7.3-.7.7 0 .4.3.7.7.7.4 0 .7-.3.7-.7 0-.4-.3-.7-.7-.7"/><g class="st4"><path class="st5" d="M166.9 92c20.7 1.1 36.9 17.6 38 37.8.2-1.4.4-2.8.5-4.3 1.1-22.1-15.9-41-38-42.1-22.1-1.1-41 15.9-42.1 38-.1 1.4-.1 2.9 0 4.3 3.1-20 20.9-34.8 41.6-33.7z"/></g><path class="st11" d="M198.6 170.8c.4 0 .8-.1 1.1-.3.4-.2.7-.4.9-.7.3-.3.4-.7.5-1.1.1-.4.1-.8.1-1.2l-2.2-16.7c6.4-8.1 9.6-18.2 9.1-28.5s-4.7-20.1-11.9-27.5c-7.1-7.4-16.7-12-27-12.9-10.3-.9-20.5 2-28.8 8.1s-14.1 15-16.4 25.1-.8 20.6 4.2 29.7c4.9 9.1 13 16 22.6 19.6 9.7 3.6 20.3 3.5 29.9-.1l16.4 6.5h1.5zm-35.4-83.3c1.5-.1 2.9-.1 4.4 0 6.8.4 13.4 2.6 19.1 6.5s10.1 9.3 12.8 15.6c2.7 6.3 3.6 13.2 2.6 20-1 6.8-3.9 13.2-8.3 18.4-.3.3-.5.7-.6 1.1-.1.4-.1.8-.1 1.2l1.7 13.1-12.9-5.1c-.7-.3-1.5-.3-2.2 0-5 2.1-10.5 3-15.9 2.7-20.2-1-35.9-18.4-34.8-38.7.9-18.8 15.9-33.6 34.2-34.8z"/><g class="st6"><path class="st12" d="M196.2 149.9c-12.3 7.5-27.9 9.2-42.1 3.2-15.8-6.6-26-21.1-28-37-.4 2-.7 4.1-.8 6.2-1.1 22.1 15.9 41 38 42.1 5.9.3 11.9-.7 17.4-3l17.7 7-2.4-18.1c0-.2.1-.3.2-.4z"/></g></g><path class="st9" d="M321.8 244.8s-9.1 22.3-31.7 24.9c0 0-.7 23.9 17.2 27.5 9.6 1.9 20.9 2.7 26.9-5.9 6-8.5-12.4-46.5-12.4-46.5z"/><g class="st13"><path class="st14" d="M307.3 297.2c9.6 1.9 20.9 2.7 26.9-5.9 1.8-2.5 1.4-7.6.1-13.5l-.1.1c-6 8.6-17.2 7.8-26.9 5.9-8.7-1.7-13-8.2-15.1-14.5l-2.1.3c0 .1-.8 24 17.2 27.6z"/></g><path class="st11" d="M318 300.2c6.6 0 13.3-1.7 17.5-7.9 2.9-4.1 1.7-13.3-3.7-28.1-3.8-10.5-8.4-20.1-8.5-20.2l-1.7-3.5-1.5 3.6c-.1.3-9.1 21.4-30.3 23.9l-1.5.2v1.5c0 .3-.2 6.3 1.9 13 2.9 9 8.6 14.7 16.6 16.3 3.5.6 7.3 1.2 11.2 1.2zm3.8-51.4c6.7 14.6 14.6 36.4 10.9 41.6-5.6 7.9-16.3 6.9-25.1 5.2-13.8-2.8-15.6-19.3-15.8-24.3 17.2-2.8 26.5-16.2 30-22.5z"/><path class="st9" d="M361.5 396.3c-7.5 17.3-39.4 14.4-47.4 7.3-8.3-7.3 6.7-16.5 6.7-16.5-6.7-11.3-6.9-32.9-6.2-46.7.4-7.6 1-12.9 1-12.9l47-25.5c0 9.6-1.6 17.8-3.1 24.3-3.1 13.9-2.9 24.7-1.6 33.4 2.3 16.4 8.2 25.9 3.6 36.6z"/><g class="st13"><path class="st14" d="M361.5 396.3c-7.5 17.3-39.4 14.4-47.4 7.3-2.6-2.3-2.9-4.8-2.1-7.1 10.9 6.4 38.6 11.3 44-5.1 2.6-8-2.5-13.5-5.3-24.3-1.2-4.5-4.8-8.1-9.3-9.3-9.7-2.5-21.5-7.7-26.4-16.9l-.3-.6c.4-7.6 1-12.9 1-12.9l42.1-22.8 4.9-2.7c0 9.6-1.6 17.8-3.1 24.3l-.6 3c-.2 1-.4 2-.5 2.9-.1.5-.2.9-.2 1.4-.2 1.4-.4 2.8-.5 4.1-.1.4-.1.9-.1 1.3-.1.8-.2 1.7-.2 2.5-.2 2.5-.2 4.9-.2 7.2v2.2c0 .7.1 1.3.1 2 0 .5.1.9.1 1.4 0 .3.1.6.1.9 0 .3 0 .5.1.8 0 .2 0 .5.1.7.1 1 .2 2 .4 3 2 16.5 7.9 26 3.3 36.7z"/></g><path class="st11" d="M335.2 410.9c3.4 0 6.8-.3 10.1-1.1 8.8-2 14.9-6.4 17.7-12.9 3.4-7.8 1.6-14.7-.5-23.6-2.7-11-6.1-24.7-1.3-46.7 1.6-7.3 3.1-15.3 3.1-24.7 0-.5-.2-.9-.5-1.2s-.8-.5-1.2-.5c-.5 0-.9.2-1.2.5-.3.3-.5.8-.5 1.2 0 9-1.5 16.9-3 24-5 22.8-1.5 36.9 1.3 48.3 2.1 8.5 3.6 14.7.7 21.4-2.9 6.8-9.9 9.7-15.3 10.9-11.3 2.5-24.8-.1-29.4-4.2-1.4-1.2-2-2.5-1.9-4 .3-4 6.1-8.4 8.3-9.7l1.4-.9-.9-1.5c-9.9-16.8-4.9-58.1-4.9-58.5 0-.4-.1-.9-.4-1.3-.3-.4-.7-.6-1.1-.6-.4-.1-.9.1-1.3.3-.4.3-.6.7-.7 1.1-.2 1.7-4.9 40.8 4.6 59.3-2.7 1.9-8.1 6.3-8.6 11.4-.2 1.8.2 4.4 3 6.9 4 3.5 13 6.1 22.5 6.1z"/><path class="st11" d="M348.5 373.7c7.4 0 12.9-.6 13.4-.6.3 0 .7-.2.9-.5.2-.3.3-.6.3-.9 0-.3-.2-.7-.5-.9-.3-.2-.6-.3-.9-.3-.3 0-30.3 3.2-46-5.6-.3-.2-.6-.2-1-.1-.3.1-.6.3-.8.6-.2.3-.2.6-.1 1 .1.3.3.6.6.8 9.6 5.4 23.7 6.5 34.1 6.5zM344 387.6c-.7-.8-1.6-1.4-2.5-1.9-.5-.3-.9-.5-1.4-.7-.5-.2-1-.4-1.5-.5-2-.6-4.1-1-6.2-1.2-2.1-.2-4.3-.1-6.4.3-2.1.3-4.1 1.1-6.1 2-.4.2-.7.5-.9.9-.2.4-.1.9 0 1.3.2.4.5.7.9.9.4.2.9.2 1.3 0h.1c1.7-.7 3.5-1.4 5.3-1.8.9-.2 1.8-.3 2.8-.5.5 0 .9-.1 1.4-.1.5 0 .9-.1 1.4-.1 1.9 0 3.8.1 5.7.5 1.9.4 3.8.8 5.8 1.1h.1s.1 0 .1-.1c.1 0 .1 0 .1-.1z"/><path class="st9" d="M426.7 328.9c-9.3 12.1-33.4 7.9-33.4 7.9L393 255v-16.5s13.8.4 24.3 4.7c5 2.1 9.3 5.1 10.9 9.4 5.5 15.1 6.1 66.3-1.5 76.3z"/><g class="st13"><path class="st14" d="M432.3 286.7c.3 17.9-1.4 36.6-5.7 42.1-9.3 12.1-33.4 7.9-33.4 7.9l-.3-98.2h.7l.2 76.6s24.2 4.2 33.4-7.9c2.7-3.2 4.3-11 5.1-20.5z"/></g><path class="st11" d="M402.7 339.2c8.2 0 19.4-1.6 25.3-9.3 5.3-6.9 6-28.3 6-37.3.1-17-1.6-33.4-4.3-40.6-5.3-14.2-35.5-15.2-36.7-15.2-.2 0-.5 0-.7.1-.2.1-.4.2-.6.4-.2.2-.3.3-.4.6-.1.2-.1.4-.2.7 0 .2 0 .5.1.7.1.2.2.4.4.6.2.2.4.3.6.4s.4.1.7.1c.3 0 29.1.9 33.6 13 5.7 15.2 5.8 65.4-1.2 74.6-8.5 11.1-31.5 7.3-31.8 7.3h-.7c-.2.1-.4.1-.6.3-.2.1-.3.3-.5.5-.1.2-.2.4-.2.6v.7c.1.2.1.4.3.6.1.2.3.3.5.5.2.1.4.2.6.2.5-.1 4.5.5 9.8.5z"/><path class="st9" d="M430.6 294.3l-16.5 1.2c-.7.1-1.4.3-1.9.8s-.9 1.1-1 1.8c-1 5.3-2.5 17.7 2.6 21.8 4.3 3.4 11.3 3 15.3-.5 4.6-3.9 5-16 4.9-22 0-.4-.1-.9-.3-1.3-.2-.4-.4-.8-.8-1.1-.3-.3-.7-.5-1.1-.7-.4 0-.8-.1-1.2 0z"/><g class="st13"><path class="st14" d="M411.2 298.2c-1 5.3-2.5 17.7 2.6 21.8 4.3 3.4 11.2 3 15.3-.5 2.8-2.4 4.1-7.9 4.6-13.2-.7 2.6-1.9 4.8-3.4 6.2-8.3 8.1-14.5-1.4-14.5-1.4s-1.1 2.3-1.9 2.4c-3.6.5-2.8-10.7-2.3-16.5-.2.4-.4.8-.4 1.2z"/></g><path class="st11" d="M421 324c3.3 0 6.7-1.1 9.2-3.2 4.8-4 5.6-14.9 5.5-23.4 0-.7-.2-1.3-.4-2-.3-.6-.7-1.2-1.2-1.6-.5-.5-1.1-.8-1.7-1-.6-.2-1.3-.3-2-.3l-16.5 1.2c-1.1.1-2.1.5-2.9 1.3-.8.7-1.4 1.7-1.6 2.8-1.2 6.8-2.5 18.9 3.3 23.4 2.3 1.9 5.3 2.8 8.3 2.8zm9.8-28c.4 0 .8.2 1.1.4.3.3.4.7.4 1.1.1 10.5-1.5 18.3-4.3 20.7-3.6 3-9.6 3.2-13.1.4-3.1-2.4-3.8-10-2-20.1.1-.3.2-.6.5-.9.2-.2.6-.4.9-.4l16.5-1.2c-.1 0 0 0 0 0z"/><path class="st11" d="M416.5 301.4c-.3 2-.7 4-.8 6-.2 2.1-.1 4.2.3 6.2.4 2.1 1.1 4.3 2.6 6.1.7.9 1.6 1.7 2.6 2.3 1 .6 2.1 1 3.2 1.3.4.1.8 0 1.2-.2.4-.2.6-.5.7-.9.1-.4.1-.8-.1-1.2-.2-.4-.5-.6-.9-.8-1.6-.5-3.1-1.4-4.1-2.6-1.1-1.2-1.8-2.9-2.3-4.7-.5-1.8-.8-3.7-1.1-5.6-.1-.5-.1-1-.2-1.5s-.1-1-.2-1.5c-.5-.9-.7-1.9-.9-2.9zM420.8 251.2c-1.6-.6-3.2-.7-4.7-.7-1.6 0-3.1.1-4.7.2s-3.1.3-4.7.6c-1.6.2-3.1.6-4.6 1-.4.1-.8.4-1 .7-.2.4-.3.8-.2 1.2.1.4.4.8.7 1 .4.2.8.3 1.2.2l4.5-1 2.2-.5 2.3-.4c1.5-.3 3-.6 4.5-.8 1.5-.2 3-.5 4.6-1.2v-.1c0-.1 0-.1-.1-.2.1.1.1 0 0 0z"/><g class="st13"><path class="st14" d="M414.3 243.2c-7.2 5.5-15.4 9.5-24.2 11.8v-16.5s13.7.4 24.2 4.7z"/></g><g class="st13"><path class="st14" d="M355.6 326.6c-.2.9-.3 1.9-.5 2.8.1-.9.3-1.9.5-2.8z"/></g><path class="st9" d="M313.9 331.1c6.6 12.3 26.5 17.1 34.8 17.7 1.9.1 3.7.2 5.4.2 9.2-.1 18.4-2.1 26.8-5.8 8.1-3.6 14.9-9.5 19.3-17.1 1.4-2.4 2.6-4.9 3.5-7.6 0-.1.1-.3.1-.4 1.5-4.4 2.3-10 2.5-16.6.3-12.9-1.8-29.5-6.6-48.4-.7-2.8-1.5-5.6-2.3-8.5-2.4-8.5-5.4-17.4-8.8-26.5l-64.4-3.5c-2.9 15.2-5.4 29.1-7.3 41.7-.4 2.3-.7 4.6-1 6.8-5.3 36-6.4 59.7-2 68z"/><g class="st13"><path class="st14" d="M403.8 318.3c-4 11.4-12.2 20-22.9 24.7-4.2 1.8-16.3 6.8-32.3 5.7-8.3-.6-28.2-5.3-34.8-17.7-2-3.8-2.9-11-2.7-21.2.2 6 1 10.4 2.7 13 6.6 10.1 26.5 14 34.8 14.5 16 .9 28.1-3.1 32.3-4.7 10.7-3.9 18.9-11 22.9-20.3 1.7-3.9 2.6-9 2.6-15.2.2 8.8-.8 16-2.6 21.2z"/></g><g class="st13"><path class="st14" d="M313 285.5c-1.1 9.4-1.7 17.6-1.8 24.4-.2-6.3.4-14.5 1.8-24.4z"/></g><g class="st13"><path class="st14" d="M406.4 297.2c0-3.7-.3-7.6-.7-11.7.6 4.2.8 8.2.7 11.7z"/></g><path class="st11" d="M353.4 350.6c9.7 0 19.3-2.1 28.2-6 11.3-5 19.7-14.1 23.8-25.7 6.8-19.3.7-60.1-15.1-101.6-.1-.2-.2-.4-.4-.6-.2-.2-.3-.3-.6-.4-.2-.1-.4-.1-.7-.2-.2 0-.5 0-.7.1-.2.1-.4.2-.6.4-.2.2-.3.3-.4.6-.1.2-.1.4-.1.7 0 .2 0 .5.1.7 18 47.1 20.5 83.8 15.1 99.2-3.8 10.7-11.6 19.1-22 23.7-9.9 4.4-20.6 6.3-31.4 5.5l-8.4-1.4c-5.5-1.3-15.5-4.4-21.7-10.9-1.3-1.3-2.4-2.8-3.3-4.5-5.6-10.5-2-49.3 10.6-115.5v-.7c0-.2-.1-.4-.3-.6-.1-.2-.3-.4-.5-.5l-.6-.3h-.7c-.2 0-.4.1-.6.3-.2.1-.3.3-.5.5-.1.2-.2.4-.2.6-13 67.9-16.3 106.4-10.3 117.8 1 1.9 2.3 3.7 3.9 5.2 6.9 7.1 17.7 10.5 23.5 11.9h.1l8.7 1.4c1.9.3 3.5.3 5.1.3z"/><path class="st9" d="M352.5 339.3s-7.1 35.6 7.7 53c0 0-14.9 9.1-6.7 16.5 8 7.1 40 10 47.4-7.3 7.1-16.5-10.6-30.1-1.9-69.9 1.4-6.6 3-14.7 3.1-24.3l-49.6 32z"/><g class="st13"><path class="st14" d="M399 331.6c-8.7 39.8 9 53.4 1.9 69.9-7.5 17.3-39.4 14.4-47.4 7.3-2.2-1.9-2.7-4-2.4-5.9 10.8 5.7 38 6.7 44.8-9.1 2.5-5.7-12.4-16.7-12.5-29.1-.1-10.4 2.8-20.9 5.9-29.1 2.4-6.6-2.2-13.6-9.2-14h-.2c-4.4-.2-8.7-.8-13-1.7 0 0-7.5-9.5.9-14.9 0 0 25.5 3.5 38.7-3.7-.2 7-1.1 13-2.6 17.6-.8.2-1.6.5-2.6.7-.7 4.5-1.5 8.5-2.3 12z"/></g><path class="st11" d="M352 339.3c-.9 2.2-1.4 4.5-1.9 6.8-.4 2.3-.7 4.6-.9 6.9-.4 4.7-.3 9.4.2 14 .1 1.2.3 2.3.4 3.5.2 1.2.4 2.3.6 3.5.5 2.3 1 4.6 1.7 6.9.8 2.3 1.6 4.5 2.7 6.6 1.1 2.1 2.5 4.2 4 6l.4-2.6c-.8.5-1.6 1-2.3 1.6-.7.6-1.5 1.2-2.1 1.8-1.4 1.3-2.7 2.6-3.8 4.3-.6.9-1 1.8-1.3 2.8-.4 1.1-.5 2.2-.4 3.3.1 1.1.5 2.2 1.1 3.2.3.5.6.9 1 1.3l.6.6c.2.2.4.4.6.5 1.6 1.3 3.3 2.2 5.1 2.9 1.7.7 3.5 1.2 5.3 1.7 3.6.8 7.2 1.2 10.9 1.3 1.8 0 3.7 0 5.5-.2 1.8-.2 3.6-.4 5.4-.8 3.6-.8 7.2-2.1 10.3-4.2 1.6-1.1 3.1-2.3 4.3-3.8 1.3-1.5 2.3-3.1 3.1-4.9 1.5-3.5 2.1-7.5 1.8-11.2-.3-3.7-1.1-7.3-1.9-10.7-.8-3.4-1.7-6.8-2.4-10.3-1.4-6.8-2-13.7-1.6-20.7.2-3.5.5-6.9 1-10.4.5-3.4 1.3-6.8 2-10.3.7-3.5 1.5-7 1.8-10.6.3-3.6.3-7.2-.6-10.8 0-.1-.1-.2-.2-.3-.1-.1-.2-.1-.4-.1-.1 0-.3 0-.4.1-.1.1-.2.2-.2.3-1 3.5-1.4 6.9-1.9 10.4s-.9 6.9-1.6 10.3c-.7 3.4-1.5 7-2 10.5-.5 3.6-.9 7.1-1.1 10.7-.2 3.6-.1 7.2.2 10.8.3 3.6.8 7.2 1.5 10.7.7 3.5 1.6 7 2.4 10.4.8 3.4 1.6 6.8 1.9 10.1.3 3.3-.2 6.6-1.5 9.6-.6 1.5-1.5 2.8-2.5 4-1.1 1.2-2.3 2.3-3.6 3.2-2.7 1.8-5.9 3-9.2 3.7-1.6.4-3.3.6-5 .8-1.7.1-3.4.2-5.1.2-3.4-.1-6.8-.5-10.1-1.2-1.6-.4-3.2-.9-4.8-1.5-1.5-.6-3-1.4-4.1-2.3-1.2-1-1.9-2.1-2.1-3.3-.1-1.2.4-2.6 1.2-3.9.8-1.3 2-2.5 3.2-3.6.6-.6 1.3-1.1 1.9-1.6s1.4-1 2-1.4l1.7-1.1-1.3-1.5c-1.4-1.7-2.6-3.5-3.6-5.4-1-1.9-1.8-4-2.5-6.1-.7-2.1-1.2-4.3-1.6-6.5-.4-2.2-.7-4.4-.8-6.7-.3-4.5-.3-9-.2-13.5.2-4.5.4-9 .3-13.6 0-.1 0-.3-.1-.4-.1-.1-.2-.2-.3-.2-.1 0-.3 0-.4.1-.2.1-.3.2-.3.3z"/><path class="st11" d="M374.6 375.2c12.9 0 23.4-3.3 24.1-3.5.3-.1.6-.3.8-.6.2-.3.2-.7.1-1-.1-.3-.3-.6-.6-.8-.3-.2-.7-.2-1-.1-.3.1-26.2 8.1-45.9-1.1-.2-.1-.3-.1-.5-.1s-.3 0-.5.1-.3.1-.4.3c-.1.1-.2.3-.3.4-.1.2-.1.3-.1.5s0 .3.1.5.1.3.3.4c.1.1.3.2.4.3 7.4 3.5 15.9 4.7 23.5 4.7z"/><path class="st9" d="M306.4 305.5c-3.1-3.1-3.1-8.2 0-11.3 3.1-3.1 8.2-3.1 11.3 0 3.1 3.1 3.1 8.2 0 11.3-3.1 3.1-8.2 3.1-11.3 0z"/><g class="st13"><path class="st14" d="M304.1 300c0 1.1.2 2.1.7 3.1.4 1 1 1.8 1.8 2.6.8.7 1.7 1.3 2.7 1.7 1 .4 2 .6 3.1.5 1.1 0 2.1-.3 3.1-.7 1-.4 1.8-1.1 2.6-1.8.7-.8 1.3-1.7 1.7-2.7s.5-2 .5-3.1c0-1.2-.3-2.3-.9-3.4-.6 1.4-1.6 2.6-2.9 3.4-1.3.8-2.7 1.3-4.3 1.4-1.5 0-3-.4-4.3-1.1-1.3-.8-2.4-1.9-3-3.3-.6 1.1-.9 2.3-.8 3.4z"/></g><path class="st11" d="M312.1 309.6h.3c1.9 0 3.8-.7 5.4-1.8 1.6-1.1 2.8-2.7 3.5-4.5.7-1.8.8-3.8.4-5.6-.4-1.9-1.4-3.6-2.8-4.9-1.4-1.3-3.2-2.2-5.1-2.5-1.9-.3-3.9-.1-5.6.7-1.8.8-3.2 2.1-4.3 3.7-1 1.6-1.5 3.5-1.5 5.5h1.7-1.7c.1 2.5 1.1 4.9 2.9 6.7 1.8 1.7 4.2 2.7 6.8 2.7zm0-16.1c1.2 0 2.4.4 3.5 1.1 1 .7 1.8 1.7 2.3 2.8.5 1.1.6 2.4.4 3.6-.2 1.2-.8 2.3-1.7 3.2-.9.9-2 1.5-3.2 1.8-1.2.3-2.5.2-3.6-.3-1.2-.5-2.1-1.2-2.9-2.2-.7-1-1.1-2.2-1.1-3.4 0-1.7.6-3.3 1.7-4.5 1.1-1.2 2.7-1.9 4.4-2l.2-.1z"/><g class="st13"><path class="st14" d="M311.7 307.2c1.2-8.2 1.7-16.5 1.2-24.8-.2 4.5-.6 9-1.3 13.5-.8 5.5-1.1 11.2-.6 16.9.2-1.9.4-3.8.7-5.6z"/></g><path class="st9" d="M319.4 322.7l41.8 2.2c5 .3 9.2-3.6 9.5-8.5l1.1-22.3c.2-4.3-2.7-8.1-6.8-9.2-.6-.2-1.2-.2-1.8-.3l-41.8-2.2c-5-.3-9.2 3.6-9.5 8.5l-.9 17.6-.2 4.6c-.2 5.1 3.7 9.3 8.6 9.6z"/><g class="st13"><path class="st14" d="M319.4 322.7l41.8 2.2c5 .3 9.2-3.6 9.5-8.5l1.1-22.3c.2-4.3-2.7-8.1-6.8-9.2l-4 2.4c-3 17.8-8.5 26.4-30.7 25.6-9.6-.3-15.6-2.1-19.3-4.3l-.2 4.6c-.2 5 3.7 9.2 8.6 9.5z"/></g><path class="st11" d="M361.7 326.6c2.8 0 5.4-1.1 7.4-3s3.2-4.5 3.3-7.2l1.1-22.3c.1-2.8-.8-5.6-2.8-7.7-1.9-2.1-4.6-3.4-7.4-3.5l-41.8-2.2c-5.9-.3-11 4.3-11.3 10.2l-1.1 22.3c-.1 2.8.8 5.6 2.8 7.7 1.9 2.1 4.6 3.4 7.4 3.5l41.8 2.2h.6zM321 284.1h.4l41.8 2.2c1.9.1 3.7 1 5 2.4 1.3 1.4 2 3.3 1.9 5.3l-1.1 22.3c-.1 1.9-1 3.7-2.4 5-1.4 1.3-3.3 2-5.3 1.9l-41.8-2.2c-1.9-.1-3.7-1-5-2.4-1.3-1.4-2-3.3-1.9-5.3l1.1-22.3c.1-1.9.9-3.6 2.3-4.9 1.4-1.3 3.2-2 5-2z"/><path class="st9" d="M317.8 322.4c.5.1 1.1.2 1.7.3l41.8 2.2c1.7.1 3.4-.3 5-1.2 1.5-.9 2.7-2.1 3.5-3.7.6-1.1.9-2.4 1-3.7l.5-9.9.2-3.3.5-9.1c.3-5-3.6-9.2-8.5-9.5l-9-.5c2 .5 3.8 1.7 5.1 3.4 1.3 1.7 1.9 3.8 1.8 5.8l-.6 12-.5 10.2c-.3 5-4.5 8.8-9.5 8.5l-33-1.5z"/><g class="st13"><path class="st14" d="M317.8 322.4c.5.1 1.1.2 1.7.2l41.8 2.2c2.4.1 4.7-.7 6.5-2.3 1.8-1.6 2.8-3.8 3-6.2l.7-13.2c-1.2 2.3-3.2 5-6.3 5.2-1.7.1-3.2-1.2-4.6-3l-.5 10.2c-.3 5-4.5 8.8-9.5 8.5l-32.8-1.6z"/></g><path class="st11" d="M361.8 326.6c2.8 0 5.4-1.1 7.4-3s3.2-4.5 3.3-7.2l1.1-22.3c.1-2.8-.9-5.6-2.8-7.7-1.9-2.1-4.6-3.4-7.4-3.5l-9-.5-.5 3.4c1.7.4 3.1 1.4 4.1 2.7 1 1.4 1.5 3 1.4 4.7l-1.2 22.3c-.1 1.9-1 3.7-2.4 5-1.4 1.3-3.3 2-5.3 1.9l-32.8-1.7-.5 3.4c.7.2 1.3.3 2 .3l41.8 2.2h.8zm-1.2-40.5l2.7.1c1.9.1 3.7 1 5 2.4 1.3 1.4 2 3.3 1.9 5.3l-1.1 22.3c-.1 1.9-1 3.7-2.4 5-1.4 1.3-3.3 2-5.3 1.9l-3-.2c2-1.9 3.3-4.5 3.4-7.3l1.1-22.3c.2-2.6-.7-5.1-2.3-7.2z"/><path class="st15" d="M344.1 303.8c0 .8.8 7.5.8 7.5l4.7.2c3.2.1 6-3.1 6.2-7.2.2-4.1-2.3-7.6-5.5-7.7l-4.7-.2c0-.1-1.4 6-1.5 7.4z"/><g class="st13"><path class="st14" d="M344.1 303.8c0 .8.8 7.5.8 7.5l4.7.2c3.2.1 6-3.1 6.2-7.2.2-4.1-2.3-7.6-5.5-7.7l-4.7-.2c0-.1-1.4 6-1.5 7.4z"/></g><path class="st11" d="M349.8 312.8c3.8 0 7.1-3.7 7.3-8.4.1-2.3-.5-4.5-1.7-6.2-1.3-1.8-3.1-2.8-5-2.9l-3.3-.1c-.7 0-1.4.2-2 .6-.6.4-1 1-1.1 1.7-.8 3.4-1.2 5.5-1.2 6.3 0 .2 0 .8.6 6.3.1.7.4 1.4.9 1.8.5.5 1.2.8 1.9.8l3.3.1h.3zm-2.8-15.1l3.3.1c1.2.1 2.2.7 3 1.8.9 1.2 1.3 2.8 1.2 4.6-.2 3.4-2.3 6.1-4.8 6l-3.3-.1c-.1 0-.2 0-.3-.1-.1-.1-.1-.2-.1-.2-.6-5-.6-5.8-.6-5.9 0-.2.1-1.3 1.1-5.8 0-.1.1-.2.1-.2.2-.2.3-.2.4-.2z"/><path class="st15" d="M344.9 311.3c-3.2-.1-5.7-3.6-5.5-7.7.2-4.1 3-7.4 6.2-7.2 3.2.1 5.7 3.6 5.5 7.7-.1 4.1-2.9 7.3-6.2 7.2z"/><path class="st11" d="M345.1 312.6c3.8 0 7.1-3.7 7.3-8.4.1-2.3-.5-4.5-1.7-6.2-1.3-1.8-3.1-2.8-5-2.9-2-.1-3.8.8-5.3 2.4-1.4 1.6-2.2 3.7-2.3 6-.1 2.3.5 4.5 1.7 6.2 1.3 1.8 3.1 2.8 5 2.9h.3zm.3-15h.2c1.2.1 2.2.7 3 1.8.9 1.2 1.3 2.8 1.2 4.6-.2 3.4-2.3 6.1-4.8 6-1.2-.1-2.2-.7-3-1.8-.9-1.2-1.3-2.8-1.2-4.6.1-1.7.7-3.3 1.6-4.4.8-1 1.9-1.6 3-1.6zM332.4 324.5c.3 0 .7-.1.9-.4.2-.2.4-.6.4-.9l.4-16.2-6.9-4.9.9-19.5c0-.3-.1-.7-.3-.9-.2-.3-.5-.4-.9-.4-.3 0-.7.1-.9.3-.3.2-.4.5-.4.9l-1 20.9 7 4.9-.4 14.8c0 .2 0 .3.1.5s.2.3.3.4c.1.1.3.2.4.3.1.1.2.2.4.2z"/><path class="st9" d="M408.2 293.6s3.9 3.1 4 7.8c.2 5.5-3.2 7.7-3.2 7.7s-15.1 7.7-39.2 2.6c0 0-7.1-9 .8-14.1 0 .1 25.5 3.6 37.6-4z"/><g class="st13"><path class="st14" d="M412.3 301.5c.2 5.5-3.2 7.7-3.2 7.7s-15 7.7-39.2 2.6c0 0-2.3-3-2.8-6.4.1.2.2.3.2.3 17.7 3.7 30.4.6 36-1.3 3.9-1.4 6.5-4.9 6.4-8.8v-.2-.3c1 1.3 2.5 3.5 2.6 6.4z"/></g><path class="st11" d="M386.2 315.3c14.5 0 23.2-4.3 23.6-4.5l.2-.1c.2-.1 4.3-2.8 4-9.2-.2-5.5-4.5-9-4.7-9.1l-1-.8-1 .7c-11.4 7.2-36.2 3.9-36.4 3.8l-.6-.1-.5.3c-2.5 1.6-4 3.7-4.4 6.3-.9 5.1 3 10.1 3.2 10.3l.4.5.6.1c6.1 1.3 11.7 1.8 16.6 1.8zm21.9-7.6c-1.3.6-15.5 7-37.3 2.5-.8-1.2-2.6-4.3-2.1-7.1.2-1.4 1-2.6 2.4-3.6 4.1.5 25.1 2.7 36.9-3.7 1 1.1 2.5 3.1 2.6 5.8.1 3.9-2 5.8-2.5 6.1z"/><g class="st13"><path class="st14" d="M317 256.1c.2.2.5.3.7.5 1.9 1.3 3.9 2.4 6 3.5 1 .5 2.1 1 3.1 1.5 3.1 1.4 6.3 2.5 9.6 3.3 6 1.5 12.3 2 18.5 1.6 1.2-.1 2.4-.2 3.6-.4 14.8-2 28.7-9.6 38.9-21.6-2.4-8.5-5.4-17.4-8.8-26.5l-64.4-3.5c-2.8 15.1-5.2 29-7.2 41.6z"/></g><path class="st9" d="M292.1 225.7c5.7 10 14 18.4 23.9 24.3 2.1 1.3 4.3 2.4 6.5 3.4 1.1.5 2.2 1 3.3 1.4 9.6 3.8 20 5.5 30.3 4.7 1.3-.1 2.6-.2 3.9-.4 23.8-3 45.3-18.3 55-41.7 14.3-34.6-2.4-73.9-37.4-87.9-6.6-2.6-13.5-4.2-20.5-4.7-.8-.1-1.6-.1-2.4-.1-2.2-.1-4.3-.1-6.5.1-9.9.6-19.5 3.2-28.2 7.8-1.4.7-2.7 1.5-4.1 2.3-2 1.2-3.9 2.5-5.8 4-9.6 7.3-17.1 17-21.7 28.1-8.2 19.9-6.2 41.4 3.7 58.7z"/><path class="st11" d="M351.3 260c1.6 0 3.2-.1 4.8-.2 1.3-.1 2.6-.2 3.9-.4 24.6-3.1 45.8-19.2 55.2-41.9 6.9-16.7 6.9-35-.1-51.6-7.1-16.7-20.3-29.7-37.3-36.5-6.6-2.6-13.5-4.2-20.6-4.7-.8-.1-1.6-.1-2.4-.1-2.2-.1-4.3-.1-6.5.1-9.9.6-19.5 3.2-28.3 7.8-1.4.7-2.8 1.5-4.1 2.3-2 1.2-3.9 2.6-5.8 4-9.6 7.3-17.1 17-21.8 28.2-8 19.3-6.7 40.7 3.7 58.8 5.8 10.1 14 18.5 24 24.4 2.1 1.3 4.3 2.4 6.5 3.4 1 .5 2.1.9 3.3 1.4 6.2 2.5 12.8 4 19.5 4.7 1.9.2 4 .3 6 .3zm.8-135.1h2.6c.9 0 1.7.1 2.4.1 7 .5 13.9 2.1 20.5 4.7 16.9 6.8 30.1 19.6 37.1 36.3 7 16.5 7 34.7.1 51.4-9.3 22.6-30.4 38.5-54.9 41.6-1.3.2-2.6.3-3.9.4-10.3.7-20.6-.9-30.2-4.7-1.2-.5-2.3-1-3.3-1.4-2.2-1-4.4-2.2-6.5-3.4-9.9-5.9-18.1-14.3-23.8-24.3l-.1.1.1-.1c-10.3-18-11.6-39.3-3.6-58.5 4.6-11.1 12.1-20.8 21.7-28.1 1.9-1.4 3.8-2.7 5.8-4 1.3-.8 2.7-1.6 4.1-2.3 8.7-4.5 18.3-7.2 28.2-7.8 1.1.1 2.4 0 3.7 0z"/><g class="st13"><path class="st14" d="M415 217.5c-9.7 23.5-31.3 38.7-55 41.8-1.3.2-2.6.3-3.9.4-10.3.7-20.7-.9-30.3-4.7-1.1-.5-2.2-.9-3.3-1.4-2.2-1-4.4-2.2-6.5-3.4-7.6-4.5-14.3-10.6-19.6-17.7-5.3-7.1-9.1-15.2-11.2-23.9 5.7 9.5 13.6 17.4 23.1 23 2.1 1.3 4.3 2.4 6.5 3.4 1.1.5 2.2 1 3.3 1.4 9.6 3.8 20 5.5 30.3 4.7 1.3-.1 2.6-.2 3.9-.4 23.8-3 45.3-18.3 55-41.8 5.7-13.7 6.5-28.1 3.2-41.4 10.6 17.5 13 39.6 4.5 60z"/></g><path class="st11" d="M351.3 261.1c1.6 0 3.2-.1 4.9-.2 1.3-.1 2.7-.2 4-.4 25-3.2 46.5-19.5 56.1-42.6 7-17 7-35.6-.1-52.5-7.2-17-20.7-30.2-38-37.1-6.7-2.7-13.8-4.3-20.9-4.8-.8-.1-1.6-.1-2.5-.1-2.2-.1-4.4-.1-6.6.1-10 .6-19.8 3.3-28.8 7.9-1.4.7-2.8 1.5-4.1 2.3-2 1.2-4 2.6-5.9 4-9.8 7.4-17.4 17.3-22.1 28.7-8.1 19.6-6.8 41.4 3.7 59.8 5.9 10.2 14.2 18.8 24.4 24.8 2.1 1.3 4.3 2.4 6.6 3.5 1 .5 2.1 1 3.4 1.5 6.3 2.5 13 4.1 19.8 4.7 1.9.4 4 .4 6.1.4zm.8-135h2.6c.9 0 1.6.1 2.4.1 6.9.5 13.7 2.1 20.2 4.6 16.6 6.6 29.6 19.3 36.5 35.6 6.8 16.2 6.9 34.1.1 50.5-9.2 22.2-29.9 37.9-54 40.9-1.3.2-2.6.3-3.8.4-10.1.7-20.3-.9-29.7-4.7-1.2-.5-2.3-1-3.3-1.4-2.2-1-4.3-2.1-6.4-3.3-9.7-5.8-17.8-14-23.4-23.9-10.1-17.7-11.4-38.6-3.6-57.5 4.5-10.9 11.9-20.4 21.3-27.6 1.8-1.4 3.7-2.7 5.7-3.9 1.3-.8 2.6-1.5 4-2.3 8.6-4.5 18-7.1 27.7-7.6 1.1.1 2.4.1 3.7.1z"/><path class="st11" d="M351.3 261.5c1.6 0 3.3-.1 4.9-.2 1.3-.1 2.7-.2 4-.4 25.2-3.2 46.8-19.6 56.4-42.8 7.1-17.1 7-35.8-.1-52.8-7.2-17.1-20.8-30.4-38.2-37.3-6.7-2.7-13.8-4.3-21.1-4.8-.8-.1-1.6-.1-2.5-.1-2.2-.1-4.4-.1-6.6.1-10.1.6-20 3.3-28.9 8-1.4.7-2.8 1.5-4.2 2.4-12.6 7.7-22.5 19.2-28.2 32.9-8.2 19.7-6.8 41.7 3.8 60.2 5.9 10.3 14.3 18.9 24.5 25 2.2 1.3 4.4 2.5 6.6 3.5 1 .5 2.1 1 3.4 1.5 6.4 2.5 13.1 4.1 19.9 4.8 2.1-.1 4.2 0 6.3 0zm.8-135h2.5c.8 0 1.6.1 2.4.1 6.9.5 13.6 2 20 4.6 16.5 6.6 29.4 19.2 36.3 35.4 6.8 16.1 6.8 33.9.1 50.2-9.1 22.1-29.7 37.7-53.7 40.7-1.3.2-2.5.3-3.8.4-10.1.7-20.2-.9-29.5-4.6-1.2-.5-2.3-.9-3.3-1.4-2.2-1-4.3-2.1-6.3-3.3-9.7-5.8-17.7-13.9-23.3-23.7-10-17.6-11.3-38.4-3.6-57.1 5.4-13 14.8-24 26.8-31.3 1.3-.8 2.6-1.5 4-2.2 8.5-4.4 17.9-7 27.5-7.6 1.4-.2 2.6-.2 3.9-.2z"/><path class="st11" d="M302.5 239.5c40.5 26.8 94.7 6 96.9-41.7 1.5-32.5-29.6-58.8-61.3-58-23.1.6-45.4 11.1-54.5 46.7 0 0-1.6 16.3 3.1 27.1 4.6 10.8 11 20.5 11 20.5l4.8 5.4z"/><path class="st16" d="M399.4 197.8c-2.2 47.8-56.4 68.6-96.9 41.8l-1-1.1c44.2 6.9 87.8-20.1 90.9-68.3 4.8 8.1 7.5 17.5 7 27.6z"/><path class="st11" d="M341 259.8c17.6 0 34.3-6.1 46.6-17.1 12.6-11.3 19.8-26.7 20.6-44.6.7-16.4-5.7-32.4-18.1-45.1-13.8-14.1-33.4-22.2-52.4-21.8-10.6.3-20 2.4-28.2 6.2l-.1.1-.1.1c-9.8 7.5-17.5 17.4-22.2 28.8-8.2 19.7-6.8 41.6 3.7 60 5.9 10.3 14.3 18.9 24.4 24.9 2.1 1.3 4.4 2.4 6.6 3.5 1 .5 2.1 1 3.4 1.5 3.5 1.4 7 2.5 10.6 3.3h.2c1.7.2 3.3.2 5 .2zm-1.8-125.4c17.7 0 35.7 7.7 48.6 20.8 11.8 12.1 17.9 27.2 17.2 42.8-.8 17-7.5 31.6-19.5 42.4-12.8 11.5-30.7 17.3-49.1 16.2-3.4-.8-6.8-1.8-10-3.1-1.2-.5-2.3-.9-3.3-1.4-2.2-1-4.3-2.1-6.3-3.3-9.7-5.8-17.7-14-23.3-23.8-10.1-17.6-11.4-38.5-3.6-57.3 4.5-10.8 11.8-20.3 21.1-27.4 7.7-3.6 16.7-5.6 26.8-5.9h1.4z"/><path class="st11" d="M341.1 253.1c10.1 0 20.1-2.3 29.2-6.9 18.6-9.5 29.9-27.1 30.8-48.4.7-14.7-5.1-29-16.2-40.4-12.3-12.5-29.9-19.8-46.9-19.4-29.3.7-48.2 16.9-56.1 48v.3c-.1.7-1.6 16.9 3.2 28 4.7 10.8 10.9 20.3 11.1 20.7l.1.2 5 5.7.2.1c12.2 8 26.1 12.1 39.6 12.1zm-1.7-111.6c15.6 0 31.6 6.8 43 18.4 10.4 10.7 15.9 24.1 15.2 37.8-.9 20-11.5 36.6-28.9 45.5-20 10.2-45 8.3-65.1-4.9L299 233c-.7-1-6.5-10.2-10.8-20.1-4.2-9.7-3.1-24.6-3-26.1 7.5-29.3 25.3-44.6 52.9-45.2.5-.1.9-.1 1.3-.1z"/><path class="st9" d="M429.7 194.2c1 13.3-6.1 25-15.8 26.3-9.8 1.2-18.5-8.5-19.5-21.8v-.3c-.9-13.2 6.1-24.8 15.8-26 7.5-1 14.5 4.6 17.7 13.4 1 2.7 1.6 5.5 1.8 8.4z"/><g class="st13"><path class="st14" d="M429.7 194.2c1 13.3-6.1 25-15.8 26.3-9.8 1.2-18.5-8.5-19.5-21.8v-.3c1.2 1.2 3 2.4 5.2 1.6 3.9-1.3 10.4-10.7 10.4-10.7s7.8-1.6 18-3.5c.9 2.7 1.5 5.5 1.7 8.4z"/></g><path class="st11" d="M412.2 222.3c.6 0 1.3 0 1.9-.1 10.6-1.4 18.4-14 17.3-28.1-.6-8.2-4-15.3-9.3-19.6-3.7-3-7.9-4.3-12.2-3.7-10.6 1.4-18.4 14-17.3 28.1.6 8.2 4 15.3 9.3 19.6 3.1 2.5 6.6 3.8 10.3 3.8zm-.4-48.3c2.8 0 5.6 1 8.1 3.1 4.5 3.7 7.5 10.1 8 17.2 1 12.3-5.5 23.3-14.3 24.4-3.3.4-6.6-.6-9.6-3-4.5-3.7-7.5-10.1-8-17.2-1-12.4 5.5-23.3 14.3-24.4.6-.1 1.1-.1 1.5-.1z"/><path class="st9" d="M417.3 217.1c-8-.2-14.3-8.9-14.1-19.5.2-10.6 6.9-19 14.9-18.9 8 .2 14.3 8.9 14.1 19.5-.2 10.6-6.9 19-14.9 18.9z"/><path class="st11" d="M417.7 217.3c1.8 0 3.6-.5 5.2-1.3 4.2-2.1 7.5-6.6 8.9-12.2 2.5-10.2-1.7-21-9.3-24.3-3.2-1.3-6.5-1.2-9.7.4-4.2 2.1-7.4 6.6-8.9 12.2-2.5 10.2 1.7 21 9.3 24.3 1.5.6 3 .9 4.5.9zm.3-38.3c1.5 0 2.9.3 4.3.9 7.5 3.2 11.6 13.9 9.1 23.8-1.4 5.6-4.5 9.9-8.7 12-3 1.5-6.3 1.7-9.4.4-7.5-3.2-11.6-13.9-9.1-23.8 1.4-5.6 4.5-9.9 8.7-12 1.6-.9 3.4-1.3 5.1-1.3z"/><g class="st13"><path class="st14" d="M404.9 207.2c-1.2-3.4-1.4-7.2-.8-10.8 3.3 7.6 10.8 10.2 17.3 5.8 4.2-2.9 7-8 7.9-13.6l.6 1.5c3 8.8-.2 19.7-7.2 24.4-6.9 4.7-14.9 1.4-17.8-7.3z"/></g><path class="st11" d="M418.1 218.9c.5 0 1 0 1.5-.1 8.2-1.1 14.3-11.5 13.4-23.2-.5-6.9-3.4-13.1-7.6-16.6-2.8-2.2-5.9-3.2-9.1-2.8-8.2 1.1-14.3 11.5-13.4 23.2.5 6.9 3.4 13.1 7.6 16.6 2.3 1.9 4.9 2.9 7.6 2.9zm-.4-39.4c1.9 0 3.8.7 5.5 2.1 3.5 2.9 5.9 8.2 6.4 14.2.7 9.9-4 18.7-10.4 19.6-2.2.3-4.5-.4-6.5-2-3.5-2.9-5.9-8.2-6.4-14.2-.7-9.9 3.9-18.7 10.4-19.6.4-.1.7-.1 1-.1z"/><g class="st17"><path class="st18" d="M355 152.1s-30.2 2.7-46.6 20.3l-.1.1c-3.4 3.7-5.8 8.2-6.9 13.2-1.4 6.5-1.4 11.1-1.3 15.3.5 12.5 3 18.2 3 18.2-7.4-6.3-11.8-13.6-12.3-24 0-1-.1-2.1 0-3.2v-.7c.3-2.8.7-5.6 1.3-8.3 2.1-9.7 7.2-22.4 19.2-28.8 22.7-11.9 44.7-3.4 43.7-2.1z"/></g><g class="st17"><path class="st18" d="M369.1 184.6c-1.8-5.5.7-11.3 5.5-12.8s10.1 1.7 11.9 7.2c1.8 5.5-.7 11.3-5.5 12.8s-10.2-1.7-11.9-7.2z"/></g><g class="st17"><path class="st18" d="M381 201.5c-.9-2.2-.1-4.7 1.8-5.5 1.9-.8 4.2.3 5.2 2.5.9 2.2.1 4.7-1.8 5.5-1.9.8-4.2-.3-5.2-2.5z"/></g><path class="st11" d="M386 393.8c-1.6-1.8-3.7-2.9-5.9-3.7-2.2-.8-4.5-1.3-6.8-1.5-.6-.1-1.2-.1-1.8-.1-.6 0-1.2-.1-1.8 0l-1.8.1c-.6 0-1.2.2-1.7.2-1.2.1-2.3.5-3.4.7-.6.1-1.1.4-1.7.5l-1.6.6-.6.3c-.2.2-.3.3-.4.5-.1.2-.2.4-.2.6 0 .2 0 .5.1.7l.3.6c.1.2.3.3.5.4.2.1.4.2.7.2.2 0 .5 0 .7-.1h.1l1.5-.5c.5-.2 1-.4 1.5-.5 1-.3 2-.6 3.1-.7 2.1-.4 4.2-.6 6.3-.6 2.1 0 4.2.3 6.3.8 2.1.5 4.1 1.1 6.4 1.6h.1s.1 0 .1-.1c0 .1 0 .1 0 0 0 .1 0 0 0 0z"/><path class="st9" d="M394.6 284.4s-7.5 21.4-33.1 23.3c-25.6 1.9-39.1-15-43.1-23.3h76.2z"/><g class="st13"><path class="st14" d="M318.4 284.4c4 8.3 17.6 25.2 43.1 23.3 18.9-1.4 27.9-13.5 31.3-19.6-5.1 4.4-12.3 9.7-22.6 10.5-17.4 1.3-19-6.7-22-14.1h-29.8z"/></g><path class="st11" d="M394 284.2c-1.5 1.4-2.6 3-3.7 4.5s-2.1 3.1-3.3 4.6c-1.2 1.5-2.5 2.8-3.9 4-1.4 1.2-2.9 2.3-4.6 3.3-1.6 1-3.3 1.8-5 2.5-1.7.7-3.5 1.3-5.4 1.7-3.7.9-7.5 1.2-11.3 1.2-3.8-.1-7.6-.6-11.2-1.6-3.7-1-7.1-2.5-10.4-4.5-3.2-2-6.2-4.4-8.8-7.2-.6-.7-1.3-1.4-1.9-2.1-.6-.7-1.1-1.5-1.6-2.3-.5-.8-1.1-1.5-1.7-2.3-.7-.8-1.5-1.5-2.3-2-.1-.1-.2-.1-.3-.1-.1 0-.2 0-.3.1-.1.1-.2.1-.3.2-.1.1-.1.2-.1.3-.1 1.2.1 2.2.5 3.2s.9 1.8 1.6 2.7c.6.8 1.3 1.6 2 2.4.7.8 1.3 1.6 2 2.3 2.8 3 6 5.6 9.5 7.7 3.5 2.1 7.3 3.8 11.2 4.9 3.9 1.1 8 1.6 12.1 1.7 4.1 0 8.2-.3 12.2-1.3 2-.5 4-1.1 5.9-1.9 1.9-.8 3.8-1.7 5.5-2.8 1.8-1.1 3.4-2.3 5-3.6 1.6-1.3 3-2.8 4.4-4.3 1.4-1.5 2.7-3.2 3.7-5 1-1.8 1.8-3.8 1.7-6 0-.1 0-.2-.1-.3-.1-.1-.2-.2-.3-.2-.1 0-.2-.1-.3 0-.2 0-.4.1-.5.2zM205.9 356.6h.4c.2 0 .4-.1.6-.3.2-.1.3-.3.5-.5.1-.2.2-.4.2-.6v-.7l-8-37.9c0-.2-.1-.4-.3-.6-.1-.2-.3-.4-.5-.5l-.6-.3h-.7c-.2 0-.4.1-.6.3-.2.1-.3.3-.5.5-.1.2-.2.4-.2.6v.7l8 37.9c.1.4.3.7.6 1 .3.3.7.4 1.1.4zM215.5 356.6h.3c.2 0 .4-.1.6-.2.2-.1.4-.3.5-.5l.3-.6c.1-.2.1-.4 0-.7l-6.4-37.9c-.1-.5-.3-.9-.7-1.1-.4-.3-.8-.4-1.3-.3-.5.1-.9.3-1.1.7-.3.4-.4.8-.3 1.3l6.4 37.9c.1.4.3.8.6 1 .3.3.7.4 1.1.4zM225.1 356.6h.2c.5-.1.9-.3 1.1-.7.3-.4.4-.8.4-1.3l-4.7-37.9c-.1-.4-.3-.9-.7-1.1-.4-.3-.8-.4-1.3-.3-.4.1-.9.3-1.1.6-.3.4-.4.8-.4 1.3l4.7 37.9c.1.4.3.8.6 1.1.4.3.8.4 1.2.4zM234.7 356.6h.1c.5 0 .9-.3 1.2-.6.3-.3.4-.8.4-1.3l-3-37.9c0-.4-.3-.9-.6-1.2-.3-.3-.8-.4-1.2-.4-.5 0-.9.2-1.2.6-.3.3-.4.8-.4 1.2l3 37.9c0 .4.2.8.6 1.1.3.5.7.6 1.1.6zM244.4 356.6c.5 0 1-.2 1.3-.5.3-.3.5-.8.5-1.2l-1.4-37.9c0-.2-.1-.5-.1-.7-.1-.2-.2-.4-.4-.6-.2-.2-.4-.3-.6-.4-.2-.1-.4-.1-.7-.1-.2 0-.5.1-.7.2-.2.1-.4.2-.5.4-.2.2-.3.4-.4.6-.1.2-.1.4-.1.7l1.4 37.9c0 .4.2.9.5 1.2s.7.4 1.2.4zM254 356.6c.5 0 .9-.2 1.2-.5.3-.3.5-.8.5-1.2l.3-37.9c0-.2 0-.5-.1-.7-.1-.2-.2-.4-.4-.6-.2-.2-.4-.3-.6-.4-.2-.1-.4-.1-.7-.1-.2 0-.5 0-.7.1-.2.1-.4.2-.6.4-.2.2-.3.4-.4.6-.1.2-.1.4-.1.7l-.3 37.9c0 .2 0 .5.1.7.1.2.2.4.4.6.2.2.3.3.6.4h.8zM263.6 356.6c.4 0 .9-.2 1.2-.5.3-.3.5-.7.5-1.2l1.9-37.9c0-.2 0-.5-.1-.7l-.3-.6c-.2-.2-.3-.3-.5-.4-.2-.1-.4-.2-.7-.2s-.5 0-.7.1-.4.2-.6.4-.3.3-.4.6c-.1.2-.1.4-.2.7l-1.9 37.9c0 .5.1.9.4 1.2.4.4.9.6 1.4.6z"/><path class="st19" d="M192.5 313.3c0 1 .4 1.9 1.1 2.6.7.7 1.6 1.1 2.6 1.1H272l-.7 20.7c-.2 5.2.7 10.5 2.7 15.3l.8 1.9h-70.6c-.5 0-1 .1-1.4.3-.5.2-.9.5-1.2.8-.3.3-.6.8-.8 1.2-.2.5-.3.9-.3 1.4 0 .5.1 1 .3 1.4.2.5.5.9.8 1.2.3.3.8.6 1.2.8.5.2.9.3 1.4.3h73.5l3.7 9.3c1 2.5-.1 4.6-.6 5.3-.5.8-2 2.5-4.7 2.5h-78.5c-2 0-3.7 1.5-3.8 3.4 0 .5 0 1 .2 1.5s.4.9.8 1.3c.3.4.8.7 1.2.9.5.2 1 .3 1.5.3h78.6c5.3 0 9.7-3.1 11.8-7.4.8-1.6 1.2-3.4 1.3-5.2.1-1.8-.3-3.6-.9-5.3l-2.6-6.6-3-7.4-1.9-4.7c-1.6-3.9-2.3-8.1-2.2-12.3l.7-20.9.1-3.3c.2-6.4 2.4-12.5 6.3-17.5l1.1-1.4 8.1-10.4.5-.6H286l-.4.6-5.5 7.3c-.8 1-1.5 2-2.2 3.1-2.8 4.5-4.7 9.6-5.4 14.9h-76.3c-.5 0-1 .1-1.4.3-.4.2-.9.5-1.2.8-.3.3-.6.7-.8 1.2-.2.4-.3.8-.3 1.3z"/><path class="st11" d="M197.5 388.5h78.6c2.4 0 4.8-.6 6.9-1.7 2.1-1.1 4-2.8 5.3-4.8 1.4-2 2.2-4.3 2.5-6.7.3-2.4-.1-4.8-1-7.1l-7.5-18.6c-1.5-3.7-2.2-7.6-2-11.6l.8-24.2c.2-6 2.3-11.8 6-16.5l9.6-12.4c.2-.3.3-.6.4-.9 0-.3 0-.6-.2-.9s-.4-.5-.6-.7c-.3-.2-.6-.3-.9-.3H286c-.3 0-.5.1-.8.2-.2.1-.4.3-.6.5l-6 7.9c-3.9 5.1-6.6 11-7.7 17.3H196c-1.4 0-2.7.6-3.7 1.6s-1.5 2.4-1.5 3.8.5 2.8 1.5 3.8 2.3 1.6 3.7 1.6h74.1l-.7 18.9c-.2 5.3.7 10.6 2.6 15.6h-68c-1.4 0-2.8.6-3.8 1.6s-1.6 2.4-1.6 3.8.6 2.8 1.6 3.8 2.4 1.6 3.8 1.6h72.4l3.3 8.2c.2.6.3 1.3.3 1.9-.1.6-.3 1.3-.7 1.8-.4.5-.9 1-1.4 1.3-.6.3-1.2.5-1.9.5h-78.5c-2.9 0-5.3 2.2-5.5 5-.1.8.1 1.5.3 2.3s.7 1.4 1.2 1.9 1.1.9 1.8 1.2c.8.1 1.5.3 2.2.3zm94.4-103l-7.4 9.6c-4.1 5.3-6.5 11.8-6.7 18.5l-.8 24.2c-.2 4.5.6 8.9 2.3 13l7.5 18.6c.7 1.7.9 3.6.7 5.4-.2 1.8-.8 3.6-1.9 5.1-1 1.5-2.4 2.8-4.1 3.7-1.6.9-3.5 1.3-5.3 1.3h-78.6c-.3 0-.5-.1-.8-.2-.2-.1-.5-.3-.7-.5-.2-.2-.3-.4-.4-.7-.1-.3-.1-.5-.1-.8.1-1 1-1.8 2.1-1.8h78.5c3.6 0 5.5-2.3 6.1-3.3.7-1 2.1-3.6.7-6.9l-3.7-9.3c-.1-.3-.3-.6-.6-.8-.3-.2-.6-.3-1-.3h-73.5c-.5 0-1-.2-1.4-.6-.4-.4-.6-.9-.6-1.4 0-.5.2-1 .6-1.4.4-.4.9-.6 1.4-.6h70.6c.3 0 .6-.1.8-.2.2-.1.5-.3.6-.6.2-.2.3-.5.3-.8 0-.3 0-.6-.1-.8l-.8-1.9c-1.9-4.6-2.7-9.6-2.6-14.6l.7-20.7c0-.2 0-.5-.1-.7-.1-.2-.2-.4-.4-.6-.2-.2-.4-.3-.6-.4-.2-.1-.4-.1-.7-.1H196c-.5 0-1-.2-1.4-.6-.4-.4-.6-.9-.6-1.4 0-.5.2-1 .6-1.4.4-.4.9-.6 1.4-.6h76.3c.4 0 .8-.2 1.1-.4.3-.3.5-.7.6-1.1.9-6.2 3.3-12.2 7.2-17.1l5.5-7.2 5.2.4z"/><g class="st13"><path class="st14" d="M277.9 294.8h9.1l8.1-10.4h-9.4l-5.5 7.3c-.9 1-1.7 2-2.3 3.1z"/></g><g class="st13"><path class="st14" d="M193.9 382.8c0 .5 0 1 .2 1.5s.4.9.8 1.3c.3.4.8.7 1.2.9.5.2 1 .3 1.5.3h78.6c5.3 0 9.7-3.1 11.8-7.4 1.1-2.2 1.5-4.7 1.2-7.2-.2 1.4-.6 2.9-1.2 4.2-2.1 4.3-6.4 7.4-11.8 7.4h-78.6c-.7 0-1.4-.2-2-.6-.6-.4-1.1-.9-1.4-1.6-.2.4-.3.8-.3 1.2z"/></g><path class="st20" d="M215.3 305.1H247v49.2h-31.7v-49.2z"/><g class="st13"><path class="st14" d="M215.3 337.9v16.5H247v-19.2c-2.4 7.8-7.3 13.6-16.5 13.6-8 .1-12.6-4.5-15.2-10.9z"/></g><path class="st11" d="M215.3 356.1H247c.5 0 .9-.2 1.2-.5.3-.3.5-.8.5-1.2v-49.2c0-.5-.2-.9-.5-1.2-.3-.3-.8-.5-1.2-.5h-31.7c-.5 0-.9.2-1.2.5-.3.3-.5.8-.5 1.2v49.2c0 .2 0 .5.1.7.1.2.2.4.4.6.2.2.4.3.6.4h.6zm30-3.5h-28.2v-45.8h28.2v45.8z"/><path class="st20" d="M247 305.1h43.7v49.2H247v-49.2z"/><g class="st13"><path class="st14" d="M247 337.9v16.4h43.7v-16.4c-3.5 6.6-10 11.3-21.8 11.3-11.8.1-18.4-4.7-21.9-11.3z"/></g><path class="st11" d="M247 356.1h43.7c.2 0 .5 0 .7-.1.2-.1.4-.2.6-.4.2-.2.3-.3.4-.6.1-.2.1-.4.1-.7v-49.2c0-.2 0-.5-.1-.7-.1-.2-.2-.4-.4-.6-.2-.2-.4-.3-.6-.4-.2-.1-.4-.1-.7-.1H247c-.2 0-.5 0-.7.1-.2.1-.4.2-.6.4-.2.2-.3.3-.4.6-.1.2-.1.4-.1.7v49.2c0 .2 0 .5.1.7.1.2.2.4.4.6.2.2.4.3.6.4.3.1.5.1.7.1zm42-3.5h-40.2v-45.8H289v45.8z"/><path class="st20" d="M211.1 290.2H247v14.9h-35.9v-14.9z"/><g class="st21"><path class="st22" d="M211.1 290.2H247v3h-35.9v-3z"/></g><path class="st11" d="M211.1 306.9H247c.5 0 .9-.2 1.2-.5s.5-.8.5-1.2v-14.9c0-.5-.2-.9-.5-1.2-.3-.3-.8-.5-1.2-.5h-35.9c-.5 0-.9.2-1.2.5-.3.3-.5.8-.5 1.2v14.9c0 .2 0 .5.1.7.1.2.2.4.4.6.2.2.4.3.6.4.1-.1.4 0 .6 0zm34.2-3.5h-32.5V292h32.5v11.4z"/><path class="st20" d="M247 290.2h47.9v14.9H247v-14.9z"/><g class="st21"><path class="st22" d="M247 290.2h47.9v3H247v-3z"/></g><path class="st11" d="M247 306.9h47.9c.5 0 .9-.2 1.2-.5s.5-.8.5-1.2v-14.9c0-.5-.2-.9-.5-1.2-.3-.3-.8-.5-1.2-.5H247c-.5 0-.9.2-1.2.5-.3.3-.5.8-.5 1.2v14.9c0 .2 0 .5.1.7.1.2.2.4.4.6.2.2.3.3.6.4s.4 0 .6 0zm46.2-3.5h-44.5V292h44.5v11.4z"/><path class="st23" d="M265.7 290.2h13.2v14.9h-13.2v-14.9z"/><g class="st21"><path class="st22" d="M265.7 290.2h13.2v3h-13.2v-3z"/></g><path class="st11" d="M265.7 306.9h13.2c.2 0 .5 0 .7-.1.2-.1.4-.2.6-.4.2-.2.3-.4.4-.6.1-.2.1-.4.1-.7v-14.9c0-.5-.2-.9-.5-1.2-.3-.3-.8-.5-1.2-.5h-13.2c-.5 0-.9.2-1.2.5-.3.3-.5.8-.5 1.2v14.9c0 .2 0 .5.1.7.1.2.2.4.4.6.2.2.4.3.6.4 0 0 .2.1.5.1zm11.4-3.5h-9.7V292h9.7v11.4z"/><path class="st23" d="M221.4 290.2H232v14.9h-10.6v-14.9z"/><g class="st21"><path class="st22" d="M221.4 290.2H232v3h-10.6v-3z"/></g><path class="st11" d="M221.4 306.9H232c.2 0 .5 0 .7-.1.2-.1.4-.2.6-.4s.3-.4.4-.6c.1-.2.1-.4.1-.7v-14.9c0-.5-.2-.9-.5-1.2-.3-.3-.8-.5-1.2-.5h-10.6c-.5 0-.9.2-1.2.5-.3.3-.5.8-.5 1.2v14.9c0 .2 0 .5.1.7.1.2.2.4.4.6.2.2.4.3.6.4.1 0 .3.1.5.1zm8.9-3.5h-7.1V292h7.1v11.4z"/><path class="st23" d="M224.3 305.1h10.6v49.2h-10.6v-49.2z"/><g class="st13"><path class="st14" d="M224.4 336.9v17.4H235v-17.5c-3.4 4.4-2.1 11.4-3.5 11.1-1.8-.4-1.5-9.4-1.8-9.5-.7-.1-.7 8.3-1.9 9.1-1.6 1-2.9-5.8-3.4-10.6z"/></g><path class="st11" d="M224.3 356.1h10.6c.2 0 .5 0 .7-.1.2-.1.4-.2.6-.4.2-.2.3-.3.4-.6.1-.2.1-.4.1-.7v-49.2c0-.5-.2-.9-.5-1.2-.3-.3-.8-.5-1.2-.5h-10.6c-.5 0-.9.2-1.2.5-.3.3-.5.8-.5 1.2v49.2c0 .2 0 .5.1.7.1.2.2.4.4.6.2.2.4.3.6.4.1.1.3.1.5.1zm8.9-3.5h-7.1v-45.8h7.1v45.8z"/><path class="st23" d="M262.3 305.1h13.2v49.2h-13.2v-49.2z"/><g class="st13"><path class="st14" d="M262.3 330.4v24h13.2v-24c-.5 7-1.6 18.7-4.1 18.7-2.5 0-1.6-10.5-2.8-10.5-1.2 0 0 10.6-2.2 10.6-2.1 0-3.6-11.9-4.1-18.8z"/></g><path class="st11" d="M262.3 356.1h13.2c.5 0 .9-.2 1.2-.5.3-.3.5-.8.5-1.2v-49.2c0-.5-.2-.9-.5-1.2-.3-.3-.8-.5-1.2-.5h-13.2c-.2 0-.5 0-.7.1-.2.1-.4.2-.6.4-.2.2-.3.3-.4.6-.1.2-.1.4-.1.7v49.2c0 .2 0 .5.1.7.1.2.2.4.4.6.2.2.4.3.6.4.2-.1.5-.1.7-.1zm11.4-3.5H264v-45.8h9.7v45.8z"/><path class="st23" d="M222.6 278.1c.7 2.1 1.7 4 2.8 5.2 5.4 5.6 19.8 6.9 19.8 6.9h.2c-5.6-1.6-13.3-6.3-12.1-10.3.2-.5.5-1 .8-1.4 1.3-1.4 2.7-1.8 4.2-1.6 4.3.8 8.9 7.7 10.9 13.3h4.8s-1.7-8.2-6-15.6c-3.2-5.6-7.9-10.7-14.4-11.6-11.6-1.7-13.2 8.1-11 15.1z"/><g class="st13"><path class="st14" d="M222.6 278.1c.7 2.1 1.7 4 2.8 5.2 5.4 5.6 19.8 6.9 19.8 6.9h.2c-5.6-1.6-13.3-6.3-12.1-10.3-.5.4-1.1.7-1.6.7-.9 0-3.1-5.5-3.7-1-.4 2.8-2.8-1.3-5.4-1.5z"/></g><g class="st13"><path class="st14" d="M238.3 277c4.3.8 8.9 7.7 10.9 13.3h4.8s-1.7-8.2-6-15.6c-.2.6-.6 1.3-1.4 1.1-1.6-.3-4.2-2.9-5.3-2.6-1.2.3 2.9 3.5 1.5 4.2-1.2.6-2.8-2-4.5-.4z"/></g><path class="st11" d="M245.2 292h.2c.4 0 .8-.2 1.1-.4s.5-.6.6-1.1c.1-.4 0-.8-.3-1.2-.2-.3-.6-.6-1-.7-5.2-1.5-10.3-4.9-11-7.4-.1-.4-.2-.9.4-1.6.8-.9 1.6-1.2 2.7-1 3.4.7 7.7 6.9 9.5 12.2.1.3.3.6.6.8.3.2.6.3 1 .3h4.8c.3 0 .5-.1.7-.2.2-.1.4-.3.6-.5.2-.2.3-.4.3-.7.1-.2.1-.5 0-.8-.2-1.1-5.7-26.3-21.9-28.6-7.9-1.2-11.1 2.7-12.4 5.1-2.9 5.6-.9 14.4 2.7 18.2 5.8 6 20.3 7.3 20.9 7.4.4.2.4.2.5.2zm6.6-3.5h-1.4c-2.3-5.9-7-12.3-11.7-13.2-2.2-.5-4.3.3-5.9 2.1-1.3 1.4-1.7 3.1-1.2 4.8.4 1.5 1.5 3 3 4.2-3.1-1-6.1-2.3-7.9-4.2-2.5-2.6-4.5-9.7-2.2-14.2 1.5-2.8 4.4-3.9 8.8-3.3 11.4 1.6 16.9 18 18.5 23.8z"/><g class="st13"><path class="st14" d="M215.3 305.1H247v5.5h-31.7v-5.5z"/></g><g class="st13"><path class="st14" d="M247 305.1h43.7v5.5H247v-5.5z"/></g><g class="st13"><path class="st14" d="M211.1 301.6H247v3.5h-35.9v-3.5z"/></g><g class="st13"><path class="st14" d="M247 301.7h47.9v3.4H247v-3.4z"/></g><g class="st21"><path class="st22" d="M237.2 268.7c-.6-1.8-3.9-3.4-7-3.2-4.2.3-5.6 5.1-5.2 6.2.4 1.1 2.3-2.1 6.4-2.3 2-.2 6.5 1.4 5.8-.7z"/></g><path class="st11" d="M204.2 364h42.5c.5 0 .9-.2 1.2-.5.3-.3.5-.8.5-1.2v-7.4c0-.5-.2-.9-.5-1.2-.3-.3-.8-.5-1.2-.5h-42.5c-1.4 0-2.8.6-3.8 1.6s-1.6 2.4-1.6 3.8.6 2.8 1.6 3.8 2.3 1.6 3.8 1.6zm40.7-3.5h-40.8c-.3 0-.5 0-.8-.1-.2-.1-.5-.2-.7-.4-.2-.2-.3-.4-.4-.6-.1-.2-.2-.5-.2-.8 0-.3.1-.5.2-.8.1-.2.2-.5.4-.6.2-.2.4-.3.7-.4.2-.1.5-.1.8-.1h40.8v3.8zM196.2 318.7h50.5c.5 0 .9-.2 1.2-.5.3-.3.5-.8.5-1.2v-7.4c0-.5-.2-.9-.5-1.2-.3-.3-.8-.5-1.2-.5h-50.5c-1.4 0-2.8.6-3.8 1.6s-1.6 2.4-1.6 3.8.6 2.8 1.6 3.8c.9 1.1 2.3 1.6 3.8 1.6zm48.7-3.4h-48.8c-.5 0-1-.2-1.4-.6-.4-.4-.6-.9-.6-1.4 0-.5.2-1 .6-1.4.4-.4.9-.6 1.4-.6h48.8v4z"/><g class="st13"><path class="st14" d="M281.4 368.6l-3.7-9.3h-73.5c-.5 0-1-.1-1.4-.3-.4-.2-.9-.5-1.2-.8-.3-.3-.6-.7-.8-1.1-.3.7-.4 1.4-.3 2.2.1.7.5 1.4 1 1.9.3.3.7.6 1.2.8.4.2.9.3 1.4.3h73.5l3.7 9.3c.1.2.2.4.2.6.5-1.2.4-2.5-.1-3.6z"/></g><g class="st13"><path class="st14" d="M192.5 313.3c0 1 .4 1.9 1.1 2.6.7.7 1.6 1.1 2.6 1.1H272l.1-3h-75.9c-.7 0-1.4-.2-2-.6-.6-.4-1.1-.9-1.4-1.6-.2.5-.3 1-.3 1.5z"/></g><path class="st19" d="M200.5 358.6c0 .5.1 1 .3 1.4.2.4.5.9.8 1.2.3.3.7.6 1.2.8.4.2.9.3 1.4.3h42.5v-7.4h-42.5c-.5 0-1 .1-1.4.3s-.9.5-1.2.8c-.3.3-.6.7-.8 1.2-.2.4-.3.9-.3 1.4z"/><g class="st13"><path class="st14" d="M200.5 358.6c0 .5.1 1 .3 1.4.2.4.5.9.8 1.2.3.3.7.6 1.2.8.4.2.9.3 1.4.3h42.5v-3.7h-40.6c-.9 0-1.8-.3-2.4-.9-.7-.6-1.1-1.4-1.2-2.3-.6.3-1.1.8-1.4 1.4s-.6 1.1-.6 1.8z"/></g><path class="st19" d="M192.5 313.3c0 .5.1 1 .3 1.4.2.4.5.9.8 1.2.3.3.7.6 1.2.8.4.2.9.3 1.4.3h50.5v-7.4h-50.5c-.5 0-1 .1-1.4.3-.4.2-.9.5-1.2.8-.3.3-.6.7-.8 1.2-.2.5-.3.9-.3 1.4z"/><g class="st13"><path class="st14" d="M192.5 313.3c0 .5.1 1 .3 1.4.2.4.5.9.8 1.2.3.3.7.6 1.2.8.4.2.9.3 1.4.3h50.5v-3.7h-49.2c-.8 0-1.7-.3-2.3-.8-.7-.5-1.1-1.3-1.3-2.1-.4.3-.8.8-1 1.3s-.4 1.1-.4 1.6z"/></g><path class="st11" d="M204.2 364h42.5c.5 0 .9-.2 1.2-.5.3-.3.5-.8.5-1.2v-7.4c0-.5-.2-.9-.5-1.2-.3-.3-.8-.5-1.2-.5h-42.5c-1.4 0-2.8.6-3.8 1.6s-1.6 2.4-1.6 3.8.6 2.8 1.6 3.8 2.3 1.6 3.8 1.6zm40.7-3.5h-40.8c-.3 0-.5 0-.8-.1-.2-.1-.5-.2-.7-.4-.2-.2-.3-.4-.4-.6-.1-.2-.2-.5-.2-.8 0-.3.1-.5.2-.8.1-.2.2-.5.4-.6.2-.2.4-.3.7-.4.2-.1.5-.1.8-.1h40.8v3.8zM196.2 318.7h50.5c.5 0 .9-.2 1.2-.5.3-.3.5-.8.5-1.2v-7.4c0-.5-.2-.9-.5-1.2-.3-.3-.8-.5-1.2-.5h-50.5c-1.4 0-2.8.6-3.8 1.6s-1.6 2.4-1.6 3.8.6 2.8 1.6 3.8c.9 1.1 2.3 1.6 3.8 1.6zm48.7-3.4h-48.8c-.5 0-1-.2-1.4-.6-.4-.4-.6-.9-.6-1.4 0-.5.2-1 .6-1.4.4-.4.9-.6 1.4-.6h48.8v4z"/><path class="st11" d="M205.9 356.6h.4c.2 0 .4-.1.6-.3.2-.1.3-.3.5-.5.1-.2.2-.4.2-.6v-.7l-8-37.9c0-.2-.1-.4-.3-.6-.1-.2-.3-.4-.5-.5l-.6-.3h-.7c-.2 0-.4.1-.6.3-.2.1-.3.3-.5.5-.1.2-.2.4-.2.6v.7l8 37.9c.1.4.3.7.6 1 .3.3.7.4 1.1.4zM215.5 356.6h.3c.2 0 .4-.1.6-.2.2-.1.4-.3.5-.5l.3-.6c.1-.2.1-.4 0-.7l-6.4-37.9c-.1-.5-.3-.9-.7-1.1-.4-.3-.8-.4-1.3-.3-.5.1-.9.3-1.1.7-.3.4-.4.8-.3 1.3l6.4 37.9c.1.4.3.8.6 1 .3.3.7.4 1.1.4zM225.1 356.6h.2c.5-.1.9-.3 1.1-.7.3-.4.4-.8.4-1.3l-4.7-37.9c-.1-.4-.3-.9-.7-1.1-.4-.3-.8-.4-1.3-.3-.4.1-.9.3-1.1.6-.3.4-.4.8-.4 1.3l4.7 37.9c.1.4.3.8.6 1.1.4.3.8.4 1.2.4zM234.7 356.6h.1c.5 0 .9-.3 1.2-.6.3-.3.4-.8.4-1.3l-3-37.9c0-.4-.3-.9-.6-1.2-.3-.3-.8-.4-1.2-.4-.5 0-.9.2-1.2.6-.3.3-.4.8-.4 1.2l3 37.9c0 .4.2.8.6 1.1.3.5.7.6 1.1.6z"/><path class="st24" d="M216.6 411.6c-6.2 0-11.3-5.1-11.3-11.3 0-6.2 5.1-11.3 11.3-11.3 6.2 0 11.3 5.1 11.3 11.3 0 6.2-5 11.3-11.3 11.3z"/><path class="st11" d="M216.6 413.3a13 13 0 0 0 7.2-2.2c2.1-1.4 3.8-3.5 4.8-5.8 1-2.4 1.2-5 .7-7.5s-1.7-4.9-3.6-6.7c-1.8-1.8-4.1-3.1-6.7-3.6-2.5-.5-5.1-.2-7.5.7a13 13 0 0 0-5.8 4.8c-1.4 2.1-2.2 4.7-2.2 7.2 0 3.5 1.4 6.8 3.8 9.2 2.5 2.5 5.9 3.9 9.3 3.9zm0-22.6c1.9 0 3.7.6 5.3 1.6 1.6 1.1 2.8 2.6 3.5 4.3.7 1.8.9 3.7.5 5.5-.4 1.9-1.3 3.6-2.6 4.9-1.3 1.3-3 2.3-4.9 2.6s-3.8.2-5.5-.5c-1.8-.7-3.2-2-4.3-3.5-1.1-1.6-1.6-3.4-1.6-5.3 0-2.5 1-5 2.8-6.8 1.8-1.8 4.3-2.8 6.8-2.8z"/><g class="st13"><path class="st14" d="M205.9 396.8l.4 1.3c.6 2.2 2 4.2 3.8 5.6 1.8 1.4 4.1 2.1 6.4 2.1s4.6-.8 6.4-2.1c1.8-1.4 3.2-3.4 3.8-5.6l.5-1.8c-.6-1.7-1.7-3.2-3-4.4H209c-1.4 1.3-2.5 3-3.1 4.9z"/></g><path class="st24" d="M252 400.3c0 2.8 1.1 5.6 3 7.7 1.9 2.1 4.6 3.4 7.4 3.6 2.8.2 5.7-.6 7.9-2.4 2.2-1.8 3.7-4.3 4.2-7.1.4-2.8-.2-5.7-1.8-8s-4-4-6.8-4.7c-2.8-.7-5.7-.3-8.2 1.1-2.5 1.4-4.3 3.7-5.2 6.4-.3 1-.5 2.2-.5 3.4z"/><path class="st11" d="M263.3 404.7c-2.4 0-4.4-2-4.4-4.4 0-2.4 2-4.4 4.4-4.4 2.4 0 4.4 2 4.4 4.4 0 2.4-2 4.4-4.4 4.4zM216.5 404.7c-2.4 0-4.4-2-4.4-4.4 0-2.4 2-4.4 4.4-4.4s4.4 2 4.4 4.4c-.1 2.4-2 4.4-4.4 4.4z"/><path class="st11" d="M263.3 413.3a13 13 0 0 0 7.2-2.2c2.1-1.4 3.8-3.5 4.8-5.8 1-2.4 1.2-5 .7-7.5s-1.7-4.9-3.6-6.7c-1.8-1.8-4.1-3.1-6.7-3.6-2.5-.5-5.1-.2-7.5.7-2.4 1-4.4 2.7-5.8 4.8s-2.2 4.7-2.2 7.2c0 3.5 1.4 6.8 3.8 9.2 2.6 2.5 5.9 3.9 9.3 3.9zm0-22.6c1.9 0 3.7.6 5.3 1.6 1.6 1.1 2.8 2.6 3.5 4.3.7 1.8.9 3.7.5 5.5-.4 1.9-1.3 3.6-2.6 4.9-1.3 1.3-3 2.3-4.9 2.6-1.9.4-3.8.2-5.5-.5-1.8-.7-3.2-2-4.3-3.5-1.1-1.6-1.6-3.4-1.6-5.3 0-2.5 1-5 2.8-6.8 1.8-1.8 4.3-2.8 6.8-2.8z"/><path class="st19" d="M251.2 386.8l1.2 4.3.5 1.9c.6 2.2 2 4.2 3.8 5.6 1.8 1.4 4.1 2.1 6.4 2.1 2.3 0 4.6-.8 6.4-2.1 1.8-1.4 3.2-3.4 3.8-5.6l.5-1.9 1.2-4.3h-23.8z"/><path class="st11" d="M263.2 402.4c2.7 0 5.3-.9 7.4-2.5 2.1-1.6 3.7-3.9 4.5-6.5l1.8-6.2c.1-.3.1-.5 0-.8s-.2-.5-.3-.7c-.2-.2-.4-.4-.6-.5-.2-.1-.5-.2-.8-.2h-24c-.3 0-.5.1-.8.2-.2.1-.4.3-.6.5-.2.2-.3.5-.3.7v.8l1.8 6.2c.7 2.6 2.3 4.9 4.5 6.5 2.1 1.6 4.7 2.5 7.4 2.5zm9.7-13.9l-1.1 4c-.5 1.9-1.7 3.5-3.2 4.7-1.5 1.2-3.4 1.8-5.4 1.8s-3.8-.6-5.4-1.8c-1.5-1.2-2.7-2.8-3.2-4.7l-1.1-4h19.4z"/><path class="st19" d="M204.4 386.8l1.2 4.3.5 1.9c.6 2.2 2 4.2 3.8 5.6 1.8 1.4 4.1 2.1 6.4 2.1 2.3 0 4.6-.8 6.4-2.1 1.8-1.4 3.2-3.4 3.8-5.6l.5-1.9 1.2-4.3h-23.8z"/><path class="st11" d="M216.5 402.4c2.7 0 5.3-.9 7.4-2.5 2.1-1.6 3.7-3.9 4.5-6.5l1.8-6.2c.1-.3.1-.5 0-.8 0-.3-.2-.5-.3-.7-.2-.2-.4-.4-.6-.5-.2-.1-.5-.2-.8-.2h-24c-.3 0-.5.1-.8.2-.2.1-.4.3-.6.5-.2.2-.3.5-.3.7v.8l1.8 6.2c.7 2.6 2.3 4.9 4.5 6.5 2.1 1.6 4.7 2.5 7.4 2.5zm9.7-13.9l-1.1 4c-.5 1.9-1.7 3.5-3.2 4.7-1.5 1.2-3.4 1.8-5.4 1.8-1.9 0-3.8-.6-5.4-1.8-1.5-1.2-2.7-2.8-3.2-4.7l-1.1-4h19.4z"/><g class="st13"><path class="st14" d="M275.2 386.8h-24l1.2 4.3H274l1.2-4.3z"/></g><g class="st13"><path class="st14" d="M204.4 386.8l1.2 4.3h21.6l1.2-4.3h-24z"/></g><path class="st24" d="M257.9 411.6c-6.2 0-11.3-5.1-11.3-11.3 0-6.2 5.1-11.3 11.3-11.3 6.2 0 11.3 5.1 11.3 11.3 0 6.2-5 11.3-11.3 11.3z"/><path class="st11" d="M257.9 413.3a13 13 0 0 0 7.2-2.2c2.1-1.4 3.8-3.5 4.8-5.8 1-2.4 1.2-5 .7-7.5s-1.7-4.9-3.6-6.7c-1.8-1.8-4.1-3.1-6.7-3.6-2.5-.5-5.1-.2-7.5.7a13 13 0 0 0-5.8 4.8c-1.4 2.1-2.2 4.7-2.2 7.2 0 3.5 1.4 6.8 3.8 9.2 2.5 2.5 5.9 3.9 9.3 3.9zm0-22.6c1.9 0 3.7.6 5.3 1.6 1.6 1.1 2.8 2.5 3.5 4.3.7 1.8.9 3.7.5 5.5-.4 1.9-1.3 3.6-2.6 4.9-1.3 1.3-3 2.3-4.9 2.6-1.9.4-3.8.2-5.5-.5-1.8-.7-3.2-2-4.3-3.5-1.1-1.6-1.6-3.4-1.6-5.3 0-2.5 1-5 2.8-6.8 1.8-1.8 4.3-2.8 6.8-2.8z"/><g class="st13"><path class="st14" d="M247.2 396.8l.4 1.3c.6 2.2 2 4.2 3.8 5.6 1.8 1.4 4.1 2.1 6.4 2.1 2.3 0 4.6-.8 6.4-2.1 1.8-1.4 3.2-3.4 3.8-5.6l.5-1.8c-.6-1.7-1.7-3.2-3-4.4h-15.2c-1.4 1.3-2.5 3-3.1 4.9z"/></g><path class="st24" d="M293.3 400.3c0 2.8 1.1 5.6 3 7.7 1.9 2.1 4.6 3.4 7.4 3.6 2.8.2 5.6-.6 7.9-2.4 2.2-1.8 3.7-4.3 4.2-7.1.4-2.8-.2-5.7-1.8-8-1.6-2.4-4-4-6.8-4.7-2.8-.7-5.7-.3-8.2 1.1-2.5 1.4-4.3 3.7-5.2 6.4-.3 1-.5 2.2-.5 3.4z"/><path class="st11" d="M304.6 404.7c-2.4 0-4.4-2-4.4-4.4 0-2.4 2-4.4 4.4-4.4 2.4 0 4.4 2 4.4 4.4 0 2.4-2 4.4-4.4 4.4zM257.8 404.7c-2.4 0-4.4-2-4.4-4.4 0-2.4 2-4.4 4.4-4.4 2.4 0 4.4 2 4.4 4.4-.1 2.4-2 4.4-4.4 4.4z"/><path class="st11" d="M304.6 413.3c2.6 0 5.1-.8 7.2-2.2s3.8-3.5 4.8-5.8c1-2.4 1.2-5 .7-7.5s-1.7-4.9-3.6-6.7c-1.8-1.8-4.1-3.1-6.7-3.6-2.5-.5-5.1-.2-7.5.7a13 13 0 0 0-5.8 4.8c-1.4 2.1-2.2 4.7-2.2 7.2 0 3.5 1.4 6.8 3.8 9.2 2.6 2.5 5.9 3.9 9.3 3.9zm0-22.6c1.9 0 3.7.6 5.3 1.6 1.6 1.1 2.8 2.6 3.5 4.3.7 1.8.9 3.7.5 5.5-.4 1.9-1.3 3.6-2.6 4.9-1.3 1.3-3 2.3-4.9 2.6-1.9.4-3.8.2-5.5-.5-1.8-.7-3.2-2-4.3-3.5-1.1-1.6-1.6-3.4-1.6-5.3 0-2.5 1-5 2.8-6.8 1.9-1.8 4.3-2.8 6.8-2.8z"/><path class="st19" d="M292.5 386.8l1.2 4.3.5 1.9c.6 2.2 2 4.2 3.8 5.6 1.8 1.4 4.1 2.1 6.4 2.1 2.3 0 4.6-.8 6.4-2.1 1.8-1.4 3.2-3.4 3.8-5.6l.5-1.9 1.2-4.3h-23.8z"/><path class="st11" d="M304.5 402.4c2.7 0 5.3-.9 7.4-2.5 2.1-1.6 3.7-3.9 4.5-6.5l1.8-6.2c.1-.3.1-.5 0-.8s-.2-.5-.3-.7c-.2-.2-.4-.4-.6-.5-.2-.1-.5-.2-.8-.2h-24c-.3 0-.5.1-.8.2-.2.1-.4.3-.6.5-.2.2-.3.5-.3.7v.8l1.8 6.2c.7 2.6 2.3 4.9 4.5 6.5 2.1 1.6 4.7 2.5 7.4 2.5zm9.7-13.9l-1.1 4c-.5 1.9-1.7 3.5-3.2 4.7-1.6 1.2-3.4 1.8-5.4 1.8-1.9 0-3.8-.6-5.4-1.8-1.5-1.2-2.7-2.8-3.2-4.7l-1.1-4h19.4z"/><path class="st19" d="M245.8 386.8l1.2 4.3.5 1.9c.6 2.2 2 4.2 3.8 5.6 1.8 1.4 4.1 2.1 6.4 2.1 2.3 0 4.6-.8 6.4-2.1 1.8-1.4 3.2-3.4 3.8-5.6l.5-1.9 1.2-4.3h-23.8z"/><path class="st11" d="M257.8 402.4c2.7 0 5.3-.9 7.4-2.5 2.1-1.6 3.7-3.9 4.5-6.5l1.8-6.2c.1-.3.1-.5 0-.8s-.2-.5-.3-.7c-.2-.2-.4-.4-.6-.5-.2-.1-.5-.2-.8-.2h-24c-.3 0-.5.1-.8.2-.2.1-.4.3-.6.5-.2.2-.3.5-.3.7v.8l1.8 6.2c.7 2.6 2.3 4.9 4.5 6.5 2.1 1.6 4.7 2.5 7.4 2.5zm9.7-13.9l-1.1 4c-.5 1.9-1.7 3.5-3.2 4.7-1.5 1.2-3.4 1.8-5.4 1.8-1.9 0-3.8-.6-5.4-1.8-1.5-1.2-2.7-2.8-3.2-4.7l-1.1-4h19.4z"/><path class="st19" d="M231.7 313.3c0 1 .4 1.9 1.1 2.6.7.7 1.6 1.1 2.6 1.1h75.9l-.7 20.7c-.2 5.2.7 10.5 2.7 15.3l.8 1.9h-70.6c-.5 0-1 .1-1.4.3s-.9.5-1.2.8c-.3.3-.6.8-.8 1.2-.2.5-.3.9-.3 1.4 0 .5.1 1 .3 1.4.2.5.5.9.8 1.2.3.3.8.6 1.2.8s.9.3 1.4.3H317l3.7 9.3c1 2.5-.1 4.6-.6 5.3-.5.8-2 2.5-4.7 2.5h-78.5c-2 0-3.7 1.5-3.8 3.4 0 .5 0 1 .2 1.5s.4.9.8 1.3c.3.4.8.7 1.2.9.5.2 1 .3 1.5.3h78.6c9.2 0 15.6-9.3 12.1-17.9l-7.5-18.6c-1.6-3.9-2.3-8.1-2.2-12.3l.8-24.2c.2-6.4 2.4-12.5 6.3-17.5l1.1-1.4 8-10.4.5-.6h-9.4l-.4.6-5.5 7.3c-.8 1-1.5 2-2.2 3.1-2.8 4.5-4.7 9.6-5.4 14.9h-76.3c-.5 0-1 .1-1.4.3-.4.2-.9.5-1.2.8-.3.3-.6.7-.8 1.2s-.2.7-.2 1.2z"/><g class="st13"><path class="st14" d="M316.5 386.8h-24l1.2 4.3h21.6l1.2-4.3z"/></g><g class="st13"><path class="st14" d="M245.8 386.8l1.2 4.3h21.6l1.2-4.3h-24z"/></g><path class="st19" d="M231.7 313.3c0 1 .4 1.9 1.1 2.6.7.7 1.6 1.1 2.6 1.1h75.9l-.7 20.7c-.2 5.2.7 10.5 2.7 15.3l.8 1.9h-70.6c-.5 0-1 .1-1.4.3s-.9.5-1.2.8c-.3.3-.6.8-.8 1.2-.2.5-.3.9-.3 1.4 0 .5.1 1 .3 1.4.2.5.5.9.8 1.2.3.3.8.6 1.2.8s.9.3 1.4.3H317l3.7 9.3c1 2.5-.1 4.6-.6 5.3-.5.8-2 2.5-4.7 2.5h-78.5c-2 0-3.7 1.5-3.8 3.4 0 .5 0 1 .2 1.5s.4.9.8 1.3c.3.4.8.7 1.2.9.5.2 1 .3 1.5.3h78.6c9.2 0 15.6-9.3 12.1-17.9l-7.5-18.6c-1.6-3.9-2.3-8.1-2.2-12.3l.8-24.2c.2-6.4 2.4-12.5 6.3-17.5l1.1-1.4 8-10.4.5-.6h-9.4l-.4.6-5.5 7.3c-.8 1-1.5 2-2.2 3.1-2.8 4.5-4.7 9.6-5.4 14.9h-76.3c-.5 0-1 .1-1.4.3-.4.2-.9.5-1.2.8-.3.3-.6.7-.8 1.2s-.2.7-.2 1.2z"/><g class="st13"><path class="st14" d="M321.9 367.9l-2.5-6.3c-.4-.9-1-1.6-1.8-2.2-.8-.5-1.7-.8-2.7-.8h-70.3c-.8 0-1.7-.3-2.3-.8-.7-.5-1.1-1.3-1.3-2.1-.6.5-1 1.1-1.2 1.9-.2.7-.2 1.5.1 2.2.3.7.7 1.3 1.3 1.8.6.4 1.4.7 2.1.7h73.5l3.7 9.3c.3.6.4 1.3.4 2 .1-.1.2-.3.3-.4.7-.7 1.7-2.7.7-5.3z"/></g><g class="st13"><path class="st14" d="M233.1 382.8c0 .5 0 1 .2 1.5s.4.9.8 1.3c.3.4.8.7 1.2.9.5.2 1 .3 1.5.3h78.6c6.6 0 11.7-4.8 12.8-10.7-2.1 4.1-6.4 7-11.6 7H238c-.8 0-1.6-.3-2.3-.8-.7-.5-1.1-1.2-1.3-2.1-.4.3-.7.7-.9 1.1-.2.5-.4 1-.4 1.5z"/></g><g class="st13"><path class="st14" d="M231.7 313.3c0 1 .4 1.9 1.1 2.6.7.7 1.6 1.1 2.6 1.1h75.9l-.7 20.7c-.2 4.6.5 9.2 2 13.6h1.4l-.8-1.7c-2-4.9-1.6-10.2-1.4-15.5l.6-17.4c0-.4-.1-.8-.2-1.2-.2-.4-.4-.8-.7-1.1-.3-.3-.6-.5-1-.7-.4-.2-.8-.3-1.2-.3h-72.6c-.8 0-1.7-.3-2.3-.8-.7-.5-1.1-1.3-1.3-2.1-.4.3-.8.8-1 1.3-.3.4-.4 1-.4 1.5z"/></g><path class="st11" d="M236.8 388.5h78.6c2.4 0 4.8-.6 6.9-1.7 2.1-1.1 4-2.8 5.3-4.8 1.4-2 2.2-4.3 2.5-6.7.3-2.4-.1-4.8-1-7.1l-7.5-18.6c-1.5-3.7-2.2-7.6-2-11.6l.8-24.2c.2-6 2.3-11.8 6-16.5l9.6-12.4c.2-.3.3-.6.4-.9 0-.3 0-.6-.2-.9s-.4-.5-.6-.7c-.3-.2-.6-.3-.9-.3h-9.4c-.3 0-.5.1-.8.2-.2.1-.4.3-.6.5l-6 7.9c-3.9 5.1-6.6 11-7.7 17.3h-74.9c-1.4 0-2.7.6-3.7 1.6s-1.5 2.4-1.5 3.8.5 2.8 1.5 3.8 2.3 1.6 3.7 1.6h74.1l-.7 18.9c-.2 5.3.7 10.6 2.6 15.6h-68c-1.4 0-2.8.6-3.8 1.6s-1.6 2.4-1.6 3.8.6 2.8 1.6 3.8 2.4 1.6 3.8 1.6h72.4l3.3 8.2c.2.6.3 1.3.3 1.9-.1.6-.3 1.3-.7 1.8-.4.5-.9 1-1.4 1.3-.6.3-1.2.5-1.9.5h-78.5c-2.9 0-5.3 2.2-5.5 5-.1.8.1 1.5.3 2.3.3.7.7 1.4 1.2 1.9s1.1.9 1.8 1.2c.8.1 1.5.3 2.2.3zm94.4-103l-7.5 9.6c-4.1 5.3-6.5 11.8-6.7 18.5l-.8 24.2c-.2 4.5.6 8.9 2.3 13l7.5 18.6c.7 1.7.9 3.6.7 5.4-.2 1.8-.8 3.6-1.9 5.1-1 1.5-2.4 2.8-4.1 3.7-1.6.9-3.5 1.3-5.3 1.3h-78.6c-.3 0-.5-.1-.8-.2-.2-.1-.5-.3-.7-.5-.2-.2-.3-.4-.4-.7-.1-.3-.1-.5-.1-.8.1-1 1-1.8 2.1-1.8h78.5c3.6 0 5.5-2.3 6.1-3.3.7-1 2.1-3.6.7-6.9l-3.7-9.3c-.1-.3-.3-.6-.6-.8-.3-.2-.6-.3-1-.3h-73.5c-.5 0-1-.2-1.4-.6-.4-.4-.6-.9-.6-1.4 0-.5.2-1 .6-1.4.4-.4.9-.6 1.4-.6H314c.3 0 .6-.1.8-.2.2-.1.5-.3.6-.6.2-.2.3-.5.3-.8s0-.6-.1-.8l-.8-1.9c-1.9-4.6-2.7-9.6-2.6-14.6l.7-20.7c0-.2 0-.5-.1-.7s-.2-.4-.4-.6c-.2-.2-.4-.3-.6-.4-.2-.1-.4-.1-.7-.1h-75.9c-.5 0-1-.2-1.4-.6-.4-.4-.6-.9-.6-1.4 0-.5.2-1 .6-1.4s.9-.6 1.4-.6h76.3c.4 0 .8-.2 1.1-.4.3-.3.5-.7.6-1.1.9-6.2 3.3-12.2 7.2-17.1l5.5-7.2h5.3z"/><path class="st11" d="M243.4 356.6h.4c.2 0 .4-.1.6-.3.2-.1.3-.3.5-.5.1-.2.2-.4.2-.6v-.7l-8-37.9c0-.2-.1-.4-.3-.6-.1-.2-.3-.4-.5-.5l-.6-.3h-.7c-.2 0-.4.1-.6.3-.2.1-.3.3-.5.5-.1.2-.2.4-.2.6v.7l8 37.9c.1.4.3.7.6 1 .3.3.7.4 1.1.4zM253 356.6h.3c.2 0 .4-.1.6-.2.2-.1.4-.3.5-.5l.3-.6c.1-.2.1-.4 0-.7l-6.4-37.9c-.1-.4-.3-.8-.7-1.1-.4-.3-.8-.4-1.3-.3-.4.1-.8.3-1.1.7-.3.4-.4.8-.3 1.3l6.4 37.9c.1.4.3.8.6 1 .3.3.7.4 1.1.4zM262.6 356.6h.2c.5-.1.9-.3 1.1-.7.3-.4.4-.8.4-1.3l-4.7-37.9c-.1-.4-.3-.9-.7-1.1-.4-.3-.8-.4-1.3-.3-.4.1-.9.3-1.1.6-.3.4-.4.8-.4 1.3l4.7 37.9c.1.4.3.8.6 1.1.4.3.8.4 1.2.4zM272.3 356.6h.1c.5 0 .9-.3 1.2-.6.3-.3.4-.8.4-1.3l-3-37.9c0-.4-.3-.9-.6-1.2-.3-.3-.8-.4-1.2-.4-.5 0-.9.2-1.2.6-.3.3-.4.8-.4 1.2l3 37.9c0 .4.2.8.6 1.1.2.5.6.6 1.1.6zM281.9 356.6c.5 0 1-.2 1.3-.5.3-.3.5-.8.5-1.2l-1.4-37.9c0-.2-.1-.5-.1-.7-.1-.2-.2-.4-.4-.6-.2-.2-.4-.3-.6-.4-.2-.1-.4-.1-.7-.1-.2 0-.5.1-.7.2-.2.1-.4.2-.5.4-.2.2-.3.4-.4.6s-.1.4-.1.7l1.4 37.9c0 .4.2.9.5 1.2.3.3.7.4 1.2.4zM291.5 356.6c.5 0 .9-.2 1.2-.5.3-.3.5-.8.5-1.2l.3-37.9c0-.5-.2-.9-.5-1.2-.3-.3-.8-.5-1.2-.5-.5 0-.9.2-1.2.5-.3.3-.5.8-.5 1.2l-.3 37.9c0 .2 0 .5.1.7.1.2.2.4.4.6.2.2.3.3.6.4h.6zM301.1 356.6c.4 0 .9-.2 1.2-.5.3-.3.5-.7.5-1.2l1.9-37.9c0-.2 0-.5-.1-.7l-.3-.6c-.2-.2-.3-.3-.5-.4-.2-.1-.4-.2-.7-.2s-.5 0-.7.1-.4.2-.6.4c-.2.2-.3.3-.4.6-.1.2-.1.4-.2.7l-1.9 37.9c0 .5.1.9.4 1.2.5.4.9.6 1.4.6z"/><path class="st19" d="M202.8 338h34.1c.6 0 1.2-.3 1.7-.7.5-.5.7-1.1.7-1.7 0-.3-.1-.6-.2-.9-.1-.3-.3-.6-.5-.8-.2-.2-.5-.4-.8-.5-.3-.1-.6-.2-.9-.2h-34.1c-.6 0-1.2.3-1.7.7-.5.5-.7 1.1-.7 1.7 0 .6.3 1.2.7 1.7.5.5 1.1.7 1.7.7z"/><g class="st13"><path class="st14" d="M200.4 335.6c0 .6.3 1.2.7 1.7.5.5 1.1.7 1.7.7h34.1c.3 0 .6-.1.9-.2.3-.1.6-.3.8-.5.2-.2.4-.5.5-.8.1-.3.2-.6.2-.9 0-.4-.1-.8-.3-1.2-.2.4-.5.7-.9.9-.4.2-.8.3-1.2.3h-34.1c-.3 0-.6-.1-.9-.2-.3-.1-.6-.3-.8-.5-.2-.1-.3-.3-.4-.5-.2.4-.3.8-.3 1.2z"/></g><path class="st11" d="M202.8 339.8h34.1c1.1 0 2.1-.5 2.9-1.2.8-.8 1.2-1.8 1.2-2.9 0-1.1-.4-2.1-1.2-2.9-.8-.8-1.8-1.2-2.9-1.2h-34.1c-.5 0-1.1.1-1.6.3-.5.2-1 .5-1.4.9-.4.4-.7.8-.9 1.3s-.3 1-.3 1.6c0 .5.1 1.1.3 1.6s.5 1 .9 1.3c.4.4.9.7 1.4.9.5.2 1.1.3 1.6.3zm34.1-4.8c.2 0 .4.1.5.2.1.1.2.3.2.5s-.1.4-.2.5c-.1.1-.3.2-.5.2h-34.1c-.2 0-.4-.1-.5-.2-.1-.1-.2-.3-.2-.5s.1-.4.2-.5c.1-.1.3-.2.5-.2h34.1z"/><path class="st19" d="M241.7 338h66.5c.6 0 1.2-.3 1.7-.7.5-.5.7-1.1.7-1.7 0-.6-.3-1.2-.7-1.7-.5-.5-1.1-.7-1.7-.7h-66.5c-.6 0-1.2.3-1.7.7-.5.5-.7 1.1-.7 1.7 0 .3.1.6.2.9.1.3.3.6.5.8.2.2.5.4.8.5.3.2.6.2.9.2z"/><g class="st13"><path class="st14" d="M239.3 335.6c0 .6.3 1.2.7 1.7.5.5 1.1.7 1.7.7h66.5c.6 0 1.2-.3 1.7-.7.5-.5.7-1.1.7-1.7 0-.4-.1-.8-.3-1.2-.2.4-.5.7-.9.9-.4.2-.8.3-1.2.3h-66.5c-.3 0-.6-.1-.9-.2-.3-.1-.6-.3-.8-.5-.2-.1-.3-.3-.4-.5-.2.4-.3.8-.3 1.2z"/></g><path class="st11" d="M241.7 339.8h66.5c1.1 0 2.1-.5 2.9-1.2s1.2-1.8 1.2-2.9c0-1.1-.4-2.1-1.2-2.9-.8-.8-1.8-1.2-2.9-1.2h-66.5c-.5 0-1.1.1-1.6.3-.5.2-1 .5-1.4.9-.4.4-.7.8-.9 1.3-.2.5-.3 1-.3 1.6 0 .5.1 1.1.3 1.6.2.5.5 1 .9 1.3.4.4.9.7 1.4.9.5.2 1.1.3 1.6.3zm66.5-4.8c.2 0 .4.1.5.2.1.1.2.3.2.5s-.1.4-.2.5c-.1.1-.3.2-.5.2h-66.5c-.2 0-.4-.1-.5-.2-.1-.1-.2-.3-.2-.5s.1-.4.2-.5c.1-.1.3-.2.5-.2h66.5z"/><g class="st13"><path class="st14" d="M317.1 294.8h9.1l8-10.4h-9.4l-5.5 7.3c-.8 1-1.5 2-2.2 3.1z"/></g><path class="st25" d="M274.2 282.8c0 1.4.5 2.7 1.5 3.7s2.3 1.5 3.7 1.5h60.8v-10.4h-60.8c-.7 0-1.4.1-2 .4-.6.3-1.2.6-1.7 1.1-.5.5-.9 1.1-1.1 1.7-.3.6-.4 1.3-.4 2z"/><g class="st17"><path class="st18" d="M274.2 282.8c0 .5.1.9.2 1.4.3-1.1 1-2.1 1.9-2.8.9-.7 2-1.1 3.1-1.1h60.8v-2.7h-60.8c-.7 0-1.4.1-2 .4-.6.3-1.2.6-1.7 1.1-.5.5-.9 1.1-1.1 1.7-.3.6-.4 1.3-.4 2z"/></g><g class="st13"><path class="st14" d="M274.2 282.8c0 .7.1 1.4.4 2 .3.6.6 1.2 1.1 1.7.5.5 1.1.9 1.7 1.1.6.3 1.3.4 2 .4h60.8v-4.6h-60.8c-1 0-1.9-.3-2.7-.8-.8-.5-1.5-1.2-1.9-2.1-.5.7-.6 1.5-.6 2.3z"/></g><path class="st11" d="M279.3 289.7h60.8c.5 0 .9-.2 1.2-.5.3-.3.5-.8.5-1.2v-10.4c0-.5-.2-.9-.5-1.2-.3-.3-.8-.5-1.2-.5h-60.8c-1.8 0-3.6.8-4.8 2.1-1.3 1.3-2 3-2 4.9 0 1.8.7 3.6 2 4.9 1.3 1.1 3 1.9 4.8 1.9zm59.1-3.5h-59c-.9 0-1.8-.4-2.4-1-.6-.6-1-1.5-1-2.4 0-.9.4-1.8 1-2.4.6-.6 1.5-1 2.4-1h59v6.8z"/><path class="st25" d="M340.1 288c-2.9 0-5.2-2.3-5.2-5.2s2.3-5.2 5.2-5.2 5.2 2.3 5.2 5.2-2.3 5.2-5.2 5.2z"/><g class="st13"><path class="st14" d="M334.9 282.8c0 .8.2 1.5.5 2.2s.8 1.3 1.4 1.8c.6.5 1.3.8 2 1 .7.2 1.5.2 2.3.1.8-.1 1.5-.5 2.1-.9.6-.5 1.1-1 1.5-1.7.4-.7.6-1.4.6-2.2 0-.8-.1-1.5-.4-2.2-.4 1-1.1 1.8-1.9 2.3-.9.6-1.9.9-2.9.9s-2-.3-2.9-.9c-.9-.6-1.5-1.4-1.9-2.3-.3.5-.4 1.2-.4 1.9z"/></g><path class="st11" d="M340.1 289.7c1.4 0 2.7-.4 3.8-1.2 1.1-.8 2-1.8 2.5-3.1s.7-2.7.4-4c-.3-1.3-.9-2.6-1.9-3.5s-2.2-1.6-3.5-1.9c-1.3-.3-2.7-.1-4 .4-1.3.5-2.3 1.4-3.1 2.5-.8 1.1-1.2 2.5-1.2 3.8 0 1.8.7 3.6 2 4.9 1.4 1.4 3.2 2.1 5 2.1zm0-10.4c.7 0 1.4.2 1.9.6.6.4 1 .9 1.3 1.6s.3 1.3.2 2c-.1.7-.5 1.3-.9 1.8-.5.5-1.1.8-1.8.9-.7.1-1.4.1-2-.2-.6-.3-1.2-.7-1.6-1.3-.4-.6-.6-1.2-.6-1.9 0-.9.4-1.8 1-2.4.7-.7 1.6-1.1 2.5-1.1z"/><path class="st9" d="M301.6 277.6s-2.1 1.4-3.6 7.5c-.8 3.5-21 5.8-25.1-.3-3.7-5.6-1-15.7 6.9-18.8 7.4-2.8 29.9-2.8 34.8 11.1l-13 .5z"/><g class="st13"><path class="st14" d="M271.6 281.6c.3 1.2.7 2.2 1.4 3.2 4.1 6.1 24.2 3.9 25.1.3 1.5-6.2 3.6-7.5 3.6-7.5l7.5-.2c-3.2-2.2-7.1-4.4-9.4-3.7-2.9.9-2.7 2.9-4.8 8.5-1.5 3.5-17.5 3.8-23.4-.6z"/></g><path class="st11" d="M285.1 290.3c2.3 0 4.6-.2 6.9-.6 4.7-.8 7.2-2.2 7.7-4.2.7-2.9 1.5-4.6 2.1-5.5.1-.2.3-.4.6-.6.2-.1.5-.2.8-.2l5.9-.2c1 0 1.9-.3 2.7-.9.8-.6 1.4-1.3 1.8-2.2.4-.9.5-1.9.3-2.8-.2-1-.6-1.8-1.3-2.6-8.5-9-26.5-8.8-33.3-6.1-4.2 1.6-7.4 5.1-8.9 9.7-1.3 4.2-.9 8.5 1.2 11.6 2.2 3.5 8 4.6 13.5 4.6zm11.3-5.7c-.8.9-5.8 2.4-12 2.3-5-.1-8.8-1.3-10-3-1.5-2.2-1.8-5.5-.8-8.7 1.1-3.5 3.6-6.3 6.8-7.5 5.4-2.1 22-2.8 29.6 5.3.2.2.4.5.4.8.1.3 0 .6-.1.9-.1.3-.3.5-.6.7-.3.2-.6.3-.9.3l-5.9.2c-.8 0-1.6.3-2.4.7-.7.4-1.3 1-1.8 1.7-.8 1.5-1.7 3.7-2.3 6.3z"/><path class="st9" d="M348.2 285.5s-.9-9.8-8.5-10c-7.6-.3-7.4 8.5-9 10.8-1.7 2.2-14.9 2.6-19.7 1.6-6.1-1.3-11.5-16 8.6-21.3 21.3-5.6 38.6 10.5 50.7 7.1 9.1-2.5 11.2-15.9 11.2-15.9l11.7 26.6-45 1.1z"/><g class="st13"><path class="st14" d="M305.4 279.5c0 4.1 2.7 7.7 5.6 8.3 4.8 1 18.1.6 19.7-1.6 1.7-2.2 1.4-11 9-10.8 7.6.3 8.5 10.1 8.5 10.1 1 0 .8-.8.6-1.8-1.6-5.7-4-12.3-9.8-12.1-7.6.2-9 6.7-10.7 8.9-1.7 2.2-13.9 3.3-18.7 2.3-1.6-.2-3.2-1.5-4.2-3.3z"/></g><path class="st11" d="M380.8 257.6c-1.4 2.9-2.7 5.7-4.2 8.2-1.6 2.5-3.5 4.7-6 5.7-1.2.5-2.6.8-4 .8s-2.9-.2-4.4-.5c-3-.6-6-1.7-9-2.7-3-1-6.1-2.1-9.2-3.1-3.1-.9-6.3-1.7-9.7-2.1-6.6-.9-13.5-.2-19.7 2.4-1.6.6-3.1 1.4-4.6 2.4-1.4 1-2.8 2.2-3.9 3.6-1.1 1.5-1.9 3.2-2.3 5-.4 1.9-.2 3.8.3 5.6.6 1.8 1.6 3.5 3.1 4.8.8.7 1.7 1.2 2.7 1.5.3.1.6.2.8.2.2 0 .4.1.7.1.4.1.9.1 1.3.2 3.3.3 6.6.3 9.9.1 1.7-.1 3.3-.3 5-.6.9-.2 1.8-.4 2.6-.7.5-.2 1-.4 1.6-1 .3-.3.5-.6.7-.9.1-.2.2-.5.3-.7.4-.9.5-1.7.8-2.5.2-.8.4-1.5.7-2.2.5-1.4 1.2-2.5 2.1-3.2.9-.7 2-1 3.4-1 1.2 0 2.4.5 3.4 1.3.9.8 1.7 1.8 2.4 3.1.7 1.2 1.4 2.6 2.2 4 .1.1.2.2.3.2s.2.1.3.1c.1 0 .2-.1.3-.1.1-.1.2-.2.2-.3.2-.9.3-1.8.2-2.6-.1-.9-.2-1.8-.5-2.6-.6-1.7-1.6-3.4-3.2-4.6-.8-.6-1.7-1.1-2.6-1.4-.9-.3-1.9-.5-2.9-.5s-2 .1-2.9.3c-1 .3-1.9.7-2.7 1.4-.8.6-1.4 1.4-2 2.2-.5.8-.9 1.6-1.2 2.5-.3.8-.5 1.6-.8 2.4-.2.8-.4 1.5-.7 2.1 0 .1-.1.2-.2.4 0 .1-.1.2 0 .1-.1.1-.3.2-.5.2-.6.2-1.3.4-2 .5-1.5.3-3 .5-4.6.5-3.1.2-6.3.2-9.3-.1-.4 0-.7-.1-1.1-.1-.2 0-.4-.1-.5-.1-.2 0-.3-.1-.4-.1-.5-.2-1-.5-1.5-.9-.9-.8-1.7-2-2.1-3.2-.4-1.3-.5-2.6-.2-3.9.3-1.3.8-2.6 1.7-3.6.8-1.1 1.9-2 3.1-2.9 1.2-.8 2.6-1.5 3.9-2.1 5.6-2.3 11.9-3 18-2.1 3.1.4 6.1 1.1 9.1 2 3 .9 6 1.9 9 3s6.1 2.1 9.4 2.8c1.6.3 3.4.6 5.1.6 1.8 0 3.6-.2 5.4-.9 1.7-.7 3.3-1.7 4.6-3 .6-.6 1.2-1.3 1.7-2s1-1.5 1.4-2.2c.8-1.5 1.4-3.1 1.8-4.8.4-1.7.6-3.3.4-5 0-.1-.1-.2-.2-.3-.1-.1-.2-.2-.3-.2-.1 0-.3 0-.4.1.1.2 0 .3-.1.4z"/><path class="st23" d="M270.6 279.2c1.2 1.5.7 3-.6 4.6-1.9 2.4-5.7 4.7-8.4 6.4h4.9s14.4-2.6 19.8-9.1c.3-.4.6-.8.9-1.3 3-5.4.1-14.3-12.9-16-8.7-1.2-13.9 7.9-16.7 15.7-1.2 3.5-2.2 7-2.8 10.7h4c.8-3.5 2.8-7.6 5.1-10.2 2.2-2.3 4.7-3.3 6.7-.8z"/><g class="st13"><path class="st14" d="M254.9 290.2h4c.8-3.5 2.8-7.6 5.1-10.2-.7.3-1.5.5-1.8.2-.6-.4.7-2.7.2-3.3-.5-.6-3.5 2-4 3.1-.2.3-.4 0-.7-.6-1.3 3.6-2.2 7.2-2.8 10.8z"/></g><g class="st13"><path class="st14" d="M261.7 290.2h4.9s14.4-2.6 19.8-9.1c.3-.4.6-.8.9-1.3-.4-.1-.9-1.8-.9-1.8s-2.5 2.7-3.6 2.4c-.7-.2-.4-1.6-.2-3.1.3-2.4-.3-3.7-.9-3.8-.6-.1-.6 2.8-2.2 5-1.5 2.1-3.8 2.3-3.7 1 .1-3.5-.9-4.7-1.7-1.5-.6 2.7-.9 4.2-4 5.8-2 2.4-5.8 4.8-8.4 6.4z"/></g><path class="st11" d="M254.8 292h4c.3 0 .5-.1.8-.2.2-.1.5-.3.6-.5.2.2.4.4.6.5.2.1.5.2.8.2h5.2c.6-.1 15.1-2.8 20.8-9.7 2.4-2.9 3-6.9 1.6-10.6-2-5.1-7.3-8.5-14.7-9.5-16.6-2.2-21.2 26.6-21.4 27.8v.7c.1.2.2.5.3.7.2.2.4.3.6.4.4.1.6.2.8.2zm13.1-12.5c.3 0 .8.1 1.3.9.3.4.3.7.3.9-.4 2.2-5.5 5.5-8.3 7.3l-.1.1c1.5-4.4 4.4-8.6 6.5-9 .1-.2.2-.2.3-.2zm-10.4 9h-.6c1.3-6.2 6.1-24.4 17.2-23 6.1.8 10.4 3.5 11.9 7.3 1 2.5.6 5.3-1 7.2-3.9 4.7-13.4 7.3-17.2 8.2 2.5-1.9 4.7-4.1 5.1-6.4.2-1.3-.1-2.6-1-3.6-1.4-1.7-3.2-2.5-5.1-2-4.3.9-7.8 7.5-9.3 12.3z"/><g class="st21"><path class="st22" d="M279.7 269.7c-.6-1.8-2.9-2.6-6-3.1-2.2-.3-7.4 1.8-7 2.9.4 1.1 2.9.4 7.2.7 1.9.2 6.6 1.6 5.8-.5z"/></g><path class="st23" d="M266.3 293.1c.3 2.8-1.1 7.6-1.9 12-1.5 8.8-.2 13.9-.2 13.9s3.5-2.1 7.5-2.4c3-.2 7.6 2.2 7.9 2.3-2.9-2.6-.6-10 1-16.8 1.2-5.1 2.1-9.8 0-11.9-7.5-7.7-20.5 0-20.5 0s4-.7 5.6 1.1c.3.5.5 1.1.6 1.8z"/><g class="st21"><path class="st22" d="M260.1 290.2s3.6-.6 5.3.9c4.5-1.4 10.8-2.2 15.2 2.3.6.6 1 1.5 1.1 2.6.3-2.5 0-4.6-1.1-5.8-7.5-7.7-20.5 0-20.5 0z"/></g><g class="st13"><path class="st14" d="M264.2 319s3.5-2.1 7.5-2.4c3-.2 7.6 2.2 7.9 2.3-2.9-2.6-.6-10 1-16.8-3.2 2.4-3.9 8.7-6 8.2-2.6-.6.7-11-.7-13.7-1-1.9-.7 13.1-5.1 13.5-2.8.2-2-8.9-1.4-12.5.4-2-.4-3.6-1.1-4.6.3 2.8-1.1 7.6-1.9 12-1.5 8.9-.2 14-.2 14z"/></g><path class="st11" d="M264.2 320.7c.3 0 .6-.1.9-.3 0 0 3.1-1.9 6.7-2.1 2.1-.1 5.8 1.5 7 2.2.4.2.8.2 1.2.1.4-.1.8-.4 1-.7.2-.3.3-.8.3-1.2-.1-.4-.3-.8-.6-1.1-1.8-1.6-.3-7.8 1-12.8 1.6-6.6 3.2-12.8.2-15.9-8.4-8.6-22.1-.6-22.7-.3-.3.2-.6.5-.7.9-.1.4-.1.8 0 1.2.1.4.4.7.8.9.3.2.8.3 1.2.2 1.3-.2 3.4-.2 4 .5.7.8-.2 5.5-.8 8.2-.3 1.4-.6 2.8-.8 4.1-1.6 9-.2 14.4-.2 14.6.1.4.3.7.6.9.2.5.5.6.9.6zm7.8-5.8h-.4c-2.4.1-4.6.8-6.1 1.5-.2-2.2-.3-6 .6-11 .2-1.3.5-2.7.8-4 1.1-5.1 1.9-9.1 0-11.2-.2-.3-.5-.5-.8-.7 4-1.2 9.5-1.9 13.2 1.9 1.7 1.7.2 7.8-1 12.7-1.1 4.3-2.1 8.5-1.8 11.7-1.4-.5-3-.9-4.5-.9z"/><path class="st26" d="M559.6 370c2.7-.7 4.2-3.5 3.5-6.1-.7-2.7-3.5-4.2-6.1-3.5s-4.2 3.5-3.5 6.1c.7 2.6 3.5 4.2 6.1 3.5z"/><path class="st27" d="M66 299.4c1.9-.4 3.4-.9 4.3-1.3.3-.2.5-.3.7-.4-.2-.1-.4-.2-.7-.4-1-.4-2.5-.7-4.4-.9-1.3-.1-2.5-.7-3.5-1.6-1-.9-1.6-2-1.9-3.3-.4-1.9-.9-3.4-1.3-4.3-.2-.3-.3-.5-.4-.7-.1.2-.2.4-.4.7-.4 1-.7 2.5-1 4.4-.1 1.3-.7 2.5-1.6 3.5-.9 1-2 1.6-3.3 1.9-1.9.4-3.4.9-4.3 1.3-.3.2-.5.3-.7.4.2.1.4.2.7.4 1 .4 2.5.7 4.4 1l13.4-.7zm0 0c-1.3.3-2.4.9-3.3 1.9-.9 1-1.4 2.2-1.6 3.5-.2 1.9-.6 3.4-1 4.4-.1.3-.3.6-.4.7-.1-.2-.3-.4-.4-.7-.5-1-1-2.4-1.3-4.3m8-5.5l-8 5.5m.1-.1c-.3-1.3-.9-2.4-1.9-3.3m1.9 3.3l-1.9-3.3m0 0c-1-.9-2.2-1.4-3.5-1.6l3.5 1.6zm-8.9-3.1zm0 .5zM59 286.1zm-.4 0zm12.7 11.7zm0-.4zm-11.7 12.7zm.5 0z"/></svg>