<svg id="Camada_1" xmlns="http://www.w3.org/2000/svg" viewBox="0 0 513 500"><style>.st0{fill-rule:evenodd;clip-rule:evenodd;fill:#22a7f0;fill-opacity:.1}.st1{fill:#ffd527}.st2{fill:#e0e0e0}.st3{fill:#8dd7ff}.st4{fill:none;stroke:#ffd527;stroke-width:1.93}.st5{fill:#fff}.st6,.st7{opacity:.35}.st7{enable-background:new}.st7,.st8{fill:#371a45}.st9{fill:#22a7f0}.st10{fill:#848484}.st11,.st12{opacity:.7}.st12{fill:#fff;enable-background:new}.st13{opacity:.5}.st14,.st15{opacity:.5;fill:#fff;enable-background:new}.st15{opacity:.35;fill:#111a28}.st16{fill:#e2e2e2}.st17,.st18{opacity:.3}.st18{fill:#371a45;enable-background:new}.st19{fill:#999}.st20{fill:#945cc6}.st21{fill:#b8c5d3}.st22{fill:#102770}.st23{fill:#7a7a7a}.st24{fill:#00c9ff}.st25{fill:#ffce00}.st26{opacity:.3;fill:#102770;enable-background:new}.st27{fill:#fff5a4}</style><path class="st0" d="M372.3 237c1.8-9.7 2.7-19.8 2.7-30.1 0-91-73.8-164.7-164.8-164.7-91 0-164.8 73.7-164.8 164.7 0 9.9.9 19.7 2.6 29.1 6 2.5 11.3 6.2 15.6 10.7 6-10.8 17.3-18.9 30.9-21.6-.1-1-.2-2-.2-3.1 0-19.4 17.9-35.1 40-35.1 7.3 0 14.5 1.8 21 5.2 6.5-11.5 20.1-19.4 35.8-19.4 14.9 0 27.9 7.1 34.7 17.7 1.1 1.7 2.8 2.9 4.7 3.4l.4.1c2.1.7 4.4.6 6.4-.4 6.2-3.1 12.9-4.6 19.8-4.6 19.6 0 35.9 12.4 39.3 28.7 9.3.9 17.7 4.7 23.9 10.3 6.5-3.6 13.9-5.4 21.3-5.4 14.6.6 24.3 6.9 30.7 14.5z"/><path class="st1" d="M7.1 175.7c-.1.9 1.7 1.8 4.4 2.4.7.1 1.2.5 1.7 1 .4.5.7 1.1.8 1.8.2 2.7.9 4.6 1.8 4.6.9.1 1.8-1.7 2.3-4.4.1-.7.5-1.2 1-1.7.5-.4 1.1-.7 1.8-.8 2.7-.2 4.6-.9 4.6-1.8.1-.9-1.7-1.8-4.4-2.4-.7-.1-1.2-.5-1.7-1-.4-.5-.7-1.1-.8-1.8-.2-2.7-.9-4.6-1.8-4.6-.9-.1-1.8 1.7-2.3 4.4-.1.7-.5 1.2-1 1.7-.5.4-1.1.7-1.8.8-2.7.3-4.6 1-4.6 1.8z"/><path class="st2" d="M313.7 26.5c.1-1.8 1.6-3.2 3.4-3.1 1.8.1 3.2 1.6 3.1 3.4-.1 1.8-1.6 3.2-3.4 3.1s-3.1-1.6-3.1-3.4z"/><path class="st3" d="M352.9 77.6c-1.6-.8-2.3-2.7-1.5-4.4.8-1.6 2.7-2.3 4.4-1.5 1.6.8 2.3 2.7 1.5 4.4-.9 1.6-2.8 2.3-4.4 1.5zM65.1 30.2c-1.6-.8-2.3-2.7-1.5-4.4.8-1.6 2.7-2.3 4.4-1.5 1.6.8 2.3 2.7 1.5 4.4-.8 1.6-2.8 2.3-4.4 1.5zM409.3 59.1c-.9-.3-1.3-1.3-1-2.1.3-.9 1.3-1.3 2.1-1 .9.3 1.3 1.3 1 2.1-.3.9-1.2 1.3-2.1 1zM108.3 55.5c-.9-.4-1.3-1.5-.8-2.4.4-.9 1.5-1.3 2.4-.8.9.4 1.3 1.5.8 2.4-.5.9-1.6 1.3-2.4.8z"/><path class="st4" d="M393 275.7c-1.4-.6-2.5-1.1-3.1-1.7l-.6-.6c.2-.1.4-.2.8-.3.8-.2 2-.2 3.5-.1 1 .1 1.9-.2 2.7-.7.8-.5 1.5-1.3 1.8-2.1.6-1.4 1.1-2.5 1.7-3.1l.6-.6c.1.2.2.4.3.8.2.8.2 2 .1 3.5-.1 1 .2 1.9.7 2.7.5.8 1.3 1.5 2.1 1.8 1.4.6 2.5 1.1 3.1 1.7l.6.6c-.2.1-.4.2-.8.3-.8.2-2.1.2-3.5.1-1-.1-1.9.2-2.7.7-.8.5-1.4 1.3-1.8 2.1-.6 1.4-1.1 2.4-1.7 3.1l-.6.6c-.1-.2-.2-.4-.3-.8-.2-.8-.2-2-.1-3.5l-2.8-4.5zm0 0c.9.4 1.6 1 2.1 1.8m-2.1-1.8l2.1 1.8m0 0c.5.8.7 1.8.7 2.7l-.7-2.7zm1.2 7.2zm-.2 0zm11.4-7.1zm0 .2zm-7.1-11.5zm.1.1c.1 0 .1 0 0 0 .1 0 .1 0 0 0zm-11.4 7.1zm.1-.2z"/><path class="st5" d="M193.6 380.6l11.5 13.7 4.6 5.5c17-11 23.1-24.6 22.7-36.6-.2-5.6-1.7-11.1-4.5-15.9-8.6-15-24.5-22.4-31.2-10.1-7.3 13.3 2.3 19.7 5.1 23.8 4 5.8 2.1 16.3-8.2 19.6z"/><g class="st6"><path class="st7" d="M205.1 394.3l4.6 5.5c17-11 23.1-24.6 22.7-36.6-2.6 8.7-10 25.4-27.3 31.1z"/></g><path class="st8" d="M209.7 401.5c-.4 0-.7-.1-1-.3-.3-.2-.5-.5-.6-.9-.1-.4-.1-.7 0-1.1.1-.4.4-.6.7-.9 25-16.2 25.2-37.2 17.7-50.2-5.2-9.1-13.4-15.4-20-15.4h-.1c-3.5 0-6.2 1.8-8.1 5.3-5.4 9.9-.6 15.5 2.9 19.5.8.9 1.5 1.8 2.1 2.6 2.3 3.4 2.8 8.2 1.3 12.4-1.6 4.7-5.3 8.2-10.5 9.8-.2.1-.4.1-.7.1-.2 0-.5-.1-.7-.2-.2-.1-.4-.2-.5-.4-.1-.2-.3-.4-.3-.6-.1-.2-.1-.4-.1-.7s.1-.5.2-.7c.1-.2.2-.4.4-.5.2-.1.4-.3.6-.3 4.1-1.3 7-4 8.3-7.7 1.1-3.2.8-6.8-.9-9.3-.4-.6-1.1-1.4-1.8-2.2-3.7-4.3-9.9-11.4-3.4-23.4 2.5-4.6 6.4-7.1 11.1-7.1 7.9-.1 17.2 6.8 23.1 17.2 4.7 8.1 6 17.7 3.6 26.8-2.8 10.7-10.5 20.4-22.4 28.1-.2.1-.5.2-.9.1z"/><path class="st8" d="M219 378.3h-.9c-6.5-.2-12.1-2.6-15.8-6.7-.1-.1-.2-.3-.3-.5-.1-.2-.1-.4-.1-.6 0-.2.1-.4.1-.5.1-.2.2-.3.3-.4.1-.1.3-.2.5-.3.2-.1.4-.1.6-.1.2 0 .4.1.5.1.2.1.3.2.4.3 4.3 4.7 10.5 5.6 13.8 5.7 5.6.2 10.4-1.5 12-3.1.3-.3.6-.4 1-.4s.7.2 1 .4c.3.3.4.6.4 1s-.2.7-.4 1c-2.3 2.6-7.6 4.1-13.1 4.1z"/><path class="st5" d="M125.8 392.9c-5.8 8.3-3.7 38 3.5 53.8 7.2 15.7 36.5 7.3 52.8 1.3 16.3-6 3.8-43.3.3-53.2-5.5-15.5-48-14.2-56.6-1.9z"/><g class="st6"><path class="st7" d="M182.1 448c-16.3 6-45.6 14.4-52.8-1.3-1-2.2-1.9-4.5-2.6-6.8 5.7 2.1 11-3.2 10.3-7.9-4.3-28.6 2.3-42.4 6-47.5 15.5-2.9 35.6 0 39.3 10.3 3.7 9.9 16.1 47.2-.2 53.2z"/></g><path class="st8" d="M147.8 457.5c-9.2 0-16.7-2.7-20-10-7.6-16.6-9.5-46.7-3.4-55.5 5.8-8.4 24.7-11.6 38.8-9.7 11.2 1.5 18.6 5.7 20.8 12 6.5 18.1 14.9 49.5-1.3 55.4-11.3 4.1-24.2 7.8-34.9 7.8zm-20.6-63.6c-5.3 7.7-3.3 36.9 3.7 52.1 6.5 14.2 34.5 6.4 50.6.4 14.3-5.3 3.1-40.4-.7-51-1.7-4.9-8.3-8.4-18-9.7-14.8-2-31.1 1.8-35.6 8.2z"/><path class="st5" d="M136.6 419.8l-8.3-.5c-.4 0-.9 0-1.3.2s-.8.4-1.1.7c-.3.3-.6.7-.7 1.1-.2.4-.2.9-.2 1.3.4 6.4 2.2 19.5 9 20.1 8.2.6 8-8.6 5.5-20.5-.1-.7-.5-1.3-1-1.7-.6-.4-1.3-.7-1.9-.7z"/><g class="st6"><path class="st7" d="M139.4 422.2c2.6 11.9 2.8 21.1-5.4 20.5-3.4-.3-5.5-3.6-6.9-7.7 1 1 2.2 1.6 3.5 1.7 7.4.6 8-6.8 6.2-16.8.6.1 1.2.4 1.7.8.5.3.8.9.9 1.5z"/></g><path class="st8" d="M134.7 444.1h-.9c-7.7-.6-9.8-13.6-10.3-21.4 0-.6 0-1.3.3-1.9.2-.6.6-1.2 1-1.6.5-.5 1-.8 1.6-1 .6-.2 1.2-.3 1.9-.3l8.3.5c1 .1 1.9.4 2.7 1.1.8.6 1.3 1.5 1.5 2.5 2.3 10.8 2.2 16.8-.6 20-1.3 1.4-3.1 2.1-5.5 2.1zm-6.6-23.4c-.2 0-.5 0-.7.1-.2.1-.4.2-.6.4-.2.2-.3.4-.4.6-.1.2-.1.5-.1.7.8 11.4 3.7 18.4 7.7 18.7 1.8.1 3.1-.3 4-1.3 3-3.4.7-14 0-17.5-.1-.4-.3-.7-.6-.9-.3-.2-.6-.4-1-.4l-8.3-.4zM124.7 394c1 .1 2 .2 3 .4 1 .1 2 .3 3 .5 2 .3 4 .7 5.9 1.2-2 .1-4 .3-5.9.5-1 .1-2 .3-2.9.4-1 .1-2 .3-2.9.5h-.7c-.2 0-.5-.2-.7-.3-.2-.2-.4-.3-.5-.6-.1-.2-.2-.5-.2-.7 0-.2 0-.5.1-.7.1-.2.2-.4.4-.6.2-.2.4-.3.6-.4.2-.2.5-.2.8-.2z"/><path class="st5" d="M199.3 384.5l-4-12c1.1 4.1 2.4 8.1 4 12z"/><path class="st5" d="M243.8 462s-8.1-5.6-16.9-9.3c-5.8-2.4-11.9-4.1-16.3-2.8 0 0-34.6 22.5-54.5-21.2-6.3-13.9-8.1-24.4-7-32.4.2-1.1.4-2.2.7-3.2.3-1 .6-2.1 1-3.1 1.1-2.6 2.6-4.9 4.5-6.9 1.4-1.5 2.9-2.8 4.6-3.9 15.6-10.4 42.2-6.5 42.2-6.5.3 2 .6 3.9 1 5.8.7 3.5 1.5 6.8 2.4 9.9.3.9.5 1.7.8 2.6 3.2 9.9 7.4 17.2 10.8 22.1 3.7 5.3 6.5 7.8 6.5 7.8 24-5 29.2 15.2 29.2 15.2s17-11.6 17.2 4.4c.3 11.9-16.6 27.5-26.2 21.5z"/><g class="st6"><path class="st7" d="M243.8 462s-22.1-15.4-33.2-12.1c0 0-34.6 22.5-54.5-21.2-6.3-13.9-8.1-24.4-7-32.4.3-2.2.9-4.3 1.7-6.3.3-.7.6-1.5 1-2.2-.1.6-.3 1.3-.4 2-1.2 8 .6 18.5 7 32.4 20 43.7 53.4 16.9 53.4 16.9 18.8-6.1 25.4 13.9 33.2 17.5 7.8 3.6 19.8-4.4 24.8-13.6-1.8 11.5-17 24.6-26 19z"/></g><path class="st8" d="M207.9 393.4c1.1 2.4 2.2 4.8 3.5 7.2l.9 1.8c.3.6.6 1.2 1 1.7.6 1.2 1.3 2.3 2 3.4 1.4 2.2 2.8 4.4 4.4 6.5.8 1.1 1.6 2.1 2.4 3.1.4.5.8 1 1.3 1.5.4.5.9 1 1.3 1.4l-1.2-.3c3.1-.6 6.2-.9 9.4-.7 3.2.2 6.4 1 9.3 2.4 2.9 1.4 5.5 3.5 7.5 6 1 1.2 1.9 2.6 2.7 4 .4.7.7 1.4 1 2.2.2.4.3.7.5 1.1.1.4.3.7.4 1.2l-2.2-.8c1.8-1.2 3.7-2.2 5.7-3 1-.4 2.1-.7 3.2-1 1.1-.3 2.3-.4 3.5-.3 1.2.1 2.5.4 3.6 1.2s1.9 1.8 2.4 3c.5 1.1.8 2.2.9 3.4l.1.8v2.5c-.1 2.3-.8 4.4-1.6 6.4-.9 2-2 3.9-3.3 5.6-1.3 1.7-2.7 3.3-4.3 4.8-1.6 1.5-3.3 2.8-5.2 3.8-1.9 1.1-4 1.9-6.2 2.3-1.1.2-2.3.2-3.5.1-1.2-.1-2.4-.5-3.4-1l-.8-.4c-.1 0-.1-.1-.2-.1l-.2-.1-.3-.2-1.3-.8c-.9-.5-1.7-1.1-2.6-1.6-1.7-1.1-3.5-2.1-5.3-3-3.6-1.9-7.3-3.6-11-4.9-1.9-.6-3.8-1.1-5.7-1.4-1.9-.3-3.8-.2-5.5.2h-.1c-.4.1-.8.1-1.1-.1-.3-.2-.6-.5-.7-.9-.1-.4-.1-.8.1-1.1.2-.3.5-.6.9-.7 2.3-.6 4.6-.6 6.7-.3 2.1.3 4.2.8 6.2 1.5 4 1.3 7.8 3.1 11.5 5.1 1.8 1 3.6 2 5.4 3.1.9.5 1.8 1.1 2.6 1.7l1.3.9.3.2.2.1.1.1.5.3c.8.4 1.6.6 2.5.7.9.1 1.8 0 2.7-.1 1.8-.3 3.6-1.1 5.3-2 3.3-1.9 6.3-4.7 8.6-7.8 1.2-1.6 2.2-3.3 2.9-5 .7-1.8 1.3-3.6 1.4-5.5V439.5l-.1-.7c-.1-.9-.3-1.7-.7-2.6-.3-.8-.8-1.4-1.4-1.8-.6-.4-1.4-.6-2.2-.7-1.7-.1-3.6.4-5.4 1.1-1.8.7-3.5 1.6-5.2 2.7l-1.7 1.1-.5-1.9c-.1-.3-.2-.6-.3-1-.1-.3-.2-.7-.4-1-.3-.7-.6-1.3-.9-1.9-.7-1.3-1.5-2.4-2.4-3.6-1.8-2.2-4-4.1-6.6-5.3-2.5-1.3-5.4-1.9-8.2-2.1-2.9-.2-5.8.1-8.7.7l-.7.1-.5-.5c-.6-.5-1.1-1-1.5-1.5-.5-.5-1-1-1.4-1.5-.5-.5-.9-1-1.3-1.6-.4-.5-.8-1.1-1.3-1.6-1.6-2.2-3.1-4.5-4.4-6.9-.6-1.2-1.3-2.4-1.9-3.6-.6-1.2-1.1-2.5-1.7-3.7-.3-.6-.5-1.3-.7-1.9l-.7-1.9c-.2-.6-.4-1.3-.6-1.9-.2-.6-.4-1.3-.6-1.9v-.5c.1-.2.2-.3.4-.3.2-.1.4-.1.5 0 .4-.2.6-.1.6.1z"/><path class="st5" d="M239.4 482c-3 7.5-13.5 12.2-22.6 8-6.1-2.8-9.7-7.9-11.8-12.2-2.4-5-4.1-10.1-8.5-12.5-5-2.7-14.2 6.5-31.3-3.2-5.3-3-11.5-9.5-16.2-19.1-1.6-3.3-2.9-6.7-3.9-10.2-2.4-8.1-3.6-17.6-2.9-28.5.3-5 1-10 2.1-14.9.5-2.4 1.1-4.9 1.8-7.4.9-3.4 2.1-6.9 3.4-10.5l4.4 8.8 1.5 3 1.1 2.1 6.7 13.4 10.2 20.5 11.9 23.9.8 1.7c1.2-1.3 2.6-2.4 4-3.5 4.4-3.1 9.5-5.1 14.9-5.6h.3c2.5-.2 5.1 0 7.6.7 7.1 2.1 12.6 9.6 14.1 16.2.4 1.8.5 3.6.2 5.1-.6 2.7-1.1 5.8-1.1 5.8 1.9 1 16.7 9.8 13.3 18.4z"/><g class="st6"><path class="st7" d="M239.4 482c-3 7.5-13.5 12.2-22.6 8-6.1-2.8-9.7-7.9-11.8-12.2-2.4-5-4.1-10.1-8.5-12.5-5-2.7-14.2 6.5-31.3-3.2-5.3-3-11.5-9.5-16.2-19.1-.2-.4-.4-.9-.6-1.3-.2-.4-.3-.7-.5-1.1l-.3-.6c-.3-.7-.6-1.4-.8-2.1-.1-.2-.1-.3-.2-.5s-.1-.4-.2-.6c-.1-.2-.2-.4-.2-.7-.2-.7-.5-1.3-.7-2-.1-.5-.3-.9-.4-1.4-4.5-15.4-4.9-36.1 4.4-61.3l.4.8c-7.8 26.5-4.6 47.3 2 61.6 9.3.1 18.7-4.6 21.4-6l-1-2.6c-.4-1-.5-2.1-.3-3.1s.6-2 1.3-2.9c.4-.5 1-1 1.5-1.4.3-.2.7-.4 1.1-.5l26.7-10c1.5-.6 3.2-.5 4.7.2s2.6 1.9 3.2 3.4l1 2.7c.2-.1.4-.1.6-.2 1.4-.4 2.8-.3 4.1.4 1.3.7 2.2 1.8 2.6 3.2.4 1.4.3 2.8-.4 4.1-.7 1.3-1.8 2.2-3.1 2.7l.5 1.4c.6 1.5.5 3.2-.2 4.7s-1.9 2.6-3.4 3.2l-7.3 2.7-14.9 5.6-4.5 1.7c-.1 0-.2.1-.3.1-1.5.5-3.1.3-4.5-.4s-2.5-1.9-3-3.4l-.8-2.1c-8.2 3.6-14.8 5.1-19.7 5.6 3.7 5.2 7.8 9 11.4 11 17.1 9.7 26.2.6 31.3 3.2 4.4 2.3 6.1 7.5 8.5 12.5 2.1 4.3 5.7 9.3 11.8 12.2 7.2 3.3 15.2 1.2 19.7-3.5.1 1.3 0 2.5-.5 3.7z"/></g><path class="st8" d="M185.6 444.4c3.2-4.4 8-7.6 13.3-9.3 2.7-.8 5.4-1.3 8.2-1.3 1.4 0 2.8.1 4.2.4.7.1 1.4.3 2.1.5.7.3 1.4.5 2.1.8 2.7 1.2 4.9 3 6.8 5.1 1.9 2.1 3.5 4.4 4.7 6.9 1.2 2.5 2 5.3 2 8.3 0 .7-.1 1.5-.2 2.3l-.4 1.9-.8 3.8-.9-1.9c.6.3 1.1.6 1.6.9l1.5.9c1 .6 1.9 1.3 2.8 2 1.8 1.4 3.6 3 5.2 4.8 1.5 1.8 3 3.9 3.6 6.6.3 1.3.3 2.7 0 4.1-.2.7-.4 1.3-.7 1.9l-.4.9c-.2.3-.3.5-.5.8-1.3 2.1-3.2 3.9-5.2 5.2-2.1 1.3-4.4 2.3-6.8 2.7-2.4.5-4.9.5-7.3 0-2.4-.5-4.7-1.4-6.8-2.7-4.1-2.5-7.4-6.3-9.6-10.4-1.1-2.1-2-4.2-2.9-6.1-.9-2-2-3.8-3.3-5.2-.6-.7-1.4-1.2-2.2-1.7-.5-.3-1.4-.3-2.3-.2-2 .2-4.2.9-6.5 1.3s-4.7.6-7.1.5c-2.4-.1-4.7-.5-7-1.2s-4.4-1.5-6.5-2.6c-.5-.3-1-.6-1.5-.8l-1.5-.9c-.5-.3-1-.7-1.5-1-.5-.3-.9-.7-1.4-1.1-3.6-3-6.6-6.6-9.1-10.5-2.5-3.9-4.5-8-6.1-12.4-1.6-4.3-2.8-8.8-3.5-13.3-1.5-9-1.5-18.3-.3-27.3l.5-3.4c.2-1.1.4-2.2.6-3.4.2-1.1.4-2.2.7-3.4l.4-1.7c.1-.6.3-1.1.4-1.7.3-1.1.6-2.2 1-3.3.3-1.1.8-2.1 1.2-3.2.2-.5.4-1.1.7-1.6.2-.5.5-1 .7-1.5.5-1 1.1-2 1.7-3 .1-.1.2-.2.3-.2h.4c.1 0 .2.1.3.2.1.1.1.2.1.4-.6 4.5-1.8 8.8-2.8 13.1-.3 1.1-.5 2.1-.8 3.2-.3 1.1-.5 2.1-.7 3.2-.2 1.1-.5 2.2-.6 3.2l-.5 3.3c-1.1 8.7-1.2 17.6.3 26.3.7 4.3 1.9 8.6 3.4 12.7s3.4 8 5.8 11.7c2.4 3.6 5.2 7 8.4 9.7.4.3.8.7 1.2 1 .4.3.9.6 1.3.9.4.3.9.6 1.3.8.5.3.9.5 1.4.8 1.9 1 3.9 1.8 5.9 2.4 4.1 1.2 8.3 1.4 12.5.6 1.1-.2 2.1-.4 3.2-.7 1.1-.2 2.2-.5 3.5-.6.7-.1 1.3-.1 2 0 .8.1 1.5.3 2.2.6 1.2.6 2.2 1.4 3.1 2.3 1.8 1.8 3 4 4 6.1 1 2.1 1.9 4.2 2.8 6 2 3.7 4.8 7 8.4 9.1.5.3.9.5 1.4.8l.7.3.7.3c.5.2.9.4 1.4.5.5.1 1 .3 1.5.4 2 .4 4 .4 6 0 4-.8 7.7-3.1 9.8-6.4.1-.2.3-.4.4-.6l.3-.7c.2-.4.4-.8.5-1.3.2-.8.2-1.7 0-2.6-.4-1.8-1.5-3.5-2.8-5.1-1.3-1.6-3-3-4.7-4.3-.9-.7-1.7-1.3-2.6-1.9-.5-.3-.9-.6-1.4-.9-.5-.3-.9-.6-1.3-.8l-1.2-.6.2-1.3.8-3.9.4-1.9c0-.5.2-1.1.1-1.6 0-1.1-.2-2.3-.5-3.4-.2-.6-.3-1.1-.5-1.7-.2-.6-.4-1.1-.7-1.7-1-2.2-2.4-4.2-4.1-6-1.7-1.8-3.6-3.2-5.8-4.1-2.1-.9-4.5-1.3-6.9-1.3-2.5 0-4.9.3-7.3 1-4.8 1.3-9.2 3.6-13.4 6.7-.1.1-.2.1-.4.1-.1 0-.3-.1-.4-.2-.1-.1-.2-.2-.2-.4-.2.3-.2.1-.1 0z"/><path class="st8" d="M198.1 467.9c-.3 0-.6-.1-.8-.2-.2-.2-.4-.4-.5-.6-3.9-9.2.2-18.9 6-24.4 5.3-5 11.8-6.4 17.1-3.8.3.2.6.5.7.8.1.4.1.7-.1 1.1-.2.3-.5.6-.8.7-.4.1-.7.1-1.1-.1-4.2-2.1-9.4-.9-13.8 3.3-4.9 4.6-8.7 13.3-5.3 21.2.1.2.1.5.1.7 0 .2-.1.5-.2.7-.1.2-.3.4-.5.5-.3 0-.5.1-.8.1zM227.1 464.3c-.9 1.1-1.9 2.1-2.9 3.1-1 .9-2.2 1.8-3.4 2.5-1.2.7-2.5 1.3-3.9 1.7-1.3.4-2.8.4-4.1 0 1.3.1 2.7-.1 3.9-.6 1.2-.5 2.3-1.2 3.3-2.1 1-.9 1.9-1.8 2.7-2.8.8-1 1.6-2.1 2.2-3.2.2-.3.5-.5.8-.6.3-.1.7 0 1 .1.3.2.5.5.6.8.1.3 0 .7-.1 1-.1 0-.1 0-.1.1zM231.7 456.3c-.2 0-.5-.1-.7-.2-.2-.1-.4-.3-.5-.5-4.7-7.7-6.1-15-4.3-21.6 2.6-9.5 10.9-14 11.3-14.2.3-.2.7-.2 1.1-.1.4.1.6.4.8.7s.2.7.1 1.1c-.1.4-.3.7-.7.8-.1 0-7.6 4.2-9.9 12.5-1.6 5.8-.2 12.3 4 19.3.1.2.2.5.2.7 0 .3-.1.5-.2.7-.1.2-.3.4-.5.5-.2.3-.4.3-.7.3z"/><path class="st5" d="M218.9 415.6c1-2.8-.4-5.9-3.3-6.9s-5.9.4-6.9 3.3c-1 2.8.4 5.9 3.3 6.9s5.9-.5 6.9-3.3z"/><g class="st6"><path class="st7" d="M219 412.2c.2.7.3 1.4.2 2.1-.1.7-.3 1.4-.6 2-.3.6-.8 1.2-1.3 1.6-.5.5-1.2.8-1.9 1-.7.2-1.4.3-2.1.2-.7-.1-1.4-.3-2-.6-.6-.3-1.2-.8-1.6-1.3-.5-.5-.8-1.2-1-1.9-.2-.8-.3-1.6-.2-2.4.7.8 1.6 1.3 2.6 1.6 1 .3 2 .3 3 0s1.8-.9 2.5-1.6 1.1-1.7 1.2-2.7c.6.5 1 1.2 1.2 2z"/></g><path class="st8" d="M213.8 420.6c-1.3 0-2.5-.3-3.6-1s-1.9-1.6-2.5-2.7c-.6-1.1-.8-2.4-.7-3.7.1-1.3.6-2.5 1.3-3.5.8-1 1.8-1.8 2.9-2.3 1.2-.5 2.5-.6 3.7-.4 1.2.2 2.4.8 3.4 1.6s1.6 1.9 2 3.1c.3 1 .4 2.1.2 3.2s-.6 2-1.2 2.9c-.6.9-1.5 1.6-2.4 2-1 .6-2 .8-3.1.8zm0-10.8c-.4 0-.8.1-1.2.2-.8.2-1.4.7-1.9 1.3-.5.6-.8 1.4-.9 2.1-.1.8.1 1.6.5 2.3.4.7.9 1.3 1.6 1.6.7.4 1.5.5 2.3.4s1.5-.4 2.1-.9c.6-.5 1-1.2 1.3-1.9.2-.8.2-1.6 0-2.3-.2-.8-.8-1.5-1.4-2-.7-.5-1.5-.8-2.4-.8z"/><path class="st5" d="M212.4 428.2l-26.7 10c-1.5.6-3.2.5-4.7-.2s-2.6-1.9-3.2-3.4l-5.3-14.2c-.5-1.3-.5-2.8-.1-4.1.5-1.3 1.4-2.5 2.6-3.2.3-.2.7-.4 1.1-.5l26.7-10c1.5-.6 3.2-.5 4.7.2s2.6 1.9 3.2 3.4l4.2 11.3 1.1 3c.6 1.5.5 3.2-.2 4.7-.7 1.3-1.9 2.5-3.4 3z"/><g class="st6"><path class="st7" d="M212.4 428.2l-26.7 10c-1.5.6-3.2.5-4.7-.2s-2.6-1.9-3.2-3.4l-5.3-14.2c-.5-1.3-.5-2.8-.1-4.1.5-1.3 1.4-2.5 2.6-3.2 1.9.4 3.1.7 3.1.7 5.6 10.9 8.2 19.6 25.5 11.8 6-2.7 9.4-6 11.4-8.2l1.1 3c.6 1.5.5 3.2-.2 4.7-.8 1.4-2 2.6-3.5 3.1z"/></g><path class="st8" d="M183.5 440c-1.5 0-3.1-.5-4.3-1.4-1.3-.9-2.2-2.1-2.8-3.6l-5.3-14.2c-.7-1.9-.6-4 .2-5.8.8-1.8 2.4-3.2 4.2-4l26.7-10c1.9-.7 4-.6 5.8.2 1.8.8 3.2 2.4 3.9 4.2l5.3 14.2c.7 1.9.6 4-.2 5.8-.8 1.8-2.4 3.2-4.2 3.9l-26.7 10c-.8.5-1.7.7-2.6.7zm21.4-36.5c-.6 0-1.1.1-1.6.3l-26.7 10c-1.2.4-2.1 1.3-2.6 2.5-.5 1.1-.6 2.4-.1 3.6l5.3 14.2c.4 1.2 1.3 2.1 2.5 2.6 1.1.5 2.4.6 3.6.1l26.7-10c1.2-.4 2.1-1.3 2.6-2.5s.6-2.4.1-3.6l-5.3-14.2c-.3-.9-.9-1.7-1.7-2.2-.9-.5-1.8-.8-2.8-.8z"/><path class="st5" d="M213.4 427.7c-.3.2-.7.4-1 .5l-26.7 10c-1.1.4-2.3.5-3.5.2-1.2-.3-2.2-.8-3-1.7-.6-.6-1.1-1.4-1.4-2.2l-2.4-6.3-.8-2.1-2.2-5.8c-.6-1.5-.5-3.2.2-4.7s1.9-2.6 3.4-3.2l5.8-2.1c-1.2.7-2.2 1.9-2.6 3.2-.5 1.4-.5 2.8 0 4.2l2.9 7.7 2.4 6.6c.6 1.5 1.7 2.8 3.2 3.4 1.5.7 3.2.7 4.7.2l21-7.9z"/><g class="st6"><path class="st7" d="M213.4 427.7c-.3.2-.7.4-1 .5l-26.7 10c-1.5.6-3.2.5-4.7-.2s-2.6-1.9-3.2-3.4l-3.1-8.4c1.2 1.2 3.1 2.6 5.1 2.1 1.1-.3 1.9-1.4 2.4-2.9l2.4 6.6c.6 1.5 1.7 2.8 3.2 3.4 1.5.7 3.2.7 4.7.2l20.9-7.9z"/></g><path class="st8" d="M183.5 440c-1.5 0-3.1-.5-4.3-1.4-1.3-.9-2.2-2.1-2.8-3.6l-5.3-14.2c-.7-1.9-.6-4 .2-5.8.8-1.8 2.4-3.2 4.2-4l5.8-2.1 1.2 2.6c-.9.6-1.7 1.4-2 2.5-.4 1-.4 2.2 0 3.2l5.3 14.2c.4 1.2 1.3 2.1 2.5 2.6 1.1.5 2.4.6 3.6.1l21-7.8 1.2 2.6c-.4.3-.8.5-1.3.6l-26.7 10c-.8.3-1.7.5-2.6.5zm-5.7-26.7l-1.2.5c-1.2.4-2.1 1.3-2.6 2.5-.5 1.1-.6 2.4-.1 3.6l5.3 14.2c.4 1.2 1.3 2.1 2.5 2.6 1.1.5 2.4.6 3.6.1l1.4-.5c-1.5-.9-2.7-2.3-3.3-3.9l-5.3-14.2c-.8-1.6-.8-3.3-.3-4.9z"/><path class="st9" d="M192.5 421c.2.5 1 5.1 1 5.1l-3 1.1c-2.1.8-4.5-.8-5.5-3.4-1-2.6-.1-5.4 2-6.2l3-1.1s2.2 3.6 2.5 4.5z"/><g class="st6"><path class="st7" d="M192.5 421c.2.5 1 5.1 1 5.1l-3 1.1c-2.1.8-4.5-.8-5.5-3.4-1-2.6-.1-5.4 2-6.2l3-1.1s2.2 3.6 2.5 4.5z"/></g><path class="st8" d="M189.4 428.2c-.9 0-1.8-.3-2.5-.8-1.2-.7-2.2-2-2.7-3.4-.5-1.5-.6-3-.1-4.3.5-1.4 1.4-2.5 2.7-2.9l3.7-1.3.4.6c.2.4 2.2 3.8 2.6 4.7.2.6.9 4.1 1 5.2l.1.7-3.7 1.3c-.6.1-1 .2-1.5.2zm.2-10.7l-2.3.9c-.7.3-1.3.9-1.6 1.8-.3 1-.3 2.1.1 3.2s1.1 2 2 2.5c.8.5 1.7.6 2.4.4l2.3-.9c-.4-1.9-.7-3.9-.8-4.2-.2-.4-1.3-2.3-2.1-3.7z"/><path class="st9" d="M193.5 426c2.1-.8 3-3.5 2-6.2-1-2.6-3.4-4.2-5.5-3.4-2.1.8-3 3.5-2 6.2s3.4 4.2 5.5 3.4z"/><g class="st6"><path class="st7" d="M188 422.6c1 2.6 3.4 4.2 5.5 3.4s3-3.5 2-6.2c-.1-.4-.3-.7-.5-1 .1 2-.8 3.8-2.4 4.4-1.8.7-3.9-.4-5-2.4.1.7.2 1.3.4 1.8z"/></g><path class="st5" d="M188 422.6c.1.2.1.4.2.5-.3-2.2.6-4.3 2.3-4.9 1.9-.7 4.2.6 5.3 2.9l-.3-1.2c-1-2.6-3.4-4.2-5.5-3.4-2.1.7-3 3.5-2 6.1z"/><path class="st8" d="M192.4 427.1c-2.1 0-4.3-1.6-5.2-4.2-1.1-3.1 0-6.3 2.5-7.3 2.5-.9 5.5.8 6.6 3.9s0 6.3-2.5 7.3c-.5.2-.9.3-1.4.3zm-1.3-10c-.3 0-.6 0-.8.1-1.6.6-2.3 2.9-1.5 5.1.8 2.2 2.8 3.5 4.4 2.9 1.6-.6 2.3-2.9 1.5-5.1-.7-1.7-2.2-3-3.6-3zM204 432.4c-.2 0-.5-.1-.7-.2-.2-.1-.3-.3-.4-.6l-2.5-7.3c-.3-1-.4-2.1-.3-3.1.2-1.1.6-2 1.2-2.9.4-.6.7-1.2.8-1.9.1-.7 0-1.4-.2-2.1l-3.7-10.2c-.1-.3-.1-.6 0-.9.1-.3.4-.5.6-.6.3-.1.6-.1.9 0 .3.1.5.4.6.6l3.7 10.2c.4 1 .5 2.1.3 3.2s-.6 2.1-1.3 3c-.4.5-.7 1.2-.8 1.9-.1.7 0 1.4.2 2l2.5 7.3c.1.2.1.4.1.5 0 .2-.1.4-.2.5-.1.1-.2.3-.4.4 0 .1-.2.2-.4.2z"/><path class="st5" d="M144.1 427.4s-2.1 2.8-1 6c1.4 3.7 4.6 4.4 4.6 4.4s11.2 2.9 30.9-6.2c0 0 3-7.4-4.5-9.1.1.1-17.2 10.3-30 4.9z"/><g class="st6"><path class="st7" d="M143.1 433.3c1.3 3.7 4.6 4.5 4.6 4.5s11.2 2.9 30.9-6.2c0 0 2.3-5.6-2.1-8.2v.1c.5 2.4-.8 4.9-3.1 5.8-18.1 7.7-28.3 5-28.3 5-.7-.1-1.4-.5-2-1z"/></g><path class="st8" d="M152.8 439.7c-3.4 0-5.2-.5-5.4-.5-.1 0-4-1-5.6-5.3-.6-1.6-.6-3.3 0-5 .6-1.8 2.6-2.9 4.4-2.3 10.6 3.3 24-3.5 26.6-4.9.4-.2.9-.4 1.4-.4.5 0 1 0 1.4.2 4.1 1.4 5.9 4.9 4.8 9.5-.1.5-.4 1-.7 1.4-.3.4-.8.7-1.3 1-11.8 5.3-20.5 6.3-25.6 6.3zm-7.7-10.3c-.1 0-.3.1-.4.1-.1.1-.2.2-.2.3-.4 1.1-.4 2.1 0 3.1 1.1 2.9 3.5 3.5 3.6 3.6.1 0 10.7 2.6 29.1-5.7.1 0 .2-.1.2-.2.1-.1.1-.2.1-.3.8-3.1-.2-5.2-2.9-6.1h-.3c-.1 0-.2 0-.3.1-3.9 2.1-17.4 8.7-28.8 5.2 0-.1 0-.1-.1-.1z"/><g class="st6"><path class="st7" d="M206.5 434.6c-.1-.4-.6-2.3-1.3-5.3.7 3 1.2 4.9 1.3 5.3z"/></g><g class="st6"><path class="st7" d="M206.5 434.7z"/></g><path class="st8" d="M253.7 437.1c-.6.4-1.2.8-1.7 1.3-.6.4-1.1.9-1.7 1.4-1.1 1-2.1 2-2.9 3.3.4-1.5 1.1-2.8 1.9-4.1.4-.7.8-1.3 1.3-1.9.4-.6.9-1.2 1.4-1.9.2-.3.5-.4.9-.4.3 0 .7.1.9.3.3.2.4.5.5.9 0 .3-.1.7-.3.9-.1 0-.2.1-.3.2z"/><g class="st6"><path class="st7" d="M133.6 433c0 .2 0 .3-.1.5.1-.2.1-.4.1-.5z"/></g><path class="st10" d="M247.6 463.3c-.6-.8-1-1.9-.8-3.7 1.1-8.4 15.1-27.3 22.8-22.6.3 1.2.4 2.4.4 3.5.2 10.5-12.7 23.8-22.4 22.8z"/><g class="st6"><path class="st7" d="M265.2 453c-4.6 6.1-11.8 10.8-17.6 10.2-.6-.8-1-1.9-.8-3.7.5-3.8 3.7-9.9 7.7-14.8-1.4 3.1-3.9 11-.6 12.7 3.5 1.8 7.9-2.4 11.3-4.4z"/></g><g class="st11"><path class="st12" d="M267.1 450.3c1-2.3 1.5-4.6 1.5-6.8v-.2c-.1-2.6-2.6-4.5-5.1-3.8-5.2 1.5-11.3 8.5-15 14.9 4.1-9.1 14.8-21.3 21.2-17.4.3 1.2.4 2.4.4 3.5 0 3.2-1.1 6.6-3 9.8z"/></g><path class="st8" d="M248.6 464.5c-.4 0-.8 0-1.1-.1h-.5l-.3-.4c-.9-1.1-1.3-2.6-1-4.6.9-6.8 9.5-19.6 17.1-23.3 2.8-1.4 5.4-1.4 7.5-.2l.4.2.1.5c.3 1.2.4 2.5.4 3.8.1 5.6-3.4 12.4-9.1 17.6-4.4 4.2-9.2 6.5-13.5 6.5zm-.4-2.3c3.7.1 8.3-2 12.4-5.7 5.1-4.7 8.4-10.9 8.3-15.9 0-.9-.1-1.9-.3-2.8-1.3-.6-3-.5-4.9.5-6.9 3.3-15 15.3-15.8 21.5-.1 1 0 1.8.3 2.4z"/><path class="st8" d="M266.9 442.8c-3.6 0-7.8-1.1-8.5-1.3-.1 0-.3-.1-.4-.2l-.3-.3c-.1-.1-.1-.3-.1-.4v-.4c0-.1.1-.3.2-.4l.3-.3c.1-.1.3-.1.4-.1h.4c3.1.8 8.6 1.8 10.6.8.1-.1.3-.1.4-.1h.4c.1 0 .3.1.4.2.1.1.2.2.3.4.1.1.1.3.1.4 0 .2 0 .3-.1.4 0 .1-.1.3-.2.4-.1.1-.2.2-.4.3-.8.4-2.1.6-3.5.6zM263.6 448.6c-5.2 0-9.5-2.4-9.8-2.5-.3-.1-.5-.4-.5-.7-.1-.3 0-.6.1-.9.1-.3.4-.5.7-.5.3-.1.6 0 .9.1.1 0 7.3 4 13.7 1.2.3-.1.6-.1.9 0 .3.1.5.3.6.6.1.3.1.6 0 .9-.1.3-.3.5-.6.6-2 .8-4 1.2-6 1.2zM260.7 454c-7.4 0-10.4-3.2-10.6-3.4-.2-.2-.3-.5-.3-.8 0-.3.1-.6.4-.8.2-.2.5-.3.8-.3.3 0 .6.1.8.4.1.1 3.9 3.9 13.7 2.2h.4c.1 0 .3.1.4.2l.3.3c.1.1.1.3.2.4v.4c0 .1-.1.3-.2.4l-.3.3c-.1.1-.3.1-.4.2-1.7.3-3.4.5-5.2.5zM256.7 460.3c-5.9 0-9.4-3.6-9.6-3.8-.2-.2-.3-.5-.3-.8 0-.3.1-.6.4-.8.2-.2.5-.3.8-.3.3 0 .6.1.8.3.2.2 4.1 4.1 10.5 2.8h.4c.1 0 .3.1.4.2l.3.3c.1.1.1.3.2.4s0 .3 0 .4c0 .1-.1.3-.2.4l-.3.3c-.1.1-.3.1-.4.2-.9.3-2 .4-3 .4z"/><path class="st5" d="M114.8 359.3c.3-.1.5-.2.7-.5.2-.2.2-.5.2-.8l-6.2-30.4c-.1-.3-.2-.5-.5-.7-.2-.2-.5-.2-.8-.2-2.9.6-5.5 2.3-7.2 4.8s-2.3 5.5-1.7 8.5l2.1 10.4c.6 2.9 2.3 5.5 4.8 7.2 2.6 1.7 5.7 2.2 8.6 1.7z"/><path class="st8" d="M112.5 359.8c-2.7 0-5.3-.9-7.3-2.6-2.1-1.7-3.5-4.1-4-6.7l-2.1-10.4c-.6-3 0-6.2 1.7-8.7 1.7-2.6 4.4-4.4 7.4-5h.5c.2 0 .4.1.5.2.2.1.3.2.4.4.1.2.2.3.2.5l6.2 30.4v.5c0 .2-.1.4-.2.5-.1.2-.2.3-.4.4-.2.1-.3.2-.5.2-.8.2-1.6.3-2.4.3zm-4.1-32.8h-.1c-1.4.3-2.8.8-3.9 1.6-1.2.8-2.2 1.8-3 3-.8 1.2-1.3 2.5-1.6 4-.3 1.4-.3 2.9 0 4.3l2.1 10.4c.6 2.8 2.3 5.4 4.7 7 2.4 1.6 5.4 2.2 8.2 1.6.2 0 .4-.2.5-.3.1-.2.1-.4.1-.6l-6.2-30.4c0-.2-.1-.3-.3-.4-.1-.1-.3-.2-.5-.2z"/><g class="st6"><path class="st7" d="M99.4 346l1 4.9c.3 1.5.9 2.8 1.7 4.1.8 1.2 1.9 2.3 3.1 3.1 1.2.8 2.6 1.4 4.1 1.7 1.5.3 3 .3 4.4 0 .3-.1.5-.2.7-.5.2-.2.2-.5.2-.8l-1.6-8.1c0 .2-.1.4-.3.5-.1.1-.3.2-.5.3l-.7.1c-2.3.5-4.7.2-6.8-.7-2.3-1-4.1-2.6-5.3-4.6z"/></g><path class="st8" d="M112.6 361.3c-3 0-6-1.1-8.3-3-2.3-1.9-4-4.6-4.6-7.6l-2.1-10.4c-.7-3.4 0-7 1.9-9.9 1.9-2.9 4.9-4.9 8.3-5.6.4-.1.8-.1 1.1 0 .4.1.7.2 1.1.4.3.2.6.5.8.8s.4.7.4 1.1l6.2 30.4c.1.4.1.8 0 1.1-.1.4-.2.7-.4 1.1-.2.3-.5.6-.8.8-.3.2-.7.4-1.1.4-.8.3-1.7.4-2.5.4zm-4.8-32.6c-2.3.7-4.2 2.2-5.5 4.2-1.2 2-1.6 4.5-1.2 6.8l2.1 10.4c.5 2.3 1.8 4.4 3.7 5.8 1.9 1.4 4.3 2 6.6 1.7l-5.7-28.9z"/><path class="st5" d="M208.5 306.4c-.3.1-.5.2-.7.5-.2.2-.2.5-.2.8l6.1 30.4c.1.3.2.5.5.7.2.2.5.2.8.2 2.9-.6 5.5-2.3 7.2-4.8 1.7-2.5 2.3-5.5 1.7-8.5l-2.1-10.4c-.6-2.9-2.3-5.5-4.8-7.2-2.5-1.7-5.6-2.3-8.5-1.7z"/><path class="st8" d="M214.9 339.3c-.3 0-.5-.1-.8-.2-.2-.1-.3-.2-.4-.4-.1-.2-.2-.3-.2-.5l-6.2-30.4c-.1-.4 0-.7.2-1.1.2-.3.5-.5.9-.6 3-.6 6.2 0 8.7 1.7 2.6 1.7 4.4 4.4 5 7.4l2.1 10.4c.3 1.5.3 3 0 4.5s-.9 2.9-1.7 4.2c-.8 1.3-1.9 2.4-3.2 3.2s-2.7 1.4-4.2 1.8h-.2zm-6.3-32.6c-.1 0-.2.1-.3.1-.1.1-.2.1-.2.2-.1.1-.1.2-.1.3v.3l6.2 30.4c0 .1.1.2.1.3.1.1.1.2.2.2.1.1.2.1.3.1h.3c2.8-.6 5.4-2.3 7-4.7 1.6-2.4 2.2-5.4 1.6-8.2l-2.1-10.4c-.6-2.8-2.3-5.4-4.7-7-2.5-1.5-5.5-2.1-8.3-1.6z"/><g class="st6"><path class="st7" d="M212.1 329.7l1.7 8.4c.1.3.2.5.5.7.2.2.5.2.8.2 2.9-.6 5.5-2.3 7.2-4.8 1.7-2.5 2.3-5.5 1.7-8.5l-.9-4.4c-.5 2.1-1.6 4-3.1 5.6s-3.5 2.6-5.6 3l-1.1.2h-.6c-.3-.2-.5-.3-.6-.4z"/></g><path class="st8" d="M214.9 340.8c-.7 0-1.3-.2-1.8-.7-.5-.4-.9-1-1-1.7l-6.2-30.4c-.1-.4-.1-.8 0-1.1.1-.4.2-.7.4-1.1.2-.3.5-.6.8-.8.3-.2.7-.4 1.1-.4 3.4-.7 7 0 9.9 1.9 2.9 1.9 4.9 4.9 5.6 8.3l2.1 10.4c.3 1.7.3 3.4 0 5.1-.3 1.7-1 3.3-1.9 4.7-1 1.4-2.2 2.7-3.6 3.6-1.4 1-3 1.6-4.7 2-.3.2-.5.2-.7.2zm-5.3-32.7l5.8 28.8c2.3-.7 4.2-2.2 5.5-4.2 1.2-2 1.6-4.4 1.2-6.8l-2.1-10.4c-.5-2.3-1.8-4.4-3.7-5.8-1.9-1.2-4.3-1.9-6.7-1.6z"/><path class="st5" d="M199 370.2c20.6-20.6 20.6-54.1 0-74.8-20.6-20.6-54.1-20.6-74.7 0s-20.6 54.1 0 74.8c20.6 20.7 54.1 20.7 74.7 0z"/><path class="st8" d="M161.6 386.1c-9.1 0-18.1-2.4-26.1-6.9-12.4-7-21.3-18.4-25.1-32.1-3.8-13.7-2-28 4.9-40.4 7-12.4 18.4-21.3 32.1-25.1 28.2-7.8 57.6 8.8 65.4 37 3.8 13.7 2 28-4.9 40.4-7 12.4-18.4 21.3-32 25.1-4.7 1.3-9.5 2-14.3 2zm.1-105.8c-4.8 0-9.5.7-14.1 1.9-13.5 3.8-24.7 12.5-31.7 24.8-6.9 12.2-8.6 26.4-4.9 39.9 3.7 13.5 12.5 24.8 24.7 31.7 12.2 6.9 26.4 8.6 39.9 4.9 13.5-3.8 24.7-12.5 31.7-24.8 6.9-12.2 8.6-26.4 4.9-39.9-3.8-13.5-12.5-24.8-24.7-31.7-7.9-4.5-16.7-6.8-25.8-6.8z"/><g class="st6"><path class="st7" d="M109.3 339.8c.3 2.4.8 4.8 1.5 7.2 7.8 28.1 36.9 44.6 65 36.8 28.1-7.8 44.6-36.9 36.8-65.1-.2-.8-.5-1.6-.7-2.4 3.4 25.7-12.5 50.7-38.2 57.9-27.4 7.6-55.7-7.7-64.4-34.4z"/></g><path class="st8" d="M161.6 387.6c-9.4 0-18.6-2.5-26.8-7.1-12.7-7.2-21.9-18.9-25.8-33-3.9-14.1-2.1-28.8 5.1-41.6s18.9-21.9 33-25.8 28.8-2.1 41.5 5.1c12.7 7.2 21.9 18.9 25.8 33 3.9 14.1 2.1 28.8-5.1 41.6-7.2 12.7-18.9 21.9-33 25.8-4.8 1.3-9.8 2-14.7 2zm.1-105.8c-4.6 0-9.2.6-13.7 1.9-13.1 3.6-24 12.2-30.7 24-6.7 11.9-8.4 25.6-4.7 38.8 3.6 13.1 12.2 24.1 24 30.8 11.9 6.7 25.6 8.4 38.7 4.7 13.1-3.6 24-12.2 30.7-24 6.7-11.9 8.4-25.6 4.7-38.8-3.6-13.1-12.2-24.1-24-30.8-7.6-4.3-16.2-6.6-25-6.6z"/><path class="st8" d="M111.3 348.2c2.6 10 8.3 18.5 15.8 24.7 5.7 4.7 25.4 10.3 46.6 5 19.6-4.9 34.7-20.1 37.4-26.9 3.5-9.1 4.4-19.3 1.8-29.3-6.9-26.5-32.5-31.5-60.6-24.2-28.1 7.3-47.9 24.3-41 50.7z"/><g class="st13"><path class="st14" d="M130.8 348.8c3.4-1.6 4.4-6.7 2.2-11.3-2.2-4.7-6.7-7.2-10.1-5.6-3.4 1.6-4.4 6.7-2.2 11.3 2.2 4.7 6.7 7.2 10.1 5.6z"/></g><g class="st13"><path class="st14" d="M141.9 359.8c1.7-1.1 2.1-3.6.8-5.6-1.3-2-3.7-2.7-5.4-1.6-1.7 1.1-2.1 3.6-.8 5.6 1.2 1.9 3.7 2.7 5.4 1.6z"/></g><g class="st6"><path class="st15" d="M114.7 320.9c-4.7 7.6-6.2 16.7-3.4 27.3 2.6 10 8.3 18.5 15.8 24.7 5.7 4.7 25.4 10.3 46.6 5 7.5-1.9 14.3-5.2 20-9.1-26.2 6-50.2-.9-57.3-6.7-9.6-7.9-16.8-18.6-20.1-31.3-.8-3.2-1.4-6.5-1.6-9.9z"/></g><path class="st8" d="M109.6 325.4c-.3 0-.5-.1-.7-.2-.2-.1-.4-.3-.5-.5-.1-.2-.2-.5-.2-.7 0-.3 0-.5.1-.7 5.8-15.2 21.3-27.1 42.6-32.6 21.4-5.6 40.9-2.6 53.3 8.3.3.3.5.6.5 1s-.1.8-.3 1.1c-.2.3-.6.5-1 .6s-.8 0-1.1-.3l-.1-.1c-11.7-10.2-30.1-13-50.6-7.7-20.3 5.3-35.1 16.6-40.5 30.8l-.1.2-.1.2c-.1.2-.3.4-.5.5-.3 0-.6.1-.8.1z"/><g class="st13"><path class="st14" d="M205.6 340.4s1.4-28.3-15.4-35c-16.8-6.7-37-1.4-36.2-.2 0 0 23.8-.4 37.2 15 10.3 11.9 14.4 20.2 14.4 20.2z"/></g><path class="st5" d="M224.4 342s-7.5-10.4-19.9-9.8c-8.8.4-12.8 17-3.3 25.9 4.5 4.2 8.5 5.4 9.7 14.4"/><path class="st8" d="M210.9 374.3c-.4 0-.8-.2-1.1-.4-.3-.3-.5-.7-.6-1.1-.9-6.5-3.2-8.4-6.4-11-.9-.7-1.8-1.5-2.8-2.4-6.5-6-7.1-14.9-4.9-20.9 1.8-4.8 5.2-7.8 9.3-8 13.3-.7 21.1 10.1 21.4 10.5.3.4.4.8.3 1.3-.1.4-.3.8-.7 1.1-.4.3-.8.4-1.3.3-.4-.1-.8-.3-1.1-.7-.1-.1-7.1-9.7-18.4-9.1-2.6.1-5 2.3-6.2 5.7-1.8 4.8-1.3 12.3 4 17.2.9.8 1.7 1.5 2.6 2.2 3.4 2.8 6.6 5.4 7.7 13.3v.7l-.3.6c-.1.2-.3.3-.5.4-.2.1-.4.2-.6.2-.2.1-.3.1-.4.1z"/><g class="st6"><path class="st7" d="M149.8 392l1.6 17c37.6 27.1 52.3-11.6 56.2-19 .8-1.5 3.4-6.1 5.1-7.2 1.8-1.2 3.5-5.2 3.7-8.1 0 0-1.1-10.5-4.7-13.7-3.7-3.2-12-2-16.1.4-5.7 3.3-9.8 11.2-16.6 18.1-8.5 8.5-26.6 5.4-29.2 12.5z"/></g><path class="st5" d="M147.7 388.4l3.6 19.8.1.8c35.5 12.6 50.8-17.2 57.1-25.4 1.1-1.4 4.2-3.2 5.8-4.2 1.8-1.2 2.7-3.6 2.9-6.5.4-5.6-1.9-13-5.4-16.1-3.7-3.2-12-2-16.1.4-5.7 3.3-9.8 11.2-16.6 18.1-8.6 8.3-28.8 6-31.4 13.1z"/><g class="st6"><path class="st7" d="M151.2 408.2l.1.8c35.5 12.6 50.8-17.2 57.1-25.4 1.1-1.4 4.2-3.2 5.8-4.2 1.8-1.2 2.7-3.6 2.9-6.5-1 1.4-2.3 2.6-3.8 2.7-3.9.4-9.4.2-11 2.3-1.6 2.1-4.4 12.4-14.6 21.1-10.2 8.8-27.8 11.6-36.5 9.2z"/></g><path class="st8" d="M147 388.2c.3-1.1.9-2 1.7-2.7s1.7-1.2 2.5-1.7c1.8-.9 3.6-1.4 5.4-1.9 3.6-.9 7.3-1.6 10.7-2.5 3.4-1 6.8-2.2 9.4-4.3.3-.2.6-.6.9-.8.3-.3.6-.6.9-1 .6-.6 1.2-1.3 1.8-2 1.2-1.4 2.3-2.8 3.5-4.2 2.3-2.9 4.5-5.9 7.3-8.6 1.4-1.3 3.1-2.6 5-3.4 1.9-.8 3.8-1.3 5.7-1.6 2-.3 4-.3 6 0 1.1.2 2.1.5 3.1 1l.7.4.7.5c.4.3.8.7 1.2 1.1 1.4 1.6 2.3 3.4 3.1 5.2.7 1.8 1.3 3.7 1.6 5.6.3 1.9.5 3.9.3 5.9-.1 1-.3 2-.6 3-.3 1.1-.8 2.1-1.5 3-.2.2-.4.5-.6.7-.2.2-.5.4-.7.6l-.2.1-.2.1-.3.2-.6.4c-.8.5-1.5 1-2.3 1.5-.7.5-1.4 1-1.9 1.5-.2.2-.5.6-.7.9l-.8 1.1c-2.1 3-4.2 6.1-6.6 9-1.2 1.5-2.4 2.9-3.7 4.2-1.3 1.4-2.7 2.7-4.1 3.9-2.9 2.5-6.1 4.6-9.6 6.2-3.5 1.7-7.2 2.7-11 3.2-3.8.4-7.6.4-11.3-.2-3.7-.6-7.3-1.6-10.8-3-.2-.1-.3-.2-.4-.4-.1-.2-.1-.4 0-.5.1-.2.2-.3.4-.4.2-.1.4-.1.5 0 3.5 1.1 7 1.9 10.6 2.3 3.6.4 7.2.4 10.7-.2 3.5-.5 6.9-1.6 10.1-3.2.8-.4 1.6-.8 2.4-1.3l1.2-.7 1.1-.7c.8-.5 1.5-1 2.2-1.5.7-.6 1.4-1.1 2.1-1.7 1.4-1.2 2.6-2.4 3.9-3.7 1.2-1.3 2.4-2.7 3.6-4.1 2.3-2.8 4.3-5.8 6.4-8.9l.8-1.2c.3-.4.5-.8 1-1.2.8-.8 1.6-1.4 2.4-1.9.8-.6 1.6-1.1 2.4-1.5l.6-.4.3-.2.1-.1.1-.1.3-.3c.1-.1.2-.2.3-.4.8-1.1 1.2-2.7 1.4-4.4.1-1.7 0-3.4-.3-5.1-.3-1.7-.8-3.4-1.4-5-.6-1.6-1.5-3.1-2.5-4.3-.2-.3-.5-.5-.8-.8-.1-.1-.3-.2-.4-.3l-.5-.3c-.7-.3-1.4-.6-2.2-.7-1.6-.3-3.3-.3-5 0-1.7.2-3.4.7-4.9 1.3-1.5.6-2.8 1.6-4.1 2.8-2.5 2.4-4.7 5.3-7 8.2-1.2 1.4-2.3 2.9-3.6 4.3-.6.7-1.3 1.4-1.9 2.1-.3.3-.6.7-1 1-.4.3-.7.7-1.1 1-1.6 1.3-3.3 2.2-5.1 3-1.8.7-3.6 1.3-5.4 1.8-3.6 1-7.3 1.6-10.9 2.4-1.8.4-3.5.8-5.1 1.4-1.6.6-3.1 1.4-3.8 2.8-.1.2-.2.3-.4.3-.2.1-.3.1-.5 0s-.3-.2-.4-.3c-.2 0-.2-.2-.2-.3z"/><path class="st8" d="M188.5 407.2c-.3 0-.6-.1-.8-.3-14.4-10.5-9.8-31.6-9.6-32.5.1-.4.3-.7.6-.9.3-.2.7-.3 1.1-.2.4.1.7.3.9.6.2.3.3.7.2 1.1 0 .2-4.3 20.2 8.5 29.6.2.2.4.4.5.7.1.3.1.6 0 .9-.1.3-.3.5-.5.7-.3.2-.6.3-.9.3zM211.9 334.5c-.4 0-.7-.2-1-.4-.3-.3-.4-.6-.4-1V227c0-.4.2-.7.4-1 .3-.3.6-.4 1-.4s.7.1 1 .4c.3.3.4.6.4 1v106c0 .4-.2.7-.4 1-.3.3-.6.5-1 .5zM244.4 407.2h-.3c-4.2-.9-6.3-3.7-8.3-6.4-2.7-3.6-5.3-7-13-6.8-4.3.1-7.5-1.1-9.6-3.6-3.4-4-2.3-9.8-2.3-10.1.1-.4.3-.7.6-.9.3-.2.7-.3 1.1-.2.4.1.7.3.9.6.2.3.3.7.2 1.1 0 .1-.8 4.8 1.7 7.7 1.5 1.8 4 2.6 7.4 2.5 9.2-.2 12.5 4.1 15.4 7.9 1.9 2.5 3.5 4.6 6.6 5.3.3.1.6.3.9.6.2.3.3.6.3 1s-.2.7-.5.9c-.4.3-.7.4-1.1.4z"/><path class="st16" d="M212.7 256c10.1 0 18.3-3.4 18.3-7.5s-8.2-7.5-18.3-7.5c-10.1 0-18.3 3.4-18.3 7.5.1 4.2 8.2 7.5 18.3 7.5z"/><path class="st8" d="M212.7 256.3c-10.2 0-18.5-3.5-18.5-7.7 0-4.3 8.3-7.7 18.5-7.7s18.5 3.5 18.5 7.7-8.3 7.7-18.5 7.7zm0-15c-10 0-18.1 3.3-18.1 7.3s8.1 7.3 18.1 7.3c10 0 18.1-3.3 18.1-7.3 0-4.1-8.1-7.3-18.1-7.3z"/><path class="st5" d="M212.7 256c10.1 0 18.3-3.4 18.3-7.5s-8.2-7.5-18.3-7.5c-10.1 0-18.3 3.4-18.3 7.5.1 4.2 8.2 7.5 18.3 7.5z"/><path class="st8" d="M212.7 256.3c-10.2 0-18.5-3.5-18.5-7.7 0-4.3 8.3-7.7 18.5-7.7s18.5 3.5 18.5 7.7-8.3 7.7-18.5 7.7zm0-15c-10 0-18.1 3.3-18.1 7.3s8.1 7.3 18.1 7.3c10 0 18.1-3.3 18.1-7.3 0-4.1-8.1-7.3-18.1-7.3z"/><g class="st17"><path class="st18" d="M212.7 256c10.1 0 18.3-3.4 18.3-7.5s-8.2-7.5-18.3-7.5c-10.1 0-18.3 3.4-18.3 7.5.1 4.2 8.2 7.5 18.3 7.5z"/></g><path class="st8" d="M212.7 257.4c-11.2 0-19.6-3.8-19.6-8.9 0-5.1 8.4-8.9 19.6-8.9 11.2 0 19.6 3.8 19.6 8.9.1 5.1-8.4 8.9-19.6 8.9zm0-15c-9.7 0-16.9 3.2-16.9 6.1 0 2.9 7.2 6.1 16.9 6.1s16.9-3.2 16.9-6.1c0-2.9-7.2-6.1-16.9-6.1z"/><path class="st5" d="M260 251.1c10-1.6 17.5-6.2 16.9-10.2-.6-4.1-9.2-6.1-19.2-4.6-10 1.6-17.5 6.2-16.9 10.2.7 4.1 9.3 6.2 19.2 4.6z"/><path class="st8" d="M253.5 251.9c-2.4 0-4.6-.2-6.6-.7-3.7-.9-6-2.5-6.3-4.6-.3-2.1 1.3-4.3 4.6-6.3 3.2-1.9 7.7-3.4 12.5-4.2 4.8-.8 9.5-.7 13.2.2 3.7.9 6 2.5 6.3 4.6s-1.3 4.3-4.6 6.3c-3.2 1.9-7.7 3.4-12.5 4.2-2.2.3-4.4.5-6.6.5zm10.8-15.9c-2.2 0-4.4.2-6.5.5-4.8.8-9.2 2.2-12.3 4.1-3.1 1.9-4.7 4-4.4 5.8.3 1.9 2.4 3.4 5.9 4.2 3.6.9 8.2.9 13 .2 4.8-.7 9.2-2.2 12.3-4.1 3.1-1.9 4.7-4 4.4-5.8-.3-1.9-2.4-3.4-5.9-4.2-1.9-.5-4.2-.7-6.5-.7z"/><path class="st8" d="M253.5 253c-2.5 0-4.8-.2-6.9-.7-4.2-1-6.7-3-7.1-5.5-.4-2.6 1.4-5.2 5.1-7.4 3.3-2 7.9-3.6 12.9-4.4 5-.8 9.8-.7 13.6.2 4.2 1 6.7 3 7.1 5.5.4 2.6-1.4 5.2-5.1 7.4-3.3 2-7.9 3.6-12.9 4.4-2.2.3-4.4.5-6.7.5zm10.8-15.8c-2.1 0-4.2.2-6.3.5-4.7.7-8.9 2.1-11.9 4-2.6 1.6-4 3.3-3.8 4.7.2 1.4 2.1 2.6 5.1 3.3 3.5.8 7.9.9 12.6.1 4.7-.7 8.9-2.1 11.9-4 2.6-1.6 4-3.3 3.8-4.7-.2-1.4-2.1-2.6-5.1-3.3-1.9-.4-4-.6-6.3-.6z"/><path class="st5" d="M184.6 246.6c.6-4.1-6.9-8.7-16.9-10.2-10-1.6-18.6.5-19.2 4.6s6.9 8.7 16.9 10.2c10 1.5 18.6-.5 19.2-4.6z"/><path class="st8" d="M172 251.9c-2.2 0-4.4-.2-6.6-.5-4.9-.8-9.3-2.3-12.5-4.2-3.3-2-4.9-4.2-4.6-6.3.3-2.1 2.6-3.7 6.3-4.6 3.7-.9 8.3-.9 13.2-.2 4.9.8 9.3 2.3 12.5 4.2 3.3 2 4.9 4.2 4.6 6.3-.3 2.1-2.6 3.7-6.3 4.6-2 .4-4.2.7-6.6.7zM161.2 236c-2.4 0-4.6.2-6.5.7-3.5.8-5.6 2.3-5.9 4.2-.3 1.9 1.3 4 4.4 5.8 3.2 1.9 7.6 3.4 12.3 4.1 4.8.8 9.4.7 13-.2 3.5-.8 5.6-2.3 5.9-4.2.3-1.9-1.3-4-4.4-5.8-3.2-1.9-7.6-3.4-12.3-4.1-2.2-.3-4.3-.5-6.5-.5z"/><g class="st17"><path class="st18" d="M260 251.1c10-1.6 17.5-6.2 16.9-10.2-.6-4.1-9.2-6.1-19.2-4.6-10 1.6-17.5 6.2-16.9 10.2.7 4.1 9.3 6.2 19.2 4.6z"/></g><g class="st17"><path class="st18" d="M184.6 246.6c.6-4.1-6.9-8.7-16.9-10.2-10-1.6-18.6.5-19.2 4.6s6.9 8.7 16.9 10.2c10 1.5 18.6-.5 19.2-4.6z"/></g><path class="st8" d="M172 253c-2.3 0-4.5-.2-6.8-.5-5-.8-9.6-2.3-12.9-4.4-3.7-2.2-5.5-4.9-5.1-7.4.4-2.6 2.9-4.5 7.1-5.5 3.8-.9 8.6-1 13.6-.2s9.6 2.3 12.9 4.4c3.7 2.2 5.5 4.9 5.1 7.4-.4 2.6-2.9 4.5-7.1 5.5-2 .5-4.3.7-6.8.7zm-10.8-15.8c-2.3 0-4.4.2-6.2.7-3 .7-4.9 1.9-5.1 3.3-.2 1.3 1.2 3.1 3.8 4.7 3 1.8 7.3 3.3 11.9 4 4.7.7 9.1.7 12.6-.1 3-.7 4.9-1.9 5.1-3.3.2-1.3-1.2-3.1-3.8-4.7-3-1.8-7.3-3.3-11.9-4-2.2-.5-4.3-.6-6.4-.6z"/><path class="st19" d="M212.7 248.5c45.2 0 81.9-9.3 81.9-20.7 0-11.4-36.7-20.7-81.9-20.7s-81.9 9.2-81.9 20.7 36.7 20.7 81.9 20.7z"/><path class="st8" d="M212.7 248.8c-21.9 0-42.5-2.1-58-6.1-15.6-3.9-24.1-9.2-24.1-14.8 0-5.6 8.6-10.9 24.1-14.8 15.5-3.9 36.1-6.1 58-6.1s42.5 2.1 58 6.1c15.6 3.9 24.1 9.2 24.1 14.8 0 5.6-8.6 10.9-24.1 14.8-15.5 3.9-36.1 6.1-58 6.1zm0-41.4c-45 0-81.7 9.2-81.7 20.4 0 11.3 36.6 20.4 81.7 20.4 45 0 81.7-9.2 81.7-20.4s-36.6-20.4-81.7-20.4z"/><path class="st5" d="M294.4 229.4c-.5 1.6-1.7 3.2-3.6 4.8-10.5 8.4-41.5 14.4-78.1 14.4-36.6 0-67.6-6.1-78.1-14.4-1.9-1.5-3.1-3.1-3.6-4.8 3-6.6 38.4-11.8 81.7-11.8 43.3-.1 78.7 5.1 81.7 11.8z"/><path class="st8" d="M212.7 248.8c-35.9 0-67.4-5.8-78.2-14.5-2-1.6-3.2-3.2-3.7-4.9v-.2c3.1-6.8 38.3-12 81.9-12 43.6 0 78.8 5.2 81.9 12v.2c-.5 1.7-1.7 3.3-3.7 4.9-10.8 8.7-42.2 14.5-78.2 14.5zm-81.3-19.4c.5 1.5 1.6 3.1 3.5 4.5 10.8 8.6 42.1 14.3 77.9 14.3 35.8 0 67.1-5.8 77.9-14.3 1.8-1.5 3-3 3.5-4.5-3.3-6.5-38.9-11.6-81.4-11.6-42.5 0-78.2 5.1-81.4 11.6z"/><g class="st17"><path class="st18" d="M294.4 229.4c-.5 1.6-1.7 3.2-3.6 4.8-10.5 5.2-41.5 8.9-78.1 8.9-36.6 0-67.6-3.7-78.1-8.9-1.9-1.5-3.1-3.1-3.6-4.8 3-6.6 38.4-11.8 81.7-11.8 43.3-.1 78.7 5.1 81.7 11.8z"/></g><path class="st8" d="M212.7 249.9c-22 0-42.7-2.2-58.2-6.1-11.4-2.9-25-8-25-15.9s13.6-13.1 25-15.9c15.6-3.9 36.3-6.1 58.2-6.1s42.7 2.2 58.2 6.1c11.4 2.9 25 8 25 15.9s-13.6 13.1-25 15.9c-15.5 3.9-36.2 6.1-58.2 6.1zm0-41.3c-48.2 0-80.5 10-80.5 19.3s32.4 19.3 80.5 19.3c48.2 0 80.5-10 80.5-19.3s-32.3-19.3-80.5-19.3z"/><path class="st20" d="M347.5 203.5v7.9c0 14.7-60.3 26.5-134.7 26.5C138.3 237.9 78 226 78 211.3v-7.9"/><path class="st8" d="M212.7 238.1c-36 0-69.9-2.8-95.3-7.8-25.6-5-39.6-11.8-39.6-19v-7.9h.4v7.9c0 14.5 60.3 26.3 134.5 26.3s134.5-11.8 134.5-26.3v-7.9h.4v7.9c0 7.2-14.1 13.9-39.6 19-25.4 5-59.3 7.8-95.3 7.8z"/><g class="st17"><path class="st18" d="M347.5 207.7v3.7c0 14.6-60.3 26.5-134.7 26.5C138.3 237.9 78 226 78 211.3v-3.7c0 14.7 60.3 26.5 134.7 26.5 74.4.1 134.8-11.8 134.8-26.4z"/></g><path class="st8" d="M212.7 239.2c-36.1 0-70-2.8-95.5-7.8-18.5-3.6-40.6-10.1-40.6-20.1v-7.9c0-.4.1-.7.4-1 .3-.3.6-.4 1-.4s.7.1 1 .4c.3.3.4.6.4 1v7.9c0 12.1 53.6 25.2 133.4 25.2 79.8 0 133.4-13 133.4-25.2v-7.9c0-.4.1-.7.4-1 .3-.3.6-.4 1-.4s.7.1 1 .4c.3.3.4.6.4 1v7.9c0 10-22.1 16.5-40.6 20.1-25.7 5.1-59.6 7.8-95.7 7.8z"/><path class="st21" d="M212.6 230c74.4 0 134.7-11.9 134.7-26.5 0-14.7-60.3-26.5-134.7-26.5-74.4 0-134.7 11.9-134.7 26.5-.1 14.6 60.3 26.5 134.7 26.5z"/><g class="st13"><path class="st14" d="M214.5 224.2c-4.8 0-8.5-2.7-8.5-6.2s3.7-6.2 8.5-6.2 8.5 2.7 8.5 6.2c0 3.4-3.7 6.2-8.5 6.2zm0-9.7c-3.1 0-5.8 1.6-5.8 3.5s2.6 3.5 5.8 3.5c3.1 0 5.8-1.6 5.8-3.5s-2.7-3.5-5.8-3.5z"/></g><g class="st13"><path class="st14" d="M267.3 222.5c-2 0-3.8-.5-5.3-1.4-1.8-1.1-2.8-2.7-2.9-4.4-.1-1.7.8-3.4 2.5-4.7 1.5-1.1 3.5-1.8 5.7-1.9 4.8-.2 8.6 2.3 8.8 5.8.2 3.5-3.4 6.4-8.2 6.6h-.6zm.6-9.7h-.4c-1.6.1-3.1.6-4.2 1.4-.5.4-1.4 1.2-1.4 2.3.1 1.1 1 1.9 1.6 2.2 1.1.7 2.7 1.1 4.3 1 3.1-.1 5.7-1.8 5.6-3.7-.1-1.8-2.6-3.2-5.5-3.2z"/></g><g class="st13"><path class="st14" d="M312.4 214.8c-4.5 0-8-2.5-8.2-5.8-.1-1.7.8-3.4 2.5-4.7 1.5-1.1 3.6-1.8 5.7-1.9 2.2-.1 4.3.4 5.9 1.4 1.8 1.1 2.8 2.7 2.9 4.4.1 1.7-.8 3.4-2.5 4.7-1.5 1.1-3.5 1.8-5.7 1.9h-.6zm.6-9.6h-.4c-1.6.1-3.1.6-4.2 1.4-.5.4-1.4 1.2-1.4 2.3.1 1.9 2.8 3.3 5.9 3.2 1.6-.1 3.1-.6 4.2-1.4.5-.4 1.4-1.2 1.4-2.3-.1-1.1-1-1.9-1.6-2.2-1.1-.7-2.5-1-3.9-1z"/></g><g class="st13"><path class="st14" d="M163 222.5h-.6c-4.8-.2-8.4-3.1-8.2-6.6.2-3.5 4-6 8.8-5.8 2.2.1 4.2.8 5.7 1.9 1.7 1.2 2.6 2.9 2.5 4.7-.2 3.3-3.7 5.8-8.2 5.8zm-6.1-6.5c-.1 1.9 2.5 3.6 5.6 3.7 3.1.1 5.8-1.3 5.9-3.2.1-1.1-.8-1.9-1.4-2.3-1.1-.8-2.6-1.3-4.2-1.4-3.1-.1-5.8 1.3-5.9 3.2z"/></g><g class="st13"><path class="st14" d="M117.9 214.8h-.6c-2.2-.1-4.2-.8-5.7-1.9-1.7-1.2-2.6-2.9-2.5-4.7.1-1.7 1.1-3.3 2.9-4.4 1.6-1 3.7-1.5 5.9-1.4 2.2.1 4.2.8 5.7 1.9 1.7 1.2 2.6 2.9 2.5 4.7-.2 3.3-3.7 5.8-8.2 5.8zm-.6-9.6c-1.5 0-2.9.4-3.9 1-.6.4-1.5 1.1-1.6 2.2-.1 1.1.8 1.9 1.4 2.3 1.1.8 2.6 1.3 4.2 1.4 3.1.1 5.8-1.3 5.9-3.2.1-1.1-.8-1.9-1.4-2.3-1.1-.8-2.6-1.3-4.2-1.4h-.4z"/></g><g class="st13"><path class="st14" d="M291.7 191.6c0 6.8-35 16.6-78.3 16.6-43.2 0-78.3-9.7-78.3-16.6 0-6.8 35-12.4 78.3-12.4s78.3 5.6 78.3 12.4z"/></g><g class="st17"><path class="st18" d="M268.3 195.5s21 10.6 24.9 16c3.9 5.4 11.2 11.3 11.2 11.3s67.8-13.3 33-28.8c0 0 8.8 5.7 6.4 9.8-3.5 6-18.5 11.5-28.5 13.6-2.6.6-5.3.5-7.9-.2-2.6-.7-4.9-2-6.9-3.8-5.3-4.9-14.4-12.1-27.5-17.9-4.5-2-4.7 0-4.7 0z"/></g><g class="st17"><path class="st18" d="M158.4 195.5s-21 10.6-24.9 16c-3.9 5.4-11.2 11.3-11.2 11.3s-67.8-13.3-33-28.8c0 0-9 5.8-6.4 9.8 4.4 6.8 17.9 11.3 27.8 13.5 2.8.6 5.7.5 8.5-.2s5.3-2.1 7.4-4.1c5.3-4.9 14.3-11.8 27.1-17.6 4.5-1.9 4.7.1 4.7.1z"/></g><g class="st17"><path class="st18" d="M157.7 196.2s-30.4 16.1-35 27c0 0 37 6.8 90.1 6.8 53.1 0 90.6-7.6 90.6-7.6S281 197 266.2 195.9c-14.8-1.1-4.3 1.1-4.3 1.1s20.8 9.2 31.6 19.6c1.6 1.6.8 4.4-1.5 4.7-12 1.7-43.8 5.6-79.8 5.6-35.5 0-66.1-3.7-77.9-5.3-2.3-.3-3.2-3.1-1.5-4.7 2.4-2.3 5-4.4 7.7-6.4 5.5-4 20.1-12.5 20.1-12.5l-2.9-1.8z"/></g><path class="st22" d="M285.3 188.9c0 7.9-32.5 14.3-72.6 14.3-40.1 0-72.6-6.4-72.6-14.3s72.6-8.2 72.6-8.2 72.6.3 72.6 8.2z"/><path class="st8" d="M212.7 203.5c-40.9 0-72.9-6.4-72.9-14.6 0-7.9 65.4-8.5 72.9-8.5s72.9.6 72.9 8.5c0 8.2-32 14.6-72.9 14.6zm0-22.5c-20.1.1-72.3 1.7-72.3 8 0 3.6 7.7 7.2 21 9.8 13.7 2.7 31.9 4.2 51.3 4.2s37.6-1.5 51.3-4.2c13.4-2.6 21-6.2 21-9.8 0-6.3-52.2-7.9-72.3-8z"/><path class="st22" d="M204.6 203.3c.5 0 1 0 1.6.1 2.1.1 4.3.1 6.5.1 3.8 0 7.5-.1 11.1-.3 20.4-1 35.5-4.6 35.5-8.9 0-3.7-24.3-4.8-37.8-5.1h-.5c-1.1 0-2.1 0-3.1-.1-3.2-.1-5.2-.1-5.2-.1s-1.5 0-4 .1h-.5c-1.4 0-3.1.1-5 .1-13.6.4-37 1.5-37 5.1 0 4.2 14.4 7.7 34 8.8h.2l4.2.2z"/><path class="st8" d="M212.7 203.8c-2.2 0-4.4 0-6.5-.1-.6 0-1.1 0-1.6-.1l-4.2-.2h-.2c-17.1-.9-34.3-4.1-34.3-9.1 0-2.9 12.6-4.7 37.3-5.4 1.9-.1 3.6-.1 5-.1h.5c2.5 0 4.1-.1 4.1-.1s2 0 5.2.1c.9 0 2 0 3.1.1h.5c17.3.5 38 1.7 38 5.4 0 5.2-18 8.3-35.8 9.2-3.6.2-7.3.3-11.1.3zm-8.1-.8h1.6c5.9.2 11.9.1 17.6-.2 20.4-1 35.2-4.6 35.2-8.6 0-2.4-14-4.2-37.5-4.8h-.5c-1.1 0-2.1 0-3.1-.1-3.1-.1-5.2-.1-5.2-.1s-1.5 0-4 .1h-.5c-1.4 0-3.1.1-5 .1-23 .6-36.8 2.4-36.8 4.8 0 3.9 14.2 7.5 33.7 8.5h.2l4.3.3z"/><path class="st23" d="M285.3 188.9c0 .9-.4 1.8-1.3 2.7-9.7-6.2-71.3-6.5-71.3-6.5s-61.6.3-71.3 6.5c-.8-.9-1.3-1.8-1.3-2.7 0-7.9 72.6-8.2 72.6-8.2s72.6.3 72.6 8.2z"/><path class="st8" d="M141.4 192l-.2-.2c-.9-.9-1.4-1.9-1.4-2.9 0-7.9 65.4-8.5 72.9-8.5s72.9.6 72.9 8.5c0 1-.5 1.9-1.4 2.9l-.2.2-.2-.1c-9.5-6.1-70.6-6.5-71.2-6.5-.6 0-61.7.4-71.2 6.5v.1zm71.3-7.2c2.5 0 61 .4 71.3 6.4.7-.8 1-1.6 1-2.3 0-6.2-52.2-7.9-72.3-8-20.1.1-72.3 1.7-72.3 8 0 .8.3 1.5 1 2.3 10.3-6 68.8-6.4 71.3-6.4z"/><path class="st8" d="M212.7 231.4c-36.1 0-70-2.8-95.5-7.8-18.5-3.6-40.6-10.1-40.6-20.1 0-10 22.1-16.5 40.6-20.1 25.5-5 59.5-7.8 95.5-7.8 36.1 0 70 2.8 95.5 7.8 18.5 3.6 40.6 10.1 40.6 20.1 0 10-22.1 16.5-40.6 20.1-25.5 5-59.4 7.8-95.5 7.8zm0-53.1c-79.8 0-133.4 13-133.4 25.2s53.6 25.2 133.4 25.2c79.8 0 133.4-13 133.4-25.2s-53.6-25.2-133.4-25.2z"/><path class="st24" d="M284.4 190.2c0 7.8-32.1 14.1-71.6 14.1-39.6 0-71.6-6.3-71.6-14.1 0-27.3 14.1-83.3 71.6-83.3 57.5 0 71.6 56 71.6 83.3z"/><g class="st13"><path class="st14" d="M143.7 192.9c0-27.3 14.1-83.3 71.6-83.3 20.2 0 35.1 6.9 45.9 17.1-10.9-11.6-26.6-19.7-48.5-19.7-57.6 0-71.6 56-71.6 83.3 0 1.4 1.1 2.8 3 4-.2-.5-.3-1-.4-1.4z"/></g><path class="st8" d="M212.7 206.2c-29.5 0-73.5-4.2-73.5-16 0-6.9 1-31 14.5-52.8 13-21.1 33.4-32.3 59-32.3 58.1 0 73.5 55.7 73.5 85.1 0 11.7-43.9 16-73.5 16zm0-97.4c-55.2 0-69.8 53.3-69.8 81.4 0 1.6 4.1 5.1 19.5 8.2 13.4 2.6 31.3 4.1 50.3 4.1s36.9-1.5 50.3-4.1c15.4-3 19.5-6.6 19.5-8.2 0-13.6-3.7-34.2-14-50.9-12.4-20.3-31.2-30.5-55.8-30.5z"/><path class="st25" d="M212.7 222.4c3.9 0 7.1-2.2 7.1-4.8s-3.2-4.8-7.1-4.8c-3.9 0-7.1 2.2-7.1 4.8s3.2 4.8 7.1 4.8z"/><path class="st8" d="M212.7 222.6c-4.1 0-7.4-2.3-7.4-5.1s3.3-5.1 7.4-5.1c4.1 0 7.4 2.3 7.4 5.1s-3.3 5.1-7.4 5.1zm0-9.6c-3.8 0-6.8 2-6.8 4.5s3.1 4.5 6.8 4.5c3.8 0 6.8-2 6.8-4.5s-3-4.5-6.8-4.5z"/><g class="st17"><path class="st26" d="M219.9 217.5c0 .5-.1 1-.3 1.5-.9-1.9-3.6-3.3-6.8-3.3s-5.9 1.4-6.8 3.3c-.2-.5-.3-1-.3-1.5 0-2.7 3.2-4.8 7.1-4.8 3.9 0 7.1 2.2 7.1 4.8z"/><path class="st18" d="M219.5 219.7l-.3-.5c-.9-1.9-3.5-3.2-6.5-3.2s-5.6 1.3-6.5 3.2l-.3.5-.3-.5c-.2-.5-.4-1-.4-1.6 0-2.8 3.3-5.1 7.4-5.1 4.1 0 7.4 2.3 7.4 5.1 0 .6-.1 1.1-.4 1.6l-.1.5zm-6.8-6.7c-3.8 0-6.8 2-6.8 4.5 0 .3 0 .5.1.8 1.2-1.8 3.8-3 6.7-3s5.5 1.2 6.7 3c.1-.3.1-.5.1-.8.1-2.5-3-4.5-6.8-4.5z"/></g><path class="st8" d="M212.7 223.7c-4.8 0-8.5-2.7-8.5-6.2s3.7-6.2 8.5-6.2 8.5 2.7 8.5 6.2-3.7 6.2-8.5 6.2zm0-9.6c-3.1 0-5.8 1.6-5.8 3.5s2.6 3.5 5.8 3.5c3.1 0 5.8-1.6 5.8-3.5s-2.7-3.5-5.8-3.5z"/><path class="st25" d="M266.1 220.6c3.9-.2 7-2.5 6.9-5.1-.1-2.7-3.4-4.7-7.3-4.5-3.9.2-7 2.5-6.9 5.1s3.3 4.7 7.3 4.5z"/><path class="st8" d="M265.6 221c-1.8 0-3.4-.4-4.8-1.2-1.5-.9-2.3-2.2-2.4-3.5-.1-1.4.7-2.7 2-3.7s3.2-1.6 5.1-1.7c2-.1 3.8.3 5.3 1.2 1.5.9 2.3 2.2 2.4 3.5.1 1.4-.7 2.7-2 3.7s-3.2 1.6-5.1 1.7c-.2-.1-.4 0-.5 0zm.5-9.7h-.5c-1.8.1-3.6.6-4.8 1.6-1.2.9-1.9 2.1-1.8 3.3.1 1.2.8 2.3 2.1 3.1 1.3.8 3.1 1.2 4.9 1.1 1.8-.1 3.6-.6 4.8-1.6 1.2-.9 1.9-2.1 1.8-3.3-.1-1.2-.8-2.3-2.1-3.1-1.1-.7-2.7-1.1-4.4-1.1z"/><g class="st17"><path class="st26" d="M273 215.9c0 1-.4 2-1.2 2.8v-.1c-.1-2.7-3.4-4.7-7.3-4.5-2.4.1-4.5 1-5.7 2.3 0-2.6 3-4.8 6.9-5 3.9-.2 7.1 1.8 7.3 4.5z"/><path class="st18" d="M271.5 219.4v-.7-.1c-.1-1.2-.8-2.3-2.1-3.1-1.3-.8-3.1-1.2-4.9-1.1-2.2.1-4.3.9-5.5 2.2l-.5.5v-.7c0-2.8 3.1-5.1 7.2-5.3 2-.1 3.8.3 5.3 1.2 1.5.9 2.3 2.2 2.4 3.5 0 1.1-.4 2.1-1.3 3.1l-.6.5zm-6.6-5.6c1.8 0 3.4.4 4.8 1.2 1.3.8 2.1 1.8 2.3 3 .5-.6.7-1.4.7-2.1-.1-1.2-.8-2.3-2.1-3.1-1.3-.8-3.1-1.2-4.9-1.1-3.3.2-6 1.9-6.5 4 1.3-1.1 3.3-1.8 5.3-1.9h.4z"/></g><path class="st8" d="M265.6 222c-2 0-3.8-.5-5.3-1.4-1.8-1.1-2.8-2.7-2.9-4.4-.1-1.7.8-3.4 2.5-4.7 1.5-1.1 3.6-1.8 5.7-1.9 2.2-.1 4.3.4 5.9 1.4 1.8 1.1 2.8 2.7 2.9 4.4.1 1.7-.8 3.4-2.5 4.7-1.5 1.1-3.6 1.8-5.7 1.9h-.6zm.5-9.6h-.4c-1.6.1-3.1.6-4.2 1.4-.5.4-1.4 1.2-1.4 2.3s1 1.9 1.6 2.2c1.1.7 2.7 1.1 4.3 1 1.6-.1 3.1-.6 4.2-1.4.5-.4 1.4-1.2 1.4-2.3s-1-1.9-1.6-2.2c-1-.7-2.4-1-3.9-1z"/><path class="st25" d="M311.2 213c3.9-.2 7-2.5 6.9-5.1-.1-2.7-3.4-4.7-7.3-4.5-3.9.2-7 2.5-6.9 5.1 0 2.7 3.3 4.7 7.3 4.5z"/><path class="st8" d="M310.7 213.3c-1.8 0-3.4-.4-4.8-1.2-1.5-.9-2.3-2.2-2.4-3.5-.1-1.4.7-2.7 2-3.7s3.2-1.6 5.1-1.7c4.1-.2 7.5 1.9 7.6 4.8.1 1.4-.7 2.7-2 3.7s-3.2 1.6-5.1 1.7c-.1-.1-.3-.1-.4-.1zm.5-9.7h-.5c-1.8.1-3.6.6-4.8 1.6-1.2.9-1.9 2.1-1.8 3.3.1 1.2.8 2.3 2.1 3.1 1.3.8 3.1 1.2 4.9 1.1 1.8-.1 3.6-.6 4.8-1.6 1.2-.9 1.9-2.1 1.8-3.3 0-2.3-2.9-4.2-6.5-4.2z"/><g class="st17"><path class="st26" d="M318 207.8c.1 1.9-1.4 3.5-3.6 4.5.6-.7.9-1.6.8-2.4-.1-2.7-3.4-4.7-7.3-4.5-1.1 0-2.2.3-3.3.7 1.2-1.5 3.4-2.6 6.1-2.7 3.9-.2 7.2 1.8 7.3 4.4z"/><path class="st18" d="M313.5 213l.6-.8c.5-.7.8-1.5.8-2.2-.1-2.5-3.3-4.4-7-4.2-1.1 0-2.2.3-3.2.7l-1 .4.6-.8c1.2-1.6 3.7-2.7 6.3-2.8 2-.1 3.8.3 5.3 1.2 1.5.9 2.3 2.2 2.4 3.5.1 1.9-1.4 3.7-3.8 4.7l-1 .3zm-5.1-7.9c3.9 0 7 2.1 7.1 4.8 0 .6-.1 1.2-.4 1.8 1.7-.9 2.7-2.3 2.6-3.8-.1-1.2-.8-2.3-2.1-3.1-1.3-.8-3.1-1.2-4.9-1.1-2 .1-3.8.8-5.1 1.8.7-.2 1.5-.3 2.2-.3.3-.1.4-.1.6-.1z"/></g><path class="st8" d="M310.7 214.4c-2 0-3.8-.5-5.3-1.4-1.8-1.1-2.8-2.7-2.9-4.4-.1-1.7.8-3.4 2.5-4.7 1.5-1.1 3.5-1.8 5.7-1.9 4.8-.2 8.6 2.3 8.8 5.8.1 1.7-.8 3.4-2.5 4.7-1.5 1.1-3.6 1.8-5.7 1.9h-.6zm.5-9.7h-.4c-1.6.1-3.1.6-4.2 1.4-.5.4-1.4 1.2-1.4 2.3.1 1.1 1 1.9 1.6 2.2 1.1.7 2.7 1.1 4.3 1 1.6-.1 3.1-.6 4.2-1.4.5-.4 1.4-1.2 1.4-2.3-.1-1.8-2.6-3.2-5.5-3.2z"/><path class="st25" d="M168 216.2c.1-2.7-3-5-6.9-5.1-3.9-.2-7.2 1.8-7.3 4.5-.1 2.7 3 5 6.9 5.1 3.9.1 7.2-1.9 7.3-4.5z"/><path class="st8" d="M161.2 221h-.5c-2-.1-3.8-.7-5.1-1.7-1.4-1-2.1-2.4-2-3.7.1-1.4.9-2.6 2.4-3.5 1.4-.9 3.3-1.3 5.3-1.2 2 .1 3.8.7 5.1 1.7 1.4 1 2.1 2.4 2 3.7-.1 1.4-.9 2.6-2.4 3.5-1.4.7-3 1.2-4.8 1.2zm-.6-9.7c-1.7 0-3.2.4-4.5 1.2-1.3.8-2.1 1.9-2.1 3.1-.1 1.2.6 2.3 1.8 3.3 1.3.9 3 1.5 4.8 1.6 1.8.1 3.6-.3 4.9-1.1 1.3-.8 2-1.9 2.1-3.1.1-1.2-.6-2.3-1.8-3.3-1.3-.9-3-1.5-4.8-1.6 0-.1-.2-.1-.4-.1z"/><g class="st17"><path class="st26" d="M168 216.2c-.1 1.2-.8 2.3-2 3.1.1-.3.1-.5.1-.8.1-2.7-3-5-6.9-5.1-2.1-.1-4 .4-5.4 1.4.7-2.3 3.7-3.9 7.2-3.7 4.1.1 7.2 2.4 7 5.1z"/><path class="st18" d="M165.6 220l.2-.8c.1-.2.1-.5.1-.7.1-2.5-2.9-4.7-6.6-4.8-2-.1-3.8.4-5.2 1.3l-.7.5.2-.8c.7-2.4 3.9-4.1 7.5-3.9 4.1.2 7.3 2.6 7.2 5.4-.1 1.3-.8 2.5-2.1 3.4l-.6.4zm-6.8-6.9h.5c4.1.2 7.3 2.6 7.2 5.4v.1c.8-.7 1.2-1.6 1.3-2.5.1-2.5-2.9-4.7-6.6-4.8-2.9-.1-5.5 1-6.6 2.7 1.2-.6 2.7-.9 4.2-.9z"/></g><path class="st8" d="M161.2 222h-.6c-2.2-.1-4.2-.8-5.7-1.9-1.7-1.2-2.6-2.9-2.5-4.7.1-1.7 1.1-3.3 2.9-4.4 1.6-1 3.7-1.5 5.9-1.4 2.2.1 4.2.8 5.7 1.9 1.7 1.2 2.6 2.9 2.5 4.7-.1 1.7-1.1 3.3-2.9 4.4-1.5.9-3.3 1.4-5.3 1.4zm-.5-9.6c-1.5 0-2.9.4-3.9 1-.6.3-1.5 1.1-1.6 2.2-.1 1.1.8 1.9 1.4 2.3 1.1.8 2.6 1.3 4.2 1.4 1.6.1 3.2-.3 4.3-1 .6-.3 1.5-1.1 1.6-2.2s-.8-1.9-1.4-2.3c-1.1-.8-2.6-1.3-4.2-1.4h-.4z"/><path class="st27" d="M123 208.5c.1-2.7-3-5-6.9-5.1-3.9-.2-7.2 1.8-7.3 4.5-.1 2.7 3 5 6.9 5.1 3.8.2 7.1-1.8 7.3-4.5z"/><path class="st8" d="M116.1 213.2h-.5c-1.9-.1-3.8-.7-5.1-1.7-1.4-1-2.1-2.3-2-3.7.1-2.8 3.5-4.9 7.6-4.7 1.9.1 3.8.7 5.1 1.7 1.4 1 2.1 2.3 2 3.7-.2 2.7-3.3 4.7-7.1 4.7zm-.5-9.6c-3.6 0-6.5 1.9-6.6 4.3-.1 1.2.6 2.4 1.8 3.3 1.3.9 3 1.5 4.8 1.6 3.8.2 7-1.7 7.1-4.3.1-1.2-.6-2.4-1.8-3.3-1.3-.9-3-1.5-4.8-1.6h-.5z"/><path class="st8" d="M116.1 214.4h-.6c-2.2-.1-4.2-.8-5.7-1.9-1.7-1.2-2.6-2.9-2.5-4.7.2-3.5 4-6 8.8-5.8 2.2.1 4.2.8 5.7 1.9 1.7 1.2 2.6 2.9 2.5 4.7-.1 3.3-3.7 5.8-8.2 5.8zm-.5-9.7c-2.9 0-5.4 1.4-5.5 3.2-.1 1.1.8 1.9 1.4 2.3 1.1.8 2.6 1.3 4.2 1.4 3.1.1 5.8-1.3 5.9-3.2.1-1.1-.8-1.9-1.4-2.3-1.1-.8-2.6-1.3-4.2-1.4h-.4z"/><path class="st25" d="M123 208.5c.1-2.7-3-5-6.9-5.1-3.9-.2-7.2 1.8-7.3 4.5-.1 2.7 3 5 6.9 5.1 3.8.2 7.1-1.8 7.3-4.5z"/><path class="st8" d="M116.1 213.3h-.5c-2-.1-3.8-.7-5.1-1.7-1.4-1-2.1-2.4-2-3.7.1-2.8 3.6-4.9 7.6-4.8 2 .1 3.8.7 5.1 1.7 1.4 1 2.1 2.4 2 3.7-.1 2.7-3.2 4.8-7.1 4.8zm-.5-9.7c-3.6 0-6.4 1.8-6.6 4.2-.1 1.2.6 2.3 1.8 3.3 1.3.9 3 1.5 4.8 1.6 3.8.2 6.9-1.7 7-4.2.1-1.2-.6-2.3-1.8-3.3-1.3-.9-3-1.5-4.8-1.6h-.4z"/><g class="st17"><path class="st26" d="M122.9 208.5c-.1 1.9-1.9 3.5-4.3 4.2.7-.7 1.2-1.6 1.2-2.5.1-2.7-3-5-6.9-5.1-1-.1-2 .1-3 .3 1.3-1.3 3.6-2.1 6.1-2 4 .1 7.1 2.4 6.9 5.1z"/><path class="st18" d="M117.6 213.2l.8-.8c.7-.7 1.1-1.5 1.1-2.3.1-1.2-.6-2.3-1.8-3.3-1.3-.9-3-1.5-4.8-1.6-1-.1-2 .1-2.9.3l-1 .3.8-.8c1.4-1.4 3.8-2.2 6.4-2.1 2 .1 3.8.7 5.1 1.7 1.4 1 2.1 2.4 2 3.7-.1 2-1.9 3.7-4.6 4.4l-1.1.5zm-5.2-8.5h.5c2 .1 3.8.7 5.1 1.7 1.4 1 2.1 2.4 2 3.7 0 .7-.3 1.4-.6 1.9 1.9-.7 3.1-2.1 3.2-3.6.1-1.2-.6-2.3-1.8-3.3-1.3-.9-3-1.5-4.8-1.6-1.9-.1-3.7.3-5 1.2.5.1 1 0 1.4 0z"/></g><path class="st8" d="M116.1 214.4h-.6c-2.2-.1-4.2-.8-5.7-1.9-1.7-1.2-2.6-2.9-2.5-4.7.2-3.5 4-6 8.8-5.8 2.2.1 4.2.8 5.7 1.9 1.7 1.2 2.6 2.9 2.5 4.7-.1 3.3-3.7 5.8-8.2 5.8zm-.5-9.7c-2.9 0-5.4 1.4-5.5 3.2-.1 1.1.8 1.9 1.4 2.3 1.1.8 2.6 1.3 4.2 1.4 3.1.1 5.8-1.3 5.9-3.2.1-1.1-.8-1.9-1.4-2.3-1.1-.8-2.6-1.3-4.2-1.4h-.4zM303.8 224.4c-.2 0-.4-.1-.6-.2-.2-.1-.4-.3-.5-.4-10.7-16.1-32.1-24-32.3-24-.3-.1-.6-.4-.8-.7-.1-.3-.2-.7 0-1 .1-.3.4-.6.7-.8.3-.2.7-.2 1-.1.9.3 22.4 8.2 33.7 25.1.1.2.2.4.2.7 0 .2 0 .5-.2.7-.1.2-.3.4-.5.5-.2.1-.5.2-.7.2zM122.9 224.4c-.2 0-.5-.1-.7-.2-.2-.1-.4-.3-.5-.5-.1-.2-.2-.5-.2-.7 0-.2.1-.5.2-.7 10.3-15.4 29.4-23.4 33.1-24.9.3-.1.7-.1 1 0 .3.1.6.4.7.8.1.3.1.7 0 1-.1.3-.4.6-.7.7-3.6 1.4-22 9.1-31.8 23.9-.1.2-.3.3-.5.4-.2.1-.4.2-.6.2z"/><g class="st13"><path class="st14" d="M153 174.4s-1.9-12 8.3-25.8c8.7-11.7 14.7-4.6 11 2.3-5.1 9.5-7.4 18.5-9.3 28.1-1.1 5.6-9.5 8.1-10-4.6z"/></g><g class="st13"><path class="st14" d="M178.3 139.1c-2.1 1-8.5 1.7-7.2-5.3 1.3-7 8.8-9 11.5-6.6 1.6 1.4 1.5 9.2-4.3 11.9z"/></g><g class="st13"><path class="st14" d="M100 194.3c6.7-3.9 17.3-6.6 26.9-6.1 8.7.4-7.2 3.5-12.8 4.8-4 .9-11.5 3.8-15.1 4.5-3.5.6-3.3-.7 1-3.2z"/></g><g class="st17"><path class="st18" d="M278.9 191.4c0-23.7-10.7-69.1-51.9-79.8 1.3 1 6.4 5.1 12.4 11.4 24.1 25.3 8.7 67.3-26 71-21.1 2.2-46.2 2.1-70.4-4.6-.7-.2-1.3-.3-1.9-.5v.9c0 7.7 31.6 13.9 70.6 13.9 28.2 0 52.6-3.3 63.9-8 2.2-1.4 3.3-2.8 3.3-4.3z"/></g></svg>