<?xml version="1.0" encoding="utf-8"?>
<!-- Generator: Adobe Illustrator 25.1.0, SVG Export Plug-In . SVG Version: 6.00 Build 0)  -->
<svg version="1.1" id="Camada_1" xmlns="http://www.w3.org/2000/svg" xmlns:xlink="http://www.w3.org/1999/xlink" x="0px" y="0px"
	 viewBox="0 0 578 658" style="enable-background:new 0 0 578 658;" xml:space="preserve">
<style type="text/css">
	.st0{fill-rule:evenodd;clip-rule:evenodd;fill:#E9F6FE;}
	.st1{fill:#FFD527;}
	.st2{fill:#8DD7FF;}
	.st3{fill:none;stroke:#FFD527;stroke-width:2.3376;}
	.st4{fill:#FFFFFF;}
	.st5{opacity:0.5;}
	.st6{opacity:0.5;fill:#FFFFFF;enable-background:new    ;}
	.st7{fill:#371A45;}
	.st8{opacity:0.3;}
	.st9{opacity:0.3;fill:#371A45;enable-background:new    ;}
	.st10{fill:none;stroke:#323232;stroke-width:4;stroke-linecap:round;stroke-linejoin:round;}
	.st11{opacity:0.2;}
	.st12{fill:#F7F7F7;}
	.st13{fill:#F8CE14;}
	.st14{fill:#020202;}
	.st15{opacity:0.5;fill:#371A45;enable-background:new    ;}
	.st16{fill:#4ED31C;}
	.st17{opacity:0.6;}
	.st18{opacity:0.6;fill:#FFFFFF;enable-background:new    ;}
	.st19{fill:#FCCE00;}
	.st20{fill:#F9F9F9;}
	.st21{fill:#08B3FF;}
	.st22{fill:#22A7F0;}
	.st23{fill:#F91E1E;}
</style>
<path class="st0" d="M450.5,401c6.4-20,9.9-41.4,9.9-63.5c0-114.4-92.8-207.2-207.3-207.2S45.9,223,45.9,337.4
	c0,26.2,4.9,51.3,13.7,74.3c2.9,2.1,5.5,4.3,7.8,6.8c7.5-13.6,21.7-23.8,38.9-27.2c-0.1-1.3-0.2-2.6-0.2-3.9
	c0-24.4,22.5-44.1,50.3-44.1c9.2,0,18.3,2.2,26.4,6.6c8.2-14.5,25.3-24.5,45-24.5c18.7,0,35,9,43.7,22.3c1.4,2.1,3.5,3.6,5.9,4.3
	l0.5,0.1c2.7,0.8,5.5,0.7,8-0.5c7.7-3.8,16.3-5.8,24.9-5.8c24.6,0,45.1,15.6,49.4,36.1c11.7,1.2,22.3,5.9,30.1,12.9
	c8.2-4.5,17.4-6.8,26.8-6.8C431.9,388.9,442.7,394,450.5,401z"/>
<path class="st1" d="M10.8,308.4c-0.1,1,1.9,2,5,2.7c0.7,0.2,1.4,0.6,1.9,1.1s0.8,1.3,0.9,2.1c0.3,3.1,1,5.2,2,5.3
	c1,0.1,2-1.9,2.7-5c0.2-0.7,0.6-1.4,1.1-1.9c0.6-0.5,1.3-0.8,2.1-0.9c3.1-0.3,5.2-1,5.3-2c0.1-1-1.9-2-5-2.7
	c-0.7-0.2-1.4-0.6-1.9-1.1c-0.5-0.6-0.8-1.3-0.9-2.1c-0.3-3.1-1-5.2-2-5.3s-2,1.9-2.7,5c-0.2,0.7-0.6,1.4-1.1,1.9
	c-0.6,0.5-1.3,0.8-2.1,0.9C12.9,306.7,10.8,307.4,10.8,308.4z"/>
<path class="st2" d="M344.5,92.9c-1.9-0.9-2.6-3.1-1.7-5c0.9-1.9,3.1-2.6,5-1.7c1.9,0.9,2.6,3.1,1.7,5
	C348.5,93.1,346.3,93.8,344.5,92.9z"/>
<path class="st2" d="M77,142.3c-1.9-0.9-2.6-3.1-1.7-5s3.1-2.6,5-1.7c1.8,0.9,2.6,3.1,1.7,5C81.1,142.4,78.9,143.2,77,142.3z"/>
<path class="st2" d="M-26.3,171.2c-1-0.5-1.4-1.7-0.9-2.7c0.5-1,1.7-1.4,2.7-0.9c1,0.5,1.4,1.7,0.9,2.7
	C-24.1,171.3-25.3,171.7-26.3,171.2z"/>
<path class="st3" d="M451.3,422.5L451.3,422.5c1,0.4,1.9,1.2,2.5,2.1c0.6,0.9,0.9,2,0.8,3.2c-0.1,1.7-0.1,3.1,0.1,4
	c0.1,0.4,0.2,0.7,0.3,0.9c0.2-0.1,0.4-0.3,0.7-0.7c0.6-0.8,1.2-2,1.9-3.5l0,0c0.4-1,1.2-1.9,2.1-2.5c0.9-0.6,2-0.9,3.2-0.8
	c1.7,0.1,3.1,0.1,4-0.1c0.4-0.1,0.7-0.2,0.9-0.3c-0.1-0.2-0.3-0.4-0.7-0.7c-0.8-0.6-2-1.2-3.6-1.9h0c-1-0.4-1.9-1.2-2.5-2.1
	c-0.6-0.9-0.9-2-0.8-3.2c0.1-1.7,0.1-3.1-0.1-4c-0.1-0.4-0.2-0.7-0.3-0.9c-0.2,0.1-0.4,0.3-0.7,0.7c-0.6,0.8-1.2,2-1.9,3.6v0
	c-0.4,1-1.2,1.9-2.1,2.5c-0.9,0.6-2.1,0.9-3.2,0.8h0c-1.7-0.1-3.1-0.1-4,0.1c-0.4,0.1-0.7,0.2-0.9,0.3c0.1,0.2,0.3,0.4,0.7,0.7
	C448.5,421.2,449.8,421.8,451.3,422.5z M455.1,432.8C455.1,432.8,455.1,432.8,455.1,432.8C455.1,432.8,455.1,432.8,455.1,432.8z
	 M454.8,432.7C454.8,432.7,454.8,432.7,454.8,432.7C454.8,432.7,454.8,432.7,454.8,432.7z M467.8,424.7
	C467.8,424.7,467.8,424.7,467.8,424.7C467.8,424.7,467.8,424.7,467.8,424.7z M467.8,424.9C467.8,424.9,467.8,424.9,467.8,424.9
	C467.8,424.9,467.8,424.9,467.8,424.9z M459.7,411.9C459.7,411.9,459.7,411.9,459.7,411.9C459.7,411.9,459.7,411.9,459.7,411.9z
	 M459.9,412C459.9,412,459.9,412,459.9,412C459.9,412,459.9,412,459.9,412z M447,420C447,420,447,420,447,420
	C447,420,447,420,447,420z M447,419.8C447,419.8,447,419.8,447,419.8C447,419.8,447,419.8,447,419.8z"/>
<g id="Camada_2">
	<path class="st4" d="M403.4,203.8c-5.7-6.6-9-14.9-9.4-23.5c-1.1-21.8,15.8-40.4,37.8-41.5c22-1.1,40.8,15.7,42,37.5
		c1.1,21.8-15.8,40.4-37.8,41.5c-5.9,0.3-11.8-0.7-17.3-3l-17.6,6.8L403.4,203.8z"/>
	<g class="st5">
		<path class="st6" d="M432.2,145.9c-20.7,1.1-36.9,17.6-38,37.8c-0.2-1.4-0.4-2.8-0.5-4.3c-1.1-22.1,15.9-41,38-42.1
			s41,15.9,42.1,38c0.1,1.4,0.1,2.9,0,4.3C470.7,159.7,452.9,144.9,432.2,145.9z"/>
	</g>
	<path class="st7" d="M400.6,224.8c-0.4,0-0.8-0.1-1.1-0.3c-0.4-0.2-0.7-0.4-0.9-0.7c-0.3-0.3-0.4-0.7-0.5-1.1
		c-0.1-0.4-0.1-0.8-0.1-1.2l2.2-16.7c-6.4-8.1-9.6-18.2-9.1-28.5c0.5-10.3,4.7-20.1,11.9-27.5c7.1-7.4,16.7-12,27-12.9
		c10.3-0.9,20.5,2,28.8,8.1c8.3,6.1,14.1,15,16.4,25.1c2.2,10.1,0.8,20.6-4.2,29.7c-4.9,9.1-13,16-22.6,19.6
		c-9.7,3.6-20.3,3.5-29.9-0.1l-16.4,6.5C401.4,224.7,401,224.8,400.6,224.8z M435.9,141.4c-1.5-0.1-2.9-0.1-4.4,0
		c-6.8,0.4-13.4,2.6-19.1,6.5c-5.6,3.9-10.1,9.3-12.8,15.6c-2.7,6.3-3.6,13.2-2.6,20c1,6.8,3.9,13.2,8.3,18.4
		c0.3,0.3,0.5,0.7,0.6,1.1c0.1,0.4,0.1,0.8,0.1,1.2l-1.7,13.1l12.9-5.1c0.7-0.3,1.5-0.3,2.2,0c5,2.1,10.5,3,15.9,2.7
		c20.2-1,35.9-18.4,34.8-38.7C469.2,157.5,454.3,142.7,435.9,141.4z"/>
	<g class="st8">
		<path class="st9" d="M403,203.8c12.3,7.5,27.9,9.2,42.1,3.2c15.8-6.6,26-21.1,28-37c0.4,2,0.7,4.1,0.8,6.2
			c1.1,22.1-15.9,41-38,42.1c-5.9,0.3-11.9-0.7-17.4-3l-17.7,7l2.4-18.1C403.1,204,403.1,203.9,403,203.8z"/>
	</g>
	<path class="st10" d="M422.2,170.5l-1.2-5.2h-3.4"/>
	<path class="st10" d="M425.3,184.9l-3.1-14.4h22.2c1.1,0,1.9,1,1.7,2.1l-2.6,12.2c-0.2,0.8-0.9,1.4-1.7,1.4H427
		C426.2,186.3,425.5,185.7,425.3,184.9z"/>
	<path class="st10" d="M442.3,192.6c-0.4,0-0.7,0.3-0.7,0.7c0,0.4,0.3,0.7,0.7,0.7c0.4,0,0.7-0.3,0.7-0.7
		C443,192.9,442.7,192.6,442.3,192.6"/>
	<path class="st10" d="M427.3,192.6c-0.4,0-0.7,0.3-0.7,0.7c0,0.4,0.3,0.7,0.7,0.7c0.4,0,0.7-0.3,0.7-0.7
		C427.9,192.9,427.6,192.6,427.3,192.6"/>
</g>
<g>
	<g>
		<g class="st11">
			<path class="st7" d="M269.2,597.2c65.1,0,117.9-5.8,117.9-13.1s-52.8-13.1-117.9-13.1c-65.1,0-117.9,5.8-117.9,13.1
				S204.1,597.2,269.2,597.2z"/>
		</g>
		<path class="st12" d="M330.7,491.9l-67.3-22.3c-6-2-9.9-7.9-9.5-14.3l6.3-93.3c0.6-9.1,9.4-15.1,17.9-12.3l67.3,22.3
			c6,2,9.9,7.9,9.4,14.3l-6.3,93.3C348,488.7,339.2,494.7,330.7,491.9z"/>
		<path class="st7" d="M334.9,495.2c-1.7,0-3.4-0.3-5.1-0.8l-67.3-22.3c-7.1-2.4-11.7-9.3-11.2-16.9l6.3-93.3
			c0.3-5.2,3-9.8,7.3-12.7c2-1.4,4.4-2.3,6.8-2.6c2.4-0.3,4.9-0.1,7.2,0.7l67.3,22.3c7.1,2.4,11.7,9.3,11.2,16.9l-6.3,93.3
			c-0.4,5.2-3,9.8-7.3,12.7C341.2,494.2,338.1,495.2,334.9,495.2z M331.5,489.5c1.6,0.5,3.3,0.7,4.9,0.5c1.7-0.2,3.2-0.8,4.6-1.8
			c2.9-2,4.8-5.2,5-8.8l6.3-93.3c0.4-5.2-2.8-10-7.7-11.7l-67.3-22.3c-1.6-0.5-3.3-0.7-4.9-0.5c-1.7,0.2-3.2,0.8-4.6,1.8
			c-1.5,1-2.7,2.3-3.5,3.8c-0.9,1.5-1.4,3.2-1.5,5l-6.3,93.3c-0.4,5.2,2.8,10,7.7,11.7L331.5,489.5z"/>
		<g class="st8">
			<path class="st9" d="M322.5,495.6l-67.3-22.3c-6-2-9.9-7.9-9.4-14.3l6.3-93.3c0.6-9.1,9.4-15.1,17.9-12.3l67.3,22.3
				c6,2,9.9,7.9,9.4,14.3l-6.3,93.3C339.8,492.3,330.9,498.4,322.5,495.6z"/>
		</g>
		<path class="st7" d="M334.9,495.2c-1.7,0-3.4-0.3-5.1-0.8l-67.3-22.3c-7.1-2.4-11.7-9.3-11.2-16.9l6.3-93.3
			c0.3-5.2,3-9.8,7.3-12.7c2-1.4,4.4-2.3,6.8-2.6c2.4-0.3,4.9-0.1,7.2,0.7l67.3,22.3c7.1,2.4,11.7,9.3,11.2,16.9l-6.3,93.3
			c-0.4,5.2-3,9.8-7.3,12.7C341.2,494.2,338.1,495.2,334.9,495.2z M331.5,489.5c1.6,0.5,3.3,0.7,4.9,0.5c1.7-0.2,3.2-0.8,4.6-1.8
			c2.9-2,4.8-5.2,5-8.8l6.3-93.3c0.4-5.2-2.8-10-7.7-11.7l-67.3-22.3c-1.6-0.5-3.3-0.7-4.9-0.5c-1.7,0.2-3.2,0.8-4.6,1.8
			c-1.5,1-2.7,2.3-3.5,3.8c-0.9,1.5-1.4,3.2-1.5,5l-6.3,93.3c-0.4,5.2,2.8,10,7.7,11.7L331.5,489.5z"/>
		<path class="st12" d="M325.5,498.5c-3.5,0-6.9-0.7-10.1-2.1c3.9,27.1,3.5,61.1,3.2,73.8c-0.1,4.2-2.6,8.1-6.6,9.6
			c-2.1,0.9-4.8,1.5-8.2,1.5h-38.2c-1.6,0-3.1-0.5-4.4-1.5c-1.3-1-2.2-2.4-2.5-3.9c-0.6-2.3-0.8-5.4-0.1-9.6c0.6-3.9,2.7-6.9,5.6-9
			c0,0,0.1-18.4-4.8-30.6c-1.1-2.8-2.5-5.7-3.8-8.5c-0.2,0.3-7,9.3-7,23.9v32.9c0,0-2.4,3.7-9.9,3.7h-45.2c-1.6,0-3.1-0.5-4.2-1.6
			c-1.2-1-2-2.4-2.2-3.9c-0.9-5.9-0.5-14.8,8.8-18.8c-8.3-72.3-2.7-115.9,4.7-141.2l-0.2-0.1c-34.7,2-53.7-44.5-46.9-69.5
			c2.6-9.6,7-15.3,11.4-18.6c7.9-6,19.6-2.1,21.9,7.6c1.3,5.6-0.5,10.5-3.1,14.3c0.1,0.2,2.5,10,7.8,18.5
			c0.5-0.5,27.7-26.3,117.3,3.4c36.8,9.1,41.2,71,41.2,71C357.5,493.6,337.5,498.5,325.5,498.5z"/>
		<g class="st8">
			<path class="st9" d="M350.9,448.4c-1.1,14.5-4.7,26-8.4,30.7c-0.2,0.2-0.4,0.4-0.5,0.6c-7.1,8.2-20.6,2.7-20.4-8.2
				c0.7-46.2-25.4-69.8-25.4-69.8s3.5,71.4-28.5,86.8c-32.1,15.4-54.5-1.8-54.5-1.8s2.2,10.5,13,18c6.9,4.7,10.8,12.7,9.9,21.1
				c-0.9,8.8-1.7,20.3-1.2,31.4c0.3,6.2-4.7,11.5-11,11.5h-37.4c0,1.4,0.1,2.9,0.3,4.3c0.2,1.5,1,2.9,2.2,3.9c1.2,1,2.7,1.6,4.2,1.6
				h45.2c7.5,0,9.9-3.7,9.9-3.7V542c0-14.6,6.8-23.6,7-23.9c1.4,2.8,2.7,5.7,3.8,8.5c4.9,12.2,4.8,30.6,4.8,30.6
				c-2.9,2.1-5,5.1-5.6,9c-0.7,4.2-0.4,7.4,0.1,9.7c0.4,1.5,1.3,2.9,2.5,3.9c1.3,1,2.8,1.5,4.4,1.5h38.2c3.3,0,6-0.6,8.2-1.5
				c3.9-1.6,6.4-5.4,6.6-9.6c0.3-12.6,0.8-46.7-3.2-73.8c3.2,1.4,6.7,2.1,10.1,2.1C336.8,498.5,355.2,494.1,350.9,448.4z
				 M281.9,569.4h-10.8c-4.3,0-7.3-4.5-5.5-8.4c2-4.3,5.2-6.7,5.2-6.7c0.5-16.8-2.7-29.2-5.6-36.8c-1.6-4.2,1-8.8,5.4-9.7l0.4-0.1
				c10.5-2.4,21.2,3.9,23.7,14.4c2.9,12.2,2.8,24.6,2.1,33.7c-0.3,3.7-2,7.2-4.8,9.7C289.2,567.9,285.6,569.4,281.9,569.4z"/>
		</g>
		<g class="st8">
			<path class="st9" d="M206.5,396.8l-6.1,16.2l-0.2-0.1c-23.4,1.4-39.7-19.4-45.7-40.7C160.3,382.4,176.6,404.4,206.5,396.8z"/>
		</g>
		<path class="st7" d="M308.8,371.5c-0.3,0-0.6,0-0.9-0.1c-45.7-15.2-74.5-15.5-90.5-13c-17.3,2.6-23.9,8.9-24,8.9
			c-0.5,0.5-1.2,0.7-1.9,0.7c-0.7,0-1.4-0.3-1.9-0.8s-0.8-1.2-0.8-1.9s0.3-1.4,0.8-1.9c1.1-1.1,29-27.5,120.1,2.8
			c0.6,0.2,1.1,0.6,1.5,1.2c0.3,0.6,0.5,1.2,0.4,1.9c-0.1,0.6-0.4,1.2-0.9,1.7C310.1,371.3,309.5,371.5,308.8,371.5L308.8,371.5z"/>
		<path class="st7" d="M262.6,540c-0.5,0-0.9-0.2-1.3-0.5c-0.4-0.3-0.6-0.8-0.7-1.2c-0.1-0.5,0-1,0.3-1.4c0.3-0.4,0.7-0.7,1.1-0.8
			c1-0.3,24.1-6.4,57.1,0c0.3,0,0.5,0.1,0.7,0.3c0.2,0.1,0.4,0.3,0.6,0.5c0.1,0.2,0.2,0.5,0.3,0.7c0.1,0.3,0.1,0.5,0,0.8
			c0,0.3-0.1,0.5-0.3,0.7c-0.1,0.2-0.3,0.4-0.5,0.6c-0.2,0.1-0.5,0.2-0.7,0.3c-0.3,0.1-0.5,0.1-0.8,0c-32.1-6.2-55-0.1-55.3,0
			C262.9,540,262.7,540,262.6,540z"/>
		<path class="st7" d="M263.7,554.9c1.6-1.3,3.6-2.2,5.5-2.7c2-0.5,4-0.7,6-0.6c2,0.1,3.9,0.4,5.8,1c1.9,0.6,3.6,1.4,5.2,2.6
			c0.1,0,0.1,0.1,0.1,0.2c0,0.1,0,0.2,0,0.2c0,0.1-0.1,0.1-0.1,0.2c-0.1,0-0.1,0-0.2,0c-3.5-0.6-7-0.7-10.5-0.1
			c-1.6,0.3-3.3,0.7-4.8,1.2c-1.6,0.5-3,1.1-4.5,1.8l-0.1,0c-0.5,0.2-1.1,0.3-1.6,0.1c-0.5-0.2-1-0.5-1.3-1c-0.3-0.5-0.4-1-0.3-1.6
			C263,555.7,263.3,555.2,263.7,554.9L263.7,554.9z"/>
		<path class="st7" d="M304,584h-38.2c-2.2,0-4.4-0.7-6.1-2.1c-1.7-1.4-3-3.3-3.5-5.4c-0.8-3-0.8-6.6-0.2-10.7
			c0.7-4.2,2.8-7.9,6.3-10.6c0.3-0.2,0.6-0.4,1-0.5c0.4-0.1,0.7-0.1,1.1-0.1c0.4,0,0.7,0.2,1,0.3c0.3,0.2,0.6,0.4,0.8,0.7
			c0.2,0.3,0.4,0.6,0.5,1c0.1,0.4,0.1,0.7,0.1,1.1s-0.2,0.7-0.4,1c-0.2,0.3-0.4,0.6-0.7,0.8c-2.4,1.8-3.8,4.2-4.2,7
			c-0.5,3.4-0.5,6.2,0.1,8.6c0.2,1,0.8,1.8,1.6,2.4c0.8,0.6,1.7,0.9,2.7,0.9H304c2.6,0,5-0.4,7.1-1.3c2.9-1.1,4.7-3.9,4.8-7.1
			c0.4-13.5,0.7-48-3.4-74.9c-0.1-0.4-0.1-0.7,0-1.1c0.1-0.4,0.2-0.7,0.4-1c0.2-0.3,0.5-0.5,0.8-0.7c0.3-0.2,0.7-0.3,1-0.4
			c0.4-0.1,0.7,0,1.1,0.1c0.4,0.1,0.7,0.2,1,0.5c0.3,0.2,0.5,0.5,0.7,0.8c0.2,0.3,0.3,0.7,0.4,1c4.2,27.4,3.8,62.2,3.4,75.9
			c-0.1,5.4-3.4,10.1-8.3,12.1C310.4,583.5,307.3,584,304,584z"/>
		<path class="st7" d="M296.8,401.5c1.7,2.4,3.1,4.9,4.3,7.5c0.3,0.6,0.6,1.3,0.9,2c0.3,0.7,0.5,1.3,0.8,2c0.5,1.3,1,2.7,1.4,4
			c0.4,1.4,0.8,2.7,1.2,4.1c0.2,0.7,0.4,1.4,0.5,2.1l0.5,2.1c0.7,2.8,1.3,5.5,1.9,8.3c0.5,2.8,1.1,5.6,1.6,8.4
			c0.2,1.4,0.5,2.8,0.7,4.2l0.6,4.2l0.3,2.1l0.2,2.1l0.4,4.2c0.3,2.8,0.4,5.7,0.7,8.5c0,0.5-0.1,1-0.5,1.4c-0.3,0.4-0.8,0.6-1.3,0.7
			c-0.5,0-1-0.1-1.4-0.5c-0.4-0.3-0.6-0.8-0.7-1.3l0-0.1c-0.2-2.8-0.4-5.6-0.6-8.3l-0.4-4.2l-0.2-2.1l-0.3-2.1l-0.6-4.1
			c-0.2-1.4-0.5-2.8-0.7-4.1c-0.4-2.8-1-5.5-1.5-8.2c-0.6-2.7-1.2-5.5-1.9-8.1c-0.4-1.3-0.7-2.7-1.1-4c-0.4-1.3-0.8-2.7-1.2-4
			c-1.6-5.3-3.1-10.7-4.4-16.1l0,0c0-0.2,0-0.3,0-0.4c0.1-0.1,0.2-0.3,0.3-0.3c0.1-0.1,0.3-0.1,0.5,0
			C296.6,401.3,296.7,401.4,296.8,401.5L296.8,401.5z"/>
		<path class="st7" d="M325.7,501c-13.4,0-24.2-9.2-24.2-20.4c0-5.3,2.9-11.2,7.5-15.2c0.5-0.4,1.2-0.7,1.9-0.6
			c0.7,0,1.3,0.4,1.8,0.9c0.4,0.5,0.7,1.2,0.6,1.9c0,0.7-0.4,1.3-0.9,1.8c-3.4,2.9-5.7,7.6-5.7,11.3c0,8.4,8.6,15.3,19.1,15.3
			c4.5,0,11.1-0.7,16.1-6.4c7.2-8.3,9.2-25,5.7-49.5c0-0.1,0-0.1,0-0.2c0-0.6-4.8-60.1-39.3-68.7c-0.3-0.1-0.6-0.2-0.9-0.4
			c-0.3-0.2-0.5-0.4-0.7-0.7c-0.2-0.3-0.3-0.6-0.3-0.9c-0.1-0.3,0-0.7,0-1c0.1-0.3,0.2-0.6,0.4-0.9c0.2-0.3,0.4-0.5,0.7-0.7
			c0.3-0.2,0.6-0.3,0.9-0.3s0.7,0,1,0c15.9,3.9,28.4,18,36.2,40.6c5.6,16.3,6.8,31.2,7,32.6c3.7,26,1.3,44-6.9,53.5
			C340.9,498.4,334.4,501,325.7,501z"/>
		<path class="st13" d="M228.3,348c0,0,0.9,15.5,17.2,25.1c33.9,19.8,63.3-4.3,63.3-4.3L228.3,348z"/>
		<path class="st7" d="M273.3,383.4c-8.7,0-18.7-2-29.2-8.1c-17.3-10.1-18.4-26.5-18.4-27.1c0-0.4,0-0.8,0.2-1.2
			c0.2-0.4,0.4-0.7,0.7-0.9c0.3-0.3,0.7-0.4,1.1-0.5c0.4-0.1,0.8-0.1,1.2,0l80.5,20.7c0.5,0.1,0.9,0.4,1.2,0.7
			c0.3,0.3,0.6,0.8,0.7,1.2c0.1,0.5,0.1,0.9-0.1,1.4c-0.2,0.4-0.4,0.8-0.8,1.1c-0.3,0.3-7.9,6.4-19.8,10.1
			C285,382.5,279.2,383.4,273.3,383.4z M231.5,351.5c1.3,4.8,4.9,13.3,15.3,19.4c13.4,7.8,27.5,9.5,42.1,5.1
			c4.8-1.5,9.5-3.5,13.8-6.2L231.5,351.5z"/>
		<path class="st4" d="M205.8,305.1c2.1,13.7,7.8,26.7,16.4,37.6c1.8,2.3,3.8,4.5,5.8,6.6c1,1,2.1,2,3.1,3.1
			c9.2,8.4,20.1,14.7,32,18.4c1.5,0.5,3,0.9,4.6,1.2c28,6.8,58.8-1.1,79.8-23.3c31-32.7,29.1-84.1-4.3-114.8
			c-6.3-5.8-13.4-10.5-21.1-14.1c-0.9-0.4-1.8-0.8-2.7-1.2c-2.4-1-4.8-1.9-7.3-2.7c-11.3-3.6-23.3-4.7-35.1-3.4
			c-1.9,0.2-3.7,0.5-5.6,0.8c-2.8,0.5-5.5,1.2-8.2,2c-13.9,4.1-26.5,11.7-36.5,22.3C209.1,256.4,202.2,281.4,205.8,305.1z"/>
		<path class="st7" d="M287.5,374.6c-6.7,0-13.3-0.8-19.8-2.4c-1.5-0.4-3.1-0.8-4.6-1.2c-11.9-3.7-22.9-9.9-32.1-18.4
			c-1.2-1.1-2.2-2.1-3.1-3.1c-2.1-2.1-4-4.3-5.8-6.6c-8.6-11-14.3-24-16.4-37.7c-3.8-24.8,3.9-49.5,21.1-67.7
			c12-12.6,27.7-21.2,44.9-24.3c1.8-0.3,3.7-0.6,5.6-0.8c11.8-1.4,23.8-0.2,35.2,3.4c2.5,0.8,4.9,1.7,7.3,2.7c1,0.4,1.8,0.8,2.7,1.2
			c7.7,3.6,14.8,8.4,21.1,14.2c16.2,14.9,25.6,35.2,26.3,57c0.7,21.7-7.1,42.3-22,58.1C332,365.5,310.1,374.6,287.5,374.6z
			 M206,305.1c2.1,13.7,7.8,26.6,16.4,37.5c1.8,2.3,3.7,4.5,5.8,6.6c0.9,1,1.9,1.9,3.1,3c9.1,8.4,20.1,14.7,32,18.3
			c1.5,0.5,3,0.9,4.6,1.2c28.9,7,59.4-1.9,79.6-23.2c14.9-15.7,22.7-36.2,21.9-57.8c-0.7-21.7-10-41.9-26.2-56.7
			c-6.2-5.8-13.3-10.5-21-14.1c-0.8-0.4-1.7-0.8-2.7-1.2c-2.4-1-4.8-1.9-7.3-2.7c-11.3-3.6-23.2-4.7-35-3.4
			c-1.9,0.2-3.7,0.5-5.5,0.8c-2.8,0.5-5.5,1.2-8.2,2c-13.9,4.1-26.5,11.7-36.4,22.2C209.9,255.9,202.2,280.4,206,305.1L206,305.1z"
			/>
		<g class="st8">
			<path class="st9" d="M347.6,348.7c-21,22.2-51.8,30.1-79.8,23.3c-1.5-0.4-3.1-0.8-4.6-1.2c-11.9-3.6-22.9-9.9-32-18.4
				c-1.1-1-2.1-2-3.1-3.1c-2.1-2.1-4-4.3-5.8-6.6c-6.6-8.4-11.5-18-14.4-28.3c-2.9-10.3-3.7-21-2.3-31.6
				c2.3,13.1,7.9,25.4,16.1,35.8c1.8,2.3,3.8,4.5,5.8,6.6c1,1,2.1,2,3.1,3c9.2,8.5,20.1,14.7,32,18.4c1.5,0.5,3,0.9,4.6,1.2
				c28,6.8,58.8-1.1,79.8-23.3c12.3-13,19.4-28.8,21.4-45.2C372.7,303.6,365.8,329.4,347.6,348.7z"/>
		</g>
		<path class="st7" d="M287.5,376.9c-6.9,0-13.7-0.8-20.4-2.4c-1.6-0.4-3.2-0.8-4.7-1.3c-12.3-3.8-23.6-10.2-33-18.9
			c-1.2-1.1-2.3-2.2-3.2-3.2c-2.1-2.2-4.1-4.4-6-6.8c-8.9-11.3-14.7-24.6-16.9-38.8c-3.9-25.5,4-50.9,21.8-69.6
			c10.3-10.9,23.3-18.8,37.7-23c2.8-0.8,5.6-1.5,8.5-2c1.9-0.3,3.8-0.6,5.7-0.9c12.2-1.4,24.5-0.2,36.1,3.5c2.5,0.8,5.1,1.7,7.5,2.8
			c1,0.4,1.9,0.8,2.8,1.2c7.9,3.7,15.3,8.6,21.7,14.6c16.7,15.4,26.3,36.2,27.1,58.7c0.8,22.3-7.3,43.5-22.7,59.8
			C333.3,367.6,310.7,376.9,287.5,376.9z M208.4,304.7c2.1,13.3,7.5,25.9,15.9,36.4c1.8,2.2,3.6,4.4,5.6,6.4c0.9,0.9,1.9,1.9,3,3
			c8.9,8.2,19.5,14.3,31,17.8c1.5,0.4,2.9,0.8,4.4,1.2c28.1,6.8,57.7-1.8,77.3-22.6c14.4-15.3,22-35.2,21.3-56.1
			c-0.7-21.1-9.8-40.6-25.4-55.1c-6.1-5.6-12.9-10.2-20.4-13.7c-0.8-0.4-1.7-0.8-2.6-1.1c-2.3-1-4.7-1.9-7.1-2.6
			c-11-3.5-22.6-4.6-34-3.3c-1.8,0.2-3.6,0.5-5.4,0.8c-16.6,3.1-31.7,11.3-43.3,23.5C212.1,257,204.7,280.8,208.4,304.7L208.4,304.7
			z"/>
		<path class="st7" d="M211.7,325.1c34,47.5,103.9,47.4,126.8-5.3c15.6-35.9-8-78.8-44-91.6c-26.2-9.3-55.8-7-81.3,29
			c0,0-8.8,17.7-8.2,31.8c0.6,14.1,3.6,27.7,3.6,27.7L211.7,325.1z"/>
		<path class="st14" d="M338.5,319.8c-22.9,52.8-92.8,52.8-126.8,5.3l-0.6-1.7c46.8,26.7,107.3,15.1,131.5-37.8
			C344.4,297,343.3,308.7,338.5,319.8z"/>
		<path class="st7" d="M277.6,370.4c-12.4,0-25.1-2.7-37-8.2l-0.3-0.1c-3.7-2.5-7.2-5.2-10.5-8.3c-1.2-1.1-2.3-2.1-3.2-3.1
			c-2.1-2.1-4.1-4.4-5.9-6.8c-8.8-11.2-14.6-24.5-16.8-38.5c-3.9-25.3,4-50.5,21.6-69.1c10.2-10.8,23.1-18.7,37.4-22.8l0.2-0.1
			l0.2,0c10.8-0.9,22.4,0.9,34.4,5.1c21.6,7.6,40.1,25.2,49.6,47c8.5,19.6,8.9,40.4,1,58.5c-8.6,19.7-23.2,34-42.3,41.3
			C297,368.7,287.4,370.4,277.6,370.4z M242.4,358.8c20.2,9.2,42.9,10.3,62.2,2.9c18.1-6.9,32-20.5,40.2-39.3
			c7.5-17.1,7.1-36.8-1-55.4c-9.1-20.8-26.8-37.6-47.4-44.9c-11.4-4-22.4-5.7-32.6-4.9c-13.5,4-25.8,11.5-35.5,21.7
			c-16.8,17.8-24.3,41.8-20.6,65.9c2.1,13.4,7.6,26.1,16,36.7c1.8,2.3,3.7,4.4,5.7,6.5c0.9,0.9,1.9,1.9,3.1,3
			C235.6,353.8,238.9,356.5,242.4,358.8z"/>
		<path class="st7" d="M277.1,362.2c-25.8,0-51-13.3-67.2-35.9l-0.2-0.2l-3.3-8.9c-0.1-0.6-3-14-3.6-28.1c-0.6-14.5,8-32.1,8.4-32.8
			l0.2-0.3c22.3-31.6,50.5-41.6,83.8-29.8c19.3,6.8,35.9,22.5,44.4,42c7.6,17.6,8,36.2,0.9,52.4c-10.2,23.5-30.4,38.5-55.5,41.2
			C282.4,362.1,279.7,362.2,277.1,362.2z M213.5,324.1c16.9,23.5,44.1,36.3,71,33.5c23.5-2.5,42.4-16.6,52-38.6
			c6.6-15.1,6.3-32.5-0.9-49c-8-18.4-23.7-33.3-41.9-39.7c-31.2-11-57.7-1.6-78.8,28.1c-0.8,1.7-8.4,17.9-7.9,30.6
			c0.5,13,3.2,25.7,3.5,27.2L213.5,324.1z"/>
		<path class="st4" d="M374.1,328.8c-4.6,15.4-17.6,25.5-29.1,22.7c-11.5-2.8-17.2-17.5-12.6-32.9c0-0.1,0.1-0.2,0.1-0.3
			c4.6-15.2,17.6-25.2,29-22.5c8.9,2.2,14.3,11.4,14.2,22.6C375.6,322,375.1,325.5,374.1,328.8z"/>
		<path class="st7" d="M348.9,352.4c-1.3,0-2.7-0.2-4-0.5c-4.6-1.1-8.4-4.1-11-8.6c-3.8-6.6-4.5-15.9-1.9-24.7
			c0-0.1,0.1-0.2,0.1-0.3c4.7-15.3,17.9-25.5,29.5-22.7c8.8,2.1,14.6,11.4,14.5,23c0,3.5-0.6,7-1.6,10.4
			C370.4,342.7,359.5,352.4,348.9,352.4z M357.6,295.9c-10.1,0-20.7,9.3-24.7,22.6c0,0.1-0.1,0.2-0.1,0.3
			c-2.6,8.7-1.9,17.7,1.8,24.1c2.5,4.3,6.1,7.2,10.5,8.3c11.3,2.7,24.1-7.3,28.6-22.5c1-3.3,1.5-6.7,1.6-10.1
			c0.1-11.3-5.5-20.2-13.9-22.2C360.2,296,358.9,295.9,357.6,295.9L357.6,295.9z"/>
		<g class="st8">
			<path class="st9" d="M374.1,328.8c-4.6,15.4-17.6,25.5-29.1,22.7c-11.5-2.8-17.2-17.5-12.6-32.9c0-0.1,0.1-0.2,0.1-0.3
				c0.8,1.9,2.3,3.9,5.1,4c4.9,0.2,16.3-7.6,16.3-7.6s9.5,1.6,21.8,3.7C375.6,322,375.1,325.5,374.1,328.8z"/>
		</g>
		<path class="st7" d="M348.8,354.2c-1.5,0-2.9-0.2-4.3-0.5c-5.1-1.2-9.3-4.5-12.1-9.5c-4.1-7.1-4.8-16.6-2-26.1
			c4.9-16.4,19.1-27.3,31.7-24.2c5.1,1.2,9.3,4.5,12.1,9.5c4.1,7.1,4.8,16.6,2,26.1C371.8,344,360.2,354.2,348.8,354.2z
			 M357.6,297.6c-9.5,0-19.3,9-23.1,21.7c-2.4,8.2-1.8,16.7,1.6,22.7c2.2,3.9,5.5,6.5,9.4,7.4c10.4,2.5,22.3-7,26.5-21.3
			c2.4-8.2,1.8-16.7-1.6-22.7c-2.3-3.9-5.5-6.5-9.4-7.4C359.9,297.7,358.7,297.6,357.6,297.6z"/>
		<path class="st4" d="M375.3,334.5c4.8-11.8,1.4-24.3-7.5-27.9c-8.9-3.6-20,3-24.8,14.9c-4.8,11.8-1.4,24.3,7.5,27.9
			C359.5,353,370.6,346.3,375.3,334.5z"/>
		<path class="st7" d="M355.6,350.6c-3.6,0-6.9-1.3-9.5-3.8c-7.2-6.9-7.3-21-0.1-31.3c4-5.8,9.6-9.4,15.2-10c4.2-0.4,8,0.9,11,3.7
			c7.2,6.9,7.3,21,0.1,31.3c-4,5.8-9.6,9.4-15.2,10C356.6,350.5,356.1,350.6,355.6,350.6z M362.8,305.8c-0.5,0-1,0-1.5,0.1
			c-5.5,0.6-11,4.1-14.9,9.8c-7.1,10.2-7.1,23.9,0,30.7c2.9,2.8,6.6,4,10.7,3.6c5.5-0.6,11-4.1,14.9-9.8c7.1-10.2,7.1-23.9,0-30.7
			C369.4,307.1,366.2,305.8,362.8,305.8L362.8,305.8z"/>
		<g class="st8">
			<path class="st9" d="M340.6,332.7c0.2-4.4,1.5-8.7,3.8-12.5c0.5,10,7.7,16.1,17,13.9c6-1.4,11.4-6,14.8-11.9c0,0.6,0,1.3,0,1.9
				c-0.4,11.1-8.7,22-18.5,24.4C347.8,350.9,340.2,343.8,340.6,332.7z"/>
		</g>
		<path class="st7" d="M355.2,352.3c-1,0-2-0.1-3-0.3c-3.7-0.9-6.8-3.3-8.9-7c-3.3-5.7-3.8-13.8-1.4-21.8
			c4-13.4,15.2-22.5,24.9-20.3c3.7,0.9,6.8,3.3,8.9,7c3.3,5.7,3.8,13.8,1.4,21.8C373.4,343.7,364.1,352.3,355.2,352.3z M363.5,306.4
			c-7.2,0-14.9,7.5-18,17.9c-2.1,7-1.7,14,1.1,18.8c1.6,2.7,3.8,4.5,6.5,5.1c7.7,1.8,16.8-6.1,20.3-17.6c2.1-7,1.7-14-1.1-18.8
			c-1.6-2.7-3.8-4.5-6.5-5.1C365.1,306.5,364.3,306.4,363.5,306.4L363.5,306.4z"/>
		<g class="st5">
			<path class="st6" d="M307.7,251.1c0,0-34.8-9.9-60.4,2.8l-0.1,0c-5.4,2.7-9.9,6.7-13.2,11.7c-4.3,6.6-6.3,11.8-7.9,16.4
				c-4.8,14.1-4.4,21.6-4.4,21.6c-5.6-10.2-7.3-20.2-3.4-31.9c0.4-1.2,0.8-2.3,1.3-3.5c0.1-0.3,0.2-0.5,0.4-0.8c0,0,0,0,0,0
				c1.5-3,3.1-5.9,5-8.7c6.5-9.9,17.6-21.9,33.6-23.8C288.5,231.2,309.4,250,307.7,251.1z"/>
			<path class="st15" d="M222.2,305.4l-0.9-1.6c-6.1-11.1-7.2-21-3.4-32.3c0.4-1.2,0.8-2.4,1.3-3.6c0.1-0.3,0.2-0.5,0.3-0.8l0-0.2
				l0.1,0c1.5-3,3.1-5.8,5-8.6c6.5-9.9,17.7-22.1,33.9-24c15-1.8,27.3,2,35,5.6c8.7,4,14.1,8.9,14.7,10.5c0.2,0.6-0.1,0.8-0.2,0.9
				l-0.2,0.1l-0.2,0c-0.3-0.1-34.9-9.7-60.1,2.7l-0.3-0.3l0.2,0.4c-5.3,2.6-9.8,6.6-13.1,11.6c-4.4,6.7-6.4,12-7.9,16.3
				c-4.7,13.8-4.4,21.4-4.4,21.4L222.2,305.4z M220.3,267.6c-0.1,0.2-0.2,0.5-0.3,0.8c-0.5,1.2-0.9,2.4-1.3,3.5
				c-3.5,10.5-2.7,19.9,2.6,30.2c0.1-2.9,0.8-9.7,4.4-20.1c1.5-4.4,3.5-9.7,8-16.5c3.3-5.1,7.9-9.2,13.4-11.9l0.1,0
				c23.7-11.7,55.5-4.1,60.1-2.9c-0.3-0.4-0.9-1.3-2.4-2.5c-7-6-24.5-15.4-46.3-12.8c-15.9,1.9-26.9,13.9-33.3,23.6
				C223.5,261.7,221.8,264.5,220.3,267.6L220.3,267.6z"/>
		</g>
		<g class="st5">
			<path class="st6" d="M332.5,293.4c0.4-7-4.2-12.9-10.2-13.2c-6-0.3-11.2,5-11.6,12c-0.4,7,4.2,12.9,10.2,13.2
				C326.9,305.8,332.1,300.4,332.5,293.4z"/>
			<path class="st15" d="M321.4,305.8c-0.2,0-0.4,0-0.7,0c-6.2-0.4-10.9-6.6-10.5-13.8c0.2-3.8,1.9-7.3,4.5-9.6
				c2.2-1.9,4.9-2.9,7.6-2.7c6.2,0.4,10.9,6.6,10.5,13.8c-0.2,3.8-1.9,7.3-4.5,9.6C326.4,304.9,323.9,305.8,321.4,305.8z
				 M321.8,280.6c-2.3,0-4.6,0.9-6.4,2.5c-2.5,2.2-4,5.5-4.2,9c-0.4,6.7,3.9,12.5,9.7,12.9c2.5,0.2,5-0.7,7-2.5c2.5-2.2,4-5.5,4.3-9
				c0.4-6.7-3.9-12.5-9.7-12.9C322.2,280.6,322,280.6,321.8,280.6z"/>
		</g>
		<g class="st5">
			<path class="st6" d="M320.4,320.9c2.5-0.1,4.5-2.5,4.3-5.4c-0.1-2.9-2.2-5.1-4.7-5c-2.5,0.1-4.5,2.5-4.3,5.4
				C315.8,318.8,317.9,321,320.4,320.9z"/>
			<path class="st15" d="M320.3,321.4c-2.7,0-4.9-2.5-5-5.5c0-1.6,0.5-3.2,1.6-4.3c0.4-0.4,0.9-0.8,1.5-1.1s1.2-0.4,1.8-0.4
				c2.7,0,5,2.4,5.1,5.5c0,1.6-0.5,3.2-1.6,4.3c-0.4,0.4-0.9,0.8-1.5,1.1S321,321.3,320.3,321.4L320.3,321.4z M320.2,310.9
				L320.2,310.9c-0.6,0-1.1,0.1-1.5,0.3c-0.5,0.2-0.9,0.5-1.2,0.9c-0.9,0.9-1.4,2.3-1.4,3.7c0.1,2.6,1.9,4.8,4.2,4.8h0.1
				c0.5,0,1-0.1,1.5-0.3c0.5-0.2,0.9-0.5,1.2-0.9c0.9-0.9,1.4-2.3,1.4-3.7C324.3,313,322.4,310.9,320.2,310.9L320.2,310.9z"/>
		</g>
		<path class="st7" d="M195.9,556.8c-0.6,0-1.2-0.2-1.7-0.7c-0.5-0.4-0.8-1-0.8-1.6c-5.9-51.4-5.5-94.3,1.2-127.4
			c0.1-0.3,0.2-0.7,0.4-0.9c0.2-0.3,0.4-0.5,0.7-0.7c0.3-0.2,0.6-0.3,0.9-0.4c0.3-0.1,0.7-0.1,1,0c0.3,0.1,0.6,0.2,0.9,0.4
			c0.3,0.2,0.5,0.4,0.7,0.7c0.2,0.3,0.3,0.6,0.4,0.9c0.1,0.3,0.1,0.7,0,1c-6.6,32.6-6.9,74.9-1.1,125.8c0,0.4,0,0.7-0.1,1.1
			c-0.1,0.3-0.3,0.7-0.5,0.9c-0.2,0.3-0.5,0.5-0.9,0.6C196.6,556.7,196.2,556.8,195.9,556.8L195.9,556.8z"/>
		<path class="st7" d="M216.3,382.2c-1.2,1.5-2.4,3.3-3.4,5.1c-0.5,0.9-1,1.8-1.5,2.7c-0.4,0.9-0.9,1.8-1.3,2.8
			c-1.7,3.7-3.2,7.6-4.5,11.5c-0.7,1.9-1.2,3.9-1.8,5.9c-0.3,1-0.5,2-0.8,3l-0.8,3l-1.4,6c-0.4,2-0.8,4-1.3,6.1l0,0.1
			c-0.2,0.6-0.6,1.2-1.1,1.6c-0.6,0.4-1.2,0.5-1.9,0.3c-0.7-0.1-1.2-0.5-1.6-1.1c-0.4-0.6-0.5-1.2-0.4-1.9c0.4-2.1,0.9-4.1,1.4-6.2
			c0.5-2.1,1.1-4.1,1.7-6.1c1.2-4.1,2.6-8.1,4.3-12c0.8-2,1.7-3.9,2.6-5.8l1.5-2.8c0.5-0.9,1.1-1.9,1.6-2.8c2.3-3.6,4.7-7.2,8-10
			c0.1-0.1,0.3-0.1,0.4-0.1c0.1,0,0.3,0.1,0.4,0.2c0.1,0.1,0.2,0.2,0.2,0.4C216.5,381.8,216.5,382,216.3,382.2L216.3,382.2z"/>
		<path class="st7" d="M165.8,390c-1.8,0-3.5-0.2-5.2-0.5c-0.5-0.1-0.9-0.4-1.2-0.8c-0.3-0.4-0.4-1-0.3-1.5c0.1-0.5,0.4-0.9,0.8-1.2
			c0.4-0.3,1-0.4,1.5-0.3c17.4,3.5,32-15.2,32.2-15.4c0.3-0.4,0.8-0.7,1.3-0.7c0.5-0.1,1,0.1,1.4,0.4c0.4,0.3,0.7,0.8,0.7,1.3
			c0.1,0.5-0.1,1-0.4,1.4C196,373.4,183,390,165.8,390z"/>
		<path class="st7" d="M186.4,346.2c0.5,1.2,1,2.7,1.5,4l0.7,2l0.7,2c1,2.7,2,5.4,3.2,8c0.6,1.3,1.2,2.6,1.9,3.8
			c0.3,0.6,0.7,1.2,1.1,1.8c0.4,0.6,0.8,1.2,1.2,1.8c1.6,2.3,3.6,4.4,6,6.2h0c0.1,0.1,0.1,0.1,0.2,0.2c0,0.1,0,0.2,0,0.3
			c0,0.1-0.1,0.2-0.2,0.2c-0.1,0-0.2,0-0.3,0c-3-0.8-5.8-2.6-8.1-4.7c-1.2-1.1-2.3-2.2-3.3-3.4c-1-1.2-1.9-2.5-2.8-3.8
			c-1.7-2.6-3.2-5.3-4.5-8.2c-0.3-0.7-0.6-1.4-0.9-2.2c-0.3-0.7-0.5-1.5-0.7-2.2c-0.5-1.5-0.9-3-1.1-4.6c-0.1-0.7,0-1.4,0.4-1.9
			c0.4-0.6,0.9-1,1.6-1.2c0.7-0.2,1.4-0.1,2,0.2s1.1,0.8,1.3,1.5L186.4,346.2z"/>
		<path class="st16" d="M162,304.1l25.2-8.1h31c0,0-6.1,18.9-6,29.7c0.1,10.8,1,12.5,1,12.5s6.1,5.7,5,21.8c0,0-4.6,3.7-11.4,1.5
			v2.9h-32.1C174.6,364.5,177.4,325.7,162,304.1z"/>
		<g class="st8">
			<path class="st9" d="M218.2,360.1c0,0-4.6,3.7-11.4,1.5v2.9h-32.1c0,0,2.8-38.7-12.7-60.4l1.9-0.6c3.5,9.1,10.5,22.4,22.3,27.2
				c7.6,3.1,17.4,4.2,26.4,4.3c0.3,2.6,0.6,3.2,0.6,3.2S219.3,343.9,218.2,360.1z"/>
		</g>
		<g class="st17">
			<path class="st18" d="M189.8,301.5h26.4c1.1-3.9,1.9-6.6,1.9-6.6h-31l-25.2,8.1c1.4,2,2.7,4.1,3.7,6.3L189.8,301.5z"/>
		</g>
		<path class="st7" d="M184.6,357.1h-8.3c-0.1,0-0.2,0-0.3-0.1c-0.1,0-0.2-0.1-0.2-0.2s-0.1-0.2-0.1-0.3c0-0.1,0-0.2,0-0.3
			c2-14.8-2.2-32.2-4.8-41.3c0-0.1,0-0.3,0-0.4c0-0.1,0.1-0.2,0.2-0.3c0.7-0.7,1.1-1.8,1.1-3c0-1-0.3-2-0.9-2.7
			c-0.1-0.1-0.1-0.2-0.1-0.3c0-0.1,0-0.2,0-0.3c0-0.1,0.1-0.2,0.2-0.3c0.1-0.1,0.2-0.1,0.3-0.2l8.5-3.3c0.1,0,0.2-0.1,0.4,0
			c0.1,0,0.2,0.1,0.3,0.1c0.1,0.1,0.2,0.2,0.2,0.3c0,0.1,0.1,0.2,0,0.4c0,0.2,0,0.4,0,0.7c0,2.4,1.8,4.4,4,4.4c0.3,0,0.6,0,1-0.1
			c0.2,0,0.3,0,0.5,0.1s0.3,0.2,0.3,0.4c6.2,18.2,3.8,36.1,2.5,42.9c0,0.1-0.1,0.3-0.2,0.3c-0.1,0.1-0.2,0.2-0.3,0.2
			c-0.1,0-0.3,0-0.4,0c-0.1,0-0.2-0.1-0.3-0.2c-0.2-0.2-0.4-0.4-0.6-0.5c-0.2-0.1-0.5-0.2-0.8-0.2c-1,0-1.8,0.9-1.8,2
			c0,0.4,0.1,0.9,0.4,1.2c0.1,0.1,0.1,0.2,0.1,0.4c0,0.1,0,0.3-0.1,0.4c-0.1,0.1-0.1,0.2-0.3,0.3
			C184.9,357.1,184.8,357.1,184.6,357.1L184.6,357.1z M177.1,355.7h6.4c-0.1-0.3-0.1-0.6-0.1-1c0-1.9,1.4-3.4,3.2-3.4
			c0.5,0,1,0.1,1.5,0.4c1.3-7.4,3-23.7-2.5-40.4c-0.2,0-0.5,0-0.7,0c-2.9,0-5.3-2.4-5.4-5.5l-6.7,2.6c0.5,0.9,0.7,1.8,0.7,2.8
			c0,1.4-0.5,2.8-1.3,3.7C174.9,324.2,178.9,341.1,177.1,355.7z"/>
		<path class="st7" d="M206.8,367.2h-32.1c-0.4,0-0.8-0.1-1.1-0.2c-0.3-0.1-0.7-0.4-0.9-0.6c-0.3-0.3-0.5-0.6-0.6-1
			c-0.1-0.4-0.2-0.7-0.2-1.1c0-0.4,2.5-38-12.2-58.6c-0.3-0.4-0.4-0.8-0.5-1.2c-0.1-0.4,0-0.9,0.1-1.3c0.1-0.4,0.4-0.8,0.7-1.1
			c0.3-0.3,0.7-0.5,1.1-0.7l25.2-8.1c0.3-0.1,0.6-0.1,0.8-0.1h31c0.4,0,0.9,0.1,1.2,0.3c0.4,0.2,0.7,0.5,1,0.8
			c0.3,0.4,0.4,0.8,0.5,1.2s0,0.9-0.1,1.3c-0.1,0.2-5.9,18.6-5.8,28.9c0.1,7.4,0.5,10.3,0.7,11.1c1.7,2,6.2,8.9,5.2,23.4
			c0,0.4-0.1,0.8-0.3,1.1c-0.2,0.3-0.4,0.6-0.7,0.9c-0.2,0.2-4.2,3.3-10.4,2.7c-0.1,0.6-0.4,1.2-0.9,1.7
			C208.1,367,207.4,367.2,206.8,367.2z M177.5,361.7H204v-0.2c0-0.4,0.1-0.9,0.3-1.2c0.2-0.4,0.5-0.7,0.8-1c0.4-0.3,0.8-0.4,1.2-0.5
			c0.4-0.1,0.9,0,1.3,0.1c3.7,1.2,6.5,0.3,7.9-0.4c0.6-13.4-4.1-18.2-4.2-18.3c-0.2-0.2-0.4-0.4-0.5-0.7c-1-1.9-1.3-8.5-1.4-13.8
			c-0.1-8.3,3.2-20.9,5-27h-26.9l-21.3,6.8C177.7,324.6,177.8,352.6,177.5,361.7z"/>
		<path class="st7" d="M193,367.2c-0.2,0-0.3,0-0.5,0c-0.4-0.1-0.7-0.2-1-0.4c-0.3-0.2-0.6-0.4-0.8-0.7c-0.2-0.3-0.4-0.6-0.4-1
			c-0.1-0.4-0.1-0.7,0-1.1c8.5-47.2-5.2-66.1-5.4-66.3c-0.4-0.6-0.6-1.3-0.5-2c0.1-0.7,0.5-1.4,1-1.8s1.3-0.6,2-0.5
			c0.7,0.1,1.4,0.5,1.8,1c0.6,0.8,15.5,20.7,6.4,70.7c-0.1,0.6-0.4,1.2-0.9,1.6C194.3,367,193.7,367.2,193,367.2z"/>
		<path class="st7" d="M206.8,363.5c-0.1,0-0.2,0-0.3,0c-0.5-0.1-1-0.3-1.3-0.8c-0.3-0.4-0.5-0.9-0.4-1.5c0.1-0.5,6.1-47.1-7.6-64
			c-0.3-0.4-0.4-0.9-0.4-1.4c0.1-0.5,0.3-1,0.7-1.3c0.4-0.3,0.9-0.5,1.4-0.4c0.5,0,1,0.3,1.3,0.7c14.8,18.3,8.7,65.1,8.4,67.1
			c-0.1,0.5-0.3,0.9-0.7,1.2C207.7,363.3,207.3,363.5,206.8,363.5z"/>
		<path class="st19" d="M186.1,342.4l9-4h20.9v-16.3h-21.7l-10.1,5.1"/>
		<path class="st7" d="M186.2,342.6l-0.2-0.5l9.1-4h20.6v-15.7h-21.3l-10,5l-0.3-0.5l10.2-5.1h22v16.9h-21.1L186.2,342.6z"/>
		<path class="st7" d="M186.1,345.1c-0.6,0-1.2-0.2-1.7-0.6c-0.5-0.4-0.8-0.9-1-1.6c-0.1-0.6,0-1.3,0.2-1.8c0.3-0.6,0.8-1,1.3-1.3
			l9-4c0.4-0.2,0.7-0.2,1.1-0.2h18.1v-10.8h-18.3l-9.5,4.8c-0.3,0.2-0.7,0.3-1,0.3c-0.4,0-0.7,0-1.1-0.1c-0.3-0.1-0.7-0.3-0.9-0.5
			c-0.3-0.2-0.5-0.5-0.7-0.9c-0.2-0.3-0.3-0.7-0.3-1c0-0.4,0-0.7,0.1-1.1c0.1-0.3,0.3-0.7,0.5-0.9c0.2-0.3,0.5-0.5,0.9-0.7l10.1-5.1
			c0.4-0.2,0.8-0.3,1.2-0.3h21.7c0.7,0,1.4,0.3,1.9,0.8c0.5,0.5,0.8,1.2,0.8,1.9v16.3c0,0.7-0.3,1.4-0.8,1.9
			c-0.5,0.5-1.2,0.8-1.9,0.8h-20.3l-8.5,3.8C186.9,345.1,186.5,345.1,186.1,345.1z"/>
		<path class="st20" d="M186.8,332.5c-2.3-9.7-14-13.6-21.9-7.6c-4.4,3.3-8.8,9-11.4,18.6c-0.2,0.8-0.4,1.6-0.6,2.5
			c6.1,4.7,13.9,7.5,21.9,9.2C175.3,355,190,345.9,186.8,332.5z"/>
		<path class="st7" d="M198.2,415.6c-12.5,0-23.9-5.9-33-17.1c-12.5-15.4-18.6-39.3-14.1-55.6c2.4-8.9,6.6-15.6,12.3-20
			c2.2-1.7,4.8-2.8,7.5-3.2c2.7-0.4,5.5-0.1,8.1,0.8c5.2,1.9,9,6.1,10.3,11.4c3.6,15.2-12.5,25.1-13.2,25.5
			c-0.6,0.4-1.3,0.5-1.9,0.3c-0.7-0.2-1.2-0.6-1.6-1.2c-0.4-0.6-0.5-1.3-0.3-1.9c0.2-0.7,0.6-1.2,1.2-1.6c0.1-0.1,13.6-8.4,10.9-20
			c-0.9-3.7-3.4-6.5-7-7.8c-1.8-0.7-3.7-0.8-5.6-0.6c-1.9,0.3-3.7,1-5.2,2.2c-4.8,3.7-8.3,9.5-10.5,17.2c-4,14.9,1.6,36.8,13.2,51.1
			c6,7.4,16.3,16,31.1,15.2c0.3,0,0.7,0,1,0.1c0.3,0.1,0.6,0.3,0.9,0.5c0.3,0.2,0.5,0.5,0.6,0.8c0.1,0.3,0.2,0.6,0.3,1
			c0,0.3,0,0.7-0.1,1s-0.3,0.6-0.5,0.9c-0.2,0.3-0.5,0.5-0.8,0.6c-0.3,0.1-0.6,0.2-1,0.2C199.8,415.6,199,415.6,198.2,415.6z"/>
		<path class="st19" d="M310.2,500.3c-0.7,0-1.4-0.1-2.1-0.4c-0.7-0.3-1.3-0.7-1.8-1.2c-0.5-0.5-0.9-1.1-1.2-1.8s-0.4-1.4-0.4-2.1
			c0-9.1,6.6-17,15.1-17.9c0.7-0.1,1.4,0,2.1,0.2c0.7,0.2,1.3,0.5,1.9,1c0.6,0.5,1,1,1.4,1.6c0.3,0.6,0.6,1.3,0.6,2.1
			c0.1,0.7,0,1.4-0.2,2.1c-0.2,0.7-0.5,1.3-1,1.9c-0.5,0.6-1,1-1.6,1.4c-0.6,0.3-1.3,0.6-2.1,0.6c-3.1,0.3-5.3,3.9-5.3,6.9
			c0,1.5-0.6,2.9-1.6,3.9C313.1,499.7,311.7,500.3,310.2,500.3z"/>
		<path class="st7" d="M310.2,502.6c-2.1,0-4-0.8-5.5-2.3c-1.5-1.5-2.3-3.4-2.3-5.5c0-10.2,7.5-19.1,17.1-20.1
			c2.1-0.2,4.1,0.4,5.7,1.7c1.6,1.3,2.6,3.2,2.9,5.2c0.2,2.1-0.4,4.1-1.7,5.7s-3.2,2.6-5.2,2.9c-1.8,0.2-3.3,2.7-3.3,4.7
			c0,2.1-0.8,4-2.3,5.5C314.3,501.8,312.3,502.6,310.2,502.6z M320.4,479.2c-0.1,0-0.2,0-0.4,0c-7.3,0.8-13.1,7.7-13.1,15.6
			c0,0.4,0.1,0.9,0.2,1.3c0.2,0.4,0.4,0.8,0.7,1.1s0.7,0.5,1.1,0.7c0.4,0.2,0.8,0.3,1.3,0.3c0.4,0,0.9-0.1,1.3-0.3
			c0.4-0.2,0.8-0.4,1.1-0.7c0.3-0.3,0.5-0.7,0.7-1.1c0.2-0.4,0.2-0.8,0.2-1.3c0-4.1,2.9-8.7,7.3-9.2c0.6-0.1,1.2-0.3,1.7-0.7
			c0.5-0.4,0.8-1,1-1.6c0.2-0.6,0.2-1.3,0-1.9c-0.2-0.6-0.6-1.2-1.1-1.6C321.9,479.4,321.2,479.2,320.4,479.2z"/>
		<g class="st8">
			<path class="st9" d="M325.9,481.8c-0.1-1.1-0.6-2.2-1.4-3.1c-0.8-0.9-1.8-1.5-2.9-1.7c0.3,0.8,0.4,1.6,0.4,2.5
				c-0.1,0.8-0.3,1.7-0.8,2.4c-0.4,0.7-1,1.3-1.8,1.8c-0.7,0.5-1.5,0.7-2.4,0.8c-3.1,0.3-5.3,3.9-5.3,6.9c0,0.8-0.2,1.6-0.5,2.4
				c-0.4,0.7-0.9,1.4-1.5,1.9c-0.6,0.5-1.4,0.9-2.2,1.1c-0.8,0.2-1.6,0.2-2.4,0c0.5,1.2,1.3,2.2,2.4,2.8c1.1,0.6,2.4,0.8,3.7,0.6
				c1.3-0.2,2.4-0.9,3.2-1.9c0.8-1,1.3-2.2,1.3-3.5c0-3,2.2-6.6,5.3-6.9c0.7-0.1,1.4-0.3,2.1-0.6c0.6-0.3,1.2-0.8,1.6-1.4
				c0.5-0.6,0.8-1.2,1-1.9C325.9,483.3,326,482.5,325.9,481.8z"/>
		</g>
		<path class="st21" d="M370.8,494.8h-84.7v68.3h84.7V494.8z"/>
		<g class="st5">
			<path class="st6" d="M289,499.9h81.9v-5.1h-84.7v68.3h2.8V499.9z"/>
		</g>
		<g class="st8">
			<path class="st9" d="M363.5,494.8c-1.9,34.8-30.7,62.4-66,62.4h-11.5v5.9h84.7v-68.3H363.5z"/>
			<path class="st9" d="M371.1,563.4h-85.3V557h11.7c34.9,0,63.8-27.3,65.7-62.2l0-0.3h7.8L371.1,563.4z M286.4,562.8h84.1v-67.7
				h-6.7c-2,35-31.1,62.4-66.2,62.4h-11.2V562.8z"/>
		</g>
		<path class="st7" d="M370.8,565.9h-84.7c-0.7,0-1.4-0.3-1.9-0.8s-0.8-1.2-0.8-1.9v-68.3c0-0.7,0.3-1.4,0.8-1.9
			c0.5-0.5,1.2-0.8,1.9-0.8h84.7c0.7,0,1.4,0.3,1.9,0.8c0.5,0.5,0.8,1.2,0.8,1.9v68.3c0,0.4-0.1,0.7-0.2,1.1
			c-0.1,0.3-0.3,0.6-0.6,0.9c-0.3,0.3-0.6,0.5-0.9,0.6C371.6,565.8,371.2,565.9,370.8,565.9z M288.9,560.4h79.2v-62.8h-79.2V560.4z"
			/>
		<path class="st7" d="M370.8,564.8h-76.1c-0.5,0-0.9-0.2-1.2-0.5c-0.3-0.3-0.5-0.8-0.5-1.2v-68.3c0-0.5,0.2-0.9,0.5-1.2
			c0.3-0.3,0.8-0.5,1.2-0.5h76.1c0.5,0,0.9,0.2,1.2,0.5c0.3,0.3,0.5,0.8,0.5,1.2v68.3c0,0.5-0.2,0.9-0.5,1.2
			C371.7,564.6,371.3,564.8,370.8,564.8z M296.4,561.4h72.7v-64.9h-72.7V561.4z"/>
		<path class="st7" d="M370.8,564.8H304c-0.5,0-0.9-0.2-1.2-0.5c-0.3-0.3-0.5-0.8-0.5-1.2v-68.3c0-0.5,0.2-0.9,0.5-1.2
			c0.3-0.3,0.8-0.5,1.2-0.5h66.8c0.5,0,0.9,0.2,1.2,0.5c0.3,0.3,0.5,0.8,0.5,1.2v68.3c0,0.5-0.2,0.9-0.5,1.2
			C371.7,564.6,371.3,564.8,370.8,564.8z M305.7,561.4h63.4v-64.9h-63.4V561.4z"/>
		<path class="st7" d="M308.2,446.9c-0.4,0-0.8-0.1-1.2-0.4c-0.3-0.2-0.6-0.6-0.7-1s-0.1-0.8,0-1.2c0.1-0.4,0.4-0.7,0.7-1
			c0.7-0.5,17.7-13.3,43.6-5.5c0.5,0.2,0.9,0.5,1.2,1c0.2,0.5,0.3,1,0.2,1.5c-0.2,0.5-0.5,0.9-1,1.2c-0.5,0.2-1,0.3-1.5,0.2
			c-23.9-7.2-39.9,4.7-40,4.8C309.1,446.7,308.7,446.9,308.2,446.9z"/>
		<path class="st4" d="M196.1,428.1l28,5.6c0.6,0.1,1.3,0.1,2,0c0.6-0.1,1.3-0.4,1.8-0.7c0.5-0.4,1-0.8,1.4-1.4
			c0.4-0.5,0.6-1.2,0.8-1.8l2.1-10.7c0.3-1.3,0-2.7-0.7-3.8c-0.7-1.1-1.9-1.9-3.2-2.1l-28-5.6c-1.3-0.3-2.7,0-3.8,0.7
			c-1.1,0.7-1.9,1.9-2.1,3.2l-2.1,10.7c-0.3,1.3,0,2.7,0.7,3.8C193.6,427,194.8,427.8,196.1,428.1z"/>
		<path class="st7" d="M225.1,436c-0.5,0-1,0-1.4-0.1l-28-5.6c-1.9-0.4-3.6-1.5-4.6-3.1c-1.1-1.6-1.5-3.6-1.1-5.5l2.1-10.7
			c0.4-1.9,1.5-3.6,3.1-4.6c1.6-1.1,3.6-1.5,5.5-1.1l28,5.6c1.9,0.4,3.6,1.5,4.6,3.1c1.1,1.6,1.5,3.6,1.1,5.5l-2.1,10.7
			c-0.3,1.7-1.2,3.1-2.5,4.2C228.5,435.4,226.8,436,225.1,436L225.1,436z M196.6,425.8l28,5.6c0.4,0.1,0.7,0.1,1.1,0
			c0.4-0.1,0.7-0.2,1-0.4s0.6-0.5,0.8-0.8c0.2-0.3,0.3-0.6,0.4-1l2.1-10.7c0.1-0.7,0-1.5-0.4-2.1c-0.4-0.6-1-1-1.8-1.2l-28-5.6
			c-0.7-0.1-1.5,0-2.1,0.4c-0.6,0.4-1,1-1.2,1.8l-2.1,10.7c-0.1,0.7,0,1.5,0.4,2.1C195.2,425.3,195.8,425.7,196.6,425.8L196.6,425.8
			z"/>
		<path class="st4" d="M232.3,400.5l53.9,11.5c5.9,1.3,9.7,7.1,8.5,13.1l-5.8,27c-1.3,5.9-7.1,9.7-13.1,8.5l-53.9-11.5
			c-5.9-1.3-9.7-7.1-8.5-13.1l5.8-27C220.5,403.1,226.3,399.3,232.3,400.5z"/>
		<path class="st7" d="M278.1,463.1c-0.9,0-1.9-0.1-2.8-0.3l-53.9-11.5c-3.4-0.7-6.4-2.8-8.4-5.8c-1.9-3-2.6-6.5-1.8-10l5.8-27
			c0.7-3.4,2.8-6.4,5.8-8.4c3-1.9,6.5-2.6,10-1.8l53.9,11.5c3.4,0.7,6.4,2.8,8.4,5.8c1.9,3,2.6,6.5,1.8,10l-5.8,27
			c-0.6,3-2.3,5.6-4.6,7.5C284,462.1,281.1,463.1,278.1,463.1z M230,402.6c-2,0-3.9,0.7-5.5,1.9c-1.6,1.3-2.6,3-3.1,5l-5.8,27
			c-0.5,2.3,0,4.6,1.2,6.6c1.3,1.9,3.2,3.3,5.5,3.8l53.9,11.5c2.3,0.5,4.6,0,6.6-1.2c1.9-1.3,3.3-3.2,3.8-5.5l5.8-27
			c0.5-2.3,0-4.6-1.2-6.6c-1.3-1.9-3.2-3.3-5.5-3.8l-53.9-11.5C231.2,402.6,230.6,402.6,230,402.6z"/>
		<g class="st8">
			<path class="st9" d="M232.3,400.5l53.9,11.5c5.9,1.3,9.7,7.1,8.5,13.1l-5.8,27c-1.3,5.9-7.1,9.7-13.1,8.5l-53.9-11.5
				c-5.9-1.3-9.7-7.1-8.5-13.1l5.8-27C220.5,403.1,226.3,399.3,232.3,400.5z"/>
		</g>
		<path class="st4" d="M218.5,397.6l53.9,11.5c5.9,1.3,9.7,7.1,8.5,13.1l-5.8,27c-1.3,5.9-7.1,9.7-13.1,8.5l-53.9-11.5
			c-5.9-1.3-9.7-7.1-8.5-13.1l5.8-27C206.7,400.2,212.6,396.4,218.5,397.6z"/>
		<path class="st22" d="M262.9,430.4c3.6,0,6.5-3.1,6.5-6.8c0-3.8-2.9-6.8-6.5-6.8s-6.5,3.1-6.5,6.8
			C256.4,427.4,259.3,430.4,262.9,430.4z"/>
		<g class="st5">
			<path class="st6" d="M258.1,426.5c0-3.8,2.9-6.8,6.5-6.8c0.8,0,1.6,0.2,2.4,0.5c0.8,0.3,1.5,0.8,2,1.4c-0.8-2.7-3.3-4.7-6.1-4.7
				c-3.6,0-6.5,3.1-6.5,6.8c0,0.9,0.2,1.8,0.5,2.7c0.3,0.9,0.9,1.6,1.5,2.3C258.2,427.9,258.1,427.2,258.1,426.5z"/>
		</g>
		<path class="st7" d="M262.9,431.9c-4.3,0-7.9-3.7-7.9-8.2c0-4.5,3.5-8.2,7.9-8.2s7.9,3.7,7.9,8.2
			C270.7,428.2,267.2,431.9,262.9,431.9z M262.9,418.2c-2.8,0-5,2.4-5,5.4c0,3,2.3,5.4,5,5.4s5-2.4,5-5.4
			C267.9,420.6,265.6,418.2,262.9,418.2z"/>
		<g class="st8">
			<path class="st9" d="M276.6,411.1c0.2,1.4,0.2,2.7-0.1,4.1l-5.8,27c-1.3,5.9-7.1,9.7-13.1,8.5l-53.9-11.5c-1.5-0.3-2.9-1-4.2-1.9
				c0.7,4.3,4,8,8.5,9l53.9,11.5c5.9,1.3,11.8-2.5,13.1-8.5l5.8-27c0.4-2.1,0.3-4.2-0.5-6.2C279.6,414,278.3,412.3,276.6,411.1z"/>
		</g>
		<path class="st7" d="M264.3,460.2c-0.9,0-1.9-0.1-2.8-0.3l-53.9-11.5c-3.4-0.7-6.4-2.8-8.3-5.8c-1.9-3-2.6-6.5-1.8-10l5.8-27
			c0.7-3.4,2.8-6.4,5.8-8.4c3-1.9,6.5-2.6,10-1.8l53.9,11.5c3.4,0.7,6.4,2.8,8.4,5.8c1.9,3,2.6,6.5,1.8,10l-5.8,27
			c-0.6,3-2.3,5.6-4.6,7.5C270.3,459.1,267.3,460.2,264.3,460.2L264.3,460.2z M216.2,399.6c-2,0-3.9,0.7-5.5,2c-1.6,1.3-2.6,3-3.1,5
			l-5.8,27c-0.5,2.3,0,4.6,1.2,6.6c1.3,1.9,3.2,3.3,5.5,3.8l53.9,11.5c2.3,0.5,4.6,0,6.6-1.2c1.9-1.3,3.3-3.2,3.8-5.5l5.8-27
			c0.5-2.3,0-4.6-1.2-6.6c-1.3-1.9-3.2-3.3-5.5-3.8L218,399.8C217.4,399.7,216.8,399.7,216.2,399.6L216.2,399.6z"/>
		<path class="st7" d="M231.9,453.6c-0.2,0-0.3,0-0.5,0c-0.7-0.1-1.3-0.5-1.6-1.1c-0.4-0.6-0.5-1.2-0.4-1.9l3.7-20.8l-15-9.7
			c-0.4-0.3-0.8-0.7-1-1.2c-0.2-0.5-0.2-1-0.1-1.5l4-18.3c0.1-0.7,0.5-1.2,1.1-1.6c0.6-0.4,1.3-0.5,1.9-0.3c0.7,0.1,1.2,0.5,1.6,1.1
			c0.4,0.6,0.5,1.3,0.3,1.9l-3.6,16.5l14.9,9.6c0.4,0.3,0.8,0.7,1,1.1c0.2,0.5,0.3,1,0.2,1.5l-4,22.5c-0.1,0.6-0.4,1.1-0.9,1.5
			C233.1,453.4,232.5,453.6,231.9,453.6z"/>
		<path class="st4" d="M309.1,451.1l-21.9-4.4c-0.6-0.1-1.3-0.4-1.8-0.8c-0.5-0.4-1-0.8-1.4-1.4c-0.4-0.6-0.6-1.2-0.7-1.8
			c-0.1-0.6-0.1-1.3,0-2l2.1-10.7c0.1-0.6,0.4-1.3,0.8-1.8c0.4-0.5,0.8-1,1.4-1.4c0.5-0.4,1.2-0.6,1.8-0.8c0.6-0.1,1.3-0.1,2,0
			l13.8,2.7C306.8,436.2,308.2,443.6,309.1,451.1z"/>
		<path class="st7" d="M311.8,453.9l-25-5c-1.9-0.4-3.6-1.5-4.6-3.1c-1.1-1.6-1.5-3.6-1.1-5.5l2.1-10.7c0.2-0.9,0.6-1.8,1.1-2.6
			c0.5-0.8,1.2-1.5,2-2c0.8-0.5,1.7-0.9,2.6-1.1s1.9-0.2,2.9,0l15.2,3l0.3,1.4c1.7,7.4,3.1,14.9,4,22.4L311.8,453.9z M290.3,428.3
			c-0.6,0-1.3,0.2-1.7,0.6c-0.5,0.4-0.8,1-1,1.6l-2.1,10.7c-0.1,0.7,0,1.5,0.4,2.1c0.4,0.6,1,1,1.8,1.2l18.8,3.7
			c-0.8-5.9-1.9-11.7-3.2-17.4l-12.3-2.5C290.7,428.3,290.5,428.3,290.3,428.3L290.3,428.3z"/>
		<g class="st8">
			<path class="st9" d="M305.1,428.9l-7.4-1.5c0.2,1.2,0.5,2.4,0.7,3.7c1.1,6.1-4.2,11.4-10.3,10.2l-4.8-0.9l-0.1,0.4
				c-0.1,0.6-0.1,1.3,0,2c0.1,0.6,0.4,1.3,0.7,1.8c0.4,0.5,0.8,1,1.4,1.4c0.5,0.4,1.2,0.6,1.8,0.8l21.9,4.4
				C308.2,443.6,306.8,436.2,305.1,428.9z"/>
		</g>
		<path class="st23" d="M260.9,388.6l11.4-8.2l-3.8-9.7l-16.7-5.4l-8.3,6.4l2.5,10.2L260.9,388.6z"/>
		<path class="st7" d="M261.2,391.5l-17.3-7.7l-3.2-13.1l10.6-8.2l19.1,6.2l4.9,12.7L261.2,391.5z M248.3,380.1l12.3,5.5l8.6-6.2
			l-2.6-6.7l-14.2-4.6l-5.9,4.6L248.3,380.1z"/>
		<path class="st7" d="M260.9,391.1c-0.4,0-0.7-0.1-1-0.2l-14.8-6.6c-0.4-0.2-0.7-0.4-0.9-0.7c-0.2-0.3-0.4-0.7-0.5-1l-2.5-10.2
			c-0.1-0.5-0.1-1,0.1-1.4s0.5-0.9,0.8-1.2l8.3-6.4c0.3-0.3,0.7-0.4,1.1-0.5c0.4-0.1,0.8,0,1.2,0.1l16.7,5.4c0.4,0.1,0.7,0.3,1,0.6
			c0.3,0.3,0.5,0.6,0.6,0.9l3.8,9.7c0.2,0.5,0.2,1.1,0.1,1.7c-0.2,0.5-0.5,1-1,1.3l-11.4,8.2C262,391,261.5,391.1,260.9,391.1z
			 M248.3,380.1l12.3,5.5l8.6-6.2l-2.6-6.7l-14.2-4.6l-5.9,4.6L248.3,380.1z"/>
		<path class="st23" d="M260.9,388.6l-14.8-6.6c0,0-11.6,17.1-21.7,49.7c0,0,4.9,15.8,13.7,23.3l22.9-12.1
			C261.1,442.9,259.5,404.1,260.9,388.6z"/>
		<path class="st7" d="M237.8,458l-1.3-1.1c-9.3-7.9-14.3-23.8-14.5-24.5l-0.2-0.8l0.2-0.8c10-32.5,21.5-49.7,22-50.4l1.2-1.8
			l18.4,8.2l-0.2,1.8c-1.4,15.1,0.2,53.5,0.2,53.9l0.1,1.6L237.8,458z M227.1,431.6c1,2.9,5,13.9,11.4,20.2l19.9-10.5
			c-0.3-7.3-1.3-36.5-0.3-51.2l-11.1-5C244,390.3,235.1,406.2,227.1,431.6L227.1,431.6z"/>
		<g class="st8">
			<path class="st9" d="M261.3,388.8l11.5-8.2l-3.9-10.1l-16.9-5.1l-7.5,7.1l6.4,1.4c5.3,1.1,6.7,8.1,2.3,11.2
				c-1,10.3-0.5,31.1-0.2,43.8c0.1,3.2-0.7,6.3-2.3,9c-1.6,2.7-3.9,5-6.7,6.4l-10.8,5.7c1.4,2,3,3.8,4.8,5.3l0.2,0.2l23.4-12.3
				l0-0.2C261.5,442.4,259.9,404.2,261.3,388.8z"/>
		</g>
		<path class="st7" d="M238.2,457.5c-0.6,0-1.2-0.2-1.7-0.6c-9.3-7.9-14.3-23.8-14.5-24.5c-0.2-0.5-0.2-1,0-1.5
			c10-32.5,21.5-49.7,22-50.4c0.3-0.5,0.8-0.9,1.4-1c0.6-0.2,1.2-0.1,1.7,0.1l14.8,6.6c0.5,0.2,0.9,0.6,1.2,1c0.3,0.5,0.4,1,0.3,1.5
			c-1.4,15.1,0.2,53.5,0.2,53.9c0,0.5-0.1,1-0.3,1.4c-0.2,0.4-0.6,0.8-1,1l-22.9,12.1C239,457.4,238.6,457.5,238.2,457.5z
			 M227.1,431.6c1,2.9,5,13.9,11.4,20.2l19.9-10.5c-0.3-7.3-1.3-36.5-0.3-51.2l-11.1-5C244,390.3,235.1,406.2,227.1,431.6
			L227.1,431.6z"/>
		<path class="st7" d="M277.6,497c-5.1,3-10.7,5.1-16.6,6.3c-5.9,1.1-12,1.7-17.9,0.6c-3-0.5-5.9-1.4-8.7-2.3l-2.1-0.8l-2.1-0.9
			c-0.7-0.3-1.4-0.6-2-0.9l-1-0.5l-1-0.5c-5.3-2.8-10-6.5-14-10.7c-0.1-0.1-0.1-0.2-0.1-0.3c0-0.1,0-0.2,0.1-0.3
			c0.1-0.1,0.2-0.1,0.3-0.2c0.1,0,0.2,0,0.3,0.1h0c2.3,1.7,4.7,3.2,7.2,4.6c2.5,1.4,5,2.5,7.7,3.5c5.2,2,10.7,3.2,16.2,3.7
			c2.7,0.2,5.5,0.5,8.2,0.7c2.8,0.2,5.5,0.1,8.3,0c5.6-0.4,11.2-1.5,16.5-3.2c0.2-0.1,0.4,0,0.5,0c0.2,0.1,0.3,0.2,0.4,0.4
			c0.1,0.2,0.1,0.4,0,0.5C277.9,496.8,277.7,496.9,277.6,497L277.6,497z"/>
		<path class="st7" d="M264.3,560L264.3,560c-0.4,0-0.7-0.1-1.1-0.2c-0.3-0.1-0.6-0.3-0.9-0.6s-0.5-0.6-0.6-0.9
			c-0.1-0.3-0.2-0.7-0.2-1.1c0-0.2,0-18-4.6-29.6c-4.7-11.8-12.9-24.6-13-24.8c-0.4-0.6-0.5-1.4-0.3-2.1c0.2-0.7,0.6-1.3,1.2-1.7
			c0.6-0.4,1.3-0.5,2.1-0.4c0.7,0.1,1.3,0.6,1.7,1.2c0.3,0.5,8.6,13.4,13.5,25.7c5,12.6,5,30.9,5,31.6c0,0.7-0.3,1.4-0.8,1.9
			C265.7,559.7,265,560,264.3,560z"/>
		<path class="st7" d="M256.3,518.7c-0.5,1-1,2.1-1.4,3.2c-0.5,1.1-0.8,2.2-1.2,3.3c-0.7,2.2-1.3,4.5-1.6,6.8
			c-0.4,2.3-0.6,4.6-0.7,6.8c0,0.6,0,1.1,0,1.7l0,1.7l0.1,3.6c0.1,4.8,0.1,9.7,0.1,14.5c-0.1,4.8-0.1,9.7-0.1,14.5v0.1
			c0,0.5-0.2,1-0.5,1.5c-0.1,0.2-0.2,0.2-0.2,0.3l-0.2,0.2c-0.1,0.1-0.2,0.3-0.4,0.4c-0.2,0.2-0.5,0.4-0.7,0.6
			c-0.5,0.4-0.9,0.7-1.5,1c-1,0.6-2,1-3.1,1.4c-2,0.6-4.1,0.9-6.2,0.9h-45.2l-0.2,0l-0.5,0c-0.3,0-0.6-0.1-1-0.1
			c-1.3-0.2-2.5-0.7-3.6-1.5c-1.1-0.7-2-1.7-2.7-2.8c-0.3-0.6-0.6-1.1-0.8-1.8c-0.1-0.3-0.2-0.6-0.3-0.9l-0.1-0.5l0-0.2l0-0.2
			c-0.3-2-0.4-4-0.3-6c0.1-2.1,0.6-4.2,1.3-6.1c0.8-2,2-3.9,3.6-5.5c1.5-1.6,3.4-2.7,5.3-3.6c0.7-0.3,1.4-0.4,2.1-0.1
			c0.7,0.2,1.3,0.8,1.6,1.4c0.3,0.7,0.4,1.4,0.1,2.1c-0.2,0.7-0.7,1.3-1.4,1.6l-0.1,0c-1.4,0.7-2.6,1.5-3.7,2.5
			c-1,1-1.8,2.3-2.4,3.6c-1.1,2.8-1.2,6.1-0.7,9.3l0,0.2l0,0.1l0,0.2c0,0.1,0.1,0.2,0.1,0.4c0.1,0.2,0.2,0.5,0.3,0.7
			c0.3,0.5,0.6,0.8,1.1,1.1c0.4,0.3,0.9,0.5,1.4,0.6c0.1,0,0.3,0,0.4,0l0.2,0l0.1,0h45.2c1.5,0,3.1-0.2,4.5-0.6
			c0.7-0.2,1.3-0.5,1.9-0.9c0.3-0.2,0.5-0.3,0.8-0.6c0.1-0.1,0.2-0.2,0.3-0.3c0,0,0.1-0.1,0.1-0.1l0,0c0,0,0,0,0,0.1l-0.4,1.5
			c0-4.8-0.1-9.7-0.1-14.5c-0.1-4.8,0-9.7,0.1-14.5l0.1-3.6l0.1-1.9c0-0.6,0.1-1.3,0.2-1.9l0.2-1.9l0.4-1.9c0.1-0.6,0.3-1.2,0.4-1.9
			s0.3-1.2,0.5-1.8c0.2-0.6,0.4-1.2,0.6-1.8l0.7-1.8c0.2-0.6,0.5-1.2,0.8-1.7l0.8-1.7c0.6-1.1,1.2-2.2,1.9-3.2
			c0.7-1.1,1.5-2.1,2.4-3c0.2-0.2,0.4-0.3,0.6-0.3c0.2,0,0.4,0,0.6,0.2c0.2,0.1,0.3,0.3,0.4,0.5
			C256.5,518.2,256.5,518.4,256.3,518.7L256.3,518.7z"/>
		<path class="st7" d="M194.2,540c-0.5,0-1-0.2-1.3-0.5c-0.4-0.3-0.6-0.8-0.7-1.2c-0.1-0.5,0.1-1,0.3-1.4c0.3-0.4,0.7-0.7,1.2-0.8
			c24-6,54.2-0.3,55.5,0c0.5,0.1,1,0.4,1.3,0.8c0.3,0.4,0.4,1,0.3,1.5c-0.1,0.5-0.4,1-0.8,1.3c-0.4,0.3-1,0.4-1.5,0.3
			c-0.3-0.1-30.6-5.8-53.7,0C194.5,540,194.3,540,194.2,540z"/>
		<path class="st7" d="M351.7,380l-18.5-1.9c-0.2,0-0.4-0.1-0.6-0.3c-0.2-0.2-0.2-0.4-0.2-0.6c0-0.2,0.1-0.4,0.2-0.6
			c0.2-0.2,0.4-0.3,0.6-0.3l18.5-1.9c0.4,0,0.7,0,1.1,0.1c0.4,0.1,0.7,0.3,1,0.5c0.3,0.2,0.5,0.5,0.7,0.8c0.2,0.3,0.3,0.7,0.3,1
			c0,0.4,0,0.7-0.1,1.1c-0.1,0.4-0.3,0.7-0.5,1c-0.2,0.3-0.5,0.5-0.9,0.7c-0.3,0.2-0.7,0.3-1,0.3C352.1,380,351.9,380,351.7,380z"/>
		<g class="st8">
			<path class="st9" d="M215.9,322.9v-0.8h-0.9L215.9,322.9z"/>
		</g>
		<g class="st8">
			<path class="st9" d="M195.8,322.2L195.8,322.2l-1.6-0.1l-10.1,5l1.9,15.2l9-4h20.9v-6.2h-9.3
				C200.9,332.2,196.3,327.8,195.8,322.2z"/>
		</g>
		<path class="st7" d="M192.1,553.7c1.6-1.3,3.6-2.2,5.5-2.7c2-0.5,4-0.7,6-0.6c2,0.1,3.9,0.4,5.8,1c1.9,0.6,3.6,1.4,5.2,2.6
			c0.1,0,0.1,0.1,0.1,0.2c0,0.1,0,0.1,0,0.2c0,0.1-0.1,0.1-0.1,0.2c-0.1,0-0.1,0-0.2,0c-3.5-0.6-7-0.7-10.5-0.1
			c-1.6,0.3-3.3,0.7-4.8,1.2c-1.6,0.5-3,1.1-4.5,1.8l-0.1,0c-0.5,0.2-1.1,0.3-1.6,0.1c-0.5-0.2-1-0.5-1.3-1c-0.3-0.5-0.4-1-0.3-1.6
			C191.4,554.6,191.7,554.1,192.1,553.7L192.1,553.7z"/>
	</g>
</g>
</svg>
