<?xml version="1.0" encoding="utf-8"?>
<!-- Generator: Adobe Illustrator 25.1.0, SVG Export Plug-In . SVG Version: 6.00 Build 0)  -->
<svg version="1.1" id="Camada_1" xmlns="http://www.w3.org/2000/svg" xmlns:xlink="http://www.w3.org/1999/xlink" x="0px" y="0px"
	 viewBox="0 0 586 580" style="enable-background:new 0 0 586 580;" xml:space="preserve">
<style type="text/css">
	.st0{opacity:0.4;fill:#22A7F0;enable-background:new    ;}
	.st1{fill:#FFFFFF;}
	.st2{clip-path:url(#SVGID_2_);}
	.st3{fill-rule:evenodd;clip-rule:evenodd;fill:#02A9FD;}
	.st4{fill-rule:evenodd;clip-rule:evenodd;fill:#EA1C24;}
	.st5{fill-rule:evenodd;clip-rule:evenodd;fill:#381A46;}
	.st6{fill-rule:evenodd;clip-rule:evenodd;fill:#FFFFFF;}
	.st7{fill-rule:evenodd;clip-rule:evenodd;fill:#E78C12;}
	.st8{fill-rule:evenodd;clip-rule:evenodd;fill:#D43D30;}
	.st9{fill-rule:evenodd;clip-rule:evenodd;fill:#FCFE01;}
	.st10{fill-rule:evenodd;clip-rule:evenodd;fill:#5C0502;}
	.st11{fill-rule:evenodd;clip-rule:evenodd;fill:#CBC3CF;}
	.st12{fill-rule:evenodd;clip-rule:evenodd;fill:#AD1B2F;}
	.st13{fill-rule:evenodd;clip-rule:evenodd;fill:#1176BB;}
	.st14{opacity:0.25;}
	.st15{opacity:0.25;fill-rule:evenodd;clip-rule:evenodd;fill:#5C0502;enable-background:new    ;}
	.st16{opacity:0.56;}
	.st17{opacity:0.56;fill-rule:evenodd;clip-rule:evenodd;fill:#FFFFFF;enable-background:new    ;}
	.st18{fill-rule:evenodd;clip-rule:evenodd;fill:#9ADDFF;}
	.st19{fill-rule:evenodd;clip-rule:evenodd;fill:#F68A8E;}
	.st20{opacity:0.29;}
	.st21{opacity:0.29;fill-rule:evenodd;clip-rule:evenodd;fill:#FFFFFF;enable-background:new    ;}
	.st22{fill-rule:evenodd;clip-rule:evenodd;fill:#250C30;}
	.st23{fill-rule:evenodd;clip-rule:evenodd;fill:#C3B9C8;}
	.st24{fill:#FFD527;}
	.st25{fill:#000072;}
	.st26{opacity:0.5;}
	.st27{opacity:0.5;fill:#FFFFFF;enable-background:new    ;}
	.st28{opacity:0.3;}
	.st29{opacity:0.3;fill:#000072;enable-background:new    ;}
	.st30{fill:#00BBFC;}
	.st31{fill:#371A45;}
	.st32{opacity:0.3;fill:#371A45;enable-background:new    ;}
	.st33{fill:none;stroke:#323232;stroke-width:6.3144;stroke-linecap:round;stroke-linejoin:round;}
	.st34{fill:#8DD7FF;}
	.st35{fill:none;stroke:#FFD527;stroke-width:3;}
</style>
<path id="bola_grande" class="st0" d="M483,405.5c44.6-36.5,73-91.9,73-154c0-109.9-89.1-199-199-199c-109.9,0-199,89.1-199,199
	c0,62.1,28.5,117.5,73,154c37.1-0.7,80.1-1.2,126-1.2S445.9,404.8,483,405.5z"/>
<path id="nuvem" class="st1" d="M555.8,387c2-4.2-3.6-44.1-42.1-45.8c-7.6,0-15.1,1.9-21.8,5.6c-6.4-5.7-15-9.6-24.5-10.5
	c-3.5-16.8-20.2-29.5-40.3-29.5c-7,0-14,1.6-20.3,4.7c-2,1-4.4,1.1-6.5,0.4l-0.4-0.1c-2-0.6-3.7-1.8-4.8-3.5
	c-7.1-10.9-20.3-18.2-35.6-18.2c-16.1,0-30,8.1-36.7,20c-6.6-3.6-14-5.4-21.5-5.4c-22.6,0-41,16.1-41,36c0,1.1,0.1,2.1,0.2,3.1
	c-14,2.8-25.6,11.1-31.7,22.3c-8.6-9.1-21.6-15-36.1-15c-25.2,0-45.7,17.5-46.8,39.4c-1.2-0.1-2.4-0.2-3.6-0.2
	c-16.1,0-29.1,11.5-29.1,25.6c0,0.7,0,1.4,0.1,2.1H617C611.5,400.2,587.8,377.5,555.8,387z"/>
<g id="foguete">
	<defs>
		<rect id="SVGID_1_" x="81.1" y="97.1" width="416.9" height="372.2"/>
	</defs>
	<clipPath id="SVGID_2_">
		<use xlink:href="#SVGID_1_"  style="overflow:visible;"/>
	</clipPath>
	<g class="st2">
		<path class="st3" d="M363.7,397.3c11.8,1,23.5,3.2,34.5,6.8c8.7,2.9,16.9,6.6,24.7,11.4c-16,0.9-43.1,1.1-59.6-1.6
			c-7.5-1.2-14.3-2.5-14.7-9.1C348.2,396.3,359.1,396.9,363.7,397.3z"/>
		<path class="st4" d="M364.7,434.8c-0.3,17.5,15.2,23,31.2,24.1c-24.5,6.3-57.6,10.7-64.4-15.4
			C342.4,441.2,353.4,438.3,364.7,434.8z"/>
		<path class="st4" d="M267.9,403.5c-20.5,21-56.7,6.6-56.7-23c0-29.9,36.7-44.2,57-22.6c-0.6,1.1-5,4-6.6,5.4c-2.3-2.3-5-4.1-8-5.4
			c-3-1.2-6.2-1.9-9.4-1.9c-21.8,0-32.8,26.5-17.4,41.9c4.1,4.1,9.5,6.6,15.3,7.1c5.8,0.5,11.5-1.1,16.2-4.4
			C261.4,402.2,264.2,402.9,267.9,403.5z"/>
		<path class="st4" d="M164.5,322.1c20.9,28.7,14.4,68.8-14.2,89.6l-0.3,0.3c-17.1-12-32.6-27.3-46.2-45.9c-1.4-1.9-2-7-0.5-8.7
			c15.4-17.9,35.6-29.6,61-35.8L164.5,322.1z"/>
		<path class="st4" d="M239.6,232.1c-4.1-0.4-8.2,0.5-11.8,2.4l1-5.2c3.7,0.3,7.5,0.7,11.2,1.1L239.6,232.1z"/>
		<path class="st3" d="M229.7,275.4c-1.5,5.4-3,3.4-4.9,2.3c-4.7-2.6-5.2-6.8-3.9-11.6L229.7,275.4z"/>
		<path class="st4" d="M204.5,191.5c0.1,11-1.6,18-8.7,27.4c-1.4-4.7-5.1-8.3-9.7-11.1c4-4.9,4.5-9.5,3.7-14.3L204.5,191.5z"/>
		<path class="st4" d="M179.9,210.6c4.3,2,7.3,4.3,9.1,6.8c1.5,2.1,2.2,4.3,1.9,6.8l-4.3,2.9c-3.3,1.7-6.8,2.2-10,1.2
			c-16.5-5-15.6-39.8,1.8-54.1c12.1-10,23.1-2.2,25.5,11.9c-6.4,2-12.9,2.5-19.6,1.7c-5.1-1.3-9.6,3.4-11.2,8.4
			c-1.8,5.8-0.2,13,4.9,14.2L179.9,210.6z"/>
		<path class="st4" d="M386.1,369.5L370,356.3l-5.5-3.9c14.9-6.4,40.4,6.7,56.5,16.3C410.1,365.7,392.6,361.7,386.1,369.5z"/>
		<path class="st5" d="M254.6,397.9c-13.2,7.8-30.3-1.7-30.3-17.4c0-17.9,21.9-27,34.5-14.1C251.6,374.9,246.2,388.4,254.6,397.9
			L254.6,397.9z M302.1,244c-10.7,1.4-27.5,0.1-43.8-4.6c-3-3-6-7.6-8.3-11.1l-1.1-3.8c6.1-6.5,7.8-15.4,1-21.8l-11.9-9.1
			c0-15.6,7.4-30.3,18.6-41.5c13.8-13.8,40.4-4.1,53.9,6.2c11.8,9.4,22.5,26.7,25.2,42.6c-11.4,2.3-20.3,17.8-14.8,29.1
			C315.6,236.3,311.7,242.7,302.1,244z"/>
		<path class="st6" d="M338.5,200.8c-4.8-30.7-29.6-54.1-60-57.7c35.8,3.5,58.6,22.2,63.4,58.4C340.9,201.2,339.7,200.9,338.5,200.8
			L338.5,200.8z M328.2,211.4c-1.7,1.7-3,3.8-3.7,6.1c-0.7,2.3-0.9,4.7-0.5,7.1c-1-2.4-1.3-5.1-0.8-7.7c0.5-2.6,1.8-4.9,3.6-6.8
			c1.9-1.9,4.2-3.1,6.8-3.6c2.6-0.5,5.2-0.3,7.7,0.8c-2.4-0.4-4.8-0.2-7,0.6C331.9,208.4,329.9,209.7,328.2,211.4L328.2,211.4z
			 M346.7,216.5l-17.2,8.2c-0.6-2.2-0.4-4.5,0.5-6.6c0.9-2.1,2.6-3.7,4.6-4.7c2.1-1,4.4-1.2,6.6-0.6
			C343.5,213.3,345.4,214.6,346.7,216.5z M348.5,221.7c0.3,7.1-8.9,13.8-16,7.6L348.5,221.7z M315.7,250.2c5.8-3,11.1-7.2,15.9-12.6
			l5.8,0.5c-6.1,5.5-13.4,9.7-21.2,12.2L315.7,250.2z M255.4,384.8c2-19,18.5-15.5,19.9-31.8c0.4-4.6,0.3-10.7,6-18
			c5.2-1.1,10.4-0.3,15.5,2.3c5.2,2.6,10.4,7.2,15.7,13.6c-4.1,5.7-5.5,13.6-5.8,24.5c-0.1,4.8-4.6,12.3-9.9,16
			C276.4,404.1,254.1,397.1,255.4,384.8L255.4,384.8z M205.7,380.5c0,28.8,30.6,47.3,56,34.3c5-2.6,9.4-6.2,12.8-10.6
			c10.6,0.2,19.2-3.4,25.5-8.4c6.9-5.5,11.8-13.4,12-20.2c0.9-28.7,10-27.9,23.8-33.1c7.8,3.9,16.1,6.7,22.6,10.8
			c13.7,11.5,34.8,25.7,37.5,44.1l0.1,0.4c-13.2-3.8-26.1-5.8-40.1-6.4c-7,0.9-11.4,4.2-12.7,11.4c-1.7,11.1,8.8,15,19.1,16.6
			l23.7,2.1c-5.8,3.5-32.5,10.9-39.2,12.6c-65.5,16.7-133.7,19.5-192.3-18.8c29.6-22.5,36.4-64.4,15.2-95
			c31.8-6.6,70.8-4.8,115.6,2.9c-14,11.5-15.5,21.2-16.1,28.2C244.7,330,205.7,347.4,205.7,380.5z M346,328.9
			c1.9-3.8,3.5-8,4.8-12.8c8.7-2.2,21.4-7.6,19.5-17.9c-0.3-4.6-6-10.2-11.5-7.3c-3,1.6-6,3-8.9,4.2c-0.5-7.2-1.8-14.2-4-21.1
			c-1-15.6,15.3-28.6,25.4-18.8c15.2,14.8,16.3,45,12.7,68.7C380.9,344.6,359.5,338,346,328.9z M341.9,263.6
			c-2.4-5.4-5.3-10.6-8.5-15.6c1.1-0.7,2.1-1.4,3.1-2.2l17.5,3C348.5,251.9,344.1,257.4,341.9,263.6z M344.6,297.2
			c-12.6,4.4-25.6,5.6-37.8,1.1l-0.4-6.2c5.8-3,13-8.1,17.4-12.1c-6.3,2.5-11.8,4.5-16.7,6.1c-11.4,3.4-26.3,8.2-38,4.7
			c-17.2-5-31.3-13.5-42.7-26.6l-0.2-0.2c-10.6-10.8-1.1-29,13.9-26.4c11.3,2,10,9.2,13.7,14.9c9,11.5,31,15.3,50.7,1.6l5.5,1.5
			c7.6-1.4,12.4,3.1,16.8,11.4c-1.4-5.9-3.8-10.1-7.2-12.4c3.1-1.1,6-2.4,8.9-3.9C337.9,265,343.9,280.5,344.6,297.2z M365,299.1
			c2.3,13.1-45.8,20-66.7,7.3c-2.6-1.8,0.2-6.4,3.2-4.4l2,0.9c21.4,8.7,54.8-4.7,57.5-6.9C362.8,294.8,364.5,296.7,365,299.1z
			 M316.3,346.9c-7.6-9.2-16.8-16.6-27.4-17.7c2.7-6.7,8.3-10.9,14.7-14.5c12.1,4.1,28.1,4.8,41.3,2.6c-1.6,5.2-3.6,9.7-6.2,13.4
			C330.5,342.6,325,339.7,316.3,346.9z M286,297c1.1,6.4,0.4,12.8-1.8,19.2c-12.4-1-24.4-3.7-35.3-8.8c0.4-5.8,1.6-11.5,3.6-17
			C263.7,295.7,273,298.8,286,297z M289.4,318.3c1.5-7.5,2.5-15.2,2-22.2l4.1-0.9c1.9-0.4,3.7-0.8,5.5-1.3l0.1,2.3
			c-8.3-1.1-12.8,9.6-6.1,14.7l2.8,1.6l-6.7,6.2L289.4,318.3z M247.6,288c-2.3,6.2-3.9,12.6-4.1,19c-4.9,1-9.1,0.2-12.5-2.2
			c-4.1-2.9-7.3-8.3-9.6-16.1c-0.9-3-5.3-1.4-9.9-8c-1.3-1.9-2.2-4-2.7-6.3c-0.5-2.3-0.4-4.6,0.1-6.9c0.5-2.3,1.5-4.4,2.8-6.2
			c1.4-1.9,3.1-3.4,5.1-4.6c0.2,1,0.4,1.9,0.7,2.8c-0.1,1.2-8.3,15.3,4.6,22.9c5.5,3.5,9.7,2.3,12.1-3.3L247.6,288z M240.8,225
			c-13.6-1.6-28.9-2.5-42.3-0.6c8.7-10,13.4-27.6,10.6-40.8c12,8.5,22.5,13.4,35.6,19.5c4,1.6,5.7,3.8,5.8,8.5
			C250.6,217.3,246.9,225.7,240.8,225z M347.8,204.1c-3.9-37.6-25.7-59.8-61.7-65.5c43.7-9.7,81.4,31.9,67.6,74.3l-6-8.2
			C347.8,204.5,347.8,204.3,347.8,204.1L347.8,204.1z"/>
		<path class="st7" d="M397.9,414.7c0.1-0.3,0.3-0.5,0.4-0.8C398.2,414.2,398,414.5,397.9,414.7z M400.9,393.9
			c-0.6-2.2-1.3-4.2-2.3-7.3c28.4-7.8,64.8,16.6,90.4,37.7c-9,1.8-17.8,4.6-25.4,9.4c-24.1,15-55.1,12.5-75.9-6.7
			c4.3-3.2,7.6-7,9.9-11.4c-0.1,0.3-0.3,0.5-0.4,0.8c9.5,0.1,18.7-0.2,25.8-0.6c-7-4.3-14.4-7.8-22.1-10.6l-0.1,0.7
			C401.3,402.1,401.4,398.1,400.9,393.9L400.9,393.9z"/>
		<path class="st8" d="M469,423c-20.8-21.7-43.6-31.8-68.4-30.3c-0.5-1.8-1.2-3.6-2-6.1c28.4-7.8,64.8,16.6,90.4,37.7
			c-9,1.8-17.8,4.6-25.4,9.4c-24.1,15-55.1,12.5-75.9-6.7c1-0.6,2-1.3,3-2C414.1,437.6,440.2,437,469,423"/>
		<path class="st9" d="M401.7,399c15.4-3.1,40.4,11.4,46.8,17c1.4,1.3,3,2.4,4.6,3.5c-17.6,4.5-34,12.3-51.4,2.1l29.6-1.2
			c5-1.1,1.2-5.1-2.2-7.3c-8-5.4-18.2-10.4-27.4-13.5L401.7,399z"/>
		<path class="st10" d="M173.2,196.1c1.6-5,6-9.7,11.2-8.4c6.7,0.8,13.2,0.3,19.6-1.7c-1.2-7-4.8-13.8-11-15.8
			c-4.8-1.5-9.8,0-14.5,3.9c-17.4,14.3-18.3,49.1-1.8,54.1c3.2,0.9,6.6,0.4,10-1.2l4.3-2.9c0.2-2.5-0.4-4.7-1.9-6.8
			c-1.8-2.5-4.9-4.7-9.1-6.8l-1.8-0.3c-5.3-1.7-6.5-8.5-5-13.8L173.2,196.1z M184.3,200.4c0.8-2.5,0.9-6.6-1.4-7.4
			c-1.8-0.4-3.8,2.6-4.5,4.7l-0.1,0.3c-0.7,2.5-0.5,6.4,1.3,7.1C181.6,205.7,183.7,202.5,184.3,200.4L184.3,200.4z M195.9,218.9
			c7-9.4,8.8-16.4,8.7-27.4l-14.7,2c0.8,4.7,0.3,9.3-3.7,14.3C190.7,210.6,194.4,214.2,195.9,218.9z M244.7,203.1
			c1.2,0.5,2.4,1,3.4,1.9c0.1,0.1,0.3,0.3,0.4,0.4l0,0l0,0l0.1,0.2l0,0l0,0l0,0l0.1,0.1l0,0l0,0l0,0l0,0l0,0.1l0,0.1l0,0.1
			c0.9,1.4,1.3,3.1,1.5,4.9v0.1v0v0.1v0.1v0.1v0v0.1v0.1c0,2.4-0.4,4.7-1.3,6.9c-0.9,2.2-2.3,4.1-4,5.3l0,0l0,0l0,0l0,0l0,0
			c-1.3,0.8-2.7,1.3-4.3,1.1c-4.6-0.6-9.3-1-14-1.3c-9.1-0.6-19.4-0.6-28.2,0.7c8.7-10,13.4-27.6,10.6-40.8
			C221,192.1,231.5,197,244.7,203.1L244.7,203.1z M237.1,180.2c1.7,1.2,3.4,2.3,4.9,3.5c-0.7,3.7-1.1,7.5-1.1,11.3v0.4l0,0
			c3.2,1.5,8.5,3.4,10.3,5l0,0l0,0l0,0l0,0l0,0l0.1,0l0,0l0.1,0.1v0l0.1,0.1l0.1,0.1l0.1,0.1l0,0l0.1,0l0,0l0,0l0,0l0,0l0,0l0,0l0,0
			l0,0l0,0.1l0,0l0.1,0.1l0.1,0.1l0.1,0.1l0,0l0.1,0.1l0,0l0,0.1l0,0l0,0l0,0l0,0l0,0l0.1,0.1l0,0l0,0.1l0,0l0.1,0.1l0.1,0.1
			l0.1,0.1l0,0l0,0.1l0,0l0,0.1l0,0l0,0l0,0l0,0l0,0.1l0,0l0,0.1l0,0l0,0.1v0l0.1,0.1c1.7,2.4,2.5,5.5,2.6,8.7
			c0.1,5.3-1.8,11-5.5,15l-0.1,0.1l-0.1,0.1l0.4,0.6c-1.2,1.2-2.6,2.4-4.1,3.7c-0.3-0.4-0.5-0.8-0.8-1.2c0,0-0.1,0-0.1,0.1l-0.2,1.2
			c-1.8,0.1-3.7,0.2-5.6,0.4l0.2-1c-3.7-0.4-7.4-0.8-11.2-1.1l-0.7,3.3c-1.9,0.2-3.9,0.5-5.9,0.8l1-4.4c-3.6-0.2-7.1-0.3-10.6-0.2
			c-8.7,0.1-17,1.1-24,3.3c-4.4,2.1-9.1,2.8-13.7,1.5l-0.4-0.1c-6.6-2.1-11.4-8-13.8-15.7c-7.7-25.4,12.3-59.1,33.6-52.7
			c3.4,1.1,30,22.5,40.9,27.9l0-0.2C235.6,188.5,236.1,184.3,237.1,180.2L237.1,180.2z"/>
		<path class="st11" d="M266.1,348.8c0.2-1.2,0.5-2.6,0.6-4c0.8-6.9,0.5-11,5.9-16.6c0.2-0.1,0.3-0.3,0.5-0.5c2-2.3-0.7-2.7-7.5-4.2
			l-28.8-6.5c15.3,1.1,31.6,3.1,48.7,6.1c-14,11.5-15.5,21.2-16.1,28.2C268.3,350.5,267.3,349.6,266.1,348.8L266.1,348.8z
			 M256.9,378.4c9.7,11.9,33.4,16.5,36.5-4.1c3.1-15.8,7.8-25.5,14.1-29c1.4,1.4,2.9,3,4.3,4.8c-1.6,2.7-2.6,5.7-3,8.8l0.5-0.4
			c-0.6,2.4-1,5.2-2.1,9.1c-1.6,16.4-9.8,23.8-21.3,26.8c-16.9,4.5-29.1-0.7-30.4-9.6C255.4,383.2,256.5,379,256.9,378.4z
			 M326.8,326.4c2-3.1,0.1-4.1-5.6-3.1c-7.9,0.4-14.7-1.6-20.2-6l2.6-2.5c11.8,4,27.3,4.7,40.3,2.7c-4.8,12.9-11.5,19.9-17.9,22.1
			c-6.3,2.2-8.1,3.6-10.8,6c-1.1-1.2-2.1-2.4-3.2-3.6C317.4,337.6,322.3,332.3,326.8,326.4z M357.6,255.3c0.2-0.1,0.5-0.2,0.7-0.3
			C358.1,255.1,357.8,255.2,357.6,255.3z M371.1,255.7c-16.9,1.2-23.4,10.9-19.5,29.1c1.1,2,2.7,2.8,4.8,2.2c3.5-1.6,6.5-2.1,9-1.4
			c3.1,1.2,5.8,3.3,7.8,5.9c2,2.7,3.2,5.8,3.5,9.1c0.3,3.3-0.3,6.6-1.7,9.6c-1.5,3-3.7,5.5-6.5,7.3c-2.4,1-4,1.9-4.7,2.8
			c-0.3,0.4-0.5,0.8-0.4,1.2c-2.5,8.4,3.8,11.3,18.8,8.7c-6.2,12.8-24.3,6.8-36.1-1.3c1.9-3.8,3.5-8,4.8-12.8
			c8.7-2.2,21.4-7.6,19.5-17.9c-0.3-4.6-6-10.2-11.5-7.3c-3,1.6-6,3-8.9,4.2c-0.5-7.2-1.8-14.2-4-21.1c-1-15.6,15.3-28.6,25.4-18.8
			c0.3,0.3,0.5,0.5,0.8,0.8C371.8,255.9,371.4,255.8,371.1,255.7z M321.8,252.9c-0.3,0.4-0.5,0.9-0.7,1.4c-0.4,0.2-0.8,0.3-1.2,0.5
			c0.3,0.2,0.7,0.4,1,0.6c-0.2,1.5,0.2,3,1.2,4.6c3.2,3.1,10,15.1,12.6,24.1c2.6,9-1.9,7.9-5.5,9.7c-7.4,2.9-13.1,1.8-11.3-2
			c1.8-3.8,13.6-11.2,12.4-16.1c-1.5-6.2-11.6,0.5-16.1,2.6c-54.3,25.2-107.1-26.6-73.9-40.3c-15-2.6-24.5,15.6-13.9,26.4l0.2,0.2
			c11.3,13.1,25.4,21.6,42.7,26.6c11.7,3.4,26.6-1.3,38-4.8c4.9-1.6,10.4-3.6,16.7-6.1c-4.4,4-11.6,9.1-17.4,12.1l0.4,6.2
			c12.2,4.5,25.2,3.3,37.8-1.1c-0.7-16.7-6.7-32.2-15.8-46.4c-1.9,1-3.9,2-5.9,2.8C322.5,253.3,322.2,253.1,321.8,252.9z
			 M287.8,259.4c-0.3,0.1-0.7,0.2-1,0.2L287.8,259.4z M315.7,250.2c5.8-3,11.1-7.2,15.9-12.6l5.8,0.5c-6.1,5.5-13.4,9.7-21.2,12.2
			L315.7,250.2z M337.9,229.5c2,0,3.9-0.7,5.4-1.9c1.5-1.2,2.6-2.9,3.1-4.8l2.2-1c0.3,7.1-8.9,13.8-16,7.6l1.5-0.7
			C335.2,229.2,336.5,229.5,337.9,229.5z M345.7,217c-0.9-1.9-2.4-3.4-4.3-4.2c2.1,0.6,4,1.9,5.3,3.7L345.7,217z M341.4,197.6
			c0.2,1.3,0.4,2.6,0.6,4c-1.1-0.4-2.3-0.6-3.5-0.8c-0.2-1.1-0.4-2.3-0.6-3.4C339.1,197.2,340.2,197.3,341.4,197.6z M353,201.4
			c0-0.1,0-0.1,0-0.2c0.5-8.7-0.9-17.5-4.1-25.6c-3.2-8.1-8.2-15.4-14.6-21.4c-6.4-6-14-10.5-22.3-13.2c-8.3-2.7-17.1-3.6-25.8-2.5
			c43.6-9.6,81.3,32,67.5,74.4l-6-8.2c0-0.2,0-0.4,0-0.6c-0.1-1.1-0.2-2.1-0.4-3.2C350.9,203.9,352.7,204.1,353,201.4L353,201.4z
			 M336.6,245.8c4.7,1.4,8.6,2.7,11.8,4c-3.8,4-6.4,7.6-7.5,11.5c-2.2-4.6-4.7-9.1-7.4-13.3C334.5,247.3,335.6,246.5,336.6,245.8
			L336.6,245.8z M240.1,219c4.8-0.5,6.3-5.8,4.6-15.9c4.1,1.6,5.7,3.8,5.8,8.5c0.1,2.3-0.5,5-1.6,7.4v0c-1.7,3.2-4.9,4.5-9.6,4
			c-19.5-1.5-33-1-40.6,1.3l-0.1,0c6.2-7.2,10.4-18.2,11.2-28.7c0.3,5.9-0.1,11-1.2,15.4c-0.1,0.2-0.1,0.4-0.2,0.7
			c-0.4,2,0.6,3.2,3.1,3.6c0.9,0.1,1.8,0.2,2.7,0.2C220.6,215.8,236.2,219.4,240.1,219L240.1,219z M301.8,305.7
			c11.1,4.6,28.2,4.3,51.3-0.8c5.7-1.7,9.2-4.5,10.6-8.5c0.6,0.6,1.1,1.6,1.3,2.7c2.3,13.1-45.8,20-66.7,7.3
			c-1.7-1.2-1.1-3.6,0.4-4.5C298.3,303.8,299.4,305.1,301.8,305.7L301.8,305.7z M297.8,312.4l-6.7,6.2l-1.7-0.3
			c1.5-7.5,2.5-15.2,2-22.2l4.1-0.9c1.9-0.4,3.7-0.8,5.5-1.3l0.1,2.3c-8.3-1.1-12.8,9.6-6.1,14.7L297.8,312.4z M251.5,293.6
			c0.3-1,0.7-2.1,1-3.1c11.2,5.2,20.5,8.3,33.5,6.5c1.1,6.4,0.4,12.8-1.8,19.2c-12.4-1-24.4-3.7-35.3-8.8c9.8,3.4,19.2,4.9,27.9,4.3
			c3.5,0.6,4-1.7,4.4-4.2c0.1-0.4,0.2-0.8,0.2-1.1c0.2-2.2-0.7-3.6-2.7-4.3c0,0-0.1,0-0.1,0c-0.4-0.1-0.9-0.2-1.3-0.3
			c-3.4-0.6-6.8-1.5-10.1-2.6C261.2,297.4,256,295.6,251.5,293.6L251.5,293.6z M217.5,259.6c-0.1,1.1-6.9,12.9,1.6,20.8
			c0.9,0.8,1.9,1.5,2.9,2.1c5.5,3.5,9.7,2.3,12.1-3.3l13.5,8.8c-0.4,1.1-0.8,2.1-1.1,3.2c-4.6-2.4-8.3-4.9-10.8-7.5
			c-4.4,3.9-9,3.7-13.8-0.6c-2.2-0.2-1.4,2.1,2.3,6.9c3.2,8.7,9.7,13.9,19.5,15.5c0,0.5-0.1,1-0.1,1.5c-4.9,1-9.1,0.2-12.5-2.2
			c-4.1-2.9-7.3-8.3-9.6-16.1c-0.6-2.1-2.9-1.9-5.8-3.8c-1.8-1.7-3.1-3.7-4-6c-0.9-2.3-1.2-4.7-1-7.1c0.2-2.4,0.9-4.8,2.1-6.9
			C213.8,262.8,215.5,261,217.5,259.6L217.5,259.6z M291,258.4c-0.4,0.1-0.7,0.2-1.1,0.4l-0.5,0.2l-0.5,0.2l-0.5,0.1l-0.5,0.1
			c-0.3,0.1-0.7,0.2-1,0.2l-0.5,0.1l-0.5,0.1c-0.3,0.1-0.7,0.1-1,0.2l-0.5,0.1l-0.5,0.1l-0.5,0c-0.3,0-0.7,0.1-1,0.1l-0.5,0l-0.5,0
			h-0.5l-0.5,0l-0.5,0l-0.5,0l-0.5,0l-0.5,0l-0.5-0.1l-0.5-0.1l-0.5-0.1l-0.5-0.1l-0.5-0.1l-0.5-0.1l-0.5-0.1l-0.5-0.1l-0.5-0.1
			l-0.5-0.1l-0.5-0.2l-0.5-0.2l-0.5-0.2l-0.5-0.2l-0.5-0.2l-0.5-0.2l-0.5-0.2l-0.5-0.2l-0.5-0.2l-0.5-0.2l-0.5-0.3l-0.5-0.3
			l-0.5-0.3l-0.5-0.3l-0.5-0.3l-0.5-0.3l-0.5-0.3l-0.5-0.3l-0.5-0.3l-0.5-0.3l-0.5-0.3l-0.5-0.4l-0.5-0.4l-0.5-0.4l-0.5-0.4
			l-0.5-0.4l-0.5-0.4c1.2-0.7,2.7-1.6,4.3-2.7l0.4,0.2l0.4,0.2l0.4,0.2l0.4,0.2l0.4,0.2l0.4,0.2l0.4,0.2l0.4,0.2l0.4,0.2l0.4,0.2
			l0.4,0.2l0.4,0.2l0.4,0.2l0.4,0.2l0.4,0.2l0.4,0.2l0.4,0.2l0.4,0.2l0.4,0.2l0.4,0.2l0.4,0.2l0.4,0.2l0.4,0.2l0.4,0.2l0.4,0.2
			l0.4,0.2l0.4,0.2l0.4,0.2l0.4,0.2l0.4,0.2l0.4,0.1l0.4,0.1l0.4,0.1l0.4,0.1l0.4,0.1l0.4,0.1l0.4,0.1l0.4,0.1l0.4,0.1l0.4,0.1
			l0.4,0.1l0.4,0.1l0.4,0.1l0.4,0.1l0.4,0.1l0.4,0.1l0.4,0.1l0.4,0.1l0.4,0.1l0.4,0.1l0.4,0.1l0.4,0.1l0.4,0.1l0.4,0.1l0.4,0.1
			l0.4,0.1l0.4,0.1l0.4,0.1l0.4,0.1l0.4,0.1l0.5,0.1l0.5,0.1l0.5,0.1l0.5,0l-0.6,0.2L291,258.4z M280.4,246.5
			c0.6,0.1,1.3,0.1,1.9,0.2l1,0.1l1,0.1l1,0.1c0.6,0,1.3,0.1,1.9,0.1l1,0l1,0l1,0h1h1l0.9,0l0.9,0l0.9,0l0.9-0.1l0.9-0.1l0.9-0.1
			l0.9-0.1l0.9-0.1l0.9-0.1l0.9-0.1l0.9-0.2l0.9-0.2l0.9-0.2l0.9-0.2l0.9-0.2l0.9-0.2l0.9-0.2l0.9-0.3l0.8-0.3l0.8-0.3l0.8-0.3
			l0.8-0.3c0.3-0.1,0.5-0.2,0.8-0.4l0.8-0.4c0.3-0.1,0.5-0.3,0.8-0.4l0.8-0.4l0.8-0.4l0.8-0.5l0.8-0.5c0.2-0.2,0.5-0.3,0.7-0.5
			l0.7-0.5c0.2-0.2,0.5-0.3,0.7-0.5c0.2-0.2,0.5-0.4,0.7-0.5c0.2-0.2,0.5-0.4,0.7-0.6l0.7-0.6c0.2-0.2,0.4-0.4,0.7-0.6
			c0.2-0.2,0.4-0.4,0.7-0.6c0.2-0.2,0.4-0.4,0.6-0.7c0.2-0.2,0.4-0.5,0.6-0.7c0.2-0.2,0.4-0.5,0.6-0.7c0.6,0.5,1.2,0.9,1.8,1.3
			c-6.2,6.5-13.1,10.9-21.1,13.1l-0.5,0.1l-0.5,0.1l-0.5,0.1l-0.5,0.1l-0.5,0.1l-0.5,0.1l-0.5,0.1l-0.5,0.1l-0.5,0.1l-0.6,0.1
			l-0.6,0.1l-0.6,0.1l-0.6,0.1l-0.6,0.1l-0.6,0l-0.6,0l-0.6,0l-0.6,0l-0.6,0l-0.6,0l-0.6,0l-0.6,0h-0.6h-0.7h-0.6l-0.6,0l-0.6,0
			l-0.6,0l-0.6,0l-0.6,0l-0.6,0l-0.6-0.1l-0.6-0.1l-0.6-0.1l-0.6-0.1l-0.6-0.1l-0.6-0.1l-0.6-0.1l-0.6-0.1l-0.6-0.1l-0.6-0.1
			l-0.6-0.1l-0.6-0.1l-0.6-0.1l-0.6-0.1l-0.6-0.1l-0.6-0.1l-0.6-0.2l-0.6-0.2l-0.6-0.2l-0.6-0.2l-0.5-0.2l-0.5-0.2l-0.5-0.2
			l-0.5-0.2l-0.5-0.2l-0.5-0.2l-0.5-0.2l-0.5-0.2l-0.5-0.2l-0.5-0.2l-0.5-0.3l-0.5-0.3l-0.5-0.3l0.9,0.2l1,0.2l1,0.2l1,0.2l1,0.2
			l1,0.2l1,0.2l1,0.2l1,0.1l1,0.1l1,0.1L280.4,246.5z M178,201c0-1,0.1-2,0.4-3c0.7-2.4,2.9-5.5,4.6-5c0.4,0.2,0.8,0.5,1.1,0.8l0,0
			l0,0l0,0.1l0,0l0.1,0.1l0,0.1l0,0l0,0.1l0,0l0,0l0,0.1l0,0l0,0.1l0,0.1l0,0l0,0.1l0,0l0,0l0,0.1l0,0l0,0.1l0,0.1v0l0,0.1l0,0
			l0,0.1l0,0.1l0,0l0,0.1l0,0.1v0l0,0.1l0,0l0,0.1l0,0.1v0l0,0.1l0,0.1v0v0.1v0v0.1v0.1v0v0.1v0v0.1v0v0.1v0.7v0.1v0v0.1v0l0,0.1v0
			l0,0.1v0v0.1v0.1v0l0,0.1v0l0,0.1v0l0,0.1v0l0,0.1l0,0.1v0l0,0.1v0l0,0.1v0l0,0.1v0l0,0.1l0,0.1l0,0.1l0,0.1v0l0,0.1l0,0.1l0,0
			l0,0.1l0,0.1l0,0l0,0.1v0l0,0.1l0,0.1l0,0l0,0.1l0,0l0,0l0,0.1l0,0l0,0.1c-0.7,2.1-2.7,5.3-4.7,4.7l-0.1,0l0,0l0,0l-0.1,0l0,0l0,0
			l0,0l0,0h0l0,0l0,0l0,0l0,0l0,0l0,0l0,0l0,0l0,0l0,0l0,0l0,0l0,0l0,0l0,0l0-0.1l0,0l0,0l0-0.1v0l0,0l0,0l0,0l0-0.1l0,0l0,0l0,0v0
			l0-0.1l0,0l0,0l0-0.1l0-0.1l0,0l0,0l0-0.1l0-0.1l0,0l0,0l0-0.1v0l0-0.1l0,0v0l0-0.1v0l0-0.1l0-0.1v0l0-0.1v0l0-0.1l0-0.1v0l0-0.1
			v0l0,0l0-0.1l0-0.1v0l0,0l0-0.1l0-0.1v0v0l0-0.1v0l0-0.1l0-0.1v0v-0.1v0v-0.1v-0.1v0v-0.1v0v-0.1v-0.1v0v-0.1v-0.2v-0.1v0L178,201
			z M381.6,423.5c-90.9,30.2-165.6,26.7-224.1-10.6c4.9-4.1,9.2-8.9,12.8-14.2c14.1,6.3,28.6,11.4,43.4,15.4
			c-7.4-7-11.8-16.6-12.2-26.8s3.2-20.1,10.1-27.6c-4.5,8.3-5.8,18.1-3.6,27.3c2.2,9.2,7.7,17.3,15.4,22.8
			c7.8,5.5,17.2,7.9,26.7,6.8c9.4-1.1,18.1-5.5,24.5-12.6c10.6,0.2,19.2-3.4,25.5-8.4c6.9-5.5,11.8-13.4,12-20.2
			c0.9-28.7,10.2-24.3,23.8-33.1c1.4,0.7,2.7,1.3,4.1,2c6.4,3.1,12.5,6.2,17.6,10.1c-12.1-5.8-19.5-7.8-22.1-5.9
			c-2.8,2.2-6.4,4.5-10.5,7.3c-4,2.7-4.8,10.4-6.3,21.2c-2.2,16-14.3,26.4-33.6,30.6c-5.3,1.2-10.1,1.7-14.2,2.1
			c-4.4,5.6-10.2,9.8-16.8,12.3c31.4,4.2,64.6,4.1,99.7-0.5c-2-0.7-3.9-1.6-5.7-2.7c-2.9-1.8-5.2-4-6.8-6.6
			c-1.9-4.2-0.7-9.4,3.7-15.5c-1,1.6-1.5,3.5-1.6,5.8c-0.1,0.7-0.2,1.4-0.2,2c-0.3,9.4,7.2,12.2,15.8,13.9c1.2,0.2,2.3,0.5,3.5,0.6
			l5,0.4l18.7,1.6C385.2,422,383.6,422.7,381.6,423.5z"/>
		<path class="st5" d="M173.2,196.1c1.6-5,6-9.7,11.2-8.4c6.7,0.8,13.2,0.3,19.6-1.7c-1.2-7-4.8-13.8-11-15.8
			c-4.8-1.5-9.8,0-14.5,3.9c-17.4,14.3-18.3,49.1-1.8,54.1c3.2,0.9,6.6,0.4,10-1.2l4.3-2.9c0.2-2.5-0.4-4.7-1.9-6.8
			c-2.4-3.2-6.9-6.4-10.9-7.1c-5.6-1.6-6.5-8.5-5-13.8L173.2,196.1z M184.3,200.4c0.8-2.5,0.9-6.6-1.4-7.4c-1.8-0.4-3.8,2.6-4.5,4.7
			l-0.1,0.3c-0.7,2.5-0.5,6.4,1.3,7.1C181.6,205.7,183.7,202.5,184.3,200.4L184.3,200.4z M195.9,218.9c7-9.4,8.8-16.4,8.7-27.4
			l-14.7,2c0.8,4.7,0.3,9.3-3.7,14.3C190.7,210.6,194.4,214.2,195.9,218.9z M224.8,277.8c1.9,1,3.4,3.1,4.9-2.3l-8.7-9.3
			C219.7,271,220.1,275.2,224.8,277.8L224.8,277.8z M350.8,316.1c-1.2,4.8-2.8,9-4.8,12.8c13.5,9.1,34.9,15.7,38-5
			c3.6-23.7,2.4-53.8-12.7-68.7c-10-9.8-26.4,3.2-25.4,18.8c2.2,6.8,3.5,13.9,4,21.1c2.9-1.2,5.9-2.6,8.9-4.2
			c5.5-2.9,11.2,2.7,11.5,7.3C372.2,308.5,359.5,313.9,350.8,316.1L350.8,316.1z M150.2,411.7c28.7-20.8,35.1-60.9,14.2-89.6
			l-0.3-0.6c-25.4,6.2-45.6,17.9-61,35.8c-1.5,1.7-0.9,6.8,0.5,8.7c13.6,18.6,29.1,33.9,46.2,45.9L150.2,411.7z M257.8,367.1
			c-7.4-7.5-19.6-7.6-27.1-0.1c-1.8,1.8-3.2,3.9-4.1,6.2c-1,2.3-1.4,4.8-1.4,7.3c0,14.9,16.2,23.8,28.7,16.5
			C245.9,388,251,375.2,257.8,367.1L257.8,367.1z M239.6,232.1l0.4-1.7c-3.7-0.4-7.4-0.8-11.2-1.1l-1,5.2
			C231.4,232.6,235.5,231.7,239.6,232.1L239.6,232.1z M248.9,307.4c10.9,5.1,22.9,7.8,35.3,8.8c2.1-6.4,2.9-12.8,1.8-19.2
			c-13,1.8-22.3-1.3-33.5-6.5C250.6,295.9,249.4,301.7,248.9,307.4L248.9,307.4z M231,304.8c3.4,2.5,7.6,3.2,12.5,2.2
			c0.2-6.4,1.8-12.8,4.1-19l-13.5-8.8c-2.4,5.6-6.5,6.8-12.1,3.3c-4-2.3-6.4-5.5-7-9.8c-0.6-3.7,0.3-8.1,2.5-13.1
			c-0.3-0.9-0.5-1.9-0.7-2.8c-8.4,4.9-11,16-5.3,24c4.6,6.6,9,5,9.9,8C223.7,296.5,226.9,301.9,231,304.8L231,304.8z M245.1,312.2
			l1.5,0.1l-0.7-0.3L245.1,312.2z M261.6,363.2c1.6-1.4,6-4.2,6.6-5.4c-20.3-21.6-57-7.3-57,22.6c0,29.7,36.2,44.1,56.7,23
			c-3.6-0.6-6.5-1.3-9.5-3c-4.7,3.3-10.5,4.9-16.2,4.4c-5.8-0.5-11.2-3-15.3-7.1c-15.4-15.4-4.4-41.9,17.3-41.9
			c3.2,0,6.5,0.6,9.4,1.9C256.6,359.1,259.4,360.9,261.6,363.2L261.6,363.2z M369.9,356.3l16.1,13.2c6.5-7.8,24.1-3.8,34.8-0.7
			c-16-9.6-41.6-22.7-56.5-16.3L369.9,356.3z M364.7,434.8c-11.3,3.5-22.4,6.4-33.3,8.8c6.8,26.1,39.9,21.7,64.4,15.4
			C379.9,457.8,364.5,452.3,364.7,434.8L364.7,434.8z M431.3,420.4l-29.6,1.2l2.1-0.1c-3.3,0-6.3,0-9-0.1c-0.4,0.4-0.8,0.8-1.3,1.1
			l-5.8,4.2c20.8,19.3,51.8,21.7,75.9,6.7c7.6-4.7,16.4-7.6,25.4-9.4c-25.7-21.1-62.1-45.5-90.4-37.7l2.3,7.1
			c0.4,1.8,0.7,3.6,0.8,5.4l0,0.6c9.2,3.1,19.4,8.1,27.4,13.5C432.5,415.3,436.9,418.9,431.3,420.4z M398.2,404.2
			c-11-3.6-22.7-5.8-34.5-6.8c-4.7-0.4-15.5-1-15.1,7.6c0.4,6.5,7.2,7.8,14.7,9.1c16.5,2.7,43.5,2.6,59.6,1.6
			C415.2,410.8,406.9,407,398.2,404.2z M312.1,375.5c-0.2,6.8-5.1,14.7-12,20.2c-6.3,5-14.9,8.6-25.5,8.4
			c-3.5,4.4-7.8,8.1-12.8,10.6c-25.4,13.1-56-5.4-56-34.3c0-33.1,39-50.5,63.7-29.1c0.6-7,2.1-16.7,16.1-28.2
			c-44.8-7.7-83.8-9.5-115.6-2.9c21.2,30.6,14.5,72.5-15.2,95c58.6,38.3,126.8,35.5,192.3,18.8c6.7-1.7,33.4-9.1,39.2-12.6l-15.9-1
			l-7.9-1c-10.6-1.8-20.8-4.1-19.1-16.6c0.8-20.7,39.9-8.8,52.8-5l-0.1-0.4c-2.7-18.4-24.3-31.9-38.5-42.8
			c-6.2-4.8-13.8-8.2-21.6-12.1c-8,5.2-16,5.8-20.3,13.7C313.5,360.3,312.4,366.3,312.1,375.5z M298.2,306.4
			c11.2,6.8,31,8.2,46.5,5.4c6-1.1,21.5-5,20.2-12.7c-0.4-2.4-2.2-4.3-4-3.1c-2.6,2.2-36,15.6-57.5,6.9l-2-0.9
			C298.5,300,295.7,304.5,298.2,306.4z M288.8,329.2c10.7,1.2,19.8,8.5,27.4,17.7c8.8-7.2,14.2-4.4,22.3-16.2
			c2.5-3.7,4.6-8.1,6.2-13.4c-13.2,2.2-29.2,1.5-41.3-2.6l-9.5,8.7C292.1,325.4,290.4,327.4,288.8,329.2z M333.5,248
			c1.1-0.7,2.1-1.4,3.1-2.2c0.3,0.1,0.5,0.2,0.8,0.2l16.7,2.8c-5.6,3.1-10,8.5-12.2,14.7C339.5,258.2,336.7,253,333.5,248L333.5,248
			z M251.5,237.3L251.5,237.3L251.5,237.3c-2-1.7-4.2-3-6.6-3.9l0.7-3.5c0,0,0.1,0,0.1-0.1C247.5,232.4,249.4,234.9,251.5,237.3
			L251.5,237.3z M244.7,203.1c1.2,0.5,2.4,1,3.4,1.9c0.1,0.1,0.3,0.3,0.4,0.4l0,0l0,0l0.1,0.2l0,0l0,0l0,0l0.1,0.1l0,0l0,0l0,0l0,0
			l0,0.1l0,0.1l0,0.1c0.9,1.4,1.3,3.1,1.5,4.9v0.1v0v0.1v0.1v0.1v0v0.2c0,2.4-0.4,4.7-1.3,6.9c-0.9,2.2-2.3,4.1-4,5.3l0,0l0,0l0,0
			l0,0l0,0c-1.3,0.8-2.7,1.3-4.3,1.1c-4.6-0.6-9.3-1-14-1.3c-9.1-0.6-19.4-0.6-28.2,0.7c8.7-10,13.4-27.6,10.6-40.8
			C221,192.1,231.5,197,244.7,203.1L244.7,203.1z M349.6,232.8c1.4-1.4,2.5-3,3.2-4.8c8-13.2,11-29,8.2-44.2
			c-2.8-15.2-11-28.9-23.2-38.5c-12.2-9.6-27.4-14.3-42.9-13.4c-15.5,0.9-30,7.5-41,18.4c-11.1,11.1-18.1,26.6-18.5,42.4l0,0.2
			c-10.9-5.4-37.4-26.8-40.9-27.9c-21.3-6.4-41.3,27.3-33.6,52.7c2.3,7.7,7.1,13.7,13.8,15.7l0.4,0.1c4.5,1.3,9.2,0.7,13.7-1.5
			c7-2.2,15.2-3.1,24-3.3c3.5-0.1,7,0,10.6,0.2l-2.8,11.8c-2.1,2.9-3.5,6.4-3.9,10c-18,7.5-18.1,33.2-0.1,40.8
			c2.7,8.3,6.4,14.2,11.3,17.7c1.1,0.8,2.2,1.4,3.4,2c-50.5-2.7-99.8,5-132.2,42.6c-3.4,3.9-2.4,11.9,0.2,15.5
			c55.4,75.8,137.7,93.5,226.8,75.4c3.3,13.3,12.3,21.2,27,23.7c15,2.5,36-0.7,63-9.8c3.3-1,2.3-5.6-0.9-5.4
			c-20.6,1.6-46.7,0.8-45-20.2c3.9-1.3,7.9-2.6,11.9-4c22.5,22.5,57.4,25.9,84.3,9.1c8.6-5.4,18.9-8,29.2-9.6
			c2.3-0.3,3.2-3.3,1.4-4.8c-28.8-24.3-69-52-101.1-42.2c-1.8-2.9-3.8-5.6-6-8.1c5.6-8.4,35.9,2.1,50,7.5c3,1.1,5.3-3.1,2.4-4.9
			c-20.5-14.1-37.6-23.3-51.4-27.7c-13.6-4.3-24.1-4.1-31.7,0.7c-6-3.8-12.5-7.4-19.5-10.9l3.6-4.6c12.6,8.4,32.6,15.5,42.3,1.6
			c1.9-2.8,3.3-6.2,3.9-10.4c3.9-25.6,2.3-57.1-14.3-73.4c-5.8-5.7-22.1-8.6-33-10.2C344.8,238.6,347.3,235.8,349.6,232.8
			L349.6,232.8z M326.8,210c1.9-1.8,4.2-3.1,6.8-3.6c2.6-0.5,5.2-0.3,7.7,0.7c-2.4-0.4-4.8-0.2-7,0.6c-2.3,0.7-4.3,2-6,3.7
			c-1.7,1.7-3,3.8-3.7,6.1c-0.7,2.3-0.9,4.7-0.5,7.1c-1-2.4-1.3-5.1-0.8-7.7C323.7,214.2,324.9,211.9,326.8,210L326.8,210z
			 M342,201.6c-1.1-0.4-2.3-0.6-3.5-0.8c-2.7-17-11.6-32.4-25.1-43.1l-0.2-0.1c-10-7.9-22-12.9-34.7-14.4c18,1.7,32.7,7.4,43.3,17
			C332.7,169.8,339.6,183.6,342,201.6L342,201.6z M353.7,212.9c-0.9-2.6-2.4-4.9-4.3-6.8l-0.2-0.2c-0.5-0.4-0.9-0.9-1.4-1.3
			c0-0.2,0-0.4,0-0.6c-2.2-20.9-9.8-36.9-22.2-48c-10.1-9.1-23.4-14.9-39.4-17.5c10-2.2,20.3-1.7,30,1.3c9.7,3.1,18.5,8.7,25.3,16.2
			c6.9,7.5,11.6,16.8,13.8,26.7C357.4,192.9,356.9,203.2,353.7,212.9L353.7,212.9z M256.6,243.9c-0.7-1.4-1.5-2.6-2.4-3.8
			L256.6,243.9z M265.4,248.9c-1.7,1.1-3.1,2-4.3,2.7c6.5,5.4,12.2,8.2,18,8.7c4.1,0.3,8.3-0.4,13-2.2c-8.7-0.9-17-3.6-24.6-7.9
			C266.8,249.7,266.1,249.3,265.4,248.9L265.4,248.9z M320.8,230c-5.1,6.2-12.5,10-22.1,11.2c-10.7,1.4-24.2-0.3-40.5-5
			c-2.9-2.9-5.6-6.1-7.8-9.6l0.1-0.1l0.1-0.1c3.7-3.9,5.6-9.6,5.5-15c-0.1-3.2-0.9-6.3-2.6-8.7l-0.1-0.1v0l0-0.1l0,0l0-0.1l0,0
			l0-0.1l0,0l0,0l0,0l0,0l0-0.1l0,0l0-0.1l0,0l-0.1-0.1l-0.1-0.1l-0.1-0.1l0,0l0-0.1l0,0l-0.1-0.1l0,0l0,0l0,0l0,0l0,0l0-0.1l0,0
			l-0.1-0.1l0,0l-0.1-0.1l-0.1-0.1l-0.1-0.1l0,0l0-0.1l0,0l0,0l0,0l0,0l0,0l0,0l0,0l0,0l-0.1,0l0,0l-0.1-0.1l-0.1-0.1l-0.1-0.1v0
			l-0.1-0.1l0,0l-0.1,0l0,0l0,0l0,0l0,0l0,0c-1.8-1.6-7.1-3.5-10.3-5l0,0v-0.4c0-15.4,5.9-29.9,16.9-40.9
			c13.6-13.6,39.1-2.5,52.1,7.7l0.1,0.1c12.2,9.7,20.4,23.6,23,38.9c-3.8,0.6-7.4,2.5-10.1,5.2c-3.1,3.1-5,7.2-5.4,11.6
			C317.1,222.1,318.3,226.4,320.8,230L320.8,230z M315.7,250.2c5.8-3,11.1-7.2,15.9-12.6c1.5,0.4,3,0.6,4.5,0.6c0.4,0,0.8,0,1.3,0
			c-6.1,5.5-13.4,9.7-21.2,12.2L315.7,250.2z M326.3,235.3c-6.2,6.5-13.1,10.9-21.1,13.1c-9.5,2.5-26.3,2-35-3
			c-0.5-0.3-0.9-0.5-1.4-0.8c11.7,2.5,21.9,3.2,30.5,2.1c10.8-1.4,19.2-5.6,25.2-12.6C325.1,234.5,325.7,234.9,326.3,235.3
			L326.3,235.3z M307.2,286.2c4.8-1.6,10.4-3.6,16.7-6.1c-4.4,4-11.6,9.1-17.4,12.1l0.4,6.2c12.2,4.5,25.2,3.3,37.8-1.1
			c-0.7-16.7-6.7-32.2-15.8-46.4c-2.9,1.5-5.8,2.9-8.9,3.9c3.4,2.3,5.9,6.5,7.2,12.4c-3.4-6.4-7.1-10.2-11.3-11.4
			c-3.6-0.7-7.4,0-10.5,1.9c-0.1,0.1-0.3,0.2-0.4,0.3c-19.8,13.7-41.9,6.3-50.9-5.2l-0.5-0.9c-3.4-6.6-2.9-12.2-13.2-14
			c-15-2.6-24.5,15.6-13.9,26.4l0.2,0.2c11.3,13.1,25.4,21.6,42.7,26.6C280.9,294.3,295.8,289.6,307.2,286.2L307.2,286.2z
			 M295.5,295.1c-1.4,0.3-2.7,0.6-4.1,0.9c0.5,7-0.5,14.8-2,22.2l1.7,0.3l6.7-6.2l-2.8-1.6c-6.7-5.1-2.2-15.8,6.1-14.7l-0.1-2.3
			C299.3,294.3,297.4,294.7,295.5,295.1L295.5,295.1z M332.5,229.3l16-7.6c0,0.1,0,0.2,0,0.4c0,1.2-0.2,2.4-0.7,3.5
			c-0.4,0.7-0.9,1.4-1.3,2c-0.3,0.4-0.7,0.8-1,1.2l0,0c-0.9,0.9-2,1.7-3.1,2.3c-1.7,0.6-3.5,0.8-5.2,0.5
			C335.5,231.3,333.8,230.5,332.5,229.3L332.5,229.3z M346.7,216.5l-17.2,8.2c-0.5-1.6-0.5-3.4,0-5c0.4-1.7,1.3-3.2,2.5-4.4
			c1.8-1.8,4.2-2.8,6.7-2.8c2.5,0,5,0.9,6.8,2.7l0.1,0.1C346.1,215.6,346.4,216,346.7,216.5L346.7,216.5z M275.3,353
			c-1.4,16.4-17.9,12.9-19.9,31.8c-1.3,12.4,21,19.3,41.3,6.6c5.3-3.7,9.8-11.2,9.9-16c0.3-10.9,1.7-18.8,5.8-24.5
			c-5.2-6.4-10.4-11-15.7-13.6c-5.1-2.6-10.3-3.4-15.5-2.3C275.6,342.3,275.7,348.4,275.3,353L275.3,353z"/>
		<path class="st12" d="M237.3,404c3.5,1,7.3,1.3,10.9,0.7c3.6-0.6,7.1-2,10.1-4.2c2.7,1.5,5.2,2.2,8.3,2.8l-0.1,0
			c-5.9,5.4-13.6,8.3-21.6,8.4c-8,0-15.7-2.8-21.7-8.1c-6-5.3-9.9-12.6-10.9-20.5c-1-7.9,1-16,5.5-22.5c4.4-5.7,10.7-9.8,17.5-11.7
			c0,0,0,0,0,0c-6.1,1.8-11.3,5.6-15,10.7c-3.7,5.1-5.6,11.4-5.3,17.7c0.2,6.3,2.5,12.4,6.6,17.2C225.6,399.3,231.1,402.6,237.3,404
			"/>
		<path class="st12" d="M365.8,448.2c-6.7-8.6-18.4,4.6-29.9,4.8c-1.5-1.6-4.2-6.9-4.4-9.4c10.9-2.4,22-5.3,33.3-8.8
			c-0.2,14.5,10.4,20.8,23.1,23.1C377.9,457.9,371.9,453.7,365.8,448.2z"/>
		<path class="st13" d="M357.2,397.2c-17.3,8,4.6,14.1,65.7,18.3c-7.1,0.4-16.3,0.7-25.8,0.6c-12.1-0.1-24.6-0.7-33.8-2.2
			c-7.5-1.2-14.3-2.5-14.7-9.1C348.4,399.4,352.8,397.6,357.2,397.2z"/>
		<path class="st12" d="M394.8,362.4c1.1,0.8,20.4,4.2,26.1,6.4c-6.6-1.9-15.9-4.2-23.5-3.8c-4.7,0.2-8.8,1.5-11.3,4.5L370,356.3
			l-5.5-3.9c3.3-1.4,7.2-1.9,11.4-1.6C383.2,353.6,389.5,357.4,394.8,362.4z"/>
		<path class="st12" d="M259.1,361c1.7-3.4,3-3.2,4.6-5.4c0.3-0.4,0.5-0.8,0.7-1.2c1.4,1.1,2.7,2.3,3.9,3.5c-0.6,1.1-5,4-6.6,5.4
			C260.8,362.4,260,361.7,259.1,361z"/>
		<path class="st13" d="M229.7,275.4c-1.5,5.4-3,3.4-4.9,2.3c-1.6-0.9-2.7-1.9-3.4-3.1l1.6-6.3L229.7,275.4z"/>
		<path class="st13" d="M239.6,232.1c-4.1-0.4-8.2,0.5-11.8,2.4l0.4-1.9l0.7-3.3c3.7,0.3,7.5,0.7,11.2,1.1l-0.2,1L239.6,232.1z"/>
		<path class="st12" d="M191.6,204.7c-0.9,5.5,2.6,7.4,7.4,3.4c3.1-2.7,4.4-8.8,5.6-16.5c0.1,11-1.6,18-8.7,27.4
			c-1.4-4.7-5.1-8.3-9.7-11.1c4-4.9,4.5-9.5,3.7-14.3C192.3,196.4,192.3,200,191.6,204.7z"/>
		<path class="st12" d="M173.6,206.2L173.6,206.2L173.6,206.2L173.6,206.2z"/>
		<path class="st12" d="M179.9,210.6c4.3,2,7.3,4.3,9.1,6.8c1.5,2.1,2.2,4.3,1.9,6.8l-4.3,2.9c-3.3,1.7-6.8,2.2-10,1.2
			c-7.1-2.2-10.9-9.8-11.7-18.9c4.3,16.4,19,21,18,13.1c-0.7-5-2.4-8.1-6.3-12.7c0.5,0.3,0.9,0.4,1.4,0.6L179.9,210.6z"/>
		<path class="st12" d="M165.3,396.4c-3.5,5-7.7,9.5-12.5,13.4c-18.5-12.5-35.3-28.6-50.4-48c-0.2-1.8,0.1-3.5,0.8-4.4
			C122.7,373.1,143.4,386.1,165.3,396.4z"/>
		<g class="st14">
			<path class="st15" d="M438.8,437.8c21.3-5.2,34.8-14.3,50.2-13.6c-9,1.8-17.8,4.6-25.4,9.4c-24.1,15-55.1,12.5-75.9-6.7l5.8-4.2
				l1.3-1.1l9,0.1l27.5-1.2c0.6-0.1,1.1-0.3,1.6-0.6c2.9-1.7-0.9-4.7-3.8-6.7c-8-5.4-18.2-10.4-27.4-13.5
				c12.3,1.2,38.6,12.9,38.2,23.7c-0.1,2.7-1.7,4.8-4.6,6.3c-10.4,5.2-15.3-1.6-21.3,0.3c-1.9,0.6-1.8,2,0,3.2
				C417.2,435.2,428.5,440.3,438.8,437.8"/>
		</g>
		<g class="st16">
			<path class="st17" d="M486.6,422.2c-30.6-22.1-59.9-34-88-35.7C426.1,378.9,461.1,401.6,486.6,422.2"/>
		</g>
		<path class="st18" d="M422.9,415.6c-22.8-10.6-44.1-16.8-63.9-18.4c1.6,0,3.1,0,4.7,0.2c11.8,1,23.5,3.2,34.5,6.8
			c0.9,0.3,1.7,0.6,2.6,0.9C408.5,407.7,416,411.3,422.9,415.6z"/>
		<path class="st19" d="M335.9,453c13.2,9.8,33.2,11.8,60,6C374.9,464.4,347.6,468.4,335.9,453z"/>
		<path class="st19" d="M420.9,368.8c-19.2-10-34.2-16-45.1-17.9C390.3,351.8,408.4,361.3,420.9,368.8z"/>
		<path class="st19" d="M202.7,181c-13.7-16.1-26.2-9.6-37.5,19.5c1.2-9.9,5.7-20.1,13.3-26.4C189,165.4,198.8,170.2,202.7,181z"/>
		<path class="st19" d="M166.9,325.6c-25,4.7-46.3,15.3-63.7,31.7c15.4-17.9,35.6-29.6,61-35.8l0.3,0.6
			C165.3,323.3,166.1,324.4,166.9,325.6z"/>
		<g class="st20">
			<path class="st21" d="M148.9,350.4c-1.1-0.3-2.2-1-2.9-1.9c-0.8-0.9-1.2-2-1.3-3.2c-0.1-1.2,0.1-2.4,0.7-3.4
				c0.6-1,1.5-1.9,2.5-2.4c0.6-0.2,1.3-0.4,1.9-0.6c4-1.2,8.1-2.1,12.2-2.7c1.5,0.1,2.9,0.8,3.9,1.9c1,1.1,1.6,2.6,1.6,4.1
				c0,1.5-0.6,3-1.6,4.1c-1,1.1-2.4,1.8-3.9,1.9C158.1,348.5,153.7,349.2,148.9,350.4L148.9,350.4z M140.2,345
				c0.6,0.5,1.1,1.2,1.4,1.9c0.3,0.8,0.4,1.6,0.3,2.4c-0.1,0.8-0.4,1.6-0.9,2.2c-0.5,0.7-1.1,1.2-1.8,1.5c-0.4,0.1-0.8,0.3-1.3,0.4
				c-0.2,0.1-0.4,0.1-0.7,0.2c-1.1,0.3-2.3,0.2-3.4-0.3c-1-0.5-1.9-1.4-2.3-2.5c-0.4-1.1-0.5-2.3-0.1-3.4c0.4-1.1,1.2-2,2.2-2.6
				c0.4-0.2,0.8-0.4,1.3-0.6l0.3-0.1c0.8-0.3,1.7-0.4,2.6-0.3C138.7,344.1,139.5,344.4,140.2,345L140.2,345z"/>
		</g>
		<path class="st19" d="M244.2,355.9c-17.7,0-28.2,17.4-23.4,32.2c-2.4-5.1-2.9-10.8-1.5-16.2c1.4-5.4,4.7-10.2,9.2-13.4
			c4.6-3.3,10.1-4.8,15.7-4.4c5.6,0.4,10.8,2.8,14.8,6.7l0,0.1C254.8,357.7,249.6,355.9,244.2,355.9z"/>
		<path class="st6" d="M178.4,198c0.5-1.8,1.9-4,3.3-4.8c0.9-0.4,1.7-0.2,2.3,0.5c0,0,0,0.1,0.1,0.1l0,0l0,0l0,0.1
			c0.8,1,1.1,2.9,0.5,5.5l0,0.1l0,0l0,0.1l0,0.1l0,0c0,0,0,0.1,0,0.1v0l0,0.1l0,0.1l0,0c0,0,0,0,0,0.1l0,0l0,0l0,0.1l0,0l0,0.1
			c-0.9,2.8-2.2,4.2-3.4,4.6c-0.9,0.3-1.7-0.1-2.3-0.8c0,0,0,0,0,0c0,0,0,0,0,0c0,0,0,0,0-0.1l0-0.1l0,0
			C177.8,202.8,177.6,200.8,178.4,198C178.4,198.1,178.4,198,178.4,198C178.4,198,178.4,198,178.4,198"/>
		<path class="st6" d="M148,193c-7.4-2.1-14.2-3.9-20.5-5.5c-6.2-1.5-12-2.7-17.4-3.6c-0.5-0.1-1-0.3-1.4-0.7
			c-0.4-0.3-0.7-0.8-0.8-1.3c-0.1-0.5-0.1-1,0-1.5s0.4-0.9,0.8-1.3c1.8-1.6,3.7-3.1,5.8-4.3l2.5-1.3c-11.6-7.9-23.6-15.4-36-22.5
			c8.7,2.9,16.7,6.2,23.9,9.6c7.2,3.5,13.7,7.2,19.4,11.2c0.4,0.3,0.7,0.7,0.9,1.1c0.2,0.5,0.3,1,0.2,1.5c-0.1,0.5-0.3,1-0.6,1.4
			c-0.3,0.4-0.7,0.7-1.2,0.9c-2.2,0.8-4.4,1.8-6.4,3l-0.1,0.1c3.6,0.7,7.5,1.6,11.5,2.5c6.4,1.5,13.3,3.4,20.7,5.5
			c0.3,0.1,0.7,0.3,0.9,0.5c0.3,0.2,0.5,0.5,0.7,0.8c0.3,0.6,0.4,1.4,0.2,2.1c-0.2,0.7-0.7,1.3-1.3,1.6
			C149.5,193.1,148.7,193.1,148,193L148,193z M125.3,242.6c-0.2-3.1,0-6.1,0.7-9.1c0.3-1.6,0.7-3.1,1.2-4.7
			c-8.5,1-17.5,2.9-27.1,5.7c6-3.1,11.5-5.7,16.6-7.7c5.2-2.1,9.9-3.7,14.2-4.8c0.5-0.1,1-0.1,1.5,0c0.5,0.2,0.9,0.4,1.2,0.8
			c0.3,0.4,0.5,0.9,0.6,1.4s0,1-0.2,1.5c-1.2,2.8-2.1,5.8-2.7,8.8c-0.2,1.1-0.4,2.3-0.5,3.3c3.1-1.6,6.1-3.2,9.2-4.6
			c4.2-1.9,8.5-3.6,12.9-5.1c0.7-0.2,1.4-0.2,2.1,0.2c0.6,0.3,1.1,0.9,1.4,1.6c0.2,0.7,0.2,1.4-0.2,2.1c-0.3,0.6-0.9,1.1-1.6,1.4
			c-4.2,1.4-8.3,3-12.4,4.9c-4.2,1.9-8.5,4.1-12.9,6.7c-0.3,0.2-0.7,0.3-1,0.3c-0.4,0-0.7,0-1.1-0.1c-0.3-0.1-0.7-0.3-1-0.5
			c-0.3-0.2-0.5-0.5-0.7-0.8C125.5,243.5,125.4,243,125.3,242.6L125.3,242.6z M163.6,156.4c-7.2-4.8-13.7-9.6-19.4-14.2
			c-5.7-4.7-10.5-9.2-14.5-13.6c-0.4-0.4-0.6-1-0.7-1.5s0.1-1.1,0.3-1.6c0.3-0.5,0.7-0.9,1.2-1.1c0.5-0.2,1.1-0.3,1.7-0.2
			c3.1,0.4,6.2,0.6,9.3,0.5c1,0,2.1-0.1,3-0.2c-5.9-9.9-13-19.1-21.2-27.3c5.2,4,10.2,8.4,14.9,12.9c4.7,4.5,9.2,9.3,13.5,14.4
			c0.3,0.3,0.4,0.7,0.5,1c0.2,0.7,0.1,1.4-0.3,2.1c-0.4,0.6-1,1.1-1.6,1.3c-2.6,0.7-5.5,1.1-8.7,1.3c-1,0-2,0-3,0
			c2.7,2.6,5.7,5.3,9,8c5.5,4.5,11.8,9.1,18.9,13.9c0.6,0.4,1,1,1.1,1.7c0.1,0.7,0,1.4-0.4,2c-0.4,0.6-1,1-1.7,1.2
			C164.9,156.9,164.2,156.8,163.6,156.4L163.6,156.4z"/>
		<path class="st22" d="M320.8,230c-5.1,6.2-12.5,10-22.1,11.2c-10.7,1.4-24.2-0.3-40.5-5c28.9,7.3,44.3,2.6,46.3-14
			c0.4-3.6,1.7-7.4,3.9-11.4c1.2-1.7,2.3-3.4,3.3-5.2c6.5-11.9,7.2-25.5,1.9-40.8c10.4,9.5,17.3,22.2,19.6,36.1
			C321.5,206.8,317.8,215.9,320.8,230"/>
		<path class="st23" d="M241,367.6c-2.3,0-4.2,2-4.2,4.5c0,2.5,1.9,4.5,4.2,4.5c2.3,0,4.2-2,4.2-4.5
			C245.2,369.6,243.3,367.6,241,367.6z M312.1,185.2c3.1-1.4,7.3,1,9.2,5.5c2,4.4,1,9.1-2.1,10.5c-3.1,1.4-7.3-1-9.2-5.5
			C308,191.3,308.9,186.6,312.1,185.2z M311.9,208.3c-1.4-0.6-3.2,0.5-4.1,2.4c-0.9,1.9-0.5,4,0.9,4.6c1.4,0.6,3.2-0.5,4.1-2.4
			C313.7,211,313.3,208.9,311.9,208.3L311.9,208.3z M291.4,156.1c-21.4,1-37,11.6-46.7,31.8C252.9,158.5,268.5,147.9,291.4,156.1z
			 M231.5,368.4c-11.4,17.1,2.5,36.5,23.1,29.9c-12.5,7.4-28.7-1.6-28.7-16.5C225.9,376.4,228.1,371.7,231.5,368.4z"/>
	</g>
</g>
<g id="planeta">
	<path class="st24" d="M435.7,138.8c27,0,48.8-21.9,48.8-48.8s-21.9-48.8-48.8-48.8S386.8,63,386.8,90S408.7,138.8,435.7,138.8z"/>
	<path class="st25" d="M435.7,141.5c-28.4,0-51.5-23.1-51.5-51.5c0-28.4,23.1-51.5,51.5-51.5s51.5,23.1,51.5,51.5
		C487.2,118.4,464.1,141.5,435.7,141.5z M435.7,43.9c-25.4,0-46.1,20.7-46.1,46.1c0,25.4,20.7,46.1,46.1,46.1
		c25.4,0,46.1-20.7,46.1-46.1C481.8,64.6,461.1,43.9,435.7,43.9z"/>
	<g class="st26">
		<path class="st27" d="M443,60.7c-9.3,7-18.6,0.3-19,0c-0.5-0.3-1.1-0.5-1.7-0.4c-0.6,0.1-1.1,0.4-1.5,0.9
			c-0.4,0.5-0.5,1.1-0.4,1.6c0.1,0.6,0.4,1.1,0.8,1.5c2.5,1.9,7.2,4,12.5,4c3.7,0,7.8-1,11.7-3.9l17.6-9.6c0.4-0.2,0.8-0.6,1-1
			c-1.2-0.9-2.4-1.8-3.7-2.6l-17.2,9.4C443.2,60.6,443.1,60.7,443,60.7z"/>
	</g>
	<g class="st26">
		<path class="st27" d="M390.7,94.2c0.4-0.8,0.9-1.5,1.4-2.2c3.2-4.4,7.6-7.8,12.8-9.6c5.1-1.8,10.7-2,15.9-0.5
			c8.3,2.3,23.6,5.1,33.6-2.7c0.5-0.4,0.8-0.9,0.8-1.5c0.1-0.6-0.1-1.2-0.5-1.7c-0.4-0.5-0.9-0.8-1.5-0.8c-0.6-0.1-1.2,0.1-1.7,0.5
			c-8.4,6.6-22.2,4.1-29.6,2c-5.8-1.6-12-1.5-17.8,0.3c-5.8,1.8-10.9,5.3-14.7,10.1c0,0.7-0.1,1.4-0.1,2.1c0,1.7,0.1,3.4,0.3,5.1
			C390.2,94.9,390.5,94.6,390.7,94.2z"/>
	</g>
	<g class="st26">
		<path class="st27" d="M460.1,113.9c-2.5-0.4-4.8-0.4-6.9-0.1c-9.3,1.3-13,7.4-13.2,7.6c-0.3,0.5-0.4,1.1-0.2,1.7
			c0.1,0.6,0.5,1.1,1,1.4c0.5,0.3,1.1,0.4,1.7,0.3c0.6-0.1,1.1-0.5,1.4-1c0,0,2.9-4.5,9.9-5.5c1.7-0.2,3.5-0.2,5.6,0.1
			c3.4,0.5,6.7,1.6,9.8,3.2c1.1-1.1,2-2.3,3-3.5C468.5,116,464.4,114.6,460.1,113.9z"/>
	</g>
	<g class="st28">
		<path class="st29" d="M407.5,130.5c7,3.7,14.8,5.6,22.8,5.6c27,0,48.8-21.9,48.8-48.8c0-11.4-4-22.5-11.3-31.2
			c-0.2,7.2-3.7,65.3-69,67c4.2,4.5,9.1,8.2,14.6,10.9C411.4,132.9,409.4,131.8,407.5,130.5z"/>
	</g>
	<g class="st26">
		<path class="st27" d="M435.7,43.9c-8.1,0-16,2.1-23,6.2c-6.3,3.6-11.7,8.7-15.6,14.8c-4.9,7.5-7.5,16.2-7.5,25.2
			c0,15.6,7.8,29.3,19.6,37.7c-8.2-7.5-13.5-17.7-14.8-28.8c-1.3-11.1,1.5-22.2,7.8-31.4c2.4-0.5,5.3-2.1,7.9-4.7
			c2.5-2.5,4.1-5.3,4.6-7.7c7.7-5.1,16.8-7.8,26.1-7.7c9.3,0.1,18.3,3.1,25.9,8.4C458.2,48.2,447.2,43.9,435.7,43.9z"/>
	</g>
	<path class="st25" d="M433,65.7c-5.4,0-10.1-2.2-12.5-4c-0.5-0.4-0.8-0.9-0.9-1.5c-0.1-0.6,0.1-1.2,0.4-1.7
		c0.4-0.5,0.9-0.8,1.5-0.9c0.6-0.1,1.2,0.1,1.7,0.4c0.4,0.3,9.7,7,19,0c0.1-0.1,0.2-0.1,0.3-0.2l17.8-9.7c0.5-0.3,1.1-0.3,1.7-0.2
		c0.6,0.2,1.1,0.6,1.3,1.1c0.3,0.5,0.3,1.1,0.2,1.7c-0.2,0.6-0.6,1.1-1.1,1.3l-17.6,9.6C440.8,64.6,436.7,65.7,433,65.7z"/>
	<path class="st25" d="M387.8,92.7c-0.4,0-0.8-0.1-1.1-0.3c-0.3-0.2-0.6-0.5-0.8-0.8c-0.2-0.3-0.3-0.7-0.3-1.1
		c0-0.4,0.1-0.8,0.2-1.1c0.5-1,1.1-1.9,1.7-2.8c3.7-5.2,8.9-9.1,14.9-11.2c6-2.1,12.5-2.3,18.7-0.6c7.4,2.1,21.2,4.7,29.6-2
		c0.5-0.4,1.1-0.5,1.6-0.4c0.6,0.1,1.1,0.4,1.5,0.8c0.4,0.5,0.5,1,0.5,1.6s-0.4,1.1-0.8,1.5c-10,7.8-25.4,5.1-33.6,2.7
		c-5.2-1.5-10.8-1.3-15.9,0.5c-5.1,1.8-9.6,5.2-12.8,9.6c-0.5,0.7-1,1.5-1.4,2.2c-0.2,0.4-0.5,0.7-0.8,0.9
		C388.7,92.6,388.3,92.7,387.8,92.7z"/>
	<path class="st25" d="M474,122.1c-0.5,0-1-0.2-1.4-0.5c-5.1-4.1-11-5.5-14-6c-2.1-0.3-3.9-0.4-5.6-0.1c-7.1,1-9.9,5.4-9.9,5.5
		c-0.1,0.3-0.3,0.5-0.6,0.7c-0.2,0.2-0.5,0.3-0.8,0.4c-0.3,0.1-0.6,0.1-0.9,0.1c-0.3,0-0.6-0.1-0.8-0.3c-0.3-0.2-0.5-0.4-0.7-0.6
		c-0.2-0.2-0.3-0.5-0.4-0.8c-0.1-0.3-0.1-0.6,0-0.9c0.1-0.3,0.2-0.6,0.3-0.8c0.2-0.3,3.9-6.3,13.2-7.6c2.1-0.3,4.4-0.3,6.9,0.1
		c3.5,0.5,10.2,2.2,16.1,6.9c0.4,0.3,0.6,0.7,0.8,1.1c0.1,0.4,0.1,0.9,0,1.4c-0.2,0.4-0.4,0.8-0.8,1.1
		C474.9,122,474.5,122.1,474,122.1L474,122.1z"/>
	<path class="st25" d="M375.3,113c-1.4,0-2.7-0.4-3.9-1.2c-1.2-0.8-2.1-1.9-2.6-3.1c-0.5-1.3-0.7-2.7-0.5-4.1
		c0.2-1.4,0.9-2.6,1.8-3.6c4.7-5,13.8-9.5,14.2-9.7c0.7-0.4,1.6-0.4,2.4-0.1c0.8,0.3,1.4,0.8,1.8,1.6c0.4,0.7,0.4,1.6,0.2,2.4
		c-0.3,0.8-0.8,1.4-1.6,1.8c-0.1,0-8.5,4.2-12.4,8.4c-0.1,0.1-0.2,0.3-0.2,0.5s0,0.3,0.1,0.5c0.1,0.2,0.2,0.3,0.4,0.4
		c0.2,0.1,0.3,0.1,0.5,0.1c14.5-2.2,88.2-14.2,117.6-36.7c0.2-0.1,0.4-0.3,0.4-0.6c0.1-0.2,0.1-0.5,0-0.7c-0.1-0.2-0.2-0.4-0.4-0.6
		c-0.2-0.1-0.4-0.2-0.7-0.2c-3.5-0.1-7.7,0.3-12.4,1.3c-0.8,0.2-1.7,0-2.4-0.4c-0.7-0.5-1.2-1.2-1.4-2c-0.2-0.8,0-1.7,0.4-2.4
		c0.5-0.7,1.2-1.2,2-1.4c5.2-1.1,9.9-1.6,14-1.4c1.5,0,3,0.6,4.3,1.5c1.2,0.9,2.1,2.2,2.6,3.7c0.5,1.5,0.5,3,0,4.5
		c-0.5,1.5-1.4,2.8-2.6,3.7c-29.9,22.8-99.8,34.8-120.5,37.9C376,112.9,375.6,113,375.3,113z"/>
	<path class="st30" d="M424.5,112.7c5.8-2.4,8.6-9.1,6.2-14.9c-2.4-5.8-9.1-8.6-14.9-6.2c-5.8,2.4-8.6,9.1-6.2,14.9
		C412,112.4,418.7,115.1,424.5,112.7z"/>
	<path class="st25" d="M420.1,115.8c-2.7,0-5.3-0.8-7.6-2.3c-2.2-1.5-4-3.6-5-6.1c-1-2.5-1.3-5.2-0.8-7.9c0.5-2.6,1.8-5.1,3.7-7
		c1.9-1.9,4.3-3.2,7-3.7c2.6-0.5,5.4-0.3,7.9,0.8c2.5,1,4.6,2.8,6.1,5c1.5,2.2,2.3,4.9,2.3,7.6c0,3.6-1.4,7.1-4,9.6
		C427.2,114.4,423.7,115.8,420.1,115.8z M420.1,93.1c-1.8,0-3.6,0.5-5.1,1.5s-2.7,2.4-3.4,4.1c-0.7,1.7-0.9,3.5-0.5,5.3
		c0.4,1.8,1.2,3.4,2.5,4.7c1.3,1.3,2.9,2.1,4.7,2.5c1.8,0.4,3.6,0.2,5.3-0.5c1.7-0.7,3.1-1.9,4.1-3.4c1-1.5,1.5-3.3,1.5-5.1
		c0-2.4-1-4.7-2.7-6.4S422.5,93.1,420.1,93.1z"/>
	<g class="st26">
		<path class="st27" d="M413.7,104c0-1.5,0.4-3,1.1-4.3c0.7-1.3,1.8-2.5,3-3.3c1.3-0.8,2.7-1.3,4.2-1.5c1.5-0.1,3,0.1,4.4,0.7
			c-1-0.9-2.1-1.6-3.4-2.1c-1.3-0.4-2.6-0.6-3.9-0.4c-1.3,0.1-2.6,0.6-3.7,1.3c-1.1,0.7-2.1,1.6-2.8,2.7c-0.7,1.1-1.2,2.4-1.4,3.7
			c-0.2,1.3-0.1,2.7,0.3,3.9c0.4,1.3,1,2.5,1.9,3.5c0.9,1,2,1.8,3.2,2.3c-0.9-0.8-1.6-1.9-2.1-3C413.9,106.5,413.7,105.2,413.7,104z
			"/>
	</g>
	<g class="st28">
		<path class="st29" d="M426.2,93.4c0,0,0.9,14.4-14.4,16.2c0,0,11.7,7.2,19.8-2.7C431.6,106.9,433.4,96.1,426.2,93.4z"/>
	</g>
</g>
<g id="balao">
	<path class="st1" d="M138.7,155c6.1-6.2,9.9-14.2,10.9-22.8c2.6-21.7-13.1-41.4-35-43.9c-21.9-2.6-41.8,12.9-44.4,34.6
		c-2.6,21.7,13.1,41.4,35,43.9c5.9,0.7,11.9,0.1,17.5-1.8l17.1,8L138.7,155z"/>
	<g class="st26">
		<path class="st27" d="M113.9,95.4c20.5,2.4,35.6,20,35.4,40.2c0.3-1.4,0.6-2.8,0.7-4.2c2.6-22-13.1-41.9-35.1-44.5
			S72.9,100,70.3,121.9c-0.2,1.4-0.3,2.9-0.3,4.3C74.6,106.5,93.3,92.9,113.9,95.4z"/>
	</g>
	<path class="st31" d="M140.2,176.1c0.4,0,0.8-0.1,1.2-0.2c0.4-0.2,0.7-0.4,1-0.7c0.3-0.3,0.5-0.6,0.6-1c0.1-0.4,0.2-0.8,0.2-1.2
		l-1.1-16.8c6.9-7.6,10.8-17.5,11-27.8c0.2-10.3-3.4-20.3-10-28.2c-6.6-7.9-15.9-13.1-26.1-14.7c-10.2-1.6-20.6,0.6-29.3,6.2
		c-8.7,5.5-15.1,14-18,23.9c-2.9,9.9-2.1,20.5,2.2,29.9c4.3,9.4,11.9,16.9,21.3,21.1s20,4.9,29.8,1.8l16,7.6
		C139.3,176,139.8,176.1,140.2,176.1z M110.4,90.6c1.5,0,2.9,0.1,4.4,0.3c6.8,0.8,13.2,3.5,18.6,7.8c5.4,4.3,9.4,10,11.7,16.4
		c2.3,6.5,2.8,13.4,1.3,20.2s-4.7,12.9-9.5,17.8c-0.3,0.3-0.5,0.6-0.6,1c-0.1,0.4-0.2,0.8-0.2,1.2l0.9,13.2l-12.6-5.9
		c-0.7-0.3-1.5-0.4-2.2-0.1c-5.2,1.8-10.7,2.3-16.1,1.7C86,161.7,71.6,143.3,74,123.1C76.2,104.4,92.1,90.6,110.4,90.6z"/>
	<g class="st28">
		<path class="st32" d="M139.2,155.1c-12.7,6.7-28.4,7.3-42.3,0.4c-15.4-7.7-24.6-22.8-25.5-38.8c-0.6,2-1,4-1.2,6.1
			c-2.6,22,13.1,41.9,35.1,44.5c5.9,0.7,11.9,0.1,17.5-1.8l17.2,8.1l-1.2-18.3C139,155.3,139.1,155.2,139.2,155.1z"/>
	</g>
	<path class="st33" d="M114.1,114.8l-6.6,29.5"/>
	<path class="st33" d="M124.5,122.2l7.4,7.4l-7.4,7.4"/>
	<path class="st33" d="M97.1,136.9l-7.4-7.4l7.4-7.4"/>
</g>
<path id="bola_pequena" class="st34" d="M554.8,98.9c1-0.3,1.7-1.4,1.4-2.4c-0.3-1-1.4-1.7-2.4-1.4s-1.7,1.4-1.4,2.4
	C552.7,98.6,553.8,99.2,554.8,98.9z"/>
<path id="bola_media" class="st34" d="M580.6,376.8c2.7-0.7,4.2-3.5,3.5-6.1s-3.5-4.2-6.1-3.5c-2.7,0.7-4.2,3.5-3.5,6.1
	C575.2,376,578,377.5,580.6,376.8z"/>
<path id="estrela" class="st35" d="M76,263.3L76,263.3c1.9-0.4,3.4-0.9,4.3-1.3c0.3-0.2,0.5-0.3,0.7-0.4c-0.2-0.1-0.4-0.2-0.7-0.4
	c-1-0.4-2.5-0.7-4.4-0.9l0,0c-1.3-0.1-2.5-0.7-3.5-1.6c-1-0.9-1.6-2-1.9-3.3l0,0c-0.4-1.9-0.9-3.4-1.3-4.3c-0.2-0.3-0.3-0.5-0.4-0.7
	c-0.1,0.2-0.2,0.4-0.4,0.7c-0.4,1-0.7,2.5-1,4.4c-0.1,1.3-0.7,2.5-1.6,3.5c-0.9,1-2,1.6-3.3,1.9l0,0c-1.9,0.4-3.4,0.9-4.3,1.3
	c-0.3,0.2-0.5,0.3-0.7,0.4c0.2,0.1,0.4,0.2,0.7,0.4c1,0.4,2.5,0.7,4.4,1L76,263.3z M76,263.3c-1.3,0.3-2.4,0.9-3.3,1.9
	c-0.9,1-1.4,2.2-1.6,3.5c-0.2,1.9-0.6,3.4-1,4.4c-0.1,0.3-0.3,0.6-0.4,0.7c-0.1-0.2-0.3-0.4-0.4-0.7c-0.5-1-1-2.4-1.3-4.3l0,0
	 M76,263.3l-8,5.5 M68.1,268.7c-0.3-1.3-0.9-2.4-1.9-3.3 M68.1,268.7l-1.9-3.3 M66,265.4c-0.6-0.9-1.4-1.4-2.2-1.6L66,265.4z
	 M57.3,262.3C57.3,262.3,57.3,262.3,57.3,262.3C57.3,262.3,57.3,262.3,57.3,262.3z M57.3,262.8C57.3,262.8,57.3,262.8,57.3,262.8
	C57.3,262.8,57.3,262.8,57.3,262.8z M69,250C69,250,69,250,69,250C69,250,69,250,69,250z M68.6,250C68.6,250,68.6,250,68.6,250
	C68.6,250,68.6,250,68.6,250z M81.4,261.7C81.4,261.7,81.4,261.7,81.4,261.7C81.4,261.7,81.4,261.7,81.4,261.7z M81.3,261.2
	C81.3,261.2,81.3,261.2,81.3,261.2C81.3,261.2,81.3,261.2,81.3,261.2z M69.6,274C69.6,274,69.6,274,69.6,274
	C69.6,274,69.6,274,69.6,274z M70.1,274C70.1,274,70.1,274,70.1,274C70.1,274,70.1,274,70.1,274z"/>
</svg>
