<?xml version="1.0" encoding="utf-8"?>
<!-- Generator: Adobe Illustrator 25.1.0, SVG Export Plug-In . SVG Version: 6.00 Build 0)  -->

<svg version="1.1" id="Camada_1" data-name="Camada 1" xmlns="http://www.w3.org/2000/svg" viewBox="0 0 443.53 418.88" style="enable-background:new 0 0 443.53 418.88;" xml:space="preserve">
  <defs>
    <style>
      .cls-1 {
        fill: #d7eefd;
      }

      .cls-1, .cls-20 {
        fill-rule: evenodd;
      }

      .cls-2 {
        fill: #ffd527;
      }

      .cls-3 {
        fill: #e0e0e0;
      }

      .cls-4 {
        fill: #8dd7ff;
      }

      .cls-21, .cls-22, .cls-25, .cls-26, .cls-5 {
        fill: none;
      }

      .cls-5 {
        stroke: #ffd527;
        stroke-width: 2.34px;
      }

      .cls-17, .cls-6, .cls-7 {
        opacity: 0.35;
      }

      .cls-7, .cls-9 {
        fill: #371a45;
      }

      .cls-11, .cls-14, .cls-16, .cls-17, .cls-21, .cls-7 {
        isolation: isolate;
      }

      .cls-14, .cls-16, .cls-20, .cls-8 {
        fill: #fff;
      }

      .cls-10 {
        fill: #ef962b;
      }

      .cls-11 {
        opacity: 0.55;
      }

      .cls-12 {
        fill: #f9a528;
      }

      .cls-13, .cls-14 {
        opacity: 0.3;
      }

      .cls-15, .cls-16 {
        opacity: 0.7;
      }

      .cls-17 {
        fill: #111a28;
      }

      .cls-18 {
        fill: #fff2bd;
      }

      .cls-19 {
        fill: #fcf5ff;
      }

      .cls-21, .cls-23, .cls-24, .cls-25 {
        stroke: #fff;
      }

      .cls-21 {
        stroke-width: 0.94px;
        opacity: 0.2;
      }

      .cls-22 {
        stroke: #371a45;
        stroke-width: 1.88px;
      }

      .cls-23 {
        fill: #1698f9;
      }

      .cls-23, .cls-26 {
        stroke-width: 2px;
      }

      .cls-24 {
        fill: #ff0068;
        stroke-width: 4px;
      }

      .cls-25, .cls-26 {
        stroke-linecap: round;
        stroke-linejoin: round;
      }

      .cls-25 {
        stroke-width: 1.5px;
      }

      .cls-26 {
        stroke: #f7f7f7;
      }
    </style>
  </defs>
  <g id="img">
    <path class="cls-1" d="M382.11,314.21a167.28,167.28,0,0,0,8.05-51.45C390.16,170.13,315,95,222.37,95S54.59,170.13,54.59,262.76A167.4,167.4,0,0,0,65.71,323a45,45,0,0,1,6.34,5.54c6.07-11,17.6-19.25,31.5-22.05-.1-1-.17-2.06-.17-3.11,0-19.72,18.22-35.7,40.69-35.7a44.66,44.66,0,0,1,21.35,5.31c6.66-11.74,20.47-19.8,36.43-19.8,15.16,0,28.37,7.28,35.37,18.07a8.62,8.62,0,0,0,4.82,3.48l.38.11a8.72,8.72,0,0,0,6.49-.41,44.87,44.87,0,0,1,20.16-4.69c19.94,0,36.52,12.59,40,29.21a42.9,42.9,0,0,1,24.38,10.44,44.72,44.72,0,0,1,21.7-5.5C367.05,304.4,375.79,308.58,382.11,314.21Z" transform="translate(18.63 -83.56)"/>
    <path class="cls-2" d="M15.49,256.25c-.06.9,1.72,1.79,4.43,2.4a3.16,3.16,0,0,1,1.72,1,3.25,3.25,0,0,1,.79,1.84c.26,2.76.92,4.64,1.81,4.7s1.79-1.72,2.39-4.43a3.23,3.23,0,0,1,2.86-2.51c2.77-.26,4.64-.92,4.7-1.81s-1.72-1.8-4.43-2.4a3.26,3.26,0,0,1-2.52-2.86c-.25-2.76-.91-4.64-1.81-4.7s-1.78,1.72-2.39,4.44a3.28,3.28,0,0,1-1,1.72,3.22,3.22,0,0,1-1.84.79C17.42,254.69,15.55,255.35,15.49,256.25Z" transform="translate(18.63 -83.56)"/>
    <path class="cls-3" d="M327.79,146.22a3.31,3.31,0,1,1,3.2,3.42A3.31,3.31,0,0,1,327.79,146.22Z" transform="translate(18.63 -83.56)"/>
    <path class="cls-4" d="M357.8,89.87a3.32,3.32,0,1,1,4.44-1.54A3.33,3.33,0,0,1,357.8,89.87Z" transform="translate(18.63 -83.56)"/>
    <path class="cls-4" d="M74.6,108A3.32,3.32,0,1,1,79,106.48,3.33,3.33,0,0,1,74.6,108Z" transform="translate(18.63 -83.56)"/>
    <path class="cls-4" d="M13,224.91a1.32,1.32,0,1,1,1.4-1.23A1.32,1.32,0,0,1,13,224.91Z" transform="translate(18.63 -83.56)"/>
    <path class="cls-4" d="M389.79,168a1.7,1.7,0,1,1,2.16-1A1.7,1.7,0,0,1,389.79,168Z" transform="translate(18.63 -83.56)"/>
    <path class="cls-4" d="M-17.61,133.84a1.82,1.82,0,0,1-.84-2.43,1.82,1.82,0,0,1,2.43-.84,1.82,1.82,0,0,1,.84,2.43A1.81,1.81,0,0,1-17.61,133.84Z" transform="translate(18.63 -83.56)"/>
    <path class="cls-5" d="M408.57,357.87h0a4.84,4.84,0,0,1,2.27,1.92,4.76,4.76,0,0,1,.71,2.89,14.31,14.31,0,0,0,.1,3.55,3.8,3.8,0,0,0,.17.63,2.86,2.86,0,0,0,.44-.49,14,14,0,0,0,1.66-3.13h0a4.78,4.78,0,0,1,4.81-3,14.39,14.39,0,0,0,3.56-.1,3.93,3.93,0,0,0,.62-.17,3.14,3.14,0,0,0-.48-.44,13.9,13.9,0,0,0-3.14-1.67h0a4.81,4.81,0,0,1-3-4.81,13.83,13.83,0,0,0-.1-3.55,3.2,3.2,0,0,0-.17-.63,4,4,0,0,0-.44.49,14.36,14.36,0,0,0-1.66,3.14h0A4.81,4.81,0,0,1,412,354.8a4.92,4.92,0,0,1-2.9.71h0a13.94,13.94,0,0,0-3.54.08,3.64,3.64,0,0,0-.63.18,3.35,3.35,0,0,0,.49.44A14.36,14.36,0,0,0,408.57,357.87Zm3.38,9.22Zm-.34-.08Zm11.54-7.15Zm-.08.34Zm-7.17-11.54h0Zm.34.08Zm-11.53,7.15Zm.08-.33Z" transform="translate(18.63 -83.56)"/>
    <g class="cls-6">
      <path class="cls-7" d="M371,493.48c0,4.95-62.31,9-139.17,9s-139.16-4-139.16-9c0-1.65,6.87-3.19,18.86-4.51H352.15C364.14,490.3,371,491.83,371,493.48Z" transform="translate(18.63 -83.56)"/>
    </g>
    <path class="cls-8" d="M292.21,395.4l-85.4,9.9a16.37,16.37,0,0,1-6.42-.52,16.47,16.47,0,0,1-11.87-14l-7.33-63.21-1.35-11.67-.9-7.67a16.5,16.5,0,0,1,8.37-16.32,16.17,16.17,0,0,1,6.13-2l18.67-2.17,60.16-7,6.57-.77a16.48,16.48,0,0,1,18.29,14.49l1,8.72,3,25.64,5.59,48.2a16.39,16.39,0,0,1-.52,6.42,16.39,16.39,0,0,1-7.84,9.89A16.36,16.36,0,0,1,292.21,395.4Z" transform="translate(18.63 -83.56)"/>
    <path class="cls-9" d="M204.89,407.21A18.32,18.32,0,0,1,186.73,391l-9.57-82.56a18.31,18.31,0,0,1,16.07-20.28l85.4-9.91a18.32,18.32,0,0,1,20.29,16.07l9.57,82.56a18.34,18.34,0,0,1-3.83,13.47,18.27,18.27,0,0,1-12.24,6.82L207,407.09A18.7,18.7,0,0,1,204.89,407.21Zm75.88-125.47a16.37,16.37,0,0,0-1.72.1l-85.41,9.91A14.73,14.73,0,0,0,180.73,308l9.57,82.57a14.73,14.73,0,0,0,16.3,12.91l85.41-9.9a14.73,14.73,0,0,0,12.91-16.3l-9.58-82.56a14.71,14.71,0,0,0-14.58-13Z" transform="translate(18.63 -83.56)"/>
    <path class="cls-8" d="M313.66,329l-12.54-.14-119.93-1.3-7.66-.08a50.84,50.84,0,0,1,6.3-11.59A84.27,84.27,0,0,1,194,300.33,106,106,0,0,1,212.1,287.8q4.43-2.46,9.5-4.72c19.11-8.53,35.81-9.3,50.66-2.26a55.91,55.91,0,0,1,8.25,4.85,80.83,80.83,0,0,1,17.63,17.6A157.63,157.63,0,0,1,313.66,329Z" transform="translate(18.63 -83.56)"/>
    <path class="cls-9" d="M313.65,330.84h0l-140.13-1.52a1.77,1.77,0,0,1-1.44-.75,1.85,1.85,0,0,1-.32-.78,1.8,1.8,0,0,1,.07-.83c.37-1.13,9.56-27.91,49.05-45.52,20.22-9,37.68-9.57,53.35-1.66,15.39,7.77,28.81,23.62,41,48.47a1.79,1.79,0,0,1,.18.88,1.84,1.84,0,0,1-.92,1.49,1.91,1.91,0,0,1-.88.22Zm-137.43-5.09,134.51,1.45c-11.52-22.61-24-37.09-38.13-44.21-14.65-7.4-31.09-6.83-50.27,1.73C191.05,298.68,179.39,318.94,176.22,325.75Z" transform="translate(18.63 -83.56)"/>
    <path class="cls-8" d="M273.08,315.18s-15.45,0-19.13,6.28c-3.33,5.68,1,7.82,1,7.82l15,.59Z" transform="translate(18.63 -83.56)"/>
    <path class="cls-8" d="M273.08,315.18l-.77,3.62-2.37,11.07-15-.59a4.41,4.41,0,0,1-1.92-2.17c-.51-1.25-.57-3.09.94-5.65C257.63,315.18,273.08,315.18,273.08,315.18Z" transform="translate(18.63 -83.56)"/>
    <g class="cls-6">
      <path class="cls-7" d="M272.31,318.8l-2.37,11.07-15-.59a4.41,4.41,0,0,1-1.92-2.17,9.52,9.52,0,0,1,.94-2.05C257.13,319.62,269.14,318.89,272.31,318.8Z" transform="translate(18.63 -83.56)"/>
    </g>
    <path class="cls-9" d="M269.94,331.67h-.07l-15-.6a1.87,1.87,0,0,1-.73-.18,6.22,6.22,0,0,1-3-3.66c-.6-2-.18-4.25,1.25-6.69,4.08-7,19-7.16,20.68-7.16a1.84,1.84,0,0,1,.77.17,1.82,1.82,0,0,1,.63.5,1.69,1.69,0,0,1,.35.71,1.76,1.76,0,0,1,0,.79l-3.14,14.69a1.78,1.78,0,0,1-.63,1A1.8,1.8,0,0,1,269.94,331.67Zm-14.45-4.17,13,.51,2.34-11c-4.9.3-13.15,1.57-15.34,5.31a5.15,5.15,0,0,0-.91,3.84A2.59,2.59,0,0,0,255.49,327.5Z" transform="translate(18.63 -83.56)"/>
    <path class="cls-8" d="M191.55,315.18s15.46,0,19.14,6.28c3.33,5.68-1,7.82-1,7.82l-15,.59Z" transform="translate(18.63 -83.56)"/>
    <path class="cls-8" d="M211.63,327.1a4.48,4.48,0,0,1-1.92,2.18l-15,.59-2.36-11.09-.77-3.6s15.45,0,19.13,6.28C212.18,324,212.14,325.85,211.63,327.1Z" transform="translate(18.63 -83.56)"/>
    <g class="cls-6">
      <path class="cls-7" d="M211.63,327.1a4.48,4.48,0,0,1-1.92,2.18l-15,.59-2.36-11.09c3.16.1,15.17.82,18.36,6.26A9.82,9.82,0,0,1,211.63,327.1Z" transform="translate(18.63 -83.56)"/>
    </g>
    <path class="cls-9" d="M194.69,331.67a1.85,1.85,0,0,1-1.13-.4,1.82,1.82,0,0,1-.63-1l-3.13-14.69a1.63,1.63,0,0,1,0-.79,1.69,1.69,0,0,1,.35-.71,1.73,1.73,0,0,1,1.39-.67c1.69,0,16.61.2,20.69,7.16,1.43,2.43,1.85,4.68,1.25,6.69a6.2,6.2,0,0,1-3,3.66,1.83,1.83,0,0,1-.73.18l-15,.6Zm-.9-14.62,2.35,11,13-.52a2.51,2.51,0,0,0,.9-1.33,5.17,5.17,0,0,0-.91-3.8C206.94,318.62,198.7,317.35,193.79,317.05Z" transform="translate(18.63 -83.56)"/>
    <path class="cls-10" d="M333.06,377l2.78,18.14a2.19,2.19,0,0,1-.11,1.08,2.14,2.14,0,0,1-.62.89,2.2,2.2,0,0,1-1,.49,2.24,2.24,0,0,1-1.09,0l-8.13-2.45H138.8l-8.1,2.45a2.2,2.2,0,0,1-1.08,0,2.23,2.23,0,0,1-1-.49,2.14,2.14,0,0,1-.62-.89,2.31,2.31,0,0,1-.11-1.08L130.71,377" transform="translate(18.63 -83.56)"/>
    <g class="cls-6">
      <path class="cls-7" d="M333.06,377l2.78,18.14a2.19,2.19,0,0,1-.11,1.08,2.14,2.14,0,0,1-.62.89,2.2,2.2,0,0,1-1,.49,2.24,2.24,0,0,1-1.09,0l-8.13-2.45H138.8l-8.1,2.45a2.2,2.2,0,0,1-1.08,0,2.23,2.23,0,0,1-1-.49,2.14,2.14,0,0,1-.62-.89,2.31,2.31,0,0,1-.11-1.08L130.71,377" transform="translate(18.63 -83.56)"/>
    </g>
    <path class="cls-9" d="M333.7,399.44a4.05,4.05,0,0,1-1.15-.17l-7.88-2.39H139.06l-7.84,2.38a4,4,0,0,1-5.07-4.4l2.78-18.14a1.78,1.78,0,0,1,.71-1.18,1.84,1.84,0,0,1,1.34-.33,1.8,1.8,0,0,1,1.5,2.05L129.7,395.4a.41.41,0,0,0,0,.19.33.33,0,0,0,.11.15.42.42,0,0,0,.16.09.41.41,0,0,0,.19,0l8.09-2.46a1.86,1.86,0,0,1,.52-.07H324.94a1.86,1.86,0,0,1,.52.07l8.13,2.45a.28.28,0,0,0,.18,0,.38.38,0,0,0,.17-.08.42.42,0,0,0,.11-.15.41.41,0,0,0,0-.19l-2.77-18.14a1.75,1.75,0,0,1,.34-1.32,1.8,1.8,0,0,1,3.21.78l2.78,18.14a4.06,4.06,0,0,1-.1,1.7,3.87,3.87,0,0,1-.81,1.49,4,4,0,0,1-1.35,1,3.93,3.93,0,0,1-1.65.37Z" transform="translate(18.63 -83.56)"/>
    <path class="cls-9" d="M328,345.81l-3.36,53.31-5.21,82.74a7.53,7.53,0,0,1-7.52,7.06H151.79a7.53,7.53,0,0,1-7.52-7.06l-5.22-82.74-3.36-53.31Z" transform="translate(18.63 -83.56)"/>
    <g class="cls-6">
      <path class="cls-11" d="M328,345.81l-3.36,53.31-5.23,83a7.29,7.29,0,0,1-7.27,6.83H152.09a7.85,7.85,0,0,1-7.84-7.37H258.32a53,53,0,0,0,52.92-49.69l1.2-19a12.92,12.92,0,0,0-12.9-13.74H139.05l-3.36-53.31Z" transform="translate(18.63 -83.56)"/>
    </g>
    <path class="cls-12" d="M241.43,359.38H243q-.48,2.63-.83,5.27A49.05,49.05,0,0,1,241.43,359.38Z" transform="translate(18.63 -83.56)"/>
    <path class="cls-9" d="M313.3,490.72H150.43a7.92,7.92,0,0,1-7.89-7.39l-10-154.14a1.75,1.75,0,0,1,.1-.72,1.69,1.69,0,0,1,.38-.63,1.81,1.81,0,0,1,.6-.42,1.78,1.78,0,0,1,.71-.15H329.45a1.74,1.74,0,0,1,.71.15,1.81,1.81,0,0,1,.6.42,1.69,1.69,0,0,1,.38.63,1.75,1.75,0,0,1,.1.72L321.19,483.33a7.92,7.92,0,0,1-7.89,7.39ZM136.2,330.87l9.93,152.23a4.33,4.33,0,0,0,4.3,4H313.3a4.33,4.33,0,0,0,4.3-4l9.93-152.23Z" transform="translate(18.63 -83.56)"/>
    <path class="cls-10" d="M337.78,377H125.91a3,3,0,0,1-1.27-.29,2.94,2.94,0,0,1-1.59-2,2.85,2.85,0,0,1,0-1.3l10.33-45.89a4.93,4.93,0,0,1,4.81-3.85H325.5a4.93,4.93,0,0,1,4.81,3.85l10.33,45.89a3,3,0,0,1,0,1.3,2.82,2.82,0,0,1-.56,1.17,3.08,3.08,0,0,1-1,.81A3,3,0,0,1,337.78,377Z" transform="translate(18.63 -83.56)"/>
    <g class="cls-13">
      <path class="cls-14" d="M329.17,325.32a4.88,4.88,0,0,0-3.67-1.63H138.19a4.92,4.92,0,0,0-3.08,1.08,4.85,4.85,0,0,0-1.73,2.77l-.34,1.51H321.58a5.57,5.57,0,0,1,5.44,4.36l4.63,20.78a14.33,14.33,0,0,1-14,17.45H123.45l-.4,1.79a2.87,2.87,0,0,0,0,1.48,2.8,2.8,0,0,0,.77,1.26h216a3,3,0,0,0,.61-.84Z" transform="translate(18.63 -83.56)"/>
    </g>
    <path class="cls-9" d="M337.78,378.79H125.91a4.83,4.83,0,0,1-2-.46,4.76,4.76,0,0,1-1.64-1.31,4.7,4.7,0,0,1-.92-1.89,4.85,4.85,0,0,1,0-2.11l10.33-45.88a6.71,6.71,0,0,1,6.57-5.26H325.5a6.71,6.71,0,0,1,6.57,5.26L342.4,373a4.85,4.85,0,0,1,0,2.11,4.7,4.7,0,0,1-.92,1.89,4.76,4.76,0,0,1-1.64,1.31A4.83,4.83,0,0,1,337.78,378.79ZM138.19,325.48a3.13,3.13,0,0,0-2,.68,3.17,3.17,0,0,0-1.1,1.76L124.8,373.81a1.4,1.4,0,0,0,0,.5,1.3,1.3,0,0,0,.22.46,1.11,1.11,0,0,0,.4.31,1.17,1.17,0,0,0,.49.11H337.78a1.17,1.17,0,0,0,.49-.11,1.2,1.2,0,0,0,.4-.31,1.13,1.13,0,0,0,.21-.46,1.2,1.2,0,0,0,0-.5l-10.33-45.89a3.17,3.17,0,0,0-1.1-1.76,3.13,3.13,0,0,0-2-.68Z" transform="translate(18.63 -83.56)"/>
    <g class="cls-6">
      <path class="cls-7" d="M174.1,349.83c-24.34-1.13-24.39-21.53-24.08-26.15h54.54C205.65,343.68,196.09,350.85,174.1,349.83Z" transform="translate(18.63 -83.56)"/>
    </g>
    <g class="cls-6">
      <path class="cls-7" d="M290.16,349.83c24.34-1.13,24.38-21.53,24.07-26.15H259.7C258.61,343.68,268.16,350.85,290.16,349.83Z" transform="translate(18.63 -83.56)"/>
    </g>
    <path class="cls-8" d="M151.11,323.68s-3.07,21.59,21.2,22.66c19.73.86,28.13-5.33,26.86-22.66-.81-11.18-23.24-10.35-23.24-10.35S152.63,313.76,151.11,323.68Z" transform="translate(18.63 -83.56)"/>
    <path class="cls-9" d="M175.75,348.21c-1.13,0-2.3,0-3.52-.08-8.14-.35-14.28-3-18.25-7.74-6-7.18-4.71-16.57-4.65-17v0c1.7-11.1,24-11.83,26.57-11.87.95,0,24.13-.75,25.06,12,.62,8.4-1,14.44-4.89,18.46C192,346.22,185.49,348.21,175.75,348.21Zm-22.86-24.27c0,.3-1,8.32,3.88,14.18,3.3,3.95,8.55,6.11,15.62,6.42,10.62.46,17.32-1.14,21.1-5,3.16-3.25,4.43-8.38,3.89-15.7-.67-9.17-21.17-8.69-21.38-8.68C170.32,315.24,154,317.09,152.89,323.94Z" transform="translate(18.63 -83.56)"/>
    <g class="cls-6">
      <path class="cls-7" d="M172.31,346.34c19.72.86,28.13-5.33,26.87-22.66a7.92,7.92,0,0,0-.41-2c-2.13,10.44-10.66,14.27-26.46,13.58-13.67-.6-18.67-7.72-20.43-13.82a6.59,6.59,0,0,0-.78,2.23S148,345.27,172.31,346.34Z" transform="translate(18.63 -83.56)"/>
    </g>
    <path class="cls-8" d="M313.53,323.68s3.06,21.59-21.2,22.66c-19.74.86-28.14-5.33-26.87-22.66.82-11.18,23.24-10.35,23.24-10.35S312,313.76,313.53,323.68Z" transform="translate(18.63 -83.56)"/>
    <path class="cls-9" d="M288.88,348.21c-9.73,0-16.24-2-20.32-6.2-3.91-4-5.51-10.06-4.89-18.46.93-12.76,24.11-12.05,25.1-12,2.51,0,24.84.77,26.54,11.87v0c.05.39,1.3,9.78-4.66,17-4,4.78-10.11,7.39-18.25,7.74C291.19,348.19,290,348.21,288.88,348.21ZM288,315.13c-3.56,0-20.15.45-20.75,8.68-.54,7.32.73,12.45,3.88,15.7,3.79,3.9,10.5,5.5,21.11,5,7.07-.31,12.32-2.47,15.61-6.42,4.89-5.86,3.93-13.88,3.89-14.18-1.08-6.85-17.43-8.7-23.08-8.81Z" transform="translate(18.63 -83.56)"/>
    <g class="cls-6">
      <path class="cls-7" d="M292.33,346.34c-19.73.86-28.13-5.33-26.87-22.66a7.92,7.92,0,0,1,.41-2c2.13,10.44,10.66,14.27,26.46,13.58,13.67-.6,18.66-7.72,20.42-13.82a6.38,6.38,0,0,1,.78,2.23S316.59,345.27,292.33,346.34Z" transform="translate(18.63 -83.56)"/>
    </g>
    <g class="cls-13">
      <path class="cls-14" d="M193.72,362.91s-6.13-2-1.39-5.79,46-5.22,51.56-2c7.4,4.29-2.11,6.48-13.2,7.43S203.79,365,193.72,362.91Z" transform="translate(18.63 -83.56)"/>
    </g>
    <g class="cls-13">
      <path class="cls-14" d="M269.77,362.93s-16.49,0-14.66-5c2.48-6.89,12.65-5.34,17.25-3.65C278.3,356.43,277.93,363.49,269.77,362.93Z" transform="translate(18.63 -83.56)"/>
    </g>
    <path class="cls-8" d="M293.48,228.08a1.4,1.4,0,0,1-.53.11,1.37,1.37,0,0,1-.52-.1,1.46,1.46,0,0,1-.44-.29,1.43,1.43,0,0,1-.3-.44l-15.37-36.18a1.4,1.4,0,0,1-.11-.53,1.37,1.37,0,0,1,.1-.52,1.46,1.46,0,0,1,.29-.44,1.43,1.43,0,0,1,.44-.3A14.35,14.35,0,0,1,295.82,197l5.24,12.34a14.33,14.33,0,0,1-7.58,18.77Z" transform="translate(18.63 -83.56)"/>
    <path class="cls-9" d="M292.94,228.51a1.64,1.64,0,0,1-.93-.28,1.69,1.69,0,0,1-.62-.75L276,191.3a1.7,1.7,0,0,1,0-1.29,1.65,1.65,0,0,1,.91-.92,14.63,14.63,0,0,1,19.19,7.75l5.25,12.34a14.66,14.66,0,0,1-7.76,19.2A1.65,1.65,0,0,1,292.94,228.51Zm-10.32-39.94a14,14,0,0,0-5.46,1.11,1.06,1.06,0,0,0-.55,1.37L292,227.23a1,1,0,0,0,.23.34,1,1,0,0,0,1.14.21,14,14,0,0,0,7.41-18.34l-5.24-12.34a14,14,0,0,0-12.9-8.53Z" transform="translate(18.63 -83.56)"/>
    <g class="cls-6">
      <path class="cls-7" d="M298.61,203.52l2.45,5.79a14.3,14.3,0,0,1-7.58,18.77,1.32,1.32,0,0,1-1.05,0,1.36,1.36,0,0,1-.74-.73l-4.09-9.62a1.47,1.47,0,0,0,.69.35,1.44,1.44,0,0,0,.77-.09l.86-.37a14.33,14.33,0,0,0,8.69-14.11Z" transform="translate(18.63 -83.56)"/>
    </g>
    <path class="cls-9" d="M292.94,230a3.07,3.07,0,0,1-1.74-.53,3.13,3.13,0,0,1-1.17-1.4l-15.37-36.18a3.17,3.17,0,0,1,1.68-4.15,16.12,16.12,0,0,1,21.13,8.53l5.24,12.34a16.12,16.12,0,0,1-8.53,21.13A3.1,3.1,0,0,1,292.94,230Zm-14.79-39.11,15,35.36A12.51,12.51,0,0,0,299.4,210l-5.24-12.33a12.52,12.52,0,0,0-16-6.79Z" transform="translate(18.63 -83.56)"/>
    <path class="cls-8" d="M157.61,240.11a1.37,1.37,0,0,1,1,0,1.39,1.39,0,0,1,.74.73L174.77,277a1.31,1.31,0,0,1,.11.52,1.34,1.34,0,0,1-.1.52,1.51,1.51,0,0,1-.29.45,1.63,1.63,0,0,1-.44.3,14.38,14.38,0,0,1-11,.09,14.12,14.12,0,0,1-4.67-3.06,14.48,14.48,0,0,1-3.15-4.62L150,258.88a14.1,14.1,0,0,1-1.14-5.47,14.28,14.28,0,0,1,1-5.48,14.48,14.48,0,0,1,3.06-4.68A14.29,14.29,0,0,1,157.61,240.11Z" transform="translate(18.63 -83.56)"/>
    <path class="cls-9" d="M168.45,280.27A14.64,14.64,0,0,1,155,271.35L149.73,259a14.65,14.65,0,0,1,7.75-19.2,1.72,1.72,0,0,1,1.3,0,1.68,1.68,0,0,1,.92.91l15.37,36.18a1.56,1.56,0,0,1,.13.64,1.42,1.42,0,0,1-.12.65,1.46,1.46,0,0,1-.36.55,1.75,1.75,0,0,1-.55.38A14.59,14.59,0,0,1,168.45,280.27Zm-10.71-39.86a14,14,0,0,0-7.41,18.35l5.24,12.34a14,14,0,0,0,18.35,7.41,1.09,1.09,0,0,0,.33-.23,1,1,0,0,0,.23-.34,1.1,1.1,0,0,0,0-.8L159.1,241a1,1,0,0,0-.57-.56A1,1,0,0,0,157.74,240.41Z" transform="translate(18.63 -83.56)"/>
    <g class="cls-6">
      <path class="cls-7" d="M170.51,267l4.26,10a1.39,1.39,0,0,1,0,1,1.36,1.36,0,0,1-.74.75,14.31,14.31,0,0,1-18.76-7.59L153.06,266a14.32,14.32,0,0,0,15.29,2.64l1.32-.56a1.33,1.33,0,0,0,.57-.45A1.44,1.44,0,0,0,170.51,267Z" transform="translate(18.63 -83.56)"/>
    </g>
    <path class="cls-9" d="M168.45,281.75a16.16,16.16,0,0,1-14.84-9.82l-5.24-12.34a16.29,16.29,0,0,1-1.28-6.16,16,16,0,0,1,1.18-6.18,16.07,16.07,0,0,1,8.64-8.8,3.19,3.19,0,0,1,4.15,1.68l15.36,36.19a3.16,3.16,0,0,1-1.67,4.14A16.07,16.07,0,0,1,168.45,281.75Zm-10.53-39.81a12.52,12.52,0,0,0-6.24,16.24l5.25,12.34a12.51,12.51,0,0,0,16,6.79Z" transform="translate(18.63 -83.56)"/>
    <g class="cls-6">
      <path class="cls-7" d="M284.44,280.37a65.4,65.4,0,0,1-3.93,5.3,67.09,67.09,0,0,1-95.7,8,16.39,16.39,0,0,1,8.63-3.68l18.66-2.16q4.43-2.46,9.5-4.72c19.11-8.53,35.81-9.3,50.66-2.26l6.58-.76A16.24,16.24,0,0,1,284.44,280.37Z" transform="translate(18.63 -83.56)"/>
    </g>
    <path class="cls-8" d="M272.92,281.46a67,67,0,1,0-94.74,0A67,67,0,0,0,272.92,281.46Z" transform="translate(18.63 -83.56)"/>
    <path class="cls-9" d="M225.49,301.44a67.41,67.41,0,1,1,21.91-3.68A67,67,0,0,1,225.49,301.44Zm0-134a66.67,66.67,0,1,0,63.12,45,66.32,66.32,0,0,0-63.12-45Z" transform="translate(18.63 -83.56)"/>
    <g class="cls-6">
      <path class="cls-7" d="M285.3,203.78a67.9,67.9,0,0,1,3.62,8.57,67,67,0,1,1-126.73,43.49c-.35-1-.66-2-1-3a67,67,0,0,0,124.07-49Z" transform="translate(18.63 -83.56)"/>
    </g>
    <path class="cls-9" d="M225.61,302.89a68.82,68.82,0,1,1,22.27-3.74A68.9,68.9,0,0,1,225.61,302.89Zm-.12-134a65.19,65.19,0,1,0,61.73,44,64.76,64.76,0,0,0-61.73-44Z" transform="translate(18.63 -83.56)"/>
    <path class="cls-9" d="M289.27,214a60.15,60.15,0,0,1,1.13,37.17c-2.58,9-19.2,29-45.17,38.6-24.08,8.92-50.7,3.95-58.4-1.3A60,60,0,0,1,164,259.16c-11.77-32.63,11.4-56.26,46-68.72S277.51,181.4,289.27,214Z" transform="translate(18.63 -83.56)"/>
    <path class="cls-9" d="M216.5,296.55c-14,0-25.8-3.22-30.68-6.55a61.83,61.83,0,0,1-23.51-30.23c-5.77-16-3.8-30.71,5.87-43.62,8.44-11.26,22.69-20.74,41.21-27.41s35.56-8.46,49.23-5.17c15.69,3.78,26.57,13.83,32.34,29.86a61.84,61.84,0,0,1,1.17,38.27c-2.55,8.84-18.73,29.59-46.28,39.79A85,85,0,0,1,216.5,296.55Zm27.72-111c-10.13,0-21.51,2.21-33.61,6.56-18.32,6.6-59.38,26.29-44.92,66.43A58.31,58.31,0,0,0,187.84,287c7.33,5,33.28,9.79,56.76,1.09,26-9.64,41.77-29.44,44.06-37.41a58.22,58.22,0,0,0-1.09-36.06c-5.34-14.82-15.36-24.09-29.8-27.57a57.86,57.86,0,0,0-13.55-1.52Z" transform="translate(18.63 -83.56)"/>
    <g class="cls-15">
      <path class="cls-16" d="M269.28,228.63c4.68-.79,7.59-6.66,6.51-13.12s-5.76-11-10.44-10.27-7.59,6.66-6.51,13.12S264.6,229.41,269.28,228.63Z" transform="translate(18.63 -83.56)"/>
    </g>
    <g class="cls-15">
      <path class="cls-16" d="M265.53,248c2.58-.07,4.6-2.56,4.52-5.57s-2.24-5.38-4.82-5.3-4.6,2.56-4.52,5.57S263,248.1,265.53,248Z" transform="translate(18.63 -83.56)"/>
    </g>
    <g class="cls-6">
      <path class="cls-17" d="M266.12,188c10.29,4.55,18.42,13,23.15,26.06a60.15,60.15,0,0,1,1.13,37.17c-2.58,9-19.2,29-45.17,38.6a82.44,82.44,0,0,1-27.43,4.9c31.67-12.51,51.88-37,55.07-48.12a76.24,76.24,0,0,0-1.43-47.17A67.92,67.92,0,0,0,266.12,188Z" transform="translate(18.63 -83.56)"/>
    </g>
    <path class="cls-9" d="M158.69,231.43a1.75,1.75,0,0,1-.72-.15,1.83,1.83,0,0,1-.91-.89,1.85,1.85,0,0,1-.09-1.27c5.22-20.25,23.33-37.31,49.71-46.8,26.21-9.44,50.95-8.15,67.87,3.54a1.8,1.8,0,0,1,.63,2.3,1.8,1.8,0,0,1-.93.87,1.74,1.74,0,0,1-1.27,0,1.65,1.65,0,0,1-.44-.22c-16-11-39.52-12.19-64.64-3.14S165.34,211,160.44,230.07a.64.64,0,0,1,0,.07,1.55,1.55,0,0,1-.08.23,1.67,1.67,0,0,1-.67.77A1.79,1.79,0,0,1,158.69,231.43Z" transform="translate(18.63 -83.56)"/>
    <g class="cls-15">
      <path class="cls-16" d="M185.06,273.52s-21.71-28.56-9-47.64,37.71-28,37.7-26.21c0,0-25.23,16.65-28.17,42.39C183.35,261.91,185.06,273.52,185.06,273.52Z" transform="translate(18.63 -83.56)"/>
    </g>
    <path class="cls-18" d="M190.49,452.91l-2.28.35a1.07,1.07,0,0,0-.89.88l-.35,2.28-.35-2.28a1.08,1.08,0,0,0-.88-.88l-2.28-.35,2.28-.35a1.05,1.05,0,0,0,.58-.3,1,1,0,0,0,.3-.59l.35-2.28.35,2.28a1.08,1.08,0,0,0,.3.59,1.11,1.11,0,0,0,.59.3Z" transform="translate(18.63 -83.56)"/>
    <path class="cls-18" d="M176.45,470.78l-2.14.33a1,1,0,0,0-.83.83l-.33,2.14-.33-2.14a1,1,0,0,0-.83-.83l-2.13-.33,2.13-.33a1,1,0,0,0,.83-.83l.33-2.14.33,2.14a1,1,0,0,0,.83.83Z" transform="translate(18.63 -83.56)"/>
    <path class="cls-18" d="M168.06,444.59l-1.6.24a.75.75,0,0,0-.62.62L165.6,447l-.25-1.59a.68.68,0,0,0-.21-.41.77.77,0,0,0-.41-.21l-1.59-.24,1.59-.25a.71.71,0,0,0,.41-.21.65.65,0,0,0,.21-.41l.25-1.59.24,1.59a.77.77,0,0,0,.21.41.74.74,0,0,0,.41.21Z" transform="translate(18.63 -83.56)"/>
    <path class="cls-18" d="M297.18,457.58l2.28.35a1.07,1.07,0,0,1,.58.29,1,1,0,0,1,.3.59l.35,2.28.35-2.28a1.11,1.11,0,0,1,.3-.59,1.07,1.07,0,0,1,.59-.29l2.27-.35-2.27-.35a1.08,1.08,0,0,1-.59-.3,1.11,1.11,0,0,1-.3-.59l-.35-2.28-.35,2.28a1,1,0,0,1-.3.59,1.08,1.08,0,0,1-.58.3Z" transform="translate(18.63 -83.56)"/>
    <path class="cls-18" d="M272.39,471.65l2.13.33a.94.94,0,0,1,.55.28,1,1,0,0,1,.28.55l.33,2.14.33-2.14a1,1,0,0,1,.28-.55,1,1,0,0,1,.55-.28l2.14-.33-2.14-.33a1,1,0,0,1-.55-.28,1,1,0,0,1-.28-.55l-.33-2.14-.33,2.14a1,1,0,0,1-.28.55.94.94,0,0,1-.55.28Z" transform="translate(18.63 -83.56)"/>
    <path class="cls-18" d="M283.69,439.91l1.6.25a.75.75,0,0,1,.62.62l.24,1.59.25-1.59a.71.71,0,0,1,.21-.41.77.77,0,0,1,.41-.21l1.59-.25-1.59-.24a.75.75,0,0,1-.62-.62l-.25-1.59-.24,1.59a.77.77,0,0,1-.21.41.74.74,0,0,1-.41.21Z" transform="translate(18.63 -83.56)"/>
    <path class="cls-18" d="M169.54,392.82l-1.6.25a.75.75,0,0,0-.63.62l-.25,1.61-.25-1.61a.68.68,0,0,0-.21-.41.74.74,0,0,0-.41-.21l-1.61-.25,1.61-.25a.74.74,0,0,0,.41-.21.68.68,0,0,0,.21-.41l.25-1.61.25,1.61a.75.75,0,0,0,.63.62Z" transform="translate(18.63 -83.56)"/>
    <path class="cls-18" d="M159.83,407.82l-1.67.25a.89.89,0,0,0-.43.22.81.81,0,0,0-.22.43l-.26,1.67-.25-1.67a.79.79,0,0,0-.65-.65l-1.67-.25,1.67-.26a.81.81,0,0,0,.43-.22.89.89,0,0,0,.22-.43l.25-1.67.26,1.67a.79.79,0,0,0,.65.65Z" transform="translate(18.63 -83.56)"/>
    <path class="cls-18" d="M293.94,389.61l1.61.25a.68.68,0,0,1,.41.21.71.71,0,0,1,.21.41l.25,1.61.25-1.61a.71.71,0,0,1,.21-.41.68.68,0,0,1,.41-.21l1.61-.25-1.61-.25a.81.81,0,0,1-.41-.21.73.73,0,0,1-.21-.42l-.25-1.61-.25,1.61a.73.73,0,0,1-.21.42.81.81,0,0,1-.41.21Z" transform="translate(18.63 -83.56)"/>
    <path class="cls-18" d="M303.65,404.6l1.68.26a.75.75,0,0,1,.43.22.73.73,0,0,1,.21.43l.26,1.67.26-1.67a.79.79,0,0,1,.65-.65l1.67-.26-1.67-.26a.72.72,0,0,1-.43-.22.69.69,0,0,1-.22-.43l-.26-1.67-.26,1.67a.73.73,0,0,1-.21.43.75.75,0,0,1-.43.22Z" transform="translate(18.63 -83.56)"/>
    <path class="cls-18" d="M221.62,473.93l2,.3a1,1,0,0,1,.51.26.92.92,0,0,1,.26.52l.31,2,.3-2a.92.92,0,0,1,.26-.52,1,1,0,0,1,.52-.26l2-.3-2-.31a.92.92,0,0,1-.78-.77l-.3-2-.31,2a.93.93,0,0,1-.77.77Z" transform="translate(18.63 -83.56)"/>
    <path class="cls-18" d="M239.13,462.84l2,.31a.92.92,0,0,1,.78.77l.3,2,.31-2a.87.87,0,0,1,.26-.51.93.93,0,0,1,.51-.26l2-.31-2-.31a.93.93,0,0,1-.77-.77l-.31-2-.3,2a1,1,0,0,1-.26.51.92.92,0,0,1-.52.26Z" transform="translate(18.63 -83.56)"/>
    <path class="cls-9" d="M112.94,488.34A86.79,86.79,0,0,1,127.8,487c5-.13,9.91-.06,14.87,0s9.9.08,14.86.07H328.45c2.48,0,5-.09,7.44-.13,4.95,0,9.9,0,14.86,1.39a.65.65,0,0,1,.35.24.68.68,0,0,1,.13.4.68.68,0,0,1-.13.39.65.65,0,0,1-.35.24c-5,1.36-9.91,1.41-14.86,1.39-2.48,0-5-.13-7.44-.13H157.53q-7.44,0-14.86.07c-5,.07-9.91.14-14.87,0a86.79,86.79,0,0,1-14.86-1.34.64.64,0,0,1-.37-.22.63.63,0,0,1-.15-.41.67.67,0,0,1,.52-.64Z" transform="translate(18.63 -83.56)"/>
    <path class="cls-19" d="M222.39,401.39V425a6.12,6.12,0,1,1-12.23,0V401.39H199.79v24.47c0,8.72,6.6,14.17,16.48,14.17s16.49-5.45,16.49-14.17V401.39Zm15.29,38.19h10.37V428.24h5.74c8.71,0,14.55-5.13,14.55-13.35s-5.69-13.5-14.17-13.5H237.68Zm10.37-19.39V409.67h3.66c3.63,0,5.81,1.94,5.81,5.22s-2.18,5.3-5.81,5.3Z" transform="translate(18.63 -83.56)"/>
    <path class="cls-20" d="M273.78,441.84l2.92,2.92a.83.83,0,0,1,0,1.18l-2.33,2.33a.85.85,0,0,1-1.18,0l-2.92-2.92-1.74,1.74a.83.83,0,0,1-1.38-.32l-3.51-10.51a.84.84,0,0,1,1.06-1.05l10.5,3.5a.83.83,0,0,1,.33,1.38Z" transform="translate(18.63 -83.56)"/>
    <rect class="cls-21" x="217.72" y="316.35" width="70.06" height="39.06"/>
    <path class="cls-22" d="M409,279.2c.57,2.46,0,5.19-1.67,8.2a38.58,38.58,0,0,1-8.46,9.66C391,303.85,379,311.14,363.7,318.48c-30.56,14.69-74.1,29.51-123.37,41S145.46,376.8,111.55,377.1c-17,.15-30.94-1.11-41-3.75a38.64,38.64,0,0,1-11.85-4.92c-2.86-2-4.54-4.18-5.11-6.63s0-5.19,1.66-8.2A38.59,38.59,0,0,1,63.74,344c7.84-6.79,19.84-14.09,35.12-21.43,30.56-14.69,74.1-29.51,123.37-41S317.11,264.2,351,263.9c17-.14,30.94,1.11,41,3.75a38.59,38.59,0,0,1,11.86,4.93C406.69,274.53,408.38,276.75,409,279.2Z" transform="translate(18.63 -83.56)"/>
    <circle class="cls-23" cx="102.75" cy="246.38" r="16.5"/>
    <circle class="cls-24" cx="393.88" cy="232.08" r="23.8"/>
  </g>
  <g id="icon_01" data-name="icon 01">
    <path class="cls-25" d="M88.46,332.39h0l1.32,1.31a.75.75,0,0,1,0,1.06l-.79.79a.74.74,0,0,1-1,0l-1.32-1.32-1,1a.37.37,0,0,1-.62-.14l-1.91-5.75a.37.37,0,0,1,.47-.47l5.74,1.92a.37.37,0,0,1,.15.61l-1,1" transform="translate(18.63 -83.56)"/>
    <path class="cls-25" d="M79.52,329.05H78" transform="translate(18.63 -83.56)"/>
    <path class="cls-25" d="M80.63,326.39l-1.08-1.08" transform="translate(18.63 -83.56)"/>
    <path class="cls-25" d="M80.6,331.74l-1.08,1.08" transform="translate(18.63 -83.56)"/>
    <path class="cls-25" d="M83.29,325.29v-1.52" transform="translate(18.63 -83.56)"/>
    <path class="cls-25" d="M86,326.37l1.08-1.08" transform="translate(18.63 -83.56)"/>
  </g>
  <g id="icon_02" data-name="icon 02">
    <path class="cls-26" d="M374.46,320.68l9.2-9.2a1.09,1.09,0,0,1,1.53,0l1.17,1.17a1.09,1.09,0,0,1,0,1.53l-9.2,9.2a2.28,2.28,0,0,1-1,.58l-1.78.42a.73.73,0,0,1-.87-.88l.41-1.78a2.23,2.23,0,0,1,.58-1Z" transform="translate(18.63 -83.56)"/>
    <path class="cls-26" d="M381.94,313.19l2.7,2.71" transform="translate(18.63 -83.56)"/>
    <path class="cls-26" d="M370.53,324.54h-.17a5.25,5.25,0,0,1-5.25-5.26h0a5.26,5.26,0,0,1,3.12-4.8l4.29-1.9a3.94,3.94,0,0,0,2.34-3.6h0a3.93,3.93,0,0,0-3.94-3.94h-.39" transform="translate(18.63 -83.56)"/>
  </g>
  <path id="bola" class="cls-3" d="M330.11,148.27a2.13,2.13,0,1,1,2.76-1.19A2.13,2.13,0,0,1,330.11,148.27Z" transform="translate(18.63 -83.56)"/>
</svg>
