<?xml version="1.0" encoding="utf-8"?>
<!-- Generator: Adobe Illustrator 25.1.0, SVG Export Plug-In . SVG Version: 6.00 Build 0)  -->
<svg version="1.1" id="Camada_1" xmlns="http://www.w3.org/2000/svg" xmlns:xlink="http://www.w3.org/1999/xlink" x="0px" y="0px"
	 viewBox="0 0 513 420" style="enable-background:new 0 0 513 420;" xml:space="preserve">
<style type="text/css">
	.st0{opacity:0.1;fill:#22A7F0;enable-background:new    ;}
	.st1{fill:#FFFFFF;}
	.st2{clip-path:url(#SVGID_2_);}
	.st3{fill:#371A45;}
	.st4{opacity:0.35;}
	.st5{opacity:0.35;fill:#371A45;enable-background:new    ;}
	.st6{opacity:0.5;}
	.st7{opacity:0.5;fill:#FFFFFF;enable-background:new    ;}
	.st8{opacity:0.35;fill:#111A28;enable-background:new    ;}
	.st9{fill:#D66B09;}
	.st10{fill:#22A7F0;}
	.st11{fill:#FFDA22;}
	.st12{opacity:0.7;}
	.st13{opacity:0.7;fill:#FFFFFF;enable-background:new    ;}
	.st14{fill:#8DD7FF;}
	.st15{fill:#FFD527;}
	.st16{fill:#E0E0E0;}
	.st17{fill:none;stroke:#FFD527;stroke-width:2.3123;}
</style>
<path class="st0" d="M382.7,345.1c39.3-32.1,64.3-81,64.3-135.7c0-96.8-78.5-175.2-175.3-175.2S96.4,112.7,96.4,209.5
	c0,54.7,25.1,103.5,64.3,135.7c32.7-0.6,70.6-1,111-1S350,344.5,382.7,345.1z"/>
<path class="st1" d="M455.2,318.4c2-4.4-3.7-45.6-43.7-47.4c-7.9,0-15.7,1.9-22.7,5.8c-6.6-5.9-15.5-9.9-25.5-10.9
	c-3.6-17.4-21-30.5-41.8-30.5c-7.3,0-14.5,1.6-21.1,4.9c-2.1,1-4.5,1.1-6.8,0.4l-0.4-0.1c-2.1-0.6-3.8-1.9-5-3.6
	c-7.3-11.3-21.1-18.9-37-18.9c-16.7,0-31.1,8.4-38.1,20.7c-6.9-3.7-14.5-5.6-22.3-5.6c-23.5,0-42.5,16.7-42.5,37.3
	c0,1.1,0.1,2.2,0.2,3.3c-14.5,2.9-26.6,11.5-32.9,23c-8.9-9.5-22.4-15.5-37.5-15.5c-26.1,0-47.4,18.1-48.6,40.8
	c-1.2-0.1-2.5-0.2-3.8-0.2c-16.7,0-30.2,11.9-30.2,26.5c0,0.7,0,1.5,0.1,2.2h523C513.1,332.1,488.5,308.5,455.2,318.4z"/>
<g>
	<defs>
		<rect id="SVGID_1_" x="170.8" y="98.6" width="202.6" height="288"/>
	</defs>
	<clipPath id="SVGID_2_">
		<use xlink:href="#SVGID_1_"  style="overflow:visible;"/>
	</clipPath>
	<g class="st2">
		<path class="st1" d="M328.1,295.4c-0.9,10.1-9.3,18.1-19.8,18.1h-73.1c-10.1,0-18.3-7.5-19.7-17.1c-0.2-1.4-0.2-2.9-0.1-4.3
			l2.1-27.2l3.1-40.3c0-0.6,0.1-1.1,0.2-1.7c0.8-4.6,3.2-8.9,6.7-11.9c3.6-3,8.1-4.7,12.8-4.7h62.6c4.6,0,9.1,1.6,12.6,4.5
			c3.6,2.9,6,7,6.9,11.5c0.1,0.7,0.2,1.5,0.3,2.2l3.1,39.9l2.1,27.5C328.2,293.2,328.2,294.3,328.1,295.4z"/>
		<path class="st3" d="M308.4,315.1h-73.1c-3,0-5.9-0.6-8.6-1.8c-2.7-1.2-5.1-2.9-7.1-5.1c-2-2.2-3.5-4.7-4.5-7.5
			c-1-2.8-1.4-5.8-1.1-8.7l5.2-67.4c0.9-11.1,10.3-19.8,21.4-19.8h62.6c11.1,0,20.5,8.7,21.4,19.8l5.2,67.4c0.2,2.9-0.2,5.9-1.1,8.7
			c-1,2.8-2.5,5.4-4.5,7.5c-2,2.2-4.4,3.9-7.1,5.1C314.2,314.5,311.3,315.1,308.4,315.1L308.4,315.1z M240.5,208
			c-9.5,0-17.5,7.4-18.2,16.8l-5.2,67.4c-0.2,2.5,0.1,5,1,7.4c0.8,2.4,2.1,4.6,3.8,6.4c1.7,1.8,3.8,3.3,6.1,4.3
			c2.3,1,4.8,1.5,7.3,1.5h73.1c2.5,0,5-0.5,7.3-1.5c2.3-1,4.4-2.5,6.1-4.3c1.7-1.8,3-4,3.8-6.4c0.8-2.4,1.2-4.9,1-7.4l-5.2-67.4
			c-0.7-9.4-8.7-16.8-18.2-16.8H240.5z"/>
		<path class="st1" d="M371.7,255.4c-0.4,4.7-2,9.3-6.1,12.7c-16.3,13.8-43.1-2.3-53.3-16.7c-0.3-0.5-3.9-7-7.5-14.9
			c-5.7-12.7-11.5-28.8-4.1-28.8c12.1,0,35.4,36.4,56.6,28.7c8.7-3.2,9-3.5,9-3.5C366.4,233,372.5,244.6,371.7,255.4z"/>
		<g class="st4">
			<path class="st5" d="M371.7,255.4c-0.4,4.7-2,9.3-6.1,12.7c-16.3,13.8-43.1-2.3-53.3-16.7c-0.3-0.5-3.9-7-7.5-14.9
				c0.7-0.1,1.5-0.1,2.2-0.1c14.2,0,20.1,30.9,46.5,29.2C362.7,265,368.3,260.7,371.7,255.4z"/>
		</g>
		<path class="st3" d="M350.7,275c-1.3,0-2.7-0.1-4-0.3c-14.3-1.8-28.8-12.6-35.7-22.4c-0.2-0.3-19.2-34.6-14.6-43.7
			c0.6-1.1,1.8-2.5,4.3-2.5c5.3,0,11.8,5.6,19.4,12.1c11,9.4,24.6,21.1,36.7,16.7c4-1.5,6.2-2.3,7.3-2.8l-1.5-2.8l5.3,2.5l0,0.6
			c1.7,3.4,12.2,25.4-1.3,36.8C362.1,273.1,356.8,275,350.7,275z M300.7,209.3c-1,0-1.3,0.4-1.5,0.8c-0.7,1.3-1.5,5.9,5.3,22
			c4,9.4,8.6,17.9,9,18.5c6.4,9,20.3,19.4,33.5,21.1c6.9,0.9,12.8-0.7,17.5-4.7c10.6-9,3.4-26.9,1-31.9c-1.5,0.6-4.1,1.6-7.7,2.9
			c-13.8,5-28.3-7.3-39.8-17.3C311.2,214.8,304.8,209.3,300.7,209.3z"/>
		<path class="st3" d="M342.2,273.9c-0.2,0-0.4,0-0.6-0.1c-7.6-3-10-13-10.7-18.7c-1.1-8.9,0.1-20.2,4.1-23.1
			c0.2-0.1,0.4-0.2,0.6-0.3s0.4-0.1,0.6,0c0.2,0,0.4,0.1,0.6,0.2c0.2,0.1,0.3,0.3,0.5,0.4c0.1,0.2,0.2,0.4,0.3,0.6
			c0,0.2,0.1,0.4,0,0.6c0,0.2-0.1,0.4-0.2,0.6c-0.1,0.2-0.3,0.3-0.4,0.5c-1.9,1.4-4,10.1-2.8,20.1c1.1,8.5,4.2,14.4,8.7,16.1
			c0.3,0.1,0.6,0.4,0.8,0.7c0.2,0.3,0.2,0.7,0.2,1.1s-0.3,0.7-0.5,0.9C343,273.7,342.6,273.9,342.2,273.9L342.2,273.9z"/>
		<path class="st1" d="M360.2,247.7c-9.8,4.7-13.5-0.5-23.4-2c-5.9-0.9-15.6-0.4-14.1-7.5c0.3-1.6,1.5-2.4,2.9-2.9
			c3.7-1.2,9.6-0.3,11.2-2.8c2.3-3.3-1.6-8.8-5.7-12.3c-4.3-3.7-7.9-7-5.9-10.4c0.7-1.1,1.5-1.8,2.4-2c0.3-0.1,0.7-0.2,1.1-0.2
			c1-0.1,2.1,0.2,3.1,0.7c2.9,1.3,5.7,4.1,6.7,5l0,0c0,0,0.1,0.1,0.1,0.1c0.1,0.1,0.2,0.2,0.2,0.2c-0.2-0.8-0.3-1.6-0.3-2.4
			c0-1.5,0.2-3.3,1.5-4.1c4.5-2.8,8.4,2.5,10.6,6.7c0.3,0.6,0.5,1.1,0.8,1.6c1.3,2.9,1.4,4.9,1.4,4.9s0.3,0.1,0.7,0.2
			c2.2,0.7,8.7,3.2,11.4,8.1c0.3,0.5,0.5,1,0.7,1.5C367.9,237.1,366.5,244.7,360.2,247.7z"/>
		<g class="st4">
			<path class="st5" d="M343.4,227c0,0-6.5-14.7-15-18.9c-0.3-0.1-0.5-0.3-0.7-0.4c0.3-0.1,0.7-0.2,1.1-0.2c0.8,0.1,2,0.4,3.1,0.7
				c2.9,1.3,5.7,4.1,6.7,5l0,0C340.7,217,343.6,222.8,343.4,227z"/>
		</g>
		<g class="st4">
			<path class="st5" d="M353.5,220.5l-3.2,3.9l-4.6,3c0,0-2.3,1-2.3-0.8c0-5.5-2.9-10.3-4.9-13.2c0.1,0.1,0.2,0.2,0.2,0.2
				c-0.2-0.8-0.3-1.6-0.3-2.4c4.7,3.2,4.6,10.3,7.5,8.4c2.9-1.9,3.1-4,5.4-4.2c1.3,2.9,1.4,4.9,1.4,4.9S353,220.3,353.5,220.5z"/>
		</g>
		<g class="st4">
			<path class="st5" d="M360.2,247.7c-9.8,4.7-13.5-0.5-23.4-2c-5.9-0.9-15.6-0.4-14.1-7.5c0.3-1.6,1.5-2.4,2.9-2.9
				c0,2.1-1.9,4.5,3.9,6c9.5,2.4,14.6,2.4,17.7,1c5.4-2.4-2.5-8.6-2.1-13.9c0.4-4.9,15.5,1,15.5,1l4.3-0.9c0.3,0.5,0.5,1,0.7,1.5
				C367.9,237.1,366.5,244.7,360.2,247.7z"/>
		</g>
		<path class="st3" d="M351.4,251.2c0,0-0.1,0-0.1,0c-2.4-0.2-4.6-1-6.9-1.8c-2.3-0.8-4.8-1.6-7.8-2.1c-1-0.2-2.1-0.3-3.2-0.4
			c-4.3-0.4-9.1-1-11.3-3.9c-1-1.4-1.3-3.1-0.9-5.1c0.9-4.2,5.5-4.6,9.2-5c2.2-0.2,4.6-0.4,5.2-1.3c1.6-2.3-1.6-7-5.4-10.3
			c-4.4-3.8-9-7.8-6.2-12.4c1.3-2.2,3.1-2.9,4.4-3c3-0.3,6.3,1.8,8.7,3.7c0.2-1.5,0.8-3.1,2.2-4c1.6-1,3.2-1.3,4.9-0.8
			c2.8,0.8,5.5,3.5,7.9,8.1c1.4,2.6,1.9,4.7,2.2,6c2.8,0.9,10.7,4.1,12.9,10.5c1.3,3.8,1.5,7.8,0.6,11.2c-1,3.8-3.4,6.7-6.8,8.4
			c-0.4,0.2-0.8,0.2-1.2,0.1c-0.4-0.1-0.7-0.4-0.9-0.8c-0.2-0.4-0.2-0.8-0.1-1.2c0.1-0.4,0.4-0.7,0.8-0.9c2.6-1.2,4.3-3.4,5.1-6.3
			c0.8-2.8,0.6-6.1-0.5-9.4c-2.1-6.1-11.6-8.8-11.7-8.8c-0.3-0.1-0.6-0.3-0.8-0.5c-0.2-0.3-0.3-0.6-0.4-0.9c0,0-0.2-2.5-2-5.8
			c-2-3.7-4.1-6.1-5.9-6.6c-0.8-0.2-1.6-0.1-2.4,0.4c-1,0.6-0.9,3.2-0.6,4.8c0.1,0.3,0,0.7-0.1,1c-0.1,0.3-0.4,0.6-0.7,0.7
			c-0.3,0.2-0.7,0.2-1,0.2c-0.3-0.1-0.7-0.2-0.9-0.5c-2.1-2.3-6.3-5.8-9-5.5c-0.5,0.1-1.3,0.3-2,1.5c-1.3,2.2,1.2,4.6,5.6,8.4
			c4.6,4,8.9,10.1,6,14.4c-1.4,2.2-4.5,2.5-7.6,2.7c-3.6,0.3-6,0.7-6.4,2.5c-0.2,1.1-0.1,2,0.3,2.6c1.3,1.8,5.6,2.2,9,2.6
			c1.2,0.1,2.3,0.2,3.4,0.4c3.3,0.5,6,1.4,8.4,2.3c2.2,0.8,4.1,1.4,6.2,1.6c0.4,0,0.8,0.2,1,0.5c0.3,0.3,0.4,0.7,0.4,1.1
			s-0.2,0.8-0.5,1.1C352.1,251,351.8,251.2,351.4,251.2L351.4,251.2z"/>
		<path class="st3" d="M342.6,227c0-0.2,0-0.5,0-0.8c0-0.3-0.1-0.6-0.1-0.8c-0.1-0.6-0.2-1.1-0.4-1.7c-0.3-1.1-0.7-2.2-1.1-3.3
			c-0.5-1.1-1-2.1-1.6-3.1c-0.3-0.5-0.6-1-0.9-1.5l-1-1.4l0-0.1c-0.1-0.2-0.2-0.4-0.3-0.6c0-0.2-0.1-0.4,0-0.6
			c0-0.2,0.1-0.4,0.2-0.6c0.1-0.2,0.3-0.3,0.4-0.4c0.2-0.1,0.4-0.2,0.6-0.3c0.2,0,0.4-0.1,0.6,0c0.2,0,0.4,0.1,0.6,0.2
			c0.2,0.1,0.3,0.3,0.5,0.4c0,0,0.1,0.1,0.1,0.1c0.3,0.6,0.6,1.1,0.9,1.7c0.3,0.6,0.6,1.1,0.8,1.7c0.5,1.1,1,2.3,1.4,3.5
			c0.4,1.2,0.7,2.4,0.9,3.7c0.1,0.6,0.2,1.3,0.2,1.9c0,0.7,0,1.3,0,2c0,0.2-0.1,0.4-0.3,0.5c-0.2,0.1-0.4,0.2-0.6,0.2
			c-0.2,0-0.4-0.1-0.5-0.2C342.7,227.4,342.6,227.2,342.6,227L342.6,227z"/>
		<path class="st1" d="M359.7,224.3c0,0-2.2,1.3-3.9,3.4c-1.7,2.1-2.5,5.8-6.4,5.1c-2.7-0.5-4.4-4.4-2.7-8.5
			c0.8-1.8,2.2-3.7,4.5-5.4c0,0,3.2-1.8,5.8-0.2c1.7,1.1,2.3,2.5,2.6,3.7C359.8,223,359.8,223.7,359.7,224.3z"/>
		<g class="st4">
			<path class="st5" d="M359.7,224.3c0,0-2.2,1.3-3.9,3.4c-1.7,2.1-2.5,5.8-6.4,5.1c-2.7-0.5-4.4-4.4-2.7-8.5
				c0.7,1.3,0.6,4.3,2.6,4.5c2.8,0.3,4.6-7.6,10.3-6.4C359.8,223,359.8,223.7,359.7,224.3z"/>
		</g>
		<path class="st3" d="M350.4,234.5c-0.4,0-0.8,0-1.2-0.1c-2.1-0.4-3.8-2.2-4.4-4.8c-0.7-3.3,0.3-8.2,5.6-12c0,0,0.1-0.1,0.1-0.1
			c0.2-0.1,4-2.2,7.4-0.1c4.2,2.6,3.3,7.1,3.3,7.3c0,0.2-0.1,0.4-0.3,0.6c-0.1,0.2-0.3,0.3-0.5,0.4c0,0-2,1.2-3.4,3
			c-0.3,0.4-0.6,1-1,1.5C355.1,231.9,353.6,234.5,350.4,234.5z M352.1,220.2c-4,2.9-4.8,6.4-4.3,8.6c0.3,1.3,1,2.2,1.9,2.4
			c1.7,0.3,2.4-0.5,3.7-2.7c0.4-0.6,0.7-1.3,1.2-1.8c1.2-1.6,2.7-2.7,3.6-3.3c0-0.8-0.3-2.3-1.9-3.4
			C354.6,219,352.5,220,352.1,220.2z"/>
		<path class="st1" d="M365.5,229.6c-0.1,0.5-0.1,1-0.3,1.5c0,0-1.2-0.4-2.9,1.7c-1.7,2.1-1.8,3.8-5,3.6c-2.1-0.1-4.3-2.6-3.8-5.7
			c0.3-1.9,1.6-4,4.4-6c0,0,3.2-1.9,5.8-0.2C365.5,225.7,365.6,228.1,365.5,229.6z"/>
		<g class="st4">
			<path class="st5" d="M365.5,229.6c-0.1,0.5-0.1,1-0.3,1.5c0,0-1.2-0.4-2.9,1.7c-1.7,2.1-1.8,3.8-5,3.6c-2.1-0.1-4.3-2.6-3.8-5.7
				c1.9,0.7,0.9,3.2,3.9,3C360,233.5,360.8,225.3,365.5,229.6z"/>
		</g>
		<path class="st3" d="M357.7,238c-0.1,0-0.3,0-0.5,0c-2.2-0.1-4.3-1.9-5.1-4.4c-0.5-1.7-1-6,4.8-10.2c0,0,0.1-0.1,0.1-0.1
			c0.2-0.1,4.1-2.3,7.5-0.1c3.8,2.5,2.2,8.1,2.1,8.3c-0.1,0.4-0.4,0.7-0.7,0.9c-0.3,0.2-0.7,0.3-1.1,0.2c-0.2,0-0.7,0.3-1.4,1.1
			c-0.3,0.4-0.6,0.8-0.9,1.2C361.7,236.5,360.7,238,357.7,238z M358.8,226c-2.9,2.1-4.2,4.5-3.5,6.7c0.4,1.3,1.4,2.1,2.2,2.1
			c1.6,0.1,1.8-0.2,2.7-1.6c0.3-0.4,0.6-0.9,1-1.5c1-1.3,2-1.9,2.8-2.2c0.2-1.2,0.2-3-1-3.8C361.3,224.8,359.1,225.8,358.8,226z"/>
		<path class="st1" d="M172.5,255.4c0.4,4.7,2,9.3,6.1,12.7c16.3,13.8,43-2.3,53.3-16.7c0.3-0.5,3.9-7,7.5-14.9
			c5.7-12.7,11.5-28.8,4.1-28.8c-12.1,0-35.4,36.4-56.6,28.7c-8.7-3.2-9-3.5-9-3.5C177.8,233,171.7,244.6,172.5,255.4z"/>
		<g class="st4">
			<path class="st5" d="M172.5,255.4c0.4,4.7,2,9.3,6.1,12.7c16.3,13.8,43-2.3,53.3-16.7c0.3-0.5,3.9-7,7.5-14.9
				c-0.7-0.1-1.5-0.1-2.2-0.1c-14.2,0-20.1,30.9-46.5,29.2C181.4,265,175.8,260.7,172.5,255.4z"/>
		</g>
		<path class="st3" d="M193.5,275c-6.1,0-11.4-1.9-15.9-5.7c-13.5-11.4-3-33.5-1.3-36.8l0-0.6l5.3-2.5l-1.5,2.8
			c1.2,0.5,3.3,1.3,7.3,2.8c12.1,4.4,25.7-7.3,36.7-16.7c7.6-6.5,14.1-12.1,19.4-12.1c2.5,0,3.7,1.4,4.3,2.5
			c4.7,9.1-14.4,43.4-14.6,43.7c-7,9.8-21.5,20.6-35.7,22.4C196.2,274.9,194.8,275,193.5,275z M178.6,235c-2.3,5.1-9.6,23,1,31.9
			c4.7,4,10.6,5.5,17.5,4.7c13.2-1.7,27.1-12.1,33.5-21.1c0.4-0.6,5-9.1,9-18.5c6.8-16.1,6-20.7,5.3-22c-0.2-0.4-0.5-0.8-1.5-0.8
			c-4.1,0-10.5,5.5-17.3,11.3c-9.7,8.4-21.5,18.4-33.2,18.4c-2.3,0-4.5-0.4-6.6-1.2C182.7,236.6,180.1,235.6,178.6,235L178.6,235z"
			/>
		<path class="st3" d="M201.9,273.9c-0.4,0-0.7-0.1-1-0.4c-0.3-0.2-0.5-0.6-0.5-0.9s0-0.7,0.2-1.1c0.2-0.3,0.5-0.6,0.8-0.7
			c4.5-1.8,7.7-7.6,8.7-16.1c1.3-10-0.8-18.7-2.8-20.1c-0.2-0.1-0.3-0.3-0.4-0.5c-0.1-0.2-0.2-0.4-0.2-0.6c0-0.2,0-0.4,0-0.6
			c0-0.2,0.1-0.4,0.3-0.6c0.1-0.2,0.3-0.3,0.5-0.4c0.2-0.1,0.4-0.2,0.6-0.2c0.2,0,0.4,0,0.6,0c0.2,0,0.4,0.1,0.6,0.3
			c3.9,2.9,5.2,14.2,4.1,23.1c-0.7,5.7-3.1,15.7-10.7,18.7C202.3,273.8,202.1,273.9,201.9,273.9z"/>
		<path class="st1" d="M184,247.7c9.8,4.7,13.5-0.5,23.4-2c5.9-0.9,15.6-0.4,14.1-7.5c-0.3-1.6-1.5-2.4-2.9-2.9
			c-3.7-1.2-9.6-0.3-11.2-2.8c-2.3-3.3,1.6-8.8,5.7-12.3c4.3-3.7,7.9-7,5.9-10.4c-0.7-1.1-1.5-1.8-2.4-2c-0.3-0.1-0.7-0.2-1.1-0.2
			c-1-0.1-2.1,0.2-3.1,0.7c-2.9,1.3-5.7,4.1-6.7,5l0,0c0,0-0.1,0.1-0.1,0.1c-0.1,0.1-0.2,0.2-0.2,0.2c0.2-0.8,0.3-1.6,0.3-2.4
			c0-1.5-0.2-3.3-1.5-4.1c-4.5-2.8-8.4,2.5-10.6,6.7c-0.3,0.6-0.5,1.1-0.8,1.6c-1.3,2.9-1.4,4.9-1.4,4.9s-0.3,0.1-0.7,0.2
			c-2.2,0.7-8.7,3.2-11.4,8.1c-0.3,0.5-0.5,1-0.7,1.5C176.2,237.1,177.7,244.7,184,247.7z"/>
		<g class="st4">
			<path class="st5" d="M200.8,227c0,0,6.5-14.7,15-18.9c0.3-0.1,0.5-0.3,0.7-0.4c-0.3-0.1-0.7-0.2-1.1-0.2c-0.8,0.1-2,0.4-3.1,0.7
				c-2.9,1.3-5.7,4.1-6.7,5l0,0C203.4,217,200.5,222.8,200.8,227z"/>
		</g>
		<g class="st4">
			<path class="st5" d="M190.7,220.5l3.1,3.9l4.6,3c0,0,2.3,1,2.3-0.8c0-5.5,2.9-10.3,4.9-13.2c-0.1,0.1-0.2,0.2-0.2,0.2
				c0.2-0.8,0.3-1.6,0.3-2.4c-4.7,3.2-4.6,10.3-7.5,8.4c-2.9-1.9-3.1-4-5.4-4.2c-1.3,2.9-1.4,4.9-1.4,4.9S191.1,220.3,190.7,220.5z"
				/>
		</g>
		<g class="st4">
			<path class="st5" d="M184,247.7c9.8,4.7,13.5-0.5,23.4-2c5.9-0.9,15.6-0.4,14.1-7.5c-0.3-1.6-1.5-2.4-2.9-2.9
				c0,2.1,1.9,4.5-3.9,6c-9.5,2.4-14.6,2.4-17.7,1c-5.4-2.4,2.5-8.6,2.1-13.9c-0.4-4.9-15.5,1-15.5,1l-4.3-0.9
				c-0.3,0.5-0.5,1-0.7,1.5C176.2,237.1,177.7,244.7,184,247.7z"/>
		</g>
		<path class="st3" d="M192.8,251.2c-0.4,0-0.8-0.2-1.1-0.4c-0.3-0.3-0.5-0.7-0.5-1.1c0-0.4,0.1-0.8,0.4-1.1s0.6-0.5,1-0.5
			c2-0.2,3.9-0.9,6.2-1.6c2.4-0.8,5-1.7,8.4-2.3c1.1-0.2,2.2-0.3,3.4-0.4c3.4-0.4,7.7-0.8,9-2.6c0.5-0.6,0.6-1.5,0.3-2.6
			c-0.4-1.8-2.8-2.1-6.4-2.5c-3-0.3-6.1-0.6-7.6-2.8c-2.9-4.3,1.4-10.4,6-14.4c4.3-3.8,6.9-6.2,5.6-8.4c-0.7-1.2-1.5-1.4-2-1.5
			c-2.7-0.3-6.9,3.2-9,5.5c-0.2,0.3-0.6,0.4-0.9,0.5c-0.3,0.1-0.7,0-1-0.2c-0.3-0.2-0.6-0.4-0.7-0.7c-0.1-0.3-0.2-0.7-0.1-1
			c0.4-1.6,0.4-4.2-0.6-4.8c-0.8-0.5-1.6-0.7-2.4-0.4c-1.9,0.5-4,2.8-5.9,6.6c-1.8,3.3-2,5.8-2,5.8c0,0.3-0.2,0.6-0.4,0.9
			c-0.2,0.2-0.5,0.4-0.8,0.5c-0.1,0-9.6,2.7-11.7,8.8c-1.1,3.3-1.3,6.6-0.5,9.4c0.8,2.9,2.6,5.1,5.1,6.3c0.2,0.1,0.4,0.2,0.5,0.4
			c0.1,0.2,0.2,0.3,0.3,0.5c0.1,0.2,0.1,0.4,0.1,0.6c0,0.2-0.1,0.4-0.2,0.6c-0.1,0.2-0.2,0.4-0.4,0.5c-0.2,0.1-0.3,0.2-0.5,0.3
			c-0.2,0.1-0.4,0.1-0.6,0.1c-0.2,0-0.4-0.1-0.6-0.2c-3.4-1.7-5.8-4.5-6.8-8.4c-0.9-3.4-0.7-7.4,0.6-11.2c2.2-6.4,10-9.6,12.9-10.5
			c0.2-1.2,0.8-3.4,2.2-6c2.5-4.6,5.1-7.4,7.9-8.1c1.7-0.5,3.3-0.2,4.9,0.8c1.4,0.9,2,2.4,2.2,4c2.3-1.9,5.6-4,8.7-3.7
			c1.3,0.1,3.1,0.7,4.4,3c2.8,4.6-1.8,8.6-6.2,12.4c-3.8,3.3-7,8-5.4,10.2c0.6,0.9,3.1,1.2,5.2,1.4c3.7,0.3,8.3,0.8,9.2,5
			c0.4,2,0.1,3.7-0.9,5.1c-2.1,2.9-7,3.5-11.3,3.9c-1.2,0.1-2.3,0.2-3.2,0.4c-3.1,0.5-5.5,1.3-7.8,2.1c-2.3,0.8-4.5,1.6-6.9,1.8
			C192.9,251.2,192.9,251.2,192.8,251.2z"/>
		<path class="st3" d="M200,227.1c-0.1-0.7-0.1-1.3,0-2c0-0.6,0.1-1.3,0.2-1.9c0.2-1.2,0.5-2.5,0.9-3.7c0.4-1.2,0.8-2.4,1.4-3.5
			c0.3-0.6,0.6-1.1,0.8-1.7c0.3-0.6,0.6-1.1,0.9-1.7c0.2-0.4,0.5-0.6,1-0.8c0.4-0.1,0.8-0.1,1.2,0.1c0.4,0.2,0.6,0.5,0.8,1
			c0.1,0.4,0.1,0.8-0.1,1.2c0,0.1-0.1,0.1-0.1,0.1l0,0.1l-1,1.4c-0.3,0.5-0.6,1-0.9,1.5c-0.6,1-1.1,2-1.6,3.1
			c-0.5,1.1-0.8,2.1-1.1,3.3c-0.1,0.6-0.3,1.1-0.4,1.7c-0.1,0.3-0.1,0.6-0.1,0.8c0,0.3,0,0.6,0,0.8v0.1c0,0.2-0.1,0.4-0.2,0.5
			c-0.1,0.1-0.3,0.2-0.5,0.2c-0.2,0-0.4-0.1-0.6-0.2C200.1,227.5,200,227.3,200,227.1z"/>
		<path class="st1" d="M184.4,224.3c0,0,2.2,1.3,3.9,3.4c1.7,2.1,2.5,5.8,6.4,5.1c2.7-0.5,4.4-4.4,2.7-8.5c-0.8-1.8-2.2-3.7-4.5-5.4
			c0,0-3.2-1.8-5.8-0.2c-1.7,1.1-2.3,2.5-2.6,3.7C184.4,223,184.3,223.7,184.4,224.3z"/>
		<g class="st4">
			<path class="st5" d="M184.4,224.3c0,0,2.2,1.3,3.9,3.4c1.7,2.1,2.5,5.8,6.4,5.1c2.7-0.5,4.4-4.4,2.7-8.5
				c-0.7,1.3-0.6,4.3-2.6,4.5c-2.8,0.3-4.6-7.6-10.3-6.4C184.4,223,184.3,223.7,184.4,224.3z"/>
		</g>
		<path class="st3" d="M193.8,234.5c-3.2,0-4.7-2.5-5.7-4.3c-0.3-0.6-0.6-1.1-1-1.5c-1.4-1.8-3.4-3-3.4-3c-0.2-0.1-0.4-0.3-0.5-0.4
			c-0.1-0.2-0.2-0.4-0.3-0.6c0-0.2-0.9-4.7,3.3-7.3c3.4-2.1,7.3,0,7.4,0.1c0.1,0,0.1,0.1,0.1,0.1c5.3,3.8,6.4,8.7,5.6,12
			c-0.6,2.6-2.3,4.4-4.4,4.8C194.6,234.4,194.2,234.5,193.8,234.5z M186,223.4c0.9,0.6,2.4,1.7,3.6,3.3c0.4,0.6,0.8,1.2,1.2,1.8
			c1.3,2.2,1.9,3,3.7,2.7c0.9-0.2,1.6-1.1,1.9-2.4c0.5-2.3-0.3-5.8-4.3-8.6c-0.4-0.2-2.5-1.2-4.1-0.2
			C186.2,221.1,186,222.6,186,223.4L186,223.4z"/>
		<path class="st1" d="M178.7,229.6c0,0.5,0.1,1,0.3,1.5c0,0,1.2-0.4,2.9,1.7c1.7,2.1,1.8,3.8,5,3.6c2.1-0.1,4.3-2.6,3.8-5.7
			c-0.3-1.9-1.6-4-4.4-6c0,0-3.2-1.9-5.8-0.2C178.6,225.7,178.5,228.1,178.7,229.6z"/>
		<g class="st4">
			<path class="st5" d="M178.7,229.6c0,0.5,0.1,1,0.3,1.5c0,0,1.2-0.4,2.9,1.7c1.7,2.1,1.8,3.8,5,3.6c2.1-0.1,4.3-2.6,3.8-5.7
				c-1.9,0.7-0.9,3.2-3.9,3C184.2,233.5,183.3,225.3,178.7,229.6z"/>
		</g>
		<path class="st3" d="M186.5,238c-3.1,0-4.1-1.5-5-3c-0.3-0.4-0.5-0.8-0.9-1.2c-0.4-0.5-1.2-1.2-1.2-1.2c-0.2,0.1-0.4,0.1-0.6,0.1
			c-0.2,0-0.4-0.1-0.6-0.2c-0.2-0.1-0.4-0.2-0.5-0.4c-0.1-0.2-0.2-0.4-0.3-0.6c-0.1-0.2-1.6-5.8,2.1-8.3c3.4-2.2,7.3,0,7.5,0.1
			c0,0,0.1,0.1,0.1,0.1c5.8,4.2,5.3,8.5,4.8,10.2c-0.7,2.5-2.8,4.3-5.1,4.4C186.8,238,186.6,238,186.5,238z M180.3,229.6
			c0.8,0.3,1.8,0.9,2.8,2.2c0.4,0.5,0.7,1,1,1.5c0.9,1.3,1.1,1.6,2.7,1.6c0.8,0,1.8-0.8,2.2-2.1c0.6-2.2-0.7-4.6-3.5-6.7
			c-0.4-0.2-2.5-1.2-4.1-0.2C180.1,226.6,180.1,228.5,180.3,229.6L180.3,229.6z"/>
		<path class="st1" d="M214.6,296.6c2.6-16,8.3-46.4,17.3-70.7c3.6-9.6,13.3-16.1,24.2-16.1h31.7c10.9,0,20.6,6.5,24.2,16.1
			c9,24.3,14.7,54.7,17.3,70.7c1.2,7.2-3.2,14.2-10.6,16.7c-9.3,3.2-24.3,6.5-46.8,6.5s-37.5-3.3-46.7-6.5
			C217.9,310.8,213.5,303.8,214.6,296.6z"/>
		<path class="st3" d="M316.2,236.8c2.4,5,4,10.2,5.5,15.4c1.5,5.2,2.7,10.6,3.8,15.9c0.6,2.7,1.1,5.3,1.6,8s1,5.3,1.5,8
			c0.5,2.7,1,5.4,1.4,8l0.7,4c0.2,1.4,0.3,3,0.1,4.5c-0.2,1.5-0.5,3-1.1,4.3c-0.6,1.4-1.3,2.7-2.2,3.9c-0.9,1.2-2,2.2-3.1,3.1
			c-1.2,0.9-2.5,1.6-3.8,2.3c-1.4,0.6-2.7,1-4,1.4c-1.3,0.4-2.6,0.8-4,1.1c-2.7,0.7-5.3,1.3-8,1.8c-5.4,1-10.8,1.7-16.3,2.2
			c-5.5,0.5-10.9,0.6-16.4,0.6c-5.5,0-10.9-0.2-16.4-0.6c-5.5-0.4-10.9-1.1-16.3-2.2c-2.7-0.5-5.4-1.1-8-1.8c-1.3-0.4-2.7-0.7-4-1.1
			c-1.3-0.4-2.6-0.8-4-1.4c-1.4-0.6-2.6-1.4-3.8-2.3c-1.2-0.9-2.2-2-3.1-3.2c-0.9-1.2-1.6-2.5-2.2-3.9c-0.5-1.4-0.9-2.9-1.1-4.4
			c-0.2-1.5,0-3,0.2-4.5l0.7-4c0.5-2.7,0.9-5.4,1.4-8c1-5.3,2.1-10.7,3.2-16c0.6-2.7,1.2-5.3,1.8-8c0.3-1.3,0.6-2.7,0.9-4
			c0.3-1.3,0.6-2.7,0.9-4c0.6-2.6,1.4-5.3,2.3-7.9c0.2-0.6,0.5-1.3,0.7-1.9c0.2-0.6,0.5-1.3,0.8-1.9c0.5-1.3,1.1-2.5,1.8-3.7
			c0.1-0.1,0.1-0.2,0.3-0.2s0.2-0.1,0.4,0s0.2,0.1,0.3,0.2c0.1,0.1,0.1,0.2,0.1,0.3v0c-0.1,1.4-0.3,2.7-0.6,4.1
			c-0.1,0.7-0.2,1.3-0.4,2c-0.1,0.7-0.3,1.3-0.4,2c-0.6,2.6-1.3,5.3-2,7.9c-0.7,2.6-1.4,5.2-2,7.8c-0.6,2.6-1.2,5.3-1.8,7.9
			c-1.2,5.3-2.2,10.6-3.2,15.9c-0.5,2.7-1,5.3-1.4,8l-0.7,4c-0.1,0.3-0.1,0.6-0.1,0.9c0,0.3-0.1,0.6-0.1,0.9c0,0.3,0,0.6,0,0.9
			l0.1,0.9c0.1,1.2,0.4,2.4,0.9,3.5c0.5,1.1,1.1,2.2,1.8,3.2c0.8,1,1.6,1.8,2.6,2.6c1,0.7,2,1.4,3.2,1.9c1.1,0.5,2.4,0.9,3.7,1.3
			c1.3,0.4,2.6,0.8,3.8,1.1c2.6,0.7,5.2,1.3,7.8,1.8c5.3,1,10.6,1.7,16,2.1c5.4,0.4,10.7,0.6,16.1,0.6c5.4,0,10.8-0.2,16.1-0.6
			c5.4-0.4,10.7-1.1,16-2.1c2.6-0.5,5.2-1.1,7.8-1.8c1.3-0.3,2.6-0.7,3.8-1.1c1.3-0.4,2.6-0.8,3.7-1.3c1.1-0.5,2.2-1.1,3.2-1.9
			c1-0.8,1.8-1.6,2.6-2.6c0.7-1,1.3-2,1.8-3.2c0.4-1.1,0.7-2.3,0.9-3.5c0.1-1.2,0.1-2.4-0.1-3.6l-0.7-4c-0.5-2.7-0.9-5.3-1.4-8
			c-0.5-2.7-1-5.3-1.5-8c-0.5-2.7-1.1-5.3-1.7-7.9c-1.2-5.3-2.5-10.5-3.7-15.8c-1.3-5.3-2.5-10.5-3.4-15.9c0-0.1,0-0.2,0.1-0.3
			c0.1-0.1,0.2-0.2,0.3-0.2c0.1,0,0.2,0,0.4,0C316.1,236.6,316.2,236.7,316.2,236.8L316.2,236.8z"/>
		<path class="st1" d="M332.7,179.1c-0.2,0-0.3,0-0.5-0.1c-0.2-0.1-0.3-0.1-0.4-0.3c-0.1-0.1-0.2-0.2-0.3-0.4
			c-0.1-0.2-0.1-0.3-0.1-0.5l-1.7-36.4c0-0.2,0-0.3,0.1-0.5c0.1-0.2,0.1-0.3,0.3-0.4c0.1-0.1,0.2-0.2,0.4-0.3
			c0.2-0.1,0.3-0.1,0.5-0.1c3.5-0.2,7,1.1,9.6,3.5c2.6,2.4,4.2,5.7,4.3,9.2l0.6,12.4c0.1,1.7-0.2,3.5-0.8,5.1
			c-0.6,1.6-1.5,3.2-2.7,4.4c-1.2,1.3-2.6,2.3-4.2,3.1C336.2,178.6,334.4,179.1,332.7,179.1z"/>
		<path class="st3" d="M332.6,179.4c-0.4,0-0.8-0.2-1.1-0.4c-0.3-0.3-0.5-0.7-0.5-1.1l-1.7-36.4c0-0.2,0-0.4,0.1-0.6
			c0.1-0.2,0.2-0.4,0.3-0.5c0.1-0.2,0.3-0.3,0.5-0.4s0.4-0.1,0.6-0.1c1.8-0.1,3.6,0.2,5.2,0.8c1.7,0.6,3.2,1.5,4.5,2.7
			c1.3,1.2,2.4,2.7,3.1,4.3c0.8,1.6,1.2,3.4,1.3,5.1l0.6,12.4C346,172.7,340.2,179.1,332.6,179.4
			C332.7,179.4,332.7,179.4,332.6,179.4z M331.5,140.5c-0.2,0-0.4,0-0.6,0c-0.3,0-0.5,0.1-0.7,0.3c-0.2,0.2-0.3,0.4-0.3,0.7
			l1.7,36.4c0,0.3,0.1,0.5,0.3,0.7c0.2,0.2,0.4,0.3,0.7,0.3c7.2-0.3,12.7-6.4,12.4-13.6l-0.6-12.4c-0.2-3.3-1.6-6.5-4-8.8
			C338.1,141.8,334.9,140.5,331.5,140.5z"/>
		<g class="st4">
			<path class="st5" d="M345.1,159.4l0.3,5.8c0.2,3.5-1.1,7-3.5,9.6c-2.4,2.6-5.7,4.2-9.2,4.3c-0.3,0-0.7-0.1-0.9-0.3
				c-0.2-0.2-0.4-0.5-0.4-0.9l-0.4-9.7c0.1,0.2,0.3,0.4,0.5,0.5s0.5,0.2,0.7,0.2l0.9,0c2.8-0.1,5.4-1.1,7.6-2.8
				C342.7,164.4,344.3,162.1,345.1,159.4z"/>
		</g>
		<path class="st3" d="M332.6,180.8c-0.8,0-1.5-0.3-2-0.8c-0.5-0.5-0.9-1.2-0.9-2l-1.7-36.4c0-0.4,0-0.8,0.2-1.1
			c0.1-0.4,0.3-0.7,0.6-1c0.3-0.3,0.6-0.5,0.9-0.7c0.3-0.2,0.7-0.3,1.1-0.3c4-0.2,7.8,1.2,10.8,3.9c2.9,2.7,4.7,6.4,4.9,10.4
			l0.6,12.4c0.4,8.2-6,15.2-14.2,15.6L332.6,180.8z M331.4,141.8l1.6,35.6c6.2-0.5,11-5.8,10.7-12.1l-0.6-12.4
			c-0.1-3-1.4-5.8-3.6-7.9C337.3,142.9,334.4,141.8,331.4,141.8z"/>
		<path class="st1" d="M210.7,145.7c0.2,0,0.3,0,0.5,0.1c0.2,0.1,0.3,0.1,0.4,0.3c0.1,0.1,0.2,0.2,0.3,0.4c0.1,0.2,0.1,0.3,0.1,0.5
			l1.7,36.4c0,0.2,0,0.3-0.1,0.5c-0.1,0.2-0.1,0.3-0.3,0.4c-0.1,0.1-0.2,0.2-0.4,0.3c-0.2,0.1-0.3,0.1-0.5,0.1
			c-3.5,0.2-7-1.1-9.6-3.5c-2.6-2.4-4.2-5.7-4.3-9.2l-0.6-12.4c-0.1-1.7,0.2-3.5,0.8-5.1c0.6-1.6,1.5-3.1,2.7-4.4
			c1.2-1.3,2.6-2.3,4.2-3.1C207.2,146.2,208.9,145.8,210.7,145.7z"/>
		<path class="st3" d="M211.8,185c-3.5,0-6.8-1.4-9.4-3.8c-2.5-2.4-4-5.7-4.2-9.2l-0.6-12.4c-0.3-7.5,5.5-13.8,12.9-14.2
			c0.4,0,0.8,0.1,1.1,0.4c0.3,0.3,0.5,0.7,0.5,1.1l1.7,36.4c0,0.4-0.1,0.8-0.4,1.1c-0.3,0.3-0.7,0.5-1.1,0.5
			C212.2,185,212,185,211.8,185z M210.7,146L210.7,146c-7.2,0.3-12.7,6.4-12.4,13.6l0.6,12.4c0.2,3.4,1.7,6.7,4.2,9
			c2.5,2.3,5.9,3.5,9.3,3.4c0.3,0,0.5-0.1,0.7-0.3c0.2-0.2,0.3-0.4,0.3-0.7l-1.7-36.4c0-0.2-0.1-0.5-0.3-0.7
			C211.2,146.1,211,146,210.7,146L210.7,146z"/>
		<g class="st4">
			<path class="st5" d="M213.2,173.2l0.5,10.1c0,0.3-0.1,0.7-0.3,0.9c-0.2,0.2-0.5,0.4-0.9,0.4c-1.7,0.1-3.5-0.2-5.1-0.8
				c-1.6-0.6-3.1-1.5-4.4-2.7c-1.3-1.2-2.3-2.6-3.1-4.2c-0.7-1.6-1.2-3.3-1.2-5l-0.2-5.2c1.2,2.3,3,4.2,5.2,5.5
				c2.2,1.3,4.7,1.9,7.3,1.8l1.3-0.1c0.2,0,0.5-0.1,0.6-0.2C212.9,173.6,213.1,173.4,213.2,173.2z"/>
		</g>
		<path class="st3" d="M211.8,186.3c-3.8,0-7.5-1.5-10.3-4.1c-2.8-2.7-4.4-6.3-4.6-10.1l-0.6-12.4c-0.4-8.2,6-15.2,14.2-15.6
			c0.4,0,0.8,0,1.1,0.2c0.4,0.1,0.7,0.3,1,0.6c0.3,0.3,0.5,0.6,0.7,0.9c0.2,0.3,0.3,0.7,0.3,1.1l1.7,36.4c0,0.4,0,0.8-0.2,1.1
			c-0.1,0.4-0.3,0.7-0.6,1c-0.3,0.3-0.6,0.5-0.9,0.7c-0.3,0.2-0.7,0.3-1.1,0.3C212.3,186.3,212.1,186.3,211.8,186.3z M210.3,147.4
			c-6.2,0.5-11,5.8-10.7,12.1l0.6,12.4c0.1,3,1.4,5.9,3.6,7.9c2.2,2.1,5.1,3.2,8.1,3.2L210.3,147.4z"/>
		<g class="st4">
			<path class="st5" d="M318.6,210.6c-1,1.2-2,2.3-3.1,3.3c-1.5,1.5-3.1,2.9-4.8,4.3c-11.8,9.6-26.8,14.4-42,13.7
				c-15.2-0.7-29.6-7-40.5-17.7c-1.2-1.1-2.3-2.3-3.4-3.6c3.8-3.6,8.9-5.6,14.1-5.5h65.6C309.8,205.2,314.8,207.1,318.6,210.6z"/>
		</g>
		<path class="st1" d="M271.7,224.6c34.3,0,62.2-27.8,62.2-62.1c0-34.3-27.8-62.1-62.2-62.1c-34.3,0-62.2,27.8-62.2,62.1
			C209.5,196.7,237.4,224.6,271.7,224.6z"/>
		<path class="st3" d="M271.7,224.9c-0.5,0-1.1,0-1.6,0c-16.7-0.4-32.2-7.3-43.7-19.4c-11.5-12.1-17.6-27.9-17.2-44.6
			c0.4-16.7,7.3-32.2,19.4-43.7c12.1-11.5,27.9-17.6,44.6-17.2c16.7,0.4,32.2,7.3,43.7,19.4s17.6,27.9,17.2,44.6
			C333.3,197.9,305.4,224.9,271.7,224.9z M271.6,100.6c-15.9,0-31,6-42.6,17c-12,11.4-18.8,26.7-19.2,43.3
			c-0.9,34.1,26.2,62.5,60.3,63.4c0.5,0,1.1,0,1.6,0c33.4,0,61-26.7,61.8-60.3l0.3,0l-0.3,0c0.4-16.5-5.6-32.2-17-44.2
			c-11.4-12-26.8-18.8-43.3-19.2C272.7,100.6,272.2,100.6,271.6,100.6z"/>
		<g class="st4">
			<path class="st5" d="M333.4,155.4c0.3,2.9,0.5,5.7,0.4,8.6c-0.9,34.3-29.4,61.4-63.7,60.6s-61.4-29.4-60.6-63.7
				c0-1,0.1-2,0.1-2.9c3.4,30.3,28.8,54.3,60.2,55.1C303.2,213.8,331.1,188.3,333.4,155.4z"/>
		</g>
		<path class="st3" d="M271.7,226.2c-0.5,0-1.1,0-1.6,0c-17-0.4-32.9-7.5-44.6-19.8c-11.7-12.3-18-28.5-17.6-45.6
			c0.4-17,7.5-32.9,19.8-44.6c12.4-11.7,28.5-18,45.6-17.6c17,0.4,32.9,7.5,44.6,19.8s18,28.5,17.6,45.6
			C334.6,198.7,306.2,226.2,271.7,226.2z M271.6,101.9c-15.6,0-30.3,5.9-41.6,16.7c-11.7,11.1-18.4,26.2-18.8,42.3
			c-0.8,33.3,25.6,61.1,59,62c33.3,0.8,61.2-25.6,62-58.9l1.7,0l-1.7,0c0.8-33.3-25.6-61.1-59-62
			C272.7,101.9,272.2,101.9,271.6,101.9z"/>
		<path class="st3" d="M333.6,165.6c-0.1,12.2-4.2,23.4-11,32.7c-5.1,7-26.1,19-51.8,19c-23.8,0-45.4-12.9-50.4-20
			c-6.7-9.4-10.5-20.7-10.4-32.9c0.3-32.2,28.1-45.2,62.2-44.9C306.4,119.8,333.9,133.4,333.6,165.6z"/>
		<path class="st3" d="M270.9,218.9L270.9,218.9c-24.8,0-46.6-13.3-51.8-20.7c-7.1-10-10.8-21.8-10.7-33.9
			c0.2-15.8,6.6-27.9,19.2-36c11-7.1,26.4-10.7,44.7-10.5c18.3,0.2,33.6,4.1,44.5,11.4c12.4,8.4,18.6,20.6,18.5,36.4
			c-0.1,12.1-4,23.8-11.4,33.7C318.8,206.1,298.1,218.9,270.9,218.9z M271.1,121.1c-18.6,0-59,4.5-59.4,43.3
			c-0.1,11.4,3.4,22.5,10.1,31.9c4.8,6.7,25.8,19.3,49,19.3h0.1c25.7,0,45.8-12.1,50.3-18.3c6.9-9.3,10.6-20.3,10.7-31.7
			c0.1-14.6-5.6-25.9-17-33.6c-10.3-6.9-25-10.7-42.7-10.8C271.9,121.1,271.5,121.1,271.1,121.1z"/>
		<g class="st6">
			<path class="st7" d="M321.4,162.5c1.1-6-1.4-11.5-5.8-12.3c-4.3-0.8-8.8,3.3-9.9,9.3c-1.1,6,1.4,11.5,5.8,12.3
				C315.8,172.6,320.2,168.5,321.4,162.5z"/>
		</g>
		<g class="st6">
			<path class="st7" d="M307.7,184.1c0.9-2.6-0.2-5.4-2.5-6.2c-2.3-0.8-4.8,0.7-5.7,3.4c-0.9,2.6,0.2,5.4,2.5,6.2
				C304.2,188.2,306.8,186.7,307.7,184.1z"/>
		</g>
		<g class="st4">
			<path class="st8" d="M321.9,135.4c7.5,7.3,11.8,17.2,11.7,30.1c-0.1,12.2-4.2,23.4-11,32.7c-5.1,7-26.1,19-51.8,19
				c-9.1,0-17.8-1.9-25.4-4.6c31.6-0.6,57.1-15.4,63.4-24.1c8.7-11.8,13.8-26.1,14-41.5C322.8,143.2,322.5,139.3,321.9,135.4z"/>
		</g>
		<path class="st3" d="M328.6,139c-0.4,0-0.8-0.1-1.1-0.4c0,0,0,0,0,0l-0.1-0.1l-0.1-0.2c-10.3-14.8-30.4-23.4-55.2-23.6
			c-0.4,0-0.7,0-1.1,0c-24.4,0-44.3,8.4-54.6,23.3l-0.1,0.1c-0.3,0.3-0.7,0.5-1.1,0.6c-0.4,0-0.9-0.1-1.2-0.3
			c-0.3-0.3-0.6-0.7-0.6-1.1c-0.1-0.4,0.1-0.9,0.3-1.2c11.1-15.9,32.3-24.9,58.4-24.6c25.8,0.3,46.9,9.3,57.8,24.9
			c0.2,0.2,0.3,0.5,0.4,0.9c0,0.3,0,0.6-0.1,0.9c-0.1,0.3-0.3,0.5-0.6,0.7C329.2,138.9,328.9,139,328.6,139L328.6,139z"/>
		<g class="st6">
			<path class="st7" d="M223.7,183.6c0,0-9.7-31.8,7.6-44.3c17.2-12.5,41.9-12.2,41.3-10.6c0,0-27.3,6.3-38.2,27.8
				C226,173,223.7,183.6,223.7,183.6z"/>
		</g>
		<path class="st1" d="M297.9,252c11-0.5,16.8,1,22.6,4c3.6,1.9,6.6,4.3,6.7,11c0.1,4.9-2.9,7.4-2.9,7.4s-12.9-6.8-28.7-6.2
			C292.1,268.3,291.8,252.3,297.9,252z"/>
		<g class="st4">
			<path class="st5" d="M327.2,267c0.1,4.9-2.9,7.4-2.9,7.4s-12.9-6.8-28.7-6.2c-2,0.1-3-5.4-2.2-10c0.4,2.1,1.1,3.5,2.2,3.5
				c11-0.4,20.7,2.8,25.5,4.8c2.4,1,5.1-0.3,5.8-2.8c0,0,0-0.1,0-0.1C327.1,264.7,327.2,265.9,327.2,267z"/>
		</g>
		<path class="st3" d="M324.4,276.3l-0.9-0.5c-0.1-0.1-12.8-6.6-27.9-6h-0.1c-2.3,0-3.8-2.8-4-7.4c-0.2-5.6,1.6-11.7,6.3-12
			c11.8-0.5,17.7,1.2,23.4,4.2c4.4,2.3,7.4,5.3,7.5,12.4c0.1,5.6-3.4,8.5-3.5,8.6L324.4,276.3z M297.5,266.6
			c12.7,0,23.1,4.4,26.5,5.9c0.7-0.9,1.8-2.7,1.7-5.4c-0.1-6.2-2.7-8.1-5.8-9.7c-5.2-2.7-10.7-4.3-21.8-3.8
			c-1.4,0.1-2.2,1.9-2.6,3.1c-1.2,3.9-0.5,9,0.3,10C296.3,266.6,296.9,266.6,297.5,266.6z"/>
		<path class="st1" d="M246,252c-11-0.5-16.8,1-22.6,4c-3.6,1.9-6.6,4.3-6.7,11c-0.1,4.9,2.9,7.4,2.9,7.4s12.9-6.8,28.7-6.2
			C251.8,268.3,252.2,252.3,246,252z"/>
		<path class="st3" d="M219.5,276.3l-0.8-0.7c-0.1-0.1-3.6-3-3.5-8.6c0.1-7.1,3.1-10.1,7.5-12.4c5.7-3,11.6-4.7,23.4-4.2
			c4.6,0.2,6.5,6.3,6.3,12c-0.2,4.7-1.7,7.5-4.1,7.4c-15.1-0.5-27.8,6-27.9,6L219.5,276.3z M242.1,253.5c-8.6,0-13.4,1.5-18,3.9
			c-3.1,1.6-5.7,3.5-5.8,9.7c-0.1,2.7,1,4.5,1.7,5.4c3.5-1.6,14.7-6.3,28.2-5.9c0.9-0.9,1.6-6,0.3-10c-0.4-1.1-1.2-3-2.6-3.1
			C244.6,253.5,243.3,253.5,242.1,253.5L242.1,253.5z"/>
		<path class="st9" d="M307.3,329.3c-0.1,0.1-0.1,0.3-0.1,0.4L307.3,329.3z"/>
		<g class="st4">
			<path class="st5" d="M216.6,267c-0.1,4.9,2.9,7.4,2.9,7.4s12.9-6.8,28.7-6.2c2,0.1,3-5.4,2.2-10c-0.4,2.1-1.1,3.5-2.2,3.5
				c-11-0.4-20.7,2.8-25.5,4.8c-2.4,1-5.1-0.3-5.8-2.8c0,0,0-0.1,0-0.1C216.7,264.7,216.6,265.9,216.6,267z"/>
		</g>
		<path class="st1" d="M289.4,278.3h-35c-1.8,0-3.6-0.6-5-1.6s-2.6-2.5-3.1-4.2l-1.7-5.1h54.7l-1.7,5.1c-0.6,1.7-1.7,3.2-3.1,4.2
			C293,277.7,291.2,278.3,289.4,278.3z"/>
		<g class="st4">
			<path class="st5" d="M289.4,278.3h-35c-1.8,0-3.6-0.6-5-1.6s-2.6-2.5-3.1-4.2l-1.7-5.1h54.7l-1.7,5.1c-0.6,1.7-1.7,3.2-3.1,4.2
				C293,277.7,291.2,278.3,289.4,278.3z"/>
		</g>
		<path class="st3" d="M289.4,279.8h-35c-2.1,0-4.2-0.7-5.9-1.9c-1.7-1.2-3-3-3.7-5l-1.7-5.1c-0.1-0.2-0.1-0.5-0.1-0.7
			c0-0.2,0.1-0.5,0.3-0.7c0.1-0.2,0.3-0.4,0.6-0.5s0.5-0.2,0.7-0.2h54.7c0.3,0,0.5,0.1,0.7,0.2c0.2,0.1,0.4,0.3,0.6,0.5
			c0.1,0.2,0.2,0.4,0.3,0.7c0,0.2,0,0.5-0.1,0.7l-1.7,5.1c-0.7,2-2,3.8-3.7,5C293.6,279.2,291.6,279.8,289.4,279.8z M246.8,268.9
			l1,3c0.5,1.4,1.4,2.6,2.6,3.5c1.2,0.9,2.6,1.3,4.1,1.3h35c1.5,0,2.9-0.5,4.1-1.3c1.2-0.9,2.1-2.1,2.6-3.5l1-3H246.8z"/>
		<path class="st1" d="M292.2,272.7h-40.6c-0.9,0-1.8-0.2-2.7-0.6c-0.8-0.4-1.6-0.9-2.2-1.6s-1.1-1.5-1.4-2.4
			c-0.3-0.9-0.4-1.8-0.3-2.7l2.4-23.5c0.2-1.6,0.9-3.2,2.2-4.3c1.2-1.1,2.8-1.7,4.5-1.7h35.8c1.6,0,3.2,0.6,4.5,1.7
			c1.2,1.1,2,2.6,2.2,4.3l2.4,23.5c0.1,0.9,0,1.9-0.3,2.7c-0.3,0.9-0.8,1.7-1.4,2.4c-0.6,0.7-1.4,1.2-2.2,1.6
			C294.1,272.5,293.2,272.7,292.2,272.7z"/>
		<path class="st3" d="M292.2,274.3h-40.6c-1.2,0-2.3-0.2-3.3-0.7c-1.1-0.5-2-1.1-2.8-2c-0.8-0.9-1.4-1.9-1.7-3
			c-0.4-1.1-0.5-2.2-0.4-3.4l2.4-23.5c0.2-2,1.2-3.9,2.7-5.3s3.5-2.1,5.5-2.1h35.8c2,0,4,0.8,5.5,2.1c1.5,1.4,2.5,3.3,2.7,5.3
			l2.4,23.5c0.1,1.1,0,2.3-0.4,3.4c-0.4,1.1-0.9,2.1-1.7,3c-0.8,0.9-1.7,1.5-2.8,2C294.5,274,293.4,274.3,292.2,274.3z M254,237.5
			c-1.3,0-2.5,0.5-3.4,1.3c-0.9,0.8-1.5,2-1.6,3.2l-2.4,23.5c-0.1,0.7,0,1.4,0.2,2.1c0.2,0.7,0.6,1.3,1.1,1.8
			c0.5,0.5,1.1,0.9,1.7,1.2c0.6,0.3,1.3,0.4,2.1,0.4h40.6c0.7,0,1.4-0.1,2.1-0.4c0.6-0.3,1.2-0.7,1.7-1.2c0.5-0.5,0.8-1.1,1.1-1.8
			s0.3-1.4,0.2-2.1l-2.4-23.5c-0.1-1.2-0.7-2.4-1.6-3.2c-0.9-0.8-2.1-1.3-3.4-1.3H254z"/>
		<path class="st3" d="M268.2,274.3c-0.4,0-0.8-0.2-1.1-0.5c-0.3-0.3-0.5-0.7-0.5-1.1v-13.4c0-0.5-0.1-0.9-0.3-1.3
			c-0.2-0.4-0.5-0.8-0.9-1l-4.5-3.4c-0.8-0.6-1.4-1.3-1.8-2.2c-0.4-0.8-0.6-1.8-0.6-2.7v-12.8c0-0.4,0.2-0.8,0.5-1.1
			c0.3-0.3,0.7-0.5,1.1-0.5c0.4,0,0.8,0.2,1.1,0.5c0.3,0.3,0.5,0.7,0.5,1.1v12.8c0,0.5,0.1,0.9,0.3,1.3c0.2,0.4,0.5,0.8,0.9,1
			l4.5,3.4c0.8,0.6,1.4,1.3,1.8,2.2c0.4,0.8,0.6,1.8,0.6,2.7v13.4c0,0.4-0.2,0.8-0.5,1.1C269,274.1,268.6,274.3,268.2,274.3z"/>
		<g class="st4">
			<path class="st5" d="M296.8,245.3l2.8,20c0,2-0.8,3.8-2.2,5.2c-1.4,1.4-3.3,2.2-5.2,2.2h-40.5c-4.1,0-7.4-3.3-7.4-7.4v-8.2
				c2.9,14.1,33.5,11.6,34.8-2.8c0.5-5.1,13.5-3.8,14.1,0.4c0.7,5.6,4.5,9.2,2.9-14.1C297,241.8,296.8,243.6,296.8,245.3z"/>
		</g>
		<path class="st10" d="M292.7,252.7c0,1.7-0.7,3.3-1.9,4.5c-1.2,1.2-2.8,1.9-4.5,1.9c-1.7,0-3.3-0.7-4.5-1.9
			c-1.2-1.2-1.9-2.8-1.9-4.5c0-1,0-3.4,0-3.4s3.8-3,6.4-3c2.6,0,6.4,3.4,6.4,3.4V252.7z"/>
		<g class="st4">
			<path class="st5" d="M292.7,252.7c0,1.7-0.7,3.3-1.9,4.5c-1.2,1.2-2.8,1.9-4.5,1.9c-1.7,0-3.3-0.7-4.5-1.9
				c-1.2-1.2-1.9-2.8-1.9-4.5c0-1,0-3.4,0-3.4s3.8-3,6.4-3c2.6,0,6.4,3.4,6.4,3.4V252.7z"/>
		</g>
		<path class="st3" d="M286.3,260.3c-2,0-3.9-0.8-5.4-2.2c-1.4-1.4-2.2-3.3-2.2-5.4c0-1,0-3.4,0-3.4v-0.6l0.5-0.4
			c0.4-0.3,4.2-3.2,7.1-3.2c2.9,0,6.8,3.3,7.2,3.7l0.4,0.4v3.5c0,2-0.8,3.9-2.2,5.4C290.2,259.5,288.3,260.3,286.3,260.3z
			 M281.1,249.8c0,0.8,0,2.2,0,2.8c0,1.4,0.5,2.7,1.5,3.7c1,1,2.3,1.5,3.7,1.5c1.4,0,2.7-0.5,3.7-1.5c1-1,1.5-2.3,1.5-3.7v-2.5
			c-1.4-1.2-3.8-2.7-5.2-2.7C284.9,247.5,282.5,248.8,281.1,249.8z"/>
		<path class="st10" d="M290.8,254.2c2.5-2.5,2.5-6.5,0-9c-2.5-2.5-6.5-2.5-9,0c-2.5,2.5-2.5,6.5,0,9
			C284.2,256.7,288.3,256.7,290.8,254.2z"/>
		<g class="st6">
			<path class="st7" d="M292.7,249.7c0,0.4,0,0.7-0.1,1.1c-0.3-1.5-1-2.8-2.2-3.8c-1.2-1-2.6-1.5-4.1-1.5c-1.5,0-3,0.5-4.1,1.5
				c-1.1,1-1.9,2.3-2.2,3.8c-0.1-0.4-0.1-0.7-0.1-1.1c0-1.7,0.7-3.3,1.9-4.5c1.2-1.2,2.8-1.9,4.5-1.9c1.7,0,3.3,0.7,4.5,1.9
				C292,246.4,292.7,248,292.7,249.7z"/>
		</g>
		<g class="st4">
			<path class="st5" d="M292.7,249.7c0,1.7-0.7,3.3-1.9,4.5c-1.2,1.2-2.8,1.9-4.5,1.9c-1.7,0-3.3-0.7-4.5-1.9
				c-1.2-1.2-1.9-2.8-1.9-4.5c0-0.8,0.1-1.6,0.4-2.3c0.5,1.2,1.3,2.2,2.3,3c1.1,0.7,2.3,1.1,3.6,1.1c1.3,0,2.5-0.4,3.6-1.1
				c1.1-0.7,1.9-1.8,2.3-3C292.5,248.1,292.7,248.9,292.7,249.7z"/>
		</g>
		<path class="st3" d="M286.3,257.3c-1.5,0-3-0.4-4.2-1.3c-1.2-0.8-2.2-2-2.8-3.4s-0.7-2.9-0.4-4.4c0.3-1.5,1-2.8,2.1-3.9
			s2.4-1.8,3.9-2.1c1.5-0.3,3-0.1,4.4,0.4c1.4,0.6,2.6,1.5,3.4,2.8c0.8,1.2,1.3,2.7,1.3,4.2c0,2-0.8,3.9-2.2,5.4
			C290.2,256.4,288.3,257.2,286.3,257.3z M286.3,244.5c-1,0-2,0.3-2.9,0.9c-0.9,0.6-1.5,1.4-1.9,2.3c-0.4,1-0.5,2-0.3,3
			c0.2,1,0.7,1.9,1.4,2.7c0.7,0.7,1.7,1.2,2.7,1.4c1,0.2,2.1,0.1,3-0.3c1-0.4,1.8-1.1,2.3-1.9c0.6-0.9,0.9-1.9,0.9-2.9
			c0-1.4-0.6-2.7-1.5-3.7C289,245,287.6,244.5,286.3,244.5L286.3,244.5z"/>
		<path class="st11" d="M315.5,374l-36.4-13.4L247.4,383c-6.4,4.5-15.1-0.2-14.8-8l1.5-38.8L203,313c-6.2-4.6-4.4-14.4,3.1-16.6
			l21.2-6c0,0,0,0,0,0c0,0,0,0,0,0l16.2-4.6l12.4-36.7c2.5-7.4,12.4-8.7,16.7-2.2l21.6,32.2l38.8,0.5c7.8,0.1,12.1,9.1,7.3,15.2
			l-24,30.5l9.5,30.4l2.1,6.6C330,369.8,322.8,376.6,315.5,374z"/>
		<g class="st12">
			<path class="st13" d="M206.9,301l21.2-6c0,0,0,0,0,0c0,0,0,0,0,0l16.2-4.6l12.4-36.8c2.5-7.4,12.4-8.7,16.7-2.2l21.6,32.2
				l38.8,0.5c3.9,0,7,2.4,8.4,5.5c0.3-5-3.6-9.9-9.3-9.9l-38.8-0.5l-21.6-32.2c-4.3-6.5-14.2-5.1-16.7,2.2l-12.4,36.7l-16.2,4.6
				c0,0,0,0,0,0c0,0,0,0,0,0l-21.2,6c-5.9,1.7-8.3,8.1-6,13C200.3,305.8,202.7,302.1,206.9,301z"/>
			<path class="st13" d="M326.5,360.2l1.6,5.2c0-1-0.1-2.1-0.4-3.1l-2.1-6.6l-8.2-26.4l-0.4,0.5L326.5,360.2z"/>
			<path class="st13" d="M234.9,340.7l-1-0.8l-1.3,35c-0.1,1.5,0.2,3,0.9,4.3L234.9,340.7z"/>
		</g>
		<g class="st4">
			<path class="st5" d="M332.9,279.6l-0.6,0c3.5,4.4,4.3,7.6-3,15.5c-5.4,5.8-13.6,14.8-19.3,21c-1.8,2-3.1,4.4-3.6,7.1
				c-0.5,2.6-0.3,5.4,0.6,7.9c3.7,10,7.2,26.2,5,29.3c-3.3,4.7-36.3-14.3-36.3-14.3s-28.9,24.8-33,20.9c-2.7-2.6-2.4-18.4-0.7-29
				c0.5-2.8,0.1-5.7-1.1-8.3c-1.2-2.6-3.1-4.8-5.5-6.4c-7.1-4.5-17.1-11.1-23.2-15.9c-4.1-3.2-6.1-7.8-4.6-11.5l-1.8,0.5
				c-7.5,2.1-9.3,11.9-3.1,16.6l31.1,23.2l-1.5,38.8c0,0.2,0,0.5,0,0.7c0-0.2,0-0.5,0-0.7l0-1.2c1.9,5.6,9,8.4,14.3,4.6l31.7-22.4
				l36.4,13.4c5.9,2.1,11.7-1.8,12.5-7.3l0.1,0.4l-2.1-6.6l-9.5-30.4l24-30.5C345,288.7,340.7,279.7,332.9,279.6z"/>
		</g>
		<path class="st3" d="M242,386.6c-1.5,0-3-0.3-4.4-0.9c-1.4-0.6-2.6-1.5-3.7-2.5c-1-1.1-1.9-2.4-2.4-3.8c-0.5-1.4-0.8-2.9-0.7-4.4
			l1.4-37.8l-30.3-22.6c-1.7-1.3-3-3-3.7-4.9c-0.8-2-1-4.1-0.6-6.1c0.4-2.1,1.3-4,2.7-5.5c1.4-1.6,3.2-2.7,5.2-3.2l36.4-10.3
			l12.1-35.8c0.7-2,1.9-3.7,3.5-5.1c1.6-1.3,3.6-2.2,5.7-2.5s4.2,0,6.1,0.9c1.9,0.9,3.5,2.2,4.7,4l21.1,31.4l37.8,0.5
			c2.1,0,4.1,0.6,5.9,1.8c1.8,1.1,3.2,2.7,4.1,4.6c0.9,1.9,1.3,4,1,6.1c-0.2,2.1-1,4.1-2.3,5.7l-23.4,29.7l11.2,36.1
			c0.6,2,0.7,4.1,0.1,6.2c-0.5,2-1.6,3.9-3.1,5.3s-3.4,2.4-5.5,2.9c-2.1,0.4-4.2,0.3-6.1-0.5l-35.5-13l-30.9,21.9
			C246.6,385.9,244.3,386.6,242,386.6z M264.7,244.6c-0.4,0-0.7,0-1.1,0.1c-2.9,0.4-5.2,2.3-6.2,5.1l-12.8,37.7l-38.3,10.9
			c-2.8,0.8-4.8,3-5.4,5.9c-0.5,2.9,0.6,5.7,2.9,7.4l31.9,23.8l-1.5,39.7c-0.1,2.9,1.4,5.5,3.9,6.9c2.6,1.4,5.6,1.2,7.9-0.5l32.5-23
			l37.3,13.7c2.8,1,5.7,0.4,7.8-1.6c2.1-2,2.9-4.9,2-7.7l-11.8-38l24.6-31.3c1.8-2.3,2.1-5.3,0.9-7.9c-1.3-2.6-3.8-4.2-6.7-4.3
			l-39.8-0.5L271,248C269.5,245.8,267.2,244.6,264.7,244.6z"/>
	</g>
</g>
<path class="st14" d="M118.7,67c-1.7-0.8-2.4-2.9-1.6-4.6c0.8-1.7,2.9-2.4,4.6-1.6c1.7,0.8,2.4,2.9,1.6,4.6
	C122.5,67.1,120.4,67.8,118.7,67z"/>
<path class="st14" d="M414.7,48c-1.7-0.8-2.4-2.9-1.6-4.6c0.8-1.7,2.9-2.4,4.6-1.6c1.7,0.8,2.4,2.9,1.6,4.6
	C418.5,48.1,416.4,48.8,414.7,48z"/>
<path class="st14" d="M447.6,130.1c-1.1-0.5-1.5-1.8-1-2.9c0.5-1.1,1.8-1.5,2.9-1s1.5,1.8,1,2.9C450,130.2,448.7,130.6,447.6,130.1z
	"/>
<path class="st14" d="M67.9,161.6c-0.8-0.4-1.1-1.4-0.7-2.2s1.4-1.1,2.2-0.7c0.8,0.4,1.1,1.4,0.7,2.2S68.7,162,67.9,161.6z"/>
<path class="st15" d="M56.6,222.3c-0.1,0.9,1.8,1.9,4.6,2.5c0.7,0.2,1.3,0.5,1.8,1.1c0.5,0.5,0.8,1.2,0.8,1.9c0.3,2.9,1,4.9,1.9,4.9
	c0.9,0.1,1.9-1.8,2.5-4.6c0.2-0.7,0.5-1.3,1.1-1.8c0.5-0.5,1.2-0.8,1.9-0.8c2.9-0.3,4.9-1,4.9-1.9c0.1-0.9-1.8-1.9-4.6-2.5
	c-0.7-0.2-1.3-0.5-1.8-1.1c-0.5-0.5-0.8-1.2-0.8-1.9c-0.3-2.9-1-4.9-1.9-4.9c-0.9-0.1-1.9,1.8-2.5,4.6c-0.2,0.7-0.5,1.3-1.1,1.8
	c-0.5,0.5-1.2,0.8-1.9,0.8C58.7,220.7,56.7,221.4,56.6,222.3z"/>
<path class="st16" d="M383.9,106.8c0.1-1.9,1.7-3.4,3.6-3.3c1.9,0.1,3.4,1.7,3.3,3.6c-0.1,1.9-1.7,3.4-3.6,3.3
	C385.4,110.3,383.9,108.8,383.9,106.8z"/>
<path class="st15" d="M189.1,94.5c-1.4-0.1-2.4-1.3-2.4-2.7c0.1-1.4,1.3-2.4,2.7-2.4s2.4,1.3,2.4,2.7
	C191.7,93.5,190.5,94.6,189.1,94.5z"/>
<path class="st17" d="M466.7,241L466.7,241c-1.5-0.6-2.6-1.2-3.3-1.7c-0.3-0.2-0.5-0.4-0.6-0.5c0.2-0.1,0.4-0.2,0.8-0.2
	c0.9-0.2,2.1-0.2,3.7-0.1l0,0c1,0.1,2.1-0.2,3-0.7c0.9-0.6,1.6-1.4,2-2.3l0,0c0.6-1.5,1.2-2.6,1.7-3.3c0.2-0.3,0.4-0.5,0.5-0.6
	c0.1,0.2,0.2,0.4,0.2,0.8c0.2,0.9,0.2,2.1,0.1,3.7c-0.1,1,0.2,2.1,0.7,3c0.6,0.9,1.4,1.6,2.3,2l0,0c1.5,0.6,2.6,1.2,3.3,1.7
	c0.3,0.2,0.5,0.4,0.6,0.5c-0.2,0.1-0.4,0.2-0.8,0.2c-0.9,0.2-2.2,0.2-3.7,0.1c-1-0.1-2.1,0.2-3,0.7c-0.9,0.6-1.6,1.4-2,2.3l0,0
	c-0.6,1.5-1.2,2.6-1.7,3.3c-0.2,0.3-0.4,0.5-0.5,0.6c-0.1-0.2-0.2-0.4-0.2-0.7c-0.2-0.9-0.2-2.1-0.1-3.7L466.7,241z M466.7,241
	c1,0.4,1.8,1.1,2.3,2 M466.7,241l2.3,2 M469,243c0.6,0.9,0.8,1.9,0.7,3L469,243z M470.2,250.6C470.2,250.6,470.2,250.6,470.2,250.6
	C470.2,250.6,470.2,250.6,470.2,250.6z M469.9,250.6C469.9,250.6,469.9,250.6,469.9,250.6C469.9,250.6,469.9,250.6,469.9,250.6z
	 M482,243.1C482,243.1,482,243.1,482,243.1C482,243.1,482,243.1,482,243.1z M481.9,243.4C481.9,243.4,481.9,243.4,481.9,243.4
	C481.9,243.4,481.9,243.4,481.9,243.4z M474.4,231.3C474.4,231.3,474.4,231.3,474.4,231.3C474.4,231.3,474.4,231.3,474.4,231.3z
	 M474.7,231.4C474.7,231.4,474.7,231.3,474.7,231.4C474.7,231.3,474.7,231.3,474.7,231.4z M462.6,238.8
	C462.6,238.8,462.6,238.8,462.6,238.8C462.6,238.8,462.6,238.8,462.6,238.8z M462.7,238.6C462.7,238.6,462.7,238.6,462.7,238.6
	C462.7,238.6,462.7,238.6,462.7,238.6z"/>
</svg>
