<?xml version="1.0" encoding="utf-8"?>
<!-- Generator: Adobe Illustrator 25.1.0, SVG Export Plug-In . SVG Version: 6.00 Build 0)  -->

<svg version="1.1" id="Camada_1" data-name="Camada 1" xmlns="http://www.w3.org/2000/svg" viewBox="0 0 96 76" width="96" height="76" fill="none" style="enable-background:new 0 0 1905 220;" xml:space="preserve">
<path d="M49.168 73.0929C68.8089 73.0929 84.731 57.1707 84.731 37.5298C84.731 17.8889 68.8089 1.9668 49.168 1.9668C29.527 1.9668 13.6049 17.8889 13.6049 37.5298C13.6049 57.1707 29.527 73.0929 49.168 73.0929Z" fill="#002D54"/>
<path d="M49.1679 75.0587C28.4745 75.0587 11.6385 58.2227 11.6385 37.5293C11.6385 16.8359 28.4745 0 49.1679 0C69.8613 0 86.6972 16.8373 86.6972 37.5293C86.6972 58.2214 69.8613 75.0587 49.1679 75.0587ZM49.1679 3.93258C30.6424 3.93258 15.5712 19.0038 15.5712 37.5293C15.5712 56.0548 30.6424 71.1247 49.1679 71.1247C67.6934 71.1247 82.7702 56.052 82.7702 37.5293C82.7702 19.0066 67.6934 3.93258 49.1679 3.93258Z" fill="#2F5679"/>
<g opacity="0.5">
<path opacity="0.5" d="M54.5286 16.213C47.7411 21.304 40.9814 16.4286 40.6866 16.213C40.3379 15.9621 39.9047 15.858 39.48 15.9233C39.0554 15.9885 38.6734 16.2178 38.4161 16.5619C38.1588 16.9059 38.0468 17.3372 38.1042 17.7629C38.1616 18.1887 38.3839 18.5749 38.7231 18.8385C40.5309 20.1943 43.9337 21.781 47.8607 21.781C50.5724 21.781 53.5357 21.0231 56.3962 18.9108L69.2508 11.9314C69.5627 11.7605 69.8103 11.4924 69.9558 11.1679C69.0992 10.4921 68.2111 9.85802 67.2915 9.26562L54.7302 16.0795C54.6601 16.1194 54.5927 16.164 54.5286 16.213Z" fill="#002D54"/>
</g>
<g opacity="0.5">
<path opacity="0.5" d="M16.4389 40.5874C16.7487 40.0241 17.0933 39.4807 17.4708 38.9604C19.7738 35.7328 23.0172 33.295 26.7579 31.9804C30.4986 30.6657 34.5541 30.5382 38.37 31.6153C44.3968 33.3173 55.5939 35.3198 62.8611 29.6128C63.203 29.3445 63.4243 28.9514 63.4763 28.5199C63.5283 28.0884 63.4068 27.6539 63.1385 27.3121C62.8702 26.9702 62.4771 26.7489 62.0456 26.6968C61.6141 26.6448 61.1797 26.7663 60.8378 27.0346C54.7094 31.8461 44.6888 29.9924 39.2613 28.4614C35.0125 27.264 30.5054 27.3414 26.3001 28.6838C22.0948 30.0262 18.3766 32.5746 15.6074 36.0123C15.5851 36.5157 15.5684 37.0205 15.5684 37.5295C15.5704 38.7747 15.6414 40.0189 15.7812 41.2562C16.0609 41.1021 16.2895 40.8696 16.4389 40.5874Z" fill="#002D54"/>
</g>
<g opacity="0.5">
<path opacity="0.5" d="M66.987 54.9397C65.1347 54.6518 63.4882 54.6198 61.9558 54.8382C55.1905 55.8116 52.4817 60.2017 52.369 60.388C52.1597 60.76 52.1037 61.199 52.2129 61.6117C52.3222 62.0244 52.5881 62.3781 52.9541 62.5978C53.3201 62.8175 53.7574 62.8858 54.173 62.7881C54.5885 62.6904 54.9496 62.4345 55.1794 62.0748C55.1989 62.0414 57.2653 58.8194 62.4189 58.0838C63.6259 57.91 64.9567 57.9448 66.485 58.1798C68.9757 58.5705 71.3859 59.3657 73.6201 60.534C74.3849 59.7238 75.108 58.876 75.7894 57.9906C73.0599 56.4587 70.0791 55.4255 66.987 54.9397Z" fill="#002D54"/>
</g>
<g opacity="0.3">
<path opacity="0.3" d="M28.6567 67.0195C33.7647 69.7213 39.4568 71.1307 45.2354 71.1245C64.8761 71.1245 80.797 55.2022 80.797 35.5615C80.8051 27.2509 77.8884 19.2025 72.5578 12.8267C72.427 18.0956 69.8962 60.3849 22.3393 61.5989C25.363 64.8815 28.9756 67.5678 32.9898 69.5184C31.4887 68.7879 30.0408 67.9529 28.6567 67.0195Z" fill="#2F5679"/>
</g>
<g opacity="0.5">
<path opacity="0.5" d="M49.1679 3.93263C43.2912 3.92831 37.5176 5.47582 32.4308 8.41868C27.8412 11.0695 23.9387 14.7616 21.0376 19.1972C17.4669 24.644 15.5672 31.0164 15.5726 37.5294C15.5726 48.8641 21.2212 58.8972 29.8443 64.9852C23.8399 59.5339 20.0145 52.0913 19.0767 44.0359C18.1388 35.9805 20.1521 27.8581 24.7436 21.1732C26.5194 20.8297 28.6372 19.6338 30.5131 17.7621C32.3209 15.9543 33.5085 13.9004 33.8937 12.1608C39.5236 8.41628 46.1549 6.46328 52.9156 6.55859C59.6764 6.6539 66.25 8.79305 71.772 12.6948C65.597 7.05205 57.5328 3.9261 49.1679 3.93263Z" fill="#002D54"/>
</g>
<path d="M47.2044 19.8118C43.2788 19.8118 39.8774 18.2251 38.0682 16.8679C37.7202 16.6077 37.4899 16.2199 37.4278 15.7899C37.3658 15.3599 37.4771 14.9228 37.7373 14.5748C37.9975 14.2268 38.3852 13.9965 38.8153 13.9344C39.2453 13.8724 39.6824 13.9837 40.0303 14.2439C40.3307 14.465 47.0862 19.3362 53.8737 14.2439C53.937 14.1956 54.0039 14.1524 54.0739 14.1145L67.0315 7.07813C67.4134 6.87067 67.8621 6.82344 68.2788 6.94679C68.6955 7.07014 69.0462 7.35399 69.2537 7.73589C69.4611 8.11779 69.5084 8.56646 69.385 8.9832C69.2616 9.39994 68.9778 9.7506 68.5959 9.95806L55.7413 16.9388C52.8808 19.0539 49.9175 19.8118 47.2044 19.8118Z" fill="#2F5679"/>
<path d="M14.3294 39.5043C14.0487 39.5037 13.7728 39.431 13.5282 39.2932C13.2837 39.1554 13.0786 38.9572 12.9326 38.7174C12.7866 38.4776 12.7046 38.2044 12.6945 37.9239C12.6844 37.6433 12.7465 37.3649 12.8748 37.1152C13.2543 36.4166 13.6784 35.7431 14.1444 35.0989C16.8397 31.3201 20.636 28.4658 25.0146 26.9259C29.3932 25.386 34.1405 25.2356 38.6077 26.4953C44.0311 28.0249 54.0572 29.8828 60.1842 25.0699C60.527 24.8132 60.9567 24.7008 61.3814 24.7568C61.806 24.8128 62.1919 25.0327 62.4565 25.3696C62.721 25.7064 62.8432 26.1335 62.7969 26.5593C62.7507 26.9851 62.5396 27.3759 62.2089 27.6481C54.9403 33.3495 43.7432 31.3526 37.7178 29.6492C33.9018 28.5723 29.8465 28.6999 26.1058 30.0145C22.3652 31.3292 19.1217 33.7668 16.8185 36.9943C16.4417 37.5158 16.0967 38.0596 15.7853 38.6227C15.6463 38.8886 15.4372 39.1114 15.1805 39.2668C14.9238 39.4222 14.6294 39.5044 14.3294 39.5043Z" fill="#2F5679"/>
<path d="M77.0689 60.9339C76.6967 60.9337 76.3357 60.8067 76.0454 60.5738C72.3006 57.5729 68.0398 56.5508 65.8343 56.2087C64.3046 55.9723 62.9752 55.9403 61.7668 56.1141C56.6133 56.8497 54.5482 60.0718 54.5357 60.1051C54.4282 60.2961 54.2836 60.4636 54.1102 60.5977C53.9369 60.7319 53.7384 60.8299 53.5266 60.886C53.3147 60.9421 53.0937 60.9551 52.8767 60.9243C52.6597 60.8936 52.4511 60.8196 52.2632 60.7068C52.0753 60.594 51.9119 60.4447 51.7827 60.2677C51.6534 60.0907 51.561 59.8895 51.5109 59.6762C51.4608 59.4628 51.4539 59.2416 51.4907 59.0255C51.5276 58.8095 51.6073 58.603 51.7253 58.4183C51.838 58.232 54.5455 53.8294 61.3107 52.8685C62.8404 52.6502 64.491 52.6835 66.3432 52.97C68.8713 53.3621 73.7621 54.5386 78.1021 58.0165C78.3686 58.2283 78.5624 58.518 78.6566 58.8451C78.7509 59.1722 78.7408 59.5205 78.628 59.8417C78.5151 60.1629 78.305 60.4409 78.0268 60.6371C77.7487 60.8334 77.4163 60.9381 77.0759 60.9367L77.0689 60.9339Z" fill="#2F5679"/>
<path d="M5.16404 54.2626C4.1525 54.2554 3.165 53.9534 2.32248 53.3936C1.47996 52.8337 0.818986 52.0404 0.420512 51.1106C0.0220366 50.1808 -0.0966399 49.155 0.0790082 48.1588C0.254656 47.1626 0.717009 46.2393 1.40944 45.5018C4.81222 41.8863 11.4704 38.5753 11.7527 38.4362C12.2969 38.1783 12.9207 38.1447 13.4895 38.3427C14.0583 38.5406 14.5265 38.9543 14.7929 39.4944C15.0594 40.0345 15.1029 40.6577 14.9139 41.2295C14.725 41.8014 14.3187 42.276 13.7829 42.551C13.7218 42.5816 7.58366 45.6339 4.75242 48.6446C4.66525 48.7367 4.60905 48.8538 4.59163 48.9795C4.57421 49.1051 4.59645 49.233 4.65525 49.3454C4.71405 49.4578 4.80647 49.5491 4.91962 49.6064C5.03277 49.6637 5.16101 49.6843 5.28642 49.6653C15.8327 48.0814 69.5318 39.3498 90.9637 22.9659C91.1124 22.8687 91.2247 22.7249 91.2831 22.5571C91.3414 22.3893 91.3426 22.2069 91.2863 22.0384C91.2344 21.8656 91.1266 21.7149 90.9799 21.61C90.8332 21.5051 90.6558 21.4518 90.4756 21.4585C87.9099 21.3542 84.8701 21.6671 81.4367 22.3943C80.8413 22.5203 80.2202 22.4045 79.7101 22.0726C79.2 21.7406 78.8426 21.2196 78.7167 20.6241C78.5907 20.0287 78.7065 19.4076 79.0385 18.8975C79.3705 18.3874 79.8915 18.0301 80.4869 17.9041C84.2944 17.099 87.718 16.7541 90.6633 16.8737C91.7837 16.9083 92.8657 17.2899 93.7598 17.9659C94.654 18.6418 95.3163 19.5787 95.6551 20.6472C95.994 21.7156 95.9927 22.863 95.6515 23.9307C95.3103 24.9984 94.646 25.9339 93.7504 26.6078C71.9807 43.2491 21.0571 51.9375 5.96779 54.2028C5.70172 54.2426 5.43308 54.2626 5.16404 54.2626Z" fill="#2F5679"/>
<path d="M40.9934 54.0667C45.2173 52.3171 47.2231 47.4746 45.4735 43.2507C43.7239 39.0268 38.8814 37.0209 34.6575 38.7705C30.4336 40.5201 28.4278 45.3626 30.1774 49.5865C31.927 53.8104 36.7695 55.8163 40.9934 54.0667Z" fill="#FFE000"/>
<path d="M37.8248 56.3302C35.8636 56.3302 33.9463 55.7486 32.3156 54.659C30.6849 53.5694 29.4139 52.0207 28.6634 50.2087C27.9128 48.3967 27.7164 46.4029 28.0991 44.4793C28.4817 42.5557 29.4261 40.7888 30.8129 39.402C32.1998 38.0152 33.9667 37.0707 35.8902 36.6881C37.8138 36.3055 39.8077 36.5018 41.6196 37.2524C43.4316 38.0029 44.9803 39.2739 46.07 40.9047C47.1596 42.5354 47.7411 44.4526 47.7411 46.4139C47.7382 49.0429 46.6925 51.5635 44.8335 53.4225C42.9744 55.2816 40.4539 56.3273 37.8248 56.3302ZM37.8248 39.7821C36.5118 39.7821 35.2283 40.1715 34.1366 40.901C33.0448 41.6304 32.1939 42.6673 31.6915 43.8803C31.189 45.0934 31.0575 46.4282 31.3137 47.716C31.5698 49.0038 32.2021 50.1867 33.1306 51.1151C34.059 52.0435 35.2419 52.6758 36.5297 52.932C37.8175 53.1881 39.1523 53.0567 40.3653 52.5542C41.5784 52.0517 42.6152 51.2008 43.3447 50.1091C44.0742 49.0174 44.4635 47.7338 44.4635 46.4208C44.4617 44.6607 43.7617 42.9732 42.5171 41.7286C41.2725 40.484 39.585 39.784 37.8248 39.7821Z" fill="#2F5679"/>
<g opacity="0.5">
<path opacity="0.5" d="M33.1524 47.7305C33.152 46.631 33.4248 45.5486 33.9463 44.5806C34.4678 43.6127 35.2217 42.7894 36.1401 42.185C37.0586 41.5805 38.1128 41.2137 39.2081 41.1175C40.3034 41.0214 41.4055 41.1989 42.4152 41.6342C41.7143 40.9613 40.8742 40.4506 39.9542 40.1381C39.0342 39.8256 38.0568 39.719 37.0911 39.8259C36.1254 39.9327 35.1949 40.2503 34.3655 40.7563C33.536 41.2623 32.8278 41.9442 32.2909 42.754C31.754 43.5638 31.4015 44.4817 31.2584 45.4427C31.1152 46.4037 31.1849 47.3844 31.4625 48.3155C31.74 49.2466 32.2187 50.1054 32.8647 50.8311C33.5106 51.5569 34.3081 52.1319 35.2008 52.5156C34.5535 51.8979 34.0383 51.1554 33.6862 50.333C33.3341 49.5105 33.1525 48.6252 33.1524 47.7305Z" fill="#002D54"/>
</g>
<g opacity="0.3">
<path opacity="0.3" d="M42.2485 39.9868C42.2485 39.9868 42.9034 50.4761 31.7592 51.7874C31.7592 51.7874 40.2822 57.0313 46.1811 49.8197C46.1811 49.8197 47.4924 41.9545 42.2485 39.9868Z" fill="#2F5679"/>
</g>
</svg>
