<?xml version="1.0" encoding="UTF-8"?>
<svg xmlns="http://www.w3.org/2000/svg" width="621" height="459" viewBox="0 0 621 459" fill="none">
  <path opacity="0.4" d="M436.969 395C481.544 358.511 510 303.067 510 240.973C510 131.084 420.903 42 311 42C201.097 42 112 131.085 112 240.973C112 303.067 140.453 358.511 185.03 395C222.132 394.268 265.143 393.849 311.003 393.849C356.863 393.849 399.868 394.268 436.969 395Z" fill="#22A7F0"></path>
  <path d="M511.752 377.043C513.724 372.823 508.192 332.987 469.616 331.202C461.984 331.167 454.468 333.079 447.775 336.758C441.369 331.022 432.8 327.16 423.227 326.213C419.724 309.434 403.038 296.719 382.964 296.719C375.925 296.691 368.976 298.313 362.672 301.455C360.657 302.465 358.305 302.546 356.142 301.876L355.755 301.76C353.774 301.202 352.056 299.955 350.908 298.242C343.857 287.348 330.562 280 315.306 280C299.241 280 285.341 288.143 278.638 299.995C272.03 296.44 264.641 294.595 257.142 294.627C234.526 294.627 216.19 310.767 216.19 330.676C216.19 331.737 216.253 332.785 216.356 333.823C202.363 336.647 190.758 344.97 184.649 356.081C176.048 346.945 163.062 341.126 148.531 341.126C123.351 341.126 102.819 358.594 101.696 380.514C100.496 380.38 99.2884 380.312 98.0804 380.309C82.0206 380.309 69 391.771 69 405.909C69 406.613 69.0403 407.31 69.1032 408H573C567.523 390.243 543.801 367.518 511.752 377.043Z" fill="white"></path>
  <path d="M509.992 88.5266C511.038 88.2419 511.655 87.1631 511.37 86.117C511.085 85.0709 510.007 84.4537 508.961 84.7384C507.914 85.0231 507.297 86.1019 507.582 87.148C507.867 88.1941 508.945 88.8113 509.992 88.5266Z" fill="#8DD7FF"></path>
  <path d="M535.451 365.367C538.115 364.642 539.687 361.894 538.962 359.229C538.237 356.565 535.489 354.993 532.824 355.718C530.16 356.443 528.588 359.191 529.313 361.856C530.038 364.52 532.786 366.092 535.451 365.367Z" fill="#8DD7FF"></path>
  <path d="M372.51 100.359C399.477 100.359 421.339 78.4973 421.339 51.5295C421.339 24.5617 399.477 2.69995 372.51 2.69995C345.542 2.69995 323.68 24.5617 323.68 51.5295C323.68 78.4973 345.542 100.359 372.51 100.359Z" fill="#FFD527"></path>
  <path d="M372.51 103.059C344.097 103.059 320.98 79.9423 320.98 51.5293C320.98 23.1164 344.097 0 372.51 0C400.922 0 424.039 23.1183 424.039 51.5293C424.039 79.9403 400.922 103.059 372.51 103.059ZM372.51 5.3996C347.073 5.3996 326.38 26.0931 326.38 51.5293C326.38 76.9656 347.073 97.6571 372.51 97.6571C397.946 97.6571 418.647 76.9618 418.647 51.5293C418.647 26.0969 397.946 5.3996 372.51 5.3996Z" fill="#000072"></path>
  <g opacity="0.5">
    <path opacity="0.5" d="M379.87 22.2612C370.551 29.2513 361.269 22.5572 360.864 22.2612C360.386 21.9167 359.791 21.7738 359.208 21.8634C358.625 21.953 358.1 22.2678 357.747 22.7402C357.394 23.2126 357.24 23.8047 357.319 24.3893C357.398 24.9739 357.703 25.5042 358.168 25.8661C360.651 27.7277 365.323 29.9062 370.715 29.9062C374.438 29.9062 378.507 28.8657 382.434 25.9654L400.084 16.3824C400.513 16.1477 400.852 15.7797 401.052 15.3341C399.876 14.4062 398.657 13.5355 397.394 12.7222L380.147 22.0779C380.051 22.1327 379.958 22.1939 379.87 22.2612Z" fill="white"></path>
  </g>
  <g opacity="0.5">
    <path opacity="0.5" d="M327.571 55.7281C327.997 54.9547 328.47 54.2086 328.988 53.4942C332.15 49.0625 336.604 45.7154 341.74 43.9103C346.876 42.1052 352.444 41.9301 357.684 43.409C365.959 45.7461 381.333 48.4955 391.311 40.6596C391.78 40.2912 392.084 39.7514 392.156 39.1589C392.227 38.5665 392.06 37.97 391.692 37.5005C391.323 37.0311 390.784 36.7273 390.191 36.6558C389.599 36.5844 389.002 36.7512 388.533 37.1196C380.118 43.726 366.36 41.1808 358.907 39.0786C353.074 37.4346 346.885 37.5408 341.111 39.384C335.337 41.2272 330.232 44.7262 326.43 49.4464C326.399 50.1375 326.376 50.8306 326.376 51.5295C326.379 53.2392 326.476 54.9475 326.668 56.6465C327.052 56.4348 327.366 56.1157 327.571 55.7281Z" fill="white"></path>
  </g>
  <g opacity="0.5">
    <path opacity="0.5" d="M396.976 75.4342C394.433 75.039 392.172 74.9951 390.068 75.2948C380.779 76.6314 377.059 82.6592 376.905 82.915C376.617 83.4258 376.54 84.0286 376.69 84.5952C376.841 85.1618 377.206 85.6475 377.708 85.9492C378.211 86.2508 378.811 86.3445 379.382 86.2104C379.952 86.0763 380.448 85.725 380.764 85.2311C380.79 85.1852 383.628 80.7613 390.704 79.7512C392.361 79.5126 394.188 79.5603 396.287 79.883C399.707 80.4194 403.016 81.5113 406.083 83.1155C407.134 82.003 408.126 80.8389 409.062 79.6233C405.314 77.5198 401.221 76.1013 396.976 75.4342Z" fill="white"></path>
  </g>
  <g opacity="0.3">
    <path opacity="0.3" d="M344.347 92.0208C351.36 95.7305 359.176 97.6657 367.11 97.6572C394.078 97.6572 415.938 75.7952 415.938 48.8277C415.949 37.4169 411.944 26.3661 404.625 17.6118C404.445 24.8463 400.97 82.9113 335.673 84.5782C339.824 89.0853 344.785 92.7737 350.296 95.4519C348.235 94.4489 346.247 93.3024 344.347 92.0208Z" fill="#000072"></path>
  </g>
  <g opacity="0.5">
    <path opacity="0.5" d="M372.51 5.40016C364.441 5.39423 356.513 7.51903 349.529 11.5597C343.227 15.1994 337.869 20.2687 333.886 26.359C328.983 33.8378 326.374 42.5873 326.382 51.5299C326.382 67.0929 334.138 80.8688 345.977 89.2279C337.733 81.743 332.481 71.524 331.193 60.4636C329.905 49.4032 332.67 38.2508 338.974 29.0722C341.412 28.6006 344.32 26.9586 346.896 24.3886C349.378 21.9064 351.009 19.0863 351.537 16.6977C359.267 11.5564 368.373 8.87486 377.655 9.00572C386.938 9.13658 395.964 12.0737 403.546 17.4309C395.067 9.68325 383.995 5.3912 372.51 5.40016Z" fill="white"></path>
  </g>
  <path d="M369.814 27.2025C364.424 27.2025 359.753 25.024 357.269 23.1604C356.791 22.8032 356.475 22.2708 356.39 21.6803C356.305 21.0898 356.458 20.4897 356.815 20.0119C357.172 19.5342 357.705 19.2179 358.295 19.1326C358.885 19.0474 359.486 19.2003 359.963 19.5575C360.376 19.8611 369.651 26.5495 378.971 19.5575C379.058 19.4913 379.15 19.4319 379.246 19.38L397.037 9.71867C397.561 9.43382 398.177 9.36897 398.75 9.53834C399.322 9.70771 399.803 10.0974 400.088 10.6218C400.373 11.1462 400.438 11.7622 400.268 12.3344C400.099 12.9066 399.709 13.3881 399.185 13.6729L381.535 23.2578C377.608 26.1619 373.539 27.2025 369.814 27.2025Z" fill="#000072"></path>
  <path d="M324.675 54.2407C324.289 54.2399 323.911 54.1401 323.575 53.9509C323.239 53.7617 322.957 53.4895 322.757 53.1603C322.557 52.8311 322.444 52.4559 322.43 52.0707C322.416 51.6856 322.501 51.3033 322.678 50.9605C323.199 50.0012 323.781 49.0764 324.421 48.1919C328.122 43.0036 333.334 39.0844 339.346 36.9701C345.358 34.8557 351.876 34.6492 358.01 36.3788C365.456 38.4791 379.223 41.03 387.635 34.4217C388.106 34.0692 388.696 33.9149 389.279 33.9917C389.862 34.0686 390.392 34.3706 390.755 34.8332C391.119 35.2957 391.286 35.882 391.223 36.4667C391.159 37.0514 390.869 37.5879 390.415 37.9617C380.435 45.79 365.061 43.0482 356.788 40.7092C351.549 39.2306 345.98 39.4058 340.844 41.2109C335.708 43.016 331.255 46.3629 328.093 50.7944C327.575 51.5105 327.101 52.2571 326.674 53.0302C326.483 53.3954 326.196 53.7012 325.843 53.9147C325.491 54.1281 325.087 54.2408 324.675 54.2407Z" fill="#000072"></path>
  <path d="M410.819 83.6653C410.308 83.665 409.812 83.4906 409.414 83.1708C404.272 79.0504 398.421 77.647 395.393 77.1773C393.293 76.8528 391.468 76.8088 389.808 77.0475C382.732 78.0575 379.897 82.4815 379.88 82.5273C379.732 82.7896 379.534 83.0196 379.296 83.2037C379.058 83.3879 378.785 83.5224 378.494 83.5994C378.203 83.6765 377.9 83.6944 377.602 83.6521C377.304 83.6099 377.018 83.5083 376.76 83.3535C376.501 83.1986 376.277 82.9936 376.1 82.7505C375.922 82.5075 375.795 82.2313 375.727 81.9384C375.658 81.6454 375.648 81.3416 375.699 81.045C375.749 80.7484 375.859 80.4649 376.021 80.2113C376.176 79.9554 379.893 73.9105 389.182 72.5911C391.282 72.2913 393.549 72.3372 396.092 72.7305C399.563 73.2689 406.278 74.8842 412.237 79.6595C412.603 79.9504 412.869 80.3481 412.999 80.7972C413.128 81.2464 413.114 81.7247 412.959 82.1656C412.804 82.6066 412.516 82.9884 412.134 83.2578C411.752 83.5272 411.296 83.671 410.828 83.6691L410.819 83.6653Z" fill="#000072"></path>
  <path d="M312.09 74.5044C310.702 74.4946 309.346 74.08 308.189 73.3113C307.032 72.5426 306.125 71.4532 305.577 70.1766C305.03 68.9 304.867 67.4915 305.108 66.1237C305.35 64.7559 305.984 63.4881 306.935 62.4756C311.607 57.5113 320.749 52.9651 321.137 52.7742C321.884 52.4201 322.741 52.3739 323.522 52.6458C324.303 52.9176 324.945 53.4855 325.311 54.2271C325.677 54.9687 325.737 55.8244 325.477 56.6096C325.218 57.3947 324.66 58.0464 323.925 58.424C323.841 58.466 315.413 62.657 311.525 66.7907C311.406 66.9172 311.328 67.078 311.304 67.2505C311.281 67.423 311.311 67.5987 311.392 67.753C311.473 67.9073 311.599 68.0326 311.755 68.1113C311.91 68.1901 312.086 68.2183 312.258 68.1921C326.739 66.0174 400.47 54.0286 429.897 31.5328C430.101 31.3993 430.255 31.2019 430.335 30.9715C430.416 30.7411 430.417 30.4906 430.34 30.2593C430.269 30.0221 430.121 29.8152 429.919 29.6711C429.718 29.527 429.474 29.4538 429.227 29.463C425.704 29.3198 421.53 29.7494 416.816 30.748C415.998 30.921 415.146 30.762 414.445 30.3062C413.745 29.8504 413.254 29.135 413.081 28.3174C412.908 27.4999 413.067 26.6471 413.523 25.9467C413.979 25.2463 414.694 24.7557 415.512 24.5828C420.74 23.4773 425.44 23.0037 429.484 23.168C431.023 23.2155 432.508 23.7395 433.736 24.6676C434.964 25.5956 435.873 26.882 436.338 28.3491C436.804 29.8161 436.802 31.3915 436.334 32.8575C435.865 34.3235 434.953 35.6079 433.723 36.5333C403.832 59.3824 333.912 71.312 313.194 74.4223C312.829 74.477 312.46 74.5044 312.09 74.5044Z" fill="#000072"></path>
  <path d="M361.286 74.2363C367.085 71.834 369.839 65.1851 367.437 59.3855C365.035 53.5859 358.386 50.8318 352.586 53.234C346.787 55.6363 344.033 62.2853 346.435 68.0849C348.837 73.8845 355.486 76.6385 361.286 74.2363Z" fill="#00BBFC"></path>
  <path d="M356.935 77.3436C354.242 77.3436 351.61 76.545 349.371 75.049C347.132 73.5529 345.387 71.4264 344.356 68.9385C343.325 66.4506 343.056 63.713 343.581 61.0718C344.107 58.4307 345.403 56.0046 347.307 54.1004C349.212 52.1963 351.638 50.8995 354.279 50.3742C356.92 49.8488 359.658 50.1184 362.146 51.149C364.633 52.1795 366.76 53.9246 368.256 56.1637C369.752 58.4027 370.551 61.0352 370.551 63.7281C370.547 67.3379 369.111 70.7987 366.558 73.3512C364.006 75.9038 360.545 77.3395 356.935 77.3436ZM356.935 54.6224C355.132 54.6224 353.37 55.157 351.871 56.1586C350.372 57.1602 349.204 58.5838 348.514 60.2494C347.824 61.915 347.643 63.7477 347.995 65.5159C348.347 67.2841 349.215 68.9083 350.49 70.183C351.764 71.4578 353.389 72.326 355.157 72.6777C356.925 73.0294 358.758 72.8489 360.423 72.159C362.089 71.4691 363.513 70.3007 364.514 68.8018C365.516 67.3028 366.05 65.5404 366.05 63.7376C366.048 61.3209 365.087 59.0039 363.378 57.295C361.669 55.5861 359.352 54.6249 356.935 54.6224Z" fill="#000072"></path>
  <g opacity="0.5">
    <path opacity="0.5" d="M350.52 65.5364C350.519 64.0267 350.894 62.5405 351.61 61.2114C352.326 59.8823 353.361 58.752 354.622 57.9221C355.883 57.0921 357.331 56.5884 358.834 56.4564C360.338 56.3244 361.851 56.5682 363.238 57.1658C362.275 56.2419 361.122 55.5407 359.859 55.1116C358.596 54.6826 357.254 54.5362 355.928 54.6829C354.602 54.8296 353.324 55.2657 352.185 55.9604C351.046 56.6551 350.074 57.5915 349.337 58.7034C348.6 59.8153 348.116 61.0755 347.919 62.395C347.723 63.7145 347.818 65.061 348.199 66.3395C348.58 67.618 349.238 68.7971 350.125 69.7936C351.012 70.7901 352.107 71.5796 353.332 72.1064C352.443 71.2584 351.736 70.2389 351.253 69.1096C350.769 67.9803 350.52 66.7648 350.52 65.5364Z" fill="white"></path>
  </g>
  <g opacity="0.3">
    <path opacity="0.3" d="M363.009 54.9031C363.009 54.9031 363.908 69.3052 348.607 71.1058C348.607 71.1058 360.309 78.3059 368.408 68.4041C368.408 68.4041 370.209 57.6048 363.009 54.9031Z" fill="#000072"></path>
  </g>
  <g clip-path="url(#clip0_1602_1036)">
    <path fill-rule="evenodd" clip-rule="evenodd" d="M308.596 386.263C320.437 387.28 332.085 389.459 343.094 393.091C351.766 395.953 360.021 399.708 367.789 404.522C351.739 405.439 324.739 405.631 308.197 402.89C300.678 401.641 293.881 400.35 293.524 393.831C293.053 385.271 303.918 385.862 308.596 386.263Z" fill="#02A9FD"></path>
    <path fill-rule="evenodd" clip-rule="evenodd" d="M309.603 423.744C309.317 441.198 324.786 446.758 340.79 447.894C316.261 454.233 283.145 458.608 276.344 432.497C287.221 430.121 298.307 427.204 309.603 423.744Z" fill="#EA1C24"></path>
    <path fill-rule="evenodd" clip-rule="evenodd" d="M212.729 392.443C192.256 413.49 156.057 399.084 156.057 369.41C156.057 339.491 192.766 325.191 213.104 346.773C212.47 347.917 208.087 350.725 206.491 352.146C204.211 349.841 201.497 348.011 198.505 346.762C195.513 345.513 192.304 344.869 189.062 344.868C167.269 344.868 156.295 371.336 171.712 386.758C175.8 390.849 181.202 393.362 186.964 393.856C192.726 394.349 198.477 392.79 203.2 389.453C206.229 391.109 209.09 391.875 212.729 392.443Z" fill="#EA1C24"></path>
    <path fill-rule="evenodd" clip-rule="evenodd" d="M109.361 311.026C130.223 339.699 123.809 379.816 95.118 400.631L94.7861 400.917C77.6508 388.908 62.182 373.639 48.5516 355.004C47.1725 353.122 46.5903 347.969 48.0437 346.277C63.4781 328.394 83.6649 316.649 109.039 310.447L109.361 311.026Z" fill="#EA1C24"></path>
    <path fill-rule="evenodd" clip-rule="evenodd" d="M184.42 221.045C180.341 220.677 176.243 221.498 172.62 223.409L173.666 218.248C177.386 218.534 181.127 218.906 184.833 219.348L184.42 221.045Z" fill="#EA1C24"></path>
    <path fill-rule="evenodd" clip-rule="evenodd" d="M174.539 264.361C173.047 269.798 171.516 267.712 169.655 266.69C164.974 264.115 164.505 259.912 165.802 255.073L174.539 264.361Z" fill="#02A9FD"></path>
    <path fill-rule="evenodd" clip-rule="evenodd" d="M149.368 180.482C149.511 191.446 147.746 198.444 140.715 207.88C139.284 203.159 135.576 199.535 131.021 196.747C135.019 191.828 135.517 187.209 134.682 182.485L149.368 180.482Z" fill="#EA1C24"></path>
    <path fill-rule="evenodd" clip-rule="evenodd" d="M124.738 199.555C129.004 201.599 132.044 203.852 133.859 206.314C135.385 208.379 136.03 210.64 135.793 213.099L131.45 215.972C128.127 217.623 124.694 218.129 121.488 217.201C105.005 212.165 105.933 177.356 123.309 163.059C135.407 153.108 146.38 160.845 148.839 174.934C142.455 176.918 135.955 177.46 129.251 176.651C124.136 175.309 119.651 180.041 118.093 185.053C116.31 190.82 117.897 198.02 122.974 199.252L124.738 199.555Z" fill="#EA1C24"></path>
    <path fill-rule="evenodd" clip-rule="evenodd" d="M330.943 358.429L314.812 345.267L309.287 341.416C324.181 335.004 349.692 348.129 365.742 357.733C355.001 354.671 337.431 350.611 330.943 358.429Z" fill="#EA1C24"></path>
    <path fill-rule="evenodd" clip-rule="evenodd" d="M199.412 386.802C186.197 394.582 169.084 385.111 169.084 369.405C169.084 351.514 190.972 342.39 203.611 355.276C196.437 363.843 191.015 377.348 199.419 386.802L199.412 386.802ZM246.923 232.907C236.193 234.286 219.42 232.983 203.147 228.261C200.165 225.304 197.097 220.679 194.801 217.174L193.684 213.384C199.804 206.893 201.499 197.946 194.724 191.615L182.833 182.549C182.833 166.985 190.245 152.246 201.408 141.083C215.178 127.313 241.828 136.961 255.257 147.258C267.072 156.67 277.717 173.928 280.424 189.834C269.042 192.087 260.168 207.607 265.615 218.941C260.507 225.19 256.575 231.669 246.923 232.907Z" fill="#381A46"></path>
    <path fill-rule="evenodd" clip-rule="evenodd" d="M283.408 189.724C278.566 159.062 253.81 135.629 223.447 132.068C259.22 135.521 282.003 154.312 286.859 190.512C285.736 190.143 284.58 189.881 283.408 189.73L283.408 189.724ZM273.029 200.306C271.332 202.002 270.063 204.077 269.326 206.36C268.59 208.643 268.407 211.069 268.793 213.437C267.775 211.015 267.499 208.346 268.001 205.767C268.503 203.189 269.76 200.818 271.612 198.955C273.465 197.093 275.829 195.823 278.404 195.307C280.98 194.791 283.651 195.052 286.077 196.057C283.722 195.685 281.312 195.876 279.044 196.614C276.777 197.351 274.715 198.614 273.029 200.301L273.029 200.306ZM291.592 205.409L274.425 213.591C273.813 211.402 273.993 209.067 274.933 206.997C275.874 204.928 277.515 203.257 279.567 202.279C281.619 201.3 283.951 201.078 286.151 201.651C288.351 202.224 290.278 203.555 291.592 205.409ZM293.372 210.629C293.682 217.719 284.438 224.463 277.35 218.262L293.372 210.629ZM260.589 239.099C266.424 236.13 271.664 231.909 276.49 226.48L282.268 226.989C276.139 232.517 268.897 236.668 261.03 239.163L260.589 239.099ZM200.255 373.743C202.288 354.785 218.802 358.292 220.184 341.927C220.57 337.333 220.504 331.21 226.192 323.956C231.386 322.868 236.55 323.624 241.683 326.224C246.907 328.872 252.131 333.417 257.356 339.859C253.242 345.539 251.834 353.468 251.519 364.324C251.376 369.154 246.871 376.647 241.575 380.371C221.26 393.018 198.933 386.085 200.255 373.733L200.255 373.743ZM150.58 369.405C150.58 398.253 181.158 416.724 206.609 403.667C211.611 401.097 215.992 397.466 219.446 393.028C230.058 393.197 238.681 389.595 244.957 384.642C251.895 379.164 256.774 371.218 256.974 364.47C257.832 335.794 266.936 336.609 280.776 331.343C288.618 335.233 296.835 338 303.425 342.189C317.118 353.662 338.18 367.887 340.888 386.288L340.94 386.683C327.779 382.856 314.816 380.875 300.841 380.293C293.797 381.174 289.396 384.469 288.169 391.699C286.507 402.797 296.938 406.741 307.319 408.283L331.05 410.365C325.278 413.817 298.576 421.238 291.874 422.955C226.343 439.673 158.15 442.477 99.5599 404.152C129.206 381.69 135.911 339.772 114.724 309.178C146.513 302.608 185.487 304.352 230.314 312.073C216.333 323.59 214.855 333.28 214.233 340.302C189.544 318.902 150.58 336.349 150.58 369.405ZM290.904 317.802C292.844 314.041 294.436 309.779 295.679 305.014C304.397 302.806 317.052 297.448 315.2 287.08C314.905 282.492 309.228 276.872 303.685 279.812C300.669 281.416 297.713 282.833 294.815 284.061C294.349 276.897 293.004 269.818 290.81 262.982C289.761 247.341 306.148 234.339 316.185 244.173C331.338 259.023 332.471 289.134 328.896 312.827C325.767 333.502 304.393 326.949 290.904 317.802ZM286.793 252.501C284.362 247.097 281.526 241.884 278.311 236.907C279.377 236.209 280.419 235.479 281.435 234.718L298.964 237.757C293.35 240.814 288.943 246.286 286.793 252.501ZM289.451 286.143C276.862 290.578 263.879 291.787 251.697 287.237L251.317 281.04C257.107 278.028 264.336 272.956 268.738 268.972C262.463 271.467 256.901 273.512 252.053 275.108C240.654 278.516 225.772 283.263 214.096 279.858C196.854 274.826 182.766 266.315 171.432 253.232L171.28 253.063C160.694 242.253 170.177 224.021 185.202 226.672C196.491 228.659 195.176 235.881 198.863 241.612C207.875 253.145 229.826 256.879 249.608 243.166L255.154 244.648C262.786 243.199 267.55 247.763 271.966 256.083C270.579 250.143 268.163 246.004 264.719 243.667C267.781 242.58 270.755 241.26 273.614 239.717C282.764 253.899 288.758 269.433 289.451 286.143ZM309.818 288.04C312.155 301.142 263.978 308.013 243.106 295.313C240.508 293.469 243.315 288.92 246.342 290.895L248.345 291.79C269.792 300.478 303.173 287.128 305.815 284.882C307.656 283.743 309.373 285.589 309.818 288.04ZM261.138 335.851C253.556 326.647 244.375 319.292 233.704 318.139C236.374 311.451 242.03 307.273 248.381 303.683C260.45 307.813 276.495 308.458 289.654 306.266C288.072 311.491 286.015 315.947 283.484 319.633C275.335 331.49 269.903 328.62 261.138 335.851ZM230.879 285.938C232.023 292.353 231.269 298.771 229.128 305.183C216.739 304.15 204.702 301.444 193.817 296.379C194.214 290.588 195.418 284.88 197.394 279.421C208.549 284.612 217.885 287.746 230.879 285.938ZM234.297 307.225C235.814 299.764 236.794 291.978 236.291 284.995L240.387 284.067C242.295 283.673 244.119 283.234 245.861 282.761L245.964 285.05C237.667 283.914 233.165 294.608 239.867 299.714L242.643 301.288L235.989 307.522L234.297 307.225ZM192.465 276.965C190.149 283.176 188.603 289.555 188.37 295.928C183.439 296.905 179.261 296.169 175.835 293.721C171.763 290.82 168.559 285.461 166.223 277.646C165.332 274.689 160.964 276.296 156.331 269.692C155.004 267.798 154.086 265.65 153.634 263.383C153.183 261.115 153.208 258.779 153.709 256.522C154.209 254.265 155.174 252.137 156.542 250.273C157.909 248.409 159.65 246.85 161.652 245.695C161.817 246.654 162.049 247.599 162.346 248.525C162.283 249.741 154.049 263.789 166.907 271.416C172.453 274.893 176.57 273.736 178.982 268.138L192.465 276.965ZM185.646 213.932C172.067 212.311 156.778 211.403 143.371 213.285C152.08 203.246 156.77 185.639 153.934 172.469C165.888 181.001 176.394 185.89 189.53 192.017C193.574 193.609 195.241 195.798 195.342 200.557C195.464 206.268 191.771 214.664 185.646 213.932ZM292.652 193.007C288.773 155.39 266.972 133.242 230.978 127.516C274.656 117.809 312.358 159.42 298.592 201.856L292.639 193.632C292.67 193.425 292.675 193.215 292.655 193.007L292.652 193.007Z" fill="white"></path>
    <path fill-rule="evenodd" clip-rule="evenodd" d="M342.769 403.684C342.9 403.413 343.024 403.142 343.149 402.865C343.024 403.142 342.9 403.413 342.769 403.684ZM345.774 382.796C345.223 380.562 344.452 378.559 343.448 375.474C371.803 367.627 408.222 392.07 433.888 413.132C424.911 414.919 416.096 417.749 408.481 422.493C384.403 437.494 353.334 435.032 332.578 415.76C336.919 412.544 340.21 408.731 342.449 404.322C342.312 404.589 342.171 404.854 342.028 405.116C351.517 405.183 360.714 404.921 367.779 404.516C360.803 400.213 353.383 396.674 345.648 393.962L345.538 394.678C346.137 391.02 346.215 387.061 345.771 382.802L345.774 382.796Z" fill="#E78C12"></path>
    <path fill-rule="evenodd" clip-rule="evenodd" d="M413.887 411.909C393.087 390.179 370.275 380.078 345.452 381.606C344.935 379.808 344.267 378.009 343.449 375.48C371.804 367.633 408.224 392.075 433.89 413.138C424.913 414.924 416.098 417.754 408.483 422.498C384.405 437.5 353.336 435.038 332.579 415.766C333.622 415.135 334.623 414.477 335.584 413.79C358.98 426.57 385.084 425.943 413.894 411.909" fill="#D43D30"></path>
    <path fill-rule="evenodd" clip-rule="evenodd" d="M346.568 387.945C361.988 384.883 386.997 399.329 393.366 404.97C394.809 406.239 396.334 407.411 397.932 408.478C380.363 412.977 363.962 420.782 346.575 410.588L376.15 409.339C381.185 408.202 377.353 404.26 373.982 402.001C365.979 396.649 355.813 391.566 346.606 388.499L346.568 387.945Z" fill="#FCFE01"></path>
    <path fill-rule="evenodd" clip-rule="evenodd" d="M118.094 185.054C119.651 180.047 124.136 175.31 129.253 176.652C135.956 177.465 142.457 176.923 148.84 174.935C147.611 167.891 144.072 161.135 137.853 159.147C133.014 157.689 128.021 159.182 123.31 163.057C105.934 177.353 105.006 212.162 121.489 217.198C124.695 218.127 128.128 217.62 131.451 215.969L135.795 213.097C136.025 210.634 135.381 208.372 133.861 206.311C132.048 203.852 129.008 201.599 124.739 199.553L122.97 199.258C117.629 197.567 116.429 190.778 117.971 185.443L118.094 185.054ZM129.185 189.346C129.937 186.867 130.072 182.765 127.814 181.921C126.033 181.546 124.008 184.481 123.314 186.642L123.22 186.957C122.505 189.414 122.708 193.366 124.535 194.019C126.465 194.6 128.529 191.426 129.185 189.345L129.185 189.346ZM140.709 207.88C147.74 198.438 149.501 191.446 149.362 180.482L134.676 182.485C135.511 187.206 135.014 191.828 131.015 196.747C135.576 199.535 139.288 203.159 140.709 207.88ZM189.524 192.017C190.717 192.487 191.956 193.007 192.89 193.889C193.02 194.015 193.146 194.145 193.264 194.282L193.281 194.302L193.301 194.325L193.444 194.491L193.467 194.521L193.478 194.535L193.511 194.578L193.611 194.71L193.64 194.75L193.67 194.796L193.703 194.84L193.718 194.863L193.751 194.913L193.799 194.979L193.846 195.055C194.718 196.411 195.188 198.112 195.302 199.939L195.302 200.04L195.302 200.05L195.302 200.139L195.302 200.242L195.302 200.341L195.302 200.378L195.302 200.44L195.302 200.541C195.33 202.908 194.871 205.255 193.954 207.437C193.022 209.663 191.646 211.586 189.949 212.769L189.926 212.786L189.903 212.805L189.893 212.813L189.88 212.822L189.857 212.839C188.597 213.68 187.164 214.105 185.606 213.916C180.972 213.363 176.264 212.915 171.576 212.609C162.458 211.989 152.175 212.026 143.331 213.27C152.04 203.231 156.73 185.624 153.894 172.453C165.887 181.001 176.399 185.89 189.53 192.017L189.524 192.017ZM181.971 169.18C183.698 170.344 185.324 171.504 186.849 172.659C186.115 176.389 185.74 180.18 185.73 183.981L185.73 184.365L185.773 184.386C188.953 185.838 194.246 187.834 196.073 189.394L196.116 189.428L196.153 189.461L196.188 189.489L196.231 189.529L196.258 189.551L196.309 189.594L196.325 189.608L196.388 189.664L196.388 189.672L196.457 189.734L196.534 189.804L196.594 189.858L196.608 189.874L196.66 189.923L196.681 189.943L196.724 189.987L196.756 190.016L196.791 190.052L196.827 190.086L196.857 190.115L196.9 190.162L196.921 190.179L196.972 190.235L196.984 190.246L197.043 190.308L197.107 190.375L197.168 190.441L197.176 190.451L197.229 190.508L197.245 190.525L197.291 190.578L197.312 190.601L197.352 190.645L197.382 190.677L197.409 190.715L197.448 190.755L197.512 190.831L197.528 190.848L197.575 190.907L197.588 190.919L197.643 190.989L197.7 191.059L197.753 191.126L197.763 191.137L197.808 191.199L197.826 191.219L197.863 191.271L197.887 191.301L197.919 191.344L197.949 191.382L197.973 191.414L198.009 191.464L198.027 191.489L198.067 191.545L198.083 191.565L198.129 191.63L198.129 191.638L198.183 191.71C199.887 194.159 200.708 197.238 200.771 200.437C200.886 205.783 198.963 211.471 195.246 215.416L195.172 215.493L195.095 215.572L195.5 216.184C194.256 217.409 192.892 218.629 191.387 219.845C191.113 219.446 190.842 219.048 190.578 218.643C190.53 218.66 190.485 218.68 190.435 218.698L190.192 219.912C188.372 220.022 186.498 220.157 184.569 220.317L184.807 219.336C181.101 218.894 177.368 218.517 173.64 218.235L172.977 221.516C171.063 221.749 169.107 222.001 167.111 222.273L168.154 217.892C164.568 217.715 161.021 217.642 157.568 217.698C148.842 217.841 140.609 218.792 133.612 220.974C129.168 223.12 124.467 223.736 119.953 222.433L119.558 222.307C112.933 220.253 108.123 214.318 105.79 206.593C98.1206 181.2 118.123 147.46 139.417 153.906C142.85 154.978 169.379 176.389 180.278 181.765L180.287 181.608C180.408 177.417 180.975 173.251 181.976 169.18L181.971 169.18Z" fill="#5C0502"></path>
    <path fill-rule="evenodd" clip-rule="evenodd" d="M210.995 337.761C211.243 336.534 211.448 335.185 211.613 333.712C212.369 326.859 212.136 322.72 217.463 317.129C217.624 316.981 217.777 316.824 217.922 316.66C219.925 314.371 217.271 313.992 210.415 312.446L181.623 305.967C196.953 307.043 213.211 309.115 230.322 312.068C216.342 323.585 214.864 333.274 214.241 340.296C213.203 339.396 212.119 338.55 210.994 337.761L210.995 337.761ZM201.724 367.36C211.462 379.224 235.145 383.892 238.203 363.234C241.317 347.451 246.013 337.77 252.29 334.191C253.738 335.637 255.186 337.23 256.635 338.968C255.028 341.666 253.999 344.668 253.615 347.784L254.126 347.368C253.571 349.761 253.087 352.584 252.013 356.455C250.39 372.825 242.18 380.247 230.697 383.286C213.817 387.757 201.6 382.616 200.252 373.728C200.213 372.115 201.328 367.973 201.724 367.36ZM271.647 315.298C273.659 312.205 271.78 311.177 266.012 312.214C258.09 312.624 251.353 310.627 245.803 306.224L248.378 303.683C260.144 307.71 275.692 308.424 288.657 306.424C283.864 319.356 277.124 326.356 270.775 328.513C264.426 330.671 262.662 332.09 259.994 334.498C258.941 333.272 257.857 332.081 256.744 330.944C262.22 326.495 267.188 321.279 271.647 315.298ZM302.445 244.226C302.679 244.113 302.92 244.004 303.16 243.909C302.92 244.004 302.679 244.113 302.445 244.226ZM315.933 244.62C299.063 245.86 292.566 255.551 296.442 273.693C297.574 275.734 299.188 276.467 301.283 275.894C304.733 274.248 307.748 273.788 310.326 274.515C313.411 275.744 316.097 277.8 318.088 280.458C320.08 283.116 321.299 286.272 321.613 289.578C321.926 292.885 321.321 296.213 319.864 299.198C318.407 302.183 316.155 304.707 313.356 306.494C310.922 307.481 309.359 308.401 308.669 309.254C308.339 309.661 308.21 310.053 308.277 310.43C305.779 318.831 312.036 321.716 327.046 319.082C320.8 331.907 302.791 325.865 290.904 317.795C292.844 314.034 294.436 309.772 295.679 305.008C304.397 302.799 317.052 297.441 315.2 287.073C314.905 282.485 309.228 276.865 303.685 279.805C300.669 281.409 297.713 282.826 294.815 284.054C294.349 276.89 293.004 269.811 290.81 262.975C289.761 247.334 306.148 234.332 316.185 244.166C316.456 244.434 316.725 244.706 316.989 244.984C316.627 244.86 316.278 244.738 315.933 244.62ZM266.652 241.796C266.368 242.24 266.136 242.716 265.961 243.213C265.551 243.368 265.138 243.519 264.722 243.667C265.057 243.841 265.387 244.026 265.71 244.223C265.485 245.717 265.896 247.235 266.944 248.779C270.18 251.846 276.919 263.905 279.504 272.869C282.089 281.834 277.627 280.781 273.966 282.542C266.564 285.412 260.874 284.329 262.701 280.539C264.514 276.785 276.307 269.313 275.134 264.411C273.653 258.232 263.489 264.951 259.068 267.002C204.798 292.203 152.003 240.431 185.199 226.672C170.178 224.023 160.691 242.253 171.277 253.063L171.429 253.232C182.757 266.316 196.851 274.826 214.093 279.858C225.769 283.267 240.651 278.516 252.05 275.108C256.9 273.51 262.461 271.464 268.735 268.972C264.327 272.957 257.104 278.028 251.315 281.04L251.694 287.237C263.876 291.787 276.855 290.578 289.448 286.143C288.755 269.433 282.757 253.899 273.614 239.717C271.708 240.747 269.751 241.677 267.749 242.505C267.392 242.265 267.027 242.028 266.652 241.796ZM232.643 248.334C232.295 248.421 231.949 248.501 231.606 248.577L232.643 248.334ZM260.59 239.089C266.426 236.12 271.666 231.9 276.491 226.47L282.269 226.98C276.14 232.508 268.898 236.658 261.031 239.153L260.59 239.089ZM282.73 218.443C284.694 218.424 286.596 217.745 288.129 216.517C289.662 215.288 290.739 213.581 291.186 211.667L293.372 210.626C293.682 217.716 284.438 224.457 277.35 218.26L278.806 217.565C280.027 218.16 281.371 218.461 282.73 218.443ZM290.562 205.896C289.68 204.036 288.17 202.547 286.298 201.69C288.439 202.276 290.31 203.588 291.591 205.401L290.562 205.896ZM286.235 186.502C286.468 187.812 286.676 189.147 286.859 190.508C285.736 190.139 284.58 189.877 283.408 189.726C283.227 188.575 283.017 187.437 282.78 186.311C283.934 186.162 285.105 186.227 286.235 186.502ZM297.822 190.365C297.822 190.301 297.832 190.236 297.835 190.169C298.351 181.447 296.942 172.719 293.71 164.602C290.477 156.485 285.499 149.178 279.128 143.199C272.758 137.22 265.15 132.715 256.845 130.003C248.54 127.291 239.74 126.439 231.069 127.506C274.714 117.864 312.364 159.457 298.606 201.86L292.654 193.637C292.682 193.43 292.685 193.22 292.662 193.012C292.551 191.934 292.425 190.87 292.286 189.819C295.761 192.814 297.604 192.997 297.815 190.368L297.822 190.365ZM281.442 234.715C286.13 236.087 290.06 237.431 293.233 238.747C289.468 242.734 286.796 246.375 285.76 250.235C283.565 245.638 281.081 241.186 278.321 236.904C279.376 236.211 280.414 235.484 281.435 234.722L281.442 234.715ZM184.978 207.909C189.782 207.443 191.301 202.143 189.537 192.01C193.593 193.608 195.235 195.791 195.349 200.55C195.402 202.817 194.846 205.524 193.766 207.911L193.766 207.923C192.043 211.093 188.831 212.434 184.129 211.948C164.674 210.484 151.125 210.923 143.483 213.264L143.384 213.278C149.607 206.106 153.777 195.069 154.618 184.548C154.95 190.436 154.565 195.569 153.464 199.948C153.393 200.165 153.335 200.387 153.289 200.611C152.908 202.576 153.93 203.763 156.355 204.171C157.249 204.305 158.153 204.356 159.056 204.322C165.422 204.763 181.021 208.3 184.971 207.916L184.978 207.909ZM246.664 294.607C257.785 299.17 274.871 298.916 297.921 293.844C303.616 292.145 307.163 289.301 308.562 285.313C309.171 285.953 309.626 286.931 309.825 288.031C312.164 301.129 263.991 308.005 243.113 295.305C241.396 294.083 242.042 291.675 243.557 290.763C243.203 292.726 244.236 294.01 246.657 294.612L246.664 294.607ZM242.65 301.286L235.996 307.521L234.304 307.219C235.822 299.758 236.802 291.973 236.298 284.99L240.394 284.061C242.302 283.668 244.126 283.229 245.868 282.755L245.971 285.044C237.674 283.908 233.172 294.602 239.874 299.708L242.65 301.286ZM196.356 282.536C196.675 281.489 197.022 280.446 197.396 279.416C208.555 284.606 217.892 287.741 230.886 285.933C232.031 292.348 231.277 298.766 229.135 305.178C216.746 304.145 204.71 301.438 193.824 296.374C203.659 299.814 212.976 301.242 221.775 300.658C225.268 301.278 225.759 298.953 226.187 296.432C226.276 296.055 226.34 295.673 226.378 295.288C226.584 293.076 225.686 291.661 223.682 291.03C223.637 291.02 223.596 291.016 223.552 291.006C223.112 290.886 222.663 290.801 222.21 290.753C218.787 290.111 215.409 289.251 212.097 288.177C206.105 286.377 200.856 284.498 196.349 282.542L196.356 282.536ZM162.353 248.52C162.296 249.626 155.432 261.423 164 269.276C164.896 270.088 165.872 270.807 166.914 271.422C172.46 274.899 176.577 273.742 178.989 268.144L192.472 276.967C192.074 278.034 191.699 279.106 191.349 280.183C186.7 277.791 183.093 275.291 180.529 272.685C176.103 276.568 171.488 276.359 166.682 272.06C164.522 271.899 165.297 274.188 169.008 278.927C172.177 287.633 178.662 292.783 188.464 294.378C188.43 294.894 188.401 295.408 188.381 295.927C183.45 296.904 179.272 296.168 175.846 293.72C171.774 290.818 168.57 285.46 166.234 277.645C165.615 275.588 163.313 275.741 160.409 273.796C158.641 272.129 157.268 270.087 156.392 267.82C155.516 265.552 155.158 263.118 155.345 260.695C155.532 258.271 156.258 255.92 157.472 253.814C158.685 251.708 160.355 249.901 162.358 248.524L162.353 248.52ZM235.857 247.355C235.493 247.484 235.131 247.603 234.772 247.718L234.235 247.884L233.704 248.042L233.176 248.185L232.653 248.328C232.305 248.415 231.959 248.495 231.616 248.571L231.104 248.68L230.593 248.776C230.257 248.837 229.92 248.894 229.591 248.942L229.094 249.012L228.596 249.069L228.102 249.116C227.775 249.145 227.447 249.169 227.122 249.186L226.637 249.203L226.155 249.212L225.673 249.212L225.195 249.203L224.722 249.183L224.247 249.158L223.775 249.121L223.304 249.075L222.833 249.02L222.367 248.953L221.898 248.877L221.436 248.793L220.971 248.697L220.506 248.593L220.042 248.475L219.58 248.351L219.118 248.208L218.658 248.065L218.196 247.912L217.736 247.746L217.274 247.574L216.815 247.391L216.353 247.199L215.892 246.999L215.43 246.786L214.968 246.561L214.508 246.329L214.044 246.088L213.581 245.834L213.114 245.575L212.648 245.304L212.179 245.017L211.711 244.731L211.24 244.431L210.767 244.123L210.293 243.803L209.818 243.477L209.339 243.136L208.861 242.79L208.378 242.432L207.893 242.065L207.405 241.69L206.917 241.302L206.423 240.907L205.928 240.502C207.149 239.789 208.595 238.892 210.264 237.813L210.639 238.046L211.013 238.272L211.39 238.499L211.768 238.723L212.149 238.941L212.529 239.16L212.912 239.375L213.296 239.588L213.682 239.794L214.068 240.004L214.457 240.208L214.849 240.409L215.241 240.61L215.636 240.804L216.033 241L216.427 241.189L216.826 241.378L217.227 241.564L217.628 241.747L218.03 241.926L218.433 242.103L218.838 242.278L219.244 242.449L219.652 242.618L220.062 242.784L220.473 242.947L220.885 243.11L221.3 243.268L221.715 243.421L222.13 243.572L222.546 243.715L222.964 243.859L223.383 244.002L223.802 244.145L224.224 244.288L224.646 244.422L225.075 244.557L225.504 244.684L225.933 244.81L226.363 244.932L226.792 245.055L227.221 245.17L227.65 245.283L228.079 245.395L228.509 245.502L228.938 245.607L229.367 245.708L229.796 245.804L230.234 245.902L230.672 245.995L231.111 246.085L231.551 246.172L231.993 246.253L232.435 246.335L232.879 246.414L233.324 246.487L233.77 246.555L234.215 246.625L234.661 246.69L235.112 246.751L235.563 246.809L236.013 246.864L236.467 246.917L236.92 246.966L236.365 247.171L235.857 247.355ZM225.231 235.448C225.878 235.524 226.519 235.591 227.167 235.657L228.135 235.747L229.102 235.828L230.066 235.898C230.711 235.942 231.354 235.98 231.996 236.013L232.958 236.05L233.916 236.079L234.873 236.094L235.829 236.094L236.779 236.094L237.726 236.076L238.67 236.044L239.613 236.001L240.55 235.943L241.481 235.873L242.409 235.788L243.333 235.692L244.25 235.579L245.165 235.453L246.072 235.31L246.974 235.157L247.868 234.987L248.76 234.798L249.641 234.598L250.518 234.379L251.386 234.146L252.245 233.895L253.103 233.628L253.948 233.342L254.785 233.039L255.613 232.722L256.433 232.385C256.705 232.267 256.975 232.152 257.244 232.029L258.045 231.657C258.31 231.528 258.573 231.4 258.838 231.266L259.619 230.855L260.39 230.426L261.151 229.976L261.902 229.506C262.151 229.35 262.398 229.187 262.643 229.018L263.37 228.508C263.612 228.333 263.852 228.159 264.085 227.975C264.319 227.792 264.557 227.615 264.791 227.429C265.024 227.243 265.254 227.05 265.484 226.857L266.165 226.26C266.391 226.06 266.613 225.852 266.832 225.646C267.051 225.44 267.274 225.227 267.49 225.008C267.706 224.789 267.919 224.579 268.132 224.35C268.346 224.121 268.562 223.9 268.762 223.666C268.962 223.433 269.174 223.198 269.376 222.962C269.944 223.413 270.538 223.831 271.154 224.214C264.978 230.759 258.1 235.157 250.071 237.289L249.587 237.413L249.09 237.534L248.587 237.65L248.076 237.76L247.558 237.861L247.03 237.961L246.498 238.057L245.957 238.147L245.409 238.229L244.857 238.308L244.298 238.381L243.734 238.446L243.162 238.508L242.59 238.567L242.007 238.615L241.421 238.662L240.83 238.7L240.235 238.735L239.637 238.761L239.033 238.781L238.428 238.8L237.82 238.811L237.209 238.811L236.557 238.811L235.943 238.811L235.327 238.795L234.709 238.778L234.088 238.753L233.468 238.72L232.849 238.685L232.231 238.642L231.611 238.589L230.992 238.534L230.374 238.474L229.759 238.403L229.144 238.331L228.53 238.249L227.919 238.162L227.313 238.069L226.706 237.967L226.105 237.861L225.506 237.745L224.912 237.627L224.321 237.501L223.735 237.366L223.152 237.223L222.58 237.08L222.008 236.928L221.443 236.768L220.821 236.598L220.266 236.423L219.716 236.246L219.174 236.057L218.639 235.863L218.11 235.658L217.589 235.452L217.077 235.236L216.572 235.013L216.075 234.783L215.586 234.546L215.108 234.302L214.636 234.049L214.176 233.79L213.724 233.525L214.673 233.722L215.626 233.916L216.582 234.102L217.539 234.282L218.499 234.453L219.46 234.619L220.424 234.78L221.39 234.931L222.356 235.074L223.321 235.217L224.288 235.343L225.231 235.448ZM122.845 189.919C122.828 188.916 122.957 187.916 123.227 186.95C123.923 184.584 126.11 181.421 127.821 181.914C128.252 182.079 128.624 182.37 128.887 182.75L128.915 182.791L128.938 182.823L128.978 182.884L128.987 182.898L129.037 182.977L129.08 183.056L129.091 183.079L129.124 183.137L129.145 183.18L129.166 183.222L129.197 183.286L129.206 183.306L129.244 183.393L129.28 183.481L129.29 183.504L129.316 183.571L129.333 183.618L129.35 183.664L129.373 183.734L129.38 183.757L129.409 183.853L129.439 183.949L129.439 183.973L129.459 184.049L129.47 184.094L129.483 184.147L129.499 184.22L129.506 184.249L129.527 184.348L129.546 184.451L129.546 184.474L129.56 184.555L129.569 184.604L129.578 184.662L129.589 184.735L129.589 184.767L129.603 184.868L129.616 184.976L129.616 184.996L129.616 185.083L129.616 185.13L129.616 185.193L129.616 185.269L129.616 185.305L129.616 185.406L129.616 185.415L129.616 185.525L129.616 185.542L129.616 185.64L129.616 186.318L129.616 186.386L129.616 186.431L129.616 186.529L129.616 186.544L129.609 186.658L129.609 186.672L129.602 186.771L129.602 186.816L129.602 186.884L129.602 186.954L129.602 186.999L129.592 187.095L129.592 187.112L129.58 187.226L129.58 187.235L129.569 187.336L129.569 187.376L129.56 187.449L129.552 187.514L129.552 187.559L129.537 187.652L129.537 187.674L129.522 187.781L129.522 187.79L129.503 187.891L129.503 187.927L129.489 188L129.479 188.06L129.469 188.11L129.455 188.195L129.455 188.215L129.433 188.322L129.412 188.425L129.404 188.457L129.389 188.529L129.376 188.585L129.364 188.634L129.346 188.713L129.346 188.735L129.319 188.839L129.294 188.937L129.287 188.963L129.269 189.036L129.254 189.083L129.24 189.132L129.22 189.205L129.213 189.228L129.186 189.321C128.529 191.402 126.467 194.575 124.535 193.993L124.48 193.972L124.452 193.96L124.427 193.949L124.376 193.926L124.329 193.903L124.296 193.886L124.277 193.873L124.23 193.844L124.219 193.844L124.179 193.817L124.144 193.791L124.131 193.783L124.084 193.749L124.071 193.737L124.038 193.71L124 193.676L123.955 193.637L123.937 193.617L123.911 193.594L123.871 193.55L123.831 193.504L123.811 193.48L123.789 193.457L123.751 193.408L123.716 193.358L123.692 193.329L123.678 193.308L123.642 193.254L123.642 193.245L123.612 193.198L123.586 193.161L123.578 193.143L123.542 193.085L123.533 193.07L123.51 193.026L123.485 192.98L123.485 192.965L123.452 192.907L123.44 192.883L123.422 192.843L123.395 192.784L123.366 192.72L123.353 192.688L123.339 192.654L123.312 192.587L123.284 192.517L123.27 192.478L123.26 192.449L123.236 192.377L123.236 192.368L123.214 192.306L123.199 192.258L123.199 192.232L123.177 192.159L123.177 192.143L123.161 192.086L123.143 192.027L123.143 192.01L123.123 191.934L123.123 191.912L123.11 191.856L123.094 191.789L123.094 191.777L123.076 191.701L123.076 191.667L123.064 191.62L123.05 191.545L123.034 191.464L123.034 191.424L123.027 191.382L123.014 191.302L123 191.223L123 191.175L123 191.143L122.99 191.059L122.99 191.043L122.981 190.974L122.974 190.913L122.974 190.889L122.974 190.806L122.974 190.781L122.974 190.717L122.974 190.648L122.974 190.634L122.974 190.545L122.974 190.517L122.974 190.462L122.974 190.379L122.974 190.371L122.974 190.286L122.974 190.102L122.974 190.014L122.974 189.966L122.845 189.919ZM326.491 412.425C235.584 442.66 160.892 439.14 102.414 401.866C107.308 397.747 111.607 392.967 115.186 387.665C129.24 393.931 143.763 399.089 158.621 403.092C151.206 396.117 146.83 386.507 146.437 376.335C146.044 366.162 149.665 356.243 156.519 348.717C152.02 357.063 150.735 366.769 152.909 375.999C155.083 385.228 160.565 393.34 168.318 398.8C176.07 404.26 185.554 406.688 194.976 405.625C204.398 404.562 213.103 400.082 219.444 393.033C230.056 393.202 238.68 389.599 244.956 384.646C251.894 379.168 256.772 371.222 256.973 364.474C257.831 335.798 267.151 340.164 280.774 331.347C282.146 332.03 283.512 332.695 284.864 333.359C291.242 336.488 297.326 339.529 302.425 343.468C290.326 337.675 282.945 335.716 280.282 337.591C277.443 339.774 273.878 342.083 269.809 344.853C265.778 347.595 265.001 355.248 263.494 366.066C261.266 382.075 249.189 392.461 229.876 396.682C224.569 397.844 219.796 398.341 215.681 398.81C211.298 404.382 205.473 408.647 198.839 411.142C230.197 415.351 263.427 415.201 298.531 410.691C296.538 409.993 294.624 409.088 292.818 407.993C289.911 406.207 287.661 404.01 286.067 401.404C284.176 397.175 285.412 392.02 289.775 385.94C288.823 387.493 288.255 389.395 288.163 391.702C288.061 392.377 288.003 393.057 287.99 393.74C287.694 403.15 295.143 405.982 303.781 407.658C304.947 407.903 306.13 408.109 307.313 408.286L312.298 408.724L331.039 410.368C330.069 410.952 328.482 411.653 326.491 412.425Z" fill="#CBC3CF"></path>
    <path fill-rule="evenodd" clip-rule="evenodd" d="M118.094 185.059C119.651 180.043 124.136 175.31 129.253 176.655C135.956 177.465 142.458 176.923 148.84 174.938C147.611 167.894 144.072 161.138 137.853 159.15C133.014 157.689 128.021 159.185 123.31 163.06C105.936 177.356 105.006 212.165 121.489 217.201C124.695 218.13 128.13 217.623 131.452 215.972L135.795 213.1C136.026 210.64 135.381 208.378 133.861 206.314C131.463 203.063 126.985 199.94 122.978 199.257C117.362 197.653 116.436 190.774 117.971 185.439L118.094 185.059ZM129.185 189.351C129.935 186.868 130.072 182.77 127.814 181.926C126.033 181.551 124.008 184.485 123.314 186.647L123.22 186.964C122.505 189.418 122.708 193.371 124.536 194.023C126.466 194.6 128.529 191.427 129.185 189.345L129.185 189.351ZM140.709 207.881C147.74 198.438 149.501 191.447 149.364 180.482L134.676 182.485C135.511 187.206 135.014 191.829 131.015 196.747C135.576 199.544 139.288 203.159 140.709 207.881ZM169.649 266.69C171.509 267.712 173.041 269.791 174.533 264.361L165.797 255.073C164.512 259.918 164.973 264.118 169.655 266.69L169.649 266.69ZM295.674 305.015C294.434 309.778 292.842 314.04 290.898 317.802C304.387 326.95 325.761 333.502 328.881 312.828C332.458 289.134 331.323 259.026 316.171 244.173C306.134 234.336 289.747 247.341 290.794 262.982C292.989 269.818 294.334 276.897 294.8 284.061C297.701 282.833 300.657 281.418 303.669 279.815C309.213 276.872 314.889 282.492 315.184 287.08C317.052 297.448 304.397 302.806 295.679 305.015L295.674 305.015ZM95.1079 400.631C123.799 379.816 130.213 339.702 109.351 311.026L109.029 310.454C83.6548 316.656 63.468 328.394 48.0336 346.285C46.5787 347.969 47.1624 353.122 48.5414 355.012C62.1719 373.646 77.6407 388.918 94.776 400.924L95.1079 400.631ZM202.66 356.042C195.261 348.498 183.086 348.428 175.583 355.929C173.812 357.697 172.407 359.798 171.45 362.111C170.492 364.423 170.001 366.903 170.004 369.406C170.004 384.259 186.198 393.217 198.695 385.858C190.756 376.918 195.882 364.142 202.67 356.042L202.66 356.042ZM184.41 221.045L184.822 219.349C181.117 218.907 177.383 218.53 173.663 218.248L172.618 223.409C176.24 221.494 180.34 220.673 184.42 221.045L184.41 221.045ZM193.807 296.379C204.692 301.444 216.728 304.151 229.116 305.184C231.262 298.768 232.013 292.353 230.869 285.938C217.875 287.747 208.539 284.612 197.381 279.422C195.41 284.881 194.211 290.589 193.817 296.379L193.807 296.379ZM175.822 293.721C179.247 296.173 183.426 296.909 188.361 295.929C188.597 289.554 190.139 283.176 192.455 276.965L178.971 268.142C176.56 273.741 172.443 274.898 166.897 271.42C162.853 269.152 160.512 265.888 159.873 261.629C159.32 257.935 160.141 253.567 162.335 248.525C162.039 247.599 161.807 246.654 161.641 245.696C153.2 250.56 150.688 261.654 156.32 269.689C160.954 276.296 165.32 274.696 166.213 277.646C168.554 285.456 171.761 290.814 175.832 293.721L175.822 293.721ZM189.995 301.161L191.455 301.304L190.783 300.987L189.995 301.161ZM206.481 352.138C208.076 350.717 212.46 347.909 213.094 346.764C192.756 325.183 156.049 339.482 156.049 369.401C156.049 399.08 192.242 413.485 212.719 392.435C209.081 391.863 206.219 391.096 203.197 389.448C198.473 392.783 192.723 394.341 186.961 393.847C181.2 393.353 175.798 390.84 171.711 386.749C156.293 371.333 167.264 344.86 189.059 344.86C192.302 344.862 195.512 345.506 198.504 346.756C201.495 348.006 204.21 349.837 206.491 352.142L206.481 352.138ZM314.802 345.27L330.933 358.432C337.421 350.614 354.991 354.674 365.731 357.741C349.682 348.137 324.169 335.013 309.277 341.425L314.802 345.27ZM309.592 423.742C298.301 427.197 287.213 430.115 276.33 432.495C283.13 458.605 316.242 454.23 340.777 447.891C324.786 446.761 309.321 441.2 309.602 423.745L309.592 423.742ZM376.156 409.348L346.58 410.594L348.663 410.507C345.325 410.498 342.337 410.477 339.698 410.442C339.279 410.831 338.85 411.212 338.41 411.587L332.574 415.769C353.33 435.041 384.399 437.503 408.477 422.501C416.092 417.755 424.907 414.928 433.884 413.141C408.218 392.073 371.797 367.636 343.443 375.483L345.744 382.546C346.16 384.322 346.437 386.129 346.57 387.948L346.611 388.511C355.813 391.575 365.983 396.658 373.986 402.01C377.361 404.271 381.734 407.86 376.156 409.348ZM343.094 393.091C332.079 389.459 320.437 387.28 308.597 386.263C303.918 385.862 293.053 385.272 293.524 393.831C293.881 400.351 300.676 401.641 308.195 402.886C324.739 405.631 351.738 405.439 367.79 404.522C360.015 399.705 351.766 395.953 343.094 393.091ZM256.974 364.468C256.772 371.218 251.894 379.164 244.957 384.641C238.681 389.598 230.058 393.196 219.446 393.027C215.992 397.465 211.61 401.096 206.608 403.665C181.158 416.723 150.58 398.252 150.58 369.404C150.58 336.347 189.545 318.902 214.24 340.295C214.864 333.273 216.339 323.583 230.32 312.066C185.49 304.341 146.514 302.598 114.73 309.171C135.909 339.761 129.204 381.681 99.5656 404.145C158.156 442.471 226.347 439.666 291.878 422.948C298.579 421.24 325.284 413.815 331.059 410.358L315.198 409.311L307.33 408.276C296.705 406.512 286.504 404.135 288.182 391.692C289.007 370.988 328.106 382.942 340.953 386.676L340.901 386.282C338.193 367.881 316.581 354.378 302.437 343.456C296.257 338.682 288.631 335.226 280.789 331.336C272.763 336.529 264.758 337.091 260.536 345.077C258.317 349.258 257.253 355.234 256.974 364.468ZM243.106 295.313C254.264 302.102 274.149 303.478 289.637 300.71C295.669 299.634 311.18 295.727 309.818 288.037C309.376 285.589 307.658 283.745 305.812 284.89C303.17 287.136 269.788 300.484 248.342 291.797L246.339 290.903C243.315 288.92 240.508 293.466 243.106 295.313ZM233.704 318.145C244.375 319.298 253.551 326.653 261.137 335.857C269.903 328.626 275.337 331.496 283.485 319.639C286.014 315.951 288.071 311.495 289.655 306.272C276.494 308.464 260.45 307.819 248.381 303.689L238.882 312.397C236.986 314.376 235.215 316.356 233.704 318.145ZM278.311 236.917C279.377 236.219 280.419 235.488 281.435 234.725C281.688 234.833 281.955 234.904 282.228 234.938L298.965 237.767C293.346 240.82 288.951 246.292 286.796 252.503C284.362 247.1 281.526 241.888 278.311 236.911L278.311 236.917ZM196.379 226.187L196.419 226.234L196.378 226.187C194.429 224.486 192.184 223.156 189.756 222.263L190.461 218.723C190.51 218.706 190.555 218.686 190.604 218.669C192.345 221.312 194.275 223.825 196.381 226.187L196.379 226.187ZM189.531 192.03C190.723 192.5 191.963 193.02 192.896 193.902C193.026 194.03 193.152 194.158 193.269 194.295L193.286 194.315L193.308 194.338L193.451 194.504L193.474 194.534L193.485 194.548L193.518 194.591L193.618 194.723L193.647 194.763L193.678 194.809L193.71 194.853L193.724 194.873L193.759 194.926L193.806 194.992L193.853 195.068C194.726 196.421 195.193 198.128 195.311 199.952L195.311 200.053L195.311 200.063L195.311 200.152L195.311 200.252L195.311 200.354L195.311 200.391L195.311 200.554C195.34 202.921 194.881 205.268 193.965 207.45C193.032 209.676 191.656 211.599 189.959 212.782L189.935 212.799L189.912 212.818L189.902 212.826L189.89 212.835L189.867 212.852C188.606 213.693 187.172 214.118 185.614 213.929C180.981 213.376 176.273 212.928 171.583 212.622C162.466 212.002 152.183 212.039 143.338 213.283C152.049 203.244 156.738 185.637 153.903 172.466C165.887 181.001 176.399 185.887 189.531 192.017L189.531 192.03ZM294.426 221.708C295.809 220.326 296.911 218.689 297.671 216.888C305.717 203.656 308.635 187.935 305.873 172.697C303.112 157.459 294.862 143.762 282.685 134.196C270.508 124.63 255.247 119.858 239.79 120.784C224.332 121.71 209.75 128.268 198.801 139.219C187.732 150.288 180.71 165.864 180.303 181.631L180.294 181.791C169.396 176.412 142.863 155.001 139.431 153.929C118.139 147.483 98.1364 181.226 105.806 206.616C108.14 214.341 112.947 220.276 119.575 222.33L119.968 222.456C124.483 223.759 129.184 223.148 133.627 220.997C140.624 218.815 148.856 217.859 157.584 217.721C161.041 217.665 164.594 217.741 168.17 217.915L165.365 229.704C163.229 232.652 161.889 236.101 161.473 239.718C143.428 247.205 143.351 272.909 161.373 280.5C164.044 288.81 167.801 294.7 172.645 298.17C173.72 298.95 174.873 299.616 176.085 300.159C125.586 297.414 76.3045 305.151 43.9007 342.712C40.5417 346.607 41.4687 354.597 44.1324 358.241C99.5727 434.081 181.843 451.753 270.963 433.636C274.281 446.922 283.294 454.819 298.001 457.326C312.964 459.873 333.972 456.612 361.026 447.544C364.351 446.565 363.325 441.908 360.134 442.164C339.513 443.802 313.438 442.976 315.162 422.008C319.101 420.751 323.059 419.428 327.036 418.041C349.517 440.522 384.402 443.935 411.349 427.148C419.933 421.796 430.233 419.101 440.56 417.531C442.862 417.185 443.716 414.259 441.921 412.74C413.166 388.419 372.954 360.739 340.848 370.547C339.081 367.682 337.059 364.983 334.807 362.481C340.375 354.099 370.696 364.627 384.804 370.006C387.808 371.151 390.083 366.952 387.174 365.096C366.713 351.038 349.565 341.793 335.73 337.36C322.176 333.023 311.604 333.245 304.011 338.027C297.992 334.266 291.479 330.627 284.472 327.108L288.099 322.516C300.665 330.957 320.716 338.056 330.398 324.09C332.308 321.334 333.648 317.861 334.283 313.653C338.146 288.004 336.572 256.543 319.989 240.295C314.164 234.581 297.904 231.671 286.943 230.09C289.681 227.519 292.185 224.709 294.426 221.695L294.426 221.708ZM271.639 198.937C273.494 197.089 275.854 195.83 278.423 195.319C280.992 194.808 283.654 195.067 286.076 196.065C283.722 195.695 281.315 195.887 279.049 196.625C276.784 197.363 274.725 198.626 273.041 200.311C271.345 202.009 270.076 204.085 269.34 206.369C268.603 208.652 268.42 211.079 268.805 213.447C267.789 211.019 267.518 208.344 268.025 205.762C268.533 203.18 269.796 200.806 271.654 198.943L271.639 198.937ZM286.859 190.517C285.735 190.15 284.58 189.889 283.408 189.737C280.734 172.739 271.777 157.363 258.31 146.653L258.15 146.51C248.147 138.568 236.131 133.568 223.447 132.069C241.472 133.81 256.103 139.454 266.793 149.048C277.581 158.722 284.448 172.528 286.859 190.504L286.859 190.517ZM298.599 201.869C297.661 199.314 296.178 196.993 294.253 195.069L294.084 194.914C293.627 194.468 293.147 194.044 292.647 193.646C292.675 193.438 292.677 193.228 292.655 193.02C290.494 172.133 282.853 156.139 270.43 144.989C260.289 135.887 247.016 130.08 230.983 127.535C240.94 125.325 251.304 125.786 261.025 128.87C270.747 131.953 279.481 137.551 286.344 145.096C293.207 152.641 297.955 161.865 300.107 171.835C302.259 181.805 301.739 192.166 298.599 201.87L298.599 201.869ZM201.464 232.827C200.807 231.474 200.006 230.197 199.076 229.016L201.464 232.827ZM210.234 237.808C208.566 238.888 207.121 239.785 205.898 240.498C212.399 245.861 218.107 248.653 223.923 249.156C228.006 249.505 232.248 248.743 236.953 246.962C228.303 246.063 219.933 243.381 212.372 239.083C211.65 238.666 210.937 238.24 210.234 237.805L210.234 237.808ZM265.612 218.941C260.507 225.19 253.127 228.937 243.471 230.182C232.742 231.562 219.239 229.893 202.961 225.174C200.015 222.266 197.386 219.053 195.118 215.589L195.195 215.51L195.271 215.433C198.99 211.489 200.91 205.8 200.795 200.454C200.731 197.255 199.911 194.176 198.208 191.727L198.155 191.651L198.155 191.643L198.109 191.575L198.093 191.561L198.053 191.502L198.036 191.477L197.999 191.427L197.973 191.395L197.944 191.354L197.913 191.314L197.89 191.283L197.851 191.232L197.833 191.212L197.788 191.15L197.778 191.139L197.725 191.072L197.668 191.002L197.614 190.934L197.601 190.923L197.555 190.861L197.538 190.844L197.472 190.768L197.435 190.728L197.408 190.69L197.378 190.658L197.338 190.614L197.316 190.591L197.271 190.538L197.255 190.521L197.202 190.464L197.195 190.454L197.132 190.391L197.067 190.324L197.01 190.262L196.997 190.251L196.947 190.195L196.926 190.178L196.883 190.13L196.853 190.102L196.817 190.067L196.781 190.032L196.75 190.003L196.707 189.959L196.685 189.939L196.634 189.89L196.62 189.874L196.558 189.82L196.482 189.75L196.414 189.688L196.414 189.68L196.351 189.624L196.335 189.612L196.283 189.567L196.256 189.544L196.213 189.505L196.179 189.477L196.143 189.444L196.099 189.409C194.279 187.857 188.988 185.861 185.799 184.402L185.756 184.381L185.756 183.997C185.805 168.635 191.678 154.119 202.697 143.099C216.33 129.462 241.84 140.553 254.769 150.797L254.912 150.905C267.113 160.609 275.299 174.478 277.899 189.85C274.072 190.498 270.542 192.324 267.8 195.072C264.7 198.17 262.786 202.258 262.391 206.623C261.997 210.988 263.148 215.353 265.643 218.957L265.612 218.941ZM260.59 239.089C266.426 236.12 271.666 231.9 276.491 226.47C277.97 226.838 279.488 227.023 281.012 227.021C281.441 227.021 281.854 227.01 282.269 226.98C276.14 232.507 268.898 236.657 261.031 239.15L260.59 239.089ZM271.155 224.21C264.979 230.755 258.101 235.153 250.074 237.285C240.545 239.814 223.759 239.263 215.07 234.328C214.605 234.066 214.146 233.794 213.688 233.518C225.393 236.009 235.55 236.701 244.159 235.594C254.997 234.201 263.403 229.989 269.377 222.958C269.945 223.41 270.538 223.829 271.154 224.213L271.155 224.21ZM252.056 275.103C256.904 273.507 262.466 271.463 268.74 268.969C264.331 272.954 257.108 278.025 251.319 281.037L251.698 287.237C263.881 291.784 276.859 290.575 289.452 286.14C288.76 269.43 282.761 253.896 273.619 239.714C270.759 241.258 267.785 242.578 264.722 243.664C268.167 246.011 270.582 250.151 271.969 256.084C268.584 249.704 264.833 245.889 260.716 244.638C257.098 243.965 253.358 244.643 250.206 246.544C250.077 246.645 249.937 246.731 249.79 246.803C230.008 260.513 207.874 253.146 198.861 241.614L198.389 240.708C194.979 234.136 195.444 228.478 185.201 226.674C170.18 224.024 160.694 242.255 171.279 253.065L171.43 253.234C182.759 266.317 196.854 274.837 214.094 279.86C225.772 283.267 240.653 278.516 252.054 275.105L252.056 275.103ZM240.388 284.064C239.016 284.399 237.65 284.711 236.291 284.99C236.794 291.973 235.814 299.761 234.298 307.222L235.989 307.524L242.645 301.289L239.867 299.716C233.165 294.61 237.67 283.915 245.966 285.051L245.86 282.762C244.12 283.235 242.296 283.67 240.386 284.067L240.388 284.064ZM277.36 218.254L293.373 210.62C293.373 210.745 293.373 210.866 293.373 210.995C293.374 212.191 293.152 213.377 292.72 214.492C292.29 215.173 291.861 215.845 291.408 216.504C291.088 216.908 290.746 217.293 290.383 217.658L290.372 217.669C289.457 218.585 288.413 219.36 287.272 219.971C285.62 220.621 283.821 220.804 282.072 220.501C280.323 220.199 278.69 219.421 277.352 218.254L277.36 218.254ZM291.594 205.401L274.427 213.583C273.97 211.935 273.958 210.196 274.392 208.542C274.827 206.888 275.693 205.379 276.902 204.169C278.693 202.386 281.112 201.374 283.64 201.35C286.167 201.326 288.604 202.292 290.429 204.042L290.555 204.175C290.934 204.557 291.281 204.97 291.592 205.41L291.594 205.401ZM220.184 341.911C218.803 358.272 202.289 354.77 200.256 373.728C198.93 386.08 221.261 393.013 241.575 380.359C246.868 376.639 251.379 369.141 251.519 364.311C251.834 353.452 253.236 345.524 257.356 339.847C252.132 333.406 246.908 328.861 241.683 326.211C236.552 323.611 231.389 322.855 226.195 323.944C220.503 331.2 220.57 337.323 220.183 341.917L220.184 341.911Z" fill="#381A46"></path>
    <path fill-rule="evenodd" clip-rule="evenodd" d="M182.142 392.95C185.69 393.993 189.428 394.22 193.075 393.615C196.723 393.009 200.187 391.587 203.207 389.453C205.884 390.915 208.435 391.686 211.505 392.238L211.426 392.224C205.481 397.575 197.78 400.557 189.782 400.606C181.785 400.655 174.047 397.768 168.037 392.49C162.027 387.213 158.163 379.914 157.177 371.977C156.191 364.039 158.152 356.016 162.688 349.429C167.108 343.692 173.34 339.623 180.194 337.685C180.178 337.688 180.163 337.693 180.148 337.699C174.09 339.511 168.804 343.281 165.119 348.42C161.434 353.559 159.558 359.775 159.785 366.094C160.012 372.414 162.329 378.479 166.373 383.34C170.417 388.201 175.96 391.583 182.132 392.955" fill="#AD1B2F"></path>
    <path fill-rule="evenodd" clip-rule="evenodd" d="M310.66 437.101C303.915 428.486 292.235 441.738 280.761 441.898C279.261 440.317 276.53 434.979 276.342 432.497C287.222 430.121 298.31 427.204 309.606 423.744C309.374 438.221 319.97 444.515 332.721 446.89C322.804 446.855 316.782 442.622 310.66 437.101Z" fill="#AD1B2F"></path>
    <path fill-rule="evenodd" clip-rule="evenodd" d="M302.096 386.178C284.784 394.165 306.681 400.28 367.789 404.522C360.719 404.924 351.523 405.189 342.038 405.122C329.986 405.04 317.457 404.423 308.203 402.89C300.684 401.641 293.887 400.35 293.529 393.831C293.219 388.296 297.658 386.583 302.096 386.178Z" fill="#1176BB"></path>
    <path fill-rule="evenodd" clip-rule="evenodd" d="M339.622 351.336C340.741 352.146 360.031 355.517 365.742 357.743C359.097 355.846 349.836 353.567 342.206 353.956C337.502 354.197 333.418 355.452 330.943 358.434L314.812 345.272L309.287 341.42C312.623 339.99 316.496 339.529 320.674 339.794C328.051 342.529 334.367 346.377 339.622 351.336Z" fill="#AD1B2F"></path>
    <path fill-rule="evenodd" clip-rule="evenodd" d="M203.94 349.905C205.606 346.499 206.901 346.741 208.502 344.469C208.774 344.078 209.019 343.668 209.236 343.243C210.611 344.323 211.902 345.505 213.098 346.779C212.465 347.924 208.081 350.732 206.485 352.153C205.688 351.347 204.838 350.596 203.94 349.905Z" fill="#AD1B2F"></path>
    <path fill-rule="evenodd" clip-rule="evenodd" d="M174.539 264.361C173.047 269.798 171.516 267.712 169.655 266.69C168.081 265.823 166.983 264.772 166.267 263.576L167.907 257.309L174.539 264.361Z" fill="#1176BB"></path>
    <path fill-rule="evenodd" clip-rule="evenodd" d="M184.42 221.045C180.341 220.677 176.243 221.498 172.62 223.409L173.002 221.529L173.666 218.248C177.386 218.534 181.127 218.906 184.833 219.348L184.594 220.33L184.42 221.045Z" fill="#1176BB"></path>
    <path fill-rule="evenodd" clip-rule="evenodd" d="M136.427 193.621C135.547 199.11 139.058 200.999 143.799 196.992C146.936 194.341 148.161 188.23 149.368 180.482C149.511 191.446 147.746 198.444 140.715 207.88C139.284 203.159 135.576 199.535 131.021 196.747C135.019 191.828 135.517 187.209 134.682 182.485C137.121 185.366 137.17 188.964 136.427 193.621Z" fill="#AD1B2F"></path>
    <path fill-rule="evenodd" clip-rule="evenodd" d="M118.443 195.15L118.445 195.156L118.441 195.15L118.443 195.15Z" fill="#AD1B2F"></path>
    <path fill-rule="evenodd" clip-rule="evenodd" d="M124.738 199.555C129.004 201.599 132.044 203.852 133.859 206.314C135.385 208.379 136.03 210.641 135.793 213.099L131.45 215.972C128.127 217.623 124.693 218.13 121.488 217.201C114.423 215.041 110.559 207.411 109.816 198.275C114.076 214.686 128.842 219.287 127.815 211.397C127.163 206.397 125.42 203.342 121.521 198.691C121.977 198.943 122.464 199.133 122.97 199.258L124.738 199.555Z" fill="#AD1B2F"></path>
    <path fill-rule="evenodd" clip-rule="evenodd" d="M110.133 385.347C106.627 390.378 102.416 394.879 97.63 398.712C79.169 386.169 62.3736 370.158 47.2439 350.678C47.0908 348.906 47.2997 347.142 48.0436 346.283C67.5432 362.051 88.2398 375.072 110.133 385.347Z" fill="#AD1B2F"></path>
    <g opacity="0.25">
      <path opacity="0.25" fill-rule="evenodd" clip-rule="evenodd" d="M383.642 426.707C404.895 421.465 418.492 412.386 433.885 413.138C424.908 414.924 416.093 417.754 408.478 422.498C384.402 437.5 353.331 435.038 332.575 415.766L338.412 411.584L339.699 410.439L348.665 410.504L376.159 409.342C376.741 409.232 377.296 409.014 377.797 408.698C380.665 406.981 376.939 403.977 373.989 402.004C365.986 396.652 355.821 391.569 346.613 388.502C358.878 389.686 385.169 401.352 384.85 412.168C384.77 414.84 383.133 417.009 380.282 418.435C369.893 423.64 364.938 416.814 358.933 418.709C357.002 419.317 357.164 420.686 358.971 421.953C362.022 424.099 373.386 429.234 383.644 426.704" fill="#5C0502"></path>
    </g>
    <g opacity="0.56">
      <path opacity="0.56" fill-rule="evenodd" clip-rule="evenodd" d="M431.432 411.138C400.849 389.025 371.52 377.138 343.445 375.477C370.912 367.877 405.936 390.559 431.425 411.138" fill="white"></path>
    </g>
    <path fill-rule="evenodd" clip-rule="evenodd" d="M367.789 404.522C344.96 393.921 323.658 387.773 303.885 386.077C305.458 386.054 307.03 386.116 308.596 386.263C320.437 387.28 332.085 389.459 343.094 393.091C343.953 393.377 344.807 393.67 345.658 393.968C353.393 396.68 360.813 400.218 367.789 404.522Z" fill="#9ADDFF"></path>
    <path fill-rule="evenodd" clip-rule="evenodd" d="M280.761 441.897C293.978 451.671 313.987 453.67 340.788 447.893C319.757 453.328 292.416 457.322 280.761 441.897Z" fill="#F68A8E"></path>
    <path fill-rule="evenodd" clip-rule="evenodd" d="M365.737 357.738C346.543 347.724 331.522 341.743 320.674 339.795C335.14 340.715 353.291 350.285 365.737 357.738Z" fill="#F68A8E"></path>
    <path fill-rule="evenodd" clip-rule="evenodd" d="M147.531 169.972C133.832 153.908 121.33 160.394 110.025 189.429C111.242 179.522 115.698 169.326 123.309 163.062C133.896 154.351 143.621 159.185 147.531 169.972Z" fill="#F68A8E"></path>
    <path fill-rule="evenodd" clip-rule="evenodd" d="M111.761 314.569C86.7377 319.304 65.4985 329.877 48.0437 346.286C63.4781 328.403 83.6649 316.657 109.039 310.456L109.361 311.028C110.207 312.187 111.007 313.367 111.761 314.569Z" fill="#F68A8E"></path>
    <g opacity="0.29">
      <path opacity="0.29" fill-rule="evenodd" clip-rule="evenodd" d="M93.7246 339.332C92.5813 339.001 91.5643 338.333 90.807 337.415C90.0496 336.497 89.5872 335.372 89.4802 334.187C89.3732 333.001 89.6267 331.811 90.2074 330.772C90.7881 329.733 91.6689 328.894 92.7346 328.364C93.3641 328.167 93.995 327.975 94.623 327.792C98.6326 326.612 102.72 325.713 106.854 325.101C108.351 325.236 109.744 325.926 110.757 327.036C111.771 328.145 112.334 329.594 112.334 331.097C112.334 332.6 111.771 334.049 110.757 335.158C109.744 336.268 108.351 336.958 106.854 337.093C102.922 337.428 98.5456 338.174 93.7246 339.333L93.7246 339.332ZM85.0253 333.942C85.6521 334.46 86.1383 335.128 86.4388 335.883C86.7394 336.639 86.8446 337.458 86.7448 338.265C86.645 339.071 86.3433 339.84 85.8677 340.5C85.3921 341.159 84.758 341.688 84.0239 342.037C83.6019 342.169 83.1784 342.302 82.7521 342.439C82.5347 342.512 82.3144 342.582 82.0926 342.655C80.9714 342.956 79.7787 342.836 78.7398 342.318C77.7009 341.8 76.8878 340.919 76.454 339.842C76.0201 338.765 75.9956 337.567 76.385 336.473C76.7744 335.379 77.5509 334.466 78.5677 333.905C78.9897 333.709 79.4089 333.518 79.8295 333.326L80.0898 333.207C80.9017 332.87 81.7899 332.76 82.6593 332.89C83.5288 333.019 84.3466 333.382 85.0253 333.941L85.0253 333.942Z" fill="white"></path>
    </g>
    <path fill-rule="evenodd" clip-rule="evenodd" d="M189.062 344.868C171.38 344.868 160.821 362.294 165.701 377.104C163.308 372.04 162.771 366.297 164.183 360.877C165.596 355.458 168.868 350.707 173.428 347.456C177.988 344.205 183.546 342.66 189.13 343.091C194.713 343.522 199.968 345.903 203.974 349.816L203.933 349.901C199.662 346.638 194.437 344.87 189.062 344.868Z" fill="#F68A8E"></path>
    <path fill-rule="evenodd" clip-rule="evenodd" d="M123.227 186.936C123.754 185.157 125.117 182.938 126.487 182.159C127.364 181.792 128.204 181.99 128.821 182.677C128.842 182.704 128.862 182.729 128.879 182.755L128.908 182.797L128.931 182.828L128.971 182.89C129.735 183.908 130.045 185.785 129.436 188.346L129.414 188.449L129.407 188.481L129.392 188.554L129.379 188.609L129.367 188.658C129.369 188.686 129.363 188.713 129.349 188.737L129.349 188.76L129.321 188.863L129.297 188.961L129.29 188.987C129.286 189.012 129.28 189.036 129.271 189.06L129.257 189.107L129.243 189.156L129.223 189.229L129.216 189.252L129.188 189.345C128.309 192.133 126.998 193.572 125.785 193.923C124.914 194.173 124.093 193.859 123.512 193.079C123.511 193.07 123.509 193.062 123.505 193.054C123.501 193.047 123.496 193.04 123.489 193.034C123.479 193.014 123.466 192.994 123.458 192.973L123.425 192.916L123.413 192.891C122.669 191.731 122.433 189.697 123.201 187.036C123.209 187.01 123.217 186.983 123.223 186.957C123.229 186.931 123.223 186.943 123.23 186.937" fill="white"></path>
    <path fill-rule="evenodd" clip-rule="evenodd" d="M92.8691 181.886C85.5084 179.759 78.686 177.941 72.402 176.433C66.1628 174.944 60.379 173.745 55.0506 172.837C54.5425 172.752 54.0687 172.526 53.6837 172.184C53.2986 171.842 53.018 171.398 52.8742 170.903C52.7304 170.409 52.7292 169.884 52.8708 169.388C53.0123 168.893 53.2909 168.448 53.6744 168.104C55.4482 166.457 57.404 165.017 59.504 163.812L62.016 162.473C50.4627 154.573 38.4579 147.059 26.0014 139.93C34.6945 142.874 42.658 146.083 49.8919 149.559C57.1259 153.034 63.5992 156.772 69.3119 160.774C69.7221 161.06 70.0455 161.454 70.2468 161.912C70.4481 162.37 70.5195 162.875 70.4531 163.37C70.3868 163.866 70.1853 164.334 69.8707 164.724C69.5562 165.113 69.1406 165.408 68.6696 165.576C66.443 166.366 64.2922 167.354 62.2435 168.531L62.1462 168.585C65.7627 169.307 69.6023 170.153 73.6652 171.123C80.0903 172.661 86.9976 174.5 94.3869 176.639C94.7311 176.739 95.0523 176.906 95.3321 177.129C95.6119 177.353 95.8449 177.63 96.0178 177.944C96.367 178.578 96.4501 179.324 96.2488 180.019C96.0476 180.715 95.5784 181.301 94.9446 181.65C94.3107 182 93.5642 182.083 92.8691 181.881L92.8691 181.886ZM70.2032 231.499C70.0302 228.439 70.25 225.37 70.8569 222.366C71.1709 220.784 71.5667 219.22 72.0429 217.679C63.5692 218.678 54.5322 220.585 44.9322 223.402C50.9139 220.321 56.4554 217.746 61.5568 215.676C66.7126 213.589 71.4521 212.005 75.7753 210.922C76.2666 210.799 76.7825 210.815 77.2653 210.968C77.7482 211.121 78.179 211.405 78.5096 211.789C78.8402 212.173 79.0577 212.641 79.1377 213.141C79.2177 213.642 79.157 214.154 78.9625 214.622C77.759 217.453 76.8432 220.398 76.2287 223.412C76.0065 224.551 75.8439 225.667 75.7409 226.76C78.809 225.111 81.8647 223.593 84.908 222.204C89.1199 220.267 93.4347 218.563 97.8332 217.098C98.5226 216.871 99.2742 216.926 99.9226 217.253C100.571 217.579 101.063 218.15 101.291 218.839C101.519 219.529 101.463 220.281 101.136 220.929C100.81 221.577 100.239 222.07 99.5499 222.297C95.3407 223.693 91.2115 225.32 87.1812 227.17C83.0106 229.078 78.7189 231.296 74.3061 233.824C73.9941 234.003 73.65 234.118 73.2935 234.164C72.9369 234.209 72.5749 234.184 72.228 234.09C71.8812 233.996 71.5563 233.834 71.2719 233.614C70.9876 233.394 70.7494 233.12 70.5708 232.808C70.3397 232.412 70.2131 231.963 70.2032 231.504L70.2032 231.499ZM108.462 145.322C101.214 140.487 94.7608 135.75 89.1024 131.112C83.4173 126.45 78.5744 121.914 74.5736 117.505C74.1877 117.08 73.9452 116.545 73.8803 115.975C73.8153 115.405 73.9313 114.829 74.2118 114.328C74.4923 113.828 74.923 113.428 75.4431 113.186C75.9632 112.943 76.5463 112.871 77.11 112.978C80.1916 113.388 83.3009 113.554 86.4086 113.473C87.4577 113.436 88.4663 113.362 89.4343 113.252C83.5398 103.324 76.433 94.1694 68.2776 85.9976C73.4789 90.0434 78.4664 94.357 83.2199 98.9206C87.9552 103.466 92.4481 108.258 96.6801 113.276C96.9372 113.577 97.1243 113.932 97.2281 114.314C97.4207 115.013 97.3282 115.759 96.9709 116.389C96.6135 117.019 96.0206 117.481 95.3225 117.674C92.7189 118.398 89.8039 118.817 86.5775 118.931C85.6118 118.966 84.6162 118.968 83.5962 118.948C86.2999 121.562 89.2913 124.212 92.5701 126.9C98.0378 131.383 104.341 136.004 111.481 140.764C112.068 141.172 112.472 141.794 112.606 142.496C112.741 143.198 112.595 143.924 112.201 144.52C111.806 145.116 111.194 145.534 110.496 145.685C109.797 145.835 109.067 145.706 108.462 145.325L108.462 145.322Z" fill="white"></path>
    <path fill-rule="evenodd" clip-rule="evenodd" d="M265.612 218.941C260.507 225.19 253.128 228.937 243.472 230.182C232.741 231.562 219.237 229.893 202.961 225.174C231.89 232.445 247.309 227.765 249.216 211.134C249.619 207.498 250.907 203.697 253.078 199.732C254.276 198.077 255.368 196.35 256.35 194.56C262.874 182.622 263.504 169.023 258.243 153.763C268.624 163.265 275.534 175.963 277.877 189.84C266.383 195.777 262.609 204.819 265.612 218.947" fill="#250C30"></path>
    <path fill-rule="evenodd" clip-rule="evenodd" d="M185.837 356.544C183.526 356.544 181.653 358.567 181.653 361.065C181.653 363.563 183.526 365.584 185.837 365.584C188.149 365.584 190.02 363.558 190.02 361.065C190.02 358.571 188.148 356.544 185.837 356.544ZM256.911 174.095C260.04 172.698 264.17 175.143 266.138 179.555C268.107 183.967 267.167 188.671 264.038 190.069C260.909 191.466 256.779 189.021 254.809 184.608C252.84 180.194 253.782 175.492 256.911 174.095ZM256.807 197.258C255.433 196.644 253.619 197.718 252.755 199.654C251.891 201.59 252.306 203.66 253.678 204.269C255.05 204.879 256.867 203.81 257.729 201.874C258.592 199.939 258.181 197.87 256.807 197.255L256.807 197.258ZM236.289 144.992C214.885 146.041 199.319 156.641 189.591 176.791C197.777 147.465 213.343 136.866 236.289 144.992ZM176.308 357.359C164.925 374.454 178.782 393.9 199.419 387.29C186.922 394.648 170.728 385.689 170.728 370.838C170.728 365.317 172.929 360.68 176.308 357.359Z" fill="#C3B9C8"></path>
  </g>
  <path d="M70.7428 147.107C76.8243 140.895 80.6698 132.873 81.6853 124.281C84.2819 102.589 68.6186 82.9209 46.7068 80.352C24.7949 77.7831 4.92522 93.2875 2.33031 114.979C-0.264603 136.671 15.397 156.34 37.3105 158.91C43.2001 159.607 49.1725 158.992 54.7914 157.111L71.9288 165.114L70.7428 147.107Z" fill="white"></path>
  <g opacity="0.5">
    <path opacity="0.5" d="M45.8885 87.427C66.435 89.8601 81.5015 107.424 81.2728 127.656C81.593 126.263 81.8389 124.855 82.0093 123.437C84.614 101.441 68.8934 81.4979 46.8991 78.8932C24.9048 76.2886 4.96024 92.0091 2.35556 114.003C2.18732 115.429 2.09525 116.863 2.07977 118.298C6.57784 98.5603 25.3336 84.9988 45.8885 87.427Z" fill="white"></path>
  </g>
  <path d="M72.2101 168.188C72.6084 168.188 73.0025 168.106 73.3681 167.948C73.7336 167.789 74.0627 167.557 74.335 167.265C74.6073 166.974 74.817 166.63 74.9512 166.254C75.0853 165.878 75.141 165.478 75.1148 165.08L74.0202 148.239C80.9332 140.598 84.8463 130.703 85.0334 120.39C85.2206 110.077 81.6692 100.046 75.038 92.1576C68.4069 84.2693 59.146 79.0592 48.9734 77.4937C38.8008 75.9283 28.4069 78.1138 19.7198 83.6449C11.0328 89.1759 4.64217 97.677 1.73352 107.571C-1.17513 117.465 -0.404419 128.081 3.90271 137.449C8.20984 146.817 15.761 154.302 25.1555 158.514C34.55 162.727 45.15 163.381 54.9894 160.356L70.9606 167.911C71.3515 168.095 71.7783 168.189 72.2101 168.188ZM42.4686 82.6881C43.9231 82.688 45.3763 82.7737 46.8208 82.9449C53.6225 83.7513 60.0643 86.4459 65.42 90.7249C70.7757 95.0038 74.8324 100.697 77.1328 107.163C79.4331 113.628 79.8857 120.61 78.4395 127.319C76.9933 134.029 73.7058 140.201 68.9476 145.138C68.6656 145.431 68.4477 145.779 68.3079 146.161C68.1681 146.543 68.1094 146.95 68.1357 147.356L68.9925 160.528L56.4418 154.594C55.7597 154.272 54.9799 154.227 54.2657 154.469C49.0961 156.226 43.5985 156.795 38.1796 156.136C18.0491 153.747 3.60679 135.386 5.99084 115.207C8.19354 96.494 24.1116 82.6881 42.4686 82.6881Z" fill="#1A1F47"></path>
  <g opacity="0.3">
    <path opacity="0.3" d="M71.2256 147.126C58.4763 153.795 42.8197 154.46 28.9706 147.528C13.6133 139.84 4.40189 124.772 3.45688 108.778C2.89875 110.777 2.49568 112.817 2.25124 114.878C-0.353439 136.874 15.3671 156.815 37.3631 159.422C43.2749 160.128 49.2698 159.505 54.9098 157.597L72.1118 165.712L70.9213 147.454C71.0256 147.347 71.1231 147.236 71.2256 147.126Z" fill="#1A1F47"></path>
  </g>
  <path d="M46.1173 106.866L39.5504 136.333" stroke="#323232" stroke-width="6.31436" stroke-linecap="round" stroke-linejoin="round"></path>
  <path d="M56.5151 114.233L63.8818 121.6L56.5151 128.966" stroke="#323232" stroke-width="6.31436" stroke-linecap="round" stroke-linejoin="round"></path>
  <path d="M29.1529 128.966L21.7861 121.6L29.1529 114.233" stroke="#323232" stroke-width="6.31436" stroke-linecap="round" stroke-linejoin="round"></path>
  <g filter="url(#filter0_d_1602_1036)">
    <rect x="383" y="126" width="158" height="151" rx="24" fill="white" shape-rendering="crispEdges"></rect>
    <circle cx="462" cy="168" r="20" fill="#FFF6D1"></circle>
    <path fill-rule="evenodd" clip-rule="evenodd" d="M468.429 173H455.571C454.151 173 453 171.849 453 170.429V161.571C453 160.151 454.151 159 455.571 159H468.428C469.849 159 471 160.151 471 161.571V170.428C471 171.849 469.849 173 468.429 173Z" stroke="#323232" stroke-width="1.5" stroke-linecap="round" stroke-linejoin="round"></path>
    <path d="M464 173L464.5 177" stroke="#323232" stroke-width="1.5" stroke-linecap="round" stroke-linejoin="round"></path>
    <path d="M460 173L459.5 177" stroke="#323232" stroke-width="1.5" stroke-linecap="round" stroke-linejoin="round"></path>
    <path d="M458.14 177H465.86" stroke="#323232" stroke-width="1.5" stroke-linecap="round" stroke-linejoin="round"></path>
    <path d="M416.235 210.855H414.213C414.176 210.594 414.101 210.362 413.987 210.158C413.873 209.952 413.727 209.777 413.548 209.632C413.37 209.487 413.163 209.377 412.929 209.3C412.699 209.223 412.448 209.184 412.177 209.184C411.688 209.184 411.261 209.306 410.898 209.549C410.535 209.789 410.253 210.14 410.053 210.602C409.853 211.06 409.753 211.617 409.753 212.273C409.753 212.947 409.853 213.513 410.053 213.972C410.257 214.43 410.54 214.776 410.903 215.01C411.266 215.244 411.686 215.361 412.163 215.361C412.431 215.361 412.679 215.326 412.906 215.255C413.137 215.184 413.342 215.081 413.52 214.946C413.699 214.807 413.847 214.639 413.964 214.442C414.084 214.246 414.167 214.021 414.213 213.768L416.235 213.778C416.183 214.212 416.052 214.63 415.842 215.033C415.636 215.433 415.358 215.792 415.007 216.109C414.659 216.423 414.244 216.672 413.76 216.857C413.28 217.038 412.737 217.129 412.131 217.129C411.288 217.129 410.534 216.938 409.869 216.557C409.207 216.175 408.684 215.623 408.299 214.9C407.918 214.176 407.727 213.301 407.727 212.273C407.727 211.242 407.921 210.365 408.308 209.641C408.696 208.918 409.222 208.367 409.887 207.989C410.552 207.607 411.3 207.416 412.131 207.416C412.679 207.416 413.186 207.493 413.654 207.647C414.125 207.801 414.542 208.026 414.905 208.321C415.269 208.613 415.564 208.972 415.792 209.397C416.023 209.821 416.17 210.308 416.235 210.855ZM418.318 217V207.545H422.048C422.762 207.545 423.372 207.673 423.877 207.929C424.384 208.181 424.771 208.54 425.035 209.004C425.303 209.466 425.437 210.009 425.437 210.634C425.437 211.262 425.302 211.802 425.031 212.254C424.76 212.704 424.367 213.048 423.853 213.288C423.343 213.528 422.724 213.648 421.998 213.648H419.5V212.042H421.674C422.056 212.042 422.373 211.99 422.625 211.885C422.878 211.78 423.066 211.623 423.189 211.414C423.315 211.205 423.378 210.945 423.378 210.634C423.378 210.32 423.315 210.055 423.189 209.84C423.066 209.624 422.876 209.461 422.621 209.35C422.369 209.237 422.05 209.18 421.665 209.18H420.317V217H418.318ZM423.424 212.697L425.774 217H423.567L421.268 212.697H423.424ZM429.498 207.545V217H427.5V207.545H429.498ZM433.423 217H431.281L434.545 207.545H437.121L440.38 217H438.238L435.869 209.706H435.796L433.423 217ZM433.289 213.284H438.349V214.844H433.289V213.284ZM442.168 207.545H444.633L447.237 213.898H447.347L449.951 207.545H452.416V217H450.477V210.846H450.399L447.952 216.954H446.632L444.185 210.823H444.107V217H442.168V207.545ZM463.401 212.273C463.401 213.304 463.206 214.181 462.815 214.904C462.427 215.627 461.898 216.18 461.227 216.561C460.559 216.94 459.808 217.129 458.974 217.129C458.134 217.129 457.38 216.938 456.712 216.557C456.044 216.175 455.517 215.623 455.129 214.9C454.741 214.176 454.547 213.301 454.547 212.273C454.547 211.242 454.741 210.365 455.129 209.641C455.517 208.918 456.044 208.367 456.712 207.989C457.38 207.607 458.134 207.416 458.974 207.416C459.808 207.416 460.559 207.607 461.227 207.989C461.898 208.367 462.427 208.918 462.815 209.641C463.206 210.365 463.401 211.242 463.401 212.273ZM461.375 212.273C461.375 211.605 461.275 211.042 461.075 210.583C460.878 210.125 460.599 209.777 460.239 209.54C459.879 209.303 459.457 209.184 458.974 209.184C458.491 209.184 458.069 209.303 457.709 209.54C457.349 209.777 457.069 210.125 456.869 210.583C456.672 211.042 456.574 211.605 456.574 212.273C456.574 212.941 456.672 213.504 456.869 213.962C457.069 214.421 457.349 214.769 457.709 215.006C458.069 215.243 458.491 215.361 458.974 215.361C459.457 215.361 459.879 215.243 460.239 215.006C460.599 214.769 460.878 214.421 461.075 213.962C461.275 213.504 461.375 212.941 461.375 212.273ZM470.661 210.265C470.624 209.892 470.466 209.603 470.186 209.397C469.906 209.19 469.525 209.087 469.045 209.087C468.719 209.087 468.444 209.134 468.219 209.226C467.994 209.315 467.822 209.44 467.702 209.6C467.585 209.76 467.527 209.941 467.527 210.145C467.52 210.314 467.556 210.462 467.633 210.588C467.713 210.714 467.822 210.823 467.96 210.915C468.099 211.005 468.259 211.083 468.441 211.151C468.622 211.216 468.816 211.271 469.022 211.317L469.872 211.52C470.284 211.613 470.663 211.736 471.007 211.89C471.352 212.043 471.651 212.233 471.903 212.457C472.155 212.682 472.351 212.947 472.489 213.251C472.631 213.556 472.703 213.905 472.706 214.299C472.703 214.878 472.555 215.38 472.263 215.804C471.974 216.226 471.555 216.554 471.007 216.788C470.463 217.018 469.806 217.134 469.036 217.134C468.273 217.134 467.608 217.017 467.042 216.783C466.479 216.549 466.038 216.203 465.721 215.744C465.408 215.283 465.243 214.712 465.227 214.032H467.162C467.183 214.349 467.274 214.613 467.434 214.826C467.597 215.035 467.814 215.193 468.085 215.301C468.359 215.406 468.668 215.458 469.013 215.458C469.352 215.458 469.645 215.409 469.895 215.31C470.147 215.212 470.343 215.075 470.481 214.9C470.62 214.724 470.689 214.522 470.689 214.295C470.689 214.082 470.626 213.904 470.5 213.759C470.376 213.615 470.195 213.491 469.955 213.39C469.718 213.288 469.427 213.196 469.082 213.113L468.053 212.854C467.256 212.661 466.626 212.357 466.165 211.945C465.703 211.533 465.474 210.977 465.477 210.278C465.474 209.706 465.626 209.206 465.934 208.778C466.245 208.35 466.671 208.016 467.213 207.776C467.754 207.536 468.37 207.416 469.059 207.416C469.761 207.416 470.373 207.536 470.897 207.776C471.423 208.016 471.832 208.35 472.125 208.778C472.417 209.206 472.568 209.701 472.577 210.265H470.661ZM478.36 207.545H480.825L483.428 213.898H483.539L486.143 207.545H488.608V217H486.669V210.846H486.591L484.144 216.954H482.824L480.377 210.823H480.298V217H478.36V207.545ZM492.535 217H490.393L493.656 207.545H496.232L499.492 217H497.35L494.981 209.706H494.908L492.535 217ZM492.401 213.284H497.46V214.844H492.401V213.284ZM503.279 207.545V217H501.28V207.545H503.279ZM510.702 210.265C510.665 209.892 510.507 209.603 510.227 209.397C509.947 209.19 509.566 209.087 509.086 209.087C508.76 209.087 508.485 209.134 508.26 209.226C508.035 209.315 507.863 209.44 507.743 209.6C507.626 209.76 507.568 209.941 507.568 210.145C507.561 210.314 507.597 210.462 507.674 210.588C507.754 210.714 507.863 210.823 508.001 210.915C508.14 211.005 508.3 211.083 508.482 211.151C508.663 211.216 508.857 211.271 509.063 211.317L509.913 211.52C510.325 211.613 510.704 211.736 511.048 211.89C511.393 212.043 511.692 212.233 511.944 212.457C512.196 212.682 512.392 212.947 512.53 213.251C512.672 213.556 512.744 213.905 512.747 214.299C512.744 214.878 512.596 215.38 512.304 215.804C512.015 216.226 511.596 216.554 511.048 216.788C510.504 217.018 509.847 217.134 509.077 217.134C508.314 217.134 507.649 217.017 507.083 216.783C506.52 216.549 506.079 216.203 505.762 215.744C505.449 215.283 505.284 214.712 505.269 214.032H507.203C507.224 214.349 507.315 214.613 507.475 214.826C507.638 215.035 507.855 215.193 508.126 215.301C508.4 215.406 508.709 215.458 509.054 215.458C509.393 215.458 509.686 215.409 509.936 215.31C510.188 215.212 510.384 215.075 510.522 214.9C510.661 214.724 510.73 214.522 510.73 214.295C510.73 214.082 510.667 213.904 510.541 213.759C510.417 213.615 510.236 213.491 509.996 213.39C509.759 213.288 509.468 213.196 509.123 213.113L508.094 212.854C507.297 212.661 506.667 212.357 506.206 211.945C505.744 211.533 505.515 210.977 505.518 210.278C505.515 209.706 505.667 209.206 505.975 208.778C506.286 208.35 506.712 208.016 507.254 207.776C507.795 207.536 508.411 207.416 509.1 207.416C509.802 207.416 510.414 207.536 510.938 207.776C511.464 208.016 511.873 208.35 512.166 208.778C512.458 209.206 512.609 209.701 512.618 210.265H510.702ZM408.335 236H404.034V224.364H408.329C409.515 224.364 410.536 224.597 411.392 225.062C412.252 225.525 412.914 226.191 413.38 227.062C413.846 227.93 414.079 228.968 414.079 230.176C414.079 231.388 413.846 232.43 413.38 233.301C412.918 234.172 412.257 234.841 411.397 235.307C410.538 235.769 409.517 236 408.335 236ZM406.846 233.602H408.227C408.879 233.602 409.43 233.492 409.88 233.273C410.335 233.049 410.678 232.688 410.909 232.188C411.144 231.684 411.261 231.013 411.261 230.176C411.261 229.339 411.144 228.672 410.909 228.176C410.674 227.676 410.327 227.316 409.869 227.097C409.414 226.873 408.854 226.761 408.187 226.761H406.846V233.602ZM416.521 236V224.364H424.635V226.648H419.334V229.034H424.22V231.324H419.334V233.716H424.635V236H416.521ZM436.792 224.364V236H433.985V226.989H433.917L431.314 228.58V226.148L434.184 224.364H436.792ZM444.619 236.159C443.77 236.159 443.016 236.006 442.357 235.699C441.698 235.392 441.177 234.97 440.795 234.432C440.416 233.894 440.219 233.277 440.204 232.58H442.931C442.954 233.008 443.128 233.352 443.454 233.614C443.78 233.871 444.168 234 444.619 234C444.971 234 445.284 233.922 445.556 233.767C445.829 233.612 446.043 233.394 446.198 233.114C446.354 232.83 446.429 232.504 446.426 232.136C446.429 231.761 446.352 231.434 446.193 231.153C446.037 230.873 445.821 230.655 445.545 230.5C445.272 230.341 444.958 230.261 444.602 230.261C444.265 230.258 443.945 230.331 443.641 230.483C443.342 230.634 443.115 230.841 442.96 231.102L440.477 230.636L440.982 224.364H448.448V226.631H443.295L443.028 229.375H443.096C443.289 229.053 443.6 228.788 444.028 228.58C444.46 228.367 444.95 228.261 445.499 228.261C446.196 228.261 446.818 228.424 447.363 228.75C447.912 229.072 448.344 229.519 448.659 230.091C448.977 230.663 449.136 231.318 449.136 232.057C449.136 232.856 448.946 233.564 448.568 234.182C448.193 234.799 447.666 235.284 446.988 235.636C446.314 235.985 445.524 236.159 444.619 236.159ZM456.292 236.284C455.277 236.284 454.402 236.044 453.667 235.562C452.932 235.078 452.366 234.383 451.968 233.477C451.571 232.568 451.374 231.475 451.378 230.199C451.381 228.922 451.58 227.839 451.974 226.949C452.372 226.055 452.936 225.375 453.667 224.909C454.402 224.439 455.277 224.205 456.292 224.205C457.307 224.205 458.182 224.439 458.917 224.909C459.656 225.375 460.224 226.055 460.622 226.949C461.02 227.843 461.217 228.926 461.213 230.199C461.213 231.479 461.014 232.574 460.616 233.483C460.218 234.392 459.652 235.087 458.917 235.568C458.186 236.045 457.311 236.284 456.292 236.284ZM456.292 233.983C456.898 233.983 457.389 233.674 457.764 233.057C458.139 232.436 458.325 231.483 458.321 230.199C458.321 229.358 458.236 228.665 458.065 228.119C457.895 227.57 457.658 227.161 457.355 226.892C457.052 226.623 456.698 226.489 456.292 226.489C455.69 226.489 455.203 226.794 454.832 227.403C454.461 228.009 454.273 228.941 454.27 230.199C454.266 231.051 454.347 231.758 454.514 232.318C454.684 232.879 454.923 233.297 455.23 233.574C455.537 233.847 455.891 233.983 456.292 233.983ZM474.174 227.852C474.136 227.436 473.967 227.112 473.668 226.881C473.372 226.646 472.95 226.528 472.401 226.528C472.037 226.528 471.734 226.576 471.492 226.67C471.249 226.765 471.068 226.896 470.946 227.062C470.825 227.225 470.763 227.413 470.759 227.625C470.751 227.799 470.785 227.953 470.861 228.085C470.941 228.218 471.054 228.335 471.202 228.438C471.354 228.536 471.535 228.623 471.747 228.699C471.96 228.775 472.198 228.841 472.463 228.898L473.463 229.125C474.039 229.25 474.547 229.417 474.986 229.625C475.429 229.833 475.8 230.081 476.1 230.369C476.403 230.657 476.632 230.989 476.787 231.364C476.943 231.739 477.022 232.159 477.026 232.625C477.022 233.36 476.836 233.991 476.469 234.517C476.102 235.044 475.573 235.447 474.884 235.727C474.198 236.008 473.371 236.148 472.401 236.148C471.427 236.148 470.579 236.002 469.855 235.71C469.132 235.419 468.569 234.975 468.168 234.381C467.766 233.786 467.56 233.034 467.549 232.125H470.242C470.264 232.5 470.365 232.812 470.543 233.062C470.721 233.312 470.965 233.502 471.276 233.631C471.59 233.759 471.954 233.824 472.367 233.824C472.746 233.824 473.068 233.773 473.333 233.67C473.602 233.568 473.808 233.426 473.952 233.244C474.096 233.062 474.17 232.854 474.174 232.619C474.17 232.4 474.102 232.212 473.969 232.057C473.836 231.898 473.632 231.761 473.355 231.648C473.083 231.53 472.734 231.422 472.31 231.324L471.094 231.04C470.086 230.809 469.293 230.436 468.713 229.92C468.134 229.402 467.846 228.701 467.85 227.818C467.846 227.098 468.039 226.468 468.429 225.926C468.819 225.384 469.359 224.962 470.049 224.659C470.738 224.356 471.524 224.205 472.407 224.205C473.308 224.205 474.09 224.358 474.753 224.665C475.42 224.968 475.937 225.394 476.304 225.943C476.672 226.492 476.859 227.129 476.867 227.852H474.174ZM482.059 224.364V236H479.246V224.364H482.059ZM484.244 226.648V224.364H494.079V226.648H490.551V236H487.778V226.648H484.244ZM496.253 236V224.364H504.366V226.648H499.065V229.034H503.951V231.324H499.065V233.716H504.366V236H496.253ZM513.217 227.852C513.179 227.436 513.011 227.112 512.712 226.881C512.416 226.646 511.994 226.528 511.445 226.528C511.081 226.528 510.778 226.576 510.536 226.67C510.293 226.765 510.111 226.896 509.99 227.062C509.869 227.225 509.806 227.413 509.803 227.625C509.795 227.799 509.829 227.953 509.905 228.085C509.984 228.218 510.098 228.335 510.246 228.438C510.397 228.536 510.579 228.623 510.791 228.699C511.003 228.775 511.242 228.841 511.507 228.898L512.507 229.125C513.083 229.25 513.59 229.417 514.03 229.625C514.473 229.833 514.844 230.081 515.143 230.369C515.446 230.657 515.676 230.989 515.831 231.364C515.986 231.739 516.066 232.159 516.07 232.625C516.066 233.36 515.88 233.991 515.513 234.517C515.145 235.044 514.617 235.447 513.928 235.727C513.242 236.008 512.414 236.148 511.445 236.148C510.471 236.148 509.623 236.002 508.899 235.71C508.176 235.419 507.613 234.975 507.212 234.381C506.81 233.786 506.604 233.034 506.592 232.125H509.286C509.308 232.5 509.409 232.812 509.587 233.062C509.765 233.312 510.009 233.502 510.32 233.631C510.634 233.759 510.998 233.824 511.411 233.824C511.789 233.824 512.111 233.773 512.376 233.67C512.645 233.568 512.852 233.426 512.996 233.244C513.14 233.062 513.214 232.854 513.217 232.619C513.214 232.4 513.145 232.212 513.013 232.057C512.88 231.898 512.676 231.761 512.399 231.648C512.126 231.53 511.778 231.422 511.354 231.324L510.138 231.04C509.13 230.809 508.337 230.436 507.757 229.92C507.178 229.402 506.89 228.701 506.893 227.818C506.89 227.098 507.083 226.468 507.473 225.926C507.863 225.384 508.403 224.962 509.092 224.659C509.782 224.356 510.568 224.205 511.45 224.205C512.352 224.205 513.134 224.358 513.797 224.665C514.464 224.968 514.981 225.394 515.348 225.943C515.715 226.492 515.903 227.129 515.911 227.852H513.217ZM429.119 252V242.545H432.85C433.567 242.545 434.178 242.682 434.682 242.956C435.187 243.227 435.572 243.604 435.836 244.087C436.104 244.567 436.238 245.121 436.238 245.749C436.238 246.377 436.103 246.931 435.832 247.411C435.561 247.891 435.169 248.265 434.655 248.533C434.144 248.801 433.525 248.935 432.799 248.935H430.421V247.333H432.476C432.86 247.333 433.177 247.267 433.427 247.134C433.679 246.999 433.867 246.813 433.99 246.576C434.116 246.336 434.179 246.06 434.179 245.749C434.179 245.435 434.116 245.161 433.99 244.928C433.867 244.691 433.679 244.507 433.427 244.378C433.174 244.246 432.854 244.18 432.466 244.18H431.118V252H429.119ZM446.875 247.273C446.875 248.304 446.679 249.181 446.288 249.904C445.901 250.627 445.371 251.18 444.7 251.561C444.032 251.94 443.282 252.129 442.447 252.129C441.607 252.129 440.853 251.938 440.185 251.557C439.518 251.175 438.99 250.623 438.602 249.9C438.214 249.176 438.02 248.301 438.02 247.273C438.02 246.242 438.214 245.365 438.602 244.641C438.99 243.918 439.518 243.367 440.185 242.989C440.853 242.607 441.607 242.416 442.447 242.416C443.282 242.416 444.032 242.607 444.7 242.989C445.371 243.367 445.901 243.918 446.288 244.641C446.679 245.365 446.875 246.242 446.875 247.273ZM444.848 247.273C444.848 246.605 444.748 246.042 444.548 245.583C444.351 245.125 444.072 244.777 443.712 244.54C443.352 244.303 442.931 244.184 442.447 244.184C441.964 244.184 441.543 244.303 441.183 244.54C440.822 244.777 440.542 245.125 440.342 245.583C440.145 246.042 440.047 246.605 440.047 247.273C440.047 247.941 440.145 248.504 440.342 248.962C440.542 249.421 440.822 249.769 441.183 250.006C441.543 250.243 441.964 250.361 442.447 250.361C442.931 250.361 443.352 250.243 443.712 250.006C444.072 249.769 444.351 249.421 444.548 248.962C444.748 248.504 444.848 247.941 444.848 247.273ZM449.005 252V242.545H452.736C453.45 242.545 454.059 242.673 454.564 242.929C455.071 243.181 455.458 243.54 455.722 244.004C455.99 244.466 456.124 245.009 456.124 245.634C456.124 246.262 455.989 246.802 455.718 247.254C455.447 247.704 455.055 248.048 454.541 248.288C454.03 248.528 453.411 248.648 452.685 248.648H450.187V247.042H452.362C452.743 247.042 453.06 246.99 453.313 246.885C453.565 246.78 453.753 246.623 453.876 246.414C454.002 246.205 454.065 245.945 454.065 245.634C454.065 245.32 454.002 245.055 453.876 244.84C453.753 244.624 453.563 244.461 453.308 244.35C453.056 244.237 452.737 244.18 452.352 244.18H451.004V252H449.005ZM454.111 247.697L456.461 252H454.254L451.955 247.697H454.111ZM463.475 252H461.333L464.597 242.545H467.173L470.432 252H468.29L465.922 244.706H465.848L463.475 252ZM463.341 248.284H468.401V249.844H463.341V248.284ZM480.128 242.545V252H478.402L474.288 246.049H474.219V252H472.22V242.545H473.974L478.055 248.491H478.138V242.545H480.128ZM491.118 247.273C491.118 248.304 490.922 249.181 490.532 249.904C490.144 250.627 489.614 251.18 488.943 251.561C488.276 251.94 487.525 252.129 486.691 252.129C485.85 252.129 485.096 251.938 484.429 251.557C483.761 251.175 483.233 250.623 482.845 249.9C482.457 249.176 482.263 248.301 482.263 247.273C482.263 246.242 482.457 245.365 482.845 244.641C483.233 243.918 483.761 243.367 484.429 242.989C485.096 242.607 485.85 242.416 486.691 242.416C487.525 242.416 488.276 242.607 488.943 242.989C489.614 243.367 490.144 243.918 490.532 244.641C490.922 245.365 491.118 246.242 491.118 247.273ZM489.091 247.273C489.091 246.605 488.991 246.042 488.791 245.583C488.594 245.125 488.316 244.777 487.956 244.54C487.595 244.303 487.174 244.184 486.691 244.184C486.207 244.184 485.786 244.303 485.426 244.54C485.066 244.777 484.786 245.125 484.586 245.583C484.389 246.042 484.29 246.605 484.29 247.273C484.29 247.941 484.389 248.504 484.586 248.962C484.786 249.421 485.066 249.769 485.426 250.006C485.786 250.243 486.207 250.361 486.691 250.361C487.174 250.361 487.595 250.243 487.956 250.006C488.316 249.769 488.594 249.421 488.791 248.962C488.991 248.504 489.091 247.941 489.091 247.273ZM493.764 252.12C493.46 252.12 493.198 252.012 492.98 251.797C492.764 251.578 492.657 251.317 492.657 251.012C492.657 250.71 492.764 250.452 492.98 250.237C493.198 250.021 493.46 249.913 493.764 249.913C494.06 249.913 494.318 250.021 494.54 250.237C494.762 250.452 494.872 250.71 494.872 251.012C494.872 251.215 494.82 251.401 494.715 251.571C494.614 251.737 494.48 251.871 494.314 251.972C494.148 252.071 493.965 252.12 493.764 252.12Z" fill="#1A1F47"></path>
  </g>
  <defs>
    <filter id="filter0_d_1602_1036" x="303" y="76" width="318" height="311" color-interpolation-filters="sRGB">
      <feFlood flood-opacity="0" result="BackgroundImageFix"></feFlood>
      <feColorMatrix in="SourceAlpha" type="matrix" values="0 0 0 0 0 0 0 0 0 0 0 0 0 0 0 0 0 0 127 0" result="hardAlpha"></feColorMatrix>
      <feOffset dy="30"></feOffset>
      <feGaussianBlur stdDeviation="40"></feGaussianBlur>
      <feComposite in2="hardAlpha" operator="out"></feComposite>
      <feColorMatrix type="matrix" values="0 0 0 0 0 0 0 0 0 0 0 0 0 0 0.447059 0 0 0 0.15 0"></feColorMatrix>
      <feBlend mode="normal" in2="BackgroundImageFix" result="effect1_dropShadow_1602_1036"></feBlend>
      <feBlend mode="normal" in="SourceGraphic" in2="effect1_dropShadow_1602_1036" result="shape"></feBlend>
    </filter>
    <clipPath id="clip0_1602_1036">
      <rect width="416.904" height="372.157" fill="white" transform="matrix(-1 -1.31399e-10 -1.31399e-10 1 442.904 86)"></rect>
    </clipPath>
  </defs>
</svg>
