<svg width="22" height="22" viewBox="0 0 22 22" fill="none" xmlns="http://www.w3.org/2000/svg">
<rect x="0.666656" width="21.2501" height="21.5205" rx="10.625" fill="#EDEDED"/>
<g clip-path="url(#clip0_1468_1001)">
<path d="M17.9167 10.9107C17.9167 10.3548 17.8716 9.94921 17.774 9.52856H11.4269V12.0373H15.1525C15.0774 12.6608 14.6718 13.5997 13.7704 14.2307L13.7577 14.3147L15.7646 15.8693L15.9036 15.8832C17.1805 14.7039 17.9167 12.9688 17.9167 10.9107Z" fill="#4285F4"/>
<path d="M11.4269 17.5206C13.2522 17.5206 14.7845 16.9197 15.9037 15.8831L13.7705 14.2306C13.1996 14.6287 12.4334 14.9066 11.4269 14.9066C9.63923 14.9066 8.12196 13.7274 7.58104 12.0974L7.50173 12.1041L5.41498 13.719L5.38766 13.7949C6.49932 16.0033 8.78278 17.5206 11.4269 17.5206" fill="#34A853"/>
<path d="M7.58105 12.0974C7.43835 11.6768 7.35572 11.2261 7.35572 10.7604C7.35572 10.2947 7.43829 9.84396 7.57353 9.42332L7.56977 9.33374L5.45683 7.69287L5.38767 7.72576C4.92957 8.64216 4.66666 9.67126 4.66666 10.7604C4.66666 11.8496 4.92957 12.8786 5.38774 13.795L7.58105 12.0975" fill="#FBBC05"/>
<path d="M11.4269 6.61396C12.6963 6.61396 13.5526 7.16227 14.0409 7.6205L15.9488 5.75769C14.777 4.66852 13.2522 4 11.4269 4C8.78286 4 6.4994 5.51727 5.38774 7.72562L7.57354 9.42324C8.12191 7.79327 9.63918 6.61396 11.4269 6.61396" fill="#EB4335"/>
</g>
<defs>
<clipPath id="clip0_1468_1001">
<rect width="13.2501" height="13.5205" fill="white" transform="translate(4.66666 4)"/>
</clipPath>
</defs>
</svg>
