<?xml version="1.0" encoding="utf-8"?>
<!-- Generator: Adobe Illustrator 25.1.0, SVG Export Plug-In . SVG Version: 6.00 Build 0)  -->
<svg version="1.1" id="Camada_1" xmlns="http://www.w3.org/2000/svg" xmlns:xlink="http://www.w3.org/1999/xlink" x="0px" y="0px"
	 viewBox="0 0 513 500" style="enable-background:new 0 0 513 500;" xml:space="preserve">
<style type="text/css">
	.st0{fill-rule:evenodd;clip-rule:evenodd;fill:#22A7F0;fill-opacity:0.1;}
	.st1{fill:#FFD527;}
	.st2{fill:#E0E0E0;}
	.st3{fill:#8DD7FF;}
	.st4{fill:none;stroke:#FFD527;stroke-width:1.93;}
	.st5{fill:#FFFFFF;}
	.st6{opacity:0.35;}
	.st7{opacity:0.35;fill:#371A45;enable-background:new    ;}
	.st8{fill:#371A45;}
	.st9{fill:#22A7F0;}
	.st10{fill:#848484;}
	.st11{opacity:0.7;}
	.st12{opacity:0.7;fill:#FFFFFF;enable-background:new    ;}
	.st13{opacity:0.5;}
	.st14{opacity:0.5;fill:#FFFFFF;enable-background:new    ;}
	.st15{opacity:0.35;fill:#111A28;enable-background:new    ;}
	.st16{fill:#E2E2E2;}
	.st17{opacity:0.3;}
	.st18{opacity:0.3;fill:#371A45;enable-background:new    ;}
	.st19{fill:#999999;}
	.st20{fill:#945CC6;}
	.st21{fill:#B8C5D3;}
	.st22{fill:#102770;}
	.st23{fill:#7A7A7A;}
	.st24{fill:#00C9FF;}
	.st25{fill:#FFCE00;}
	.st26{opacity:0.3;fill:#102770;enable-background:new    ;}
	.st27{fill:#FFF5A4;}
</style>
<path class="st0" d="M372.3,237c1.8-9.7,2.7-19.8,2.7-30.1c0-91-73.8-164.7-164.8-164.7c-91,0-164.8,73.7-164.8,164.7
	c0,9.9,0.9,19.7,2.6,29.1c6,2.5,11.3,6.2,15.6,10.7c6-10.8,17.3-18.9,30.9-21.6c-0.1-1-0.2-2-0.2-3.1c0-19.4,17.9-35.1,40-35.1
	c7.3,0,14.5,1.8,21,5.2c6.5-11.5,20.1-19.4,35.8-19.4c14.9,0,27.9,7.1,34.7,17.7c1.1,1.7,2.8,2.9,4.7,3.4l0.4,0.1
	c2.1,0.7,4.4,0.6,6.4-0.4c6.2-3.1,12.9-4.6,19.8-4.6c19.6,0,35.9,12.4,39.3,28.7c9.3,0.9,17.7,4.7,23.9,10.3
	c6.5-3.6,13.9-5.4,21.3-5.4C356.2,223.1,365.9,229.4,372.3,237z"/>
<path class="st1" d="M7.1,175.7c-0.1,0.9,1.7,1.8,4.4,2.4c0.7,0.1,1.2,0.5,1.7,1c0.4,0.5,0.7,1.1,0.8,1.8c0.2,2.7,0.9,4.6,1.8,4.6
	c0.9,0.1,1.8-1.7,2.3-4.4c0.1-0.7,0.5-1.2,1-1.7c0.5-0.4,1.1-0.7,1.8-0.8c2.7-0.2,4.6-0.9,4.6-1.8c0.1-0.9-1.7-1.8-4.4-2.4
	c-0.7-0.1-1.2-0.5-1.7-1c-0.4-0.5-0.7-1.1-0.8-1.8c-0.2-2.7-0.9-4.6-1.8-4.6c-0.9-0.1-1.8,1.7-2.3,4.4c-0.1,0.7-0.5,1.2-1,1.7
	c-0.5,0.4-1.1,0.7-1.8,0.8C9,174.2,7.1,174.9,7.1,175.7z"/>
<path class="st2" d="M313.7,26.5c0.1-1.8,1.6-3.2,3.4-3.1c1.8,0.1,3.2,1.6,3.1,3.4c-0.1,1.8-1.6,3.2-3.4,3.1S313.7,28.3,313.7,26.5z
	"/>
<path class="st3" d="M352.9,77.6c-1.6-0.8-2.3-2.7-1.5-4.4c0.8-1.6,2.7-2.3,4.4-1.5c1.6,0.8,2.3,2.7,1.5,4.4
	C356.4,77.7,354.5,78.4,352.9,77.6z"/>
<path class="st3" d="M65.1,30.2c-1.6-0.8-2.3-2.7-1.5-4.4c0.8-1.6,2.7-2.3,4.4-1.5c1.6,0.8,2.3,2.7,1.5,4.4
	C68.7,30.3,66.7,31,65.1,30.2z"/>
<path class="st3" d="M409.3,59.1c-0.9-0.3-1.3-1.3-1-2.1c0.3-0.9,1.3-1.3,2.1-1c0.9,0.3,1.3,1.3,1,2.1
	C411.1,59,410.2,59.4,409.3,59.1z"/>
<path class="st3" d="M108.3,55.5c-0.9-0.4-1.3-1.5-0.8-2.4c0.4-0.9,1.5-1.3,2.4-0.8c0.9,0.4,1.3,1.5,0.8,2.4
	C110.2,55.6,109.1,56,108.3,55.5z"/>
<path class="st4" d="M393,275.7L393,275.7c-1.4-0.6-2.5-1.1-3.1-1.7c-0.3-0.3-0.5-0.5-0.6-0.6c0,0,0,0,0,0c0,0,0,0,0,0
	c0.2-0.1,0.4-0.2,0.8-0.3c0.8-0.2,2-0.2,3.5-0.1h0c1,0.1,1.9-0.2,2.7-0.7c0.8-0.5,1.5-1.3,1.8-2.1l0,0c0.6-1.4,1.1-2.5,1.7-3.1
	c0.3-0.3,0.5-0.5,0.6-0.6c0,0,0,0,0,0c0,0,0,0,0,0c0.1,0.2,0.2,0.4,0.3,0.8c0.2,0.8,0.2,2,0.1,3.5c-0.1,1,0.2,1.9,0.7,2.7
	c0.5,0.8,1.3,1.5,2.1,1.8l0,0c1.4,0.6,2.5,1.1,3.1,1.7c0.3,0.3,0.5,0.5,0.6,0.6c0,0,0,0,0,0c0,0,0,0,0,0c-0.2,0.1-0.4,0.2-0.8,0.3
	c-0.8,0.2-2.1,0.2-3.5,0.1c-1-0.1-1.9,0.2-2.7,0.7c-0.8,0.5-1.4,1.3-1.8,2.1v0c-0.6,1.4-1.1,2.4-1.7,3.1c-0.3,0.3-0.5,0.5-0.6,0.6
	c0,0,0,0,0,0c0,0,0,0,0,0c-0.1-0.2-0.2-0.4-0.3-0.8c-0.2-0.8-0.2-2-0.1-3.5L393,275.7z M393,275.7c0.9,0.4,1.6,1,2.1,1.8 M393,275.7
	l2.1,1.8 M395.1,277.5c0.5,0.8,0.7,1.8,0.7,2.7L395.1,277.5z M396.3,284.7C396.3,284.7,396.3,284.7,396.3,284.7
	C396.3,284.7,396.3,284.7,396.3,284.7z M396.1,284.7C396.1,284.7,396.1,284.7,396.1,284.7C396.1,284.7,396.1,284.7,396.1,284.7z
	 M407.5,277.6C407.5,277.6,407.5,277.6,407.5,277.6C407.5,277.6,407.5,277.6,407.5,277.6z M407.5,277.8
	C407.5,277.8,407.5,277.8,407.5,277.8C407.5,277.8,407.5,277.8,407.5,277.8z M400.4,266.3C400.4,266.3,400.4,266.3,400.4,266.3
	C400.4,266.3,400.4,266.3,400.4,266.3z M400.5,266.4C400.6,266.4,400.6,266.4,400.5,266.4C400.6,266.4,400.6,266.4,400.5,266.4z
	 M389.1,273.5C389.1,273.5,389.1,273.5,389.1,273.5C389.1,273.5,389.1,273.5,389.1,273.5z M389.2,273.3
	C389.2,273.3,389.2,273.3,389.2,273.3C389.2,273.3,389.2,273.3,389.2,273.3z"/>
<g>
	<g>
		<path class="st5" d="M193.6,380.6l11.5,13.7l4.6,5.5c17-11,23.1-24.6,22.7-36.6c-0.2-5.6-1.7-11.1-4.5-15.9
			c-8.6-15-24.5-22.4-31.2-10.1c-7.3,13.3,2.3,19.7,5.1,23.8C205.8,366.8,203.9,377.3,193.6,380.6z"/>
		<g class="st6">
			<path class="st7" d="M205.1,394.3l4.6,5.5c17-11,23.1-24.6,22.7-36.6C229.8,371.9,222.4,388.6,205.1,394.3z"/>
		</g>
		<path class="st8" d="M209.7,401.5c-0.4,0-0.7-0.1-1-0.3c-0.3-0.2-0.5-0.5-0.6-0.9c-0.1-0.4-0.1-0.7,0-1.1c0.1-0.4,0.4-0.6,0.7-0.9
			c25-16.2,25.2-37.2,17.7-50.2c-5.2-9.1-13.4-15.4-20-15.4h-0.1c-3.5,0-6.2,1.8-8.1,5.3c-5.4,9.9-0.6,15.5,2.9,19.5
			c0.8,0.9,1.5,1.8,2.1,2.6c2.3,3.4,2.8,8.2,1.3,12.4c-1.6,4.7-5.3,8.2-10.5,9.8c-0.2,0.1-0.4,0.1-0.7,0.1c-0.2,0-0.5-0.1-0.7-0.2
			c-0.2-0.1-0.4-0.2-0.5-0.4c-0.1-0.2-0.3-0.4-0.3-0.6c-0.1-0.2-0.1-0.4-0.1-0.7s0.1-0.5,0.2-0.7c0.1-0.2,0.2-0.4,0.4-0.5
			c0.2-0.1,0.4-0.3,0.6-0.3c4.1-1.3,7-4,8.3-7.7c1.1-3.2,0.8-6.8-0.9-9.3c-0.4-0.6-1.1-1.4-1.8-2.2c-3.7-4.3-9.9-11.4-3.4-23.4
			c2.5-4.6,6.4-7.1,11.1-7.1c7.9-0.1,17.2,6.8,23.1,17.2c4.7,8.1,6,17.7,3.6,26.8c-2.8,10.7-10.5,20.4-22.4,28.1
			C210.4,401.5,210.1,401.6,209.7,401.5z"/>
		<path class="st8" d="M219,378.3c-0.3,0-0.6,0-0.9,0c-6.5-0.2-12.1-2.6-15.8-6.7c-0.1-0.1-0.2-0.3-0.3-0.5
			c-0.1-0.2-0.1-0.4-0.1-0.6c0-0.2,0.1-0.4,0.1-0.5c0.1-0.2,0.2-0.3,0.3-0.4c0.1-0.1,0.3-0.2,0.5-0.3c0.2-0.1,0.4-0.1,0.6-0.1
			c0.2,0,0.4,0.1,0.5,0.1c0.2,0.1,0.3,0.2,0.4,0.3c4.3,4.7,10.5,5.6,13.8,5.7c5.6,0.2,10.4-1.5,12-3.1c0.3-0.3,0.6-0.4,1-0.4
			c0.4,0,0.7,0.2,1,0.4c0.3,0.3,0.4,0.6,0.4,1c0,0.4-0.2,0.7-0.4,1C229.8,376.8,224.5,378.3,219,378.3z"/>
		<path class="st5" d="M125.8,392.9c-5.8,8.3-3.7,38,3.5,53.8c7.2,15.7,36.5,7.3,52.8,1.3c16.3-6,3.8-43.3,0.3-53.2
			C176.9,379.3,134.4,380.6,125.8,392.9z"/>
		<g class="st6">
			<path class="st7" d="M182.1,448c-16.3,6-45.6,14.4-52.8-1.3c-1-2.2-1.9-4.5-2.6-6.8c5.7,2.1,11-3.2,10.3-7.9
				c-4.3-28.6,2.3-42.4,6-47.5c15.5-2.9,35.6,0,39.3,10.3C186,404.7,198.4,442,182.1,448z"/>
		</g>
		<path class="st8" d="M147.8,457.5c-9.2,0-16.7-2.7-20-10c-7.6-16.6-9.5-46.7-3.4-55.5c5.8-8.4,24.7-11.6,38.8-9.7
			c11.2,1.5,18.6,5.7,20.8,12c6.5,18.1,14.9,49.5-1.3,55.4C171.4,453.8,158.5,457.5,147.8,457.5z M127.2,393.9
			c-5.3,7.7-3.3,36.9,3.7,52.1c6.5,14.2,34.5,6.4,50.6,0.4c14.3-5.3,3.1-40.4-0.7-51c-1.7-4.9-8.3-8.4-18-9.7
			C148,383.7,131.7,387.5,127.2,393.9z"/>
		<path class="st5" d="M136.6,419.8l-8.3-0.5c-0.4,0-0.9,0-1.3,0.2c-0.4,0.2-0.8,0.4-1.1,0.7c-0.3,0.3-0.6,0.7-0.7,1.1
			c-0.2,0.4-0.2,0.9-0.2,1.3c0.4,6.4,2.2,19.5,9,20.1c8.2,0.6,8-8.6,5.5-20.5c-0.1-0.7-0.5-1.3-1-1.7
			C137.9,420.1,137.2,419.8,136.6,419.8z"/>
		<g class="st6">
			<path class="st7" d="M139.4,422.2c2.6,11.9,2.8,21.1-5.4,20.5c-3.4-0.3-5.5-3.6-6.9-7.7c1,1,2.2,1.6,3.5,1.7
				c7.4,0.6,8-6.8,6.2-16.8c0.6,0.1,1.2,0.4,1.7,0.8C139,421,139.3,421.6,139.4,422.2z"/>
		</g>
		<path class="st8" d="M134.7,444.1c-0.3,0-0.6,0-0.9,0c-7.7-0.6-9.8-13.6-10.3-21.4c0-0.6,0-1.3,0.3-1.9c0.2-0.6,0.6-1.2,1-1.6
			c0.5-0.5,1-0.8,1.6-1c0.6-0.2,1.2-0.3,1.9-0.3l8.3,0.5c1,0.1,1.9,0.4,2.7,1.1c0.8,0.6,1.3,1.5,1.5,2.5c2.3,10.8,2.2,16.8-0.6,20
			C138.9,443.4,137.1,444.1,134.7,444.1z M128.1,420.7c-0.2,0-0.5,0-0.7,0.1c-0.2,0.1-0.4,0.2-0.6,0.4c-0.2,0.2-0.3,0.4-0.4,0.6
			c-0.1,0.2-0.1,0.5-0.1,0.7c0.8,11.4,3.7,18.4,7.7,18.7c1.8,0.1,3.1-0.3,4-1.3c3-3.4,0.7-14,0-17.5c-0.1-0.4-0.3-0.7-0.6-0.9
			c-0.3-0.2-0.6-0.4-1-0.4L128.1,420.7C128.1,420.7,128.1,420.7,128.1,420.7z"/>
		<path class="st8" d="M124.7,394c1,0.1,2,0.2,3,0.4c1,0.1,2,0.3,3,0.5c2,0.3,4,0.7,5.9,1.2c-2,0.1-4,0.3-5.9,0.5
			c-1,0.1-2,0.3-2.9,0.4c-1,0.1-2,0.3-2.9,0.5c-0.2,0-0.5,0-0.7,0s-0.5-0.2-0.7-0.3c-0.2-0.2-0.4-0.3-0.5-0.6
			c-0.1-0.2-0.2-0.5-0.2-0.7c0-0.2,0-0.5,0.1-0.7c0.1-0.2,0.2-0.4,0.4-0.6c0.2-0.2,0.4-0.3,0.6-0.4C124.1,394,124.4,394,124.7,394
			L124.7,394z"/>
		<path class="st5" d="M199.3,384.5l-4-12C196.4,376.6,197.7,380.6,199.3,384.5z"/>
		<path class="st5" d="M243.8,462c0,0-8.1-5.6-16.9-9.3c-5.8-2.4-11.9-4.1-16.3-2.8c0,0-34.6,22.5-54.5-21.2
			c-6.3-13.9-8.1-24.4-7-32.4c0.2-1.1,0.4-2.2,0.7-3.2c0.3-1,0.6-2.1,1-3.1c1.1-2.6,2.6-4.9,4.5-6.9c1.4-1.5,2.9-2.8,4.6-3.9
			c15.6-10.4,42.2-6.5,42.2-6.5c0.3,2,0.6,3.9,1,5.8c0.7,3.5,1.5,6.8,2.4,9.9c0.3,0.9,0.5,1.7,0.8,2.6c3.2,9.9,7.4,17.2,10.8,22.1
			c3.7,5.3,6.5,7.8,6.5,7.8c24-5,29.2,15.2,29.2,15.2s17-11.6,17.2,4.4C270.3,452.4,253.4,468,243.8,462z"/>
		<g class="st6">
			<path class="st7" d="M243.8,462c0,0-22.1-15.4-33.2-12.1c0,0-34.6,22.5-54.5-21.2c-6.3-13.9-8.1-24.4-7-32.4
				c0.3-2.2,0.9-4.3,1.7-6.3c0.3-0.7,0.6-1.5,1-2.2c-0.1,0.6-0.3,1.3-0.4,2c-1.2,8,0.6,18.5,7,32.4c20,43.7,53.4,16.9,53.4,16.9
				c18.8-6.1,25.4,13.9,33.2,17.5c7.8,3.6,19.8-4.4,24.8-13.6C268,454.5,252.8,467.6,243.8,462z"/>
		</g>
		<path class="st8" d="M207.9,393.4c1.1,2.4,2.2,4.8,3.5,7.2l0.9,1.8c0.3,0.6,0.6,1.2,1,1.7c0.6,1.2,1.3,2.3,2,3.4
			c1.4,2.2,2.8,4.4,4.4,6.5c0.8,1.1,1.6,2.1,2.4,3.1c0.4,0.5,0.8,1,1.3,1.5c0.4,0.5,0.9,1,1.3,1.4l-1.2-0.3c3.1-0.6,6.2-0.9,9.4-0.7
			c3.2,0.2,6.4,1,9.3,2.4c2.9,1.4,5.5,3.5,7.5,6c1,1.2,1.9,2.6,2.7,4c0.4,0.7,0.7,1.4,1,2.2c0.2,0.4,0.3,0.7,0.5,1.1
			c0.1,0.4,0.3,0.7,0.4,1.2l-2.2-0.8c1.8-1.2,3.7-2.2,5.7-3c1-0.4,2.1-0.7,3.2-1c1.1-0.3,2.3-0.4,3.5-0.3c1.2,0.1,2.5,0.4,3.6,1.2
			s1.9,1.8,2.4,3c0.5,1.1,0.8,2.2,0.9,3.4l0.1,0.8l0,0.8c0,0.6,0,1.1,0,1.7c-0.1,2.3-0.8,4.4-1.6,6.4c-0.9,2-2,3.9-3.3,5.6
			c-1.3,1.7-2.7,3.3-4.3,4.8c-1.6,1.5-3.3,2.8-5.2,3.8c-1.9,1.1-4,1.9-6.2,2.3c-1.1,0.2-2.3,0.2-3.5,0.1c-1.2-0.1-2.4-0.5-3.4-1
			l-0.8-0.4c-0.1,0-0.1-0.1-0.2-0.1l-0.2-0.1l-0.3-0.2l-1.3-0.8c-0.9-0.5-1.7-1.1-2.6-1.6c-1.7-1.1-3.5-2.1-5.3-3
			c-3.6-1.9-7.3-3.6-11-4.9c-1.9-0.6-3.8-1.1-5.7-1.4c-1.9-0.3-3.8-0.2-5.5,0.2l-0.1,0c-0.4,0.1-0.8,0.1-1.1-0.1
			c-0.3-0.2-0.6-0.5-0.7-0.9c-0.1-0.4-0.1-0.8,0.1-1.1c0.2-0.3,0.5-0.6,0.9-0.7c2.3-0.6,4.6-0.6,6.7-0.3c2.1,0.3,4.2,0.8,6.2,1.5
			c4,1.3,7.8,3.1,11.5,5.1c1.8,1,3.6,2,5.4,3.1c0.9,0.5,1.8,1.1,2.6,1.7l1.3,0.9l0.3,0.2l0.2,0.1c0,0,0.1,0.1,0.1,0.1l0.5,0.3
			c0.8,0.4,1.6,0.6,2.5,0.7c0.9,0.1,1.8,0,2.7-0.1c1.8-0.3,3.6-1.1,5.3-2c3.3-1.9,6.3-4.7,8.6-7.8c1.2-1.6,2.2-3.3,2.9-5
			c0.7-1.8,1.3-3.6,1.4-5.5c0-0.5,0-0.9,0-1.4l0-0.7l-0.1-0.7c-0.1-0.9-0.3-1.7-0.7-2.6c-0.3-0.8-0.8-1.4-1.4-1.8
			c-0.6-0.4-1.4-0.6-2.2-0.7c-1.7-0.1-3.6,0.4-5.4,1.1c-1.8,0.7-3.5,1.6-5.2,2.7l-1.7,1.1l-0.5-1.9c-0.1-0.3-0.2-0.6-0.3-1
			c-0.1-0.3-0.2-0.7-0.4-1c-0.3-0.7-0.6-1.3-0.9-1.9c-0.7-1.3-1.5-2.4-2.4-3.6c-1.8-2.2-4-4.1-6.6-5.3c-2.5-1.3-5.4-1.9-8.2-2.1
			c-2.9-0.2-5.8,0.1-8.7,0.7l-0.7,0.1l-0.5-0.5c-0.6-0.5-1.1-1-1.5-1.5c-0.5-0.5-1-1-1.4-1.5c-0.5-0.5-0.9-1-1.3-1.6
			c-0.4-0.5-0.8-1.1-1.3-1.6c-1.6-2.2-3.1-4.5-4.4-6.9c-0.6-1.2-1.3-2.4-1.9-3.6c-0.6-1.2-1.1-2.5-1.7-3.7c-0.3-0.6-0.5-1.3-0.7-1.9
			l-0.7-1.9c-0.2-0.6-0.4-1.3-0.6-1.9c-0.2-0.6-0.4-1.3-0.6-1.9c0-0.2,0-0.4,0-0.5c0.1-0.2,0.2-0.3,0.4-0.3c0.2-0.1,0.4-0.1,0.5,0
			C207.7,393.1,207.9,393.2,207.9,393.4L207.9,393.4z"/>
		<path class="st5" d="M239.4,482c-3,7.5-13.5,12.2-22.6,8c-6.1-2.8-9.7-7.9-11.8-12.2c-2.4-5-4.1-10.1-8.5-12.5
			c-5-2.7-14.2,6.5-31.3-3.2c-5.3-3-11.5-9.5-16.2-19.1c-1.6-3.3-2.9-6.7-3.9-10.2c-2.4-8.1-3.6-17.6-2.9-28.5c0.3-5,1-10,2.1-14.9
			c0.5-2.4,1.1-4.9,1.8-7.4c0.9-3.4,2.1-6.9,3.4-10.5l4.4,8.8l1.5,3l1.1,2.1l6.7,13.4l10.2,20.5l11.9,23.9l0.8,1.7
			c1.2-1.3,2.6-2.4,4-3.5c4.4-3.1,9.5-5.1,14.9-5.6c0.1,0,0.2,0,0.3,0c2.5-0.2,5.1,0,7.6,0.7c7.1,2.1,12.6,9.6,14.1,16.2
			c0.4,1.8,0.5,3.6,0.2,5.1c-0.6,2.7-1.1,5.8-1.1,5.8C228,464.6,242.8,473.4,239.4,482z"/>
		<g class="st6">
			<path class="st7" d="M239.4,482c-3,7.5-13.5,12.2-22.6,8c-6.1-2.8-9.7-7.9-11.8-12.2c-2.4-5-4.1-10.1-8.5-12.5
				c-5-2.7-14.2,6.5-31.3-3.2c-5.3-3-11.5-9.5-16.2-19.1c-0.2-0.4-0.4-0.9-0.6-1.3c-0.2-0.4-0.3-0.7-0.5-1.1
				c-0.1-0.2-0.2-0.4-0.3-0.6c-0.3-0.7-0.6-1.4-0.8-2.1c-0.1-0.2-0.1-0.3-0.2-0.5c-0.1-0.2-0.1-0.4-0.2-0.6
				c-0.1-0.2-0.2-0.4-0.2-0.7c-0.2-0.7-0.5-1.3-0.7-2c-0.1-0.5-0.3-0.9-0.4-1.4c-4.5-15.4-4.9-36.1,4.4-61.3l0.4,0.8
				c-7.8,26.5-4.6,47.3,2,61.6c9.3,0.1,18.7-4.6,21.4-6l-1-2.6c-0.4-1-0.5-2.1-0.3-3.1c0.2-1,0.6-2,1.3-2.9c0.4-0.5,1-1,1.5-1.4
				c0.3-0.2,0.7-0.4,1.1-0.5l26.7-10c1.5-0.6,3.2-0.5,4.7,0.2c1.5,0.7,2.6,1.9,3.2,3.4l1,2.7c0.2-0.1,0.4-0.1,0.6-0.2
				c1.4-0.4,2.8-0.3,4.1,0.4c1.3,0.7,2.2,1.8,2.6,3.2c0.4,1.4,0.3,2.8-0.4,4.1c-0.7,1.3-1.8,2.2-3.1,2.7l0.5,1.4
				c0.6,1.5,0.5,3.2-0.2,4.7c-0.7,1.5-1.9,2.6-3.4,3.2l-7.3,2.7l-14.9,5.6l-4.5,1.7c-0.1,0-0.2,0.1-0.3,0.1
				c-1.5,0.5-3.1,0.3-4.5-0.4c-1.4-0.7-2.5-1.9-3-3.4l-0.8-2.1c-8.2,3.6-14.8,5.1-19.7,5.6c3.7,5.2,7.8,9,11.4,11
				c17.1,9.7,26.2,0.6,31.3,3.2c4.4,2.3,6.1,7.5,8.5,12.5c2.1,4.3,5.7,9.3,11.8,12.2c7.2,3.3,15.2,1.2,19.7-3.5
				C240,479.6,239.9,480.8,239.4,482z"/>
		</g>
		<path class="st8" d="M185.6,444.4c3.2-4.4,8-7.6,13.3-9.3c2.7-0.8,5.4-1.3,8.2-1.3c1.4,0,2.8,0.1,4.2,0.4c0.7,0.1,1.4,0.3,2.1,0.5
			c0.7,0.3,1.4,0.5,2.1,0.8c2.7,1.2,4.9,3,6.8,5.1c1.9,2.1,3.5,4.4,4.7,6.9c1.2,2.5,2,5.3,2,8.3c0,0.7-0.1,1.5-0.2,2.3l-0.4,1.9
			l-0.8,3.8l-0.9-1.9c0.6,0.3,1.1,0.6,1.6,0.9s1,0.6,1.5,0.9c1,0.6,1.9,1.3,2.8,2c1.8,1.4,3.6,3,5.2,4.8c1.5,1.8,3,3.9,3.6,6.6
			c0.3,1.3,0.3,2.7,0,4.1c-0.2,0.7-0.4,1.3-0.7,1.9l-0.4,0.9c-0.2,0.3-0.3,0.5-0.5,0.8c-1.3,2.1-3.2,3.9-5.2,5.2
			c-2.1,1.3-4.4,2.3-6.8,2.7c-2.4,0.5-4.9,0.5-7.3,0c-2.4-0.5-4.7-1.4-6.8-2.7c-4.1-2.5-7.4-6.3-9.6-10.4c-1.1-2.1-2-4.2-2.9-6.1
			c-0.9-2-2-3.8-3.3-5.2c-0.6-0.7-1.4-1.2-2.2-1.7c-0.5-0.3-1.4-0.3-2.3-0.2c-2,0.2-4.2,0.9-6.5,1.3c-2.3,0.4-4.7,0.6-7.1,0.5
			c-2.4-0.1-4.7-0.5-7-1.2c-2.3-0.7-4.4-1.5-6.5-2.6c-0.5-0.3-1-0.6-1.5-0.8c-0.5-0.3-1-0.6-1.5-0.9s-1-0.7-1.5-1
			c-0.5-0.3-0.9-0.7-1.4-1.1c-3.6-3-6.6-6.6-9.1-10.5c-2.5-3.9-4.5-8-6.1-12.4c-1.6-4.3-2.8-8.8-3.5-13.3c-1.5-9-1.5-18.3-0.3-27.3
			l0.5-3.4c0.2-1.1,0.4-2.2,0.6-3.4c0.2-1.1,0.4-2.2,0.7-3.4l0.4-1.7c0.1-0.6,0.3-1.1,0.4-1.7c0.3-1.1,0.6-2.2,1-3.3
			c0.3-1.1,0.8-2.1,1.2-3.2c0.2-0.5,0.4-1.1,0.7-1.6c0.2-0.5,0.5-1,0.7-1.5c0.5-1,1.1-2,1.7-3c0.1-0.1,0.2-0.2,0.3-0.2
			c0.1,0,0.3,0,0.4,0c0.1,0,0.2,0.1,0.3,0.2c0.1,0.1,0.1,0.2,0.1,0.4v0c-0.6,4.5-1.8,8.8-2.8,13.1c-0.3,1.1-0.5,2.1-0.8,3.2
			c-0.3,1.1-0.5,2.1-0.7,3.2c-0.2,1.1-0.5,2.2-0.6,3.2l-0.5,3.3c-1.1,8.7-1.2,17.6,0.3,26.3c0.7,4.3,1.9,8.6,3.4,12.7
			c1.5,4.1,3.4,8,5.8,11.7c2.4,3.6,5.2,7,8.4,9.7c0.4,0.3,0.8,0.7,1.2,1c0.4,0.3,0.9,0.6,1.3,0.9c0.4,0.3,0.9,0.6,1.3,0.8
			c0.5,0.3,0.9,0.5,1.4,0.8c1.9,1,3.9,1.8,5.9,2.4c4.1,1.2,8.3,1.4,12.5,0.6c1.1-0.2,2.1-0.4,3.2-0.7c1.1-0.2,2.2-0.5,3.5-0.6
			c0.7-0.1,1.3-0.1,2,0c0.8,0.1,1.5,0.3,2.2,0.6c1.2,0.6,2.2,1.4,3.1,2.3c1.8,1.8,3,4,4,6.1c1,2.1,1.9,4.2,2.8,6
			c2,3.7,4.8,7,8.4,9.1c0.5,0.3,0.9,0.5,1.4,0.8l0.7,0.3l0.7,0.3c0.5,0.2,0.9,0.4,1.4,0.5c0.5,0.1,1,0.3,1.5,0.4c2,0.4,4,0.4,6,0
			c4-0.8,7.7-3.1,9.8-6.4c0.1-0.2,0.3-0.4,0.4-0.6l0.3-0.7c0.2-0.4,0.4-0.8,0.5-1.3c0.2-0.8,0.2-1.7,0-2.6c-0.4-1.8-1.5-3.5-2.8-5.1
			c-1.3-1.6-3-3-4.7-4.3c-0.9-0.7-1.7-1.3-2.6-1.9c-0.5-0.3-0.9-0.6-1.4-0.9c-0.5-0.3-0.9-0.6-1.3-0.8l-1.2-0.6l0.2-1.3l0.8-3.9
			l0.4-1.9c0-0.5,0.2-1.1,0.1-1.6c0-1.1-0.2-2.3-0.5-3.4c-0.2-0.6-0.3-1.1-0.5-1.7c-0.2-0.6-0.4-1.1-0.7-1.7c-1-2.2-2.4-4.2-4.1-6
			c-1.7-1.8-3.6-3.2-5.8-4.1c-2.1-0.9-4.5-1.3-6.9-1.3c-2.5,0-4.9,0.3-7.3,1c-4.8,1.3-9.2,3.6-13.4,6.7c-0.1,0.1-0.2,0.1-0.4,0.1
			c-0.1,0-0.3-0.1-0.4-0.2c-0.1-0.1-0.2-0.2-0.2-0.4C185.5,444.7,185.5,444.5,185.6,444.4L185.6,444.4z"/>
		<path class="st8" d="M198.1,467.9c-0.3,0-0.6-0.1-0.8-0.2c-0.2-0.2-0.4-0.4-0.5-0.6c-3.9-9.2,0.2-18.9,6-24.4
			c5.3-5,11.8-6.4,17.1-3.8c0.3,0.2,0.6,0.5,0.7,0.8c0.1,0.4,0.1,0.7-0.1,1.1c-0.2,0.3-0.5,0.6-0.8,0.7c-0.4,0.1-0.7,0.1-1.1-0.1
			c-4.2-2.1-9.4-0.9-13.8,3.3c-4.9,4.6-8.7,13.3-5.3,21.2c0.1,0.2,0.1,0.5,0.1,0.7c0,0.2-0.1,0.5-0.2,0.7c-0.1,0.2-0.3,0.4-0.5,0.5
			C198.6,467.8,198.4,467.9,198.1,467.9z"/>
		<path class="st8" d="M227.1,464.3c-0.9,1.1-1.9,2.1-2.9,3.1c-1,0.9-2.2,1.8-3.4,2.5c-1.2,0.7-2.5,1.3-3.9,1.7
			c-1.3,0.4-2.8,0.4-4.1,0c1.3,0.1,2.7-0.1,3.9-0.6c1.2-0.5,2.3-1.2,3.3-2.1c1-0.9,1.9-1.8,2.7-2.8c0.8-1,1.6-2.1,2.2-3.2l0,0
			c0.2-0.3,0.5-0.5,0.8-0.6c0.3-0.1,0.7,0,1,0.1c0.3,0.2,0.5,0.5,0.6,0.8c0.1,0.3,0,0.7-0.1,1C227.1,464.2,227.1,464.2,227.1,464.3z
			"/>
		<path class="st8" d="M231.7,456.3c-0.2,0-0.5-0.1-0.7-0.2c-0.2-0.1-0.4-0.3-0.5-0.5c-4.7-7.7-6.1-15-4.3-21.6
			c2.6-9.5,10.9-14,11.3-14.2c0.3-0.2,0.7-0.2,1.1-0.1c0.4,0.1,0.6,0.4,0.8,0.7s0.2,0.7,0.1,1.1c-0.1,0.4-0.3,0.7-0.7,0.8
			c-0.1,0-7.6,4.2-9.9,12.5c-1.6,5.8-0.2,12.3,4,19.3c0.1,0.2,0.2,0.5,0.2,0.7c0,0.3-0.1,0.5-0.2,0.7c-0.1,0.2-0.3,0.4-0.5,0.5
			C232.2,456.3,232,456.3,231.7,456.3L231.7,456.3z"/>
		<path class="st5" d="M218.9,415.6c1-2.8-0.4-5.9-3.3-6.9s-5.9,0.4-6.9,3.3c-1,2.8,0.4,5.9,3.3,6.9S217.9,418.4,218.9,415.6z"/>
		<g class="st6">
			<path class="st7" d="M219,412.2c0.2,0.7,0.3,1.4,0.2,2.1c-0.1,0.7-0.3,1.4-0.6,2c-0.3,0.6-0.8,1.2-1.3,1.6
				c-0.5,0.5-1.2,0.8-1.9,1c-0.7,0.2-1.4,0.3-2.1,0.2c-0.7-0.1-1.4-0.3-2-0.6c-0.6-0.3-1.2-0.8-1.6-1.3c-0.5-0.5-0.8-1.2-1-1.9
				c-0.2-0.8-0.3-1.6-0.2-2.4c0.7,0.8,1.6,1.3,2.6,1.6c1,0.3,2,0.3,3,0c1-0.3,1.8-0.9,2.5-1.6s1.1-1.7,1.2-2.7
				C218.4,410.7,218.8,411.4,219,412.2z"/>
		</g>
		<path class="st8" d="M213.8,420.6c-1.3,0-2.5-0.3-3.6-1c-1.1-0.7-1.9-1.6-2.5-2.7c-0.6-1.1-0.8-2.4-0.7-3.7
			c0.1-1.3,0.6-2.5,1.3-3.5c0.8-1,1.8-1.8,2.9-2.3c1.2-0.5,2.5-0.6,3.7-0.4c1.2,0.2,2.4,0.8,3.4,1.6s1.6,1.9,2,3.1
			c0.3,1,0.4,2.1,0.2,3.2c-0.2,1.1-0.6,2-1.2,2.9c-0.6,0.9-1.5,1.6-2.4,2C215.9,420.4,214.9,420.6,213.8,420.6z M213.8,409.8
			c-0.4,0-0.8,0.1-1.2,0.2c-0.8,0.2-1.4,0.7-1.9,1.3c-0.5,0.6-0.8,1.4-0.9,2.1c-0.1,0.8,0.1,1.6,0.5,2.3c0.4,0.7,0.9,1.3,1.6,1.6
			c0.7,0.4,1.5,0.5,2.3,0.4s1.5-0.4,2.1-0.9c0.6-0.5,1-1.2,1.3-1.9c0.2-0.8,0.2-1.6,0-2.3c-0.2-0.8-0.8-1.5-1.4-2
			C215.5,410.1,214.7,409.8,213.8,409.8L213.8,409.8z"/>
		<path class="st5" d="M212.4,428.2l-26.7,10c-1.5,0.6-3.2,0.5-4.7-0.2c-1.5-0.7-2.6-1.9-3.2-3.4l-5.3-14.2
			c-0.5-1.3-0.5-2.8-0.1-4.1c0.5-1.3,1.4-2.5,2.6-3.2c0.3-0.2,0.7-0.4,1.1-0.5l26.7-10c1.5-0.6,3.2-0.5,4.7,0.2
			c1.5,0.7,2.6,1.9,3.2,3.4l4.2,11.3l1.1,3c0.6,1.5,0.5,3.2-0.2,4.7C215.1,426.5,213.9,427.7,212.4,428.2z"/>
		<g class="st6">
			<path class="st7" d="M212.4,428.2l-26.7,10c-1.5,0.6-3.2,0.5-4.7-0.2c-1.5-0.7-2.6-1.9-3.2-3.4l-5.3-14.2
				c-0.5-1.3-0.5-2.8-0.1-4.1c0.5-1.3,1.4-2.5,2.6-3.2c1.9,0.4,3.1,0.7,3.1,0.7c5.6,10.9,8.2,19.6,25.5,11.8c6-2.7,9.4-6,11.4-8.2
				l1.1,3c0.6,1.5,0.5,3.2-0.2,4.7C215.1,426.5,213.9,427.7,212.4,428.2z"/>
		</g>
		<path class="st8" d="M183.5,440c-1.5,0-3.1-0.5-4.3-1.4c-1.3-0.9-2.2-2.1-2.8-3.6l-5.3-14.2c-0.7-1.9-0.6-4,0.2-5.8
			c0.8-1.8,2.4-3.2,4.2-4l26.7-10c1.9-0.7,4-0.6,5.8,0.2c1.8,0.8,3.2,2.4,3.9,4.2l5.3,14.2c0.7,1.9,0.6,4-0.2,5.8
			c-0.8,1.8-2.4,3.2-4.2,3.9l-26.7,10C185.3,439.8,184.4,440,183.5,440z M204.9,403.5c-0.6,0-1.1,0.1-1.6,0.3l-26.7,10
			c-1.2,0.4-2.1,1.3-2.6,2.5c-0.5,1.1-0.6,2.4-0.1,3.6l5.3,14.2c0.4,1.2,1.3,2.1,2.5,2.6c1.1,0.5,2.4,0.6,3.6,0.1l26.7-10
			c1.2-0.4,2.1-1.3,2.6-2.5s0.6-2.4,0.1-3.6l-5.3-14.2c-0.3-0.9-0.9-1.7-1.7-2.2C206.8,403.8,205.9,403.5,204.9,403.5L204.9,403.5z"
			/>
		<path class="st5" d="M213.4,427.7c-0.3,0.2-0.7,0.4-1,0.5l-26.7,10c-1.1,0.4-2.3,0.5-3.5,0.2c-1.2-0.3-2.2-0.8-3-1.7
			c-0.6-0.6-1.1-1.4-1.4-2.2l-2.4-6.3l-0.8-2.1l-2.2-5.8c-0.6-1.5-0.5-3.2,0.2-4.7c0.7-1.5,1.9-2.6,3.4-3.2l5.8-2.1
			c-1.2,0.7-2.2,1.9-2.6,3.2c-0.5,1.4-0.5,2.8,0,4.2l2.9,7.7l2.4,6.6c0.6,1.5,1.7,2.8,3.2,3.4c1.5,0.7,3.2,0.7,4.7,0.2L213.4,427.7z
			"/>
		<g class="st6">
			<path class="st7" d="M213.4,427.7c-0.3,0.2-0.7,0.4-1,0.5l-26.7,10c-1.5,0.6-3.2,0.5-4.7-0.2c-1.5-0.7-2.6-1.9-3.2-3.4l-3.1-8.4
				c1.2,1.2,3.1,2.6,5.1,2.1c1.1-0.3,1.9-1.4,2.4-2.9l2.4,6.6c0.6,1.5,1.7,2.8,3.2,3.4c1.5,0.7,3.2,0.7,4.7,0.2L213.4,427.7z"/>
		</g>
		<path class="st8" d="M183.5,440c-1.5,0-3.1-0.5-4.3-1.4c-1.3-0.9-2.2-2.1-2.8-3.6l-5.3-14.2c-0.7-1.9-0.6-4,0.2-5.8
			c0.8-1.8,2.4-3.2,4.2-4l5.8-2.1l1.2,2.6c-0.9,0.6-1.7,1.4-2,2.5c-0.4,1-0.4,2.2,0,3.2l5.3,14.2c0.4,1.2,1.3,2.1,2.5,2.6
			c1.1,0.5,2.4,0.6,3.6,0.1l21-7.8l1.2,2.6c-0.4,0.3-0.8,0.5-1.3,0.6l-26.7,10C185.3,439.8,184.4,440,183.5,440z M177.8,413.3
			l-1.2,0.5c-1.2,0.4-2.1,1.3-2.6,2.5c-0.5,1.1-0.6,2.4-0.1,3.6l5.3,14.2c0.4,1.2,1.3,2.1,2.5,2.6c1.1,0.5,2.4,0.6,3.6,0.1l1.4-0.5
			c-1.5-0.9-2.7-2.3-3.3-3.9l-5.3-14.2C177.3,416.6,177.3,414.9,177.8,413.3L177.8,413.3z"/>
		<path class="st9" d="M192.5,421c0.2,0.5,1,5.1,1,5.1l-3,1.1c-2.1,0.8-4.5-0.8-5.5-3.4c-1-2.6-0.1-5.4,2-6.2l3-1.1
			C190,416.5,192.2,420.1,192.5,421z"/>
		<g class="st6">
			<path class="st7" d="M192.5,421c0.2,0.5,1,5.1,1,5.1l-3,1.1c-2.1,0.8-4.5-0.8-5.5-3.4c-1-2.6-0.1-5.4,2-6.2l3-1.1
				C190,416.5,192.2,420.1,192.5,421z"/>
		</g>
		<path class="st8" d="M189.4,428.2c-0.9,0-1.8-0.3-2.5-0.8c-1.2-0.7-2.2-2-2.7-3.4c-0.5-1.5-0.6-3-0.1-4.3c0.5-1.4,1.4-2.5,2.7-2.9
			l3.7-1.3l0.4,0.6c0.2,0.4,2.2,3.8,2.6,4.7c0.2,0.6,0.9,4.1,1,5.2l0.1,0.7l-3.7,1.3C190.3,428.1,189.9,428.2,189.4,428.2z
			 M189.6,417.5l-2.3,0.9c-0.7,0.3-1.3,0.9-1.6,1.8c-0.3,1-0.3,2.1,0.1,3.2c0.4,1.1,1.1,2,2,2.5c0.8,0.5,1.7,0.6,2.4,0.4l2.3-0.9
			c-0.4-1.9-0.7-3.9-0.8-4.2C191.5,420.8,190.4,418.9,189.6,417.5z"/>
		<path class="st9" d="M193.5,426c2.1-0.8,3-3.5,2-6.2c-1-2.6-3.4-4.2-5.5-3.4c-2.1,0.8-3,3.5-2,6.2
			C189,425.3,191.4,426.8,193.5,426z"/>
		<g class="st6">
			<path class="st7" d="M188,422.6c1,2.6,3.4,4.2,5.5,3.4s3-3.5,2-6.2c-0.1-0.4-0.3-0.7-0.5-1c0.1,2-0.8,3.8-2.4,4.4
				c-1.8,0.7-3.9-0.4-5-2.4C187.7,421.5,187.8,422.1,188,422.6z"/>
		</g>
		<path class="st5" d="M188,422.6c0.1,0.2,0.1,0.4,0.2,0.5c-0.3-2.2,0.6-4.3,2.3-4.9c1.9-0.7,4.2,0.6,5.3,2.9
			c-0.1-0.4-0.2-0.8-0.3-1.2c-1-2.6-3.4-4.2-5.5-3.4C187.9,417.2,187,420,188,422.6z"/>
		<path class="st8" d="M192.4,427.1c-2.1,0-4.3-1.6-5.2-4.2c-1.1-3.1,0-6.3,2.5-7.3c2.5-0.9,5.5,0.8,6.6,3.9s0,6.3-2.5,7.3
			C193.3,427,192.9,427.1,192.4,427.1z M191.1,417.1c-0.3,0-0.6,0-0.8,0.1c-1.6,0.6-2.3,2.9-1.5,5.1c0.8,2.2,2.8,3.5,4.4,2.9
			c1.6-0.6,2.3-2.9,1.5-5.1C194,418.4,192.5,417.1,191.1,417.1z"/>
		<path class="st8" d="M204,432.4c-0.2,0-0.5-0.1-0.7-0.2c-0.2-0.1-0.3-0.3-0.4-0.6l-2.5-7.3c-0.3-1-0.4-2.1-0.3-3.1
			c0.2-1.1,0.6-2,1.2-2.9c0.4-0.6,0.7-1.2,0.8-1.9c0.1-0.7,0-1.4-0.2-2.1l-3.7-10.2c-0.1-0.3-0.1-0.6,0-0.9c0.1-0.3,0.4-0.5,0.6-0.6
			c0.3-0.1,0.6-0.1,0.9,0c0.3,0.1,0.5,0.4,0.6,0.6l3.7,10.2c0.4,1,0.5,2.1,0.3,3.2c-0.2,1.1-0.6,2.1-1.3,3c-0.4,0.5-0.7,1.2-0.8,1.9
			c-0.1,0.7,0,1.4,0.2,2l2.5,7.3c0.1,0.2,0.1,0.4,0.1,0.5c0,0.2-0.1,0.4-0.2,0.5c-0.1,0.1-0.2,0.3-0.4,0.4
			C204.4,432.3,204.2,432.4,204,432.4L204,432.4z"/>
		<path class="st5" d="M144.1,427.4c0,0-2.1,2.8-1,6c1.4,3.7,4.6,4.4,4.6,4.4s11.2,2.9,30.9-6.2c0,0,3-7.4-4.5-9.1
			C174.2,422.6,156.9,432.8,144.1,427.4z"/>
		<g class="st6">
			<path class="st7" d="M143.1,433.3c1.3,3.7,4.6,4.5,4.6,4.5s11.2,2.9,30.9-6.2c0,0,2.3-5.6-2.1-8.2c0,0,0,0,0,0.1
				c0.5,2.4-0.8,4.9-3.1,5.8c-18.1,7.7-28.3,5-28.3,5C144.4,434.2,143.7,433.8,143.1,433.3z"/>
		</g>
		<path class="st8" d="M152.8,439.7c-3.4,0-5.2-0.5-5.4-0.5c-0.1,0-4-1-5.6-5.3c-0.6-1.6-0.6-3.3,0-5c0.6-1.8,2.6-2.9,4.4-2.3
			c10.6,3.3,24-3.5,26.6-4.9c0.4-0.2,0.9-0.4,1.4-0.4c0.5,0,1,0,1.4,0.2c4.1,1.4,5.9,4.9,4.8,9.5c-0.1,0.5-0.4,1-0.7,1.4
			c-0.3,0.4-0.8,0.7-1.3,1C166.6,438.7,157.9,439.7,152.8,439.7z M145.1,429.4c-0.1,0-0.3,0.1-0.4,0.1c-0.1,0.1-0.2,0.2-0.2,0.3
			c-0.4,1.1-0.4,2.1,0,3.1c1.1,2.9,3.5,3.5,3.6,3.6c0.1,0,10.7,2.6,29.1-5.7c0.1,0,0.2-0.1,0.2-0.2c0.1-0.1,0.1-0.2,0.1-0.3
			c0.8-3.1-0.2-5.2-2.9-6.1c-0.1,0-0.2,0-0.3,0c-0.1,0-0.2,0-0.3,0.1c-3.9,2.1-17.4,8.7-28.8,5.2
			C145.2,429.4,145.2,429.4,145.1,429.4L145.1,429.4z"/>
		<g class="st6">
			<path class="st7" d="M206.5,434.6c-0.1-0.4-0.6-2.3-1.3-5.3C205.9,432.3,206.4,434.2,206.5,434.6z"/>
		</g>
		<g class="st6">
			<path class="st7" d="M206.5,434.7C206.5,434.7,206.5,434.7,206.5,434.7C206.5,434.7,206.5,434.7,206.5,434.7z"/>
		</g>
		<path class="st8" d="M253.7,437.1c-0.6,0.4-1.2,0.8-1.7,1.3c-0.6,0.4-1.1,0.9-1.7,1.4c-1.1,1-2.1,2-2.9,3.3
			c0.4-1.5,1.1-2.8,1.9-4.1c0.4-0.7,0.8-1.3,1.3-1.9c0.4-0.6,0.9-1.2,1.4-1.9v0c0.2-0.3,0.5-0.4,0.9-0.4c0.3,0,0.7,0.1,0.9,0.3
			c0.3,0.2,0.4,0.5,0.5,0.9c0,0.3-0.1,0.7-0.3,0.9C253.9,436.9,253.8,437,253.7,437.1z"/>
		<g class="st6">
			<path class="st7" d="M133.6,433c0,0.2,0,0.3-0.1,0.5C133.6,433.3,133.6,433.1,133.6,433z"/>
		</g>
		<path class="st10" d="M247.6,463.3c-0.6-0.8-1-1.9-0.8-3.7c1.1-8.4,15.1-27.3,22.8-22.6c0.3,1.2,0.4,2.4,0.4,3.5
			C270.2,451,257.3,464.3,247.6,463.3z"/>
		<g class="st6">
			<path class="st7" d="M265.2,453c-4.6,6.1-11.8,10.8-17.6,10.2c-0.6-0.8-1-1.9-0.8-3.7c0.5-3.8,3.7-9.9,7.7-14.8
				c-1.4,3.1-3.9,11-0.6,12.7C257.4,459.2,261.8,455,265.2,453z"/>
		</g>
		<g class="st11">
			<path class="st12" d="M267.1,450.3c1-2.3,1.5-4.6,1.5-6.8c0-0.1,0-0.1,0-0.2c-0.1-2.6-2.6-4.5-5.1-3.8c-5.2,1.5-11.3,8.5-15,14.9
				c4.1-9.1,14.8-21.3,21.2-17.4c0.3,1.2,0.4,2.4,0.4,3.5C270.1,443.7,269,447.1,267.1,450.3z"/>
		</g>
		<path class="st8" d="M248.6,464.5c-0.4,0-0.8,0-1.1-0.1l-0.5,0l-0.3-0.4c-0.9-1.1-1.3-2.6-1-4.6c0.9-6.8,9.5-19.6,17.1-23.3
			c2.8-1.4,5.4-1.4,7.5-0.2l0.4,0.2l0.1,0.5c0.3,1.2,0.4,2.5,0.4,3.8c0.1,5.6-3.4,12.4-9.1,17.6
			C257.7,462.2,252.9,464.5,248.6,464.5z M248.2,462.2c3.7,0.1,8.3-2,12.4-5.7c5.1-4.7,8.4-10.9,8.3-15.9c0-0.9-0.1-1.9-0.3-2.8
			c-1.3-0.6-3-0.5-4.9,0.5c-6.9,3.3-15,15.3-15.8,21.5C247.8,460.8,247.9,461.6,248.2,462.2z"/>
		<path class="st8" d="M266.9,442.8c-3.6,0-7.8-1.1-8.5-1.3c-0.1,0-0.3-0.1-0.4-0.2c-0.1-0.1-0.2-0.2-0.3-0.3
			c-0.1-0.1-0.1-0.3-0.1-0.4c0-0.1,0-0.3,0-0.4c0-0.1,0.1-0.3,0.2-0.4s0.2-0.2,0.3-0.3c0.1-0.1,0.3-0.1,0.4-0.1c0.1,0,0.3,0,0.4,0
			c3.1,0.8,8.6,1.8,10.6,0.8c0.1-0.1,0.3-0.1,0.4-0.1c0.2,0,0.3,0,0.4,0c0.1,0,0.3,0.1,0.4,0.2c0.1,0.1,0.2,0.2,0.3,0.4
			c0.1,0.1,0.1,0.3,0.1,0.4c0,0.2,0,0.3-0.1,0.4c0,0.1-0.1,0.3-0.2,0.4c-0.1,0.1-0.2,0.2-0.4,0.3
			C269.6,442.6,268.3,442.8,266.9,442.8z"/>
		<path class="st8" d="M263.6,448.6c-5.2,0-9.5-2.4-9.8-2.5c-0.3-0.1-0.5-0.4-0.5-0.7c-0.1-0.3,0-0.6,0.1-0.9
			c0.1-0.3,0.4-0.5,0.7-0.5c0.3-0.1,0.6,0,0.9,0.1c0.1,0,7.3,4,13.7,1.2c0.3-0.1,0.6-0.1,0.9,0c0.3,0.1,0.5,0.3,0.6,0.6
			c0.1,0.3,0.1,0.6,0,0.9c-0.1,0.3-0.3,0.5-0.6,0.6C267.6,448.2,265.6,448.6,263.6,448.6z"/>
		<path class="st8" d="M260.7,454c-7.4,0-10.4-3.2-10.6-3.4c-0.2-0.2-0.3-0.5-0.3-0.8c0-0.3,0.1-0.6,0.4-0.8
			c0.2-0.2,0.5-0.3,0.8-0.3c0.3,0,0.6,0.1,0.8,0.4c0.1,0.1,3.9,3.9,13.7,2.2c0.1,0,0.3,0,0.4,0c0.1,0,0.3,0.1,0.4,0.2
			c0.1,0.1,0.2,0.2,0.3,0.3c0.1,0.1,0.1,0.3,0.2,0.4c0,0.1,0,0.3,0,0.4c0,0.1-0.1,0.3-0.2,0.4c-0.1,0.1-0.2,0.2-0.3,0.3
			c-0.1,0.1-0.3,0.1-0.4,0.2C264.2,453.8,262.5,454,260.7,454z"/>
		<path class="st8" d="M256.7,460.3c-5.9,0-9.4-3.6-9.6-3.8c-0.2-0.2-0.3-0.5-0.3-0.8c0-0.3,0.1-0.6,0.4-0.8
			c0.2-0.2,0.5-0.3,0.8-0.3c0.3,0,0.6,0.1,0.8,0.3c0.2,0.2,4.1,4.1,10.5,2.8c0.1,0,0.3,0,0.4,0c0.1,0,0.3,0.1,0.4,0.2
			c0.1,0.1,0.2,0.2,0.3,0.3c0.1,0.1,0.1,0.3,0.2,0.4s0,0.3,0,0.4c0,0.1-0.1,0.3-0.2,0.4c-0.1,0.1-0.2,0.2-0.3,0.3
			c-0.1,0.1-0.3,0.1-0.4,0.2C258.8,460.2,257.7,460.3,256.7,460.3z"/>
		<path class="st5" d="M114.8,359.3c0.3-0.1,0.5-0.2,0.7-0.5c0.2-0.2,0.2-0.5,0.2-0.8l-6.2-30.4c-0.1-0.3-0.2-0.5-0.5-0.7
			c-0.2-0.2-0.5-0.2-0.8-0.2c-2.9,0.6-5.5,2.3-7.2,4.8s-2.3,5.5-1.7,8.5l2.1,10.4c0.6,2.9,2.3,5.5,4.8,7.2
			C108.8,359.3,111.9,359.8,114.8,359.3z"/>
		<path class="st8" d="M112.5,359.8c-2.7,0-5.3-0.9-7.3-2.6c-2.1-1.7-3.5-4.1-4-6.7l-2.1-10.4c-0.6-3,0-6.2,1.7-8.7
			c1.7-2.6,4.4-4.4,7.4-5c0.2,0,0.4,0,0.5,0c0.2,0,0.4,0.1,0.5,0.2c0.2,0.1,0.3,0.2,0.4,0.4c0.1,0.2,0.2,0.3,0.2,0.5l6.2,30.4
			c0,0.2,0,0.4,0,0.5c0,0.2-0.1,0.4-0.2,0.5c-0.1,0.2-0.2,0.3-0.4,0.4c-0.2,0.1-0.3,0.2-0.5,0.2
			C114.1,359.7,113.3,359.8,112.5,359.8z M108.4,327c-0.1,0-0.1,0-0.1,0c-1.4,0.3-2.8,0.8-3.9,1.6c-1.2,0.8-2.2,1.8-3,3
			c-0.8,1.2-1.3,2.5-1.6,4c-0.3,1.4-0.3,2.9,0,4.3l2.1,10.4c0.6,2.8,2.3,5.4,4.7,7c2.4,1.6,5.4,2.2,8.2,1.6c0.2,0,0.4-0.2,0.5-0.3
			c0.1-0.2,0.1-0.4,0.1-0.6l-6.2-30.4c0-0.2-0.1-0.3-0.3-0.4C108.8,327.1,108.6,327,108.4,327z"/>
		<g class="st6">
			<path class="st7" d="M99.4,346l1,4.9c0.3,1.5,0.9,2.8,1.7,4.1c0.8,1.2,1.9,2.3,3.1,3.1c1.2,0.8,2.6,1.4,4.1,1.7
				c1.5,0.3,3,0.3,4.4,0c0.3-0.1,0.5-0.2,0.7-0.5c0.2-0.2,0.2-0.5,0.2-0.8l-1.6-8.1c0,0.2-0.1,0.4-0.3,0.5c-0.1,0.1-0.3,0.2-0.5,0.3
				l-0.7,0.1c-2.3,0.5-4.7,0.2-6.8-0.7C102.4,349.6,100.6,348,99.4,346z"/>
		</g>
		<path class="st8" d="M112.6,361.3c-3,0-6-1.1-8.3-3c-2.3-1.9-4-4.6-4.6-7.6l-2.1-10.4c-0.7-3.4,0-7,1.9-9.9
			c1.9-2.9,4.9-4.9,8.3-5.6c0.4-0.1,0.8-0.1,1.1,0c0.4,0.1,0.7,0.2,1.1,0.4c0.3,0.2,0.6,0.5,0.8,0.8s0.4,0.7,0.4,1.1l6.2,30.4
			c0.1,0.4,0.1,0.8,0,1.1c-0.1,0.4-0.2,0.7-0.4,1.1c-0.2,0.3-0.5,0.6-0.8,0.8c-0.3,0.2-0.7,0.4-1.1,0.4
			C114.3,361.2,113.4,361.3,112.6,361.3z M107.8,328.7c-2.3,0.7-4.2,2.2-5.5,4.2c-1.2,2-1.6,4.5-1.2,6.8l2.1,10.4
			c0.5,2.3,1.8,4.4,3.7,5.8c1.9,1.4,4.3,2,6.6,1.7L107.8,328.7z"/>
		<path class="st5" d="M208.5,306.4c-0.3,0.1-0.5,0.2-0.7,0.5c-0.2,0.2-0.2,0.5-0.2,0.8l6.1,30.4c0.1,0.3,0.2,0.5,0.5,0.7
			c0.2,0.2,0.5,0.2,0.8,0.2c2.9-0.6,5.5-2.3,7.2-4.8c1.7-2.5,2.3-5.5,1.7-8.5l-2.1-10.4c-0.6-2.9-2.3-5.5-4.8-7.2
			C214.5,306.4,211.4,305.8,208.5,306.4z"/>
		<path class="st8" d="M214.9,339.3c-0.3,0-0.5-0.1-0.8-0.2c-0.2-0.1-0.3-0.2-0.4-0.4c-0.1-0.2-0.2-0.3-0.2-0.5l-6.2-30.4
			c-0.1-0.4,0-0.7,0.2-1.1c0.2-0.3,0.5-0.5,0.9-0.6c3-0.6,6.2,0,8.7,1.7c2.6,1.7,4.4,4.4,5,7.4l2.1,10.4c0.3,1.5,0.3,3,0,4.5
			c-0.3,1.5-0.9,2.9-1.7,4.2c-0.8,1.3-1.9,2.4-3.2,3.2s-2.7,1.4-4.2,1.8C215.1,339.3,215,339.3,214.9,339.3z M208.6,306.7
			c-0.1,0-0.2,0.1-0.3,0.1c-0.1,0.1-0.2,0.1-0.2,0.2c-0.1,0.1-0.1,0.2-0.1,0.3c0,0.1,0,0.2,0,0.3l6.2,30.4c0,0.1,0.1,0.2,0.1,0.3
			c0.1,0.1,0.1,0.2,0.2,0.2c0.1,0.1,0.2,0.1,0.3,0.1c0.1,0,0.2,0,0.3,0c2.8-0.6,5.4-2.3,7-4.7c1.6-2.4,2.2-5.4,1.6-8.2l-2.1-10.4
			c-0.6-2.8-2.3-5.4-4.7-7C214.4,306.8,211.4,306.2,208.6,306.7L208.6,306.7z"/>
		<g class="st6">
			<path class="st7" d="M212.1,329.7l1.7,8.4c0.1,0.3,0.2,0.5,0.5,0.7c0.2,0.2,0.5,0.2,0.8,0.2c2.9-0.6,5.5-2.3,7.2-4.8
				c1.7-2.5,2.3-5.5,1.7-8.5l-0.9-4.4c-0.5,2.1-1.6,4-3.1,5.6s-3.5,2.6-5.6,3l-1.1,0.2c-0.2,0-0.4,0-0.6,0
				C212.4,329.9,212.2,329.8,212.1,329.7z"/>
		</g>
		<path class="st8" d="M214.9,340.8c-0.7,0-1.3-0.2-1.8-0.7c-0.5-0.4-0.9-1-1-1.7l-6.2-30.4c-0.1-0.4-0.1-0.8,0-1.1
			c0.1-0.4,0.2-0.7,0.4-1.1c0.2-0.3,0.5-0.6,0.8-0.8c0.3-0.2,0.7-0.4,1.1-0.4c3.4-0.7,7,0,9.9,1.9c2.9,1.9,4.9,4.9,5.6,8.3l2.1,10.4
			c0.3,1.7,0.3,3.4,0,5.1c-0.3,1.7-1,3.3-1.9,4.7c-1,1.4-2.2,2.7-3.6,3.6c-1.4,1-3,1.6-4.7,2C215.3,340.8,215.1,340.8,214.9,340.8z
			 M209.6,308.1l5.8,28.8c2.3-0.7,4.2-2.2,5.5-4.2c1.2-2,1.6-4.4,1.2-6.8l-2.1-10.4c-0.5-2.3-1.8-4.4-3.7-5.8
			C214.4,308.5,212,307.8,209.6,308.1z"/>
		<path class="st5" d="M199,370.2c20.6-20.6,20.6-54.1,0-74.8c-20.6-20.6-54.1-20.6-74.7,0c-20.6,20.6-20.6,54.1,0,74.8
			C144.9,390.9,178.4,390.9,199,370.2z"/>
		<path class="st8" d="M161.6,386.1c-9.1,0-18.1-2.4-26.1-6.9c-12.4-7-21.3-18.4-25.1-32.1c-3.8-13.7-2-28,4.9-40.4
			c7-12.4,18.4-21.3,32.1-25.1c28.2-7.8,57.6,8.8,65.4,37c3.8,13.7,2,28-4.9,40.4c-7,12.4-18.4,21.3-32,25.1
			C171.2,385.4,166.4,386.1,161.6,386.1z M161.7,280.3c-4.8,0-9.5,0.7-14.1,1.9c-13.5,3.8-24.7,12.5-31.7,24.8
			c-6.9,12.2-8.6,26.4-4.9,39.9c3.7,13.5,12.5,24.8,24.7,31.7c12.2,6.9,26.4,8.6,39.9,4.9c13.5-3.8,24.7-12.5,31.7-24.8
			c6.9-12.2,8.6-26.4,4.9-39.9c-3.8-13.5-12.5-24.8-24.7-31.7C179.6,282.6,170.8,280.3,161.7,280.3L161.7,280.3z"/>
		<g class="st6">
			<path class="st7" d="M109.3,339.8c0.3,2.4,0.8,4.8,1.5,7.2c7.8,28.1,36.9,44.6,65,36.8c28.1-7.8,44.6-36.9,36.8-65.1
				c-0.2-0.8-0.5-1.6-0.7-2.4c3.4,25.7-12.5,50.7-38.2,57.9C146.3,381.8,118,366.5,109.3,339.8z"/>
		</g>
		<path class="st8" d="M161.6,387.6c-9.4,0-18.6-2.5-26.8-7.1c-12.7-7.2-21.9-18.9-25.8-33c-3.9-14.1-2.1-28.8,5.1-41.6
			s18.9-21.9,33-25.8s28.8-2.1,41.5,5.1c12.7,7.2,21.9,18.9,25.8,33c3.9,14.1,2.1,28.8-5.1,41.6c-7.2,12.7-18.9,21.9-33,25.8
			C171.5,386.9,166.5,387.6,161.6,387.6z M161.7,281.8c-4.6,0-9.2,0.6-13.7,1.9c-13.1,3.6-24,12.2-30.7,24
			c-6.7,11.9-8.4,25.6-4.7,38.8c3.6,13.1,12.2,24.1,24,30.8c11.9,6.7,25.6,8.4,38.7,4.7c13.1-3.6,24-12.2,30.7-24
			c6.7-11.9,8.4-25.6,4.7-38.8c-3.6-13.1-12.2-24.1-24-30.8C179.1,284.1,170.5,281.8,161.7,281.8z"/>
		<path class="st8" d="M111.3,348.2c2.6,10,8.3,18.5,15.8,24.7c5.7,4.7,25.4,10.3,46.6,5c19.6-4.9,34.7-20.1,37.4-26.9
			c3.5-9.1,4.4-19.3,1.8-29.3c-6.9-26.5-32.5-31.5-60.6-24.2C124.2,304.8,104.4,321.8,111.3,348.2z"/>
		<g class="st13">
			<path class="st14" d="M130.8,348.8c3.4-1.6,4.4-6.7,2.2-11.3c-2.2-4.7-6.7-7.2-10.1-5.6c-3.4,1.6-4.4,6.7-2.2,11.3
				C122.9,347.9,127.4,350.4,130.8,348.8z"/>
		</g>
		<g class="st13">
			<path class="st14" d="M141.9,359.8c1.7-1.1,2.1-3.6,0.8-5.6c-1.3-2-3.7-2.7-5.4-1.6c-1.7,1.1-2.1,3.6-0.8,5.6
				C137.7,360.1,140.2,360.9,141.9,359.8z"/>
		</g>
		<g class="st6">
			<path class="st15" d="M114.7,320.9c-4.7,7.6-6.2,16.7-3.4,27.3c2.6,10,8.3,18.5,15.8,24.7c5.7,4.7,25.4,10.3,46.6,5
				c7.5-1.9,14.3-5.2,20-9.1c-26.2,6-50.2-0.9-57.3-6.7c-9.6-7.9-16.8-18.6-20.1-31.3C115.5,327.6,114.9,324.3,114.7,320.9z"/>
		</g>
		<path class="st8" d="M109.6,325.4c-0.3,0-0.5-0.1-0.7-0.2c-0.2-0.1-0.4-0.3-0.5-0.5c-0.1-0.2-0.2-0.5-0.2-0.7c0-0.3,0-0.5,0.1-0.7
			c5.8-15.2,21.3-27.1,42.6-32.6c21.4-5.6,40.9-2.6,53.3,8.3c0.3,0.3,0.5,0.6,0.5,1c0,0.4-0.1,0.8-0.3,1.1c-0.2,0.3-0.6,0.5-1,0.6
			s-0.8,0-1.1-0.3l-0.1-0.1c-11.7-10.2-30.1-13-50.6-7.7c-20.3,5.3-35.1,16.6-40.5,30.8l-0.1,0.2l-0.1,0.2c-0.1,0.2-0.3,0.4-0.5,0.5
			C110.1,325.3,109.8,325.4,109.6,325.4z"/>
		<g class="st13">
			<path class="st14" d="M205.6,340.4c0,0,1.4-28.3-15.4-35c-16.8-6.7-37-1.4-36.2-0.2c0,0,23.8-0.4,37.2,15
				C201.5,332.1,205.6,340.4,205.6,340.4z"/>
		</g>
		<path class="st5" d="M224.4,342c0,0-7.5-10.4-19.9-9.8c-8.8,0.4-12.8,17-3.3,25.9c4.5,4.2,8.5,5.4,9.7,14.4"/>
		<path class="st8" d="M210.9,374.3c-0.4,0-0.8-0.2-1.1-0.4c-0.3-0.3-0.5-0.7-0.6-1.1c-0.9-6.5-3.2-8.4-6.4-11
			c-0.9-0.7-1.8-1.5-2.8-2.4c-6.5-6-7.1-14.9-4.9-20.9c1.8-4.8,5.2-7.8,9.3-8c13.3-0.7,21.1,10.1,21.4,10.5c0.3,0.4,0.4,0.8,0.3,1.3
			c-0.1,0.4-0.3,0.8-0.7,1.1c-0.4,0.3-0.8,0.4-1.3,0.3c-0.4-0.1-0.8-0.3-1.1-0.7c-0.1-0.1-7.1-9.7-18.4-9.1c-2.6,0.1-5,2.3-6.2,5.7
			c-1.8,4.8-1.3,12.3,4,17.2c0.9,0.8,1.7,1.5,2.6,2.2c3.4,2.8,6.6,5.4,7.7,13.3c0,0.2,0,0.5,0,0.7c-0.1,0.2-0.2,0.4-0.3,0.6
			c-0.1,0.2-0.3,0.3-0.5,0.4c-0.2,0.1-0.4,0.2-0.6,0.2C211.1,374.3,211,374.3,210.9,374.3z"/>
		<g class="st6">
			<path class="st7" d="M149.8,392l1.6,17c37.6,27.1,52.3-11.6,56.2-19c0.8-1.5,3.4-6.1,5.1-7.2c1.8-1.2,3.5-5.2,3.7-8.1
				c0,0-1.1-10.5-4.7-13.7c-3.7-3.2-12-2-16.1,0.4c-5.7,3.3-9.8,11.2-16.6,18.1C170.5,388,152.4,384.9,149.8,392z"/>
		</g>
		<path class="st5" d="M147.7,388.4l3.6,19.8l0.1,0.8c35.5,12.6,50.8-17.2,57.1-25.4c1.1-1.4,4.2-3.2,5.8-4.2
			c1.8-1.2,2.7-3.6,2.9-6.5c0.4-5.6-1.9-13-5.4-16.1c-3.7-3.2-12-2-16.1,0.4c-5.7,3.3-9.8,11.2-16.6,18.1
			C170.5,383.6,150.3,381.3,147.7,388.4z"/>
		<g class="st6">
			<path class="st7" d="M151.2,408.2l0.1,0.8c35.5,12.6,50.8-17.2,57.1-25.4c1.1-1.4,4.2-3.2,5.8-4.2c1.8-1.2,2.7-3.6,2.9-6.5
				c-1,1.4-2.3,2.6-3.8,2.7c-3.9,0.4-9.4,0.2-11,2.3c-1.6,2.1-4.4,12.4-14.6,21.1C177.5,407.8,159.9,410.6,151.2,408.2z"/>
		</g>
		<path class="st8" d="M147,388.2c0.3-1.1,0.9-2,1.7-2.7s1.7-1.2,2.5-1.7c1.8-0.9,3.6-1.4,5.4-1.9c3.6-0.9,7.3-1.6,10.7-2.5
			c3.4-1,6.8-2.2,9.4-4.3c0.3-0.2,0.6-0.6,0.9-0.8c0.3-0.3,0.6-0.6,0.9-1c0.6-0.6,1.2-1.3,1.8-2c1.2-1.4,2.3-2.8,3.5-4.2
			c2.3-2.9,4.5-5.9,7.3-8.6c1.4-1.3,3.1-2.6,5-3.4c1.9-0.8,3.8-1.3,5.7-1.6c2-0.3,4-0.3,6,0c1.1,0.2,2.1,0.5,3.1,1l0.7,0.4l0.7,0.5
			c0.4,0.3,0.8,0.7,1.2,1.1c1.4,1.6,2.3,3.4,3.1,5.2c0.7,1.8,1.3,3.7,1.6,5.6c0.3,1.9,0.5,3.9,0.3,5.9c-0.1,1-0.3,2-0.6,3
			c-0.3,1.1-0.8,2.1-1.5,3c-0.2,0.2-0.4,0.5-0.6,0.7c-0.2,0.2-0.5,0.4-0.7,0.6l-0.2,0.1l-0.2,0.1l-0.3,0.2l-0.6,0.4
			c-0.8,0.5-1.5,1-2.3,1.5c-0.7,0.5-1.4,1-1.9,1.5c-0.2,0.2-0.5,0.6-0.7,0.9l-0.8,1.1c-2.1,3-4.2,6.1-6.6,9
			c-1.2,1.5-2.4,2.9-3.7,4.2c-1.3,1.4-2.7,2.7-4.1,3.9c-2.9,2.5-6.1,4.6-9.6,6.2c-3.5,1.7-7.2,2.7-11,3.2c-3.8,0.4-7.6,0.4-11.3-0.2
			c-3.7-0.6-7.3-1.6-10.8-3c-0.2-0.1-0.3-0.2-0.4-0.4c-0.1-0.2-0.1-0.4,0-0.5c0.1-0.2,0.2-0.3,0.4-0.4c0.2-0.1,0.4-0.1,0.5,0h0
			c3.5,1.1,7,1.9,10.6,2.3c3.6,0.4,7.2,0.4,10.7-0.2c3.5-0.5,6.9-1.6,10.1-3.2c0.8-0.4,1.6-0.8,2.4-1.3l1.2-0.7l1.1-0.7
			c0.8-0.5,1.5-1,2.2-1.5c0.7-0.6,1.4-1.1,2.1-1.7c1.4-1.2,2.6-2.4,3.9-3.7c1.2-1.3,2.4-2.7,3.6-4.1c2.3-2.8,4.3-5.8,6.4-8.9
			l0.8-1.2c0.3-0.4,0.5-0.8,1-1.2c0.8-0.8,1.6-1.4,2.4-1.9c0.8-0.6,1.6-1.1,2.4-1.5l0.6-0.4l0.3-0.2l0.1-0.1l0.1-0.1
			c0.1-0.1,0.2-0.2,0.3-0.3c0.1-0.1,0.2-0.2,0.3-0.4c0.8-1.1,1.2-2.7,1.4-4.4c0.1-1.7,0-3.4-0.3-5.1c-0.3-1.7-0.8-3.4-1.4-5
			c-0.6-1.6-1.5-3.1-2.5-4.3c-0.2-0.3-0.5-0.5-0.8-0.8c-0.1-0.1-0.3-0.2-0.4-0.3l-0.5-0.3c-0.7-0.3-1.4-0.6-2.2-0.7
			c-1.6-0.3-3.3-0.3-5,0c-1.7,0.2-3.4,0.7-4.9,1.3c-1.5,0.6-2.8,1.6-4.1,2.8c-2.5,2.4-4.7,5.3-7,8.2c-1.2,1.4-2.3,2.9-3.6,4.3
			c-0.6,0.7-1.3,1.4-1.9,2.1c-0.3,0.3-0.6,0.7-1,1c-0.4,0.3-0.7,0.7-1.1,1c-1.6,1.3-3.3,2.2-5.1,3c-1.8,0.7-3.6,1.3-5.4,1.8
			c-3.6,1-7.3,1.6-10.9,2.4c-1.8,0.4-3.5,0.8-5.1,1.4c-1.6,0.6-3.1,1.4-3.8,2.8l0,0c-0.1,0.2-0.2,0.3-0.4,0.3
			c-0.2,0.1-0.3,0.1-0.5,0c-0.2-0.1-0.3-0.2-0.4-0.3C147,388.5,147,388.3,147,388.2L147,388.2z"/>
		<path class="st8" d="M188.5,407.2c-0.3,0-0.6-0.1-0.8-0.3c-14.4-10.5-9.8-31.6-9.6-32.5c0.1-0.4,0.3-0.7,0.6-0.9
			c0.3-0.2,0.7-0.3,1.1-0.2c0.4,0.1,0.7,0.3,0.9,0.6c0.2,0.3,0.3,0.7,0.2,1.1c0,0.2-4.3,20.2,8.5,29.6c0.2,0.2,0.4,0.4,0.5,0.7
			c0.1,0.3,0.1,0.6,0,0.9c-0.1,0.3-0.3,0.5-0.5,0.7C189.1,407.1,188.8,407.2,188.5,407.2z"/>
		<path class="st8" d="M211.9,334.5c-0.4,0-0.7-0.2-1-0.4c-0.3-0.3-0.4-0.6-0.4-1V227c0-0.4,0.2-0.7,0.4-1c0.3-0.3,0.6-0.4,1-0.4
			s0.7,0.1,1,0.4c0.3,0.3,0.4,0.6,0.4,1v106c0,0.4-0.2,0.7-0.4,1C212.6,334.3,212.3,334.5,211.9,334.5z"/>
		<path class="st8" d="M244.4,407.2c-0.1,0-0.2,0-0.3,0c-4.2-0.9-6.3-3.7-8.3-6.4c-2.7-3.6-5.3-7-13-6.8c-4.3,0.1-7.5-1.1-9.6-3.6
			c-3.4-4-2.3-9.8-2.3-10.1c0.1-0.4,0.3-0.7,0.6-0.9c0.3-0.2,0.7-0.3,1.1-0.2c0.4,0.1,0.7,0.3,0.9,0.6c0.2,0.3,0.3,0.7,0.2,1.1
			c0,0.1-0.8,4.8,1.7,7.7c1.5,1.8,4,2.6,7.4,2.5c9.2-0.2,12.5,4.1,15.4,7.9c1.9,2.5,3.5,4.6,6.6,5.3c0.3,0.1,0.6,0.3,0.9,0.6
			c0.2,0.3,0.3,0.6,0.3,1c0,0.4-0.2,0.7-0.5,0.9C245.1,407.1,244.8,407.2,244.4,407.2L244.4,407.2z"/>
		<path class="st16" d="M212.7,256c10.1,0,18.3-3.4,18.3-7.5c0-4.1-8.2-7.5-18.3-7.5c-10.1,0-18.3,3.4-18.3,7.5
			C194.5,252.7,202.6,256,212.7,256z"/>
		<path class="st8" d="M212.7,256.3c-10.2,0-18.5-3.5-18.5-7.7c0-4.3,8.3-7.7,18.5-7.7c10.2,0,18.5,3.5,18.5,7.7
			C231.2,252.8,222.9,256.3,212.7,256.3z M212.7,241.3c-10,0-18.1,3.3-18.1,7.3c0,4,8.1,7.3,18.1,7.3c10,0,18.1-3.3,18.1-7.3
			C230.8,244.5,222.7,241.3,212.7,241.3L212.7,241.3z"/>
		<path class="st5" d="M212.7,256c10.1,0,18.3-3.4,18.3-7.5c0-4.1-8.2-7.5-18.3-7.5c-10.1,0-18.3,3.4-18.3,7.5
			C194.5,252.7,202.6,256,212.7,256z"/>
		<path class="st8" d="M212.7,256.3c-10.2,0-18.5-3.5-18.5-7.7c0-4.3,8.3-7.7,18.5-7.7c10.2,0,18.5,3.5,18.5,7.7
			C231.2,252.8,222.9,256.3,212.7,256.3z M212.7,241.3c-10,0-18.1,3.3-18.1,7.3c0,4,8.1,7.3,18.1,7.3c10,0,18.1-3.3,18.1-7.3
			C230.8,244.5,222.7,241.3,212.7,241.3L212.7,241.3z"/>
		<g class="st17">
			<path class="st18" d="M212.7,256c10.1,0,18.3-3.4,18.3-7.5c0-4.1-8.2-7.5-18.3-7.5c-10.1,0-18.3,3.4-18.3,7.5
				C194.5,252.7,202.6,256,212.7,256z"/>
		</g>
		<path class="st8" d="M212.7,257.4c-11.2,0-19.6-3.8-19.6-8.9c0-5.1,8.4-8.9,19.6-8.9c11.2,0,19.6,3.8,19.6,8.9
			C232.4,253.6,223.9,257.4,212.7,257.4z M212.7,242.4c-9.7,0-16.9,3.2-16.9,6.1c0,2.9,7.2,6.1,16.9,6.1c9.7,0,16.9-3.2,16.9-6.1
			C229.6,245.6,222.4,242.4,212.7,242.4z"/>
		<path class="st5" d="M260,251.1c10-1.6,17.5-6.2,16.9-10.2c-0.6-4.1-9.2-6.1-19.2-4.6c-10,1.6-17.5,6.2-16.9,10.2
			C241.5,250.6,250.1,252.7,260,251.1z"/>
		<path class="st8" d="M253.5,251.9c-2.4,0-4.6-0.2-6.6-0.7c-3.7-0.9-6-2.5-6.3-4.6c-0.3-2.1,1.3-4.3,4.6-6.3
			c3.2-1.9,7.7-3.4,12.5-4.2c4.8-0.8,9.5-0.7,13.2,0.2c3.7,0.9,6,2.5,6.3,4.6s-1.3,4.3-4.6,6.3c-3.2,1.9-7.7,3.4-12.5,4.2
			C257.9,251.7,255.7,251.9,253.5,251.9z M264.3,236c-2.2,0-4.4,0.2-6.5,0.5c-4.8,0.8-9.2,2.2-12.3,4.1c-3.1,1.9-4.7,4-4.4,5.8
			c0.3,1.9,2.4,3.4,5.9,4.2c3.6,0.9,8.2,0.9,13,0.2c4.8-0.7,9.2-2.2,12.3-4.1c3.1-1.9,4.7-4,4.4-5.8c-0.3-1.9-2.4-3.4-5.9-4.2
			C268.9,236.2,266.6,236,264.3,236z"/>
		<path class="st8" d="M253.5,253c-2.5,0-4.8-0.2-6.9-0.7c-4.2-1-6.7-3-7.1-5.5c-0.4-2.6,1.4-5.2,5.1-7.4c3.3-2,7.9-3.6,12.9-4.4
			c5-0.8,9.8-0.7,13.6,0.2c4.2,1,6.7,3,7.1,5.5c0.4,2.6-1.4,5.2-5.1,7.4c-3.3,2-7.9,3.6-12.9,4.4C258,252.8,255.8,253,253.5,253z
			 M264.3,237.2c-2.1,0-4.2,0.2-6.3,0.5c-4.7,0.7-8.9,2.1-11.9,4c-2.6,1.6-4,3.3-3.8,4.7c0.2,1.4,2.1,2.6,5.1,3.3
			c3.5,0.8,7.9,0.9,12.6,0.1c4.7-0.7,8.9-2.1,11.9-4c2.6-1.6,4-3.3,3.8-4.7c-0.2-1.4-2.1-2.6-5.1-3.3
			C268.7,237.4,266.6,237.2,264.3,237.2z"/>
		<path class="st5" d="M184.6,246.6c0.6-4.1-6.9-8.7-16.9-10.2c-10-1.6-18.6,0.5-19.2,4.6s6.9,8.7,16.9,10.2
			C175.4,252.7,184,250.7,184.6,246.6z"/>
		<path class="st8" d="M172,251.9c-2.2,0-4.4-0.2-6.6-0.5c-4.9-0.8-9.3-2.3-12.5-4.2c-3.3-2-4.9-4.2-4.6-6.3
			c0.3-2.1,2.6-3.7,6.3-4.6c3.7-0.9,8.3-0.9,13.2-0.2c4.9,0.8,9.3,2.3,12.5,4.2c3.3,2,4.9,4.2,4.6,6.3c-0.3,2.1-2.6,3.7-6.3,4.6
			C176.6,251.6,174.4,251.9,172,251.9z M161.2,236c-2.4,0-4.6,0.2-6.5,0.7c-3.5,0.8-5.6,2.3-5.9,4.2c-0.3,1.9,1.3,4,4.4,5.8
			c3.2,1.9,7.6,3.4,12.3,4.1c4.8,0.8,9.4,0.7,13-0.2c3.5-0.8,5.6-2.3,5.9-4.2c0.3-1.9-1.3-4-4.4-5.8c-3.2-1.9-7.6-3.4-12.3-4.1
			C165.5,236.2,163.4,236,161.2,236z"/>
		<g class="st17">
			<path class="st18" d="M260,251.1c10-1.6,17.5-6.2,16.9-10.2c-0.6-4.1-9.2-6.1-19.2-4.6c-10,1.6-17.5,6.2-16.9,10.2
				C241.5,250.6,250.1,252.7,260,251.1z"/>
		</g>
		<g class="st17">
			<path class="st18" d="M184.6,246.6c0.6-4.1-6.9-8.7-16.9-10.2c-10-1.6-18.6,0.5-19.2,4.6s6.9,8.7,16.9,10.2
				C175.4,252.7,184,250.7,184.6,246.6z"/>
		</g>
		<path class="st8" d="M172,253c-2.3,0-4.5-0.2-6.8-0.5c-5-0.8-9.6-2.3-12.9-4.4c-3.7-2.2-5.5-4.9-5.1-7.4c0.4-2.6,2.9-4.5,7.1-5.5
			c3.8-0.9,8.6-1,13.6-0.2c5,0.8,9.6,2.3,12.9,4.4c3.7,2.2,5.5,4.9,5.1,7.4c-0.4,2.6-2.9,4.5-7.1,5.5C176.8,252.8,174.5,253,172,253
			z M161.2,237.2c-2.3,0-4.4,0.2-6.2,0.7c-3,0.7-4.9,1.9-5.1,3.3c-0.2,1.3,1.2,3.1,3.8,4.7c3,1.8,7.3,3.3,11.9,4
			c4.7,0.7,9.1,0.7,12.6-0.1c3-0.7,4.9-1.9,5.1-3.3c0.2-1.3-1.2-3.1-3.8-4.7c-3-1.8-7.3-3.3-11.9-4
			C165.4,237.3,163.3,237.2,161.2,237.2z"/>
		<path class="st19" d="M212.7,248.5c45.2,0,81.9-9.3,81.9-20.7c0-11.4-36.7-20.7-81.9-20.7c-45.2,0-81.9,9.2-81.9,20.7
			C130.8,239.3,167.5,248.5,212.7,248.5z"/>
		<path class="st8" d="M212.7,248.8c-21.9,0-42.5-2.1-58-6.1c-15.6-3.9-24.1-9.2-24.1-14.8c0-5.6,8.6-10.9,24.1-14.8
			c15.5-3.9,36.1-6.1,58-6.1c21.9,0,42.5,2.1,58,6.1c15.6,3.9,24.1,9.2,24.1,14.8c0,5.6-8.6,10.9-24.1,14.8
			C255.2,246.6,234.6,248.8,212.7,248.8z M212.7,207.4c-45,0-81.7,9.2-81.7,20.4c0,11.3,36.6,20.4,81.7,20.4
			c45,0,81.7-9.2,81.7-20.4C294.4,216.6,257.8,207.4,212.7,207.4z"/>
		<path class="st5" d="M294.4,229.4c-0.5,1.6-1.7,3.2-3.6,4.8c-10.5,8.4-41.5,14.4-78.1,14.4c-36.6,0-67.6-6.1-78.1-14.4
			c-1.9-1.5-3.1-3.1-3.6-4.8c3-6.6,38.4-11.8,81.7-11.8C256,217.5,291.4,222.7,294.4,229.4z"/>
		<path class="st8" d="M212.7,248.8c-35.9,0-67.4-5.8-78.2-14.5c-2-1.6-3.2-3.2-3.7-4.9l0-0.1l0-0.1c3.1-6.8,38.3-12,81.9-12
			c43.6,0,78.8,5.2,81.9,12l0,0.1l0,0.1c-0.5,1.7-1.7,3.3-3.7,4.9C280.1,243,248.7,248.8,212.7,248.8z M131.4,229.4
			c0.5,1.5,1.6,3.1,3.5,4.5c10.8,8.6,42.1,14.3,77.9,14.3c35.8,0,67.1-5.8,77.9-14.3c1.8-1.5,3-3,3.5-4.5
			c-3.3-6.5-38.9-11.6-81.4-11.6C170.3,217.8,134.6,222.9,131.4,229.4z"/>
		<g class="st17">
			<path class="st18" d="M294.4,229.4c-0.5,1.6-1.7,3.2-3.6,4.8c-10.5,5.2-41.5,8.9-78.1,8.9c-36.6,0-67.6-3.7-78.1-8.9
				c-1.9-1.5-3.1-3.1-3.6-4.8c3-6.6,38.4-11.8,81.7-11.8C256,217.5,291.4,222.7,294.4,229.4z"/>
		</g>
		<path class="st8" d="M212.7,249.9c-22,0-42.7-2.2-58.2-6.1c-11.4-2.9-25-8-25-15.9s13.6-13.1,25-15.9c15.6-3.9,36.3-6.1,58.2-6.1
			s42.7,2.2,58.2,6.1c11.4,2.9,25,8,25,15.9s-13.6,13.1-25,15.9C255.4,247.7,234.7,249.9,212.7,249.9z M212.7,208.6
			c-48.2,0-80.5,10-80.5,19.3s32.4,19.3,80.5,19.3c48.2,0,80.5-10,80.5-19.3S260.9,208.6,212.7,208.6z"/>
		<path class="st20" d="M347.5,203.5v7.9c0,14.7-60.3,26.5-134.7,26.5C138.3,237.9,78,226,78,211.3v-7.9"/>
		<path class="st8" d="M212.7,238.1c-36,0-69.9-2.8-95.3-7.8c-25.6-5-39.6-11.8-39.6-19v-7.9h0.4v7.9c0,14.5,60.3,26.3,134.5,26.3
			c74.2,0,134.5-11.8,134.5-26.3v-7.9h0.4v7.9c0,7.2-14.1,13.9-39.6,19C282.6,235.3,248.7,238.1,212.7,238.1z"/>
		<g class="st17">
			<path class="st18" d="M347.5,207.7v3.7c0,14.6-60.3,26.5-134.7,26.5C138.3,237.9,78,226,78,211.3v-3.7
				c0,14.7,60.3,26.5,134.7,26.5C287.1,234.2,347.5,222.3,347.5,207.7z"/>
		</g>
		<path class="st8" d="M212.7,239.2c-36.1,0-70-2.8-95.5-7.8c-18.5-3.6-40.6-10.1-40.6-20.1v-7.9c0-0.4,0.1-0.7,0.4-1
			c0.3-0.3,0.6-0.4,1-0.4s0.7,0.1,1,0.4c0.3,0.3,0.4,0.6,0.4,1v7.9c0,12.1,53.6,25.2,133.4,25.2c79.8,0,133.4-13,133.4-25.2v-7.9
			c0-0.4,0.1-0.7,0.4-1c0.3-0.3,0.6-0.4,1-0.4c0.4,0,0.7,0.1,1,0.4c0.3,0.3,0.4,0.6,0.4,1v7.9c0,10-22.1,16.5-40.6,20.1
			C282.7,236.5,248.8,239.2,212.7,239.2z"/>
		<path class="st21" d="M212.6,230c74.4,0,134.7-11.9,134.7-26.5c0-14.7-60.3-26.5-134.7-26.5c-74.4,0-134.7,11.9-134.7,26.5
			C77.8,218.1,138.2,230,212.6,230z"/>
		<g class="st13">
			<path class="st14" d="M214.5,224.2c-4.8,0-8.5-2.7-8.5-6.2s3.7-6.2,8.5-6.2s8.5,2.7,8.5,6.2C223,221.4,219.3,224.2,214.5,224.2z
				 M214.5,214.5c-3.1,0-5.8,1.6-5.8,3.5c0,1.9,2.6,3.5,5.8,3.5c3.1,0,5.8-1.6,5.8-3.5C220.3,216.1,217.6,214.5,214.5,214.5z"/>
		</g>
		<g class="st13">
			<path class="st14" d="M267.3,222.5c-2,0-3.8-0.5-5.3-1.4c-1.8-1.1-2.8-2.7-2.9-4.4c-0.1-1.7,0.8-3.4,2.5-4.7
				c1.5-1.1,3.5-1.8,5.7-1.9c4.8-0.2,8.6,2.3,8.8,5.8c0.2,3.5-3.4,6.4-8.2,6.6C267.7,222.5,267.5,222.5,267.3,222.5z M267.9,212.8
				c-0.1,0-0.3,0-0.4,0c-1.6,0.1-3.1,0.6-4.2,1.4c-0.5,0.4-1.4,1.2-1.4,2.3c0.1,1.1,1,1.9,1.6,2.2c1.1,0.7,2.7,1.1,4.3,1
				c3.1-0.1,5.7-1.8,5.6-3.7C273.3,214.2,270.8,212.8,267.9,212.8z"/>
		</g>
		<g class="st13">
			<path class="st14" d="M312.4,214.8c-4.5,0-8-2.5-8.2-5.8c-0.1-1.7,0.8-3.4,2.5-4.7c1.5-1.1,3.6-1.8,5.7-1.9
				c2.2-0.1,4.3,0.4,5.9,1.4c1.8,1.1,2.8,2.7,2.9,4.4c0.1,1.7-0.8,3.4-2.5,4.7c-1.5,1.1-3.5,1.8-5.7,1.9
				C312.8,214.8,312.6,214.8,312.4,214.8z M313,205.2c-0.1,0-0.3,0-0.4,0c-1.6,0.1-3.1,0.6-4.2,1.4c-0.5,0.4-1.4,1.2-1.4,2.3
				c0.1,1.9,2.8,3.3,5.9,3.2c1.6-0.1,3.1-0.6,4.2-1.4c0.5-0.4,1.4-1.2,1.4-2.3c-0.1-1.1-1-1.9-1.6-2.2
				C315.8,205.5,314.4,205.2,313,205.2z"/>
		</g>
		<g class="st13">
			<path class="st14" d="M163,222.5c-0.2,0-0.4,0-0.6,0c-4.8-0.2-8.4-3.1-8.2-6.6c0.2-3.5,4-6,8.8-5.8c2.2,0.1,4.2,0.8,5.7,1.9
				c1.7,1.2,2.6,2.9,2.5,4.7C171,220,167.5,222.5,163,222.5z M156.9,216c-0.1,1.9,2.5,3.6,5.6,3.7c3.1,0.1,5.8-1.3,5.9-3.2
				c0.1-1.1-0.8-1.9-1.4-2.3c-1.1-0.8-2.6-1.3-4.2-1.4C159.7,212.7,157,214.1,156.9,216z"/>
		</g>
		<g class="st13">
			<path class="st14" d="M117.9,214.8c-0.2,0-0.4,0-0.6,0c-2.2-0.1-4.2-0.8-5.7-1.9c-1.7-1.2-2.6-2.9-2.5-4.7
				c0.1-1.7,1.1-3.3,2.9-4.4c1.6-1,3.7-1.5,5.9-1.4c2.2,0.1,4.2,0.8,5.7,1.9c1.7,1.2,2.6,2.9,2.5,4.7
				C125.9,212.3,122.4,214.8,117.9,214.8z M117.3,205.2c-1.5,0-2.9,0.4-3.9,1c-0.6,0.4-1.5,1.1-1.6,2.2c-0.1,1.1,0.8,1.9,1.4,2.3
				c1.1,0.8,2.6,1.3,4.2,1.4c3.1,0.1,5.8-1.3,5.9-3.2c0.1-1.1-0.8-1.9-1.4-2.3c-1.1-0.8-2.6-1.3-4.2-1.4
				C117.6,205.2,117.5,205.2,117.3,205.2z"/>
		</g>
		<g class="st13">
			<path class="st14" d="M291.7,191.6c0,6.8-35,16.6-78.3,16.6c-43.2,0-78.3-9.7-78.3-16.6c0-6.8,35-12.4,78.3-12.4
				S291.7,184.8,291.7,191.6z"/>
		</g>
		<g class="st17">
			<path class="st18" d="M268.3,195.5c0,0,21,10.6,24.9,16c3.9,5.4,11.2,11.3,11.2,11.3s67.8-13.3,33-28.8c0,0,8.8,5.7,6.4,9.8
				c-3.5,6-18.5,11.5-28.5,13.6c-2.6,0.6-5.3,0.5-7.9-0.2c-2.6-0.7-4.9-2-6.9-3.8c-5.3-4.9-14.4-12.1-27.5-17.9
				C268.5,193.5,268.3,195.5,268.3,195.5z"/>
		</g>
		<g class="st17">
			<path class="st18" d="M158.4,195.5c0,0-21,10.6-24.9,16c-3.9,5.4-11.2,11.3-11.2,11.3s-67.8-13.3-33-28.8c0,0-9,5.8-6.4,9.8
				c4.4,6.8,17.9,11.3,27.8,13.5c2.8,0.6,5.7,0.5,8.5-0.2c2.8-0.7,5.3-2.1,7.4-4.1c5.3-4.9,14.3-11.8,27.1-17.6
				C158.2,193.5,158.4,195.5,158.4,195.5z"/>
		</g>
		<g class="st17">
			<path class="st18" d="M157.7,196.2c0,0-30.4,16.1-35,27c0,0,37,6.8,90.1,6.8c53.1,0,90.6-7.6,90.6-7.6S281,197,266.2,195.9
				c-14.8-1.1-4.3,1.1-4.3,1.1s20.8,9.2,31.6,19.6c1.6,1.6,0.8,4.4-1.5,4.7c-12,1.7-43.8,5.6-79.8,5.6c-35.5,0-66.1-3.7-77.9-5.3
				c-2.3-0.3-3.2-3.1-1.5-4.7c2.4-2.3,5-4.4,7.7-6.4c5.5-4,20.1-12.5,20.1-12.5L157.7,196.2z"/>
		</g>
		<path class="st22" d="M285.3,188.9c0,7.9-32.5,14.3-72.6,14.3c-40.1,0-72.6-6.4-72.6-14.3c0-7.9,72.6-8.2,72.6-8.2
			S285.3,181,285.3,188.9z"/>
		<path class="st8" d="M212.7,203.5c-40.9,0-72.9-6.4-72.9-14.6c0-7.9,65.4-8.5,72.9-8.5c7.5,0,72.9,0.6,72.9,8.5
			C285.6,197.1,253.6,203.5,212.7,203.5z M212.7,181c-20.1,0.1-72.3,1.7-72.3,8c0,3.6,7.7,7.2,21,9.8c13.7,2.7,31.9,4.2,51.3,4.2
			c19.4,0,37.6-1.5,51.3-4.2c13.4-2.6,21-6.2,21-9.8C285,182.7,232.8,181.1,212.7,181L212.7,181z"/>
		<path class="st22" d="M204.6,203.3c0.5,0,1,0,1.6,0.1h0c2.1,0.1,4.3,0.1,6.5,0.1c3.8,0,7.5-0.1,11.1-0.3c20.4-1,35.5-4.6,35.5-8.9
			c0-3.7-24.3-4.8-37.8-5.1l-0.5,0c-1.1,0-2.1,0-3.1-0.1c-3.2-0.1-5.2-0.1-5.2-0.1s-1.5,0-4,0.1l-0.5,0c-1.4,0-3.1,0.1-5,0.1
			c-13.6,0.4-37,1.5-37,5.1c0,4.2,14.4,7.7,34,8.8c0.1,0,0.2,0,0.2,0L204.6,203.3z"/>
		<path class="st8" d="M212.7,203.8c-2.2,0-4.4,0-6.5-0.1c-0.6,0-1.1,0-1.6-0.1l-4.2-0.2c-0.1,0-0.2,0-0.2,0
			c-17.1-0.9-34.3-4.1-34.3-9.1c0-2.9,12.6-4.7,37.3-5.4c1.9-0.1,3.6-0.1,5-0.1l0.5,0c2.5,0,4.1-0.1,4.1-0.1c0,0,2,0,5.2,0.1
			c0.9,0,2,0,3.1,0.1l0.5,0c17.3,0.5,38,1.7,38,5.4c0,5.2-18,8.3-35.8,9.2C220.2,203.7,216.5,203.8,212.7,203.8z M204.6,203
			c0.5,0,1,0,1.6,0c5.9,0.2,11.9,0.1,17.6-0.2c20.4-1,35.2-4.6,35.2-8.6c0-2.4-14-4.2-37.5-4.8l-0.5,0c-1.1,0-2.1,0-3.1-0.1
			c-3.1-0.1-5.2-0.1-5.2-0.1c0,0-1.5,0-4,0.1l-0.5,0c-1.4,0-3.1,0.1-5,0.1c-23,0.6-36.8,2.4-36.8,4.8c0,3.9,14.2,7.5,33.7,8.5l0.2,0
			L204.6,203z"/>
		<path class="st23" d="M285.3,188.9c0,0.9-0.4,1.8-1.3,2.7c-9.7-6.2-71.3-6.5-71.3-6.5s-61.6,0.3-71.3,6.5
			c-0.8-0.9-1.3-1.8-1.3-2.7c0-7.9,72.6-8.2,72.6-8.2S285.3,181,285.3,188.9z"/>
		<path class="st8" d="M141.4,192l-0.2-0.2c-0.9-0.9-1.4-1.9-1.4-2.9c0-7.9,65.4-8.5,72.9-8.5c7.5,0,72.9,0.6,72.9,8.5
			c0,1-0.5,1.9-1.4,2.9l-0.2,0.2l-0.2-0.1c-9.5-6.1-70.6-6.5-71.2-6.5c-0.6,0-61.7,0.4-71.2,6.5L141.4,192z M212.7,184.8
			c2.5,0,61,0.4,71.3,6.4c0.7-0.8,1-1.6,1-2.3c0-6.2-52.2-7.9-72.3-8c-20.1,0.1-72.3,1.7-72.3,8c0,0.8,0.3,1.5,1,2.3
			C151.7,185.2,210.2,184.8,212.7,184.8z"/>
		<path class="st8" d="M212.7,231.4c-36.1,0-70-2.8-95.5-7.8c-18.5-3.6-40.6-10.1-40.6-20.1c0-10,22.1-16.5,40.6-20.1
			c25.5-5,59.5-7.8,95.5-7.8c36.1,0,70,2.8,95.5,7.8c18.5,3.6,40.6,10.1,40.6,20.1c0,10-22.1,16.5-40.6,20.1
			C282.7,228.6,248.8,231.4,212.7,231.4z M212.7,178.3c-79.8,0-133.4,13-133.4,25.2c0,12.2,53.6,25.2,133.4,25.2
			c79.8,0,133.4-13,133.4-25.2C346.1,191.3,292.5,178.3,212.7,178.3z"/>
		<path class="st24" d="M284.4,190.2c0,7.8-32.1,14.1-71.6,14.1c-39.6,0-71.6-6.3-71.6-14.1c0-27.3,14.1-83.3,71.6-83.3
			C270.3,106.9,284.4,162.9,284.4,190.2z"/>
		<g class="st13">
			<path class="st14" d="M143.7,192.9c0-27.3,14.1-83.3,71.6-83.3c20.2,0,35.1,6.9,45.9,17.1c-10.9-11.6-26.6-19.7-48.5-19.7
				c-57.6,0-71.6,56-71.6,83.3c0,1.4,1.1,2.8,3,4C143.9,193.8,143.8,193.3,143.7,192.9z"/>
		</g>
		<path class="st8" d="M212.7,206.2c-29.5,0-73.5-4.2-73.5-16c0-6.9,1-31,14.5-52.8c13-21.1,33.4-32.3,59-32.3
			c58.1,0,73.5,55.7,73.5,85.1C286.2,201.9,242.3,206.2,212.7,206.2z M212.7,108.8c-55.2,0-69.8,53.3-69.8,81.4
			c0,1.6,4.1,5.1,19.5,8.2c13.4,2.6,31.3,4.1,50.3,4.1s36.9-1.5,50.3-4.1c15.4-3,19.5-6.6,19.5-8.2c0-13.6-3.7-34.2-14-50.9
			C256.1,119,237.3,108.8,212.7,108.8z"/>
		<path class="st25" d="M212.7,222.4c3.9,0,7.1-2.2,7.1-4.8s-3.2-4.8-7.1-4.8c-3.9,0-7.1,2.2-7.1,4.8S208.8,222.4,212.7,222.4z"/>
		<path class="st8" d="M212.7,222.6c-4.1,0-7.4-2.3-7.4-5.1s3.3-5.1,7.4-5.1c4.1,0,7.4,2.3,7.4,5.1S216.8,222.6,212.7,222.6z
			 M212.7,213c-3.8,0-6.8,2-6.8,4.5s3.1,4.5,6.8,4.5c3.8,0,6.8-2,6.8-4.5S216.5,213,212.7,213z"/>
		<g class="st17">
			<path class="st26" d="M219.9,217.5c0,0.5-0.1,1-0.3,1.5c-0.9-1.9-3.6-3.3-6.8-3.3s-5.9,1.4-6.8,3.3c-0.2-0.5-0.3-1-0.3-1.5
				c0-2.7,3.2-4.8,7.1-4.8C216.7,212.7,219.9,214.9,219.9,217.5z"/>
			<path class="st18" d="M219.5,219.7l-0.3-0.5c-0.9-1.9-3.5-3.2-6.5-3.2c-3,0-5.6,1.3-6.5,3.2l-0.3,0.5l-0.3-0.5
				c-0.2-0.5-0.4-1-0.4-1.6c0-2.8,3.3-5.1,7.4-5.1c4.1,0,7.4,2.3,7.4,5.1c0,0.6-0.1,1.1-0.4,1.6L219.5,219.7z M212.7,213
				c-3.8,0-6.8,2-6.8,4.5c0,0.3,0,0.5,0.1,0.8c1.2-1.8,3.8-3,6.7-3s5.5,1.2,6.7,3c0.1-0.3,0.1-0.5,0.1-0.8
				C219.6,215,216.5,213,212.7,213z"/>
		</g>
		<path class="st8" d="M212.7,223.7c-4.8,0-8.5-2.7-8.5-6.2s3.7-6.2,8.5-6.2c4.8,0,8.5,2.7,8.5,6.2S217.5,223.7,212.7,223.7z
			 M212.7,214.1c-3.1,0-5.8,1.6-5.8,3.5c0,1.9,2.6,3.5,5.8,3.5c3.1,0,5.8-1.6,5.8-3.5C218.5,215.7,215.8,214.1,212.7,214.1z"/>
		<path class="st25" d="M266.1,220.6c3.9-0.2,7-2.5,6.9-5.1c-0.1-2.7-3.4-4.7-7.3-4.5c-3.9,0.2-7,2.5-6.9,5.1
			S262.1,220.8,266.1,220.6z"/>
		<path class="st8" d="M265.6,221c-1.8,0-3.4-0.4-4.8-1.2c-1.5-0.9-2.3-2.2-2.4-3.5c-0.1-1.4,0.7-2.7,2-3.7c1.3-1,3.2-1.6,5.1-1.7
			c2-0.1,3.8,0.3,5.3,1.2c1.5,0.9,2.3,2.2,2.4,3.5c0.1,1.4-0.7,2.7-2,3.7c-1.3,1-3.2,1.6-5.1,1.7C265.9,220.9,265.7,221,265.6,221z
			 M266.1,211.3c-0.2,0-0.3,0-0.5,0c-1.8,0.1-3.6,0.6-4.8,1.6c-1.2,0.9-1.9,2.1-1.8,3.3c0.1,1.2,0.8,2.3,2.1,3.1
			c1.3,0.8,3.1,1.2,4.9,1.1c1.8-0.1,3.6-0.6,4.8-1.6c1.2-0.9,1.9-2.1,1.8-3.3c-0.1-1.2-0.8-2.3-2.1-3.1
			C269.4,211.7,267.8,211.3,266.1,211.3z"/>
		<g class="st17">
			<path class="st26" d="M273,215.9c0,1-0.4,2-1.2,2.8c0,0,0-0.1,0-0.1c-0.1-2.7-3.4-4.7-7.3-4.5c-2.4,0.1-4.5,1-5.7,2.3
				c0-2.6,3-4.8,6.9-5C269.6,211.2,272.8,213.2,273,215.9z"/>
			<path class="st18" d="M271.5,219.4v-0.7c0,0,0-0.1,0-0.1c-0.1-1.2-0.8-2.3-2.1-3.1c-1.3-0.8-3.1-1.2-4.9-1.1
				c-2.2,0.1-4.3,0.9-5.5,2.2l-0.5,0.5v-0.7c0-2.8,3.1-5.1,7.2-5.3c2-0.1,3.8,0.3,5.3,1.2c1.5,0.9,2.3,2.2,2.4,3.5
				c0,1.1-0.4,2.1-1.3,3.1L271.5,219.4z M264.9,213.8c1.8,0,3.4,0.4,4.8,1.2c1.3,0.8,2.1,1.8,2.3,3c0.5-0.6,0.7-1.4,0.7-2.1
				c-0.1-1.2-0.8-2.3-2.1-3.1c-1.3-0.8-3.1-1.2-4.9-1.1c-3.3,0.2-6,1.9-6.5,4c1.3-1.1,3.3-1.8,5.3-1.9
				C264.6,213.8,264.8,213.8,264.9,213.8L264.9,213.8z"/>
		</g>
		<path class="st8" d="M265.6,222c-2,0-3.8-0.5-5.3-1.4c-1.8-1.1-2.8-2.7-2.9-4.4c-0.1-1.7,0.8-3.4,2.5-4.7c1.5-1.1,3.6-1.8,5.7-1.9
			c2.2-0.1,4.3,0.4,5.9,1.4c1.8,1.1,2.8,2.7,2.9,4.4c0.1,1.7-0.8,3.4-2.5,4.7c-1.5,1.1-3.6,1.8-5.7,1.9
			C265.9,222,265.8,222,265.6,222z M266.1,212.4c-0.1,0-0.3,0-0.4,0c-1.6,0.1-3.1,0.6-4.2,1.4c-0.5,0.4-1.4,1.2-1.4,2.3
			s1,1.9,1.6,2.2c1.1,0.7,2.7,1.1,4.3,1c1.6-0.1,3.1-0.6,4.2-1.4c0.5-0.4,1.4-1.2,1.4-2.3s-1-1.9-1.6-2.2
			C269,212.7,267.6,212.4,266.1,212.4z"/>
		<path class="st25" d="M311.2,213c3.9-0.2,7-2.5,6.9-5.1c-0.1-2.7-3.4-4.7-7.3-4.5c-3.9,0.2-7,2.5-6.9,5.1
			C303.9,211.2,307.2,213.2,311.2,213z"/>
		<path class="st8" d="M310.7,213.3c-1.8,0-3.4-0.4-4.8-1.2c-1.5-0.9-2.3-2.2-2.4-3.5c-0.1-1.4,0.7-2.7,2-3.7c1.3-1,3.2-1.6,5.1-1.7
			c4.1-0.2,7.5,1.9,7.6,4.8c0.1,1.4-0.7,2.7-2,3.7c-1.3,1-3.2,1.6-5.1,1.7C311,213.3,310.8,213.3,310.7,213.3z M311.2,203.6
			c-0.2,0-0.3,0-0.5,0c-1.8,0.1-3.6,0.6-4.8,1.6c-1.2,0.9-1.9,2.1-1.8,3.3c0.1,1.2,0.8,2.3,2.1,3.1c1.3,0.8,3.1,1.2,4.9,1.1
			c1.8-0.1,3.6-0.6,4.8-1.6c1.2-0.9,1.9-2.1,1.8-3.3C317.7,205.5,314.8,203.6,311.2,203.6L311.2,203.6z"/>
		<g class="st17">
			<path class="st26" d="M318,207.8c0.1,1.9-1.4,3.5-3.6,4.5c0.6-0.7,0.9-1.6,0.8-2.4c-0.1-2.7-3.4-4.7-7.3-4.5
				c-1.1,0-2.2,0.3-3.3,0.7c1.2-1.5,3.4-2.6,6.1-2.7C314.6,203.2,317.9,205.2,318,207.8z"/>
			<path class="st18" d="M313.5,213l0.6-0.8c0.5-0.7,0.8-1.5,0.8-2.2c-0.1-2.5-3.3-4.4-7-4.2c-1.1,0-2.2,0.3-3.2,0.7l-1,0.4l0.6-0.8
				c1.2-1.6,3.7-2.7,6.3-2.8c2-0.1,3.8,0.3,5.3,1.2c1.5,0.9,2.3,2.2,2.4,3.5c0.1,1.9-1.4,3.7-3.8,4.7L313.5,213z M308.4,205.1
				c3.9,0,7,2.1,7.1,4.8c0,0.6-0.1,1.2-0.4,1.8c1.7-0.9,2.7-2.3,2.6-3.8c-0.1-1.2-0.8-2.3-2.1-3.1c-1.3-0.8-3.1-1.2-4.9-1.1
				c-2,0.1-3.8,0.8-5.1,1.8c0.7-0.2,1.5-0.3,2.2-0.3C308.1,205.1,308.2,205.1,308.4,205.1z"/>
		</g>
		<path class="st8" d="M310.7,214.4c-2,0-3.8-0.5-5.3-1.4c-1.8-1.1-2.8-2.7-2.9-4.4c-0.1-1.7,0.8-3.4,2.5-4.7
			c1.5-1.1,3.5-1.8,5.7-1.9c4.8-0.2,8.6,2.3,8.8,5.8c0.1,1.7-0.8,3.4-2.5,4.7c-1.5,1.1-3.6,1.8-5.7,1.9
			C311,214.4,310.8,214.4,310.7,214.4z M311.2,204.7c-0.1,0-0.3,0-0.4,0c-1.6,0.1-3.1,0.6-4.2,1.4c-0.5,0.4-1.4,1.2-1.4,2.3
			c0.1,1.1,1,1.9,1.6,2.2c1.1,0.7,2.7,1.1,4.3,1c1.6-0.1,3.1-0.6,4.2-1.4c0.5-0.4,1.4-1.2,1.4-2.3
			C316.6,206.1,314.1,204.7,311.2,204.7L311.2,204.7z"/>
		<path class="st25" d="M168,216.2c0.1-2.7-3-5-6.9-5.1c-3.9-0.2-7.2,1.8-7.3,4.5c-0.1,2.7,3,5,6.9,5.1
			C164.6,220.8,167.9,218.8,168,216.2z"/>
		<path class="st8" d="M161.2,221c-0.2,0-0.3,0-0.5,0c-2-0.1-3.8-0.7-5.1-1.7c-1.4-1-2.1-2.4-2-3.7c0.1-1.4,0.9-2.6,2.4-3.5
			c1.4-0.9,3.3-1.3,5.3-1.2c2,0.1,3.8,0.7,5.1,1.7c1.4,1,2.1,2.4,2,3.7c-0.1,1.4-0.9,2.6-2.4,3.5C164.6,220.5,163,221,161.2,221z
			 M160.6,211.3c-1.7,0-3.2,0.4-4.5,1.2c-1.3,0.8-2.1,1.9-2.1,3.1c-0.1,1.2,0.6,2.3,1.8,3.3c1.3,0.9,3,1.5,4.8,1.6
			c1.8,0.1,3.6-0.3,4.9-1.1c1.3-0.8,2-1.9,2.1-3.1c0.1-1.2-0.6-2.3-1.8-3.3c-1.3-0.9-3-1.5-4.8-1.6
			C161,211.3,160.8,211.3,160.6,211.3z"/>
		<g class="st17">
			<path class="st26" d="M168,216.2c-0.1,1.2-0.8,2.3-2,3.1c0.1-0.3,0.1-0.5,0.1-0.8c0.1-2.7-3-5-6.9-5.1c-2.1-0.1-4,0.4-5.4,1.4
				c0.7-2.3,3.7-3.9,7.2-3.7C165.1,211.2,168.2,213.5,168,216.2z"/>
			<path class="st18" d="M165.6,220l0.2-0.8c0.1-0.2,0.1-0.5,0.1-0.7c0.1-2.5-2.9-4.7-6.6-4.8c-2-0.1-3.8,0.4-5.2,1.3l-0.7,0.5
				l0.2-0.8c0.7-2.4,3.9-4.1,7.5-3.9c4.1,0.2,7.3,2.6,7.2,5.4c-0.1,1.3-0.8,2.5-2.1,3.4L165.6,220z M158.8,213.1c0.2,0,0.3,0,0.5,0
				c4.1,0.2,7.3,2.6,7.2,5.4c0,0,0,0.1,0,0.1c0.8-0.7,1.2-1.6,1.3-2.5c0.1-2.5-2.9-4.7-6.6-4.8c-2.9-0.1-5.5,1-6.6,2.7
				C155.8,213.4,157.3,213.1,158.8,213.1z"/>
		</g>
		<path class="st8" d="M161.2,222c-0.2,0-0.4,0-0.6,0c-2.2-0.1-4.2-0.8-5.7-1.9c-1.7-1.2-2.6-2.9-2.5-4.7c0.1-1.7,1.1-3.3,2.9-4.4
			c1.6-1,3.7-1.5,5.9-1.4c2.2,0.1,4.2,0.8,5.7,1.9c1.7,1.2,2.6,2.9,2.5,4.7c-0.1,1.7-1.1,3.3-2.9,4.4C165,221.5,163.2,222,161.2,222
			z M160.7,212.4c-1.5,0-2.9,0.4-3.9,1c-0.6,0.3-1.5,1.1-1.6,2.2c-0.1,1.1,0.8,1.9,1.4,2.3c1.1,0.8,2.6,1.3,4.2,1.4
			c1.6,0.1,3.2-0.3,4.3-1c0.6-0.3,1.5-1.1,1.6-2.2s-0.8-1.9-1.4-2.3c-1.1-0.8-2.6-1.3-4.2-1.4C160.9,212.4,160.8,212.4,160.7,212.4z
			"/>
		<path class="st27" d="M123,208.5c0.1-2.7-3-5-6.9-5.1c-3.9-0.2-7.2,1.8-7.3,4.5c-0.1,2.7,3,5,6.9,5.1
			C119.5,213.2,122.8,211.2,123,208.5z"/>
		<path class="st8" d="M116.1,213.2c-0.2,0-0.3,0-0.5,0c-1.9-0.1-3.8-0.7-5.1-1.7c-1.4-1-2.1-2.3-2-3.7c0.1-2.8,3.5-4.9,7.6-4.7
			c1.9,0.1,3.8,0.7,5.1,1.7c1.4,1,2.1,2.3,2,3.7C123,211.2,119.9,213.2,116.1,213.2z M115.6,203.6c-3.6,0-6.5,1.9-6.6,4.3
			c-0.1,1.2,0.6,2.4,1.8,3.3c1.3,0.9,3,1.5,4.8,1.6c3.8,0.2,7-1.7,7.1-4.3c0.1-1.2-0.6-2.4-1.8-3.3c-1.3-0.9-3-1.5-4.8-1.6
			C115.9,203.6,115.7,203.6,115.6,203.6L115.6,203.6z"/>
		<path class="st8" d="M116.1,214.4c-0.2,0-0.4,0-0.6,0c-2.2-0.1-4.2-0.8-5.7-1.9c-1.7-1.2-2.6-2.9-2.5-4.7c0.2-3.5,4-6,8.8-5.8
			c2.2,0.1,4.2,0.8,5.7,1.9c1.7,1.2,2.6,2.9,2.5,4.7C124.2,211.9,120.6,214.4,116.1,214.4z M115.6,204.7c-2.9,0-5.4,1.4-5.5,3.2
			c-0.1,1.1,0.8,1.9,1.4,2.3c1.1,0.8,2.6,1.3,4.2,1.4c3.1,0.1,5.8-1.3,5.9-3.2c0.1-1.1-0.8-1.9-1.4-2.3c-1.1-0.8-2.6-1.3-4.2-1.4
			C115.8,204.7,115.7,204.7,115.6,204.7L115.6,204.7z"/>
		<path class="st25" d="M123,208.5c0.1-2.7-3-5-6.9-5.1c-3.9-0.2-7.2,1.8-7.3,4.5c-0.1,2.7,3,5,6.9,5.1
			C119.5,213.2,122.8,211.2,123,208.5z"/>
		<path class="st8" d="M116.1,213.3c-0.2,0-0.3,0-0.5,0c-2-0.1-3.8-0.7-5.1-1.7c-1.4-1-2.1-2.4-2-3.7c0.1-2.8,3.6-4.9,7.6-4.8
			c2,0.1,3.8,0.7,5.1,1.7c1.4,1,2.1,2.4,2,3.7C123.1,211.2,120,213.3,116.1,213.3z M115.6,203.6c-3.6,0-6.4,1.8-6.6,4.2
			c-0.1,1.2,0.6,2.3,1.8,3.3c1.3,0.9,3,1.5,4.8,1.6c3.8,0.2,6.9-1.7,7-4.2c0.1-1.2-0.6-2.3-1.8-3.3c-1.3-0.9-3-1.5-4.8-1.6
			C115.9,203.6,115.7,203.6,115.6,203.6L115.6,203.6z"/>
		<g class="st17">
			<path class="st26" d="M122.9,208.5c-0.1,1.9-1.9,3.5-4.3,4.2c0.7-0.7,1.2-1.6,1.2-2.5c0.1-2.7-3-5-6.9-5.1c-1-0.1-2,0.1-3,0.3
				c1.3-1.3,3.6-2.1,6.1-2C120,203.5,123.1,205.8,122.9,208.5z"/>
			<path class="st18" d="M117.6,213.2l0.8-0.8c0.7-0.7,1.1-1.5,1.1-2.3c0.1-1.2-0.6-2.3-1.8-3.3c-1.3-0.9-3-1.5-4.8-1.6
				c-1-0.1-2,0.1-2.9,0.3l-1,0.3l0.8-0.8c1.4-1.4,3.8-2.2,6.4-2.1c2,0.1,3.8,0.7,5.1,1.7c1.4,1,2.1,2.4,2,3.7
				c-0.1,2-1.9,3.7-4.6,4.4L117.6,213.2z M112.4,204.7c0.2,0,0.3,0,0.5,0c2,0.1,3.8,0.7,5.1,1.7c1.4,1,2.1,2.4,2,3.7
				c0,0.7-0.3,1.4-0.6,1.9c1.9-0.7,3.1-2.1,3.2-3.6c0.1-1.2-0.6-2.3-1.8-3.3c-1.3-0.9-3-1.5-4.8-1.6c-1.9-0.1-3.7,0.3-5,1.2
				C111.5,204.8,112,204.7,112.4,204.7z"/>
		</g>
		<path class="st8" d="M116.1,214.4c-0.2,0-0.4,0-0.6,0c-2.2-0.1-4.2-0.8-5.7-1.9c-1.7-1.2-2.6-2.9-2.5-4.7c0.2-3.5,4-6,8.8-5.8
			c2.2,0.1,4.2,0.8,5.7,1.9c1.7,1.2,2.6,2.9,2.5,4.7C124.2,211.9,120.6,214.4,116.1,214.4z M115.6,204.7c-2.9,0-5.4,1.4-5.5,3.2
			c-0.1,1.1,0.8,1.9,1.4,2.3c1.1,0.8,2.6,1.3,4.2,1.4c3.1,0.1,5.8-1.3,5.9-3.2c0.1-1.1-0.8-1.9-1.4-2.3c-1.1-0.8-2.6-1.3-4.2-1.4
			C115.8,204.7,115.7,204.7,115.6,204.7L115.6,204.7z"/>
		<path class="st8" d="M303.8,224.4c-0.2,0-0.4-0.1-0.6-0.2c-0.2-0.1-0.4-0.3-0.5-0.4c-10.7-16.1-32.1-24-32.3-24
			c-0.3-0.1-0.6-0.4-0.8-0.7c-0.1-0.3-0.2-0.7,0-1c0.1-0.3,0.4-0.6,0.7-0.8c0.3-0.2,0.7-0.2,1-0.1c0.9,0.3,22.4,8.2,33.7,25.1
			c0.1,0.2,0.2,0.4,0.2,0.7c0,0.2,0,0.5-0.2,0.7c-0.1,0.2-0.3,0.4-0.5,0.5C304.3,224.3,304,224.4,303.8,224.4L303.8,224.4z"/>
		<path class="st8" d="M122.9,224.4c-0.2,0-0.5-0.1-0.7-0.2c-0.2-0.1-0.4-0.3-0.5-0.5c-0.1-0.2-0.2-0.5-0.2-0.7
			c0-0.2,0.1-0.5,0.2-0.7c10.3-15.4,29.4-23.4,33.1-24.9c0.3-0.1,0.7-0.1,1,0c0.3,0.1,0.6,0.4,0.7,0.8c0.1,0.3,0.1,0.7,0,1
			c-0.1,0.3-0.4,0.6-0.7,0.7c-3.6,1.4-22,9.1-31.8,23.9c-0.1,0.2-0.3,0.3-0.5,0.4C123.3,224.3,123.1,224.4,122.9,224.4z"/>
		<g class="st13">
			<path class="st14" d="M153,174.4c0,0-1.9-12,8.3-25.8c8.7-11.7,14.7-4.6,11,2.3c-5.1,9.5-7.4,18.5-9.3,28.1
				C161.9,184.6,153.5,187.1,153,174.4z"/>
		</g>
		<g class="st13">
			<path class="st14" d="M178.3,139.1c-2.1,1-8.5,1.7-7.2-5.3c1.3-7,8.8-9,11.5-6.6C184.2,128.6,184.1,136.4,178.3,139.1z"/>
		</g>
		<g class="st13">
			<path class="st14" d="M100,194.3c6.7-3.9,17.3-6.6,26.9-6.1c8.7,0.4-7.2,3.5-12.8,4.8c-4,0.9-11.5,3.8-15.1,4.5
				C95.5,198.1,95.7,196.8,100,194.3z"/>
		</g>
		<g class="st17">
			<path class="st18" d="M278.9,191.4c0-23.7-10.7-69.1-51.9-79.8l0,0c1.3,1,6.4,5.1,12.4,11.4c24.1,25.3,8.7,67.3-26,71
				c-21.1,2.2-46.2,2.1-70.4-4.6c-0.7-0.2-1.3-0.3-1.9-0.5c0,0.3,0,0.6,0,0.9c0,7.7,31.6,13.9,70.6,13.9c28.2,0,52.6-3.3,63.9-8
				C277.8,194.3,278.9,192.9,278.9,191.4z"/>
		</g>
	</g>
</g>
</svg>
