<?xml version="1.0" encoding="utf-8"?>
<!-- Generator: Adobe Illustrator 25.1.0, SVG Export Plug-In . SVG Version: 6.00 Build 0)  -->

<svg version="1.1" id="Camada_1" data-name="Camada 1" xmlns="http://www.w3.org/2000/svg" viewBox="0 0 1905 220" style="enable-background:new 0 0 1905 220;" xml:space="preserve">
  <defs>
    <style>
      .cls-1 {
        fill: #fff;
      }
    </style>
  </defs>
  <path class="cls-1" d="M229-58.08c-7.39,10.86,9.95,115.6,149,123.77a212.2,212.2,0,0,0,79.16-12.57c22.74,15.6,53.4,26.48,87.88,29.82,11.53,44.23,70.91,79,143.33,80.83A214.92,214.92,0,0,0,762,153.21a42.79,42.79,0,0,1,23.58-.51l1.39.34c7.11,1.64,13.23,5.06,17.26,9.65,24.72,29.14,72.21,49.57,127.25,50.95,58,1.46,108.65-18.59,133.61-49a212.92,212.92,0,0,0,77.21,16c81.6,2,148.81-38.53,150.12-90.62a61.35,61.35,0,0,0-.39-8.26c50.67-6.12,93.08-26.84,115.85-55.37,30.44,24.69,76.91,41.09,129.34,42.41C1628,71.08,1703.24,27.23,1708.73-30q6.49.69,13,.87c57.94,1.45,109.33-173.27,110.26-210.26a43.52,43.52,0,0,0-.23-5.49l-1818-45.63C32.34-243.58,112.77-36.06,229-58.08Z"/>
</svg>
