<?xml version="1.0" encoding="utf-8"?>
<!-- Generator: Adobe Illustrator 25.1.0, SVG Export Plug-In . SVG Version: 6.00 Build 0)  -->
<svg version="1.1" id="Camada_1" xmlns="http://www.w3.org/2000/svg" xmlns:xlink="http://www.w3.org/1999/xlink" x="0px" y="0px"
	 viewBox="0 0 586 580" style="enable-background:new 0 0 586 580;" xml:space="preserve">
<style type="text/css">
	.st0{fill:#0085FF;fill-opacity:0.3;}
	.st1{fill:#8DD7FF;}
	.st2{fill:#002D54;}
	.st3{fill:#FFD527;}
	.st4{opacity:0.5;}
	.st5{opacity:0.5;fill:#FFFFFF;enable-background:new    ;}
	.st6{opacity:0.3;}
	.st7{opacity:0.3;fill:#002D54;enable-background:new    ;}
	.st8{fill:#00BBFC;}
	.st9{fill:#FFFFFF;}
	.st10{fill:#371A45;}
	.st11{opacity:0.3;fill:#371A45;enable-background:new    ;}
	.st12{fill:none;stroke:#323232;stroke-width:4;stroke-linecap:round;stroke-linejoin:round;}
	.st13{opacity:0.2;fill:#FFFFFF;enable-background:new    ;}
	.st14{fill:#F91C1C;}
	.st15{opacity:0.2;}
	.st16{opacity:0.2;fill:#371A45;enable-background:new    ;}
	.st17{opacity:0.35;}
	.st18{opacity:0.35;fill:#371A45;enable-background:new    ;}
	.st19{opacity:0.35;fill:#FFFFFF;enable-background:new    ;}
	.st20{opacity:0.7;}
	.st21{opacity:0.7;fill:#FFFFFF;enable-background:new    ;}
	.st22{opacity:0.35;fill:#111A28;enable-background:new    ;}
	.st23{fill:#22A7F0;}
	.st24{fill:none;stroke:#FFD527;stroke-width:3;}
</style>
<path class="st0" d="M463,396.5c44.6-36.5,73-91.9,73-154c0-109.9-89.1-199-199-199c-109.9,0-199,89.1-199,199
	c0,62.1,28.5,117.5,73,154c37.1-0.7,80.1-1.2,126-1.2S425.9,395.8,463,396.5z"/>
<path class="st1" d="M559.3,369.8c2.7-0.7,4.2-3.5,3.5-6.1c-0.7-2.7-3.5-4.2-6.1-3.5s-4.2,3.5-3.5,6.1
	C553.9,369,556.6,370.5,559.3,369.8z"/>
<path class="st2" d="M533.8,369c2-4.2-3.6-44.1-42.1-45.8c-7.6,0-15.1,1.9-21.8,5.6c-6.4-5.7-15-9.6-24.5-10.5
	c-3.5-16.8-20.2-29.5-40.3-29.5c-7,0-14,1.6-20.3,4.7c-2,1-4.4,1.1-6.5,0.4l-0.4-0.1c-2-0.6-3.7-1.8-4.8-3.5
	c-7.1-10.9-20.3-18.2-35.6-18.2c-16.1,0-30,8.1-36.7,20c-6.6-3.6-14-5.4-21.5-5.4c-22.6,0-41,16.1-41,36c0,1.1,0.1,2.1,0.2,3.1
	c-14,2.8-25.6,11.1-31.7,22.3c-8.6-9.1-21.6-15-36.1-15c-25.2,0-45.7,17.5-46.8,39.4c-1.2-0.1-2.4-0.2-3.6-0.2
	c-16.1,0-29.1,11.5-29.1,25.6c0,0.7,0,1.4,0.1,2.1H595C589.5,382.2,565.8,359.5,533.8,369z"/>
<g id="Camada_2">
	<path class="st3" d="M527.7,247.8c27,0,48.8-21.9,48.8-48.8s-21.9-48.8-48.8-48.8c-27,0-48.8,21.9-48.8,48.8
		S500.7,247.8,527.7,247.8z"/>
	<path class="st2" d="M527.7,250.5c-28.4,0-51.5-23.1-51.5-51.5c0-28.4,23.1-51.5,51.5-51.5c28.4,0,51.5,23.1,51.5,51.5
		S556.1,250.5,527.7,250.5z M527.7,152.9c-25.4,0-46.1,20.7-46.1,46.1c0,25.4,20.7,46.1,46.1,46.1c25.4,0,46.1-20.7,46.1-46.1
		C573.8,173.6,553.1,152.9,527.7,152.9z"/>
	<g class="st4">
		<path class="st5" d="M535,169.7c-9.3,7-18.6,0.3-19,0c-0.5-0.3-1.1-0.5-1.7-0.4c-0.6,0.1-1.1,0.4-1.5,0.9
			c-0.4,0.5-0.5,1.1-0.4,1.6c0.1,0.6,0.4,1.1,0.8,1.5c2.5,1.9,7.2,4,12.5,4c3.7,0,7.8-1,11.7-3.9l17.7-9.6c0.4-0.2,0.8-0.6,1-1
			c-1.2-0.9-2.4-1.8-3.7-2.6l-17.2,9.4C535.2,169.6,535.1,169.7,535,169.7z"/>
	</g>
	<g class="st4">
		<path class="st5" d="M482.7,203.2c0.4-0.8,0.9-1.5,1.4-2.2c3.2-4.4,7.6-7.8,12.8-9.6c5.1-1.8,10.7-2,15.9-0.5
			c8.3,2.3,23.6,5.1,33.6-2.7c0.5-0.4,0.8-0.9,0.8-1.5c0.1-0.6-0.1-1.2-0.5-1.7c-0.4-0.5-0.9-0.8-1.5-0.8c-0.6-0.1-1.2,0.1-1.7,0.5
			c-8.4,6.6-22.2,4.1-29.6,2c-5.8-1.6-12-1.5-17.8,0.3c-5.8,1.8-10.9,5.3-14.7,10.1c0,0.7-0.1,1.4-0.1,2.1c0,1.7,0.1,3.4,0.3,5.1
			C482.2,203.9,482.5,203.6,482.7,203.2z"/>
	</g>
	<g class="st4">
		<path class="st5" d="M552.1,222.9c-2.5-0.4-4.8-0.4-6.9-0.1c-9.3,1.3-13,7.4-13.2,7.6c-0.3,0.5-0.4,1.1-0.2,1.7
			c0.1,0.6,0.5,1.1,1,1.4c0.5,0.3,1.1,0.4,1.7,0.3c0.6-0.1,1.1-0.5,1.4-1c0,0,2.9-4.5,9.9-5.5c1.7-0.2,3.5-0.2,5.6,0.1
			c3.4,0.5,6.7,1.6,9.8,3.2c1-1.1,2-2.3,3-3.5C560.5,225,556.4,223.6,552.1,222.9z"/>
	</g>
	<g class="st6">
		<path class="st7" d="M499.5,239.5c7,3.7,14.8,5.6,22.8,5.6c27,0,48.8-21.9,48.8-48.8c0-11.4-4-22.5-11.3-31.2
			c-0.2,7.2-3.7,65.3-69,67c4.2,4.5,9.1,8.2,14.6,10.9C503.4,241.9,501.4,240.8,499.5,239.5z"/>
	</g>
	<g class="st4">
		<path class="st5" d="M527.7,152.9c-8.1,0-16,2.1-23,6.2c-6.3,3.6-11.7,8.7-15.6,14.8c-4.9,7.5-7.5,16.2-7.5,25.2
			c0,15.6,7.8,29.3,19.6,37.7c-8.2-7.5-13.5-17.7-14.8-28.8c-1.3-11.1,1.5-22.2,7.8-31.4c2.4-0.5,5.3-2.1,7.9-4.7
			c2.5-2.5,4.1-5.3,4.6-7.7c7.7-5.1,16.8-7.8,26.1-7.7c9.3,0.1,18.3,3.1,25.9,8.4C550.2,157.2,539.2,152.9,527.7,152.9z"/>
	</g>
	<path class="st2" d="M525,174.7c-5.4,0-10.1-2.2-12.5-4c-0.5-0.4-0.8-0.9-0.9-1.5s0.1-1.2,0.4-1.7c0.4-0.5,0.9-0.8,1.5-0.9
		c0.6-0.1,1.2,0.1,1.7,0.4c0.4,0.3,9.7,7,19,0c0.1-0.1,0.2-0.1,0.3-0.2l17.8-9.7c0.5-0.3,1.1-0.3,1.7-0.2c0.6,0.2,1.1,0.6,1.3,1.1
		c0.3,0.5,0.3,1.1,0.2,1.7c-0.2,0.6-0.6,1.1-1.1,1.3l-17.6,9.6C532.8,173.6,528.7,174.7,525,174.7z"/>
	<path class="st2" d="M479.8,201.7c-0.4,0-0.8-0.1-1.1-0.3c-0.3-0.2-0.6-0.5-0.8-0.8c-0.2-0.3-0.3-0.7-0.3-1.1
		c0-0.4,0.1-0.8,0.2-1.1c0.5-1,1.1-1.9,1.7-2.8c3.7-5.2,8.9-9.1,14.9-11.2c6-2.1,12.5-2.3,18.7-0.6c7.4,2.1,21.2,4.7,29.6-2
		c0.5-0.4,1.1-0.5,1.6-0.4c0.6,0.1,1.1,0.4,1.5,0.8c0.4,0.5,0.5,1,0.5,1.6c-0.1,0.6-0.4,1.1-0.8,1.5c-10,7.8-25.4,5.1-33.6,2.7
		c-5.2-1.5-10.8-1.3-15.9,0.5c-5.1,1.8-9.6,5.2-12.8,9.6c-0.5,0.7-1,1.5-1.4,2.2c-0.2,0.4-0.5,0.7-0.8,0.9
		C480.7,201.6,480.3,201.7,479.8,201.7z"/>
	<path class="st2" d="M566,231.1c-0.5,0-1-0.2-1.4-0.5c-5.1-4.1-11-5.5-14-6c-2.1-0.3-3.9-0.4-5.6-0.1c-7.1,1-9.9,5.4-9.9,5.5
		c-0.1,0.3-0.3,0.5-0.6,0.7c-0.2,0.2-0.5,0.3-0.8,0.4c-0.3,0.1-0.6,0.1-0.9,0.1c-0.3,0-0.6-0.1-0.8-0.3c-0.3-0.2-0.5-0.4-0.7-0.6
		c-0.2-0.2-0.3-0.5-0.4-0.8c-0.1-0.3-0.1-0.6,0-0.9s0.2-0.6,0.3-0.8c0.2-0.3,3.9-6.3,13.2-7.6c2.1-0.3,4.4-0.3,6.9,0.1
		c3.5,0.5,10.2,2.2,16.1,6.9c0.4,0.3,0.6,0.7,0.8,1.1c0.1,0.4,0.1,0.9,0,1.4c-0.2,0.4-0.4,0.8-0.8,1.1S566.5,231.1,566,231.1
		L566,231.1z"/>
	<path class="st2" d="M467.3,222c-1.4,0-2.7-0.4-3.9-1.2c-1.2-0.8-2.1-1.9-2.6-3.1c-0.5-1.3-0.7-2.7-0.5-4.1
		c0.2-1.4,0.9-2.6,1.8-3.6c4.7-5,13.8-9.5,14.2-9.7c0.7-0.4,1.6-0.4,2.4-0.1c0.8,0.3,1.4,0.8,1.8,1.6s0.4,1.6,0.2,2.4
		c-0.3,0.8-0.8,1.4-1.6,1.8c-0.1,0-8.5,4.2-12.4,8.4c-0.1,0.1-0.2,0.3-0.2,0.5c0,0.2,0,0.3,0.1,0.5c0.1,0.2,0.2,0.3,0.4,0.4
		c0.2,0.1,0.3,0.1,0.5,0.1c14.5-2.2,88.2-14.2,117.6-36.7c0.2-0.1,0.4-0.3,0.4-0.6c0.1-0.2,0.1-0.5,0-0.7c-0.1-0.2-0.2-0.4-0.4-0.6
		c-0.2-0.1-0.4-0.2-0.7-0.2c-3.5-0.1-7.7,0.3-12.4,1.3c-0.8,0.2-1.7,0-2.4-0.4c-0.7-0.5-1.2-1.2-1.4-2c-0.2-0.8,0-1.7,0.4-2.4
		c0.5-0.7,1.2-1.2,2-1.4c5.2-1.1,9.9-1.6,14-1.4c1.5,0,3,0.6,4.3,1.5c1.2,0.9,2.1,2.2,2.6,3.7c0.5,1.5,0.5,3,0,4.5
		c-0.5,1.5-1.4,2.8-2.6,3.7c-29.9,22.8-99.8,34.8-120.5,37.9C468,221.9,467.6,222,467.3,222z"/>
	<path class="st8" d="M516.4,221.7c5.8-2.4,8.6-9.1,6.2-14.9c-2.4-5.8-9.1-8.6-14.9-6.2c-5.8,2.4-8.6,9.1-6.2,14.9
		C504,221.4,510.7,224.1,516.4,221.7z"/>
	<path class="st2" d="M512.1,224.8c-2.7,0-5.3-0.8-7.6-2.3c-2.2-1.5-4-3.6-5-6.1c-1-2.5-1.3-5.2-0.8-7.9c0.5-2.6,1.8-5.1,3.7-7
		c1.9-1.9,4.3-3.2,7-3.7c2.6-0.5,5.4-0.3,7.9,0.8c2.5,1,4.6,2.8,6.1,5c1.5,2.2,2.3,4.9,2.3,7.6c0,3.6-1.4,7.1-4,9.6
		C519.2,223.4,515.7,224.8,512.1,224.8z M512.1,202.1c-1.8,0-3.6,0.5-5.1,1.5s-2.7,2.4-3.4,4.1c-0.7,1.7-0.9,3.5-0.5,5.3
		c0.4,1.8,1.2,3.4,2.5,4.7c1.3,1.3,2.9,2.1,4.7,2.5c1.8,0.4,3.6,0.2,5.3-0.5c1.7-0.7,3.1-1.9,4.1-3.4c1-1.5,1.5-3.3,1.5-5.1
		c0-2.4-1-4.7-2.7-6.4C516.8,203.1,514.5,202.1,512.1,202.1z"/>
	<g class="st4">
		<path class="st5" d="M505.7,213c0-1.5,0.4-3,1.1-4.3c0.7-1.3,1.8-2.5,3-3.3c1.3-0.8,2.7-1.3,4.2-1.5c1.5-0.1,3,0.1,4.4,0.7
			c-1-0.9-2.1-1.6-3.4-2.1c-1.3-0.4-2.6-0.6-3.9-0.4c-1.3,0.1-2.6,0.6-3.7,1.3c-1.1,0.7-2.1,1.6-2.8,2.7c-0.7,1.1-1.2,2.4-1.4,3.7
			c-0.2,1.3-0.1,2.7,0.3,3.9s1,2.5,1.9,3.5c0.9,1,2,1.8,3.2,2.3c-0.9-0.8-1.6-1.9-2.1-3C505.9,215.5,505.7,214.2,505.7,213z"/>
	</g>
	<g class="st6">
		<path class="st7" d="M518.2,202.4c0,0,0.9,14.4-14.4,16.2c0,0,11.7,7.2,19.8-2.7C523.6,215.9,525.4,205.1,518.2,202.4z"/>
	</g>
</g>
<g id="Camada_3">
	<path class="st9" d="M328.6,129c-5.7-6.6-9-14.9-9.4-23.5C318.1,83.6,335,65.1,357,64c22-1.1,40.8,15.7,42,37.5
		c1.1,21.8-15.8,40.4-37.8,41.5c-5.9,0.3-11.8-0.7-17.3-3l-17.6,6.8L328.6,129z"/>
	<g class="st4">
		<path class="st5" d="M357.4,71.1c-20.7,1.1-36.9,17.6-38,37.8c-0.2-1.4-0.4-2.8-0.5-4.3c-1.1-22.1,15.9-41,38-42.1
			c22.1-1.1,41,15.9,42.1,38c0.1,1.4,0.1,2.9,0,4.3C395.9,84.8,378.1,70,357.4,71.1z"/>
	</g>
	<path class="st10" d="M325.8,149.9c-0.4,0-0.8-0.1-1.1-0.3c-0.4-0.2-0.7-0.4-0.9-0.7c-0.3-0.3-0.4-0.7-0.5-1.1
		c-0.1-0.4-0.1-0.8-0.1-1.2l2.2-16.7c-6.4-8.1-9.6-18.2-9.1-28.5c0.5-10.3,4.7-20.1,11.9-27.5c7.1-7.4,16.7-12,27-12.9
		c10.3-0.9,20.5,2,28.8,8.1c8.3,6.1,14.1,15,16.4,25.1c2.2,10.1,0.8,20.6-4.2,29.7c-4.9,9.1-13,16-22.6,19.6
		c-9.7,3.6-20.3,3.5-29.9-0.1l-16.4,6.5C326.6,149.9,326.2,149.9,325.8,149.9z M361.1,66.6c-1.5-0.1-2.9-0.1-4.4,0
		c-6.8,0.4-13.4,2.6-19.1,6.5c-5.6,3.9-10.1,9.3-12.8,15.6c-2.7,6.3-3.6,13.2-2.6,20c1,6.8,3.9,13.2,8.3,18.4
		c0.3,0.3,0.5,0.7,0.6,1.1c0.1,0.4,0.1,0.8,0.1,1.2l-1.7,13.1l12.9-5.1c0.7-0.3,1.5-0.3,2.2,0c5,2.1,10.5,3,15.9,2.7
		c20.2-1,35.9-18.4,34.8-38.7C394.4,82.6,379.4,67.8,361.1,66.6z"/>
	<g class="st6">
		<path class="st11" d="M328.1,129c12.3,7.5,27.9,9.2,42.1,3.2c15.8-6.6,26-21.1,28-37c0.4,2,0.7,4.1,0.8,6.2
			c1.1,22.1-15.9,41-38,42.1c-5.9,0.3-11.9-0.7-17.4-3l-17.7,7l2.4-18.1C328.3,129.2,328.2,129.1,328.1,129z"/>
	</g>
	<path class="st12" d="M367.2,115.7l3.1,6c0.3,0.5,0.1,1.2-0.5,1.5l-3.3,1.7c-0.5,0.3-1.2,0.1-1.5-0.5l-3.1-6l-5.3,3.3l0-18.3
		c0-0.9,1-1.4,1.8-0.9l14.5,10.9L367.2,115.7L367.2,115.7z"/>
	<path class="st12" d="M344,103h-4"/>
	<path class="st12" d="M376,103h-4"/>
	<path class="st12" d="M348.1,112.9l-2.8,2.8"/>
	<path class="st12" d="M370.7,90.3l-2.8,2.8"/>
	<path class="st12" d="M358,85v4"/>
	<path class="st12" d="M345.3,90.3l2.8,2.8"/>
</g>
<g id="astronauta">
	<path class="st5" d="M406,345l-0.5-5.5l83,95L406,345z"/>
	<path class="st5" d="M234.8,381l-0.5-5.5l55.5,69L234.8,381z"/>
	<path class="st13" d="M337.5,423.8l-0.5-5.5l24,35.5L337.5,423.8z"/>
	<g>
		<g>
			<path class="st14" d="M430.6,313.3c-1.9-0.4-6-1.2-10.5-1.4c-4.8-0.3-10.1,0.1-13.9,2.1c-3.8,2.1-5.6,5.3-9.3,8.1
				c-1.7,1.3-3.8,2.5-6.7,3.4c-2.6,0.8-4.9,1.1-7.2,1.2c-6,0.3-11.6-0.3-20.6,5.8c-1,0.7-2.1,1.2-3.2,1.7c-0.3,0.2-0.7,0.3-1,0.5
				c0,0,0,0-0.1,0c-8.4,3.5-21.3,5.5-21.3,5.5L271,235.9l146.3,54.8l13.8,21.8c0.1,0.1,0.1,0.2,0.1,0.3c0,0.1,0,0.2-0.1,0.3
				c-0.1,0.1-0.1,0.1-0.2,0.2C430.8,313.3,430.7,313.3,430.6,313.3z"/>
			<g class="st15">
				<path class="st16" d="M430.6,313.3c-1.9-0.4-6-1.2-10.5-1.4c-4.8-0.3-10.1,0.1-13.9,2.1c-3.8,2.1-5.6,5.3-9.3,8.1
					c-1.7,1.3-3.8,2.5-6.7,3.4c-2.6,0.8-4.9,1.1-7.2,1.2c-6,0.3-11.6-0.3-20.6,5.8c-1,0.7-2.1,1.2-3.2,1.7c-0.3,0.2-0.7,0.3-1,0.5
					c0,0,0,0-0.1,0c-8.4,3.5-21.3,5.5-21.3,5.5L271,235.9l146.3,54.8l13.8,21.8c0.1,0.1,0.1,0.2,0.1,0.3c0,0.1,0,0.2-0.1,0.3
					c-0.1,0.1-0.1,0.1-0.2,0.2C430.8,313.3,430.7,313.3,430.6,313.3z"/>
			</g>
			<g class="st17">
				<path class="st18" d="M420.2,311.8c-4.8-0.3-10.1,0.1-13.9,2.1c-3.8,2.1-5.6,5.3-9.3,8.1c1.1-2.6,2.3-7-1.1-10.7
					c-6.4-7-19.6-11.8-19.5-13C376.7,294.5,404.4,306.2,420.2,311.8z"/>
			</g>
			<g class="st17">
				<path class="st18" d="M383.1,326.6c-6,0.3-11.6-0.3-20.6,5.8c-1,0.7-2.1,1.2-3.2,1.7c-0.4,0.1-0.7,0.3-1,0.5c0,0,0,0-0.1,0
					c1.6-2.4,6.1-4.4,3.7-11.7c-2.9-9-16.3-18.8-16-20C346.7,299.7,367.9,316.6,383.1,326.6z"/>
			</g>
			<path class="st10" d="M335.9,342.3l-69.8-110.4l152.5,57.2l14.2,22.4c0.3,0.4,0.4,0.9,0.4,1.4c0,0.5-0.2,1-0.4,1.4
				c-0.3,0.4-0.7,0.7-1.1,0.9c-0.5,0.2-1,0.2-1.4,0.1c-7.7-1.7-17.7-2.4-23,0.5c-1.9,1-3.2,2.4-4.8,4c-2.6,2.7-5.5,5.7-11.6,7.6
				c-3.7,1.1-6.9,1.3-10,1.4c-5.1,0.2-9.9,0.3-17.3,5.4c-7.4,5-25.6,7.9-26.4,8L335.9,342.3z M275.9,239.8l62,98.1
				c4.3-0.7,17.9-3.4,23.5-7.2c8.3-5.7,14-5.9,19.4-6.1c2.9-0.1,5.7-0.2,8.9-1.2c5.1-1.6,7.4-4,9.9-6.6c1.6-1.7,3.3-3.4,5.8-4.8
				c6.2-3.4,16.1-2.6,22.3-1.5L416,292.4L275.9,239.8z M429.5,313.6L429.5,313.6L429.5,313.6z"/>
			<path class="st14" d="M290,246.3c0,0,79.3,27.2,141.8,67.2c0,0,10.2-17-4.8-31.6c0,0-28.8-3.1-69.4-19.7
				c-39.5-16.1-70.1-34.4-70.1-34.4L290,246.3z"/>
			<g class="st17">
				<path class="st19" d="M432.8,311.5c0.1-0.2,0.1-0.5,0.2-0.7c2.7-11.9-5.2-23.7-17.2-26c-11.7-2.2-33.2-7.3-59.7-18.1
					c-33-13.5-59.9-28.5-67.8-33l-0.8-5.9c0,0,30.6,18.3,70.1,34.4c40.6,16.6,69.4,19.7,69.4,19.7
					C438.9,293.5,434.9,306.6,432.8,311.5z"/>
			</g>
			<path class="st10" d="M431.6,315.3c-0.5,0-0.9-0.1-1.3-0.4c-61.5-39.3-140.1-66.5-140.9-66.7l-1.2-0.4l-3.3-23.9l3.6,2.1
				c0.3,0.2,31,18.4,69.8,34.3c39.9,16.3,68.6,19.6,68.9,19.6l0.7,0.1l0.5,0.5c14.5,14.2,7.1,30.4,5.4,33.5c-0.2,0.4-0.5,0.7-0.9,1
				C432.5,315.2,432,315.3,431.6,315.3L431.6,315.3z M291.8,244.8c10,3.5,81.6,29.4,139.1,65.8c2-4.5,5.4-16.3-4.9-26.9
				c-4.7-0.6-32.3-4.7-69.2-19.8c-31.5-12.8-57.6-27.2-66.8-32.5L291.8,244.8z"/>
			<path class="st9" d="M238.6,316.2c4.1,15.9,8.4,23.4,8.4,23.4s6.9,15.3,21.8,23c9.6,4.9,21.8,4,21.8,4s6.1,19.9,14.4,24
				s22.3-1.4,20.2-16c-1.4-9.7-7.5-24.2-11.5-28.9c-5-5.9-25.9-30.2-28.3-39.6"/>
			<g class="st17">
				<path class="st18" d="M238.6,316.2c4.1,15.9,8.4,23.4,8.4,23.4s6.9,15.3,21.8,23c9.6,4.9,21.8,4,21.8,4s6.1,19.9,14.4,24
					s22.3-1.4,20.2-16c-1.4-9.7-7.5-24.2-11.5-28.9c-5-5.9-25.9-30.2-28.3-39.6"/>
			</g>
			<path class="st10" d="M310.8,393.9c-2.3,0-4.6-0.5-6.7-1.5c-7.7-3.8-13.3-18.7-15-23.7c-3.7,0.1-13.3-0.2-21.3-4.3
				c-14.9-7.7-22-22.4-22.6-23.8c-0.5-0.9-4.6-8.5-8.5-23.8c-0.1-0.5,0-1,0.3-1.5s0.7-0.8,1.2-0.9c0.5-0.1,1-0.1,1.5,0.2
				c0.4,0.3,0.8,0.7,0.9,1.2c4,15.4,8.1,22.8,8.2,22.9l0.1,0.2c0.1,0.1,6.8,14.8,20.9,22c9,4.6,20.6,3.8,20.7,3.8l1.6-0.1l0.5,1.5
				c1.6,5.3,7.2,19.8,13.4,22.8c3.8,1.9,9.1,1.3,12.8-1.4c3.7-2.7,5.3-7.2,4.5-12.5c-1.4-9.6-7.4-23.6-11-27.9
				c-17.4-20.3-27-33.8-28.7-40.4c-0.1-0.5,0-1,0.2-1.5c0.3-0.4,0.7-0.8,1.2-0.9c0.5-0.1,1-0.1,1.5,0.2c0.5,0.3,0.8,0.7,0.9,1.2
				c0.9,3.3,5.7,12.8,27.9,38.8c4.5,5.3,10.5,20.3,11.9,29.9c1.4,9.3-3.3,14.2-6.1,16.3C318.1,392.7,314.5,393.9,310.8,393.9z"/>
			<path class="st9" d="M241.1,241.1l-93.9-91.9c0,0-13.5-18.8-31-5.2c-17.1,13.3-7.9,26.9-1.9,33.3l88,72.4c0,0,6.7,62.3,43.9,84.8
				c25.3,15.2,49.9,3.3,49.9,3.3s6.9,15.3,21.8,23c9.6,4.9,21.8,4,21.8,4s6.1,19.9,14.4,24c8.3,4.1,22.3-1.4,20.2-16
				c-1.4-9.7-7.4-24.2-11.5-28.9c-5-5.9-25.9-30.2-28.3-39.6c-13.3-50.8-51-73.6-51-73.6L241.1,241.1z"/>
			<path class="st9" d="M374.5,375.6c0,12.4-12.7,16.9-20.4,13.1c-8.3-4.1-14.4-24-14.4-24s-12.2,0.9-21.8-4
				c-14.9-7.7-21.8-23-21.8-23s-24.6,12-49.9-3.3c-0.4-0.2-0.8-0.5-1.1-0.7c-24.2-15.4-35.2-47.8-39.8-67.6c-2.3-9.8-3-16.5-3-16.5
				l-13.2-10.8l-12.7-10.5l-62.2-51.1c-0.1-0.1-0.2-0.2-0.3-0.3c-6-6.5-14.7-19.9,2.2-33c17.5-13.6,31,5.2,31,5.2l31.4,30.7
				l62.5,61.1l42.4-10.4c0,0,4.8,2.9,11.6,8.9c2.1,1.9,4.4,4.1,6.8,6.5c12.3,12.8,21.9,27.9,28.3,44.5c1.7,4.5,3.1,9,4.4,13.6
				c2.5,9.4,23.3,33.7,28.3,39.6c4,4.7,10.1,19.2,11.5,28.9C374.5,373.6,374.5,374.6,374.5,375.6z"/>
			<g class="st17">
				<path class="st18" d="M374.5,375.6c0,12.4-12.7,16.9-20.4,13.1c-8.3-4.1-14.4-24-14.4-24s-12.2,0.9-21.8-4
					c-14.9-7.7-21.8-23-21.8-23s-24.6,12-49.9-3.3c-0.4-0.2-0.8-0.5-1.1-0.7c8.5,2.1,21.1,3.9,32.2,1c18.8-5.1,18.9-11.2,26-10.1
					c7.1,1.2,0.4,15.3,16.3,26.6c17.2,12.2,34.3,1.1,37,4c2.8,3-8.6,7.9-7.4,18.8C350.3,383.6,369.7,388.8,374.5,375.6z"/>
			</g>
			<g class="st17">
				<path class="st18" d="M189.2,238.9l-74.9-61.6c-0.1-0.1-0.2-0.2-0.3-0.3l15.7-22c0,0,9.9,39.6,28.2,46.2
					c14.6,5.2,16.8-19.7,16.8-19.7L189.2,238.9z"/>
			</g>
			<path class="st10" d="M360,392c-2.3,0-4.6-0.5-6.7-1.5c-7.7-3.8-13.3-18.7-15-23.7c-3.7,0.1-13.3-0.2-21.3-4.3
				c-12.5-6.4-19.4-17.8-21.8-22.1c-6.3,2.5-27.7,9.3-50-4.1c-19.7-11.9-30.9-34.8-36.8-51.8c-5.6-16.2-7.6-30.1-8-33.6l-87.5-72
				l-0.1-0.1c-6-6.4-8.9-13.1-8.4-19.4c0.5-6.1,4-11.7,10.5-16.8c5.5-4.2,11.1-6,16.9-5.2c9.5,1.4,15.9,9.4,16.8,10.6l93,91
				l42.1-10.4l0.7,0.4c0.4,0.2,9.8,6,20.9,18.1c10.3,11.2,24,30,31,56.7c0.9,3.3,5.7,12.8,27.9,38.8c4.5,5.3,10.5,20.3,11.9,29.9
				c1.4,9.3-3.3,14.2-6.1,16.3C367.2,390.8,363.6,392,360,392z M341.1,362.6l0.5,1.5c1.6,5.3,7.2,19.8,13.4,22.8
				c3.8,1.9,9.1,1.3,12.8-1.4c3.7-2.7,5.3-7.2,4.5-12.5c-1.4-9.6-7.4-23.6-11-27.9c-17.4-20.2-27-33.8-28.7-40.4
				c-12-45.7-44.3-68.6-49.4-71.9l-42.6,10.5l-94.8-92.8l-0.1-0.1c-0.1-0.1-5.8-7.9-14.3-9.1c-4.6-0.7-9.3,0.8-13.8,4.4
				c-5.6,4.3-8.6,9-9,13.9c-0.5,6.5,3.6,12.4,7.2,16.3l88.6,72.8l0.1,0.8c0.1,0.6,7.1,61.6,43,83.3c24,14.5,47.7,3.3,48,3.2l1.8-0.9
				l0.8,1.9c0.1,0.1,6.8,14.8,20.8,22c8.9,4.6,20.6,3.8,20.7,3.8L341.1,362.6z"/>
			<path class="st9" d="M285.9,313.9c0,4.8-2.5,9.4-6.6,11c-10.2,4-27.3,8.5-45.6,4.3c-4.3-1-8.1-3.7-10.9-7.7
				c-3.4-4.9-7.8-12.8-11.4-24.4c-1.3-4.2,1.5-8.6,5.3-8.2c9.2,1.1,26.3,1,49.7-7.3c4.6-1.6,9.4,1.1,11.2,6.4l4.6,13.3l2.9,8.3
				C285.7,310.9,285.9,312.4,285.9,313.9z"/>
			<g class="st17">
				<path class="st18" d="M285.9,313.9c0,4.8-2.5,9.4-6.6,11c-10.2,4-27.3,8.5-45.6,4.3c-4.3-1-8.1-3.7-10.9-7.7
					c-0.2-0.3-0.4-0.6-0.6-0.9c1.5,0.9,3.1,1.5,4.7,1.9c18.3,4.2,35.4-0.4,45.6-4.3c1.8-0.7,3.2-1.9,4.3-3.5
					c-1.9-0.5-3.6-2.2-4.3-4.4l-0.1-0.4c-1.1-3.7,0.8-7.4,4-7.7c0.5-0.1,1.1-0.1,1.6-0.2l-7.2-20.6c2.9,0.7,5.5,3.1,6.7,6.6
					l4.6,13.3l2.9,8.3c0.1,0.2,0.1,0.4,0.2,0.5c0,0.1,0.1,0.3,0.1,0.4c0.1,0.3,0.1,0.6,0.2,0.9c0,0.1,0,0.3,0.1,0.4
					c0,0.2,0,0.3,0.1,0.5c0,0.2,0,0.4,0.1,0.5c0,0.2,0,0.4,0,0.5C285.9,313.5,285.9,313.7,285.9,313.9z"/>
			</g>
			<path class="st10" d="M248.5,332.8c-5.1,0-10.2-0.6-15.2-1.7c-4.8-1.1-9-4.1-12.1-8.5c-3.3-4.8-8-12.9-11.7-25
				c-0.9-2.9-0.3-6.1,1.6-8.3c1.5-1.8,3.6-2.7,5.8-2.5c9.9,1.1,26.4,0.8,48.8-7.2c1.2-0.4,2.5-0.6,3.8-0.6c1.3,0.1,2.6,0.4,3.8,1
				c2.8,1.4,5,3.9,6.2,7.2l7.5,21.6c2.5,7.2-0.7,15.4-7,17.8C272.1,329.8,260.9,332.9,248.5,332.8z M216.3,290.8c-1,0-1.7,0.7-2,1.1
				c-1,1.2-1.3,3-0.8,4.6c3.5,11.5,8,19.4,11.1,23.9c2.5,3.6,5.9,6,9.7,6.9c17.4,4,33.8-0.1,44.4-4.2c4.3-1.7,6.5-7.7,4.7-12.8
				l-7.5-21.6c-0.8-2.3-2.3-4-4.1-4.9c-0.7-0.3-1.5-0.5-2.2-0.6c-0.8,0-1.6,0.1-2.3,0.3c-23.2,8.2-40.3,8.6-50.6,7.4
				C216.4,290.8,216.4,290.8,216.3,290.8L216.3,290.8z"/>
			<g class="st17">
				<path class="st18" d="M326.5,285.6c-9.2,4.6-30.3,14.1-50,16.4c-3.2,0.4-5.2,4-4,7.7l0.1,0.4c0.9,2.9,3.4,4.8,5.9,4.6
					c20.5-1.9,43.9-10.7,53.7-14.7c2.6-1.1,3.8-4.5,2.6-7.7l-1.3-3.4C332.3,285.9,329.1,284.4,326.5,285.6z"/>
			</g>
			<path class="st9" d="M327,280.7c-9.2,4.6-30.3,14.1-50,16.4c-3.2,0.4-5.2,4-4,7.7l0.1,0.4c0.9,2.9,3.4,4.8,5.9,4.6
				c20.5-1.9,43.9-10.7,53.7-14.7c2.6-1.1,3.8-4.5,2.6-7.7l-1.3-3.4C332.8,280.9,329.6,279.4,327,280.7z"/>
			<path class="st10" d="M278.7,311.8c-3.2,0-6.3-2.4-7.4-6l-0.1-0.4c-0.8-2.5-0.5-5.2,0.9-7.3c1.1-1.7,2.8-2.8,4.8-3
				c19.6-2.3,41-12.1,49.3-16.2c0.8-0.4,1.7-0.6,2.6-0.7c0.9,0,1.8,0.1,2.6,0.5c2,0.8,3.7,2.5,4.6,4.7l1.3,3.4
				c1.6,4.2,0,8.8-3.7,10.2c-9.3,3.8-33.3,12.9-54.3,14.8C279.1,311.8,278.9,311.8,278.7,311.8z M327.9,282.5
				c-8.5,4.2-30.4,14.3-50.6,16.6c-1,0.1-1.6,0.7-1.9,1.3c-0.7,1-0.8,2.5-0.4,3.9l0.1,0.4c0.6,1.9,2.2,3.3,3.8,3.2
				c20.4-1.9,44-10.8,53.2-14.5c1.6-0.7,2.3-3,1.5-5.1l-1.3-3.4c-0.5-1.2-1.3-2.1-2.3-2.5c-0.3-0.1-0.7-0.2-1-0.2
				C328.6,282.2,328.2,282.3,327.9,282.5L327.9,282.5z"/>
			<g class="st17">
				<path class="st18" d="M273.1,304.8l0.1,0.4c0.9,2.9,3.4,4.8,5.9,4.6c20.5-1.9,43.9-10.7,53.7-14.7c2.6-1.1,3.8-4.5,2.5-7.7
					l-1.3-3.4c0-0.1-0.1-0.2-0.1-0.3c-0.1,2.1-1.2,3.9-3,4.7c-9.8,4-33.2,12.8-53.7,14.7c-1.6,0.1-3.2-0.6-4.3-1.8
					C272.6,302.5,272.7,303.7,273.1,304.8z"/>
			</g>
			<path class="st9" d="M110.2,172c0,0,4.2,5.4,10.3,4.5c10.1-1.5,24.2-12.2,21.3-19.8c-2.4-6.3-9.2-6.4-6.8-11.3"/>
			<g class="st17">
				<path class="st18" d="M120.5,176.5c-6.1,0.9-10.3-4.5-10.3-4.5l0,0c1.6,0.8,3.6,1.3,5.9,1c10.1-1.5,24.2-12.2,21.4-19.8
					c-1-2.7-2.9-4.3-4.4-5.5l2.1-2.2c-2.5,4.9,4.4,5,6.8,11.3C144.7,164.3,130.6,175,120.5,176.5z"/>
			</g>
			<path class="st10" d="M111.8,170.8l0.2,0.2c0.1,0.1,0.2,0.2,0.3,0.3c0.2,0.2,0.4,0.4,0.6,0.5c0.4,0.4,0.8,0.7,1.2,1
				c0.8,0.6,1.7,1.1,2.7,1.4c0.9,0.3,1.9,0.4,2.8,0.4l0.7-0.1l0.8-0.1c0.5-0.1,1.1-0.2,1.6-0.4c2.2-0.6,4.3-1.5,6.2-2.6
				c2-1.1,3.9-2.4,5.6-3.8c1.7-1.4,3.3-3.1,4.4-4.9c0.5-0.8,0.9-1.8,1.1-2.7c0.2-0.8,0.2-1.6-0.1-2.4c-0.1-0.2-0.1-0.4-0.2-0.6
				c-0.1-0.2-0.2-0.4-0.3-0.6c-0.2-0.4-0.5-0.9-0.7-1.2c-0.6-0.8-1.3-1.6-2.1-2.4c-0.4-0.4-0.9-0.8-1.3-1.3c-0.4-0.5-0.9-1-1.3-1.8
				c-0.2-0.4-0.3-0.8-0.4-1.2c-0.1-0.4-0.1-0.9,0-1.3c0.2-0.8,0.6-1.4,1-1.9c0.1-0.1,0.2-0.2,0.4-0.2c0.1,0,0.3,0,0.4,0
				c0.1,0.1,0.3,0.2,0.3,0.3c0.1,0.1,0.1,0.3,0.1,0.4l0,0c-0.1,0.6-0.2,1.1-0.1,1.5c0.1,0.4,0.3,0.7,0.5,0.9
				c0.6,0.6,1.6,1.1,2.6,1.8c1.1,0.7,2.2,1.6,3,2.6c0.5,0.5,0.9,1.1,1.3,1.7c0.2,0.3,0.3,0.6,0.5,1c0.2,0.3,0.3,0.7,0.4,1.1
				c0.5,1.5,0.5,3.2,0.1,4.7c-0.4,1.5-1,2.7-1.8,3.9c-1.5,2.3-3.3,4.1-5.2,5.8c-1.9,1.6-4.1,3.1-6.3,4.3c-2.2,1.2-4.6,2.2-7.1,2.9
				c-0.6,0.2-1.3,0.3-1.9,0.5l-1,0.2l-1.1,0.1c-1.5,0.1-2.9-0.1-4.3-0.6c-1.3-0.5-2.6-1.1-3.7-1.9c-0.6-0.4-1.1-0.8-1.6-1.3
				c-0.3-0.2-0.5-0.5-0.7-0.7c-0.1-0.1-0.2-0.2-0.4-0.4c-0.1-0.1-0.2-0.2-0.4-0.4c-0.3-0.4-0.5-0.9-0.4-1.4c0-0.5,0.3-1,0.7-1.3
				c0.4-0.3,0.9-0.5,1.4-0.5c0.5,0,1,0.3,1.3,0.7L111.8,170.8z"/>
			<path class="st9" d="M153,158.9c-5.8-9.7-12.4-10.3-20.3-5.9c-5.7,3.2-8.7,8.8-6.8,12.1c2.2,4,13.2-2.5,13.6-2.2
				c0.4,0.3-2.4,5.7-1,10.4"/>
			<path class="st10" d="M152.7,159.1c-0.5-0.5-1-0.9-1.5-1.4l-0.7-0.7c-0.2-0.2-0.5-0.5-0.7-0.7c-1-0.8-2-1.6-3-2.2
				c-0.5-0.3-1-0.5-1.5-0.8c-0.5-0.2-1-0.4-1.6-0.5c-1.1-0.3-2.1-0.3-3.2-0.2c-0.5,0-1.1,0.2-1.7,0.3c-0.6,0.2-1.1,0.3-1.7,0.5
				c-1.1,0.4-2.3,0.9-3.4,1.5c-2.1,1.1-4,2.7-5.2,4.7c-0.6,1-1,2-1.1,2.9c0,0.5,0,0.9,0.1,1.2c0,0.2,0.1,0.3,0.2,0.5c0,0,0,0,0.1,0
				c0.2,0.1,0.5,0.1,0.7,0.1c0.5,0,1-0.1,1.5-0.2c1.1-0.2,2.3-0.6,3.5-1.1c1.2-0.4,2.4-0.9,3.7-1.5c0.3-0.1,0.6-0.3,1-0.4
				c0.1,0,0.2-0.1,0.4-0.1l0.1,0l0.2,0c0.1,0,0.2,0,0.3-0.1c0.1,0,0.3,0,0.4,0c0.2,0,0.3,0,0.4,0.1c0.2,0.1,0.4,0.2,0.6,0.3
				c0.1,0.1,0.2,0.2,0.3,0.3c0.1,0.1,0.2,0.2,0.2,0.3c0.1,0.2,0.2,0.4,0.2,0.6c0,0.2,0.1,0.3,0.1,0.5l0,0.2c0,0.1,0,0.1,0,0.2
				c0,0.1-0.1,0.3-0.1,0.4c-0.1,0.4-0.2,0.7-0.4,1l-0.4,0.9c-0.9,2.4-1.7,4.6-1.8,7.4l0,0c0,0.1,0,0.1-0.1,0.2
				c0,0.1-0.1,0.1-0.2,0.1c-0.1,0-0.1,0-0.2,0c-0.1,0-0.1-0.1-0.2-0.1c-0.8-1.2-1.2-2.7-1.4-4.2c-0.1-1.5,0-2.9,0.3-4.4l0.4-1.9
				c0,0,0-0.1,0-0.1c0,0,0,0,0,0.1c0,0,0,0.1,0,0.1c0,0.1,0,0.3,0,0.4l0,0.2c0.1,0.2,0.2,0.4,0.3,0.6c0.1,0.1,0.2,0.2,0.3,0.3
				c0.2,0.1,0.4,0.3,0.6,0.3c0.1,0,0.3,0.1,0.4,0.1c0.1,0,0.2,0,0.4,0c0.1,0,0.1,0,0.2,0l0.1,0l-0.1,0.1l-0.8,0.4
				c-1.2,0.6-2.5,1.2-3.8,1.7c-1.4,0.6-2.8,1-4.2,1.3c-0.8,0.2-1.7,0.2-2.5,0.2c-0.9,0-2-0.2-3.1-1c-0.5-0.4-1-0.9-1.3-1.5
				c-0.2-0.5-0.4-0.9-0.5-1.4c-0.3-1-0.2-1.9-0.2-2.8c0.2-1.8,0.9-3.2,1.8-4.6c1.7-2.6,4-4.6,6.6-6.2c1.3-0.7,2.5-1.4,3.9-1.9
				c0.7-0.3,1.4-0.5,2.2-0.7c0.4-0.1,0.8-0.1,1.1-0.2c0.2,0,0.4-0.1,0.6-0.1l0.6,0c0.8-0.1,1.6,0,2.4,0.1c0.8,0.2,1.6,0.3,2.3,0.6
				c0.4,0.1,0.8,0.3,1.1,0.5c0.3,0.2,0.7,0.4,1,0.6c0.6,0.5,1.3,0.9,1.8,1.4c1.1,1,2,2.2,2.7,3.4c0.4,0.6,0.7,1.3,1,1.9
				c0.3,0.7,0.5,1.3,0.7,2c0,0.1,0,0.1,0,0.2c0,0.1-0.1,0.1-0.1,0.2c-0.1,0-0.1,0.1-0.2,0.1C152.9,159.2,152.8,159.1,152.7,159.1
				L152.7,159.1z"/>
			<path class="st10" d="M290.5,364.8c0.5-0.1,1.2-0.3,1.7-0.4l1.8-0.4c1.2-0.3,2.4-0.5,3.6-0.9c1.2-0.4,2.3-0.8,3.4-1.4
				c1.1-0.6,2.2-1.3,3.2-2.1l0,0c0,0,0.1-0.1,0.2-0.1c0.1,0,0.1,0,0.2,0.1c0,0,0.1,0.1,0.1,0.1c0,0.1,0,0.1,0,0.2
				c-0.6,1.3-1.4,2.5-2.4,3.5c-1,1-2.2,1.9-3.4,2.6c-1.2,0.7-2.6,1.3-3.9,1.7c-0.7,0.2-1.4,0.4-2.1,0.5c-0.7,0.1-1.5,0.2-2.2,0.1
				c-0.4,0-0.8-0.2-1.1-0.5c-0.3-0.3-0.5-0.7-0.6-1.1c0-0.4,0.1-0.8,0.3-1.2c0.2-0.3,0.6-0.6,1-0.7L290.5,364.8z"/>
			<path class="st10" d="M339.6,362.9c0.5-0.1,1.2-0.3,1.7-0.4l1.8-0.4c1.2-0.3,2.4-0.5,3.6-0.9c1.2-0.4,2.3-0.8,3.4-1.4
				c1.1-0.6,2.2-1.3,3.2-2.1l0,0c0,0,0.1-0.1,0.2-0.1c0.1,0,0.1,0,0.2,0.1c0,0,0.1,0.1,0.1,0.1c0,0.1,0,0.1,0,0.2
				c-0.6,1.3-1.4,2.5-2.4,3.5c-1,1-2.2,1.9-3.4,2.6c-1.2,0.7-2.6,1.3-3.9,1.7c-0.7,0.2-1.4,0.4-2.1,0.5c-0.7,0.1-1.5,0.2-2.2,0.1
				c-0.4,0-0.8-0.2-1.1-0.5c-0.3-0.3-0.5-0.7-0.6-1.1c0-0.4,0.1-0.8,0.3-1.2c0.2-0.3,0.6-0.6,1-0.7L339.6,362.9z"/>
			<path class="st9" d="M368.7,305.7c-7,2-15.7,0.4-15.7,0.4s-0.4,10.3-6.2,8.3c-1.9-0.7-3.4-4.5-4.5-8.2
				c-1.6-5.5-4.9-10.3-9.5-13.7c-0.9-0.6-1.8-1.3-2.7-1.9c-15.2-10.2-31.3-14.3-31.3-14.3l-2.4-23.1l-1.4-13.6l-0.1-0.6
				c2.7,0.5,5.8,1.7,9.3,3.3c17.4,8,42.4,27.1,47.9,32.1c6.6,6,26.5,3.7,28.6,15.9C382.3,298.6,378.1,303,368.7,305.7z"/>
			<g class="st17">
				<path class="st18" d="M368.7,305.7c-7,2-15.7,0.4-15.7,0.4s-0.4,10.3-6.2,8.3c-1.9-0.7-3.4-4.5-4.5-8.2
					c-1.6-5.5-4.9-10.3-9.5-13.7c-0.9-0.6-1.8-1.3-2.7-1.9c-15.2-10.2-31.3-14.3-31.3-14.3c1.7-1.2,3.6-1.9,5.6-2.3
					c2-0.3,4.1-0.2,6,0.4c4.3,1.3,10,3.6,17.7,8.7c0.9,0.6,1.8,1.2,2.7,1.9c4.6,3.4,7.9,8.2,9.5,13.7c1.1,3.7,2.6,7.5,4.5,8.2
					c3.3,1.2,4.6-1.8,5-4.6c0.2-1,0.7-1.9,1.5-2.5c0.8-0.6,1.8-0.9,2.8-0.8c3.5,0.3,8.5,0.4,12.7-0.7c8-2.3,12.3-5.8,12.4-12.1
					c0.9,1.2,1.4,2.6,1.7,4.1C382.3,298.6,378.1,303,368.7,305.7z"/>
			</g>
			<path class="st10" d="M299,275.6c1.7,0,3.3,0.3,4.9,0.6c1.6,0.3,3.2,0.7,4.7,1.2c3.1,1,6.1,2.2,9,3.6c1.5,0.7,2.9,1.4,4.3,2.2
				l2.1,1.2l1.1,0.6l1,0.6l2.1,1.3l2,1.3l1,0.7l1,0.7l2,1.4c2.8,2,5.2,4.6,7,7.6c0.9,1.5,1.6,3,2.2,4.7c0.1,0.4,0.3,0.8,0.4,1.2
				l0.3,1.2c0.2,0.7,0.5,1.5,0.7,2.2c0.5,1.4,1.1,2.8,1.8,3.8c0.1,0.1,0.2,0.2,0.3,0.3l0.1,0.1c0,0,0.1,0.1,0.1,0.1
				c0.1,0.1,0.1,0.1,0.2,0.1c0,0,0,0,0.1,0c0.5,0.1,0.8,0.1,1.1,0c0.2-0.1,0.6-0.3,0.9-0.8c0.3-0.5,0.6-1.1,0.8-1.7
				c0.2-0.7,0.4-1.3,0.5-2c0.1-0.7,0.2-1.4,0.3-2.1l0.1-2.3l2.2,0.4c1.3,0.2,2.7,0.4,4.1,0.5c1.4,0.1,2.8,0.1,4.2,0.1
				c1.4,0,2.7-0.2,4.1-0.4c1.3-0.2,2.6-0.6,3.9-1c2.6-0.9,5.1-2,6.9-3.7c0.8-0.8,1.5-1.8,1.9-2.9c0.4-1.1,0.6-2.3,0.6-3.5
				c0-0.6,0-1.3-0.2-1.9c-0.1-0.6-0.2-1.2-0.4-1.8c-0.4-1.1-1-2.1-1.8-3c-1.6-1.7-4.1-2.9-6.7-3.8c-2.6-0.9-5.4-1.5-8.3-2.2
				c-1.4-0.4-2.9-0.7-4.3-1.2c-1.5-0.5-2.9-1-4.4-1.8l-0.5-0.3l-0.5-0.4c-0.4-0.2-0.7-0.5-1.1-0.8l-0.8-0.7l-0.8-0.7
				c-1.1-0.9-2.2-1.8-3.4-2.7c-2.3-1.8-4.6-3.5-6.9-5.3c-4.7-3.5-9.4-6.8-14.2-10c-4.8-3.2-9.7-6.3-14.8-9c-2.6-1.3-5.2-2.5-7.7-3.8
				c-2.6-1.3-5-2.5-7.6-4.1l0,0c-0.1-0.1-0.2-0.2-0.3-0.3c-0.1-0.1-0.1-0.3,0-0.4c0-0.1,0.1-0.3,0.2-0.4c0.1-0.1,0.2-0.2,0.4-0.2
				c0.8-0.1,1.6-0.1,2.3,0c0.4,0,0.8,0.1,1.2,0.1c0.4,0.1,0.8,0.1,1.1,0.2c1.5,0.3,2.9,0.7,4.3,1.3c2.8,1.1,5.4,2.5,8,4
				c2.6,1.5,5.1,2.9,7.6,4.5s5,3.1,7.4,4.8c4.9,3.2,9.7,6.6,14.4,10.1c2.4,1.8,4.7,3.5,7,5.3c1.2,0.9,2.3,1.8,3.4,2.8l0.9,0.7
				l0.8,0.7c0.4,0.4,0.9,0.7,1.4,1c2.2,1.2,5,1.9,7.8,2.6c2.8,0.7,5.7,1.4,8.6,2.3c1.5,0.5,2.9,1.1,4.3,1.9c1.4,0.8,2.8,1.7,4,3
				c1.2,1.3,2.1,2.8,2.6,4.5c0.3,0.8,0.4,1.6,0.5,2.5c0.1,0.8,0.2,1.6,0.2,2.4c0,1.7-0.2,3.4-0.9,5c-0.6,1.6-1.6,3.1-2.9,4.3
				c-2.5,2.4-5.5,3.6-8.4,4.6c-0.7,0.2-1.4,0.5-2.2,0.7c-0.8,0.2-1.5,0.4-2.3,0.5c-1.5,0.2-3.1,0.4-4.6,0.4
				c-3.1,0.1-6.1-0.1-9.1-0.7l2.4-1.9c-0.1,0.9-0.2,1.8-0.3,2.6c-0.2,0.9-0.4,1.8-0.7,2.6c-0.3,0.9-0.7,1.8-1.3,2.6
				c-0.6,0.9-1.5,1.8-2.7,2.3c-0.6,0.2-1.3,0.3-1.9,0.3c-0.3,0-0.6,0-0.9-0.1c-0.3,0-0.6-0.1-0.8-0.2c-0.3-0.1-0.7-0.2-1-0.4
				c-0.3-0.2-0.6-0.4-0.8-0.6l-0.3-0.3l-0.3-0.3c-0.2-0.2-0.3-0.4-0.5-0.6c-0.5-0.8-1-1.6-1.4-2.4c-0.4-0.8-0.7-1.6-1-2.4
				c-0.3-0.8-0.5-1.6-0.8-2.4l-0.3-1.1c-0.1-0.4-0.2-0.7-0.3-1c-0.5-1.4-1.1-2.7-1.9-4c-1.5-2.5-3.5-4.7-5.9-6.4
				c-5-3.7-10.5-6.7-16.2-9.4c-5.6-2.7-11.5-5-17.1-8l0,0c-0.1-0.1-0.2-0.2-0.3-0.3c-0.1-0.1-0.1-0.3,0-0.4c0-0.1,0.1-0.3,0.3-0.4
				C298.7,275.7,298.8,275.6,299,275.6L299,275.6z"/>
			<g class="st17">
				<path class="st18" d="M304.3,242.2c-0.4,0.7-0.9,1.4-1.3,2.1c-0.4,0.6-0.7,1.2-1.1,1.7c-1.6,2.5-3.5,4.8-5.4,7.1
					c-14.4,16.6-35.4,25.1-56.5,24.1c-1.3-0.1-2.7-0.2-4-0.3c-3.7-0.4-7.4-1.1-11-2.1c-6.6-1.8-13-4.6-18.8-8.3
					c-0.3-0.2-0.5-0.3-0.8-0.5c-2.3-9.8-3-16.5-3-16.5l-13.2-10.8l-12.7-10.5c-4.9-15.6-4.5-32.8,2.1-48.5l62.5,61.1l42.4-10.4
					c0,0,4.8,2.9,11.6,8.9l-0.1-0.6C297.6,239.4,300.8,240.6,304.3,242.2z"/>
			</g>
			<g class="st20">
				<path class="st21" d="M179.2,177.7c-1.1,2.8-2.1,5.6-2.9,8.5C177,183.3,178,180.4,179.2,177.7z"/>
			</g>
			<path class="st9" d="M172.4,219.3c3.5,11.5,10,21.8,18.7,30c1.8,1.7,3.8,3.4,5.8,4.9c1,0.8,2,1.5,3,2.2c3.1,2.1,6.3,4,9.7,5.6
				c6.2,2.9,12.8,4.9,19.7,5.9c1.3,0.2,2.7,0.3,4,0.5c24.5,2.2,49.4-8.6,64.2-30.4c21.9-32.1,13.6-75.8-18.4-97.6
				c-6-4.1-12.6-7.3-19.6-9.3c-0.8-0.2-1.6-0.5-2.4-0.7c-2.2-0.6-4.3-1-6.5-1.4c-10-1.6-20.2-1-30,1.7c-1.5,0.4-3.1,0.9-4.6,1.4
				c-14.1,5-26.2,14.3-34.6,26.6C168.9,177.2,166.3,199.5,172.4,219.3z"/>
			<g class="st17">
				<path class="st18" d="M297.5,238c-14.8,21.8-39.8,32.6-64.2,30.4c-1.3-0.1-2.7-0.3-4-0.5c-10.5-1.6-20.6-5.5-29.4-11.5
					c-1-0.7-2.1-1.4-3-2.2c-2-1.5-3.9-3.2-5.8-4.9c-8.7-8.2-15.1-18.6-18.7-30c-1.9-6.2-3-12.6-3.2-19c4.5,13.3,12.8,24.9,23.9,33.4
					c1,0.8,2,1.5,3,2.2c8.8,6,18.8,9.9,29.4,11.5c1.3,0.2,2.7,0.3,4,0.5c24.5,2.2,49.4-8.6,64.2-30.4c8.3-12.2,12.6-26.7,12.2-41.5
					C312.8,196.1,310.4,219.1,297.5,238z"/>
			</g>
			<path class="st10" d="M239,270.6c-2,0-3.9-0.1-5.9-0.3c-1.4-0.1-2.8-0.3-4.1-0.5c-7-1-13.8-3.1-20.2-6.1c-3.5-1.6-6.8-3.5-10-5.7
				c-1.2-0.8-2.2-1.6-3.1-2.3c-2.1-1.6-4-3.2-5.9-5c-8.9-8.5-15.6-19.1-19.2-30.9c-6.6-21.2-3.2-43.9,9.3-62.2
				c8.6-12.7,21.1-22.3,35.6-27.4c1.5-0.5,3.1-1,4.7-1.5c10-2.8,20.6-3.4,30.8-1.8c2.2,0.4,4.5,0.8,6.7,1.4c0.9,0.2,1.7,0.4,2.5,0.7
				c7.2,2.1,14,5.4,20.1,9.6c32.9,22.5,41.4,67.5,18.9,100.4C285.6,259,262.9,270.8,239,270.6z M174.3,218.7
				c3.5,11.1,9.7,21.2,18.2,29.2c1.8,1.7,3.6,3.3,5.6,4.8c0.9,0.7,1.8,1.4,3,2.1c8.5,5.8,18.3,9.7,28.5,11.2
				c1.3,0.2,2.6,0.3,3.9,0.5c24.6,2.2,48.5-9.2,62.4-29.5c21.2-31.1,13.2-73.7-17.9-94.9c-5.8-4-12.3-7-19-9.1
				c-0.7-0.2-1.5-0.4-2.3-0.6c-2.1-0.5-4.2-1-6.3-1.3c-9.7-1.5-19.7-1-29.1,1.7c-1.5,0.4-3,0.9-4.4,1.4
				c-13.7,4.8-25.4,13.9-33.6,25.9C171.3,177.2,168.1,198.6,174.3,218.7L174.3,218.7z"/>
			<path class="st10" d="M239,270.6c-2,0-3.9-0.1-5.9-0.3c-1.4-0.1-2.8-0.3-4.1-0.5c-7-1-13.8-3.1-20.2-6.1c-3.5-1.6-6.8-3.5-10-5.7
				c-1.2-0.8-2.2-1.6-3.1-2.3c-2.1-1.6-4-3.2-5.9-5c-8.9-8.5-15.6-19.1-19.2-30.9c-6.6-21.2-3.2-43.9,9.3-62.2
				c8.6-12.7,21.1-22.3,35.6-27.4c1.5-0.5,3.1-1,4.7-1.5c10-2.8,20.6-3.4,30.8-1.8c2.2,0.4,4.5,0.8,6.7,1.4c0.9,0.2,1.7,0.4,2.5,0.7
				c7.2,2.1,14,5.4,20.1,9.6c32.9,22.5,41.4,67.5,18.9,100.4C285.6,259,262.9,270.8,239,270.6z M174.3,218.7
				c3.5,11.1,9.7,21.2,18.2,29.2c1.8,1.7,3.6,3.3,5.6,4.8c0.9,0.7,1.8,1.4,3,2.1c8.5,5.8,18.3,9.7,28.5,11.2
				c1.3,0.2,2.6,0.3,3.9,0.5c24.6,2.2,48.5-9.2,62.4-29.5c21.2-31.1,13.2-73.7-17.9-94.9c-5.8-4-12.3-7-19-9.1
				c-0.7-0.2-1.5-0.4-2.3-0.6c-2.1-0.5-4.2-1-6.3-1.3c-9.7-1.5-19.7-1-29.1,1.7c-1.5,0.4-3,0.9-4.4,1.4
				c-13.7,4.8-25.4,13.9-33.6,25.9C171.3,177.2,168.1,198.6,174.3,218.7L174.3,218.7z"/>
			<path class="st10" d="M179.9,235.6c34.8,36.2,93.7,26.9,106.2-21.2c8.5-32.7-17-66.4-48.9-72.5c-23.3-4.5-48,1.3-64.8,35.5
				c0,0-5.1,16.3-2.8,28.3c2.3,12,6.6,23.2,6.6,23.2L179.9,235.6z"/>
			<g class="st17">
				<path class="st22" d="M286.1,214.5c-12.5,48.1-71.4,57.4-106.2,21.2l-0.7-1.4c42.9,16.7,92.4-1.1,106-49.6
					C288.2,194.2,288.8,204.3,286.1,214.5z"/>
			</g>
			<path class="st10" d="M229.8,266.9c-7,0-14-1.1-20.7-3l-0.3-0.1c-3.5-1.6-6.8-3.5-10-5.7c-1.2-0.8-2.2-1.5-3.1-2.3
				c-2.1-1.6-4-3.2-5.9-5c-8.9-8.5-15.6-19.1-19.2-30.9c-6.6-21.2-3.2-43.9,9.3-62.2c7.2-10.6,17.1-19.1,28.7-24.5l0.2-0.1l0.2,0
				c9.1-2.2,19.1-2.2,29.8-0.1c19.1,3.7,37,16.2,47.8,33.4c10,15.8,13.1,33.8,8.7,50.6c-4.8,18.2-15.4,32.5-30.8,41.3
				C254.1,264,242.1,267,229.8,266.9z M210.3,260.1c18,5.2,37,3.2,52.1-5.4c14.5-8.2,24.5-21.7,29-38.8c4.1-15.7,1.2-32.6-8.2-47.5
				c-10.3-16.3-27.2-28.1-45.2-31.6c-10.1-1.9-19.5-1.9-27.9,0.1c-10.9,5.2-20.1,13.2-26.9,23.1c-11.8,17.3-15,38.7-8.8,58.8
				c3.5,11.1,9.7,21.2,18.2,29.2c1.8,1.7,3.6,3.3,5.6,4.8c0.9,0.7,1.8,1.4,3,2.1C204,256.8,207.1,258.6,210.3,260.1L210.3,260.1z"/>
			<path class="st10" d="M229.7,259.7c-18.6-0.1-37.2-8.1-51.2-22.7l-0.2-0.2l-3.9-7.2c-0.2-0.5-4.4-11.6-6.7-23.6
				c-2.4-12.3,2.6-28.6,2.9-29.3l0.1-0.3c14.8-30,37.3-42.3,67-36.6c17,3.3,33,14.4,42.7,29.8c8.9,14.1,11.7,30.2,7.8,45.2
				c-5.6,21.6-20.9,37.2-41.9,42.7C240.8,259.1,235.2,259.8,229.7,259.7z M181.5,234.5c17.1,17.7,41.5,25.1,63.6,19.3
				c19.6-5.1,33.8-19.6,39-39.8c3.6-13.9,1-28.9-7.3-42.1c-9.1-14.5-24.1-24.9-40.1-28c-27.6-5.3-48.7,6.2-62.6,34.3
				c-0.5,1.6-4.8,16.4-2.7,27.2c2.1,11,6,21.5,6.5,22.8L181.5,234.5z"/>
			<path class="st9" d="M317,219.3c2.6-13.6-3.4-26.2-13.3-28.1c-9.9-1.9-20,7.7-22.6,21.3c-2.6,13.6,3.4,26.2,13.3,28.1
				C304.3,242.4,314.5,232.9,317,219.3z"/>
			<path class="st10" d="M296.8,242.8c-0.4,0-0.8,0-1.3-0.1c-4.4-0.4-8.4-2.6-11.5-6.4c-4.5-5.6-6.4-13.7-5.2-22.3
				c2-14.8,12.6-26,23.7-25c4.4,0.4,8.4,2.6,11.5,6.4c4.5,5.6,6.4,13.7,5.2,22.3C317.4,231.9,307.4,242.8,296.8,242.8z M301.3,192.9
				c-8.7-0.1-16.8,9.4-18.5,21.6c-1,7.4,0.6,14.6,4.4,19.3c2.4,3,5.4,4.7,8.7,5c9,0.8,17.7-8.9,19.4-21.6c1-7.4-0.6-14.6-4.4-19.3
				c-2.4-3-5.4-4.7-8.7-5C301.9,193,301.6,192.9,301.3,192.9L301.3,192.9z"/>
			<path class="st9" d="M319.5,220.6c2.2-10-2.5-19.5-10.5-21.3c-8-1.8-16.3,4.8-18.6,14.8c-2.2,10,2.5,19.5,10.5,21.3
				C308.9,237.1,317.2,230.5,319.5,220.6z"/>
			<g class="st17">
				<path class="st18" d="M289.6,225.2c-0.4-3.8,0.2-7.6,1.6-11.2c1.7,8.5,8.6,12.8,16.1,9.7c4.8-2,8.8-6.6,10.9-12.1
					c0.1,0.5,0.2,1.1,0.3,1.7c1.1,9.6-4.5,20-12.5,23.3C298,239.9,290.7,234.8,289.6,225.2z"/>
			</g>
			<path class="st10" d="M302.7,240.5c-0.3,0-0.6,0-0.9,0c-3.3-0.3-6.3-1.9-8.6-4.8c-3.6-4.5-5.2-11.5-4.2-18.8
				c1.7-12.4,10-21.6,18.7-20.9c3.3,0.3,6.3,1.9,8.6,4.8c3.6,4.5,5.2,11.5,4.2,18.8C318.9,231.6,311.1,240.6,302.7,240.5z
				 M306.9,199.9c-6.3,0-12.6,7.8-13.9,17.5c-0.9,6.2,0.4,12.1,3.3,15.8c1.6,2,3.6,3.2,5.8,3.3c6.4,0.5,13.1-7.5,14.5-17.5
				c0.9-6.2-0.4-12.1-3.3-15.8c-1.6-2-3.6-3.2-5.8-3.3C307.3,199.9,307.1,199.9,306.9,199.9L306.9,199.9z"/>
			<g class="st20">
				<path class="st21" d="M251.3,157.2c0,0-31.7-4-52.3,10.6l-0.1,0c-4.3,3.1-7.8,7.3-10,12.2c-2.9,6.4-3.9,11.3-4.7,15.6
					c-2.3,13.1-0.9,19.7-0.9,19.7c-6.2-8.2-9.1-16.9-7.3-27.8c0.2-1.1,0.4-2.2,0.7-3.3c0.1-0.3,0.1-0.5,0.2-0.8c0,0,0,0,0,0
					c0.9-2.8,2-5.6,3.2-8.4c4.4-9.6,12.4-21.8,26.1-25.7C231.9,142.2,252.6,156,251.3,157.2z"/>
			</g>
			<g class="st20">
				<path class="st21" d="M269.9,204.5c5.2-0.5,8.9-5.7,8.4-11.7c-0.5-6-5.1-10.5-10.3-10.1c-5.2,0.5-8.9,5.7-8.4,11.7
					C260.1,200.5,264.7,205,269.9,204.5z"/>
			</g>
			<g class="st20">
				<path class="st21" d="M271.5,217.9c2.1-0.4,3.5-2.7,3-5.1c-0.4-2.5-2.5-4.2-4.6-3.8c-2.1,0.4-3.5,2.7-3,5.1
					C267.3,216.6,269.4,218.3,271.5,217.9z"/>
			</g>
			<path class="st23" d="M250.4,307.6c0.2,0.8,2.7,7.1,2.7,7.1l4.6-1c3.2-0.7,5-4.5,4.1-8.5c-0.9-4-4.1-6.7-7.3-6.1l-4.6,1
				C249.9,300,250.1,306.3,250.4,307.6z"/>
			<g class="st17">
				<path class="st18" d="M250.4,307.6c0.2,0.8,2.7,7.1,2.7,7.1l4.6-1c3.2-0.7,5-4.5,4.1-8.5c-0.9-4-4.1-6.7-7.3-6.1l-4.6,1
					C249.9,300,250.1,306.3,250.4,307.6z"/>
			</g>
			<path class="st10" d="M253.1,315.8c-0.2,0-0.5-0.1-0.6-0.2c-0.2-0.1-0.3-0.3-0.4-0.5c-0.6-1.5-2.6-6.4-2.8-7.2
				c-0.3-1.4-0.5-7.1-0.5-7.8c0-0.3,0.1-0.5,0.2-0.8s0.4-0.4,0.7-0.4l4.6-1c3.8-0.8,7.7,2.3,8.7,6.9c0.5,2.2,0.2,4.4-0.6,6.3
				c-0.9,1.9-2.5,3.2-4.4,3.6l-4.6,1C253.2,315.8,253.1,315.8,253.1,315.8z M251.5,307.3c0.1,0.4,1.2,3.2,2.3,6l3.6-0.8
				c1.2-0.3,2.2-1.1,2.8-2.4c0.7-1.4,0.8-3.1,0.5-4.8c-0.7-3.4-3.4-5.7-5.9-5.2l-3.6,0.8C251.2,303.3,251.3,306.6,251.5,307.3z"/>
			<path class="st23" d="M253.1,314.6c3.2-0.7,5-4.5,4.1-8.5c-0.9-4-4.1-6.7-7.3-6.1c-3.2,0.7-5,4.5-4.1,8.5
				C246.6,312.6,249.9,315.3,253.1,314.6z"/>
			<g class="st17">
				<path class="st18" d="M257.2,306.1c0.9,4-1,7.8-4.1,8.5c-3.2,0.7-6.4-2-7.3-6.1c-0.1-0.5-0.2-1.1-0.2-1.6
					c1.4,2.6,3.9,4.1,6.4,3.6c2.7-0.6,4.5-3.5,4.3-6.9C256.7,304.4,257,305.2,257.2,306.1z"/>
			</g>
			<path class="st9" d="M257.2,306.1c0.1,0.3,0.1,0.5,0.1,0.8c-1.3-3-4.1-4.9-6.7-4.3c-2.9,0.6-4.7,4-4.3,7.7
				c-0.2-0.6-0.4-1.2-0.6-1.8c-0.9-4,1-7.9,4.1-8.5C253.1,299.3,256.3,302.1,257.2,306.1z"/>
			<path class="st10" d="M252,315.9c-1.5,0-2.9-0.6-4.2-1.6c-1.6-1.3-2.7-3.2-3.2-5.4c-1-4.7,1.2-9.1,5-9.9c3.8-0.8,7.7,2.3,8.7,6.9
				c0.5,2.2,0.2,4.4-0.6,6.3c-0.9,1.9-2.5,3.2-4.4,3.6C252.9,315.9,252.5,315.9,252,315.9z M250.9,301.1c-0.3,0-0.5,0-0.8,0.1
				c-2.5,0.5-4,3.8-3.2,7.1c0.4,1.7,1.2,3.2,2.4,4.1c1.1,0.9,2.3,1.3,3.5,1c1.2-0.3,2.2-1.1,2.8-2.4c0.7-1.4,0.8-3.1,0.5-4.8
				C255.4,303.3,253.2,301.1,250.9,301.1z"/>
			<path class="st10" d="M243.8,331.3c-0.3,0-0.6-0.1-0.9-0.3c-0.3-0.2-0.4-0.5-0.5-0.8l-3.8-13.8c-0.1-0.4-0.3-0.7-0.5-1
				c-0.3-0.3-0.6-0.5-0.9-0.6l-5.4-1.8c-0.6-0.2-1.2-0.6-1.6-1c-0.4-0.5-0.7-1.1-0.9-1.7l-4.9-19.5c-0.1-0.4,0-0.8,0.2-1.1
				c0.2-0.3,0.5-0.6,0.9-0.7c0.4-0.1,0.8,0,1.1,0.2c0.3,0.2,0.6,0.5,0.7,0.9l4.9,19.5c0,0.1,0.1,0.3,0.2,0.4
				c0.1,0.1,0.2,0.2,0.4,0.2l5.4,1.8c0.8,0.3,1.6,0.8,2.2,1.4c0.6,0.6,1,1.4,1.2,2.2l3.8,13.8c0.1,0.2,0.1,0.5,0,0.7
				c0,0.2-0.1,0.4-0.3,0.6c-0.1,0.2-0.3,0.3-0.5,0.4C244.2,331.3,244,331.3,243.8,331.3L243.8,331.3z"/>
		</g>
	</g>
</g>
<path class="st1" d="M534.5,92.9c1-0.3,1.7-1.4,1.4-2.4c-0.3-1-1.4-1.7-2.4-1.4c-1,0.3-1.7,1.4-1.4,2.4
	C532.4,92.6,533.5,93.2,534.5,92.9z"/>
<path class="st24" d="M65.7,298.3L65.7,298.3c1.9-0.4,3.4-0.9,4.3-1.3c0.3-0.2,0.5-0.3,0.7-0.4c-0.2-0.1-0.4-0.2-0.7-0.4
	c-1-0.4-2.5-0.7-4.4-0.9l0,0c-1.3-0.1-2.5-0.7-3.5-1.6c-1-0.9-1.6-2-1.9-3.3l0,0c-0.4-1.9-0.9-3.4-1.3-4.3c-0.2-0.3-0.3-0.5-0.4-0.7
	c-0.1,0.2-0.2,0.4-0.4,0.7c-0.4,1-0.7,2.5-1,4.4c-0.1,1.3-0.7,2.5-1.6,3.5c-0.9,1-2,1.6-3.3,1.9l0,0c-1.9,0.4-3.4,0.9-4.3,1.3
	c-0.3,0.2-0.5,0.3-0.7,0.4c0.2,0.1,0.4,0.2,0.7,0.4c1,0.4,2.5,0.7,4.4,1L65.7,298.3z M65.7,298.3c-1.3,0.3-2.4,0.9-3.3,1.9
	c-0.9,1-1.4,2.2-1.6,3.5c-0.2,1.9-0.6,3.4-1,4.4c-0.1,0.3-0.3,0.6-0.4,0.7c-0.1-0.2-0.3-0.4-0.4-0.7c-0.5-1-1-2.4-1.3-4.3l0,0
	 M65.7,298.3l-8,5.5 M57.8,303.7c-0.3-1.3-0.9-2.4-1.9-3.3 M57.8,303.7l-1.9-3.3 M55.9,300.4c-1-0.9-2.2-1.4-3.5-1.6L55.9,300.4z
	 M47,297.3C47,297.3,47,297.3,47,297.3C47,297.3,47,297.3,47,297.3z M47,297.8C47,297.8,47,297.8,47,297.8
	C47,297.8,47,297.8,47,297.8z M58.7,285C58.7,285,58.7,285,58.7,285C58.7,285,58.7,285,58.7,285z M58.3,285
	C58.2,285,58.2,285,58.3,285C58.2,285,58.2,285,58.3,285z M71,296.7C71,296.7,71,296.7,71,296.7C71,296.7,71,296.7,71,296.7z
	 M71,296.2C71,296.2,71,296.2,71,296.2C71,296.2,71,296.2,71,296.2z M59.3,309C59.3,309,59.3,309,59.3,309
	C59.3,309,59.3,309,59.3,309z M59.8,309C59.8,309,59.8,309,59.8,309C59.8,309,59.8,309,59.8,309z"/>
</svg>
