<?xml version="1.0" encoding="utf-8"?>
<!-- Generator: Adobe Illustrator 25.1.0, SVG Export Plug-In . SVG Version: 6.00 Build 0)  -->

<svg version="1.1" id="Camada_1" data-name="Camada 1" xmlns="http://www.w3.org/2000/svg" xmlns:xlink="http://www.w3.org/1999/xlink" viewBox="0 0 563.24 305.79" style="enable-background:new 0 0 563.24 305.79;" xml:space="preserve">
  <defs>
    <style>
      .cls-1, .cls-18 {
        fill: none;
      }

      .cls-2 {
        clip-path: url(#clip-path);
      }

      .cls-11, .cls-15, .cls-3 {
        fill: #fff;
      }

      .cls-4, .cls-5 {
        opacity: 0.35;
      }

      .cls-5, .cls-6, .cls-8 {
        fill: #371a45;
      }

      .cls-11, .cls-15, .cls-19, .cls-5, .cls-8 {
        isolation: isolate;
      }

      .cls-7, .cls-8 {
        opacity: 0.3;
      }

      .cls-9 {
        fill: #22a7f0;
      }

      .cls-10, .cls-11 {
        opacity: 0.8;
      }

      .cls-12 {
        fill: #293856;
      }

      .cls-13 {
        fill: #21102b;
      }

      .cls-14, .cls-15 {
        opacity: 0.5;
      }

      .cls-16 {
        fill: #8dd7ff;
      }

      .cls-17 {
        fill: #ffd527;
      }

      .cls-17, .cls-19 {
        fill-rule: evenodd;
      }

      .cls-18 {
        stroke: #371a45;
        stroke-linecap: round;
        stroke-linejoin: round;
        stroke-width: 4px;
      }

      .cls-19 {
        opacity: 0.2;
        fill: url(#Gradiente_sem_nome_2);
      }
    </style>
    <clipPath id="clip-path" transform="translate(-1.51 -1.06)">
      <rect class="cls-1" x="131.21" y="100.59" width="243.58" height="180.4" transform="translate(-23.69 345.25) rotate(-66.19)"/>
    </clipPath>
    <linearGradient id="Gradiente_sem_nome_2" data-name="Gradiente sem nome 2" x1="201.86" y1="20.57" x2="358.99" y2="330.99" gradientTransform="matrix(1, 0, 0, -1, 0, 306)" gradientUnits="userSpaceOnUse">
      <stop offset="0" stop-color="#d7eefd"/>
      <stop offset="1" stop-color="#d7eefd" stop-opacity="0"/>
    </linearGradient>
  </defs>
  <g class="cls-2">
    <g>
      <path class="cls-3" d="M223.76,247.83c.05,6.27-4.46,9.53-14.47,9.25s-13,4.47-13.54,5.36c-1.72,3-13.14,31,3,35.65,11.4,3.27,19.61-15.14,19.61-15.14s27.69,12.45,55.74-31.31" transform="translate(-1.51 -1.06)"/>
      <g class="cls-4">
        <path class="cls-5" d="M198.78,298.09c11.4,3.27,19.61-15.14,19.61-15.14s27.68,12.45,55.74-31.31l-32.95-2.49c-7.71,22.5-25.68,24.73-25.68,24.73s-2.61,21.46-19.25,19.14c-4.47-.63-4.68-6-6-7.62C190.49,291.23,192.66,296.33,198.78,298.09Z" transform="translate(-1.51 -1.06)"/>
      </g>
      <path class="cls-6" d="M232.32,276.39a22,22,0,0,0,4.68,1.49c12.4,2.49,22.7-6.37,23.13-6.74a1.34,1.34,0,0,0,.46-.92,1.38,1.38,0,0,0-.33-1,1.33,1.33,0,0,0-.92-.45,1.3,1.3,0,0,0-1,.33c-.09.08-9.77,8.36-20.86,6.12-8-1.61-14.81-8.16-20.37-19.47a1.32,1.32,0,0,0-.77-.66,1.34,1.34,0,0,0-1.63,1.84C219.6,266.87,225.5,273.39,232.32,276.39Z" transform="translate(-1.51 -1.06)"/>
      <path class="cls-6" d="M196.46,299a15.41,15.41,0,0,0,1.87.67c10.79,3.1,18.62-10.25,20.88-14.68a33,33,0,0,0,16.89.32c9.81-2.22,24.61-9.7,39.4-32.76a1.61,1.61,0,0,0,.19-1.21,1.63,1.63,0,0,0-.7-1,1.63,1.63,0,0,0-2.22.46c-14.2,22.14-28.17,29.27-37.39,31.35-9.78,2.21-16.25-.61-16.33-.65l-1.48-.66-.67,1.48c-.07.17-7.77,17.09-17.68,14.24A9,9,0,0,1,193,291c-3.81-9.34,3.11-25.85,4.19-27.73.45-.8,3.17-4.78,12.09-4.54,6.35.17,10.72-1,13.37-3.6a9.68,9.68,0,0,0,2.76-7.29,1.65,1.65,0,0,0-.49-1.12,1.63,1.63,0,0,0-1.14-.45,1.62,1.62,0,0,0-1.61,1.59,6.5,6.5,0,0,1-1.78,4.95c-2,1.93-5.67,2.83-11,2.68-10.49-.28-14.13,4.66-15,6.18-1.22,2.15-8.72,19.9-4.37,30.56A12.14,12.14,0,0,0,196.46,299Z" transform="translate(-1.51 -1.06)"/>
      <path class="cls-3" d="M257.43,178.52c-1,0-24-6.39-38.17-3.77-11.85,2.19-27.67,46.13-21.9,56,5.35,9.14,27.41,14.53,27.41,14.53Z" transform="translate(-1.51 -1.06)"/>
      <path class="cls-3" d="M257.43,178.52l-5.31,10.85-27.36,55.9s-10.69-2.61-19-7.29c-3.62-2-6.78-4.47-8.41-7.25-5.77-9.86,10-53.8,21.9-56C233.47,172.13,256.39,178.52,257.43,178.52Z" transform="translate(-1.51 -1.06)"/>
      <g class="cls-4">
        <path class="cls-5" d="M252.12,189.37l-27.36,55.9h0l-.46-.12-.17,0h0l-.17,0-.49-.13-.13,0-.13,0-.16,0c-.58-.16-1.28-.37-2.07-.61l-.29-.09-.93-.29-.33-.1-.38-.13-.49-.16-.14,0-.36-.12-1-.36h0l-.75-.27h0l-.55-.2-.35-.12-1.34-.51-.88-.36-.81-.33-.82-.34-.81-.36-.82-.37-.82-.39-.81-.39-.8-.41-.13-.06-.67-.36-.78-.43c-3.62-2-6.78-4.47-8.41-7.25-3-5.14-.14-19.57,5-32.5-1.89,8-2.35,15-.44,18.24a14,14,0,0,0,2.71,3.25,20.39,20.39,0,0,0,4.17,3c5.58-15.64,17.6-34.79,25.69-35.35a58.48,58.48,0,0,1,15.46,1.53Z" transform="translate(-1.51 -1.06)"/>
      </g>
      <path class="cls-6" d="M210.21,242a95.35,95.35,0,0,0,14.17,4.86l1.26.3L260,176.91h-2.51l-1.92-.43c-6.69-1.52-24.46-5.57-36.64-3.32-6.73,1.24-12.87,12.64-15.94,19.32-6.45,14.1-10.86,32.57-7.06,39.08C198.52,235.93,204.44,239.44,210.21,242Zm13.68,1.37c-4.66-1.28-20.9-6.2-25.13-13.44-2.84-4.85.47-21.37,7.21-36.09,4.62-10.1,9.83-16.8,13.58-17.49,11.52-2.12,29.44,2,35.33,3.3l.18,0Zm33.57-66.46h0Z" transform="translate(-1.51 -1.06)"/>
      <path class="cls-6" d="M216.66,176.52c1.22.84,2.44,1.73,3.65,2.62s2.4,1.81,3.57,2.75,2.32,1.89,3.43,2.89a36.86,36.86,0,0,1,3.14,3.11h0a.92.92,0,0,0,1.3.12.91.91,0,0,0,.33-.63.87.87,0,0,0-.21-.67,38,38,0,0,0-3.12-3.47c-1.09-1.1-2.22-2.14-3.36-3.16s-2.3-2-3.47-3-2.36-1.94-3.58-2.89a1.42,1.42,0,0,0-1-.28,1.43,1.43,0,0,0-.71,2.54l.06,0Z" transform="translate(-1.51 -1.06)"/>
      <path class="cls-3" d="M201.21,199.92l11.37,6.16a2.54,2.54,0,0,1,1.11,1.2,2.47,2.47,0,0,1,.14,1.63c-1,4.11-3.84,13.46-8.85,14.73-4.15,1.05-9-1.46-10.8-5.24-2-4.22,1.54-13,3.52-17.31a2.39,2.39,0,0,1,.61-.83,2.58,2.58,0,0,1,.89-.52,2.53,2.53,0,0,1,1-.12A2.48,2.48,0,0,1,201.21,199.92Z" transform="translate(-1.51 -1.06)"/>
      <g class="cls-4">
        <path class="cls-5" d="M213.83,208.91c-1,4.1-3.84,13.46-8.84,14.72-4.16,1.06-9-1.46-10.81-5.23-1.25-2.6-.38-6.94.94-10.89a10.86,10.86,0,0,0,.41,5.51c3.35,8.41,10.82,3.6,10.82,3.6s0,2,.6,2.36c2.38,1.54,5.45-6.71,6.93-11A2.34,2.34,0,0,1,213.83,208.91Z" transform="translate(-1.51 -1.06)"/>
      </g>
      <path class="cls-6" d="M198.45,224.5a10.73,10.73,0,0,0,6.93.7c5.66-1.43,8.71-10.58,10-15.9a4.13,4.13,0,0,0-2.06-4.65L202,198.49a4.15,4.15,0,0,0-4.74.55,4.1,4.1,0,0,0-1,1.36c-2.79,6-5.67,14.19-3.51,18.69A11.44,11.44,0,0,0,198.45,224.5Zm2-23.16,11.38,6.15a.9.9,0,0,1,.4.44,1,1,0,0,1,.06.58c-1.48,6-4.28,12.69-7.68,13.55a8.31,8.31,0,0,1-9-4.37c-1.23-2.55.09-8.51,3.53-15.93a.84.84,0,0,1,.22-.3.8.8,0,0,1,.32-.19.94.94,0,0,1,.37,0,.89.89,0,0,1,.36.11Z" transform="translate(-1.51 -1.06)"/>
      <path class="cls-6" d="M198.46,224.1a4.83,4.83,0,0,0,.76-.13l.64-.19a10.06,10.06,0,0,0,1.18-.48,11,11,0,0,0,2.1-1.33,13.78,13.78,0,0,0,3.16-3.56,24.44,24.44,0,0,0,2-4.13c.27-.7.52-1.42.73-2.15a10.68,10.68,0,0,0,.45-2.29.38.38,0,0,0-.1-.29.4.4,0,0,0-.27-.14.38.38,0,0,0-.29.07.39.39,0,0,0-.18.25v.05a11,11,0,0,1-.65,2c-.26.65-.59,1.31-.92,1.95a22.24,22.24,0,0,1-2.26,3.61,11.64,11.64,0,0,1-3,2.72,8.28,8.28,0,0,1-1.75.84,6,6,0,0,1-.9.25,3.39,3.39,0,0,1-.44.08l-.34,0a1.58,1.58,0,0,0-.65,0,1.36,1.36,0,0,0-.6.24,1.41,1.41,0,0,0-.44.47,1.51,1.51,0,0,0-.2.61,1.6,1.6,0,0,0,.08.65,1.62,1.62,0,0,0,.35.54,1.57,1.57,0,0,0,.55.35,1.53,1.53,0,0,0,.64.08Z" transform="translate(-1.51 -1.06)"/>
      <path class="cls-3" d="M287.52,208.22a66.34,66.34,0,0,0,12.55-2A85.67,85.67,0,0,0,356.12,162c2-3.9,14.55-7.47,10-14.09a5.42,5.42,0,0,0-4.11-2s3.61-2.24,2-6.12c-2.5-6.14-13.63-1.44-13.63-1.44s3.19-4.74,3.4-8.73a5.32,5.32,0,0,0-3.94-5.26c-5-1-13.57,7.78-18.81,12.79-4.95,4.71-7.71,10.2-10.57,15.83-4.46,8.78-9.15,17.93-22.7,25.08a82.1,82.1,0,0,1-16.92,6.43l4.48,16Z" transform="translate(-1.51 -1.06)"/>
      <g class="cls-4">
        <path class="cls-5" d="M287.52,208.22a66.34,66.34,0,0,0,12.55-2A85.67,85.67,0,0,0,356.12,162c1.73-3.29,10.94-6.36,11-11.23-1.42-2.06-9.12,5.8-11.35,6.86-4.33,2.05-5.79-.55-6.19-1.73-1.5-4.48,15.17-9.79,14.7-13.85-.6-5.19-4.54,4.79-17.39,7.23-4.06.78-5.93-4.09-6-3.71-2.86,11.21,6.28,17,2.81,24.6-10.39,22.72-31.85,23.09-44.62,26.25a66.34,66.34,0,0,1-12.55,2l-2.16-7.72-1.88-6.69c-.52.16-1,.3-1.58.45l4.48,16Z" transform="translate(-1.51 -1.06)"/>
      </g>
      <path class="cls-6" d="M286.87,209.7a1.54,1.54,0,0,0,.7.14c.48,0,11.72-.42,26-6.41a87.44,87.44,0,0,0,43.94-40.65c.5-.95,2.31-2.18,4.05-3.37,3-2,6.42-4.36,7-7.63a6.23,6.23,0,0,0-1.18-4.75,5.8,5.8,0,0,0-2.38-2,6.46,6.46,0,0,0-3-9.35c-2.55-1.06-5.76-.7-8.26-.11a16.87,16.87,0,0,0,1.64-5.87,7,7,0,0,0-5.22-6.94c-5-1-11.47,4.74-18.77,11.78L329.94,136c-5.1,4.87-8,10.6-10.82,16.14-5.88,11.58-12,23.56-38.67,30.81a1.65,1.65,0,0,0-1,.75,1.58,1.58,0,0,0-.21.61,1.73,1.73,0,0,0,0,.64,1.71,1.71,0,0,0,.29.57,1.59,1.59,0,0,0,1.1.61,1.38,1.38,0,0,0,.64-.06c28.11-7.62,34.81-20.82,40.71-32.47,2.82-5.54,5.47-10.77,10.17-15.25l1.5-1.45c4.54-4.37,12.13-11.69,15.89-10.93a3.74,3.74,0,0,1,2.63,3.6c-.15,2.9-2.31,6.69-3.12,7.9a1.65,1.65,0,0,0,.09,1.94,1.72,1.72,0,0,0,.87.54,1.67,1.67,0,0,0,1-.08c1.74-.73,6.88-2.37,9.76-1.17a3.14,3.14,0,0,1,1.05.67,3,3,0,0,1,.68,1,3.38,3.38,0,0,1-1.39,4.14,1.69,1.69,0,0,0-.64.8,1.62,1.62,0,0,0,0,1,1.65,1.65,0,0,0,.58.84,1.59,1.59,0,0,0,1,.33,3.81,3.81,0,0,1,2.78,1.32,3,3,0,0,1,.66,2.32c-.36,1.94-3.18,3.86-5.67,5.55-2.17,1.48-4.22,2.87-5.1,4.54a84.24,84.24,0,0,1-42.32,39.17,78.41,78.41,0,0,1-24.88,6.16,1.59,1.59,0,0,0-1,.38,1.64,1.64,0,0,0-.39,2,1.67,1.67,0,0,0,.78.73Z" transform="translate(-1.51 -1.06)"/>
      <path class="cls-3" d="M158.72,260.51c8.63,7.25,17.37-4.64,17.37-4.64s11.73,20.78,29.26,22.54c14.74,1.46,30.62-10.75,30.62-10.75s62.4,6.43,64.1-61.45a130.2,130.2,0,0,0-.54-15Q299,185,297.8,178.08q-.62-3.6-1.41-7.4l-50.16,3.92-5.78.46-1.44.11-.09,1a49.67,49.67,0,0,1-8.84,23.24c-5.39,8-11.7,13.81-14.52,18.43a45.84,45.84,0,0,0-3.52,7,35.8,35.8,0,0,0-1.95,6.15c-1.88,2.08-7.92,8.22-14.24,5.47-2.19-1-3.9-2.92-5.48-5.11-2.8-3.87-5.2-8.43-9.21-9.36-5.8-1.35-11.66,1.76-16.19,6.43a32.77,32.77,0,0,0-6.57,9.89C155.91,244.24,152.41,255.22,158.72,260.51Z" transform="translate(-1.51 -1.06)"/>
      <g class="cls-4">
        <path class="cls-5" d="M157.19,258.88a9.08,9.08,0,0,0,1.53,1.63c8.63,7.25,17.37-4.64,17.37-4.64s11.73,20.78,29.26,22.54c14.74,1.46,30.62-10.75,30.62-10.75s60.72,6.26,64-58.75c-6.56,46.29-45.55,50.36-58.79,50.39a15.1,15.1,0,0,0-8.06,2.33c-5.55,3.49-16.54,9.29-27,8.25-17.53-1.76-25.34-22.72-32.88-23.32C171.52,246.42,171.25,265.19,157.19,258.88Z" transform="translate(-1.51 -1.06)"/>
      </g>
      <path class="cls-6" d="M160.61,263.61a10,10,0,0,0,5.29.79c4.37-.53,8-3.71,10-5.79,2.78,4.29,10.21,14.44,20.79,19.11a28,28,0,0,0,8.52,2.3c13.87,1.38,28.33-8.56,31.25-10.69,4.65.34,31.94,1.45,49.92-18.46,15.3-17,19.21-44,11.62-80.51a1.62,1.62,0,0,0-2.94-.56,1.69,1.69,0,0,0-.23,1.22c7.36,35.38,3.72,61.51-10.84,77.65-18.16,20.15-47.54,17.41-47.84,17.38l-.63-.06-.52.39c-.15.12-15.56,11.81-29.46,10.42a24.43,24.43,0,0,1-7.46-2c-12.37-5.46-20.46-19.53-20.56-19.7l-1.23-2.18-1.48,2c0,.05-4.26,5.68-9.28,6.28a7.31,7.31,0,0,1-5.75-1.92c-5.4-4.53-2.23-14.69.13-20.34,3.72-8.86,12.77-17.26,20.9-15.37,2.7.63,4.69,3.54,6.8,6.63s4.3,6.28,7.58,7.73h0c4.93,2.15,10.79,0,16.09-5.87l.3-.33.08-.45a42.27,42.27,0,0,1,5.26-12.6,63.44,63.44,0,0,1,5.68-7.21c7-8.2,16.71-19.44,18-36.17a1.74,1.74,0,0,0-.06-.64,1.82,1.82,0,0,0-.31-.56,1.61,1.61,0,0,0-.5-.4,1.65,1.65,0,0,0-.61-.18,1.71,1.71,0,0,0-.64.08,1.74,1.74,0,0,0-.56.32,1.65,1.65,0,0,0-.39.51,1.62,1.62,0,0,0-.16.62c-1.21,15.67-10.47,26.45-17.23,34.31a65.1,65.1,0,0,0-6,7.63,46,46,0,0,0-5.58,13.22C206,233,201.21,237,196.5,235h0c-2.43-1.07-4.35-3.88-6.21-6.59-2.37-3.46-4.82-7-8.74-8-9.91-2.3-20.31,7-24.62,17.28-4.75,11.34-4.48,19.66.77,24.07A12.07,12.07,0,0,0,160.61,263.61Z" transform="translate(-1.51 -1.06)"/>
      <path class="cls-3" d="M329.6,141.23c2.91-6.87,11.07-9.78,12.78-9.75,1.3,0,5,3.55,2.31,6.51s-5.23,3.33-5,4.54,3.07,5.2.44,10" transform="translate(-1.51 -1.06)"/>
      <path class="cls-6" d="M329.85,141.33a28.54,28.54,0,0,1,7.72-6.2c.71-.39,1.43-.76,2.16-1.09a13.69,13.69,0,0,1,2.16-.8l.39-.08h0c-.09,0-.05,0,0,0a2.47,2.47,0,0,1,.62.41,3.62,3.62,0,0,1,1,1.48c.32,1.07,0,1.52-1.41,2.74a17.55,17.55,0,0,1-1.93,1.4c-.36.23-.72.46-1.18.79-.12.1-.22.16-.37.3a4.57,4.57,0,0,0-.43.45,3,3,0,0,0-.44.75,2.42,2.42,0,0,0-.16,1.1,2.72,2.72,0,0,0,.16.74c.06.19.11.28.16.42l.29.64c.18.39.35.74.5,1.11a13.79,13.79,0,0,1,.69,2.15,12.39,12.39,0,0,1,.3,2.26,21.2,21.2,0,0,1-.13,2.56v0a.32.32,0,0,0,0,.16.25.25,0,0,0,.12.11.25.25,0,0,0,.17,0,.3.3,0,0,0,.15-.07,6.23,6.23,0,0,0,.52-.51l.25-.27.21-.3a5.11,5.11,0,0,0,.41-.62c.12-.22.22-.44.33-.67a7.89,7.89,0,0,0,.59-3,10,10,0,0,0-.49-3c-.15-.47-.3-.94-.47-1.35l-.23-.58a1.89,1.89,0,0,1-.06-.21l0,.11a1,1,0,0,1-.17.64h0l.05,0s.1-.07.14-.12l1-.67a18.92,18.92,0,0,0,2.28-1.79c.36-.34.7-.7,1-1.07q.29-.33.54-.69a3.78,3.78,0,0,0,.47-.83,4.76,4.76,0,0,0,.46-1.93,6.24,6.24,0,0,0-.08-1A6.38,6.38,0,0,0,347,134a5,5,0,0,0-.37-.82,6.36,6.36,0,0,0-.45-.74,7.44,7.44,0,0,0-1.11-1.27,7.23,7.23,0,0,0-.69-.55,3.42,3.42,0,0,0-.4-.26,3.58,3.58,0,0,0-.48-.24,3,3,0,0,0-.66-.2,2.71,2.71,0,0,0-.41,0h-.27a5.64,5.64,0,0,0-.92.11,15.78,15.78,0,0,0-2.84.87c-.44.19-.88.37-1.3.6s-.85.45-1.25.7a15.42,15.42,0,0,0-4.27,3.78,10.42,10.42,0,0,0-2.18,5.22.33.33,0,0,0,0,.17.28.28,0,0,0,.13.11.26.26,0,0,0,.17,0,.28.28,0,0,0,.15-.08Z" transform="translate(-1.51 -1.06)"/>
      <path class="cls-3" d="M301.36,215.62l-13.75,26.32L270,246.72l-9.3,2.53s-7.76-1.56-9.64-2c-2.55-.54-2.07-3.6-1.23-5.4a57,57,0,0,0,3.26-8.89c1.28-4.57,1.91-8.72,2.57-12.15a6.25,6.25,0,0,1,5.77-5.08c17.05-1,33.52-3.92,33.52-3.92Z" transform="translate(-1.51 -1.06)"/>
      <path class="cls-6" d="M249.88,248.57a3.84,3.84,0,0,0,.87.28c1.86.4,9.34,1.9,9.66,2a1.68,1.68,0,0,0,.74,0L288,243.49a1.63,1.63,0,0,0,.59-.29,1.68,1.68,0,0,0,.41-.51l13.76-26.33a1.64,1.64,0,0,0,.12-1.19,1.59,1.59,0,0,0-.73-.94l-6.39-3.77a1.66,1.66,0,0,0-1.09-.2c-.17,0-16.58,2.87-33.35,3.89a7.9,7.9,0,0,0-7.24,6.39c-.15.75-.29,1.54-.44,2.36-.94,5.15-2.11,11.54-5.27,18.3-.74,1.58-1.22,3.88-.36,5.61A3.71,3.71,0,0,0,249.88,248.57Zm10.79-1c-1.57-.31-7.64-1.54-9.25-1.88-.39-.09-.47-.24-.51-.33a3.93,3.93,0,0,1,.39-2.82c3.34-7.13,4.55-13.76,5.52-19.08.15-.81.29-1.59.44-2.34a4.66,4.66,0,0,1,4.28-3.78c15.15-.93,30-3.33,33.12-3.84l4.57,2.7-12.72,24.35Z" transform="translate(-1.51 -1.06)"/>
      <g class="cls-7">
        <path class="cls-8" d="M270,246.72l-9.3,2.53s-7.76-1.56-9.64-2-2.13-2.3-1.73-4a7.22,7.22,0,0,1,.5-1.44,57,57,0,0,0,3.26-8.89c.59,1.13,1.5-.3,4.34-1.74,3.36-1.71,4.56-5,6.51-6.06C269.66,222.1,270.4,239.71,270,246.72Z" transform="translate(-1.51 -1.06)"/>
      </g>
      <path class="cls-3" d="M292.72,232.7c-.44,2.37-.73,5.35-.73,5.35s-4.89-.45-5.28-.52c-1.28-.24-1.81-3.19-1.17-6.59s2.2-5.95,3.49-5.71c1,.18,4.87.49,4.87.49S292.89,231.79,292.72,232.7Z" transform="translate(-1.51 -1.06)"/>
      <path class="cls-3" d="M289.75,231.31c.64-3.4,2.55-5.89,4.26-5.56s2.59,3.33,1.95,6.73-2.55,5.88-4.26,5.56S289.11,234.7,289.75,231.31Z" transform="translate(-1.51 -1.06)"/>
      <path class="cls-3" d="M301.15,217c-.89,2.49-2.28,6.46-3.87,10.57-2.27,5.87-4.94,12-7.07,14.54-3.71,4.38-19.33,6.8-29.49,7.17a3.49,3.49,0,0,1-3.53-4.83c1.78-4,3.23-7.89,4.37-11.29,1.08-3.21,1.88-6,2.4-7.93a4.16,4.16,0,0,1,4-3.08c16.12-.29,27-4.42,31.63-6.62a1.14,1.14,0,0,1,.68-.09,1.15,1.15,0,0,1,.62.29,1.17,1.17,0,0,1,.31,1.27Z" transform="translate(-1.51 -1.06)"/>
      <g class="cls-7">
        <path class="cls-8" d="M294.29,234.76a43.35,43.35,0,0,1-3.35,6.34,10,10,0,0,1-.73,1c-3.71,4.37-19.33,6.8-29.49,7.16a3.49,3.49,0,0,1-3.54-4.82c1.79-4,3.24-7.9,4.38-11.29,1,2.73,4.27,8.42,14.59,8.85a15.36,15.36,0,0,0,7.83-2,10.1,10.1,0,0,1-.27-5.78c.64-3.39,2.21-5.95,3.49-5.71.79.15,3.66.4,4.59.47a1.49,1.49,0,0,1,.42,0c.91.16,1.58,1.1,1.92,2.44A9.7,9.7,0,0,1,294.29,234.76Z" transform="translate(-1.51 -1.06)"/>
      </g>
      <g class="cls-7">
        <path class="cls-8" d="M294.29,234.76a9.69,9.69,0,0,0-.16-3.37c1.14-1.3,2.2-2.61,3.15-3.86C296.33,230,295.31,232.49,294.29,234.76Z" transform="translate(-1.51 -1.06)"/>
      </g>
      <path class="cls-6" d="M258.33,250.39a5.57,5.57,0,0,0,2.45.46c6.91-.24,25.89-2.11,30.65-7.73,3.7-4.36,8.64-18.31,11-25l.21-.61a2.77,2.77,0,0,0,.08-1.61,2.73,2.73,0,0,0-.83-1.39,2.8,2.8,0,0,0-1.46-.69,2.77,2.77,0,0,0-1.6.24c-4.87,2.29-15.36,6.18-31,6.46a5.8,5.8,0,0,0-5.47,4.27,132,132,0,0,1-6.7,19,4.84,4.84,0,0,0,.39,4.76A5.24,5.24,0,0,0,258.33,250.39Zm41-33c-2.19,6.19-7.07,19.84-10.32,23.67-3,3.56-17.05,6.2-28.32,6.6a2.15,2.15,0,0,1-1.89-.9,1.69,1.69,0,0,1-.29-.82,1.63,1.63,0,0,1,.17-.84,137,137,0,0,0,6.86-19.47,2.57,2.57,0,0,1,2.43-1.89C283.23,223.44,293.86,219.8,299.3,217.37Z" transform="translate(-1.51 -1.06)"/>
      <path class="cls-9" d="M292.72,232.7c-.44,2.37-.73,5.35-.73,5.35s-4.89-.45-5.28-.52c-1.28-.24-1.81-3.19-1.17-6.59s2.2-5.95,3.49-5.71c1,.18,4.87.49,4.87.49S292.89,231.79,292.72,232.7Z" transform="translate(-1.51 -1.06)"/>
      <g class="cls-10">
        <path class="cls-11" d="M293.9,225.73s-1,6.06-1.18,7c-.44,2.37-.73,5.34-.73,5.34l-.26,0c.12-1,.29-2.15.49-3.2s1.18-7,1.18-7-3.93-.31-4.88-.49-2.28,1.45-3,3.9l.06-.31c.64-3.4,2.2-5.95,3.49-5.71C290,225.41,293.9,225.73,293.9,225.73Z" transform="translate(-1.51 -1.06)"/>
      </g>
      <g class="cls-7">
        <path class="cls-8" d="M292.53,233.83c-.34,2.09-.54,4.22-.54,4.22s-4.89-.45-5.28-.52c-1.28-.24-1.81-3.19-1.17-6.58a14.37,14.37,0,0,1,.92-3.08c-.35,2.91.19,5.28,1.34,5.5C288.1,233.42,291.25,233.72,292.53,233.83Z" transform="translate(-1.51 -1.06)"/>
      </g>
      <path class="cls-6" d="M286.05,238.44a1.88,1.88,0,0,0,.46.14c.4.08,3.89.4,5.38.53a1.06,1.06,0,0,0,.78-.24,1,1,0,0,0,.38-.72s.3-3,.73-5.25c.17-.91,1.14-6.75,1.18-7a1.1,1.1,0,0,0,0-.44,1.23,1.23,0,0,0-.19-.4,1.16,1.16,0,0,0-.34-.28,1,1,0,0,0-.42-.12c-1.08-.09-4-.34-4.76-.48s-1.88,0-3.1,2a13.92,13.92,0,0,0-1.64,4.58C283.88,234,284.14,237.6,286.05,238.44Zm5-1.56c-2-.18-3.88-.36-4.13-.4-.3-.2-.92-2.11-.31-5.34s1.87-4.78,2.28-4.85c.63.12,2.52.29,3.78.41-.3,1.8-.86,5.16-1,5.8C291.38,234,291.16,235.79,291,236.88Z" transform="translate(-1.51 -1.06)"/>
      <path class="cls-9" d="M289.75,231.31c.64-3.4,2.55-5.89,4.26-5.56s2.59,3.33,1.95,6.73-2.55,5.88-4.26,5.56S289.11,234.7,289.75,231.31Z" transform="translate(-1.51 -1.06)"/>
      <g class="cls-10">
        <path class="cls-11" d="M296,232.46c-.05.22-.09.44-.15.65.12-2.64-.73-4.74-2.14-5-1.6-.3-3.38,1.86-4.13,4.92a12.57,12.57,0,0,1,.21-1.73c.64-3.39,2.55-5.89,4.26-5.56S296.62,229.06,296,232.46Z" transform="translate(-1.51 -1.06)"/>
      </g>
      <g class="cls-7">
        <path class="cls-8" d="M295.92,232.75c-.69,3.24-2.54,5.58-4.2,5.27s-2.59-3.33-2-6.73a10,10,0,0,1,1.84-4.31l-.06.28c-.64,3.4.23,6.41,1.95,6.73A2.67,2.67,0,0,0,295.92,232.75Z" transform="translate(-1.51 -1.06)"/>
      </g>
      <path class="cls-6" d="M290.92,238.89a3,3,0,0,0,.6.18c2.37.45,4.74-2.31,5.51-6.41s-.43-7.54-2.8-8-4.74,2.32-5.51,6.42C288,234.83,289,238,290.92,238.89Zm3-12.07c.79.35,1.52,2.49,1,5.44-.59,3.11-2.18,4.87-3,4.71s-1.67-2.38-1.09-5.48,2.18-4.87,3-4.71Z" transform="translate(-1.51 -1.06)"/>
      <path class="cls-6" d="M272,249.12l.06,0a1.14,1.14,0,0,0,.41.07,1.17,1.17,0,0,0,.41-.1,1.15,1.15,0,0,0,.55-.6l4.29-11.62a1.11,1.11,0,0,0,0-.72,1,1,0,0,0-.44-.56L274,233.57l2.85-11.67a1.06,1.06,0,0,0-.13-.8,1,1,0,0,0-.66-.48,1,1,0,0,0-.8.12,1.07,1.07,0,0,0-.49.65l-3,12.42a1.14,1.14,0,0,0,.05.66,1,1,0,0,0,.42.5l3.18,2-4,10.81a1.06,1.06,0,0,0,.58,1.34Z" transform="translate(-1.51 -1.06)"/>
      <path class="cls-6" d="M200.52,278.8a1.33,1.33,0,0,0,1,.05,1.34,1.34,0,0,0,.36-2.36c-13.54-9.74-3.7-38.92-3.6-39.21a1.34,1.34,0,0,0-.07-1,1.34,1.34,0,0,0-1.78-.61,1.37,1.37,0,0,0-.68.76c-.44,1.27-10.57,31.36,4.57,42.26A1.12,1.12,0,0,0,200.52,278.8Z" transform="translate(-1.51 -1.06)"/>
      <path class="cls-6" d="M322.89,191.7a16.42,16.42,0,0,0,8.39,1.23,1.5,1.5,0,0,0,.51-.15,1.34,1.34,0,0,0,.42-.33,1.29,1.29,0,0,0,.25-.46,1.35,1.35,0,0,0,.05-.53,1.27,1.27,0,0,0-.49-.91,1.23,1.23,0,0,0-.48-.25,1.35,1.35,0,0,0-.53,0c-6.71.67-12-2.72-15.59-10.09a40.92,40.92,0,0,1-3.56-11.82,1.36,1.36,0,0,0-1.48-1.15,1.39,1.39,0,0,0-.89.49,1.36,1.36,0,0,0-.29,1C309.23,168.88,311.45,186.65,322.89,191.7Z" transform="translate(-1.51 -1.06)"/>
      <path class="cls-6" d="M350.38,153.6a1.61,1.61,0,0,0,.87.12,1.68,1.68,0,0,0,.81-.35,19.3,19.3,0,0,1,5.13-2.89,22.9,22.9,0,0,0,5.84-3.29,1.62,1.62,0,0,0,.6-1.08,1.67,1.67,0,0,0-.34-1.2,1.64,1.64,0,0,0-2.28-.25,19.71,19.71,0,0,1-5.09,2.84,22.75,22.75,0,0,0-5.91,3.36,1.57,1.57,0,0,0-.48.66,1.61,1.61,0,0,0-.1.81,1.5,1.5,0,0,0,.31.76,1.61,1.61,0,0,0,.64.51Z" transform="translate(-1.51 -1.06)"/>
      <path class="cls-6" d="M344.11,147.2a1.64,1.64,0,0,0,1,.1,1.66,1.66,0,0,0,.87-.52,49.85,49.85,0,0,0,5.86-7.64,1.6,1.6,0,0,0,.13-1.23,1.6,1.6,0,0,0-2-1.1,1.59,1.59,0,0,0-1,.78,48.06,48.06,0,0,1-5.46,7.06,1.57,1.57,0,0,0-.31.55,1.64,1.64,0,0,0-.09.62,1.59,1.59,0,0,0,.17.61,1.48,1.48,0,0,0,.38.51A2.26,2.26,0,0,0,344.11,147.2Z" transform="translate(-1.51 -1.06)"/>
      <path class="cls-3" d="M210.55,227.89c10.25,20.35,45.18,18,46.59,6.4a5.92,5.92,0,0,0-2.94-5.75s-29.06,5.05-39.79-11.92C214.4,216.62,207,220.84,210.55,227.89Z" transform="translate(-1.51 -1.06)"/>
      <g class="cls-7">
        <path class="cls-8" d="M210.55,227.89c10.26,20.35,45.19,18,46.59,6.4a5.48,5.48,0,0,0-.81-3.7c-4.92,12.1-40,10-45.13-9.7a6.31,6.31,0,0,0-.37-.83A7.46,7.46,0,0,0,210.55,227.89Z" transform="translate(-1.51 -1.06)"/>
      </g>
      <path class="cls-6" d="M223.21,241.53a39.75,39.75,0,0,0,22.29,2.67c7.72-1.35,12.68-5,13.25-9.72a7.53,7.53,0,0,0-3.78-7.37,1.64,1.64,0,0,0-1-.17c-.28.05-28.14,4.66-38.15-11.19a1.72,1.72,0,0,0-1-.71,1.6,1.6,0,0,0-1.19.17c-3,1.72-7.87,6.74-4.51,13.41A28.12,28.12,0,0,0,223.21,241.53Zm30.63-11.3a4.2,4.2,0,0,1,1.7,3.86c-.39,3.19-4.45,5.84-10.6,6.91-11.57,2-27.05-2.14-32.95-13.84-2-4.06.36-6.92,2-8.28a26.32,26.32,0,0,0,10.79,8.4C236.4,232.41,250.59,230.72,253.84,230.23Z" transform="translate(-1.51 -1.06)"/>
      <path class="cls-3" d="M154.11,219.25a7.13,7.13,0,0,0,1.94,4.55,16.6,16.6,0,0,0,4,2.59,48.19,48.19,0,0,0,4.88,2,70.45,70.45,0,0,0,9.95,2.8,48.64,48.64,0,0,0,15.45.14A77.27,77.27,0,0,0,212,224.83a61.6,61.6,0,0,0,16.19-10.59l2.5-5.5,3.42-7.52,12.09-26.62,2.75-6c-.15.12-3.36,2.75-8.53,6.5l-1.53,1.1a219.23,219.23,0,0,1-22.59,14.22c-13.57,7.35-29,13.3-41.09,11.44-14.12-2.17-21-4.34-23.73-.23s2.11,8.25,2.11,8.25-2.6,2.6-2.1,5.64A6.06,6.06,0,0,0,154.11,219.25Z" transform="translate(-1.51 -1.06)"/>
      <g class="cls-4">
        <path class="cls-5" d="M171.76,212.7a7.58,7.58,0,0,0,1.07,1.83C172.24,213.42,171.76,212.7,171.76,212.7Z" transform="translate(-1.51 -1.06)"/>
      </g>
      <g class="cls-4">
        <path class="cls-5" d="M160.09,226.39a48.19,48.19,0,0,0,4.88,2,70.45,70.45,0,0,0,9.95,2.8,48.64,48.64,0,0,0,15.45.14A77.27,77.27,0,0,0,212,224.83a61.6,61.6,0,0,0,16.19-10.59,2,2,0,0,0-2.74-2.56c-8.59,4.66-22.78,11.57-30.78,11.21-14.17-.63-19.81-5.59-21.87-8.36,1.71,3.21,4.37,9.73-.65,11.83C170.26,227.17,164,227.31,160.09,226.39Z" transform="translate(-1.51 -1.06)"/>
      </g>
      <path class="cls-6" d="M248.64,168.14a139.53,139.53,0,0,0-12.31,7.75c-4,2.69-8,5.46-12.07,8s-8.3,4.91-12.58,7.08a118,118,0,0,1-13.17,5.76,63.52,63.52,0,0,1-13.76,3.46,36.12,36.12,0,0,1-7,.25c-2.24-.18-4.69-.61-7.06-1s-4.79-.83-7.22-1.2c-1.22-.19-2.45-.35-3.71-.47a23.07,23.07,0,0,0-3.92-.09,11.09,11.09,0,0,0-2.13.39,6.72,6.72,0,0,0-2.13,1,6,6,0,0,0-1.61,1.8,5.61,5.61,0,0,0-.53,1.07,5.4,5.4,0,0,0-.34,1.17c0,.21-.07.41-.09.61v.61a7.87,7.87,0,0,0,.12,1.2,8.48,8.48,0,0,0,.77,2.13,10.21,10.21,0,0,0,1.17,1.79c.22.28.45.54.69.79a9.57,9.57,0,0,0,.79.77l-.11-2.39a6.86,6.86,0,0,0-.56.65c-.17.21-.33.43-.48.65a10.14,10.14,0,0,0-.8,1.4,7.72,7.72,0,0,0-.79,3.33,6.51,6.51,0,0,0,1,3.43,7.64,7.64,0,0,0,1.05,1.35,8.37,8.37,0,0,0,.62.57l.33.27.41.28-.77-1.34a8,8,0,0,0,.08.84c0,.26.09.51.14.77a9.59,9.59,0,0,0,.48,1.49,7.43,7.43,0,0,0,1.86,2.7,20.39,20.39,0,0,0,4.81,3,65.66,65.66,0,0,0,10,3.59,43.69,43.69,0,0,0,10.59,1.77c.44,0,.89.06,1.34.07l1.34,0c.89,0,1.79,0,2.68-.07l2.66-.22.67-.06.65-.09,1.32-.19c1.77-.21,3.5-.61,5.23-1,.87-.18,1.72-.43,2.58-.64s1.71-.43,2.56-.71l2.53-.77c.84-.28,1.67-.59,2.5-.89l1.24-.45,1.23-.51,2.44-1,2.4-1.13c.4-.18.81-.35,1.21-.55l1.18-.61c.79-.41,1.6-.77,2.36-1.23s1.53-.9,2.28-1.37a25.41,25.41,0,0,0,7.71-7.36.56.56,0,0,0,.09-.35.59.59,0,0,0-.15-.33.53.53,0,0,0-.31-.17.57.57,0,0,0-.36.06h0c-3.13,1.65-5.91,3.46-8.8,5.22a83.38,83.38,0,0,1-8.91,4.85l-2.35,1-1.18.49-1.2.43c-.79.29-1.59.59-2.39.86l-2.43.76c-.81.26-1.63.47-2.45.68s-1.64.43-2.47.61c-1.66.32-3.31.71-5,.91l-1.25.18-.62.09-.63.06-2.52.21c-.84.07-1.68,0-2.52.07l-1.25,0c-.42,0-.84,0-1.26-.07a40.36,40.36,0,0,1-9.86-1.65,62.54,62.54,0,0,1-9.52-3.4,17.46,17.46,0,0,1-4-2.44,3.64,3.64,0,0,1-.6-.7,4.19,4.19,0,0,1-.46-.86,5.48,5.48,0,0,1-.31-1c0-.17-.07-.34-.1-.51s0-.37,0-.45l-.05-.82-.72-.52-.16-.11-.19-.16a3.33,3.33,0,0,1-.39-.36,4.88,4.88,0,0,1-.62-.8,3.14,3.14,0,0,1-.52-1.74,4.46,4.46,0,0,1,.47-1.93,6.46,6.46,0,0,1,.55-1c.11-.16.22-.31.34-.46s.25-.31.32-.38l1.22-1.24-1.33-1.14-.51-.51c-.17-.18-.35-.38-.51-.58a7,7,0,0,1-.82-1.26,4.8,4.8,0,0,1-.47-1.28,3.31,3.31,0,0,1-.06-.61v-.3l.06-.29a1.86,1.86,0,0,1,.16-.57,2.66,2.66,0,0,1,.28-.56,2.74,2.74,0,0,1,.79-.9,5,5,0,0,1,2.57-.81,21.25,21.25,0,0,1,3.36.08c1.16.11,2.34.27,3.53.45,2.37.36,4.76.79,7.17,1.19s4.76.82,7.37,1a39.92,39.92,0,0,0,7.58-.27,66.74,66.74,0,0,0,14.46-3.62A153.55,153.55,0,0,0,226,186.7c4.2-2.53,8.35-5.13,12.31-8a62,62,0,0,0,11-9.72.56.56,0,0,0,.13-.35.55.55,0,0,0-.12-.35.52.52,0,0,0-.68-.14Z" transform="translate(-1.51 -1.06)"/>
      <path class="cls-3" d="M324.93,147.57C301.41,228.67,187.65,200,201.77,120,223.88,36.37,341.43,66.08,324.93,147.57Z" transform="translate(-1.51 -1.06)"/>
      <path class="cls-3" d="M324.93,147.57C301.41,228.67,187.65,200,201.77,120,223.88,36.37,341.43,66.08,324.93,147.57Z" transform="translate(-1.51 -1.06)"/>
      <g class="cls-4">
        <path class="cls-5" d="M216.34,190.38a64.35,64.35,0,0,0,13.74,9c1.33.64,2.68,1.25,4.06,1.81,16.22,6.62,35,6.84,51.21-.72a58.16,58.16,0,0,0,14.17-9.33q-.56-6.21-1.73-13.09-.62-3.6-1.4-7.4l-50.16,3.93,2.74-6.05c-.14.12-3.35,2.75-8.52,6.5l-1.45.12c0,.33-.05.65-.08,1A221.81,221.81,0,0,1,216.34,190.38Z" transform="translate(-1.51 -1.06)"/>
      </g>
      <path class="cls-3" d="M324.93,147.57C301.41,228.67,187.65,200,201.77,120,223.88,36.37,341.43,66.08,324.93,147.57Z" transform="translate(-1.51 -1.06)"/>
      <path class="cls-6" d="M237.13,191.35a68.59,68.59,0,0,0,12.16,4.05,63.86,63.86,0,0,0,45.19-5.74c15.12-8.26,26-22.71,31.56-41.77l0-.09c3.91-19.32.64-37.12-9.45-51.47a65.29,65.29,0,0,0-38.83-25.68c-16-3.73-32.27-1.61-45.83,6-15.29,8.53-26.11,23.42-31.3,43l0,.09c-3.36,19,.2,36.48,10.27,50.51A63.85,63.85,0,0,0,237.13,191.35Zm86.68-44c-11.85,40.8-45.7,52.43-74,45.85a65.65,65.65,0,0,1-11.56-3.86c-22.89-10.1-41.53-33.92-35.35-69.09C214,78.37,249.21,66.37,277.26,72.91c28.33,6.61,55,32.7,46.55,74.39Z" transform="translate(-1.51 -1.06)"/>
      <g class="cls-4">
        <path class="cls-5" d="M324.93,147.57c-19.09,70.4-116.3,61-124.25-8.68,9.71,20.7,17.45,19.61,31.81,27.7,44.67,27.18,93-13.93,88.52-59.7A63.13,63.13,0,0,1,324.93,147.57Z" transform="translate(-1.51 -1.06)"/>
      </g>
      <path class="cls-12" d="M237,191.78a68.39,68.39,0,0,0,12.24,4.07,64.33,64.33,0,0,0,45.52-5.77c15.23-8.33,26.22-22.87,31.78-42.05l0-.13c3.94-19.44.65-37.37-9.52-51.83a65.74,65.74,0,0,0-39.11-25.86c-16.1-3.75-32.5-1.62-46.16,6-15.4,8.6-26.3,23.58-31.52,43.32l0,.13c-3.38,19.14.21,36.73,10.35,50.87A64.34,64.34,0,0,0,237,191.78Zm86.41-44.59c-11.78,40.49-45.37,52-73.44,45.51-27.44-6.37-53.7-31.75-46.57-72.4,11-41.51,46-53.43,73.8-46.94C305.27,79.92,331.7,105.82,323.36,147.19Z" transform="translate(-1.51 -1.06)"/>
      <path class="cls-6" d="M237,191.78a68.39,68.39,0,0,0,12.24,4.07,64.33,64.33,0,0,0,45.52-5.77c15.23-8.33,26.22-22.87,31.78-42.05l0-.13c3.94-19.44.65-37.37-9.52-51.83a65.74,65.74,0,0,0-39.11-25.86c-16.1-3.75-32.5-1.62-46.16,6-15.4,8.6-26.3,23.58-31.52,43.32l0,.13c-3.38,19.14.21,36.73,10.35,50.87A64.34,64.34,0,0,0,237,191.78Zm86.41-44.59c-11.78,40.49-45.37,52-73.44,45.51-27.44-6.37-53.7-31.75-46.57-72.4,11-41.51,46-53.43,73.8-46.94C305.27,79.92,331.7,105.82,323.36,147.19Z" transform="translate(-1.51 -1.06)"/>
      <path class="cls-6" d="M319.22,162.7c-49.23,55.43-123.65,1.11-90.79-54.86C269,47.38,351.68,94.64,319.22,162.7Z" transform="translate(-1.51 -1.06)"/>
      <path class="cls-13" d="M322,115.68c20.79,63.7-68.71,98.37-97.28,43.26C265,183.86,314.85,152.05,322,115.68Z" transform="translate(-1.51 -1.06)"/>
      <path class="cls-6" d="M247.29,188.89a61.42,61.42,0,0,0,15.43,4.5,55.22,55.22,0,0,0,38.11-7.66c12.38-7.89,21.26-20.95,25.67-37.75h0c7.08-27.85-7.58-64.83-40.7-75.47l-.27-.06c-16.88-2.4-34.73,2.82-49,14.31s-23.06,27.69-24.29,44.55c-.77,16.36,4.21,31.07,14.4,42.58A59.73,59.73,0,0,0,247.29,188.89Zm76.08-41.72c-9.73,37.05-38.49,46.33-60.16,43-24.9-3.82-49.29-25.2-47.7-58.69,1.16-15.93,9.57-31.34,23.08-42.23S269,73.4,285,75.63C316.24,85.76,330.08,120.77,323.37,147.17Z" transform="translate(-1.51 -1.06)"/>
      <path class="cls-6" d="M250.28,182.84a54.79,54.79,0,0,0,28.26,4.31c15.35-1.72,29.83-9.81,41.89-23.37l.15-.17.1-.21c7.79-16.33,9.59-32.7,5.2-47.32a52.75,52.75,0,0,0-24.47-30.76,51.75,51.75,0,0,0-37.85-5.47c-14.26,3.43-26.88,12.8-36.48,27.09L227,107c-7.66,13-10.11,26.88-7.07,40a51.71,51.71,0,0,0,20.18,30A54.87,54.87,0,0,0,250.28,182.84Zm67.58-21c-25.32,28.36-56.31,26.77-75.81,12.58-17.72-12.88-28.37-38.18-12.25-65.68,20.32-30.21,49.8-32.1,70-20.58S334.1,127.52,317.86,161.8Z" transform="translate(-1.51 -1.06)"/>
      <path class="cls-3" d="M199.38,167.25c12.87,26.84,40.86,16.2,31.15-10.67C218.07,128,188.15,139.33,199.38,167.25Z" transform="translate(-1.51 -1.06)"/>
      <g class="cls-4">
        <path class="cls-5" d="M223.75,182c8.41-3.13,11.39-15.51,6.2-26.84-1.54,14-20.89-2.33-23.62-7.89C186.08,159.69,208.42,188.12,223.75,182Z" transform="translate(-1.51 -1.06)"/>
      </g>
      <path class="cls-6" d="M211.82,182.89a16.22,16.22,0,0,0,12.83.43c7.47-3.13,12.65-12.78,7.4-27.29l0-.09c-6.73-15.48-18.76-20-27.17-16.49-7.58,3.17-13,13.42-7,28.4l0,.1C201.74,175.93,206.78,180.66,211.82,182.89ZM229,157.18c4.49,12.48.41,20.62-5.63,23.15-6.39,2.68-16.17-.48-22.54-13.74-5.18-12.92-.92-21.58,5.24-24.16C213,139.53,223.12,143.67,229,157.18Z" transform="translate(-1.51 -1.06)"/>
      <path class="cls-3" d="M198.76,169.16c10.46,21.74,31.56,14.12,23.71-7.61C212.36,138,189.44,146.35,198.76,169.16Z" transform="translate(-1.51 -1.06)"/>
      <path class="cls-6" d="M209,182.55a12.18,12.18,0,0,0,9.7.38c5.72-2.4,9.58-10.11,5.31-21.93l0-.09c-5.58-13-15.2-17-21.82-14.2-5.88,2.46-9.91,10.73-4.87,23.06l0,.09C200.59,176.71,204.83,180.72,209,182.55Zm12-20.4c3.52,9.79.77,16-3.53,17.8-4.68,2-12.05-.79-17.19-11.45-4.18-10.27-1.3-16.94,3.15-18.8C208.52,147.54,216.21,151.13,221,162.15Z" transform="translate(-1.51 -1.06)"/>
      <g class="cls-14">
        <path class="cls-15" d="M232.27,143.81c6.82,10.52,18.9,3,14.54-7.12C240.59,124.28,226.22,133,232.27,143.81Z" transform="translate(-1.51 -1.06)"/>
      </g>
      <g class="cls-14">
        <path class="cls-15" d="M244.87,159.75c2.83,3.87,8.18.66,5.48-3.83C247.52,152.05,242.17,155.25,244.87,159.75Z" transform="translate(-1.51 -1.06)"/>
      </g>
      <g class="cls-14">
        <path class="cls-15" d="M317.48,124.07c-6-47.52-54.6-39.29-65.92-25.42C282.22,91.68,301.11,106.23,317.48,124.07Z" transform="translate(-1.51 -1.06)"/>
      </g>
      <g class="cls-4">
        <path class="cls-5" d="M225.18,166.38a21.36,21.36,0,0,0-4.1-9.27c.58,16.66-17,14.53-24,4.54C200.59,185.52,227,189.2,225.18,166.38Z" transform="translate(-1.51 -1.06)"/>
      </g>
      <path class="cls-6" d="M220.41,139.65l.08,0c2.38.91,3.76.28,4.5-.41,2-1.85,1-5.68.71-6.81a1.61,1.61,0,0,0-2-1,1.65,1.65,0,0,0-.95.75,1.62,1.62,0,0,0-.15,1.2c.44,1.52.48,3.2.19,3.52a2.6,2.6,0,0,1-1.15-.24,1.61,1.61,0,0,0-2.06.9,1.64,1.64,0,0,0,.83,2.09Z" transform="translate(-1.51 -1.06)"/>
      <path class="cls-3" d="M177.75,202.86c-10.35-1.14-17.95.66-18.47,3.46-.38,2,.75,5.07,5,5.72a23.1,23.1,0,0,0,6.85-.39s3.11,5.83,6.84,7.77" transform="translate(-1.51 -1.06)"/>
      <path class="cls-6" d="M177.93,201.25a54.49,54.49,0,0,0-9-.27,32.19,32.19,0,0,0-4.59.59,17.36,17.36,0,0,0-2.32.64,10.18,10.18,0,0,0-2.35,1.13,5.52,5.52,0,0,0-1.16,1,3.57,3.57,0,0,0-.5.78,4.78,4.78,0,0,0-.19.48c0,.15-.08.31-.11.48a5.93,5.93,0,0,0,.27,3,6.25,6.25,0,0,0,1.57,2.47,7.55,7.55,0,0,0,2.36,1.51,12.51,12.51,0,0,0,5,.79,22.2,22.2,0,0,0,4.66-.53l-1.87-.87c.26.45.49.82.75,1.2s.52.76.81,1.12a19,19,0,0,0,1.81,2.09,13.17,13.17,0,0,0,1,.95l.55.45.57.41a9,9,0,0,0,2.58,1.23.63.63,0,0,0,.36,0,.57.57,0,0,0,.27-.24.54.54,0,0,0,.06-.35.49.49,0,0,0-.16-.32l0,0a19,19,0,0,1-1.65-1.82c-.51-.65-1-1.33-1.43-2s-.89-1.39-1.31-2.11-.84-1.47-1.19-2.14l-.57-1.09-1.29.22a39.28,39.28,0,0,1-4.05.5,8.76,8.76,0,0,1-3.66-.43,3.46,3.46,0,0,1-2.09-2,2.78,2.78,0,0,1-.13-1.37c0-.08,0,0,0-.06s0,0,0,0a.42.42,0,0,1,.09-.14,2.66,2.66,0,0,1,.47-.41,10.65,10.65,0,0,1,3.51-1.27,28.48,28.48,0,0,1,4.12-.53,50.34,50.34,0,0,1,8.49.26h0a1.61,1.61,0,0,0,1.17-.36,1.62,1.62,0,0,0,.57-1.08,1.59,1.59,0,0,0-.33-1.17,1.65,1.65,0,0,0-1.06-.61Z" transform="translate(-1.51 -1.06)"/>
      <path class="cls-6" d="M202.78,229.51a1.37,1.37,0,0,0,.87.08,1.38,1.38,0,0,0,.73-.48c10.27-13.17-4.76-30.59-5.41-31.33a1.34,1.34,0,0,0-1.89-.12,1.33,1.33,0,0,0-.45.91,1.35,1.35,0,0,0,.33,1c.14.17,14.21,16.5,5.31,27.93a1.23,1.23,0,0,0-.26.54,1.4,1.4,0,0,0,0,.61,1.22,1.22,0,0,0,.27.53A1.29,1.29,0,0,0,202.78,229.51Z" transform="translate(-1.51 -1.06)"/>
      <path class="cls-6" d="M152.86,210.94a13.65,13.65,0,0,0,3.55,2.14,17,17,0,0,0,4,1c1.28.2,2.53.37,3.79.59s2.53.48,3.82.71a.21.21,0,0,0,.13,0,.14.14,0,0,0,.08-.09.23.23,0,0,0,0-.14.39.39,0,0,0-.08-.1,29.26,29.26,0,0,0-3.49-1.87c-1.21-.54-2.47-1-3.69-1.41a31.8,31.8,0,0,1-3.4-1.31c-1.06-.49-2.08-1.1-3.18-1.68h0a1.38,1.38,0,0,0-1-.11,1.35,1.35,0,0,0-.54,2.33Z" transform="translate(-1.51 -1.06)"/>
      <path class="cls-6" d="M153.22,220.25a4.67,4.67,0,0,0,1.65,1.16,6.42,6.42,0,0,0,1.83.48,17.41,17.41,0,0,0,3.25,0c2-.14,4.05-.16,6.16-.29a.28.28,0,0,0,.12,0,.23.23,0,0,0,.06-.12.17.17,0,0,0,0-.12.2.2,0,0,0-.09-.09,21.47,21.47,0,0,0-3-1.08,22.39,22.39,0,0,0-3.13-.68c-1.06-.15-2.07-.26-2.93-.41a6.12,6.12,0,0,1-2.12-.76l-.09-.06A1.4,1.4,0,0,0,154,218a1.37,1.37,0,0,0-.81.47,1.34,1.34,0,0,0-.3.88,1.29,1.29,0,0,0,.34.87Z" transform="translate(-1.51 -1.06)"/>
      <path class="cls-6" d="M172.88,240.39a17.54,17.54,0,0,0-.77,4.06,24.08,24.08,0,0,0,0,4.16,20.27,20.27,0,0,0,.77,4.14,15,15,0,0,0,1.74,3.85,1.62,1.62,0,0,0,.91.69,1.63,1.63,0,0,0,1.15-.09,1.68,1.68,0,0,0,.8-.82,1.63,1.63,0,0,0,.06-1.15l0-.09c-.38-1.2-.89-2.33-1.3-3.51s-.87-2.35-1.23-3.56-.7-2.47-1-3.74-.52-2.57-.7-3.89h0a.29.29,0,0,0-.08-.14.17.17,0,0,0-.14-.06.27.27,0,0,0-.15,0,.3.3,0,0,0-.09.13Z" transform="translate(-1.51 -1.06)"/>
      <path class="cls-16" d="M299.93,306.76a1.55,1.55,0,1,1,2-.95A1.55,1.55,0,0,1,299.93,306.76Z" transform="translate(-1.51 -1.06)"/>
    </g>
  </g>
  <path class="cls-17" d="M452.41,26.16,441.8,36.35a3,3,0,0,0-.09,4.2L449.85,49a3,3,0,0,0,4.2.09l10.61-10.19,6.1,6.35a3,3,0,0,0,4.94-1.06L488.94,7a3,3,0,0,0-3.68-3.83L447.57,14.92a3,3,0,0,0-1.26,4.89Z" transform="translate(-1.51 -1.06)"/>
  <path class="cls-18" d="M452.41,26.16h0L441.8,36.35a3,3,0,0,0-.09,4.2L449.85,49a3,3,0,0,0,4.2.09l10.61-10.19,6.1,6.35a3,3,0,0,0,4.94-1.06L488.94,7a3,3,0,0,0-3.68-3.83L447.57,14.92a3,3,0,0,0-1.26,4.89l6.1,6.35" transform="translate(-1.51 -1.06)"/>
  <path class="cls-19" d="M440.86,227.79A191.54,191.54,0,0,0,444,192.93C444,87.46,358.5,2,253,2S62,87.46,62,192.93a191.56,191.56,0,0,0,3,33.76,52.84,52.84,0,0,1,18,12.36c6.91-12.53,20-21.92,35.86-25.1a34.72,34.72,0,0,1-.19-3.55c0-22.45,20.74-40.65,46.33-40.65a50.93,50.93,0,0,1,24.31,6.05c7.58-13.36,23.3-22.54,41.48-22.54,17.25,0,32.29,8.28,40.27,20.57a9.77,9.77,0,0,0,5.48,4l.44.13a9.92,9.92,0,0,0,7.38-.47,51.19,51.19,0,0,1,23-5.34c22.7,0,41.58,14.34,45.54,33.26a48.82,48.82,0,0,1,27.77,11.89,50.9,50.9,0,0,1,24.7-6.27C422.21,211.77,433.5,219,440.86,227.79Z" transform="translate(-1.51 -1.06)"/>
  <path class="cls-3" d="M72,113.88a1.7,1.7,0,1,0-2.38-.38A1.71,1.71,0,0,0,72,113.88Z" transform="translate(-1.51 -1.06)"/>
  <path class="cls-3" d="M37.54,186a2.17,2.17,0,1,0-3.08,0A2.17,2.17,0,0,0,37.54,186Z" transform="translate(-1.51 -1.06)"/>
  <path class="cls-3" d="M383,190c.55,0,1-.67,1-1.5s-.45-1.5-1-1.5-1,.67-1,1.5S382.45,190,383,190Z" transform="translate(-1.51 -1.06)"/>
  <path class="cls-3" d="M462.49,215.83c-.12.57-1.29.81-2.95.69a1.85,1.85,0,0,0-1.16.33,2.1,2.1,0,0,0-.77,1c-.6,1.69-1.3,2.76-1.82,2.63s-.74-1.41-.64-3.22a2.32,2.32,0,0,0-.3-1.27,2,2,0,0,0-.93-.83c-1.55-.66-2.52-1.42-2.41-2s1.29-.82,2.95-.7a1.85,1.85,0,0,0,1.16-.33,2.1,2.1,0,0,0,.77-1c.6-1.7,1.3-2.76,1.82-2.63s.74,1.41.64,3.22a2.32,2.32,0,0,0,.3,1.27,2,2,0,0,0,.93.83C461.63,214.49,462.6,215.25,462.49,215.83Z" transform="translate(-1.51 -1.06)"/>
  <path class="cls-3" d="M4.51,115.42a1.47,1.47,0,0,1-.22.84,1.52,1.52,0,0,1-.64.59,1.5,1.5,0,0,1-.86.12A1.49,1.49,0,0,1,2,116.6,1.49,1.49,0,0,1,1.59,115a1.46,1.46,0,0,1,.52-.7,1.52,1.52,0,0,1,.82-.3,1.44,1.44,0,0,1,.58.09,1.34,1.34,0,0,1,.5.3,1.35,1.35,0,0,1,.35.47A1.42,1.42,0,0,1,4.51,115.42Z" transform="translate(-1.51 -1.06)"/>
  <path class="cls-3" d="M564.75,129c0,.63-1.37,1.17-3.42,1.46a2.58,2.58,0,0,0-1.33.63,2.22,2.22,0,0,0-.68,1.24c-.32,1.9-.9,3.17-1.57,3.17s-1.25-1.27-1.57-3.17a2.22,2.22,0,0,0-.68-1.24,2.58,2.58,0,0,0-1.33-.63c-2-.29-3.42-.83-3.42-1.46s1.37-1.16,3.41-1.46a2.4,2.4,0,0,0,1.33-.63,2.16,2.16,0,0,0,.68-1.24c.32-1.9.91-3.17,1.58-3.17s1.25,1.27,1.57,3.17a2.16,2.16,0,0,0,.68,1.24,2.4,2.4,0,0,0,1.33.63C563.37,127.84,564.75,128.38,564.75,129Z" transform="translate(-1.51 -1.06)"/>
</svg>
