<?xml version="1.0" encoding="utf-8"?>
<!-- Generator: Adobe Illustrator 25.1.0, SVG Export Plug-In . SVG Version: 6.00 Build 0)  -->
<svg version="1.1" id="Camada_1" xmlns="http://www.w3.org/2000/svg" xmlns:xlink="http://www.w3.org/1999/xlink" x="0px" y="0px"
	 viewBox="0 0 575 524" style="enable-background:new 0 0 575 524;" xml:space="preserve">
<style type="text/css">
	.st0{fill-rule:evenodd;clip-rule:evenodd;fill:#024F91;}
	.st1{fill:#FFFFFF;}
	.st2{opacity:0.25;}
	.st3{opacity:0.25;fill:#371A45;enable-background:new    ;}
	.st4{fill:#371A45;}
	.st5{opacity:0.35;}
	.st6{opacity:0.35;fill:#371A45;enable-background:new    ;}
	.st7{fill:#22A7F0;}
	.st8{opacity:0.5;}
	.st9{opacity:0.5;fill:#FFFFFF;enable-background:new    ;}
	.st10{opacity:0.35;fill:#111A28;enable-background:new    ;}
	.st11{fill:#FFD527;}
	.st12{fill:#8DD7FF;}
	.st13{fill:none;stroke:#FFD527;stroke-width:2.3376;}
</style>
<path class="st0" d="M501.6,310.4c6-18.7,9.3-38.6,9.3-59.2C510.9,144.5,424.4,58,317.7,58c-106.7,0-193.2,86.5-193.2,193.2
	c0,24.4,4.5,47.8,12.8,69.3c2.7,1.9,5.1,4.1,7.3,6.4c7-12.7,20.3-22.2,36.3-25.4c-0.1-1.2-0.2-2.4-0.2-3.6c0-22.7,21-41.1,46.9-41.1
	c8.6,0,17,2.1,24.6,6.1c7.7-13.5,23.6-22.8,41.9-22.8c17.5,0,32.7,8.4,40.7,20.8c1.3,2,3.3,3.4,5.5,4l0.4,0.1
	c2.5,0.8,5.2,0.7,7.5-0.5c7.2-3.6,15.2-5.4,23.2-5.4c23,0,42.1,14.5,46.1,33.6c11,1.1,20.8,5.5,28.1,12c7.7-4.2,16.3-6.4,25-6.3
	C484.3,299.1,494.3,303.9,501.6,310.4z"/>
<g id="Camada_2">
	<g>
		<g>
			<path class="st1" d="M348.3,394.7c-3.8-1.2-7.5-3.3-11-6.3c-11.2-9.6-13.6-55.3-13.6-55.3l0.1-0.1l20.5-27.5c0,0,1.6,2.2,4,5.8
				c2.5,3.7,6,8.9,9.8,14.7c8.7,13.6,18.8,30.8,21.6,41.4C384.8,386.8,366.4,400.5,348.3,394.7z"/>
			<g class="st2">
				<path class="st3" d="M380.5,375.5c-1,14.9-16.7,24.2-32.2,19.2c-3.8-1.2-7.5-3.3-11-6.3c-11.2-9.6-13.6-55.3-13.6-55.3l0.1-0.1
					l4.3-5.8c1,12.3,4.4,42.5,13.2,50.1c3.5,3,18.8,7.1,22.7,7.5C373.7,385.9,374.7,383.5,380.5,375.5z"/>
			</g>
			<path class="st4" d="M356.8,397.9c-6.7,0-14.1-2.3-20.7-8c-11.7-10-14.2-54.8-14.3-56.7c0-0.2,0-0.5,0.1-0.7
				c0.1-0.2,0.2-0.5,0.4-0.6c0.2-0.2,0.4-0.3,0.6-0.4s0.5-0.2,0.7-0.2c0.2,0,0.5,0,0.7,0.1c0.2,0.1,0.4,0.2,0.6,0.4
				c0.2,0.2,0.3,0.4,0.4,0.6c0.1,0.2,0.2,0.5,0.2,0.7c0.7,12.5,4.3,46.6,12.9,54c11.5,9.8,23.8,8.1,30.8,3.7
				c7.7-4.8,10.9-13.5,8.5-22.6c-5.1-19.2-34.8-60.9-35.1-61.4c-0.2-0.2-0.3-0.4-0.3-0.7c-0.1-0.2-0.1-0.5,0-0.7s0.1-0.5,0.3-0.7
				c0.1-0.2,0.3-0.4,0.5-0.5c0.2-0.1,0.4-0.3,0.7-0.3c0.2-0.1,0.5-0.1,0.7,0c0.2,0,0.5,0.1,0.7,0.3c0.2,0.1,0.4,0.3,0.5,0.5
				c1.2,1.7,30.4,42.7,35.7,62.6c2.9,10.8-1,21.1-10.1,26.8C367.4,396.3,362.3,397.9,356.8,397.9z"/>
			<path class="st4" d="M343.2,360.1c-0.4,0-0.8-0.1-1.2-0.4c-0.3-0.3-0.6-0.6-0.7-1.1c-0.1-0.4,0-0.9,0.2-1.2
				c0.2-0.4,0.5-0.7,0.9-0.9c0.8-0.4,19.9-9.1,32.4-4.2c0.2,0.1,0.4,0.2,0.6,0.4c0.2,0.2,0.3,0.4,0.4,0.6c0.1,0.2,0.2,0.5,0.2,0.7
				c0,0.2,0,0.5-0.1,0.7c-0.1,0.2-0.2,0.4-0.4,0.6c-0.2,0.2-0.4,0.3-0.6,0.4c-0.2,0.1-0.5,0.2-0.7,0.2c-0.2,0-0.5,0-0.7-0.1
				c-11-4.3-29.3,4.1-29.4,4.1C343.8,360,343.5,360.1,343.2,360.1z"/>
			<path class="st1" d="M361,372.3c3.2-3.2,3.2-8.5,0-11.7c-3.2-3.2-8.5-3.2-11.7,0c-3.2,3.2-3.2,8.5,0,11.7
				C352.6,375.5,357.8,375.5,361,372.3z"/>
			<g class="st5">
				<path class="st6" d="M363.5,366.6c0,1.2-0.3,2.5-0.9,3.6c-0.6,1.1-1.4,2.1-2.4,2.8c-1,0.8-2.1,1.3-3.3,1.5
					c-1.2,0.2-2.5,0.2-3.7-0.1c-1.2-0.3-2.3-0.9-3.3-1.7c-1-0.8-1.7-1.8-2.2-2.9c-0.5-1.1-0.8-2.4-0.8-3.6c0-1.2,0.3-2.5,0.9-3.6
					c0.6,1.4,1.7,2.7,3,3.5c1.3,0.9,2.8,1.4,4.4,1.4c1.6,0,3.1-0.4,4.4-1.2c1.3-0.8,2.4-2,3.1-3.4
					C363.3,364.2,363.5,365.4,363.5,366.6z"/>
			</g>
			<path class="st4" d="M355.2,376.6c-0.1,0-0.2,0-0.3,0c-2.7,0-5.2-1.1-7.1-3c-1.9-1.9-2.9-4.5-2.9-7.2c0-2.7,1.1-5.2,3-7.1
				c1.9-1.9,4.5-2.9,7.1-2.9c2.7,0,5.2,1.1,7.1,2.9s3,4.5,3,7.1c0,2.7-1,5.3-2.9,7.2C360.4,375.5,357.9,376.6,355.2,376.6z
				 M355.2,360.1c-1.7,0-3.3,0.7-4.5,1.8c-1.2,1.2-1.9,2.8-1.9,4.4c0,1.7,0.6,3.3,1.8,4.5c1.2,1.2,2.8,1.9,4.4,1.9h0.2
				c1.7,0,3.3-0.7,4.5-1.8c1.2-1.2,1.9-2.8,1.9-4.4c0-1.7-0.6-3.3-1.8-4.5c-1.2-1.2-2.8-1.9-4.4-1.9H355.2z"/>
			<path class="st1" d="M367.6,380.8l-3.7,4.1l-7.4,8.2c-4.1,0-6.3-4.8-7.5-10.7c-1.7-8.4-1.2-19.2-0.8-22c0.6-3.6,6.1-8.2,12.1-4.7
				C369,360.8,367.6,380.8,367.6,380.8z"/>
			<g class="st2">
				<path class="st3" d="M363.9,384.9l-7.4,8.2c-4.1,0-6.3-4.8-7.5-10.7C351.7,384.3,356.6,386.4,363.9,384.9z"/>
			</g>
			<path class="st4" d="M367.3,380.8c-0.5-3.3-1-6.5-1.6-9.6c-0.6-3.1-1.4-6.2-2.6-8.9c-0.6-1.3-1.3-2.6-2.2-3.5
				c-0.2-0.2-0.5-0.5-0.7-0.7c-0.1-0.1-0.2-0.2-0.4-0.3l-0.4-0.3c-0.3-0.2-0.6-0.3-0.8-0.5c-0.1-0.1-0.3-0.1-0.4-0.2l-0.4-0.2
				c-1.2-0.4-2.5-0.4-3.6,0c-1.2,0.4-2.3,1.2-3.1,2.2c-0.4,0.5-0.6,1-0.8,1.5c0,0.1-0.1,0.2-0.1,0.4l-0.1,0.5c0,0.4-0.1,0.8-0.1,1.1
				c-0.1,1.6-0.1,3.2-0.1,4.8c0,3.2,0.1,6.4,0.4,9.6c0.1,1.6,0.3,3.2,0.6,4.7s0.6,3.1,0.9,4.5c0.4,1.5,0.9,2.9,1.6,4.1
				c0.3,0.6,0.8,1.2,1.3,1.6c0.5,0.5,1.2,0.8,1.9,1l0,0c0.1,0,0.1,0.1,0.2,0.1s0.1,0.1,0.1,0.2c0,0.1,0,0.1-0.1,0.2
				c0,0.1-0.1,0.1-0.2,0.1c-0.2,0-0.4,0.1-0.7,0.1c-0.1,0-0.2,0-0.3,0l-0.3,0c-0.2,0-0.5,0-0.7-0.1l-0.7-0.2
				c-0.9-0.3-1.7-0.9-2.4-1.6c-1.4-1.3-2.2-2.9-2.9-4.5c-0.7-1.6-1.1-3.3-1.5-5c-0.4-1.7-0.6-3.3-0.8-5c-0.4-3.3-0.5-6.7-0.4-10
				c0.1-1.7,0.1-3.3,0.3-5c0-0.4,0.1-0.9,0.1-1.3c0-0.2,0.1-0.5,0.1-0.7c0.1-0.3,0.1-0.6,0.2-0.8c0.3-1,0.8-1.9,1.5-2.8
				c0.6-0.8,1.4-1.5,2.2-2c0.4-0.3,0.8-0.5,1.3-0.8c0.5-0.2,0.9-0.5,1.4-0.6c0.2-0.1,0.5-0.2,0.7-0.2l0.8-0.2c0.5-0.1,1-0.1,1.5-0.2
				c0.5,0,1,0,1.5,0.1c0.5,0.1,1,0.2,1.5,0.3l0.7,0.2c0.2,0.1,0.5,0.2,0.7,0.3c0.4,0.2,0.9,0.4,1.3,0.7l0.6,0.4
				c0.2,0.1,0.4,0.3,0.6,0.5c0.4,0.3,0.7,0.6,1.1,1c1.4,1.4,2.3,3.1,3,4.7c0.3,0.8,0.6,1.7,0.9,2.5c0.2,0.8,0.4,1.7,0.6,2.5
				c0.3,1.7,0.5,3.4,0.6,5.1c0.1,1.7,0,3.4-0.1,5c-0.1,1.7-0.4,3.3-0.8,5c0,0.1-0.1,0.1-0.1,0.2c-0.1,0-0.1,0.1-0.2,0.1
				s-0.1,0-0.2-0.1C367.4,381,367.3,380.9,367.3,380.8L367.3,380.8z"/>
			<path class="st1" d="M292.5,308.9l-6.3,70.5l-2.6,29.1c0,0-32.2,1.1-41.4-11.6c-3.4-4.7-5-18.1-4.9-32.7
				c0.1-17.8,2.6-37.4,7.1-45.5C251.7,305.8,281.5,307.2,292.5,308.9z"/>
			<g class="st2">
				<path class="st3" d="M286.3,379.4l-2.6,29.1c0,0-32.2,1.1-41.4-11.6c-3.4-4.7-5-18.1-4.9-32.7l20-3.1c0,0,7,0.3,6.8,22.4
					c0,6.2,9.3,8.8,16.5,4C283.3,385.8,285,382.9,286.3,379.4z"/>
			</g>
			<path class="st4" d="M281.7,410.4c-7.5,0-32.5-0.9-40.9-12.4c-4.4-6.1-5.6-24-5.2-38.7c0.4-14.6,2.5-33.1,7.2-41.5
				c7.9-14.1,38.8-12.5,50-10.7c0.5,0.1,0.9,0.4,1.2,0.8c0.3,0.4,0.4,0.9,0.3,1.4c-0.1,0.5-0.4,0.9-0.8,1.2
				c-0.4,0.3-0.9,0.4-1.4,0.3c-12.3-2-39.8-2.4-46.1,8.9c-3.6,6.4-6.3,22.1-6.7,39.8c-0.5,17.4,1.3,32,4.5,36.3
				c8.5,11.7,39.5,10.9,39.8,10.9c0.5,0,1,0.2,1.3,0.5c0.4,0.3,0.6,0.8,0.6,1.3c0,0.5-0.2,1-0.5,1.4c-0.3,0.4-0.8,0.6-1.3,0.6
				C283.6,410.4,282.8,410.4,281.7,410.4z"/>
			<path class="st1" d="M239.3,361.2l16.9,1.7c0.7,0.1,1.4,0.4,2,0.9c0.5,0.5,0.9,1.2,1,1.9c0.8,5.5,2.1,18.3-3.3,22.3
				c-4.5,3.4-11.7,2.8-15.7-0.9c-4.6-4.1-4.7-16.6-4.4-22.8c0-0.5,0.1-0.9,0.3-1.3c0.2-0.4,0.5-0.8,0.8-1.1c0.3-0.3,0.7-0.5,1.2-0.7
				S238.8,361.2,239.3,361.2z"/>
			<g class="st2">
				<path class="st3" d="M259.1,365.7c0.8,5.5,2.1,18.3-3.3,22.3c-4.5,3.4-11.7,2.8-15.8-0.9c-2.8-2.5-3.9-8.2-4.3-13.7
					c0.7,2.7,1.8,5,3.3,6.5c8.3,8.5,14.9-1.1,14.9-1.1s1,2.4,1.9,2.6c3.7,0.7,3.2-10.9,2.9-16.9
					C258.9,364.9,259.1,365.3,259.1,365.7z"/>
			</g>
			<path class="st4" d="M248.7,392.2c-3.6,0-7.2-1.2-9.9-3.6c-4.8-4.3-5.4-15.6-5.1-24.3c0-0.7,0.2-1.4,0.5-2.1
				c0.3-0.6,0.7-1.2,1.3-1.7c0.5-0.5,1.2-0.8,1.8-1c0.7-0.2,1.4-0.3,2.1-0.2l16.9,1.7c1.1,0.1,2.2,0.6,3.1,1.4
				c0.8,0.8,1.4,1.8,1.6,3c1.1,7.1,2,19.6-4.1,24.1C254.6,391.3,251.6,392.2,248.7,392.2z M238.9,363.1c-0.4,0-0.7,0.1-1,0.4
				c-0.3,0.3-0.4,0.6-0.4,1c-0.4,10.8,1,18.8,3.8,21.3c3.6,3.2,9.7,3.6,13.4,0.8c3.2-2.4,4.2-10.1,2.6-20.5c0-0.3-0.2-0.6-0.4-0.8
				c-0.2-0.2-0.5-0.4-0.8-0.4l-16.9-1.7C239,363.1,239,363.1,238.9,363.1L238.9,363.1z"/>
			<path class="st4" d="M253.6,368.9c0,2,0.1,4.1,0.1,6.2s-0.1,4.1-0.5,6.2c-0.4,2.1-1.1,4.2-2.5,6c-0.7,0.9-1.6,1.7-2.5,2.4
				c-1,0.6-2,1.1-3.2,1.5c-0.4,0.1-0.8,0.1-1.2-0.1c-0.4-0.2-0.6-0.5-0.8-0.9c-0.1-0.4-0.1-0.8,0.1-1.2c0.2-0.4,0.5-0.6,0.9-0.8
				c0.1,0,0.1,0,0.2,0c1.8-0.3,3.4-1.1,4.7-2.3c1.3-1.3,2.2-3,2.8-4.9c0.6-1.9,1-3.9,1.2-5.9C253.2,373,253.3,371,253.6,368.9z"/>
			<path class="st4" d="M254.2,316.7c2.3,0,4.6,0.1,7,0.3c2.3,0.1,4.6,0.3,7,0.5c2.3,0.2,4.6,0.5,7,0.8c2.3,0.4,4.7,0.8,7.1,1.6
				c0.2,0.1,0.5,0.2,0.7,0.4c0.2,0.2,0.3,0.4,0.5,0.6c0.1,0.2,0.2,0.5,0.2,0.7c0,0.2,0,0.5-0.1,0.7c-0.1,0.2-0.2,0.5-0.4,0.6
				c-0.2,0.2-0.4,0.3-0.6,0.5c-0.2,0.1-0.5,0.2-0.7,0.2c-0.3,0-0.5,0-0.7-0.1c0,0-0.1,0-0.1-0.1h0c-2-0.8-4.2-1.4-6.3-1.9
				c-2.2-0.5-4.5-1-6.7-1.3c-2.3-0.4-4.5-0.7-6.8-1c-2.3-0.3-4.6-0.6-6.9-0.8h0c-0.2,0-0.4-0.1-0.5-0.3c-0.1-0.2-0.2-0.4-0.2-0.6
				c0-0.2,0.1-0.4,0.2-0.5C253.8,316.8,254,316.7,254.2,316.7L254.2,316.7z"/>
			<path class="st1" d="M372,307.2L372,307.2C372.1,307.1,372.1,307.1,372,307.2z"/>
			<path class="st1" d="M372,307.2L372,307.2C372.1,307.1,372.1,307.1,372,307.2z"/>
			<path class="st1" d="M372,307.1C372.1,307.1,372.1,307.1,372,307.1L372,307.1z"/>
			<path class="st1" d="M375.5,471.9c0.1,12.1-13,12.8-29.1,12.8c-11.5,0-20.1-1.9-24.4-5.6c-7-6.1-5.2-40.3-12.9-102.6l40.1-3.6
				c0,0,2.3,12.5,4.8,30.3c2.2,15.8,4.5,35.8,5.5,54.9c0,0,14.4,3.9,15.8,12.6C375.4,471,375.5,471.5,375.5,471.9z"/>
			<g class="st2">
				<path class="st3" d="M375.5,471.9c0.1,12.1-13,12.8-29.1,12.8c-11.5,0-20.1-1.9-24.4-5.6c-7-6.1-5.2-40.3-12.9-102.6l40.1-3.6
					c0,0,2.3,12.5,4.8,30.3c-8.8,6.4-16.7,9.3-24.9,18.9c-9.9,11.4-7.7,50.4,11.4,53c15.1,2,28.6,1.6,34.8-4.3
					C375.4,471,375.5,471.5,375.5,471.9z"/>
			</g>
			<path class="st4" d="M346.3,486.6c-12.1,0-21-2.1-25.6-6.1c-4.8-4.1-5.8-17-7.7-42.6c-1.2-16.2-2.7-36.3-5.8-61.2
				c-0.1-0.5,0.1-1,0.4-1.4c0.3-0.4,0.8-0.7,1.3-0.7c0.5-0.1,1,0.1,1.4,0.4c0.4,0.3,0.7,0.8,0.7,1.3c3.1,25,4.6,45.2,5.8,61.4
				c1.7,22.2,2.8,36.9,6.4,40c3.9,3.3,12.1,5.2,23.2,5.2h0.1c10.8,0,20.8-0.4,25-4.6c1.5-1.6,2.3-3.6,2.2-6.4
				c-0.1-6.7-10.5-11-14.6-12.1l-1.3-0.4l-0.1-1.4c-1.9-40-10.2-84.5-10.3-85c-0.1-0.5,0-1,0.3-1.4c0.3-0.4,0.7-0.7,1.2-0.8
				c0.5-0.1,1,0,1.4,0.3c0.4,0.3,0.7,0.7,0.8,1.2c0.1,0.4,8.2,44.2,10.3,84.1c4.1,1.3,15.9,6.1,16,15.3c0,3.7-1.1,6.8-3.3,9.1
				C368.8,486.2,358.4,486.6,346.3,486.6L346.3,486.6z"/>
			<g class="st5">
				<path class="st6" d="M308.1,380.3c-0.1-0.9-0.2-1.8-0.3-2.8C307.9,378.5,308,379.4,308.1,380.3z"/>
			</g>
			<g class="st5">
				<path class="st6" d="M300.9,379.9c-0.1-1.1-0.2-2.2-0.3-3.4C300.6,377.6,300.8,378.8,300.9,379.9z"/>
			</g>
			<path class="st1" d="M355.7,377.2c-0.3,2.5-0.8,4.9-1.6,7.2c-1.5,4.2-3.8,8.1-6.9,11.5c-22.9,25.2-82.5,18-84.3-13.7
				c-0.1-1.1-0.1-2.2,0-3.4c0.3-4.1,0.7-8.4,1.1-12.8c2.6-26.9,7.3-59.7,3.5-82.1c8,8,62.1,11.6,62.5,6.5c0.3-5-42.9-26.3-24.1-23.4
				c13.9,2.9,34.2,5.6,38.1,16.9c0.2,2.5,1.4,5.7,2.2,8l3.6,35.3C352.1,344.1,357.4,362.9,355.7,377.2z"/>
			<path class="st4" d="M350.8,327c1.7,5.5,2.8,11,3.8,16.6c1,5.6,2,11.2,2.7,16.9c0.3,2.9,0.6,5.7,0.7,8.6c0.1,2.9,0,5.8-0.3,8.8
				c-0.2,1.5-0.4,3-0.8,4.4l-0.3,1.1c-0.1,0.4-0.2,0.7-0.3,1.1c-0.2,0.7-0.5,1.4-0.8,2.1c-1.1,2.8-2.6,5.4-4.4,7.8
				c-3.6,4.8-8.4,8.6-13.5,11.5c-5.2,2.8-10.8,4.7-16.6,5.8c-5.7,1.1-11.6,1.5-17.4,1.2c-5.8-0.3-11.6-1.3-17.2-3.1
				c-5.6-1.8-11-4.5-15.6-8.5c-2.3-2-4.3-4.3-6-6.9c-1.6-2.6-2.8-5.5-3.4-8.6c-0.3-1.5-0.5-3-0.5-4.6c0-0.8,0-1.5,0-2.3
				c0-0.8,0.1-1.4,0.1-2.2c0.2-2.8,0.4-5.7,0.7-8.5c0.5-5.7,1.1-11.3,1.7-17c1.2-11.3,2.4-22.5,3-33.8c0.3-5.6,0.5-11.2,0.4-16.8
				c-0.1-5.6-0.5-11.2-1.4-16.6l-1.1-6.5l4.6,4.7c0.4,0.4,0.9,0.8,1.4,1c0.6,0.3,1.2,0.6,1.9,0.9c1.4,0.6,2.8,1,4.2,1.5
				c2.9,0.8,5.9,1.5,8.9,2c6.1,1.1,12.2,1.8,18.4,2.3c3.1,0.2,6.2,0.4,9.3,0.5c3.1,0.1,6.2,0.1,9.2-0.1c1.5-0.1,3-0.3,4.4-0.5
				c0.3-0.1,0.7-0.2,0.9-0.2c0.2-0.1,0.4-0.1,0.6-0.3c0,0,0,0-0.1,0.1c-0.1,0.1-0.1,0.2-0.2,0.3c0,0.1-0.1,0.2-0.1,0.3
				c0,0.1,0,0.2,0,0.2c0,0.1,0,0.2,0,0.3c0-0.1-0.1-0.1-0.1-0.2c-0.3-0.4-0.8-0.9-1.3-1.4s-1.1-0.9-1.7-1.4
				c-1.2-0.9-2.4-1.8-3.7-2.7c-5.1-3.5-10.4-6.8-15.6-10.5c-1.3-0.9-2.6-1.9-3.9-3c-0.3-0.3-0.6-0.6-1-0.9c-0.4-0.4-0.7-0.8-1-1.2
				c-0.2-0.3-0.4-0.7-0.5-1.1c0-0.1-0.1-0.3-0.1-0.4c0-0.2,0-0.4,0-0.6c0-0.5,0.2-0.9,0.4-1.3c0.1-0.2,0.3-0.3,0.4-0.5
				c0.1-0.1,0.3-0.2,0.4-0.3c0.2-0.1,0.4-0.2,0.7-0.3c0.3-0.1,0.7-0.2,1-0.2c1.1-0.1,1.9,0,2.8,0.1c0.4,0.1,0.8,0.1,1.3,0.2
				c0.4,0.1,0.8,0.2,1.2,0.2l4.6,0.9c6.1,1.2,12.4,2.5,18.5,4.6c3,1.1,6.1,2.4,8.9,4.3c1.4,1,2.7,2.1,3.9,3.4
				c1.2,1.4,2.1,2.9,2.7,4.6l0.1,0.2l0,0.2c0.1,1.2,0.4,2.4,0.8,3.7c0.4,1.3,0.8,2.5,1.3,3.8c0.1,0.2,0.1,0.5,0.1,0.7
				c0,0.2-0.1,0.5-0.2,0.7c-0.1,0.2-0.3,0.4-0.4,0.6c-0.2,0.2-0.4,0.3-0.6,0.4s-0.5,0.1-0.7,0.1c-0.2,0-0.5-0.1-0.7-0.2
				c-0.2-0.1-0.4-0.3-0.6-0.4c-0.2-0.2-0.3-0.4-0.4-0.6c-0.5-1.3-1-2.6-1.4-4c-0.4-1.4-0.8-2.8-1-4.4l0.1,0.5
				c-0.9-2.5-2.8-4.6-5.2-6.2c-2.4-1.6-5.1-2.8-8-3.8c-5.7-2-11.8-3.2-17.9-4.4l-4.6-0.9c-0.4-0.1-0.8-0.2-1.1-0.2
				c-0.3,0-0.7-0.1-1-0.1c-0.7-0.1-1.4-0.1-1.9-0.1c-0.1,0-0.1,0-0.2,0c0.1,0,0.1,0,0.2-0.1c0.2-0.1,0.3-0.2,0.4-0.4
				c0.1-0.2,0.2-0.5,0.2-0.7c0-0.1,0-0.2,0-0.3c0,0,0-0.1,0-0.1c0-0.1,0-0.1,0,0c0.2,0.2,0.3,0.4,0.5,0.6c0.2,0.2,0.5,0.5,0.8,0.7
				c1.1,0.9,2.3,1.8,3.6,2.7c5,3.5,10.4,6.8,15.6,10.4c1.3,0.9,2.6,1.8,3.9,2.8c0.6,0.5,1.3,1,1.9,1.6c0.6,0.6,1.3,1.2,1.9,2.1
				c0.2,0.3,0.3,0.5,0.5,0.8c0.2,0.4,0.3,0.9,0.3,1.4c0,0.2,0,0.4-0.1,0.5c-0.1,0.5-0.3,1-0.6,1.3c-0.3,0.3-0.6,0.6-1,0.8
				c-0.5,0.3-1,0.5-1.5,0.7c-0.5,0.1-0.9,0.3-1.3,0.4c-1.7,0.4-3.3,0.5-5,0.6c-3.2,0.2-6.4,0.2-9.6,0.1c-3.2-0.1-6.3-0.2-9.5-0.5
				c-6.3-0.5-12.6-1.2-18.8-2.3c-3.1-0.6-6.2-1.2-9.4-2.1c-1.6-0.4-3.1-1-4.7-1.6c-0.8-0.3-1.6-0.7-2.3-1.1c-0.9-0.5-1.6-1-2.3-1.7
				l3.6-1.8c1,5.7,1.3,11.5,1.4,17.3c0.1,5.7-0.1,11.5-0.4,17.2c-0.7,11.4-1.8,22.7-3,34c-0.6,5.6-1.2,11.3-1.7,16.9
				c-0.3,2.8-0.5,5.6-0.7,8.4c0,0.7-0.1,1.4-0.1,2.1c0,0.6,0,1.3,0,2c0,1.3,0.2,2.6,0.4,3.9c0.5,2.5,1.5,5,2.8,7.2
				c1.4,2.2,3.1,4.2,5.1,5.9c4,3.5,8.9,6,14.1,7.7c5.2,1.7,10.7,2.6,16.2,2.9c5.5,0.3,11-0.1,16.4-1.1c5.4-1.1,10.6-2.8,15.4-5.4
				c4.8-2.6,9.1-6,12.3-10.3c1.6-2.1,2.9-4.5,3.9-6.9c0.2-0.6,0.5-1.2,0.7-1.9c0.1-0.3,0.2-0.6,0.3-0.9l0.3-1
				c0.3-1.3,0.6-2.6,0.7-3.9c0.4-2.7,0.4-5.4,0.3-8.2c-0.1-2.8-0.3-5.5-0.6-8.3c-0.7-5.6-1.6-11.1-2.6-16.7c-1-5.6-2-11.2-1.9-17
				c0-0.2,0.1-0.4,0.2-0.6c0.2-0.2,0.4-0.3,0.6-0.3c0.2,0,0.5,0,0.6,0.1C350.5,326.6,350.7,326.8,350.8,327L350.8,327z"/>
			<path class="st4" d="M320.6,436.2c-3.6,0-5.9-0.2-6.2-0.2c-0.5,0-1-0.3-1.3-0.7c-0.3-0.4-0.5-0.9-0.4-1.4c0-0.5,0.3-1,0.7-1.3
				c0.4-0.3,0.9-0.5,1.4-0.4c0.2,0,24,2,41.3-7.6c0.4-0.2,1-0.3,1.4-0.2c0.5,0.1,0.9,0.5,1.1,0.9c0.2,0.4,0.3,1,0.2,1.4
				c-0.1,0.5-0.5,0.9-0.9,1.1C345,435.1,329.2,436.2,320.6,436.2z"/>
			<path class="st4" d="M359.1,459.9c-0.7-0.2-1.5-0.3-2.2-0.4c-0.7-0.1-1.5-0.2-2.3-0.3c-1.5-0.1-3.1-0.2-4.6-0.1
				c-1.5,0-3.1,0.2-4.6,0.5c-1.5,0.2-3,0.7-4.5,1.2l-0.1,0c-0.2,0.1-0.5,0.1-0.7,0c-0.2-0.1-0.4-0.3-0.5-0.5c-0.1-0.2-0.1-0.5,0-0.7
				c0.1-0.2,0.3-0.4,0.5-0.5c1.5-0.7,3.1-1.3,4.7-1.8c1.6-0.5,3.3-0.8,4.9-1c1.7-0.2,3.3-0.3,5-0.3c0.8,0,1.7,0,2.5,0.1
				c0.4,0,0.8,0.1,1.3,0.1c0.4,0,0.8,0.1,1.3,0.2c0.2,0,0.5,0.1,0.7,0.2c0.2,0.1,0.4,0.3,0.6,0.5c0.2,0.2,0.3,0.4,0.3,0.7
				c0.1,0.2,0.1,0.5,0,0.7c0,0.2-0.1,0.5-0.2,0.7c-0.1,0.2-0.3,0.4-0.5,0.6c-0.2,0.1-0.4,0.3-0.7,0.3c-0.2,0.1-0.5,0.1-0.7,0
				C359.3,459.9,359.2,459.9,359.1,459.9L359.1,459.9z"/>
			<path class="st1" d="M311.4,398.5c0,0-9,46.3-13.2,67.9c-3.6,18.5-16.2,19.7-43.8,18.6c-9.7-0.4-17.1-3.7-16.4-11.7
				c1-10.7,16.1-14.7,16.1-14.7s5.4-53.8,9.1-83.2L311.4,398.5z"/>
			<g class="st2">
				<path class="st3" d="M294.2,455.3c3.1-19.3,14.4-48.1,16.8-54.3c-1.9,9.7-9.1,46.8-12.7,65.5c-3.6,18.5-16.2,19.7-43.8,18.6
					c-9.7-0.4-17.1-3.7-16.4-11.7c0.1-0.8,0.2-1.6,0.5-2.3c2.2,3,7.1,4.4,11.8,4.7C280.3,477.5,291.3,473.6,294.2,455.3z"/>
			</g>
			<path class="st4" d="M312.4,398.7c-0.5,7-1.8,14-3.1,20.8l-3.9,20.7l-3.9,20.7l-1,5.2c-0.2,0.8-0.3,1.8-0.6,2.7
				c-0.2,0.9-0.5,1.8-0.8,2.7c-0.6,1.8-1.4,3.6-2.3,5.2c-1,1.7-2.3,3.2-3.8,4.5c-1.5,1.3-3.2,2.3-5,3.1c-1.7,0.8-3.5,1.4-5.4,1.8
				c-3.6,0.8-7.2,1.1-10.8,1.3c-3.6,0.2-7.1,0.1-10.7,0c-1.8,0-3.5-0.1-5.3-0.2l-1.3,0c-0.4,0-0.9,0-1.4-0.1
				c-0.9-0.1-1.8-0.2-2.8-0.3c-1.9-0.2-3.7-0.7-5.5-1.3c-1.8-0.6-3.7-1.5-5.3-2.9c-0.8-0.7-1.5-1.5-2.1-2.5c-0.6-0.9-1-2-1.2-3
				c-0.2-1-0.3-2.1-0.3-3.2c0-1,0.2-2.1,0.5-3c0.5-2,1.6-3.8,2.8-5.3c1.2-1.5,2.7-2.8,4.2-3.9c1.5-1.1,3.2-2,4.9-2.8
				c0.8-0.4,1.7-0.7,2.6-1.1c0.4-0.2,0.9-0.3,1.3-0.5c0.4-0.1,0.9-0.3,1.4-0.4l-1.4,1.6c1.4-13.9,2.9-27.8,4.4-41.6
				c1.5-13.9,3-27.8,4.8-41.6c0.1-0.5,0.3-0.9,0.7-1.3c0.4-0.3,0.9-0.4,1.4-0.4c0.5,0.1,0.9,0.3,1.3,0.7c0.3,0.4,0.4,0.9,0.4,1.4
				c-1.7,13.8-3.3,27.7-4.8,41.6c-1.5,13.9-2.9,27.7-4.4,41.6l-0.1,1.3l-1.3,0.4c-0.3,0.1-0.8,0.2-1.1,0.4c-0.4,0.1-0.8,0.3-1.2,0.4
				c-0.8,0.3-1.5,0.6-2.3,1c-1.5,0.7-2.9,1.5-4.2,2.5c-2.6,1.9-4.7,4.3-5.5,7.1c-0.4,1.4-0.4,2.9-0.1,4.2c0.3,1.3,1,2.4,2.1,3.3
				c1.1,0.9,2.4,1.6,3.9,2.1c1.5,0.5,3.1,0.9,4.7,1.1c0.8,0.1,1.6,0.2,2.5,0.2c0.4,0,0.8,0,1.3,0.1l1.3,0c1.7,0.1,3.5,0.1,5.2,0.1
				c3.5,0.1,7,0.1,10.4-0.1c3.4-0.1,6.8-0.5,10-1.2c3.2-0.7,6.2-2,8.5-4c2.3-2,3.9-4.8,4.9-7.9c0.3-0.8,0.5-1.6,0.7-2.4
				c0.2-0.8,0.4-1.6,0.5-2.5l1-5.2l4.1-20.7l4.1-20.7c1.4-6.9,2.8-13.7,4.9-20.5c0.1-0.2,0.2-0.4,0.4-0.5c0.2-0.1,0.4-0.2,0.7-0.1
				c0.2,0,0.4,0.2,0.6,0.4C312.3,398.2,312.4,398.5,312.4,398.7L312.4,398.7z"/>
			<path class="st4" d="M288.6,435.2c-22.6,0-31.7-5.1-32.2-5.4c-0.4-0.3-0.7-0.7-0.9-1.1c-0.1-0.5-0.1-1,0.2-1.4s0.7-0.7,1.1-0.9
				c0.5-0.1,1-0.1,1.4,0.2c0.1,0.1,13,7.1,46.4,4.1c0.5,0,1,0.1,1.4,0.4c0.4,0.3,0.6,0.8,0.7,1.3c0,0.5-0.1,1-0.4,1.4
				c-0.3,0.4-0.8,0.6-1.3,0.7C298.9,435,293.4,435.2,288.6,435.2z"/>
			<path class="st4" d="M253.3,456.9c1.4-0.2,2.6-0.3,3.9-0.4c1.3-0.1,2.6-0.1,3.9-0.1c2.6,0,5.2,0.1,7.7,0.5c2.6,0.4,5.1,1,7.5,1.8
				c1.2,0.4,2.4,0.9,3.6,1.5c1.2,0.6,2.3,1.3,3.3,2c0.2,0.1,0.3,0.4,0.4,0.6c0,0.2,0,0.5-0.1,0.7c-0.1,0.2-0.3,0.3-0.6,0.4
				c-0.2,0.1-0.5,0-0.7-0.1l0,0c-1-0.6-2.1-1.2-3.2-1.7c-1.1-0.5-2.2-0.9-3.4-1.2c-2.3-0.6-4.7-1.1-7.1-1.2c-2.4-0.2-4.9-0.2-7.3,0
				c-1.2,0.1-2.4,0.2-3.6,0.4c-1.2,0.2-2.4,0.4-3.5,0.6l0,0c-0.2,0.1-0.5,0.1-0.7,0c-0.2,0-0.5-0.1-0.7-0.3
				c-0.2-0.1-0.4-0.3-0.5-0.5c-0.1-0.2-0.2-0.4-0.3-0.7c-0.1-0.2-0.1-0.5,0-0.7c0-0.2,0.1-0.5,0.3-0.7c0.1-0.2,0.3-0.4,0.5-0.5
				c0.2-0.1,0.4-0.2,0.7-0.3C253.2,456.9,253.2,456.9,253.3,456.9z"/>
			<g class="st2">
				<path class="st3" d="M355.7,377.2c-0.1,1.3-0.4,2.5-0.6,3.8c-0.1,0.3-0.1,0.6-0.2,0.9c-0.2,0.9-0.5,1.7-0.7,2.5
					c-0.3,0.7-0.5,1.4-0.8,2.1c-0.1,0.2-0.1,0.3-0.2,0.5c-0.1,0.2-0.2,0.4-0.2,0.5c-0.1,0.2-0.2,0.5-0.3,0.7
					c-0.6,1.3-1.4,2.5-2.2,3.7c-0.1,0.2-0.3,0.4-0.4,0.6c-0.1,0.2-0.3,0.4-0.4,0.6c-0.2,0.3-0.4,0.5-0.6,0.8
					c-0.2,0.2-0.3,0.4-0.5,0.6c-0.1,0.1-0.2,0.2-0.2,0.3c-0.2,0.2-0.3,0.4-0.5,0.6c-0.1,0.1-0.2,0.2-0.3,0.4
					c-9,9.9-23.6,14.8-38.1,15.2l2.7-13.3c3.3-0.2,6.6-0.5,9.8-1l-18.4,0.6c-5.2,0.2-9.5-3.9-9.7-9.1l-0.1-3.5
					c-18.1,2.1-27.9-1.5-30.6-2.7c-0.1-1.1-0.1-2.2,0-3.4c0.3-4.1,0.7-8.4,1.1-12.8c10,4.6,22.9,4.1,28.9,3.6l-0.2-4.4
					c-0.2-4.5,2.9-8.4,7.2-9.5c0.6-0.1,1.2-0.2,1.9-0.3l43.6-1.5c5.2-0.2,9.5,3.9,9.7,9.1L355.7,377.2z"/>
			</g>
			<path class="st1" d="M348.1,387.8l-43.6,1.5c-5.2,0.2-9.5-3.9-9.7-9.1l-0.8-23.2c-0.2-4.5,2.9-8.4,7.2-9.5
				c0.6-0.2,1.2-0.2,1.9-0.3l43.6-1.5c5.2-0.2,9.5,3.9,9.7,9.1l0.6,18.4l0.2,4.8C357.3,383.2,353.2,387.6,348.1,387.8z"/>
			<g class="st2">
				<path class="st3" d="M348.1,387.8l-43.6,1.5c-5.2,0.2-9.5-3.9-9.7-9.1l-0.8-23.2c-0.2-4.5,2.9-8.4,7.2-9.5
					c2.5,1.6,4.1,2.6,4.1,2.6c2.8,18.6,2.4,32.4,31.3,29.5c9.9-1,16.5-4.2,20.4-6.4l0.2,4.8C357.3,383.2,353.2,387.6,348.1,387.8z"
					/>
			</g>
			<path class="st4" d="M304.9,391.2c-3.1,0-6.2-1.2-8.4-3.4c-2.3-2.2-3.6-5.2-3.7-8.3l-0.8-21.5c-0.1-3.2,1.1-6.3,3.3-8.7
				c2.2-2.4,5.2-3.7,8.5-3.9l41.9-1.5c3.2-0.1,6.3,1.1,8.7,3.3c2.4,2.2,3.7,5.2,3.9,8.4l0.8,21.5c0.1,3.2-1.1,6.3-3.3,8.7
				c-2.2,2.4-5.2,3.7-8.5,3.9l-41.9,1.5C305.2,391.2,305.1,391.2,304.9,391.2z M346.1,347.7c-0.1,0-0.2,0-0.3,0l-41.9,1.5
				c-2.2,0.1-4.3,1-5.8,2.7c-1.5,1.6-2.3,3.8-2.2,6l0.8,21.5c0.1,2.2,1,4.3,2.7,5.8c1.6,1.5,3.8,2.3,6,2.3l41.9-1.5
				c2.2-0.1,4.3-1,5.8-2.7c1.5-1.6,2.3-3.8,2.2-6l-0.8-21.5c-0.1-2.2-1-4.2-2.6-5.7C350.4,348.5,348.3,347.7,346.1,347.7
				L346.1,347.7z"/>
			<path class="st1" d="M349.8,387.5c-0.6,0.1-1.2,0.2-1.7,0.2l-43.6,1.5c-1.8,0.1-3.6-0.4-5.1-1.3c-1.5-0.9-2.8-2.3-3.6-3.9
				c-0.6-1.2-0.9-2.5-1-3.8l-0.4-10.3l-0.1-3.4l-0.3-9.5c-0.2-5.2,3.9-9.5,9.1-9.7l9.4-0.3c-4.3,1-7.5,4.9-7.3,9.5l0.4,12.5
				l0.4,10.7c0.2,5.2,4.6,9.2,9.7,9.1L349.8,387.5z"/>
			<g class="st2">
				<path class="st3" d="M349.8,387.5c-0.6,0.1-1.2,0.2-1.7,0.2l-43.6,1.5c-5.2,0.2-9.5-3.9-9.7-9.1l-0.5-13.7
					c1.2,2.4,3.3,5.3,6.4,5.5c1.7,0.1,3.4-1.2,4.8-3l0.4,10.7c0.2,5.2,4.6,9.2,9.7,9.1L349.8,387.5z"/>
			</g>
			<path class="st4" d="M304.1,391.2c-2.9,0-5.7-1.1-7.8-3.2c-2.1-2-3.3-4.8-3.4-7.7l-0.8-23.2c-0.2-6.2,4.7-11.5,10.9-11.7l9.4-0.3
				l0.5,3.7c-1.7,0.4-3.2,1.4-4.3,2.7c-1.1,1.4-1.6,3.1-1.6,4.8l0.8,23.2c0.1,2,0.9,3.9,2.4,5.2c1.5,1.4,3.4,2.1,5.4,2l34.2-1.2
				l0.5,3.7c-0.7,0.2-1.4,0.3-2.1,0.3l-43.6,1.5C304.4,391.2,304.2,391.2,304.1,391.2z M305.6,349.1l-2.6,0.1
				c-2,0.1-3.9,0.9-5.2,2.4c-1.4,1.5-2.1,3.4-2,5.4l0.8,23.2c0.1,2,0.9,3.9,2.4,5.2c1.5,1.4,3.4,2.1,5.4,2l2.9-0.1
				c-2-2-3.2-4.7-3.3-7.6l-0.8-23.2C303.1,353.8,304,351.2,305.6,349.1L305.6,349.1z"/>
			<path class="st7" d="M322.7,367.6c0,0.9-1,7.8-1,7.8l-4.9,0.2c-3.4,0.1-6.2-3.3-6.3-7.6c-0.1-4.3,2.5-7.9,5.9-8l4.9-0.1
				C321.3,359.9,322.6,366.2,322.7,367.6z"/>
			<g class="st5">
				<path class="st6" d="M322.7,367.6c0,0.9-1,7.8-1,7.8l-4.9,0.2c-3.4,0.1-6.2-3.3-6.3-7.6c-0.1-4.3,2.5-7.9,5.9-8l4.9-0.1
					C321.3,359.9,322.6,366.2,322.7,367.6z"/>
			</g>
			<path class="st4" d="M316.7,377c-4.1,0-7.5-4-7.6-9c-0.2-5.1,3.1-9.3,7.2-9.4l6.1-0.2l0.3,1.1c0.2,1.1,1.4,6.6,1.5,8
				c0,0.9-0.8,6.4-1,8.1l-0.2,1.2l-6.1,0.2C316.8,377,316.7,377,316.7,377z M320.1,361.3l-3.7,0.1c-2.6,0.1-4.6,3-4.5,6.5
				c0.1,3.5,2.3,6.3,4.9,6.2l3.7-0.1c0.4-3,0.8-5.9,0.8-6.4C321.2,366.9,320.6,363.7,320.1,361.3z"/>
			<path class="st7" d="M321.7,375.5c3.4-0.1,6-3.7,5.9-8c-0.1-4.3-3-7.7-6.3-7.6c-3.4,0.1-6,3.7-5.9,8
				C315.5,372.2,318.3,375.6,321.7,375.5z"/>
			<g class="st5">
				<path class="st6" d="M315.4,367.9c0.1,4.3,3,7.7,6.3,7.6c3.4-0.1,6-3.7,5.9-8c0-0.6-0.1-1.1-0.2-1.7c-0.8,3-2.9,5.2-5.6,5.2
					c-2.9,0.1-5.4-2.4-6.1-5.9C315.5,366,315.4,366.9,315.4,367.9z"/>
			</g>
			<path class="st1" d="M315.4,367.9c0,0.3,0,0.6,0.1,0.9c0.6-3.4,2.9-6,5.7-6c3.1-0.1,5.8,2.9,6.3,6.7c0.1-0.6,0.2-1.3,0.1-1.9
				c-0.1-4.3-3-7.7-6.3-7.6C317.9,360,315.3,363.5,315.4,367.9z"/>
			<path class="st4" d="M321.6,376.9c-4.1,0-7.5-4-7.6-9c-0.1-2.4,0.6-4.7,1.9-6.4c1.4-1.9,3.3-2.9,5.3-3c2.1-0.1,4,0.9,5.5,2.7
				c1.4,1.7,2.2,3.9,2.3,6.3c0.1,2.4-0.6,4.7-1.9,6.4c-1.4,1.9-3.3,2.9-5.3,3L321.6,376.9z M321.4,361.3h-0.1
				c-1.2,0-2.3,0.7-3.1,1.8c-0.9,1.3-1.4,2.9-1.3,4.7c0.1,3.5,2.3,6.3,4.9,6.2c1.2,0,2.3-0.7,3.1-1.8c0.9-1.3,1.4-2.9,1.4-4.7
				c-0.1-1.8-0.6-3.4-1.6-4.6C323.7,361.9,322.5,361.3,321.4,361.3z"/>
			<path class="st4" d="M334.5,389.5c-0.4,0-0.7-0.1-1-0.4c-0.3-0.3-0.4-0.6-0.4-1l-0.1-11.8c0-1.6,0.4-3.1,1.1-4.5
				c0.7-1.4,1.8-2.6,3.1-3.5c0.9-0.6,1.7-1.5,2.2-2.5c0.5-1,0.8-2.1,0.7-3.3l-0.5-16.6c0-0.2,0-0.4,0.1-0.5s0.2-0.3,0.3-0.5
				c0.1-0.1,0.3-0.2,0.5-0.3c0.2-0.1,0.4-0.1,0.5-0.1c0.2,0,0.4,0,0.5,0.1c0.2,0.1,0.3,0.2,0.5,0.3c0.1,0.1,0.2,0.3,0.3,0.5
				c0.1,0.2,0.1,0.4,0.1,0.5l0.5,16.6c0.1,1.6-0.3,3.2-1,4.6c-0.7,1.4-1.8,2.7-3.1,3.6c-0.9,0.6-1.7,1.5-2.2,2.4
				c-0.5,1-0.8,2.1-0.8,3.2l0.1,11.8c0,0.4-0.1,0.7-0.4,1C335.3,389.3,334.9,389.5,334.5,389.5L334.5,389.5z"/>
			<path class="st1" d="M264.6,357.6c0,0-5.7,0.8-5.9,7.4c-0.2,7.2,4.5,8.6,4.5,8.6s11.2,6.4,36.3,2.4c0,0,6.4-9.7-2.2-15
				C297.4,361.1,278.1,364.1,264.6,357.6z"/>
			<g class="st2">
				<path class="st3" d="M299.6,376.1c-25.1,4-36.3-2.4-36.3-2.4s-4.7-1.4-4.5-8.6c0-0.5,0.1-1,0.2-1.6c1.3,2.4,3.4,3,3.4,3
					s10,5.7,32.3,3c2.9-0.4,5.4-2.5,6-5.4l0-0.1C303.9,369.4,299.6,376.1,299.6,376.1z"/>
			</g>
			<path class="st4" d="M283.9,379.2c-13.5,0-20.2-3.3-21.4-3.9c-1.1-0.4-5.8-2.7-5.6-10.3c0.1-5.4,3.4-7.6,5.3-8.5
				c0.7-0.3,1.4-0.4,2.1-0.4c0.7,0,1.4,0.1,2.1,0.4c10.8,4.7,25.2,3.4,29.4,2.9c0.7-0.1,1.4,0,2.1,0.2c0.7,0.2,1.3,0.5,1.9,1
				c4.1,3.4,4.9,8.6,2.3,14.4c-0.4,0.8-0.9,1.5-1.7,2.1c-0.7,0.5-1.6,0.9-2.4,1C292.7,378.9,288,379.2,283.9,379.2z M264.4,359.7
				c-0.2,0-0.4,0-0.6,0.1c-2,0.9-3.1,2.7-3.2,5.3c-0.2,5.8,3.2,6.8,3.2,6.8c0.1,0,0.3,0.1,0.4,0.2c0.1,0.1,10.6,5.8,33.4,2.4
				c0.3,0,0.6-0.2,0.8-0.3c0.2-0.2,0.4-0.4,0.5-0.7c1.4-3,2.2-7.2-1.3-10.2c-0.2-0.1-0.4-0.2-0.6-0.3c-0.2-0.1-0.5-0.1-0.7-0.1
				c-4.4,0.5-19.6,1.8-31.2-3.2C264.8,359.7,264.6,359.7,264.4,359.7z"/>
			<path class="st1" d="M289.7,305.7l-5.9,10l-15.1,25.5l-0.5,0.8c-0.6-0.5-1.3-1-1.9-1.5c-28.8-22.6-54.5-51.7-57.7-53.3
				c-9.5-4.8-17.2-13.5-17.8-18.9c-1.2-10.1,12.5-25.7,14.7-28.1l0.3-0.3c0,0-11.9-16.6-4.1-22.1c8-5.6,27,21.2,28.3,22.8
				c2.4,3,8.3-11,16.6-10.2c9.9,1-3.1,22.3-2.3,24.6c0.9,2.7,7.8,12,19.8,25.1c1.1,1.2,2.3,2.5,3.5,3.7
				C273.8,290.4,281.2,297.8,289.7,305.7z"/>
			<g class="st2">
				<path class="st3" d="M268.7,341.2l-0.5,0.8c-0.6-0.5-1.3-1-1.9-1.5c-28.8-22.6-54.5-51.7-57.7-53.3
					c-9.5-4.8-17.2-13.5-17.8-18.9c-1.2-10.1,12.5-25.7,14.7-28.1c7.1,5.7,23.7,18.9,23.7,18.9S229,305.4,268.7,341.2z"/>
			</g>
			<path class="st4" d="M268.3,343.9c-0.4,0-0.8-0.1-1.2-0.4c-20-15.4-38.6-34.2-49.8-45.4c-4.5-4.5-8.7-8.7-9.6-9.3
				c-9.6-4.9-18.1-14-18.8-20.3c-1.2-10.2,10.9-24.7,14.5-28.9c-2.1-3.2-7.2-11.8-6.1-18.1c0.4-2.3,1.5-4.1,3.3-5.3
				c5.9-4.1,15.8,3.2,30.2,22.3l0.2,0.3c0.7-0.5,1.7-1.7,2.5-2.6c3.2-3.5,7.6-8.3,13.2-7.7c2.6,0.3,3.8,1.6,4.5,2.7
				c2.4,4-0.1,10.9-3.4,18.8c-0.7,1.8-1.6,3.9-1.8,4.7c1.6,3.9,16.9,23.8,44.8,49.6c0.4,0.3,0.6,0.8,0.6,1.3c0,0.5-0.2,1-0.5,1.4
				c-0.3,0.4-0.8,0.6-1.3,0.6c-0.5,0-1-0.2-1.4-0.5c-27.8-25.7-44.4-46.9-45.9-51.5c-0.4-1.3,0.2-2.8,1.9-7.1
				c1.8-4.4,5.2-12.7,3.6-15.4c-0.2-0.3-0.6-0.7-1.6-0.8c-3.8-0.4-7.2,3.4-10,6.5c-2.2,2.4-3.8,4.1-5.7,4.1c-0.4,0-0.8-0.1-1.2-0.3
				c-0.4-0.2-0.7-0.5-1-0.8c-0.1-0.1-0.4-0.5-0.7-0.9c-1.9-2.5-6.8-9.1-12.3-14.5c-6-5.9-10.6-8.5-12.7-7c-1,0.7-1.5,1.6-1.7,2.9
				c-0.9,5.1,4.2,13.7,6.3,16.6c0.3,0.4,0.4,0.8,0.3,1.2c0,0.4-0.2,0.8-0.5,1.2c-4.4,4.7-15.5,18.7-14.5,27
				c0.5,4.5,7.6,12.7,16.8,17.4c1.3,0.7,4,3.4,10.6,10c11.1,11.1,29.6,29.8,49.4,45c0.3,0.2,0.5,0.6,0.7,1c0.1,0.4,0.1,0.8,0,1.2
				c-0.1,0.4-0.4,0.7-0.7,0.9C269,343.8,268.7,343.9,268.3,343.9L268.3,343.9z"/>
			<path class="st1" d="M204.1,284.6c-2.3-1.5-4.4-3.1-6.3-5c-3.8-3.6-7.7-8.8-7-14.6c1.4-10.6,15-25.2,15-25.2
				c4-0.4,9.3,2.5,13.9,6.5c5.3,4.6,9.7,10.7,10,15C230,267.1,218.2,287.2,204.1,284.6z"/>
			<g class="st2">
				<path class="st3" d="M204.1,284.6c-2.3-1.5-4.4-3.1-6.3-5c3-0.6,7-2.4,11.3-7.2c9-9.9,13.3-17.2,10.5-26.1
					c5.3,4.6,9.7,10.7,10,15C230,267.1,218.2,287.2,204.1,284.6z"/>
			</g>
			<path class="st4" d="M204.8,282.8c0.2,0,0.5,0,0.7,0c0.1,0,0.3,0,0.4,0l0.5,0c0.3,0,0.6,0,1,0l0.5,0l0.5-0.1
				c1.3-0.2,2.6-0.5,3.8-1.1c2.5-1.1,4.7-2.8,6.7-4.7c2-2,3.8-4.2,5.3-6.7c0.8-1.2,1.4-2.4,2-3.7c0.6-1.3,1.1-2.6,1.4-3.8l0.1-0.5
				c0-0.1,0-0.3,0.1-0.4c0-0.1,0-0.2,0-0.4c0-0.1,0-0.3,0-0.4c0-0.5-0.2-1.2-0.4-1.8c-0.4-1.2-1.1-2.4-1.8-3.6
				c-1.5-2.4-3.4-4.5-5.4-6.5s-4.3-3.8-6.7-5.2c-1.2-0.7-2.4-1.3-3.7-1.7c-1.3-0.4-2.5-0.6-3.6-0.6l1.2-0.6
				c-1.5,1.6-2.9,3.3-4.3,5.1c-1.4,1.7-2.7,3.6-3.9,5.4c-1.2,1.8-2.4,3.7-3.4,5.7c-0.3,0.5-0.5,1-0.7,1.5l-0.3,0.7
				c-0.1,0.2-0.2,0.5-0.3,0.7c-0.2,0.5-0.4,1-0.6,1.5l-0.5,1.5c-0.1,0.2-0.1,0.5-0.2,0.7l-0.1,0.7c0,0.2-0.1,0.5-0.1,0.7l-0.1,0.7
				c0,1,0.1,1.9,0.3,2.8c0.5,1.9,1.5,3.7,2.7,5.4c1.2,1.7,2.7,3.3,4.3,4.7c0.8,0.7,1.6,1.4,2.5,2.1c0.4,0.3,0.9,0.7,1.3,1l0.7,0.5
				L204.8,282.8l0.2,0l0.1,0.1l0,0C205,282.9,204.9,282.8,204.8,282.8z M203.5,286.3c-0.1-0.1-0.3-0.1-0.4-0.2l-0.1,0l-0.1-0.1
				l-0.2-0.1l-0.4-0.2l-0.7-0.5c-0.5-0.3-1-0.7-1.4-1c-0.9-0.7-1.9-1.5-2.7-2.3c-1.8-1.6-3.4-3.3-4.9-5.3c-1.4-2-2.7-4.2-3.3-6.7
				c-0.3-1.3-0.5-2.6-0.4-3.9l0.1-1c0-0.3,0.1-0.6,0.2-0.9l0.2-0.9c0.1-0.3,0.1-0.6,0.2-0.9c1.3-4.8,3.8-8.8,6.3-12.7
				c2.6-3.8,5.5-7.5,8.6-10.9c0.3-0.3,0.7-0.6,1.2-0.6c1.9-0.1,3.6,0.2,5.2,0.7c1.5,0.5,3,1.2,4.4,2.1c2.7,1.6,5.2,3.6,7.4,5.7
				c2.3,2.2,4.3,4.5,6,7.2c0.9,1.4,1.6,2.8,2.2,4.4c0.3,0.8,0.5,1.7,0.6,2.6c0.1,0.5,0.1,1,0,1.5c0,0.2,0,0.5-0.1,0.7l-0.1,0.6
				c-0.4,1.7-1,3.2-1.6,4.6c-0.7,1.4-1.4,2.8-2.2,4.2c-1.7,2.7-3.6,5.1-5.9,7.4c-2.2,2.2-4.9,4.2-7.9,5.5c-1.5,0.7-3.1,1.1-4.8,1.4
				l-0.6,0.1l-0.6,0c-0.4,0-0.8,0-1.3,0l-0.6,0c-0.2,0-0.5,0-0.7-0.1C204.5,286.5,204,286.5,203.5,286.3z"/>
			<path class="st4" d="M234.5,314.3c-0.4,0-0.8-0.1-1.2-0.4c-0.3-0.3-0.6-0.6-0.7-1c-0.1-0.4-0.1-0.8,0.1-1.2
				c0.2-0.4,0.5-0.7,0.9-0.9c0.2-0.1,22-11.1,29.4-30.1c0.2-0.5,0.5-0.8,1-1c0.5-0.2,1-0.2,1.4,0c0.5,0.2,0.8,0.5,1,1
				c0.2,0.5,0.2,1,0,1.4c-8,20.4-30.3,31.7-31.2,32.1C235.1,314.2,234.8,314.3,234.5,314.3z"/>
			<path class="st1" d="M257.5,244.8l3.3,1.3c0.3,0.1,0.6,0.1,0.9,0c0.3-0.1,0.5-0.4,0.6-0.6l15.2-39.9c0.1-0.3,0.1-0.6,0-0.9
				c-0.1-0.3-0.4-0.5-0.6-0.6l-3.3-1.3c-1.5-0.6-3.1-0.8-4.7-0.8c-1.6,0-3.2,0.4-4.6,1.1c-1.4,0.7-2.8,1.6-3.8,2.7
				c-1.1,1.2-1.9,2.5-2.5,4l-7.4,19.5c-0.6,1.5-0.8,3.1-0.8,4.7c0,1.6,0.4,3.2,1.1,4.6c0.7,1.4,1.6,2.8,2.7,3.8
				C254.7,243.4,256.1,244.2,257.5,244.8z"/>
			<path class="st4" d="M261.3,246.5c-0.2,0-0.4,0-0.5-0.1l-3.3-1.3c-3.1-1.2-5.6-3.5-6.9-6.5s-1.5-6.4-0.3-9.5l7.4-19.5
				c0.6-1.5,1.5-2.9,2.6-4.1c1.1-1.2,2.5-2.1,4-2.8c1.5-0.7,3.1-1,4.7-1.1c1.6,0,3.3,0.2,4.8,0.8l3.3,1.3c0.4,0.1,0.7,0.4,0.8,0.8
				c0.2,0.4,0.2,0.8,0,1.1l-15.2,39.9c-0.1,0.3-0.3,0.5-0.6,0.7C261.9,246.4,261.6,246.5,261.3,246.5z M257.7,244.4l3.3,1.3
				c0.2,0.1,0.4,0.1,0.6,0c0.2-0.1,0.3-0.2,0.4-0.4l15.2-39.9c0.1-0.2,0.1-0.4,0-0.6c-0.1-0.2-0.2-0.3-0.4-0.4l-3.3-1.3
				c-2.9-1.1-6.1-1-9,0.3c-2.8,1.3-5.1,3.6-6.2,6.5l-7.4,19.5c-1.1,2.9-1,6.1,0.3,9S254.8,243.3,257.7,244.4z"/>
			<g class="st2">
				<path class="st3" d="M254.1,219.9l-2.4,6.3c-1.4,3.8-1.3,8,0.4,11.7c1.7,3.7,4.7,6.6,8.5,8c0.4,0.1,0.8,0.1,1.1,0
					c0.4-0.2,0.6-0.5,0.8-0.8l4-10.5c-0.2,0.2-0.5,0.3-0.7,0.4c-0.3,0.1-0.6,0-0.8-0.1l-0.9-0.4c-3-1.1-5.5-3.2-7.3-5.8
					C254.9,226.2,254,223,254.1,219.9z"/>
			</g>
			<path class="st4" d="M261.3,248c-0.4,0-0.7-0.1-1.1-0.2l-3.3-1.3c-7.2-2.7-10.9-10.9-8.1-18.1l7.4-19.5
				c2.7-7.2,10.9-10.9,18.1-8.1l3.3,1.3c0.8,0.3,1.4,0.9,1.7,1.6c0.3,0.7,0.4,1.6,0.1,2.4l-15.2,39.9c-0.2,0.6-0.6,1.1-1.1,1.4
				C262.5,247.9,261.9,248,261.3,248z M258.2,243l2.6,1l14.6-38.5l-2.6-1c-2.5-1-5.3-0.9-7.8,0.2c-2.5,1.1-4.4,3.1-5.3,5.7
				l-7.4,19.5c-1,2.5-0.9,5.3,0.2,7.8C253.7,240.1,255.7,242,258.2,243L258.2,243z"/>
			<path class="st1" d="M409.5,254.3l-3.3-1.3c-0.1-0.1-0.3-0.1-0.4-0.1c-0.2,0-0.3,0-0.4,0.1s-0.3,0.2-0.4,0.3
				c-0.1,0.1-0.2,0.2-0.2,0.4l-15.2,39.9c-0.1,0.3-0.1,0.6,0,0.9c0.1,0.3,0.4,0.5,0.6,0.6l3.3,1.3c1.5,0.6,3.1,0.8,4.7,0.8
				c1.6,0,3.2-0.4,4.6-1.1c1.4-0.7,2.8-1.6,3.8-2.7c1.1-1.2,1.9-2.5,2.5-4l7.4-19.5c0.6-1.5,0.8-3.1,0.8-4.7c0-1.6-0.4-3.2-1.1-4.6
				c-0.7-1.4-1.6-2.8-2.7-3.8C412.3,255.7,411,254.9,409.5,254.3z"/>
			<path class="st4" d="M397.8,297.5c-1.5,0-3-0.3-4.4-0.8l-3.3-1.3c-0.4-0.1-0.7-0.4-0.8-0.8c-0.2-0.4-0.2-0.8,0-1.1l15.2-39.9
				c0.1-0.4,0.4-0.7,0.8-0.8c0.4-0.2,0.8-0.2,1.1,0l3.3,1.3c3.1,1.2,5.6,3.5,6.9,6.5s1.5,6.4,0.3,9.5l-7.4,19.5
				c-0.9,2.4-2.5,4.4-4.6,5.8C402.8,296.7,400.3,297.5,397.8,297.5L397.8,297.5z M405.7,253.3c-0.2,0-0.3,0.1-0.5,0.1
				c-0.1,0.1-0.2,0.2-0.3,0.4l-15.2,39.9c-0.1,0.2-0.1,0.4,0,0.6s0.2,0.3,0.4,0.4l3.3,1.3c1.4,0.5,3,0.8,4.5,0.8
				c1.5,0,3.1-0.4,4.5-1c1.4-0.6,2.7-1.5,3.7-2.7c1.1-1.1,1.9-2.4,2.4-3.9l7.4-19.5c1.1-2.9,1-6.1-0.3-9c-1.3-2.8-3.6-5.1-6.5-6.2
				l-3.3-1.3C405.9,253.3,405.8,253.3,405.7,253.3z"/>
			<g class="st2">
				<path class="st3" d="M393.8,282.4l-4.1,10.9c-0.1,0.4-0.1,0.8,0,1.1c0.2,0.4,0.5,0.6,0.8,0.8c1.9,0.7,3.9,1.1,5.9,1
					c2-0.1,4-0.5,5.8-1.3c1.8-0.8,3.5-2,4.9-3.5s2.5-3.2,3.2-5.1l2.1-5.7c-2.1,2.1-4.7,3.5-7.6,4.1c-2.9,0.6-5.9,0.4-8.6-0.7
					l-1.4-0.5c-0.2-0.1-0.5-0.3-0.6-0.5C393.9,282.9,393.8,282.7,393.8,282.4z"/>
			</g>
			<path class="st4" d="M397.8,299.1c-1.7,0-3.4-0.3-5-0.9l-3.3-1.3c-0.4-0.1-0.7-0.4-1-0.6c-0.3-0.3-0.5-0.6-0.7-1
				c-0.2-0.4-0.3-0.8-0.3-1.2c0-0.4,0.1-0.8,0.2-1.2l15.2-39.9c0.1-0.4,0.4-0.7,0.6-1c0.3-0.3,0.6-0.5,1-0.7
				c0.4-0.2,0.8-0.3,1.2-0.3c0.4,0,0.8,0.1,1.2,0.2l3.3,1.3c3.5,1.3,6.3,4,7.8,7.4c1.5,3.4,1.6,7.3,0.3,10.7l-7.4,19.5
				c-1,2.7-2.8,5-5.1,6.6C403.4,298.2,400.6,299.1,397.8,299.1L397.8,299.1z M391.6,293.6l2.6,1c2.5,1,5.3,0.9,7.8-0.2
				c2.5-1.1,4.4-3.1,5.3-5.7l7.4-19.5c1-2.5,0.9-5.3-0.2-7.8c-1.1-2.5-3.1-4.4-5.7-5.3l-2.6-1L391.6,293.6z"/>
			<g class="st2">
				<path class="st3" d="M358,326.1c-9,4.6-19,7-29.2,7.1c-10.1,0.1-20.2-2.2-29.3-6.7c-9.1-4.5-17.1-11-23.2-19
					c-6.2-8-10.4-17.4-12.3-27.4c1.1,1.2,2.3,2.5,3.5,3.7c-0.2-1.5-0.4-3-0.6-4.4c-0.9-5,0.7-5.1,1-10.2c0.3-5,19.1-5.2,38-2.2
					c13.9,2.9,34.2,5.6,38.1,16.9c0.2,2.5,1.4,5.7,2.2,8l2,19.5C350.8,315,354.2,320.2,358,326.1z"/>
			</g>
			<path class="st1" d="M333.5,321.3c39.6,0,71.7-32.1,71.7-71.7c0-39.6-32.1-71.7-71.7-71.7s-71.7,32.1-71.7,71.7
				C261.8,289.1,293.9,321.3,333.5,321.3z"/>
			<path class="st4" d="M333.5,321.6c-7,0-14-1-20.7-3.1c-18.4-5.5-33.6-17.9-42.7-34.9c-9.1-17-11.1-36.4-5.6-54.9
				c5.5-18.4,17.9-33.6,34.9-42.7c17-9.1,36.4-11.1,54.9-5.6c38.1,11.4,59.7,51.7,48.3,89.8C393.2,301.4,364.5,321.6,333.5,321.6z
				 M333.4,178.1c-11.6,0-23.2,2.9-33.7,8.6c-16.8,9-29.1,24.1-34.5,42.3c-5.5,18.3-3.5,37.6,5.5,54.4c9,16.8,24.1,29.1,42.3,34.5
				c6.6,2,13.6,3,20.5,3c30.7,0,59.1-20,68.4-50.9c11.3-37.7-10.1-77.6-47.8-88.9C347.3,179.1,340.4,178.1,333.4,178.1z"/>
			<g class="st2">
				<path class="st3" d="M268.3,219.6c-1.4,3-2.6,6.1-3.5,9.3c-11.4,37.9,10.1,77.9,48.1,89.3c37.9,11.4,77.9-10.1,89.3-48.1
					c0.3-1.1,0.6-2.2,0.9-3.3c-14.7,32.1-51.1,49.2-85.8,38.7C280.4,294.6,259.1,256.5,268.3,219.6z"/>
			</g>
			<path class="st4" d="M333.5,323.2c-7.2,0-14.3-1.1-21.2-3.1c-18.8-5.7-34.4-18.3-43.7-35.7c-9.3-17.3-11.3-37.3-5.7-56.1
				c11.7-38.9,52.8-61,91.7-49.4c38.9,11.7,61,52.8,49.4,91.7C394.5,302.6,365.1,323.2,333.5,323.2z M333.5,179.7
				c-30,0-57.8,19.5-66.9,49.7c-5.4,17.9-3.5,36.7,5.4,53.1c8.8,16.4,23.5,28.4,41.4,33.8c6.5,2,13.3,3,20,3
				c30,0,57.8-19.5,66.9-49.7c11.1-36.9-9.9-75.9-46.8-86.9C347.1,180.7,340.3,179.7,333.5,179.7z"/>
			<path class="st4" d="M264.5,230.7c-4.2,13.4-3.8,27.2,0.3,39.8c3.1,9.5,21.7,30.2,49.9,39.4c26.1,8.5,54.4,2.1,62.4-3.8
				c10.7-7.9,19-19,23.2-32.4c11.2-35.4-14.5-59.7-52.1-71.6C310.8,190.3,275.7,195.3,264.5,230.7z"/>
			<path class="st4" d="M342,316.1c-8.9,0-18.4-1.2-27.8-4.3c-29.9-9.8-48.1-31.3-51.2-40.7c-4.5-13.5-4.6-27.7-0.3-41
				c5.5-17.4,16.7-28.6,33.4-33.3c14.5-4.1,32.8-2.9,52.9,3.5c20.1,6.4,35.8,15.9,45.2,27.6c10.9,13.4,13.6,29,8.1,46.4
				c-4.2,13.3-12.5,24.9-23.9,33.3C372.8,311.8,358.7,316.1,342,316.1z M314.5,198.3c-6.3,0-12.1,0.7-17.4,2.2
				c-15.3,4.3-25.6,14.7-30.7,30.7c-4,12.6-3.9,25.9,0.3,38.6c2.8,8.4,20.5,29,48.7,38.2c25.5,8.3,53,2.1,60.7-3.5
				c10.7-8,18.5-18.8,22.5-31.4c13.8-43.5-30.9-62.9-50.8-69.2C335.8,200.2,324.6,198.3,314.5,198.3z"/>
			<g class="st8">
				<path class="st9" d="M297.2,234.1c0.9-7-2.5-13.1-7.5-13.8c-5-0.6-9.8,4.5-10.7,11.4c-0.9,7,2.5,13.1,7.5,13.8
					C291.5,246.2,296.3,241,297.2,234.1z"/>
			</g>
			<g class="st8">
				<path class="st9" d="M291.3,266.1c2.8,0,5-2.7,4.9-5.9c0-3.2-2.3-5.8-5.1-5.8c-2.8,0-5,2.7-4.9,5.9
					C286.3,263.6,288.6,266.1,291.3,266.1z"/>
			</g>
			<g class="st5">
				<path class="st10" d="M288.2,201.9c-10.8,5.3-19.2,14.6-23.7,28.8c-4.2,13.4-3.8,27.2,0.3,39.8c3.1,9.5,21.7,30.2,49.9,39.4
					c10,3.3,20.2,4.3,29.6,4.1c-34.4-12.1-57-37.5-60.9-49.2c-5.3-16-5.8-33.5-0.4-50.5C284.3,210,286.1,205.9,288.2,201.9z"/>
			</g>
			<path class="st4" d="M404.8,243.9c-0.4,0-0.8-0.1-1.1-0.3c-0.3-0.2-0.6-0.5-0.7-0.9l0-0.1l-0.1-0.2c-6-20.2-25.2-36.8-52.6-45.5
				c-27.3-8.6-52.4-6.4-69,6l-0.2,0.2l-0.2,0.1c-0.4,0.2-0.9,0.2-1.4,0c-0.4-0.2-0.8-0.5-1-0.9c-0.2-0.4-0.3-0.9-0.2-1.4
				c0.1-0.5,0.4-0.9,0.8-1.1c17.6-13.2,44-15.6,72.4-6.6c28.6,9.1,48.7,26.6,55.2,48.1c0.1,0.3,0.1,0.6,0.1,0.9
				c-0.1,0.3-0.2,0.6-0.4,0.8c-0.2,0.2-0.4,0.4-0.7,0.6C405.4,243.8,405.1,243.9,404.8,243.9L404.8,243.9z"/>
			<g class="st8">
				<path class="st9" d="M378.5,290c0,0,22-31.5,7.6-51.3c-14.4-19.9-41.5-28.4-41.4-26.5c0,0,27.7,16.8,31.9,44.2
					C379.8,277.5,378.5,290,378.5,290z"/>
			</g>
		</g>
	</g>
</g>
<path class="st11" d="M90.9,223.8c-0.1,0.9,1.8,1.9,4.6,2.5c0.7,0.2,1.3,0.5,1.8,1.1c0.5,0.5,0.8,1.2,0.8,1.9c0.3,2.9,1,4.9,1.9,4.9
	c0.9,0.1,1.9-1.8,2.5-4.6c0.2-0.7,0.5-1.3,1.1-1.8c0.5-0.5,1.2-0.8,1.9-0.8c2.9-0.3,4.9-1,4.9-1.9s-1.8-1.9-4.6-2.5
	c-0.7-0.2-1.3-0.5-1.8-1.1c-0.5-0.5-0.8-1.2-0.8-1.9c-0.3-2.9-1-4.9-1.9-4.9c-0.9-0.1-1.9,1.8-2.5,4.6c-0.2,0.7-0.5,1.3-1.1,1.8
	c-0.5,0.5-1.2,0.8-1.9,0.8C92.9,222.2,90.9,222.8,90.9,223.8z"/>
<path class="st12" d="M152.1,68.5c-1.7-0.8-2.4-2.9-1.6-4.6c0.8-1.7,2.9-2.4,4.6-1.6c1.7,0.8,2.4,2.9,1.6,4.6S153.9,69.4,152.1,68.5
	z"/>
<path class="st12" d="M448.1,49.5c-1.7-0.8-2.4-2.9-1.6-4.6s2.9-2.4,4.6-1.6c1.7,0.8,2.4,2.9,1.6,4.6
	C451.9,49.6,449.9,50.4,448.1,49.5z"/>
<path class="st12" d="M56.8,95.1c-0.9-0.5-1.3-1.6-0.9-2.5c0.5-0.9,1.6-1.3,2.5-0.9c0.9,0.5,1.3,1.6,0.9,2.5
	C58.9,95.2,57.8,95.6,56.8,95.1z"/>
<path class="st13" d="M502,330.5L502,330.5c1,0.4,1.8,1.1,2.4,2c0.6,0.9,0.8,1.9,0.7,3c-0.1,1.6-0.1,2.9,0.1,3.7
	c0.1,0.3,0.1,0.6,0.2,0.7c0.1-0.1,0.3-0.3,0.5-0.6c0.5-0.7,1.1-1.8,1.7-3.3l0,0c0.4-1,1.1-1.8,2-2.4c0.9-0.6,1.9-0.8,3-0.7
	c1.6,0.1,2.9,0.1,3.7-0.1c0.3-0.1,0.6-0.1,0.7-0.2c-0.1-0.1-0.3-0.3-0.6-0.5c-0.7-0.5-1.8-1.2-3.3-1.7l0,0c-1-0.4-1.8-1.1-2.4-2
	c-0.6-0.9-0.8-1.9-0.7-3c0.1-1.6,0.1-2.9-0.1-3.7c-0.1-0.3-0.1-0.6-0.2-0.7c-0.1,0.1-0.3,0.3-0.5,0.6c-0.5,0.7-1.1,1.8-1.7,3.3l0,0
	c-0.4,1-1.1,1.8-2,2.4l-0.6-1l0.6,1c-0.9,0.6-1.9,0.8-3,0.7l0,0c-1.6-0.1-2.8-0.1-3.7,0.1c-0.3,0.1-0.6,0.1-0.7,0.2
	c0.1,0.1,0.3,0.3,0.6,0.5C499.4,329.3,500.6,329.9,502,330.5z M505.5,340.1C505.5,340.1,505.5,340.1,505.5,340.1
	C505.5,340.1,505.5,340.1,505.5,340.1z M505.2,340C505.2,340,505.2,340,505.2,340C505.2,340,505.2,340,505.2,340z M517.3,332.5
	C517.3,332.5,517.3,332.5,517.3,332.5C517.3,332.5,517.3,332.5,517.3,332.5z M517.2,332.8C517.2,332.8,517.2,332.8,517.2,332.8
	C517.2,332.8,517.2,332.8,517.2,332.8z M509.8,320.7C509.8,320.7,509.8,320.7,509.8,320.7C509.8,320.7,509.8,320.7,509.8,320.7z
	 M510,320.8C510.1,320.8,510.1,320.8,510,320.8C510.1,320.8,510.1,320.8,510,320.8z M498,328.3C498,328.3,498,328.3,498,328.3
	C498,328.3,498,328.3,498,328.3z M498,328C498,328,498,328,498,328C498,328,498,328,498,328z"/>
</svg>
