<svg width="61" height="45" viewBox="0 0 61 45" fill="none" xmlns="http://www.w3.org/2000/svg">
<g clip-path="url(#clip0_2227_1706)">
<path fill-rule="evenodd" clip-rule="evenodd" d="M58.1619 13.5852C57.54 13.5427 56.8632 13.4705 56.1553 13.243C53.7504 12.4725 51.2529 10.3147 50.1869 9.39255C48.8397 8.229 46.0795 6.98499 42.3695 6.98499C42.0004 6.98499 41.6258 6.99701 41.2485 7.02199L41.309 6.56693L40.8611 6.21638C40.7668 6.14239 40.2576 5.77335 39.5295 5.77335C39.3738 5.77335 39.2172 5.79092 39.0643 5.82422L38.3802 5.97591L36.3113 23.8166C35.825 23.9369 35.2444 24.1857 34.7883 24.6981C34.5676 24.946 34.4 25.1679 34.2718 25.3622L31.0884 25.0079C31.8018 24.3364 32.573 23.4504 33.1875 22.3488C33.8496 22.0269 35.1107 21.1954 35.7032 19.3502C36.4569 17.0028 36.1135 15.115 35.6922 13.945C35.3268 12.9313 34.6922 12.4013 34.1372 12.1525C33.7983 11.198 32.9201 9.20387 31.0619 7.4826C28.7283 5.32106 25.9662 4.22504 22.8515 4.22504C22.7654 4.22504 22.6784 4.22504 22.5914 4.22781C18.7999 4.3018 16.1056 6.32275 15.3702 6.94059C13.9324 8.14854 12.7967 9.67187 11.989 11.4745C10.7279 11.7742 8.02991 12.9664 6.71937 17.7159L6.71296 17.7418C6.65801 17.9638 5.41616 23.2413 9.65091 28.6373C9.77546 28.8001 11.2628 30.7156 13.5202 32.2371C12.74 33.7826 11.2142 37.3029 10.5704 42.2715L10.4843 42.7543C8.97961 43.3962 7.53262 44.1482 6.15248 45C11.39 43.005 17.1808 41.8951 23.2728 41.8951C29.3648 41.8951 35.1556 43.005 40.3931 45C39.2749 44.31 38.1128 43.6857 36.9121 43.1326L38.4516 30.8932C39.6257 30.7544 40.5177 30.0423 40.8785 28.9287C41.32 27.5672 41.2778 26.3666 40.7549 25.4556C40.5104 25.0292 40.0616 24.5057 39.252 24.1533L39.5368 21.681C40.3171 21.7383 41.5443 21.9973 42.8485 22.9213C43.5124 23.3921 44.1434 23.9239 44.812 24.4863C46.5859 25.9809 48.4203 27.5265 50.9681 27.9575C51.9197 28.1184 52.8996 28.1998 53.8813 28.1998C55.7111 28.1998 56.9319 27.9159 56.9832 27.9029L57.3669 27.8123L57.5822 27.4793C57.6307 27.4053 58.77 25.611 59.6455 21.5756C60.4954 17.6558 60.7857 14.5083 60.7976 14.376L60.9991 12.4993C60.9991 12.4993 59.5768 13.6814 58.161 13.5843L58.1619 13.5852ZM56.4905 26.5766C56.1031 26.6552 55.0847 26.8337 53.8007 26.8337C52.2887 26.8337 50.0908 26.5794 48.2087 25.3696C47.4083 24.8553 46.6537 24.2097 45.8542 23.5271C43.996 21.94 42.0755 20.2992 39.4462 20.2603C39.7686 19.7137 40.1953 18.8554 40.5461 17.6854C41.1148 15.7884 41.5837 12.6723 40.6697 8.47596C41.0397 8.43526 41.6258 8.38716 42.3383 8.38716C44.4466 8.38716 47.4111 8.7895 49.5632 10.7087C52.7127 13.5168 55.6791 15.0012 58.1408 15.0012C58.5575 15.0012 58.9586 14.9578 59.3387 14.8708C59.1235 16.8613 58.3121 23.245 56.4896 26.5766H56.4905ZM16.2897 29.9451C16.3712 29.8351 16.3492 29.6797 16.2402 29.5974C16.1312 29.5151 15.9774 29.5373 15.8959 29.6473C15.8831 29.6649 15.3986 30.3271 14.7429 31.5304C10.3002 28.8343 7.55734 24.1061 7.74417 19.4372C7.86506 16.4182 9.65274 13.5593 11.9038 12.7888C12.5605 12.5641 13.0165 12.5521 13.2208 12.7555C13.4085 12.9415 13.5376 13.4594 13.0898 14.8662C12.6026 16.396 10.9495 17.5818 10.9331 17.5929C10.8222 17.6715 10.7948 17.8269 10.8726 17.9388C10.9505 18.0507 11.1034 18.0784 11.2151 17.9998C11.2508 17.9739 11.6868 17.6622 12.185 17.1517C12.1896 17.2802 12.1969 17.4134 12.2079 17.5522C12.1502 17.6761 12.0879 17.7963 12.0284 17.9129C11.9121 18.1404 11.8013 18.3559 11.7436 18.5529L11.7335 18.5862C11.4368 19.587 10.9898 21.0983 12.457 23.3264C13.8545 25.4482 16.0415 25.6017 16.6478 25.6017C16.678 25.6017 16.7027 25.6017 16.7256 25.6008C18.5078 26.805 20.6462 27.4978 22.9275 27.4978C24.9469 27.4978 26.8921 26.941 28.5772 25.9384L34.8158 26.6228L34.9806 26.6404L35.0329 26.4813C35.0548 26.4129 35.5787 24.8498 36.9606 24.8914L36.8443 25.8894C36.7161 25.9273 36.5888 25.9735 36.4661 26.0272C35.7719 26.3343 35.4431 27.5838 35.5384 28.5661C35.5613 28.8047 35.608 29.0165 35.6767 29.1987L29.472 31.3057C28.9939 30.131 28.6679 29.4198 28.6587 29.3994C28.601 29.2755 28.4554 29.2209 28.3318 29.2792C28.2091 29.3375 28.155 29.4845 28.2127 29.6094C28.2393 29.6677 30.8494 35.3624 32.1901 41.3845C29.7458 40.6899 27.1861 40.2746 24.5467 40.1729C24.195 39.5088 23.5778 38.545 22.5869 37.5951C23.042 37.0328 23.3479 36.7414 23.3552 36.735C23.4541 36.6415 23.4606 36.4843 23.3681 36.3844C23.2756 36.2845 23.1199 36.278 23.021 36.3715C22.9587 36.4307 21.5703 37.7487 20.2588 40.2866C17.3163 40.5567 14.4864 41.2199 11.8187 42.2216C12.7793 34.7538 16.2549 29.9932 16.2897 29.9461V29.9451ZM34.7691 18.0655C34.4183 20.1447 33.214 21.1436 32.29 21.3675C31.8669 21.4701 31.6214 21.3832 31.5601 21.2999C31.2258 20.8467 31.1104 19.4963 31.2505 17.6881C31.4181 16.1037 32.0226 13.4983 32.9301 13.2384C33.291 13.1357 33.6518 13.2347 33.9732 13.5269C34.6281 14.1207 35.1803 15.6246 34.7682 18.0655H34.7691ZM32.7973 12.7611C31.2734 13.1967 30.81 17.1859 30.7624 17.64V17.6465C30.6726 18.7953 30.6058 20.8366 31.1663 21.5968C31.3183 21.8031 31.5903 21.9113 31.9319 21.9113C31.9795 21.9113 32.029 21.9085 32.0793 21.9039C30.135 25.1087 26.6632 27.0844 22.9275 27.0844C20.7213 27.0844 18.6525 26.411 16.9326 25.2419C16.917 25.2271 16.8996 25.2151 16.8804 25.2059C15.1513 24.0164 13.7785 22.3229 12.9772 20.3093C13.915 22.1185 15.8931 23.8731 19.9539 24.4382C19.9988 24.4447 20.6059 24.5334 21.5117 24.5334C22.2562 24.5334 23.2014 24.4733 24.2024 24.2587C27.1943 23.6159 29.2119 21.8882 30.038 19.2605C31.049 16.0427 30.9126 13.3299 29.6423 11.4153C28.4628 9.63673 26.3106 8.5666 23.4193 8.32335C17.2769 7.80447 15.0194 9.45452 13.4442 12.3005C13.3215 12.2145 13.1759 12.1581 13.0074 12.1322C14.6504 8.10414 18.5939 5.42003 22.9285 5.42003C27.5405 5.42003 31.572 8.33537 33.0657 12.7093C32.9759 12.7186 32.8871 12.7343 32.7973 12.7602V12.7611ZM23.3516 9.1493C23.4258 9.15577 23.499 9.16225 23.5723 9.16964C23.3726 9.83281 23.0164 11.247 23.0594 12.7999C23.118 14.9467 24.8425 13.0783 26.3289 13.6971C27.8153 14.3159 25.7739 15.9521 26.6925 17.1434C27.4471 18.1219 27.7383 20.4638 27.7228 21.5894C26.8134 22.4912 25.588 23.1128 24.0549 23.4457C23.9093 23.4772 23.7655 23.5049 23.6227 23.5299C23.6071 22.198 23.3699 18.8027 21.3926 17.9998C19.1617 17.0943 21.2076 14.5675 19.996 13.3327C18.7835 12.097 18.3219 16.2989 15.808 15.5525C14.1522 15.0614 14.3509 13.1274 14.6806 11.863C16.1166 9.78656 18.2724 8.72106 23.3525 9.15022L23.3516 9.1493ZM27.8446 13.4983C27.9096 13.0386 28.3318 12.7195 28.787 12.7861C29.2421 12.8517 29.5581 13.2781 29.4921 13.7378C29.4262 14.1975 29.0049 14.5166 28.5498 14.45C28.0946 14.3843 27.7786 13.9579 27.8446 13.4983ZM16.8859 18.552C16.776 19.3225 16.069 19.8561 15.307 19.7451C14.5441 19.6342 14.0157 18.9201 14.1256 18.1506C14.2355 17.3801 14.9425 16.8465 15.7045 16.9574C16.4674 17.0684 16.9958 17.7825 16.8859 18.552ZM37.8691 25.7146C37.6832 25.7275 37.4781 25.7506 37.2693 25.7895L39.4645 6.97204C39.7484 6.95447 39.9453 7.04788 40.0433 7.1117L37.8691 25.7146ZM35.3149 42.4472L36.7702 30.0062C36.9469 30.045 37.142 30.0839 37.348 30.1144L35.8763 42.6766C35.6904 42.598 35.5027 42.5222 35.3149 42.4472ZM36.6502 29.4707L36.5064 29.4383C36.2564 29.3819 36.0769 29.0387 36.0274 28.5198C35.9441 27.655 36.2527 26.6654 36.663 26.4841C37.5147 26.1077 38.6641 26.2112 38.6751 26.2122C38.8097 26.2251 38.9306 26.1252 38.9434 25.9883C38.9562 25.8515 38.8573 25.7303 38.7218 25.7173C38.7035 25.7155 38.5349 25.7007 38.2831 25.7007L38.3591 25.0505C39.3161 25.2715 40.2237 25.8024 39.9013 27.8946C39.7924 28.6022 39.5314 29.1025 39.1247 29.3809C38.4049 29.8748 37.349 29.6316 36.6502 29.4707ZM22.3597 39.1259C22.618 39.4339 22.8927 39.7872 23.1373 40.1488C22.6565 40.1507 22.1775 40.1636 21.7013 40.1858C21.8679 39.8899 22.0822 39.5365 22.3597 39.1259ZM33.4943 41.6093C33.4494 41.4039 32.4502 36.8348 30.6241 32.1649L35.5173 30.5195L35.4431 31.1383L34.107 41.994C33.9137 41.9256 33.7196 41.859 33.5245 41.7952L33.4934 41.6093H33.4943Z" fill="#001034"/>
<path fill-rule="evenodd" clip-rule="evenodd" d="M53.2833 18.072C53.1697 17.9749 53.058 17.8768 52.9454 17.7778L51.9251 16.8835C50.501 15.6367 49.0769 14.3899 47.6538 13.1412C47.4285 12.9433 47.1958 12.8934 46.9632 12.9933C46.8057 13.0608 46.6134 13.2115 46.5868 13.5501C46.3881 16.0677 46.1884 18.5853 45.9879 21.1029C45.9613 21.4396 46.1271 21.6153 46.2718 21.7032C46.5035 21.8447 46.7544 21.8308 46.977 21.6634C47.1354 21.5441 47.2966 21.4266 47.4569 21.3101L48.3937 20.6238C48.6227 21.1926 48.8535 21.7615 49.0843 22.3294C49.2042 22.6244 49.4002 22.7761 49.653 22.7761C49.7519 22.7761 49.8591 22.753 49.9735 22.7058C50.5038 22.4875 51.0331 22.2692 51.5634 22.05C51.9728 21.8808 52.1065 21.5598 51.9389 21.1455L51.2502 19.4436L51.5616 19.3965C52.0277 19.3262 52.4948 19.2559 52.9609 19.1883C53.308 19.1384 53.4463 18.9303 53.5004 18.7638C53.5837 18.5076 53.5068 18.2616 53.2842 18.071L53.2833 18.072ZM53.0324 18.6093C53.0223 18.6408 53.0095 18.6796 52.8913 18.6972C52.4234 18.7647 51.9563 18.835 51.4883 18.9062L51.0817 18.9673C51.0341 18.9747 50.9873 18.983 50.9351 18.9913L50.5743 19.0533L50.6989 19.3881C50.7126 19.4261 50.7254 19.4603 50.7392 19.4936L51.4837 21.3332C51.5497 21.496 51.5378 21.5247 51.3775 21.5904C50.8481 21.8086 50.3179 22.0278 49.7885 22.2452C49.6338 22.309 49.6026 22.297 49.5394 22.1407C49.2903 21.5284 49.0421 20.9152 48.7958 20.3029C48.793 20.2955 48.7885 20.2714 48.7857 20.2539C48.7821 20.2344 48.7793 20.215 48.7747 20.1965L48.7289 19.9819L48.3901 20.0115L47.1675 20.9068C47.0054 21.0252 46.8433 21.1436 46.683 21.2639C46.6143 21.3157 46.5786 21.3101 46.5246 21.2768C46.4971 21.2602 46.4687 21.2426 46.4769 21.1418C46.6775 18.6241 46.8771 16.1065 47.0759 13.5889C47.0841 13.4798 47.1208 13.464 47.1537 13.4502C47.1876 13.4363 47.2224 13.4215 47.3305 13.5158C48.7537 14.7635 50.1778 16.0113 51.6019 17.258L52.6221 18.1515C52.7356 18.2514 52.8492 18.3513 52.9646 18.4503C53.0571 18.5298 53.0424 18.5733 53.0315 18.6093H53.0324Z" fill="#001034"/>
<path fill-rule="evenodd" clip-rule="evenodd" d="M27.5845 33.9103L27.6184 29.4873C27.6239 29.4697 27.6275 29.4512 27.6275 29.4309C27.6275 29.4105 27.6239 29.393 27.6193 29.3745L27.6284 28.1933L18.7313 28.123L18.7221 29.356C18.7221 29.356 18.7221 29.3587 18.7221 29.3606C18.7221 29.3624 18.7221 29.3634 18.7221 29.3652L18.6873 33.84L27.5845 33.9103ZM19.1003 33.4293L19.1306 29.5705L27.2081 29.6344L27.1779 33.4922L19.1003 33.4284V33.4293ZM27.2154 28.604L27.2108 29.22L19.1333 29.1562L19.1379 28.5402L27.2154 28.604Z" fill="#001034"/>
<path fill-rule="evenodd" clip-rule="evenodd" d="M22.6739 30.3854L19.7524 30.3623H19.7515C19.6388 30.3623 19.5473 30.4538 19.5463 30.5676C19.5463 30.6823 19.6361 30.7757 19.7496 30.7757L22.6711 30.7988H22.6729C22.7856 30.7988 22.8772 30.7073 22.8781 30.5935C22.8781 30.4788 22.7883 30.3854 22.6748 30.3854H22.6739Z" fill="#001034"/>
<path fill-rule="evenodd" clip-rule="evenodd" d="M22.6665 31.3029L19.7451 31.2798H19.7432C19.6306 31.2798 19.539 31.3714 19.5381 31.4851C19.5381 31.5998 19.6278 31.6932 19.7414 31.6932L22.6629 31.7163H22.6647C22.7774 31.7163 22.8689 31.6248 22.8698 31.511C22.8698 31.3963 22.7801 31.3029 22.6665 31.3029Z" fill="#001034"/>
<path fill-rule="evenodd" clip-rule="evenodd" d="M22.6592 32.2195L19.7377 32.1964H19.7359C19.6233 32.1964 19.5317 32.2879 19.5308 32.4017C19.5308 32.5164 19.6205 32.6098 19.7341 32.6098L22.6555 32.6329H22.6565C22.7691 32.6329 22.8607 32.5414 22.8616 32.4276C22.8616 32.3129 22.7719 32.2195 22.6583 32.2195H22.6592Z" fill="#001034"/>
<path fill-rule="evenodd" clip-rule="evenodd" d="M25.2418 30.1264C25.2418 30.1264 25.2345 30.1264 25.2308 30.1264C24.4698 30.1264 23.8479 30.7489 23.8415 31.5184C23.8388 31.893 23.9807 32.2463 24.2408 32.5136C24.5009 32.7809 24.8489 32.9299 25.2198 32.9326C25.2235 32.9326 25.2272 32.9326 25.2308 32.9326C25.9919 32.9326 26.6137 32.3102 26.6201 31.5406C26.6229 31.166 26.4809 30.8127 26.2208 30.5454C25.9607 30.2781 25.6127 30.1292 25.2418 30.1264ZM25.2235 32.5183C24.9616 32.5164 24.7171 32.411 24.533 32.2232C24.3498 32.0345 24.2491 31.7857 24.2518 31.5212C24.2564 30.9783 24.6942 30.5399 25.2308 30.5399C25.2336 30.5399 25.2363 30.5399 25.2382 30.5399C25.5001 30.5417 25.7446 30.6472 25.9287 30.8349C26.1119 31.0236 26.2126 31.2724 26.2098 31.5369C26.2053 32.0826 25.7629 32.5257 25.2226 32.5183H25.2235Z" fill="#001034"/>
<path d="M44.8129 24.4863C44.1443 23.923 43.5133 23.3912 42.8494 22.9213C41.5452 21.9973 40.319 21.7383 39.5378 21.681L39.2529 24.1533C40.0625 24.5057 40.5104 25.0292 40.7558 25.4556C41.2778 26.3657 41.3209 27.5672 40.8794 28.9286C40.5186 30.0413 39.6266 30.7544 38.4525 30.8932L36.913 43.1326C37.3261 43.3231 37.7336 43.5257 38.1375 43.732C43.4437 39.7974 47.0887 33.7114 47.8067 26.7449C46.7251 26.0956 45.7598 25.2845 44.812 24.4863H44.8129Z" fill="#007689"/>
<path d="M9.2507 43.313C9.65823 43.1187 10.0694 42.9319 10.4852 42.7543L10.5713 42.2715C11.2151 37.3028 12.74 33.7817 13.5212 32.2361C11.2637 30.7156 9.77637 28.8001 9.65182 28.6364C5.41616 23.2404 6.65893 17.9628 6.71387 17.7408L6.72028 17.7149C8.03082 12.9655 10.7288 11.7733 11.9899 11.4736C12.7977 9.67093 13.9333 8.14852 15.3711 6.93965C16.1065 6.32181 18.7999 4.30087 22.5924 4.22687C22.6794 4.22502 22.7654 4.2241 22.8524 4.2241C25.9672 4.2241 28.7293 5.32012 31.0628 7.48166C32.9219 9.20293 33.7992 11.197 34.1381 12.1516C34.6922 12.3994 35.3277 12.9303 35.6932 13.9441C36.1144 15.1141 36.4588 17.0018 35.7041 19.3493C35.1116 21.1945 33.8505 22.026 33.1884 22.3478C32.573 23.4494 31.8028 24.3355 31.0893 25.007L34.2727 25.3612C34.4009 25.1661 34.5694 24.9441 34.7892 24.6962C35.2453 24.1838 35.826 23.935 36.3123 23.8148L38.3811 5.97404L39.0652 5.82235C39.2099 5.78998 39.3592 5.77426 39.5066 5.77241C35.3213 2.17448 29.8969 0 23.9688 0C10.7316 0 0 10.8382 0 24.2069C0 31.9725 3.62115 38.8835 9.2507 43.313Z" fill="#007689"/>
<path fill-rule="evenodd" clip-rule="evenodd" d="M33.4952 41.6093C33.4503 41.4039 32.4512 36.8348 30.625 32.1649L35.5182 30.5195L35.4441 31.1383L34.1079 41.994C33.9146 41.9256 33.7205 41.859 33.5254 41.7952L33.4943 41.6093H33.4952Z" fill="#007689"/>
<path fill-rule="evenodd" clip-rule="evenodd" d="M22.3597 39.1259C22.618 39.4339 22.8927 39.7872 23.1373 40.1488C22.6565 40.1507 22.1775 40.1636 21.7013 40.1858C21.8679 39.8898 22.0822 39.5365 22.3597 39.1259Z" fill="#007689"/>
</g>
<defs>
<clipPath id="clip0_2227_1706">
<rect width="61" height="45" fill="white"/>
</clipPath>
</defs>
</svg>
