<svg width="750" height="219" viewBox="0 0 750 219" fill="none" xmlns="http://www.w3.org/2000/svg">
<path d="M679.941 166.035C682.969 158.814 674.473 90.6579 615.232 87.6026C603.511 87.5428 591.969 90.8144 581.69 97.11C571.853 87.2957 558.693 80.6881 543.991 79.0675C538.612 50.3593 512.986 28.6046 482.159 28.6046C471.349 28.5581 460.678 31.3327 450.996 36.7075C447.902 38.4361 444.29 38.5744 440.969 37.4292L440.373 37.2304C437.331 36.2749 434.693 34.1409 432.929 31.2104C422.102 12.5714 401.685 0 378.255 0C353.584 0 332.239 13.9328 321.945 34.2096C311.796 28.1271 300.449 24.9706 288.933 25.0263C254.2 25.0263 226.041 52.6411 226.041 86.7038C226.041 88.5188 226.138 90.3123 226.296 92.0884C204.808 96.9199 186.985 111.159 177.604 130.17C164.395 114.539 144.453 104.582 122.137 104.582C83.4676 104.582 51.9367 134.47 50.2121 171.973C48.3681 171.744 46.5144 171.627 44.6591 171.623C19.9959 171.623 0 191.234 0 215.422C0 216.627 0.061884 217.82 0.158557 219H774C765.589 188.619 729.159 149.738 679.941 166.035Z" fill="url(#paint0_linear_3854_3844)"/>
<defs>
<linearGradient id="paint0_linear_3854_3844" x1="0" y1="64.0351" x2="0" y2="219" gradientUnits="userSpaceOnUse">
<stop stop-color="#033C6F"/>
<stop offset="1" stop-color="#033C6F" stop-opacity="0"/>
</linearGradient>
</defs>
</svg>
