<svg width="30" height="30" viewBox="0 0 30 30" fill="none" xmlns="http://www.w3.org/2000/svg">
<g clip-path="url(#clip0_2792_2345)">
<path d="M11.4058 17.5806C11.4058 19.5618 14.6173 21.1676 18.5797 21.1676C22.5421 21.1676 25.7536 19.5618 25.7536 17.5806C25.7536 15.5994 22.5421 13.9937 18.5797 13.9937C14.6173 13.9937 11.4058 15.5994 11.4058 17.5806Z" stroke="white" stroke-width="2.5" stroke-linecap="round" stroke-linejoin="round"/>
<path d="M11.4058 17.5801V22.3627C11.4058 24.3427 14.6173 25.9496 18.5797 25.9496C22.5421 25.9496 25.7536 24.3427 25.7536 22.3627V17.5801" stroke="white" stroke-width="2.5" stroke-linecap="round" stroke-linejoin="round"/>
<path d="M4.23169 8.01518C4.23169 9.29691 5.59951 10.4806 7.81864 11.1215C10.0378 11.7623 12.7734 11.7623 14.9926 11.1215C17.2117 10.4806 18.5795 9.29691 18.5795 8.01518C18.5795 6.73344 17.2117 5.54974 14.9926 4.90887C12.7734 4.26801 10.0378 4.26801 7.81864 4.90887C5.59951 5.54974 4.23169 6.73344 4.23169 8.01518Z" stroke="white" stroke-width="2.5" stroke-linecap="round" stroke-linejoin="round"/>
<path d="M4.23169 8.01514V19.9717C4.23169 21.0334 5.15473 21.7053 6.62299 22.363" stroke="white" stroke-width="2.5" stroke-linecap="round" stroke-linejoin="round"/>
<path d="M4.23169 13.9937C4.23169 15.0554 5.15473 15.7273 6.62299 16.385" stroke="white" stroke-width="2.5" stroke-linecap="round" stroke-linejoin="round"/>
</g>
<defs>
<clipPath id="clip0_2792_2345">
<rect width="28.6956" height="28.6956" fill="white" transform="translate(0.644775 0.841309)"/>
</clipPath>
</defs>
</svg>
