<svg id="Camada_1" xmlns="http://www.w3.org/2000/svg" viewBox="0 0 578 658"><style>.st0{fill-rule:evenodd;clip-rule:evenodd;fill:#e9f6fe}.st1{fill:#ffd527}.st2{fill:#8dd7ff}.st3{fill:none;stroke:#ffd527;stroke-width:2.3376}.st4{fill:#fff}.st5,.st6{opacity:.5}.st6{fill:#fff;enable-background:new}.st7{fill:#371a45}.st8,.st9{opacity:.3}.st9{fill:#371a45;enable-background:new}.st10{fill:none;stroke:#323232;stroke-width:4;stroke-linecap:round;stroke-linejoin:round}.st11{opacity:.2}.st12{fill:#f7f7f7}.st13{fill:#f8ce14}.st14{fill:#020202}.st15{opacity:.5;fill:#371a45;enable-background:new}.st16{fill:#4ed31c}.st17,.st18{opacity:.6}.st18{fill:#fff;enable-background:new}.st19{fill:#fcce00}.st20{fill:#f9f9f9}.st21{fill:#08b3ff}.st22{fill:#22a7f0}.st23{fill:#f91e1e}</style><path class="st0" d="M450.5 401c6.4-20 9.9-41.4 9.9-63.5 0-114.4-92.8-207.2-207.3-207.2S45.9 223 45.9 337.4c0 26.2 4.9 51.3 13.7 74.3 2.9 2.1 5.5 4.3 7.8 6.8 7.5-13.6 21.7-23.8 38.9-27.2-.1-1.3-.2-2.6-.2-3.9 0-24.4 22.5-44.1 50.3-44.1 9.2 0 18.3 2.2 26.4 6.6 8.2-14.5 25.3-24.5 45-24.5 18.7 0 35 9 43.7 22.3 1.4 2.1 3.5 3.6 5.9 4.3l.5.1c2.7.8 5.5.7 8-.5 7.7-3.8 16.3-5.8 24.9-5.8 24.6 0 45.1 15.6 49.4 36.1 11.7 1.2 22.3 5.9 30.1 12.9 8.2-4.5 17.4-6.8 26.8-6.8 14.8.9 25.6 6 33.4 13z"/><path class="st1" d="M10.8 308.4c-.1 1 1.9 2 5 2.7.7.2 1.4.6 1.9 1.1s.8 1.3.9 2.1c.3 3.1 1 5.2 2 5.3 1 .1 2-1.9 2.7-5 .2-.7.6-1.4 1.1-1.9.6-.5 1.3-.8 2.1-.9 3.1-.3 5.2-1 5.3-2 .1-1-1.9-2-5-2.7-.7-.2-1.4-.6-1.9-1.1-.5-.6-.8-1.3-.9-2.1-.3-3.1-1-5.2-2-5.3s-2 1.9-2.7 5c-.2.7-.6 1.4-1.1 1.9-.6.5-1.3.8-2.1.9-3.2.3-5.3 1-5.3 2z"/><path class="st2" d="M344.5 92.9c-1.9-.9-2.6-3.1-1.7-5 .9-1.9 3.1-2.6 5-1.7 1.9.9 2.6 3.1 1.7 5-1 1.9-3.2 2.6-5 1.7zM77 142.3c-1.9-.9-2.6-3.1-1.7-5s3.1-2.6 5-1.7c1.8.9 2.6 3.1 1.7 5-.9 1.8-3.1 2.6-5 1.7zM-26.3 171.2c-1-.5-1.4-1.7-.9-2.7.5-1 1.7-1.4 2.7-.9 1 .5 1.4 1.7.9 2.7-.5 1-1.7 1.4-2.7.9z"/><path class="st3" d="M451.3 422.5c1 .4 1.9 1.2 2.5 2.1.6.9.9 2 .8 3.2-.1 1.7-.1 3.1.1 4 .1.4.2.7.3.9.2-.1.4-.3.7-.7.6-.8 1.2-2 1.9-3.5.4-1 1.2-1.9 2.1-2.5.9-.6 2-.9 3.2-.8 1.7.1 3.1.1 4-.1.4-.1.7-.2.9-.3-.1-.2-.3-.4-.7-.7-.8-.6-2-1.2-3.6-1.9-1-.4-1.9-1.2-2.5-2.1-.6-.9-.9-2-.8-3.2.1-1.7.1-3.1-.1-4-.1-.4-.2-.7-.3-.9-.2.1-.4.3-.7.7-.6.8-1.2 2-1.9 3.6-.4 1-1.2 1.9-2.1 2.5-.9.6-2.1.9-3.2.8-1.7-.1-3.1-.1-4 .1-.4.1-.7.2-.9.3.1.2.3.4.7.7.8.5 2.1 1.1 3.6 1.8zm3.8 10.3zm-.3-.1zm13-8zm0 .2zm-8.1-13zm.2.1zm-12.9 8zm0-.2z"/><g id="Camada_2"><path class="st4" d="M403.4 203.8c-5.7-6.6-9-14.9-9.4-23.5-1.1-21.8 15.8-40.4 37.8-41.5 22-1.1 40.8 15.7 42 37.5 1.1 21.8-15.8 40.4-37.8 41.5-5.9.3-11.8-.7-17.3-3l-17.6 6.8 2.3-17.8z"/><g class="st5"><path class="st6" d="M432.2 145.9c-20.7 1.1-36.9 17.6-38 37.8-.2-1.4-.4-2.8-.5-4.3-1.1-22.1 15.9-41 38-42.1s41 15.9 42.1 38c.1 1.4.1 2.9 0 4.3-3.1-19.9-20.9-34.7-41.6-33.7z"/></g><path class="st7" d="M400.6 224.8c-.4 0-.8-.1-1.1-.3-.4-.2-.7-.4-.9-.7-.3-.3-.4-.7-.5-1.1-.1-.4-.1-.8-.1-1.2l2.2-16.7c-6.4-8.1-9.6-18.2-9.1-28.5s4.7-20.1 11.9-27.5c7.1-7.4 16.7-12 27-12.9 10.3-.9 20.5 2 28.8 8.1s14.1 15 16.4 25.1c2.2 10.1.8 20.6-4.2 29.7-4.9 9.1-13 16-22.6 19.6-9.7 3.6-20.3 3.5-29.9-.1l-16.4 6.5c-.7-.1-1.1 0-1.5 0zm35.3-83.4c-1.5-.1-2.9-.1-4.4 0-6.8.4-13.4 2.6-19.1 6.5-5.6 3.9-10.1 9.3-12.8 15.6-2.7 6.3-3.6 13.2-2.6 20 1 6.8 3.9 13.2 8.3 18.4.3.3.5.7.6 1.1.1.4.1.8.1 1.2l-1.7 13.1 12.9-5.1c.7-.3 1.5-.3 2.2 0 5 2.1 10.5 3 15.9 2.7 20.2-1 35.9-18.4 34.8-38.7-.9-18.7-15.8-33.5-34.2-34.8z"/><g class="st8"><path class="st9" d="M403 203.8c12.3 7.5 27.9 9.2 42.1 3.2 15.8-6.6 26-21.1 28-37 .4 2 .7 4.1.8 6.2 1.1 22.1-15.9 41-38 42.1-5.9.3-11.9-.7-17.4-3l-17.7 7 2.4-18.1c-.1-.2-.1-.3-.2-.4z"/></g><path class="st10" d="M422.2 170.5l-1.2-5.2h-3.4M425.3 184.9l-3.1-14.4h22.2c1.1 0 1.9 1 1.7 2.1l-2.6 12.2c-.2.8-.9 1.4-1.7 1.4H427c-.8.1-1.5-.5-1.7-1.3zM442.3 192.6c-.4 0-.7.3-.7.7 0 .4.3.7.7.7.4 0 .7-.3.7-.7 0-.4-.3-.7-.7-.7M427.3 192.6c-.4 0-.7.3-.7.7 0 .4.3.7.7.7.4 0 .7-.3.7-.7-.1-.4-.4-.7-.7-.7"/></g><g class="st11"><path class="st7" d="M269.2 597.2c65.1 0 117.9-5.8 117.9-13.1S334.3 571 269.2 571c-65.1 0-117.9 5.8-117.9 13.1s52.8 13.1 117.9 13.1z"/></g><path class="st12" d="M330.7 491.9l-67.3-22.3c-6-2-9.9-7.9-9.5-14.3l6.3-93.3c.6-9.1 9.4-15.1 17.9-12.3l67.3 22.3c6 2 9.9 7.9 9.4 14.3l-6.3 93.3c-.5 9.1-9.3 15.1-17.8 12.3z"/><path class="st7" d="M334.9 495.2c-1.7 0-3.4-.3-5.1-.8l-67.3-22.3c-7.1-2.4-11.7-9.3-11.2-16.9l6.3-93.3c.3-5.2 3-9.8 7.3-12.7 2-1.4 4.4-2.3 6.8-2.6 2.4-.3 4.9-.1 7.2.7l67.3 22.3c7.1 2.4 11.7 9.3 11.2 16.9l-6.3 93.3c-.4 5.2-3 9.8-7.3 12.7-2.6 1.7-5.7 2.7-8.9 2.7zm-3.4-5.7c1.6.5 3.3.7 4.9.5 1.7-.2 3.2-.8 4.6-1.8 2.9-2 4.8-5.2 5-8.8l6.3-93.3c.4-5.2-2.8-10-7.7-11.7l-67.3-22.3c-1.6-.5-3.3-.7-4.9-.5-1.7.2-3.2.8-4.6 1.8-1.5 1-2.7 2.3-3.5 3.8-.9 1.5-1.4 3.2-1.5 5l-6.3 93.3c-.4 5.2 2.8 10 7.7 11.7l67.3 22.3z"/><g class="st8"><path class="st9" d="M322.5 495.6l-67.3-22.3c-6-2-9.9-7.9-9.4-14.3l6.3-93.3c.6-9.1 9.4-15.1 17.9-12.3l67.3 22.3c6 2 9.9 7.9 9.4 14.3l-6.3 93.3c-.6 9-9.5 15.1-17.9 12.3z"/></g><path class="st7" d="M334.9 495.2c-1.7 0-3.4-.3-5.1-.8l-67.3-22.3c-7.1-2.4-11.7-9.3-11.2-16.9l6.3-93.3c.3-5.2 3-9.8 7.3-12.7 2-1.4 4.4-2.3 6.8-2.6 2.4-.3 4.9-.1 7.2.7l67.3 22.3c7.1 2.4 11.7 9.3 11.2 16.9l-6.3 93.3c-.4 5.2-3 9.8-7.3 12.7-2.6 1.7-5.7 2.7-8.9 2.7zm-3.4-5.7c1.6.5 3.3.7 4.9.5 1.7-.2 3.2-.8 4.6-1.8 2.9-2 4.8-5.2 5-8.8l6.3-93.3c.4-5.2-2.8-10-7.7-11.7l-67.3-22.3c-1.6-.5-3.3-.7-4.9-.5-1.7.2-3.2.8-4.6 1.8-1.5 1-2.7 2.3-3.5 3.8-.9 1.5-1.4 3.2-1.5 5l-6.3 93.3c-.4 5.2 2.8 10 7.7 11.7l67.3 22.3z"/><path class="st12" d="M325.5 498.5c-3.5 0-6.9-.7-10.1-2.1 3.9 27.1 3.5 61.1 3.2 73.8-.1 4.2-2.6 8.1-6.6 9.6-2.1.9-4.8 1.5-8.2 1.5h-38.2c-1.6 0-3.1-.5-4.4-1.5-1.3-1-2.2-2.4-2.5-3.9-.6-2.3-.8-5.4-.1-9.6.6-3.9 2.7-6.9 5.6-9 0 0 .1-18.4-4.8-30.6-1.1-2.8-2.5-5.7-3.8-8.5-.2.3-7 9.3-7 23.9V575s-2.4 3.7-9.9 3.7h-45.2c-1.6 0-3.1-.5-4.2-1.6-1.2-1-2-2.4-2.2-3.9-.9-5.9-.5-14.8 8.8-18.8-8.3-72.3-2.7-115.9 4.7-141.2l-.2-.1c-34.7 2-53.7-44.5-46.9-69.5 2.6-9.6 7-15.3 11.4-18.6 7.9-6 19.6-2.1 21.9 7.6 1.3 5.6-.5 10.5-3.1 14.3.1.2 2.5 10 7.8 18.5.5-.5 27.7-26.3 117.3 3.4 36.8 9.1 41.2 71 41.2 71 7.5 53.8-12.5 58.7-24.5 58.7z"/><g class="st8"><path class="st9" d="M350.9 448.4c-1.1 14.5-4.7 26-8.4 30.7-.2.2-.4.4-.5.6-7.1 8.2-20.6 2.7-20.4-8.2.7-46.2-25.4-69.8-25.4-69.8s3.5 71.4-28.5 86.8c-32.1 15.4-54.5-1.8-54.5-1.8s2.2 10.5 13 18c6.9 4.7 10.8 12.7 9.9 21.1-.9 8.8-1.7 20.3-1.2 31.4.3 6.2-4.7 11.5-11 11.5h-37.4c0 1.4.1 2.9.3 4.3.2 1.5 1 2.9 2.2 3.9 1.2 1 2.7 1.6 4.2 1.6h45.2c7.5 0 9.9-3.7 9.9-3.7V542c0-14.6 6.8-23.6 7-23.9 1.4 2.8 2.7 5.7 3.8 8.5 4.9 12.2 4.8 30.6 4.8 30.6-2.9 2.1-5 5.1-5.6 9-.7 4.2-.4 7.4.1 9.7.4 1.5 1.3 2.9 2.5 3.9 1.3 1 2.8 1.5 4.4 1.5h38.2c3.3 0 6-.6 8.2-1.5 3.9-1.6 6.4-5.4 6.6-9.6.3-12.6.8-46.7-3.2-73.8 3.2 1.4 6.7 2.1 10.1 2.1 11.6 0 30-4.4 25.7-50.1zm-69 121h-10.8c-4.3 0-7.3-4.5-5.5-8.4 2-4.3 5.2-6.7 5.2-6.7.5-16.8-2.7-29.2-5.6-36.8-1.6-4.2 1-8.8 5.4-9.7l.4-.1c10.5-2.4 21.2 3.9 23.7 14.4 2.9 12.2 2.8 24.6 2.1 33.7-.3 3.7-2 7.2-4.8 9.7-2.8 2.4-6.4 3.9-10.1 3.9z"/></g><g class="st8"><path class="st9" d="M206.5 396.8l-6.1 16.2-.2-.1c-23.4 1.4-39.7-19.4-45.7-40.7 5.8 10.2 22.1 32.2 52 24.6z"/></g><path class="st7" d="M308.8 371.5c-.3 0-.6 0-.9-.1-45.7-15.2-74.5-15.5-90.5-13-17.3 2.6-23.9 8.9-24 8.9-.5.5-1.2.7-1.9.7a2.732 2.732 0 0 1-2.7-2.7c0-.7.3-1.4.8-1.9 1.1-1.1 29-27.5 120.1 2.8.6.2 1.1.6 1.5 1.2.3.6.5 1.2.4 1.9-.1.6-.4 1.2-.9 1.7-.6.3-1.2.5-1.9.5zM262.6 540c-.5 0-.9-.2-1.3-.5s-.6-.8-.7-1.2c-.1-.5 0-1 .3-1.4.3-.4.7-.7 1.1-.8 1-.3 24.1-6.4 57.1 0 .3 0 .5.1.7.3.2.1.4.3.6.5.1.2.2.5.3.7.1.3.1.5 0 .8 0 .3-.1.5-.3.7-.1.2-.3.4-.5.6-.2.1-.5.2-.7.3-.3.1-.5.1-.8 0-32.1-6.2-55-.1-55.3 0h-.5zM263.7 554.9c1.6-1.3 3.6-2.2 5.5-2.7 2-.5 4-.7 6-.6 2 .1 3.9.4 5.8 1s3.6 1.4 5.2 2.6c.1 0 .1.1.1.2v.2c0 .1-.1.1-.1.2h-.2c-3.5-.6-7-.7-10.5-.1-1.6.3-3.3.7-4.8 1.2-1.6.5-3 1.1-4.5 1.8h-.1c-.5.2-1.1.3-1.6.1-.5-.2-1-.5-1.3-1-.3-.5-.4-1-.3-1.6.1-.5.4-1 .8-1.3z"/><path class="st7" d="M304 584h-38.2c-2.2 0-4.4-.7-6.1-2.1-1.7-1.4-3-3.3-3.5-5.4-.8-3-.8-6.6-.2-10.7.7-4.2 2.8-7.9 6.3-10.6.3-.2.6-.4 1-.5.4-.1.7-.1 1.1-.1.4 0 .7.2 1 .3.3.2.6.4.8.7.2.3.4.6.5 1 .1.4.1.7.1 1.1s-.2.7-.4 1c-.2.3-.4.6-.7.8-2.4 1.8-3.8 4.2-4.2 7-.5 3.4-.5 6.2.1 8.6.2 1 .8 1.8 1.6 2.4.8.6 1.7.9 2.7.9H304c2.6 0 5-.4 7.1-1.3 2.9-1.1 4.7-3.9 4.8-7.1.4-13.5.7-48-3.4-74.9-.1-.4-.1-.7 0-1.1.1-.4.2-.7.4-1 .2-.3.5-.5.8-.7.3-.2.7-.3 1-.4.4-.1.7 0 1.1.1.4.1.7.2 1 .5.3.2.5.5.7.8.2.3.3.7.4 1 4.2 27.4 3.8 62.2 3.4 75.9-.1 5.4-3.4 10.1-8.3 12.1-2.6 1.2-5.7 1.7-9 1.7zM296.8 401.5c1.7 2.4 3.1 4.9 4.3 7.5.3.6.6 1.3.9 2 .3.7.5 1.3.8 2 .5 1.3 1 2.7 1.4 4 .4 1.4.8 2.7 1.2 4.1.2.7.4 1.4.5 2.1l.5 2.1c.7 2.8 1.3 5.5 1.9 8.3.5 2.8 1.1 5.6 1.6 8.4.2 1.4.5 2.8.7 4.2l.6 4.2.3 2.1.2 2.1.4 4.2c.3 2.8.4 5.7.7 8.5 0 .5-.1 1-.5 1.4-.3.4-.8.6-1.3.7-.5 0-1-.1-1.4-.5-.4-.3-.6-.8-.7-1.3v-.1c-.2-2.8-.4-5.6-.6-8.3l-.4-4.2-.2-2.1-.3-2.1-.6-4.1c-.2-1.4-.5-2.8-.7-4.1-.4-2.8-1-5.5-1.5-8.2-.6-2.7-1.2-5.5-1.9-8.1-.4-1.3-.7-2.7-1.1-4-.4-1.3-.8-2.7-1.2-4-1.6-5.3-3.1-10.7-4.4-16.1v-.4c.1-.1.2-.3.3-.3.1-.1.3-.1.5 0-.2-.2-.1-.1 0 0z"/><path class="st7" d="M325.7 501c-13.4 0-24.2-9.2-24.2-20.4 0-5.3 2.9-11.2 7.5-15.2.5-.4 1.2-.7 1.9-.6.7 0 1.3.4 1.8.9.4.5.7 1.2.6 1.9 0 .7-.4 1.3-.9 1.8-3.4 2.9-5.7 7.6-5.7 11.3 0 8.4 8.6 15.3 19.1 15.3 4.5 0 11.1-.7 16.1-6.4 7.2-8.3 9.2-25 5.7-49.5v-.2c0-.6-4.8-60.1-39.3-68.7-.3-.1-.6-.2-.9-.4-.3-.2-.5-.4-.7-.7-.2-.3-.3-.6-.3-.9-.1-.3 0-.7 0-1 .1-.3.2-.6.4-.9.2-.3.4-.5.7-.7.3-.2.6-.3.9-.3h1c15.9 3.9 28.4 18 36.2 40.6 5.6 16.3 6.8 31.2 7 32.6 3.7 26 1.3 44-6.9 53.5-4.8 5.4-11.3 8-20 8z"/><path class="st13" d="M228.3 348s.9 15.5 17.2 25.1c33.9 19.8 63.3-4.3 63.3-4.3L228.3 348z"/><path class="st7" d="M273.3 383.4c-8.7 0-18.7-2-29.2-8.1-17.3-10.1-18.4-26.5-18.4-27.1 0-.4 0-.8.2-1.2.2-.4.4-.7.7-.9.3-.3.7-.4 1.1-.5.4-.1.8-.1 1.2 0l80.5 20.7c.5.1.9.4 1.2.7.3.3.6.8.7 1.2.1.5.1.9-.1 1.4-.2.4-.4.8-.8 1.1-.3.3-7.9 6.4-19.8 10.1-5.6 1.7-11.4 2.6-17.3 2.6zm-41.8-31.9c1.3 4.8 4.9 13.3 15.3 19.4 13.4 7.8 27.5 9.5 42.1 5.1 4.8-1.5 9.5-3.5 13.8-6.2l-71.2-18.3z"/><path class="st4" d="M205.8 305.1c2.1 13.7 7.8 26.7 16.4 37.6 1.8 2.3 3.8 4.5 5.8 6.6 1 1 2.1 2 3.1 3.1 9.2 8.4 20.1 14.7 32 18.4 1.5.5 3 .9 4.6 1.2 28 6.8 58.8-1.1 79.8-23.3 31-32.7 29.1-84.1-4.3-114.8-6.3-5.8-13.4-10.5-21.1-14.1l-2.7-1.2c-2.4-1-4.8-1.9-7.3-2.7-11.3-3.6-23.3-4.7-35.1-3.4-1.9.2-3.7.5-5.6.8-2.8.5-5.5 1.2-8.2 2-13.9 4.1-26.5 11.7-36.5 22.3-17.6 18.8-24.5 43.8-20.9 67.5z"/><path class="st7" d="M287.5 374.6c-6.7 0-13.3-.8-19.8-2.4-1.5-.4-3.1-.8-4.6-1.2-11.9-3.7-22.9-9.9-32.1-18.4-1.2-1.1-2.2-2.1-3.1-3.1-2.1-2.1-4-4.3-5.8-6.6-8.6-11-14.3-24-16.4-37.7-3.8-24.8 3.9-49.5 21.1-67.7 12-12.6 27.7-21.2 44.9-24.3 1.8-.3 3.7-.6 5.6-.8 11.8-1.4 23.8-.2 35.2 3.4 2.5.8 4.9 1.7 7.3 2.7 1 .4 1.8.8 2.7 1.2 7.7 3.6 14.8 8.4 21.1 14.2 16.2 14.9 25.6 35.2 26.3 57 .7 21.7-7.1 42.3-22 58.1-15.9 16.5-37.8 25.6-60.4 25.6zM206 305.1c2.1 13.7 7.8 26.6 16.4 37.5 1.8 2.3 3.7 4.5 5.8 6.6.9 1 1.9 1.9 3.1 3 9.1 8.4 20.1 14.7 32 18.3 1.5.5 3 .9 4.6 1.2 28.9 7 59.4-1.9 79.6-23.2 14.9-15.7 22.7-36.2 21.9-57.8-.7-21.7-10-41.9-26.2-56.7-6.2-5.8-13.3-10.5-21-14.1-.8-.4-1.7-.8-2.7-1.2-2.4-1-4.8-1.9-7.3-2.7-11.3-3.6-23.2-4.7-35-3.4-1.9.2-3.7.5-5.5.8-2.8.5-5.5 1.2-8.2 2-13.9 4.1-26.5 11.7-36.4 22.2-17.2 18.3-24.9 42.8-21.1 67.5z"/><g class="st8"><path class="st9" d="M347.6 348.7c-21 22.2-51.8 30.1-79.8 23.3-1.5-.4-3.1-.8-4.6-1.2-11.9-3.6-22.9-9.9-32-18.4-1.1-1-2.1-2-3.1-3.1-2.1-2.1-4-4.3-5.8-6.6-6.6-8.4-11.5-18-14.4-28.3-2.9-10.3-3.7-21-2.3-31.6 2.3 13.1 7.9 25.4 16.1 35.8 1.8 2.3 3.8 4.5 5.8 6.6 1 1 2.1 2 3.1 3 9.2 8.5 20.1 14.7 32 18.4 1.5.5 3 .9 4.6 1.2 28 6.8 58.8-1.1 79.8-23.3 12.3-13 19.4-28.8 21.4-45.2 4.3 24.3-2.6 50.1-20.8 69.4z"/></g><path class="st7" d="M287.5 376.9c-6.9 0-13.7-.8-20.4-2.4-1.6-.4-3.2-.8-4.7-1.3-12.3-3.8-23.6-10.2-33-18.9-1.2-1.1-2.3-2.2-3.2-3.2-2.1-2.2-4.1-4.4-6-6.8-8.9-11.3-14.7-24.6-16.9-38.8-3.9-25.5 4-50.9 21.8-69.6 10.3-10.9 23.3-18.8 37.7-23 2.8-.8 5.6-1.5 8.5-2l5.7-.9c12.2-1.4 24.5-.2 36.1 3.5 2.5.8 5.1 1.7 7.5 2.8 1 .4 1.9.8 2.8 1.2 7.9 3.7 15.3 8.6 21.7 14.6 16.7 15.4 26.3 36.2 27.1 58.7.8 22.3-7.3 43.5-22.7 59.8-16.2 17-38.8 26.3-62 26.3zm-79.1-72.2c2.1 13.3 7.5 25.9 15.9 36.4 1.8 2.2 3.6 4.4 5.6 6.4l3 3c8.9 8.2 19.5 14.3 31 17.8 1.5.4 2.9.8 4.4 1.2 28.1 6.8 57.7-1.8 77.3-22.6 14.4-15.3 22-35.2 21.3-56.1-.7-21.1-9.8-40.6-25.4-55.1-6.1-5.6-12.9-10.2-20.4-13.7-.8-.4-1.7-.8-2.6-1.1-2.3-1-4.7-1.9-7.1-2.6-11-3.5-22.6-4.6-34-3.3-1.8.2-3.6.5-5.4.8-16.6 3.1-31.7 11.3-43.3 23.5-16.6 17.7-24 41.5-20.3 65.4z"/><path class="st7" d="M211.7 325.1c34 47.5 103.9 47.4 126.8-5.3 15.6-35.9-8-78.8-44-91.6-26.2-9.3-55.8-7-81.3 29 0 0-8.8 17.7-8.2 31.8.6 14.1 3.6 27.7 3.6 27.7l3.1 8.4z"/><path class="st14" d="M338.5 319.8c-22.9 52.8-92.8 52.8-126.8 5.3l-.6-1.7c46.8 26.7 107.3 15.1 131.5-37.8 1.8 11.4.7 23.1-4.1 34.2z"/><path class="st7" d="M277.6 370.4c-12.4 0-25.1-2.7-37-8.2l-.3-.1c-3.7-2.5-7.2-5.2-10.5-8.3-1.2-1.1-2.3-2.1-3.2-3.1-2.1-2.1-4.1-4.4-5.9-6.8-8.8-11.2-14.6-24.5-16.8-38.5-3.9-25.3 4-50.5 21.6-69.1 10.2-10.8 23.1-18.7 37.4-22.8l.2-.1h.2c10.8-.9 22.4.9 34.4 5.1 21.6 7.6 40.1 25.2 49.6 47 8.5 19.6 8.9 40.4 1 58.5-8.6 19.7-23.2 34-42.3 41.3-9 3.4-18.6 5.1-28.4 5.1zm-35.2-11.6c20.2 9.2 42.9 10.3 62.2 2.9 18.1-6.9 32-20.5 40.2-39.3 7.5-17.1 7.1-36.8-1-55.4-9.1-20.8-26.8-37.6-47.4-44.9-11.4-4-22.4-5.7-32.6-4.9-13.5 4-25.8 11.5-35.5 21.7-16.8 17.8-24.3 41.8-20.6 65.9 2.1 13.4 7.6 26.1 16 36.7 1.8 2.3 3.7 4.4 5.7 6.5.9.9 1.9 1.9 3.1 3 3.1 2.8 6.4 5.5 9.9 7.8z"/><path class="st7" d="M277.1 362.2c-25.8 0-51-13.3-67.2-35.9l-.2-.2-3.3-8.9c-.1-.6-3-14-3.6-28.1-.6-14.5 8-32.1 8.4-32.8l.2-.3c22.3-31.6 50.5-41.6 83.8-29.8 19.3 6.8 35.9 22.5 44.4 42 7.6 17.6 8 36.2.9 52.4-10.2 23.5-30.4 38.5-55.5 41.2-2.6.3-5.3.4-7.9.4zm-63.6-38.1c16.9 23.5 44.1 36.3 71 33.5 23.5-2.5 42.4-16.6 52-38.6 6.6-15.1 6.3-32.5-.9-49-8-18.4-23.7-33.3-41.9-39.7-31.2-11-57.7-1.6-78.8 28.1-.8 1.7-8.4 17.9-7.9 30.6.5 13 3.2 25.7 3.5 27.2l3 7.9z"/><path class="st4" d="M374.1 328.8c-4.6 15.4-17.6 25.5-29.1 22.7-11.5-2.8-17.2-17.5-12.6-32.9 0-.1.1-.2.1-.3 4.6-15.2 17.6-25.2 29-22.5 8.9 2.2 14.3 11.4 14.2 22.6-.1 3.6-.6 7.1-1.6 10.4z"/><path class="st7" d="M348.9 352.4c-1.3 0-2.7-.2-4-.5-4.6-1.1-8.4-4.1-11-8.6-3.8-6.6-4.5-15.9-1.9-24.7 0-.1.1-.2.1-.3 4.7-15.3 17.9-25.5 29.5-22.7 8.8 2.1 14.6 11.4 14.5 23 0 3.5-.6 7-1.6 10.4-4.1 13.7-15 23.4-25.6 23.4zm8.7-56.5c-10.1 0-20.7 9.3-24.7 22.6 0 .1-.1.2-.1.3-2.6 8.7-1.9 17.7 1.8 24.1 2.5 4.3 6.1 7.2 10.5 8.3 11.3 2.7 24.1-7.3 28.6-22.5 1-3.3 1.5-6.7 1.6-10.1.1-11.3-5.5-20.2-13.9-22.2-1.2-.4-2.5-.5-3.8-.5z"/><g class="st8"><path class="st9" d="M374.1 328.8c-4.6 15.4-17.6 25.5-29.1 22.7-11.5-2.8-17.2-17.5-12.6-32.9 0-.1.1-.2.1-.3.8 1.9 2.3 3.9 5.1 4 4.9.2 16.3-7.6 16.3-7.6s9.5 1.6 21.8 3.7c-.1 3.6-.6 7.1-1.6 10.4z"/></g><path class="st7" d="M348.8 354.2c-1.5 0-2.9-.2-4.3-.5-5.1-1.2-9.3-4.5-12.1-9.5-4.1-7.1-4.8-16.6-2-26.1 4.9-16.4 19.1-27.3 31.7-24.2 5.1 1.2 9.3 4.5 12.1 9.5 4.1 7.1 4.8 16.6 2 26.1-4.4 14.5-16 24.7-27.4 24.7zm8.8-56.6c-9.5 0-19.3 9-23.1 21.7-2.4 8.2-1.8 16.7 1.6 22.7 2.2 3.9 5.5 6.5 9.4 7.4 10.4 2.5 22.3-7 26.5-21.3 2.4-8.2 1.8-16.7-1.6-22.7-2.3-3.9-5.5-6.5-9.4-7.4-1.1-.3-2.3-.4-3.4-.4z"/><path class="st4" d="M375.3 334.5c4.8-11.8 1.4-24.3-7.5-27.9-8.9-3.6-20 3-24.8 14.9-4.8 11.8-1.4 24.3 7.5 27.9 9 3.6 20.1-3.1 24.8-14.9z"/><path class="st7" d="M355.6 350.6c-3.6 0-6.9-1.3-9.5-3.8-7.2-6.9-7.3-21-.1-31.3 4-5.8 9.6-9.4 15.2-10 4.2-.4 8 .9 11 3.7 7.2 6.9 7.3 21 .1 31.3-4 5.8-9.6 9.4-15.2 10-.5 0-1 .1-1.5.1zm7.2-44.8c-.5 0-1 0-1.5.1-5.5.6-11 4.1-14.9 9.8-7.1 10.2-7.1 23.9 0 30.7 2.9 2.8 6.6 4 10.7 3.6 5.5-.6 11-4.1 14.9-9.8 7.1-10.2 7.1-23.9 0-30.7-2.6-2.4-5.8-3.7-9.2-3.7z"/><g class="st8"><path class="st9" d="M340.6 332.7c.2-4.4 1.5-8.7 3.8-12.5.5 10 7.7 16.1 17 13.9 6-1.4 11.4-6 14.8-11.9v1.9c-.4 11.1-8.7 22-18.5 24.4-9.9 2.4-17.5-4.7-17.1-15.8z"/></g><path class="st7" d="M355.2 352.3c-1 0-2-.1-3-.3-3.7-.9-6.8-3.3-8.9-7-3.3-5.7-3.8-13.8-1.4-21.8 4-13.4 15.2-22.5 24.9-20.3 3.7.9 6.8 3.3 8.9 7 3.3 5.7 3.8 13.8 1.4 21.8-3.7 12-13 20.6-21.9 20.6zm8.3-45.9c-7.2 0-14.9 7.5-18 17.9-2.1 7-1.7 14 1.1 18.8 1.6 2.7 3.8 4.5 6.5 5.1 7.7 1.8 16.8-6.1 20.3-17.6 2.1-7 1.7-14-1.1-18.8-1.6-2.7-3.8-4.5-6.5-5.1-.7-.2-1.5-.3-2.3-.3z"/><g class="st5"><path class="st6" d="M307.7 251.1s-34.8-9.9-60.4 2.8h-.1c-5.4 2.7-9.9 6.7-13.2 11.7-4.3 6.6-6.3 11.8-7.9 16.4-4.8 14.1-4.4 21.6-4.4 21.6-5.6-10.2-7.3-20.2-3.4-31.9.4-1.2.8-2.3 1.3-3.5.1-.3.2-.5.4-.8 1.5-3 3.1-5.9 5-8.7 6.5-9.9 17.6-21.9 33.6-23.8 29.9-3.7 50.8 15.1 49.1 16.2z"/><path class="st15" d="M222.2 305.4l-.9-1.6c-6.1-11.1-7.2-21-3.4-32.3.4-1.2.8-2.4 1.3-3.6.1-.3.2-.5.3-.8v-.2h.1c1.5-3 3.1-5.8 5-8.6 6.5-9.9 17.7-22.1 33.9-24 15-1.8 27.3 2 35 5.6 8.7 4 14.1 8.9 14.7 10.5.2.6-.1.8-.2.9l-.2.1h-.2c-.3-.1-34.9-9.7-60.1 2.7l-.3-.3.2.4c-5.3 2.6-9.8 6.6-13.1 11.6-4.4 6.7-6.4 12-7.9 16.3-4.7 13.8-4.4 21.4-4.4 21.4l.2 1.9zm-1.9-37.8c-.1.2-.2.5-.3.8-.5 1.2-.9 2.4-1.3 3.5-3.5 10.5-2.7 19.9 2.6 30.2.1-2.9.8-9.7 4.4-20.1 1.5-4.4 3.5-9.7 8-16.5 3.3-5.1 7.9-9.2 13.4-11.9h.1c23.7-11.7 55.5-4.1 60.1-2.9-.3-.4-.9-1.3-2.4-2.5-7-6-24.5-15.4-46.3-12.8-15.9 1.9-26.9 13.9-33.3 23.6-1.8 2.7-3.5 5.5-5 8.6z"/></g><g class="st5"><path class="st6" d="M332.5 293.4c.4-7-4.2-12.9-10.2-13.2-6-.3-11.2 5-11.6 12-.4 7 4.2 12.9 10.2 13.2 6 .4 11.2-5 11.6-12z"/><path class="st15" d="M321.4 305.8h-.7c-6.2-.4-10.9-6.6-10.5-13.8.2-3.8 1.9-7.3 4.5-9.6 2.2-1.9 4.9-2.9 7.6-2.7 6.2.4 10.9 6.6 10.5 13.8-.2 3.8-1.9 7.3-4.5 9.6-1.9 1.8-4.4 2.7-6.9 2.7zm.4-25.2c-2.3 0-4.6.9-6.4 2.5-2.5 2.2-4 5.5-4.2 9-.4 6.7 3.9 12.5 9.7 12.9 2.5.2 5-.7 7-2.5 2.5-2.2 4-5.5 4.3-9 .4-6.7-3.9-12.5-9.7-12.9h-.7z"/></g><g class="st5"><path class="st6" d="M320.4 320.9c2.5-.1 4.5-2.5 4.3-5.4-.1-2.9-2.2-5.1-4.7-5-2.5.1-4.5 2.5-4.3 5.4.1 2.9 2.2 5.1 4.7 5z"/><path class="st15" d="M320.3 321.4c-2.7 0-4.9-2.5-5-5.5 0-1.6.5-3.2 1.6-4.3.4-.4.9-.8 1.5-1.1s1.2-.4 1.8-.4c2.7 0 5 2.4 5.1 5.5 0 1.6-.5 3.2-1.6 4.3-.4.4-.9.8-1.5 1.1s-1.2.3-1.9.4zm-.1-10.5c-.6 0-1.1.1-1.5.3-.5.2-.9.5-1.2.9-.9.9-1.4 2.3-1.4 3.7.1 2.6 1.9 4.8 4.2 4.8h.1c.5 0 1-.1 1.5-.3.5-.2.9-.5 1.2-.9.9-.9 1.4-2.3 1.4-3.7-.2-2.7-2.1-4.8-4.3-4.8z"/></g><path class="st7" d="M195.9 556.8c-.6 0-1.2-.2-1.7-.7-.5-.4-.8-1-.8-1.6-5.9-51.4-5.5-94.3 1.2-127.4.1-.3.2-.7.4-.9.2-.3.4-.5.7-.7.3-.2.6-.3.9-.4.3-.1.7-.1 1 0 .3.1.6.2.9.4.3.2.5.4.7.7.2.3.3.6.4.9.1.3.1.7 0 1-6.6 32.6-6.9 74.9-1.1 125.8 0 .4 0 .7-.1 1.1-.1.3-.3.7-.5.9-.2.3-.5.5-.9.6-.4.2-.8.3-1.1.3z"/><path class="st7" d="M216.3 382.2c-1.2 1.5-2.4 3.3-3.4 5.1l-1.5 2.7c-.4.9-.9 1.8-1.3 2.8-1.7 3.7-3.2 7.6-4.5 11.5-.7 1.9-1.2 3.9-1.8 5.9-.3 1-.5 2-.8 3l-.8 3-1.4 6c-.4 2-.8 4-1.3 6.1v.1c-.2.6-.6 1.2-1.1 1.6-.6.4-1.2.5-1.9.3-.7-.1-1.2-.5-1.6-1.1-.4-.6-.5-1.2-.4-1.9.4-2.1.9-4.1 1.4-6.2.5-2.1 1.1-4.1 1.7-6.1 1.2-4.1 2.6-8.1 4.3-12 .8-2 1.7-3.9 2.6-5.8l1.5-2.8c.5-.9 1.1-1.9 1.6-2.8 2.3-3.6 4.7-7.2 8-10 .1-.1.3-.1.4-.1.1 0 .3.1.4.2.1.1.2.2.2.4-.1-.3-.1-.1-.3.1zM165.8 390c-1.8 0-3.5-.2-5.2-.5-.5-.1-.9-.4-1.2-.8-.3-.4-.4-1-.3-1.5.1-.5.4-.9.8-1.2.4-.3 1-.4 1.5-.3 17.4 3.5 32-15.2 32.2-15.4.3-.4.8-.7 1.3-.7.5-.1 1 .1 1.4.4.4.3.7.8.7 1.3.1.5-.1 1-.4 1.4-.6.7-13.6 17.3-30.8 17.3z"/><path class="st7" d="M186.4 346.2c.5 1.2 1 2.7 1.5 4l.7 2 .7 2c1 2.7 2 5.4 3.2 8 .6 1.3 1.2 2.6 1.9 3.8.3.6.7 1.2 1.1 1.8l1.2 1.8c1.6 2.3 3.6 4.4 6 6.2l.2.2v.3c0 .1-.1.2-.2.2h-.3c-3-.8-5.8-2.6-8.1-4.7-1.2-1.1-2.3-2.2-3.3-3.4-1-1.2-1.9-2.5-2.8-3.8-1.7-2.6-3.2-5.3-4.5-8.2-.3-.7-.6-1.4-.9-2.2-.3-.7-.5-1.5-.7-2.2-.5-1.5-.9-3-1.1-4.6-.1-.7 0-1.4.4-1.9.4-.6.9-1 1.6-1.2.7-.2 1.4-.1 2 .2s1.1.8 1.3 1.5l.1.2z"/><path class="st16" d="M162 304.1l25.2-8.1h31s-6.1 18.9-6 29.7c.1 10.8 1 12.5 1 12.5s6.1 5.7 5 21.8c0 0-4.6 3.7-11.4 1.5v2.9h-32.1c-.1.1 2.7-38.7-12.7-60.3z"/><g class="st8"><path class="st9" d="M218.2 360.1s-4.6 3.7-11.4 1.5v2.9h-32.1s2.8-38.7-12.7-60.4l1.9-.6c3.5 9.1 10.5 22.4 22.3 27.2 7.6 3.1 17.4 4.2 26.4 4.3.3 2.6.6 3.2.6 3.2s6.1 5.7 5 21.9z"/></g><g class="st17"><path class="st18" d="M189.8 301.5h26.4c1.1-3.9 1.9-6.6 1.9-6.6h-31l-25.2 8.1c1.4 2 2.7 4.1 3.7 6.3l24.2-7.8z"/></g><path class="st7" d="M184.6 357.1h-8.3c-.1 0-.2 0-.3-.1-.1 0-.2-.1-.2-.2s-.1-.2-.1-.3v-.3c2-14.8-2.2-32.2-4.8-41.3v-.4c0-.1.1-.2.2-.3.7-.7 1.1-1.8 1.1-3 0-1-.3-2-.9-2.7-.1-.1-.1-.2-.1-.3v-.3c0-.1.1-.2.2-.3.1-.1.2-.1.3-.2l8.5-3.3c.1 0 .2-.1.4 0 .1 0 .2.1.3.1.1.1.2.2.2.3 0 .1.1.2 0 .4v.7c0 2.4 1.8 4.4 4 4.4.3 0 .6 0 1-.1.2 0 .3 0 .5.1s.3.2.3.4c6.2 18.2 3.8 36.1 2.5 42.9 0 .1-.1.3-.2.3-.1.1-.2.2-.3.2h-.4c-.1 0-.2-.1-.3-.2-.2-.2-.4-.4-.6-.5-.2-.1-.5-.2-.8-.2-1 0-1.8.9-1.8 2 0 .4.1.9.4 1.2.1.1.1.2.1.4 0 .1 0 .3-.1.4-.1.1-.1.2-.3.3-.2-.1-.3-.1-.5-.1zm-7.5-1.4h6.4c-.1-.3-.1-.6-.1-1 0-1.9 1.4-3.4 3.2-3.4.5 0 1 .1 1.5.4 1.3-7.4 3-23.7-2.5-40.4h-.7c-2.9 0-5.3-2.4-5.4-5.5l-6.7 2.6c.5.9.7 1.8.7 2.8 0 1.4-.5 2.8-1.3 3.7 2.7 9.3 6.7 26.2 4.9 40.8z"/><path class="st7" d="M206.8 367.2h-32.1c-.4 0-.8-.1-1.1-.2-.3-.1-.7-.4-.9-.6-.3-.3-.5-.6-.6-1-.1-.4-.2-.7-.2-1.1 0-.4 2.5-38-12.2-58.6-.3-.4-.4-.8-.5-1.2-.1-.4 0-.9.1-1.3s.4-.8.7-1.1c.3-.3.7-.5 1.1-.7l25.2-8.1c.3-.1.6-.1.8-.1h31c.4 0 .9.1 1.2.3.4.2.7.5 1 .8.3.4.4.8.5 1.2s0 .9-.1 1.3c-.1.2-5.9 18.6-5.8 28.9.1 7.4.5 10.3.7 11.1 1.7 2 6.2 8.9 5.2 23.4 0 .4-.1.8-.3 1.1-.2.3-.4.6-.7.9-.2.2-4.2 3.3-10.4 2.7-.1.6-.4 1.2-.9 1.7-.4.4-1.1.6-1.7.6zm-29.3-5.5H204v-.2c0-.4.1-.9.3-1.2.2-.4.5-.7.8-1 .4-.3.8-.4 1.2-.5.4-.1.9 0 1.3.1 3.7 1.2 6.5.3 7.9-.4.6-13.4-4.1-18.2-4.2-18.3-.2-.2-.4-.4-.5-.7-1-1.9-1.3-8.5-1.4-13.8-.1-8.3 3.2-20.9 5-27h-26.9l-21.3 6.8c11.5 19.1 11.6 47.1 11.3 56.2z"/><path class="st7" d="M193 367.2h-.5c-.4-.1-.7-.2-1-.4-.3-.2-.6-.4-.8-.7-.2-.3-.4-.6-.4-1-.1-.4-.1-.7 0-1.1 8.5-47.2-5.2-66.1-5.4-66.3-.4-.6-.6-1.3-.5-2 .1-.7.5-1.4 1-1.8s1.3-.6 2-.5c.7.1 1.4.5 1.8 1 .6.8 15.5 20.7 6.4 70.7-.1.6-.4 1.2-.9 1.6-.4.3-1 .5-1.7.5zM206.8 363.5h-.3c-.5-.1-1-.3-1.3-.8-.3-.4-.5-.9-.4-1.5.1-.5 6.1-47.1-7.6-64-.3-.4-.4-.9-.4-1.4.1-.5.3-1 .7-1.3.4-.3.9-.5 1.4-.4.5 0 1 .3 1.3.7 14.8 18.3 8.7 65.1 8.4 67.1-.1.5-.3.9-.7 1.2-.2.2-.6.4-1.1.4z"/><path class="st19" d="M186.1 342.4l9-4H216v-16.3h-21.7l-10.1 5.1"/><path class="st7" d="M186.2 342.6l-.2-.5 9.1-4h20.6v-15.7h-21.3l-10 5-.3-.5 10.2-5.1h22v16.9h-21.1l-9 3.9z"/><path class="st7" d="M186.1 345.1c-.6 0-1.2-.2-1.7-.6-.5-.4-.8-.9-1-1.6-.1-.6 0-1.3.2-1.8.3-.6.8-1 1.3-1.3l9-4c.4-.2.7-.2 1.1-.2h18.1v-10.8h-18.3l-9.5 4.8c-.3.2-.7.3-1 .3-.4 0-.7 0-1.1-.1-.3-.1-.7-.3-.9-.5-.3-.2-.5-.5-.7-.9-.2-.3-.3-.7-.3-1 0-.4 0-.7.1-1.1.1-.3.3-.7.5-.9.2-.3.5-.5.9-.7l10.1-5.1c.4-.2.8-.3 1.2-.3h21.7a2.732 2.732 0 0 1 2.7 2.7v16.3a2.732 2.732 0 0 1-2.7 2.7h-20.3l-8.5 3.8c-.1.3-.5.3-.9.3z"/><path class="st20" d="M186.8 332.5c-2.3-9.7-14-13.6-21.9-7.6-4.4 3.3-8.8 9-11.4 18.6-.2.8-.4 1.6-.6 2.5 6.1 4.7 13.9 7.5 21.9 9.2.5-.2 15.2-9.3 12-22.7z"/><path class="st7" d="M198.2 415.6c-12.5 0-23.9-5.9-33-17.1-12.5-15.4-18.6-39.3-14.1-55.6 2.4-8.9 6.6-15.6 12.3-20 2.2-1.7 4.8-2.8 7.5-3.2 2.7-.4 5.5-.1 8.1.8 5.2 1.9 9 6.1 10.3 11.4 3.6 15.2-12.5 25.1-13.2 25.5-.6.4-1.3.5-1.9.3-.7-.2-1.2-.6-1.6-1.2-.4-.6-.5-1.3-.3-1.9.2-.7.6-1.2 1.2-1.6.1-.1 13.6-8.4 10.9-20-.9-3.7-3.4-6.5-7-7.8-1.8-.7-3.7-.8-5.6-.6-1.9.3-3.7 1-5.2 2.2-4.8 3.7-8.3 9.5-10.5 17.2-4 14.9 1.6 36.8 13.2 51.1 6 7.4 16.3 16 31.1 15.2.3 0 .7 0 1 .1.3.1.6.3.9.5.3.2.5.5.6.8.1.3.2.6.3 1 0 .3 0 .7-.1 1s-.3.6-.5.9c-.2.3-.5.5-.8.6-.3.1-.6.2-1 .2-1 .2-1.8.2-2.6.2z"/><path class="st19" d="M310.2 500.3c-.7 0-1.4-.1-2.1-.4-.7-.3-1.3-.7-1.8-1.2s-.9-1.1-1.2-1.8-.4-1.4-.4-2.1c0-9.1 6.6-17 15.1-17.9.7-.1 1.4 0 2.1.2.7.2 1.3.5 1.9 1 .6.5 1 1 1.4 1.6.3.6.6 1.3.6 2.1.1.7 0 1.4-.2 2.1-.2.7-.5 1.3-1 1.9-.5.6-1 1-1.6 1.4-.6.3-1.3.6-2.1.6-3.1.3-5.3 3.9-5.3 6.9 0 1.5-.6 2.9-1.6 3.9-.9 1.1-2.3 1.7-3.8 1.7z"/><path class="st7" d="M310.2 502.6c-2.1 0-4-.8-5.5-2.3-1.5-1.5-2.3-3.4-2.3-5.5 0-10.2 7.5-19.1 17.1-20.1 2.1-.2 4.1.4 5.7 1.7 1.6 1.3 2.6 3.2 2.9 5.2.2 2.1-.4 4.1-1.7 5.7s-3.2 2.6-5.2 2.9c-1.8.2-3.3 2.7-3.3 4.7 0 2.1-.8 4-2.3 5.5-1.3 1.4-3.3 2.2-5.4 2.2zm10.2-23.4h-.4c-7.3.8-13.1 7.7-13.1 15.6 0 .4.1.9.2 1.3.2.4.4.8.7 1.1s.7.5 1.1.7c.4.2.8.3 1.3.3.4 0 .9-.1 1.3-.3.4-.2.8-.4 1.1-.7.3-.3.5-.7.7-1.1.2-.4.2-.8.2-1.3 0-4.1 2.9-8.7 7.3-9.2.6-.1 1.2-.3 1.7-.7.5-.4.8-1 1-1.6.2-.6.2-1.3 0-1.9-.2-.6-.6-1.2-1.1-1.6-.5-.4-1.2-.6-2-.6z"/><g class="st8"><path class="st9" d="M325.9 481.8c-.1-1.1-.6-2.2-1.4-3.1-.8-.9-1.8-1.5-2.9-1.7.3.8.4 1.6.4 2.5-.1.8-.3 1.7-.8 2.4-.4.7-1 1.3-1.8 1.8-.7.5-1.5.7-2.4.8-3.1.3-5.3 3.9-5.3 6.9 0 .8-.2 1.6-.5 2.4-.4.7-.9 1.4-1.5 1.9s-1.4.9-2.2 1.1c-.8.2-1.6.2-2.4 0 .5 1.2 1.3 2.2 2.4 2.8 1.1.6 2.4.8 3.7.6 1.3-.2 2.4-.9 3.2-1.9.8-1 1.3-2.2 1.3-3.5 0-3 2.2-6.6 5.3-6.9.7-.1 1.4-.3 2.1-.6.6-.3 1.2-.8 1.6-1.4.5-.6.8-1.2 1-1.9.2-.7.3-1.5.2-2.2z"/></g><path class="st21" d="M370.8 494.8h-84.7v68.3h84.7v-68.3z"/><g class="st5"><path class="st6" d="M289 499.9h81.9v-5.1h-84.7v68.3h2.8v-63.2z"/></g><g class="st8"><path class="st9" d="M363.5 494.8c-1.9 34.8-30.7 62.4-66 62.4H286v5.9h84.7v-68.3h-7.2z"/><path class="st9" d="M371.1 563.4h-85.3V557h11.7c34.9 0 63.8-27.3 65.7-62.2v-.3h7.8l.1 68.9zm-84.7-.6h84.1v-67.7h-6.7c-2 35-31.1 62.4-66.2 62.4h-11.2v5.3z"/></g><path class="st7" d="M370.8 565.9h-84.7a2.732 2.732 0 0 1-2.7-2.7v-68.3a2.732 2.732 0 0 1 2.7-2.7h84.7a2.732 2.732 0 0 1 2.7 2.7v68.3c0 .4-.1.7-.2 1.1-.1.3-.3.6-.6.9-.3.3-.6.5-.9.6-.2 0-.6.1-1 .1zm-81.9-5.5h79.2v-62.8h-79.2v62.8z"/><path class="st7" d="M370.8 564.8h-76.1c-.5 0-.9-.2-1.2-.5-.3-.3-.5-.8-.5-1.2v-68.3c0-.5.2-.9.5-1.2.3-.3.8-.5 1.2-.5h76.1c.5 0 .9.2 1.2.5.3.3.5.8.5 1.2v68.3c0 .5-.2.9-.5 1.2-.3.3-.7.5-1.2.5zm-74.4-3.4h72.7v-64.9h-72.7v64.9z"/><path class="st7" d="M370.8 564.8H304c-.5 0-.9-.2-1.2-.5-.3-.3-.5-.8-.5-1.2v-68.3c0-.5.2-.9.5-1.2.3-.3.8-.5 1.2-.5h66.8c.5 0 .9.2 1.2.5.3.3.5.8.5 1.2v68.3c0 .5-.2.9-.5 1.2-.3.3-.7.5-1.2.5zm-65.1-3.4h63.4v-64.9h-63.4v64.9zM308.2 446.9c-.4 0-.8-.1-1.2-.4-.3-.2-.6-.6-.7-1s-.1-.8 0-1.2c.1-.4.4-.7.7-1 .7-.5 17.7-13.3 43.6-5.5.5.2.9.5 1.2 1 .2.5.3 1 .2 1.5-.2.5-.5.9-1 1.2-.5.2-1 .3-1.5.2-23.9-7.2-39.9 4.7-40 4.8-.4.2-.8.4-1.3.4z"/><path class="st4" d="M196.1 428.1l28 5.6c.6.1 1.3.1 2 0 .6-.1 1.3-.4 1.8-.7.5-.4 1-.8 1.4-1.4.4-.5.6-1.2.8-1.8l2.1-10.7c.3-1.3 0-2.7-.7-3.8-.7-1.1-1.9-1.9-3.2-2.1l-28-5.6c-1.3-.3-2.7 0-3.8.7-1.1.7-1.9 1.9-2.1 3.2l-2.1 10.7c-.3 1.3 0 2.7.7 3.8.6 1 1.8 1.8 3.1 2.1z"/><path class="st7" d="M225.1 436c-.5 0-1 0-1.4-.1l-28-5.6c-1.9-.4-3.6-1.5-4.6-3.1-1.1-1.6-1.5-3.6-1.1-5.5l2.1-10.7c.4-1.9 1.5-3.6 3.1-4.6 1.6-1.1 3.6-1.5 5.5-1.1l28 5.6c1.9.4 3.6 1.5 4.6 3.1 1.1 1.6 1.5 3.6 1.1 5.5l-2.1 10.7c-.3 1.7-1.2 3.1-2.5 4.2-1.3 1-3 1.6-4.7 1.6zm-28.5-10.2l28 5.6c.4.1.7.1 1.1 0 .4-.1.7-.2 1-.4s.6-.5.8-.8c.2-.3.3-.6.4-1l2.1-10.7c.1-.7 0-1.5-.4-2.1-.4-.6-1-1-1.8-1.2l-28-5.6c-.7-.1-1.5 0-2.1.4-.6.4-1 1-1.2 1.8l-2.1 10.7c-.1.7 0 1.5.4 2.1.4.7 1 1.1 1.8 1.2z"/><path class="st4" d="M232.3 400.5l53.9 11.5c5.9 1.3 9.7 7.1 8.5 13.1l-5.8 27c-1.3 5.9-7.1 9.7-13.1 8.5l-53.9-11.5c-5.9-1.3-9.7-7.1-8.5-13.1l5.8-27c1.3-5.9 7.1-9.7 13.1-8.5z"/><path class="st7" d="M278.1 463.1c-.9 0-1.9-.1-2.8-.3l-53.9-11.5c-3.4-.7-6.4-2.8-8.4-5.8-1.9-3-2.6-6.5-1.8-10l5.8-27c.7-3.4 2.8-6.4 5.8-8.4 3-1.9 6.5-2.6 10-1.8l53.9 11.5c3.4.7 6.4 2.8 8.4 5.8 1.9 3 2.6 6.5 1.8 10l-5.8 27c-.6 3-2.3 5.6-4.6 7.5-2.5 2-5.4 3-8.4 3zM230 402.6c-2 0-3.9.7-5.5 1.9-1.6 1.3-2.6 3-3.1 5l-5.8 27c-.5 2.3 0 4.6 1.2 6.6 1.3 1.9 3.2 3.3 5.5 3.8l53.9 11.5c2.3.5 4.6 0 6.6-1.2 1.9-1.3 3.3-3.2 3.8-5.5l5.8-27c.5-2.3 0-4.6-1.2-6.6-1.3-1.9-3.2-3.3-5.5-3.8l-53.9-11.5c-.6-.2-1.2-.2-1.8-.2z"/><g class="st8"><path class="st9" d="M232.3 400.5l53.9 11.5c5.9 1.3 9.7 7.1 8.5 13.1l-5.8 27c-1.3 5.9-7.1 9.7-13.1 8.5l-53.9-11.5c-5.9-1.3-9.7-7.1-8.5-13.1l5.8-27c1.3-5.9 7.1-9.7 13.1-8.5z"/></g><path class="st4" d="M218.5 397.6l53.9 11.5c5.9 1.3 9.7 7.1 8.5 13.1l-5.8 27c-1.3 5.9-7.1 9.7-13.1 8.5l-53.9-11.5c-5.9-1.3-9.7-7.1-8.5-13.1l5.8-27c1.3-5.9 7.2-9.7 13.1-8.5z"/><path class="st22" d="M262.9 430.4c3.6 0 6.5-3.1 6.5-6.8 0-3.8-2.9-6.8-6.5-6.8s-6.5 3.1-6.5 6.8c0 3.8 2.9 6.8 6.5 6.8z"/><g class="st5"><path class="st6" d="M258.1 426.5c0-3.8 2.9-6.8 6.5-6.8.8 0 1.6.2 2.4.5.8.3 1.5.8 2 1.4-.8-2.7-3.3-4.7-6.1-4.7-3.6 0-6.5 3.1-6.5 6.8 0 .9.2 1.8.5 2.7.3.9.9 1.6 1.5 2.3-.2-.8-.3-1.5-.3-2.2z"/></g><path class="st7" d="M262.9 431.9c-4.3 0-7.9-3.7-7.9-8.2 0-4.5 3.5-8.2 7.9-8.2s7.9 3.7 7.9 8.2c-.1 4.5-3.6 8.2-7.9 8.2zm0-13.7c-2.8 0-5 2.4-5 5.4 0 3 2.3 5.4 5 5.4s5-2.4 5-5.4c0-3-2.3-5.4-5-5.4z"/><g class="st8"><path class="st9" d="M276.6 411.1c.2 1.4.2 2.7-.1 4.1l-5.8 27c-1.3 5.9-7.1 9.7-13.1 8.5l-53.9-11.5c-1.5-.3-2.9-1-4.2-1.9.7 4.3 4 8 8.5 9l53.9 11.5c5.9 1.3 11.8-2.5 13.1-8.5l5.8-27c.4-2.1.3-4.2-.5-6.2-.7-2.1-2-3.8-3.7-5z"/></g><path class="st7" d="M264.3 460.2c-.9 0-1.9-.1-2.8-.3l-53.9-11.5c-3.4-.7-6.4-2.8-8.3-5.8-1.9-3-2.6-6.5-1.8-10l5.8-27c.7-3.4 2.8-6.4 5.8-8.4 3-1.9 6.5-2.6 10-1.8l53.9 11.5c3.4.7 6.4 2.8 8.4 5.8 1.9 3 2.6 6.5 1.8 10l-5.8 27c-.6 3-2.3 5.6-4.6 7.5-2.5 1.9-5.5 3-8.5 3zm-48.1-60.6c-2 0-3.9.7-5.5 2s-2.6 3-3.1 5l-5.8 27c-.5 2.3 0 4.6 1.2 6.6 1.3 1.9 3.2 3.3 5.5 3.8l53.9 11.5c2.3.5 4.6 0 6.6-1.2 1.9-1.3 3.3-3.2 3.8-5.5l5.8-27c.5-2.3 0-4.6-1.2-6.6-1.3-1.9-3.2-3.3-5.5-3.8L218 399.8c-.6-.1-1.2-.1-1.8-.2z"/><path class="st7" d="M231.9 453.6h-.5c-.7-.1-1.3-.5-1.6-1.1-.4-.6-.5-1.2-.4-1.9l3.7-20.8-15-9.7c-.4-.3-.8-.7-1-1.2-.2-.5-.2-1-.1-1.5l4-18.3c.1-.7.5-1.2 1.1-1.6.6-.4 1.3-.5 1.9-.3.7.1 1.2.5 1.6 1.1.4.6.5 1.3.3 1.9l-3.6 16.5 14.9 9.6c.4.3.8.7 1 1.1.2.5.3 1 .2 1.5l-4 22.5c-.1.6-.4 1.1-.9 1.5-.4.5-1 .7-1.6.7z"/><path class="st4" d="M309.1 451.1l-21.9-4.4c-.6-.1-1.3-.4-1.8-.8s-1-.8-1.4-1.4c-.4-.6-.6-1.2-.7-1.8-.1-.6-.1-1.3 0-2l2.1-10.7c.1-.6.4-1.3.8-1.8s.8-1 1.4-1.4c.5-.4 1.2-.6 1.8-.8.6-.1 1.3-.1 2 0l13.8 2.7c1.6 7.5 3 14.9 3.9 22.4z"/><path class="st7" d="M311.8 453.9l-25-5c-1.9-.4-3.6-1.5-4.6-3.1-1.1-1.6-1.5-3.6-1.1-5.5l2.1-10.7c.2-.9.6-1.8 1.1-2.6.5-.8 1.2-1.5 2-2s1.7-.9 2.6-1.1 1.9-.2 2.9 0l15.2 3 .3 1.4c1.7 7.4 3.1 14.9 4 22.4l.5 3.2zm-21.5-25.6c-.6 0-1.3.2-1.7.6-.5.4-.8 1-1 1.6l-2.1 10.7c-.1.7 0 1.5.4 2.1.4.6 1 1 1.8 1.2l18.8 3.7c-.8-5.9-1.9-11.7-3.2-17.4l-12.3-2.5h-.7z"/><g class="st8"><path class="st9" d="M305.1 428.9l-7.4-1.5c.2 1.2.5 2.4.7 3.7 1.1 6.1-4.2 11.4-10.3 10.2l-4.8-.9-.1.4c-.1.6-.1 1.3 0 2 .1.6.4 1.3.7 1.8.4.5.8 1 1.4 1.4.5.4 1.2.6 1.8.8l21.9 4.4c-.8-7.6-2.2-15-3.9-22.3z"/></g><path class="st23" d="M260.9 388.6l11.4-8.2-3.8-9.7-16.7-5.4-8.3 6.4 2.5 10.2 14.9 6.7z"/><path class="st7" d="M261.2 391.5l-17.3-7.7-3.2-13.1 10.6-8.2 19.1 6.2 4.9 12.7-14.1 10.1zm-12.9-11.4l12.3 5.5 8.6-6.2-2.6-6.7-14.2-4.6-5.9 4.6 1.8 7.4z"/><path class="st7" d="M260.9 391.1c-.4 0-.7-.1-1-.2l-14.8-6.6c-.4-.2-.7-.4-.9-.7-.2-.3-.4-.7-.5-1l-2.5-10.2c-.1-.5-.1-1 .1-1.4s.5-.9.8-1.2l8.3-6.4c.3-.3.7-.4 1.1-.5.4-.1.8 0 1.2.1l16.7 5.4c.4.1.7.3 1 .6.3.3.5.6.6.9l3.8 9.7c.2.5.2 1.1.1 1.7-.2.5-.5 1-1 1.3l-11.4 8.2c-.5.2-1 .3-1.6.3zm-12.6-11l12.3 5.5 8.6-6.2-2.6-6.7-14.2-4.6-5.9 4.6 1.8 7.4z"/><path class="st23" d="M260.9 388.6l-14.8-6.6s-11.6 17.1-21.7 49.7c0 0 4.9 15.8 13.7 23.3l22.9-12.1c.1 0-1.5-38.8-.1-54.3z"/><path class="st7" d="M237.8 458l-1.3-1.1c-9.3-7.9-14.3-23.8-14.5-24.5l-.2-.8.2-.8c10-32.5 21.5-49.7 22-50.4l1.2-1.8 18.4 8.2-.2 1.8c-1.4 15.1.2 53.5.2 53.9l.1 1.6-25.9 13.9zm-10.7-26.4c1 2.9 5 13.9 11.4 20.2l19.9-10.5c-.3-7.3-1.3-36.5-.3-51.2l-11.1-5c-3 5.2-11.9 21.1-19.9 46.5z"/><g class="st8"><path class="st9" d="M261.3 388.8l11.5-8.2-3.9-10.1-16.9-5.1-7.5 7.1 6.4 1.4c5.3 1.1 6.7 8.1 2.3 11.2-1 10.3-.5 31.1-.2 43.8.1 3.2-.7 6.3-2.3 9-1.6 2.7-3.9 5-6.7 6.4l-10.8 5.7c1.4 2 3 3.8 4.8 5.3l.2.2 23.4-12.3v-.2c-.1-.6-1.7-38.8-.3-54.2z"/></g><path class="st7" d="M238.2 457.5c-.6 0-1.2-.2-1.7-.6-9.3-7.9-14.3-23.8-14.5-24.5-.2-.5-.2-1 0-1.5 10-32.5 21.5-49.7 22-50.4.3-.5.8-.9 1.4-1 .6-.2 1.2-.1 1.7.1l14.8 6.6c.5.2.9.6 1.2 1 .3.5.4 1 .3 1.5-1.4 15.1.2 53.5.2 53.9 0 .5-.1 1-.3 1.4-.2.4-.6.8-1 1l-22.9 12.1c-.4.3-.8.4-1.2.4zm-11.1-25.9c1 2.9 5 13.9 11.4 20.2l19.9-10.5c-.3-7.3-1.3-36.5-.3-51.2l-11.1-5c-3 5.2-11.9 21.1-19.9 46.5zM277.6 497c-5.1 3-10.7 5.1-16.6 6.3-5.9 1.1-12 1.7-17.9.6-3-.5-5.9-1.4-8.7-2.3l-2.1-.8-2.1-.9c-.7-.3-1.4-.6-2-.9l-1-.5-1-.5c-5.3-2.8-10-6.5-14-10.7-.1-.1-.1-.2-.1-.3 0-.1 0-.2.1-.3.1-.1.2-.1.3-.2.1 0 .2 0 .3.1 2.3 1.7 4.7 3.2 7.2 4.6 2.5 1.4 5 2.5 7.7 3.5 5.2 2 10.7 3.2 16.2 3.7 2.7.2 5.5.5 8.2.7 2.8.2 5.5.1 8.3 0 5.6-.4 11.2-1.5 16.5-3.2.2-.1.4 0 .5 0 .2.1.3.2.4.4.1.2.1.4 0 .5.1 0-.1.1-.2.2z"/><path class="st7" d="M264.3 560c-.4 0-.7-.1-1.1-.2-.3-.1-.6-.3-.9-.6s-.5-.6-.6-.9c-.1-.3-.2-.7-.2-1.1 0-.2 0-18-4.6-29.6-4.7-11.8-12.9-24.6-13-24.8-.4-.6-.5-1.4-.3-2.1.2-.7.6-1.3 1.2-1.7.6-.4 1.3-.5 2.1-.4.7.1 1.3.6 1.7 1.2.3.5 8.6 13.4 13.5 25.7 5 12.6 5 30.9 5 31.6 0 .7-.3 1.4-.8 1.9-.6.7-1.3 1-2 1z"/><path class="st7" d="M256.3 518.7c-.5 1-1 2.1-1.4 3.2-.5 1.1-.8 2.2-1.2 3.3-.7 2.2-1.3 4.5-1.6 6.8-.4 2.3-.6 4.6-.7 6.8v3.4l.1 3.6c.1 4.8.1 9.7.1 14.5-.1 4.8-.1 9.7-.1 14.5v.1c0 .5-.2 1-.5 1.5-.1.2-.2.2-.2.3l-.2.2c-.1.1-.2.3-.4.4-.2.2-.5.4-.7.6-.5.4-.9.7-1.5 1-1 .6-2 1-3.1 1.4-2 .6-4.1.9-6.2.9H192.8c-.3 0-.6-.1-1-.1-1.3-.2-2.5-.7-3.6-1.5-1.1-.7-2-1.7-2.7-2.8-.3-.6-.6-1.1-.8-1.8l-.3-.9-.1-.5v-.4c-.3-2-.4-4-.3-6 .1-2.1.6-4.2 1.3-6.1.8-2 2-3.9 3.6-5.5 1.5-1.6 3.4-2.7 5.3-3.6.7-.3 1.4-.4 2.1-.1.7.2 1.3.8 1.6 1.4.3.7.4 1.4.1 2.1-.2.7-.7 1.3-1.4 1.6h-.1c-1.4.7-2.6 1.5-3.7 2.5-1 1-1.8 2.3-2.4 3.6-1.1 2.8-1.2 6.1-.7 9.3v.5c0 .1.1.2.1.4.1.2.2.5.3.7.3.5.6.8 1.1 1.1.4.3.9.5 1.4.6H238.5c1.5 0 3.1-.2 4.5-.6.7-.2 1.3-.5 1.9-.9.3-.2.5-.3.8-.6l.3-.3.1-.1v.1l-.4 1.5c0-4.8-.1-9.7-.1-14.5-.1-4.8 0-9.7.1-14.5l.1-3.6.1-1.9c0-.6.1-1.3.2-1.9l.2-1.9.4-1.9c.1-.6.3-1.2.4-1.9s.3-1.2.5-1.8l.6-1.8.7-1.8c.2-.6.5-1.2.8-1.7l.8-1.7c.6-1.1 1.2-2.2 1.9-3.2.7-1.1 1.5-2.1 2.4-3 .2-.2.4-.3.6-.3.2 0 .4 0 .6.2.2.1.3.3.4.5.1.1.1.3-.1.6z"/><path class="st7" d="M194.2 540c-.5 0-1-.2-1.3-.5-.4-.3-.6-.8-.7-1.2-.1-.5.1-1 .3-1.4.3-.4.7-.7 1.2-.8 24-6 54.2-.3 55.5 0 .5.1 1 .4 1.3.8.3.4.4 1 .3 1.5-.1.5-.4 1-.8 1.3-.4.3-1 .4-1.5.3-.3-.1-30.6-5.8-53.7 0h-.6zM351.7 380l-18.5-1.9c-.2 0-.4-.1-.6-.3-.2-.2-.2-.4-.2-.6 0-.2.1-.4.2-.6.2-.2.4-.3.6-.3l18.5-1.9c.4 0 .7 0 1.1.1.4.1.7.3 1 .5.3.2.5.5.7.8.2.3.3.7.3 1 0 .4 0 .7-.1 1.1-.1.4-.3.7-.5 1-.2.3-.5.5-.9.7-.3.2-.7.3-1 .3-.2.1-.4.1-.6.1z"/><g class="st8"><path class="st9" d="M215.9 322.9v-.8h-.9l.9.8z"/></g><g class="st8"><path class="st9" d="M195.8 322.2l-1.6-.1-10.1 5 1.9 15.2 9-4h20.9v-6.2h-9.3c-5.7.1-10.3-4.3-10.8-9.9z"/></g><path class="st7" d="M192.1 553.7c1.6-1.3 3.6-2.2 5.5-2.7 2-.5 4-.7 6-.6 2 .1 3.9.4 5.8 1s3.6 1.4 5.2 2.6c.1 0 .1.1.1.2v.2c0 .1-.1.1-.1.2h-.2c-3.5-.6-7-.7-10.5-.1-1.6.3-3.3.7-4.8 1.2-1.6.5-3 1.1-4.5 1.8h-.1c-.5.2-1.1.3-1.6.1-.5-.2-1-.5-1.3-1-.3-.5-.4-1-.3-1.6.1-.4.4-.9.8-1.3z"/></svg>