<svg width="112" height="22" viewBox="0 0 112 22" fill="none" xmlns="http://www.w3.org/2000/svg">
<path fill-rule="evenodd" clip-rule="evenodd" d="M7.99984 4.69092L9.9565 8.68625L14.3332 9.33092L11.1665 12.4389L11.9138 16.8296L7.99984 14.7556L4.08584 16.8296L4.83317 12.4389L1.6665 9.33092L6.0425 8.68625L7.99984 4.69092Z" fill="#FF7201"/>
<path fill-rule="evenodd" clip-rule="evenodd" d="M25.9998 4.69092L27.9565 8.68625L32.3332 9.33092L29.1665 12.4389L29.9138 16.8296L25.9998 14.7556L22.0858 16.8296L22.8332 12.4389L19.6665 9.33092L24.0425 8.68625L25.9998 4.69092Z" fill="#FF7201"/>
<path fill-rule="evenodd" clip-rule="evenodd" d="M43.9998 4.69092L45.9565 8.68625L50.3332 9.33092L47.1665 12.4389L47.9138 16.8296L43.9998 14.7556L40.0858 16.8296L40.8332 12.4389L37.6665 9.33092L42.0425 8.68625L43.9998 4.69092Z" fill="#FF7201"/>
<path fill-rule="evenodd" clip-rule="evenodd" d="M61.9998 4.69092L63.9565 8.68625L68.3332 9.33092L65.1665 12.4389L65.9138 16.8296L61.9998 14.7556L58.0858 16.8296L58.8332 12.4389L55.6665 9.33092L60.0425 8.68625L61.9998 4.69092Z" fill="#FF7201"/>
<path fill-rule="evenodd" clip-rule="evenodd" d="M78.3333 4.69092L80.29 8.68625L84.6667 9.33092L81.5 12.4389L82.2473 16.8296L78.3333 14.7556L74.4193 16.8296L75.1667 12.4389L72 9.33092L76.376 8.68625L78.3333 4.69092Z" fill="#FF7201"/>
<mask id="mask0_2381_1522" style="mask-type:alpha" maskUnits="userSpaceOnUse" x="72" y="4" width="13" height="13">
<path fill-rule="evenodd" clip-rule="evenodd" d="M78.3333 4.69092L80.29 8.68625L84.6667 9.33092L81.5 12.4389L82.2473 16.8296L78.3333 14.7556L74.4193 16.8296L75.1667 12.4389L72 9.33092L76.376 8.68625L78.3333 4.69092Z" fill="#FF7201"/>
</mask>
<g mask="url(#mask0_2381_1522)">
<rect x="81" y="5" width="7" height="13" fill="#D9D9D9"/>
</g>
<rect x="90.6665" width="21.2501" height="21.5205" rx="10.625" fill="#EDEDED"/>
<g clip-path="url(#clip0_2381_1522)">
<path d="M107.917 10.9107C107.917 10.3548 107.872 9.94921 107.774 9.52856H101.427V12.0373H105.152C105.077 12.6608 104.672 13.5997 103.77 14.2307L103.758 14.3147L105.764 15.8693L105.904 15.8832C107.18 14.7039 107.917 12.9688 107.917 10.9107Z" fill="#4285F4"/>
<path d="M101.427 17.5206C103.252 17.5206 104.784 16.9197 105.904 15.8831L103.77 14.2306C103.2 14.6287 102.433 14.9066 101.427 14.9066C99.6393 14.9066 98.122 13.7274 97.5811 12.0974L97.5018 12.1041L95.415 13.719L95.3877 13.7949C96.4994 16.0033 98.7828 17.5206 101.427 17.5206" fill="#34A853"/>
<path d="M97.5809 12.0974C97.4382 11.6768 97.3556 11.2261 97.3556 10.7604C97.3556 10.2947 97.4381 9.84396 97.5734 9.42332L97.5696 9.33374L95.4567 7.69287L95.3875 7.72576C94.9294 8.64216 94.6665 9.67126 94.6665 10.7604C94.6665 11.8496 94.9294 12.8786 95.3876 13.795L97.5809 12.0975" fill="#FBBC05"/>
<path d="M101.427 6.61396C102.696 6.61396 103.553 7.16227 104.041 7.6205L105.949 5.75769C104.777 4.66852 103.252 4 101.427 4C98.7828 4 96.4994 5.51727 95.3877 7.72562L97.5735 9.42324C98.1219 7.79327 99.6391 6.61396 101.427 6.61396" fill="#EB4335"/>
</g>
<defs>
<clipPath id="clip0_2381_1522">
<rect width="13.2501" height="13.5205" fill="white" transform="translate(94.6665 4)"/>
</clipPath>
</defs>
</svg>
