<svg xmlns="http://www.w3.org/2000/svg" width="22" height="22" viewBox="0 0 22 22"><rect x=".667" width="21.25" height="21.52" rx="10.625" fill="#EDEDED"/><g clip-path="url(#a)"><path d="M17.917 10.91c0-.555-.045-.96-.143-1.381h-6.347v2.508h3.726c-.076.624-.481 1.563-1.383 2.194l-.012.084 2.007 1.554.139.014c1.276-1.18 2.013-2.914 2.013-4.972z" fill="#4285F4"/><path d="M11.427 17.52c1.825 0 3.357-.6 4.477-1.637l-2.133-1.652c-.571.398-1.338.676-2.344.676-1.788 0-3.305-1.18-3.846-2.81l-.08.007-2.086 1.615-.027.076a6.755 6.755 0 0 0 6.039 3.726" fill="#34A853"/><path d="M7.581 12.097a4.162 4.162 0 0 1-.225-1.337c0-.465.082-.916.218-1.337l-.004-.09-2.113-1.64-.07.033a6.768 6.768 0 0 0-.72 3.034c0 1.09.263 2.119.72 3.035l2.194-1.697" fill="#FBBC05"/><path d="M11.427 6.614c1.27 0 2.126.548 2.614 1.006l1.908-1.862C14.777 4.668 13.252 4 11.427 4a6.755 6.755 0 0 0-6.04 3.726l2.187 1.697c.548-1.63 2.065-2.809 3.853-2.809" fill="#EB4335"/></g><defs><clipPath id="a"><path fill="#fff" transform="translate(4.667 4)" d="M0 0h13.25v13.521H0z"/></clipPath></defs></svg>