<?xml version="1.0" encoding="UTF-8"?><!DOCTYPE svg PUBLIC "-//W3C//DTD SVG 1.1//EN" "http://www.w3.org/Graphics/SVG/1.1/DTD/svg11.dtd"><svg xmlns="http://www.w3.org/2000/svg"><defs><clipPath id="a"><path transform="translate(.645 .841)" d="M0 0h28.696v28.696H0z"/></clipPath><clipPath id="a"><path transform="translate(.645 .841)" d="M0 0h28.696v28.696H0z"/></clipPath><clipPath id="a"><path d="M0 0h20v20H0z"/></clipPath><clipPath id="a"><path d="M0 0h24v24H0z"/></clipPath></defs><symbol id="arrow-right" viewBox="0 0 24 24"><path d="M5 12h14H5zM13 18l6-6-6 6zM13 6l6 6-6-6z"/><path d="M5 12h14m0 0l-6 6m6-6l-6-6" stroke="#00FFCB" stroke-width="2" stroke-linecap="round" stroke-linejoin="round"/></symbol><symbol id="arrow" viewBox="0 0 12 16"><path d="M6 15V1M11.001 9.999L6 15 .999 9.999"/></symbol><symbol id="arrowFast" viewBox="0 0 24 24"><path d="M8 8H4M8.11 15.98L4 16M8.11 12H2" stroke="#323232" stroke-width="1.5" stroke-linecap="round" stroke-linejoin="round"/><path clip-rule="evenodd" d="M13.116 12.743l-1.312 3.281c-.349.874.591 1.703 1.414 1.246l8.44-4.689a.664.664 0 0 0 0-1.16l-8.44-4.689c-.823-.457-1.764.372-1.414 1.246l1.312 3.281a1.993 1.993 0 0 1 0 1.484z" stroke="#323232" stroke-width="1.5" stroke-linecap="round" stroke-linejoin="round"/></symbol><symbol id="arrowSlide" viewBox="0 0 16 12"><path d="M15 6H1M9.999.999L15 6l-5.001 5.001" stroke="#00B48F" stroke-width="2" stroke-linecap="round" stroke-linejoin="round"/></symbol><symbol id="attendance" viewBox="0 0 24 24"><path clip-rule="evenodd" d="M14 20h5a2 2 0 0 0 2-2V6a2 2 0 0 0-2-2H5a2 2 0 0 0-2 2v12a2 2 0 0 0 2 2h5l2 2 2-2z" stroke="#323232" stroke-width="1.5" stroke-linecap="round" stroke-linejoin="round"/><path d="M12.177 12.073a.25.25 0 1 1-.354.354.25.25 0 1 1 .354-.354M16.177 12.073a.25.25 0 1 1-.354.354.25.25 0 1 1 .354-.354M8.177 12.073a.25.25 0 1 1-.354.354.25.25 0 1 1 .354-.354" stroke="#323232" stroke-width="1.5" stroke-linecap="round" stroke-linejoin="round"/></symbol><symbol id="beleza-bem-estar" viewBox="0 0 40 40"><path clip-rule="evenodd" d="M6.436 26.589L16.81 16.213l6.977 6.978-10.375 10.375a4.934 4.934 0 1 1-6.977-6.977z"/><path clip-rule="evenodd" d="M32.361 21.477l-8.576 1.716-6.978-6.978 1.715-8.577a3.288 3.288 0 0 1 3.69-2.61l.177.024a14.806 14.806 0 0 1 12.558 12.559l.025.176a3.288 3.288 0 0 1-2.61 3.69z"/><path d="M9.996 30.004l3.335-3.335"/></symbol><symbol id="blog" viewBox="0 0 20 20"><path d="M17.5 3.75h-5A3.125 3.125 0 0 0 10 5a3.125 3.125 0 0 0-2.5-1.25h-5A1.25 1.25 0 0 0 1.25 5v10a1.25 1.25 0 0 0 1.25 1.25h5a1.875 1.875 0 0 1 1.875 1.875.625.625 0 1 0 1.25 0A1.875 1.875 0 0 1 12.5 16.25h5A1.25 1.25 0 0 0 18.75 15V5a1.25 1.25 0 0 0-1.25-1.25zM7.5 15h-5V5h5a1.875 1.875 0 0 1 1.875 1.875v8.75A3.11 3.11 0 0 0 7.5 15zm10 0h-5a3.11 3.11 0 0 0-1.875.625v-8.75A1.875 1.875 0 0 1 12.5 5h5v10z"/></symbol><symbol id="cart" viewBox="0 0 27 27"><path d="M6.715 7.453l-.75-3.375h-2.17" stroke="#323232" stroke-width="2" stroke-linecap="round" stroke-linejoin="round"/><path clip-rule="evenodd" d="M8.697 16.69L6.715 7.452h14.24c.717 0 1.25.66 1.1 1.361l-1.69 7.875c-.11.519-.568.89-1.1.89H9.797c-.53 0-.987-.371-1.099-.89z" stroke="#323232" stroke-width="2" stroke-linecap="round" stroke-linejoin="round"/><path d="M19.648 21.656a.422.422 0 1 0 .424.422.424.424 0 0 0-.424-.422M9.963 21.656a.419.419 0 0 0-.42.422.42.42 0 1 0 .843 0 .422.422 0 0 0-.423-.422" stroke="#323232" stroke-width="2" stroke-linecap="round" stroke-linejoin="round"/></symbol><symbol id="change" viewBox="0 0 20 20"><path d="M11.5 7.749a.75.75 0 0 0 0-1.5v1.5zm-6.502-1.5a.75.75 0 1 0 0 1.5v-1.5zm3.501 6.002a.75.75 0 0 0 0 1.5v-1.5zm6.503 1.5a.75.75 0 0 0 0-1.5v1.5zm-1 4.503H5.998v1.5h8.004v-1.5zm-8.004 0a4.252 4.252 0 0 1-4.252-4.252h-1.5a5.752 5.752 0 0 0 5.752 5.752v-1.5zm-4.252-4.252V5.998h-1.5v8.004h1.5zm0-8.004a4.252 4.252 0 0 1 4.252-4.252v-1.5A5.752 5.752 0 0 0 .246 5.998h1.5zm4.252-4.252h8.004v-1.5H5.998v1.5zm8.004 0a4.252 4.252 0 0 1 4.252 4.252h1.5A5.752 5.752 0 0 0 14.002.246v1.5zm4.252 4.252v8.004h1.5V5.998h-1.5zm0 8.004a4.252 4.252 0 0 1-4.252 4.252v1.5a5.752 5.752 0 0 0 5.752-5.752h-1.5zM11.5 6.249H4.998v1.5H11.5v-1.5zm2.5 1.75h-1.5v1.5h1.5V8zm-1.5 0a.25.25 0 0 1-.25-.25h-1.5c0 .967.783 1.75 1.75 1.75V8zm-.25-.25v-1.5h-1.5v1.5h1.5zm0-1.5a.25.25 0 0 1 .25-.251v-1.5a1.75 1.75 0 0 0-1.75 1.75h1.5zm.25-.251h1.5v-1.5h-1.5v1.5zm1.5 0a.25.25 0 0 1 .251.25h1.5a1.75 1.75 0 0 0-1.75-1.75v1.5zm.251.25V7.75h1.5v-1.5h-1.5zm0 1.501a.25.25 0 0 1-.25.25v1.5a1.75 1.75 0 0 0 1.75-1.75h-1.5zM8.5 13.751h6.503v-1.5H8.5v1.5zM6 12.001h1.5v-1.5h-1.5V12zm1.5 0a.25.25 0 0 1 .25.25h1.5A1.75 1.75 0 0 0 7.5 10.5V12zm.25.25v1.5h1.5v-1.5h-1.5zm0 1.5a.25.25 0 0 1-.25.25v1.5a1.75 1.75 0 0 0 1.75-1.75h-1.5zm-.25.25h-1.5v1.5h1.5v-1.5zm-1.5 0a.25.25 0 0 1-.251-.25h-1.5c0 .967.784 1.75 1.75 1.75v-1.5zm-.251-.25v-1.5h-1.5v1.5h1.5zm0-1.5a.25.25 0 0 1 .25-.25v-1.5a1.75 1.75 0 0 0-1.75 1.75h1.5z"/></symbol><symbol id="chatbot" viewBox="0 0 20 20"><path d="M15.625 3.75h-5v-2.5a.625.625 0 1 0-1.25 0v2.5h-5a2.5 2.5 0 0 0-2.5 2.5V15a2.5 2.5 0 0 0 2.5 2.5h11.25a2.5 2.5 0 0 0 2.5-2.5V6.25a2.5 2.5 0 0 0-2.5-2.5zM16.875 15a1.25 1.25 0 0 1-1.25 1.25H4.375A1.25 1.25 0 0 1 3.125 15V6.25A1.25 1.25 0 0 1 4.375 5h11.25a1.25 1.25 0 0 1 1.25 1.25V15zm-4.063-4.375H7.189a2.188 2.188 0 0 0 0 4.375h5.625a2.188 2.188 0 0 0 0-4.375zm-2.187 1.25v1.875h-1.25v-1.875h1.25zm-4.375.938a.937.937 0 0 1 .938-.938h.937v1.875h-.938a.938.938 0 0 1-.937-.938zm6.563.937h-.938v-1.875h.938a.938.938 0 0 1 0 1.875zM5.625 8.437a.937.937 0 1 1 1.875 0 .937.937 0 0 1-1.875 0zm6.875 0a.938.938 0 1 1 1.875 0 .938.938 0 0 1-1.875 0z"/></symbol><symbol id="check-circle" viewBox="0 0 20 20"><path d="M7 10l2 2 4-4M1 10a9 9 0 1 0 18.001 0A9 9 0 0 0 1 10z" stroke="#00B48F" stroke-width="2" stroke-linecap="round" stroke-linejoin="round"/></symbol><symbol id="check" viewBox="0 0 12 8"><path d="M10.33 1.375L4.574 7l-3.45-3.376" stroke="#323232" stroke-width="1.534" stroke-linecap="round" stroke-linejoin="round"/></symbol><symbol id="checked" viewBox="0 0 10 8"><path d="M1.5 4.438l2.188 2.187L8.5 1.375" stroke="#fff" stroke-width="1.313" stroke-linecap="round" stroke-linejoin="round"/></symbol><symbol id="checkfull" viewBox="0 0 25 25"><circle cx="12.5" cy="12.5" r="12.5"/><path d="M17.33 9.375L11.575 15l-3.45-3.376" stroke="#323232" stroke-width="1.534" stroke-linecap="round" stroke-linejoin="round"/></symbol><symbol id="checkmark-square" viewBox="0 0 24 24"><path d="M2.5 12c0-4.478 0-6.718 1.391-8.109S7.521 2.5 12 2.5c4.478 0 6.718 0 8.109 1.391S21.5 7.521 21.5 12c0 4.478 0 6.718-1.391 8.109C18.717 21.5 16.479 21.5 12 21.5c-4.478 0-6.718 0-8.109-1.391C2.5 18.717 2.5 16.479 2.5 12z" stroke="#00B48F" stroke-width="1.5"/><path d="M8 13.75s1.6.912 2.4 2.25c0 0 2.4-5.25 5.6-7" stroke="#00B48F" stroke-width="1.5" stroke-linecap="round" stroke-linejoin="round"/></symbol><symbol id="chevron" viewBox="0 0 14 8"><path fill-rule="evenodd" clip-rule="evenodd" d="M1 1l6 6 6-6"/><path d="M1 1l6 6 6-6" stroke="#00B48F" stroke-width="2" stroke-linecap="round" stroke-linejoin="round"/></symbol><symbol id="chevron2" viewBox="0 0 14 8"><path fill-rule="evenodd" clip-rule="evenodd" d="M1 1l6 6 6-6"/><path d="M1 1l6 6 6-6"/></symbol><symbol id="clinicas-hospitais" viewBox="0 0 40 40"><path clip-rule="evenodd" d="M20 9.518c1.148-1.343 3.135-2.851 6.16-2.851 5.29 0 8.84 4.966 8.84 9.591 0 9.669-12.037 17.075-15 17.075-2.963 0-15-7.406-15-17.075 0-4.625 3.55-9.591 8.84-9.591 3.025 0 5.012 1.508 6.16 2.851z"/><path d="M24.816 16.76l-6.019 6.018-3.612-3.611"/></symbol><symbol id="close" viewBox="0 0 38 38"><path d="M12.955 12.955l12.091 12.09m0-12.09l-12.09 12.09" stroke="#00B48F" stroke-width="2" stroke-linecap="round" stroke-linejoin="round"/></symbol><symbol id="coin" viewBox="0 0 30 30"><g clip-path="url(#a)"><path d="M11.406 17.58c0 1.982 3.211 3.588 7.174 3.588 3.962 0 7.174-1.606 7.174-3.587 0-1.982-3.212-3.587-7.174-3.587-3.963 0-7.174 1.605-7.174 3.587z"/><path d="M11.406 17.58v4.783c0 1.98 3.211 3.587 7.174 3.587 3.962 0 7.174-1.607 7.174-3.587V17.58M4.232 8.015c0 1.282 1.368 2.466 3.587 3.106 2.219.641 4.954.641 7.174 0 2.219-.64 3.586-1.824 3.586-3.106 0-1.282-1.367-2.465-3.586-3.106-2.22-.641-4.955-.641-7.174 0-2.22.64-3.587 1.824-3.587 3.106z"/><path d="M4.232 8.015v11.957c0 1.061.923 1.733 2.391 2.391M4.232 13.994c0 1.061.923 1.733 2.391 2.391"/></g></symbol><symbol id="coins" viewBox="0 0 30 30"><g clip-path="url(#a)"><path d="M11.406 17.58c0 1.982 3.211 3.588 7.174 3.588 3.962 0 7.174-1.606 7.174-3.587 0-1.982-3.212-3.587-7.174-3.587-3.963 0-7.174 1.605-7.174 3.587z"/><path d="M11.406 17.58v4.783c0 1.98 3.211 3.587 7.174 3.587 3.962 0 7.174-1.607 7.174-3.587V17.58M4.232 8.015c0 1.282 1.368 2.466 3.587 3.106 2.219.641 4.954.641 7.174 0 2.219-.64 3.586-1.824 3.586-3.106 0-1.282-1.367-2.465-3.586-3.106-2.22-.641-4.955-.641-7.174 0-2.22.64-3.587 1.824-3.587 3.106z"/><path d="M4.232 8.015v11.957c0 1.061.923 1.733 2.391 2.391M4.232 13.994c0 1.061.923 1.733 2.391 2.391"/></g></symbol><symbol id="cookie" viewBox="0 0 20 20"><g clip-path="url(#a)" stroke="#59608B" stroke-width="1.3" stroke-linecap="round" stroke-linejoin="round"><path d="M6.667 10.833v.009M10 14.167v.008M10 10v.008M13.333 11.667v.008M9.167 6.667v.008M10.957 2.897l2.222.92a3.333 3.333 0 0 0 3.88 5.116l.044.11a2.5 2.5 0 0 1 0 1.914c-.414.655-.698 1.17-.853 1.543-.157.38-.34.996-.55 1.847a2.5 2.5 0 0 1-1.353 1.352c-.874.22-1.49.403-1.847.551-.396.164-.91.448-1.543.853a2.5 2.5 0 0 1-1.914 0c-.668-.419-1.182-.703-1.543-.853-.393-.162-1.008-.345-1.847-.55a2.5 2.5 0 0 1-1.352-1.353c-.22-.876-.404-1.492-.551-1.847-.166-.399-.45-.913-.853-1.543a2.5 2.5 0 0 1 0-1.914c.4-.62.684-1.134.853-1.543.143-.344.326-.96.55-1.847a2.5 2.5 0 0 1 1.353-1.352c.86-.213 1.475-.397 1.847-.551.382-.158.896-.443 1.543-.853a2.5 2.5 0 0 1 1.914 0z"/></g></symbol><symbol id="device-desktop" viewBox="0 0 23 23"><path d="M4.312 17.25h14.375c.794 0 1.438-.644 1.438-1.438V5.75c0-.794-.644-1.438-1.438-1.438H4.312c-.793 0-1.437.644-1.437 1.438v10.063c0 .793.644 1.437 1.437 1.437zM14.375 21.125h-5.75M2.875 13.656h17.25"/></symbol><symbol id="device-mobile" viewBox="0 0 23 23"><path d="M17.25 19.406V3.594c0-.794-.643-1.438-1.437-1.438H7.188c-.794 0-1.438.644-1.438 1.438v15.812c0 .794.644 1.438 1.438 1.438h8.625c.793 0 1.437-.644 1.437-1.438z"/><path d="M11.5 6.469a1.078 1.078 0 1 0 0-2.156 1.078 1.078 0 0 0 0 2.156z"/></symbol><symbol id="easyManager" viewBox="0 0 20 20"><path d="M.996 11V3.998A3.001 3.001 0 0 1 3.998.996h12.005a3.001 3.001 0 0 1 3 3.002v12.005a3.001 3.001 0 0 1-3 3H10" stroke="#FFE000" stroke-width="1.5" stroke-linecap="round" stroke-linejoin="round"/><path clip-rule="evenodd" d="M8.686 9.282l1.982 1.982 2.834-2.768a.076.076 0 0 1 .12.022c.734 1.568.39 3.499-.905 4.793-1.254 1.255-3.038 1.585-4.558.99l-4.173 4.173a1.753 1.753 0 0 1-2.477 0 1.753 1.753 0 0 1 0-2.476l4.14-4.14c-.595-1.519-.264-3.303.99-4.558 1.293-1.293 3.22-1.574 4.789-.902a.077.077 0 0 1 .023.122L8.686 9.282z" stroke="#FFE000" stroke-width="1.5" stroke-linecap="round" stroke-linejoin="round"/></symbol><symbol id="ecommerce-01" viewBox="0 0 40 40"><path d="M31.667 15a6.667 6.667 0 1 1 0-13.334 6.667 6.667 0 0 1 0 13.334"/><path d="M34.63 6.852l-3.703 3.703-2.224-2.222M25.21 6.667H11.667A6.667 6.667 0 0 0 5 13.333v15A6.667 6.667 0 0 0 11.667 35h15a6.667 6.667 0 0 0 6.666-6.667V14.79"/><path d="M14.292 18.333h10.666l-1.166 5.834h-8.334l-1.666-8.334h-2.084M23.017 28.275a.083.083 0 0 1 0 .118.082.082 0 0 1-.119 0 .083.083 0 0 1 0-.118.083.083 0 0 1 .119 0M16.35 28.275a.082.082 0 0 1 0 .118.082.082 0 0 1-.118 0 .083.083 0 0 1 0-.118.083.083 0 0 1 .118 0"/></symbol><symbol id="ecommerce-02" viewBox="0 0 40 40"><path d="M28.333 32.5h3.334"/><path clip-rule="evenodd" d="M33.333 36.667h-6.666a3.343 3.343 0 0 1-3.334-3.334V20c0-1.833 1.5-3.333 3.334-3.333h6.666c1.834 0 3.334 1.5 3.334 3.333v13.333c0 1.834-1.5 3.334-3.334 3.334z"/><path d="M25 5h5c1.833 0 3.333 1.5 3.333 3.333V10M16.667 31.833H9.5C8 31.833 6.667 30.5 6.667 29v-4M18.167 5h-2L14.5 13.333H6.167L5 7.5h10.667M7 17.5c0-.167 0-.167 0 0 .167 0 .167 0 0 0 0 .167 0 .167 0 0-.167 0-.167 0 0 0M13.667 17.5c0-.167 0-.167 0 0 .166 0 .166 0 0 0 0 .167 0 .167 0 0-.167 0-.167 0 0 0"/></symbol><symbol id="ecommerce-03" viewBox="0 0 41 42"><path d="M13.83 36.006H8.353a2.86 2.86 0 0 1-2.858-2.858V27.67M27.17 7.661h5.478a2.86 2.86 0 0 1 2.858 2.858v5.479"/><path clip-rule="evenodd" d="M23.001 35.173v-.677a3.501 3.501 0 0 1 3.491-3.492h5.523a3.501 3.501 0 0 1 3.491 3.492v.677c0 .46-.373.833-.834.833H23.835a.834.834 0 0 1-.834-.833zM25.919 23.488a3.335 3.335 0 1 1 6.67.026 3.335 3.335 0 0 1-6.67-.026z"/><path d="M6.494 11.243v8.09M19.693 14.33v-3.087"/><path clip-rule="evenodd" d="M10.162 9.328h.095a2.783 2.783 0 0 0 2.835 2.053 2.783 2.783 0 0 0 2.828-2.053h.095a2.763 2.763 0 0 0 2.834 2.055 2.468 2.468 0 0 0 2.318-3.523l-1.099-2.168a2.501 2.501 0 0 0-2.236-1.366H8.328c-.942 0-1.804.53-2.23 1.37L5 7.862a2.466 2.466 0 0 0 2.328 3.518 2.766 2.766 0 0 0 2.834-2.053z"/><path d="M19.693 19.333v-8.09M13.09 19.333v-3.335M5.494 19.333h15.193"/></symbol><symbol id="ecommerce-04" viewBox="0 0 35 34"><path d="M30.833 31.333V14.3"/><path clip-rule="evenodd" d="M5.738 33H3.435a.931.931 0 0 1-.932-.932v-7.303c0-.515.417-.932.932-.932h2.303c.515 0 .932.417.932 1.002v7.303c0 .445-.417.862-.932.862z"/><path d="M6.67 31.025l1.803 1.495c.374.31.845.48 1.33.48h5.972a1.68 1.68 0 0 0 1.613-1.217l1.22-4.27a2.29 2.29 0 0 0-.295-1.898 2.257 2.257 0 0 0-1.88-1.01h-2.516"/><path clip-rule="evenodd" d="M4.668 14.297c-2.83-.02-4.675-2.822-3.448-5.237l2.86-5.628c.65-1.284 2.02-2.099 3.523-2.099h19.794c1.503 0 2.873.815 3.525 2.099l2.86 5.628c1.226 2.415-.619 5.217-3.449 5.237-2.361 0-4.276-1.614-4.276-3.605v-.08c0 2.035-1.915 3.685-4.277 3.685-2.365 0-4.28-1.65-4.28-3.685 0 2.035-1.915 3.685-4.277 3.685-2.361 0-4.276-1.65-4.276-3.685v.08c-.002 1.991-1.917 3.605-4.279 3.605z"/><path d="M24.167 31.333H32.5M13.917 24.605v-2.658c0-2.274-2.985-3.112-4.17-1.174L6.67 25.808"/></symbol><symbol id="ecommerce-05" viewBox="0 0 34 32"><path d="M33.006 31.006l-3.301-3.301M24.392 14.89a7.504 7.504 0 0 1 7.504 7.503c0 4.056-3.447 7.505-7.504 7.503a7.504 7.504 0 0 1 0-15.007"/><path d="M27.31 20.934l-3.648 3.648-2.19-2.19M2.994 22.67v3.334a3.334 3.334 0 0 0 3.334 3.335h6.67M33.006 12.665V4.328A3.334 3.334 0 0 0 29.671.994h-6.669M9.663 16v-3.335"/><path clip-rule="evenodd" d="M6.742 5.996h.095c.235 1.165 1.407 2.052 2.828 2.052 1.42 0 2.593-.887 2.828-2.052h.095C12.8 7.158 13.983 8.05 15.42 8.05c1.904-.013 3.146-1.9 2.32-3.523l-1.098-2.164a2.505 2.505 0 0 0-2.231-1.37H4.915c-.942 0-1.805.53-2.23 1.37L1.587 4.525c-.826 1.626.416 3.51 2.32 3.523 1.436.002 2.618-.89 2.835-2.052z"/><path d="M2.067 16h10.93M3.06 7.91V16M16.266 10.998V7.91"/></symbol><symbol id="educacao" viewBox="0 0 40 40"><path d="M31.672 13.33V8.329a3.335 3.335 0 0 0-3.335-3.334H8.33a3.335 3.335 0 0 0-3.335 3.334v21.676M11.664 4.994v21.675"/><path d="M18.333 26.67H8.329a3.335 3.335 0 1 0 0 6.67h8.337M33.091 18.333h-7.503M31.84 18.333v6.306l4.323 6.936a3.335 3.335 0 0 1-2.823 5.099h-7.995a3.335 3.335 0 0 1-2.834-5.1l4.323-6.935v-6.306M32.067 25.002H26.61"/></symbol><symbol id="facebook" viewBox="0 0 8 16"><path d="M5.164 15.498v-6.83h2.304l.343-2.675H5.164V4.29c0-.772.215-1.3 1.323-1.3H7.89V.606A18.613 18.613 0 0 0 5.834.5C3.798.5 2.4 1.743 2.4 4.026v1.962H.11v2.675h2.294v6.835h2.76z"/></symbol><symbol id="files" viewBox="0 0 24 24"><path d="M19 15V7.828a2 2 0 0 0-.586-1.414l-2.828-2.828A2 2 0 0 0 14.172 3H7a2 2 0 0 0-2 2v14a2 2 0 0 0 2 2h6M21 18l-3 3-2-2M8 11h6M8 14h6M8 17h4.33" stroke="#323232" stroke-width="1.5" stroke-linecap="round" stroke-linejoin="round"/><path d="M19 8h-4a1 1 0 0 1-1-1V3" stroke="#323232" stroke-width="1.5" stroke-linecap="round" stroke-linejoin="round"/></symbol><symbol id="fitness-esporte" viewBox="0 0 40 40"><path d="M38.75 19.375h-1.875V13.75A1.875 1.875 0 0 0 35 11.875h-3.125V10A1.875 1.875 0 0 0 30 8.125h-3.75A1.875 1.875 0 0 0 24.375 10v9.375h-8.75V10a1.875 1.875 0 0 0-1.875-1.875H10A1.875 1.875 0 0 0 8.125 10v1.875H5a1.875 1.875 0 0 0-1.875 1.875v5.625H1.25a.625.625 0 1 0 0 1.25h1.875v5.625A1.875 1.875 0 0 0 5 28.125h3.125V30A1.875 1.875 0 0 0 10 31.875h3.75A1.875 1.875 0 0 0 15.625 30v-9.375h8.75V30a1.875 1.875 0 0 0 1.875 1.875H30A1.875 1.875 0 0 0 31.875 30v-1.875H35a1.875 1.875 0 0 0 1.875-1.875v-5.625h1.875a.624.624 0 1 0 0-1.25zM5 26.875a.625.625 0 0 1-.625-.625v-12.5A.625.625 0 0 1 5 13.125h3.125v13.75H5zM14.375 30a.624.624 0 0 1-.625.625H10A.625.625 0 0 1 9.375 30V10A.625.625 0 0 1 10 9.375h3.75a.625.625 0 0 1 .625.625v20zm16.25 0a.624.624 0 0 1-.625.625h-3.75a.624.624 0 0 1-.625-.625V10a.625.625 0 0 1 .625-.625H30a.625.625 0 0 1 .625.625v20zm5-3.75a.624.624 0 0 1-.625.625h-3.125v-13.75H35a.624.624 0 0 1 .625.625v12.5z"/></symbol><symbol id="fullCustom" viewBox="0 0 20 20"><path d="M16 3h3M1 3h8M11 10h8M1 10h3M16 17h3M1 17h8M15.414 1.586a2 2 0 1 1-2.828 2.828 2 2 0 0 1 2.828-2.828M7.414 8.586a2 2 0 1 1-2.828 2.828 2 2 0 0 1 2.828-2.828M15.414 15.586a2 2 0 1 1-2.828 2.828 2 2 0 0 1 2.828-2.828"/></symbol><symbol id="googleOptimezed" viewBox="0 0 24 24"><path d="M15.2 8.16A5 5 0 1 0 17 12h-4.375" stroke="#FFE000" stroke-width="1.5" stroke-linecap="round" stroke-linejoin="round"/><path clip-rule="evenodd" d="M7.5 3h9.004A4.496 4.496 0 0 1 21 7.496v9.009A4.496 4.496 0 0 1 16.504 21H7.496A4.496 4.496 0 0 1 3 16.504V7.5A4.5 4.5 0 0 1 7.5 3z" stroke="#FFE000" stroke-width="1.5" stroke-linecap="round" stroke-linejoin="round"/></symbol><symbol id="highTecnologies" viewBox="0 0 22 22"><path clip-rule="evenodd" d="M8.225 14.496H6.843a.559.559 0 0 1-.559-.559V9.555c0-.309.25-.559.559-.559h1.382c.309 0 .559.25.559.601v4.382c0 .266-.25.517-.559.517z" stroke="#FFE000" stroke-width="1.5" stroke-linecap="round" stroke-linejoin="round"/><path d="M8.784 13.311l1.082.897c.224.186.507.288.798.288h3.583c.449 0 .844-.298.968-.73l.732-2.562a1.374 1.374 0 0 0-.177-1.139 1.354 1.354 0 0 0-1.128-.606h-1.665l.005-1.702c.004-1.265-1.657-1.735-2.317-.656l-1.882 3.081" stroke="#FFE000" stroke-width="1.5" stroke-linecap="round" stroke-linejoin="round"/><path clip-rule="evenodd" d="M11.607 2.271l1.45-.709a1.381 1.381 0 0 1 1.827.594l.757 1.426c.2.376.562.639.982.713l1.59.279a1.381 1.381 0 0 1 1.129 1.554l-.226 1.598c-.06.422.079.848.375 1.154l1.122 1.16a1.382 1.382 0 0 1 0 1.921l-1.122 1.16a1.381 1.381 0 0 0-.375 1.154l.226 1.598a1.381 1.381 0 0 1-1.129 1.554l-1.59.279c-.42.074-.782.337-.982.713l-.757 1.426a1.382 1.382 0 0 1-1.827.594l-1.45-.709a1.382 1.382 0 0 0-1.213 0l-1.45.709a1.381 1.381 0 0 1-1.827-.594l-.757-1.427a1.384 1.384 0 0 0-.982-.713l-1.59-.279a1.381 1.381 0 0 1-1.129-1.554l.226-1.598a1.381 1.381 0 0 0-.375-1.154l-1.122-1.16a1.382 1.382 0 0 1 0-1.921l1.122-1.16c.296-.306.435-.732.375-1.154L2.66 6.127a1.38 1.38 0 0 1 1.129-1.553l1.59-.279c.419-.074.781-.337.981-.713l.757-1.426a1.382 1.382 0 0 1 1.827-.594l1.45.709c.382.187.83.187 1.213 0z" stroke="#FFE000" stroke-width="1.5" stroke-linecap="round" stroke-linejoin="round"/></symbol><symbol id="home" viewBox="0 0 14 15"><path opacity=".6" d="M13.623 5.815L7.79.312A1.167 1.167 0 0 0 6.212.304l-.008.008L.377 5.815a1.167 1.167 0 0 0-.377.86v6.74a1.167 1.167 0 0 0 1.167 1.167h3.5a1.167 1.167 0 0 0 1.166-1.167v-3.5h2.334v3.5a1.167 1.167 0 0 0 1.166 1.167h3.5A1.167 1.167 0 0 0 14 13.415v-6.74a1.167 1.167 0 0 0-.377-.86zm-.79 7.6h-3.5v-3.5A1.167 1.167 0 0 0 8.167 8.75H5.833a1.167 1.167 0 0 0-1.166 1.166v3.5h-3.5v-6.74l.008-.008L7 1.165l5.826 5.5.008.008v6.742z"/></symbol><symbol id="instagram" viewBox="0 0 20 20"><path d="M10 6.147a3.853 3.853 0 1 0 0 7.707 3.853 3.853 0 0 0 0-7.707zm0 6.356a2.503 2.503 0 1 1-.001-5.006 2.503 2.503 0 0 1 0 5.006zM14.005 6.904a.898.898 0 1 0 0-1.797.898.898 0 0 0 0 1.797z"/><path d="M17.11 5.092A3.838 3.838 0 0 0 14.918 2.9a5.505 5.505 0 0 0-1.822-.35c-.803-.035-1.057-.045-3.092-.045s-2.295 0-3.091.045a5.462 5.462 0 0 0-1.82.35 3.833 3.833 0 0 0-2.194 2.193 5.487 5.487 0 0 0-.35 1.822c-.035.802-.046 1.056-.046 3.092 0 2.035 0 2.294.046 3.091.013.624.13 1.239.35 1.823a3.842 3.842 0 0 0 2.195 2.193 5.488 5.488 0 0 0 1.82.375c.803.035 1.057.046 3.092.046s2.296 0 3.092-.046a5.511 5.511 0 0 0 1.821-.35 3.844 3.844 0 0 0 2.195-2.193c.219-.584.336-1.199.349-1.822.035-.802.046-1.056.046-3.092 0-2.035 0-2.294-.046-3.091a5.483 5.483 0 0 0-.351-1.848zm-1.014 7.944c-.006.48-.093.956-.26 1.406a2.49 2.49 0 0 1-1.426 1.426 4.155 4.155 0 0 1-1.392.26c-.791.036-1.015.045-3.045.045-2.031 0-2.239 0-3.045-.046a4.132 4.132 0 0 1-1.391-.259 2.488 2.488 0 0 1-1.433-1.426 4.233 4.233 0 0 1-.259-1.39c-.036-.792-.044-1.016-.044-3.046s0-2.238.044-3.045c.005-.48.093-.956.26-1.406a2.489 2.489 0 0 1 1.432-1.427 4.175 4.175 0 0 1 1.39-.26c.793-.035 1.016-.045 3.046-.045 2.031 0 2.24 0 3.045.046.476.006.946.093 1.392.26a2.493 2.493 0 0 1 1.427 1.426c.163.446.251.916.259 1.39.036.793.045 1.016.045 3.046s0 2.249-.036 3.045h-.01z"/></symbol><symbol id="letter" viewBox="0 0 24 24"><path clip-rule="evenodd" d="M3 6.8c0 .6.3 1.1.8 1.5l6 4.1c1.4.9 3.1.9 4.5 0l6-4c.4-.5.7-1 .7-1.6 0-1-.8-1.8-1.8-1.8H4.8C3.8 5 3 5.8 3 6.8z"/><path d="M3 7v10c0 1.1.9 2 2 2h14c1.1 0 2-.9 2-2V7M3.588 18.412l6.094-6.094M14.36 12.36l6.052 6.052"/></symbol><symbol id="like" viewBox="0 0 24 24"><path d="M7 11v8a1 1 0 0 1-1 1H4a1 1 0 0 1-1-1v-7a1 1 0 0 1 1-1h3zm0 0a4 4 0 0 0 4-4V6a2 2 0 1 1 4 0v5h3a2 2 0 0 1 2 2l-1 5c-.144.613-.417 1.14-.777 1.501-.361.36-.79.536-1.223.499h-7a3 3 0 0 1-3-3"/></symbol><symbol id="linkedin" viewBox="0 0 20 20"><path d="M4.152 5.997a1.823 1.823 0 1 0 0-3.646 1.823 1.823 0 0 0 0 3.646zM7.697 7.379v10.116h3.141v-5.003c0-1.32.249-2.598 1.885-2.598 1.614 0 1.634 1.51 1.634 2.682v4.92H17.5v-5.548c0-2.725-.587-4.82-3.772-4.82-1.529 0-2.554.84-2.973 1.634h-.043V7.38H7.699zm-5.118 0h3.146v10.116H2.579V7.379z"/></symbol><symbol id="loja-virtual" viewBox="0 0 20 20"><path d="M17.355 4.6a.626.626 0 0 0-.48-.225H4.272L3.89 2.277A1.25 1.25 0 0 0 2.66 1.25H1.25a.625.625 0 0 0 0 1.25h1.406l1.997 10.96c.059.325.203.629.417.88a2.188 2.188 0 1 0 3.468.66h3.549a2.187 2.187 0 1 0 1.976-1.25H6.497a.625.625 0 0 1-.615-.513l-.248-1.362h9.063a1.875 1.875 0 0 0 1.844-1.54l.95-5.223a.624.624 0 0 0-.137-.513zM7.5 15.937a.937.937 0 1 1-1.874 0 .937.937 0 0 1 1.874 0zm7.5 0a.937.937 0 1 1-1.875 0 .937.937 0 0 1 1.875 0zm.313-5.826a.625.625 0 0 1-.618.513H5.408l-.909-5h11.627l-.814 4.487z"/></symbol><symbol id="maintenance" viewBox="0 0 24 24"><path clip-rule="evenodd" d="M14.601 7.505l2.558-2.558a.07.07 0 0 0-.021-.113c-1.452-.621-3.236-.361-4.433.836-1.162 1.162-1.468 2.814-.917 4.22l-3.833 3.833a1.623 1.623 0 0 0 2.294 2.294l3.864-3.864c1.407.55 3.058.245 4.22-.917 1.199-1.199 1.517-2.986.838-4.438a.07.07 0 0 0-.112-.02L16.436 9.34l-.917-.917-.918-.918z" stroke="#323232" stroke-width="1.5" stroke-linecap="round" stroke-linejoin="round"/><path d="M11 2.553c-4.776.5-8.5 4.538-8.5 9.447a9.5 9.5 0 0 0 9.5 9.5c4.909 0 8.947-3.724 9.447-8.5" stroke="#323232" stroke-width="1.5" stroke-linecap="round" stroke-linejoin="round"/></symbol><symbol id="memberArea" viewBox="0 0 22 16"><path d="M1 15c0-2.2 1.8-4 4-4h4c2.2 0 4 1.8 4 4M9.5 2c1.4 1.4 1.4 3.6 0 4.9-1.4 1.3-3.6 1.4-4.9 0C3.3 5.5 3.2 3.4 4.5 2 5.8.6 8.1.7 9.5 2M15 10h3c1.7 0 3 1.3 3 3M18.3 2.7c1 1 1 2.6 0 3.5-1 .9-2.6 1-3.5 0-.9-1-1-2.6 0-3.5.9-.9 2.5-.9 3.5 0" stroke="#FFD527" stroke-width="1.5" stroke-linecap="round" stroke-linejoin="round"/></symbol><symbol id="money" viewBox="0 0 24 24"><path d="M12.001 9.375V8.5M12.001 14.625v.875M10.483 14c.227.371.614.628 1.081.628H12.523a1.228 1.228 0 0 0 .298-2.421l-1.64-.412a1.228 1.228 0 0 1 .298-2.421H12.438c.467 0 .853.255 1.08.625" stroke="#323232" stroke-width="1.5" stroke-linecap="round" stroke-linejoin="round"/><path clip-rule="evenodd" d="M19.804 18.213a17.256 17.256 0 0 0-7.567.18l-.237.06a18.334 18.334 0 0 1-8.043.19l-.153-.03a1 1 0 0 1-.804-.98V6.793a1 1 0 0 1 1.196-.98c2.505.5 5.089.439 7.567-.18l.473-.118a17.257 17.257 0 0 1 7.567-.18l.392.078a1 1 0 0 1 .805.98v10.84a1 1 0 0 1-1.196.98z" stroke="#323232" stroke-width="1.5" stroke-linecap="round" stroke-linejoin="round"/></symbol><symbol id="mouse" viewBox="0 0 24 24"><g clip-path="url(#a)" stroke="#fff" stroke-width="1.5" stroke-linecap="round" stroke-linejoin="round"><path d="M6 7a4 4 0 0 1 4-4h4a4 4 0 0 1 4 4v10a4 4 0 0 1-4 4h-4a4 4 0 0 1-4-4V7zM12 7v4"/></g></symbol><symbol id="onlineCourse" viewBox="0 0 21 21"><path d="M8 19.004H2.996a2 2 0 0 1-2-2.001V2.997a2 2 0 0 1 2-2h14.006a2 2 0 0 1 2 2V8M.996 5.998h18.008" stroke="#FFD527" stroke-width="1.5" stroke-linecap="round" stroke-linejoin="round"/><path clip-rule="evenodd" d="M20.004 15.002a5.001 5.001 0 0 1-5.002 5.002A5.001 5.001 0 0 1 10 15.002 5.001 5.001 0 0 1 15.002 10a5.001 5.001 0 0 1 5.002 5.002z" stroke="#FFD527" stroke-width="1.5" stroke-linecap="round" stroke-linejoin="round"/><path clip-rule="evenodd" d="M14.283 13.003l2.637 1.56a.51.51 0 0 1 0 .877L14.283 17a.51.51 0 0 1-.77-.44v-3.118c0-.395.43-.64.77-.439z" stroke="#FFD527" stroke-width="1.5" stroke-linecap="round" stroke-linejoin="round"/></symbol><symbol id="phone" viewBox="0 0 20 20"><path fill-rule="evenodd" clip-rule="evenodd" d="M8.131 11.869A12.634 12.634 0 0 1 5.493 8.06a.75.75 0 0 1 .166-.827l.819-.819c.671-.671.671-1.62.085-2.206L5.39 3.035a2 2 0 0 0-2.828 0l-.652.651c-.741.741-1.05 1.81-.85 2.87.494 2.613 2.012 5.474 4.461 7.923 2.449 2.449 5.31 3.967 7.923 4.461 1.06.2 2.129-.109 2.87-.85l.651-.651a2 2 0 0 0 0-2.828l-1.173-1.173a1.5 1.5 0 0 0-2.121 0l-.903.904a.749.749 0 0 1-.827.166 12.678 12.678 0 0 1-3.81-2.639z"/><path d="M19 7V1h-6M13 7l6-6"/></symbol><symbol id="photo" viewBox="0 0 20 18"><path d="M15 10l-1 1-1-1" stroke="#323232" stroke-width="1.5" stroke-linecap="round" stroke-linejoin="round"/><path d="M13.892 10.892c.066-.288.108-.584.108-.892a4 4 0 0 0-4-4c-.849 0-1.633.268-2.281.719" stroke="#323232" stroke-width="1.5" stroke-linecap="round" stroke-linejoin="round"/><path clip-rule="evenodd" d="M19 6v9a2 2 0 0 1-2 2H3a2 2 0 0 1-2-2V6a2 2 0 0 1 2-2h2l1.462-2.504A1 1 0 0 1 7.326 1h5.304c.351 0 .676.184.857.484L15 4h2a2 2 0 0 1 2 2z" stroke="#323232" stroke-width="1.5" stroke-linecap="round" stroke-linejoin="round"/><path d="M5 10l1-1 1 1" stroke="#323232" stroke-width="1.5" stroke-linecap="round" stroke-linejoin="round"/><path d="M6.108 9.108A3.974 3.974 0 0 0 6 10a4 4 0 0 0 4 4c.849 0 1.633-.268 2.281-.72" stroke="#323232" stroke-width="1.5" stroke-linecap="round" stroke-linejoin="round"/></symbol><symbol id="pinterest" viewBox="0 0 24 24"><path d="M12.326 0C5.747.001 2.25 4.216 2.25 8.812c0 2.131 1.191 4.79 3.098 5.633.544.245.472-.054.94-1.844a.425.425 0 0 0-.102-.417c-2.726-3.153-.532-9.635 5.751-9.635 9.093 0 7.394 12.582 1.582 12.582-1.498 0-2.614-1.176-2.261-2.631.428-1.733 1.266-3.596 1.266-4.845 0-3.148-4.69-2.681-4.69 1.49 0 1.289.456 2.159.456 2.159S6.781 17.4 6.501 18.539c-.474 1.928.064 5.049.111 5.318.029.148.195.195.288.073.149-.195 1.973-2.797 2.484-4.678.186-.685.949-3.465.949-3.465.503.908 1.953 1.668 3.498 1.668 4.596 0 7.918-4.04 7.918-9.053C21.733 3.596 17.62 0 12.326 0z"/></symbol><symbol id="play" viewBox="0 0 16 18"><path d="M15 7.268c1.333.77 1.333 2.694 0 3.464L3 17.66c-1.333.77-3-.192-3-1.732V2.072C0 .532 1.667-.43 3 .34l12 6.928z"/></symbol><symbol id="portalsDirectories" viewBox="0 0 26 26"><path d="M7.998 22.004H5.497a2 2 0 0 1-2.001-2.001V5.997a2 2 0 0 1 2-2h15.007a2 2 0 0 1 2.001 2V14M3.496 8.998h19.008" stroke="#FFE000" stroke-width="1.5" stroke-linecap="round" stroke-linejoin="round"/><path d="M18.002 22.004h1a3.001 3.001 0 0 0 0-6.003h-1M15 16.001h-1a3.001 3.001 0 0 0 0 6.003h1M14 19.003h5.003M11.637 6.497a.05.05 0 1 0-.1 0 .05.05 0 0 0 .1 0M9.098 6.497a.05.05 0 1 0-.1 0 .05.05 0 0 0 .1 0M6.552 6.497a.05.05 0 1 0-.1 0 .05.05 0 0 0 .1 0" stroke="#FFE000" stroke-width="1.5" stroke-linecap="round" stroke-linejoin="round"/></symbol><symbol id="portfolio" viewBox="0 0 20 20"><path clip-rule="evenodd" d="M5.608 8.403a2.795 2.795 0 1 1 0-5.59 2.795 2.795 0 0 1 0 5.59zM14.392 8.403a2.795 2.795 0 1 1 0-5.59 2.795 2.795 0 1 1 0 5.59zM5.608 17.188a2.795 2.795 0 1 1 0-5.59 2.795 2.795 0 1 1 0 5.59zM17.188 14.392a2.795 2.795 0 1 0-5.59 0 2.795 2.795 0 1 0 5.59 0z"/></symbol><symbol id="quotation" viewBox="0 0 39 33"><path d="M16.08 16.56v16.2H0v-4.2C0 22 .48 17.12 1.44 13.92 2.48 10.64 5.16 6 9.48 0l6.84 3.84c-3.6 6.16-5.68 10.4-6.24 12.72h6zm21.84 0v16.2H21.84v-4.2c0-6.56.48-11.44 1.44-14.64C24.32 10.64 27 6 31.32 0l6.84 3.84c-3.6 6.16-5.68 10.4-6.24 12.72h6z"/></symbol><symbol id="ray" viewBox="0 0 14 16"><path fill-rule="evenodd" clip-rule="evenodd" d="M7.806.5L.958 9.667H7L6.194 15.5l6.848-9.167H7L7.806.5z"/></symbol><symbol id="responsive" viewBox="0 0 22 20"><path d="M14 12.889H3.184A2.184 2.184 0 0 1 1 10.705V3.184C1 1.978 1.978 1 3.184 1h10.633C15.022 1 16 1.978 16 3.184V8M10.2 12.89l.39 3.11M7.09 12.89L6.7 16M5.64 16h6" stroke="#FFE000" stroke-width="1.5" stroke-linecap="round" stroke-linejoin="round"/><path clip-rule="evenodd" d="M16 8h3a2 2 0 0 1 2 2v7a2 2 0 0 1-2 2h-3a2 2 0 0 1-2-2v-7a2 2 0 0 1 2-2z" stroke="#FFE000" stroke-width="1.5" stroke-linecap="round" stroke-linejoin="round"/><path d="M16.75 16.75h1.5" stroke="#FFE000" stroke-width="1.5" stroke-linecap="round" stroke-linejoin="round"/></symbol><symbol id="RH-recrutamento" viewBox="0 0 40 40"><path clip-rule="evenodd" d="M32.222 30H12.778A2.778 2.778 0 0 1 10 27.222V7.778A2.778 2.778 0 0 1 12.778 5h19.445A2.777 2.777 0 0 1 35 7.778v19.445A2.777 2.777 0 0 1 32.222 30z"/><path d="M25.446 11.943a4.169 4.169 0 0 1 0 5.894 4.167 4.167 0 1 1 0-5.893M30 25.723a3.973 3.973 0 0 0-.99-1.443 3.946 3.946 0 0 0-2.69-1.057h-7.64a3.973 3.973 0 0 0-3.68 2.5"/><path d="M30 30v2.222A2.778 2.778 0 0 1 27.222 35H7.778A2.778 2.778 0 0 1 5 32.222V12.778A2.778 2.778 0 0 1 7.778 10H10"/></symbol><symbol id="salesTools" viewBox="0 0 24 24"><path d="M1.5 11.25L3 9.75l1.5 1.5M22.5 12.75l-1.5 1.5-1.5-1.5" stroke="#FFE000" stroke-width="1.5" stroke-linecap="round" stroke-linejoin="round"/><path d="M3.235 9.985A8.982 8.982 0 0 0 3 12a9 9 0 0 0 9 9 8.982 8.982 0 0 0 7.371-3.845M20.765 14.015A8.982 8.982 0 0 0 21 12a9 9 0 0 0-9-9 8.982 8.982 0 0 0-7.371 3.845" stroke="#FFE000" stroke-width="1.5" stroke-linecap="round" stroke-linejoin="round"/><path d="M9.05 10.25h6.4l-.7 3.5h-5l-1-5H7.5M14.285 16.215a.05.05 0 0 1 0 .071.05.05 0 0 1-.071 0 .05.05 0 0 1 0-.071.05.05 0 0 1 .071 0M10.285 16.215a.05.05 0 0 1 0 .071.05.05 0 0 1-.071 0 .05.05 0 0 1 0-.071.05.05 0 0 1 .071 0" stroke="#FFE000" stroke-width="1.5" stroke-linecap="round" stroke-linejoin="round"/></symbol><symbol id="screen" viewBox="0 0 22 20"><path clip-rule="evenodd" d="M19.919 14.002H2.08c-.599 0-1.085-.487-1.085-1.086V2.082c0-.6.486-1.086 1.085-1.086H19.92c.598 0 1.084.486 1.084 1.086v10.835c0 .598-.486 1.085-1.085 1.085z" stroke="#323232" stroke-width="1.5" stroke-linecap="round" stroke-linejoin="round"/><path stroke="#323232" stroke-width="1.5" stroke-linecap="round" stroke-linejoin="round" d="M8.499 14.002h5.002v5.002H8.499z"/></symbol><symbol id="search" viewBox="0 0 26 26"><path clip-rule="evenodd" d="M12.059 19.12a7.062 7.062 0 1 0 0-14.123 7.062 7.062 0 0 0 0 14.124z"/><path d="M21.003 21.003l-3.951-3.951"/></symbol><symbol id="seo" viewBox="0 0 20 20"><path d="M16.364 3.636A9 9 0 1 1 3.636 16.364 9 9 0 0 1 16.364 3.636" stroke="#323232" stroke-width="1.5" stroke-linecap="round" stroke-linejoin="round"/><path clip-rule="evenodd" d="M13 14h-2V6a1 1 0 0 1 1-1h1a1 1 0 0 1 1 1v7a1 1 0 0 1-1 1z" stroke="#323232" stroke-width="1.5" stroke-linecap="round" stroke-linejoin="round"/><path d="M11 14H8V9a1 1 0 0 1 1-1h2M8 14H6a1 1 0 0 1-1-1v-1a1 1 0 0 1 1-1h2" stroke="#323232" stroke-width="1.5" stroke-linecap="round" stroke-linejoin="round"/></symbol><symbol id="site-expresso" viewBox="0 0 20 20"><path d="M14.52 6.28a6.392 6.392 0 1 1-9.04 9.038 6.392 6.392 0 0 1 9.04-9.039M8.402 2.01h3.196"/><path d="M11.784 9.88l-2.229 2.23-1.34-1.336M17.19 5.206l-1.597-1.598.799.8-1.872 1.871"/></symbol><symbol id="site-sobmedida" viewBox="0 0 20 20"><path clip-rule="evenodd" d="M16.389 17.188H3.61a1.597 1.597 0 0 1-1.597-1.598V4.41c0-.883.715-1.598 1.597-1.598H16.39c.882 0 1.597.715 1.597 1.598v11.18c0 .883-.715 1.598-1.597 1.598z"/><path d="M2.014 6.806h15.972M4.233 4.801c-.002 0-.004.002-.004.004s.002.004.004.004c.003 0 .004-.002.004-.004s-.001-.004-.004-.004M6.264 4.801c-.002 0-.004.002-.004.004s.002.004.004.004.004-.002.004-.004-.002-.004-.004-.004M8.292 4.801c-.003 0-.004.002-.004.004s.001.004.004.004c.002 0 .004-.002.004-.004s-.002-.004-.004-.004"/></symbol><symbol id="software-house" viewBox="0 0 20 20"><path d="M9.167 16.667h-5A1.667 1.667 0 0 1 2.5 15V5a1.667 1.667 0 0 1 1.667-1.667h11.666A1.666 1.666 0 0 1 17.5 5v5.833m-10 3.334h2.083m7.084 3.333l1.666-1.667-1.666-1.666m-2.5 0L12.5 15.833l1.667 1.667"/></symbol><symbol id="star-port" viewBox="0 0 22 22"><path fill-rule="evenodd" clip-rule="evenodd" d="M7.663 18.955a1.293 1.293 0 0 1-1.872-1.373l.698-3.998-2.937-2.814a1.293 1.293 0 0 1 .713-2.217l4.077-.583 1.841-3.672a1.293 1.293 0 0 1 2.318 0l1.84 3.672 4.078.583a1.293 1.293 0 0 1 .713 2.217l-2.937 2.814.698 3.999a1.293 1.293 0 0 1-1.872 1.373l-3.679-1.902-3.679 1.9z"/></symbol><symbol id="star" viewBox="0 0 26 26"><path clip-rule="evenodd" d="M8.731 21.833A1.5 1.5 0 0 1 6.56 20.24l.81-4.639-3.408-3.265a1.5 1.5 0 0 1 .828-2.572l4.73-.677 2.136-4.26a1.5 1.5 0 0 1 2.69 0l2.135 4.26 4.731.677a1.5 1.5 0 0 1 .828 2.572L18.63 15.6l.81 4.64a1.5 1.5 0 0 1-2.172 1.593L13 19.628l-4.269 2.205z" stroke="#323232" stroke-width="1.5" stroke-linecap="round" stroke-linejoin="round"/></symbol><symbol id="suporte-cliente" viewBox="0 0 40 40"><path d="M4.994 31.672a6.536 6.536 0 0 1 6.534-6.535h6.535a6.536 6.536 0 0 1 6.534 6.535M32.82 8.328a7.463 7.463 0 0 1 0 10.555M27.863 10.968a3.732 3.732 0 0 1 0 5.277"/><path clip-rule="evenodd" d="M14.796 19.583a5.419 5.419 0 1 0 0-10.838 5.419 5.419 0 0 0 0 10.838z"/></symbol><symbol id="support" viewBox="0 0 24 24"><path clip-rule="evenodd" d="M14 20h5a2 2 0 0 0 2-2V6a2 2 0 0 0-2-2H5a2 2 0 0 0-2 2v12a2 2 0 0 0 2 2h5l2 2 2-2z" stroke="#FFE000" stroke-width="1.5" stroke-linecap="round" stroke-linejoin="round"/><path d="M15.884 13.684a5.575 5.575 0 0 1-7.884 0M10 8.684v1M14 8.684v1" stroke="#FFE000" stroke-width="1.5" stroke-linecap="round" stroke-linejoin="round"/></symbol><symbol id="text" viewBox="0 0 24 24"><path d="M8.969 15L12 9l3.031 6M9.73 13.52h4.55M5 7v10M19 17V7" stroke="#323232" stroke-width="1.5" stroke-linecap="round" stroke-linejoin="round"/><path clip-rule="evenodd" d="M20 21h-2a1 1 0 0 1-1-1v-2a1 1 0 0 1 1-1h2a1 1 0 0 1 1 1v2a1 1 0 0 1-1 1zM6 21H4a1 1 0 0 1-1-1v-2a1 1 0 0 1 1-1h2a1 1 0 0 1 1 1v2a1 1 0 0 1-1 1zM20 7h-2a1 1 0 0 1-1-1V4a1 1 0 0 1 1-1h2a1 1 0 0 1 1 1v2a1 1 0 0 1-1 1zM6 7H4a1 1 0 0 1-1-1V4a1 1 0 0 1 1-1h2a1 1 0 0 1 1 1v2a1 1 0 0 1-1 1z" stroke="#323232" stroke-width="1.5" stroke-linecap="round" stroke-linejoin="round"/><path d="M7 19h10M17 5H7" stroke="#323232" stroke-width="1.5" stroke-linecap="round" stroke-linejoin="round"/></symbol><symbol id="time" viewBox="0 0 26 26"><path d="M18.66 8.341A8.004 8.004 0 1 1 7.34 19.66 8.004 8.004 0 0 1 18.66 8.341M11 2.996h4" stroke="#323232" stroke-width="1.5" stroke-linecap="round" stroke-linejoin="round"/><path d="M15.234 12.851l-2.791 2.791-1.679-1.672M22.004 6.997l-2.001-2 1 1-2.344 2.344" stroke="#323232" stroke-width="1.5" stroke-linecap="round" stroke-linejoin="round"/></symbol><symbol id="toolIntegration" viewBox="0 0 24 24"><path d="M7.5 3H5a2 2 0 0 0-2 2v2.5M3 16.5V19a2 2 0 0 0 2 2h2.5M16.5 21H19a2 2 0 0 0 2-2v-2.5M21 7.5V5a2 2 0 0 0-2-2h-2.5M12 7v1.67M12 15.33V17M9.64 14.36l-1.18 1.18M15.54 8.46l-1.18 1.18M8.67 12H7M17 12h-1.67M8.46 8.46l1.18 1.18M14.36 14.36l1.18 1.18M14.357 9.643a3.333 3.333 0 1 1-4.714 4.714 3.333 3.333 0 0 1 4.714-4.714" stroke="#FFE000" stroke-width="1.5" stroke-linecap="round" stroke-linejoin="round"/></symbol><symbol id="trafego-organico" viewBox="0 0 20 20"><path clip-rule="evenodd" d="M10.898 12.246a1.348 1.348 0 1 1 0 .01v-.01z"/><path d="M11.294 11.294L8.706 8.706M13.202 11.294l2.58-2.588"/><path clip-rule="evenodd" d="M9.102 7.754a1.347 1.347 0 1 1-1.348-1.348 1.34 1.34 0 0 1 1.348 1.337v.011z"/><path d="M4.218 11.294l2.58-2.588"/><path clip-rule="evenodd" d="M18.086 7.754a1.347 1.347 0 1 1 0-.01v.01zM1.914 12.246a1.348 1.348 0 1 1 0 .01v-.01z"/><path d="M2.884 10.96a7.306 7.306 0 0 1-.071-.96A7.187 7.187 0 0 1 10 2.812a7.183 7.183 0 0 1 6.271 3.682M3.728 13.506A7.182 7.182 0 0 0 10 17.187 7.187 7.187 0 0 0 17.188 10c0-.326-.03-.644-.072-.96"/></symbol><symbol id="training" viewBox="0 0 20 18"><path d="M.996 17.003l5.002-5.002M1.997 12.001h4.001v4.002M13.001 4.998h3.002M13.001 9h3.002M13.001 13.002h3.002" stroke="#FFE000" stroke-width="1.5" stroke-linecap="round" stroke-linejoin="round"/><path d="M10 .997v16.006h7.003a2 2 0 0 0 2-2V2.996a2 2 0 0 0-2-2H2.997a2 2 0 0 0-2 2V9" stroke="#FFE000" stroke-width="1.5" stroke-linecap="round" stroke-linejoin="round"/></symbol><symbol id="twitter" viewBox="0 0 24 24"><path d="M19.95 9.35a.75.75 0 0 0-1.5 0h1.5zM3.606 16.108a.75.75 0 0 0-1.212.884l1.212-.884zm-.733-.297a.75.75 0 1 0 .254 1.478l-.254-1.478zM5.7 15.65l.238.711a.75.75 0 0 0 .295-1.239l-.533.528zm-.9-10.8l.66-.355a.75.75 0 0 0-1.27-.082l.61.437zm5.4 4.5l-.177.729a.75.75 0 0 0 .927-.704l-.75-.025zm8.1-2.7l-.626.413a.75.75 0 0 0 .626.337v-.75zm2.7 0l.624.416A.75.75 0 0 0 21 5.9v.75zm-2.424 2.284a.75.75 0 1 0 1.248.832l-1.248-.832zm-.126.416c0 3.012-.86 5.521-2.4 7.266C14.52 18.35 12.26 19.4 9.3 19.4v1.5c3.34 0 6.03-1.2 7.875-3.291 1.835-2.08 2.775-4.971 2.775-8.259h-1.5zM9.3 19.4c-1.655 0-2.763-.428-3.595-1.017-.856-.605-1.467-1.41-2.1-2.275l-1.21.884c.624.856 1.363 1.851 2.443 2.616 1.103.78 2.517 1.292 4.462 1.292v-1.5zm-6.173-2.11c.024-.005.043-.01.049-.01l.02-.006a.757.757 0 0 0 .037-.011l.033-.01.093-.03.312-.104a699.726 699.726 0 0 0 2.152-.72l.085-.028.023-.007.005-.002h.002L5.7 15.65l-.238-.711H5.46l-.006.002-.022.008-.085.028-.303.102-.92.308a728.78 728.78 0 0 1-1.234.41l-.085.028-.018.006.005-.002a.51.51 0 0 1 .033-.008l.048-.01.254 1.478zm3.106-2.167C3.49 12.349 3.284 8.256 5.41 5.287l-1.22-.874c-2.542 3.551-2.291 8.46.977 11.764l1.066-1.054zM4.14 5.205c1.18 2.195 3.4 4.27 5.884 4.874l.354-1.458C8.41 8.143 6.495 6.418 5.461 4.495l-1.322.71zm6.81 4.17c.038-1.136.439-2.075 1.075-2.725.632-.646 1.538-1.05 2.676-1.05V4.1c-1.513 0-2.814.546-3.748 1.5-.93.95-1.453 2.261-1.502 3.725l1.5.05zM14.7 5.6c.806 0 1.396.153 1.849.395.451.24.813.594 1.125 1.068l1.252-.826c-.42-.638-.957-1.185-1.67-1.566-.713-.38-1.557-.571-2.556-.571v1.5zm3.6 1.8H21V5.9h-2.7v1.5zm2.076-1.166l-1.8 2.7 1.248.832 1.8-2.7-1.248-.832z"/></symbol><symbol id="video" viewBox="0 0 24 24"><path clip-rule="evenodd" d="M21 12a9 9 0 0 1-9 9 9 9 0 0 1-9-9 9 9 0 0 1 9-9 9 9 0 0 1 9 9z" stroke="#323232" stroke-width="1.5" stroke-linecap="round" stroke-linejoin="round"/><path clip-rule="evenodd" d="M10.941 9.058l3.882 2.296a.75.75 0 0 1 0 1.291l-3.882 2.296a.75.75 0 0 1-1.132-.646v-4.59a.75.75 0 0 1 1.132-.647z" stroke="#323232" stroke-width="1.5" stroke-linecap="round" stroke-linejoin="round"/></symbol><symbol id="whats" viewBox="0 0 16 16"><path fill-rule="evenodd" clip-rule="evenodd" d="M13.336 2.694A7.432 7.432 0 0 0 8.044.5C3.921.5.564 3.856.562 7.98a7.48 7.48 0 0 0 .999 3.74L.5 15.598l3.966-1.041a7.485 7.485 0 0 0 3.575.91h.003c4.123 0 7.48-3.355 7.481-7.48a7.44 7.44 0 0 0-2.19-5.292zm-5.292 11.51h-.002c-1.114 0-2.207-.3-3.165-.867l-.227-.135-2.353.617.627-2.294-.147-.235a6.207 6.207 0 0 1-.951-3.31 6.227 6.227 0 0 1 8.601-5.745c.755.313 1.44.772 2.016 1.352a6.183 6.183 0 0 1 1.819 4.399c-.002 3.428-2.791 6.218-6.218 6.218zm3.411-4.657c-.188-.094-1.106-.546-1.277-.609-.171-.062-.296-.093-.42.094-.125.186-.484.607-.593.732-.11.125-.218.14-.405.047-.187-.093-.79-.291-1.503-.928a5.63 5.63 0 0 1-1.04-1.295c-.11-.187-.012-.288.082-.381.084-.084.187-.219.28-.328.094-.109.124-.186.187-.311.062-.125.032-.235-.016-.328-.047-.094-.42-1.014-.577-1.388-.15-.363-.305-.314-.42-.32a8.04 8.04 0 0 0-.357-.006.688.688 0 0 0-.5.233c-.171.188-.654.64-.654 1.56s.67 1.809.764 1.934c.093.125 1.318 2.012 3.193 2.822.447.193.795.308 1.066.394.447.143.855.122 1.178.074.359-.053 1.105-.451 1.261-.888.156-.437.156-.81.11-.89-.047-.077-.173-.125-.359-.218z"/></symbol></svg>