<svg width="479" height="379" viewBox="0 0 479 379" fill="none" xmlns="http://www.w3.org/2000/svg">
<path opacity="0.4" d="M349.717 335.49C392.081 300.811 419.125 248.117 419.125 189.104C419.125 84.6648 334.447 0 229.996 0C125.545 0 40.8672 84.6664 40.8672 189.104C40.8672 248.117 67.9085 300.811 110.275 335.49C145.536 334.795 186.414 334.397 229.999 334.397C273.584 334.397 314.456 334.795 349.717 335.49Z" fill="#22A7F0"/>
<path d="M420.79 318.424C422.664 314.413 417.406 276.553 380.744 274.856C373.491 274.823 366.348 276.64 359.986 280.137C353.898 274.686 345.755 271.015 336.656 270.115C333.327 254.168 317.468 242.084 298.391 242.084C291.7 242.058 285.096 243.599 279.105 246.585C277.19 247.545 274.955 247.622 272.899 246.986L272.531 246.875C270.648 246.344 269.015 245.159 267.924 243.531C261.223 233.178 248.588 226.194 234.088 226.194C218.82 226.194 205.61 233.934 199.24 245.197C192.959 241.818 185.937 240.065 178.81 240.096C157.315 240.096 139.889 255.436 139.889 274.357C139.889 275.365 139.948 276.361 140.046 277.348C126.748 280.032 115.718 287.942 109.913 298.502C101.738 289.819 89.3966 284.288 75.586 284.288C51.655 284.288 32.1417 300.89 31.0744 321.722C29.9332 321.595 28.786 321.53 27.6379 321.528C12.3747 321.528 0 332.422 0 345.857C0 346.527 0.0382977 347.19 0.0981252 347.845H479C473.795 330.969 451.25 309.371 420.79 318.424Z" fill="white"/>
<path d="M419.117 44.2188C420.111 43.9482 420.698 42.9229 420.427 41.9287C420.157 40.9345 419.131 40.3479 418.137 40.6184C417.143 40.889 416.556 41.9144 416.827 42.9086C417.097 43.9028 418.123 44.4894 419.117 44.2188Z" fill="#8DD7FF"/>
<path d="M443.314 307.327C445.846 306.638 447.34 304.026 446.651 301.494C445.962 298.962 443.35 297.467 440.818 298.157C438.285 298.846 436.791 301.457 437.48 303.99C438.17 306.522 440.781 308.016 443.314 307.327Z" fill="#8DD7FF"/>
<path d="M350.319 71.4942C369.53 71.4942 385.104 55.9202 385.104 36.7088C385.104 17.4973 369.53 1.92334 350.319 1.92334C331.107 1.92334 315.533 17.4973 315.533 36.7088C315.533 55.9202 331.107 71.4942 350.319 71.4942Z" fill="#FFD527"/>
<path d="M350.319 73.4174C330.078 73.4174 313.61 56.9497 313.61 36.7087C313.61 16.4678 330.078 0 350.319 0C370.56 0 387.028 16.4691 387.028 36.7087C387.028 56.9483 370.56 73.4174 350.319 73.4174ZM350.319 3.8466C332.199 3.8466 317.457 18.5883 317.457 36.7087C317.457 54.8291 332.199 69.5695 350.319 69.5695C368.439 69.5695 383.187 54.8264 383.187 36.7087C383.187 18.591 368.439 3.8466 350.319 3.8466Z" fill="#000072"/>
<g opacity="0.5">
<path opacity="0.5" d="M355.562 15.8587C348.923 20.8384 342.311 16.0696 342.023 15.8587C341.682 15.6133 341.258 15.5115 340.843 15.5753C340.427 15.6391 340.054 15.8634 339.802 16.1999C339.55 16.5364 339.441 16.9583 339.497 17.3747C339.553 17.7912 339.77 18.1689 340.102 18.4268C341.87 19.7529 345.199 21.3049 349.04 21.3049C351.692 21.3049 354.591 20.5636 357.389 18.4975L369.962 11.6707C370.267 11.5035 370.51 11.2413 370.652 10.924C369.814 10.2629 368.945 9.64267 368.046 9.06323L355.759 15.7281C355.691 15.7671 355.625 15.8108 355.562 15.8587Z" fill="white"/>
</g>
<g opacity="0.5">
<path opacity="0.5" d="M318.305 39.6999C318.608 39.1489 318.945 38.6174 319.314 38.1085C321.567 34.9514 324.739 32.567 328.398 31.2811C332.057 29.9951 336.024 29.8704 339.756 30.924C345.651 32.5888 356.603 34.5475 363.712 28.9653C364.046 28.7028 364.263 28.3183 364.313 27.8963C364.364 27.4742 364.246 27.0493 363.983 26.7149C363.721 26.3804 363.336 26.164 362.914 26.1131C362.492 26.0622 362.067 26.1811 361.733 26.4435C355.738 31.1497 345.937 29.3366 340.628 27.839C336.472 26.6679 332.064 26.7435 327.95 28.0566C323.837 29.3697 320.2 31.8623 317.491 35.2249C317.469 35.7173 317.453 36.211 317.453 36.7088C317.455 37.9269 317.525 39.1438 317.661 40.3541C317.935 40.2034 318.158 39.976 318.305 39.6999Z" fill="white"/>
</g>
<g opacity="0.5">
<path opacity="0.5" d="M367.748 53.7383C365.936 53.4567 364.325 53.4255 362.826 53.639C356.209 54.5911 353.559 58.8853 353.449 59.0675C353.244 59.4314 353.19 59.8608 353.297 60.2644C353.403 60.6681 353.664 61.0141 354.022 61.229C354.38 61.4439 354.807 61.5106 355.214 61.4151C355.62 61.3196 355.973 61.0693 356.198 60.7174C356.217 60.6848 358.238 57.5332 363.279 56.8137C364.46 56.6437 365.762 56.6777 367.257 56.9075C369.693 57.2897 372.05 58.0675 374.236 59.2103C374.984 58.4178 375.691 57.5885 376.358 56.7225C373.688 55.2241 370.772 54.2135 367.748 53.7383Z" fill="white"/>
</g>
<g opacity="0.3">
<path opacity="0.3" d="M330.255 65.5542C335.252 68.197 340.819 69.5756 346.472 69.5695C365.683 69.5695 381.256 53.9954 381.256 34.7841C381.264 26.6552 378.411 18.7828 373.197 12.5464C373.069 17.7001 370.593 59.0648 324.076 60.2522C327.034 63.4631 330.567 66.0906 334.494 67.9985C333.026 67.284 331.609 66.4672 330.255 65.5542Z" fill="#000072"/>
</g>
<g opacity="0.5">
<path opacity="0.5" d="M350.319 3.84718C344.571 3.84296 338.923 5.35663 333.948 8.23514C329.458 10.828 325.641 14.4393 322.804 18.7779C319.311 24.1057 317.453 30.3387 317.458 36.7093C317.458 47.7962 322.983 57.6099 331.418 63.5648C325.545 58.2327 321.803 50.9528 320.885 43.0736C319.968 35.1943 321.937 27.2495 326.428 20.7108C328.165 20.3748 330.237 19.2051 332.072 17.3742C333.84 15.606 335.002 13.597 335.378 11.8954C340.885 8.23279 347.372 6.3225 353.984 6.41573C360.597 6.50895 367.027 8.60132 372.429 12.4177C366.389 6.89839 358.501 3.8408 350.319 3.84718Z" fill="white"/>
</g>
<path d="M348.398 19.3786C344.558 19.3786 341.231 17.8267 339.461 16.4991C339.121 16.2446 338.896 15.8653 338.835 15.4447C338.774 15.024 338.883 14.5965 339.137 14.2562C339.392 13.9158 339.771 13.6905 340.192 13.6298C340.613 13.5691 341.04 13.6779 341.38 13.9324C341.674 14.1487 348.282 18.9134 354.921 13.9324C354.983 13.8852 355.048 13.843 355.117 13.8059L367.791 6.92339C368.165 6.72047 368.604 6.67427 369.011 6.79493C369.419 6.91558 369.762 7.19322 369.965 7.56677C370.168 7.94032 370.214 8.37918 370.093 8.78681C369.973 9.19443 369.695 9.53743 369.321 9.74035L356.748 16.5685C353.95 18.6373 351.051 19.3786 348.398 19.3786Z" fill="#000072"/>
<path d="M316.242 38.6403C315.967 38.6397 315.697 38.5686 315.458 38.4338C315.219 38.299 315.018 38.1051 314.876 37.8706C314.733 37.636 314.653 37.3688 314.643 37.0944C314.633 36.82 314.693 36.5476 314.819 36.3034C315.19 35.6201 315.605 34.9613 316.061 34.3312C318.697 30.6351 322.41 27.8431 326.693 26.3369C330.976 24.8306 335.62 24.6835 339.989 25.9157C345.294 27.4119 355.101 29.2291 361.094 24.5215C361.429 24.2704 361.85 24.1604 362.265 24.2152C362.68 24.27 363.058 24.4851 363.316 24.8146C363.575 25.1441 363.695 25.5618 363.65 25.9783C363.604 26.3948 363.398 26.7771 363.074 27.0433C355.965 32.6201 345.012 30.6668 339.119 29.0006C335.386 27.9473 331.42 28.0721 327.761 29.358C324.102 30.6439 320.929 33.0282 318.676 36.1851C318.308 36.6953 317.97 37.2272 317.666 37.7779C317.53 38.038 317.325 38.2559 317.074 38.408C316.823 38.56 316.535 38.6403 316.242 38.6403Z" fill="#000072"/>
<path d="M377.609 59.6021C377.245 59.6019 376.892 59.4777 376.608 59.2498C372.945 56.3146 368.777 55.3148 366.62 54.9802C365.124 54.749 363.824 54.7177 362.642 54.8877C357.601 55.6072 355.581 58.7588 355.569 58.7915C355.463 58.9783 355.322 59.1421 355.152 59.2733C354.983 59.4045 354.789 59.5003 354.582 59.5552C354.374 59.6101 354.158 59.6229 353.946 59.5928C353.734 59.5627 353.53 59.4903 353.346 59.38C353.162 59.2697 353.002 59.1236 352.876 58.9504C352.749 58.7773 352.659 58.5806 352.61 58.3719C352.561 58.1632 352.554 57.9468 352.59 57.7355C352.626 57.5241 352.704 57.3222 352.82 57.1415C352.93 56.9593 355.578 52.6529 362.195 51.713C363.692 51.4995 365.306 51.5321 367.118 51.8123C369.591 52.1959 374.375 53.3466 378.62 56.7484C378.88 56.9557 379.07 57.239 379.162 57.5589C379.254 57.8789 379.244 58.2196 379.134 58.5338C379.024 58.8479 378.818 59.1199 378.546 59.3118C378.274 59.5038 377.949 59.6062 377.616 59.6048L377.609 59.6021Z" fill="#000072"/>
<path d="M307.277 53.0759C306.287 53.0689 305.321 52.7735 304.497 52.2259C303.673 51.6783 303.027 50.9023 302.637 49.9928C302.247 49.0834 302.131 48.08 302.303 47.1056C302.475 46.1312 302.927 45.228 303.604 44.5067C306.933 40.9702 313.445 37.7316 313.721 37.5956C314.254 37.3433 314.864 37.3104 315.42 37.5041C315.976 37.6977 316.434 38.1023 316.695 38.6306C316.956 39.1589 316.998 39.7685 316.813 40.3278C316.629 40.8872 316.231 41.3514 315.707 41.6204C315.647 41.6503 309.643 44.6359 306.874 47.5807C306.789 47.6709 306.734 47.7854 306.717 47.9083C306.7 48.0312 306.722 48.1563 306.779 48.2663C306.837 48.3762 306.927 48.4654 307.038 48.5215C307.148 48.5776 307.274 48.5977 307.396 48.5791C317.712 47.0298 370.237 38.4892 391.2 22.4635C391.346 22.3684 391.456 22.2278 391.513 22.0637C391.57 21.8995 391.571 21.7211 391.516 21.5563C391.465 21.3873 391.36 21.2399 391.216 21.1373C391.073 21.0346 390.899 20.9825 390.723 20.9891C388.213 20.8871 385.24 21.1931 381.882 21.9045C381.299 22.0277 380.692 21.9144 380.193 21.5897C379.694 21.265 379.344 20.7554 379.221 20.173C379.098 19.5905 379.211 18.983 379.536 18.4841C379.861 17.9851 380.37 17.6356 380.953 17.5124C384.677 16.7249 388.026 16.3876 390.906 16.5045C392.002 16.5384 393.061 16.9117 393.935 17.5728C394.81 18.234 395.458 19.1504 395.789 20.1955C396.121 21.2406 396.119 22.3628 395.786 23.4072C395.452 24.4516 394.802 25.3666 393.926 26.0258C372.632 42.3032 322.822 50.8016 308.063 53.0174C307.803 53.0563 307.54 53.0759 307.277 53.0759Z" fill="#000072"/>
<path d="M342.323 52.8847C346.454 51.1734 348.416 46.4368 346.705 42.3052C344.994 38.1737 340.257 36.2117 336.125 37.9231C331.994 39.6344 330.032 44.371 331.743 48.5026C333.455 52.6341 338.191 54.5961 342.323 52.8847Z" fill="#00BBFC"/>
<path d="M339.223 55.0984C337.305 55.0984 335.429 54.5296 333.834 53.4638C332.239 52.398 330.996 50.8831 330.262 49.1108C329.528 47.3384 329.336 45.3882 329.71 43.5067C330.084 41.6252 331.008 39.8969 332.364 38.5404C333.721 37.1839 335.449 36.2601 337.331 35.8858C339.212 35.5116 341.162 35.7037 342.935 36.4378C344.707 37.1719 346.222 38.4151 347.288 40.0102C348.354 41.6053 348.922 43.4806 348.922 45.3989C348.92 47.9705 347.897 50.436 346.078 52.2544C344.26 54.0727 341.795 55.0956 339.223 55.0984ZM339.223 38.9122C337.939 38.9122 336.683 39.2931 335.615 40.0066C334.547 40.7201 333.715 41.7343 333.224 42.9208C332.732 44.1073 332.604 45.413 332.854 46.6726C333.105 47.9322 333.723 49.0892 334.631 49.9974C335.539 50.9055 336.696 51.524 337.956 51.7745C339.216 52.0251 340.521 51.8965 341.708 51.405C342.894 50.9135 343.909 50.0812 344.622 49.0134C345.336 47.9455 345.716 46.6901 345.716 45.4058C345.715 43.6841 345.03 42.0335 343.813 40.8161C342.595 39.5987 340.945 38.914 339.223 38.9122Z" fill="#000072"/>
<g opacity="0.5">
<path opacity="0.5" d="M334.654 46.687C334.654 45.6115 334.92 44.5527 335.43 43.6059C335.941 42.6591 336.678 41.8539 337.576 41.2626C338.475 40.6714 339.506 40.3126 340.577 40.2185C341.649 40.1245 342.727 40.2982 343.714 40.7239C343.029 40.0657 342.207 39.5662 341.307 39.2605C340.407 38.9549 339.451 38.8506 338.506 38.9551C337.562 39.0596 336.652 39.3703 335.84 39.8652C335.029 40.3601 334.336 41.0272 333.811 41.8193C333.286 42.6113 332.941 43.5091 332.801 44.4491C332.661 45.3891 332.729 46.3483 333.001 47.2591C333.272 48.1698 333.741 49.0098 334.372 49.7197C335.004 50.4296 335.784 50.9921 336.658 51.3673C336.024 50.7632 335.52 50.037 335.176 49.2325C334.832 48.428 334.654 47.562 334.654 46.687Z" fill="white"/>
</g>
<g opacity="0.3">
<path opacity="0.3" d="M343.55 39.1121C343.55 39.1121 344.191 49.3719 333.29 50.6546C333.29 50.6546 341.627 55.7839 347.397 48.73C347.397 48.73 348.679 41.0367 343.55 39.1121Z" fill="#000072"/>
</g>
<path d="M103.348 96.0921C109.128 90.1881 112.783 82.5641 113.748 74.3982C116.216 53.7824 101.33 35.0894 80.5047 32.648C59.6798 30.2066 40.7956 44.9418 38.3294 65.5576C35.8633 86.1734 50.748 104.866 71.5745 107.309C77.172 107.972 82.8481 107.387 88.1883 105.599L104.476 113.206L103.348 96.0921Z" fill="white"/>
<g opacity="0.5">
<path opacity="0.5" d="M79.727 39.372C99.2543 41.6845 113.573 58.3768 113.356 77.6053C113.66 76.2821 113.894 74.9436 114.056 73.5956C116.532 52.6907 101.591 33.737 80.6874 31.2616C59.7841 28.7861 40.8289 43.7269 38.3534 64.6302C38.1935 65.9851 38.106 67.3476 38.0913 68.7118C42.3662 49.9531 60.1916 37.0643 79.727 39.372Z" fill="white"/>
</g>
<path d="M104.743 116.127C105.121 116.127 105.496 116.049 105.843 115.898C106.19 115.748 106.503 115.527 106.762 115.25C107.021 114.973 107.22 114.646 107.348 114.289C107.475 113.931 107.528 113.552 107.503 113.173L106.463 97.1679C113.033 89.9055 116.752 80.5014 116.93 70.6999C117.108 60.8984 113.732 51.3649 107.43 43.8679C101.128 36.3709 92.3265 31.4192 82.6585 29.9314C72.9905 28.4436 63.1122 30.5207 54.856 35.7774C46.5998 41.0341 40.5262 49.1135 37.7619 58.517C34.9975 67.9204 35.73 78.0096 39.8235 86.9129C43.9169 95.8163 51.0936 102.929 60.022 106.933C68.9505 110.936 79.0248 111.558 88.376 108.684L103.555 115.864C103.927 116.038 104.332 116.128 104.743 116.127ZM76.4763 34.8681C77.8587 34.868 79.2398 34.9495 80.6126 35.1122C87.077 35.8786 93.1993 38.4395 98.2893 42.5062C103.379 46.5729 107.235 51.9837 109.421 58.1288C111.607 64.2738 112.037 70.9086 110.663 77.2855C109.289 83.6624 106.164 89.5277 101.642 94.2204C101.374 94.4984 101.167 94.8295 101.034 95.1925C100.901 95.5554 100.845 95.9422 100.87 96.328L101.685 108.847L89.7564 103.207C89.1082 102.901 88.3671 102.859 87.6883 103.088C82.7751 104.758 77.5502 105.3 72.4001 104.673C53.2682 102.402 39.5422 84.9516 41.808 65.774C43.9014 47.9892 59.0299 34.8681 76.4763 34.8681Z" fill="#371A45"/>
<g opacity="0.3">
<path opacity="0.3" d="M103.807 96.1102C91.6903 102.448 76.8103 103.08 63.6482 96.4921C49.0526 89.1855 40.2981 74.8648 39.4 59.6636C38.8696 61.5639 38.4865 63.5023 38.2542 65.4615C35.7787 86.3664 50.7195 105.318 71.6244 107.796C77.2429 108.467 82.9405 107.875 88.3007 106.062L104.649 113.774L103.518 96.4218C103.617 96.3195 103.71 96.214 103.807 96.1102Z" fill="#371A45"/>
</g>
<g clip-path="url(#clip0_1605_1037)">
<path d="M248.916 294.651C270.567 294.737 268.199 269.368 268.199 269.368C271.683 266.125 272.029 255.345 272.029 255.345L273.833 213.097C269.245 201.007 254.032 197.334 254.032 197.334L247.642 203.386" fill="white"/>
<g opacity="0.3">
<path opacity="0.3" d="M272.8 237.228L272.026 255.345C272.026 255.345 271.679 266.125 268.196 269.368C268.196 269.368 270.563 294.737 248.912 294.651L247.823 216.521C254.133 223.447 264.195 233.453 272.8 237.228Z" fill="#371A45"/>
</g>
<path d="M250.289 296.032C249.834 296.053 249.374 296.062 248.908 296.061C248.723 296.06 248.539 296.023 248.368 295.951C248.197 295.88 248.042 295.776 247.911 295.644C247.78 295.513 247.677 295.357 247.607 295.186C247.536 295.014 247.501 294.831 247.502 294.646C247.501 294.461 247.537 294.277 247.608 294.105C247.679 293.934 247.783 293.778 247.915 293.648C248.047 293.517 248.204 293.414 248.377 293.344C248.549 293.275 248.734 293.24 248.92 293.243C254.279 293.265 258.52 291.619 261.516 288.353C267.829 281.473 266.803 269.618 266.792 269.498C266.772 269.284 266.802 269.068 266.88 268.866C266.957 268.665 267.08 268.485 267.239 268.338C269.739 266.01 270.527 258.137 270.62 255.299L272.407 213.33C268.02 202.303 253.841 198.739 253.695 198.704C253.334 198.613 253.024 198.384 252.831 198.066C252.639 197.748 252.58 197.367 252.668 197.006C252.756 196.645 252.983 196.333 253.3 196.138C253.617 195.943 253.999 195.881 254.361 195.966C255.012 196.122 270.355 199.957 275.151 212.597C275.219 212.775 275.25 212.965 275.242 213.155L273.437 255.404C273.402 256.503 272.999 265.959 269.647 269.886C269.795 272.648 269.918 283.366 263.599 290.255C260.314 293.839 255.841 295.779 250.289 296.032Z" fill="#371A45"/>
<path d="M290.003 234.449L279.609 248.879C276.331 253.432 271.348 256.55 265.776 257.25C253.893 258.73 245.218 249.659 238.018 235.746L250.691 263.06L250.751 263.191L249.296 290.253L249.283 329.231L251.363 351.261C254.246 353.087 255.895 355.114 256.767 357.269C258.345 361.176 256.1 365.623 252.032 366.76C242.532 369.424 232.755 369.473 222.792 367.857C219.547 367.328 217.034 364.708 216.729 361.445C216.459 358.577 216.245 355.712 216.089 352.849C215.795 347.687 215.682 342.536 215.751 337.396C215.79 334.56 215.203 331.75 214.031 329.166L206.841 313.371L206.841 313.365L205.388 310.176C200.719 314.154 197.701 320.749 195.164 328.1C194.387 330.358 194.051 332.743 194.173 335.127L195.479 361.183C195.084 365.689 192.262 367.519 188.309 368.124L156.466 369.575C143.512 368.782 144.35 354.734 153.608 350.182C155.691 349.154 158.199 348.61 161.075 348.806C159.143 323.529 158.533 299.437 160.928 278.013C157.648 268.33 159.969 251.174 159.969 251.174L164.905 227.236C164.572 227.337 164.243 227.432 163.918 227.522C140.558 234.172 134.648 222.624 133.213 217.707C133.008 217.034 132.861 216.344 132.775 215.646L176.736 188.969L249.566 202.524C262.075 208.283 264.75 220.245 264.75 220.245L268.598 217.592C268.957 211.091 270.611 205.137 273.56 199.73L273.579 195.775C275.084 188.096 284.328 191.128 284.014 200.53C300.467 205.276 300.037 220.851 290.003 234.449Z" fill="white"/>
<g opacity="0.3">
<path opacity="0.3" d="M252.032 366.764C242.532 369.428 232.755 369.477 222.792 367.861C219.547 367.333 217.035 364.712 216.73 361.449C216.459 358.581 216.246 355.716 216.09 352.853L216.288 352.811C219.748 365.71 243.852 363.806 239.922 345.212C239.922 345.212 239.284 322.445 236.675 302.183C234.066 281.92 238.981 268.286 238.981 268.286L232.955 266.126L231.151 271.749C230.671 272.732 230.175 273.634 229.669 274.463C227.779 277.55 224.937 279.943 221.568 281.283C218.2 282.623 214.487 282.839 210.986 281.898L171.614 271.354L163.956 260.273L225.098 259.265L250.688 263.06L250.748 263.191L249.293 290.253L249.279 329.231L251.359 351.261C254.243 353.087 255.891 355.115 256.764 357.269C258.35 361.176 256.1 365.623 252.032 366.764Z" fill="#371A45"/>
</g>
<path d="M227.762 244.14L253.176 249.493C254.434 254.821 253.544 259.358 250.753 263.191L225.099 259.263C224.529 259.177 224.009 258.891 223.633 258.454C223.257 258.018 223.05 257.462 223.051 256.887C223.077 252.916 223.659 249.148 224.998 245.658C225.202 245.118 225.592 244.669 226.099 244.39C226.606 244.112 227.195 244.023 227.762 244.14Z" fill="white"/>
<path d="M250.815 264.601C250.722 264.605 250.629 264.6 250.536 264.586L224.93 260.667L224.864 260.656C223.966 260.509 223.148 260.049 222.557 259.358C221.967 258.667 221.641 257.789 221.638 256.88C221.663 252.565 222.35 248.621 223.678 245.156C223.999 244.3 224.617 243.588 225.42 243.149C226.223 242.71 227.158 242.572 228.054 242.762L228.492 242.856L253.467 248.115C253.73 248.17 253.972 248.299 254.164 248.486C254.356 248.673 254.49 248.911 254.552 249.171C255.878 254.784 254.984 259.78 251.895 264.019C251.77 264.191 251.608 264.332 251.421 264.433C251.235 264.534 251.027 264.591 250.815 264.601ZM227.217 245.502C227.018 245.512 226.827 245.581 226.667 245.698C226.507 245.816 226.385 245.977 226.316 246.163C225.093 249.355 224.487 252.866 224.463 256.897C224.466 257.135 224.554 257.364 224.711 257.543C224.867 257.723 225.083 257.841 225.319 257.876C225.34 257.876 225.36 257.883 225.381 257.888L250.089 261.667C252.17 258.46 252.794 254.852 251.989 250.686L227.467 245.521C227.385 245.503 227.301 245.496 227.216 245.499L227.217 245.502Z" fill="#371A45"/>
<path d="M290.003 234.449L279.609 248.879C276.331 253.432 271.348 256.55 265.776 257.25C265.279 257.309 264.791 257.353 264.314 257.375C264.099 257.39 263.884 257.4 263.675 257.404L263.616 257.407C257.129 257.52 251.63 254.386 246.808 249.028L246.803 249.023C243.608 245.479 240.707 240.949 238.018 235.746L239.786 230.661L249.566 202.524C262.075 208.283 264.75 220.245 264.75 220.245L268.598 217.592C268.957 211.091 270.611 205.137 273.559 199.73L273.579 195.775C275.084 188.096 284.328 191.128 284.014 200.53C285.037 200.822 286.041 201.176 287.021 201.589L287.069 201.608C300.367 207.335 299.373 221.755 290.003 234.449Z" fill="white"/>
<path d="M264.749 220.247L259.972 224.57C259.972 224.57 255.72 240.437 271.175 249.119" fill="white"/>
<path d="M238.528 235.486C239.831 237.465 241.102 239.447 242.48 241.336C243.146 242.298 243.871 243.21 244.573 244.133C244.92 244.599 245.314 245.022 245.675 245.473C246.037 245.925 246.404 246.368 246.803 246.78L247.961 248.046C248.371 248.442 248.774 248.842 249.17 249.246C249.559 249.664 249.992 250.022 250.405 250.405C250.808 250.796 251.232 251.165 251.676 251.51C252.119 251.848 252.536 252.233 253 252.535L254.394 253.446L255.86 254.212C256.102 254.341 256.355 254.452 256.614 254.542L257.379 254.841C259.437 255.587 261.616 255.943 263.806 255.89C266.005 255.834 268.176 255.376 270.209 254.538C272.242 253.683 274.112 252.484 275.736 250.995C276.546 250.246 277.293 249.432 277.97 248.562L278.473 247.893L278.993 247.172L280.034 245.728L288.357 234.173C289.748 232.273 291.022 230.399 292.093 228.369C293.163 226.338 294.061 224.258 294.669 222.096C294.974 221.023 295.208 219.931 295.37 218.827C295.514 217.738 295.572 216.639 295.542 215.541C295.499 214.462 295.35 213.391 295.096 212.342C294.823 211.314 294.435 210.32 293.94 209.378C293.425 208.45 292.802 207.585 292.083 206.802C291.364 206.014 290.517 205.337 289.642 204.704C287.834 203.49 285.778 202.595 283.617 201.964L283.61 201.964L283.575 201.953C283.265 201.853 282.995 201.655 282.807 201.39C282.618 201.124 282.521 200.805 282.529 200.48C282.565 199.082 282.381 197.694 281.902 196.46C281.422 195.227 280.63 194.154 279.642 193.508C278.653 192.861 277.536 192.737 276.738 193.206C275.909 193.651 275.316 194.773 275.062 196.064L275.091 195.785L275.071 199.742C275.068 199.989 275.005 200.231 274.887 200.448C273.443 203.082 272.315 205.876 271.525 208.773C270.737 211.681 270.26 214.665 270.101 217.673C270.087 217.901 270.022 218.122 269.909 218.32C269.797 218.519 269.641 218.69 269.454 218.82L265.609 221.475C265.41 221.612 265.182 221.699 264.943 221.729C264.704 221.759 264.461 221.731 264.235 221.647C264.009 221.564 263.807 221.427 263.645 221.249C263.484 221.071 263.368 220.856 263.307 220.624L263.293 220.573C263.198 220.202 263.055 219.721 262.905 219.294C262.756 218.867 262.58 218.411 262.408 217.971C262.236 217.531 262.032 217.1 261.83 216.671C261.611 216.249 261.415 215.816 261.183 215.404C260.283 213.727 259.201 212.154 257.957 210.713C256.72 209.273 255.352 207.939 253.819 206.822L253.252 206.394C253.067 206.244 252.871 206.109 252.666 205.989L251.461 205.231C251.068 204.96 250.633 204.764 250.212 204.542L248.943 203.888L249.296 204.001L176.466 190.447L177.52 190.254L133.56 216.932L134.274 215.515C134.287 215.623 134.316 215.826 134.348 215.993C134.379 216.16 134.418 216.347 134.459 216.526C134.54 216.884 134.641 217.24 134.75 217.595C134.977 218.304 135.253 218.997 135.577 219.667C136.22 221.003 137.071 222.229 138.099 223.298C140.139 225.44 142.892 226.814 145.856 227.493C148.843 228.126 152.002 228.183 155.139 227.803C158.278 227.439 161.404 226.719 164.479 225.81L164.486 225.81C164.675 225.754 164.873 225.736 165.069 225.757C165.265 225.778 165.455 225.837 165.628 225.931C165.801 226.025 165.953 226.152 166.077 226.305C166.201 226.458 166.293 226.634 166.348 226.822C166.418 227.057 166.429 227.306 166.381 227.547L163.788 240.125L162.491 246.416L161.842 249.56L161.514 251.133C161.461 251.371 161.423 251.613 161.401 251.856L161.307 252.625C160.844 256.828 160.636 261.054 160.684 265.281C160.733 267.384 160.844 269.48 161.088 271.546C161.354 273.601 161.732 275.631 162.348 277.532L162.349 277.55C162.414 277.752 162.436 277.965 162.414 278.176C161.125 289.842 160.762 301.618 160.893 313.386C161.025 325.153 161.673 336.932 162.569 348.69C162.584 348.885 162.56 349.082 162.499 349.269C162.437 349.456 162.34 349.629 162.212 349.778C162.083 349.927 161.927 350.049 161.751 350.138C161.575 350.226 161.383 350.28 161.187 350.294C161.123 350.299 161.058 350.3 160.994 350.297L160.971 350.298C158.27 350.139 155.547 350.645 153.311 352.052C151.081 353.424 149.334 355.607 148.597 358.086C147.846 360.539 148.134 363.285 149.705 365.131C150.469 366.062 151.504 366.781 152.692 367.257C153.88 367.734 155.202 367.984 156.556 368.087L156.396 368.086L188.241 366.634L188.082 366.649C189.723 366.396 191.268 365.887 192.286 364.946C192.8 364.475 193.203 363.896 193.468 363.252C193.749 362.55 193.923 361.809 193.984 361.055L193.98 361.255L193.303 347.752L192.964 341.001L192.795 337.625L192.71 335.934L192.671 335.081C192.658 334.782 192.652 334.473 192.651 334.17C192.65 332.953 192.76 331.738 192.979 330.541C193.085 329.942 193.222 329.348 193.388 328.761C193.55 328.177 193.753 327.581 193.94 327.06C194.699 324.908 195.508 322.762 196.452 320.652C197.397 318.541 198.449 316.459 199.749 314.484C200.395 313.485 201.103 312.527 201.868 311.615C202.651 310.693 203.503 309.831 204.415 309.036C204.589 308.884 204.796 308.774 205.019 308.716C205.243 308.657 205.477 308.652 205.703 308.7C205.929 308.747 206.14 308.847 206.321 308.991C206.502 309.135 206.646 309.319 206.743 309.528L206.754 309.552L212.577 322.352L215.494 328.77C216.516 331.087 217.104 333.572 217.229 336.1C217.288 337.404 217.225 338.521 217.236 339.69C217.231 340.853 217.242 342.017 217.253 343.18C217.283 345.506 217.351 347.832 217.457 350.158C217.562 352.485 217.701 354.808 217.874 357.128C217.963 358.289 218.056 359.449 218.164 360.606L218.203 361.04C218.215 361.189 218.229 361.338 218.247 361.437L218.293 361.781L218.371 362.118C218.481 362.568 218.648 363.001 218.868 363.408C219.31 364.23 219.947 364.931 220.724 365.451C221.111 365.712 221.528 365.925 221.968 366.083C222.187 366.164 222.411 366.232 222.639 366.286L222.982 366.356C223.097 366.381 223.26 366.4 223.397 366.423C225.679 366.785 227.973 367.064 230.27 367.234C234.864 367.574 239.483 367.494 244.021 366.874C246.289 366.566 248.536 366.121 250.75 365.541L251.579 365.324L252.249 365.094C252.676 364.914 253.081 364.684 253.454 364.409C254.207 363.856 254.813 363.127 255.217 362.285C255.615 361.446 255.806 360.524 255.772 359.596C255.725 358.67 255.442 357.816 254.949 356.898C253.993 355.124 252.402 353.668 250.564 352.504C250.372 352.381 250.21 352.217 250.091 352.023C249.972 351.829 249.898 351.61 249.875 351.384L247.796 329.353C247.794 329.307 247.791 329.253 247.789 329.213L247.794 296.155L247.796 292.021C247.802 291.331 247.783 290.642 247.81 289.954L247.921 287.889L248.366 279.629L249.253 263.109C249.275 262.713 249.454 262.342 249.75 262.077C250.046 261.813 250.435 261.676 250.832 261.698C251.228 261.719 251.6 261.897 251.866 262.192C252.131 262.487 252.268 262.876 252.246 263.271L251.36 279.744L250.917 287.98L250.811 290.038C250.784 290.725 250.803 291.413 250.797 292.1L250.795 296.226L250.78 329.23L250.774 329.089L252.854 351.119L252.167 349.999C253.25 350.68 254.26 351.469 255.182 352.355C256.134 353.276 256.942 354.334 257.58 355.494C258.208 356.63 258.703 358.047 258.761 359.469C258.819 360.893 258.528 362.309 257.914 363.597C257.299 364.878 256.377 365.989 255.23 366.833C254.657 367.254 254.035 367.606 253.378 367.879C253.05 368.002 252.7 368.12 252.38 368.223L251.506 368.453C249.174 369.064 246.807 369.533 244.419 369.857C239.648 370.508 234.815 370.594 230.04 370.235C227.652 370.06 225.277 369.77 222.92 369.396C222.767 369.371 222.637 369.357 222.465 369.323L221.946 369.216C220.735 368.933 219.598 368.396 218.611 367.642C217.623 366.887 216.808 365.932 216.219 364.84C215.882 364.214 215.626 363.548 215.456 362.859L215.34 362.339L215.265 361.813C215.237 361.627 215.225 361.48 215.212 361.337L215.172 360.897C215.065 359.723 214.97 358.547 214.879 357.372C214.7 355.02 214.559 352.666 214.457 350.31C214.355 347.954 214.287 345.596 214.252 343.238C214.238 342.059 214.229 340.879 214.235 339.7C214.225 338.528 214.28 337.304 214.23 336.264C214.123 334.099 213.62 331.972 212.744 329.988L209.842 323.603L204.018 310.804L206.355 311.323C205.569 312.012 204.834 312.758 204.157 313.555C203.473 314.373 202.839 315.232 202.26 316.127C201.077 317.921 200.093 319.88 199.19 321.88C198.286 323.88 197.507 325.962 196.771 328.061C196.578 328.601 196.418 329.075 196.278 329.575C196.139 330.075 196.024 330.584 195.93 331.086C195.743 332.107 195.649 333.143 195.65 334.181C195.651 334.44 195.656 334.7 195.668 334.959L195.706 335.795L195.791 337.487L195.96 340.863L196.298 347.614L196.976 361.117L196.976 361.128C196.979 361.193 196.977 361.257 196.972 361.322C196.885 362.386 196.635 363.431 196.232 364.42C195.798 365.465 195.139 366.403 194.303 367.167C193.483 367.898 192.532 368.469 191.5 368.851C190.542 369.21 189.548 369.465 188.535 369.611C188.484 369.62 188.433 369.625 188.381 369.627L156.517 371.08C156.469 371.082 156.422 371.081 156.374 371.078C154.769 370.958 153.132 370.666 151.561 370.033C149.99 369.399 148.504 368.399 147.386 367.032C146.265 365.669 145.547 364.021 145.313 362.274C145.085 360.583 145.228 358.862 145.731 357.231C146.697 354.01 148.913 351.264 151.736 349.521C153.147 348.651 154.696 348.028 156.318 347.68C157.915 347.342 159.551 347.223 161.181 347.327L159.583 348.931C158.684 337.128 158.038 325.293 157.899 313.434C157.761 301.576 158.13 289.687 159.438 277.859L159.508 278.503C158.108 274.125 157.794 269.71 157.687 265.347C157.637 260.993 157.851 256.64 158.328 252.311L158.421 251.496C158.45 251.206 158.495 250.917 158.556 250.632L158.884 249.052L159.54 245.894L160.842 239.578L163.435 226.935L165.335 228.666C162.127 229.611 158.842 230.377 155.469 230.767C152.103 231.172 148.618 231.133 145.188 230.403C143.458 230.012 141.786 229.399 140.214 228.579C137.011 226.892 134.437 224.223 132.872 220.965C132.484 220.163 132.154 219.334 131.883 218.485C131.752 218.059 131.631 217.629 131.53 217.19C131.48 216.97 131.432 216.749 131.392 216.523C131.351 216.296 131.316 216.087 131.282 215.789C131.251 215.514 131.299 215.236 131.422 214.988C131.544 214.739 131.734 214.531 131.971 214.387L131.996 214.373L175.956 187.696C176.271 187.504 176.647 187.435 177.01 187.503L249.839 201.057L249.894 201.066C249.998 201.087 250.098 201.121 250.192 201.169L251.602 201.893C252.071 202.139 252.552 202.36 252.99 202.659L254.329 203.504C254.556 203.64 254.774 203.79 254.981 203.955L255.616 204.433C257.315 205.698 258.862 207.153 260.228 208.77C261.609 210.37 262.809 212.116 263.808 213.977C264.066 214.437 264.286 214.916 264.527 215.386C264.749 215.864 264.963 216.348 265.17 216.834C265.377 217.32 265.563 217.813 265.731 218.326C265.899 218.839 266.057 219.321 266.204 219.921L263.888 219.019L267.734 216.363L267.086 217.509C267.257 214.291 267.768 211.099 268.611 207.987C269.463 204.866 270.679 201.854 272.235 199.015L272.051 199.722L272.071 195.766L272.07 195.753C272.071 195.664 272.081 195.575 272.098 195.487C272.276 194.555 272.601 193.658 273.061 192.827C273.553 191.973 274.265 191.135 275.239 190.602C276.2 190.061 277.307 189.836 278.403 189.959C279.424 190.073 280.402 190.43 281.257 190.998C282.906 192.085 284.006 193.689 284.67 195.368C285.333 197.047 285.549 198.843 285.501 200.573L284.421 199.088L284.428 199.088C286.824 199.787 289.177 200.797 291.315 202.235C292.363 202.986 293.378 203.802 294.261 204.768C295.15 205.735 295.919 206.805 296.552 207.955C297.164 209.111 297.642 210.334 297.975 211.599C298.284 212.853 298.466 214.135 298.518 215.426C298.555 216.697 298.488 217.97 298.319 219.231C298.139 220.473 297.877 221.702 297.533 222.909C296.162 227.706 293.651 232.071 290.766 235.928L282.45 247.471L281.411 248.914L280.891 249.636L280.325 250.389C279.546 251.392 278.686 252.33 277.753 253.193C275.871 254.92 273.703 256.309 271.346 257.298C268.975 258.275 266.444 258.81 263.88 258.877C261.309 258.941 258.749 258.523 256.333 257.647L255.439 257.296C255.138 257.189 254.845 257.061 254.563 256.912L252.866 256.039L251.264 255.026C250.728 254.692 250.25 254.287 249.741 253.918C247.776 252.399 246.029 250.618 244.551 248.624C243.075 246.691 241.753 244.646 240.595 242.509C239.41 240.405 238.424 238.212 237.498 236.007C237.442 235.875 237.438 235.728 237.486 235.593C237.533 235.459 237.63 235.347 237.756 235.28C237.883 235.213 238.03 235.196 238.168 235.232C238.306 235.268 238.426 235.354 238.504 235.474L238.528 235.486Z" fill="#371A45"/>
<path d="M265.699 221.29L260.921 225.613L261.337 224.933C261.3 225.142 261.241 225.443 261.203 225.71L261.085 226.544C261.011 227.104 260.96 227.67 260.915 228.237C260.829 229.375 260.816 230.517 260.876 231.656C261.001 233.943 261.502 236.194 262.36 238.319C263.232 240.46 264.469 242.434 266.016 244.155C267.606 245.897 269.431 247.411 271.439 248.651C271.556 248.724 271.64 248.84 271.674 248.974C271.708 249.107 271.689 249.249 271.62 249.369C271.552 249.489 271.44 249.578 271.308 249.618C271.176 249.657 271.033 249.645 270.91 249.583C268.681 248.46 266.625 247.024 264.806 245.318C262.97 243.561 261.458 241.496 260.339 239.218C259.231 236.912 258.51 234.44 258.205 231.901C258.043 230.633 257.988 229.353 258.04 228.076C258.061 227.434 258.117 226.794 258.208 226.159C258.25 225.84 258.301 225.52 258.365 225.201C258.428 224.882 258.494 224.582 258.604 224.205C258.671 223.945 258.813 223.711 259.013 223.531L259.019 223.525L263.797 219.202C263.933 219.069 264.094 218.964 264.272 218.895C264.449 218.825 264.638 218.792 264.829 218.797C265.019 218.803 265.206 218.846 265.379 218.926C265.552 219.005 265.708 219.119 265.835 219.259C265.963 219.4 266.061 219.565 266.124 219.745C266.186 219.924 266.211 220.114 266.198 220.304C266.184 220.493 266.133 220.678 266.046 220.847C265.959 221.016 265.839 221.166 265.693 221.288L265.699 221.29Z" fill="#371A45"/>
<path d="M270.009 217.517C270.017 218.132 270.057 218.746 270.129 219.356C270.2 219.983 270.296 220.61 270.422 221.229C270.66 222.463 271.035 223.667 271.54 224.819C272.03 225.954 272.721 226.992 273.58 227.883C274.45 228.763 275.53 229.407 276.719 229.755L276.743 229.763C276.873 229.805 276.982 229.895 277.048 230.014C277.114 230.134 277.132 230.274 277.098 230.406C277.064 230.538 276.981 230.652 276.865 230.725C276.75 230.798 276.611 230.825 276.476 230.799C275.768 230.665 275.079 230.449 274.421 230.156C273.764 229.845 273.144 229.46 272.575 229.009C271.463 228.086 270.527 226.97 269.813 225.715C269.104 224.488 268.535 223.185 268.115 221.831C267.901 221.161 267.717 220.482 267.563 219.794C267.4 219.091 267.276 218.38 267.191 217.664C267.149 217.292 267.256 216.919 267.49 216.626C267.723 216.333 268.064 216.144 268.437 216.102C268.81 216.06 269.184 216.167 269.478 216.4C269.771 216.633 269.96 216.972 270.003 217.344C270.008 217.396 270.011 217.449 270.01 217.501L270.009 217.517Z" fill="#371A45"/>
<path d="M284.472 201.86C281.922 202.84 279.701 204.428 278.468 206.651C277.228 208.851 276.972 211.606 277.697 214.166C278.424 216.79 279.986 219.108 282.148 220.77C284.319 222.445 287.089 223.357 289.981 223.405C290.117 223.406 290.247 223.458 290.346 223.552C290.445 223.645 290.504 223.772 290.513 223.908C290.522 224.043 290.478 224.177 290.392 224.282C290.306 224.387 290.183 224.455 290.048 224.474C288.487 224.691 286.9 224.644 285.355 224.336C283.777 224.011 282.272 223.404 280.911 222.544C278.167 220.822 276.053 218.104 275.016 214.97C274.486 213.383 274.267 211.708 274.37 210.038C274.476 208.332 274.959 206.67 275.784 205.172C276.61 203.673 277.757 202.375 279.145 201.371C280.488 200.409 281.98 199.671 283.561 199.187C283.91 199.081 284.287 199.115 284.612 199.28C284.937 199.445 285.186 199.729 285.306 200.073C285.425 200.416 285.407 200.793 285.255 201.124C285.103 201.454 284.829 201.714 284.49 201.847L284.472 201.86Z" fill="#371A45"/>
<g opacity="0.3">
<path opacity="0.3" d="M290.003 234.449L279.609 248.878C276.331 253.432 271.348 256.55 265.776 257.249C265.278 257.309 264.79 257.353 264.313 257.375L263.256 257.423C251.01 258.019 246.929 249.301 246.808 249.028L246.803 249.023L234.094 245.472C234.049 239.183 237.213 233.906 239.786 230.661L239.839 230.595C240.157 230.197 240.568 229.882 241.035 229.676C241.502 229.471 242.012 229.382 242.522 229.416C243.031 229.45 243.524 229.607 243.96 229.873C244.395 230.139 244.759 230.507 245.021 230.944C249.48 238.41 254.993 241.933 261.782 240.686L272.787 228.181C277.611 224.662 278.097 218.209 278.097 218.209C292.242 220.798 291.31 212.414 287.026 201.593L287.075 201.612C300.367 207.335 299.373 221.754 290.003 234.449Z" fill="#371A45"/>
</g>
<path d="M166.623 218.978L175.171 205.063C175.28 204.885 175.454 204.757 175.656 204.705C175.858 204.653 176.072 204.681 176.254 204.783C176.436 204.886 176.571 205.054 176.63 205.253C176.69 205.453 176.67 205.668 176.574 205.852L169.084 220.356C168.897 220.657 168.603 220.878 168.261 220.973C167.919 221.068 167.553 221.031 167.237 220.869C166.921 220.708 166.677 220.433 166.555 220.101C166.432 219.768 166.44 219.401 166.576 219.074C166.587 219.039 166.605 219.007 166.623 218.978Z" fill="#371A45"/>
<path d="M175.639 290.227C176.399 291.116 177.27 291.903 178.233 292.567C178.47 292.747 178.716 292.914 178.97 293.068L179.715 293.556C180.238 293.847 180.749 294.152 181.277 294.425C183.415 295.499 185.661 296.346 187.977 296.953C190.281 297.615 192.67 297.96 195.035 298.394L198.629 298.863L202.257 299.13L202.295 299.128C202.575 299.147 202.843 299.249 203.064 299.42C203.286 299.591 203.451 299.825 203.539 300.09L206.73 309.734C206.837 310.086 206.802 310.465 206.632 310.792C206.463 311.118 206.172 311.366 205.821 311.481C205.471 311.597 205.09 311.571 204.758 311.41C204.427 311.248 204.172 310.964 204.048 310.618L200.857 300.975L202.138 301.94L198.362 301.704C197.105 301.58 195.848 301.437 194.591 301.277C193.966 301.166 193.341 301.056 192.718 300.931C192.095 300.806 191.47 300.701 190.857 300.517C189.628 300.174 188.401 299.85 187.206 299.398C185.994 299.006 184.825 298.475 183.655 297.97C183.08 297.685 182.512 297.389 181.947 297.094C181.388 296.778 180.846 296.433 180.302 296.103C179.764 295.755 179.245 295.372 178.721 295.007C178.225 294.593 177.706 294.22 177.247 293.763C176.296 292.883 175.43 291.968 174.726 290.777C174.662 290.661 174.642 290.526 174.672 290.397C174.702 290.268 174.778 290.155 174.887 290.079C174.995 290.003 175.128 289.97 175.259 289.986C175.391 290.002 175.512 290.066 175.599 290.166L175.639 290.227Z" fill="#371A45"/>
<path d="M161.685 347.537L167.722 351.384C167.833 351.455 167.914 351.564 167.95 351.69C167.986 351.817 167.974 351.952 167.917 352.071C167.86 352.19 167.762 352.283 167.641 352.335C167.519 352.386 167.383 352.392 167.258 352.35L160.466 350.078C160.289 350.019 160.125 349.925 159.984 349.803C159.843 349.68 159.728 349.532 159.645 349.365C159.562 349.198 159.512 349.016 159.499 348.83C159.486 348.645 159.51 348.458 159.57 348.281C159.629 348.104 159.723 347.941 159.846 347.801C159.968 347.66 160.118 347.545 160.285 347.462C160.452 347.379 160.634 347.329 160.821 347.316C161.007 347.304 161.194 347.327 161.371 347.387C161.482 347.424 161.587 347.475 161.685 347.537Z" fill="#371A45"/>
<path d="M179.227 338.34C172.011 338.669 164.061 337.286 159.212 333.646C158.932 333.431 158.748 333.114 158.701 332.765C158.654 332.415 158.747 332.061 158.959 331.779C159.172 331.497 159.488 331.311 159.837 331.259C160.187 331.208 160.543 331.296 160.828 331.505C166.926 336.085 179.378 336.702 187.18 334.405C190.428 333.449 192.605 332.042 193.155 330.547C193.277 330.213 193.528 329.942 193.851 329.792C194.174 329.643 194.543 329.627 194.878 329.75C195.212 329.872 195.484 330.121 195.634 330.444C195.784 330.766 195.799 331.134 195.677 331.468C194.806 333.836 192.131 335.74 187.941 336.974C185.387 337.726 182.378 338.196 179.227 338.34Z" fill="#371A45"/>
<path d="M233.19 338.559C226.266 338.874 218.83 337.717 214.617 334.641C214.472 334.538 214.348 334.408 214.254 334.257C214.16 334.106 214.096 333.938 214.068 333.762C214.039 333.587 214.046 333.407 214.088 333.235C214.13 333.062 214.206 332.899 214.311 332.755C214.416 332.612 214.55 332.491 214.702 332.399C214.855 332.308 215.025 332.247 215.201 332.222C215.378 332.196 215.557 332.206 215.73 332.25C215.903 332.295 216.065 332.373 216.207 332.48C220.808 335.845 231.571 336.95 240.196 334.944C244.368 333.974 247.31 332.364 248.271 330.525C248.35 330.365 248.46 330.222 248.595 330.105C248.731 329.989 248.888 329.9 249.058 329.844C249.228 329.789 249.407 329.768 249.586 329.783C249.764 329.797 249.937 329.847 250.096 329.93C250.255 330.012 250.395 330.125 250.509 330.262C250.624 330.4 250.709 330.558 250.761 330.729C250.813 330.9 250.83 331.079 250.812 331.257C250.793 331.434 250.739 331.606 250.653 331.762C248.933 335.056 244.348 336.729 240.806 337.553C238.303 338.116 235.754 338.453 233.19 338.559Z" fill="#371A45"/>
<path d="M250.765 352.54C250.378 352.355 249.981 352.192 249.577 352.051C249.155 351.89 248.715 351.764 248.279 351.629C247.837 351.512 247.394 351.393 246.944 351.291C246.491 351.212 246.042 351.097 245.584 351.04C243.75 350.747 241.885 350.692 240.037 350.876C238.189 351.069 236.333 351.427 234.572 352.096C233.668 352.371 232.83 352.808 231.964 353.194C231.522 353.372 231.132 353.645 230.715 353.872L229.478 354.586L229.434 354.611C229.314 354.682 229.17 354.703 229.035 354.671C228.899 354.638 228.781 354.554 228.707 354.436C228.632 354.318 228.607 354.176 228.636 354.04C228.666 353.904 228.747 353.784 228.863 353.707L230.091 352.868C230.507 352.599 230.898 352.284 231.345 352.062C232.223 351.588 233.075 351.062 234.01 350.697C235.83 349.847 237.79 349.307 239.78 348.949C241.786 348.596 243.829 348.503 245.858 348.672C246.369 348.698 246.872 348.782 247.382 348.836C247.885 348.908 248.39 349.002 248.894 349.097C249.399 349.21 249.904 349.317 250.401 349.464C250.652 349.529 250.907 349.608 251.155 349.691C251.28 349.73 251.406 349.771 251.536 349.82C251.666 349.869 251.787 349.908 251.943 349.976C252.282 350.125 252.549 350.401 252.686 350.745C252.823 351.089 252.819 351.472 252.675 351.813C252.531 352.154 252.259 352.425 251.917 352.567C251.574 352.709 251.19 352.712 250.846 352.574L250.785 352.547L250.765 352.54Z" fill="#371A45"/>
<path d="M122.822 223.133C122.494 223.148 122.172 223.048 121.909 222.852C121.647 222.655 121.461 222.373 121.385 222.055C121.308 221.736 121.345 221.401 121.489 221.107C121.633 220.813 121.876 220.578 122.175 220.443L272.519 152.489C272.731 152.393 272.963 152.351 273.195 152.365L285.772 153.188C285.822 153.192 285.873 153.198 285.924 153.206C301.464 155.926 314.957 152.481 322.946 143.754C328.553 137.628 330.844 129.37 329.234 121.367L306.643 132.67C306.449 132.767 306.234 132.818 306.017 132.82C305.799 132.821 305.584 132.772 305.389 132.676L292.324 126.299C292.035 126.157 291.803 125.921 291.666 125.63C291.53 125.339 291.497 125.01 291.574 124.698L294.069 114.542C294.115 114.355 294.199 114.179 294.316 114.025C294.433 113.871 294.581 113.743 294.75 113.649L315.143 102.234L314.914 97.2186C304.947 90.7985 294.531 89.0723 284.749 92.2401C273.447 95.896 263.742 106.003 258.79 119.276C258.666 119.609 258.419 119.884 258.099 120.043L107.376 195.392C107.042 195.555 106.657 195.58 106.304 195.461C105.952 195.342 105.66 195.09 105.494 194.758C105.327 194.426 105.298 194.042 105.414 193.69C105.529 193.337 105.779 193.044 106.11 192.874L256.341 117.772C261.651 103.953 271.912 93.4278 283.875 89.5582C294.704 86.0555 306.183 88.0284 317.072 95.2612C317.257 95.3837 317.41 95.5478 317.519 95.7404C317.628 95.9329 317.691 96.1485 317.701 96.3695L318.002 102.971C318.013 103.232 317.952 103.491 317.825 103.719C317.698 103.947 317.51 104.136 317.282 104.264L296.672 115.803L294.593 124.263L306.003 129.839L329.567 118.053C329.754 117.959 329.959 117.908 330.169 117.904C330.378 117.899 330.586 117.941 330.777 118.026C330.968 118.111 331.138 118.238 331.274 118.396C331.41 118.555 331.509 118.742 331.563 118.943C334.133 128.395 331.693 138.385 325.034 145.656C316.393 155.096 301.992 158.863 285.513 155.997L273.368 155.2L123.341 223.008C123.178 223.083 123.002 223.125 122.822 223.133Z" fill="#371A45"/>
<path d="M285.678 154.593L273.104 153.771L122.758 221.723L106.741 194.129L257.466 118.779C266.389 94.8632 290.85 79.535 316.289 96.4347L316.59 103.034L295.439 114.876L292.944 125.03L306.008 131.407L330.196 119.309C335.526 138.911 318.488 160.338 285.678 154.593Z" fill="#A6AACC"/>
<g opacity="0.3">
<path opacity="0.3" d="M285.678 154.594L273.105 153.771L122.758 221.723L106.742 194.13L111.181 191.911L122.27 211.021L272.614 143.068L285.188 143.891C311.694 148.533 327.905 135.442 330.347 119.905C335.182 139.34 318.158 160.279 285.678 154.594Z" fill="#371A45"/>
</g>
<g opacity="0.7">
<path opacity="0.7" d="M259.595 121.23L108.871 196.581L123.317 221.474L122.759 221.725L106.742 194.131L257.467 118.779C266.39 94.8632 290.851 79.535 316.29 96.4347L316.342 97.5742C291.657 82.8293 268.274 97.9638 259.595 121.23Z" fill="white"/>
</g>
<g opacity="0.7">
<path opacity="0.7" d="M330.865 122.491L308.139 133.858L295.074 127.48L295.383 126.223L306.01 131.407L330.198 119.308C330.483 120.355 330.705 121.418 330.865 122.491Z" fill="white"/>
</g>
<path d="M122.822 223.133C122.494 223.148 122.172 223.048 121.909 222.852C121.647 222.655 121.461 222.373 121.385 222.055C121.308 221.736 121.345 221.401 121.489 221.107C121.633 220.813 121.876 220.578 122.175 220.443L272.519 152.489C272.731 152.393 272.963 152.351 273.195 152.365L285.772 153.188C285.822 153.192 285.873 153.198 285.924 153.206C301.464 155.926 314.957 152.481 322.946 143.754C328.553 137.628 330.844 129.37 329.234 121.367L306.643 132.67C306.449 132.767 306.234 132.818 306.017 132.82C305.799 132.821 305.584 132.772 305.389 132.676L292.324 126.299C292.035 126.157 291.803 125.921 291.666 125.63C291.53 125.339 291.497 125.01 291.574 124.698L294.069 114.542C294.115 114.355 294.199 114.179 294.316 114.025C294.433 113.871 294.581 113.743 294.75 113.649L315.143 102.234L314.914 97.2186C304.947 90.7985 294.531 89.0723 284.749 92.2401C273.447 95.896 263.742 106.003 258.79 119.276C258.666 119.609 258.419 119.884 258.099 120.043L107.376 195.392C107.042 195.555 106.657 195.58 106.304 195.461C105.952 195.342 105.66 195.09 105.494 194.758C105.327 194.426 105.298 194.042 105.414 193.69C105.529 193.337 105.779 193.044 106.11 192.874L256.341 117.772C261.651 103.953 271.912 93.4278 283.875 89.5582C294.704 86.0555 306.183 88.0284 317.072 95.2612C317.257 95.3837 317.41 95.5478 317.519 95.7404C317.628 95.9329 317.691 96.1485 317.701 96.3695L318.002 102.971C318.013 103.232 317.952 103.491 317.825 103.719C317.698 103.947 317.51 104.136 317.282 104.264L296.672 115.803L294.593 124.263L306.003 129.839L329.567 118.053C329.754 117.959 329.959 117.908 330.169 117.904C330.378 117.899 330.586 117.941 330.777 118.026C330.968 118.111 331.138 118.238 331.274 118.396C331.41 118.555 331.509 118.742 331.563 118.943C334.133 128.395 331.693 138.385 325.034 145.656C316.393 155.096 301.992 158.863 285.513 155.997L273.368 155.2L123.341 223.008C123.178 223.083 123.002 223.125 122.822 223.133Z" fill="#371A45"/>
<path d="M293.009 126.442C292.798 126.451 292.588 126.413 292.395 126.331L288.214 124.568C287.908 124.438 287.657 124.205 287.506 123.909C287.355 123.614 287.313 123.274 287.388 122.951L290.803 108.302C290.849 108.102 290.94 107.914 291.067 107.751C291.194 107.589 291.356 107.457 291.54 107.364L315.654 95.18C315.82 95.0936 316.001 95.0409 316.187 95.0249C316.374 95.0089 316.561 95.03 316.739 95.0869C316.917 95.1438 317.082 95.2353 317.225 95.3563C317.367 95.4773 317.484 95.6252 317.568 95.7915C317.653 95.9579 317.703 96.1393 317.717 96.3253C317.731 96.5113 317.707 96.6981 317.648 96.875C317.588 97.0519 317.494 97.2153 317.371 97.3557C317.248 97.4961 317.098 97.6107 316.931 97.6929L293.405 109.576L290.41 122.43L293.496 123.733C293.791 123.857 294.035 124.078 294.188 124.359C294.341 124.64 294.393 124.965 294.336 125.279C294.28 125.594 294.117 125.88 293.876 126.091C293.635 126.301 293.329 126.423 293.009 126.438L293.009 126.442Z" fill="#371A45"/>
<g opacity="0.7">
<path opacity="0.7" d="M197.938 179.604L136.535 207.226C135.206 207.824 133.697 207.887 132.324 207.402C130.95 206.917 129.817 205.921 129.161 204.623C128.72 203.751 128.516 202.778 128.57 201.802C129.37 202.694 130.434 203.308 131.608 203.555C132.781 203.803 134.004 203.671 135.097 203.178L195.182 176.146L197.938 179.604Z" fill="white"/>
</g>
<g opacity="0.3">
<path opacity="0.3" d="M316.291 96.4344L316.592 103.034L295.441 114.875L292.946 125.03L288.763 123.268L292.176 108.614L316.291 96.4344Z" fill="#371A45"/>
</g>
<path d="M133.104 205.549C131.493 205.619 129.906 205.133 128.613 204.171C127.32 203.209 126.4 201.831 126.009 200.271C125.617 198.71 125.778 197.062 126.465 195.606C127.151 194.15 128.321 192.975 129.776 192.28L187.73 164.605C188.004 164.473 188.314 164.438 188.611 164.506C188.907 164.574 189.171 164.74 189.36 164.977L197.574 175.25C197.701 175.41 197.79 175.596 197.834 175.796C197.879 175.995 197.876 176.202 197.828 176.4C197.78 176.598 197.687 176.783 197.557 176.94C197.426 177.097 197.261 177.223 197.074 177.306L135.671 204.933C134.862 205.299 133.991 205.508 133.104 205.549ZM187.925 167.486L130.935 194.697C130.418 194.944 129.956 195.291 129.575 195.718C129.194 196.145 128.903 196.644 128.717 197.185C128.532 197.726 128.457 198.298 128.496 198.869C128.536 199.439 128.689 199.996 128.946 200.506C129.444 201.497 130.307 202.258 131.355 202.628C132.403 202.998 133.554 202.949 134.567 202.491L194.395 175.579L187.925 167.486Z" fill="#371A45"/>
<g opacity="0.3">
<path opacity="0.3" d="M196.519 176.09L196.013 176.313L190.401 169.295L132.443 196.965C131.332 197.496 130.425 198.375 129.861 199.468C129.297 200.561 129.107 201.808 129.319 203.019C128.559 202.429 127.962 201.655 127.586 200.77C127.21 199.885 127.067 198.919 127.17 197.964C127.274 197.009 127.62 196.095 128.177 195.311C128.734 194.527 129.483 193.897 130.353 193.483L188.308 165.823L196.519 176.09Z" fill="#371A45"/>
</g>
<path d="M70.4698 244.951C94.5762 264.025 140.122 240.455 115.985 203.481C109.379 193.359 97.6519 187.562 85.6109 188.863C70.62 190.477 55.8456 200.61 58.5692 221.04C58.5991 221.249 58.6806 221.447 58.8064 221.617C58.9322 221.787 59.0983 221.923 59.2898 222.013C59.4814 222.104 59.6924 222.145 59.9039 222.134C60.1154 222.122 60.3208 222.059 60.5017 221.949C65.4941 218.929 80.3979 211.063 80.3979 211.063L96.0275 215.713L94.1612 229.746L70.4698 244.951Z" fill="#A6AACC"/>
<g opacity="0.3">
<path opacity="0.3" d="M80.832 211.758C80.832 211.758 65.9275 219.63 60.9359 222.647C60.7548 222.757 60.5491 222.821 60.3372 222.832C60.1254 222.843 59.9142 222.801 59.7226 222.71C59.5311 222.619 59.3653 222.482 59.2402 222.311C59.1151 222.141 59.0347 221.941 59.0061 221.732C58.7537 219.881 58.6468 218.014 58.6865 216.147C63.6607 213.386 73.5297 208.598 77.5242 206.675C78.6436 206.137 79.921 206.022 81.1186 206.353L94.2246 209.963C94.8039 210.123 95.3338 210.425 95.7658 210.842C96.1978 211.259 96.5181 211.777 96.6975 212.349C96.8769 212.921 96.9096 213.529 96.7926 214.117C96.6756 214.705 96.4127 215.255 96.0279 215.715L80.832 211.758Z" fill="#371A45"/>
</g>
<g opacity="0.3">
<path opacity="0.3" d="M71.8065 245.953C96.4934 255.056 130.406 232.736 108.88 199.755C106.563 196.202 103.578 193.131 100.089 190.711C106.617 193.168 112.186 197.642 115.982 203.481C139.683 239.785 96.207 263.163 71.8065 245.953Z" fill="#371A45"/>
</g>
<g opacity="0.7">
<path opacity="0.7" d="M62.233 220.934C61.5733 221.313 60.9919 221.656 60.4994 221.951C60.3188 222.061 60.1136 222.125 59.9022 222.136C59.6909 222.148 59.4801 222.106 59.2888 222.016C59.0975 221.926 58.9317 221.79 58.8064 221.62C58.681 221.449 58.6001 221.251 58.5709 221.042C55.8483 200.612 70.6224 190.473 85.6046 188.866C90.8571 188.305 96.1665 189.07 101.044 191.09C97.2654 190.057 93.325 189.742 89.4288 190.162C74.7941 191.736 60.3553 201.443 62.233 220.934Z" fill="white"/>
</g>
<g opacity="0.7">
<path opacity="0.7" d="M96.0092 215.87C97.0818 216.188 98.0051 216.878 98.6129 217.814C99.2207 218.751 99.473 219.874 99.3243 220.98L97.9832 231.045L74.2976 246.248C76.5354 248.016 79.0109 249.464 81.6519 250.547C77.5817 249.462 73.7774 247.558 70.4734 244.952L94.1618 229.745L96.0092 215.87Z" fill="white"/>
</g>
<path d="M92.3332 253.09C83.8796 253.476 75.831 250.991 69.5905 246.049C69.4146 245.91 69.2746 245.731 69.1821 245.526C69.0895 245.322 69.0471 245.099 69.0583 244.876C69.0695 244.652 69.134 244.434 69.2465 244.24C69.359 244.046 69.5163 243.882 69.7052 243.761L92.8431 228.919L94.467 216.721L80.5478 212.58C77.8908 213.986 65.6148 220.507 61.2294 223.156C60.8474 223.385 60.4145 223.516 59.9695 223.537C59.5245 223.558 59.0813 223.469 58.6793 223.277C58.2774 223.086 57.9293 222.798 57.6661 222.439C57.403 222.081 57.2329 221.663 57.1712 221.223C56.0098 212.51 57.7921 205.08 62.4644 199.14C67.4952 192.749 75.8794 188.492 85.4556 187.46C97.9943 186.107 110.144 191.955 117.166 202.712C127.273 218.202 126.496 233.643 115.074 244.016C109.357 249.207 101.355 252.5 93.1204 253.048C92.8601 253.064 92.5967 253.078 92.3332 253.09ZM72.9572 245.031C85.957 253.944 103.668 250.567 113.179 241.93C123.646 232.428 124.235 218.693 114.805 204.247C108.462 194.533 97.0601 189.042 85.7662 190.26C76.9373 191.211 69.2576 195.081 64.6937 200.878C60.5422 206.153 58.9452 212.802 59.9477 220.642C65.0698 217.57 79.1383 210.136 79.7419 209.819C80.0692 209.645 80.452 209.607 80.8071 209.713L96.4356 214.364C96.7575 214.46 97.0346 214.667 97.2171 214.948C97.3996 215.23 97.4757 215.567 97.4316 215.899L95.5623 229.93C95.5352 230.132 95.4643 230.327 95.3544 230.499C95.2445 230.672 95.0983 230.818 94.9259 230.929L72.9572 245.031Z" fill="#371A45"/>
<path d="M151.486 171.763C156.761 169.129 152.877 161.02 147.826 164.366C145.135 165.616 142.227 165.983 139.146 165.659C125.88 164.678 120.325 177.126 123.254 185.88L127.709 183.653C134.137 188.504 147.355 181.749 146.455 174.281L151.486 171.763Z" fill="white"/>
<g opacity="0.3">
<path opacity="0.3" d="M151.512 171.749C151.504 171.751 151.496 171.755 151.49 171.761C151.469 171.762 146.453 174.276 146.453 174.276C147.353 181.744 134.135 188.501 127.708 183.648L123.254 185.873C122.741 184.314 122.483 182.684 122.49 181.043L125.514 179.532C131.941 184.382 145.16 177.628 144.259 170.16C144.259 170.16 149.276 167.652 149.297 167.646C149.317 167.64 149.318 167.634 149.318 167.634C150.989 166.785 151.737 165.378 151.802 163.97C154.371 165.344 155.192 169.881 151.512 171.749Z" fill="#371A45"/>
</g>
<path d="M123.318 187.283C123.011 187.297 122.708 187.211 122.455 187.037C122.201 186.864 122.012 186.613 121.914 186.322C120.141 181.017 121.243 174.717 124.723 170.256C128.092 165.941 133.246 163.806 139.25 164.25C142.226 164.566 144.794 164.197 147.14 163.13C148.918 161.992 150.869 161.852 152.508 162.748C154.286 163.72 155.455 165.823 155.414 167.98C155.373 170.157 154.172 171.995 152.117 173.023L152.104 173.029C151.772 173.194 149.243 174.456 147.908 175.126C147.844 178.571 145.397 182.045 141.308 184.386C137.323 186.668 131.676 187.742 127.601 185.278L123.886 187.135C123.709 187.223 123.516 187.274 123.318 187.283ZM127.645 182.242C127.973 182.228 128.295 182.328 128.558 182.525C131.634 184.848 136.471 183.907 139.898 181.943C142.636 180.376 145.426 177.583 145.049 174.446C145.013 174.157 145.068 173.865 145.206 173.608C145.344 173.352 145.558 173.145 145.818 173.015L150.084 170.881C150.28 170.786 150.475 170.685 150.683 170.598C150.736 170.561 150.791 170.529 150.848 170.5L150.86 170.525L150.848 170.5C152.258 169.795 152.566 168.711 152.586 167.928C152.607 166.808 152.014 165.693 151.145 165.218C150.396 164.809 149.541 164.917 148.602 165.533C148.544 165.574 148.482 165.61 148.417 165.641C145.608 166.947 142.435 167.422 138.99 167.055C132.597 166.584 128.908 169.476 126.948 171.986C124.374 175.284 123.35 179.784 124.167 183.841L127.071 182.389C127.25 182.3 127.445 182.25 127.645 182.242Z" fill="#371A45"/>
<path d="M126.566 184.478L125.099 180.983C125.049 180.869 125.04 180.74 125.074 180.62C125.107 180.5 125.18 180.394 125.282 180.321C125.383 180.247 125.506 180.21 125.632 180.216C125.757 180.222 125.876 180.271 125.97 180.353L128.853 182.815C129.146 183.065 129.326 183.42 129.355 183.803C129.385 184.186 129.26 184.565 129.009 184.856C128.759 185.148 128.402 185.328 128.018 185.357C127.634 185.386 127.255 185.262 126.963 185.012C126.791 184.867 126.656 184.684 126.566 184.478Z" fill="#371A45"/>
<path d="M145.067 174.538L145.14 170.195C145.142 170.069 145.187 169.948 145.269 169.851C145.35 169.755 145.462 169.69 145.587 169.666C145.711 169.643 145.839 169.663 145.95 169.723C146.061 169.783 146.148 169.88 146.196 169.996L147.844 174.016C147.978 174.367 147.97 174.756 147.82 175.101C147.67 175.446 147.391 175.719 147.043 175.861C146.694 176.003 146.304 176.004 145.955 175.863C145.606 175.722 145.326 175.45 145.175 175.106C145.102 174.926 145.065 174.733 145.067 174.538Z" fill="#371A45"/>
<path d="M229.294 238.821L224.143 264.221C223.491 267.454 221.403 270.284 218.381 271.623C216.873 272.29 215.277 272.554 213.622 272.532C210.981 272.054 208.374 271.563 205.799 271.06C190.216 268.026 175.928 264.543 163.961 260.278C162.743 259.842 161.692 259.038 160.957 257.976C160.222 256.915 159.839 255.65 159.862 254.36C159.906 251.8 160.053 249.255 160.304 246.724C161.157 238.167 163.218 229.774 166.428 221.793C166.948 220.51 167.884 219.438 169.087 218.75C170.29 218.061 171.69 217.794 173.063 217.994C188.378 220.18 203.106 222.964 217.043 226.533L217.048 226.533C217.756 226.715 218.474 226.902 219.187 227.089C220.312 227.451 221.311 227.79 222.209 228.131L222.214 228.131C227.041 229.95 228.764 231.545 229.354 234.565C229.632 235.962 229.579 237.419 229.294 238.821Z" fill="white"/>
<path d="M203.277 243.557C206.406 243.414 208.821 240.623 208.671 237.322C208.52 234.021 205.861 231.461 202.732 231.604C199.602 231.746 197.187 234.538 197.338 237.839C197.488 241.139 200.147 243.699 203.277 243.557Z" fill="#22A7F0"/>
<g opacity="0.5">
<path opacity="0.5" d="M198.948 240.258C198.798 236.958 201.213 234.166 204.342 234.023C205.067 233.993 205.791 234.106 206.472 234.357C207.153 234.607 207.777 234.99 208.309 235.483C207.46 233.123 205.252 231.489 202.732 231.603C199.602 231.746 197.188 234.538 197.338 237.838C197.371 238.643 197.562 239.433 197.901 240.164C198.24 240.894 198.72 241.551 199.313 242.097C199.1 241.505 198.977 240.886 198.948 240.258Z" fill="white"/>
</g>
<g opacity="0.3">
<path opacity="0.3" d="M229.294 238.821L228.196 244.235L227.762 244.142C227.196 244.024 226.606 244.112 226.099 244.39C225.592 244.668 225.201 245.117 224.997 245.657C223.661 249.145 223.075 252.915 223.051 256.886C223.052 257.461 223.259 258.017 223.635 258.453C224.011 258.89 224.531 259.177 225.101 259.265L225.145 259.274L224.143 264.216C223.491 267.449 221.403 270.278 218.381 271.618C216.873 272.285 215.277 272.548 213.622 272.527C210.981 272.049 208.374 271.558 205.799 271.055C190.216 268.021 175.928 264.538 163.961 260.272C162.743 259.837 161.692 259.032 160.957 257.971C160.222 256.909 159.839 255.645 159.862 254.355C159.906 251.795 160.053 249.25 160.304 246.719C176.958 264.372 213.25 254.812 220.265 229.004L222.209 228.126L222.214 228.126C227.041 229.945 228.764 231.54 229.354 234.559C229.632 235.962 229.58 237.419 229.294 238.821Z" fill="#371A45"/>
</g>
<path d="M214.51 274.007C214.213 274.02 213.91 274.025 213.602 274.021C213.518 274.02 213.435 274.013 213.353 273.998C192.037 270.134 176.182 266.218 163.454 261.679C161.941 261.14 160.635 260.141 159.722 258.823C158.808 257.505 158.333 255.934 158.362 254.331C158.546 242.988 160.808 231.773 165.036 221.239C165.677 219.643 166.839 218.309 168.334 217.452C169.829 216.595 171.569 216.264 173.274 216.514C190.415 218.963 205.557 221.95 219.569 225.645C219.595 225.652 219.622 225.659 219.647 225.668C226.651 227.929 229.932 229.708 230.824 234.277C231.127 235.803 231.106 237.434 230.763 239.121L229.666 244.535C229.627 244.728 229.549 244.913 229.438 245.076C229.327 245.24 229.185 245.38 229.019 245.489C228.853 245.597 228.667 245.672 228.473 245.708C228.278 245.745 228.078 245.742 227.884 245.701L227.449 245.608C227.232 245.565 227.007 245.6 226.814 245.708C226.621 245.816 226.473 245.989 226.396 246.196C225.177 249.378 224.573 252.88 224.549 256.899C224.552 257.117 224.633 257.326 224.776 257.49C224.919 257.654 225.117 257.761 225.332 257.793C225.354 257.792 225.377 257.801 225.399 257.805C226.206 257.968 226.778 258.766 226.613 259.574L225.613 264.516C224.841 268.325 222.366 271.492 218.99 272.989C217.575 273.608 216.054 273.953 214.51 274.007ZM213.762 271.034C215.263 271.037 216.579 270.783 217.772 270.253C220.264 269.149 222.096 266.781 222.675 263.92L223.425 260.213C222.854 259.863 222.382 259.373 222.054 258.789C221.726 258.206 221.554 257.548 221.552 256.88C221.578 252.554 222.266 248.599 223.596 245.124C223.861 244.422 224.323 243.812 224.926 243.365C225.529 242.917 226.249 242.653 226.999 242.602L227.826 238.525C228.09 237.227 228.11 235.992 227.883 234.852C227.362 232.183 225.9 230.83 218.763 228.521C204.876 224.866 189.86 221.9 172.849 219.469C171.809 219.315 170.746 219.515 169.833 220.037C168.921 220.559 168.211 221.372 167.818 222.346C163.726 232.543 161.537 243.401 161.359 254.382C161.34 255.36 161.63 256.319 162.187 257.123C162.744 257.928 163.54 258.537 164.463 258.866C176.837 263.278 192.963 267.259 213.762 271.034Z" fill="#371A45"/>
<g opacity="0.3">
<path opacity="0.3" d="M253.385 257.396C252.925 259.491 252.027 261.466 250.749 263.191L225.1 259.265C224.529 259.178 224.009 258.89 223.633 258.454C223.257 258.017 223.05 257.461 223.049 256.886C223.073 252.916 223.659 249.145 224.995 245.657C225.13 245.304 225.345 244.987 225.625 244.731C225.029 247.225 224.75 249.839 224.733 252.551C224.734 253.126 224.941 253.681 225.317 254.117C225.693 254.553 226.214 254.839 226.784 254.925L252.434 258.855C252.776 258.386 253.094 257.899 253.385 257.396Z" fill="#371A45"/>
</g>
<path d="M189 268.915C188.887 268.92 188.775 268.91 188.665 268.885C188.505 268.848 188.354 268.781 188.221 268.686C188.087 268.592 187.973 268.472 187.886 268.333C187.798 268.195 187.739 268.041 187.712 267.879C187.684 267.718 187.689 267.553 187.725 267.394L190.985 253.127C191.269 251.881 191.226 250.583 190.861 249.358C190.496 248.134 189.82 247.024 188.9 246.135L184.266 241.625C183.326 240.712 182.629 239.581 182.236 238.333C181.843 237.085 181.767 235.759 182.015 234.474L184.832 219.784C184.859 219.62 184.919 219.464 185.007 219.323C185.096 219.183 185.213 219.061 185.349 218.966C185.486 218.871 185.64 218.804 185.803 218.769C185.966 218.735 186.134 218.733 186.298 218.764C186.461 218.795 186.617 218.859 186.756 218.951C186.894 219.043 187.013 219.162 187.105 219.3C187.197 219.439 187.26 219.594 187.291 219.758C187.322 219.921 187.319 220.089 187.284 220.251L184.468 234.94C184.298 235.821 184.35 236.73 184.619 237.585C184.889 238.441 185.367 239.216 186.011 239.842L190.645 244.352C191.872 245.537 192.772 247.018 193.258 248.651C193.744 250.284 193.8 252.015 193.421 253.676L190.161 267.947C190.1 268.213 189.954 268.451 189.744 268.626C189.534 268.801 189.273 268.903 189 268.915Z" fill="#371A45"/>
<path d="M206.913 272.148C206.513 272.166 206.112 272.158 205.712 272.125C205.433 272.095 205.177 271.958 204.998 271.743C204.818 271.527 204.731 271.25 204.754 270.971C204.777 270.693 204.908 270.434 205.12 270.25C205.332 270.066 205.607 269.972 205.888 269.989C206.826 270.075 207.772 269.96 208.661 269.652C210.414 269.03 211.802 267.523 212.378 265.618C215.733 254.408 218.036 242.912 219.255 231.277C219.341 230.462 219.138 229.642 218.679 228.962C218.221 228.282 217.537 227.784 216.747 227.556C216.608 227.52 216.477 227.456 216.363 227.369C216.249 227.282 216.153 227.173 216.082 227.048C216.011 226.923 215.966 226.786 215.949 226.643C215.932 226.501 215.944 226.356 215.984 226.219C216.024 226.081 216.092 225.952 216.183 225.841C216.274 225.73 216.386 225.638 216.513 225.571C216.64 225.503 216.78 225.462 216.923 225.45C217.066 225.437 217.211 225.454 217.347 225.498C218.62 225.866 219.723 226.668 220.462 227.765C221.201 228.861 221.531 230.182 221.392 231.497C220.157 243.266 217.826 254.895 214.429 266.233C213.659 268.789 211.771 270.822 209.377 271.672C208.584 271.951 207.753 272.112 206.913 272.148Z" fill="#371A45"/>
<path d="M203.334 244.802C199.522 244.976 196.273 241.877 196.091 237.895C195.909 233.913 198.863 230.533 202.676 230.36C206.488 230.186 209.737 233.284 209.919 237.265C210.1 241.246 207.143 244.628 203.334 244.802ZM202.789 232.848C200.352 232.959 198.467 235.172 198.586 237.782C198.705 240.391 200.784 242.425 203.221 242.314C205.658 242.203 207.543 239.988 207.424 237.379C207.305 234.769 205.225 232.737 202.789 232.848Z" fill="#371A45"/>
<g opacity="0.3">
<path opacity="0.3" d="M174.377 208.108L167.783 218.121L163.925 227.518L163.925 227.523C140.565 234.173 134.655 222.625 133.22 217.708L148.057 209.308C148.965 221.587 159.448 218.443 174.377 208.108Z" fill="#371A45"/>
</g>
<g opacity="0.3">
<path opacity="0.3" d="M206.857 312.928C206.857 312.928 206.854 313.084 206.84 313.369L205.388 310.18C200.718 314.158 197.701 320.753 195.164 328.104C194.387 330.362 194.05 332.747 194.172 335.131L195.478 361.187C195.084 365.693 192.261 367.523 188.309 368.127L156.466 369.579C143.511 368.786 144.35 354.738 153.608 350.186C153.74 350.379 153.874 350.592 153.997 350.807C164.502 368.902 182.512 356.95 180.249 336.929C177.986 316.908 181.697 295.783 181.697 295.783L193.755 299.716L202.235 301.474L206.857 312.928Z" fill="#371A45"/>
</g>
<path d="M261.86 271.766C257.843 271.949 252.896 271.341 249.554 268.058C249.294 267.795 249.148 267.44 249.149 267.07C249.149 266.7 249.295 266.345 249.555 266.082C249.815 265.819 250.169 265.668 250.539 265.662C250.91 265.656 251.268 265.796 251.536 266.051C256.709 271.133 267.697 268.046 267.808 268.015C268.166 267.916 268.549 267.961 268.874 268.142C269.199 268.323 269.439 268.624 269.542 268.98C269.646 269.336 269.604 269.719 269.427 270.045C269.249 270.37 268.95 270.613 268.594 270.721C266.394 271.31 264.136 271.661 261.86 271.766Z" fill="#371A45"/>
<path d="M147.859 150.465C149.929 162.108 154.986 173.016 162.537 182.13C164.131 184.054 165.826 185.893 167.615 187.639C168.491 188.496 169.405 189.341 170.341 190.173C178.308 197.177 187.754 202.3 197.979 205.164C199.279 205.523 200.583 205.848 201.893 206.138C225.893 211.394 251.948 204.106 269.434 184.832C295.199 156.444 292.601 112.809 263.643 87.3698C258.206 82.5881 252.062 78.6714 245.428 75.7576C244.673 75.418 243.906 75.099 243.133 74.7971C241.072 73.9742 238.984 73.2526 236.87 72.6323C227.157 69.7959 216.952 69.0461 206.926 70.4322C205.346 70.6511 203.773 70.9224 202.206 71.2458C187.698 74.2571 174.517 81.7706 164.551 92.7099C149.729 109.039 144.297 130.412 147.859 150.465Z" fill="white"/>
<path d="M220.438 207.899C214.2 208.184 207.953 207.651 201.854 206.314C200.541 206.025 199.226 205.696 197.93 205.338C187.681 202.462 178.212 197.325 170.222 190.308C169.193 189.395 168.298 188.564 167.487 187.768C165.694 186.018 163.995 184.174 162.398 182.245C154.836 173.103 149.767 162.17 147.681 150.502C143.953 129.529 150.053 108.418 164.416 92.5923C172.74 83.4247 183.357 76.6277 195.18 72.8975C197.476 72.1697 199.809 71.5594 202.168 71.0689C203.708 70.7484 205.301 70.4733 206.902 70.2547C216.953 68.8644 227.184 69.6162 236.921 72.4603C239.029 73.0783 241.142 73.8087 243.2 74.6304C244.025 74.9539 244.779 75.2686 245.503 75.5936C252.156 78.5139 258.317 82.4399 263.769 87.2333C277.867 99.6186 286.21 116.647 287.256 135.18C288.294 153.566 282.016 171.243 269.573 184.955C256.872 198.949 239.06 207.05 220.438 207.899ZM148.039 150.434C150.113 162.042 155.156 172.919 162.679 182.013C164.267 183.932 165.955 185.765 167.738 187.505C168.545 188.297 169.434 189.123 170.453 190.033C178.399 197.019 187.82 202.129 198.019 204.985C199.307 205.342 200.621 205.664 201.924 205.957C226.672 211.376 252.481 203.234 269.29 184.706C281.669 171.069 287.915 153.486 286.88 135.197C285.84 116.761 277.539 99.8191 263.514 87.5023C258.093 82.7349 251.967 78.8295 245.352 75.9236C244.632 75.6004 243.885 75.2924 243.064 74.9658C241.014 74.1487 238.912 73.4217 236.816 72.8062C227.128 69.9776 216.948 69.2296 206.948 70.6116C205.358 70.8317 203.77 71.1056 202.239 71.4247C199.892 71.9134 197.572 72.5209 195.287 73.2447C183.524 76.9535 172.961 83.714 164.679 92.8336C150.399 108.572 144.331 129.568 148.039 150.434Z" fill="#371A45"/>
<g opacity="0.3">
<path opacity="0.3" d="M269.434 184.83C251.949 204.108 225.889 211.396 201.893 206.136C200.582 205.848 199.277 205.523 197.979 205.164C187.757 202.296 178.311 197.176 170.339 190.18C169.407 189.345 168.492 188.505 167.613 187.647C165.826 185.899 164.132 184.059 162.538 182.134C156.741 175.136 152.396 167.059 149.756 158.372C147.116 149.684 146.233 140.56 147.158 131.528C149.391 142.59 154.331 152.929 161.539 161.625C163.13 163.553 164.824 165.393 166.614 167.14C167.489 167.997 168.404 168.838 169.341 169.672C177.306 176.676 186.752 181.8 196.977 184.661C198.279 185.021 199.585 185.345 200.894 185.634C224.892 190.894 250.946 183.606 268.436 164.328C278.641 153.085 284.391 139.449 285.821 125.503C289.968 146.006 284.643 168.076 269.434 184.83Z" fill="#371A45"/>
</g>
<path d="M220.492 209.114C214.149 209.403 207.795 208.861 201.593 207.502C200.26 207.208 198.918 206.874 197.604 206.509C187.177 203.583 177.544 198.358 169.416 191.219C168.366 190.286 167.457 189.442 166.632 188.633C164.809 186.853 163.082 184.978 161.457 183.016C153.762 173.71 148.605 162.582 146.484 150.707C142.685 129.359 148.894 107.88 163.512 91.7729C171.982 82.4465 182.784 75.5323 194.813 71.7385C197.148 70.9989 199.52 70.3781 201.918 69.8786C203.486 69.5528 205.107 69.2735 206.734 69.0487C216.957 67.6356 227.363 68.4001 237.266 71.2918C239.409 71.9211 241.559 72.6638 243.654 73.4998C244.49 73.8267 245.261 74.1506 246.004 74.4838C252.765 77.4541 259.027 81.4469 264.568 86.3213C278.914 98.9237 287.402 116.251 288.469 135.112C289.529 153.825 283.137 171.816 270.472 185.769C257.554 200.008 239.435 208.25 220.492 209.114ZM149.237 150.222C151.274 161.623 156.227 172.307 163.616 181.24C165.177 183.126 166.838 184.928 168.591 186.64C169.387 187.42 170.264 188.234 171.271 189.13C179.078 195.992 188.335 201.013 198.355 203.819C199.62 204.168 200.913 204.49 202.199 204.774C226.514 210.1 251.878 202.1 268.397 183.895C280.555 170.5 286.69 153.231 285.673 135.269C284.648 117.165 276.497 100.523 262.718 88.4183C257.39 83.7313 251.368 79.8924 244.866 77.0369C244.151 76.7165 243.424 76.4115 242.623 76.097C240.601 75.2916 238.537 74.5769 236.476 73.9727C226.954 71.1946 216.949 70.4611 207.121 71.8206C205.556 72.0366 203.999 72.306 202.493 72.619C200.187 73.0989 197.907 73.6955 195.662 74.4065C184.106 78.0505 173.728 84.6928 165.592 93.6528C151.562 109.108 145.602 129.728 149.237 150.222Z" fill="#371A45"/>
<path d="M220.51 209.519C214.131 209.81 207.742 209.265 201.505 207.898C200.164 207.601 198.816 207.266 197.494 206.9C187.01 203.959 177.322 198.706 169.147 191.53C168.091 190.593 167.177 189.744 166.346 188.929C164.514 187.14 162.777 185.255 161.144 183.282C153.403 173.924 148.214 162.731 146.08 150.786C142.264 129.306 148.508 107.698 163.211 91.5015C173.435 80.2823 186.954 72.575 201.835 69.4825C203.412 69.1543 205.041 68.8726 206.678 68.6474C216.958 67.2256 227.423 67.9946 237.382 70.9036C239.539 71.5363 241.7 72.2835 243.806 73.1239C244.646 73.4526 245.424 73.7782 246.172 74.1131C252.971 77.1003 259.267 81.115 264.839 86.0158C279.267 98.6912 287.803 116.118 288.877 135.085C289.941 153.908 283.513 172.004 270.775 186.039C257.782 200.36 239.559 208.65 220.51 209.519ZM149.638 150.151C151.664 161.484 156.587 172.103 163.932 180.982C165.484 182.857 167.135 184.649 168.877 186.351C169.668 187.127 170.539 187.935 171.542 188.822C179.303 195.644 188.504 200.637 198.464 203.429C199.72 203.771 201.007 204.096 202.282 204.378C226.457 209.674 251.673 201.72 268.091 183.625C280.174 170.308 286.273 153.147 285.263 135.295C284.242 117.296 276.141 100.757 262.445 88.725C257.148 84.0656 251.162 80.249 244.698 77.4097C243.988 77.091 243.269 76.7876 242.469 76.4771C240.457 75.6712 238.4 74.9671 236.356 74.3622C226.89 71.5992 216.943 70.8685 207.172 72.2182C205.615 72.4338 204.067 72.6999 202.571 73.0124C200.279 73.4888 198.012 74.0818 195.781 74.7891C184.294 78.4118 173.978 85.014 165.89 93.9195C151.942 109.286 146.024 129.781 149.638 150.151Z" fill="#371A45"/>
<path d="M153.204 167.373C183.065 207.118 242.611 205.707 261.167 160.456C273.79 129.667 252.835 93.6304 221.942 83.4919C199.46 76.1096 174.261 78.566 153.204 109.708C153.204 109.708 146.053 124.919 146.824 136.887C147.596 148.856 150.4 160.377 150.4 160.377L153.204 167.373Z" fill="#371A45"/>
<path d="M261.163 160.452C242.609 205.706 183.063 207.117 153.201 167.369L152.637 165.951C192.972 187.761 244.333 176.774 263.955 131.364C265.759 140.949 265.057 150.954 261.163 160.452Z" fill="#020202"/>
<path d="M211.923 204.532C200.813 205.038 189.351 202.968 178.611 198.336L178.385 198.218C175.169 196.188 172.118 193.907 169.261 191.397C168.208 190.462 167.296 189.615 166.467 188.802C164.639 187.017 162.906 185.136 161.277 183.168C153.555 173.832 148.379 162.667 146.249 150.751C142.442 129.33 148.672 107.776 163.338 91.6173C171.835 82.26 182.673 75.3231 194.742 71.5174L194.903 71.4662L195.07 71.4496C204.261 70.5139 214.143 71.7547 224.439 75.134C242.969 81.2145 259.094 95.7893 267.574 114.121C275.207 130.621 275.901 148.268 269.528 163.81C262.588 180.732 250.394 193.146 234.264 199.711C227.227 202.575 219.662 204.179 211.923 204.532ZM180.026 195.393C197.42 202.849 216.733 203.324 233.033 196.69C248.329 190.464 259.903 178.667 266.503 162.575C272.533 147.88 271.855 131.157 264.605 115.488C256.499 97.9641 241.102 84.0373 223.418 78.2333C213.622 75.0188 204.252 73.8214 195.567 74.6792C184.116 78.3212 173.834 84.92 165.765 93.8055C151.78 109.211 145.841 129.761 149.47 150.181C151.5 161.542 156.436 172.189 163.799 181.091C165.356 182.97 167.011 184.767 168.758 186.473C169.551 187.25 170.424 188.061 171.429 188.955C174.123 191.32 176.997 193.472 180.026 195.393Z" fill="#371A45"/>
<path d="M211.164 197.608C188.65 198.634 166.271 187.772 151.758 168.454L151.614 168.261L148.645 160.801C148.529 160.324 145.794 148.99 145.021 137.002C144.228 124.711 151.271 109.58 151.568 108.942L151.706 108.699C170.124 81.4591 193.946 72.3992 222.507 81.7744C239.083 87.2139 253.508 100.249 261.093 116.644C267.925 131.413 268.546 147.212 262.838 161.132C254.567 181.304 237.628 194.434 216.363 197.16C214.631 197.38 212.898 197.529 211.164 197.608ZM154.793 166.481C169.653 186.127 193.053 196.507 215.903 193.583C235.841 191.031 251.726 178.707 259.493 159.77C264.816 146.787 264.218 132.008 257.811 118.158C250.638 102.654 237.018 90.334 221.377 85.2008C194.581 76.4075 172.176 84.9509 154.785 110.595C154.125 112.041 147.93 125.962 148.628 136.772C149.338 147.791 151.831 158.576 152.128 159.832L154.793 166.481Z" fill="#371A45"/>
<path d="M291.658 167.406C288.07 180.543 277.169 189.444 267.305 187.286C257.441 185.128 252.356 172.727 255.942 159.591C255.962 159.508 255.988 159.421 256.015 159.339C259.669 146.341 270.5 137.567 280.294 139.711C287.914 141.378 292.682 149.158 292.805 158.666C292.831 161.618 292.445 164.559 291.658 167.406Z" fill="white"/>
<path d="M270.966 187.935C269.713 187.994 268.457 187.889 267.232 187.623C263.285 186.758 259.98 184.292 257.671 180.491C254.306 174.946 253.536 167.1 255.614 159.5C255.635 159.417 255.663 159.325 255.69 159.237C259.378 146.117 270.452 137.205 280.373 139.375C287.891 141.019 293.027 148.771 293.153 158.661C293.179 161.645 292.788 164.619 291.993 167.496C288.808 179.151 279.875 187.529 270.966 187.935ZM276.675 139.753C268.14 140.142 259.504 148.215 256.348 159.436C256.322 159.521 256.298 159.601 256.278 159.678C254.25 167.105 254.991 174.752 258.261 180.133C260.47 183.776 263.621 186.126 267.38 186.952C277.046 189.066 287.791 180.26 291.326 167.316C292.105 164.501 292.488 161.592 292.463 158.672C292.338 149.103 287.42 141.623 280.222 140.048C279.058 139.795 277.866 139.696 276.675 139.753Z" fill="#371A45"/>
<g opacity="0.3">
<path opacity="0.3" d="M291.66 167.406C288.071 180.542 277.17 189.444 267.306 187.286C257.442 185.128 252.357 172.727 255.943 159.59C255.963 159.508 255.989 159.421 256.016 159.339C256.732 160.925 258.056 162.622 260.468 162.674C264.687 162.765 274.181 155.891 274.181 155.891C274.181 155.891 282.268 157.042 292.808 158.665C292.833 161.618 292.447 164.559 291.66 167.406Z" fill="#371A45"/>
</g>
<path d="M271.003 189.387C269.632 189.452 268.259 189.337 266.919 189.045C262.576 188.093 258.941 185.396 256.421 181.246C252.8 175.279 251.99 167.213 254.201 159.118C258.034 145.089 269.914 135.594 280.687 137.952C285.03 138.903 288.665 141.601 291.184 145.751C294.806 151.719 295.616 159.784 293.405 167.881C290.053 180.15 280.542 188.952 271.003 189.387ZM276.685 141.202C268.701 141.566 260.623 149.314 257.688 160.063C255.765 167.106 256.448 174.326 259.514 179.378C261.508 182.664 264.337 184.789 267.695 185.524C268.754 185.754 269.838 185.845 270.921 185.795C278.905 185.431 286.982 177.682 289.917 166.934C291.841 159.89 291.158 152.669 288.092 147.618C286.097 144.332 283.269 142.207 279.911 141.472C278.852 141.242 277.768 141.151 276.685 141.202Z" fill="#371A45"/>
<path d="M292.832 172.245C296.674 162.122 293.569 151.568 285.896 148.673C278.224 145.778 268.889 151.638 265.046 161.761C261.204 171.884 264.309 182.437 271.982 185.332C279.654 188.227 288.989 182.368 292.832 172.245Z" fill="white"/>
<path d="M276.603 186.247C273.421 186.392 270.515 185.343 268.146 183.184C261.85 177.445 261.552 165.518 267.481 156.597C270.787 151.625 275.443 148.435 280.257 147.843C283.838 147.406 287.111 148.429 289.73 150.82C296.026 156.559 296.324 168.486 290.395 177.406C287.089 182.378 282.433 185.568 277.618 186.16C277.278 186.203 276.939 186.232 276.603 186.247ZM281.288 148.135C280.962 148.149 280.634 148.177 280.303 148.217C275.6 148.796 271.04 151.931 267.795 156.806C261.963 165.578 262.234 177.287 268.399 182.909C270.933 185.219 274.104 186.218 277.57 185.79C282.275 185.212 286.833 182.076 290.079 177.201C295.91 168.429 295.639 156.72 289.474 151.098C287.186 149.009 284.368 147.994 281.288 148.135Z" fill="#371A45"/>
<g opacity="0.3">
<path opacity="0.3" d="M263.194 171.384C263.253 167.673 264.347 163.969 266.159 160.7C266.746 169.175 273.061 174.256 280.876 172.197C285.928 170.869 290.443 166.866 293.243 161.805C293.284 162.34 293.292 162.893 293.287 163.456C293.13 172.905 286.267 182.339 277.955 184.526C269.644 186.713 263.036 180.826 263.194 171.384Z" fill="#371A45"/>
</g>
<path d="M276.298 187.727C275.338 187.772 274.376 187.695 273.435 187.498C270.243 186.825 267.563 184.842 265.686 181.762C262.776 176.99 262.169 170.069 264.06 163.249C267.25 151.752 276.574 143.818 284.854 145.561C288.046 146.234 290.725 148.218 292.603 151.292C295.512 156.065 296.12 162.986 294.229 169.806C291.407 179.997 283.762 187.386 276.298 187.727ZM282.042 148.584C275.998 148.859 269.658 155.301 267.214 164.12C265.558 170.089 266.031 176.051 268.482 180.07C269.878 182.362 271.825 183.828 274.112 184.31C280.731 185.704 288.343 178.812 291.08 168.944C292.736 162.976 292.262 157.013 289.812 152.996C288.415 150.704 286.468 149.238 284.181 148.756C283.478 148.608 282.759 148.55 282.042 148.584Z" fill="#371A45"/>
<g opacity="0.5">
<path opacity="0.5" d="M233.816 102.199C233.816 102.199 204.006 94.4476 182.402 105.684L182.334 105.72C177.805 108.083 173.991 111.61 171.286 115.935C167.722 121.632 166.116 126.074 164.856 130.039C161.03 142.099 161.533 148.463 161.533 148.463C156.571 139.924 154.931 131.47 158.018 121.396C158.324 120.403 158.678 119.392 159.079 118.364C159.169 118.126 159.265 117.893 159.365 117.66C159.365 117.66 159.365 117.651 159.373 117.647C160.581 115.078 161.945 112.585 163.456 110.18C168.813 101.658 178.004 91.2379 191.617 89.2988C217.066 85.675 235.226 101.251 233.816 102.199Z" fill="white"/>
<path opacity="0.5" d="M161.994 149.943L161.234 148.636C155.836 139.346 154.741 130.913 157.687 121.293C157.993 120.307 158.351 119.279 158.748 118.238C158.838 118.018 158.921 117.799 159.018 117.581L159.03 117.448L159.099 117.406C160.303 114.858 161.66 112.385 163.162 109.999C168.518 101.484 177.792 90.9225 191.566 88.9571C204.334 87.1392 214.862 90.1767 221.453 93.0457C228.962 96.3157 233.659 100.368 234.18 101.723C234.358 102.187 234.124 102.407 234.014 102.48L233.885 102.567L233.734 102.528C233.437 102.451 203.802 94.9396 182.566 105.985L182.499 106.021C178.023 108.358 174.255 111.845 171.583 116.121C167.948 121.928 166.377 126.405 165.188 130.148C161.428 141.988 161.876 148.377 161.88 148.441L161.994 149.943ZM159.661 117.835C159.571 118.052 159.481 118.269 159.397 118.489C158.999 119.516 158.647 120.529 158.347 121.5C155.587 130.512 156.45 138.467 161.168 147.118C161.218 144.642 161.692 138.866 164.527 129.94C165.729 126.159 167.318 121.634 170.993 115.758C173.731 111.381 177.591 107.812 182.174 105.419L182.22 105.395C202.195 95.0099 229.413 100.814 233.409 101.751C233.17 101.383 232.581 100.691 231.306 99.6526C225.26 94.7003 210.103 87.0198 191.661 89.6489C178.148 91.5735 169.022 101.981 163.743 110.37C162.239 112.76 160.882 115.24 159.681 117.796L159.661 117.835Z" fill="#371A45"/>
</g>
<g opacity="0.5">
<path opacity="0.5" d="M256.061 138.267C256.259 132.334 252.248 127.387 247.102 127.217C241.956 127.047 237.624 131.72 237.426 137.653C237.228 143.587 241.239 148.534 246.385 148.703C251.531 148.873 255.863 144.201 256.061 138.267Z" fill="white"/>
<path opacity="0.5" d="M247.03 149.038C246.78 149.05 246.528 149.05 246.276 149.04C240.952 148.807 236.83 143.646 237.079 137.535C237.212 134.324 238.551 131.326 240.751 129.311C242.575 127.638 244.871 126.775 247.196 126.874C252.521 127.107 256.642 132.268 256.394 138.378C256.26 141.589 254.922 144.587 252.722 146.602C251.092 148.094 249.094 148.944 247.03 149.038ZM237.763 137.564C237.525 143.297 241.358 148.138 246.305 148.354C248.451 148.456 250.563 147.646 252.255 146.097C254.322 144.208 255.579 141.381 255.702 138.349C255.94 132.616 252.108 127.776 247.161 127.56C245.013 127.458 242.903 128.268 241.21 129.817C239.144 131.706 237.886 134.533 237.763 137.564Z" fill="#371A45"/>
</g>
<g opacity="0.5">
<path opacity="0.5" d="M246.257 161.9C248.392 161.771 250.003 159.682 249.855 157.234C249.707 154.786 247.856 152.906 245.721 153.035C243.585 153.164 241.975 155.253 242.123 157.701C242.271 160.149 244.122 162.029 246.257 161.9Z" fill="white"/>
<path opacity="0.5" d="M246.22 162.251L246.197 162.252C243.874 162.344 241.889 160.275 241.771 157.641C241.709 156.266 242.174 154.936 243.044 153.992C243.388 153.609 243.804 153.297 244.269 153.074C244.733 152.852 245.237 152.723 245.752 152.695L245.775 152.694C248.099 152.602 250.083 154.671 250.2 157.305C250.263 158.68 249.798 160.009 248.928 160.954C248.584 161.337 248.168 161.649 247.703 161.872C247.239 162.094 246.735 162.223 246.22 162.251ZM245.783 153.382C245.359 153.406 244.943 153.514 244.56 153.698C244.177 153.883 243.834 154.141 243.551 154.458C242.805 155.268 242.407 156.417 242.46 157.61C242.563 159.867 244.225 161.642 246.17 161.565C247.031 161.51 247.838 161.124 248.42 160.488C249.168 159.677 249.565 158.529 249.512 157.336C249.409 155.078 247.747 153.304 245.802 153.381L245.783 153.382Z" fill="#371A45"/>
</g>
</g>
<path d="M67.9784 79.9235C67.099 79.9235 66.3459 79.6141 65.7189 78.9953C65.1001 78.3765 64.7947 77.6274 64.8029 76.748C64.7947 75.8849 65.1001 75.148 65.7189 74.5373C66.3459 73.9185 67.099 73.6091 67.9784 73.6091C68.8089 73.6091 69.5418 73.9185 70.1769 74.5373C70.8201 75.148 71.1458 75.8849 71.154 76.748C71.1458 77.3342 70.9911 77.8676 70.6898 78.348C70.3967 78.8284 70.0099 79.2111 69.5295 79.4961C69.0573 79.781 68.5402 79.9235 67.9784 79.9235ZM67.9784 67.0504C67.099 67.0504 66.3459 66.745 65.7189 66.1344C65.1001 65.5155 64.7947 64.7624 64.8029 63.8748C64.7947 63.0117 65.1001 62.2749 65.7189 61.6642C66.3459 61.0454 67.099 60.7359 67.9784 60.7359C68.8089 60.7359 69.5418 61.0454 70.1769 61.6642C70.8201 62.2749 71.1458 63.0117 71.154 63.8748C71.1458 64.4611 70.9911 64.9944 70.6898 65.4748C70.3967 65.9552 70.0099 66.3379 69.5295 66.6229C69.0573 66.9079 68.5402 67.0504 67.9784 67.0504ZM76.2837 69.7252C76.2837 66.7043 76.6908 63.9278 77.505 61.3955C78.3193 58.855 79.5895 56.4978 81.3157 54.3238H87.1049C86.4535 55.1299 85.8469 56.1111 85.2851 57.2673C84.7233 58.4235 84.2347 59.6896 83.8195 61.0657C83.4124 62.4418 83.0907 63.8667 82.8546 65.3405C82.6266 66.8143 82.5126 68.2758 82.5126 69.7252C82.5126 71.6468 82.7121 73.5887 83.1111 75.5511C83.5101 77.5052 84.0556 79.3169 84.7477 80.9861C85.4398 82.6635 86.2256 84.0395 87.1049 85.1143H81.3157C79.5895 82.9403 78.3193 80.5871 77.505 78.0548C76.6908 75.5144 76.2837 72.7379 76.2837 69.7252Z" fill="#371A45"/>
<defs>
<clipPath id="clip0_1605_1037">
<rect width="279.608" height="303.177" fill="white" transform="translate(50.3711 75.4624) rotate(-2.61071)"/>
</clipPath>
</defs>
</svg>
