<svg id="Camada_1" xmlns="http://www.w3.org/2000/svg" viewBox="0 0 513 464"><style>.st0{opacity:.2;fill:#0084ff;enable-background:new}.st1{fill:#002d54}.st2{fill:#371a45}.st3{fill:#fff}.st4,.st5{opacity:.35}.st5{fill:#371a45;enable-background:new}.st6,.st7,.st8{opacity:.6}.st7,.st8{fill:#fff;enable-background:new}.st8{opacity:.35;fill:#111a28}.st9{fill:#ffb200}.st10,.st11{opacity:.25}.st11{fill:#371a45;enable-background:new}.st12{fill:#d66b09}.st13{fill:#ffcc4d}.st14{fill:#ffec90}.st15,.st16{opacity:.41}.st16{fill:#fff;enable-background:new}.st17,.st18{opacity:.3}.st18{fill:#293856;enable-background:new}.st19{fill:#22a7f0}.st20{fill:#ffd527}.st21{fill:none;stroke:#ffd527;stroke-width:2.3123}.st22{fill:#8dd7ff}.st23{fill:#e0e0e0}</style><path class="st0" d="M382 384.7c39.3-32.1 64.3-81 64.3-135.7 0-96.8-78.5-175.2-175.3-175.2S95.7 152.3 95.7 249.1c0 54.7 25.1 103.5 64.3 135.7 32.7-.6 70.6-1 111-1 40.4-.1 78.3.3 111 .9z"/><path class="st1" d="M454.5 358c2-4.4-3.7-45.6-43.7-47.4-7.9 0-15.7 1.9-22.7 5.8-6.6-5.9-15.5-9.9-25.5-10.9-3.6-17.4-21-30.5-41.8-30.5-7.3 0-14.5 1.6-21.1 4.9-2.1 1-4.5 1.1-6.8.4l-.4-.1c-2.1-.6-3.8-1.9-5-3.6-7.3-11.3-21.1-18.9-37-18.9-16.7 0-31.1 8.4-38.1 20.7-6.9-3.7-14.5-5.6-22.3-5.6-23.5 0-42.5 16.7-42.5 37.3 0 1.1.1 2.2.2 3.3-14.5 2.9-26.6 11.5-32.9 23-8.9-9.5-22.4-15.5-37.5-15.5-26.1 0-47.4 18.1-48.6 40.8-1.2-.1-2.5-.2-3.8-.2-16.7 0-30.2 11.9-30.2 26.5 0 .7 0 1.5.1 2.2h523c-5.5-18.5-30.1-42-63.4-32.2z"/><path class="st2" d="M276.2 313.5c-.6 0-1.1-.2-1.5-.6-.4-.4-.6-.9-.6-1.5V197.1c0-.6.2-1.1.6-1.5.4-.4.9-.6 1.5-.6s1.1.2 1.5.6c.4.4.6.9.6 1.5v114.3c0 .6-.2 1.1-.6 1.5-.4.3-.9.6-1.5.6z"/><path class="st3" d="M275.6 378.4c-18-.1-49.5-2.5-50.8-20.4-.2-2.5-.2-5 0-7.6 1-17.7 8.6-40.8 16-46 4.3-3 11.8-3.4 19.9-1.9 16.1 2.8 34.6 12.9 34.4 24.2-.1 11-1.4 51.7-19.5 51.7z"/><g class="st4"><path class="st5" d="M275.6 378.4c-18-.1-49.5-2.5-50.8-20.4-.2-2.5-.2-5 0-7.6 4.8 4.1 11.9.8 12.9-3.9 6.2-29.4 17.6-40.3 23-44 16.1 2.8 34.6 12.9 34.4 24.2-.1 11-1.4 51.7-19.5 51.7z"/></g><path class="st2" d="M275.7 380.5c-23.4-.1-51.6-4-52.9-22.3-1.3-17.4 7-48.5 16.9-55.4 8.8-6.1 28.4-2.4 41.6 4.6 10.5 5.6 16.2 12.5 16.1 19.4-.4 20-3.6 53.7-21.7 53.7zm-23.5-76.6c-4.3 0-7.9.7-10.2 2.3-7.9 5.5-16.4 34.5-15.1 51.7 1.2 15.9 31 18.4 48.7 18.5 15.6 0 17.3-37.9 17.4-49.6.1-5.3-5-11-13.9-15.7-8.6-4.7-18.9-7.2-26.9-7.2z"/><path class="st3" d="M240.7 335.5l-7-3.1c-.4-.2-.8-.2-1.2-.2-.4 0-.8.1-1.2.3-.4.2-.7.4-1 .7-.3.3-.5.7-.6 1.1-1.7 5.7-4.4 17.5 1.3 20.1 6.9 3.2 9.6-4.8 11.2-15.8.1-.6 0-1.3-.3-1.8-.1-.6-.6-1-1.2-1.3z"/><g class="st4"><path class="st5" d="M242.4 338.5c-1.6 11-4.3 19-11.2 15.8-2.8-1.3-3.6-4.9-3.4-8.9.5 1.2 1.3 2.1 2.5 2.6 6.2 2.8 9-3.3 10.7-12.5.5.3.9.7 1.2 1.2.2.7.3 1.3.2 1.8z"/></g><path class="st2" d="M234 356.8c-1.1 0-2.3-.3-3.6-.9-6.4-3-4.8-13.7-2.3-22.2.2-.6.5-1.2.9-1.7s1-.9 1.5-1.2c.6-.3 1.2-.4 1.9-.4s1.3.1 1.9.4l7 3.1c.9.4 1.7 1.1 2.2 2 .5.9.7 1.9.5 2.9-1.5 10.2-3.6 15.4-7.1 17.3-.8.5-1.8.7-2.9.7zm-1.4-22.8c-.2 0-.3 0-.5.1-.1.1-.3.2-.4.3-.1.1-.2.3-.2.4-2.2 7.6-3.3 16.3.4 18 2.1 1 3.1.4 3.4.2 3.5-1.9 4.9-11.6 5.3-14.7 0-.2 0-.5-.1-.7-.1-.2-.3-.4-.5-.5l-7-3.1h-.4z"/><path class="st3" d="M301.5 420.4s8.5 8.8 1.1 15.6c-6.4 5.8-23.8 2.2-30-9.5-4-7.5.1-14.1.8-25.8.3-5.8-.1-12.9-2.9-22-1.3-4.5-2.9-10.1-3.3-16.8l37.6 20.2s1.1 3.5 1.8 8.7c1.1 8.1 1.2 20.3-5.1 29.6z"/><g class="st4"><path class="st5" d="M305 432.8c-.5 1.1-1.2 2.1-2.3 3.2-6.4 5.8-23.8 2.2-30-9.5-4-7.5.1-14.1.8-25.8.3-5.8-.1-12.9-2.9-22-1.3-4.5-2.9-10.1-3.3-16.8l6.5 3.5 31.1 16.7s1.1 3.5 1.8 8.7c-4.3 5.4-10.3 9.5-18.3 10.6-7.5 1.1-13.1 7.9-11.9 15.5.2 1.6.8 3.1 1.5 4.6 5.3 10.2 19.3 14.3 27 11.3z"/></g><path class="st2" d="M294.1 440.8c-1.4 0-2.9-.1-4.3-.4-6.4-1.1-14.8-5.1-19-13-3-5.6-2-10.7-.9-16.7 1.4-7.4 3.1-16.7-1.4-31.5-1.5-5-3-10.6-3.4-17.2l-.3-3.9 41.7 22.5.3.8c.3.9 6.9 22.8-2.6 38.7 1.4 1.9 3.8 5.6 3.6 9.7-.1 2.9-1.3 5.5-3.7 7.6s-5.9 3.4-10 3.4zm-24.4-75.1c.6 4.5 1.7 8.6 2.9 12.4 4.7 15.8 2.8 26 1.5 33.5-1 5.6-1.8 9.7.5 13.9 3.5 6.5 10.5 9.9 16 10.8 4.6.8 8.6.1 10.7-1.9 1.5-1.4 2.2-2.9 2.3-4.6.1-4-3.5-7.9-3.5-7.9l-1.2-1.2 1-1.4c8.6-12.7 4.3-31.5 3.2-35.6l-33.4-18z"/><path class="st2" d="M294.8 413.4c-11.8 0-22.1-6.3-22.7-6.6-.2-.1-.3-.2-.4-.4-.1-.1-.2-.3-.2-.5s-.1-.4 0-.6c0-.2.1-.4.2-.5.1-.2.2-.3.4-.4.2-.1.3-.2.5-.2h.5c.2 0 .4.1.5.2.2.1 17.3 10.5 31.8 4 .2-.1.3-.1.5-.1s.4 0 .5.1c.2.1.3.2.5.3.1.1.2.3.3.4.1.2.1.3.1.5s0 .4-.1.5c-.1.2-.2.3-.3.5-.1.1-.3.2-.4.3-3.8 1.8-7.8 2.5-11.7 2.5z"/><path class="st3" d="M333.8 322.9s-2 2.2-4.7 6.3c-2.2 3.4-4.2 7-5.9 10.8-3.4 7.3-5.7 15-7 22.9-.7 4.2-1.9 8.5-3.7 12.5-5.4 12-16.1 21.3-34 18.7-23.7-3.4-38.1-21.2-35.8-41 .4-3.7 1.1-7.4 2.2-10.9.8-2.7 1.8-5.4 3-7.9 2.5-5.5 5.8-10.5 9.7-15 3.5-4 7.6-7.8 12.4-11.3 4.3-3.1 9.1-6 14.4-8.7 3.4-1.7 7-3.3 10.9-4.8 5.4-2.3 38.5 28.4 38.5 28.4z"/><g class="st4"><path class="st5" d="M315 367.5c.1-.2.2-.5.3-.7-.7 2.9-1.7 5.7-2.9 8.5-5.4 12-16.1 21.3-34 18.7-23.7-3.4-38.1-21.2-35.8-41 .6-5.7 2-11.4 4.2-16.7-.8 2.9-1.3 5.9-1.6 8.9-2.2 19.8 12.1 37.6 35.9 41 17.8 2.7 28.5-6.7 33.9-18.7z"/></g><path class="st2" d="M284.3 396.6c-2.1 0-4.1-.2-6.2-.5-24.3-3.5-40.1-21.8-37.7-43.3 3-27 21.7-47.9 53.9-60.4 1.6-.6 4.6-1.8 23.5 13.8 8.9 7.4 17.3 15.1 17.3 15.2l1.5 1.4-1.4 1.6c-.1.1-13.1 14.6-17.1 38.9-2.7 16.6-13.1 33.3-33.8 33.3zm11.5-100.3c-31 12.1-48.2 31.3-51.1 56.9-2.2 19.2 12.2 35.5 34 38.7 27.5 4 34-21.5 35.3-29.5 3.5-21 13.2-34.8 16.8-39.4-2.7-2.4-8.7-7.8-15-13.1-15.7-13-19.4-13.6-20-13.6z"/><path class="st3" d="M279.7 384.5s3.2 23.8-9.7 37.1c0 0 6.9 10.1-1.5 15.5-7.3 4.7-23.8-1.9-28-14.4-4-12 9.5-19.2 6-47.5-.6-4.7-1.1-10.5-.5-17.1l33.7 26.4z"/><g class="st4"><path class="st5" d="M271.2 434.6c-.7 1-1.6 1.9-2.7 2.5-7.3 4.7-23.8-1.9-28-14.4-4-12 9.5-19.2 6-47.5-.2-1.9-.5-4.1-.6-6.4 14.4 26.9-1.9 38.5 1.9 49.9 3.4 10.4 15.3 16.7 23.4 15.9z"/></g><path class="st2" d="M280.4 384.4c1.5 3.2 1.8 6.7 1.8 10.1 0 3.4-.5 6.8-1.3 10.1s-1.8 6.6-3.4 9.8c-.8 1.6-1.6 3.1-2.6 4.6-1 1.5-2.1 2.8-3.3 4.1l.2-2.7c.2.4.4.6.6.9.2.3.3.6.5.9.3.6.6 1.2.8 1.9.5 1.3.9 2.7 1 4.1.2 1.5.1 3-.3 4.4-.4 1.5-1.1 2.9-2.2 4.1-.5.6-1 1.1-1.6 1.5l-.9.6c-.3.2-.7.4-1 .6-1.3.7-2.8 1.1-4.2 1.2-2.8.3-5.6-.1-8.1-.8-5.1-1.5-9.7-4.4-13.2-8.4-.9-1-1.7-2.1-2.4-3.2-.7-1.2-1.3-2.4-1.8-3.6-.5-1.3-.9-2.6-1.1-4-.2-1.4-.2-2.8-.1-4.2.3-2.8 1.1-5.3 2-7.6.8-2.3 1.7-4.6 2.4-6.9 1.5-4.5 2.4-9.1 2.7-13.9.2-2.4.2-4.7 0-7.1-.1-1.2-.1-2.4-.3-3.6l-.2-1.8c0-.3-.1-.5-.1-.7 0-.2-.1-.5-.2-.7-.6-2-1.9-4.2-2.6-6.7-.4-1.3-.6-2.6-.6-4s.4-2.8 1.1-4l.3-.3c.1-.1.3-.1.4-.1.1 0 .3.1.4.1l.3.3c.5 1.2.9 2.3 1.2 3.3.4 1 .8 2.1 1.2 3.1.4 1.1.8 2.1 1.2 3.3.4 1.2.9 2.4 1.2 3.7.1.3.2.7.2 1 .1.4.1.7.2 1.1l.2 1.9c.1 1.2.2 2.5.3 3.8.1 2.5.1 5.1 0 7.6-.3 5.1-1.3 10.1-2.9 14.9-.8 2.4-1.7 4.7-2.5 7s-1.5 4.5-1.7 6.6c-.2 2.1.1 4.2.9 6.2.4 1 .9 2 1.5 2.9.6.9 1.3 1.8 2 2.7 2.9 3.3 7 5.9 11.3 7.1 2.1.6 4.4.9 6.4.7 1-.1 1.9-.4 2.8-.8l.6-.3c.2-.1.4-.3.6-.4.4-.3.7-.6 1-1 1.2-1.4 1.7-3.2 1.4-5.2-.1-1-.4-2.1-.8-3-.2-.5-.4-1-.7-1.5-.1-.2-.2-.5-.4-.7-.1-.2-.3-.5-.4-.6l-.9-1.4 1.2-1.3c1-1.1 2-2.3 2.9-3.6.9-1.3 1.6-2.6 2.3-4 1.3-2.8 2.3-5.8 2.9-8.9.6-3.1.9-6.3 1.2-9.4.3-3.2.5-6.4 1.2-9.7 0-.2.1-.3.2-.4.1-.1.3-.2.4-.2.2 0 .3 0 .4.1.2.1.3.3.4.4z"/><path class="st2" d="M269.8 414.1c-14.1 0-25.9-10.3-26.4-10.8-.3-.2-.4-.6-.5-1 0-.4.1-.7.3-1s.6-.4 1-.5c.4 0 .7.1 1 .3.2.1 15.3 13.3 30.7 9.4.4-.1.7 0 1.1.1.3.2.5.5.6.9.1.4 0 .7-.1 1.1-.2.3-.5.5-.9.6-2.2.6-4.5.9-6.8.9z"/><g class="st4"><path class="st5" d="M275.1 359.8c-22.3-6.1-29.5-15.9-29.5-15.9-.4-.6-.7-1.2-.9-1.8.8-2.7 1.8-5.4 3-7.9.6-.4 1.3-.6 2-.8 6.8 12.7 27.9 16.4 27.9 16.4 5 6.3-2.5 10-2.5 10z"/></g><path class="st3" d="M285.9 299.6l-14.5 11.8-10.9 8.9c-1-.3-2.1-.7-3-1.2-14.8-6.9-34.8-32.3-33.2-50.5.3-3.5 4.3-11.1 6.8-13.3 10.9-9.5 13.7 8.3 14.1 8.5.4.1 3.7-7.3 8-4.4 3.4 2.2.3 13.4.3 13.4s4.2 9.7 14.6 17.9c4.8 3.8 10.4 6.7 16.3 8.5.4.1.9.3 1.5.4z"/><g class="st4"><path class="st5" d="M260.5 320.3c-1-.3-2.1-.7-3-1.2-14.8-6.9-34.8-32.3-33.2-50.5.3-3.5 4.3-11.1 6.8-13.3 2-1.7 3.7-2.5 5.2-2.7-2.4 3.1-5.1 8.8-5.4 11.7-1.3 15.6 16.3 39.7 29.4 48.4 2.5 1.8 2.6 5.6.2 7.6z"/></g><path class="st2" d="M260.3 321c-1.4 0-2.8-.3-4.2-.7-1.4-.4-2.6-1-3.8-1.7-2.4-1.4-4.6-3-6.7-4.8-2.1-1.8-3.9-3.8-5.7-5.8-1.8-2-3.6-4.1-5.2-6.3-3.2-4.4-6.1-9-8.4-14-2.2-5-4-10.4-4.2-16.1v-2.7-.6l.1-.6.1-.6c.4-1.4.8-2.8 1.4-4.1 1.2-2.6 2.4-5 4.2-7.3.5-.6 1-1.2 1.6-1.8.6-.5 1.2-.9 1.8-1.4 1.3-.8 2.7-1.6 4.5-1.9 1.8-.2 3.9.3 5.2 1.4.7.5 1.3 1.1 1.8 1.8.5.6.9 1.2 1.3 1.9.7 1.3 1.3 2.6 1.8 4 .2.7.4 1.3.6 2l.3 1 .1.3c0-.1-.1-.2-.1-.2-.2-.4-.6-.6-1-.8-.3-.1-.7-.2-1.1-.1-.2 0-.4.1-.6.3-.1.1-.2.1-.3.2l-.1.1c.1-.1.3-.4.5-.7l.6-.9c.4-.6.9-1.2 1.5-1.7.6-.6 1.3-1.2 2-1.6.9-.5 1.9-.8 3-.7 1 .1 2.1.4 2.9 1 1.1.7 1.6 1.8 1.9 2.6.6 1.8.6 3.2.5 4.7-.1 1.4-.2 2.8-.5 4.2-.2 1.4-.5 2.7-.9 4.1l-.1-1.4c.3.7.7 1.5 1.2 2.2.4.8.9 1.5 1.3 2.2.5.7 1 1.4 1.5 2.2.5.7 1 1.4 1.6 2.1 2.2 2.7 4.6 5.2 7.3 7.4l1 .8c.3.3.7.5 1 .8l2.1 1.5c1.5.9 3 1.8 4.6 2.5.8.4 1.5.8 2.3 1.2.8.3 1.6.7 2.3 1.2.8.5 1.5.8 2.3 1.3.8.5 1.6 1 2.3 1.6l.1.1c.1.1.2.2.2.4v.4c0 .1-.1.3-.2.3-.1.1-.2.1-.4.2-3.9.4-7.6-.8-10.9-2.6-3.3-1.8-6.4-4-9.3-6.4-2.9-2.4-5.5-5.1-7.9-8-.6-.7-1.1-1.5-1.7-2.2-.5-.8-1.1-1.5-1.6-2.3l-1.5-2.4c-.5-.8-.9-1.6-1.3-2.6l-.3-.6.2-.8c.6-2.4 1.1-5 1.2-7.4 0-1.2 0-2.4-.3-3.2l-.3-.6c-.2-.2-.5-.3-.8-.3-.3 0-.6.1-.8.2-.4.2-.8.5-1.1.9-.4.4-.8.8-1.1 1.3l-.5.8c-.2.3-.3.5-.7.9l.1-.2-.1.1c0 .1-.1.1-.1.1-.1.1-.3.2-.4.3-.2.1-.5.2-.7.3-.4.1-.8 0-1.1-.1-.4-.2-.8-.5-1.1-.9-.1-.1-.1-.2-.2-.3v-.1l-.1-.1-.1-.1V263.9l-.1-.3-.3-1-.6-1.8c-.4-1.1-.9-2.2-1.5-3.3-.6-1-1.2-1.9-2-2.4-.3-.3-.7-.4-1.1-.6-.4-.1-.7-.1-1.1-.1-.8.1-1.8.5-2.7 1.2-.5.3-.9.7-1.4 1.1-.4.4-.7.8-1.1 1.2-1.4 1.9-2.7 4.2-3.7 6.4-.5 1.1-.9 2.2-1.2 3.4l-.1.4v3.1c.2 4.9 1.7 9.8 3.8 14.5 2.1 4.6 4.9 9.1 7.9 13.2 3.1 4.1 6.6 7.9 10.6 11.3 1.9 1.7 3.9 3.3 5.9 4.8l3.1 2.3c1 .8 2.1 1.4 3.2 2.2.1.1.2.2.2.4v.4c0 .1-.1.3-.3.4 0 .2-.1.3-.3.3z"/><g class="st4"><path class="st5" d="M329.1 329.2c2.7-4.1 4.7-6.3 4.7-6.3s-33.1-30.7-38.6-28.6c-3.8 1.5-7.5 3.1-10.9 4.8-5.9-1.8-11.4-4.7-16.3-8.5-.7 5.8-.1 11.7 1.9 17.2.4 1.2.9 2.4 1.5 3.6.6 1.1 1.2 2.3 1.8 3.3 4.4 7.1 11.7 14.9 23.3 20.3 3 1.4 6.2 2.5 9.4 3.4 5.4 1.4 11 1.9 16.5 1.6 1.3-2.7 3.4-6.1 6.7-8.3 0-.9-.1-1.7 0-2.5z"/></g><path class="st3" d="M365.6 316.4c-.3-.1-.5-.3-.6-.6-.1-.3-.1-.6 0-.8l11.4-28.6c.1-.3.3-.5.6-.6.3-.1.6-.1.8 0 2.8 1.1 5 3.3 6.2 6 1.2 2.7 1.2 5.8.1 8.6l-3.9 9.8c-1.1 2.8-3.3 5-6 6.2-2.7 1-5.8 1.1-8.6 0z"/><path class="st2" d="M369.7 317.4c-1.4 0-2.9-.3-4.2-.8-.2-.1-.3-.2-.4-.3-.1-.1-.2-.3-.3-.4-.1-.2-.1-.3-.1-.5s0-.3.1-.5l11.4-28.6c.1-.2.2-.3.3-.4.1-.1.3-.2.4-.3.2-.1.3-.1.5-.1s.3 0 .5.1c1.4.6 2.7 1.4 3.8 2.4 1.1 1 1.9 2.3 2.5 3.7.6 1.4.9 2.9.9 4.4 0 1.5-.3 3-.8 4.4l-3.9 9.8c-.9 2.1-2.3 4-4.2 5.3-1.9 1.1-4.2 1.8-6.5 1.8zm-4-1.3c2.7 1.1 5.7 1 8.4-.1 2.7-1.2 4.8-3.3 5.9-6l3.9-9.8c1.1-2.7 1-5.7-.1-8.4-1.2-2.7-3.3-4.8-6-5.9-.1 0-.2-.1-.3-.1-.1 0-.2 0-.3.1-.1 0-.2.1-.3.2-.1.1-.1.2-.2.3L365.3 315c0 .1-.1.2-.1.3 0 .1 0 .2.1.3 0 .1.1.2.2.3 0 .1.1.2.2.2z"/><g class="st4"><path class="st5" d="M382 305.5l-1.8 4.6c-1.1 2.8-3.3 5-6 6.2-2.7 1.2-5.8 1.2-8.6.1-.1-.1-.2-.1-.4-.2-.1-.1-.2-.2-.2-.3-.1-.1-.1-.3-.1-.4 0-.1 0-.3.1-.4l3-7.6c0 .2.1.4.2.6.1.2.3.3.5.4l.7.3c2.2.9 4.5 1 6.8.5 2.2-.8 4.3-2 5.8-3.8z"/></g><path class="st2" d="M369.7 318.8c-1.6 0-3.2-.3-4.8-.9-.7-.3-1.2-.8-1.5-1.5-.3-.7-.3-1.4 0-2.1l11.4-28.6c.1-.3.3-.6.6-.9.3-.3.6-.5.9-.6.3-.1.7-.2 1.1-.2s.7.1 1.1.2c1.6.6 3 1.6 4.2 2.7 1.2 1.2 2.2 2.6 2.9 4.1.7 1.6 1 3.2 1.1 4.9 0 1.7-.3 3.4-.9 5l-3.9 9.8c-1 2.4-2.6 4.5-4.8 5.9-2.2 1.5-4.8 2.2-7.4 2.2zm-2.9-3.8c2.3.7 4.8.6 7-.4s3.9-2.9 4.8-5.1l3.9-9.8c.9-2.2.9-4.8 0-7-.9-2.3-2.6-4.1-4.8-5.1L366.8 315z"/><path class="st3" d="M283.3 248.2c.3.1.5.3.6.6.1.3.1.6 0 .8l-11.4 28.6c-.1.1-.1.2-.2.4-.1.1-.2.2-.3.2-.1.1-.3.1-.4.1-.1 0-.3 0-.4-.1-2.8-1.1-5-3.3-6.2-6-1.2-2.7-1.2-5.8-.1-8.6l3.9-9.8c1.1-2.8 3.3-5 6-6.2 2.7-1 5.8-1.1 8.5 0z"/><path class="st2" d="M271.6 279.1c-.2 0-.3 0-.5-.1-2.8-1.1-5.1-3.3-6.3-6.1-1.2-2.8-1.2-5.9-.1-8.8l3.9-9.8c1.1-2.8 3.3-5.1 6.1-6.3 2.8-1.2 5.9-1.2 8.8-.1.2.1.3.2.4.3.1.1.2.3.3.4.1.2.1.3.1.5s0 .3-.1.5l-11.4 28.6c-.1.2-.3.5-.5.6-.2.3-.5.3-.7.3zm7.6-31.4c-2.2 0-4.3.7-6.2 1.9-1.8 1.2-3.2 3-4 5l-3.9 9.8c-1.1 2.7-1 5.7.1 8.4 1.2 2.7 3.3 4.8 6 5.9.2.1.4.1.6 0 .2-.1.4-.2.4-.5l11.4-28.6c.1-.2.1-.4 0-.6s-.2-.4-.4-.4c-1.2-.7-2.6-.9-4-.9z"/><g class="st4"><path class="st5" d="M275.7 270.3l-3.2 7.9c-.1.3-.3.5-.6.6-.3.1-.6.1-.8 0-2.8-1.1-5-3.3-6.2-6-1.2-2.7-1.2-5.8-.1-8.6l1.6-4.1c.1 2.2.8 4.2 2.1 6 1.3 1.8 3 3.1 5 3.9l1 .4c.2.1.4.1.6.1.3 0 .5-.1.6-.2z"/></g><path class="st2" d="M271.6 280.6c-.3 0-.7-.1-1-.2-1.6-.6-3-1.6-4.2-2.7s-2.2-2.6-2.9-4.1c-.7-1.6-1-3.2-1.1-4.9 0-1.7.3-3.4.9-5l3.9-9.8c1.3-3.2 3.7-5.7 6.9-7.1 3.1-1.4 6.7-1.4 9.9-.1.3.1.6.3.9.6.3.3.5.6.6.9.1.3.2.7.2 1.1 0 .4-.1.7-.2 1.1L274.1 279c-.2.5-.6 1-1 1.3-.4.1-1 .3-1.5.3zm7.6-31.5c-1.9 0-3.8.6-5.4 1.6-1.6 1.1-2.8 2.6-3.5 4.4l-3.9 9.8c-.9 2.2-.9 4.8 0 7 .9 2.3 2.6 4.1 4.8 5.1l10.9-27.4c-.9-.3-1.9-.5-2.9-.5z"/><path class="st3" d="M324.5 334.8c29 0 52.5-23.5 52.5-52.5s-23.5-52.5-52.5-52.5-52.5 23.5-52.5 52.5 23.5 52.5 52.5 52.5z"/><path class="st2" d="M324.4 335c-7.9 0-15.7-1.8-22.9-5.3-12.7-6.1-22.2-16.8-26.9-30.1-4.6-13.3-3.8-27.6 2.3-40.3 6.1-12.7 16.8-22.2 30.1-26.9 13.3-4.6 27.6-3.8 40.3 2.3 26.2 12.6 37.2 44.2 24.6 70.4-6.1 12.7-16.8 22.2-30.1 26.9-5.5 2-11.4 3-17.4 3zm.1-105c-5.9 0-11.7 1-17.3 2.9-13.2 4.6-23.8 14-29.8 26.6-3 6.2-4.7 12.9-5.1 19.7s.6 13.7 2.8 20.2c2.3 6.5 5.8 12.4 10.3 17.6 4.6 5.1 10.1 9.3 16.3 12.3 12.6 6.1 26.7 6.9 39.9 2.3 13.2-4.6 23.8-14 29.8-26.6l.2.1-.2-.1c12.5-25.9 1.6-57.2-24.3-69.7-7-3.5-14.7-5.3-22.6-5.3z"/><g class="st4"><path class="st5" d="M374.4 298.3c-.7 2.3-1.6 4.6-2.7 6.8-12.6 26.1-44 37.1-70.1 24.5-26.1-12.6-37-43.9-24.5-70 .4-.8.7-1.5 1.1-2.2-7.9 24.5 3.3 51.8 27.2 63.3 25.5 12.1 55.8 2.1 69-22.4z"/></g><path class="st2" d="M324.4 336.9c-8.2 0-16.3-1.9-23.7-5.4-13.1-6.3-23-17.4-27.8-31.1-4.8-13.8-4-28.6 2.4-41.7 6.3-13.1 17.4-23 31.1-27.8 13.8-4.8 28.6-4 41.7 2.4 27.1 13.1 38.5 45.7 25.4 72.8-6.3 13.1-17.4 23-31.1 27.8-5.7 1.9-11.8 3-18 3zm.1-105c-11.4 0-22.5 3.9-31.4 11-8.9 7.1-15.2 17-17.7 28.2-2.5 11.1-1.2 22.8 3.7 33.1s13.2 18.6 23.5 23.6c25 12.1 55.2 1.5 67.3-23.5 12.1-25 1.5-55.2-23.5-67.3-6.8-3.4-14.3-5.1-21.9-5.1z"/><path class="st2" d="M371 306.2c-4.3 9.3-11.3 16.6-19.8 21.3-6.4 3.6-26.7 5.6-46.4-3.4-18.3-8.3-30.4-25.7-31.8-32.9-1.8-9.6-.9-19.6 3.5-28.9 11.4-24.6 37.3-25 63.5-12.9 26 12.1 42.4 32.2 31 56.8z"/><path class="st2" d="M334.2 332c-8.6 0-19.3-1.7-30-6.6-19-8.6-31.1-26.4-32.6-33.9-2-10.2-.7-20.5 3.6-29.8 5.6-12.1 14.8-19.2 27.3-21 10.9-1.6 24 1 38 7.4 14 6.5 24.4 14.9 30.2 24.2 6.6 10.7 7.2 22.3 1.6 34.4-4.3 9.3-11.4 16.9-20.4 21.9-3.1 1.9-9.5 3.4-17.7 3.4zm-25.3-89c-12 0-24.1 4.6-31.2 19.9-4.1 8.7-5.2 18.5-3.4 28.1 1.3 6.8 13.1 23.8 31 31.9 19.8 9 39.5 6.6 45.2 3.4 8.5-4.8 15.2-11.9 19.3-20.7 14.1-30.3-16.6-48.5-30.5-55-6.9-3.1-18.6-7.6-30.4-7.6z"/><g class="st6"><path class="st7" d="M362.7 299.6c3-4.2 2.9-9.3-.2-11.5-3-2.1-7.9-.5-10.8 3.7-3 4.2-2.9 9.3.2 11.5 3 2.2 7.8.5 10.8-3.7z"/></g><g class="st6"><path class="st7" d="M344.6 311.5c1.6-1.7 1.7-4.2.2-5.6-1.5-1.4-4-1.1-5.6.6-1.6 1.7-1.7 4.2-.2 5.6 1.5 1.4 4 1.1 5.6-.6z"/></g><g class="st4"><path class="st8" d="M372.5 279c3.2 8.2 3.1 17.4-1.5 27.3-4.3 9.3-11.4 16.6-19.8 21.3-6.4 3.6-26.7 5.6-46.4-3.4-7-3.2-13-7.6-18-12.4 24.5 10.5 49.3 8 57.2 3.5 10.8-6 19.7-15.2 25.2-27.1 1.3-2.9 2.5-6 3.3-9.2z"/></g><path class="st2" d="M377 284.5c-.3 0-.6-.1-.8-.2-.3-.1-.5-.3-.6-.6-.1-.1-.1-.2-.2-.3l-.1-.2v-.2c-2.8-14.8-15.2-28.4-34.1-37.1-19-8.8-37.4-9.3-50.6-1.5l-.2.1c-.4.2-.9.2-1.3.1s-.8-.4-1-.8c-.2-.4-.2-.9-.1-1.3s.4-.8.8-1c14.2-8.5 33.8-8 53.8 1.3 19.9 9.2 33 23.6 36 39.5.1.3.1.5 0 .8-.1.3-.2.5-.3.7-.2.2-.4.4-.6.5-.2.1-.5.2-.7.2z"/><g class="st6"><path class="st7" d="M280.2 281.9s3.6-27.9 21.2-31.5c17.6-3.6 36.4 5.2 35.4 6.2 0 0-23.2-4.6-39 8.1-12.1 9.8-17.6 17.2-17.6 17.2z"/></g><path class="st2" d="M234.2 297.8h-1c-.5 0-.9-.3-1.2-.6-.3-.3-.4-.8-.4-1.3s.2-.9.6-1.2c.3-.3.8-.5 1.3-.4.7.1 18 1.1 23-14.3.2-.4.5-.7.9-.9.4-.2.9-.2 1.3-.1s.8.4 1 .8c.2.4.3.8.2 1.3-5.2 15.7-21.4 16.7-25.7 16.7z"/><path class="st9" d="M271.4 174.2l-7.1 12.4c-2.7 4.7.7 10.5 6.1 10.5h12.5c5.4 0 8.8-5.8 6.1-10.5l-7.1-12.4c-2.5-4-8.2-4-10.5 0z"/><g class="st10"><path class="st11" d="M271.4 174.2l-7.1 12.4c-2.7 4.7.7 10.5 6.1 10.5h12.5c5.4 0 8.8-5.8 6.1-10.5l-7.1-12.4c-2.5-4-8.2-4-10.5 0z"/></g><path class="st2" d="M282.8 199.2h-12.5c-1.6 0-3.2-.4-4.6-1.2-1.4-.8-2.5-2-3.3-3.4-.8-1.4-1.2-3-1.2-4.6 0-1.6.4-3.2 1.2-4.6l7.1-12.4c.7-1.2 1.7-2.3 3-3 1.2-.7 2.6-1.1 4-1.1s2.8.4 4 1.1c1.2.7 2.3 1.7 3 3l7.1 12.4c.8 1.4 1.2 3 1.2 4.6s-.4 3.2-1.2 4.6c-.8 1.4-2 2.5-3.3 3.4-1.3.8-2.9 1.2-4.5 1.2zm-6.2-25.9c-.7 0-1.3.2-1.9.5-.6.3-1.1.8-1.4 1.4l-7.1 12.4c-.4.7-.7 1.6-.7 2.4s.2 1.7.7 2.4c.4.7 1 1.4 1.8 1.8.7.4 1.6.7 2.4.7h12.5c.9 0 1.7-.2 2.4-.7.7-.4 1.4-1 1.8-1.8.4-.7.7-1.6.7-2.4 0-.9-.2-1.7-.7-2.4l-7.1-12.4c-.3-.6-.8-1.1-1.4-1.4-.7-.3-1.4-.5-2-.5z"/><path class="st9" d="M363.1 98.7c-.8 8.3-2.8 16.5-5.9 24.3-7.9 19.6-23.1 36.3-43.9 45.7-20.8 9.4-43.4 9.8-63.4 2.8-7.8-2.8-15.3-6.7-22-11.6 20.9-5.3 45.1-13.7 70.1-25 25-11.5 47.3-24 65.1-36.2z"/><path class="st12" d="M298 134.7c25-11.3 47.3-23.8 65.1-36.1-.3 3.5-.8 6.9-1.6 10.3-13.7 9.9-35.5 22.2-60.9 33.7-24.3 11-47 19.1-63.4 23-3.2-1.8-6.3-3.7-9.3-5.9 20.9-5.2 45.1-13.7 70.1-25z"/><path class="st9" d="M359.6 65.7c-13.9 11.2-41.2 26.9-74 41.7-32.7 14.8-62.6 25-80.1 28-1.8-3-3.5-6.2-5-9.4-.1-.2-.1-.3-.2-.5-.6-1.4-1.2-2.9-1.8-4.4-1.3-3.4-2.4-6.8-3.2-10.4 0-.1-.1-.3-.1-.4-3.5-14.7-3-30.1 1.5-44.5 2.1-6.9 5.1-13.6 8.9-19.7 8.9-14.5 21.9-25.9 37.4-32.9 1.6-.7 3.2-1.4 4.8-2 21.7-8.3 44.9-7.1 64.8 1.7.1.1.3.1.4.2 8.7 3.9 16.7 9.2 23.7 15.8 3.5 3.3 6.6 6.8 9.5 10.6.3.4.6.8.9 1.3.3.3.5.7.8 1 2.1 3 4 6.1 5.7 9.3.6 1.2 1.2 2.4 1.8 3.7.2.3.3.7.5 1 1.4 3.2 2.6 6.6 3.7 9.9z"/><path class="st12" d="M355.4 54.8c.2.3.3.7.5 1 1.5 3.2 2.7 6.5 3.8 9.9-13.9 11.2-41.2 26.9-74 41.7-32.7 14.8-62.6 25-80.1 28-1.9-3-3.5-6.2-5-9.4-.1-.2-.1-.3-.2-.5 16.7-1.8 47.1-11.7 80.4-26.8 34.6-15.6 62.9-32.6 74.6-43.9zM194.2 97.1h-1.3l.2-4.4c11.7.6 42.2-9.1 74.2-23.5 38.2-17.3 62.8-33.9 67.5-41.4l3.7 2.3c-5.9 9.5-34.5 27.2-69.4 43-32 14.5-61.7 24-74.9 24zM197 68.1l-.6-4.3c13.1-1.9 35.8-9.7 59.3-20.4 24.6-11.1 45.8-23.4 55.5-32l2.9 3.3c-10 8.9-31.7 21.5-56.6 32.8-23.8 10.6-47 18.6-60.5 20.6zM195.3 112.6h-.1v-4.4h.1c13.5 0 44.9-10.1 78.3-25.2 35.1-15.9 64.6-33.8 71.7-43.5l3.5 2.6c-7.6 10.5-37.2 28.5-73.5 44.9-33.8 15.4-65.9 25.6-80 25.6zM250 172.4l-.1-1.1-.5-1 .2-.1h.2c11.6-.8 33.6-7.9 56.1-18.1 22.6-10.2 42-21.7 50.5-30l1.5 1.6c-8.7 8.4-28.2 20.1-51.1 30.4-23 10.4-44.8 17.4-56.8 18.3z"/><path class="st2" d="M278.2 178.2c-18.5 0-36.6-5.9-51.6-16.8l-3.7-2.7 4.4-1.1c21.5-5.4 45.6-14 69.7-24.9 24.1-10.9 46.5-23.3 64.7-35.9l3.7-2.6-.4 4.5c-2.9 31.3-22.4 58.7-51 71.7-11.1 5.2-23.4 7.8-35.8 7.8zM233 160.7c23.6 15.3 53.7 17.6 79.4 6 25.8-11.7 43.9-35.8 48-63.6-17.7 11.8-38.9 23.4-61.5 33.6-22.7 10.2-45.3 18.4-65.9 24z"/><path class="st12" d="M360.8 44.7c.1.2.1.4.2.6l-.2-.6z"/><path class="st13" d="M404.9 46.9C410 58.3 393 78 363.1 98.7c-17.8 12.2-40.1 24.8-65.1 36.1-25 11.3-49.2 19.8-70.1 25-35.3 8.9-61.3 8.6-66.5-2.8-4.7-10.3 8.9-27.6 33.9-46.1.9 3.5 1.9 7 3.2 10.4-6.9 5.6-10.3 10.1-9.1 12.7 1.2 2.7 7 3 16.1 1.5 17.6-3 47.4-13.2 80.1-28 32.7-14.8 60.1-30.5 73.9-41.7 7.2-5.8 10.7-10.4 9.5-13.1-1.2-2.6-6.8-3-15.6-1.6-1.7-3.2-3.6-6.3-5.7-9.3 30.6-6.4 52.5-5.2 57.2 5.1z"/><path class="st14" d="M193.4 144.5c-6.6 0-11.6-1.4-13.2-5-2.4-5.2 3-13.1 16-23.3l2 2.6c-16.2 12.9-15.6 18.1-15 19.4 2 4.5 17.9 4.8 48.9-4.6 17-5.2 36.3-12.5 55.7-21.3 19.4-8.8 37.7-18.4 52.8-27.8 27.5-17.1 37.8-29.2 35.7-33.7-.6-1.3-4.1-5.2-24.5-1.5l-.6-3.2c16.3-2.9 25.7-1.8 28.1 3.4 4.6 10.1-21.2 28.1-37 37.9-15.2 9.5-33.6 19.1-53.2 28s-39 16.3-56.1 21.5c-11.3 3.3-27.9 7.6-39.6 7.6z"/><path class="st14" d="M188.7 156c-9.3 0-16.9-1.9-19.3-7.4-4.6-10.1 11.5-25.2 25.8-36l2 2.6c-18.3 13.9-27.6 25.9-24.8 32.1 1.7 3.7 7.9 5.6 17.6 5.4 10.1-.2 23.7-2.5 39.5-6.9 19.4-5.3 41.2-13.4 63.1-23.3s42.3-21 59.2-32c13.7-9 24.5-17.6 31.2-25.1 6.5-7.2 9.2-13.1 7.5-16.8-2.8-6.2-17.9-7.1-40.5-2.6l-.7-3.2c17.6-3.6 39.5-5.7 44.1 4.4 6.2 13.7-25.9 36.8-40 46-17 11.1-37.6 22.3-59.6 32.3-22 10-44 18.1-63.6 23.5-9.7 2.7-27.5 7-41.5 7z"/><path class="st2" d="M186.3 168.1c-14.4 0-23.7-3.5-26.8-10.3-6.8-15 18.7-37 34.5-48.7l2.6-1.9.8 3.1c.8 3.4 1.9 6.8 3.1 10.1l.5 1.4-1.2 1c-7.9 6.4-8.8 9.6-8.5 10.2.3.7 3.4 2 13.8.3 17.9-3.1 48.4-13.7 79.6-27.8 31.2-14.1 59.3-30 73.5-41.4 8.2-6.7 9.2-9.9 8.9-10.5-.3-.7-3.3-2-13.3-.3l-1.5.2-.7-1.4c-1.6-3.1-3.5-6.1-5.5-9l-1.8-2.6 3.1-.7c19.3-4.1 52.6-8.8 59.4 6.2 5.5 12.2-10 32-42.5 54.4-18.5 12.7-41.1 25.3-65.4 36.3s-48.6 19.7-70.4 25.2c-16.8 4.1-31.1 6.2-42.2 6.2zm7.8-53.6c-23.1 17.6-34.5 33.1-30.7 41.6 4.4 9.8 29 10.4 64 1.6 21.5-5.4 45.6-14 69.7-24.9 24.1-10.9 46.5-23.3 64.7-35.9 29.8-20.5 45.5-39.3 41.1-49.1-3.9-8.5-23-10.2-51.5-4.5 1.2 1.8 2.3 3.6 3.3 5.5 9.6-1.4 14.8-.4 16.4 3 1.7 3.7-1.5 8.7-10.1 15.6-14.6 11.8-42.4 27.5-74.4 42-32 14.5-62.1 25-80.7 28.1-10.9 1.9-16.7 1-18.4-2.7-1.6-3.5 1.1-8 8.5-14.3-.7-1.9-1.4-4-1.9-6z"/><g class="st15"><path class="st16" d="M359.6 65.7c-1.6 1.3-3.4 2.7-5.4 4.1-.8-2.2-1.7-4.5-2.7-6.7-.2-.3-.3-.7-.5-1-.6-1.2-1.2-2.5-1.8-3.7-1.7-3.2-3.6-6.3-5.6-9.3-.2-.4-.5-.7-.8-1-3.1-4.3-6.6-8.2-10.4-11.9-7-6.6-15.2-12-24-16-21.4-9.5-46.6-10.1-69.6.3-14.8 6.7-27.4 17.4-36.2 31 8.8-17 23.1-30.5 40.5-38.4 23-10.4 48.2-9.7 69.6-.3 13.7 6.1 25.6 15.7 34.5 27.8.3.3.5.7.8 1.1 2.1 3 4 6 5.6 9.3.6 1.2 1.2 2.4 1.8 3.7.2.3.3.7.5 1 1.4 3.3 2.6 6.7 3.7 10z"/></g><path class="st2" d="M204.4 137.8l-.8-1.2c-1.9-3.1-3.6-6.3-5.1-9.6-.7-1.6-1.4-3.3-2.1-4.9-1.3-3.5-2.4-7-3.3-10.6-9.8-40.7 10.7-82.7 48.9-100 38.2-17.3 83.4-5 107.4 29.3 2.1 3 4.1 6.2 5.8 9.5l2.4 4.8c1.5 3.3 2.8 6.7 3.9 10.2l.4 1.4-1.1.9c-14.6 11.8-42.4 27.5-74.4 42-32 14.5-62.1 25-80.7 28.2h-1.3zm73.7-130c-11.8 0-23.5 2.5-34.2 7.4-36.3 16.4-55.9 56.5-46.6 95.1.8 3.4 1.9 6.8 3.1 10.1.6 1.6 1.3 3.1 2 4.7 1.2 2.7 2.6 5.4 4.1 7.9 18.1-3.4 47.8-13.8 78.2-27.6 30.4-13.7 57.9-29.1 72.4-40.5-.9-2.8-2-5.6-3.2-8.3-.7-1.6-1.5-3.1-2.2-4.6-1.6-3.1-3.5-6.1-5.5-9-16-22.6-41.7-35.2-68.1-35.2z"/><g class="st10"><path class="st11" d="M296.4 135.4c-24.5 11-48.1 19.2-68.5 24.3-35.3 8.9-61.3 8.6-66.5-2.8-4.7-10.3 8.9-27.6 33.9-46.1.9 3.5 1.9 7 3.2 10.4-6.9 5.6-10.3 10.1-9.1 12.7 1.2 2.7 7 3 16.1 1.5 11.7-2 28.7-7.2 48.5-14.7-.5 2.6-.3 4.9.7 7 3.8 8.5 19.3 10.8 41.7 7.7z"/></g><g class="st17"><path class="st18" d="M209.6 40.3c.3-.4.6-.9 1-1.3-.4.5-.7.9-1 1.3z"/></g><g class="st17"><path class="st18" d="M211.7 37.6c.7-.9 1.5-1.9 2.3-2.8-.7.9-1.5 1.8-2.3 2.8z"/></g><g class="st17"><path class="st18" d="M219.1 29.5c-.8.8-1.6 1.6-2.4 2.5.7-.9 1.5-1.7 2.4-2.5z"/></g><g class="st17"><path class="st18" d="M220.4 28.3c.9-.8 1.8-1.6 2.8-2.4-1 .7-1.9 1.5-2.8 2.4z"/></g><g class="st17"><path class="st18" d="M226 23.5c-1 .8-1.9 1.5-2.9 2.3 1-.8 1.9-1.5 2.9-2.3z"/></g><g class="st10"><path class="st11" d="M363.1 98.7c-.8 8.3-2.8 16.5-5.9 24.3-7.9 19.6-23.1 36.3-43.9 45.7-20.8 9.4-43.4 9.8-63.4 2.8-7.8-2.8-15.3-6.7-22-11.6 20.9-5.3 45.1-13.7 70.1-25 25-11.5 47.3-24 65.1-36.2z"/></g><g class="st10"><path class="st11" d="M359.6 65.7c-13.9 11.2-41.2 26.9-74 41.7-32.7 14.8-62.6 25-80.1 28-1.9-3-3.5-6.2-5-9.4-.1-.2-.1-.3-.2-.5-.6-1.4-1.3-2.9-1.8-4.4-1.3-3.4-2.4-6.8-3.2-10.4 0-.1-.1-.3-.1-.4-1.2-5.1-1.9-10.3-2.2-15.6-.6-13.1 1.8-26.2 7.1-38.2 5.3-12 13.3-22.7 23.4-31.1-2.1 2.6-3.9 5.3-5.7 8.1-9 14.6-13.4 31.6-12.6 48.7.2 5.2 1 10.5 2.2 15.6 0 .1.1.3.1.4l.1.2c3.8 14.6 19 22.9 33.4 18.4 16.1-5 35.9-12.6 56.9-22.1 24.3-11 45.7-22.5 60.7-32.3.3 1.3.7 2.3 1 3.3z"/></g><path class="st2" d="M280.4 182.2L284 196c.1.3.1.6 0 .8 0 .3-.1.5-.3.8-.1.2-.3.5-.6.6-.2.2-.5.3-.8.4-.3.1-.6.1-.8 0-.3 0-.5-.1-.8-.3-.2-.1-.5-.3-.6-.6-.2-.2-.3-.5-.4-.8 0-.2-.1-.3-.1-.5l-.3-14.3c0-.1 0-.2.1-.3.1-.1.2-.2.3-.2.1 0 .2 0 .3.1.3.2.3.3.4.5zM274.7 182.3l-.3 14.3c0 .3-.1.6-.2.8-.1.3-.3.5-.5.7-.2.2-.4.3-.7.5-.3.1-.5.2-.8.1-.3 0-.6-.1-.8-.2-.3-.1-.5-.3-.7-.5-.2-.2-.3-.4-.4-.7-.1-.3-.1-.5-.1-.8 0-.2 0-.3.1-.5l3.6-13.8c0-.1.1-.2.2-.3.1-.1.2-.1.3-.1.1 0 .2.1.3.2-.1.1 0 .2 0 .3z"/><g class="st4"><path class="st5" d="M316.1 362.8c1-5.9 2.6-11.7 4.7-17.4-.9 3.2-1.6 6.4-2.1 9.6-.7 4-1.8 8-3.4 11.8.3-1.3.6-2.7.8-4z"/></g><path class="st3" d="M321.6 364.2c2.2-2.2 2.2-5.9 0-8.1-2.2-2.2-5.9-2.2-8.1 0-2.2 2.2-2.2 5.9 0 8.1 2.2 2.3 5.8 2.3 8.1 0z"/><g class="st4"><path class="st5" d="M323 362c-.2.7-.6 1.4-1.1 1.9s-1.1 1-1.8 1.4c-.7.3-1.4.5-2.2.6-.8.1-1.5 0-2.2-.3-.7-.2-1.4-.6-1.9-1.1s-1-1.1-1.4-1.8c-.3-.7-.5-1.4-.6-2.2-.1-.8 0-1.5.3-2.2.3-.8.7-1.5 1.3-2.2.1 1.1.6 2.1 1.2 2.9.7.8 1.6 1.5 2.6 1.8 1 .3 2.1.4 3.2.1 1.1-.3 2-.8 2.8-1.6.1 1 0 1.9-.2 2.7z"/></g><path class="st2" d="M317.5 367.7c-1.8 0-3.6-.7-5-1.9s-2.3-2.9-2.5-4.7c-.2-1.8.2-3.7 1.3-5.2s2.6-2.6 4.4-3c1.8-.4 3.7-.2 5.3.7 1.6.9 2.9 2.3 3.5 4s.6 3.6-.1 5.3c-.7 1.7-2 3.1-3.6 3.9-1 .6-2.1.9-3.3.9zm0-11.5c-1 0-2 .4-2.7 1.1-.7.7-1.2 1.6-1.3 2.6-.1 1 .2 2 .8 2.8.6.8 1.5 1.3 2.5 1.5 1 .2 2-.1 2.9-.6.8-.6 1.5-1.4 1.7-2.4.2-1 .1-2-.4-2.9-.5-.9-1.3-1.6-2.2-1.9-.4-.2-.9-.2-1.3-.2z"/><path class="st3" d="M307.3 371.8l-29.3-7.9c-1.7-.5-3.1-1.6-4-3.1-.9-1.5-1.1-3.3-.6-5l4.2-15.6c.4-1.5 1.3-2.7 2.5-3.6 1.2-.9 2.7-1.3 4.2-1.2.4 0 .9.1 1.3.2l29.3 7.9c1.7.5 3.1 1.6 4 3.1.9 1.5 1.1 3.3.6 5l-3.3 12.4-.9 3.2c-.5 1.7-1.6 3.1-3.1 4s-3.2 1-4.9.6z"/><g class="st4"><path class="st5" d="M307.3 371.8l-29.3-7.9c-1.7-.5-3.1-1.6-4-3.1-.9-1.5-1.1-3.3-.6-5l4.2-15.6c.4-1.5 1.3-2.7 2.5-3.6 1.2-.9 2.7-1.3 4.2-1.2 1.4 1.6 2.2 2.6 2.2 2.6-2 12.9-.1 20.1 15.4 24.6 6.7 1.9 11.2 2.1 14.3 1.4l-.9 3.2c-.5 1.7-1.6 3.1-3.1 4-1.5.8-3.2 1-4.9.6z"/></g><path class="st2" d="M309 373.8c-.7 0-1.5-.1-2.2-.3l-29.3-7.9c-2.1-.6-3.9-2-5-3.9s-1.4-4.2-.8-6.3l4.2-15.6c.6-2.1 2-3.9 3.9-5s4.2-1.4 6.3-.8l29.3 7.9c2.1.6 3.9 2 5 3.9s1.4 4.2.8 6.3l-4.2 15.6c-.5 1.8-1.5 3.3-3 4.4-1.4 1-3.2 1.6-5 1.7zm-30.6-11.6l29.3 7.9c1.2.3 2.5.2 3.6-.5 1.1-.6 1.9-1.7 2.2-2.9l4.2-15.6c.3-1.2.2-2.5-.5-3.6-.6-1.1-1.7-1.9-2.9-2.2l-29.3-7.9c-1.2-.3-2.5-.2-3.6.5-1.1.6-1.9 1.7-2.2 2.9l-4.2 15.6c-.3 1.2-.2 2.5.5 3.6.6 1 1.7 1.8 2.9 2.2z"/><path class="st3" d="M308.5 372c-.4 0-.8-.1-1.2-.2l-29.3-7.9c-1.2-.3-2.3-1-3.1-1.9-.8-.9-1.4-2.1-1.6-3.3-.2-.9-.1-1.9.1-2.8l1.9-6.9.6-2.3 1.7-6.4c.5-1.7 1.6-3.1 3.1-4 1.5-.9 3.3-1.1 5-.6l6.3 1.7c-1.5-.1-3 .3-4.3 1.2-1.2.9-2.1 2.2-2.6 3.6l-2.3 8.4-1.9 7.2c-.4 1.7-.2 3.5.6 5 .9 1.5 2.3 2.6 4 3.1l23 6.1z"/><g class="st4"><path class="st5" d="M308.5 372c-.4 0-.8-.1-1.2-.2l-29.3-7.9c-1.7-.5-3.1-1.6-4-3.1-.9-1.5-1.1-3.3-.6-5l2.5-9.2c.3 1.8 1.1 4.2 3.1 5 1.1.4 2.5-.1 3.8-1l-1.9 7.2c-.4 1.7-.2 3.5.6 5 .9 1.5 2.3 2.6 4 3.1l23 6.1z"/></g><path class="st2" d="M308.4 373.7c-.5 0-1-.1-1.6-.3l-29.3-7.9c-2.1-.6-3.9-2-5-3.9s-1.4-4.2-.8-6.3l4.2-15.6c.6-2.1 2-3.9 3.9-5s4.2-1.4 6.3-.8l6.3 1.7-.6 3.4c-1.1-.1-2.2.2-3.1.9-.9.6-1.6 1.6-1.9 2.7l-4.2 15.6c-.3 1.2-.2 2.5.5 3.6.6 1.1 1.7 1.9 2.9 2.3l23 6.2-.6 3.4zm-24.5-36.6c-1.1 0-2.1.3-2.9 1-.8.6-1.4 1.5-1.7 2.6l-4.2 15.6c-.3 1.2-.2 2.5.5 3.6.6 1.1 1.7 1.9 2.9 2.3l1.1.3c-.7-1.6-.8-3.5-.3-5.2l4.2-15.6c.4-1.6 1.4-3.1 2.6-4.1l-.9-.3c-.5-.2-.9-.2-1.3-.2z"/><path class="st2" d="M298.2 370.2h-.3c-.1 0-.3-.1-.4-.2l-.3-.3c-.1-.1-.1-.3-.1-.4v-.4l2.8-9.6c.2-.5.4-1 .8-1.4.4-.4.9-.7 1.4-.8l3.5-1.1c.2-.1.4-.2.5-.3.1-.2.3-.3.3-.5l3.5-12.9c.1-.3.2-.5.5-.6.2-.1.5-.2.8-.1.3.1.5.2.6.5.1.2.2.5.1.8l-3.5 12.9c-.1.5-.4 1-.8 1.4-.4.4-.9.7-1.4.9l-3.5 1.1c-.2.1-.4.2-.5.3-.1.1-.3.3-.3.5l-2.8 9.6c-.1.2-.2.4-.4.5-.1.1-.3.1-.5.1z"/><path class="st3" d="M250.3 327.6s-3.7.8-4.9 4c-.4 1.1-.6 2.2-.4 3.4.1 1.1.5 2.2 1.2 3.2 0 0 7.2 9.8 29.5 15.9 0 0 7.5-3.7 2.5-10.1 0-.1-21.1-3.7-27.9-16.4z"/><g class="st4"><path class="st5" d="M275.6 354c-22.3-6.1-29.5-15.9-29.5-15.9s-2.2-2.9-.7-6.8c.2.8.5 1.6 1 2.3 0 0 6.5 8.9 26.6 15.1 2.4.7 5.1-.2 6.4-2.4v-.1c1.9 5-3.8 7.8-3.8 7.8z"/></g><path class="st2" d="M274.9 355.3c-.6 0-1.2-.1-1.7-.2-21.1-6.2-28.1-15.6-28.4-16-.1-.1-2.7-3.6-1-8.2 1.5-4.1 5.9-5.1 6.1-5.1l1.3-.3.6 1.1c5.4 10.1 20.8 14.2 25.4 15.2.7.1 1.4.4 2 .9s1.1 1 1.4 1.6c1.8 3.3 1.2 6.7-1.7 9.4-1.1 1.1-2.5 1.6-4 1.6zm-25.4-25.6c-.9.4-2 1.2-2.4 2.5-.3.8-.4 1.7-.3 2.5.1.9.4 1.7.8 2.4.1.1 6.8 8.8 26.6 14.7.4.1.8.1 1.2.1s.8-.3 1.1-.6c2.3-2.1 1.7-4 1-5.2-.1-.2-.3-.4-.4-.5s-.4-.2-.6-.3c-4.8-1-20.4-5.1-27-15.6z"/><path class="st19" d="M294 353c-.1.3-.9 2.2-1.5 3.2-.1.2-.3.4-.5.5-.2.1-.5.1-.7.1l-1.8-.5c-1.8-.5-2.8-2.8-2.1-5.1.6-2.3 2.6-3.8 4.4-3.3l1.8.5c.2.1.4.2.5.4.1.2.2.4.2.6.1 1.2-.1 3.1-.3 3.6z"/><path class="st2" d="M292.4 357.9c-.2 0-.4 0-.5-.1l-1.8-.5c-2.4-.7-3.6-3.5-2.8-6.4.3-1.3 1.1-2.4 2.2-3.2 1.1-.8 2.4-1.1 3.5-.7l1.8.5c.5.1.9.4 1.1.8.3.4.4.9.4 1.3-.3 3-.4 3.5-.5 3.7 0 .1-.1.5-1.5 3.4-.2.3-.4.6-.7.9-.4.2-.8.3-1.2.3zm-.5-9c-.5 0-.9.2-1.3.5-.7.5-1.2 1.3-1.4 2.1-.5 1.7.2 3.5 1.4 3.8l1.8.5c.9-1.9 1.3-2.9 1.4-3 .1-.3.2-1.3.4-3.3l-1.8-.5c-.2-.1-.4-.1-.5-.1z"/><path class="st19" d="M297.4 353.8c.6-2.3-.3-4.6-2.1-5.1s-3.8 1-4.4 3.3.3 4.6 2.1 5.1c1.7.5 3.7-1 4.4-3.3z"/><path class="st2" d="M293.7 358.2c-.3 0-.7 0-1-.1-1.2-.3-2.1-1.2-2.7-2.5-.5-1.2-.6-2.6-.2-3.9.8-2.9 3.4-4.6 5.7-4 1.2.3 2.1 1.2 2.7 2.5.5 1.2.6 2.6.2 3.9-.3 1.3-1.1 2.4-2.2 3.2-.7.6-1.6.9-2.5.9zm.8-8.6c-1.1 0-2.3 1.1-2.7 2.6-.2.8-.2 1.7.1 2.5.3.7.7 1.1 1.3 1.3.6.2 1.2 0 1.8-.4.7-.5 1.2-1.3 1.4-2.1.2-.8.2-1.7-.1-2.5-.3-.7-.7-1.1-1.3-1.3-.2 0-.3-.1-.5-.1z"/><path class="st20" d="M56.7 262.3c-.1.9 1.8 1.9 4.6 2.5.7.2 1.3.5 1.8 1.1s.8 1.2.8 1.9c.3 2.9 1 4.9 1.9 4.9.9.1 1.9-1.8 2.5-4.6.2-.7.5-1.3 1.1-1.8.5-.5 1.2-.8 1.9-.8 2.9-.3 4.9-1 4.9-1.9.1-.9-1.8-1.9-4.6-2.5-.7-.2-1.3-.5-1.8-1.1-.5-.5-.8-1.2-.8-1.9-.3-2.9-1-4.9-1.9-4.9-.9-.1-1.9 1.8-2.5 4.6-.2.7-.5 1.3-1.1 1.8-.5.5-1.2.8-1.9.8-2.8.3-4.8 1-4.9 1.9z"/><path class="st21" d="M467.9 281c-1.5-.6-2.6-1.2-3.3-1.7-.3-.2-.5-.4-.6-.5.2-.1.4-.2.8-.2.9-.2 2.1-.2 3.7-.1 1 .1 2.1-.2 3-.7s1.6-1.4 2-2.3c.6-1.5 1.2-2.6 1.7-3.3.2-.3.4-.5.5-.6.1.2.2.4.2.8.2.9.2 2.1.1 3.7-.1 1 .2 2.1.7 3 .6.9 1.4 1.6 2.3 2 1.5.6 2.6 1.2 3.3 1.7.3.2.5.4.6.5-.2.1-.4.2-.8.2-.9.2-2.2.2-3.7.1-1-.1-2.1.2-3 .7-.9.6-1.6 1.4-2 2.3-.6 1.5-1.2 2.6-1.7 3.3-.2.3-.4.5-.5.6-.1-.2-.2-.4-.2-.7-.2-.9-.2-2.1-.1-3.7l-3-5.1zm0 0c1 .4 1.8 1.1 2.3 2m-2.3-2l2.3 2m0 0c.6.9.8 1.9.7 3l-.7-3zm1.2 7.6zm-.3 0zm12.1-7.5zm-.1.3zm-7.5-12.1zm.3 0zm-12.1 7.5zm.1-.3z"/><path class="st22" d="M119 106.1c-1.7-.8-2.4-2.9-1.6-4.6.8-1.7 2.9-2.4 4.6-1.6s2.4 2.9 1.6 4.6c-.8 1.7-2.9 2.4-4.6 1.6zM415 88.1c-1.7-.8-2.4-2.9-1.6-4.6.8-1.7 2.9-2.4 4.6-1.6s2.4 2.9 1.6 4.6c-.8 1.7-2.9 2.4-4.6 1.6zM446.8 170.2c-1.1-.5-1.6-1.9-1-3 .5-1.1 1.9-1.6 3-1 1.1.5 1.6 1.9 1 3-.6 1.1-1.9 1.5-3 1zM67.8 201.3c-.7-.4-1-1.2-.7-2s1.2-1 2-.7c.7.4 1 1.2.7 2-.3.8-1.2 1.1-2 .7z"/><path class="st23" d="M383 146.9c.1-1.9 1.7-3.4 3.6-3.3 1.9.1 3.4 1.7 3.3 3.6-.1 1.9-1.7 3.4-3.6 3.3-1.8-.1-3.3-1.7-3.3-3.6z"/></svg>