<svg id="Camada_1" data-name="Camada 1" xmlns="http://www.w3.org/2000/svg" viewBox="0 0 287.13 246.18"><defs><style>.cls-1,.cls-21{fill:none}.cls-2{fill:#fff2bd}.cls-3{clip-path:url(#clip-path)}.cls-11,.cls-16,.cls-19,.cls-4{fill:#fff}.cls-16,.cls-5,.cls-6{opacity:.35}.cls-20,.cls-6,.cls-7{fill:#371a45}.cls-11,.cls-15,.cls-16,.cls-19,.cls-20,.cls-6{isolation:isolate}.cls-8{fill:#22a7f0}.cls-9{fill:#220f2d}.cls-10,.cls-11{opacity:.7}.cls-12{fill:#ffe266}.cls-13{fill:#3e8dff}.cls-14,.cls-15,.cls-20{opacity:.3}.cls-15{fill:#6b184e}.cls-17{fill:#db2c2c}.cls-18,.cls-19{opacity:.5}.cls-21{stroke:#323232;stroke-linecap:round;stroke-linejoin:round;stroke-width:5.39px}</style><clipPath id="clip-path" transform="translate(-58.11 -24.62)"><path class="cls-1" d="M64.78 46.22h280.45V270.8H64.78z"/></clipPath></defs><path class="cls-2" d="M285.85 220.38a110.35 110.35 0 1 0-139.7 0c20.57-.4 44.42-.63 69.85-.63s49.28.25 69.85.63z" transform="translate(-58.11 -24.62)"/><g class="cls-3"><path class="cls-4" d="M244 134.89s24.39-1.86 31.56 3.1c12.92 8.95 16.54 57.37 6.51 74.54-7.37 12.59-52.53 6.09-52.53 6.09" transform="translate(-58.11 -24.62)"/><g class="cls-5"><path class="cls-6" d="M282.07 212.53c-7.37 12.59-52.53 6.09-52.53 6.09l4-22.92c9.82 1.16 43.56 4.3 49.84-6.44a40.93 40.93 0 0 0 4.34-13.09c.67 14.15-1.07 28.52-5.65 36.36z" transform="translate(-58.11 -24.62)"/></g><path class="cls-7" d="M253.63 221.71H253a195 195 0 0 1-23.7-1.69 1.4 1.4 0 0 1-1.19-1.6 1.37 1.37 0 0 1 .55-.92 1.39 1.39 0 0 1 1-.27c12.3 1.77 45.46 4.25 51.11-5.41 9.85-16.85 5.86-64.39-6.1-72.67-5.54-3.83-24-3.36-30.64-2.85a1.41 1.41 0 0 1-1-.33 1.45 1.45 0 0 1-.49-1 1.37 1.37 0 0 1 .34-1 1.39 1.39 0 0 1 1-.49c1-.08 25-1.85 32.47 3.34 6.35 4.4 11 17.57 12.47 35.23 1.11 13.43.23 31.3-5.54 41.18-3.28 5.63-13.28 8.48-29.65 8.48z" transform="translate(-58.11 -24.62)"/><path class="cls-4" d="M286.51 177.86l-12.52 1a2.42 2.42 0 0 0-1.46.63 2.36 2.36 0 0 0-.77 1.39c-.73 4-1.91 13.46 2 16.56a9.68 9.68 0 0 0 11.66-.37c3.46-2.95 3.79-12.19 3.72-16.76a2.46 2.46 0 0 0-.22-1 2.39 2.39 0 0 0-.59-.81 2.42 2.42 0 0 0-.86-.51 2.55 2.55 0 0 0-.96-.13z" transform="translate(-58.11 -24.62)"/><g class="cls-5"><path class="cls-6" d="M271.76 180.85c-.73 4-1.91 13.46 2 16.56a9.68 9.68 0 0 0 11.66-.37c2.13-1.81 3.07-6 3.46-10a10.45 10.45 0 0 1-2.54 4.72c-6.3 6.14-11-1.08-11-1.08s-.82 1.76-1.47 1.86c-2.72.42-2.18-8.11-1.8-12.52a2.35 2.35 0 0 0-.31.83z" transform="translate(-58.11 -24.62)"/></g><path class="cls-7" d="M279.28 200.6a10.33 10.33 0 0 1-6.37-2.08c-4.39-3.45-3.48-12.71-2.55-17.92a3.86 3.86 0 0 1 1.21-2.19 4 4 0 0 1 2.3-1l12.52-1a3.88 3.88 0 0 1 2.91 1 4 4 0 0 1 .93 1.27 4.1 4.1 0 0 1 .34 1.54c.09 6.43-.57 14.75-4.22 17.85a10.88 10.88 0 0 1-7.07 2.53zm7.34-21.33l-12.52 1a1.06 1.06 0 0 0-1 .86c-1.37 7.7-.81 13.38 1.52 15.21a8.25 8.25 0 0 0 9.87-.34c2.13-1.81 3.34-7.66 3.22-15.66a1 1 0 0 0-.09-.42 1.07 1.07 0 0 0-.62-.56.87.87 0 0 0-.38-.09z" transform="translate(-58.11 -24.62)"/><path class="cls-7" d="M279.45 200.28a4.89 4.89 0 0 1-.6-.41c-.17-.13-.33-.26-.48-.4a7.84 7.84 0 0 1-.85-.88 10.6 10.6 0 0 1-1.34-2 13.39 13.39 0 0 1-1.4-4.37 18.46 18.46 0 0 1-.19-2.23v-2.2a20.22 20.22 0 0 1 .19-2.19 10.75 10.75 0 0 1 .48-2.2.33.33 0 0 1 .18-.22.35.35 0 0 1 .28 0 .32.32 0 0 1 .22.17.37.37 0 0 1 0 .29v.05a10.77 10.77 0 0 0-.22 2v2.11a23.1 23.1 0 0 0 .55 4.12 11.7 11.7 0 0 0 1.59 3.64 8.57 8.57 0 0 0 1.23 1.47 6.62 6.62 0 0 0 .7.59l.37.25a3.07 3.07 0 0 0 .31.17 1.15 1.15 0 0 1 .46.25 1.27 1.27 0 0 1 .31.42 1.13 1.13 0 0 1 .12.51 1.25 1.25 0 0 1-.1.51 1.19 1.19 0 0 1-.3.43 1.38 1.38 0 0 1-.45.27 1.16 1.16 0 0 1-.52.06 1.21 1.21 0 0 1-.5-.15zM258.69 143.66a1.41 1.41 0 0 1-.88-.31 1.41 1.41 0 0 1 .29-2.38c11.44-5.24 18.44-3.67 18.73-3.6a1.5 1.5 0 0 1 .5.22 1.35 1.35 0 0 1 .38.41 1.31 1.31 0 0 1 .19.51 1.45 1.45 0 0 1 0 .55 1.52 1.52 0 0 1-.23.5 1.6 1.6 0 0 1-.4.38 1.42 1.42 0 0 1-.52.19 1.28 1.28 0 0 1-.55 0c-.09 0-6.47-1.36-16.91 3.42a1.37 1.37 0 0 1-.6.11z" transform="translate(-58.11 -24.62)"/><path class="cls-4" d="M194.13 143.8s-11.2 33.62-41.93 44.48v20.62h41.93z" transform="translate(-58.11 -24.62)"/><path class="cls-4" d="M194.13 143.8v65.1H152.2v-20.62c30.73-10.86 41.93-44.48 41.93-44.48z" transform="translate(-58.11 -24.62)"/><g class="cls-5"><path class="cls-6" d="M194.13 157v52h-37c27-13.52 37-52 37-52z" transform="translate(-58.11 -24.62)"/></g><path class="cls-7" d="M195.54 210.31h-44.75v-23l.94-.33c29.7-10.49 41-43.26 41.06-43.59l2.75-8.22zm-41.93-2.82h39.11v-56.68a91.24 91.24 0 0 1-6.86 11.95c-6.06 8.91-16.54 20.65-32.25 26.51z" transform="translate(-58.11 -24.62)"/><path class="cls-4" d="M272.71 208.9h-91.38s5-25.29 9.6-52.59c.71-4.23 1.41-8.51 2.08-12.75 5.55-35.41 58.51-12.32 58.51-12.32a67.42 67.42 0 0 1 4.91 8.41c5.89 11.55 15.12 34.87 16.28 69.25z" transform="translate(-58.11 -24.62)"/><path class="cls-7" d="M274.17 210.31h-94.55l.33-1.68c.07-.34 6.76-34.08 11.66-65.29 1.28-8.14 5.08-14 11.3-17.41 17.49-9.6 47.89 3.45 49.17 4l.35.16.23.31c.2.27 5 7 10.12 20 4.68 12 10.44 31.88 11.34 58.42zm-91.12-2.82h88.2c-1.89-46.11-18.56-72-20.66-75.11-3.47-1.44-31-12.38-46.33-4-5.41 3-8.73 8.14-9.86 15.37-4.28 27.31-9.94 56.52-11.35 63.74z" transform="translate(-58.11 -24.62)"/><g class="cls-5"><path class="cls-6" d="M224.61 212.73c-.14.76-.28 1.52-.4 2.25.12-.74.25-1.49.4-2.25z" transform="translate(-58.11 -24.62)"/></g><g class="cls-5"><path class="cls-6" d="M189.77 179.11c-.86 7.7-1.35 14.38-1.45 19.95a128.34 128.34 0 0 1 1.45-19.95z" transform="translate(-58.11 -24.62)"/></g><path class="cls-4" d="M190.21 195.06a6.55 6.55 0 1 0-9.27 0 6.55 6.55 0 0 0 9.27 0z" transform="translate(-58.11 -24.62)"/><g class="cls-5"><path class="cls-6" d="M179 190.59a6.61 6.61 0 0 0 .51 2.56 6.76 6.76 0 0 0 1.46 2.16 6.69 6.69 0 0 0 2.19 1.41 6.46 6.46 0 0 0 2.57.45 6.54 6.54 0 0 0 2.54-.58 6.39 6.39 0 0 0 2.11-1.53 6.3 6.3 0 0 0 1.35-2.23 7 7 0 0 0-.32-5.36 6.58 6.58 0 0 1-5.83 3.9 6.59 6.59 0 0 1-6-3.59 6.31 6.31 0 0 0-.58 2.81z" transform="translate(-58.11 -24.62)"/></g><path class="cls-7" d="M185.57 198.13a7.72 7.72 0 0 1-6.52-11.82 7.77 7.77 0 0 1 3.39-2.93 7.71 7.71 0 1 1 3.33 14.75zm0-13.11h-.15a5.34 5.34 0 0 0-2.05.47 5.47 5.47 0 0 0-2.85 3 5.66 5.66 0 0 0-.36 2.08 5.49 5.49 0 0 0 1.69 3.76 5.39 5.39 0 1 0 3.72-9.3z" transform="translate(-58.11 -24.62)"/><g class="cls-5"><path class="cls-6" d="M188.75 196.81a101 101 0 0 0 1-20.26 101.72 101.72 0 0 1-1.07 11 57.82 57.82 0 0 0-.47 13.8c.14-1.51.31-3.04.54-4.54z" transform="translate(-58.11 -24.62)"/></g><path class="cls-4" d="M195.06 209.51l34.24 1.75a7.42 7.42 0 0 0 7.75-7l.93-18.22a7.43 7.43 0 0 0-5.53-7.53 7.26 7.26 0 0 0-1.46-.22l-34.23-1.76a7.4 7.4 0 0 0-7.75 7l-.75 14.47-.19 3.79a7.4 7.4 0 0 0 7 7.75z" transform="translate(-58.11 -24.62)"/><g class="cls-5"><path class="cls-6" d="M195.06 209.51l34.24 1.75a7.42 7.42 0 0 0 7.75-7l.93-18.22a7.4 7.4 0 0 0-5.53-7.52l-3.28 1.95c-2.42 14.54-7 21.62-25.13 21-7.85-.28-12.73-1.73-15.77-3.5l-.2 3.79a7.42 7.42 0 0 0 7 7.76z" transform="translate(-58.11 -24.62)"/></g><path class="cls-7" d="M229.68 212.69h-.46L195 210.92a8.82 8.82 0 0 1-8.33-9.24l.94-18.22a8.79 8.79 0 0 1 9.23-8.32l34.23 1.76a8.8 8.8 0 0 1 8.33 9.23l-.94 18.22a8.82 8.82 0 0 1-8.78 8.34zm-.31-2.83a6 6 0 0 0 6.27-5.66l.93-18.22a6 6 0 0 0-5.65-6.27L196.68 178a6 6 0 0 0-6.27 5.65l-.93 18.22a6 6 0 0 0 5.65 6.27l34.24 1.76z" transform="translate(-58.11 -24.62)"/><path class="cls-4" d="M193.69 209.3a6.4 6.4 0 0 0 1.37.21l34.24 1.75a7.38 7.38 0 0 0 6.92-4 7.15 7.15 0 0 0 .82-3l.42-8.1.14-2.67.38-7.45a7.4 7.4 0 0 0-7-7.75l-7.4-.38a7.44 7.44 0 0 1 4.17 2.76 7.36 7.36 0 0 1 1.46 4.79l-.5 9.84-.43 8.38a7.4 7.4 0 0 1-7.75 7z" transform="translate(-58.11 -24.62)"/><g class="cls-5"><path class="cls-6" d="M193.69 209.3a6.4 6.4 0 0 0 1.37.21l34.24 1.75a7.4 7.4 0 0 0 7.74-7l.56-10.76c-1 1.85-2.63 4.11-5.12 4.23-1.36.06-2.65-1-3.76-2.43l-.43 8.38a7.4 7.4 0 0 1-7.75 7z" transform="translate(-58.11 -24.62)"/></g><path class="cls-7" d="M229.68 212.69h-.46L195 210.91a7.64 7.64 0 0 1-1.65-.24l.42-2.77 26.85 1.38a6 6 0 0 0 6.27-5.65l.94-18.22a6 6 0 0 0-4.56-6.11l.4-2.78 7.39.38a8.8 8.8 0 0 1 8.33 9.24l-.93 18.21a8.82 8.82 0 0 1-8.77 8.34zm-2.77-3l2.46.13a6 6 0 0 0 6.26-5.66l.94-18.22a6 6 0 0 0-5.66-6.27l-2.2-.11a8.76 8.76 0 0 1 1.92 5.94l-.94 18.22a8.67 8.67 0 0 1-2.78 6z" transform="translate(-58.11 -24.62)"/><path class="cls-8" d="M215.25 194c0 .67.67 6.16.67 6.16l3.84.17c2.64.12 4.91-2.52 5.07-5.89s-1.87-6.21-4.51-6.34l-3.84-.17s-1.18 5.01-1.23 6.07z" transform="translate(-58.11 -24.62)"/><g class="cls-5"><path class="cls-6" d="M215.25 194c0 .67.67 6.16.67 6.16l3.84.17c2.64.12 4.91-2.52 5.07-5.89s-1.87-6.21-4.51-6.34l-3.84-.17s-1.18 5.01-1.23 6.07z" transform="translate(-58.11 -24.62)"/></g><path class="cls-7" d="M219.93 201.43h-.22l-2.66-.12a2.45 2.45 0 0 1-1.56-.64 2.5 2.5 0 0 1-.76-1.5 44 44 0 0 1-.53-5.18 43.77 43.77 0 0 1 1-5.12 2.36 2.36 0 0 1 .9-1.4 2.43 2.43 0 0 1 1.6-.5l2.68.12a5.31 5.31 0 0 1 4.11 2.39 8 8 0 0 1 1.4 5.05c-.18 3.85-2.83 6.9-5.96 6.9zm-3.62-7.35c0 .09 0 .76.51 4.82a.31.31 0 0 0 .11.2.29.29 0 0 0 .21.09l2.67.12c2.07.09 3.83-2.1 4-4.89a6 6 0 0 0-1-3.72 3.28 3.28 0 0 0-2.49-1.5l-2.68-.13a.34.34 0 0 0-.22.07.33.33 0 0 0-.12.19 39.14 39.14 0 0 0-.94 4.75z" transform="translate(-58.11 -24.62)"/><path class="cls-8" d="M221 194.28c.15-3.37-1.87-6.21-4.51-6.33s-4.91 2.52-5.07 5.9 1.87 6.21 4.51 6.33 4.89-2.52 5.07-5.9z" transform="translate(-58.11 -24.62)"/><path class="cls-4" d="M221 194.3a7.58 7.58 0 0 1-.36 2c.07-3.29-1.92-6-4.51-6.13-2.09-.09-4 1.54-4.71 3.91v-.21c.15-3.38 2.42-6 5.07-5.89s4.65 2.94 4.51 6.32z" transform="translate(-58.11 -24.62)"/><g class="cls-5"><path class="cls-6" d="M221 194.3c-.16 3.38-2.42 6-5.07 5.9s-4.66-3-4.51-6.34a7.49 7.49 0 0 1 .33-1.87 4.87 4.87 0 0 0 4.18 3.77c2.13.09 4-1.6 4.75-4a7.69 7.69 0 0 1 .32 2.54z" transform="translate(-58.11 -24.62)"/></g><path class="cls-7" d="M216.1 201.26h-.23c-3.22-.15-5.69-3.48-5.51-7.44s2.93-7.05 6.17-6.9a5.31 5.31 0 0 1 4.11 2.39 8.42 8.42 0 0 1-.45 9.94 5.41 5.41 0 0 1-4.09 2.01zm-3.63-7.35c-.13 2.79 1.44 5.13 3.5 5.23a3.32 3.32 0 0 0 2.62-1.27 6.34 6.34 0 0 0 .33-7.35 3.31 3.31 0 0 0-2.49-1.5c-2.08-.09-3.84 2.1-4 4.89zM205.71 211a1.08 1.08 0 0 1-.74-.33 1.06 1.06 0 0 1-.29-.76l.34-12.08-5.69-4 .82-17.09a1.08 1.08 0 0 1 .35-.73 1.11 1.11 0 0 1 .76-.27.91.91 0 0 1 .4.1 1 1 0 0 1 .33.24 1.13 1.13 0 0 1 .22.36 1.4 1.4 0 0 1 .06.41l-.77 15.92 5.67 4-.4 13.23a1.06 1.06 0 0 1-1.06 1z" transform="translate(-58.11 -24.62)"/><path class="cls-4" d="M267.7 185.75a9.45 9.45 0 0 1 3.31 6.41c.16 4.49-2.65 6.32-2.65 6.32s-12.31 6.3-32.07 2.11c0 0-5.81-7.35.66-11.49.05 0 20.85 2.9 30.75-3.35z" transform="translate(-58.11 -24.62)"/><g class="cls-5"><path class="cls-6" d="M271 192.16c.16 4.49-2.65 6.31-2.65 6.31s-12.31 6.31-32.07 2.12a12.62 12.62 0 0 1-2.32-5.26l.15.21c14.44 3.06 24.91.52 29.49-1.07a7.58 7.58 0 0 0 5.24-7.23v-.13a1.79 1.79 0 0 0 0-.23 8.9 8.9 0 0 1 2.16 5.28z" transform="translate(-58.11 -24.62)"/></g><path class="cls-7" d="M249.67 203.45A65.38 65.38 0 0 1 236 202l-.5-.1-.31-.4c-.14-.17-3.31-4.24-2.6-8.43a7.46 7.46 0 0 1 3.6-5.13l.44-.28.51.07c.2 0 20.46 2.72 29.81-3.15l.85-.53.78.62a10.91 10.91 0 0 1 3.84 7.47c.18 5.23-3.16 7.46-3.3 7.55l-.12.08c-.39.16-7.44 3.68-19.33 3.68zm-12.55-4.13c17.86 3.64 29.45-1.56 30.52-2.06a5.9 5.9 0 0 0 2-5 7.63 7.63 0 0 0-2.11-4.71c-9.65 5.23-26.84 3.47-30.18 3.06a4.5 4.5 0 0 0-1.94 2.94c-.41 2.28 1.07 4.82 1.71 5.77z" transform="translate(-58.11 -24.62)"/><g class="cls-5"><path class="cls-6" d="M256.43 139.65a53.33 53.33 0 0 1-34.68 21.07c-1 .15-2 .28-3 .38A53.33 53.33 0 0 1 195 158c-.89-.33-1.77-.69-2.63-1.06-.48-.21-1-.42-1.44-.65.71-4.23 1.41-8.51 2.08-12.75 5.55-35.4 58.51-12.31 58.51-12.31a67.42 67.42 0 0 1 4.91 8.42z" transform="translate(-58.11 -24.62)"/></g><path class="cls-4" d="M166.31 128.51a53 53 0 0 0 24.36 21.23c.86.37 1.74.73 2.63 1.06a53.41 53.41 0 0 0 23.7 3.09c1-.1 2-.23 3-.39a53.26 53.26 0 0 0-5.79-105.82h-1.89a49.64 49.64 0 0 0-5 .19 53.56 53.56 0 0 0-21.75 6.74c-1.05.6-2.09 1.23-3.1 1.9a53.24 53.24 0 0 0-16.17 72z" transform="translate(-58.11 -24.62)"/><path class="cls-7" d="M211.84 154.29c-1.11 0-2.21 0-3.3-.11a53.58 53.58 0 0 1-15.28-3.24c-1-.37-1.85-.72-2.65-1.07a53.38 53.38 0 0 1-8.2-93.53c1-.66 2-1.29 3.11-1.9a53.65 53.65 0 0 1 21.81-6.76 49.72 49.72 0 0 1 5-.19h1.89a53.4 53.4 0 0 1 5.81 106.1c-1 .16-2 .29-3 .39-1.73.22-3.47.31-5.19.31zm-45.4-25.85a52.92 52.92 0 0 0 19.17 18.63 55.21 55.21 0 0 0 5.11 2.54c.79.35 1.65.69 2.63 1.06a53.44 53.44 0 0 0 15.2 3.23 52.87 52.87 0 0 0 8.44-.14c1-.11 2-.24 3-.39a53.12 53.12 0 0 0-5.77-105.54c-.6 0-1.22 0-1.89-.06-1.67 0-3.36 0-5 .19a53.32 53.32 0 0 0-21.7 6.73c-1.06.6-2.1 1.24-3.09 1.89a53.12 53.12 0 0 0-16.13 71.86z" transform="translate(-58.11 -24.62)"/><g class="cls-5"><path class="cls-6" d="M261.75 119.41A53.23 53.23 0 0 1 220 153.5c-1 .16-2 .29-3 .39a53.31 53.31 0 0 1-23.71-3.09c-.89-.34-1.77-.69-2.63-1.06a53.25 53.25 0 0 1-30.16-34.65 53.13 53.13 0 0 0 23.71 20.19c.86.37 1.74.73 2.63 1.07a53.33 53.33 0 0 0 23.71 3.09c1-.11 2-.24 3-.39a53.28 53.28 0 0 0 43.1-66.84 53.18 53.18 0 0 1 5.1 47.2z" transform="translate(-58.11 -24.62)"/></g><path class="cls-7" d="M211.84 155.24c-1.13 0-2.25 0-3.37-.11a54.86 54.86 0 0 1-7.22-.94 55.71 55.71 0 0 1-8.33-2.36c-1-.38-1.88-.73-2.69-1.09a54.34 54.34 0 0 1-12.85-91.88 52 52 0 0 1 4.5-3.31c1-.67 2.07-1.32 3.16-1.94a54.53 54.53 0 0 1 22.2-6.88c1.69-.15 3.42-.21 5.13-.19.69 0 1.32 0 1.94.05a54.36 54.36 0 0 1 5.91 108c-1 .16-2.07.29-3.1.39-1.76.17-3.52.26-5.28.26zM167.25 128a51.78 51.78 0 0 0 23.85 20.78c.78.34 1.63.68 2.59 1.05a52.17 52.17 0 0 0 23.21 3c1-.1 2-.23 3-.38a52.17 52.17 0 0 0-5.7-103.67c-.59 0-1.19-.05-1.85-.06-1.64 0-3.3.05-4.93.19a52.35 52.35 0 0 0-21.3 6.61c-1.05.59-2.07 1.21-3 1.86A52.15 52.15 0 0 0 167.25 128z" transform="translate(-58.11 -24.62)"/><path class="cls-7" d="M211.84 155.56c-1.14 0-2.26 0-3.39-.11a54.75 54.75 0 0 1-15.64-3.33c-1-.38-1.89-.74-2.71-1.09a57 57 0 0 1-5.25-2.61 54.66 54.66 0 0 1-3.15-93.14c1-.67 2.09-1.33 3.19-2a55 55 0 0 1 22.33-6.92c1.7-.14 3.44-.21 5.16-.19.68 0 1.32 0 2 .06a54.67 54.67 0 0 1 5.93 108.62c-1 .16-2.07.29-3.11.4-1.82.22-3.59.31-5.36.31zm-44.32-27.78A51.68 51.68 0 0 0 186.23 146a50.34 50.34 0 0 0 5 2.48c.78.34 1.62.68 2.58 1a51.93 51.93 0 0 0 7.93 2.25 51.28 51.28 0 0 0 15.14.76c1-.1 2-.23 2.95-.38a51.85 51.85 0 0 0-5.63-103c-.59 0-1.18-.05-1.83-.05-1.65 0-3.29 0-4.91.18a51.91 51.91 0 0 0-21.17 6.57c-1 .58-2.06 1.21-3 1.84a51.86 51.86 0 0 0-15.74 70.15z" transform="translate(-58.11 -24.62)"/><path class="cls-7" d="M174.82 139.18c32.21 20.27 73.84 2.69 74.26-35 .29-25.64-24.6-45.72-49.24-44.42-17.94.95-35 9.72-41.17 38 0 0-.79 12.92 3.11 21.31a122.24 122.24 0 0 0 9.1 15.89z" transform="translate(-58.11 -24.62)"/><path class="cls-9" d="M249.08 104.19c-.42 37.68-42.05 55.25-74.26 35l-.8-.86c34.58 4.46 67.75-17.72 68.88-55.81a40 40 0 0 1 6.18 21.67z" transform="translate(-58.11 -24.62)"/><path class="cls-7" d="M203.64 154.57h-2.45a54.41 54.41 0 0 1-8.38-2.38c-1-.37-1.89-.73-2.71-1.09a57 57 0 0 1-5.25-2.61 54.66 54.66 0 0 1-7.67-89.8l.11-.1.13-.06a53.34 53.34 0 0 1 21.84-5.55c14.69-.77 30.09 5.13 41.21 15.8 10.22 9.81 15.77 22.43 15.62 35.55-.16 14.25-5.38 26.68-15.11 35.94s-23.16 14.3-37.34 14.3zm-2-2.86c14.19.52 27.82-4.42 37.41-13.55 9.16-8.72 14.09-20.45 14.24-33.93.14-12.32-5.1-24.22-14.76-33.48C228 60.61 213.33 55 199.41 55.73a50.78 50.78 0 0 0-20.56 5.16 51.85 51.85 0 0 0 7.38 85.11 50.34 50.34 0 0 0 5 2.48c.78.34 1.62.68 2.58 1a51.8 51.8 0 0 0 7.82 2.23z" transform="translate(-58.11 -24.62)"/><path class="cls-7" d="M203.77 149.11a55.85 55.85 0 0 1-29.7-8.74l-.16-.1-4.19-4.54a121.69 121.69 0 0 1-9.22-16.1c-4-8.61-3.28-21.44-3.24-22v-.22c5.37-24.71 19.66-37.86 42.47-39.07 13.11-.68 26.86 4.58 36.78 14.1 9.13 8.76 14.08 20 14 31.74-.18 16.92-8.56 31.12-23 39a49.58 49.58 0 0 1-23.74 5.93zm-28-11c15.88 9.92 35.19 10.93 50.45 2.61 13.48-7.35 21.32-20.66 21.49-36.52.12-10.93-4.53-21.46-13.08-29.67-9.37-9-22.33-14-34.68-13.32-21.35 1.13-34.75 13.49-39.84 36.74-.06 1.22-.53 13 3 20.53a121.09 121.09 0 0 0 8.92 15.6z" transform="translate(-58.11 -24.62)"/><path class="cls-4" d="M259.94 121.87c7.63-.44 13.33-9.3 12.73-19.8s-7.27-18.66-14.9-18.22-13.33 9.3-12.73 19.8 7.27 18.65 14.9 18.22z" transform="translate(-58.11 -24.62)"/><g class="cls-5"><path class="cls-6" d="M260.93 121.77c-7.06 1.1-13.68-5.35-15.46-14.69a10.3 10.3 0 0 0 4.35.26c7.56-1.19 16.41-10.15 15.27-20.59-.08-.7-3.83-1.86-4-2.53 5.76 1.6 10.5 8.09 11.43 16.48 1.18 10.45-4.02 19.87-11.59 21.07z" transform="translate(-58.11 -24.62)"/></g><path class="cls-7" d="M259.33 123.3a12.68 12.68 0 0 1-7.72-2.76c-4.28-3.28-7.15-8.88-7.86-15.37-1.23-11.16 4.52-21.3 12.81-22.61a12.3 12.3 0 0 1 9.53 2.63c4.28 3.27 7.15 8.87 7.86 15.36 1.23 11.16-4.51 21.3-12.8 22.61a12.29 12.29 0 0 1-1.82.14zm-1-38.06a9 9 0 0 0-1.37.11c-6.82 1.07-11.5 9.82-10.44 19.51.63 5.64 3.16 10.66 6.78 13.43a9.54 9.54 0 0 0 7.38 2.08c6.82-1.07 11.5-9.83 10.44-19.51-.62-5.65-3.15-10.67-6.77-13.44a10 10 0 0 0-6-2.18z" transform="translate(-58.11 -24.62)"/><path class="cls-4" d="M263.81 119.05c6.23-.15 11.12-7 10.93-15.37s-5.39-15-11.62-14.85-11.11 7-10.92 15.36 5.39 15 11.61 14.86z" transform="translate(-58.11 -24.62)"/><path class="cls-7" d="M263.63 119.22a9.09 9.09 0 0 1-3.26-.63c-6.05-2.38-9.6-10.87-7.91-18.93.94-4.51 3.35-8.11 6.6-9.87a8.65 8.65 0 0 1 7.49-.47c6.05 2.37 9.6 10.86 7.92 18.92-1 4.52-3.36 8.11-6.61 9.87a8.81 8.81 0 0 1-4.23 1.11zM263.29 89a8.6 8.6 0 0 0-4.09 1.07c-3.18 1.72-5.53 5.24-6.46 9.67-1.65 7.93 1.82 16.27 7.74 18.59a8.38 8.38 0 0 0 7.24-.46c3.18-1.72 5.53-5.24 6.46-9.67 1.66-7.92-1.82-16.26-7.74-18.59a8.49 8.49 0 0 0-3.15-.61z" transform="translate(-58.11 -24.62)"/><g class="cls-5"><path class="cls-6" d="M253.57 111.48a18 18 0 0 1-.89-8.5c2.78 5.93 8.66 7.83 13.61 4.17 3.19-2.35 5.25-6.49 5.82-10.9.17.37.34.76.49 1.17 2.53 6.84.33 15.53-4.92 19.41s-11.57 1.48-14.11-5.35z" transform="translate(-58.11 -24.62)"/></g><path class="cls-7" d="M263.94 120.48a9.44 9.44 0 0 1-5.74-2.06c-3.46-2.64-5.88-7.5-6.46-13-1-9.38 3.34-17.59 9.87-18.67a9.18 9.18 0 0 1 7.14 2c3.46 2.63 5.88 7.5 6.46 13 1 9.38-3.34 17.58-9.87 18.66a8.18 8.18 0 0 1-1.4.07zm-.94-31a5.84 5.84 0 0 0-.93.08c-4.89.81-8.34 7.94-7.53 15.59.51 4.75 2.51 8.88 5.37 11a6.34 6.34 0 0 0 5 1.41c4.89-.81 8.33-7.94 7.53-15.59-.51-4.75-2.51-8.88-5.36-11.06a6.77 6.77 0 0 0-4.08-1.46z" transform="translate(-58.11 -24.62)"/><g class="cls-10"><path class="cls-11" d="M213 68.46s-24 2.81-36.55 17.39a22.86 22.86 0 0 0-5.11 10.78 47 47 0 0 0-.61 12.35c.7 10.07 2.92 14.66 2.92 14.66-6.1-4.92-9.75-10.74-10.42-19.13-.06-.82-.1-1.68-.11-2.56v-.62a58.42 58.42 0 0 1 .82-6.72c1.4-7.84 5.06-18.24 14.47-23.61C196 61 213.75 67.35 213 68.46z" transform="translate(-58.11 -24.62)"/></g><g class="cls-10"><path class="cls-11" d="M235.34 99.84c3.71-1.27 5.52-5.82 4-10.15s-5.71-6.81-9.42-5.53-5.53 5.82-4 10.15 5.7 6.81 9.42 5.53z" transform="translate(-58.11 -24.62)"/></g><g class="cls-10"><path class="cls-11" d="M238.92 109.39a3.46 3.46 0 1 0-4.07-2 3.21 3.21 0 0 0 4.07 2z" transform="translate(-58.11 -24.62)"/></g><path class="cls-7" d="M340.21 203.29c-18.06 39.15-71.14 67.51-133.83 67.51S90.61 242.44 72.55 203.29z" transform="translate(-58.11 -24.62)"/><path class="cls-12" d="M248.4 246.9l-1.66.26a.79.79 0 0 0-.43.21.89.89 0 0 0-.22.43l-.25 1.67-.26-1.67a.75.75 0 0 0-.22-.43.73.73 0 0 0-.43-.21l-1.66-.26 1.66-.26a.69.69 0 0 0 .43-.22.75.75 0 0 0 .22-.42l.26-1.67.25 1.67a.81.81 0 0 0 .22.42.75.75 0 0 0 .43.22zM205.45 239.51l-1.67.26a.74.74 0 0 0-.64.64l-.26 1.67-.26-1.67a.75.75 0 0 0-.22-.43.73.73 0 0 0-.42-.21l-1.67-.26 1.67-.26a.79.79 0 0 0 .64-.65l.26-1.66.26 1.66a.73.73 0 0 0 .21.43.75.75 0 0 0 .43.22zM221.42 256l-1.68.26a.81.81 0 0 0-.43.22.89.89 0 0 0-.22.43l-.25 1.68-.26-1.68a.89.89 0 0 0-.22-.43.81.81 0 0 0-.43-.22l-1.68-.26 1.68-.26a.79.79 0 0 0 .65-.65l.26-1.67.25 1.67a.81.81 0 0 0 .22.43.75.75 0 0 0 .43.22zM297.35 237.07l-2.26.35a1 1 0 0 0-.88.87l-.35 2.26-.35-2.26a1.07 1.07 0 0 0-.29-.58 1.11 1.11 0 0 0-.59-.3l-2.26-.35 2.26-.34a1.11 1.11 0 0 0 .59-.3 1.07 1.07 0 0 0 .29-.58l.35-2.26.35 2.26a1.07 1.07 0 0 0 .29.58 1.11 1.11 0 0 0 .59.3zM94.05 210.28l-2 .3a1 1 0 0 0-.51.25.93.93 0 0 0-.26.51l-.3 2-.3-2a.93.93 0 0 0-.26-.51 1 1 0 0 0-.5-.25l-2-.3 2-.31a1 1 0 0 0 .5-.25.93.93 0 0 0 .26-.51l.3-2 .3 2a.93.93 0 0 0 .26.51 1 1 0 0 0 .51.25zM178.68 233.12l-2.13.33a.93.93 0 0 0-.54.27 1 1 0 0 0-.28.55l-.33 2.13-.33-2.13a1 1 0 0 0-.28-.55.93.93 0 0 0-.54-.27l-2.13-.33 2.13-.33a.94.94 0 0 0 .54-.28 1 1 0 0 0 .28-.55l.33-2.12.33 2.12a1 1 0 0 0 .28.55.94.94 0 0 0 .54.28zM272.31 247.45l-2 .31a1 1 0 0 0-.79.79l-.31 2-.31-2a.88.88 0 0 0-.27-.52.94.94 0 0 0-.52-.27l-2-.31 2-.31a.92.92 0 0 0 .52-.26 1 1 0 0 0 .27-.53l.31-2 .31 2a1 1 0 0 0 .27.53.92.92 0 0 0 .52.26zM149.08 232.62l-1.67.26a.79.79 0 0 0-.64.65l-.26 1.66-.26-1.66a.79.79 0 0 0-.21-.43.81.81 0 0 0-.43-.22l-1.67-.26 1.67-.25a.81.81 0 0 0 .43-.22.79.79 0 0 0 .21-.43l.26-1.66.26 1.66a.79.79 0 0 0 .64.65zM153.44 253.23l-1.11-1.23a.77.77 0 0 0-.41-.25.79.79 0 0 0-.48 0l-1.55.67 1.27-1.11a.77.77 0 0 0 .25-.41.79.79 0 0 0 0-.48l-.67-1.55 1.11 1.27a.77.77 0 0 0 .41.25.72.72 0 0 0 .48-.05l1.55-.67-1.29 1.12a.77.77 0 0 0-.25.41.72.72 0 0 0 .05.48zM185 255.27l-1.93.3a1 1 0 0 0-.5.25.92.92 0 0 0-.25.5l-.3 1.93-.3-1.93a.8.8 0 0 0-.25-.5.92.92 0 0 0-.49-.25l-1.93-.3L181 255a.86.86 0 0 0 .49-.25.8.8 0 0 0 .25-.5l.3-1.92.3 1.92a.92.92 0 0 0 .25.5.89.89 0 0 0 .5.25zM124.19 239l-1.66.25a.74.74 0 0 0-.43.22.81.81 0 0 0-.22.43l-.26 1.66-.25-1.66a.79.79 0 0 0-.65-.65l-1.66-.25 1.66-.26a.79.79 0 0 0 .65-.65l.25-1.66.26 1.66a.81.81 0 0 0 .22.43.74.74 0 0 0 .43.22zM322.09 212.14l-2 .3a.9.9 0 0 0-.51.26.93.93 0 0 0-.26.51l-.3 2-.31-2a1 1 0 0 0-.25-.51.93.93 0 0 0-.51-.26l-2-.3 2-.31a.91.91 0 0 0 .51-.25 1 1 0 0 0 .25-.51l.31-2 .3 2a.93.93 0 0 0 .26.51.88.88 0 0 0 .51.25z" transform="translate(-58.11 -24.62)"/><path class="cls-4" d="M282.16 237.18h-63.41l3.22-8 4.77-11.87 40.89.43 9.4 12.57z" transform="translate(-58.11 -24.62)"/><path class="cls-7" d="M285 238.59h-68.33l9.12-22.69 42.56.45zm-64.14-2.82h58.51l-12.43-16.61-39.23-.42z" transform="translate(-58.11 -24.62)"/><path class="cls-7" d="M273.48 232.63h-5.87l-5.87-.12c-1.95 0-3.91-.11-5.86-.16s-3.9-.06-5.86-.06c-3.9-.05-7.81 0-11.72-.08h-5.87c-2 0-3.91-.05-5.87-.1 2-.1 3.91-.16 5.87-.24l5.86-.14c3.91-.08 7.83-.08 11.74-.08 1.95 0 3.91.06 5.87.12s3.91.15 5.86.26l5.86.31c1.95.03 3.9.14 5.86.29zM270.86 228.31h-5.39l-5.39-.08c-3.6-.06-7.19-.21-10.78-.31l-10.77-.37c-1.8-.06-3.59-.11-5.39-.07s-3.59 0-5.39 0c3.58-.23 7.18-.49 10.78-.45s7.2.09 10.79.2 7.19.29 10.78.48l5.38.28c1.79.1 3.59.19 5.38.32zM268.16 224.6c-1.65 0-3.3-.06-5-.09l-4.94-.17-9.89-.3-9.88-.35c-1.65-.06-3.29-.11-4.94-.13s-3.3-.09-4.95-.17c3.3-.13 6.59-.24 9.9-.23s6.6.09 9.9.19 6.59.24 9.88.46l4.94.36c1.69.14 3.34.26 4.98.43zM265.74 221a79.12 79.12 0 0 1-9 .14c-3-.06-6-.16-9-.25l-9-.33c-1.5-.06-3-.11-4.49-.15s-3 0-4.47-.14l4.47-.19c1.5 0 3-.05 4.5-.05 3 0 6 .07 9 .16s6 .23 9 .42c1.49.09 3 .18 4.48.25s3.02.2 4.51.14z" transform="translate(-58.11 -24.62)"/><path class="cls-4" d="M313.87 227.25h-63.41l8-19.86 6.11.06 34.78.37z" transform="translate(-58.11 -24.62)"/><path class="cls-4" d="M213.24 206.54l-22.8 20.58s20.33-1 29.75-1c7.69 0 33.41 2 33.41 2l6-20.71z" transform="translate(-58.11 -24.62)"/><g class="cls-5"><path class="cls-6" d="M277 230.32h-22.79l-.24.85s-23-1.77-32-2l4.77-11.87 40.89.43z" transform="translate(-58.11 -24.62)"/></g><path class="cls-4" d="M313.87 227.25h-63.41l8-19.86 6.11.06 34.78.37z" transform="translate(-58.11 -24.62)"/><path class="cls-7" d="M316.68 228.66h-68.31L257.5 206l42.55.45zm-64.14-2.82h58.51l-12.43-16.62-39.23-.41z" transform="translate(-58.11 -24.62)"/><path class="cls-7" d="M305.18 222.7h-5.87l-5.86-.12c-2 0-3.92-.11-5.86-.16s-3.91-.06-5.86-.06c-3.91-.06-7.82 0-11.73-.08h-5.86c-2 0-3.92-.05-5.87-.1 2-.11 3.91-.16 5.86-.24l5.87-.14c3.91-.08 7.82-.08 11.73-.08 2 0 3.91.06 5.87.12s3.91.15 5.87.26l5.85.31c1.96.03 3.91.14 5.86.29zM302.56 218.39h-5.39l-5.39-.09c-3.6-.06-7.19-.21-10.78-.31l-10.77-.37c-1.8-.06-3.59-.11-5.39-.07s-3.59 0-5.39 0c3.59-.22 7.19-.49 10.79-.44s7.19.09 10.78.2 7.19.29 10.78.48l5.38.28c1.82.08 3.59.18 5.38.32zM299.87 215.13c-1.66 0-3.31-.06-4.95-.09l-4.95-.17-9.88-.3-9.89-.35c-1.64-.06-3.29-.11-4.94-.13s-3.3-.09-4.94-.17c3.3-.13 6.59-.24 9.89-.23s6.6.09 9.9.19 6.59.25 9.89.46l4.93.36c1.65.14 3.29.3 4.94.43zM297.45 212a77.07 77.07 0 0 1-9 .14c-3 0-6-.16-9-.25l-9-.33c-1.49-.06-3-.11-4.48-.14s-3 0-4.47-.14l4.47-.2h4.49c3 0 6 .08 9 .17s6 .23 9 .41c1.5.1 3 .19 4.48.25s3.06.14 4.51.09zM66 202l8.68-.16 8.69-.11 17.37-.24 34.75-.29c11.58-.12 23.17-.12 34.75-.18L205 201l34.75.05c11.58.07 23.17.07 34.75.19l34.75.29 17.37.23 8.69.12 8.69.12a1.24 1.24 0 0 1 .88 2.13 1.26 1.26 0 0 1-.88.37l-8.68.15-8.69.12-17.37.24-34.75.29c-11.58.12-23.17.12-34.75.18l-34.75.06-34.75-.06c-11.58-.06-23.17-.07-34.75-.18l-34.75-.29-17.37-.24-8.69-.12-8.7-.11a1.26 1.26 0 0 1-.88-.37A1.25 1.25 0 0 1 66 202z" transform="translate(-58.11 -24.62)"/><path class="cls-13" d="M183.48 224.11l20-18.54a.51.51 0 0 0 .09-.13.45.45 0 0 0 0-.16V202a.41.41 0 0 0 0-.16.38.38 0 0 0-.09-.13.35.35 0 0 0-.13-.08.3.3 0 0 0-.16 0l-63.81 3.89-29.61 18.66z" transform="translate(-58.11 -24.62)"/><g class="cls-14"><path class="cls-15" d="M203.55 203.73v1.55a.45.45 0 0 1 0 .16.38.38 0 0 1-.09.13l-20 18.54h-73.74l5.4-3.4h67z" transform="translate(-58.11 -24.62)"/></g><path class="cls-7" d="M184 225.52h-79.2l34-21.46 64.17-3.91a1.75 1.75 0 0 1 .72.1 2.12 2.12 0 0 1 .63.38 1.89 1.89 0 0 1 .41.6 1.79 1.79 0 0 1 .15.72v3.33a1.79 1.79 0 0 1-.15.72 1.92 1.92 0 0 1-.42.6zm-69.4-2.82h68.33l19.21-17.86V203l-62.36 3.8z" transform="translate(-58.11 -24.62)"/><path class="cls-13" d="M183.48 216.27l20.07-14.74h-64.22l-29.61 14.74z" transform="translate(-58.11 -24.62)"/><path class="cls-4" d="M178.3 214.41l13.06-9.59h-41.78l-19.26 9.59z" transform="translate(-58.11 -24.62)"/><path class="cls-7" d="M183.78 217.2h-78l33.32-16.59h63.24a1.3 1.3 0 0 1 .78.25 1.28 1.28 0 0 1 .47.65 1.32 1.32 0 0 1 0 .81 1.28 1.28 0 0 1-.48.66zm-70.13-1.85h69.53l17.55-12.9h-61.18z" transform="translate(-58.11 -24.62)"/><path class="cls-13" d="M181.58 225H97.67a2 2 0 0 1-1.21-.42 2 2 0 0 1-.69-1.07l-14.11-57.3a4 4 0 0 1 0-1.76 4 4 0 0 1 .75-1.59 3.8 3.8 0 0 1 1.37-1.11 3.89 3.89 0 0 1 1.71-.39h78.31a5.88 5.88 0 0 1 5.6 4.12 2 2 0 0 1 .1.35l14 56.72a2 2 0 0 1 0 .88 2 2 0 0 1-.37.8 2 2 0 0 1-.68.55 2 2 0 0 1-.87.22z" transform="translate(-58.11 -24.62)"/><g class="cls-14"><path class="cls-15" d="M181.58 225H97.67a2 2 0 0 1-.76-.15 1.88 1.88 0 0 1-.64-.44c10.29.5 46 .78 63.12-17.65 10.93-11.79 11.11-30.27 10-41.27a2.42 2.42 0 0 1 .1.36l14 56.72a1.87 1.87 0 0 1 0 .88 1.94 1.94 0 0 1-1.05 1.35 2 2 0 0 1-.86.2z" transform="translate(-58.11 -24.62)"/></g><g class="cls-5"><path class="cls-16" d="M86 167.94l14 57h-2.33a2 2 0 0 1-1.21-.42 1.93 1.93 0 0 1-.69-1.07l-14.11-57.24a4 4 0 0 1 0-1.76 4 4 0 0 1 .75-1.59 3.8 3.8 0 0 1 1.37-1.11 3.89 3.89 0 0 1 1.71-.39h78.31a5.88 5.88 0 0 1 5.65 4.28 6.3 6.3 0 0 0-.75 0H87.79a1.84 1.84 0 0 0-.83.19 1.8 1.8 0 0 0-.66.53 2 2 0 0 0-.37.78 1.88 1.88 0 0 0 .07.8z" transform="translate(-58.11 -24.62)"/></g><path class="cls-7" d="M181.58 226.39H97.67a3.37 3.37 0 0 1-3.27-2.56l-14.11-57.28a5.33 5.33 0 0 1 5.17-6.6h78.34a7.28 7.28 0 0 1 7.07 5.54l14 56.73a3.35 3.35 0 0 1 0 1.51 3.2 3.2 0 0 1-.64 1.37 3.31 3.31 0 0 1-1.18 1 3.27 3.27 0 0 1-1.47.34zm-96.12-63.62a2.46 2.46 0 0 0-2 1 2.46 2.46 0 0 0-.48 1 2.4 2.4 0 0 0 0 1.13l14.11 57.27a.63.63 0 0 0 .19.31.6.6 0 0 0 .34.11h83.91a.69.69 0 0 0 .24 0 .58.58 0 0 0 .19-.16.57.57 0 0 0 .11-.22.7.7 0 0 0 0-.25l-14-56.72a4.48 4.48 0 0 0-4.35-3.4z" transform="translate(-58.11 -24.62)"/><g class="cls-5"><path class="cls-6" d="M264.56 207.45l-5.72 19.8h-8.38l8-19.86z" transform="translate(-58.11 -24.62)"/></g><path class="cls-4" d="M213.24 206.54l-22.8 20.58s20.33-1 29.75-1c7.69 0 33.41 2 33.41 2l6-20.71z" transform="translate(-58.11 -24.62)"/><path class="cls-7" d="M254.64 229.59l-1.14-.09c-.26 0-25.76-2-33.31-2-9.27 0-29.47 1-29.67 1l-4 .21 26.16-23.61 48.75.88zm-34.8-4.9h.36c6.82 0 27.24 1.53 32.37 1.91l5.15-17.83-43.94-.77-19.46 17.56c6.3-.29 18.61-.83 25.52-.83z" transform="translate(-58.11 -24.62)"/><path class="cls-7" d="M225.49 206.83a22.56 22.56 0 0 1-1.77 8.93l-.49 1.13a1.3 1.3 0 0 1-2.52 0l-.5-1.17a22.48 22.48 0 0 1-1.77-8.85v-32c0-1.1 1.56-2 3.48-2s3.48.89 3.48 2a.81.81 0 0 1 0 .16zM249.89 222.22c-1.93 0-3.87-.11-5.8-.16l-5.79-.23c-3.85-.19-7.72-.31-11.58-.43s-7.72-.27-11.58-.39c-1.93-.08-3.85-.09-5.79-.12s-3.87-.1-5.8-.17c3.87-.13 7.73-.25 11.6-.25s7.73.14 11.6.24l5.79.25c1.93.08 3.86.18 5.79.34l5.78.42c1.89.16 3.89.28 5.78.5z" transform="translate(-58.11 -24.62)"/><path class="cls-7" d="M251.94 218.8q-3.66 0-7.3-.22c-1.22 0-2.43-.12-3.64-.18s-2.43-.16-3.64-.21l-7.29-.35c-2.43-.11-4.85-.25-7.29-.31 2.43-.21 4.87-.25 7.31-.23s4.87.09 7.3.2 4.86.34 7.28.55 4.85.46 7.27.75z" transform="translate(-58.11 -24.62)"/><path class="cls-4" d="M258.14 143.8a99 99 0 0 1 7.54 30.34c1.11 16.43-.49 39.78-38.74 36.61-13.41-1.1-12.76-6.8-13.26-13.53-.62-8.32.33-17.89 10.07-18.25 17.59-.64 22.84-4.47 25.34-15.26" transform="translate(-58.11 -24.62)"/><g class="cls-5"><path class="cls-6" d="M265.83 183.31c-.74 14.68-7.4 30.05-38.9 27.44-13.41-1.1-12.75-6.8-13.25-13.53-.34-4.56-.21-9.48 1.58-13.07 0 1 .06 2 .14 3 .5 6.72-.16 12.42 13.25 13.52 24.17 1.96 33.71-6.62 37.18-17.36z" transform="translate(-58.11 -24.62)"/></g><path class="cls-7" d="M244.86 171c.29-.61.63-1.17 1-1.76s.69-1.16 1-1.77c.69-1.22 1.32-2.51 2.06-3.82a.15.15 0 0 1 .11-.08.15.15 0 0 1 .13 0h.06a.29.29 0 0 1 0 .09 15.17 15.17 0 0 1-.44 4.5 11.27 11.27 0 0 1-.76 2.18 7.09 7.09 0 0 1-1.32 1.94 1.11 1.11 0 0 1-.72.34 1.14 1.14 0 0 1-.78-.21 1.22 1.22 0 0 1-.46-.65 1.16 1.16 0 0 1 .08-.8z" transform="translate(-58.11 -24.62)"/><path class="cls-7" d="M233.56 212.45q-3.23 0-6.75-.29c-13.68-1.13-14.07-7.39-14.45-13.45l-.09-1.38c-.58-7.78.54-13.12 3.41-16.32a10.79 10.79 0 0 1 8-3.44c11.19-.42 17.09-2.14 20.36-5.95a1.34 1.34 0 0 1 .44-.34 1.2 1.2 0 0 1 .53-.15 1.41 1.41 0 0 1 .54.07 1.27 1.27 0 0 1 .48.27 1.3 1.3 0 0 1 .34.43 1.35 1.35 0 0 1 .15.53 1.49 1.49 0 0 1-.07.55 1.31 1.31 0 0 1-.27.47c-3.84 4.48-10.33 6.49-22.4 6.93a8 8 0 0 0-6 2.51c-2.33 2.6-3.21 7.26-2.7 14.23 0 .48.07.95.09 1.42.37 6 .62 9.88 11.88 10.81 14 1.16 24.21-1.26 30.23-7.19 7.38-7.27 7.61-18.74 7-27.92a98.26 98.26 0 0 0-7.42-29.86 1.38 1.38 0 0 1-.13-.53 1.23 1.23 0 0 1 .09-.54 1.2 1.2 0 0 1 .29-.47 1.28 1.28 0 0 1 .45-.32 1.38 1.38 0 0 1 .53-.13 1.61 1.61 0 0 1 .54.09 1.33 1.33 0 0 1 .47.29 1.28 1.28 0 0 1 .32.45 99 99 0 0 1 7.66 30.78c.66 9.79.37 22.06-7.82 30.12-5.58 5.55-14.21 8.33-25.7 8.33z" transform="translate(-58.11 -24.62)"/><path class="cls-7" d="M260.44 202.09h-.06a1.41 1.41 0 0 1-1-.45 1.36 1.36 0 0 1-.29-.47 1.47 1.47 0 0 1-.08-.55c1-23.19-13.31-27-13.91-27.1a1.46 1.46 0 0 1-.87-.63 1.41 1.41 0 0 1-.16-1.06 1.38 1.38 0 0 1 .62-.87 1.42 1.42 0 0 1 1.06-.18 19.18 19.18 0 0 1 8.59 5.38c3.73 3.88 8.06 11.3 7.48 24.58a1.38 1.38 0 0 1-.43 1 1.4 1.4 0 0 1-.95.35zM144.13 181.15a9.78 9.78 0 0 0-.39-2.89l-.29-.29c-.3-.05-.58-.14-.88-.17a18.26 18.26 0 0 0-6.25.38 13.39 13.39 0 0 0-6.94 3.91c-.68.74-1.29 1.55-1.91 2.34-.17.22-.3.32-.59.23a5.78 5.78 0 0 0-2.11-.15 8.82 8.82 0 0 0-4.91 2.29 18.67 18.67 0 0 0-3.74 4.69 1 1 0 0 0 .72 1.57l1.61.27 3.84.63a.22.22 0 0 1 0 .08.26.26 0 0 1 0 .08 1.28 1.28 0 0 0 .43 1.8 1.7 1.7 0 0 1 .19.19l1 1c-.36.37-.71.7-1 1.07a1.48 1.48 0 0 0-.31.7.86.86 0 0 0 .56.89.89.89 0 0 0 1-.19c.38-.36.73-.75 1.11-1.14l1.4 1.36a1.12 1.12 0 0 0 1.5.26l.38-.16c0 .14.06.26.08.37.36 1.75.7 3.5 1.06 5.25a1 1 0 0 0 1.59.65c.63-.43 1.26-.87 1.88-1.33a13.54 13.54 0 0 0 3.56-3.83 7.32 7.32 0 0 0 .92-6.17.43.43 0 0 1 0-.16.42.42 0 0 1 .09-.14c.62-.55 1.26-1.07 1.88-1.62a12.41 12.41 0 0 0 3.18-4.46 16.78 16.78 0 0 0 1.34-7.31zm-21.08 11l-4.6-.77a12.14 12.14 0 0 1 4.86-4.52 4.79 4.79 0 0 1 2.72-.38c-1 1.88-2 3.76-3 5.67zm13 5.47a7 7 0 0 1-1.45 3.19 14.94 14.94 0 0 1-3.22 3c-.32-1.61-.64-3.18-.95-4.72l5.56-3.19a3.87 3.87 0 0 1 .06 1.7zm5.74-12a11.88 11.88 0 0 1-2.08 4.45 16.16 16.16 0 0 1-2.75 2.67A47.06 47.06 0 0 1 128 198a.27.27 0 0 1-.38-.06c-.28-.29-.59-.56-.88-.85l-.06-.1.24-.24 5-5.18a1 1 0 1 0-1.38-1.33l-3 3.1-2.25 2.34c-.36-.35-.7-.66-1-1a.42.42 0 0 1 0-.33c.78-1.64 1.55-3.3 2.37-4.92a28.56 28.56 0 0 1 2.88-4.57 12.54 12.54 0 0 1 3.68-3.43 12.34 12.34 0 0 1 3-1.25.4.4 0 0 1 .33.12c1.32 1.26 2.62 2.52 3.93 3.79.39.37.78.76 1.18 1.12a.42.42 0 0 1 .11.18.34.34 0 0 1-.01.24zm.35-2.08l-3.84-3.72v-.11l3.8-.11a17.31 17.31 0 0 1 0 3.94z" transform="translate(-58.11 -24.62)"/><path class="cls-4" d="M141.65 185.25c-.4-.37-.79-.75-1.18-1.13-1.3-1.26-2.6-2.52-3.92-3.78a.46.46 0 0 0-.34-.13 12.7 12.7 0 0 0-3 1.26 12.42 12.42 0 0 0-3.68 3.43 28.62 28.62 0 0 0-2.89 4.57c-.82 1.62-1.58 3.27-2.36 4.92-.05.09-.07.27 0 .33.32.34.66.65 1 1l2.26-2.34 3-3.1a1 1 0 1 1 1.39 1.33c-1.67 1.73-3.34 3.45-5 5.18l-.23.24a.33.33 0 0 0 .06.1c.29.28.6.56.87.85a.29.29 0 0 0 .39.06 46.68 46.68 0 0 0 8.93-5.29 15.86 15.86 0 0 0 2.76-2.67 11.93 11.93 0 0 0 2.07-4.45.28.28 0 0 0 0-.2.29.29 0 0 0-.13-.18zm-3 2.67a3 3 0 0 1-1.05.74 3.16 3.16 0 0 1-1.25.28 3.27 3.27 0 0 1-1.27-.22A3.32 3.32 0 0 1 134 188a3.24 3.24 0 0 1-.73-1.06 3.24 3.24 0 0 1 0-2.52 3.31 3.31 0 0 1 .7-1.07 3.27 3.27 0 0 1 4.71 4.54z" transform="translate(-58.11 -24.62)"/><path class="cls-17" d="M142.11 183.55l-3.84-3.72v-.11l3.8-.11a17.31 17.31 0 0 1 .04 3.94zM126 186.47c-1 1.88-2 3.76-3 5.67l-4.59-.77a12 12 0 0 1 4.85-4.52 4.79 4.79 0 0 1 2.74-.38zM134.57 200.8a15.12 15.12 0 0 1-3.21 3c-.33-1.61-.65-3.18-1-4.72l5.56-3.19a4 4 0 0 1 .07 1.7 7.16 7.16 0 0 1-1.42 3.21z" transform="translate(-58.11 -24.62)"/><path class="cls-7" d="M138.58 183.31a3.27 3.27 0 0 0-4.61.07 3.31 3.31 0 0 0-.7 1.07 3.24 3.24 0 0 0 0 2.52A3.24 3.24 0 0 0 134 188a3.32 3.32 0 0 0 1.08.69 3.27 3.27 0 0 0 1.27.22 3.16 3.16 0 0 0 1.25-.28 3 3 0 0 0 1.05-.74 3.27 3.27 0 0 0-.07-4.58zm-1.05 3.57a1.71 1.71 0 0 1-.88.46 1.68 1.68 0 0 1-1-.09 1.73 1.73 0 0 1-.78-2.54 1.66 1.66 0 0 1 .77-.64 1.76 1.76 0 0 1 1-.11 1.67 1.67 0 0 1 .88.46 1.79 1.79 0 0 1 .38.56 1.71 1.71 0 0 1 0 1.33 1.93 1.93 0 0 1-.37.57z" transform="translate(-58.11 -24.62)"/><path class="cls-8" d="M137.53 186.88a1.64 1.64 0 0 1-.88.46 1.68 1.68 0 0 1-1-.09 1.71 1.71 0 0 1-1.06-1.59 1.68 1.68 0 0 1 .28-.95 1.72 1.72 0 0 1 .77-.64 1.76 1.76 0 0 1 1-.11 1.67 1.67 0 0 1 .88.46 1.79 1.79 0 0 1 .38.56 1.7 1.7 0 0 1 .14.66 1.9 1.9 0 0 1-.13.67 1.78 1.78 0 0 1-.38.57z" transform="translate(-58.11 -24.62)"/></g><path class="cls-4" d="M118.53 114.9a33.5 33.5 0 0 0 9.35-19.5A34.12 34.12 0 1 0 90 125a34.39 34.39 0 0 0 14.94-1.54l14.63 6.84z" transform="translate(-58.11 -24.62)"/><g class="cls-18"><path class="cls-19" d="M97.3 63.92a34.27 34.27 0 0 1 30.23 34.36 33.85 33.85 0 0 0 .62-3.6 34.25 34.25 0 1 0-68-8.06 34.61 34.61 0 0 0-.24 3.67A34.26 34.26 0 0 1 97.3 63.92z" transform="translate(-58.11 -24.62)"/></g><path class="cls-7" d="M119.78 132.9a2.57 2.57 0 0 0 1-.2 2.46 2.46 0 0 0 .83-.59 2.46 2.46 0 0 0 .67-1.86l-.94-14.39a36.27 36.27 0 1 0-16.25 10.35l13.64 6.45a2.45 2.45 0 0 0 1.05.24zm-25.4-73a30.94 30.94 0 0 1 3.72.22 31.49 31.49 0 0 1 18.9 53.09 2.52 2.52 0 0 0-.7 1.9l.74 11.25-10.72-5.07a2.5 2.5 0 0 0-1.86-.11 31.11 31.11 0 0 1-13.74 1.43 31.48 31.48 0 0 1 3.66-62.74z" transform="translate(-58.11 -24.62)"/><g class="cls-14"><path class="cls-20" d="M118.94 114.91a39.57 39.57 0 0 1-57.88-32.75 34.26 34.26 0 0 0 44 41.69l14.69 6.94-1-15.6z" transform="translate(-58.11 -24.62)"/></g><path class="cls-21" d="M97.5 80.52l-5.61 25.17M106.38 86.82l6.29 6.29-6.29 6.29M83 99.4l-6.3-6.29 6.3-6.29" transform="translate(-58.11 -24.62)"/></svg>