<svg width="174" height="364" viewBox="0 0 174 364" fill="none" xmlns="http://www.w3.org/2000/svg">
<path d="M145.466 134.302C145.422 134.999 146.809 135.698 148.926 136.17C149.446 136.286 149.916 136.565 150.268 136.965C150.621 137.366 150.837 137.867 150.887 138.398C151.085 140.553 151.602 142.023 152.298 142.067C152.995 142.112 153.694 140.725 154.166 138.608C154.282 138.087 154.56 137.617 154.961 137.265C155.361 136.913 155.863 136.696 156.394 136.647C158.554 136.449 160.018 135.932 160.063 135.235C160.108 134.539 158.721 133.835 156.604 133.366C156.083 133.25 155.612 132.971 155.259 132.57C154.906 132.169 154.689 131.667 154.64 131.135C154.442 128.975 153.925 127.511 153.228 127.466C152.532 127.422 151.833 128.809 151.361 130.926C151.244 131.447 150.966 131.917 150.565 132.27C150.164 132.622 149.661 132.839 149.129 132.887C146.978 133.084 145.511 133.602 145.466 134.302Z" fill="#FFD527"/>
<path d="M2.33252 116.797C1.04431 116.172 0.506697 114.621 1.13173 113.333C1.75676 112.045 3.30775 111.507 4.59596 112.132C5.88417 112.757 6.42178 114.308 5.79675 115.596C5.17171 116.884 3.62073 117.422 2.33252 116.797Z" fill="#8DD7FF"/>
<path d="M118.277 3.17351C117.572 2.83134 117.277 1.98228 117.62 1.27706C117.962 0.571853 118.811 0.277548 119.516 0.619713C120.221 0.961879 120.516 1.81094 120.173 2.51615C119.831 3.22137 118.982 3.51568 118.277 3.17351Z" fill="#8DD7FF"/>
<path d="M87.4622 92.4219C93.4774 85.3981 96.9914 76.6116 97.4612 67.4202C98.6822 44.213 80.6656 24.4455 57.2268 23.2695C33.7881 22.0935 13.7958 39.9556 12.5765 63.1626C11.3573 86.3696 29.3722 106.137 52.8128 107.315C59.1132 107.638 65.4088 106.563 71.2394 104.168L89.9953 111.45L87.4622 92.4219Z" fill="white"/>
<path d="M65.5221 70.9531C65.5221 74.9466 62.4436 78.025 58.3064 78.9872V83.7981H52.9185V78.8918C48.733 77.7848 45.4625 74.466 45.1257 74.1292L48.9744 70.2806C49.2629 70.6174 52.246 73.7441 55.7096 73.7441C58.3075 73.7441 59.9916 72.4463 59.9916 71.0025C59.9916 66.6722 45.7522 65.8548 45.7522 57.5804C45.7522 53.588 48.7835 50.5084 52.9196 49.5945V44.7837H58.3075V49.69C62.493 50.797 65.7635 54.0675 66.1003 54.4043L62.2999 58.2529C61.9631 57.8678 58.9329 54.8859 55.5176 54.8859C52.9196 54.8859 51.2366 56.0883 51.2366 57.5321C51.2366 61.8613 65.5243 62.6798 65.5243 70.9531H65.5221Z" fill="#00B48F"/>
<g opacity="0.5">
<path opacity="0.5" d="M56.8585 30.8368C78.8385 31.9654 96.0727 49.541 97.2617 71.0313C97.503 69.5309 97.6643 68.0187 97.7448 66.5012C98.9529 42.9706 80.8561 22.9159 57.3273 21.7078C33.7985 20.4996 13.742 38.5965 12.5338 62.1253C12.4561 63.6504 12.4599 65.1785 12.545 66.7031C15.9225 45.4354 34.8699 29.7142 56.8585 30.8368Z" fill="white"/>
</g>
<path d="M90.5102 114.694C90.933 114.666 91.3456 114.551 91.7223 114.357C92.099 114.162 92.4319 113.893 92.7004 113.564C92.9688 113.235 93.167 112.855 93.2828 112.447C93.3985 112.038 93.4294 111.61 93.3734 111.189L91.0198 93.3924C97.8165 84.7928 101.27 74.0135 100.738 63.0541C100.207 52.0947 95.7281 41.6992 88.1317 33.7959C80.5352 25.8926 70.3372 21.018 59.4294 20.0763C48.5215 19.1346 37.6442 22.1898 28.8153 28.6751C19.9863 35.1603 13.805 44.6355 11.4179 55.343C9.03084 66.0504 10.6001 77.2633 15.8345 86.9016C21.069 96.5399 29.6133 103.949 39.8826 107.756C50.1518 111.562 61.4489 111.507 71.6782 107.6L89.1645 114.488C89.5924 114.656 90.0521 114.726 90.5102 114.694ZM52.8927 26.0498C54.4365 25.9467 55.9851 25.9349 57.5303 26.0144C64.8067 26.389 71.8346 28.7932 77.8219 32.9558C83.8091 37.1184 88.5177 42.8741 91.4168 49.574C94.3159 56.2738 95.2903 63.6515 94.2301 70.8754C93.1699 78.0994 90.1174 84.8823 85.4164 90.4597C85.1378 90.7902 84.9312 91.1754 84.8098 91.5906C84.6885 92.0058 84.655 92.4419 84.7116 92.8709L86.5532 106.791L72.812 101.381C72.0653 101.087 71.2345 101.095 70.4935 101.402C65.1309 103.633 59.3362 104.626 53.5379 104.31C32.0026 103.199 15.3744 84.7322 16.4769 63.1462C17.4906 43.1286 33.4089 27.3488 52.8927 26.0498Z" fill="#E0E3F9"/>
<g opacity="0.3">
<path opacity="0.3" d="M87.975 92.4087C74.915 100.389 58.3442 102.202 43.1545 95.8254C26.3104 88.7522 15.4673 73.4109 13.3324 56.5013C12.8815 58.663 12.5981 60.8563 12.4845 63.0617C11.2764 86.5923 29.3731 106.645 52.9038 107.855C59.2285 108.186 65.5473 107.101 71.3986 104.677L90.2308 112.073L87.6752 92.7783C87.7783 92.6567 87.8739 92.532 87.975 92.4087Z" fill="#371A45"/>
</g>
<g clip-path="url(#clip0_4601_2307)">
<path d="M132.647 346.451L83.6862 330.25C79.3333 328.809 76.4989 324.538 76.8144 319.887L81.3978 252.047C81.8431 245.449 88.2604 241.035 94.4357 243.079L143.398 259.28C147.75 260.721 150.585 264.993 150.269 269.643L145.686 337.484C145.241 344.081 138.823 348.495 132.647 346.451Z" fill="#F7F7F7"/>
<path d="M135.747 348.814C134.495 348.813 133.251 348.611 132.063 348.217L83.1018 332.015C77.936 330.306 74.5877 325.268 74.9595 319.762L79.5428 251.922C79.7973 248.158 81.7197 244.804 84.8185 242.721C86.2968 241.718 87.9861 241.07 89.7554 240.827C91.5246 240.583 93.3262 240.751 95.0203 241.316L143.981 257.517C149.147 259.226 152.495 264.265 152.124 269.77L147.54 337.611C147.286 341.375 145.363 344.729 142.264 346.812C140.34 348.114 138.071 348.811 135.747 348.814ZM133.231 344.683C134.387 345.069 135.616 345.182 136.822 345.016C138.029 344.849 139.181 344.407 140.189 343.722C142.327 342.285 143.654 339.964 143.831 337.355L148.414 269.515C148.671 265.702 146.369 262.218 142.814 261.042L93.8554 244.844C92.6996 244.459 91.4707 244.345 90.2639 244.512C89.0572 244.679 87.9051 245.121 86.897 245.805C85.8418 246.516 84.9645 247.459 84.3331 248.564C83.7017 249.668 83.3332 250.903 83.2563 252.172L78.6729 320.013C78.4152 323.824 80.7184 327.309 84.2732 328.485L133.231 344.683Z" fill="#371A45"/>
<g opacity="0.3">
<path opacity="0.3" d="M126.679 349.128L77.7172 332.927C73.3643 331.487 70.5299 327.215 70.8463 322.564L75.433 254.724C75.8791 248.126 82.2956 243.713 88.4717 245.757L137.433 261.958C141.786 263.398 144.62 267.669 144.304 272.321L139.721 340.16C139.272 346.758 132.855 351.172 126.679 349.128Z" fill="#371A45"/>
</g>
<path d="M135.747 348.814C134.495 348.813 133.251 348.611 132.063 348.217L83.1018 332.015C77.936 330.306 74.5877 325.268 74.9595 319.762L79.5428 251.922C79.7973 248.158 81.7197 244.804 84.8185 242.721C86.2968 241.718 87.9861 241.07 89.7554 240.827C91.5246 240.583 93.3262 240.751 95.0203 241.316L143.981 257.517C149.147 259.226 152.495 264.265 152.124 269.77L147.54 337.611C147.286 341.375 145.363 344.729 142.264 346.812C140.34 348.114 138.071 348.811 135.747 348.814ZM133.231 344.683C134.387 345.069 135.616 345.182 136.822 345.016C138.029 344.849 139.181 344.407 140.189 343.722C142.327 342.285 143.654 339.964 143.831 337.355L148.414 269.515C148.671 265.702 146.369 262.218 142.814 261.042L93.8554 244.844C92.6996 244.459 91.4707 244.345 90.2639 244.512C89.0572 244.679 87.9051 245.121 86.897 245.805C85.8418 246.516 84.9645 247.459 84.3331 248.564C83.7017 249.668 83.3332 250.903 83.2563 252.172L78.6729 320.013C78.4152 323.824 80.7184 327.309 84.2732 328.485L133.231 344.683Z" fill="#371A45"/>
<path d="M128.925 351.227C126.392 351.239 123.883 350.728 121.556 349.726C124.408 369.436 124.098 394.172 123.858 403.366C123.775 406.431 121.935 409.224 119.089 410.361C117.541 410.981 115.581 411.435 113.151 411.435H85.3894C84.2281 411.439 83.0989 411.054 82.1815 410.342C81.2642 409.63 80.6113 408.631 80.3269 407.505C79.9138 405.853 79.7486 403.575 80.2203 400.488C80.6582 397.642 82.1749 395.469 84.2683 393.952C84.2683 393.952 84.3171 380.597 80.7548 371.695C79.9221 369.623 78.9555 367.519 77.9625 365.512C77.7915 365.731 72.8786 372.241 72.8786 382.867V406.763C72.8786 406.763 71.1437 409.433 65.6698 409.433H32.7901C31.6602 409.437 30.5663 409.036 29.7063 408.304C28.8463 407.571 28.2771 406.555 28.1018 405.438C27.45 401.177 27.7334 394.658 34.5092 391.79C28.4909 339.224 32.5761 307.499 37.9426 289.103L37.8145 289.065C12.5839 290.534 -1.20909 256.71 3.7303 238.555C5.62543 231.581 8.80271 227.464 11.9965 225.039C17.7529 220.666 26.2802 223.523 27.9523 230.555C28.9238 234.651 27.5838 238.197 25.6821 240.947C25.7201 241.112 27.5086 248.247 31.3485 254.393C31.7376 254.014 51.4745 235.244 116.632 256.886C143.369 263.519 146.616 308.508 146.616 308.508C152.133 347.665 137.635 351.227 128.925 351.227Z" fill="#F7F7F7"/>
<g opacity="0.3">
<path opacity="0.3" d="M147.362 314.832C146.598 325.358 143.948 333.772 141.275 337.165C141.146 337.33 141.016 337.488 140.885 337.637C135.709 343.585 125.9 339.596 126.021 331.709C126.54 298.142 107.573 280.918 107.573 280.918C107.573 280.918 110.145 332.87 86.8334 344.049C63.5219 355.228 47.2191 342.768 47.2191 342.768C47.2191 342.768 48.8144 350.438 56.6369 355.829C61.6457 359.28 64.4942 365.096 63.8697 371.146C63.2088 377.551 62.6585 385.873 63.0278 393.983C63.2352 398.526 59.587 402.312 55.0392 402.312H27.8655C27.86 403.359 27.9382 404.404 28.0993 405.438C28.2748 406.554 28.844 407.57 29.704 408.303C30.5639 409.035 31.6578 409.436 32.7876 409.432H65.6673C71.1412 409.432 72.8769 406.762 72.8769 406.762V382.866C72.8769 372.24 77.789 365.73 77.96 365.511C78.9514 367.519 79.9196 369.623 80.7532 371.695C84.3146 380.596 84.2667 393.951 84.2667 393.951C82.1733 395.468 80.6565 397.642 80.2187 400.488C79.7436 403.574 79.9088 405.857 80.326 407.505C80.6104 408.63 81.2631 409.629 82.1803 410.341C83.0975 411.053 84.2265 411.438 85.3877 411.435H113.154C115.583 411.435 117.543 410.981 119.091 410.361C121.938 409.223 123.78 406.43 123.86 403.365C124.1 394.169 124.41 369.435 121.559 349.726C123.886 350.727 126.394 351.238 128.928 351.226C137.144 351.227 150.504 348.053 147.362 314.832ZM97.1914 402.76H89.3605C86.2089 402.76 84.0676 399.503 85.3728 396.634C86.7946 393.508 89.1482 391.789 89.1482 391.789C89.5307 379.591 87.1655 370.527 85.0663 365C83.9098 361.95 85.7776 358.621 88.9632 357.916L89.2242 357.857C96.8931 356.101 104.648 360.705 106.475 368.356C108.598 377.251 108.531 386.262 107.986 392.829C107.76 395.536 106.526 398.061 104.526 399.9C102.527 401.74 99.9085 402.761 97.1914 402.76Z" fill="#371A45"/>
</g>
<g opacity="0.3">
<path opacity="0.3" d="M42.3517 277.306L37.941 289.102L37.813 289.064C20.789 290.055 8.97214 274.983 4.60938 259.489C8.78461 266.818 20.6502 282.817 42.3517 277.306Z" fill="#371A45"/>
</g>
<path d="M116.75 258.889C116.535 258.889 116.322 258.854 116.119 258.786C82.8779 247.743 61.9654 247.551 50.2766 249.334C37.7302 251.248 32.9056 255.778 32.8577 255.826C32.4764 256.18 31.9725 256.371 31.4527 256.359C30.9329 256.348 30.4381 256.134 30.0729 255.764C29.7078 255.394 29.5011 254.896 29.4967 254.376C29.4922 253.856 29.6902 253.355 30.0489 252.979C30.8792 252.153 51.1597 232.986 117.383 254.989C117.833 255.139 118.216 255.445 118.462 255.851C118.708 256.258 118.802 256.738 118.726 257.207C118.65 257.676 118.41 258.103 118.048 258.411C117.687 258.719 117.227 258.888 116.752 258.889H116.75Z" fill="#371A45"/>
<path d="M113.27 413.435H85.507C83.8991 413.44 82.3358 412.906 81.0665 411.919C79.7972 410.932 78.8951 409.548 78.504 407.989C77.953 405.784 77.905 403.157 78.3627 400.183C78.8377 397.094 80.428 394.44 82.9626 392.51C83.1712 392.346 83.4103 392.226 83.6658 392.155C83.9214 392.085 84.1884 392.066 84.4514 392.1C84.7143 392.133 84.9679 392.219 85.1975 392.352C85.4271 392.484 85.628 392.661 85.7886 392.872C85.9493 393.083 86.0664 393.323 86.1332 393.58C86.2 393.836 86.2152 394.104 86.1779 394.366C86.1405 394.629 86.0514 394.881 85.9157 395.109C85.7799 395.336 85.6003 395.535 85.3872 395.693C83.6697 397.001 82.6362 398.717 82.3174 400.791C81.9415 403.237 81.9646 405.335 82.3868 407.018C82.5622 407.711 82.9647 408.326 83.5303 408.764C84.0959 409.202 84.7918 409.437 85.507 409.434H113.27C115.175 409.434 116.922 409.12 118.464 408.504C120.538 407.674 121.917 405.637 121.978 403.314C122.235 393.463 122.511 368.436 119.527 348.858C119.482 348.596 119.49 348.328 119.55 348.069C119.61 347.81 119.721 347.565 119.877 347.35C120.032 347.134 120.229 346.952 120.456 346.813C120.683 346.674 120.935 346.582 121.198 346.542C121.461 346.502 121.729 346.515 121.987 346.58C122.245 346.645 122.487 346.76 122.7 346.92C122.912 347.079 123.091 347.28 123.225 347.509C123.36 347.738 123.447 347.992 123.482 348.256C126.515 368.151 126.238 393.46 125.978 403.418C125.876 407.341 123.51 410.795 119.947 412.219C117.933 413.026 115.685 413.435 113.27 413.435Z" fill="#371A45"/>
<path d="M108.005 280.703C109.273 282.417 110.235 284.263 111.104 286.155C111.323 286.627 111.531 287.104 111.737 287.58C111.926 288.063 112.122 288.543 112.302 289.03C112.683 289.996 113.004 290.981 113.319 291.967C113.635 292.953 113.903 293.954 114.167 294.955C114.295 295.456 114.433 295.955 114.553 296.458L114.91 297.967C115.41 299.974 115.846 301.993 116.296 304.009C116.684 306.037 117.118 308.057 117.431 310.098C117.596 311.116 117.78 312.132 117.927 313.155L118.345 316.221L118.557 317.752L118.722 319.291L119.047 322.368C119.238 324.422 119.364 326.481 119.525 328.537C119.55 328.917 119.425 329.291 119.176 329.578C118.927 329.866 118.575 330.044 118.196 330.074C117.817 330.104 117.441 329.983 117.15 329.737C116.859 329.492 116.677 329.142 116.643 328.763L116.639 328.707C116.479 326.684 116.355 324.659 116.169 322.638L115.849 319.612L115.689 318.1L115.485 316.592L115.071 313.578C114.928 312.575 114.741 311.577 114.583 310.577C114.278 308.572 113.85 306.59 113.47 304.6C113.024 302.624 112.619 300.635 112.071 298.688C111.815 297.708 111.541 296.734 111.241 295.769C110.941 294.803 110.678 293.827 110.376 292.863C109.246 288.985 108.139 285.103 107.146 281.132L107.141 281.111C107.114 281.001 107.126 280.885 107.175 280.783C107.223 280.681 107.305 280.599 107.408 280.551C107.51 280.503 107.626 280.492 107.735 280.519C107.845 280.547 107.942 280.611 108.009 280.702L108.005 280.703Z" fill="#371A45"/>
<path d="M129.048 353.085C119.325 353.085 111.415 346.423 111.415 338.233C111.415 334.411 113.553 330.087 116.861 327.217C117.234 326.894 117.719 326.732 118.211 326.767C118.703 326.802 119.161 327.031 119.484 327.404C119.806 327.776 119.968 328.262 119.933 328.753C119.898 329.245 119.669 329.703 119.297 330.026C116.845 332.152 115.132 335.528 115.132 338.233C115.132 344.373 121.375 349.368 129.048 349.368C132.338 349.368 137.128 348.889 140.731 344.742C146.004 338.674 147.405 326.571 144.896 308.767C144.89 308.726 144.886 308.685 144.883 308.642C144.851 308.205 141.413 264.92 116.306 258.692C116.069 258.634 115.846 258.529 115.65 258.384C115.453 258.239 115.287 258.057 115.161 257.848C115.035 257.639 114.952 257.407 114.916 257.165C114.879 256.924 114.891 256.678 114.949 256.441C115.008 256.204 115.113 255.981 115.258 255.784C115.403 255.588 115.585 255.422 115.794 255.296C116.003 255.17 116.235 255.086 116.476 255.05C116.718 255.014 116.964 255.025 117.201 255.084C128.774 257.954 137.878 268.154 143.528 284.577C147.595 296.398 148.506 307.27 148.585 308.305C151.24 327.191 149.541 340.268 143.538 347.176C140.08 351.154 135.341 353.085 129.048 353.085Z" fill="#371A45"/>
<path d="M58.2034 241.808C58.2034 241.808 58.8469 253.115 70.6977 260.048C95.3385 274.465 116.749 256.888 116.749 256.888L58.2034 241.808Z" fill="#F6F6F6"/>
<path d="M90.9583 267.568C84.6095 267.568 77.3338 266.081 69.7591 261.653C57.1921 254.3 56.3759 242.415 56.347 241.913C56.3305 241.621 56.3831 241.329 56.5006 241.061C56.6181 240.794 56.7971 240.557 57.0231 240.371C57.2491 240.186 57.5158 240.056 57.8013 239.993C58.0869 239.929 58.3834 239.934 58.6667 240.007L117.212 255.087C117.545 255.173 117.847 255.349 118.086 255.596C118.324 255.843 118.49 256.151 118.564 256.486C118.638 256.821 118.618 257.17 118.506 257.495C118.394 257.819 118.194 258.106 117.929 258.324C117.698 258.513 112.193 262.982 103.51 265.651C99.4444 266.911 95.2141 267.557 90.9583 267.568ZM60.5379 244.328C61.4565 247.819 64.1001 254.035 71.636 258.444C81.3447 264.124 91.6572 265.367 102.285 262.138C105.797 261.062 109.163 259.559 112.308 257.662L60.5379 244.328Z" fill="#371A45"/>
<path d="M41.8709 210.603C43.4154 220.601 47.5229 230.03 53.7935 237.969C55.1162 239.646 56.527 241.252 58.02 242.78C58.7519 243.532 59.5161 244.267 60.2993 244.999C66.9636 251.142 74.9262 255.706 83.596 258.35C84.6975 258.681 85.8045 258.984 86.917 259.259C107.292 264.216 129.658 258.477 144.941 242.324C167.459 218.531 166.069 181.155 141.846 158.84C137.298 154.646 132.13 151.179 126.526 148.559C125.888 148.254 125.239 147.967 124.586 147.694C122.841 146.95 121.073 146.292 119.281 145.719C111.049 143.108 102.356 142.271 93.7771 143.266C92.4239 143.422 91.0763 143.624 89.7341 143.872C87.7173 144.245 85.7209 144.722 83.7529 145.299C73.618 148.246 64.453 153.843 57.2038 161.515C44.2493 175.2 39.21 193.378 41.8709 210.603Z" fill="white"/>
<path d="M101.281 261.135C96.4287 261.135 91.5933 260.555 86.878 259.408C85.7652 259.135 84.6475 258.83 83.5479 258.5C74.8592 255.843 66.878 251.27 60.1934 245.116C59.3326 244.314 58.5857 243.586 57.9091 242.891C56.4125 241.359 54.9981 239.749 53.672 238.068C47.3929 230.103 43.2752 220.652 41.7171 210.63C38.9339 192.609 44.5358 174.667 57.0929 161.409C65.825 152.218 77.242 146.026 89.7083 143.72C91.0301 143.473 92.3941 143.27 93.7613 143.112C102.362 142.115 111.077 142.954 119.331 145.572C121.12 146.142 122.909 146.807 124.647 147.548C125.346 147.84 125.983 148.126 126.592 148.416C132.21 151.042 137.39 154.519 141.948 158.723C153.742 169.587 160.536 184.312 161.08 200.186C161.619 215.934 155.927 230.935 145.053 242.427C133.624 254.506 117.689 261.135 101.281 261.135ZM42.0236 210.576C43.5751 220.546 47.6726 229.947 53.9198 237.87C55.2385 239.543 56.6449 241.144 58.133 242.668C58.8063 243.361 59.5498 244.085 60.4065 244.883C67.0531 251.009 74.9938 255.56 83.6396 258.199C84.7309 258.529 85.8462 258.833 86.9532 259.108C107.96 264.216 130.137 257.744 144.827 242.216C155.645 230.786 161.308 215.863 160.772 200.199C160.23 184.41 153.471 169.761 141.739 158.954C137.203 154.77 132.048 151.31 126.456 148.699C125.85 148.409 125.217 148.127 124.522 147.836C122.793 147.098 121.013 146.437 119.235 145.869C111.023 143.264 102.353 142.43 93.7952 143.421C92.4354 143.579 91.0789 143.782 89.7628 144.027C87.7515 144.4 85.7605 144.875 83.7974 145.45C73.6931 148.399 64.554 153.98 57.316 161.622C44.8299 174.813 39.2561 192.658 42.0236 210.578V210.576Z" fill="#371A45"/>
<g opacity="0.3">
<path opacity="0.3" d="M144.939 242.319C129.656 258.476 107.287 264.212 86.9136 259.255C85.8006 258.983 84.6941 258.681 83.5943 258.346C74.9269 255.697 66.9653 251.135 60.2976 244.997C59.5177 244.265 58.7527 243.53 58.0183 242.778C56.5271 241.249 55.1171 239.642 53.7943 237.965C48.9808 231.868 45.4267 224.876 43.3387 217.395C41.2507 209.913 40.6703 202.091 41.6313 194.383C43.3258 203.889 47.3447 212.828 53.33 220.406C54.6511 222.084 56.0614 223.691 57.5548 225.219C58.2851 225.97 59.0501 226.706 59.8333 227.437C66.4966 233.581 74.4596 238.145 83.13 240.787C84.2315 241.117 85.3393 241.42 86.4535 241.696C106.827 246.652 129.192 240.916 144.478 224.76C153.4 215.337 158.562 203.782 160.045 191.88C163.191 209.5 158.231 228.277 144.939 242.319Z" fill="#371A45"/>
</g>
<path d="M101.28 262.838C96.2922 262.838 91.3222 262.243 86.4758 261.064C85.3307 260.782 84.1816 260.468 83.0564 260.129C74.1206 257.398 65.9127 252.694 59.0393 246.365C58.1513 245.539 57.3871 244.791 56.6874 244.074C55.1501 242.499 53.6971 240.845 52.3345 239.117C45.8736 230.921 41.6367 221.196 40.0335 210.883C37.1693 192.346 42.9357 173.885 55.8538 160.237C63.3365 152.335 72.785 146.565 83.2316 143.516C85.2592 142.921 87.3159 142.43 89.3936 142.045C90.7551 141.792 92.1578 141.582 93.5631 141.42C102.404 140.395 111.362 141.257 119.845 143.948C121.686 144.535 123.525 145.219 125.313 145.981C126.027 146.281 126.689 146.576 127.324 146.879C133.097 149.577 138.419 153.15 143.103 157.47C155.237 168.646 162.223 183.796 162.782 200.129C163.338 216.336 157.479 231.77 146.289 243.599C134.536 256.021 118.15 262.838 101.28 262.838ZM43.7098 210.318C45.2148 219.997 49.1916 229.124 55.2557 236.817C56.5379 238.442 57.9051 239.998 59.3516 241.479C60.0125 242.155 60.7329 242.859 61.5681 243.637C68.0255 249.588 75.7397 254.008 84.1386 256.571C85.1953 256.89 86.2816 257.188 87.3605 257.452C107.772 262.415 129.319 256.13 143.591 241.043C154.093 229.946 159.59 215.461 159.07 200.256C158.541 184.925 151.977 170.702 140.584 160.205C136.177 156.14 131.169 152.779 125.737 150.241C125.142 149.956 124.535 149.686 123.866 149.406C122.174 148.685 120.446 148.042 118.717 147.491C110.736 144.959 102.309 144.149 93.9918 145.112C92.67 145.265 91.3482 145.463 90.0735 145.701C78.0259 147.928 66.9923 153.911 58.5536 162.793C46.436 175.599 41.0199 192.924 43.7098 210.318V210.318Z" fill="#371A45"/>
<path d="M46.1097 225.167C70.8323 259.736 121.66 259.665 138.346 221.306C149.698 195.21 132.503 163.982 106.34 154.721C87.2977 147.98 65.7549 149.599 47.201 175.838C47.201 175.838 40.8126 188.713 41.2438 198.97C41.675 209.226 43.851 219.132 43.851 219.132L46.1097 225.167Z" fill="#371A45"/>
<path d="M138.345 221.306C121.657 259.664 70.8313 259.734 46.1087 225.168L45.6519 223.943C79.6502 243.371 123.671 234.952 141.275 196.481C142.634 204.712 141.847 213.253 138.345 221.306Z" fill="#291134"/>
<path d="M94.0771 258.091C85.0418 258.091 75.8239 256.095 67.1992 252.143L67.0092 252.037C64.303 250.239 61.7431 248.23 59.3535 246.028C58.4728 245.208 57.7111 244.466 57.0197 243.756C55.494 242.193 54.0515 240.551 52.6982 238.837C46.2849 230.702 42.0792 221.05 40.4881 210.815C37.6462 192.416 43.368 174.098 56.1845 160.556C63.6124 152.712 72.9928 146.984 83.364 143.961L83.5011 143.92L83.644 143.909C91.5029 143.283 99.9104 144.533 108.633 147.621C124.329 153.177 137.806 165.952 144.693 181.795C150.893 196.056 151.152 211.165 145.421 224.34C139.179 238.683 128.542 249.07 114.659 254.377C108.163 256.859 101.177 258.091 94.0771 258.091ZM68.4623 249.647C83.1599 256.358 99.6279 257.133 113.66 251.768C126.827 246.735 136.924 236.865 142.86 223.225C148.278 210.769 148.02 196.451 142.132 182.91C135.548 167.765 122.675 155.557 107.699 150.255C99.4023 147.318 91.4302 146.116 84.0059 146.683C74.1669 149.58 65.2698 155.029 58.2176 162.477C45.9959 175.388 40.5385 192.852 43.2498 210.392C44.7672 220.15 48.7764 229.351 54.8899 237.107C56.1828 238.745 57.5616 240.313 59.0205 241.805C59.6814 242.486 60.4117 243.196 61.2511 243.979C63.504 246.053 65.915 247.948 68.4623 249.647Z" fill="#371A45"/>
<path d="M93.7096 252.153C74.9252 252.153 56.6067 242.495 44.8551 226.064L44.737 225.899L42.3412 219.46C42.2512 219.047 40.133 209.298 39.6976 199.032C39.2548 188.504 45.5466 175.694 45.8109 175.157L45.9332 174.952C62.1707 151.998 82.6643 144.704 106.855 153.271C120.893 158.241 132.953 169.667 139.113 183.837C144.662 196.603 144.895 210.129 139.76 221.927C132.325 239.028 117.62 249.933 99.4289 251.857C97.5289 252.056 95.6199 252.154 93.7096 252.153ZM47.4822 224.435C59.7914 241.525 79.5556 250.854 99.105 248.785C116.162 246.983 129.95 236.743 136.932 220.692C141.719 209.688 141.489 197.034 136.284 185.062C130.459 171.663 119.072 160.864 105.826 156.175C83.1327 148.142 63.8584 155.023 48.533 176.628C47.9431 177.851 42.3949 189.642 42.7857 198.902C43.183 208.342 45.1054 217.614 45.3351 218.695L47.4822 224.435Z" fill="#371A45"/>
<path d="M164.229 227.838C160.919 239.007 151.45 246.414 143.08 244.379C134.71 242.344 130.606 231.64 133.91 220.471C133.929 220.401 133.954 220.327 133.977 220.257C137.341 209.207 146.748 201.909 155.062 203.93C161.531 205.5 165.452 212.247 165.377 220.383C165.341 222.909 164.955 225.418 164.229 227.838Z" fill="white"/>
<path d="M145.891 245.007C144.919 245.008 143.951 244.894 143.007 244.665C139.656 243.851 136.882 241.678 134.986 238.387C132.22 233.579 131.711 226.852 133.626 220.391C133.645 220.321 133.671 220.242 133.695 220.167C137.09 209.015 146.709 201.603 155.129 203.645C161.511 205.195 165.746 211.923 165.669 220.386C165.635 222.94 165.246 225.476 164.512 227.922C161.537 237.958 153.592 245.007 145.891 245.007ZM152.252 203.891C144.874 203.891 137.196 210.68 134.255 220.342C134.231 220.415 134.209 220.484 134.191 220.549C132.319 226.864 132.808 233.419 135.495 238.089C137.309 241.242 139.956 243.318 143.145 244.093C151.354 246.089 160.685 238.758 163.946 227.754C164.664 225.361 165.046 222.879 165.08 220.38C165.155 212.196 161.1 205.7 154.989 204.216C154.093 203.999 153.175 203.89 152.253 203.891H152.252Z" fill="#371A45"/>
<g opacity="0.3">
<path opacity="0.3" d="M164.229 227.838C160.919 239.008 151.45 246.414 143.08 244.379C134.71 242.344 130.606 231.64 133.91 220.471C133.929 220.401 133.954 220.327 133.977 220.257C134.555 221.627 135.657 223.104 137.71 223.195C141.308 223.353 149.538 217.654 149.538 217.654C149.538 217.654 156.414 218.793 165.377 220.38C165.342 222.907 164.955 225.417 164.229 227.838Z" fill="#371A45"/>
</g>
<path d="M145.867 246.275C144.802 246.277 143.742 246.15 142.708 245.899C139.01 245.001 135.959 242.62 133.885 239.016C130.904 233.837 130.365 226.914 132.407 220.024C135.943 208.085 146.273 200.181 155.432 202.408C159.129 203.307 162.18 205.687 164.255 209.291C167.235 214.471 167.774 221.393 165.733 228.283C162.597 238.864 154.128 246.275 145.867 246.275ZM152.206 205.157C145.322 205.157 138.148 211.672 135.41 220.914C133.638 226.897 134.082 233.08 136.6 237.454C138.236 240.297 140.603 242.163 143.447 242.856C151.01 244.695 159.658 237.757 162.729 227.393C164.501 221.411 164.056 215.228 161.54 210.854C159.903 208.011 157.536 206.145 154.691 205.452C153.877 205.255 153.043 205.156 152.206 205.157Z" fill="#371A45"/>
<path d="M165.127 231.986C168.596 223.399 166.146 214.312 159.655 211.689C153.164 209.067 145.09 213.902 141.621 222.488C138.152 231.075 140.601 240.162 147.092 242.785C153.583 245.407 161.658 240.572 165.127 231.986Z" fill="white"/>
<path d="M150.776 243.67C148.159 243.67 145.791 242.72 143.872 240.886C138.61 235.856 138.581 225.648 143.809 218.131C146.723 213.941 150.756 211.3 154.875 210.886C157.936 210.577 160.711 211.521 162.9 213.612C168.162 218.642 168.187 228.85 162.963 236.368C160.049 240.558 156.016 243.199 151.893 243.613C151.517 243.651 151.144 243.67 150.776 243.67ZM155.993 211.151C155.636 211.151 155.274 211.17 154.907 211.206C150.882 211.611 146.934 214.202 144.073 218.311C138.933 225.703 138.943 235.724 144.095 240.649C146.214 242.674 148.9 243.588 151.865 243.292C155.889 242.888 159.838 240.297 162.698 236.188C167.839 228.795 167.829 218.774 162.677 213.849C160.819 212.071 158.525 211.151 155.992 211.151H155.993Z" fill="#371A45"/>
<g opacity="0.3">
<path opacity="0.3" d="M139.871 230.696C139.991 227.523 140.996 224.375 142.603 221.613C142.945 228.874 148.234 233.344 154.942 231.733C159.275 230.696 163.203 227.355 165.688 223.08C165.713 223.538 165.712 224.012 165.694 224.492C165.381 232.573 159.347 240.512 152.215 242.224C145.083 243.937 139.557 238.774 139.871 230.696Z" fill="#371A45"/>
</g>
<path d="M150.506 244.93C149.764 244.932 149.025 244.849 148.302 244.682C145.592 244.046 143.346 242.298 141.8 239.627C139.408 235.489 139.021 229.556 140.764 223.759C143.702 213.984 151.809 207.373 158.842 209.026C161.552 209.662 163.799 211.409 165.344 214.08C167.739 218.218 168.124 224.15 166.38 229.949C163.746 238.71 156.95 244.93 150.506 244.93ZM156.558 211.554C151.346 211.554 145.716 216.98 143.436 224.563C141.911 229.637 142.203 234.746 144.217 238.231C145.365 240.213 146.999 241.509 148.94 241.965C154.558 243.279 161.185 237.533 163.708 229.145C165.233 224.07 164.941 218.961 162.927 215.477C161.779 213.494 160.146 212.199 158.203 211.743C157.664 211.616 157.112 211.551 156.559 211.55L156.558 211.554Z" fill="#371A45"/>
<g opacity="0.5">
<path opacity="0.5" d="M115.985 171.35C115.985 171.35 90.7009 164.151 72.0569 173.35L71.9974 173.38C68.0896 175.315 64.7696 178.259 62.3805 181.907C59.2321 186.713 57.7773 190.482 56.6274 193.85C53.1345 204.094 53.4443 209.546 53.4443 209.546C49.3724 202.147 48.134 194.884 50.9569 186.323C51.2377 185.479 51.5577 184.621 51.9168 183.749C51.9994 183.548 52.082 183.351 52.1729 183.153C52.1729 183.149 52.1729 183.146 52.1804 183.141C53.2597 180.968 54.4703 178.862 55.8054 176.836C60.5366 169.648 68.5756 160.91 80.2248 159.51C102.008 156.895 117.207 170.568 115.985 171.35Z" fill="white"/>
<path opacity="0.5" d="M53.8084 210.821L53.1846 209.689C48.755 201.638 47.9801 194.405 50.6765 186.232C50.9549 185.394 51.2804 184.522 51.6431 183.638C51.7191 183.451 51.7984 183.266 51.8819 183.081L51.8951 182.959L51.9579 182.926C53.0317 180.772 54.2339 178.684 55.5581 176.674C60.2885 169.493 68.401 160.635 80.189 159.219C91.1128 157.906 100.041 160.706 105.606 163.287C111.949 166.228 115.88 169.787 116.298 170.953C116.442 171.354 116.238 171.537 116.144 171.598L116.032 171.67L115.904 171.633C115.656 171.561 90.5114 164.57 72.1863 173.616L71.9971 173.381L72.1277 173.645C68.2671 175.558 64.9873 178.467 62.6272 182.071C59.4186 186.968 57.9919 190.769 56.9063 193.948C53.4779 204.003 53.7349 209.479 53.7382 209.533L53.8084 210.821ZM52.4238 183.311C52.3412 183.492 52.2635 183.674 52.1883 183.859C51.8298 184.732 51.5093 185.594 51.235 186.415C48.7095 194.073 49.2961 200.894 53.1574 208.384C53.2466 206.268 53.7629 201.335 56.3479 193.754C57.445 190.541 58.8874 186.699 62.1307 181.745C64.5497 178.053 67.91 175.074 71.865 173.115L71.9236 173.086C89.1467 164.588 112.256 170.078 115.646 170.955C115.45 170.636 114.961 170.036 113.892 169.118C108.828 164.767 96.0481 157.91 80.2592 159.803C68.6935 161.193 60.7115 169.921 56.0497 176.998C54.7208 179.016 53.516 181.113 52.442 183.277L52.4238 183.311Z" fill="#371A45"/>
</g>
<g opacity="0.5">
<path opacity="0.5" d="M134 202.095C134.281 197.023 130.952 192.715 126.565 192.472C122.178 192.229 118.394 196.143 118.113 201.215C117.832 206.287 121.161 210.595 125.548 210.838C129.935 211.081 133.719 207.166 134 202.095Z" fill="white"/>
<path opacity="0.5" d="M125.937 211.145C125.779 211.145 125.621 211.14 125.462 211.13C120.924 210.828 117.502 206.338 117.833 201.113C118.008 198.369 119.206 195.831 121.121 194.149C122.712 192.752 124.683 192.058 126.667 192.186C131.205 192.487 134.627 196.977 134.296 202.203C134.121 204.947 132.922 207.49 131.007 209.167C129.544 210.452 127.759 211.145 125.937 211.145ZM126.193 192.758C124.512 192.758 122.864 193.4 121.509 194.591C119.709 196.171 118.583 198.562 118.419 201.152C118.107 206.052 121.285 210.266 125.501 210.546C127.333 210.667 129.148 210.021 130.623 208.728C132.423 207.148 133.549 204.757 133.714 202.167C134.024 197.267 130.848 193.053 126.631 192.773C126.483 192.758 126.337 192.758 126.193 192.758Z" fill="#371A45"/>
</g>
<g opacity="0.5">
<path opacity="0.5" d="M125.21 222.118C127.034 222.048 128.448 220.292 128.367 218.195C128.287 216.098 126.744 214.455 124.919 214.525C123.095 214.594 121.681 216.351 121.762 218.447C121.842 220.544 123.386 222.187 125.21 222.118Z" fill="white"/>
<path opacity="0.5" d="M125.091 222.432C123.131 222.432 121.507 220.638 121.456 218.402C121.43 217.225 121.851 216.096 122.612 215.306C122.915 214.982 123.279 214.721 123.683 214.539C124.087 214.358 124.524 214.258 124.967 214.247C126.949 214.228 128.602 216.02 128.655 218.276C128.682 219.453 128.26 220.581 127.499 221.373C127.196 221.697 126.832 221.957 126.428 222.139C126.024 222.32 125.587 222.42 125.144 222.431L125.091 222.432ZM125.021 214.832H124.977C124.611 214.842 124.252 214.925 123.919 215.076C123.586 215.227 123.286 215.443 123.037 215.711C122.384 216.389 122.023 217.363 122.046 218.386C122.088 220.301 123.45 221.84 125.091 221.84H125.136C125.502 221.83 125.861 221.747 126.194 221.596C126.528 221.445 126.827 221.23 127.077 220.962C127.728 220.283 128.089 219.31 128.068 218.286C128.024 216.373 126.663 214.834 125.021 214.834V214.832Z" fill="#371A45"/>
</g>
<path d="M34.6221 393.645C34.1662 393.644 33.7264 393.476 33.3862 393.172C33.0461 392.869 32.8295 392.451 32.7774 391.998C28.4981 354.606 28.7881 323.438 33.6415 299.358C33.6866 299.115 33.7793 298.884 33.9144 298.678C34.0495 298.472 34.2242 298.295 34.4284 298.157C34.6326 298.019 34.8622 297.923 35.1038 297.875C35.3454 297.826 35.5943 297.826 35.8359 297.875C36.0775 297.924 36.307 298.02 36.5111 298.158C36.7151 298.296 36.8897 298.473 37.0246 298.68C37.1595 298.886 37.252 299.117 37.2968 299.359C37.3416 299.602 37.3378 299.85 37.2856 300.091C32.5097 323.79 32.2355 354.57 36.471 391.575C36.5006 391.836 36.4748 392.099 36.3954 392.349C36.3159 392.598 36.1845 392.828 36.0099 393.023C35.8353 393.218 35.6213 393.374 35.3822 393.48C35.143 393.587 34.884 393.642 34.6221 393.641V393.645Z" fill="#371A45"/>
<path d="M49.5199 266.639C48.6111 267.747 47.7801 269.035 47.0564 270.33C46.6846 270.977 46.3302 271.636 45.9874 272.298C45.666 272.976 45.3141 273.631 45.0192 274.321C43.776 277.042 42.6922 279.833 41.7733 282.68C41.2727 284.089 40.8852 285.54 40.4466 286.969C40.2186 287.682 40.05 288.415 39.8551 289.138L39.2685 291.307L38.2383 295.686C37.9211 297.154 37.6245 298.626 37.2866 300.09L37.2726 300.149C37.1581 300.621 36.8634 301.03 36.4516 301.287C36.0398 301.545 35.5436 301.631 35.0692 301.527C34.5947 301.423 34.1797 301.138 33.9129 300.732C33.6462 300.326 33.5488 299.832 33.6418 299.356C33.9541 297.845 34.3076 296.344 34.6414 294.839C35.0313 293.345 35.4502 291.858 35.8599 290.37C36.7612 287.412 37.7526 284.48 38.9637 281.625C39.5312 280.185 40.2219 278.79 40.8761 277.388L41.9608 275.323C42.3227 274.638 42.7308 273.972 43.1249 273.305C44.7655 270.661 46.5219 268.092 48.949 265.998C49.0298 265.929 49.1335 265.892 49.2399 265.896C49.3462 265.899 49.4475 265.942 49.5236 266.017C49.5997 266.091 49.6452 266.191 49.6511 266.297C49.657 266.404 49.6229 266.508 49.5554 266.591L49.5199 266.639Z" fill="#371A45"/>
<path d="M12.7658 272.339C11.4898 272.338 10.2169 272.213 8.96564 271.963C8.59843 271.889 8.27536 271.673 8.06752 271.362C7.85969 271.05 7.7841 270.669 7.85739 270.302C7.93068 269.934 8.14684 269.611 8.45833 269.404C8.76981 269.196 9.1511 269.12 9.51831 269.193C22.1902 271.721 32.8225 258.156 32.9274 258.018C33.156 257.721 33.4931 257.527 33.8644 257.479C34.2358 257.431 34.611 257.533 34.9076 257.762C35.2041 257.99 35.3977 258.327 35.4458 258.699C35.4938 259.07 35.3923 259.445 35.1637 259.742C34.7292 260.304 25.2923 272.339 12.7658 272.339Z" fill="#371A45"/>
<path d="M27.7368 240.462C28.0854 241.371 28.4481 242.393 28.7951 243.364L29.3246 244.837L29.8657 246.304C30.5993 248.255 31.3246 250.212 32.202 252.094C32.6448 253.032 33.0975 253.966 33.6064 254.865C33.8542 255.319 34.1293 255.754 34.3912 256.204C34.6721 256.635 34.9464 257.077 35.2529 257.491C36.4342 259.193 37.8519 260.718 39.6057 261.968H39.6123C39.6684 262.008 39.7086 262.066 39.7259 262.132C39.7432 262.199 39.7363 262.269 39.7066 262.331C39.6769 262.393 39.6262 262.442 39.5635 262.47C39.5009 262.498 39.4304 262.503 39.3645 262.484C37.1868 261.885 35.1769 260.613 33.4792 259.082C32.6257 258.316 31.8306 257.488 31.1008 256.604C30.3664 255.731 29.6836 254.816 29.0561 253.864C27.7926 251.985 26.7092 249.991 25.8202 247.909C25.5963 247.391 25.3972 246.865 25.2006 246.339C25.004 245.813 24.8214 245.281 24.6562 244.742C24.3055 243.654 24.0346 242.542 23.8458 241.415C23.7654 240.925 23.8699 240.422 24.1392 240.004C24.4085 239.586 24.8234 239.283 25.3033 239.154C25.7832 239.025 26.2941 239.078 26.7368 239.304C27.1796 239.53 27.5227 239.912 27.6996 240.377L27.7368 240.462Z" fill="#371A45"/>
<path d="M9.98657 209.853L28.2753 203.979H50.8368C50.8368 203.979 46.4096 217.729 46.4872 225.605C46.5649 233.482 47.2307 234.684 47.2307 234.684C47.2307 234.684 51.6356 238.822 50.8351 250.57C50.8351 250.57 47.4976 253.239 42.5582 251.637V253.774H19.1979C19.1979 253.774 21.2004 225.605 9.98657 209.853Z" fill="#4ED31C"/>
<g opacity="0.3">
<path opacity="0.3" d="M50.8368 250.57C50.8368 250.57 47.4992 253.239 42.5598 251.637V253.774H19.1979C19.1979 253.774 21.2004 225.603 9.98657 209.853L11.391 209.398C13.952 216.041 19.0004 225.653 27.6351 229.194C33.1453 231.453 40.2582 232.227 46.8011 232.345C47.0044 234.272 47.234 234.684 47.234 234.684C47.234 234.684 51.6406 238.822 50.8368 250.57Z" fill="#371A45"/>
</g>
<g opacity="0.6">
<path opacity="0.6" d="M30.2108 207.96H49.4289C50.208 205.107 50.8333 203.155 50.8333 203.155H28.2719L9.98315 209.029C11.0042 210.475 11.9155 211.997 12.7094 213.58L30.2108 207.96Z" fill="white"/>
</g>
<path d="M26.4613 248.435H20.4471C20.3758 248.435 20.3054 248.419 20.2405 248.39C20.1756 248.36 20.1178 248.317 20.0709 248.263C20.0239 248.21 19.989 248.147 19.9684 248.078C19.9478 248.01 19.9421 247.938 19.9515 247.868C21.4079 237.119 18.3678 224.434 16.4264 217.829C16.4003 217.74 16.3995 217.645 16.4242 217.555C16.4489 217.466 16.498 217.385 16.566 217.322C17.0815 216.841 17.3921 216.026 17.3921 215.143C17.3921 214.385 17.1616 213.667 16.7593 213.174C16.7095 213.113 16.6749 213.041 16.6582 212.964C16.6415 212.887 16.6433 212.807 16.6633 212.731C16.6834 212.654 16.7212 212.584 16.7736 212.525C16.826 212.466 16.8916 212.421 16.965 212.392L23.1246 209.987C23.206 209.956 23.2943 209.946 23.3806 209.959C23.467 209.972 23.5485 210.007 23.617 210.061C23.6854 210.115 23.7386 210.187 23.771 210.268C23.8035 210.349 23.8142 210.437 23.802 210.523C23.7782 210.686 23.766 210.849 23.7657 211.013C23.7657 212.772 25.0875 214.203 26.7075 214.203C26.9424 214.203 27.1763 214.173 27.4031 214.111C27.5261 214.078 27.6573 214.092 27.7699 214.152C27.8824 214.212 27.9679 214.313 28.0086 214.433C32.4945 227.661 30.7745 240.652 29.8261 245.624C29.8078 245.719 29.7622 245.807 29.6949 245.877C29.6276 245.946 29.5415 245.995 29.447 246.017C29.3525 246.039 29.2537 246.033 29.1626 245.999C29.0715 245.966 28.9921 245.907 28.9339 245.829C28.8159 245.665 28.661 245.531 28.4815 245.438C28.3021 245.345 28.1033 245.296 27.9013 245.294C27.1693 245.294 26.5737 245.942 26.5737 246.737C26.5703 247.06 26.672 247.375 26.8636 247.635C26.9191 247.71 26.9528 247.798 26.9609 247.891C26.969 247.983 26.9512 248.076 26.9096 248.159C26.8679 248.242 26.804 248.312 26.725 248.361C26.646 248.409 26.555 248.435 26.4621 248.435H26.4613ZM21.0155 247.435H25.6674C25.6046 247.208 25.5729 246.973 25.5732 246.737C25.5732 245.39 26.6166 244.294 27.9004 244.294C28.285 244.293 28.6632 244.392 28.9983 244.58C29.9286 239.23 31.2016 227.331 27.1982 215.17C27.0339 215.192 26.8683 215.203 26.7025 215.203C24.5877 215.203 22.8561 213.424 22.7644 211.2L17.9002 213.1C18.228 213.731 18.3954 214.433 18.3876 215.144C18.3876 216.176 18.0472 217.153 17.4657 217.826C19.3996 224.461 22.3001 236.779 21.0155 247.435Z" fill="#371A45"/>
<path d="M42.5599 255.774H19.1979C18.9233 255.774 18.6516 255.718 18.3997 255.608C18.1478 255.499 17.9212 255.338 17.734 255.138C17.5468 254.937 17.4029 254.699 17.3114 254.44C17.2199 254.181 17.1826 253.906 17.202 253.632C17.221 253.358 19.0195 225.987 8.35672 211.013C8.17431 210.756 8.05491 210.46 8.00823 210.149C7.96155 209.838 7.9889 209.52 8.08805 209.222C8.1872 208.923 8.35536 208.652 8.57888 208.431C8.8024 208.209 9.07499 208.044 9.3745 207.948L27.6632 202.074C27.8611 202.01 28.0676 201.978 28.2754 201.978H50.8368C51.1518 201.979 51.4622 202.053 51.7427 202.197C52.0232 202.34 52.266 202.547 52.4512 202.802C52.6364 203.057 52.7588 203.352 52.8084 203.663C52.8581 203.974 52.8336 204.292 52.7369 204.592C52.694 204.726 48.4105 218.127 48.484 225.585C48.5369 230.99 48.8707 233.045 49.0119 233.681C50.2156 235.132 53.5482 240.161 52.8286 250.709C52.8103 250.985 52.7347 251.254 52.6067 251.5C52.4787 251.746 52.3011 251.962 52.0851 252.135C51.9405 252.251 49.0086 254.549 44.5335 254.095C44.4573 254.563 44.2169 254.99 43.8554 255.297C43.4938 255.605 43.0346 255.774 42.5599 255.774ZM21.2963 251.773H40.559V251.637C40.5594 251.322 40.6343 251.011 40.7777 250.73C40.9212 250.449 41.129 250.206 41.3843 250.021C41.6396 249.835 41.9351 249.713 42.2466 249.664C42.5582 249.615 42.877 249.64 43.177 249.737C45.8396 250.6 47.8859 249.924 48.8979 249.417C49.3193 239.685 45.8983 236.178 45.8628 236.144C45.712 236.002 45.5841 235.838 45.4836 235.657C44.7277 234.298 44.5244 229.452 44.4864 225.627C44.4269 219.562 46.8417 210.436 48.1387 205.981H28.5918L13.1003 210.957C21.4285 224.787 21.5169 245.136 21.2963 251.773Z" fill="#371A45"/>
<path d="M32.5686 255.775C32.4487 255.775 32.3289 255.764 32.2109 255.742C31.9524 255.696 31.7055 255.599 31.4845 255.457C31.2634 255.314 31.0726 255.13 30.9227 254.914C30.7729 254.698 30.6671 254.455 30.6113 254.198C30.5555 253.942 30.5508 253.676 30.5975 253.418C36.7992 219.079 26.7874 205.328 26.6858 205.194C26.3711 204.772 26.2348 204.244 26.3066 203.723C26.3783 203.202 26.6523 202.73 27.0693 202.41C27.4862 202.089 28.0126 201.946 28.5345 202.01C29.0564 202.075 29.5319 202.342 29.8581 202.755C30.3199 203.352 41.0934 217.804 34.5356 254.13C34.452 254.591 34.2093 255.008 33.8499 255.308C33.4905 255.609 33.0371 255.774 32.5686 255.775Z" fill="#371A45"/>
<path d="M42.5615 253.083C42.4966 253.083 42.4317 253.079 42.3674 253.07C41.9875 253.019 41.6435 252.819 41.4111 252.514C41.1788 252.209 41.077 251.825 41.1282 251.445C41.1736 251.103 45.595 217.203 35.608 204.889C35.3837 204.59 35.2842 204.215 35.3304 203.844C35.3766 203.473 35.5649 203.134 35.8557 202.898C36.1465 202.663 36.5172 202.55 36.8899 202.582C37.2626 202.614 37.6083 202.79 37.8543 203.072C48.6252 216.353 44.1873 250.392 43.9932 251.835C43.9455 252.18 43.7743 252.497 43.5111 252.727C43.2479 252.956 42.9106 253.083 42.5615 253.083Z" fill="#371A45"/>
<path d="M27.5268 237.722L34.0606 234.817H49.2349V222.96H33.4823L26.1348 226.633" fill="#FCCE00"/>
<path d="M27.6104 237.911L27.4427 237.534L34.0607 234.61H49.0285V223.166H33.5312L26.2274 226.817L26.0432 226.448L33.4329 222.753H49.4415V235.023H34.1045L27.6104 237.911Z" fill="#371A45"/>
<path d="M27.5276 239.724C27.0692 239.723 26.6246 239.566 26.2684 239.277C25.9121 238.989 25.6657 238.587 25.5703 238.138C25.4749 237.69 25.5364 237.222 25.7444 236.814C25.9524 236.405 26.2944 236.08 26.7131 235.894L33.2477 232.988C33.5037 232.875 33.7806 232.816 34.0606 232.816H47.234V224.961H33.9541L27.0295 228.422C26.794 228.545 26.5364 228.62 26.2717 228.642C26.0071 228.664 25.7407 228.633 25.488 228.551C25.2354 228.469 25.0016 228.338 24.8002 228.165C24.5989 227.992 24.434 227.78 24.3152 227.543C24.1965 227.305 24.1262 227.046 24.1085 226.781C24.0907 226.516 24.126 226.25 24.212 225.999C24.2981 225.748 24.4334 225.516 24.6099 225.318C24.7864 225.12 25.0006 224.958 25.2401 224.843L32.5868 221.17C32.8646 221.032 33.1709 220.959 33.4815 220.959H49.2349C49.7655 220.959 50.2743 221.17 50.6495 221.545C51.0246 221.92 51.2355 222.429 51.2357 222.96V234.816C51.2357 235.347 51.0249 235.856 50.6497 236.231C50.2745 236.606 49.7655 236.817 49.2349 236.817H34.4853L28.3389 239.55C28.0836 239.664 27.8072 239.723 27.5276 239.724Z" fill="#371A45"/>
<path d="M28.0663 230.555C26.395 223.523 17.8686 220.663 12.113 225.037C8.91921 227.464 5.74276 231.582 3.84515 238.555C3.68489 239.144 3.54444 239.75 3.42383 240.372C7.8312 243.786 13.5439 245.839 19.3399 247.089C19.6621 246.89 30.3745 240.268 28.0663 230.555Z" fill="#F9F9F9"/>
<path d="M36.3259 290.969C27.2237 290.969 18.9575 286.689 12.3245 278.515C3.23716 267.319 -1.17599 249.931 2.05168 238.066C3.80884 231.609 6.81511 226.728 10.9887 223.557C12.5917 222.338 14.4746 221.54 16.4653 221.236C18.4561 220.932 20.4913 221.132 22.3851 221.817C26.1596 223.168 28.9602 226.278 29.8755 230.125C32.5018 241.18 20.7882 248.387 20.2842 248.689C19.8621 248.944 19.3561 249.02 18.8775 248.902C18.3988 248.784 17.9867 248.48 17.7319 248.058C17.4771 247.636 17.4004 247.13 17.5187 246.651C17.637 246.173 17.9406 245.761 18.3627 245.506C18.4618 245.445 28.2547 239.387 26.2588 230.985C25.626 228.322 23.7573 226.256 21.1368 225.317C19.8255 224.841 18.4158 224.702 17.0367 224.911C15.6575 225.121 14.353 225.673 13.2424 226.517C9.73628 229.181 7.18026 233.395 5.64202 239.043C2.70019 249.858 6.81511 265.82 15.2151 276.172C19.5804 281.553 27.0428 287.833 37.8253 287.208C38.0708 287.19 38.3173 287.222 38.5505 287.3C38.7837 287.379 38.999 287.503 39.1839 287.665C39.3688 287.828 39.5196 288.025 39.6276 288.246C39.7355 288.467 39.7985 288.708 39.8128 288.953C39.8272 289.199 39.7926 289.445 39.7111 289.677C39.6295 289.91 39.5027 290.123 39.338 290.306C39.1732 290.489 38.9738 290.637 38.7513 290.742C38.5288 290.847 38.2876 290.907 38.0418 290.919C37.4651 290.952 36.8926 290.969 36.3259 290.969Z" fill="#371A45"/>
<path d="M116.336 313.712C116.034 313.712 115.74 313.618 115.494 313.442C115.249 313.267 115.064 313.019 114.967 312.733C114.869 312.447 114.864 312.138 114.951 311.849C115.038 311.56 115.213 311.305 115.452 311.121C115.969 310.724 128.321 301.455 147.15 307.123C147.517 307.234 147.825 307.486 148.007 307.824C148.188 308.161 148.228 308.558 148.118 308.925C148.007 309.292 147.755 309.6 147.417 309.782C147.08 309.963 146.683 310.003 146.316 309.893C128.968 304.671 117.328 313.327 117.213 313.415C116.961 313.608 116.653 313.712 116.336 313.712Z" fill="#371A45"/>
<path d="M34.8049 300.012L55.1846 304.083C55.6557 304.177 56.1407 304.177 56.612 304.084C57.0833 303.991 57.5316 303.805 57.9313 303.539C58.3309 303.272 58.6742 302.93 58.9414 302.53C59.2086 302.131 59.3946 301.683 59.4887 301.212L61.041 293.446C61.2309 292.495 61.035 291.507 60.4965 290.7C59.958 289.892 59.1209 289.332 58.1694 289.142L37.7897 285.071C36.8382 284.881 35.8503 285.077 35.0432 285.616C34.2361 286.154 33.6758 286.991 33.4856 287.943L31.9333 295.708C31.7434 296.66 31.9393 297.648 32.4778 298.455C33.0163 299.262 33.8534 299.822 34.8049 300.012Z" fill="white"/>
<path d="M55.9127 305.807C55.5595 305.807 55.2072 305.772 54.861 305.702L34.4822 301.633C33.102 301.355 31.8882 300.541 31.107 299.37C30.3257 298.199 30.0407 296.766 30.3144 295.385L31.8658 287.619C32.1428 286.238 32.9564 285.024 34.1279 284.242C35.2995 283.461 36.7333 283.176 38.1146 283.451L58.4976 287.515C59.8779 287.793 61.0916 288.607 61.8729 289.778C62.6541 290.95 62.9391 292.383 62.6654 293.764L61.1139 301.53C60.8734 302.732 60.2246 303.814 59.2774 304.593C58.3303 305.372 57.143 305.799 55.9168 305.802L55.9127 305.807ZM35.129 298.392L55.5079 302.461C55.7663 302.513 56.0323 302.514 56.2909 302.463C56.5494 302.412 56.7954 302.31 57.0147 302.164C57.2339 302.018 57.4223 301.83 57.5689 301.611C57.7154 301.392 57.8174 301.146 57.8689 300.888L59.4204 293.122C59.524 292.6 59.4164 292.059 59.1213 291.616C58.8261 291.173 58.3674 290.866 57.8458 290.761L37.467 286.689C36.9451 286.585 36.4034 286.693 35.9607 286.988C35.518 287.283 35.2106 287.742 35.1059 288.264L33.5544 296.029C33.4508 296.551 33.5584 297.093 33.8536 297.535C34.1488 297.978 34.6074 298.285 35.129 298.39V298.392Z" fill="#371A45"/>
<path d="M61.0998 280.009L100.27 288.397C104.574 289.318 107.339 293.592 106.418 297.898L102.212 317.537C101.291 321.839 97.0164 324.605 92.7114 323.683L53.5408 315.293C49.2383 314.372 46.4708 310.098 47.3936 305.793L51.5986 286.153C52.5213 281.852 56.7949 279.089 61.0998 280.009Z" fill="white"/>
<path d="M94.3943 325.517C93.7128 325.517 93.0333 325.445 92.367 325.302L53.1955 316.909C50.6953 316.367 48.5115 314.857 47.1217 312.709C45.7319 310.562 45.2493 307.951 45.7794 305.448L49.9843 285.81C50.5236 283.308 52.0331 281.122 54.1818 279.732C56.3304 278.341 58.9428 277.86 61.446 278.393L100.617 286.781C103.118 287.32 105.304 288.83 106.695 290.978C108.085 293.126 108.567 295.739 108.034 298.242L103.828 317.881C103.36 320.038 102.17 321.971 100.455 323.359C98.7394 324.748 96.6013 325.509 94.3943 325.517ZM59.4228 281.485C57.9706 281.487 56.5629 281.986 55.4336 282.9C54.3044 283.813 53.5216 285.085 53.2153 286.504L49.0103 306.144C48.6637 307.789 48.9816 309.505 49.8946 310.916C50.8077 312.328 52.2419 313.322 53.8845 313.681L93.0552 322.069C94.7006 322.416 96.4163 322.098 97.8284 321.185C99.2405 320.272 100.234 318.838 100.594 317.195L104.8 297.555C105.149 295.909 104.832 294.192 103.918 292.779C103.004 291.366 101.567 290.374 99.9219 290.018L60.7504 281.629C60.3141 281.534 59.8691 281.486 59.4228 281.485Z" fill="#371A45"/>
<g opacity="0.3">
<path opacity="0.3" d="M61.0998 280.009L100.27 288.397C104.574 289.318 107.339 293.592 106.418 297.898L102.212 317.537C101.291 321.839 97.0164 324.605 92.7114 323.683L53.5408 315.293C49.2383 314.372 46.4708 310.098 47.3936 305.793L51.5986 286.153C52.5213 281.852 56.7949 279.089 61.0998 280.009Z" fill="#371A45"/>
</g>
<path d="M51.0955 277.887L90.2662 286.277C94.5694 287.198 97.3345 291.471 96.4142 295.777L92.2076 315.416C91.2864 319.719 87.0112 322.484 82.7071 321.563L43.5356 313.174C39.2324 312.252 36.4657 307.978 37.3893 303.673L41.5942 284.034C42.517 279.731 46.7906 276.965 51.0955 277.887Z" fill="white"/>
<path d="M83.3497 301.746C85.9403 301.746 88.0404 299.525 88.0404 296.785C88.0404 294.045 85.9403 291.824 83.3497 291.824C80.7591 291.824 78.6589 294.045 78.6589 296.785C78.6589 299.525 80.7591 301.746 83.3497 301.746Z" fill="#22A7F0"/>
<g opacity="0.5">
<path opacity="0.5" d="M79.8984 298.851C79.8984 296.111 81.9984 293.89 84.5891 293.89C85.1893 293.892 85.7832 294.014 86.3362 294.247C86.8892 294.48 87.3905 294.821 87.811 295.249C87.1988 293.262 85.4359 291.825 83.35 291.825C80.7592 291.825 78.6592 294.046 78.6592 296.786C78.6559 297.453 78.7841 298.115 79.0366 298.733C79.289 299.351 79.6608 299.913 80.1306 300.387C79.9766 299.89 79.8983 299.372 79.8984 298.851Z" fill="white"/>
</g>
<path d="M83.3498 302.78C80.1941 302.78 77.6265 300.091 77.6265 296.786C77.6265 293.48 80.1941 290.792 83.3498 290.792C86.5056 290.792 89.0732 293.481 89.0732 296.786C89.0732 300.09 86.5032 302.78 83.3498 302.78ZM83.3498 292.857C81.3333 292.857 79.6918 294.619 79.6918 296.786C79.6918 298.952 81.3333 300.715 83.3498 300.715C85.3664 300.715 87.0079 298.952 87.0079 296.786C87.0079 294.619 85.3664 292.857 83.3498 292.857Z" fill="#371A45"/>
<g opacity="0.3">
<path opacity="0.3" d="M93.3153 287.656C93.4833 288.642 93.4625 289.651 93.2542 290.63L89.0476 310.268C88.1264 314.572 83.8512 317.336 79.5471 316.415L40.3756 308.026C39.2725 307.789 38.2329 307.318 37.3264 306.646C37.851 309.793 40.2385 312.468 43.5356 313.172L82.7071 321.562C87.0095 322.483 91.2847 319.718 92.2075 315.415L96.4166 295.777C96.7343 294.268 96.6107 292.7 96.0607 291.26C95.5108 289.82 94.5576 288.569 93.3153 287.656Z" fill="#371A45"/>
</g>
<path d="M84.389 323.393C83.7078 323.393 83.0285 323.32 82.3625 323.177L43.191 314.789C40.6916 314.246 38.5088 312.736 37.1199 310.588C35.7309 308.44 35.2489 305.83 35.779 303.328L39.984 283.689C40.5257 281.189 42.0357 279.005 44.1836 277.614C46.3316 276.224 48.9426 275.741 51.4457 276.271L90.6164 284.662C93.118 285.201 95.3037 286.71 96.6942 288.858C98.0848 291.007 98.5666 293.619 98.0341 296.122L93.8267 315.762C93.3582 317.918 92.1679 319.849 90.4525 321.237C88.7371 322.625 86.5995 323.385 84.3932 323.393H84.389ZM49.42 279.36C47.9685 279.366 46.5624 279.867 45.4337 280.779C44.3049 281.692 43.5208 282.962 43.2109 284.38L39.0059 304.019C38.6593 305.665 38.9772 307.38 39.8902 308.792C40.8032 310.204 42.2374 311.197 43.88 311.556L83.0515 319.945C84.6967 320.291 86.4121 319.973 87.8239 319.06C89.2357 318.147 90.2293 316.713 90.5883 315.07L94.7949 295.431C95.1458 293.785 94.8297 292.068 93.916 290.655C93.0023 289.242 91.5655 288.249 89.9208 287.893L50.7492 279.502C50.3123 279.409 49.8668 279.362 49.42 279.362V279.36Z" fill="#371A45"/>
<path d="M60.8427 318.598C60.7319 318.598 60.6214 318.588 60.5123 318.569C60.0269 318.482 59.5958 318.207 59.3135 317.803C59.0313 317.399 58.9211 316.899 59.0071 316.413L61.6928 301.284L50.8161 294.262C50.4977 294.056 50.2498 293.758 50.1055 293.407C49.9613 293.057 49.9276 292.671 50.0089 292.301L52.9301 279.027C53.0359 278.546 53.3287 278.126 53.7439 277.861C54.1591 277.595 54.6628 277.505 55.1441 277.611C55.6255 277.717 56.0451 278.01 56.3107 278.425C56.5762 278.84 56.6659 279.344 56.5601 279.825L53.9165 291.838L64.7453 298.827C65.0536 299.025 65.2965 299.31 65.4435 299.646C65.5905 299.981 65.635 300.353 65.5715 300.714L62.6701 317.059C62.5945 317.49 62.37 317.879 62.0359 318.161C61.7018 318.442 61.2794 318.597 60.8427 318.598Z" fill="#371A45"/>
<path d="M116.971 316.752L101.064 313.575C100.593 313.481 100.146 313.295 99.7464 313.028C99.3474 312.76 99.0049 312.417 98.7385 312.017C98.4721 311.618 98.2871 311.169 98.1941 310.698C98.101 310.227 98.1017 309.742 98.1961 309.271L99.7451 301.505C99.8387 301.034 100.024 300.586 100.291 300.186C100.558 299.786 100.902 299.443 101.301 299.176C101.701 298.91 102.15 298.724 102.621 298.631C103.093 298.537 103.578 298.538 104.049 298.632L114.061 300.63C115.313 305.949 116.285 311.331 116.971 316.752Z" fill="white"/>
<path d="M118.902 318.826L100.74 315.199C99.3605 314.921 98.1472 314.107 97.3665 312.936C96.5858 311.765 96.3015 310.332 96.5759 308.951L98.1241 301.186C98.2603 300.501 98.5301 299.851 98.9179 299.271C99.3056 298.691 99.8039 298.193 100.384 297.806C100.964 297.419 101.615 297.15 102.299 297.014C102.984 296.879 103.688 296.879 104.372 297.016L115.425 299.221L115.673 300.253C116.936 305.629 117.918 311.067 118.614 316.545L118.902 318.826ZM103.328 300.218C102.864 300.219 102.416 300.38 102.058 300.674C101.7 300.969 101.455 301.378 101.365 301.832L99.8168 309.598C99.7126 310.119 99.8193 310.66 100.114 311.103C100.408 311.546 100.866 311.853 101.386 311.959L115.023 314.685C114.41 310.381 113.629 306.144 112.693 302.046L103.725 300.257C103.595 300.23 103.461 300.215 103.328 300.215V300.218Z" fill="#371A45"/>
<g opacity="0.3">
<path opacity="0.3" d="M114.061 300.631L108.691 299.557C108.871 300.43 109.049 301.318 109.221 302.235C110.052 306.672 106.137 310.548 101.71 309.664L98.2555 308.974L98.1968 309.268C98.1024 309.739 98.1017 310.224 98.1948 310.695C98.2879 311.167 98.4729 311.615 98.7392 312.015C99.0056 312.414 99.3481 312.758 99.7472 313.025C100.146 313.292 100.594 313.478 101.065 313.572L116.972 316.75C116.285 311.329 115.313 305.949 114.061 300.631Z" fill="#371A45"/>
</g>
<path d="M94.048 350.161C90.366 352.32 86.2676 353.86 82.0056 354.727C77.7519 355.561 73.2982 355.948 68.9677 355.155C66.8082 354.763 64.6966 354.164 62.633 353.461L61.0997 352.895L59.5961 352.26C59.0922 352.057 58.6048 351.804 58.1182 351.574L57.3863 351.222L56.6708 350.835C52.8376 348.819 49.4009 346.126 46.5095 343.03C46.4494 342.965 46.4156 342.881 46.4146 342.792C46.4136 342.704 46.4455 342.618 46.5041 342.552C46.5628 342.486 46.6439 342.444 46.7318 342.434C46.8197 342.425 46.908 342.448 46.9796 342.5H46.9853C48.6513 343.732 50.3999 344.848 52.2188 345.84C54.0097 346.827 55.8721 347.678 57.7902 348.387C61.5904 349.833 65.5657 350.681 69.5452 351.062C71.5386 351.227 73.5188 351.415 75.5238 351.547C77.536 351.663 79.5534 351.653 81.5644 351.519C85.657 351.231 89.6985 350.441 93.5978 349.165C93.7271 349.123 93.8676 349.129 93.9922 349.184C94.1168 349.239 94.2166 349.338 94.2724 349.463C94.3283 349.587 94.3361 349.727 94.2945 349.857C94.2529 349.986 94.1648 350.096 94.0472 350.165L94.048 350.161Z" fill="#371A45"/>
<path d="M84.388 395.951H84.3814C84.1187 395.95 83.8587 395.897 83.6163 395.796C83.3739 395.695 83.1538 395.547 82.9686 395.36C82.7834 395.174 82.6367 394.953 82.5369 394.71C82.4372 394.467 82.3863 394.207 82.3872 393.944C82.3872 393.814 82.3871 380.866 79.0157 372.44C75.5716 363.828 69.6045 354.517 69.545 354.424C69.2674 353.978 69.1764 353.44 69.2917 352.928C69.4069 352.415 69.7192 351.968 70.161 351.684C70.6029 351.4 71.1388 351.301 71.6532 351.408C72.1675 351.516 72.6189 351.821 72.9098 352.259C73.1626 352.651 79.1413 361.979 82.7316 370.954C86.3939 380.11 86.3906 393.396 86.3889 393.957C86.3869 394.486 86.1753 394.993 85.8002 395.367C85.4252 395.741 84.9174 395.951 84.388 395.951Z" fill="#371A45"/>
<path d="M147.952 265.09L134.494 263.741C134.332 263.726 134.181 263.651 134.071 263.53C133.961 263.409 133.9 263.252 133.9 263.089C133.9 262.926 133.961 262.769 134.071 262.648C134.181 262.527 134.332 262.452 134.494 262.437L147.952 261.089C148.218 261.057 148.486 261.079 148.743 261.153C149 261.226 149.239 261.351 149.448 261.518C149.656 261.685 149.829 261.892 149.956 262.127C150.083 262.362 150.163 262.619 150.189 262.885C150.216 263.151 150.189 263.419 150.111 263.675C150.033 263.93 149.904 264.167 149.734 264.372C149.563 264.578 149.352 264.747 149.115 264.87C148.878 264.993 148.619 265.068 148.353 265.09C148.22 265.102 148.086 265.102 147.952 265.09Z" fill="#371A45"/>
<g opacity="0.3">
<path opacity="0.3" d="M49.2349 223.566V222.96H48.5847L49.2349 223.566Z" fill="#371A45"/>
</g>
<g opacity="0.3">
<path opacity="0.3" d="M34.6149 223.028L34.6091 222.96H33.4815L26.1348 226.63L27.526 237.72L34.0606 234.814H49.2349V230.339H42.4367C38.311 230.341 34.9297 227.141 34.6149 223.028Z" fill="#371A45"/>
</g>
</g>
<defs>
<clipPath id="clip0_4601_2307">
<rect width="172.659" height="282" fill="white" transform="translate(1 141)"/>
</clipPath>
</defs>
</svg>
