<svg width="312" height="116" viewBox="0 0 312 116" fill="none" xmlns="http://www.w3.org/2000/svg">
<path d="M0 95.0649V71.8735L44.2354 2.29929H65.2795V33.2211H53.2543L29.4187 71.0145V71.8735H94.6982V95.0649H0ZM53.4691 112.244V87.9786L54.1133 77.8861V2.29929H82.0288V112.244H53.4691Z" fill="#371A45"/>
<path d="M155.106 115.25C145.121 115.214 136.496 112.906 129.23 108.325C121.965 103.744 116.364 97.1407 112.427 88.5155C108.49 79.8903 106.54 69.5472 106.576 57.4862C106.612 45.3895 108.58 35.118 112.481 26.6717C116.418 18.2255 122.001 11.8013 129.23 7.39925C136.496 2.99718 145.121 0.796143 155.106 0.796143C165.091 0.796143 173.716 3.01507 180.981 7.45294C188.247 11.855 193.848 18.2792 197.785 26.7254C201.721 35.1717 203.672 45.4253 203.636 57.4862C203.636 69.6188 201.668 79.9976 197.731 88.6228C193.794 97.248 188.193 103.851 180.928 108.432C173.698 112.977 165.091 115.25 155.106 115.25Z" fill="#371A45"/>
<path d="M216.574 95.0649V71.8735L260.809 2.29929H281.853V33.2211H269.828L245.993 71.0145V71.8735H311.272V95.0649H216.574ZM270.043 112.244V87.9786L270.687 77.8861V2.29929H298.603V112.244H270.043Z" fill="#371A45"/>
<path d="M129.107 67V52.3783H139.302V55.2484H132.641V58.247H138.781V61.1242H132.641V64.1299H139.302V67H129.107ZM141.515 67V52.3783H147.555C148.65 52.3783 149.595 52.5759 150.389 52.9709C151.189 53.3612 151.805 53.9228 152.239 54.6558C152.672 55.3841 152.888 56.2479 152.888 57.2475C152.888 58.2613 152.667 59.1228 152.224 59.832C151.782 60.5364 151.153 61.0742 150.339 61.4455C149.526 61.812 148.562 61.9952 147.448 61.9952H143.628V59.2108H146.791C147.324 59.2108 147.769 59.1418 148.126 59.0038C148.488 58.861 148.762 58.6468 148.947 58.3612C149.133 58.0709 149.226 57.6996 149.226 57.2475C149.226 56.7953 149.133 56.4217 148.947 56.1266C148.762 55.8267 148.488 55.603 148.126 55.4555C147.764 55.3031 147.319 55.227 146.791 55.227H145.049V67H141.515ZM149.747 60.3174L153.388 67H149.533L145.963 60.3174H149.747ZM154.827 67V52.3783H160.867C161.961 52.3783 162.906 52.5759 163.701 52.9709C164.501 53.3612 165.117 53.9228 165.55 54.6558C165.983 55.3841 166.2 56.2479 166.2 57.2475C166.2 58.2613 165.978 59.1228 165.536 59.832C165.093 60.5364 164.465 61.0742 163.651 61.4455C162.837 61.812 161.873 61.9952 160.76 61.9952H156.94V59.2108H160.103C160.636 59.2108 161.081 59.1418 161.438 59.0038C161.8 58.861 162.073 58.6468 162.259 58.3612C162.444 58.0709 162.537 57.6996 162.537 57.2475C162.537 56.7953 162.444 56.4217 162.259 56.1266C162.073 55.8267 161.8 55.603 161.438 55.4555C161.076 55.3031 160.631 55.227 160.103 55.227H158.361V67H154.827ZM163.058 60.3174L166.7 67H162.844L159.275 60.3174H163.058ZM181.939 59.6892C181.939 61.2979 181.629 62.6616 181.011 63.7801C180.392 64.8986 179.554 65.7482 178.498 66.3289C177.446 66.9096 176.265 67.1999 174.956 67.1999C173.643 67.1999 172.46 66.9072 171.408 66.3217C170.356 65.7363 169.521 64.8867 168.902 63.773C168.288 62.6544 167.981 61.2932 167.981 59.6892C167.981 58.0804 168.288 56.7168 168.902 55.5982C169.521 54.4797 170.356 53.6301 171.408 53.0495C172.46 52.4688 173.643 52.1784 174.956 52.1784C176.265 52.1784 177.446 52.4688 178.498 53.0495C179.554 53.6301 180.392 54.4797 181.011 55.5982C181.629 56.7168 181.939 58.0804 181.939 59.6892ZM178.326 59.6892C178.326 58.7372 178.191 57.9329 177.919 57.276C177.653 56.6192 177.267 56.1218 176.763 55.7839C176.263 55.4459 175.661 55.277 174.956 55.277C174.257 55.277 173.655 55.4459 173.15 55.7839C172.646 56.1218 172.258 56.6192 171.986 57.276C171.72 57.9329 171.587 58.7372 171.587 59.6892C171.587 60.6411 171.72 61.4455 171.986 62.1023C172.258 62.7591 172.646 63.2565 173.15 63.5945C173.655 63.9324 174.257 64.1014 174.956 64.1014C175.661 64.1014 176.263 63.9324 176.763 63.5945C177.267 63.2565 177.653 62.7591 177.919 62.1023C178.191 61.4455 178.326 60.6411 178.326 59.6892Z" fill="white"/>
</svg>
