<svg width="375" height="32" viewBox="0 0 375 32" fill="none" xmlns="http://www.w3.org/2000/svg">
<g clip-path="url(#clip0_3_2)">
<path d="M-1 0V3.95652H107.25C124.792 3.95652 141.655 10.0264 155.453 20.6393C164.193 27.3635 175.208 31.3768 187.182 31.3768C199.157 31.3768 210.172 27.3635 218.911 20.6393C232.71 10.0264 249.572 3.95652 267.114 3.95652H376.364V0H-1Z" fill="white"/>
<path d="M-10 -62V3.9565H107.25C124.792 3.9565 141.655 10.0264 155.453 20.6393C164.193 27.3635 175.208 31.3768 187.182 31.3768C199.157 31.3768 210.172 27.3635 218.911 20.6393C232.71 10.0264 249.572 3.9565 267.114 3.9565H382.364V-62H-10Z" stroke="#E0E3F9" stroke-miterlimit="10"/>
</g>
<defs>
<clipPath id="clip0_3_2">
<rect width="375" height="83" fill="white" transform="translate(0 -51)"/>
</clipPath>
</defs>
</svg>
