<svg width="61" height="45" viewBox="0 0 61 45" fill="none" xmlns="http://www.w3.org/2000/svg"><g clip-path="url(#a)"><path fill-rule="evenodd" clip-rule="evenodd" d="M58.162 13.585c-.622-.042-1.299-.115-2.007-.342-2.405-.77-4.902-2.928-5.968-3.85-1.347-1.164-4.107-2.408-7.817-2.408-.37 0-.744.012-1.121.037l.06-.455-.448-.35a2.258 2.258 0 0 0-1.331-.444c-.156 0-.313.018-.466.051l-.684.152-2.069 17.84c-.486.12-1.067.37-1.523.882-.22.248-.388.47-.516.664l-3.184-.354a11.14 11.14 0 0 0 2.1-2.66c.662-.321 1.923-1.153 2.515-2.998.754-2.347.41-4.235-.01-5.405-.366-1.014-1-1.544-1.556-1.793-.339-.954-1.217-2.948-3.075-4.67-2.334-2.16-5.096-3.257-8.21-3.257-.087 0-.174 0-.26.003-3.792.074-6.486 2.095-7.222 2.713-1.438 1.208-2.573 2.73-3.381 4.534-1.261.3-3.96 1.491-5.27 6.24l-.006.027c-.055.222-1.297 5.5 2.938 10.895.124.163 1.612 2.079 3.87 3.6-.781 1.546-2.307 5.066-2.95 10.035l-.087.482A32.614 32.614 0 0 0 6.152 45c5.238-1.995 11.029-3.105 17.12-3.105 6.093 0 11.884 1.11 17.121 3.105a32.613 32.613 0 0 0-3.48-1.867l1.539-12.24c1.174-.139 2.066-.85 2.427-1.964.441-1.362.399-2.562-.124-3.473-.245-.427-.693-.95-1.503-1.303l.285-2.472c.78.057 2.007.316 3.312 1.24.663.471 1.294 1.003 1.963 1.565 1.774 1.495 3.608 3.04 6.156 3.471.952.161 1.932.243 2.913.243 1.83 0 3.05-.284 3.102-.297l.384-.09.215-.334c.049-.074 1.188-1.868 2.063-5.903.85-3.92 1.14-7.068 1.153-7.2l.201-1.877s-1.422 1.182-2.838 1.085v.001zM56.49 26.577c-.387.078-1.405.257-2.69.257-1.511 0-3.71-.255-5.591-1.464-.8-.515-1.555-1.16-2.355-1.843-1.858-1.587-3.779-3.228-6.408-3.267.323-.546.75-1.405 1.1-2.575.569-1.897 1.038-5.013.124-9.209.37-.04.956-.089 1.668-.089 2.109 0 5.073.402 7.225 2.322C52.713 13.517 55.68 15 58.141 15c.416 0 .818-.043 1.198-.13-.215 1.99-1.027 8.374-2.85 11.706h.002zm-40.2 3.368a.25.25 0 0 0-.05-.348.244.244 0 0 0-.344.05c-.013.018-.497.68-1.153 1.883-4.443-2.696-7.186-7.424-6.999-12.093.121-3.019 1.909-5.878 4.16-6.648.656-.225 1.113-.237 1.317-.034.188.186.317.704-.131 2.111-.487 1.53-2.14 2.716-2.157 2.727a.25.25 0 0 0-.06.346c.078.112.23.14.342.06.036-.025.472-.337.97-.847.005.128.012.261.023.4-.058.124-.12.244-.18.36-.116.228-.227.444-.284.64l-.01.034c-.297 1.001-.744 2.512.723 4.74 1.397 2.122 3.584 2.276 4.19 2.276l.079-.001a11.047 11.047 0 0 0 11.851.337l6.239.685.165.017.052-.159c.022-.068.546-1.631 1.928-1.59l-.117.998a3.232 3.232 0 0 0-.378.138c-.694.307-1.023 1.557-.928 2.54.023.238.07.45.139.632l-6.205 2.107c-.478-1.175-.804-1.886-.813-1.907a.245.245 0 0 0-.327-.12.25.25 0 0 0-.12.33c.027.059 2.637 5.753 3.978 11.776a32.513 32.513 0 0 0-7.643-1.212 10.261 10.261 0 0 0-1.96-2.578 9.58 9.58 0 0 1 .768-.86.25.25 0 0 0 .013-.35.244.244 0 0 0-.347-.014c-.062.06-1.45 1.378-2.762 3.916-2.943.27-5.773.933-8.44 1.935.96-7.468 4.436-12.229 4.47-12.276zm18.48-11.88c-.352 2.08-1.556 3.079-2.48 3.302-.423.103-.669.016-.73-.067-.334-.453-.45-1.804-.31-3.612.168-1.584.773-4.19 1.68-4.45.361-.102.722-.003 1.043.289.655.594 1.207 2.098.795 4.539h.001zm-1.973-5.304c-1.524.436-1.987 4.425-2.035 4.879v.006c-.09 1.15-.156 3.19.404 3.95.152.207.424.315.766.315.048 0 .097-.003.147-.007-1.944 3.205-5.416 5.18-9.152 5.18-2.206 0-4.274-.673-5.994-1.842a10.78 10.78 0 0 1-3.955-4.933c.937 1.81 2.915 3.564 6.976 4.13.045.006.652.094 1.558.094.744 0 1.69-.06 2.69-.274 2.992-.643 5.01-2.37 5.836-4.998 1.011-3.218.875-5.931-.396-7.846-1.18-1.778-3.331-2.848-6.223-3.092-6.142-.519-8.4 1.132-9.975 3.977a1.02 1.02 0 0 0-.437-.168c1.643-4.028 5.587-6.712 9.921-6.712 4.613 0 8.644 2.915 10.138 7.29-.09.009-.179.024-.269.05v.001zM23.352 9.15l.22.02c-.2.664-.556 2.078-.513 3.63.059 2.148 1.784.28 3.27.898 1.486.619-.555 2.255.363 3.446.755.979 1.046 3.32 1.03 4.446-.909.902-2.134 1.524-3.667 1.857-.146.031-.29.059-.432.084-.016-1.332-.253-4.727-2.23-5.53-2.231-.906-.185-3.432-1.397-4.667-1.212-1.236-1.674 2.966-4.188 2.22-1.656-.492-1.457-2.426-1.127-3.69 1.436-2.076 3.591-3.142 8.671-2.713zm4.493 4.35a.833.833 0 0 1 .942-.713.838.838 0 0 1 .705.952.833.833 0 0 1-.942.712.838.838 0 0 1-.705-.952zm-10.96 5.053a1.396 1.396 0 0 1-1.578 1.193 1.406 1.406 0 0 1-1.181-1.594c.11-.77.817-1.305 1.579-1.194a1.406 1.406 0 0 1 1.18 1.595zm20.984 7.163a5.303 5.303 0 0 0-.6.075l2.196-18.818a.948.948 0 0 1 .578.14L37.87 25.715zm-2.554 16.732l1.455-12.44c.177.038.372.077.578.107l-1.472 12.563a30.263 30.263 0 0 0-.561-.23zm1.335-12.976l-.144-.033c-.25-.056-.43-.4-.479-.918-.083-.865.226-1.855.636-2.036.852-.376 2.001-.273 2.012-.272a.247.247 0 0 0 .268-.224.248.248 0 0 0-.221-.27 5.088 5.088 0 0 0-.439-.017l.076-.65c.957.22 1.865.751 1.542 2.844-.109.707-.37 1.207-.776 1.486-.72.494-1.776.25-2.475.09zm-14.29 9.655c.258.308.533.661.777 1.023-.48.002-.96.015-1.436.037.167-.296.381-.65.659-1.06zm11.134 2.483c-.045-.205-1.044-4.774-2.87-9.444l4.893-1.645-.074.618-1.336 10.856a25.59 25.59 0 0 0-.582-.199l-.032-.186h.001z" fill="#001034"/><path fill-rule="evenodd" clip-rule="evenodd" d="M53.283 18.072a32.02 32.02 0 0 1-.338-.294l-1.02-.894a5148.093 5148.093 0 0 1-4.271-3.743c-.226-.198-.458-.248-.69-.148-.158.068-.35.218-.377.557-.199 2.518-.399 5.035-.6 7.553-.026.337.14.512.285.6a.596.596 0 0 0 .705-.04c.158-.119.32-.236.48-.353l.937-.686c.229.569.46 1.138.69 1.705.12.295.316.447.569.447a.844.844 0 0 0 .32-.07l1.59-.656c.41-.17.543-.49.376-.905l-.689-1.701.312-.047c.466-.07.933-.141 1.399-.209.347-.05.485-.258.54-.424.083-.256.006-.502-.217-.693v.001zm-.25.537c-.01.032-.023.07-.142.088-.468.068-.935.138-1.403.21l-.406.06-.147.024-.36.062.124.335a2.4 2.4 0 0 0 .04.106l.745 1.84c.066.162.054.19-.107.256l-1.589.655c-.154.064-.185.052-.249-.104-.249-.613-.497-1.226-.743-1.838a.4.4 0 0 1-.01-.05l-.011-.056-.046-.215-.339.03-1.223.895c-.162.118-.324.237-.484.357-.069.052-.104.046-.158.013-.028-.017-.056-.034-.048-.135l.599-7.553c.008-.11.045-.125.078-.139.034-.014.068-.028.176.066l4.272 3.742 1.02.893c.114.1.227.2.343.3.092.079.077.122.066.158h.001zM27.584 33.91l.034-4.423a.187.187 0 0 0 .001-.112l.01-1.182-8.898-.07-.009 1.233V29.365l-.035 4.475 8.897.07zm-8.484-.48l.03-3.86 8.078.064-.03 3.858-8.078-.064v.001zm8.115-4.826l-.004.616-8.078-.064.005-.616 8.077.064z" fill="#001034"/><path fill-rule="evenodd" clip-rule="evenodd" d="M22.674 30.385l-2.922-.023a.206.206 0 0 0-.206.206c0 .114.09.208.204.208l2.921.023h.002a.206.206 0 0 0 .205-.206.205.205 0 0 0-.203-.208h-.001zM22.666 31.303l-2.92-.023h-.003a.206.206 0 0 0-.205.205c0 .115.09.208.203.208l2.922.023h.002a.206.206 0 0 0 .205-.205.205.205 0 0 0-.204-.208zM22.66 32.22l-2.922-.024h-.002a.206.206 0 0 0-.205.206c0 .114.09.208.203.208l2.921.023h.002a.206.206 0 0 0 .205-.205.205.205 0 0 0-.204-.209h.001zM25.242 30.126h-.011c-.761 0-1.383.623-1.39 1.392-.002.375.14.728.4.996.26.267.608.416.979.419h.01c.762 0 1.384-.623 1.39-1.392a1.403 1.403 0 0 0-.4-.996 1.372 1.372 0 0 0-.978-.419zm-.018 2.392a.987.987 0 0 1-.972-.997.985.985 0 0 1 .979-.981h.007a.987.987 0 0 1 .972.997.983.983 0 0 1-.987.981z" fill="#001034"/><path d="M44.813 24.486c-.669-.563-1.3-1.095-1.964-1.565-1.304-.924-2.53-1.183-3.311-1.24l-.285 2.472c.81.353 1.257.876 1.503 1.303.522.91.565 2.111.123 3.473-.36 1.112-1.252 1.825-2.426 1.964l-1.54 12.24c.413.19.82.393 1.225.599a24.233 24.233 0 0 0 9.669-16.987c-1.082-.65-2.047-1.46-2.995-2.259zM9.25 43.313c.408-.194.82-.381 1.235-.559l.086-.482c.644-4.97 2.169-8.49 2.95-10.036-2.257-1.52-3.745-3.436-3.87-3.6C5.417 23.24 6.66 17.963 6.715 17.741l.006-.026c1.31-4.75 4.009-5.942 5.27-6.241.808-1.803 1.943-3.325 3.381-4.534.736-.618 3.429-2.64 7.221-2.713.087-.002.173-.003.26-.003 3.115 0 5.877 1.096 8.21 3.258 1.86 1.72 2.737 3.715 3.076 4.67.554.247 1.19.778 1.555 1.792.421 1.17.766 3.058.011 5.405-.592 1.846-1.854 2.677-2.516 2.999a11.161 11.161 0 0 1-2.099 2.659l3.184.354c.128-.195.296-.417.516-.665.456-.512 1.037-.761 1.523-.881l2.07-17.841.683-.152c.145-.032.294-.048.442-.05C35.32 2.174 29.897 0 23.969 0 10.732 0 0 10.838 0 24.207a24.25 24.25 0 0 0 9.25 19.106z" fill="#007689"/><path fill-rule="evenodd" clip-rule="evenodd" d="M33.495 41.61c-.045-.206-1.044-4.775-2.87-9.445l4.893-1.645-.074.618-1.336 10.856a25.59 25.59 0 0 0-.583-.199l-.03-.186zM22.36 39.126c.258.308.533.661.777 1.023-.48.002-.96.015-1.436.037.167-.296.381-.65.659-1.06z" fill="#007689"/></g><defs><clipPath id="a"><path fill="#fff" d="M0 0h61v45H0z"/></clipPath></defs></svg>