<svg width="90" height="29" viewBox="0 0 90 29" fill="none" xmlns="http://www.w3.org/2000/svg">
<path d="M5.2457 25.1062C5.18764 25.034 5.18928 25.0324 5.26335 25.089C5.34116 25.1486 5.36587 25.186 5.32743 25.186C5.31776 25.186 5.28096 25.1501 5.2457 25.1062ZM4.57002 24.4453L4.48105 24.3428L4.58613 24.4296C4.68487 24.5112 4.71247 24.5479 4.6751 24.5479C4.66623 24.5479 4.61897 24.5018 4.57002 24.4453ZM5.90419 23.7844L5.60196 23.4767L5.91722 23.7717C6.09058 23.934 6.23247 24.0724 6.23247 24.0794C6.23247 24.1129 6.18493 24.0702 5.90419 23.7844ZM46.7195 22.0068C46.6614 21.9345 46.6631 21.9329 46.7371 21.9896C46.7821 22.024 46.8189 22.0599 46.8189 22.0693C46.8189 22.1068 46.7805 22.0827 46.7195 22.0068ZM71.5197 22.0068C71.4616 21.9345 71.4633 21.9329 71.5373 21.9896C71.5823 22.024 71.6191 22.0599 71.6191 22.0693C71.6191 22.1068 71.5807 22.0827 71.5197 22.0068ZM44.6645 19.4087C44.6064 19.3364 44.608 19.3348 44.6821 19.3915C44.7599 19.451 44.7847 19.4885 44.7462 19.4885C44.7365 19.4885 44.6997 19.4526 44.6645 19.4087ZM88.4211 10.2511C88.4532 10.2384 88.5058 10.2384 88.5378 10.2511C88.57 10.2637 88.5437 10.274 88.4795 10.274C88.4152 10.274 88.3889 10.2637 88.4211 10.2511ZM5.4852 5.84272C5.4852 5.83328 5.52195 5.79737 5.56693 5.76295C5.641 5.7063 5.64264 5.70789 5.58459 5.78018C5.52354 5.85612 5.4852 5.88023 5.4852 5.84272ZM25.7992 4.41277L25.6383 4.24185L25.8134 4.39892C25.9764 4.54514 26.01 4.5837 25.9744 4.5837C25.9666 4.5837 25.8878 4.50676 25.7992 4.41277ZM14.5809 28.9846C14.6131 28.9719 14.6656 28.9719 14.6977 28.9846C14.7298 28.9972 14.7035 29.0076 14.6393 29.0076C14.5751 29.0076 14.5488 28.9972 14.5809 28.9846ZM16.053 28.9832C16.0985 28.9716 16.1615 28.9724 16.1931 28.9849C16.2248 28.9973 16.1876 29.0068 16.1105 29.0059C16.0335 29.005 16.0076 28.9947 16.053 28.9832ZM16.7323 28.938C16.766 28.9249 16.8063 28.9265 16.8218 28.9416C16.8373 28.9568 16.8097 28.9675 16.7605 28.9656C16.7061 28.9634 16.695 28.9526 16.7323 28.938ZM14.9079 27.6152C14.9657 27.6043 15.0603 27.6043 15.118 27.6152C15.1759 27.6261 15.1286 27.635 15.013 27.635C14.8974 27.635 14.8501 27.6261 14.9079 27.6152ZM15.6324 27.6146C15.7034 27.6041 15.8085 27.6045 15.866 27.6153C15.9234 27.6261 15.8653 27.6346 15.7369 27.6343C15.6084 27.6339 15.5615 27.6251 15.6324 27.6146ZM16.5455 27.5706C16.5792 27.5575 16.6195 27.5591 16.635 27.5742C16.6505 27.5894 16.6229 27.6001 16.5737 27.5982C16.5193 27.596 16.5082 27.5852 16.5455 27.5706ZM12.1555 26.0635C12.7545 26.0562 13.7213 26.0563 14.3039 26.0635C14.8865 26.0707 14.3965 26.0766 13.2148 26.0766C12.0332 26.0766 11.5565 26.0707 12.1555 26.0635ZM12.1555 24.8328C12.7545 24.8256 13.7213 24.8256 14.3039 24.8328C14.8865 24.8401 14.3965 24.8459 13.2148 24.8459C12.0332 24.8459 11.5565 24.84 12.1555 24.8328ZM37.5602 22.3734C37.6183 22.3624 37.7024 22.3629 37.747 22.3743C37.7917 22.3857 37.7441 22.3946 37.6414 22.3941C37.5386 22.3936 37.5021 22.3843 37.5602 22.3734ZM43.8186 22.3734C43.8767 22.3624 43.9608 22.3629 44.0055 22.3743C44.0501 22.3857 44.0026 22.3946 43.8998 22.3941C43.7971 22.3936 43.7605 22.3843 43.8186 22.3734ZM47.7885 22.3734C47.8466 22.3624 47.9307 22.3629 47.9754 22.3743C48.02 22.3857 47.9725 22.3946 47.8697 22.3941C47.767 22.3936 47.7304 22.3843 47.7885 22.3734ZM57.4097 22.3734C57.4678 22.3624 57.5519 22.3629 57.5965 22.3743C57.6412 22.3857 57.5936 22.3946 57.4909 22.3941C57.3881 22.3936 57.3516 22.3843 57.4097 22.3734ZM60.9126 22.3734C60.9707 22.3624 61.0547 22.3629 61.0994 22.3743C61.144 22.3857 61.0965 22.3946 60.9937 22.3941C60.891 22.3936 60.8545 22.3843 60.9126 22.3734ZM72.5887 22.3734C72.6468 22.3624 72.7309 22.3629 72.7756 22.3743C72.8202 22.3857 72.7727 22.3946 72.6699 22.3941C72.5672 22.3936 72.5306 22.3843 72.5887 22.3734ZM85.432 22.3735C85.4898 22.3626 85.5844 22.3626 85.6421 22.3735C85.7 22.3843 85.6527 22.3932 85.5371 22.3932C85.4215 22.3932 85.3742 22.3843 85.432 22.3735ZM40.1518 22.326C40.4793 22.3181 41.0152 22.3181 41.3427 22.326C41.6703 22.3338 41.4023 22.3402 40.7473 22.3402C40.0922 22.3402 39.8243 22.3339 40.1518 22.326ZM50.4758 22.3261C50.7018 22.3177 51.0591 22.3178 51.2698 22.3262C51.4805 22.3346 51.2955 22.3414 50.8588 22.3414C50.4221 22.3414 50.2498 22.3345 50.4758 22.3261ZM63.5283 22.327C63.6122 22.3169 63.7383 22.3171 63.8085 22.3275C63.8787 22.3379 63.81 22.3462 63.6559 22.3459C63.5018 22.3457 63.4443 22.3371 63.5283 22.327ZM66.6333 22.3274C66.704 22.3169 66.8195 22.3169 66.8902 22.3274C66.9608 22.3378 66.9031 22.3464 66.7618 22.3464C66.6205 22.3464 66.5627 22.3378 66.6333 22.3274ZM67.6714 22.3052C67.6585 22.2726 67.6536 21.4562 67.6603 20.4911L67.6725 18.7364L68.5482 18.7348L69.424 18.7333L68.5599 18.7472L67.6959 18.7612V22.3144H68.2072L68.222 21.5966L68.2368 20.8787L68.2349 21.608L68.2329 22.3372L67.9638 22.3509C67.7752 22.3605 67.6878 22.3468 67.6714 22.3052ZM76.2779 22.3271C76.3613 22.317 76.4979 22.317 76.5814 22.3271C76.6649 22.3371 76.5966 22.3454 76.4296 22.3454C76.2627 22.3454 76.1943 22.3371 76.2779 22.3271ZM78.647 22.3052C78.6342 22.2726 78.6292 21.4562 78.6359 20.4911L78.6481 18.7364H79.2086V22.3372L78.9395 22.3509C78.7508 22.3605 78.6633 22.3468 78.647 22.3052ZM79.1852 20.5368V18.7592H78.6715V22.3144H79.1852V20.5368ZM80.1543 22.3278L80.3995 22.3097V20.9902C80.3995 20.2645 80.4153 19.6708 80.4346 19.6707C80.4538 19.6707 80.4591 20.2707 80.4463 21.004L80.4229 22.3372L80.166 22.3416L79.9091 22.3459L80.1543 22.3278ZM82.7465 22.328L82.9683 22.3094V18.7637L82.7112 18.7463L82.4541 18.7289L82.7229 18.7327L82.9917 18.7364V22.3372L82.7581 22.3419L82.5246 22.3465L82.7465 22.328ZM37.537 21.9171C37.6079 21.9066 37.713 21.9069 37.7705 21.9177C37.8279 21.9285 37.7698 21.9371 37.6414 21.9368C37.5129 21.9364 37.466 21.9276 37.537 21.9171ZM57.4092 21.9176C57.467 21.9068 57.5616 21.9068 57.6193 21.9176C57.6771 21.9285 57.6298 21.9374 57.5142 21.9374C57.3986 21.9374 57.3514 21.9285 57.4092 21.9176ZM8.3963 21.2775C10.8579 21.271 14.8722 21.271 17.3169 21.2775C19.7616 21.284 17.7475 21.2893 12.8412 21.2893C7.93486 21.2893 5.93464 21.284 8.3963 21.2775ZM49.3985 19.9579L49.3876 18.7637L49.1191 18.7473L48.8505 18.7309L49.1205 18.7222C49.3023 18.7164 49.3979 18.7325 49.4133 18.7714C49.4258 18.8031 49.43 19.3518 49.4226 19.9906L49.4093 21.1522L49.3985 19.9579ZM74.1987 19.9579L74.1878 18.7637L73.9193 18.7473L73.6507 18.7309L73.9207 18.7222C74.1025 18.7164 74.1981 18.7325 74.2135 18.7714C74.226 18.8031 74.2302 19.3518 74.2228 19.9906L74.2095 21.1522L74.1987 19.9579ZM59.8065 20.7837C59.8087 20.7306 59.8198 20.7198 59.8347 20.7561C59.8482 20.7891 59.8465 20.8284 59.831 20.8435C59.8155 20.8587 59.8044 20.8318 59.8065 20.7837ZM85.4623 20.7918C85.4484 20.7566 85.4438 20.6592 85.452 20.5753L85.467 20.4229L86.1559 20.421L86.8449 20.4191L86.1677 20.4336L85.4904 20.4481V20.8069L85.9224 20.8219L86.3544 20.837L85.9209 20.8464C85.5851 20.8537 85.4818 20.8414 85.4623 20.7918ZM66.4992 20.3089C66.4992 20.0206 66.5068 19.9027 66.516 20.0468C66.5253 20.191 66.5253 20.4269 66.516 20.571C66.5067 20.7152 66.4992 20.5972 66.4992 20.3089ZM84.233 20.7381C84.2352 20.685 84.2463 20.6742 84.2612 20.7106C84.2747 20.7435 84.273 20.7828 84.2575 20.7979C84.242 20.8131 84.2309 20.7862 84.233 20.7381ZM42.7228 20.5368C42.7228 20.3989 42.7316 20.3425 42.7423 20.4115C42.753 20.4804 42.753 20.5932 42.7423 20.6622C42.7316 20.7311 42.7228 20.6747 42.7228 20.5368ZM55.7067 20.5368C55.7067 20.3989 55.7155 20.3425 55.7262 20.4115C55.7369 20.4804 55.7369 20.5932 55.7262 20.6622C55.7155 20.7311 55.7068 20.6747 55.7068 20.5368H55.7067ZM36.4164 20.5368C36.4164 20.424 36.4255 20.3779 36.4367 20.4343C36.4478 20.4907 36.4478 20.583 36.4367 20.6394C36.4255 20.6958 36.4164 20.6496 36.4164 20.5368ZM68.2301 20.432C68.2173 20.3993 68.2134 20.0968 68.2213 19.7597L68.2359 19.1466L68.2461 19.7946L68.2563 20.4427L68.7818 20.4572L69.3072 20.4718L68.7803 20.4815C68.3836 20.4888 68.2476 20.4766 68.2301 20.432ZM84.233 20.3279C84.2353 20.2748 84.2463 20.264 84.2612 20.3004C84.2747 20.3333 84.273 20.3726 84.2575 20.3877C84.242 20.4029 84.2309 20.376 84.233 20.3279ZM59.8064 20.2823C59.8087 20.2292 59.8198 20.2184 59.8347 20.2548C59.8482 20.2877 59.8465 20.327 59.831 20.3421C59.8155 20.3573 59.8044 20.3304 59.8064 20.2823ZM51.5273 19.1839C51.561 19.1707 51.6013 19.1723 51.6168 19.1875C51.6323 19.2026 51.6047 19.2133 51.5555 19.2114C51.5011 19.2092 51.49 19.1984 51.5273 19.1839ZM37.5602 19.1372C37.6183 19.1262 37.7024 19.1267 37.747 19.1381C37.7917 19.1495 37.7441 19.1584 37.6414 19.1579C37.5386 19.1574 37.5021 19.1481 37.5602 19.1372ZM57.4097 19.1372C57.4678 19.1262 57.5519 19.1267 57.5965 19.1381C57.6412 19.1495 57.5936 19.1584 57.4909 19.1579C57.3881 19.1574 57.3516 19.1481 57.4097 19.1372ZM39.7081 18.7262C39.7916 18.7161 39.9282 18.7161 40.0117 18.7262C40.0952 18.7363 40.0268 18.7446 39.8599 18.7446C39.6929 18.7446 39.6246 18.7363 39.7081 18.7262ZM46.4803 18.7262C46.5638 18.7161 46.7004 18.7161 46.7838 18.7262C46.8673 18.7363 46.799 18.7446 46.632 18.7446C46.4651 18.7446 46.3968 18.7363 46.4803 18.7262ZM50.4758 18.7252C50.7018 18.7168 51.0591 18.7169 51.2698 18.7253C51.4805 18.7337 51.2955 18.7406 50.8588 18.7405C50.4221 18.7405 50.2498 18.7336 50.4758 18.7252ZM63.5041 18.7265C63.5747 18.7161 63.6903 18.7161 63.761 18.7265C63.8316 18.737 63.7738 18.7455 63.6326 18.7455C63.4913 18.7455 63.4335 18.737 63.5041 18.7265ZM66.6807 18.7265C66.7517 18.716 66.8568 18.7163 66.9142 18.7271C66.9717 18.7379 66.9136 18.7465 66.7851 18.7461C66.6567 18.7458 66.6097 18.7369 66.6807 18.7265ZM71.2805 18.7262C71.364 18.7161 71.5006 18.7161 71.584 18.7262C71.6675 18.7363 71.5992 18.7446 71.4322 18.7446C71.2653 18.7446 71.197 18.7363 71.2805 18.7262ZM75.6473 18.7251C76.0776 18.7176 76.7817 18.7176 77.2119 18.7251C77.6422 18.7326 77.2902 18.7388 76.4296 18.7388C75.5691 18.7388 75.2171 18.7326 75.6473 18.7251ZM80.0142 18.727C80.0721 18.7162 80.1666 18.7162 80.2244 18.727C80.2822 18.7379 80.2349 18.7468 80.1193 18.7468C80.0037 18.7468 79.9565 18.7379 80.0142 18.727ZM37.5839 18.682C37.6293 18.6705 37.6924 18.6712 37.724 18.6837C37.7556 18.6962 37.7185 18.7057 37.6414 18.7047C37.5643 18.7038 37.5384 18.6936 37.5839 18.682ZM43.8423 18.682C43.8878 18.6705 43.9508 18.6712 43.9824 18.6837C44.0141 18.6962 43.9769 18.7057 43.8998 18.7047C43.8228 18.7038 43.7969 18.6936 43.8423 18.682ZM57.4334 18.682C57.4788 18.6705 57.5419 18.6712 57.5735 18.6837C57.6051 18.6962 57.568 18.7057 57.4909 18.7047C57.4138 18.7038 57.388 18.6936 57.4334 18.682ZM60.9362 18.682C60.9817 18.6705 61.0447 18.6712 61.0764 18.6837C61.108 18.6962 61.0708 18.7057 60.9937 18.7047C60.9167 18.7038 60.8908 18.6936 60.9362 18.682ZM85.4086 18.6822C85.4536 18.6708 85.5272 18.6708 85.5721 18.6822C85.6171 18.6937 85.5803 18.703 85.4904 18.703C85.4005 18.703 85.3637 18.6937 85.4086 18.6822ZM7.66864 18.2694C7.93196 18.2613 8.36281 18.2613 8.62609 18.2694C8.88941 18.2775 8.67396 18.2842 8.14737 18.2842C7.62077 18.2842 7.40537 18.2775 7.66864 18.2694ZM13.0666 18.2692C14.3465 18.2625 16.4272 18.2625 17.6904 18.2692C18.9535 18.276 17.9063 18.2815 15.3632 18.2815C12.8202 18.2815 11.7867 18.276 13.0666 18.2692V18.2692ZM67.3446 12.8565C67.3446 10.5251 67.3503 9.57803 67.3573 10.7519C67.3642 11.9258 67.3642 13.8333 67.3573 14.9909C67.3503 16.1484 67.3446 15.188 67.3446 12.8565ZM75.471 13.7681C75.471 11.9381 75.4768 11.196 75.4839 12.1192C75.4909 13.0424 75.4909 14.5397 75.4839 15.4466C75.4768 16.3535 75.471 15.5982 75.471 13.7681ZM77.1056 13.7681C77.1056 11.9381 77.1114 11.196 77.1185 12.1192C77.1256 13.0424 77.1255 14.5397 77.1185 15.4466C77.1114 16.3535 77.1056 15.5982 77.1056 13.7681ZM40.0691 12.8565C40.0691 10.5502 40.0748 9.59995 40.0817 10.745C40.0887 11.89 40.0887 13.777 40.0817 14.9384C40.0748 16.0998 40.0691 15.1629 40.0691 12.8565ZM56.4624 12.8337C56.4624 10.5148 56.4681 9.56618 56.475 10.7256C56.482 11.8851 56.482 13.7824 56.475 14.9418C56.4681 16.1013 56.4624 15.1526 56.4624 12.8337ZM62.0199 13.996C62.0199 12.3164 62.0258 11.6359 62.0329 12.4838C62.04 13.3317 62.04 14.706 62.0329 15.5377C62.0258 16.3694 62.0199 15.6757 62.0199 13.996ZM28.6545 15.6787C28.6567 15.6256 28.6678 15.6148 28.6827 15.6512C28.6962 15.6841 28.6945 15.7234 28.679 15.7385C28.6635 15.7537 28.6525 15.7268 28.6545 15.6787ZM0.631645 15.6331C0.633887 15.58 0.644956 15.5692 0.659854 15.6056C0.673352 15.6385 0.671671 15.6778 0.656165 15.6929C0.640659 15.7081 0.629637 15.6812 0.631645 15.6331ZM2.03279 15.4052C2.03503 15.3521 2.0461 15.3413 2.061 15.3777C2.07449 15.4106 2.07281 15.4499 2.05731 15.465C2.0418 15.4802 2.03078 15.4533 2.03279 15.4052ZM30.1104 15.1355C30.1109 15.0353 30.1205 14.9996 30.1316 15.0563C30.1429 15.113 30.1424 15.1951 30.1307 15.2386C30.119 15.2822 30.1099 15.2358 30.1104 15.1355ZM28.7135 14.5886C28.7137 14.388 28.7219 14.3116 28.7318 14.4188C28.7416 14.526 28.7415 14.6901 28.7314 14.7835C28.7214 14.8768 28.7133 14.7891 28.7135 14.5886ZM30.1095 14.0644C30.1095 13.9767 30.1191 13.9408 30.1308 13.9846C30.1426 14.0285 30.1426 14.1003 30.1308 14.1442C30.1191 14.1881 30.1095 14.1522 30.1095 14.0644ZM2.03648 13.7909C2.03648 13.7283 2.04708 13.7026 2.06001 13.734C2.073 13.7653 2.073 13.8166 2.06001 13.8479C2.04708 13.8793 2.03648 13.8536 2.03648 13.7909ZM0.631598 13.582C0.633887 13.5289 0.644956 13.5181 0.659854 13.5545C0.673352 13.5874 0.671671 13.6267 0.656165 13.6418C0.640659 13.657 0.62959 13.6301 0.631598 13.582ZM83.9141 11.9792C84.3187 11.9716 84.9807 11.9716 85.3853 11.9792C85.7899 11.9868 85.4589 11.993 84.6497 11.993C83.8406 11.993 83.5095 11.9868 83.9141 11.9792ZM52.0849 9.70023C52.3995 9.69234 52.9144 9.69234 53.2291 9.70023C53.5438 9.70811 53.2863 9.71459 52.657 9.71459C52.0277 9.71459 51.7702 9.70811 52.0849 9.70023ZM87.6462 9.32405C87.6462 9.26138 87.6568 9.23572 87.6697 9.26708C87.6827 9.29844 87.6827 9.34972 87.6697 9.38103C87.6568 9.41239 87.6462 9.38673 87.6462 9.32405ZM14.6276 1.5908C14.6598 1.57813 14.7123 1.57813 14.7444 1.5908C14.7765 1.60343 14.7502 1.61378 14.686 1.61378C14.6218 1.61378 14.5955 1.60343 14.6276 1.5908ZM14.397 0.222436C14.4307 0.209264 14.471 0.210905 14.4865 0.226037C14.5021 0.24117 14.4745 0.251927 14.4253 0.249967C14.3709 0.247779 14.3597 0.236977 14.397 0.222436ZM16.2623 0.223348C16.2944 0.210722 16.347 0.210722 16.3791 0.223348C16.4112 0.236019 16.3849 0.246366 16.3207 0.246366C16.2565 0.246366 16.2302 0.235974 16.2623 0.223348Z" fill="#4B4B4B"/>
<path d="M4.92311 24.7872L4.66782 24.5251L4.93637 24.7742C5.18587 25.0057 5.22631 25.0493 5.19166 25.0493C5.18437 25.0493 5.0635 24.9314 4.92311 24.7872ZM26.1753 24.3939C26.1753 24.3845 26.2121 24.3486 26.2571 24.3142C26.3311 24.2575 26.3328 24.2591 26.2747 24.3314C26.2137 24.4073 26.1753 24.4314 26.1753 24.3939ZM6.31986 24.1946C6.2618 24.1223 6.26344 24.1208 6.33751 24.1774C6.38244 24.2118 6.41924 24.2477 6.41924 24.2572C6.41924 24.2947 6.3809 24.2706 6.31986 24.1946ZM5.52588 23.4198C5.46782 23.3475 5.46946 23.3459 5.54353 23.4025C5.58846 23.437 5.62526 23.4729 5.62526 23.4823C5.62526 23.5198 5.58692 23.4957 5.52588 23.4198ZM36.3292 21.8928L36.2402 21.7903L36.3453 21.8771C36.444 21.9587 36.4716 21.9954 36.4343 21.9954C36.4254 21.9954 36.3781 21.9493 36.3292 21.8928ZM43.0765 21.6421C43.0184 21.5699 43.02 21.5683 43.0941 21.6249C43.1391 21.6593 43.1758 21.6952 43.1758 21.7047C43.1758 21.7422 43.1375 21.7181 43.0765 21.6421ZM61.7176 21.7047C61.7176 21.6952 61.7544 21.6593 61.7993 21.6249C61.8734 21.5683 61.8751 21.5699 61.817 21.6421C61.756 21.7181 61.7176 21.7422 61.7176 21.7047ZM69.7041 20.3373C69.7041 20.3278 69.7409 20.2919 69.7858 20.2575C69.8599 20.2008 69.8616 20.2024 69.8035 20.2747C69.7425 20.3507 69.7041 20.3748 69.7041 20.3373ZM61.7832 19.4315L61.6943 19.3289L61.7993 19.4158C61.8981 19.4974 61.9257 19.5341 61.8883 19.5341C61.8794 19.5341 61.8322 19.4879 61.7832 19.4315ZM43.0357 19.4712C43.0357 19.4618 43.0725 19.4259 43.1175 19.3915C43.1915 19.3348 43.1932 19.3364 43.1351 19.4087C43.0741 19.4846 43.0357 19.5088 43.0357 19.4712ZM70.1652 19.0441C70.1071 18.9718 70.1088 18.9702 70.1828 19.0268C70.2606 19.0864 70.2854 19.1238 70.2469 19.1238C70.2372 19.1238 70.2004 19.088 70.1652 19.0441ZM88.4239 8.51806C88.4576 8.50489 88.4979 8.50653 88.5135 8.52166C88.529 8.53679 88.5014 8.54755 88.4522 8.54559C88.3978 8.5434 88.3867 8.5326 88.4239 8.51806ZM24.7726 5.36996L24.5173 5.10787L24.7859 5.35702C25.0354 5.58847 25.0758 5.63205 25.0412 5.63205C25.0339 5.63205 24.913 5.51413 24.7726 5.36996ZM4.57441 4.76602C4.62088 4.71588 4.66945 4.67486 4.6823 4.67486C4.69514 4.67486 4.66758 4.71588 4.62111 4.76602C4.57464 4.81616 4.52607 4.85718 4.51323 4.85718C4.50038 4.85718 4.52794 4.81616 4.57441 4.76602ZM5.20492 4.15625C5.20492 4.14681 5.24168 4.1109 5.28666 4.07648C5.36073 4.01983 5.36236 4.02142 5.30431 4.09371C5.24327 4.16965 5.20492 4.19376 5.20492 4.15625Z" fill="#4B4B4B"/>
<path d="M14.8851 28.9823C14.9561 28.9718 15.0612 28.9721 15.1187 28.9829C15.1761 28.9937 15.118 29.0023 14.9896 29.002C14.8611 29.0016 14.8141 28.9927 14.8851 28.9823ZM15.6318 28.9823C15.7024 28.9719 15.818 28.9719 15.8886 28.9823C15.9592 28.9928 15.9015 29.0013 15.7602 29.0013C15.6189 29.0013 15.5611 28.9928 15.6318 28.9823ZM16.5921 28.9383C16.6258 28.9251 16.6661 28.9267 16.6816 28.9418C16.6971 28.957 16.6696 28.9678 16.6203 28.9658C16.5659 28.9636 16.5549 28.9528 16.5921 28.9383ZM14.6276 27.6174C14.6597 27.6047 14.7123 27.6047 14.7444 27.6174C14.7765 27.63 14.7502 27.6404 14.686 27.6404C14.6218 27.6404 14.5955 27.63 14.6276 27.6174V27.6174ZM16.0063 27.616C16.0517 27.6044 16.1148 27.6052 16.1464 27.6177C16.178 27.6302 16.1408 27.6396 16.0638 27.6387C15.9867 27.6378 15.9608 27.6276 16.0063 27.616ZM16.4056 26.0637C17.0046 26.0565 17.9714 26.0565 18.554 26.0637C19.1366 26.071 18.6465 26.0768 17.4649 26.0768C16.2833 26.0768 15.8066 26.0709 16.4056 26.0637ZM25.4748 25.0723C25.5351 25.0096 25.595 24.9583 25.6078 24.9583C25.6207 24.9583 25.5818 25.0096 25.5215 25.0723C25.4611 25.135 25.4013 25.1862 25.3884 25.1862C25.3756 25.1862 25.4144 25.135 25.4748 25.0723ZM8.11547 24.833C8.67593 24.8257 9.57966 24.8257 10.1238 24.833C10.6679 24.8403 10.2093 24.8463 9.10477 24.8463C8.0002 24.8463 7.55501 24.8403 8.11547 24.833ZM26.0586 24.5025C26.105 24.4524 26.1536 24.4114 26.1665 24.4114C26.1793 24.4114 26.1518 24.4524 26.1053 24.5025C26.0588 24.5527 26.0102 24.5937 25.9974 24.5937C25.9845 24.5937 26.0121 24.5527 26.0586 24.5025ZM24.7742 23.8416C24.9137 23.7037 25.0384 23.5909 25.0512 23.5909C25.0641 23.5909 24.9604 23.7037 24.8209 23.8416C24.6814 23.9795 24.5567 24.0923 24.5439 24.0923C24.531 24.0923 24.6347 23.9795 24.7742 23.8416ZM4.91783 22.6678C4.93712 22.649 9.01865 22.6387 13.9879 22.645L23.0228 22.6565L13.9527 22.6793C8.96419 22.6919 4.8985 22.6867 4.91783 22.6678ZM41.9282 22.1096C41.9286 21.9842 41.9376 21.9384 41.9484 22.0076C41.9591 22.0769 41.9588 22.1795 41.9477 22.2356C41.9366 22.2916 41.9279 22.2349 41.9282 22.1096ZM66.5005 21.5854C66.5005 21.1718 66.5076 21.0026 66.5163 21.2094C66.5249 21.4162 66.5249 21.7546 66.5163 21.9614C66.5076 22.1682 66.5005 21.999 66.5005 21.5854ZM79.907 20.537C79.907 19.5468 79.9132 19.1417 79.9207 19.6368C79.9283 20.132 79.9283 20.9421 79.9207 21.4373C79.9132 21.9324 79.907 21.5273 79.907 20.537ZM62.1847 21.9272C62.245 21.8646 62.3049 21.8133 62.3177 21.8133C62.3306 21.8133 62.2917 21.8646 62.2314 21.9272C62.171 21.9899 62.1112 22.0412 62.0983 22.0412C62.0855 22.0412 62.1243 21.9899 62.1847 21.9272ZM42.6561 21.9159C42.5981 21.8436 42.5997 21.842 42.6738 21.8986C42.7188 21.933 42.7555 21.969 42.7555 21.9784C42.7555 22.0159 42.7172 21.9918 42.6561 21.9159ZM86.3485 21.3347C86.3485 21.0589 86.3563 20.952 86.3656 21.0971C86.3749 21.2421 86.3748 21.4678 86.3656 21.5985C86.3562 21.7292 86.3486 21.6105 86.3487 21.3347H86.3485ZM48.5469 21.7505C48.5469 21.7411 48.5837 21.7051 48.6286 21.6707C48.7027 21.6141 48.7043 21.6157 48.6463 21.6879C48.5852 21.7639 48.5469 21.788 48.5469 21.7505ZM73.3471 21.7505C73.3471 21.7411 73.3839 21.7051 73.4288 21.6707C73.5029 21.6141 73.5045 21.6157 73.4465 21.6879C73.3854 21.7639 73.3471 21.788 73.3471 21.7505ZM84.5751 21.6196L84.4862 21.517L84.5913 21.6039C84.69 21.6854 84.7176 21.7221 84.6802 21.7221C84.6714 21.7221 84.6241 21.676 84.5751 21.6196ZM46.3555 21.103C46.3577 21.0499 46.3688 21.0391 46.3837 21.0754C46.3972 21.1084 46.3955 21.1477 46.38 21.1628C46.3645 21.178 46.3534 21.1511 46.3555 21.103ZM71.1557 21.103C71.1579 21.0499 71.169 21.0391 71.1839 21.0754C71.1974 21.1084 71.1957 21.1477 71.1802 21.1628C71.1647 21.178 71.1536 21.1511 71.1557 21.103ZM63.8842 20.3775C63.8842 20.0516 63.8917 19.9243 63.9007 20.0946C63.9097 20.2648 63.9097 20.5314 63.9007 20.6871C63.8916 20.8427 63.8843 20.7034 63.8843 20.3775H63.8842ZM83.6779 20.6966C83.6789 20.6214 83.6893 20.5961 83.7012 20.6405C83.7131 20.6848 83.7123 20.7464 83.6995 20.7772C83.6867 20.8081 83.677 20.7718 83.6779 20.6966ZM35.8566 20.5143C35.8569 20.3889 35.866 20.3431 35.8767 20.4123C35.8875 20.4816 35.8872 20.5842 35.8761 20.6402C35.865 20.6963 35.8562 20.6396 35.8566 20.5143ZM42.1611 20.537C42.1611 20.4242 42.1702 20.3781 42.1813 20.4345C42.1924 20.4909 42.1924 20.5832 42.1813 20.6396C42.1702 20.696 42.1611 20.6499 42.1611 20.537ZM56.2659 20.537C56.2659 20.4242 56.275 20.3781 56.2861 20.4345C56.2973 20.4909 56.2973 20.5832 56.2861 20.6396C56.275 20.696 56.2659 20.6499 56.2659 20.537ZM62.7111 20.537C62.7111 20.4242 62.7202 20.3781 62.7314 20.4345C62.7425 20.4909 62.7425 20.5832 62.7314 20.6396C62.7202 20.696 62.7111 20.6499 62.7111 20.537ZM83.6762 20.4003C83.6762 20.3376 83.6868 20.312 83.6998 20.3433C83.7127 20.3747 83.7127 20.426 83.6998 20.4573C83.6868 20.4886 83.6762 20.463 83.6762 20.4003ZM59.2459 20.3282C59.2482 20.275 59.2593 20.2642 59.2742 20.3006C59.2877 20.3335 59.286 20.3728 59.2705 20.388C59.255 20.4031 59.2439 20.3762 59.2459 20.3282ZM70.4623 19.8078C70.4623 19.72 70.4719 19.6841 70.4836 19.728C70.4954 19.7719 70.4954 19.8437 70.4836 19.8875C70.4719 19.9314 70.4623 19.8955 70.4623 19.8078ZM69.9451 19.8078C69.9451 19.7451 69.9557 19.7194 69.9686 19.7508C69.9816 19.7821 69.9816 19.8334 69.9686 19.8647C69.9557 19.8961 69.9451 19.8704 69.9451 19.8078ZM9.65355 19.6368C11.7021 19.6303 15.0544 19.6303 17.1029 19.6368C19.1515 19.6434 17.4754 19.6488 13.3782 19.6488C9.28108 19.6488 7.60499 19.6434 9.65355 19.6368ZM84.5796 19.4431C84.6261 19.393 84.6746 19.352 84.6875 19.352C84.7003 19.352 84.6728 19.393 84.6263 19.4431C84.5798 19.4933 84.5312 19.5343 84.5184 19.5343C84.5055 19.5343 84.5331 19.4933 84.5796 19.4431ZM58.6758 19.0899C58.6178 19.0176 58.6194 19.016 58.6935 19.0726C58.7385 19.1071 58.7752 19.143 58.7752 19.1524C58.7752 19.1899 58.7369 19.1658 58.6758 19.0899ZM5.25537 18.9607C5.25761 18.9076 5.26868 18.8968 5.28358 18.9332C5.29707 18.9661 5.29539 19.0054 5.27989 19.0205C5.26438 19.0357 5.25336 19.0088 5.25537 18.9607ZM36.6741 17.3126C36.8357 17.3037 37.0879 17.3038 37.2345 17.3128C37.3812 17.3218 37.2491 17.3291 36.9408 17.3291C36.6326 17.329 36.5125 17.3216 36.6741 17.3126H36.6741ZM40.6205 17.3126C40.7692 17.3036 41.0003 17.3037 41.1343 17.3129C41.2682 17.322 41.1466 17.3295 40.864 17.3294C40.5815 17.3293 40.4719 17.3218 40.6205 17.3126ZM45.7076 17.3126C45.8799 17.3039 46.1741 17.3039 46.3615 17.3125C46.5488 17.3212 46.4079 17.3283 46.0482 17.3284C45.6886 17.3285 45.5354 17.3214 45.7076 17.3126ZM49.8448 17.3126C50.0064 17.3037 50.2586 17.3038 50.4053 17.3128C50.552 17.3218 50.4198 17.3291 50.1115 17.329C49.8033 17.3289 49.6833 17.3216 49.8449 17.3126L49.8448 17.3126ZM57.0122 17.3127C57.1599 17.3037 57.4016 17.3037 57.5493 17.3127C57.697 17.3218 57.5761 17.3291 57.2807 17.3291C56.9853 17.3291 56.8645 17.3217 57.0122 17.3127ZM60.9838 17.3127C61.1324 17.3036 61.3636 17.3037 61.4975 17.3128C61.6315 17.322 61.5098 17.3294 61.2273 17.3293C60.9447 17.3292 60.8351 17.3217 60.9838 17.3126V17.3127ZM66.1196 17.3126C66.293 17.3039 66.5767 17.3039 66.7501 17.3126C66.9235 17.3214 66.7816 17.3286 66.4348 17.3286C66.0881 17.3286 65.9462 17.3214 66.1196 17.3126ZM70.2081 17.3126C70.3696 17.3037 70.6218 17.3038 70.7686 17.3128C70.9152 17.3218 70.7831 17.3291 70.4748 17.329C70.1665 17.3289 70.0465 17.3216 70.2081 17.3126ZM76.021 17.3127C76.1687 17.3037 76.4104 17.3037 76.5581 17.3127C76.7058 17.3218 76.5849 17.3291 76.2895 17.3291C75.9941 17.3291 75.8733 17.3217 76.021 17.3127ZM82.8665 17.3122C83.5941 17.3052 84.771 17.3052 85.482 17.3122C86.193 17.3193 85.5978 17.3251 84.1593 17.3251C82.7208 17.3251 82.1391 17.3193 82.8665 17.3122ZM37.7338 12.8568C37.7338 10.5253 37.7395 9.57826 37.7464 10.7521C37.7533 11.926 37.7533 13.8335 37.7464 14.9911C37.7395 16.1487 37.7338 15.1882 37.7338 12.8568ZM58.0971 12.8568C58.0971 10.5504 58.1027 9.60018 58.1097 10.7452C58.1166 11.8902 58.1166 13.7773 58.1097 14.9386C58.1027 16.1 58.0971 15.1631 58.0971 12.8568ZM28.6544 15.8157C28.6566 15.7626 28.6677 15.7518 28.6826 15.7882C28.6961 15.821 28.6944 15.8604 28.6789 15.8755C28.6634 15.8906 28.6524 15.8637 28.6544 15.8157ZM2.03269 15.5878C2.03494 15.5347 2.04601 15.5239 2.0609 15.5603C2.0744 15.5931 2.07272 15.6325 2.05721 15.6476C2.04171 15.6627 2.03069 15.6358 2.03269 15.5878ZM0.631553 15.4511C0.633795 15.398 0.644864 15.3872 0.659763 15.4235C0.67326 15.4564 0.671579 15.4957 0.656073 15.5109C0.640567 15.526 0.629545 15.4991 0.631553 15.4511ZM28.7082 15.113C28.7082 15.0252 28.7179 14.9894 28.7296 15.0332C28.7413 15.0771 28.7413 15.1489 28.7296 15.1928C28.7179 15.2366 28.7082 15.2007 28.7082 15.113ZM30.1148 14.6116C30.1148 14.3985 30.1229 14.3113 30.1327 14.4179C30.1425 14.5244 30.1425 14.6988 30.1327 14.8053C30.1229 14.9118 30.1148 14.8247 30.1148 14.6116ZM28.7082 14.1102C28.7082 14.0225 28.7179 13.9866 28.7296 14.0305C28.7413 14.0743 28.7413 14.1461 28.7296 14.19C28.7179 14.2339 28.7082 14.198 28.7082 14.1102ZM0.635243 13.7456C0.635243 13.6829 0.645845 13.6572 0.658782 13.6886C0.671766 13.72 0.671766 13.7712 0.658782 13.8026C0.645845 13.8339 0.635243 13.8082 0.635243 13.7456ZM2.03265 13.6278C2.03494 13.5747 2.04601 13.5639 2.0609 13.6003C2.0744 13.6332 2.07272 13.6725 2.05721 13.6876C2.04171 13.7028 2.03064 13.6759 2.03265 13.6278ZM51.6878 13.5748C51.9639 13.5668 52.4158 13.5668 52.6919 13.5748C52.9681 13.5829 52.7421 13.5895 52.1899 13.5895C51.6376 13.5895 51.4116 13.5829 51.6878 13.5748ZM84.127 13.5747C84.4946 13.567 85.0831 13.567 85.4347 13.5747C85.7864 13.5825 85.4856 13.5888 84.7664 13.5888C84.0471 13.5888 83.7594 13.5824 84.127 13.5747ZM15.3218 10.501C15.3353 10.4797 15.3659 10.4741 15.3898 10.4885C15.4509 10.5254 15.444 10.5398 15.3653 10.5398C15.3279 10.5398 15.3083 10.5223 15.3218 10.501ZM75.8809 10.4298C76.1057 10.4215 76.4735 10.4215 76.6982 10.4298C76.923 10.4382 76.7391 10.4451 76.2895 10.4451C75.84 10.4451 75.6561 10.4382 75.8809 10.4298ZM84.2673 10.0195C84.6606 10.0118 85.2911 10.0119 85.6684 10.0195C86.0457 10.0271 85.7239 10.0334 84.9533 10.0334C84.1826 10.0334 83.8739 10.0271 84.2673 10.0195ZM51.0689 9.94518C51.0689 9.93574 51.1057 9.89983 51.1507 9.86541C51.2248 9.80876 51.2264 9.81035 51.1683 9.88264C51.1073 9.95858 51.0689 9.98269 51.0689 9.94518ZM49.481 8.66893C49.481 8.65949 49.5177 8.62358 49.5627 8.58916C49.6368 8.53251 49.6384 8.5341 49.5804 8.60639C49.5193 8.68233 49.481 8.70644 49.481 8.66893ZM25.12 5.71204L25.0311 5.60949L25.1362 5.69632C25.194 5.74408 25.2412 5.79021 25.2412 5.79887C25.2412 5.83534 25.2036 5.80844 25.12 5.71204ZM17.5757 5.59809C17.5176 5.5258 17.5193 5.52421 17.5933 5.58086C17.6712 5.64044 17.6959 5.67786 17.6574 5.67786C17.6478 5.67786 17.611 5.64199 17.5757 5.59809ZM17.1058 5.41882C17.1396 5.40565 17.1799 5.40729 17.1954 5.42242C17.2109 5.43756 17.1833 5.44831 17.1341 5.44635C17.0797 5.44417 17.0686 5.43336 17.1058 5.41882ZM24.4413 5.05113C24.3832 4.97884 24.3849 4.97724 24.4589 5.0339C24.5368 5.09347 24.5615 5.13089 24.523 5.13089C24.5134 5.13089 24.4765 5.09502 24.4413 5.05113ZM26.2161 4.86881C26.158 4.79652 26.1596 4.79492 26.2337 4.85158C26.3115 4.91115 26.3362 4.94857 26.2978 4.94857C26.2881 4.94857 26.2513 4.9127 26.2161 4.86881ZM4.9247 4.4244C5.0642 4.28652 5.18891 4.17371 5.20175 4.17371C5.21459 4.17371 5.11091 4.28652 4.9714 4.4244C4.83189 4.56228 4.70719 4.67509 4.69435 4.67509C4.68151 4.67509 4.78519 4.56228 4.9247 4.4244ZM14.4437 1.59008C14.4774 1.5769 14.5177 1.57854 14.5332 1.59368C14.5487 1.60881 14.5212 1.61957 14.4719 1.61761C14.4175 1.61542 14.4065 1.60462 14.4437 1.59008ZM16.7323 0.268246C16.7659 0.255073 16.8062 0.256714 16.8217 0.271847C16.8372 0.28698 16.8097 0.297736 16.7605 0.295776C16.7061 0.293588 16.695 0.282786 16.7323 0.268246ZM14.6051 0.22221C14.6506 0.210632 14.7136 0.211407 14.7453 0.223896C14.7769 0.236385 14.7397 0.24582 14.6626 0.244909C14.5856 0.243997 14.5597 0.233787 14.6051 0.22221ZM16.053 0.22221C16.0984 0.210632 16.1615 0.211407 16.1931 0.223896C16.2247 0.236385 16.1875 0.24582 16.1105 0.244909C16.0334 0.243997 16.0075 0.233787 16.053 0.22221Z" fill="#4B4B4B"/>
<path d="M5.43246 25.243C5.37441 25.1707 5.37605 25.1691 5.45012 25.2258C5.52793 25.2853 5.55264 25.3228 5.5142 25.3228C5.50453 25.3228 5.46773 25.2869 5.43246 25.243ZM25.7783 24.7758C25.8787 24.6755 25.9712 24.5935 25.9841 24.5935C25.997 24.5935 25.9254 24.6755 25.825 24.7758C25.7247 24.8761 25.6322 24.9581 25.6193 24.9581C25.6064 24.9581 25.678 24.8761 25.7783 24.7758ZM24.4006 24.2116C24.4006 24.2022 24.4373 24.1662 24.4823 24.1318C24.5564 24.0752 24.558 24.0768 24.4999 24.1491C24.4389 24.225 24.4006 24.2491 24.4006 24.2116ZM25.1245 23.4995C25.1709 23.4494 25.2195 23.4084 25.2324 23.4084C25.2452 23.4084 25.2177 23.4494 25.1712 23.4995C25.1247 23.5497 25.0761 23.5907 25.0633 23.5907C25.0504 23.5907 25.078 23.5497 25.1245 23.4995ZM45.1141 21.9042C45.1606 21.8541 45.2091 21.8131 45.222 21.8131C45.2348 21.8131 45.2073 21.8541 45.1608 21.9042C45.1143 21.9544 45.0657 21.9954 45.0529 21.9954C45.0401 21.9954 45.0676 21.9544 45.1141 21.9042ZM59.75 21.9156C59.692 21.8433 59.6936 21.8417 59.7677 21.8984C59.8127 21.9328 59.8494 21.9687 59.8494 21.9782C59.8494 22.0157 59.8111 21.9916 59.75 21.9156ZM52.797 21.8359C52.8574 21.7732 52.9172 21.7219 52.9301 21.7219C52.9429 21.7219 52.9041 21.7732 52.8437 21.8359C52.7834 21.8985 52.7235 21.9498 52.7107 21.9498C52.6978 21.9498 52.7367 21.8985 52.797 21.8359ZM36.7495 21.6194L36.6605 21.5168L36.7656 21.6036C36.8644 21.6852 36.892 21.7219 36.8546 21.7219C36.8457 21.7219 36.7985 21.6758 36.7495 21.6194ZM36.7539 19.4429C36.8004 19.3928 36.849 19.3517 36.8618 19.3517C36.8747 19.3517 36.8471 19.3928 36.8007 19.4429C36.7542 19.493 36.7056 19.5341 36.6928 19.5341C36.6799 19.5341 36.7075 19.493 36.7539 19.4429ZM69.7448 19.3175C69.6868 19.2453 69.6884 19.2437 69.7625 19.3003C69.8403 19.3599 69.8651 19.3973 69.8266 19.3973C69.8169 19.3973 69.7801 19.3614 69.7448 19.3175ZM52.7935 19.2264L52.6802 19.101L52.8087 19.2115C52.8793 19.2723 52.9371 19.3287 52.9371 19.3369C52.9371 19.3727 52.8993 19.3435 52.7935 19.2264ZM45.1097 19.158L45.0207 19.0555L45.1258 19.1423C45.1836 19.1901 45.2308 19.2362 45.2308 19.2448C45.2308 19.2813 45.1933 19.2544 45.1097 19.158ZM59.7327 19.1694C59.7792 19.1193 59.8277 19.0782 59.8405 19.0782C59.8534 19.0782 59.8258 19.1193 59.7794 19.1694C59.7328 19.2195 59.6843 19.2606 59.6715 19.2606C59.6586 19.2606 59.6862 19.2195 59.7327 19.1694ZM87.8663 9.88241C87.8082 9.81012 87.8098 9.80853 87.8839 9.86519C87.9617 9.92476 87.9865 9.96218 87.948 9.96218C87.9383 9.96218 87.9015 9.92631 87.8663 9.88241ZM88.1641 8.83562C88.2348 8.82513 88.3504 8.82513 88.421 8.83562C88.4916 8.84605 88.4339 8.85458 88.2926 8.85458C88.1513 8.85458 88.0935 8.84605 88.1641 8.83562ZM87.7321 8.71428C87.7321 8.70485 87.7689 8.66893 87.8139 8.63452C87.8879 8.57786 87.8896 8.57946 87.8315 8.65175C87.7705 8.72768 87.7321 8.75179 87.7321 8.71428ZM5.90549 5.38136C6.07096 5.21841 6.21687 5.08508 6.22971 5.08508C6.24256 5.08508 6.11767 5.21841 5.95219 5.38136C5.78672 5.54431 5.64081 5.67763 5.62797 5.67763C5.61513 5.67763 5.74002 5.54431 5.90549 5.38136ZM24.3012 4.91416C24.2431 4.84187 24.2447 4.84027 24.3188 4.89693C24.3966 4.9565 24.4213 4.99392 24.3829 4.99392C24.3732 4.99392 24.3364 4.95805 24.3012 4.91416ZM26.0541 4.70905L25.9652 4.60649L26.0702 4.69332C26.169 4.77491 26.1966 4.8116 26.1592 4.8116C26.1503 4.8116 26.1031 4.76548 26.0541 4.70905ZM25.4713 4.13929L25.358 4.01395L25.4864 4.12443C25.5571 4.18524 25.6149 4.24162 25.6149 4.24978C25.6149 4.28556 25.5771 4.25643 25.4713 4.13929Z" fill="#4B4B4B"/>
<path d="M14.5926 28.9649C9.95592 28.7504 5.67968 26.3523 3.06319 22.4993C1.8179 20.6657 1.06082 18.6628 0.736317 16.3434C0.626188 15.5565 0.626421 13.6787 0.736691 12.8677C1.33442 8.47206 3.80019 4.70457 7.5928 2.39219C8.22238 2.00841 9.53222 1.37311 10.1556 1.14931C14.4856 -0.405345 19.1263 0.0108029 22.9938 2.30044C25.4153 3.73399 27.3323 5.77576 28.5826 8.25291C29.2427 9.56075 29.6755 10.8561 29.9077 12.2184C30.2054 13.9661 30.1553 15.9589 29.77 17.688C28.9124 21.5372 26.3812 24.9553 22.8959 26.9709C20.3801 28.4259 17.563 29.1023 14.5926 28.9649ZM16.5308 27.5985C17.6521 27.5027 18.7855 27.2638 19.828 26.9037C20.4165 26.7004 21.5817 26.2062 21.6218 26.143C21.6591 26.0839 17.8034 26.0457 13.3082 26.0606L9.01136 26.0748L9.47841 26.3084C10.9106 27.0247 12.4294 27.4281 14.4058 27.6171C14.7867 27.6536 16.0123 27.6428 16.5308 27.5985ZM24.1493 24.4403C24.4288 24.2057 24.8064 23.8604 24.9886 23.673C25.3337 23.3179 26.0352 22.511 26.0352 22.4692C26.0352 22.4442 17.2831 7.67596 17.1845 7.53461C17.136 7.46496 17.0662 7.55922 16.6545 8.25009C16.3938 8.68766 16.1805 9.06766 16.1805 9.09451C16.1805 9.12131 17.8637 11.9844 19.9208 15.4569C23.3371 21.2236 23.6611 21.788 23.6611 21.9721C23.6611 22.1981 23.5659 22.384 23.3808 22.5196C23.2574 22.6099 23.1742 22.6108 14.0671 22.6224C9.01309 22.6289 4.878 22.6502 4.878 22.6698C4.878 22.7824 6.23015 24.1522 6.81624 24.6333L7.09647 24.8634L15.3688 24.8652L23.6411 24.8669L24.1493 24.4403ZM21.7851 21.2923C21.7851 21.2817 21.5684 20.9073 21.3036 20.4605L20.8221 19.648L13.282 19.6252C7.69102 19.6083 5.71789 19.5887 5.64862 19.5496C5.33262 19.371 5.20736 18.9735 5.36966 18.6642C5.41459 18.5785 7.68883 14.7258 10.4235 10.1025C13.1581 5.47926 15.4076 1.66605 15.4223 1.62881C15.4822 1.47648 13.3229 1.65958 12.4266 1.88283L12.1054 1.96283L7.32406 10.0461C4.69435 14.4919 2.54276 18.168 2.54276 18.2151C2.54276 18.3553 2.8639 19.2422 3.13376 19.8473C3.36262 20.3605 3.57059 20.7625 3.81467 21.1635L3.90481 21.3117H12.845C17.7621 21.3117 21.7851 21.303 21.7851 21.2923ZM27.2598 20.5577C27.5843 19.9468 27.9599 19.0654 28.1336 18.5069L28.2333 18.1862L23.4371 10.0745C21.8367 7.36748 20.236 4.66055 18.6351 1.95371C18.6242 1.93634 17.4643 1.71633 17.2314 1.68743L16.9979 1.65844L12.2573 9.66973C9.65005 14.076 7.43639 17.8211 7.33812 17.9922L7.15938 18.3034H9.1065L12.7223 12.207C14.711 8.85398 16.4077 6.0027 16.4926 5.87079C16.5776 5.73888 16.7155 5.59029 16.7991 5.54052C17.0732 5.37748 17.4624 5.44598 17.6593 5.69184C17.7065 5.75087 19.7943 9.25768 22.2989 13.4849C24.8034 17.712 26.8736 21.1655 26.8993 21.1594C26.925 21.1533 27.0872 20.8825 27.2598 20.5577ZM19.8543 18.0185C19.0165 16.5641 15.386 10.4877 15.3576 10.4924C15.3263 10.4975 10.7973 18.0862 10.73 18.2464C10.711 18.2918 11.6557 18.3034 15.3622 18.3034H20.0184L19.8543 18.0185ZM28.7234 15.0672C28.8204 12.8365 28.2512 10.4167 27.1687 8.45802C26.0332 6.4034 24.3063 4.63383 22.2521 3.41971C21.7684 3.13383 20.6761 2.59685 20.6434 2.62885C20.6322 2.63979 22.4238 5.69289 24.6248 9.41348C28.5584 16.0629 28.6272 16.1752 28.6587 15.9988C28.6763 15.9 28.7054 15.4808 28.7234 15.0672ZM6.14052 9.37592C8.32597 5.68168 10.1054 2.65072 10.0949 2.64047C10.0623 2.60856 9.29131 2.97115 8.76551 3.26565C7.70522 3.85947 6.79004 4.54231 5.92946 5.38162C3.737 7.52007 2.39971 10.265 2.07684 13.2895C1.99118 14.092 2.02859 16.139 2.12835 16.1056C2.1496 16.0986 3.95507 13.0702 6.14052 9.37592ZM37.1009 22.2977C36.8585 22.2343 36.6346 22.1166 36.4469 21.9539C36.2592 21.7913 36.1129 21.5883 36.0197 21.3609C35.9309 21.1449 35.9151 21.0206 35.9151 20.5368C35.9151 20.0512 35.9307 19.929 36.0208 19.7097C36.17 19.3466 36.4406 19.0655 36.8137 18.8862C37.107 18.7453 37.1546 18.7364 37.617 18.7375C38.148 18.7387 38.4789 18.8283 38.7565 19.0463L38.8908 19.1517L38.8089 19.3087C38.7639 19.395 38.7211 19.4723 38.7139 19.4805C38.7067 19.4886 38.6168 19.4411 38.5142 19.3748C37.7743 18.8969 36.7777 19.1274 36.5238 19.8352C36.3353 20.3607 36.3972 21.1125 36.6613 21.5029C36.9933 21.9936 37.8701 22.096 38.4846 21.7157C38.6047 21.6413 38.7084 21.5867 38.715 21.5942C38.7787 21.667 38.8768 21.9164 38.8552 21.9506C38.801 22.0361 38.4095 22.2322 38.1674 22.2951C37.8689 22.3726 37.3902 22.3738 37.1009 22.2977ZM43.3451 22.2854C42.6345 22.0725 42.2495 21.5294 42.2055 20.6782C42.1717 20.0254 42.2951 19.6006 42.6253 19.2336C43.2084 18.5857 44.3946 18.5317 45.0575 19.123C45.8228 19.8056 45.8228 21.2681 45.0575 21.9506C44.6387 22.3242 43.9342 22.462 43.3451 22.2854ZM44.4139 21.8648C44.6297 21.7691 44.8838 21.505 44.9868 21.2694C45.0993 21.0119 45.1192 20.2455 45.0219 19.9187C44.9228 19.5863 44.6081 19.2526 44.3201 19.1748C44.0883 19.1122 43.7199 19.1098 43.4998 19.1695C43.2537 19.2362 42.9715 19.4955 42.8447 19.7714C42.7487 19.9801 42.7338 20.0832 42.7338 20.5368C42.7338 20.9857 42.7492 21.0945 42.8412 21.2943C42.9716 21.5775 43.1957 21.7983 43.4385 21.8828C43.7009 21.9741 44.1878 21.9651 44.4139 21.8648ZM47.3173 22.2973C46.8064 22.1575 46.486 21.7726 46.4007 21.1963C46.3748 21.0216 46.3532 20.4018 46.3527 19.8189L46.3518 18.7592H46.9122V20.0141C46.9122 21.3298 46.9304 21.4667 47.1359 21.6925C47.4483 22.0359 48.341 22.0319 48.6564 21.6858C48.8467 21.4769 48.8696 21.2976 48.8718 20.0012L48.8738 18.7592H49.3876V20.0074C49.3876 21.4261 49.3601 21.5842 49.0546 21.923C48.7992 22.206 48.4856 22.3273 47.9631 22.3448C47.7073 22.3534 47.4545 22.3348 47.3173 22.2973ZM56.9872 22.3131C56.5141 22.1968 56.1711 21.9176 55.9396 21.4605C55.7632 21.1123 55.7628 21.1098 55.7628 20.5368C55.7628 19.9639 55.7632 19.9614 55.9396 19.6131C56.2697 18.9614 56.8322 18.6706 57.6561 18.7257C58.0369 18.7512 58.5097 18.9178 58.6594 19.0792C58.7296 19.1549 58.7293 19.1727 58.6559 19.3134C58.6123 19.3972 58.5712 19.4718 58.5646 19.4793C58.558 19.4868 58.4736 19.4406 58.3768 19.3766C57.8628 19.0361 57.0523 19.0498 56.6799 19.4051C56.4664 19.6087 56.3581 19.8359 56.2941 20.2138C56.1976 20.7843 56.3468 21.3507 56.6765 21.6653C57.0556 22.027 57.8562 22.0419 58.3769 21.6971C58.4736 21.6331 58.558 21.5868 58.5646 21.5943C58.5712 21.6018 58.6123 21.6765 58.6559 21.7602C58.7293 21.9009 58.7296 21.9188 58.6594 21.9944C58.6176 22.0394 58.454 22.1329 58.2959 22.2022C58.0644 22.3036 57.926 22.3309 57.5861 22.3424C57.3539 22.3502 57.0844 22.337 56.9872 22.3131ZM60.3778 22.2655C59.6062 22.0269 59.1511 21.1666 59.2901 20.21C59.4255 19.2777 60.0679 18.7136 60.9937 18.7136C61.6825 18.7136 62.2281 19.0335 62.5174 19.6069C62.6463 19.8626 62.6691 19.9625 62.6887 20.3603C62.7226 21.0474 62.6032 21.4675 62.2681 21.84C61.8443 22.311 61.0806 22.4829 60.3778 22.2655ZM61.4057 21.9009C61.6517 21.8343 61.9189 21.5848 62.0495 21.2999C62.1434 21.0948 62.1591 20.9868 62.1601 20.5368C62.1612 20.0815 62.1468 19.9813 62.0506 19.7737C61.8481 19.3364 61.5029 19.1243 60.9937 19.1243C60.6124 19.1243 60.4078 19.2027 60.1734 19.4384C59.9162 19.6971 59.8027 20.0334 59.8027 20.5368C59.8027 21.1887 60.0495 21.6742 60.4773 21.8638C60.6917 21.9588 61.1277 21.9763 61.4057 21.9009ZM72.1175 22.2973C71.6186 22.1608 71.2937 21.7789 71.2016 21.2205C71.1747 21.0576 71.1525 20.4371 71.1524 19.8417L71.152 18.7592H71.7124V20.0141C71.7124 21.3298 71.7306 21.4667 71.9361 21.6925C72.0792 21.8498 72.3698 21.9478 72.6932 21.9478C73.0935 21.9478 73.3463 21.8355 73.5192 21.5808L73.6507 21.3869L73.665 20.0731L73.6793 18.7592H74.1878V20.0074C74.1878 21.4261 74.1603 21.5842 73.8548 21.923C73.5994 22.206 73.2858 22.3273 72.7633 22.3448C72.5075 22.3534 72.2547 22.3348 72.1175 22.2973ZM84.8755 22.2726C84.541 22.1682 84.323 22.0368 84.1322 21.8248C83.5548 21.183 83.5564 19.8889 84.1353 19.2454C84.6386 18.6859 85.677 18.545 86.4509 18.9312C86.7378 19.0744 86.7727 19.1331 86.6783 19.3143C86.6348 19.3975 86.594 19.4718 86.5874 19.4793C86.5809 19.4868 86.4958 19.4402 86.3985 19.3757C85.8561 19.0166 84.9494 19.0536 84.5701 19.4504C84.5136 19.5096 84.4192 19.6603 84.3603 19.7853C84.2684 19.9804 84.2532 20.0869 84.2532 20.5368C84.2532 20.9867 84.2684 21.0932 84.3603 21.2883C84.5826 21.7603 84.9138 21.9487 85.523 21.9493C85.7336 21.9496 86.0121 21.9276 86.1418 21.9004L86.3777 21.8511V20.8103H85.4903V20.4457H86.8448V22.1248L86.6229 22.1945C86.0422 22.3769 85.3141 22.4094 84.8755 22.2726ZM39.5796 20.5368V18.7592H40.14V21.9042H41.9148V22.3144H39.5796V20.5368ZM50.0882 20.5328V18.7511L51.0339 18.7688C52.1865 18.7905 52.3806 18.8439 52.8023 19.2555C53.1716 19.616 53.2785 19.9034 53.2785 20.5368C53.2785 21.1304 53.1692 21.4476 52.8498 21.7809C52.4281 22.2207 52.0971 22.3132 50.9405 22.3139L50.0882 22.3144V20.5328ZM51.9522 21.8328C52.1225 21.7835 52.2613 21.7002 52.402 21.5628C52.6771 21.2944 52.7675 20.9912 52.7421 20.4229C52.7194 19.9188 52.5943 19.6366 52.2944 19.4133C52.0499 19.2313 51.756 19.1694 51.1367 19.1694H50.6486V21.9042H51.1773C51.5211 21.9042 51.792 21.8793 51.9522 21.8328ZM63.399 20.5368V18.7592H63.8446L64.5165 19.9898C64.886 20.6667 65.2008 21.2199 65.2161 21.2191C65.2314 21.2184 65.5386 20.6697 65.8989 19.9999L66.5538 18.782L66.7746 18.7681L66.9953 18.7542V22.3144H66.5282V21.0291C66.5282 20.1058 66.514 19.7576 66.4776 19.7931C66.4497 19.8203 66.1923 20.2705 65.9054 20.7936L65.3839 21.7447L65.2142 21.7585L65.0445 21.7724L64.5241 20.8425C64.2378 20.3311 63.9718 19.8736 63.933 19.8259C63.8698 19.7482 63.8657 19.8736 63.8935 21.0268L63.9246 22.3144H63.399V20.5368ZM67.6958 20.5368V18.7592H68.5991C69.5901 18.7592 69.8203 18.7978 70.1083 19.0121C70.3379 19.183 70.4494 19.443 70.4494 19.8075C70.4494 20.1666 70.3461 20.4119 70.1097 20.6145C69.871 20.819 69.6825 20.8618 68.8985 20.8889L68.2096 20.9127V22.3144H67.6958V20.5368ZM69.6706 20.388C69.8798 20.2542 69.9602 20.091 69.9563 19.8086C69.9521 19.5051 69.8472 19.3217 69.626 19.2316C69.5228 19.1895 69.2696 19.1694 68.8416 19.1694H68.2096V20.4998L68.8773 20.4841C69.4177 20.4714 69.569 20.4531 69.6706 20.388ZM76.1494 20.7419V19.1694H74.8884V18.7592H77.9709V19.1694H76.7098V22.3144H76.1494V20.7419ZM78.6714 20.5368V18.7592H79.1852V22.3144H78.6714V20.5368ZM79.9325 20.5368V18.7592L80.131 18.7618L80.3294 18.7645L81.3803 20.1038L82.4312 21.443L82.4435 20.1011L82.4559 18.7592H82.9683V22.3144H82.5623L81.4926 20.9584L80.4229 19.6024L80.4105 20.9584L80.3981 22.3144H79.9325V20.5368ZM36.2187 17.2008C36.1242 17.1019 36.1234 17.0652 36.1234 12.8459V8.59062L36.2381 8.47876C36.3474 8.37201 36.3794 8.36686 36.9298 8.36686C37.4461 8.36686 37.5178 8.37666 37.6092 8.4598L37.7114 8.55274V12.8512C37.7114 16.9577 37.7076 17.1531 37.626 17.2252C37.5556 17.2873 37.4324 17.3006 36.9273 17.3006C36.3565 17.3006 36.3073 17.2937 36.2187 17.2008ZM40.1868 17.2094C40.0947 17.1196 40.0933 17.0575 40.0933 12.8545V8.59062L40.208 8.47876C40.3186 8.37074 40.345 8.36686 40.9682 8.36686C41.4695 8.36686 41.6364 8.38231 41.7149 8.43596C41.8315 8.51568 44.3334 12.8976 44.9025 14.0188C45.1125 14.4325 45.309 14.7709 45.3393 14.7709C45.3808 14.7709 45.4001 14.0031 45.4177 11.656L45.441 8.54112L45.5513 8.45397C45.6455 8.37958 45.7394 8.36686 46.1956 8.36686C46.7003 8.36686 46.736 8.37302 46.8443 8.47876L46.9589 8.59062V12.8119C46.9589 17.0573 46.9551 17.1648 46.8001 17.2657C46.7719 17.2842 46.4315 17.2995 46.0438 17.2999C45.4297 17.3005 45.3296 17.2904 45.2685 17.2208C45.1374 17.072 42.4609 12.3137 42.115 11.6145C41.9041 11.1882 41.7447 10.9194 41.7028 10.9194C41.6437 10.9194 41.6346 11.327 41.6346 13.9899C41.6346 17.0272 41.6336 17.0617 41.5378 17.1805C41.4425 17.2987 41.432 17.3006 40.8606 17.3006C40.3424 17.3006 40.2701 17.2908 40.1868 17.2094ZM49.4065 17.2047C49.3207 17.1121 49.3171 16.9697 49.3051 13.1443C49.2968 10.4988 49.3088 9.12104 49.3413 9.0033C49.4055 8.77093 49.5959 8.55607 49.8294 8.45255C50.004 8.37507 50.1869 8.36878 52.2912 8.36787C53.5413 8.36732 54.5974 8.37931 54.6381 8.39453C54.761 8.44057 54.7213 8.59613 54.4656 9.06866C54.117 9.71294 54.1868 9.68869 52.681 9.68878C51.3226 9.68888 51.239 9.70478 51.0349 10.0031C50.9324 10.1528 50.9288 10.1926 50.9288 11.199V12.24L52.5 12.252C53.9254 12.2629 54.0759 12.2712 54.1218 12.3422C54.1887 12.4458 53.8245 13.1819 53.6021 13.3924L53.4459 13.5402L52.2856 13.563C51.2291 13.5838 51.1164 13.5936 51.027 13.6726C50.9307 13.7578 50.9288 13.7907 50.9288 15.4099C50.9288 17.4735 51.0032 17.3006 50.1153 17.3006C49.5445 17.3006 49.4884 17.293 49.4065 17.2047ZM56.5801 17.2094C56.488 17.1196 56.4867 17.0575 56.4867 12.8371V8.55579L56.6098 8.46135C56.7184 8.37794 56.7971 8.36686 57.2807 8.36686C57.7642 8.36686 57.843 8.37794 57.9516 8.46135L58.0747 8.55579V12.8371C58.0747 17.0575 58.0733 17.1196 57.9812 17.2094C57.8974 17.2913 57.8256 17.3006 57.2807 17.3006C56.7358 17.3006 56.6639 17.2913 56.5801 17.2094ZM60.5534 17.1805C60.4571 17.0609 60.4566 17.0408 60.4566 12.8255V8.59066L60.5712 8.47876C60.6823 8.37033 60.7067 8.36686 61.3563 8.36686C61.8208 8.36686 62.0502 8.38437 62.103 8.42384C62.2129 8.50593 64.9398 13.3228 65.3284 14.1214C65.5083 14.4912 65.6834 14.7937 65.7173 14.7937C65.7678 14.7937 65.7814 14.2228 65.7917 11.6674L65.8043 8.54112L65.9145 8.45397C66.0085 8.37976 66.1025 8.36686 66.5504 8.36686C67.0115 8.36686 67.0912 8.37849 67.1992 8.46135L67.3222 8.55579V12.8371C67.3222 17.0575 67.3209 17.1196 67.2288 17.2094C67.1438 17.2924 67.0731 17.3006 66.4437 17.3006C65.9618 17.3006 65.7292 17.2833 65.6766 17.2436C65.5727 17.1652 62.8869 12.4215 62.4766 11.5917C62.2582 11.15 62.119 10.9194 62.071 10.9194C62.0053 10.9194 61.9979 11.2363 61.9979 14.0188C61.9979 17.0575 61.996 17.1201 61.9044 17.2094C61.8211 17.2908 61.7488 17.3006 61.2306 17.3006C60.6592 17.3006 60.6487 17.2988 60.5534 17.1805ZM69.7542 17.1805C69.6579 17.0609 69.6574 17.0408 69.6574 12.8255V8.59066L69.772 8.47876C69.8816 8.37183 69.9128 8.36686 70.4726 8.36686C70.9938 8.36686 71.0687 8.3768 71.1508 8.45688C71.2015 8.50638 71.2547 8.59353 71.2689 8.6506C71.2832 8.70762 71.289 10.634 71.2818 12.9315C71.2692 16.9657 71.2657 17.112 71.1798 17.2047C71.0978 17.293 71.0417 17.3006 70.4709 17.3006C69.8569 17.3006 69.8501 17.2995 69.7542 17.1805ZM75.5889 17.2094C75.4972 17.12 75.4955 17.0575 75.4955 13.7909V10.4636H77.0835V13.7909C77.0835 17.0575 77.0818 17.12 76.9901 17.2094C76.9062 17.2913 76.8344 17.3006 76.2895 17.3006C75.7446 17.3006 75.6728 17.2913 75.5889 17.2094ZM81.3992 17.2047C81.3133 17.112 81.3098 16.9657 81.2972 12.9315C81.29 10.634 81.2958 8.70762 81.31 8.6506C81.3243 8.59353 81.3775 8.50638 81.4282 8.45688C81.518 8.36923 81.5948 8.36686 84.3404 8.36686C86.7587 8.36686 87.1683 8.37634 87.217 8.43359C87.2627 8.48729 87.2353 8.60055 87.0768 9.01474C86.8064 9.72115 86.7616 9.80798 86.6189 9.90251C86.507 9.97667 86.3396 9.98729 84.9532 10.0078C83.4533 10.03 83.4074 10.0333 83.2418 10.1338C82.9675 10.3002 82.9216 10.4512 82.9216 11.185C82.9216 12.0856 82.7701 12.0133 84.6571 12.0133H86.1465L86.1921 12.1302C86.2528 12.2861 86.2505 13.3631 86.1893 13.4748C86.1432 13.5588 86.0776 13.5631 84.8231 13.564C82.8914 13.5655 82.922 13.5438 82.9217 14.9103C82.9217 15.5883 82.9361 15.7985 82.9878 15.8675C83.0503 15.951 83.1376 15.9573 84.5407 15.9788C86.3609 16.0067 86.2394 15.9662 86.6076 16.6668C86.7634 16.9634 86.8493 17.1777 86.8308 17.2246C86.8035 17.2943 86.5817 17.3006 84.1446 17.3006C81.5034 17.3006 81.4877 17.3001 81.3992 17.2047ZM88.1061 10.163C87.7205 9.99987 87.5262 9.67835 87.5542 9.24975C87.5696 9.01356 87.5981 8.93224 87.7153 8.79017C87.9467 8.50985 88.1715 8.40606 88.509 8.42379C88.9036 8.44458 89.1463 8.60306 89.3066 8.94478C89.4483 9.24693 89.4316 9.5045 89.2505 9.80592C89.0369 10.1617 88.4993 10.3295 88.1061 10.163ZM88.937 9.97599C89.1571 9.81563 89.2429 9.65829 89.2638 9.37752C89.2773 9.19501 89.2612 9.06885 89.2126 8.9781C88.8863 8.36805 88.0113 8.36837 87.7273 8.9786C87.6797 9.08088 87.6403 9.23494 87.6398 9.32104C87.6384 9.52757 87.8008 9.84763 87.9648 9.96158C88.2341 10.1487 88.6907 10.1555 88.937 9.97599ZM88.0591 9.34684V8.86825H88.3424C88.6997 8.86825 88.8064 8.92116 88.8064 9.09843C88.8064 9.20139 88.7714 9.255 88.6618 9.32004C88.5502 9.38627 88.5321 9.41471 88.5824 9.4447C88.6498 9.48495 88.8531 9.75041 88.8531 9.79827C88.8531 9.81322 88.8254 9.82543 88.7916 9.82543C88.7578 9.82543 88.6822 9.74211 88.6235 9.64029C88.5297 9.47738 88.3782 9.36963 88.2429 9.36963C88.2189 9.36963 88.1992 9.47219 88.1992 9.59753C88.1992 9.76973 88.1821 9.82543 88.1291 9.82543C88.0713 9.82543 88.0591 9.74188 88.0591 9.34684ZM88.6429 9.11894C88.6429 8.98812 88.6332 8.98161 88.421 8.9683L88.1992 8.95439V9.28348L88.421 9.26958C88.6332 9.25627 88.6429 9.24971 88.6429 9.11894ZM73.6429 10.0041C73.4158 9.93875 73.2907 9.7531 73.0458 9.11757C72.8798 8.6872 72.8328 8.51459 72.8671 8.46158C72.9086 8.39731 73.2725 8.38842 76.2769 8.37794C79.187 8.36782 79.6479 8.37529 79.6972 8.43318C79.7629 8.51049 79.7439 8.57981 79.4554 9.31302C79.3067 9.69088 79.2392 9.80456 79.1035 9.90556L78.9356 10.0305L76.3632 10.0386C74.8805 10.0432 73.7282 10.0286 73.6429 10.0041V10.0041Z" fill="#4B4B4B"/>
</svg>
