<svg width="1116" height="129" viewBox="0 0 1116 129" fill="none" xmlns="http://www.w3.org/2000/svg">
<path d="M88.1227 7.76036C86.3982 6.92361 85.6785 4.84727 86.5152 3.12273C87.3519 1.39818 89.4283 0.678477 91.1528 1.51522C92.8774 2.35196 93.5971 4.42829 92.7603 6.15284C91.9236 7.87738 89.8473 8.5971 88.1227 7.76036Z" fill="#8DD7FF"/>
<path d="M1014.12 126.76C1012.4 125.924 1011.68 123.847 1012.52 122.123C1013.35 120.398 1015.43 119.678 1017.15 120.515C1018.88 121.352 1019.6 123.428 1018.76 125.153C1017.92 126.877 1015.85 127.597 1014.12 126.76Z" fill="#8DD7FF"/>
<path d="M1095.62 34.7758C1095.56 35.7082 1097.42 36.6441 1100.26 37.2756C1100.95 37.4317 1101.58 37.8045 1102.05 38.3405C1102.52 38.8765 1102.81 39.5482 1102.88 40.259C1103.15 43.1437 1103.84 45.1111 1104.77 45.1707C1105.7 45.2303 1106.64 43.3738 1107.27 40.5396C1107.43 39.8429 1107.8 39.2135 1108.33 38.7418C1108.87 38.2702 1109.54 37.9806 1110.25 37.9147C1113.14 37.6492 1115.11 36.9573 1115.17 36.0248C1115.22 35.0924 1113.37 34.1497 1110.53 33.5223C1109.84 33.3666 1109.21 32.9936 1108.73 32.4569C1108.26 31.9203 1107.97 31.2477 1107.91 30.5359C1107.64 27.6444 1106.95 25.6838 1106.02 25.6242C1105.08 25.5646 1104.15 27.4211 1103.52 30.2553C1103.36 30.9528 1102.99 31.5828 1102.45 32.0546C1101.91 32.5265 1101.24 32.816 1100.53 32.8813C1097.65 33.1448 1095.68 33.8379 1095.62 34.7758Z" fill="#FFD527"/>
<path d="M1.67918 97.9404C0.751795 97.6189 0.260585 96.6066 0.582039 95.6792C0.903492 94.7518 1.91588 94.2606 2.84327 94.582C3.77066 94.9035 4.26187 95.9159 3.94042 96.8433C3.61896 97.7706 2.60657 98.2619 1.67918 97.9404Z" fill="#8DD7FF"/>
<path d="M125.614 84.9011C125.479 85.0102 125.298 85.1906 125.083 85.4717C124.609 86.0903 124.083 87.0301 123.559 88.2393L123.335 88.7739C122.965 89.6855 122.332 90.4646 121.519 91.0142L121.354 91.1212C120.518 91.6397 119.547 91.897 118.567 91.8625L118.37 91.8516L118.367 91.8512C116.795 91.7291 115.52 91.7722 114.649 91.9416C114.298 92.0098 114.055 92.0925 113.898 92.1658C114.007 92.3018 114.188 92.484 114.473 92.7018C115.091 93.1752 116.029 93.7018 117.238 94.226L117.772 94.4504L117.953 94.5274C118.786 94.9053 119.498 95.5068 120.01 96.2642L120.117 96.4294C120.635 97.2648 120.893 98.234 120.859 99.2135L120.848 99.4089C120.733 100.986 120.78 102.262 120.95 103.135C121.018 103.483 121.1 103.725 121.173 103.883C121.308 103.774 121.488 103.593 121.704 103.312C122.177 102.694 122.702 101.757 123.223 100.552L123.447 100.019L123.447 100.018C123.818 99.1075 124.451 98.329 125.263 97.7801L125.427 97.6735C126.319 97.1211 127.363 96.8654 128.409 96.9431L128.409 96.9436C129.987 97.0596 131.265 97.0135 132.139 96.8434C132.487 96.7755 132.73 96.694 132.888 96.6214C132.779 96.485 132.597 96.3029 132.313 96.0854C131.696 95.6116 130.759 95.0855 129.552 94.5638L129.017 94.3407L129.016 94.3403C128.105 93.9701 127.325 93.3373 126.775 92.5247L126.669 92.36C126.115 91.4681 125.859 90.4236 125.937 89.377L125.938 89.3765C126.055 87.7991 126.007 86.5227 125.836 85.6506C125.768 85.3022 125.687 85.0591 125.614 84.9011Z" stroke="#FFD527" stroke-width="2.31228"/>
</svg>
