<?xml version="1.0" encoding="UTF-8"?>
<svg xmlns="http://www.w3.org/2000/svg" width="628" height="475" viewBox="0 0 628 475" fill="none">
  <path d="M295.117 398.752C295.117 398.752 303.109 385.627 313.371 393.387C323.633 401.147 342.637 414.241 342.637 414.241C342.637 414.241 346.529 422.616 336.455 419.47C326.381 416.324 293.493 411.262 293.493 411.262L295.117 398.752Z" fill="#FEB8B8"></path>
  <path d="M71.7464 315.399C74.2935 294.9 86.9868 274.702 106.52 268.031C98.8166 289.13 98.8183 312.277 106.525 333.376C109.526 341.502 113.71 350.227 110.887 358.417C109.13 363.513 104.833 367.412 100.029 369.85C95.2252 372.288 89.894 373.45 84.6294 374.588L83.5933 375.446C75.2359 356.558 69.1993 335.899 71.7464 315.399Z" fill="#182C6B"></path>
  <path d="M106.714 268.418C95.3384 281.175 88.2684 297.195 86.5078 314.202C86.0638 317.857 86.1982 321.559 86.9059 325.171C87.709 328.668 89.433 331.886 91.8988 334.491C94.1492 336.965 96.7375 339.236 98.3477 342.215C99.1493 343.752 99.6171 345.442 99.7206 347.172C99.8241 348.903 99.5609 350.637 98.9482 352.258C97.5266 356.34 94.7246 359.666 91.8716 362.824C88.7039 366.33 85.3581 369.921 84.0116 374.569C83.8484 375.132 82.9849 374.846 83.1478 374.283C85.4905 366.197 93.3336 361.603 97.074 354.32C98.8193 350.921 99.5519 346.975 97.9157 343.388C96.4849 340.251 93.8179 337.907 91.5177 335.421C89.075 332.915 87.2824 329.849 86.2965 326.491C85.4073 322.926 85.1306 319.235 85.4785 315.577C86.1303 307.33 88.0737 299.236 91.2376 291.593C94.8001 282.85 99.8307 274.781 106.112 267.735C106.501 267.299 107.1 267.985 106.714 268.418Z" fill="#081848"></path>
  <path d="M86.7528 308.692C83.9419 308.009 81.4651 306.348 79.7648 304.006C78.0644 301.664 77.2512 298.794 77.4704 295.907C77.5167 295.323 78.4255 295.368 78.3791 295.952C78.1701 298.64 78.9279 301.314 80.5157 303.492C82.1035 305.669 84.4168 307.207 87.038 307.828C87.6074 307.963 87.319 308.827 86.7528 308.692Z" fill="#081848"></path>
  <path d="M90.5927 333.386C95.6695 330.352 99.4172 325.515 101.089 319.838C101.254 319.275 102.117 319.561 101.952 320.123C100.202 326.027 96.2918 331.054 91.0019 334.199C90.4975 334.499 90.0911 333.684 90.5927 333.386Z" fill="#081848"></path>
  <path d="M95.6443 283.712C96.6768 284.203 97.8151 284.43 98.9568 284.372C100.099 284.314 101.208 283.973 102.186 283.38C102.686 283.074 103.092 283.889 102.595 284.193C101.512 284.843 100.286 285.218 99.0245 285.285C97.7632 285.352 96.5047 285.109 95.359 284.577C95.2468 284.535 95.1545 284.453 95.1008 284.346C95.047 284.24 95.0359 284.116 95.0698 284.002C95.1081 283.887 95.1899 283.793 95.2975 283.739C95.4051 283.684 95.5297 283.675 95.6443 283.712Z" fill="#081848"></path>
  <path d="M166.06 304.645C165.753 304.845 165.446 305.045 165.138 305.252C161.025 307.96 157.137 310.997 153.515 314.335C153.231 314.588 152.947 314.849 152.671 315.111C144.029 323.245 136.972 332.914 131.858 343.626C129.826 347.891 128.122 352.304 126.76 356.827C124.879 363.074 123.336 369.998 119.612 375.108C119.23 375.645 118.814 376.158 118.368 376.644H84.719C84.6425 376.606 84.5656 376.575 84.4888 376.537L83.1453 376.598C83.1992 376.36 83.2603 376.114 83.3143 375.876C83.345 375.738 83.3833 375.599 83.414 375.461C83.4369 375.369 83.4602 375.277 83.4755 375.192C83.483 375.161 83.4909 375.131 83.4984 375.108C83.5137 375.023 83.537 374.946 83.5524 374.869C83.8901 373.494 84.2381 372.118 84.5964 370.743C84.5964 370.735 84.5964 370.735 84.6039 370.728C87.3603 360.254 91.0145 349.919 96.1198 340.468C96.2735 340.184 96.4268 339.892 96.5958 339.607C98.9207 335.36 101.589 331.31 104.573 327.497C106.213 325.415 107.958 323.417 109.801 321.511C114.571 316.597 120.084 312.463 126.138 309.263C138.207 302.885 152.179 300.442 165.077 304.338C165.407 304.438 165.73 304.537 166.06 304.645Z" fill="#182C6B"></path>
  <path d="M165.984 305.073C149.228 308.403 133.946 316.934 122.31 329.453C119.757 332.103 117.638 335.14 116.03 338.451C114.567 341.727 114.008 345.335 114.41 348.9C114.718 352.232 115.419 355.605 114.913 358.954C114.628 360.664 113.985 362.295 113.027 363.739C112.068 365.184 110.815 366.409 109.351 367.335C105.761 369.737 101.522 370.704 97.3451 371.506C92.7068 372.397 87.8751 373.248 84.004 376.148C83.535 376.499 83.0177 375.75 83.486 375.399C90.221 370.354 99.2464 371.413 106.614 367.851C110.052 366.189 113.011 363.481 113.862 359.63C114.607 356.263 113.887 352.785 113.546 349.414C113.103 345.941 113.516 342.413 114.749 339.137C116.184 335.755 118.183 332.641 120.661 329.93C126.143 323.738 132.563 318.447 139.687 314.25C147.791 309.416 156.661 306.005 165.914 304.165C166.487 304.051 166.553 304.96 165.984 305.073Z" fill="#081848"></path>
  <path d="M125.82 325.201C123.986 322.962 123.008 320.143 123.059 317.248C123.11 314.354 124.188 311.572 126.099 309.399C126.488 308.96 127.186 309.544 126.798 309.983C125.014 312.003 124.01 314.594 123.968 317.29C123.926 319.986 124.848 322.607 126.568 324.682C126.941 325.134 126.191 325.65 125.82 325.201Z" fill="#081848"></path>
  <path d="M114.032 347.232C119.91 347.868 125.813 346.264 130.562 342.739C131.032 342.389 131.55 343.138 131.08 343.487C126.131 347.147 119.985 348.803 113.869 348.127C113.286 348.063 113.452 347.167 114.032 347.232Z" fill="#081848"></path>
  <path d="M147.946 310.613C148.475 311.628 149.247 312.495 150.194 313.136C151.14 313.778 152.231 314.174 153.368 314.29C153.952 314.347 153.786 315.243 153.206 315.186C151.95 315.052 150.746 314.613 149.698 313.906C148.651 313.2 147.792 312.247 147.198 311.132C147.133 311.031 147.109 310.91 147.13 310.792C147.151 310.675 147.217 310.57 147.313 310.498C147.412 310.43 147.534 310.404 147.653 310.426C147.771 310.447 147.877 310.515 147.946 310.613Z" fill="#081848"></path>
  <path d="M343.132 451.264C344.119 443.319 349.038 435.492 356.608 432.906C353.623 441.084 353.623 450.054 356.61 458.231C357.773 461.38 359.395 464.762 358.301 467.936C357.517 469.898 356.011 471.484 354.093 472.367C352.19 473.231 350.184 473.848 348.124 474.203L347.723 474.535C344.484 467.215 342.145 459.209 343.132 451.264Z" fill="#182C6B"></path>
  <path d="M356.683 433.057C352.275 438 349.535 444.209 348.852 450.8C348.68 452.217 348.733 453.651 349.007 455.051C349.318 456.407 349.986 457.654 350.942 458.663C351.893 459.556 352.732 460.561 353.441 461.657C353.752 462.252 353.933 462.907 353.973 463.578C354.013 464.249 353.911 464.92 353.674 465.549C353.043 467.084 352.11 468.476 350.931 469.644C349.704 471.002 348.407 472.394 347.885 474.196C347.822 474.414 347.487 474.303 347.55 474.085C348.458 470.951 351.498 469.171 352.947 466.348C353.321 465.713 353.545 465.002 353.601 464.267C353.658 463.533 353.546 462.796 353.274 462.111C352.616 460.957 351.779 459.914 350.794 459.024C349.847 458.053 349.153 456.864 348.771 455.563C348.426 454.181 348.319 452.751 348.454 451.333C348.706 448.137 349.459 445 350.686 442.038C352.066 438.649 354.016 435.522 356.45 432.792C356.601 432.623 356.833 432.889 356.683 433.057Z" fill="#081848"></path>
  <path d="M348.947 448.665C347.858 448.4 346.898 447.757 346.239 446.849C345.58 445.941 345.265 444.829 345.35 443.71C345.368 443.484 345.72 443.501 345.702 443.727C345.621 444.769 345.915 445.805 346.53 446.649C347.146 447.493 348.042 448.089 349.058 448.33C349.279 448.382 349.167 448.717 348.947 448.665Z" fill="#081848"></path>
  <path d="M350.436 458.235C352.403 457.059 353.855 455.184 354.503 452.984C354.567 452.766 354.902 452.877 354.838 453.095C354.16 455.383 352.644 457.331 350.594 458.55C350.399 458.666 350.241 458.351 350.436 458.235Z" fill="#081848"></path>
  <path d="M352.393 438.984C352.793 439.174 353.234 439.262 353.677 439.24C354.119 439.217 354.549 439.085 354.928 438.855C355.122 438.737 355.279 439.052 355.087 439.17C354.667 439.422 354.192 439.568 353.703 439.593C353.214 439.619 352.727 439.525 352.283 439.319C352.239 439.303 352.203 439.271 352.183 439.23C352.162 439.188 352.157 439.14 352.171 439.096C352.185 439.052 352.217 439.015 352.259 438.994C352.3 438.973 352.349 438.969 352.393 438.984Z" fill="#081848"></path>
  <path d="M379.683 447.096C379.564 447.174 379.445 447.251 379.326 447.332C377.732 448.381 376.225 449.558 374.821 450.852C374.711 450.95 374.601 451.051 374.494 451.152C371.145 454.305 368.41 458.052 366.428 462.204C365.641 463.856 364.98 465.567 364.452 467.32C363.723 469.741 363.125 472.424 361.682 474.404C361.534 474.613 361.373 474.812 361.2 475H348.159C348.13 474.985 348.1 474.973 348.07 474.958L347.549 474.982C347.57 474.89 347.594 474.794 347.615 474.702C347.627 474.649 347.642 474.595 347.653 474.541C347.662 474.506 347.671 474.47 347.677 474.437C347.68 474.425 347.683 474.413 347.686 474.404C347.692 474.372 347.701 474.342 347.707 474.312C347.838 473.779 347.973 473.246 348.112 472.713L348.115 472.707C349.134 468.635 350.632 464.698 352.578 460.98C352.637 460.869 352.697 460.756 352.762 460.646C353.663 459 354.697 457.43 355.853 455.953C356.489 455.146 357.166 454.372 357.88 453.633C359.728 451.728 361.865 450.126 364.211 448.886C368.888 446.414 374.304 445.467 379.302 446.977C379.43 447.016 379.555 447.055 379.683 447.096Z" fill="#182C6B"></path>
  <path d="M379.654 447.262C373.16 448.553 367.237 451.859 362.728 456.711C361.738 457.738 360.917 458.915 360.294 460.198C359.727 461.468 359.51 462.866 359.666 464.248C359.888 465.534 359.954 466.842 359.861 468.144C359.75 468.807 359.501 469.439 359.13 469.999C358.758 470.558 358.273 471.033 357.705 471.392C356.278 472.238 354.696 472.787 353.052 473.009C351.255 473.354 349.382 473.684 347.882 474.808C347.7 474.944 347.5 474.653 347.681 474.517C350.291 472.562 353.789 472.973 356.645 471.592C357.325 471.311 357.931 470.877 358.418 470.325C358.905 469.773 359.259 469.116 359.454 468.406C359.623 467.088 359.582 465.752 359.331 464.447C359.159 463.101 359.32 461.733 359.797 460.464C360.353 459.153 361.128 457.946 362.089 456.896C364.213 454.496 366.701 452.445 369.462 450.819C372.603 448.946 376.04 447.624 379.627 446.91C379.849 446.866 379.874 447.218 379.654 447.262Z" fill="#081848"></path>
  <path d="M364.088 455.063C363.377 454.195 362.998 453.103 363.018 451.981C363.038 450.859 363.456 449.781 364.196 448.939C364.347 448.769 364.618 448.995 364.467 449.165C363.776 449.948 363.387 450.952 363.37 451.997C363.354 453.042 363.711 454.058 364.378 454.862C364.522 455.037 364.232 455.237 364.088 455.063Z" fill="#081848"></path>
  <path d="M359.519 463.601C361.798 463.848 364.085 463.226 365.926 461.86C366.108 461.724 366.309 462.014 366.127 462.15C364.209 463.568 361.827 464.21 359.456 463.948C359.231 463.923 359.295 463.576 359.519 463.601Z" fill="#081848"></path>
  <path d="M372.663 449.409C372.868 449.802 373.167 450.138 373.534 450.387C373.901 450.636 374.324 450.789 374.765 450.834C374.991 450.856 374.926 451.203 374.702 451.181C374.215 451.13 373.748 450.959 373.342 450.686C372.936 450.412 372.604 450.043 372.373 449.61C372.348 449.571 372.339 449.524 372.347 449.479C372.355 449.433 372.381 449.392 372.418 449.365C372.456 449.338 372.504 449.328 372.549 449.337C372.595 449.345 372.636 449.371 372.663 449.409Z" fill="#081848"></path>
  <path d="M567.187 282.507C563.272 250.999 543.762 219.953 513.739 209.699C525.579 242.131 525.576 277.709 513.731 310.138C509.118 322.629 502.687 336.04 507.027 348.628C509.727 356.461 516.332 362.453 523.715 366.201C531.099 369.948 539.294 371.734 547.385 373.484L548.978 374.802C561.824 345.77 571.102 314.016 567.187 282.507Z" fill="#182C6B"></path>
  <path d="M513.441 210.295C530.925 229.903 541.792 254.526 544.498 280.668C545.044 286.271 545.11 292.004 543.886 297.528C542.652 302.902 540.002 307.849 536.212 311.852C532.753 315.656 528.775 319.145 526.3 323.724C523.691 328.551 523.591 334.035 525.377 339.162C527.562 345.435 531.868 350.547 536.254 355.401C541.123 360.79 546.265 366.31 548.335 373.454C548.586 374.32 549.913 373.88 549.662 373.015C546.062 360.586 534.006 353.525 528.257 342.33C525.575 337.106 524.449 331.042 526.964 325.527C529.163 320.705 533.262 317.103 536.798 313.282C540.51 309.27 543.356 304.868 544.823 299.556C546.323 294.122 546.48 288.375 546.08 282.781C545.078 270.104 542.091 257.664 537.228 245.916C531.752 232.477 524.02 220.075 514.366 209.246C513.768 208.576 512.847 209.63 513.441 210.295Z" fill="#081848"></path>
  <path d="M544.121 272.199C548.442 271.149 552.249 268.596 554.862 264.996C557.476 261.397 558.726 256.984 558.389 252.547C558.318 251.65 556.921 251.718 556.992 252.617C557.313 256.748 556.149 260.858 553.708 264.205C551.268 267.553 547.712 269.916 543.683 270.87C542.808 271.078 543.251 272.406 544.121 272.199Z" fill="#081848"></path>
  <path d="M538.219 310.155C530.416 305.491 524.656 298.055 522.087 289.33C521.833 288.465 520.506 288.905 520.759 289.769C523.449 298.844 529.46 306.57 537.591 311.404C538.366 311.865 538.99 310.612 538.219 310.155Z" fill="#081848"></path>
  <path d="M530.455 233.803C528.868 234.558 527.119 234.906 525.364 234.817C523.609 234.728 521.903 234.204 520.401 233.292C519.632 232.822 519.008 234.075 519.772 234.542C521.437 235.542 523.321 236.118 525.259 236.221C527.198 236.324 529.133 235.95 530.894 235.132C531.066 235.069 531.208 234.942 531.291 234.778C531.373 234.614 531.39 234.424 531.338 234.248C531.279 234.072 531.153 233.927 530.988 233.844C530.823 233.76 530.631 233.746 530.455 233.803Z" fill="#081848"></path>
  <path d="M422.223 265.978C422.695 266.285 423.167 266.592 423.639 266.911C429.962 271.073 435.937 275.741 441.505 280.871C441.941 281.261 442.378 281.663 442.803 282.064C456.085 294.567 466.932 309.428 474.793 325.894C477.916 332.449 480.535 339.232 482.629 346.185C485.52 355.787 487.892 366.428 493.615 374.282C494.203 375.108 494.841 375.897 495.527 376.644H547.248C547.365 376.585 547.483 376.538 547.601 376.479L549.667 376.574C549.584 376.208 549.49 375.83 549.407 375.463C549.359 375.251 549.301 375.038 549.253 374.826C549.218 374.684 549.183 374.542 549.159 374.412C549.147 374.365 549.135 374.318 549.124 374.282C549.1 374.152 549.064 374.034 549.041 373.916C548.522 371.802 547.987 369.688 547.436 367.574C547.436 367.562 547.436 367.562 547.425 367.55C543.188 351.452 537.571 335.567 529.724 321.04C529.488 320.603 529.252 320.154 528.992 319.717C525.419 313.188 521.318 306.963 516.732 301.103C514.21 297.903 511.528 294.832 508.696 291.903C501.363 284.348 492.89 277.995 483.585 273.076C465.034 263.274 443.558 259.518 423.733 265.506C423.226 265.659 422.73 265.813 422.223 265.978Z" fill="#182C6B"></path>
  <path d="M422.339 266.635C448.094 271.755 471.583 284.867 489.468 304.108C493.275 308.254 496.776 312.791 499.122 317.939C501.369 322.974 502.229 328.52 501.611 334C501.137 339.122 500.06 344.306 500.838 349.453C501.659 354.879 504.878 359.318 509.388 362.335C514.906 366.027 521.42 367.514 527.841 368.747C534.97 370.115 542.397 371.424 548.347 375.881C549.067 376.421 549.863 375.27 549.143 374.731C538.791 366.976 524.918 368.603 513.594 363.129C508.309 360.575 503.762 356.411 502.453 350.492C501.308 345.317 502.414 339.971 502.939 334.789C503.489 329.349 503.114 324.118 501.09 318.993C499.019 313.751 495.687 309.067 492.003 304.843C483.578 295.325 473.709 287.192 462.759 280.742C450.303 273.311 436.669 268.068 422.447 265.239C421.566 265.065 421.465 266.461 422.339 266.635Z" fill="#081848"></path>
  <path d="M484.074 297.573C486.892 294.132 488.396 289.799 488.317 285.35C488.239 280.901 486.582 276.625 483.644 273.285C483.047 272.611 481.973 273.508 482.571 274.183C485.313 277.287 486.855 281.271 486.92 285.414C486.985 289.557 485.568 293.587 482.924 296.777C482.351 297.47 483.504 298.263 484.074 297.573Z" fill="#081848"></path>
  <path d="M502.193 331.435C493.157 332.414 484.085 329.948 476.785 324.53C476.062 323.992 475.267 325.143 475.989 325.68C483.596 331.305 493.042 333.851 502.443 332.812C503.339 332.713 503.084 331.336 502.193 331.435Z" fill="#081848"></path>
  <path d="M450.065 275.152C449.252 276.711 448.065 278.043 446.61 279.029C445.155 280.016 443.478 280.625 441.73 280.802C440.833 280.891 441.089 282.267 441.98 282.179C443.91 281.974 445.761 281.299 447.371 280.213C448.981 279.127 450.301 277.663 451.215 275.948C451.314 275.794 451.351 275.607 451.319 275.427C451.286 275.246 451.185 275.084 451.038 274.975C450.885 274.87 450.697 274.83 450.515 274.863C450.333 274.896 450.171 275 450.065 275.152Z" fill="#081848"></path>
  <path d="M255.851 415.064C247.251 415.064 239.378 414.24 233.122 412.29C225.687 409.973 221.018 406.225 219.245 401.144C218.411 398.986 218.162 396.646 218.523 394.362C218.884 392.077 219.842 389.928 221.3 388.133C232.3 373.788 270.47 369.741 275.592 369.263L285.982 349.571C286.647 344.873 283.501 341.316 288.936 341.227L353.221 340.353C358.558 340.241 357.044 343.549 357.957 348.13L367.752 365.63L325.599 383.436L331.972 398.979L331.556 399.221C319.219 406.384 283.74 415.063 255.851 415.064Z" fill="#2F2E41"></path>
  <path d="M361.916 366.377C361.916 366.377 420.785 359.634 416.946 386.605C413.107 413.577 368.315 432.682 300.487 386.605L308.166 373.12C308.166 373.12 333.441 371.861 348.799 365.118L361.916 366.377Z" fill="#2F2E41"></path>
  <path d="M278.572 244.185C278.572 244.185 267.383 242.149 264.332 259.456C261.28 276.764 256.392 317.76 256.392 317.76L241.215 370.422C239.425 371.373 237.942 372.814 236.94 374.577C235.938 376.34 235.457 378.352 235.555 380.378C235.652 382.404 236.324 384.361 237.491 386.019C238.658 387.677 240.273 388.969 242.146 389.744C244.019 390.518 246.074 390.743 248.07 390.392C250.066 390.041 251.921 389.129 253.419 387.763C254.916 386.396 255.994 384.631 256.527 382.674C257.06 380.717 257.026 378.648 256.428 376.71L276.736 320.818L280.607 272.695V247.48C280.607 246.796 280.416 246.125 280.057 245.543C279.698 244.962 279.184 244.491 278.572 244.185Z" fill="#FEB8B8"></path>
  <path d="M357.329 244.185C357.329 244.185 368.518 242.149 371.569 259.456C374.621 276.764 379.509 317.76 379.509 317.76L394.686 370.422C396.476 371.373 397.959 372.814 398.961 374.577C399.963 376.34 400.444 378.352 400.346 380.378C400.249 382.404 399.577 384.361 398.41 386.019C397.243 387.677 395.628 388.969 393.755 389.744C391.882 390.518 389.827 390.743 387.831 390.392C385.835 390.041 383.98 389.129 382.482 387.763C380.985 386.396 379.907 384.631 379.374 382.674C378.841 380.717 378.875 378.648 379.473 376.71L359.165 320.818L355.294 272.695V247.48C355.294 246.796 355.485 246.125 355.844 245.543C356.203 244.962 356.717 244.491 357.329 244.185Z" fill="#FEB8B8"></path>
  <path d="M356.476 229.879L335.312 221.957L294.29 221.427L276.632 229.879L281.592 258.407C281.592 258.407 271.579 275.377 282.603 292.349L285.077 352.824C285.077 352.824 324.628 375.779 358.011 348.213L350.466 291.987C350.466 291.987 363.087 265.899 353.304 256.207L356.476 229.879Z" fill="#265DF0"></path>
  <path d="M347.856 238.745L356.476 229.88C356.476 229.88 375.289 239.784 374.901 272.91L351.17 265.59L347.856 238.745Z" fill="#265DF0"></path>
  <path d="M286.209 238.745L277.05 229.578C277.05 229.578 260.89 242.089 261.278 275.215L282.895 265.59L286.209 238.745Z" fill="#265DF0"></path>
  <path d="M345.909 392.199C345.909 392.199 339.317 378.316 328.308 384.971C317.299 391.626 297.042 402.68 297.042 402.68C297.042 402.68 292.304 410.606 302.65 408.521C312.996 406.437 346.23 404.81 346.23 404.81L345.909 392.199Z" fill="#FEB8B8"></path>
  <path d="M327.595 144.036C327.688 143.947 327.786 143.866 327.878 143.774C333.768 137.878 334.962 129.513 330.544 125.091C326.369 120.912 318.678 121.756 312.873 126.837C307.896 122.094 301.222 120.772 296.902 124.046C291.921 127.821 291.959 136.271 296.989 142.918C297.333 143.374 297.695 143.804 298.066 144.218C291.373 146.67 285.594 151.121 281.511 156.968C277.428 162.816 275.239 169.777 275.239 176.911V210.044C275.239 211.016 275.43 211.978 275.802 212.876C276.173 213.773 276.718 214.589 277.404 215.276C278.091 215.963 278.905 216.508 279.802 216.88C280.699 217.252 281.66 217.443 282.631 217.443H343.815C345.71 217.443 347.527 216.69 348.867 215.349C350.207 214.008 350.959 212.189 350.96 210.293V176.911C350.958 169.681 348.708 162.631 344.521 156.74C340.334 150.849 334.418 146.409 327.595 144.036Z" fill="#2F2E41"></path>
  <path d="M334.596 205.626C345.934 194.278 345.934 175.878 334.596 164.53C323.257 153.181 304.874 153.181 293.536 164.53C282.197 175.878 282.197 194.278 293.536 205.626C304.874 216.974 323.257 216.974 334.596 205.626Z" fill="#FFB6B6"></path>
  <path d="M283.558 166.8C290.193 171.377 298.067 173.812 306.125 173.78C303.251 175.775 299.979 177.122 296.534 177.729C307.248 180.03 318.32 180.092 329.059 177.912C331.446 177.529 333.749 176.738 335.867 175.572C336.923 174.982 337.843 174.176 338.567 173.207C339.291 172.237 339.803 171.127 340.07 169.946C340.783 165.866 337.607 162.159 334.306 159.661C329.252 155.894 323.424 153.299 317.245 152.064C311.066 150.828 304.69 150.982 298.577 152.515C294.586 153.548 290.588 155.292 287.996 158.5C285.403 161.708 284.636 166.654 287.105 169.957L283.558 166.8Z" fill="#2F2E41"></path>
  <path d="M128.264 108.811L129.179 107.576L153.553 125.672C152.229 121.632 147.54 108.822 139.854 103.711C130.672 97.6053 124.212 99.5046 120.692 104.807C117.173 110.109 117.926 116.805 127.108 122.912C134.892 128.088 148.757 127.368 152.803 127.029L128.264 108.811Z" fill="#091B50"></path>
  <path d="M495.005 9.73726L496.136 10.7765L475.619 33.1581C479.772 32.2597 492.989 28.9248 498.867 21.8054C505.889 13.3 504.674 6.67167 499.771 2.61661C494.869 -1.43845 488.136 -1.38475 481.113 7.12061C475.16 14.3302 474.433 28.2076 474.35 32.2698L495.005 9.73726Z" fill="#091B50"></path>
  <path d="M164.115 248.71L165.246 249.75L144.729 272.131C148.882 271.233 162.099 267.898 167.977 260.779C174.999 252.273 173.784 245.645 168.881 241.59C163.978 237.535 157.246 237.588 150.223 246.094C144.27 253.303 143.543 267.181 143.459 271.243L164.115 248.71Z" fill="#091B50"></path>
  <path d="M337.603 35.385L338.932 36.1548L323.733 62.4456C327.594 60.6701 339.778 54.5551 343.98 46.3324C349 36.509 346.382 30.3002 340.719 27.4015C335.057 24.5028 328.495 26.0117 323.475 35.8351C319.219 44.1621 321.506 57.8687 322.302 61.853L337.603 35.385Z" fill="#091B50"></path>
  <path d="M479.632 199.823L480.962 200.593L465.762 226.884C469.623 225.108 481.807 218.993 486.009 210.771C491.029 200.947 488.411 194.738 482.749 191.84C477.086 188.941 470.524 190.45 465.504 200.273C461.249 208.6 463.535 222.307 464.331 226.291L479.632 199.823Z" fill="#091B50"></path>
</svg>
