<?xml version="1.0" encoding="UTF-8"?>
<svg xmlns="http://www.w3.org/2000/svg" width="577" height="400" viewBox="0 0 577 400" fill="none">
  <path opacity="0.4" d="M429.575 371.035C470.118 337.846 496 287.418 496 230.941C496 130.991 414.962 49.9648 315 49.9648C215.038 49.9648 134 130.992 134 230.941C134 287.418 159.879 337.846 200.425 371.035C234.17 370.37 273.291 369.989 315.003 369.989C356.715 369.989 395.83 370.37 429.575 371.035Z" fill="#22A7F0"></path>
  <path d="M515.752 369.043C517.724 364.823 512.192 324.987 473.616 323.202C465.984 323.167 458.468 325.079 451.775 328.758C445.369 323.022 436.8 319.16 427.227 318.213C423.724 301.434 407.038 288.719 386.964 288.719C379.925 288.691 372.976 290.313 366.672 293.455C364.657 294.465 362.305 294.546 360.142 293.876L359.755 293.76C357.774 293.202 356.056 291.955 354.908 290.242C347.857 279.348 334.562 272 319.306 272C303.241 272 289.341 280.143 282.638 291.995C276.03 288.44 268.641 286.595 261.142 286.627C238.526 286.627 220.19 302.767 220.19 322.676C220.19 323.737 220.253 324.785 220.356 325.823C206.363 328.647 194.758 336.97 188.649 348.081C180.048 338.945 167.062 333.126 152.531 333.126C127.351 333.126 106.819 350.594 105.696 372.514C104.496 372.38 103.288 372.312 102.08 372.309C86.0206 372.309 73 383.771 73 397.909C73 398.613 73.0403 399.31 73.1032 400H577C571.523 382.243 547.801 359.518 515.752 369.043Z" fill="white"></path>
  <path d="M539.451 357.367C542.115 356.642 543.687 353.894 542.962 351.23C542.237 348.565 539.489 346.993 536.824 347.718C534.16 348.443 532.588 351.191 533.313 353.856C534.038 356.52 536.786 358.092 539.451 357.367Z" fill="#8DD7FF"></path>
  <path d="M15.6198 269.388C15.7386 269.544 15.884 269.769 16.0425 270.083C16.4666 270.923 16.8838 272.162 17.2382 273.726L17.3858 274.417C17.6443 275.691 18.3007 276.852 19.2601 277.729C20.2193 278.607 21.4324 279.157 22.7244 279.301L22.7287 279.302C24.6389 279.51 26.1506 279.848 27.1475 280.244C27.4775 280.375 27.7149 280.502 27.8806 280.607C27.7242 280.727 27.4984 280.875 27.1805 281.035C26.3406 281.459 25.1032 281.876 23.5389 282.231L22.8487 282.38C21.5758 282.638 20.4178 283.294 19.5408 284.252C18.6641 285.21 18.1129 286.421 17.9676 287.711C17.7509 289.626 17.408 291.139 17.0102 292.137C16.8799 292.464 16.754 292.7 16.6494 292.866C16.5304 292.71 16.3852 292.485 16.2267 292.171C15.7427 291.213 15.2682 289.736 14.8866 287.85L14.8861 287.848C14.6269 286.575 13.9706 285.417 13.0122 284.54C12.0537 283.664 10.8417 283.113 9.5509 282.968L9.55184 282.968C7.63602 282.752 6.12031 282.409 5.11998 282.011C4.79239 281.881 4.55503 281.757 4.38883 281.652C4.54553 281.532 4.77183 281.385 5.08896 281.224C6.04816 280.739 7.52556 280.262 9.41535 279.882L9.41749 279.882C10.6917 279.624 11.8513 278.968 12.7291 278.009C13.6067 277.05 14.1578 275.838 14.3025 274.546C14.5187 272.63 14.862 271.117 15.2597 270.12C15.3903 269.792 15.5148 269.554 15.6198 269.388Z" stroke="#FFD527" stroke-width="3"></path>
  <path d="M501.708 81.6778C513.176 81.6778 522.473 72.381 522.473 60.9129C522.473 49.4447 513.176 40.1479 501.708 40.1479C490.24 40.1479 480.943 49.4447 480.943 60.9129C480.943 72.381 490.24 81.6778 501.708 81.6778Z" fill="#FFD527"></path>
  <path d="M501.709 82.8261C489.626 82.8261 479.796 72.9957 479.796 60.913C479.796 48.8303 489.626 39 501.709 39C513.792 39 523.622 48.8311 523.622 60.913C523.622 72.9949 513.792 82.8261 501.709 82.8261ZM501.709 41.2962C490.892 41.2962 482.092 50.0962 482.092 60.913C482.092 71.7299 490.892 80.529 501.709 80.529C512.526 80.529 521.329 71.7283 521.329 60.913C521.329 50.0978 512.526 41.2962 501.709 41.2962Z" fill="#371A45"></path>
  <g opacity="0.5">
    <path opacity="0.5" d="M504.839 48.4667C500.876 51.4392 496.929 48.5925 496.757 48.4667C496.553 48.3202 496.3 48.2594 496.052 48.2975C495.804 48.3356 495.581 48.4695 495.431 48.6704C495.281 48.8712 495.215 49.1231 495.249 49.3717C495.282 49.6202 495.412 49.8458 495.61 49.9997C496.666 50.7913 498.653 51.7177 500.946 51.7177C502.529 51.7177 504.259 51.2752 505.929 50.0419L513.435 45.9667C513.617 45.8669 513.762 45.7104 513.847 45.5209C513.347 45.1263 512.828 44.756 512.291 44.4102L504.957 48.3887C504.916 48.412 504.876 48.4381 504.839 48.4667Z" fill="white"></path>
  </g>
  <g opacity="0.5">
    <path opacity="0.5" d="M482.598 62.6985C482.779 62.3696 482.98 62.0523 483.201 61.7485C484.545 59.8639 486.439 58.4406 488.623 57.6729C490.807 56.9053 493.175 56.8308 495.403 57.4598C498.922 58.4536 505.46 59.6228 509.704 56.2905C509.903 56.1339 510.032 55.9043 510.063 55.6524C510.093 55.4005 510.022 55.1468 509.866 54.9472C509.709 54.7475 509.479 54.6183 509.227 54.5879C508.976 54.5576 508.722 54.6285 508.522 54.7852C504.944 57.5945 499.093 56.5122 495.924 55.6182C493.443 54.9191 490.811 54.9643 488.356 55.7481C485.901 56.5319 483.73 58.0199 482.113 60.0272C482.1 60.3211 482.09 60.6158 482.09 60.913C482.091 61.6401 482.132 62.3665 482.214 63.089C482.377 62.999 482.511 62.8633 482.598 62.6985Z" fill="white"></path>
  </g>
  <g opacity="0.5">
    <path opacity="0.5" d="M512.113 71.0789C511.032 70.9108 510.07 70.8922 509.176 71.0196C505.226 71.588 503.644 74.1514 503.578 74.2602C503.456 74.4774 503.423 74.7337 503.487 74.9747C503.551 75.2156 503.706 75.4222 503.92 75.5504C504.133 75.6787 504.389 75.7186 504.631 75.6615C504.874 75.6045 505.085 75.4551 505.219 75.2451C505.23 75.2256 506.437 73.3443 509.446 72.9147C510.151 72.8133 510.928 72.8336 511.82 72.9708C513.275 73.1989 514.682 73.6632 515.986 74.3454C516.433 73.8723 516.855 73.3773 517.253 72.8603C515.659 71.9658 513.919 71.3626 512.113 71.0789Z" fill="white"></path>
  </g>
  <g opacity="0.3">
    <path opacity="0.3" d="M489.732 78.1324C492.714 79.71 496.038 80.5329 499.412 80.5293C510.88 80.5293 520.176 71.2324 520.176 59.7644C520.181 54.9119 518.478 50.2125 515.365 46.4897C515.289 49.5662 513.811 74.2586 486.043 74.9674C487.808 76.8841 489.918 78.4526 492.262 79.5915C491.385 79.165 490.54 78.6774 489.732 78.1324Z" fill="#371A45"></path>
  </g>
  <g opacity="0.5">
    <path opacity="0.5" d="M501.709 41.2964C498.277 41.2939 494.906 42.1975 491.936 43.9158C489.256 45.4636 486.978 47.6193 485.284 50.2092C483.199 53.3896 482.09 57.1104 482.093 60.9132C482.093 67.5315 485.391 73.3897 490.426 76.9444C486.92 73.7615 484.686 69.4158 484.139 64.7123C483.591 60.0088 484.767 55.2663 487.448 51.363C488.484 51.1625 489.721 50.4642 490.816 49.3713C491.872 48.3157 492.565 47.1165 492.79 46.1007C496.078 43.9144 499.949 42.774 503.897 42.8297C507.845 42.8853 511.683 44.1343 514.907 46.4125C511.302 43.1178 506.593 41.2926 501.709 41.2964Z" fill="white"></path>
  </g>
  <path d="M500.562 50.5682C498.27 50.5682 496.284 49.6418 495.227 48.8493C495.024 48.6974 494.89 48.471 494.854 48.2199C494.817 47.9688 494.882 47.7136 495.034 47.5104C495.186 47.3072 495.413 47.1727 495.664 47.1365C495.915 47.1002 496.17 47.1652 496.373 47.3171C496.549 47.4462 500.493 50.2905 504.456 47.3171C504.493 47.289 504.532 47.2637 504.573 47.2416L512.139 43.1331C512.362 43.012 512.624 42.9844 512.867 43.0564C513.111 43.1285 513.315 43.2942 513.436 43.5172C513.558 43.7402 513.585 44.0022 513.513 44.2455C513.441 44.4888 513.275 44.6936 513.052 44.8147L505.547 48.8907C503.876 50.1257 502.146 50.5682 500.562 50.5682Z" fill="#371A45"></path>
  <path d="M481.367 62.0659C481.203 62.0656 481.042 62.0232 480.9 61.9427C480.757 61.8623 480.637 61.7465 480.552 61.6065C480.467 61.4665 480.419 61.307 480.413 61.1432C480.407 60.9794 480.443 60.8168 480.518 60.671C480.74 60.2631 480.987 59.8698 481.259 59.4937C482.833 57.2873 485.05 55.6207 487.606 54.7215C490.163 53.8224 492.935 53.7346 495.543 54.4701C498.71 55.3633 504.564 56.448 508.142 53.6379C508.342 53.4879 508.593 53.4223 508.841 53.455C509.088 53.4877 509.314 53.6161 509.468 53.8128C509.623 54.0095 509.694 54.2588 509.667 54.5075C509.64 54.7561 509.517 54.9843 509.324 55.1432C505.08 58.4722 498.542 57.3063 495.024 56.3116C492.795 55.6828 490.428 55.7573 488.243 56.525C486.059 57.2926 484.165 58.7159 482.821 60.6004C482.601 60.9049 482.399 61.2224 482.217 61.5512C482.136 61.7065 482.014 61.8365 481.864 61.9273C481.714 62.018 481.543 62.066 481.367 62.0659Z" fill="#371A45"></path>
  <path d="M517.999 74.5788C517.782 74.5787 517.571 74.5045 517.402 74.3685C515.215 72.6163 512.727 72.0195 511.439 71.8198C510.546 71.6818 509.77 71.6631 509.065 71.7646C506.055 72.1941 504.85 74.0754 504.842 74.0949C504.78 74.2064 504.695 74.3042 504.594 74.3825C504.493 74.4608 504.377 74.5181 504.253 74.5508C504.129 74.5836 504 74.5912 503.874 74.5732C503.747 74.5553 503.625 74.5121 503.515 74.4462C503.406 74.3804 503.31 74.2932 503.235 74.1898C503.159 74.0865 503.105 73.969 503.076 73.8444C503.047 73.7199 503.043 73.5907 503.064 73.4645C503.086 73.3384 503.132 73.2178 503.201 73.11C503.267 73.0012 504.848 70.4305 508.798 69.8695C509.691 69.742 510.655 69.7615 511.737 69.9288C513.213 70.1577 516.068 70.8446 518.603 72.8753C518.758 72.9991 518.871 73.1682 518.926 73.3592C518.981 73.5502 518.975 73.7536 518.91 73.9411C518.844 74.1286 518.721 74.291 518.559 74.4055C518.396 74.5201 518.202 74.5813 518.003 74.5804L517.999 74.5788Z" fill="#371A45"></path>
  <path d="M476.015 70.6834C475.425 70.6792 474.848 70.5029 474.356 70.176C473.864 69.8491 473.478 69.3859 473.246 68.843C473.013 68.3001 472.944 67.7011 473.046 67.1195C473.149 66.5378 473.419 65.9986 473.823 65.5681C475.81 63.457 479.697 61.5237 479.862 61.4425C480.18 61.2919 480.544 61.2723 480.876 61.3879C481.209 61.5035 481.482 61.745 481.637 62.0604C481.793 62.3757 481.818 62.7396 481.708 63.0735C481.598 63.4074 481.361 63.6845 481.048 63.8451C481.012 63.863 477.428 65.6452 475.775 67.4031C475.724 67.4569 475.691 67.5253 475.681 67.5986C475.671 67.672 475.684 67.7467 475.718 67.8123C475.752 67.8779 475.806 67.9312 475.873 67.9647C475.939 67.9982 476.013 68.0102 476.087 67.9991C482.245 67.0742 513.599 61.976 526.113 52.4095C526.2 52.3528 526.265 52.2688 526.299 52.1709C526.333 52.0729 526.334 51.9664 526.301 51.868C526.271 51.7671 526.208 51.6791 526.122 51.6178C526.037 51.5566 525.933 51.5255 525.828 51.5294C524.33 51.4685 522.555 51.6512 520.55 52.0758C520.202 52.1494 519.84 52.0818 519.542 51.8879C519.244 51.6941 519.035 51.3899 518.962 51.0422C518.888 50.6945 518.956 50.3319 519.15 50.034C519.344 49.7362 519.648 49.5276 519.996 49.454C522.219 48.9839 524.218 48.7825 525.937 48.8524C526.592 48.8726 527.223 49.0954 527.746 49.4901C528.268 49.8847 528.654 50.4318 528.852 51.0557C529.05 51.6795 529.049 52.3494 528.85 52.9729C528.651 53.5963 528.263 54.1425 527.74 54.536C515.029 64.2527 485.295 69.3258 476.485 70.6485C476.329 70.6717 476.172 70.6834 476.015 70.6834Z" fill="#371A45"></path>
  <path d="M496.936 70.5693C499.402 69.5478 500.573 66.7203 499.551 64.254C498.53 61.7877 495.702 60.6165 493.236 61.6381C490.77 62.6596 489.599 65.4871 490.62 67.9534C491.642 70.4197 494.469 71.5909 496.936 70.5693Z" fill="#00BBFC"></path>
  <path d="M495.086 71.8906C493.941 71.8906 492.821 71.5511 491.869 70.9148C490.917 70.2786 490.175 69.3743 489.737 68.3163C489.298 67.2584 489.184 66.0942 489.407 64.971C489.631 63.8479 490.182 62.8162 490.992 62.0064C491.802 61.1967 492.833 60.6452 493.956 60.4218C495.08 60.1984 496.244 60.3131 497.302 60.7513C498.36 61.1895 499.264 61.9316 499.9 62.8838C500.536 63.836 500.876 64.9554 500.876 66.1006C500.874 67.6357 500.264 69.1074 499.178 70.1929C498.093 71.2784 496.621 71.8889 495.086 71.8906ZM495.086 62.2284C494.319 62.2284 493.57 62.4557 492.932 62.8817C492.295 63.3076 491.798 63.913 491.505 64.6213C491.211 65.3296 491.135 66.109 491.284 66.8609C491.434 67.6128 491.803 68.3035 492.345 68.8456C492.887 69.3877 493.578 69.7569 494.33 69.9065C495.082 70.056 495.861 69.9793 496.569 69.6859C497.278 69.3925 497.883 68.8956 498.309 68.2582C498.735 67.6207 498.962 66.8713 498.962 66.1047C498.961 65.0769 498.552 64.0916 497.826 63.3649C497.099 62.6382 496.114 62.2295 495.086 62.2284Z" fill="#371A45"></path>
  <g opacity="0.5">
    <path opacity="0.5" d="M492.357 66.8694C492.357 66.2274 492.516 65.5954 492.821 65.0302C493.125 64.465 493.565 63.9844 494.102 63.6314C494.638 63.2785 495.254 63.0643 495.893 63.0082C496.533 62.952 497.176 63.0557 497.766 63.3098C497.356 62.9169 496.866 62.6187 496.329 62.4363C495.791 62.2538 495.221 62.1916 494.657 62.254C494.093 62.3163 493.55 62.5018 493.065 62.7972C492.581 63.0926 492.168 63.4909 491.854 63.9637C491.541 64.4365 491.335 64.9724 491.251 65.5335C491.168 66.0947 491.208 66.6673 491.37 67.211C491.532 67.7546 491.812 68.2561 492.189 68.6798C492.566 69.1036 493.032 69.4393 493.553 69.6634C493.175 69.3027 492.874 68.8692 492.669 68.389C492.463 67.9087 492.357 67.3918 492.357 66.8694Z" fill="white"></path>
  </g>
  <g opacity="0.3">
    <path opacity="0.3" d="M497.669 62.3477C497.669 62.3477 498.051 68.4722 491.544 69.2379C491.544 69.2379 496.52 72.2998 499.965 68.089C499.965 68.089 500.73 63.4966 497.669 62.3477Z" fill="#371A45"></path>
  </g>
  <g clip-path="url(#clip0_5601_2700)">
    <path d="M354.485 234.839C354.485 234.839 353.569 240.688 351.644 248.534C348.212 262.546 341.573 282.933 331.251 287.613C331.251 287.613 313.66 291.429 300.218 281.14C298.425 279.766 297.284 276.838 296.659 272.789C292.584 246.522 310.095 173.203 310.095 173.203L325.442 167.959C325.442 167.959 347.68 172.772 355.148 180.738C362.617 188.704 354.484 234.839 354.484 234.839H354.485Z" fill="#F8F8F8"></path>
    <path d="M323.308 290.562C316.624 290.562 307.078 289.21 298.858 282.918C294.796 279.808 290.277 270.209 297.908 222.956C302.025 197.472 307.864 172.928 307.922 172.684C308.209 171.481 309.416 170.739 310.619 171.027C311.822 171.313 312.563 172.522 312.276 173.723C312.218 173.967 306.413 198.368 302.324 223.692C295.03 268.871 299.374 277.675 301.58 279.363C313.215 288.269 328.514 285.843 330.555 285.468C342.718 279.588 350.352 246.732 352.276 234.492C355.35 217.038 358.399 187.474 353.518 182.267C346.607 174.897 325.187 170.192 324.971 170.145C323.762 169.884 322.995 168.693 323.258 167.485C323.519 166.277 324.708 165.511 325.918 165.771C326.855 165.974 348.929 170.829 356.784 179.206C358.108 180.619 362.136 184.915 359.85 210.971C358.754 223.454 356.712 235.112 356.692 235.228C356.399 237.091 349.18 281.938 332.178 289.65C332.034 289.716 331.883 289.765 331.728 289.8C331.412 289.869 328.093 290.56 323.31 290.562H323.308Z" fill="#371A45"></path>
    <path d="M354.258 184.515C351.517 181.964 347.651 180.808 343.919 180.921C343.313 180.982 342.646 181.031 342.04 181.105C341.641 181.19 340.555 181.405 340.165 181.489C339.757 181.613 338.733 181.945 338.316 182.073C337.493 182.38 336.693 182.761 335.868 183.105C335.699 183.176 335.506 183.096 335.435 182.928C335.372 182.778 335.428 182.608 335.56 182.523C336.629 181.796 337.859 180.971 339.044 180.402C339.709 180.013 340.87 179.602 341.59 179.306C342.925 178.885 344.334 178.535 345.731 178.396C349.642 178.001 353.835 178.888 357.147 181.097L358.201 181.889C359.31 182.723 359.532 184.298 358.699 185.406C357.487 187.091 354.716 186.513 354.258 184.514V184.515Z" fill="#371A45"></path>
    <g opacity="0.2">
      <path d="M352.325 249.365C348.894 263.378 342.255 283.764 331.933 288.444C331.933 288.444 314.341 292.26 300.899 281.971C299.107 280.597 297.965 277.67 297.341 273.621L314.533 256.913L320.786 246.464C320.786 246.464 343.528 257.444 345.201 242.157C346.11 233.845 349.503 240.086 352.324 249.366L352.325 249.365Z" fill="#371A45"></path>
    </g>
    <path d="M333.137 265.141C328.78 265.141 325.224 264.277 322.501 262.549C318.651 260.105 317.967 256.839 317.903 256.475C317.684 255.258 318.495 254.096 319.712 253.878C320.918 253.661 322.066 254.452 322.302 255.646C322.334 255.782 322.783 257.495 325.065 258.871C327.883 260.57 333.734 261.926 345.608 258.732C346.801 258.41 348.03 259.118 348.35 260.311C348.671 261.506 347.964 262.733 346.77 263.054C341.598 264.444 337.046 265.14 333.138 265.14L333.137 265.141Z" fill="#371A45"></path>
    <path d="M334.99 232.88C332.841 240.031 330.831 247.508 330.562 254.965C330.546 256.76 330.637 259.544 331.771 260.688C332.729 261.49 332.854 262.917 332.052 263.875C331.25 264.833 329.823 264.959 328.865 264.157C328.349 263.667 327.954 263.032 327.644 262.397C326.042 258.67 327.005 254.51 327.814 250.774C329.37 244.507 331.732 238.502 334.372 232.635C334.538 232.276 335.124 232.477 334.99 232.879V232.88Z" fill="#371A45"></path>
    <path d="M240.375 279.236C239.944 279.343 239.506 279.451 239.074 279.551C222.426 283.54 204.973 285.764 204.973 285.764C201.114 302.208 196.286 314.571 193.517 320.948C192.202 323.971 189.225 325.916 185.932 325.968C147.193 326.622 140.465 311.114 140.465 311.114C140.029 308.354 139.991 306.004 140.278 304.011C142.465 288.706 163.447 294.473 163.447 294.473C167.448 279.848 174.003 264.574 176.924 258.077C177.882 255.951 179.399 254.122 181.315 252.797C202.29 238.332 218.98 232.63 218.98 232.63L233.74 257.827C233.74 257.827 257.393 275.04 240.374 279.235L240.375 279.236Z" fill="#F8F8F8"></path>
    <path d="M183.765 328.21C145.825 328.211 138.642 312.576 138.35 311.898C138.275 311.726 138.222 311.545 138.194 311.359C137.045 304.026 138.443 298.542 142.348 295.06C148.109 289.926 157.583 290.965 161.84 291.772C165.994 277.473 172.317 262.906 174.931 257.125C176.063 254.62 177.85 252.479 180.102 250.931C201.12 236.493 217.661 230.797 218.355 230.561C219.526 230.163 220.795 230.79 221.193 231.96C221.591 233.131 220.964 234.402 219.795 234.798C219.631 234.855 203.106 240.558 182.637 254.619C181.059 255.703 179.805 257.206 179.01 258.965C176.315 264.929 169.611 280.378 165.575 295.009C165.417 295.581 165.038 296.068 164.521 296.361C164.004 296.654 163.392 296.73 162.82 296.571C162.704 296.539 150.938 293.385 145.321 298.404C142.684 300.76 141.756 304.766 142.563 310.313C143.533 311.996 151.801 324.217 185.807 323.717C188.236 323.681 190.425 322.241 191.383 320.048C193.966 314.141 198.882 301.768 202.784 285.27C202.998 284.361 203.756 283.68 204.683 283.565C204.865 283.542 223.14 281.232 239.842 277.15C241.69 276.7 243.956 275.838 244.261 274.296C244.974 270.713 237.789 263.61 232.461 259.711C231.463 258.981 231.246 257.582 231.975 256.584C232.704 255.585 234.104 255.37 235.102 256.097C237.63 257.945 250.163 267.544 248.652 275.165C248.038 278.262 245.432 280.391 240.904 281.498C226.783 284.949 211.578 287.149 206.779 287.802C202.858 303.892 198.049 315.977 195.485 321.842C193.826 325.639 190.053 328.132 185.874 328.193C185.162 328.204 184.457 328.208 183.766 328.208L183.765 328.21Z" fill="#371A45"></path>
    <path d="M204.307 287.928L197.617 283.893C197.314 283.723 197.47 283.228 197.811 283.257L205.614 283.647C206.888 283.71 207.867 284.794 207.804 286.066C207.763 287.775 205.735 288.835 204.307 287.927V287.928Z" fill="#371A45"></path>
    <path d="M195.075 293.527C177.047 293.527 166.967 279.742 166.851 279.58C166.133 278.574 166.367 277.176 167.373 276.458C168.376 275.739 169.773 275.972 170.492 276.976C170.983 277.655 182.505 293.233 203.334 287.991C204.533 287.69 205.749 288.416 206.051 289.614C206.353 290.812 205.625 292.029 204.428 292.331C201.11 293.166 197.989 293.527 195.077 293.527H195.075Z" fill="#371A45"></path>
    <path d="M375.197 276.254C374.593 282.222 370.895 287.553 365.333 289.796C358.848 292.418 352.395 290.194 350.304 282.753C349.992 281.664 349.78 280.463 349.673 279.149C340.433 282.023 335.806 274.229 345.08 267.864C345.08 267.864 347.184 245.958 342.039 239.984C337.153 234.308 326.579 226.84 325.53 226.11C325.47 226.063 325.444 226.044 325.444 226.044L325.279 232.238C325.279 232.238 326.938 241.094 321.793 248.614C321.793 248.614 313.661 292.426 269.517 314.664L285.057 351.068C285.695 352.555 285.555 354.261 284.679 355.622C281.141 361.099 269.836 374.355 242.853 375.404C240.576 374.395 238.391 371.959 237.137 368.872C234.867 363.295 235.63 355.603 244.405 350.398L234.832 328.937C234.832 328.937 222.718 309.241 240.86 278.487C216.743 261.56 213.438 225.886 227.033 200.489C227.033 200.489 226.615 200.356 225.851 200.078C220.235 198.026 195.872 187.91 180.678 162.048C167.467 161.098 163.113 148.075 166.764 139.75L166.785 139.711C167.083 139.033 167.436 138.389 167.84 137.785C168.869 136.252 170.237 134.971 171.936 134.108L167.62 128.353C163.637 121.715 169.559 116.324 175.806 120.499L186.872 129.128C191.519 121.275 198.708 122.271 200.367 132.002L201.032 139.417C201.032 139.417 219.187 165.478 245.069 163.235C270.958 160.992 321.794 177.859 321.794 177.859C321.794 177.859 324.875 179.652 329.734 183.109H329.741C336.48 187.902 346.635 195.894 356.739 206.755C362.242 212.669 366.537 219.62 369.298 227.213C373.235 238.04 377.338 255.153 375.2 276.256L375.197 276.254Z" fill="#F8F8F8"></path>
    <path d="M242.853 377.641C242.54 377.641 242.231 377.575 241.944 377.448C237.577 375.509 234.167 369.998 233.834 364.345C233.631 360.89 234.426 354.583 241.577 349.559L232.841 329.965C231.683 327.981 221.325 308.66 237.923 279.104C227.05 270.773 219.859 258.033 217.592 242.996C215.509 229.169 217.799 214.284 223.884 201.736C216.426 198.85 194.085 188.548 179.333 164.162C169.727 162.972 164.946 156.026 163.672 149.741C162.37 143.318 164.416 137.034 168.718 133.544L165.831 129.694C165.784 129.631 165.742 129.568 165.702 129.502C163.348 125.576 163.587 121.364 166.311 118.77C168.558 116.629 172.75 115.759 177.052 118.635C177.098 118.665 177.141 118.698 177.184 118.731L186.375 125.901C188.91 122.723 192.071 121.198 195.136 121.765C198.915 122.464 201.625 126.057 202.575 131.626C202.585 131.685 202.593 131.744 202.598 131.803L203.206 138.595C205.754 141.989 222.462 162.932 244.876 161.002C270.918 158.736 320.404 175.041 322.497 175.736C322.643 175.785 322.784 175.848 322.917 175.926C323.645 176.349 340.953 186.503 358.375 205.23C364.156 211.445 368.537 218.585 371.397 226.45C375.356 237.341 379.616 254.861 377.426 276.479C376.718 283.455 372.405 289.353 366.171 291.873C361.757 293.656 357.248 293.459 353.797 291.33C350.728 289.436 348.645 286.128 347.794 281.87C342.992 282.558 339.688 280.563 338.425 277.956C337.047 275.116 337.571 270.723 342.944 266.648C343.625 258.418 343.502 245.111 340.344 241.444C337.15 237.735 331.289 233.128 327.568 230.35L327.521 232.084C327.769 233.678 328.768 242.035 323.9 249.489C323.419 251.773 321.024 261.915 314.17 274.377C307.319 286.839 294.552 303.961 272.392 315.697L287.116 350.185C288.047 352.365 287.838 354.85 286.557 356.832C282.748 362.727 270.875 376.55 242.942 377.638C242.913 377.638 242.883 377.64 242.854 377.64L242.853 377.641ZM169.484 127.106L173.725 132.762C174.122 133.291 174.263 133.967 174.115 134.611C173.965 135.255 173.539 135.799 172.951 136.099C168.961 138.133 166.949 143.378 168.058 148.852C168.543 151.243 170.896 159.1 180.835 159.814C181.57 159.866 182.232 160.278 182.605 160.912C199.195 189.153 227.416 198.262 227.699 198.35C228.335 198.551 228.85 199.023 229.103 199.641C229.355 200.258 229.32 200.956 229.006 201.543C216.679 224.578 218.198 259.846 242.148 276.654C243.103 277.326 243.383 278.618 242.789 279.623C225.624 308.72 236.281 327.007 236.743 327.771C236.791 327.85 236.839 327.94 236.876 328.024L246.446 349.487C246.909 350.524 246.521 351.744 245.545 352.324C239.209 356.083 238.111 360.793 238.304 364.083C238.548 368.234 240.979 371.823 243.335 373.142C268.761 371.977 279.395 359.67 282.799 354.404C283.271 353.674 283.346 352.753 283 351.943L267.46 315.543C266.996 314.456 267.456 313.196 268.511 312.665C290.736 301.47 303.431 284.574 310.166 272.372C317.499 259.087 319.573 248.311 319.593 248.203C319.651 247.899 319.771 247.606 319.946 247.351C324.479 240.722 323.092 232.727 323.078 232.646C323.05 232.495 323.037 232.335 323.04 232.18L323.206 225.985C323.229 225.162 323.7 224.419 324.434 224.047C325.169 223.674 326.046 223.738 326.721 224.207C327.198 224.539 338.465 232.404 343.735 238.524C349.341 245.035 347.533 265.739 347.309 268.078C347.246 268.737 346.894 269.335 346.348 269.709C342.746 272.181 341.795 274.652 342.451 276.002C343.09 277.32 345.548 278.088 349.007 277.012C349.656 276.81 350.362 276.913 350.925 277.293C351.489 277.674 351.849 278.291 351.903 278.967C352.232 283.052 353.701 286.009 356.147 287.52C358.403 288.914 361.367 288.985 364.491 287.722C369.182 285.825 372.432 281.345 372.971 276.027C375.077 255.251 370.988 238.43 367.188 227.978C364.535 220.679 360.466 214.051 355.095 208.278C339.119 191.103 322.811 181.08 320.859 179.909C317.15 178.698 269.522 163.361 245.26 165.46C244.111 165.559 242.974 165.607 241.855 165.607C216.845 165.61 199.932 141.753 199.194 140.693C198.971 140.373 198.837 140.001 198.802 139.614L198.146 132.293C197.539 128.835 196.078 126.491 194.321 126.166C192.601 125.846 190.48 127.418 188.795 130.264C188.468 130.818 187.917 131.204 187.285 131.324C186.652 131.445 186 131.286 185.493 130.89L174.498 122.315C172.545 121.035 170.549 120.913 169.395 122.012C168.247 123.106 168.283 125.051 169.483 127.106H169.484Z" fill="#371A45"></path>
    <path d="M171.386 160.812C170.325 160.812 169.384 160.055 169.187 158.974C168.965 157.758 169.772 156.593 170.988 156.372C177.657 155.159 178.609 149.936 178.709 147.746C178.919 143.169 176.218 137.621 171.334 136.261C170.144 135.93 169.447 134.695 169.778 133.505C170.109 132.314 171.343 131.618 172.535 131.949C178.94 133.731 183.516 140.611 183.181 147.95C182.875 154.638 178.509 159.552 171.789 160.775C171.653 160.8 171.518 160.811 171.386 160.811V160.812Z" fill="#371A45"></path>
    <path d="M189.009 128.468C189.3 130.481 188.61 132.484 187.857 134.276C187.186 135.835 186.236 137.351 185.263 138.725C185.066 139.028 184.567 138.806 184.657 138.461C184.654 138.467 184.932 137.246 184.931 137.245C185.359 134.873 185.689 132.269 184.877 129.98C184.847 129.921 184.819 129.853 184.79 129.805C184.767 129.776 184.717 129.662 184.731 129.783C183.949 126.932 188.053 125.666 189.009 128.467V128.468Z" fill="#371A45"></path>
    <path d="M192.917 180.397C191.831 180.397 190.877 179.606 190.707 178.499C190.519 177.278 191.357 176.135 192.579 175.948C200.137 174.785 210.052 166.482 213.536 153.386C213.854 152.191 215.079 151.48 216.274 151.799C217.469 152.117 218.18 153.343 217.862 154.537C213.845 169.63 202.445 178.958 193.26 180.372C193.145 180.39 193.03 180.398 192.917 180.398V180.397Z" fill="#371A45"></path>
    <path d="M225.042 199.462C227.731 195.092 230.626 191.057 233.737 187.032C236.806 183.07 240.064 179.258 243.483 175.602C243.608 175.468 243.819 175.46 243.953 175.584C244.078 175.701 244.095 175.891 243.995 176.026C242.549 178.05 241.126 180.083 239.78 182.166C237.072 186.305 234.562 190.575 232.253 194.941C231.105 197.12 229.977 199.364 229.008 201.543C227.619 204.364 223.508 202.227 225.042 199.462Z" fill="#371A45"></path>
    <path d="M323.955 227.715L314.546 216.778C314.292 216.497 314.68 216.058 314.987 216.282L326.932 224.374C327.964 225.073 328.234 226.477 327.535 227.51C326.731 228.735 324.892 228.835 323.953 227.716L323.955 227.715Z" fill="#371A45"></path>
    <path d="M284.429 255.033C283.499 255.033 282.559 254.896 281.639 254.62C259.979 248.056 242.749 241.518 228.96 234.631C226.319 233.305 224.686 230.649 224.695 227.696C224.743 211.385 231.901 200.249 236.164 195.063C237.873 192.987 240.492 191.966 243.175 192.336C272.628 196.362 293.821 207.316 301.565 211.838C303.768 213.121 305.155 215.495 305.184 218.032C305.231 222.031 304.994 225.79 304.482 229.205C304.389 229.825 304.041 230.377 303.521 230.727C303.002 231.079 302.359 231.195 301.749 231.05C301.021 230.876 300.288 230.699 299.553 230.518C298.392 232.913 296.381 237.884 297.161 242.291C297.823 242.505 298.351 243.016 298.583 243.677C298.826 244.364 298.718 245.126 298.293 245.72C295.793 249.221 292.567 252.008 288.702 254.002C287.368 254.688 285.908 255.035 284.426 255.035L284.429 255.033ZM242.108 196.737C241.143 196.737 240.237 197.157 239.62 197.906C236.495 201.709 229.217 212.229 229.171 227.708C229.168 228.953 229.855 230.07 230.964 230.628C244.521 237.4 261.521 243.847 282.932 250.335C284.198 250.713 285.523 250.604 286.657 250.022C289.183 248.717 291.383 247.007 293.22 244.924C293.195 244.86 293.171 244.795 293.152 244.728C290.682 236.57 296.237 227.168 296.474 226.771C296.981 225.925 297.98 225.511 298.936 225.75C299.413 225.87 299.89 225.988 300.365 226.105C300.626 223.596 300.743 220.908 300.709 218.084C300.698 217.11 300.162 216.199 299.311 215.704C291.795 211.316 271.225 200.688 242.569 196.77C242.415 196.748 242.261 196.738 242.11 196.738L242.108 196.737Z" fill="#371A45"></path>
    <path d="M232.456 207.069C232.301 207.069 232.144 207.054 231.987 207.02L225.119 205.555C223.911 205.297 223.14 204.108 223.397 202.899C223.655 201.691 224.847 200.922 226.053 201.177L232.921 202.643C234.13 202.9 234.9 204.09 234.643 205.298C234.418 206.35 233.489 207.069 232.457 207.069H232.456Z" fill="#371A45"></path>
    <path d="M227.757 220.92C227.628 220.92 227.497 220.909 227.365 220.885L220.382 219.651C219.165 219.436 218.352 218.276 218.568 217.058C218.783 215.839 219.944 215.027 221.161 215.244L228.144 216.477C229.361 216.692 230.174 217.853 229.958 219.071C229.767 220.156 228.822 220.92 227.757 220.92Z" fill="#371A45"></path>
    <path d="M274.994 251.349C274.254 251.349 273.53 250.983 273.103 250.312C272.44 249.269 272.749 247.887 273.792 247.223C295.299 233.55 289.835 211.937 289.592 211.024C289.274 209.831 289.982 208.604 291.173 208.284C292.364 207.966 293.591 208.667 293.913 209.858C293.984 210.121 295.642 216.396 294.293 224.601C293.045 232.188 288.892 242.925 276.192 250.999C275.819 251.236 275.404 251.349 274.993 251.349H274.994Z" fill="#371A45"></path>
    <path d="M321.793 250.851C312.299 250.851 300.506 247.86 295.875 246.575C295.092 246.355 294.657 246.226 294.657 246.226C293.935 246.012 293.369 245.449 293.151 244.728C290.681 236.57 296.236 227.168 296.474 226.771C296.981 225.926 297.981 225.512 298.935 225.75C300.229 226.074 301.515 226.391 302.789 226.694C314.74 229.529 325.7 231.358 325.809 231.376C327.029 231.579 327.854 232.731 327.651 233.95C327.448 235.17 326.296 235.992 325.077 235.792C324.966 235.774 313.861 233.92 301.753 231.049C301.023 230.875 300.29 230.696 299.555 230.515C298.393 232.911 296.384 237.881 297.163 242.286C300.737 243.275 312.672 246.374 321.793 246.374C323.029 246.374 324.03 247.377 324.03 248.613C324.03 249.849 323.028 250.851 321.793 250.851Z" fill="#371A45"></path>
    <path d="M251.604 242.987C251.415 242.987 251.222 242.955 251.034 242.887C250.173 242.571 249.731 241.618 250.047 240.757L255.103 226.958C255.734 225.236 255.224 223.276 253.836 222.08L250.574 219.271C248.127 217.162 247.243 213.713 248.374 210.688L253.801 196.175C254.122 195.316 255.077 194.881 255.936 195.201C256.795 195.523 257.23 196.478 256.91 197.337L251.483 211.849C250.837 213.578 251.342 215.549 252.741 216.756L256.002 219.564C258.433 221.657 259.323 225.086 258.22 228.098L253.164 241.897C252.918 242.57 252.283 242.986 251.605 242.986L251.604 242.987Z" fill="#371A45"></path>
    <path d="M274.606 231.596C279.097 231.596 282.738 227.788 282.738 223.09C282.738 218.393 279.097 214.584 274.606 214.584C270.115 214.584 266.475 218.393 266.475 223.09C266.475 227.788 270.115 231.596 274.606 231.596Z" fill="#31C0FF"></path>
    <path d="M274.606 233.254C269.207 233.254 264.815 228.694 264.815 223.089C264.815 217.484 269.207 212.924 274.606 212.924C280.005 212.924 284.397 217.484 284.397 223.089C284.397 228.694 280.005 233.254 274.606 233.254ZM274.606 216.244C271.037 216.244 268.134 219.314 268.134 223.089C268.134 226.863 271.038 229.934 274.606 229.934C278.175 229.934 281.079 226.863 281.079 223.089C281.079 219.314 278.175 216.244 274.606 216.244Z" fill="#371A45"></path>
    <path d="M276.282 214.986C282.573 218.529 280.228 228.93 273.132 229.831C272.225 229.938 271.312 229.851 270.487 229.563C271.317 229.273 272.065 228.978 272.741 228.585C277.53 225.899 278.786 219.783 276.283 214.986H276.282Z" fill="#371A45"></path>
    <path d="M356.1 252.187C350.662 252.187 345.793 250.55 342.914 247.588C342.052 246.702 342.074 245.285 342.96 244.423C343.847 243.563 345.263 243.582 346.124 244.468C348.867 247.292 354.708 248.418 360.656 247.268C365.891 246.257 369.952 243.655 371.256 240.478C371.726 239.334 373.033 238.789 374.177 239.257C375.321 239.726 375.866 241.034 375.397 242.178C373.498 246.804 368.305 250.349 361.505 251.662C359.676 252.015 357.857 252.187 356.098 252.187H356.1Z" fill="#371A45"></path>
    <path d="M244.402 348.161L251.704 350.067C252.04 350.143 252.036 350.657 251.704 350.732L244.402 352.638C243.166 352.961 241.902 352.221 241.58 350.985C241.098 349.323 242.756 347.69 244.402 348.162V348.161Z" fill="#371A45"></path>
    <path d="M244.492 335.744C241.273 335.744 238.197 335.28 235.498 334.274C234.34 333.842 233.75 332.553 234.181 331.396C234.613 330.238 235.903 329.649 237.06 330.08C247.102 333.817 264.659 328.223 269.452 319.757C270.061 318.681 271.427 318.305 272.502 318.911C273.578 319.52 273.956 320.886 273.348 321.962C268.769 330.049 255.765 335.744 244.493 335.744H244.492Z" fill="#371A45"></path>
    <g opacity="0.2">
      <path d="M375.196 276.255C374.592 282.222 370.894 287.553 365.332 289.796C358.847 292.418 352.394 290.194 350.303 282.753C365.364 287.015 358.926 262.699 358.926 262.699C359.709 217.712 329.731 183.107 329.731 183.107H329.739C336.477 187.9 346.632 195.892 356.736 206.753C362.24 212.667 366.535 219.618 369.296 227.211C373.232 238.038 377.335 255.151 375.197 276.254L375.196 276.255Z" fill="#371A45"></path>
    </g>
    <g opacity="0.2">
      <path d="M325.83 232.671L325.995 226.479C325.995 226.479 326.021 226.499 326.081 226.544L320.658 220.337C320.658 220.337 310.674 212.869 296.595 210.878C296.595 210.878 302.781 238.62 279.202 251.796L232.874 234.225C232.874 234.225 261.332 255.521 273.997 259.171C286.663 262.822 297.404 267.363 276.766 287.41C256.127 307.465 252.476 308.347 256.679 321.291C260.536 333.147 282.753 368.085 237.687 369.305C238.941 372.391 241.125 374.828 243.402 375.837C270.387 374.788 281.691 361.532 285.229 356.055C286.106 354.694 286.245 352.988 285.607 351.501L270.067 315.097C314.21 292.86 322.343 249.047 322.343 249.047C327.488 241.526 325.828 232.671 325.828 232.671H325.83ZM300.16 236.322C294.85 233.893 300.16 229.465 300.16 229.465L320.932 233.116C320.932 233.116 324.834 234.111 324.834 238.706C324.834 243.3 305.471 238.759 300.16 236.322Z" fill="#371A45"></path>
    </g>
    <g opacity="0.2">
      <path d="M236.824 183.107L225.851 200.074C220.235 198.023 195.872 187.907 180.678 162.045C167.467 161.095 163.113 148.072 166.764 139.747L166.785 139.707L167.84 137.782C167.84 137.782 168.078 154.019 180.957 150.368V143.563C180.957 143.563 182.224 157.504 190.19 156.508C190.19 156.508 212.76 183.485 236.824 183.107Z" fill="#371A45"></path>
    </g>
    <path d="M219.953 116.724C221.341 129.042 225.853 141.089 233.488 151.636C235.047 153.786 236.726 155.871 238.538 157.883C239.417 158.864 240.337 159.828 241.28 160.782C244.14 163.642 247.175 166.223 250.355 168.529C253.092 170.523 255.94 172.307 258.866 173.888C262.397 175.799 266.053 177.405 269.789 178.715C271.153 179.189 272.525 179.625 273.905 180.025C299.186 187.282 327.513 181.243 347.499 161.783C376.946 133.122 377.126 86.2058 347.915 56.9923C342.285 51.3702 335.976 46.7996 329.243 43.3178C328.46 42.9029 327.662 42.5096 326.857 42.1331C324.71 41.1116 322.528 40.1968 320.313 39.3898C315.193 37.5242 309.908 36.2293 304.57 35.5003C299.235 34.7665 293.83 34.5999 288.474 35.0015C286.77 35.1286 285.072 35.3109 283.376 35.5543C280.834 35.92 278.311 36.408 275.805 37.0362C263.325 40.1284 251.504 46.4423 241.696 55.9923C224.757 72.4785 217.505 95.0028 219.954 116.725L219.953 116.724Z" fill="white"></path>
    <path d="M294.948 183.196C287.904 183.196 280.804 182.224 273.846 180.226C272.475 179.829 271.087 179.388 269.719 178.913C265.931 177.585 262.246 175.956 258.765 174.072C255.789 172.464 252.917 170.656 250.23 168.698C247.02 166.371 243.957 163.757 241.13 160.929C240.095 159.885 239.196 158.934 238.38 158.022C236.599 156.045 234.895 153.938 233.316 151.758C225.856 141.453 221.162 129.346 219.742 116.745C217.181 94.0172 225.128 71.8167 241.549 55.8377C251.041 46.5934 262.869 40.0206 275.753 36.8276C278.192 36.2161 280.746 35.7162 283.344 35.3421C285.011 35.1023 286.73 34.9164 288.457 34.7881C293.827 34.3853 299.257 34.5531 304.598 35.2881C309.987 36.0231 315.299 37.336 320.384 39.1873C322.596 39.9942 324.804 40.9198 326.946 41.9377C327.807 42.3406 328.591 42.7291 329.34 43.1259C336.209 46.6786 342.51 51.2923 348.062 56.8388C362.287 71.0649 370.047 89.8735 369.912 109.802C369.777 129.572 361.87 148.085 347.644 161.931C333.457 175.744 314.432 183.194 294.947 183.194L294.948 183.196ZM220.162 116.701C221.574 129.229 226.241 141.267 233.659 151.513C235.229 153.68 236.923 155.775 238.695 157.741C239.507 158.648 240.402 159.594 241.43 160.633C244.24 163.444 247.286 166.042 250.479 168.357C253.151 170.304 256.006 172.103 258.966 173.702C262.428 175.575 266.092 177.195 269.858 178.516C271.219 178.989 272.601 179.428 273.963 179.821C300.025 187.305 328.145 180.333 347.351 161.631C361.495 147.865 369.358 129.458 369.491 109.803C369.625 89.9898 361.909 71.2867 347.765 57.1422C342.242 51.6268 335.978 47.0395 329.145 43.5048C328.399 43.1104 327.622 42.7243 326.766 42.325C324.635 41.3119 322.44 40.391 320.24 39.5889C315.182 37.7461 309.901 36.4416 304.54 35.7102C299.23 34.98 293.828 34.8121 288.488 35.2138C286.771 35.3409 285.06 35.5267 283.404 35.7641C280.82 36.1358 278.281 36.6334 275.855 37.2413C263.043 40.415 251.282 46.9519 241.842 56.1446C225.518 72.0313 217.615 94.1048 220.162 116.702V116.701Z" fill="#371A45"></path>
    <g opacity="0.2">
      <path d="M347.497 161.779C327.513 181.243 299.182 187.282 273.902 180.021C272.521 179.623 271.149 179.188 269.788 178.714C266.051 177.405 262.398 175.797 258.865 173.889C255.941 172.305 253.09 170.522 250.355 168.531C247.172 166.225 244.139 163.645 241.276 160.784C240.336 159.827 239.417 158.866 238.534 157.886C236.722 155.873 235.046 153.786 233.486 151.637C225.851 141.09 221.337 129.046 219.95 116.724C219.186 109.956 219.365 103.107 220.484 96.3887C222.08 108.117 226.524 119.539 233.808 129.603C235.363 131.757 237.044 133.84 238.855 135.852C239.732 136.832 240.653 137.794 241.597 138.75C244.461 141.611 247.493 144.191 250.671 146.497C253.411 148.489 256.258 150.271 259.182 151.855C262.714 153.763 266.374 155.372 270.105 156.68C271.472 157.154 272.842 157.59 274.223 157.987C299.503 165.249 327.829 159.21 347.819 139.745C359.483 128.395 366.549 114.178 369.021 99.337C372.061 121.586 364.878 144.865 347.496 161.779H347.497Z" fill="#371A45"></path>
    </g>
    <path d="M294.947 184.612C287.774 184.612 280.541 183.621 273.455 181.587C272.059 181.183 270.646 180.735 269.254 180.251C265.391 178.897 261.637 177.237 258.09 175.319C255.059 173.681 252.134 171.839 249.396 169.844C246.128 167.475 243.009 164.813 240.129 161.933C239.073 160.866 238.158 159.899 237.326 158.968C235.514 156.957 233.779 154.811 232.17 152.592C224.568 142.089 219.784 129.75 218.336 116.907C215.726 93.7405 223.827 71.113 240.561 54.8271C250.233 45.4078 262.285 38.7102 275.413 35.4574C277.895 34.8351 280.497 34.3255 283.142 33.9454C284.841 33.7008 286.593 33.5114 288.352 33.3807C293.82 32.9706 299.351 33.1421 304.79 33.8891C310.278 34.6384 315.687 35.9741 320.867 37.8613C323.122 38.6839 325.371 39.6263 327.553 40.6646C328.427 41.0734 329.231 41.4727 330.001 41.8804C336.988 45.4941 343.406 50.193 349.061 55.8427C363.557 70.3397 371.463 89.508 371.326 109.817C371.189 129.968 363.129 148.838 348.63 162.949C334.175 177.023 314.794 184.613 294.944 184.613L294.947 184.612ZM221.569 116.542C222.954 128.828 227.531 140.633 234.806 150.683C236.346 152.809 238.008 154.865 239.747 156.794C240.547 157.688 241.424 158.617 242.436 159.638C245.189 162.39 248.177 164.94 251.31 167.211C253.933 169.124 256.735 170.887 259.639 172.457C263.036 174.295 266.632 175.884 270.327 177.18C271.66 177.642 273.019 178.074 274.357 178.461C299.927 185.802 327.52 178.964 346.364 160.617C360.234 147.117 367.944 129.068 368.075 109.794C368.207 90.3617 360.639 72.0183 346.764 58.1423C341.346 52.7301 335.199 48.229 328.495 44.7616C327.759 44.3719 327.002 43.9966 326.168 43.6057C324.068 42.607 321.914 41.7041 319.756 40.9164C314.794 39.1095 309.611 37.829 304.351 37.1108C299.137 36.3938 293.837 36.2283 288.596 36.6228C286.91 36.7475 285.232 36.9297 283.607 37.1623C281.073 37.528 278.58 38.0148 276.202 38.6119C263.63 41.7269 252.093 48.1391 242.832 57.1568C226.823 72.7365 219.073 94.3819 221.57 116.542H221.569Z" fill="#371A45"></path>
    <path d="M294.946 185.083C287.729 185.083 280.452 184.086 273.324 182.039C271.919 181.633 270.499 181.182 269.099 180.696C265.211 179.332 261.434 177.663 257.866 175.732C254.816 174.084 251.873 172.231 249.118 170.223C245.83 167.841 242.692 165.162 239.794 162.265C238.731 161.191 237.81 160.217 236.973 159.282C235.152 157.26 233.405 155.1 231.787 152.868C224.137 142.3 219.323 129.882 217.866 116.959C215.239 93.6457 223.391 70.8756 240.231 54.4866C249.963 45.0097 262.09 38.2702 275.299 34.9969C277.795 34.3711 280.413 33.8579 283.074 33.4754C284.784 33.2296 286.547 33.039 288.316 32.9071C293.817 32.4946 299.382 32.6661 304.854 33.4191C310.375 34.172 315.818 35.5173 321.028 37.4153C323.297 38.2426 325.561 39.191 327.755 40.2353C328.634 40.6454 329.444 41.0483 330.222 41.4595C337.248 45.0925 343.705 49.8213 349.395 55.5045C363.981 70.0915 371.938 89.3785 371.799 109.815C371.661 130.094 363.551 149.082 348.96 163.283C334.416 177.445 314.916 185.081 294.944 185.081L294.946 185.083ZM222.037 116.489C223.412 128.695 227.96 140.423 235.187 150.406C236.718 152.519 238.369 154.562 240.095 156.478C240.89 157.365 241.763 158.288 242.769 159.305C245.503 162.038 248.471 164.572 251.584 166.829C254.192 168.729 256.975 170.481 259.861 172.041C263.236 173.867 266.808 175.446 270.48 176.734C271.804 177.193 273.154 177.622 274.485 178.007C299.893 185.3 327.309 178.508 346.032 160.277C359.811 146.865 367.472 128.936 367.601 109.789C367.732 90.484 360.213 72.2605 346.428 58.4756C341.045 53.0981 334.937 48.6247 328.275 45.1812C327.541 44.7927 326.792 44.421 325.965 44.0338C323.876 43.0398 321.736 42.1429 319.591 41.3612C314.661 39.5651 309.511 38.293 304.283 37.5796C299.101 36.8662 293.835 36.7043 288.628 37.0952C286.952 37.2199 285.285 37.3997 283.67 37.6311C281.151 37.9944 278.675 38.4788 276.313 39.0711C263.821 42.1669 252.357 48.5372 243.157 57.4961C227.254 72.9727 219.556 94.4778 222.036 116.49L222.037 116.489Z" fill="#371A45"></path>
    <path d="M224.516 135.197C253.723 179.796 317.429 182.323 340.317 135.106C355.888 102.982 335.944 62.9597 303.629 50.0046C280.11 40.5757 253.027 41.4989 228.422 73.4293C228.422 73.4293 219.752 89.2369 219.767 102.109C219.781 114.983 221.996 127.512 221.996 127.512L224.516 135.196V135.197Z" fill="#371A45"></path>
    <path d="M340.314 135.105C317.429 182.322 253.721 179.793 224.514 135.199L224.005 133.64C265.616 159.739 321.222 151.452 345.265 104.143C346.546 114.528 345.118 125.191 340.314 135.105Z" fill="#291134"></path>
    <path d="M286.075 179.342C273.685 179.342 261.036 176.323 249.401 170.398L249.121 170.226C245.83 167.84 242.691 165.162 239.794 162.265C238.731 161.191 237.81 160.217 236.973 159.282C235.152 157.259 233.405 155.1 231.787 152.867C224.137 142.299 219.323 129.882 217.866 116.959C215.239 93.6455 223.39 70.8754 240.231 54.4864C249.963 45.0095 262.09 38.27 275.299 34.9967L275.509 34.9452L275.723 34.9368C285.661 34.5555 296.177 36.5638 306.993 40.9006C326.464 48.706 342.775 65.4847 350.626 85.7837C357.697 104.068 357.241 123.117 349.337 139.421C340.735 157.162 326.798 169.694 309.035 175.663C301.704 178.125 293.941 179.342 286.075 179.342ZM251.452 166.733C269.441 175.849 289.931 177.654 307.698 171.684C324.369 166.084 337.461 154.294 345.56 137.59C352.951 122.346 353.358 104.486 346.711 87.298C339.272 68.065 323.84 52.1771 305.431 44.7973C295.243 40.7135 285.376 38.8083 276.099 39.1249C263.694 42.2374 252.307 48.5873 243.159 57.4958C227.255 72.9725 219.558 94.4776 222.037 116.49C223.412 128.696 227.96 140.424 235.187 150.407C236.718 152.52 238.369 154.563 240.095 156.479C240.89 157.366 241.763 158.289 242.769 159.306C245.464 162 248.388 164.501 251.451 166.733H251.452Z" fill="#371A45"></path>
    <path d="M285.597 170.504C261.384 170.504 237.998 157.449 223.752 135.698L223.686 135.597L221.098 127.673C221.075 127.547 218.868 114.915 218.855 102.111C218.841 89.1527 227.264 73.6449 227.623 72.9902L227.699 72.8715C248.907 45.3486 274.568 37.3693 303.97 49.1566C321.051 56.0041 335.363 70.7289 342.254 88.5448C348.449 104.562 348.053 121.239 341.14 135.503C331.103 156.21 312.428 168.917 289.904 170.365C288.468 170.458 287.029 170.503 285.598 170.503L285.597 170.504ZM225.346 134.797C240.081 157.226 264.76 170.155 289.787 168.544C311.635 167.139 329.754 154.806 339.496 134.708C346.188 120.904 346.562 104.744 340.551 89.2054C333.839 71.8524 319.909 57.516 303.29 50.8532C274.761 39.4136 249.831 47.1795 229.191 73.929C228.613 75.0045 220.667 90.0171 220.681 102.109C220.694 114.288 222.718 126.319 222.886 127.293L225.347 134.798L225.346 134.797Z" fill="#371A45"></path>
    <path d="M372.42 144.623C367.697 158.451 355.448 167.247 345.058 164.266C334.668 161.286 330.074 147.658 334.797 133.83C334.825 133.742 334.859 133.651 334.892 133.565C339.676 119.889 351.842 111.225 362.159 114.187C370.185 116.489 374.752 125.146 374.24 135.339C374.088 138.34 373.495 141.479 372.421 144.623H372.42Z" fill="white"></path>
    <g opacity="0.2">
      <path d="M372.42 144.623C367.697 158.451 355.448 167.247 345.058 164.266C334.668 161.286 330.074 147.658 334.797 133.83C334.825 133.742 334.859 133.651 334.892 133.565C335.55 135.312 336.85 137.219 339.419 137.439C343.92 137.822 354.528 131.102 354.528 131.102C354.528 131.102 363.087 132.884 374.239 135.338C374.087 138.339 373.493 141.478 372.42 144.622V144.623Z" fill="#371A45"></path>
    </g>
    <path d="M349.173 166.934C347.589 166.934 346.017 166.723 344.48 166.282C339.855 164.954 336.125 161.791 333.694 157.133C330.208 150.456 329.886 141.715 332.811 133.151C337.882 118.301 351.309 108.892 362.739 112.17C367.364 113.497 371.094 116.66 373.526 121.318C377.011 127.995 377.334 136.737 374.409 145.302C370.02 158.154 359.37 166.934 349.173 166.934ZM357.948 115.7C349.54 115.7 340.587 123.368 336.784 134.506C334.266 141.878 334.502 149.611 337.415 155.191C339.301 158.805 342.145 161.245 345.638 162.247C354.954 164.924 366.077 156.71 370.437 143.946C372.955 136.573 372.719 128.841 369.805 123.261C367.918 119.646 365.075 117.206 361.582 116.204C360.394 115.863 359.177 115.7 357.948 115.7Z" fill="#371A45"></path>
    <path d="M373.353 146.801C369.457 158.06 359.925 165.411 352.061 163.222C344.197 161.031 340.979 150.129 344.874 138.869C348.77 127.609 358.302 120.258 366.166 122.448C374.03 124.638 377.248 135.541 373.353 146.801Z" fill="white"></path>
    <g opacity="0.2">
      <path d="M352.059 163.221C359.927 165.412 369.456 158.061 373.353 146.799C373.779 145.578 374.113 144.357 374.374 143.156C369.663 150.219 362.565 154.18 356.451 152.471C349.547 150.539 346.164 142.002 347.973 132.397C346.741 134.351 345.686 136.525 344.875 138.867C340.978 150.129 344.198 161.03 352.06 163.221H352.059Z" fill="#371A45"></path>
    </g>
    <path d="M354.985 165.716C353.81 165.716 352.643 165.562 351.498 165.243C348.039 164.281 345.237 161.914 343.394 158.401C340.566 153.008 340.377 145.449 342.891 138.183C347.207 125.705 357.678 117.904 366.729 120.426C370.188 121.389 372.99 123.756 374.833 127.269C377.661 132.662 377.85 140.22 375.337 147.486C371.566 158.385 363.1 165.716 354.986 165.716H354.985ZM363.335 124.166C357.087 124.166 349.948 130.62 346.857 139.555C344.714 145.748 344.81 152.063 347.111 156.45C348.402 158.912 350.309 160.554 352.624 161.199C359.313 163.061 367.897 156.154 371.37 146.114C373.513 139.921 373.418 133.606 371.116 129.218C369.825 126.757 367.918 125.114 365.603 124.469C364.867 124.264 364.107 124.166 363.335 124.166Z" fill="#371A45"></path>
    <g opacity="0.5">
      <path d="M315.314 69.9508C315.314 69.9508 287.157 55.003 262.481 65.945C262.454 65.957 262.429 65.9678 262.403 65.9798C257.211 68.2866 248.493 76.2048 245.211 80.7909C240.87 86.8567 238.783 91.6694 237.111 95.9774C232.035 109.08 232.754 116.171 232.754 116.171C227.867 106.356 226.037 96.8671 230.156 85.9118C230.565 84.8328 231.028 83.7357 231.537 82.6242C231.653 82.3676 231.776 82.1158 231.902 81.864C231.897 81.8593 231.902 81.8545 231.911 81.8497C233.107 79.6711 234.786 76.8666 236.949 73.862C243.47 64.7952 254.364 53.8807 269.552 52.6865C297.951 50.4528 316.94 69 315.314 69.9496V69.9508Z" fill="white"></path>
    </g>
    <g opacity="0.5">
      <path d="M332.842 112.223C333.453 105.881 329.472 100.309 323.95 99.7772C318.429 99.2455 313.458 103.956 312.847 110.298C312.236 116.64 316.217 122.213 321.739 122.744C327.261 123.276 332.232 118.566 332.842 112.223Z" fill="white"></path>
    </g>
    <g opacity="0.5">
      <path d="M324.81 132.123C324.818 129.491 322.968 127.352 320.678 127.345C318.388 127.338 316.526 129.467 316.518 132.099C316.51 134.731 318.36 136.87 320.65 136.877C322.94 136.884 324.802 134.756 324.81 132.123Z" fill="white"></path>
    </g>
    <g opacity="0.2">
      <path d="M239.532 279.238C239.532 279.238 239.373 279.345 239.074 279.551C222.426 283.54 204.973 285.764 204.973 285.764C201.114 302.208 196.286 314.571 193.517 320.949C192.202 323.971 189.225 325.916 185.932 325.969C147.193 326.622 140.465 311.114 140.465 311.114C140.029 308.354 139.991 306.004 140.278 304.012C140.963 304.495 141.668 305.031 142.405 305.621C163.641 322.66 180.06 303.29 180.06 303.29L191.432 277.565C192.519 275.107 194.909 273.509 197.593 273.367C220.923 272.124 220.719 252.74 220.719 252.74L239.53 279.237L239.532 279.238Z" fill="#371A45"></path>
    </g>
    <path d="M164.484 66.8078L168.172 78.1599C168.703 79.7941 170.226 80.8996 171.944 80.8996H183.881C188.735 80.8996 190.754 87.1116 186.826 89.964L177.169 96.9805C175.78 97.99 175.198 99.7801 175.728 101.414L179.416 112.766C180.916 117.383 175.632 121.222 171.706 118.368L162.049 111.352C160.659 110.342 158.777 110.342 157.387 111.352L147.73 118.368C143.804 121.222 138.52 117.383 140.02 112.766L143.708 101.414C144.239 99.7801 143.657 97.99 142.268 96.9805L132.611 89.964C128.684 87.1104 130.702 80.8996 135.556 80.8996H147.493C149.211 80.8996 150.734 79.7929 151.265 78.1599L154.953 66.8078C156.453 62.1917 162.984 62.1917 164.484 66.8078Z" fill="#FFD72E"></path>
    <path d="M145.386 121.663C143.924 121.663 142.464 121.2 141.188 120.274C138.638 118.421 137.62 115.287 138.594 112.289L142.282 100.937C142.529 100.178 142.26 99.3547 141.615 98.8859L131.958 91.8694C129.409 90.0169 128.39 86.8827 129.364 83.8853C130.337 80.8878 133.004 78.9502 136.156 78.9502H148.093C148.891 78.9502 149.592 78.4406 149.839 77.6817L153.527 66.3296C154.501 63.3321 157.167 61.3945 160.319 61.3945C163.472 61.3945 166.137 63.3321 167.112 66.3296L170.8 77.6829C171.047 78.4406 171.748 78.9502 172.546 78.9502H184.483C187.635 78.9502 190.3 80.8878 191.275 83.8853C192.249 86.8827 191.231 90.0169 188.68 91.8694L179.024 98.8859C178.379 99.3547 178.111 100.18 178.357 100.937L182.045 112.291C183.019 115.288 182.001 118.422 179.451 120.275C176.9 122.127 173.605 122.126 171.055 120.275L161.399 113.258C160.752 112.789 159.885 112.788 159.242 113.258L149.585 120.275C148.31 121.2 146.849 121.664 145.387 121.664L145.386 121.663ZM136.156 83.2114C134.613 83.2114 133.729 84.239 133.416 85.2018C133.103 86.1633 133.215 87.5146 134.463 88.4223L144.12 95.4388C146.262 96.9963 147.153 99.7348 146.334 102.255L142.646 113.607C142.169 115.075 142.874 116.233 143.693 116.828C144.511 117.422 145.831 117.734 147.079 116.828L156.736 109.811C158.879 108.254 161.758 108.254 163.902 109.811L173.559 116.828C174.807 117.735 176.127 117.424 176.945 116.828C177.764 116.233 178.469 115.075 177.991 113.607L174.303 102.255C173.484 99.736 174.375 96.9975 176.518 95.44L186.175 88.4235C187.423 87.517 187.534 86.1657 187.221 85.203C186.908 84.2402 186.025 83.2126 184.482 83.2126H172.544C169.896 83.2126 167.566 81.5196 166.747 79.0006L163.058 67.6473C162.582 66.1797 161.33 65.657 160.318 65.657C159.306 65.657 158.056 66.1797 157.579 67.6473L153.89 79.0006C153.072 81.5208 150.742 83.2126 148.092 83.2126H136.156V83.2114Z" fill="#371A45"></path>
    <path d="M222.866 2.50864L224.193 6.59361C224.384 7.18112 224.932 7.57918 225.551 7.57918H229.845C231.592 7.57918 232.318 9.81411 230.905 10.8404L227.431 13.3643C226.931 13.7276 226.721 14.3715 226.913 14.959L228.24 19.044C228.779 20.7046 226.879 22.0858 225.465 21.0595L221.991 18.5356C221.491 18.1723 220.813 18.1723 220.313 18.5356L216.839 21.0595C215.426 22.0858 213.525 20.7046 214.064 19.044L215.391 14.959C215.582 14.3715 215.373 13.7276 214.873 13.3643L211.399 10.8404C209.986 9.81411 210.712 7.57918 212.459 7.57918H216.754C217.372 7.57918 217.919 7.18112 218.111 6.59361L219.438 2.50864C219.978 0.848032 222.328 0.848032 222.867 2.50864H222.866Z" fill="#FFD72E"></path>
    <path d="M226.74 22.8075C226.099 22.8075 225.459 22.6049 224.9 22.1984L221.426 19.6746C221.391 19.6494 221.344 19.6494 221.309 19.6746L217.835 22.1996C216.717 23.0114 215.273 23.0114 214.154 22.1996C213.036 21.3879 212.59 20.0139 213.017 18.6998L214.345 14.6148C214.358 14.574 214.343 14.5297 214.309 14.5033L210.834 11.9806C209.716 11.1677 209.269 9.79365 209.697 8.48075C210.124 7.16665 211.293 6.31776 212.674 6.31776H216.969C217.012 6.31776 217.051 6.29019 217.064 6.24942L218.391 2.16445C218.818 0.850352 219.987 0.00146484 221.368 0.00146484C222.749 0.00146484 223.919 0.850352 224.345 2.16445L225.673 6.24942C225.686 6.29019 225.724 6.31776 225.767 6.31776H230.062C231.443 6.31776 232.612 7.16665 233.039 8.48075C233.466 9.79485 233.02 11.1689 231.903 11.9806L228.428 14.5045C228.393 14.5297 228.379 14.574 228.392 14.6148L229.719 18.6998C230.146 20.0139 229.7 21.3879 228.583 22.1996C228.024 22.6061 227.382 22.8087 226.742 22.8087L226.74 22.8075ZM221.367 16.9984C221.934 16.9984 222.502 17.1735 222.987 17.526L226.462 20.0498C226.692 20.2189 226.893 20.1434 227.02 20.0498C227.147 19.9575 227.282 19.7897 227.193 19.5187L225.866 15.4337C225.496 14.2959 225.898 13.0585 226.866 12.3547L230.34 9.83082C230.571 9.66296 230.561 9.44954 230.513 9.29966C230.464 9.14979 230.346 8.97114 230.061 8.97114H225.766C224.568 8.97114 223.517 8.20618 223.146 7.06714L221.819 2.98336C221.73 2.71119 221.524 2.65484 221.367 2.65484C221.21 2.65484 221.004 2.71119 220.915 2.98336L219.588 7.06834C219.218 8.20618 218.166 8.97114 216.968 8.97114H212.673C212.388 8.97114 212.27 9.14979 212.221 9.29846C212.172 9.44834 212.162 9.66296 212.394 9.83082L215.868 12.3547C216.837 13.0585 217.239 14.2959 216.87 15.4337L215.542 19.5187C215.455 19.7897 215.588 19.9575 215.715 20.0498C215.842 20.1434 216.044 20.2177 216.274 20.0498L219.747 17.526C220.232 17.1747 220.799 16.9984 221.366 16.9984H221.367Z" fill="#371A45"></path>
    <path d="M366.767 8.48276L368.095 12.5677C368.285 13.1552 368.833 13.5533 369.452 13.5533H373.747C375.494 13.5533 376.219 15.7882 374.807 16.8146L371.332 19.3384C370.832 19.7017 370.622 20.3456 370.814 20.9331L372.141 25.0181C372.681 26.6787 370.78 28.0599 369.367 27.0336L365.892 24.5097C365.392 24.1464 364.715 24.1464 364.215 24.5097L360.74 27.0336C359.328 28.0599 357.426 26.6787 357.966 25.0181L359.293 20.9331C359.483 20.3456 359.275 19.7017 358.775 19.3384L355.3 16.8146C353.888 15.7882 354.613 13.5533 356.36 13.5533H360.655C361.274 13.5533 361.82 13.1552 362.012 12.5677L363.339 8.48276C363.879 6.82215 366.229 6.82215 366.769 8.48276H366.767Z" fill="#FFD72E"></path>
    <path d="M370.642 28.7819C370.001 28.7819 369.361 28.5792 368.802 28.1728L365.328 25.6489C365.292 25.6237 365.246 25.6237 365.211 25.6489L361.737 28.174C360.619 28.9857 359.174 28.9857 358.057 28.174C356.939 27.3623 356.493 25.9882 356.92 24.6741L358.248 20.5891C358.261 20.5484 358.246 20.504 358.21 20.4776L354.736 17.9538C353.618 17.142 353.172 15.768 353.599 14.4539C354.026 13.1398 355.195 12.2909 356.576 12.2909H360.871C360.914 12.2909 360.953 12.2633 360.966 12.2226L362.292 8.13759C362.719 6.8235 363.888 5.97461 365.269 5.97461C366.65 5.97461 367.819 6.8235 368.246 8.13759L369.573 12.2226C369.586 12.2633 369.625 12.2909 369.668 12.2909H373.963C375.344 12.2909 376.513 13.141 376.94 14.4539C377.367 15.768 376.921 17.142 375.803 17.9538L372.329 20.4776C372.294 20.5028 372.279 20.5472 372.293 20.5891L373.62 24.6729C374.047 25.987 373.601 27.3611 372.483 28.1728C371.924 28.5792 371.284 28.7819 370.643 28.7819H370.642ZM365.269 22.9727C365.836 22.9727 366.404 23.149 366.889 23.5015L370.363 26.0254C370.595 26.1944 370.795 26.1189 370.922 26.0254C371.049 25.9331 371.184 25.7652 371.095 25.4942L369.768 21.4093C369.398 20.2714 369.8 19.0341 370.767 18.3302L374.242 15.8052C374.472 15.6373 374.464 15.4239 374.415 15.2752C374.366 15.1253 374.248 14.9467 373.963 14.9467H369.668C368.471 14.9467 367.419 14.1817 367.048 13.0439L365.721 8.9589C365.633 8.68673 365.427 8.63038 365.269 8.63038C365.112 8.63038 364.906 8.68673 364.817 8.9589L363.491 13.0439C363.12 14.1817 362.068 14.9467 360.871 14.9467H356.576C356.291 14.9467 356.173 15.1253 356.124 15.2752C356.075 15.4251 356.065 15.6385 356.297 15.8052L359.771 18.329C360.74 19.0329 361.142 20.2714 360.773 21.4081L359.445 25.493C359.358 25.764 359.491 25.9319 359.618 26.0242C359.745 26.1165 359.945 26.192 360.177 26.0242L363.651 23.5003C364.136 23.149 364.703 22.9727 365.27 22.9727H365.269Z" fill="#371A45"></path>
    <path d="M417.217 100.881L418.544 104.966C418.734 105.554 419.282 105.952 419.901 105.952H424.196C425.943 105.952 426.668 108.187 425.256 109.213L421.781 111.737C421.281 112.1 421.071 112.744 421.263 113.332L422.59 117.417C423.13 119.077 421.23 120.458 419.816 119.432L416.341 116.908C415.841 116.545 415.164 116.545 414.664 116.908L411.189 119.432C409.777 120.458 407.875 119.077 408.415 117.417L409.742 113.332C409.933 112.744 409.724 112.1 409.224 111.737L405.749 109.213C404.337 108.187 405.062 105.952 406.809 105.952H411.104C411.723 105.952 412.27 105.554 412.461 104.966L413.789 100.881C414.328 99.2206 416.678 99.2206 417.218 100.881H417.217Z" fill="#FFD72E"></path>
    <path d="M410.345 121.18C409.705 121.18 409.065 120.977 408.506 120.571C407.389 119.759 406.941 118.385 407.368 117.071L408.696 112.987C408.709 112.946 408.696 112.902 408.66 112.877L405.185 110.353C404.067 109.541 403.621 108.167 404.048 106.853C404.475 105.539 405.644 104.689 407.025 104.689H411.32C411.363 104.689 411.402 104.661 411.415 104.621L412.741 100.536C413.168 99.2214 414.337 98.3726 415.718 98.3726C417.099 98.3726 418.268 99.2214 418.695 100.536L420.022 104.621C420.036 104.661 420.074 104.689 420.117 104.689H424.412C425.793 104.689 426.962 105.539 427.389 106.852C427.816 108.166 427.37 109.54 426.252 110.352L422.778 112.876C422.743 112.901 422.729 112.946 422.742 112.987L424.069 117.071C424.496 118.385 424.05 119.759 422.932 120.571C421.815 121.384 420.37 121.382 419.253 120.571L415.778 118.047C415.744 118.022 415.695 118.022 415.662 118.047L412.187 120.571C411.628 120.976 410.988 121.18 410.347 121.18H410.345ZM407.024 107.343C406.739 107.343 406.621 107.522 406.572 107.672C406.523 107.822 406.513 108.035 406.745 108.203L410.22 110.727C411.187 111.43 411.59 112.667 411.221 113.806L409.893 117.891C409.806 118.163 409.939 118.33 410.066 118.422C410.193 118.514 410.393 118.589 410.625 118.422L414.099 115.897C415.068 115.194 416.369 115.194 417.337 115.897L420.811 118.421C421.043 118.589 421.243 118.514 421.37 118.421C421.497 118.329 421.632 118.161 421.543 117.89L420.216 113.806C419.846 112.666 420.248 111.43 421.217 110.726L424.691 108.202C424.922 108.034 424.913 107.821 424.864 107.671C424.815 107.521 424.697 107.342 424.412 107.342H420.117C418.921 107.342 417.868 106.577 417.497 105.439L416.17 101.354C416.083 101.082 415.876 101.026 415.718 101.026C415.561 101.026 415.355 101.082 415.266 101.354L413.94 105.439C413.57 106.577 412.517 107.342 411.32 107.342H407.025L407.024 107.343Z" fill="#371A45"></path>
    <path d="M146.378 179.288L147.705 183.373C147.896 183.96 148.444 184.358 149.062 184.358H153.357C155.104 184.358 155.829 186.593 154.417 187.62L150.942 190.144C150.442 190.507 150.232 191.151 150.424 191.738L151.752 195.823C152.291 197.484 150.391 198.865 148.977 197.839L145.502 195.315C145.002 194.952 144.325 194.952 143.825 195.315L140.35 197.839C138.938 198.865 137.036 197.484 137.576 195.823L138.903 191.738C139.094 191.151 138.885 190.507 138.385 190.144L134.911 187.62C133.498 186.593 134.223 184.358 135.97 184.358H140.265C140.884 184.358 141.431 183.96 141.622 183.373L142.95 179.288C143.489 177.627 145.839 177.627 146.379 179.288H146.378Z" fill="#FFD72E"></path>
    <path d="M139.507 199.588C138.867 199.588 138.227 199.386 137.668 198.979C136.55 198.167 136.103 196.793 136.53 195.479L137.857 191.396C137.87 191.355 137.857 191.31 137.821 191.285L134.347 188.761C133.229 187.948 132.782 186.574 133.21 185.262C133.637 183.947 134.806 183.099 136.187 183.099H140.482C140.525 183.099 140.562 183.071 140.575 183.03L141.903 178.945C142.329 177.631 143.499 176.782 144.88 176.782C146.261 176.782 147.43 177.631 147.857 178.945L149.184 183.03C149.197 183.071 149.236 183.099 149.279 183.099H153.574C154.955 183.099 156.124 183.947 156.551 185.262C156.978 186.576 156.532 187.95 155.414 188.761L151.939 191.286C151.905 191.312 151.89 191.356 151.903 191.397L153.231 195.481C153.658 196.795 153.212 198.169 152.093 198.98C150.975 199.793 149.531 199.792 148.413 198.98L144.938 196.457C144.904 196.43 144.856 196.43 144.821 196.457L141.348 198.98C140.789 199.386 140.149 199.589 139.507 199.589V199.588ZM136.187 185.752C135.902 185.752 135.784 185.931 135.735 186.08C135.686 186.23 135.676 186.444 135.908 186.612L139.382 189.135C140.351 189.838 140.753 191.077 140.384 192.216L139.056 196.299C138.969 196.57 139.102 196.738 139.229 196.831C139.356 196.923 139.556 196.997 139.788 196.831L143.262 194.306C144.231 193.603 145.532 193.603 146.5 194.306L149.974 196.829C150.206 196.997 150.406 196.922 150.533 196.829C150.66 196.736 150.794 196.569 150.706 196.298L149.378 192.214C149.008 191.075 149.411 189.838 150.378 189.134L153.853 186.61C154.084 186.443 154.075 186.229 154.026 186.079C153.977 185.929 153.859 185.751 153.574 185.751H149.279C148.081 185.751 147.03 184.986 146.659 183.847L145.332 179.763C145.243 179.491 145.037 179.434 144.88 179.434C144.723 179.434 144.516 179.491 144.428 179.763L143.1 183.848C142.731 184.986 141.678 185.751 140.481 185.751H136.186L136.187 185.752Z" fill="#371A45"></path>
  </g>
  <defs>
    <clipPath id="clip0_5601_2700">
      <rect width="298.548" height="377.64" fill="white" transform="translate(129)"></rect>
    </clipPath>
  </defs>
</svg>
